G75*
G70*
%OFA0B0*%
%FSLAX24Y24*%
%IPPOS*%
%LPD*%
%AMOC8*
5,1,8,0,0,1.08239X$1,22.5*
%
%ADD10C,0.0714*%
%ADD11O,0.0640X0.1280*%
%ADD12OC8,0.0640*%
%ADD13OC8,0.0720*%
%ADD14C,0.0100*%
%ADD15C,0.0160*%
%ADD16OC8,0.0360*%
D10*
X003558Y005721D03*
X004558Y005721D03*
X005558Y005721D03*
X006558Y005721D03*
X007558Y005721D03*
X008558Y005721D03*
X009558Y005721D03*
X010558Y005721D03*
X011558Y005721D03*
X012558Y005721D03*
X013558Y005721D03*
X014558Y005721D03*
X015558Y005721D03*
X016558Y005721D03*
X017558Y005721D03*
X018558Y005721D03*
X019558Y005721D03*
X020558Y005721D03*
X021558Y005721D03*
X022558Y005721D03*
X023558Y005721D03*
D11*
X017158Y007221D03*
X016158Y007221D03*
X015158Y007221D03*
X014158Y007221D03*
X013158Y007221D03*
X012158Y007221D03*
X011158Y007221D03*
X010158Y007221D03*
X010158Y010221D03*
X011158Y010221D03*
X012158Y010221D03*
X013158Y010221D03*
X014158Y010221D03*
X015158Y010221D03*
X016158Y010221D03*
X017158Y010221D03*
D12*
X018758Y010171D03*
X019758Y010171D03*
X019758Y008521D03*
X018758Y008521D03*
X018758Y006871D03*
X019758Y006871D03*
X021858Y007071D03*
X022858Y007071D03*
X008958Y009121D03*
X007958Y009121D03*
D13*
X011948Y011821D03*
X013028Y011821D03*
X014108Y011821D03*
X015188Y011821D03*
X016268Y011821D03*
X015728Y012821D03*
X014648Y012821D03*
X013568Y012821D03*
X012488Y012821D03*
D14*
X014108Y011821D02*
X014158Y011771D01*
X014158Y010221D01*
X015158Y010221D02*
X015258Y010321D01*
X015258Y011821D01*
X015188Y011821D01*
X011608Y008121D02*
X008958Y008121D01*
X008958Y009121D01*
X011608Y008121D02*
X012158Y007571D01*
X012158Y007221D01*
X012158Y007171D01*
X016158Y007221D02*
X016158Y006871D01*
X016708Y006321D01*
X021108Y006321D01*
X021858Y007071D01*
D15*
X022195Y007440D02*
X022448Y007440D01*
X022448Y007368D02*
X022448Y008713D01*
X020550Y010611D01*
X020025Y010611D01*
X020258Y010378D01*
X020258Y009964D01*
X019965Y009671D01*
X019551Y009671D01*
X019272Y009950D01*
X018973Y009651D01*
X018758Y009651D01*
X018758Y010170D01*
X018758Y010170D01*
X018758Y009651D01*
X018543Y009651D01*
X018238Y009955D01*
X018238Y010171D01*
X018238Y010386D01*
X018463Y010611D01*
X017766Y010611D01*
X017658Y010503D01*
X017658Y009694D01*
X017365Y009401D01*
X016951Y009401D01*
X016672Y009680D01*
X016373Y009381D01*
X016158Y009381D01*
X016158Y010220D01*
X016158Y010220D01*
X016158Y009381D01*
X015943Y009381D01*
X015644Y009680D01*
X015365Y009401D01*
X014951Y009401D01*
X014658Y009694D01*
X014365Y009401D01*
X013951Y009401D01*
X013658Y009694D01*
X013658Y010748D01*
X013928Y011018D01*
X013928Y011281D01*
X013884Y011281D01*
X013568Y011597D01*
X013252Y011281D01*
X012804Y011281D01*
X012502Y011583D01*
X012180Y011261D01*
X011968Y011261D01*
X011968Y011801D01*
X011928Y011801D01*
X011928Y011841D01*
X011968Y011841D01*
X011968Y012381D01*
X012164Y012381D01*
X011948Y012597D01*
X011948Y013044D01*
X012264Y013361D01*
X012712Y013361D01*
X013028Y013044D01*
X013344Y013361D01*
X013792Y013361D01*
X014108Y013044D01*
X014108Y012597D01*
X013792Y012281D01*
X013344Y012281D01*
X013028Y012597D01*
X013028Y013044D01*
X013028Y012597D01*
X012712Y012281D01*
X012280Y012281D01*
X012502Y012059D01*
X012804Y012361D01*
X013252Y012361D01*
X013568Y012044D01*
X013568Y011597D01*
X013568Y012044D01*
X013884Y012361D01*
X014332Y012361D01*
X014648Y012044D01*
X014648Y011597D01*
X014388Y011337D01*
X014388Y011018D01*
X014658Y010748D01*
X014658Y009694D01*
X014658Y010748D01*
X014951Y011041D01*
X015028Y011041D01*
X015028Y011281D01*
X014964Y011281D01*
X014648Y011597D01*
X014648Y012044D01*
X014964Y012361D01*
X015412Y012361D01*
X015728Y012044D01*
X016044Y012361D01*
X016492Y012361D01*
X016808Y012044D01*
X016808Y011597D01*
X016492Y011281D01*
X016044Y011281D01*
X015728Y011597D01*
X015728Y012044D01*
X015728Y011597D01*
X015488Y011357D01*
X015488Y010918D01*
X015644Y010762D01*
X015943Y011061D01*
X016158Y011061D01*
X016373Y011061D01*
X016672Y010762D01*
X016951Y011041D01*
X017365Y011041D01*
X017413Y010993D01*
X017550Y011131D01*
X019650Y011131D01*
X019866Y011131D01*
X020550Y011131D01*
X020766Y011131D01*
X022816Y009081D01*
X022968Y008928D01*
X022968Y007571D01*
X023065Y007571D01*
X023358Y007278D01*
X023358Y006864D01*
X023065Y006571D01*
X022918Y006571D01*
X022918Y006120D01*
X023013Y006025D01*
X023047Y005943D01*
X023086Y006036D01*
X023243Y006193D01*
X023447Y006278D01*
X023539Y006278D01*
X023539Y005739D01*
X023576Y005739D01*
X023576Y006278D01*
X023669Y006278D01*
X023873Y006193D01*
X023878Y006188D01*
X023878Y009971D01*
X022758Y009971D01*
X022609Y009982D01*
X022464Y010017D01*
X022327Y010074D01*
X022200Y010152D01*
X022086Y010249D01*
X021989Y010362D01*
X021911Y010489D01*
X021854Y010627D01*
X021820Y010772D01*
X021808Y010921D01*
X021808Y011321D01*
X021819Y011462D01*
X021852Y011599D01*
X021906Y011729D01*
X021980Y011850D01*
X022072Y011957D01*
X022179Y012049D01*
X022299Y012123D01*
X022430Y012177D01*
X022567Y012210D01*
X022708Y012221D01*
X023878Y012221D01*
X023878Y013941D01*
X003238Y013941D01*
X003238Y012221D01*
X004358Y012221D01*
X004503Y012213D01*
X004645Y012183D01*
X004781Y012131D01*
X004906Y012059D01*
X005019Y011968D01*
X005117Y011860D01*
X005196Y011738D01*
X005255Y011605D01*
X005293Y011465D01*
X005308Y011321D01*
X005308Y010921D01*
X005296Y010772D01*
X005261Y010627D01*
X005204Y010489D01*
X005126Y010362D01*
X005030Y010249D01*
X004916Y010152D01*
X004789Y010074D01*
X004651Y010017D01*
X004507Y009982D01*
X004358Y009971D01*
X003238Y009971D01*
X003238Y006160D01*
X003254Y006176D01*
X003451Y006258D01*
X003665Y006258D01*
X003862Y006176D01*
X004013Y006025D01*
X004058Y005916D01*
X004103Y006025D01*
X004254Y006176D01*
X004451Y006258D01*
X004665Y006258D01*
X004862Y006176D01*
X005013Y006025D01*
X005058Y005916D01*
X005103Y006025D01*
X005254Y006176D01*
X005451Y006258D01*
X005665Y006258D01*
X005862Y006176D01*
X006013Y006025D01*
X006058Y005916D01*
X006103Y006025D01*
X006254Y006176D01*
X006451Y006258D01*
X006665Y006258D01*
X006862Y006176D01*
X007013Y006025D01*
X007058Y005916D01*
X007103Y006025D01*
X007254Y006176D01*
X007451Y006258D01*
X007665Y006258D01*
X007862Y006176D01*
X008013Y006025D01*
X008058Y005916D01*
X008103Y006025D01*
X008254Y006176D01*
X008451Y006258D01*
X008665Y006258D01*
X008862Y006176D01*
X009013Y006025D01*
X009058Y005916D01*
X009103Y006025D01*
X009254Y006176D01*
X009451Y006258D01*
X009665Y006258D01*
X009862Y006176D01*
X010013Y006025D01*
X010058Y005916D01*
X010103Y006025D01*
X010254Y006176D01*
X010451Y006258D01*
X010665Y006258D01*
X010862Y006176D01*
X011013Y006025D01*
X011058Y005916D01*
X011103Y006025D01*
X011254Y006176D01*
X011451Y006258D01*
X011665Y006258D01*
X011862Y006176D01*
X012013Y006025D01*
X012058Y005916D01*
X012103Y006025D01*
X012254Y006176D01*
X012451Y006258D01*
X012665Y006258D01*
X012862Y006176D01*
X013013Y006025D01*
X013058Y005916D01*
X013103Y006025D01*
X013254Y006176D01*
X013451Y006258D01*
X013665Y006258D01*
X013862Y006176D01*
X014013Y006025D01*
X014058Y005916D01*
X014103Y006025D01*
X014254Y006176D01*
X014451Y006258D01*
X014665Y006258D01*
X014862Y006176D01*
X015013Y006025D01*
X015058Y005916D01*
X015103Y006025D01*
X015254Y006176D01*
X015451Y006258D01*
X015665Y006258D01*
X015862Y006176D01*
X016013Y006025D01*
X016058Y005916D01*
X016103Y006025D01*
X016254Y006176D01*
X016447Y006256D01*
X016303Y006401D01*
X015951Y006401D01*
X015658Y006694D01*
X015365Y006401D01*
X014951Y006401D01*
X014658Y006694D01*
X014365Y006401D01*
X013951Y006401D01*
X013658Y006694D01*
X013365Y006401D01*
X012951Y006401D01*
X012658Y006694D01*
X012658Y007748D01*
X012951Y008041D01*
X013365Y008041D01*
X013658Y007748D01*
X013658Y006694D01*
X013658Y007748D01*
X013951Y008041D01*
X014365Y008041D01*
X014658Y007748D01*
X014658Y006694D01*
X014658Y007748D01*
X014951Y008041D01*
X015365Y008041D01*
X015658Y007748D01*
X015658Y006694D01*
X015658Y007748D01*
X015951Y008041D01*
X016365Y008041D01*
X016658Y007748D01*
X016951Y008041D01*
X017365Y008041D01*
X017658Y007748D01*
X017658Y006694D01*
X017515Y006551D01*
X018371Y006551D01*
X018258Y006664D01*
X018258Y007078D01*
X018551Y007371D01*
X018965Y007371D01*
X019258Y007078D01*
X019551Y007371D01*
X019965Y007371D01*
X020258Y007078D01*
X020258Y006664D01*
X020145Y006551D01*
X021013Y006551D01*
X021358Y006896D01*
X021358Y007278D01*
X021651Y007571D01*
X022065Y007571D01*
X022358Y007278D01*
X022448Y007368D01*
X022362Y007282D02*
X022354Y007282D01*
X022358Y007278D02*
X022358Y006864D01*
X022358Y007278D01*
X022358Y007123D02*
X022358Y007123D01*
X022358Y006965D02*
X022358Y006965D01*
X022358Y006864D02*
X022398Y006824D01*
X022398Y006763D01*
X022398Y006236D01*
X022254Y006176D01*
X022103Y006025D01*
X022058Y005916D01*
X022013Y006025D01*
X021862Y006176D01*
X021665Y006258D01*
X021451Y006258D01*
X021313Y006200D01*
X021683Y006571D01*
X022065Y006571D01*
X022358Y006864D01*
X022398Y006806D02*
X022300Y006806D01*
X022398Y006648D02*
X022142Y006648D01*
X022398Y006489D02*
X021602Y006489D01*
X021443Y006331D02*
X022398Y006331D01*
X022250Y006172D02*
X021866Y006172D01*
X022018Y006014D02*
X022098Y006014D01*
X022558Y005721D02*
X022658Y005821D01*
X022658Y006871D01*
X022858Y007071D01*
X022708Y007221D01*
X022708Y008821D01*
X020658Y010871D01*
X019758Y010871D01*
X019758Y010171D01*
X020113Y009819D02*
X021342Y009819D01*
X021184Y009977D02*
X020258Y009977D01*
X020258Y010136D02*
X021025Y010136D01*
X020867Y010294D02*
X020258Y010294D01*
X020183Y010453D02*
X020708Y010453D01*
X021127Y010770D02*
X021820Y010770D01*
X021808Y010928D02*
X020968Y010928D01*
X020809Y011087D02*
X021808Y011087D01*
X021808Y011245D02*
X015488Y011245D01*
X015488Y011087D02*
X017506Y011087D01*
X017658Y010871D02*
X019758Y010871D01*
X019443Y011701D02*
X019175Y011590D01*
X018884Y011590D01*
X018615Y011701D01*
X018409Y011907D01*
X018298Y012175D01*
X018298Y012466D01*
X018409Y012735D01*
X018615Y012941D01*
X018884Y013052D01*
X019175Y013052D01*
X019443Y012941D01*
X019649Y012735D01*
X019760Y012466D01*
X019760Y012175D01*
X019649Y011907D01*
X019443Y011701D01*
X019464Y011721D02*
X021903Y011721D01*
X021843Y011563D02*
X016773Y011563D01*
X016808Y011721D02*
X018595Y011721D01*
X018436Y011880D02*
X016808Y011880D01*
X016808Y012038D02*
X018355Y012038D01*
X018298Y012197D02*
X016656Y012197D01*
X016497Y012355D02*
X018298Y012355D01*
X018318Y012514D02*
X016185Y012514D01*
X016268Y012597D02*
X015952Y012281D01*
X015504Y012281D01*
X015188Y012597D01*
X015188Y013044D01*
X015504Y013361D01*
X015952Y013361D01*
X016268Y013044D01*
X016268Y012597D01*
X016268Y012672D02*
X018383Y012672D01*
X018505Y012831D02*
X016268Y012831D01*
X016268Y012989D02*
X018733Y012989D01*
X019326Y012989D02*
X023878Y012989D01*
X023878Y012831D02*
X019553Y012831D01*
X019675Y012672D02*
X023878Y012672D01*
X023878Y012514D02*
X019741Y012514D01*
X019760Y012355D02*
X023878Y012355D01*
X023878Y013148D02*
X016164Y013148D01*
X016006Y013306D02*
X023878Y013306D01*
X023878Y013465D02*
X003238Y013465D01*
X003238Y013306D02*
X012210Y013306D01*
X012051Y013148D02*
X003238Y013148D01*
X003238Y012989D02*
X008890Y012989D01*
X008772Y012941D02*
X009041Y013052D01*
X009332Y013052D01*
X009601Y012941D01*
X009807Y012735D01*
X009918Y012466D01*
X009918Y012175D01*
X009807Y011907D01*
X009601Y011701D01*
X009332Y011590D01*
X009041Y011590D01*
X008772Y011701D01*
X008567Y011907D01*
X008456Y012175D01*
X008456Y012466D01*
X008567Y012735D01*
X008772Y012941D01*
X008663Y012831D02*
X003238Y012831D01*
X003238Y012672D02*
X008541Y012672D01*
X008475Y012514D02*
X003238Y012514D01*
X003238Y012355D02*
X008456Y012355D01*
X008456Y012197D02*
X004582Y012197D01*
X004932Y012038D02*
X008512Y012038D01*
X008594Y011880D02*
X005099Y011880D01*
X005203Y011721D02*
X008752Y011721D01*
X009621Y011721D02*
X011388Y011721D01*
X011388Y011801D02*
X011928Y011801D01*
X011928Y011261D01*
X011716Y011261D01*
X011388Y011589D01*
X011388Y011801D01*
X011388Y011841D02*
X011388Y012053D01*
X011716Y012381D01*
X011928Y012381D01*
X011928Y011841D01*
X011388Y011841D01*
X011388Y011880D02*
X009780Y011880D01*
X009861Y012038D02*
X011388Y012038D01*
X011532Y012197D02*
X009918Y012197D01*
X009918Y012355D02*
X011690Y012355D01*
X011928Y012355D02*
X011968Y012355D01*
X011968Y012197D02*
X011928Y012197D01*
X011928Y012038D02*
X011968Y012038D01*
X011968Y011880D02*
X011928Y011880D01*
X011928Y011721D02*
X011968Y011721D01*
X011968Y011563D02*
X011928Y011563D01*
X011928Y011404D02*
X011968Y011404D01*
X011573Y011404D02*
X005299Y011404D01*
X005308Y011245D02*
X013928Y011245D01*
X013928Y011087D02*
X005308Y011087D01*
X005308Y010928D02*
X009838Y010928D01*
X009951Y011041D02*
X009658Y010748D01*
X009658Y009694D01*
X009951Y009401D01*
X010365Y009401D01*
X010658Y009694D01*
X010658Y010748D01*
X010951Y011041D01*
X011365Y011041D01*
X011658Y010748D01*
X011951Y011041D01*
X012365Y011041D01*
X012658Y010748D01*
X012951Y011041D01*
X013365Y011041D01*
X013658Y010748D01*
X013658Y009694D01*
X013365Y009401D01*
X012951Y009401D01*
X012658Y009694D01*
X012658Y010748D01*
X012658Y009694D01*
X012365Y009401D01*
X011951Y009401D01*
X011658Y009694D01*
X011658Y010748D01*
X011658Y009694D01*
X011365Y009401D01*
X010951Y009401D01*
X010658Y009694D01*
X010658Y010748D01*
X010365Y011041D01*
X009951Y011041D01*
X009680Y010770D02*
X005296Y010770D01*
X005255Y010611D02*
X009658Y010611D01*
X009658Y010453D02*
X005182Y010453D01*
X005068Y010294D02*
X009658Y010294D01*
X009658Y010136D02*
X004889Y010136D01*
X004438Y009977D02*
X009658Y009977D01*
X009658Y009819D02*
X003238Y009819D01*
X003238Y009660D02*
X009692Y009660D01*
X009850Y009501D02*
X009284Y009501D01*
X009165Y009621D02*
X009458Y009328D01*
X009458Y008914D01*
X009188Y008644D01*
X009188Y008351D01*
X011703Y008351D01*
X011838Y008216D01*
X012013Y008041D01*
X012365Y008041D01*
X012658Y007748D01*
X012658Y006694D01*
X012365Y006401D01*
X011951Y006401D01*
X011658Y006694D01*
X011365Y006401D01*
X010951Y006401D01*
X010658Y006694D01*
X010365Y006401D01*
X009951Y006401D01*
X009658Y006694D01*
X009658Y007748D01*
X009801Y007891D01*
X009053Y007891D01*
X008863Y007891D01*
X008728Y008026D01*
X008728Y008644D01*
X008472Y008900D01*
X008173Y008601D01*
X007958Y008601D01*
X007958Y009120D01*
X007958Y009120D01*
X007958Y008601D01*
X007743Y008601D01*
X007438Y008905D01*
X007438Y009121D01*
X007438Y009336D01*
X007743Y009641D01*
X007958Y009641D01*
X008173Y009641D01*
X008472Y009342D01*
X008751Y009621D01*
X009165Y009621D01*
X009443Y009343D02*
X021818Y009343D01*
X021660Y009501D02*
X017466Y009501D01*
X017624Y009660D02*
X018533Y009660D01*
X018375Y009819D02*
X017658Y009819D01*
X017658Y009977D02*
X018238Y009977D01*
X018238Y010136D02*
X017658Y010136D01*
X017658Y010294D02*
X018238Y010294D01*
X018238Y010171D02*
X018758Y010171D01*
X018758Y010171D01*
X018238Y010171D01*
X018305Y010453D02*
X017658Y010453D01*
X017658Y010871D02*
X017108Y010321D01*
X017158Y010271D01*
X017158Y010221D01*
X016680Y010770D02*
X016664Y010770D01*
X016506Y010928D02*
X016838Y010928D01*
X016615Y011404D02*
X021814Y011404D01*
X022005Y011880D02*
X019622Y011880D01*
X019704Y012038D02*
X022166Y012038D01*
X022513Y012197D02*
X019760Y012197D01*
X021285Y010611D02*
X021861Y010611D01*
X021934Y010453D02*
X021444Y010453D01*
X021602Y010294D02*
X022048Y010294D01*
X022227Y010136D02*
X021761Y010136D01*
X021919Y009977D02*
X022678Y009977D01*
X022236Y009660D02*
X023878Y009660D01*
X023878Y009501D02*
X022395Y009501D01*
X022553Y009343D02*
X023878Y009343D01*
X023878Y009184D02*
X022712Y009184D01*
X022871Y009026D02*
X023878Y009026D01*
X023878Y008867D02*
X022968Y008867D01*
X022968Y008709D02*
X023878Y008709D01*
X023878Y008550D02*
X022968Y008550D01*
X022968Y008392D02*
X023878Y008392D01*
X023878Y008233D02*
X022968Y008233D01*
X022968Y008075D02*
X023878Y008075D01*
X023878Y007916D02*
X022968Y007916D01*
X022968Y007757D02*
X023878Y007757D01*
X023878Y007599D02*
X022968Y007599D01*
X023195Y007440D02*
X023878Y007440D01*
X023878Y007282D02*
X023354Y007282D01*
X023358Y007123D02*
X023878Y007123D01*
X023878Y006965D02*
X023358Y006965D01*
X023300Y006806D02*
X023878Y006806D01*
X023878Y006648D02*
X023142Y006648D01*
X022918Y006489D02*
X023878Y006489D01*
X023878Y006331D02*
X022918Y006331D01*
X022918Y006172D02*
X023222Y006172D01*
X023076Y006014D02*
X023018Y006014D01*
X023539Y006014D02*
X023576Y006014D01*
X023576Y006172D02*
X023539Y006172D01*
X023539Y005855D02*
X023576Y005855D01*
X022448Y007599D02*
X017658Y007599D01*
X017658Y007440D02*
X021520Y007440D01*
X021362Y007282D02*
X020054Y007282D01*
X020212Y007123D02*
X021358Y007123D01*
X021358Y006965D02*
X020258Y006965D01*
X020258Y006806D02*
X021268Y006806D01*
X021110Y006648D02*
X020242Y006648D01*
X019371Y006551D02*
X019258Y006664D01*
X019258Y007078D01*
X019258Y006664D01*
X019145Y006551D01*
X019371Y006551D01*
X019274Y006648D02*
X019242Y006648D01*
X019258Y006806D02*
X019258Y006806D01*
X019258Y006965D02*
X019258Y006965D01*
X019303Y007123D02*
X019212Y007123D01*
X019054Y007282D02*
X019462Y007282D01*
X019551Y008021D02*
X019965Y008021D01*
X020258Y008314D01*
X020258Y008728D01*
X019965Y009021D01*
X019551Y009021D01*
X019258Y008728D01*
X019258Y008314D01*
X019551Y008021D01*
X019497Y008075D02*
X019019Y008075D01*
X018965Y008021D02*
X018551Y008021D01*
X018258Y008314D01*
X018258Y008728D01*
X018551Y009021D01*
X018965Y009021D01*
X019258Y008728D01*
X019258Y008314D01*
X018965Y008021D01*
X019177Y008233D02*
X019339Y008233D01*
X019258Y008392D02*
X019258Y008392D01*
X019258Y008550D02*
X019258Y008550D01*
X019258Y008709D02*
X019258Y008709D01*
X019397Y008867D02*
X019119Y008867D01*
X018397Y008867D02*
X009412Y008867D01*
X009458Y009026D02*
X022135Y009026D01*
X021977Y009184D02*
X009458Y009184D01*
X009253Y008709D02*
X018258Y008709D01*
X018258Y008550D02*
X009188Y008550D01*
X009188Y008392D02*
X018258Y008392D01*
X018339Y008233D02*
X011821Y008233D01*
X011979Y008075D02*
X018497Y008075D01*
X017648Y007757D02*
X022448Y007757D01*
X022448Y007916D02*
X017490Y007916D01*
X017658Y007282D02*
X018462Y007282D01*
X018303Y007123D02*
X017658Y007123D01*
X017658Y006965D02*
X018258Y006965D01*
X018258Y006806D02*
X017658Y006806D01*
X017612Y006648D02*
X018274Y006648D01*
X016826Y007916D02*
X016490Y007916D01*
X016648Y007757D02*
X016668Y007757D01*
X016658Y007748D02*
X016658Y006696D01*
X016658Y006696D01*
X016658Y007748D01*
X016658Y007599D02*
X016658Y007599D01*
X016658Y007440D02*
X016658Y007440D01*
X016658Y007282D02*
X016658Y007282D01*
X016658Y007123D02*
X016658Y007123D01*
X016658Y006965D02*
X016658Y006965D01*
X016658Y006806D02*
X016658Y006806D01*
X016373Y006331D02*
X003238Y006331D01*
X003238Y006489D02*
X009862Y006489D01*
X009704Y006648D02*
X003238Y006648D01*
X003238Y006806D02*
X009658Y006806D01*
X009658Y006965D02*
X003238Y006965D01*
X003238Y007123D02*
X009658Y007123D01*
X009658Y007282D02*
X003238Y007282D01*
X003238Y007440D02*
X009658Y007440D01*
X009658Y007599D02*
X003238Y007599D01*
X003238Y007757D02*
X009668Y007757D01*
X010515Y007891D02*
X010658Y007748D01*
X010658Y006694D01*
X010658Y007748D01*
X010801Y007891D01*
X010515Y007891D01*
X010648Y007757D02*
X010668Y007757D01*
X010658Y007599D02*
X010658Y007599D01*
X010658Y007440D02*
X010658Y007440D01*
X010658Y007282D02*
X010658Y007282D01*
X010658Y007123D02*
X010658Y007123D01*
X010658Y006965D02*
X010658Y006965D01*
X010658Y006806D02*
X010658Y006806D01*
X010704Y006648D02*
X010612Y006648D01*
X010453Y006489D02*
X010862Y006489D01*
X010866Y006172D02*
X011250Y006172D01*
X011098Y006014D02*
X011018Y006014D01*
X011453Y006489D02*
X011862Y006489D01*
X011704Y006648D02*
X011612Y006648D01*
X011658Y006694D02*
X011658Y007746D01*
X011658Y007746D01*
X011658Y006694D01*
X011658Y006806D02*
X011658Y006806D01*
X011658Y006965D02*
X011658Y006965D01*
X011658Y007123D02*
X011658Y007123D01*
X011658Y007282D02*
X011658Y007282D01*
X011658Y007440D02*
X011658Y007440D01*
X011658Y007599D02*
X011658Y007599D01*
X012490Y007916D02*
X012826Y007916D01*
X012668Y007757D02*
X012648Y007757D01*
X012658Y007599D02*
X012658Y007599D01*
X012658Y007440D02*
X012658Y007440D01*
X012658Y007282D02*
X012658Y007282D01*
X012658Y007123D02*
X012658Y007123D01*
X012658Y006965D02*
X012658Y006965D01*
X012658Y006806D02*
X012658Y006806D01*
X012704Y006648D02*
X012612Y006648D01*
X012453Y006489D02*
X012862Y006489D01*
X012866Y006172D02*
X013250Y006172D01*
X013098Y006014D02*
X013018Y006014D01*
X013453Y006489D02*
X013862Y006489D01*
X013704Y006648D02*
X013612Y006648D01*
X013658Y006806D02*
X013658Y006806D01*
X013658Y006965D02*
X013658Y006965D01*
X013658Y007123D02*
X013658Y007123D01*
X013658Y007282D02*
X013658Y007282D01*
X013658Y007440D02*
X013658Y007440D01*
X013658Y007599D02*
X013658Y007599D01*
X013668Y007757D02*
X013648Y007757D01*
X013490Y007916D02*
X013826Y007916D01*
X014490Y007916D02*
X014826Y007916D01*
X014668Y007757D02*
X014648Y007757D01*
X014658Y007599D02*
X014658Y007599D01*
X014658Y007440D02*
X014658Y007440D01*
X014658Y007282D02*
X014658Y007282D01*
X014658Y007123D02*
X014658Y007123D01*
X014658Y006965D02*
X014658Y006965D01*
X014658Y006806D02*
X014658Y006806D01*
X014704Y006648D02*
X014612Y006648D01*
X014453Y006489D02*
X014862Y006489D01*
X014866Y006172D02*
X015250Y006172D01*
X015098Y006014D02*
X015018Y006014D01*
X015453Y006489D02*
X015862Y006489D01*
X015704Y006648D02*
X015612Y006648D01*
X015658Y006806D02*
X015658Y006806D01*
X015658Y006965D02*
X015658Y006965D01*
X015658Y007123D02*
X015658Y007123D01*
X015658Y007282D02*
X015658Y007282D01*
X015658Y007440D02*
X015658Y007440D01*
X015658Y007599D02*
X015658Y007599D01*
X015668Y007757D02*
X015648Y007757D01*
X015490Y007916D02*
X015826Y007916D01*
X015822Y009501D02*
X015466Y009501D01*
X015624Y009660D02*
X015663Y009660D01*
X016158Y009660D02*
X016158Y009660D01*
X016158Y009501D02*
X016158Y009501D01*
X016158Y009819D02*
X016158Y009819D01*
X016158Y009977D02*
X016158Y009977D01*
X016158Y010136D02*
X016158Y010136D01*
X016158Y010221D02*
X016158Y011061D01*
X016158Y010221D01*
X016158Y010221D01*
X016158Y010294D02*
X016158Y010294D01*
X016158Y010453D02*
X016158Y010453D01*
X016158Y010611D02*
X016158Y010611D01*
X016158Y010770D02*
X016158Y010770D01*
X016158Y010928D02*
X016158Y010928D01*
X015810Y010928D02*
X015488Y010928D01*
X015636Y010770D02*
X015652Y010770D01*
X015535Y011404D02*
X015921Y011404D01*
X015763Y011563D02*
X015693Y011563D01*
X015728Y011721D02*
X015728Y011721D01*
X015728Y011880D02*
X015728Y011880D01*
X015728Y012038D02*
X015728Y012038D01*
X015880Y012197D02*
X015576Y012197D01*
X015430Y012355D02*
X015417Y012355D01*
X015271Y012514D02*
X015105Y012514D01*
X015188Y012597D02*
X014872Y012281D01*
X014424Y012281D01*
X014108Y012597D01*
X014108Y013044D01*
X014424Y013361D01*
X014872Y013361D01*
X015188Y013044D01*
X015188Y012597D01*
X015188Y012672D02*
X015188Y012672D01*
X015188Y012831D02*
X015188Y012831D01*
X015188Y012989D02*
X015188Y012989D01*
X015291Y013148D02*
X015084Y013148D01*
X014926Y013306D02*
X015450Y013306D01*
X014370Y013306D02*
X013846Y013306D01*
X014004Y013148D02*
X014211Y013148D01*
X014108Y012989D02*
X014108Y012989D01*
X014108Y012831D02*
X014108Y012831D01*
X014108Y012672D02*
X014108Y012672D01*
X014191Y012514D02*
X014025Y012514D01*
X013879Y012355D02*
X013866Y012355D01*
X013720Y012197D02*
X013416Y012197D01*
X013270Y012355D02*
X013257Y012355D01*
X013111Y012514D02*
X012945Y012514D01*
X013028Y012672D02*
X013028Y012672D01*
X013028Y012831D02*
X013028Y012831D01*
X013028Y012989D02*
X013028Y012989D01*
X013131Y013148D02*
X012924Y013148D01*
X012766Y013306D02*
X013290Y013306D01*
X012031Y012514D02*
X009898Y012514D01*
X009832Y012672D02*
X011948Y012672D01*
X011948Y012831D02*
X009711Y012831D01*
X009483Y012989D02*
X011948Y012989D01*
X012364Y012197D02*
X012640Y012197D01*
X012786Y012355D02*
X012799Y012355D01*
X013568Y012038D02*
X013568Y012038D01*
X013568Y011880D02*
X013568Y011880D01*
X013568Y011721D02*
X013568Y011721D01*
X013603Y011563D02*
X013533Y011563D01*
X013375Y011404D02*
X013761Y011404D01*
X013838Y010928D02*
X013477Y010928D01*
X013636Y010770D02*
X013680Y010770D01*
X013658Y010611D02*
X013658Y010611D01*
X013658Y010453D02*
X013658Y010453D01*
X013658Y010294D02*
X013658Y010294D01*
X013658Y010136D02*
X013658Y010136D01*
X013658Y009977D02*
X013658Y009977D01*
X013658Y009819D02*
X013658Y009819D01*
X013692Y009660D02*
X013624Y009660D01*
X013466Y009501D02*
X013850Y009501D01*
X014466Y009501D02*
X014850Y009501D01*
X014692Y009660D02*
X014624Y009660D01*
X014658Y009819D02*
X014658Y009819D01*
X014658Y009977D02*
X014658Y009977D01*
X014658Y010136D02*
X014658Y010136D01*
X014658Y010294D02*
X014658Y010294D01*
X014658Y010453D02*
X014658Y010453D01*
X014658Y010611D02*
X014658Y010611D01*
X014680Y010770D02*
X014636Y010770D01*
X014477Y010928D02*
X014838Y010928D01*
X015028Y011087D02*
X014388Y011087D01*
X014388Y011245D02*
X015028Y011245D01*
X014841Y011404D02*
X014455Y011404D01*
X014613Y011563D02*
X014683Y011563D01*
X014648Y011721D02*
X014648Y011721D01*
X014648Y011880D02*
X014648Y011880D01*
X014648Y012038D02*
X014648Y012038D01*
X014800Y012197D02*
X014496Y012197D01*
X014350Y012355D02*
X014337Y012355D01*
X014946Y012355D02*
X014959Y012355D01*
X016026Y012355D02*
X016039Y012355D01*
X012838Y010928D02*
X012477Y010928D01*
X012636Y010770D02*
X012680Y010770D01*
X012658Y010611D02*
X012658Y010611D01*
X012658Y010453D02*
X012658Y010453D01*
X012658Y010294D02*
X012658Y010294D01*
X012658Y010136D02*
X012658Y010136D01*
X012658Y009977D02*
X012658Y009977D01*
X012658Y009819D02*
X012658Y009819D01*
X012692Y009660D02*
X012624Y009660D01*
X012466Y009501D02*
X012850Y009501D01*
X011850Y009501D02*
X011466Y009501D01*
X011624Y009660D02*
X011692Y009660D01*
X011658Y009819D02*
X011658Y009819D01*
X011658Y009977D02*
X011658Y009977D01*
X011658Y010136D02*
X011658Y010136D01*
X011658Y010294D02*
X011658Y010294D01*
X011658Y010453D02*
X011658Y010453D01*
X011658Y010611D02*
X011658Y010611D01*
X011680Y010770D02*
X011636Y010770D01*
X011477Y010928D02*
X011838Y010928D01*
X012323Y011404D02*
X012681Y011404D01*
X012523Y011563D02*
X012482Y011563D01*
X011414Y011563D02*
X005266Y011563D01*
X003238Y013624D02*
X023878Y013624D01*
X023878Y013782D02*
X003238Y013782D01*
X003238Y013941D02*
X023878Y013941D01*
X018758Y010136D02*
X018758Y010136D01*
X018758Y009977D02*
X018758Y009977D01*
X018758Y009819D02*
X018758Y009819D01*
X018758Y009660D02*
X018758Y009660D01*
X018983Y009660D02*
X021501Y009660D01*
X022078Y009819D02*
X023878Y009819D01*
X022448Y008709D02*
X020258Y008709D01*
X020258Y008550D02*
X022448Y008550D01*
X022448Y008392D02*
X020258Y008392D01*
X020177Y008233D02*
X022448Y008233D01*
X022448Y008075D02*
X020019Y008075D01*
X020119Y008867D02*
X022294Y008867D01*
X019403Y009819D02*
X019141Y009819D01*
X016850Y009501D02*
X016494Y009501D01*
X016653Y009660D02*
X016692Y009660D01*
X016250Y006172D02*
X015866Y006172D01*
X016018Y006014D02*
X016098Y006014D01*
X014250Y006172D02*
X013866Y006172D01*
X014018Y006014D02*
X014098Y006014D01*
X012250Y006172D02*
X011866Y006172D01*
X012018Y006014D02*
X012098Y006014D01*
X010250Y006172D02*
X009866Y006172D01*
X010018Y006014D02*
X010098Y006014D01*
X009250Y006172D02*
X008866Y006172D01*
X009018Y006014D02*
X009098Y006014D01*
X008250Y006172D02*
X007866Y006172D01*
X008018Y006014D02*
X008098Y006014D01*
X007250Y006172D02*
X006866Y006172D01*
X007018Y006014D02*
X007098Y006014D01*
X006250Y006172D02*
X005866Y006172D01*
X006018Y006014D02*
X006098Y006014D01*
X005250Y006172D02*
X004866Y006172D01*
X005018Y006014D02*
X005098Y006014D01*
X004250Y006172D02*
X003866Y006172D01*
X004018Y006014D02*
X004098Y006014D01*
X003250Y006172D02*
X003238Y006172D01*
X003238Y007916D02*
X008837Y007916D01*
X008728Y008075D02*
X003238Y008075D01*
X003238Y008233D02*
X008728Y008233D01*
X008728Y008392D02*
X003238Y008392D01*
X003238Y008550D02*
X008728Y008550D01*
X008663Y008709D02*
X008281Y008709D01*
X008440Y008867D02*
X008504Y008867D01*
X008473Y009343D02*
X008471Y009343D01*
X008313Y009501D02*
X008632Y009501D01*
X007958Y009501D02*
X007958Y009501D01*
X007958Y009641D02*
X007958Y009121D01*
X007958Y009121D01*
X007958Y009641D01*
X007603Y009501D02*
X003238Y009501D01*
X003238Y009343D02*
X007445Y009343D01*
X007438Y009184D02*
X003238Y009184D01*
X003238Y009026D02*
X007438Y009026D01*
X007438Y009121D02*
X007958Y009121D01*
X007438Y009121D01*
X007476Y008867D02*
X003238Y008867D01*
X003238Y008709D02*
X007635Y008709D01*
X007958Y008709D02*
X007958Y008709D01*
X007958Y008867D02*
X007958Y008867D01*
X007958Y009026D02*
X007958Y009026D01*
X007958Y009121D02*
X007958Y009121D01*
X007958Y009184D02*
X007958Y009184D01*
X007958Y009343D02*
X007958Y009343D01*
X010466Y009501D02*
X010850Y009501D01*
X010692Y009660D02*
X010624Y009660D01*
X010658Y009819D02*
X010658Y009819D01*
X010658Y009977D02*
X010658Y009977D01*
X010658Y010136D02*
X010658Y010136D01*
X010658Y010294D02*
X010658Y010294D01*
X010658Y010453D02*
X010658Y010453D01*
X010658Y010611D02*
X010658Y010611D01*
X010680Y010770D02*
X010636Y010770D01*
X010477Y010928D02*
X010838Y010928D01*
D16*
X010708Y008921D03*
X021558Y008571D03*
M02*
