%
M48
M72
T01C0.0160
T02C0.0320
T03C0.0394
T04C0.0400
T05C0.1063
T06C0.1102
%
T01
X4506Y8571
X15356Y8921
T02
X14906Y10221
X15906Y10221
X17106Y9121
X18106Y9121
X15906Y7221
X14906Y7221
X13906Y7221
X12906Y7221
X11906Y7221
X10906Y7221
X9906Y7221
X8906Y7221
X7306Y6871
X6306Y6871
X6306Y8521
X7306Y8521
X7306Y10171
X6306Y10171
X8906Y10221
X9906Y10221
X10906Y10221
X11906Y10221
X12906Y10221
X13906Y10221
X4206Y7071
X3206Y7071
T03
X2506Y5721
X3506Y5721
X4506Y5721
X5506Y5721
X6506Y5721
X7506Y5721
X8506Y5721
X9506Y5721
X10506Y5721
X11506Y5721
X12506Y5721
X13506Y5721
X14506Y5721
X15506Y5721
X16506Y5721
X17506Y5721
X18506Y5721
X19506Y5721
X20506Y5721
X21506Y5721
X22506Y5721
T04
X14116Y11821
X13036Y11821
X11956Y11821
X10876Y11821
X9796Y11821
X10336Y12821
X11416Y12821
X12496Y12821
X13576Y12821
T05
X21906Y11121
X3106Y11121
T06
X7034Y12321
X16877Y12321
M30
