G75*
G70*
%OFA0B0*%
%FSLAX24Y24*%
%IPPOS*%
%LPD*%
%AMOC8*
5,1,8,0,0,1.08239X$1,22.5*
%
%ADD10C,0.1143*%
%ADD11C,0.0060*%
%ADD12C,0.0780*%
%ADD13OC8,0.0674*%
%ADD14C,0.1080*%
%ADD15C,0.1180*%
%ADD16C,0.0634*%
%ADD17C,0.0671*%
%ADD18C,0.0848*%
%ADD19C,0.0516*%
%ADD20C,0.0556*%
D10*
X009006Y008127D03*
X027806Y008127D03*
D11*
X003596Y009607D02*
X003596Y009928D01*
X003489Y010034D01*
X003382Y009928D01*
X003382Y009607D01*
X003169Y009607D02*
X003169Y010034D01*
X003275Y010034D01*
X003382Y009928D01*
X002951Y009928D02*
X002951Y009714D01*
X002844Y009607D01*
X002631Y009607D01*
X002524Y009714D01*
X002524Y009928D01*
X002631Y010034D01*
X002844Y010034D01*
X002951Y009928D01*
X002308Y010034D02*
X002095Y010034D01*
X002201Y010141D02*
X002201Y009714D01*
X002308Y009607D01*
X001878Y009607D02*
X001772Y009714D01*
X001772Y010141D01*
X001878Y010034D02*
X001665Y010034D01*
X001447Y009928D02*
X001341Y010034D01*
X001127Y010034D01*
X001020Y009928D01*
X001020Y009714D01*
X001127Y009607D01*
X001341Y009607D01*
X001447Y009714D01*
X001447Y009928D01*
X000803Y009928D02*
X000803Y009714D01*
X000696Y009607D01*
X000376Y009607D01*
X000376Y010248D01*
X000376Y010034D02*
X000696Y010034D01*
X000803Y009928D01*
D12*
X008406Y002727D03*
X009406Y002727D03*
X010406Y002727D03*
X011406Y002727D03*
X012406Y002727D03*
X013406Y002727D03*
X014406Y002727D03*
X015406Y002727D03*
X016406Y002727D03*
X017406Y002727D03*
X018406Y002727D03*
X019406Y002727D03*
X020406Y002727D03*
X021406Y002727D03*
X022406Y002727D03*
X023406Y002727D03*
X024406Y002727D03*
X025406Y002727D03*
X026406Y002727D03*
X027406Y002727D03*
X028406Y002727D03*
D13*
X022406Y010127D03*
X018406Y010127D03*
X017056Y010127D03*
X013056Y010127D03*
D14*
X010256Y010327D03*
X010256Y012327D03*
X025356Y012327D03*
X025356Y010327D03*
X025356Y014327D03*
D15*
X022735Y013177D03*
X013877Y013177D03*
D16*
X014856Y004677D03*
X015856Y004677D03*
X016856Y004677D03*
X017856Y004677D03*
X018356Y003677D03*
X017356Y003677D03*
X016356Y003677D03*
X015356Y003677D03*
D17*
X014346Y003956D03*
D18*
X023156Y011527D03*
X023156Y013927D03*
D19*
X020906Y013427D03*
X020856Y011427D03*
X024456Y008477D03*
X021306Y007327D03*
X019256Y004477D03*
X018706Y004477D03*
X020906Y003227D03*
X021906Y003227D03*
X025156Y004327D03*
X026756Y003627D03*
X013706Y005227D03*
X013006Y005127D03*
X011756Y004077D03*
X009906Y005277D03*
X009406Y005777D03*
X008906Y003277D03*
X011906Y008527D03*
D20*
X015856Y011427D03*
X016756Y011827D03*
X017906Y011827D03*
X017356Y012477D03*
X017906Y013127D03*
X016756Y013127D03*
X015856Y013527D03*
X015856Y012477D03*
X019656Y008827D03*
X017556Y008727D03*
M02*
