G75*
G70*
%OFA0B0*%
%FSLAX24Y24*%
%IPPOS*%
%LPD*%
%AMOC8*
5,1,8,0,0,1.08239X$1,22.5*
%
%ADD10C,0.1143*%
%ADD11C,0.0060*%
%ADD12C,0.0780*%
%ADD13R,0.1025X0.0671*%
%ADD14R,0.2344X0.2403*%
%ADD15R,0.0710X0.0790*%
%ADD16OC8,0.0674*%
%ADD17R,0.0470X0.0480*%
%ADD18C,0.1080*%
%ADD19R,0.0480X0.0470*%
%ADD20C,0.1180*%
%ADD21R,0.0474X0.0867*%
%ADD22R,0.0790X0.0710*%
%ADD23R,0.0474X0.0474*%
%ADD24C,0.0634*%
%ADD25C,0.0671*%
%ADD26R,0.0316X0.0789*%
%ADD27R,0.0552X0.0316*%
%ADD28R,0.2245X0.0867*%
%ADD29C,0.0848*%
%ADD30C,0.0516*%
%ADD31C,0.0556*%
D10*
X005565Y008127D03*
X024365Y008127D03*
D11*
X028115Y009154D02*
X028328Y009154D01*
X028222Y009261D02*
X028222Y008834D01*
X028328Y008727D01*
X028545Y008834D02*
X028651Y008727D01*
X028865Y008727D01*
X028972Y008834D01*
X028972Y009048D01*
X028865Y009154D01*
X028651Y009154D01*
X028545Y009048D01*
X028545Y008834D01*
X029189Y008727D02*
X029509Y008727D01*
X029616Y008834D01*
X029616Y009048D01*
X029509Y009154D01*
X029189Y009154D01*
X029189Y008514D01*
D12*
X004965Y002727D03*
X005965Y002727D03*
X006965Y002727D03*
X007965Y002727D03*
X008965Y002727D03*
X009965Y002727D03*
X010965Y002727D03*
X011965Y002727D03*
X012965Y002727D03*
X013965Y002727D03*
X014965Y002727D03*
X015965Y002727D03*
X016965Y002727D03*
X017965Y002727D03*
X018965Y002727D03*
X019965Y002727D03*
X020965Y002727D03*
X021965Y002727D03*
X022965Y002727D03*
X023965Y002727D03*
X024965Y002727D03*
D13*
X013442Y011572D03*
X013442Y013383D03*
D14*
X016021Y012477D03*
D15*
X012975Y010127D03*
X011855Y010127D03*
X011855Y008827D03*
X012975Y008827D03*
X016555Y008727D03*
X017675Y008727D03*
X019005Y008727D03*
X020125Y008727D03*
D16*
X020315Y010127D03*
X016315Y010127D03*
X014965Y010127D03*
X010965Y010127D03*
D17*
X020380Y004277D03*
X021050Y004277D03*
X022180Y005127D03*
X022850Y005127D03*
X024480Y004677D03*
X025150Y004677D03*
X025150Y004027D03*
X024480Y004027D03*
X013300Y003777D03*
X012630Y003777D03*
D18*
X008015Y010327D03*
X008015Y012327D03*
X008015Y014327D03*
X023115Y012327D03*
X023115Y010327D03*
D19*
X011065Y004562D03*
X010515Y004562D03*
X010515Y003893D03*
X011065Y003893D03*
X005965Y004243D03*
X005965Y004912D03*
D20*
X010636Y013177D03*
X019494Y013177D03*
D21*
X009815Y007321D03*
X008815Y007321D03*
X007615Y007321D03*
X006615Y007321D03*
X006615Y004333D03*
X007615Y004333D03*
X008815Y004333D03*
X009815Y004333D03*
X012615Y004541D03*
X013615Y004541D03*
X013615Y007214D03*
X012615Y007214D03*
D22*
X007665Y008168D03*
X007665Y009287D03*
D23*
X011615Y004562D03*
X011615Y003893D03*
X020380Y003527D03*
X021050Y003527D03*
X022165Y003593D03*
X022165Y004262D03*
X021600Y005127D03*
X020930Y005127D03*
X024480Y005327D03*
X025150Y005327D03*
D24*
X018515Y004677D03*
X017515Y004677D03*
X016515Y004677D03*
X015515Y004677D03*
X016015Y003677D03*
X017015Y003677D03*
X018015Y003677D03*
X015015Y003677D03*
D25*
X019024Y003956D03*
D26*
X021165Y005867D03*
X021665Y005867D03*
X022165Y005867D03*
X022665Y005867D03*
X022665Y007788D03*
X022165Y007788D03*
X021665Y007788D03*
X021165Y007788D03*
D27*
X022737Y004251D03*
X023765Y004251D03*
X023765Y003877D03*
X023765Y003503D03*
X022737Y003503D03*
D28*
X021065Y011860D03*
X021065Y014695D03*
D29*
X010215Y013927D03*
X010215Y011527D03*
D30*
X012515Y011427D03*
X012465Y013427D03*
X008915Y008477D03*
X012065Y007327D03*
X014115Y004477D03*
X014665Y004477D03*
X012465Y003227D03*
X011465Y003227D03*
X008215Y004327D03*
X006615Y003627D03*
X019665Y005227D03*
X020365Y005127D03*
X021615Y004077D03*
X023465Y005277D03*
X023965Y005777D03*
X024465Y003277D03*
X021465Y008527D03*
D31*
X017515Y011427D03*
X016615Y011827D03*
X015465Y011827D03*
X016015Y012477D03*
X015465Y013127D03*
X016615Y013127D03*
X017515Y013527D03*
X017515Y012477D03*
X013715Y008827D03*
X015815Y008727D03*
M02*
