G75*
G70*
%OFA0B0*%
%FSLAX24Y24*%
%IPPOS*%
%LPD*%
%AMOC8*
5,1,8,0,0,1.08239X$1,22.5*
%
%ADD10C,0.0100*%
%ADD11C,0.0000*%
%ADD12C,0.0060*%
%ADD13C,0.0700*%
%ADD14R,0.0945X0.0591*%
%ADD15R,0.2264X0.2323*%
%ADD16R,0.0630X0.0710*%
%ADD17OC8,0.0594*%
%ADD18R,0.0390X0.0400*%
%ADD19C,0.1000*%
%ADD20R,0.0400X0.0390*%
%ADD21C,0.1100*%
%ADD22R,0.0394X0.0787*%
%ADD23R,0.0710X0.0630*%
%ADD24R,0.0394X0.0394*%
%ADD25C,0.0554*%
%ADD26R,0.0236X0.0709*%
%ADD27R,0.0472X0.0236*%
%ADD28R,0.2165X0.0787*%
%ADD29C,0.0768*%
%ADD30C,0.0120*%
%ADD31C,0.0436*%
%ADD32C,0.0160*%
%ADD33C,0.0476*%
%ADD34C,0.0320*%
D10*
X004465Y002227D02*
X004864Y002227D01*
X005257Y002227D02*
X005656Y002227D01*
X006050Y002227D02*
X006448Y002227D01*
X006842Y002227D02*
X007240Y002227D01*
X007634Y002227D02*
X008033Y002227D01*
X008426Y002227D02*
X008825Y002227D01*
X009219Y002227D02*
X009617Y002227D01*
X010011Y002227D02*
X010410Y002227D01*
X010803Y002227D02*
X011202Y002227D01*
X011596Y002227D02*
X011994Y002227D01*
X012388Y002227D02*
X012787Y002227D01*
X013180Y002227D02*
X013579Y002227D01*
X013973Y002227D02*
X014371Y002227D01*
X014765Y002227D02*
X015164Y002227D01*
X015557Y002227D02*
X015956Y002227D01*
X016350Y002227D02*
X016748Y002227D01*
X017142Y002227D02*
X017541Y002227D01*
X017934Y002227D02*
X018333Y002227D01*
X018727Y002227D02*
X019125Y002227D01*
X019519Y002227D02*
X019918Y002227D01*
X020311Y002227D02*
X020710Y002227D01*
X021104Y002227D02*
X021502Y002227D01*
X021896Y002227D02*
X022295Y002227D01*
X022688Y002227D02*
X023087Y002227D01*
X023481Y002227D02*
X023879Y002227D01*
X024273Y002227D02*
X024672Y002227D01*
X025065Y002227D02*
X025464Y002227D01*
X025465Y002227D02*
X025465Y002633D01*
X025465Y003027D02*
X025465Y003433D01*
X025465Y003827D02*
X025465Y004233D01*
X025465Y004626D02*
X025465Y005032D01*
X025150Y004677D02*
X025065Y004677D01*
X024565Y005227D01*
X024465Y005327D01*
X024465Y005343D01*
X023465Y005277D02*
X023115Y005627D01*
X022715Y005627D01*
X022665Y005677D01*
X022665Y005867D01*
X022165Y005867D02*
X022165Y005177D01*
X022180Y005162D01*
X022180Y005127D01*
X021665Y005177D02*
X021665Y005867D01*
X021665Y005877D01*
X021165Y005867D02*
X021165Y005877D01*
X021165Y005867D02*
X021165Y005327D01*
X020965Y005127D01*
X020930Y005127D01*
X021600Y005127D02*
X021615Y005127D01*
X021665Y005177D01*
X020715Y004677D02*
X020365Y004327D01*
X020380Y004312D01*
X020380Y004277D01*
X020365Y004227D01*
X020365Y003577D01*
X020380Y003562D01*
X020380Y003527D01*
X021015Y003577D02*
X021015Y004177D01*
X021065Y004227D01*
X021050Y004277D01*
X020715Y004677D02*
X022765Y004677D01*
X022815Y004677D01*
X022815Y005077D01*
X022850Y005112D01*
X022850Y005127D01*
X022815Y005127D01*
X023315Y005127D02*
X023465Y005277D01*
X023315Y005127D02*
X023315Y003827D01*
X023015Y003527D01*
X022765Y003527D01*
X022165Y003527D01*
X022165Y003593D01*
X022737Y003503D02*
X022787Y003505D01*
X022765Y003527D01*
X023515Y003227D02*
X023765Y003478D01*
X023765Y003503D01*
X023815Y003527D01*
X023815Y003477D02*
X023965Y003477D01*
X023965Y002727D01*
X023515Y003227D02*
X021515Y003227D01*
X021215Y003527D01*
X021015Y003577D01*
X021050Y003527D02*
X021215Y003527D01*
X019965Y002727D02*
X019715Y002727D01*
X019215Y003227D01*
X018665Y003227D01*
X018215Y003677D01*
X018015Y003677D01*
X018265Y003227D02*
X018765Y002727D01*
X018965Y002727D01*
X018265Y003227D02*
X015465Y003227D01*
X015015Y003677D01*
X014265Y003227D02*
X014765Y002727D01*
X014965Y002727D01*
X014265Y003227D02*
X013865Y003227D01*
X013400Y003693D01*
X013400Y003712D01*
X013300Y003777D01*
X012630Y003777D02*
X012615Y003827D01*
X012615Y004541D01*
X011965Y004427D02*
X011965Y002727D01*
X010665Y003843D02*
X010515Y003827D01*
X010565Y003877D01*
X010550Y003893D01*
X010530Y003893D01*
X010515Y003893D02*
X010515Y003877D01*
X010365Y004027D01*
X009965Y004027D01*
X009815Y004177D01*
X009815Y004333D01*
X010515Y003893D02*
X010615Y003877D01*
X011665Y004477D02*
X011915Y004477D01*
X011965Y004427D01*
X011665Y004477D02*
X011665Y004512D01*
X011615Y004562D01*
X011615Y004577D01*
X009765Y002727D02*
X009265Y003227D01*
X007015Y003227D01*
X007615Y003827D01*
X007615Y004333D01*
X006015Y004927D02*
X006000Y004912D01*
X005965Y004912D01*
X005965Y004243D02*
X005965Y003627D01*
X006365Y003227D01*
X007015Y003227D01*
X004465Y003027D02*
X004465Y003433D01*
X004465Y003827D02*
X004465Y004233D01*
X004465Y004627D02*
X004465Y005033D01*
X004465Y005426D02*
X004465Y005832D01*
X004465Y006226D02*
X004465Y006632D01*
X004465Y007025D02*
X004465Y007431D01*
X004465Y007825D02*
X004465Y008231D01*
X004465Y008625D02*
X004465Y009031D01*
X004465Y009424D02*
X004465Y009830D01*
X004465Y010224D02*
X004465Y010630D01*
X004465Y011023D02*
X004465Y011429D01*
X004465Y011823D02*
X004465Y012229D01*
X004465Y012623D02*
X004465Y013029D01*
X004465Y013422D02*
X004465Y013828D01*
X004465Y014222D02*
X004465Y014628D01*
X004465Y015021D02*
X004465Y015427D01*
X004466Y015427D02*
X004864Y015427D01*
X005258Y015427D02*
X005657Y015427D01*
X006051Y015427D02*
X006449Y015427D01*
X006843Y015427D02*
X007241Y015427D01*
X007635Y015427D02*
X008034Y015427D01*
X008427Y015427D02*
X008826Y015427D01*
X009220Y015427D02*
X009618Y015427D01*
X010012Y015427D02*
X010411Y015427D01*
X010804Y015427D02*
X011203Y015427D01*
X011597Y015427D02*
X011995Y015427D01*
X012389Y015427D02*
X012788Y015427D01*
X013181Y015427D02*
X013580Y015427D01*
X013974Y015427D02*
X014372Y015427D01*
X014766Y015427D02*
X015165Y015427D01*
X015558Y015427D02*
X015957Y015427D01*
X016351Y015427D02*
X016749Y015427D01*
X017143Y015427D02*
X017542Y015427D01*
X017935Y015427D02*
X018334Y015427D01*
X018728Y015427D02*
X019126Y015427D01*
X019520Y015427D02*
X019919Y015427D01*
X020312Y015427D02*
X020711Y015427D01*
X021105Y015427D02*
X021503Y015427D01*
X021897Y015427D02*
X022296Y015427D01*
X022689Y015427D02*
X023088Y015427D01*
X023482Y015427D02*
X023880Y015427D01*
X024274Y015427D02*
X024673Y015427D01*
X025066Y015427D02*
X025465Y015427D01*
X025465Y015021D01*
X025465Y014627D02*
X025465Y014221D01*
X025465Y013828D02*
X025465Y013422D01*
X025465Y013028D02*
X025465Y012622D01*
X025465Y012229D02*
X025465Y011823D01*
X025465Y011429D02*
X025465Y011023D01*
X025465Y010629D02*
X025465Y010223D01*
X025465Y009830D02*
X025465Y009424D01*
X025465Y009030D02*
X025465Y008624D01*
X025465Y008231D02*
X025465Y007825D01*
X025465Y007431D02*
X025465Y007025D01*
X025465Y006631D02*
X025465Y006225D01*
X025465Y005832D02*
X025465Y005426D01*
X025150Y004677D02*
X025115Y004627D01*
X024480Y004677D02*
X024430Y004627D01*
X024415Y004627D01*
X024415Y003977D01*
X024480Y004027D01*
X024380Y004227D01*
X023815Y004227D01*
X023765Y004251D01*
X023765Y003877D02*
X024015Y003877D01*
X024065Y003827D01*
X024165Y003727D01*
X024165Y003477D01*
X024465Y003277D01*
X023815Y003477D02*
X023765Y003503D01*
X023815Y003477D02*
X023815Y003477D01*
X022839Y004203D02*
X022789Y004251D01*
X022737Y004251D01*
X022789Y004251D02*
X022815Y004277D01*
X022815Y004677D01*
X022165Y005867D02*
X022165Y005877D01*
X017515Y004677D02*
X017215Y004677D01*
X016765Y004227D01*
X014915Y004227D01*
X014665Y004477D01*
X009965Y002727D02*
X009765Y002727D01*
X004465Y002634D02*
X004465Y002228D01*
D11*
X005034Y008127D02*
X005036Y008175D01*
X005043Y008223D01*
X005054Y008270D01*
X005069Y008316D01*
X005088Y008360D01*
X005111Y008403D01*
X005138Y008443D01*
X005169Y008481D01*
X005203Y008515D01*
X005239Y008546D01*
X005279Y008574D01*
X005321Y008598D01*
X005365Y008619D01*
X005410Y008635D01*
X005457Y008647D01*
X005505Y008655D01*
X005553Y008658D01*
X005601Y008657D01*
X005649Y008651D01*
X005697Y008641D01*
X005743Y008627D01*
X005788Y008609D01*
X005830Y008587D01*
X005871Y008561D01*
X005909Y008531D01*
X005945Y008498D01*
X005977Y008462D01*
X006006Y008423D01*
X006031Y008382D01*
X006052Y008339D01*
X006069Y008293D01*
X006082Y008247D01*
X006091Y008199D01*
X006095Y008151D01*
X006095Y008103D01*
X006091Y008055D01*
X006082Y008007D01*
X006069Y007961D01*
X006052Y007915D01*
X006031Y007872D01*
X006006Y007831D01*
X005977Y007792D01*
X005945Y007756D01*
X005909Y007723D01*
X005871Y007693D01*
X005831Y007667D01*
X005788Y007645D01*
X005743Y007627D01*
X005697Y007613D01*
X005649Y007603D01*
X005601Y007597D01*
X005553Y007596D01*
X005505Y007599D01*
X005457Y007607D01*
X005410Y007619D01*
X005365Y007635D01*
X005321Y007656D01*
X005279Y007680D01*
X005239Y007708D01*
X005203Y007739D01*
X005169Y007773D01*
X005138Y007811D01*
X005111Y007851D01*
X005088Y007894D01*
X005069Y007938D01*
X005054Y007984D01*
X005043Y008031D01*
X005036Y008079D01*
X005034Y008127D01*
X018729Y003956D02*
X018731Y003991D01*
X018737Y004025D01*
X018747Y004059D01*
X018762Y004091D01*
X018779Y004121D01*
X018801Y004149D01*
X018825Y004174D01*
X018852Y004196D01*
X018882Y004214D01*
X018913Y004229D01*
X018946Y004241D01*
X018980Y004248D01*
X019015Y004251D01*
X019050Y004250D01*
X019085Y004245D01*
X019118Y004235D01*
X019151Y004222D01*
X019181Y004205D01*
X019210Y004185D01*
X019236Y004161D01*
X019258Y004135D01*
X019278Y004106D01*
X019294Y004075D01*
X019306Y004042D01*
X019314Y004008D01*
X019318Y003973D01*
X019318Y003939D01*
X019314Y003904D01*
X019306Y003870D01*
X019294Y003837D01*
X019278Y003806D01*
X019258Y003777D01*
X019236Y003751D01*
X019210Y003727D01*
X019181Y003707D01*
X019151Y003690D01*
X019118Y003677D01*
X019085Y003667D01*
X019050Y003662D01*
X019015Y003661D01*
X018980Y003664D01*
X018946Y003671D01*
X018913Y003683D01*
X018882Y003698D01*
X018852Y003716D01*
X018825Y003738D01*
X018801Y003763D01*
X018779Y003791D01*
X018762Y003821D01*
X018747Y003853D01*
X018737Y003887D01*
X018731Y003921D01*
X018729Y003956D01*
X023834Y008127D02*
X023836Y008175D01*
X023843Y008223D01*
X023854Y008270D01*
X023869Y008316D01*
X023888Y008360D01*
X023911Y008403D01*
X023938Y008443D01*
X023969Y008481D01*
X024003Y008515D01*
X024039Y008546D01*
X024079Y008574D01*
X024121Y008598D01*
X024165Y008619D01*
X024210Y008635D01*
X024257Y008647D01*
X024305Y008655D01*
X024353Y008658D01*
X024401Y008657D01*
X024449Y008651D01*
X024497Y008641D01*
X024543Y008627D01*
X024588Y008609D01*
X024630Y008587D01*
X024671Y008561D01*
X024709Y008531D01*
X024745Y008498D01*
X024777Y008462D01*
X024806Y008423D01*
X024831Y008382D01*
X024852Y008339D01*
X024869Y008293D01*
X024882Y008247D01*
X024891Y008199D01*
X024895Y008151D01*
X024895Y008103D01*
X024891Y008055D01*
X024882Y008007D01*
X024869Y007961D01*
X024852Y007915D01*
X024831Y007872D01*
X024806Y007831D01*
X024777Y007792D01*
X024745Y007756D01*
X024709Y007723D01*
X024671Y007693D01*
X024631Y007667D01*
X024588Y007645D01*
X024543Y007627D01*
X024497Y007613D01*
X024449Y007603D01*
X024401Y007597D01*
X024353Y007596D01*
X024305Y007599D01*
X024257Y007607D01*
X024210Y007619D01*
X024165Y007635D01*
X024121Y007656D01*
X024079Y007680D01*
X024039Y007708D01*
X024003Y007739D01*
X023969Y007773D01*
X023938Y007811D01*
X023911Y007851D01*
X023888Y007894D01*
X023869Y007938D01*
X023854Y007984D01*
X023843Y008031D01*
X023836Y008079D01*
X023834Y008127D01*
D12*
X026282Y008854D02*
X026282Y009281D01*
X026388Y009174D02*
X026175Y009174D01*
X026605Y009068D02*
X026605Y008854D01*
X026711Y008747D01*
X026925Y008747D01*
X027032Y008854D01*
X027032Y009068D01*
X026925Y009174D01*
X026711Y009174D01*
X026605Y009068D01*
X026282Y008854D02*
X026388Y008747D01*
X027249Y008747D02*
X027569Y008747D01*
X027676Y008854D01*
X027676Y009068D01*
X027569Y009174D01*
X027249Y009174D01*
X027249Y008534D01*
D13*
X024965Y002727D03*
X023965Y002727D03*
X022965Y002727D03*
X021965Y002727D03*
X020965Y002727D03*
X019965Y002727D03*
X018965Y002727D03*
X017965Y002727D03*
X016965Y002727D03*
X015965Y002727D03*
X014965Y002727D03*
X013965Y002727D03*
X012965Y002727D03*
X011965Y002727D03*
X010965Y002727D03*
X009965Y002727D03*
X008965Y002727D03*
X007965Y002727D03*
X006965Y002727D03*
X005965Y002727D03*
X004965Y002727D03*
D14*
X013442Y011572D03*
X013442Y013383D03*
D15*
X016021Y012477D03*
D16*
X012975Y010127D03*
X011855Y010127D03*
X011855Y008827D03*
X012975Y008827D03*
X016555Y008727D03*
X017675Y008727D03*
X019005Y008727D03*
X020125Y008727D03*
D17*
X020315Y010127D03*
X016315Y010127D03*
X014965Y010127D03*
X010965Y010127D03*
D18*
X020380Y004277D03*
X021050Y004277D03*
X022180Y005127D03*
X022850Y005127D03*
X024480Y004677D03*
X025150Y004677D03*
X025150Y004027D03*
X024480Y004027D03*
X013300Y003777D03*
X012630Y003777D03*
D19*
X008015Y010327D03*
X008015Y012327D03*
X008015Y014327D03*
X023115Y012327D03*
X023115Y010327D03*
D20*
X011065Y004562D03*
X010515Y004562D03*
X010515Y003893D03*
X011065Y003893D03*
X005965Y004243D03*
X005965Y004912D03*
D21*
X010636Y013177D03*
X019494Y013177D03*
D22*
X009815Y007321D03*
X008815Y007321D03*
X007615Y007321D03*
X006615Y007321D03*
X006615Y004333D03*
X007615Y004333D03*
X008815Y004333D03*
X009815Y004333D03*
X012615Y004541D03*
X013615Y004541D03*
X013615Y007214D03*
X012615Y007214D03*
D23*
X007665Y008168D03*
X007665Y009287D03*
D24*
X011615Y004562D03*
X011615Y003893D03*
X020380Y003527D03*
X021050Y003527D03*
X022165Y003593D03*
X022165Y004262D03*
X021600Y005127D03*
X020930Y005127D03*
X024480Y005327D03*
X025150Y005327D03*
D25*
X018515Y004677D03*
X017515Y004677D03*
X016515Y004677D03*
X015515Y004677D03*
X016015Y003677D03*
X017015Y003677D03*
X018015Y003677D03*
X015015Y003677D03*
D26*
X021165Y005867D03*
X021665Y005867D03*
X022165Y005867D03*
X022665Y005867D03*
X022665Y007788D03*
X022165Y007788D03*
X021665Y007788D03*
X021165Y007788D03*
D27*
X022737Y004251D03*
X023765Y004251D03*
X023765Y003877D03*
X023765Y003503D03*
X022737Y003503D03*
D28*
X021065Y011860D03*
X021065Y014695D03*
D29*
X010215Y013927D03*
X010215Y011527D03*
D30*
X012515Y011427D02*
X013465Y011427D01*
X013465Y011577D01*
X013465Y011572D01*
X013442Y011572D01*
X013459Y011572D01*
X013465Y011577D01*
X013615Y011427D01*
X011855Y010127D02*
X010965Y010127D01*
X011855Y008827D02*
X011855Y008787D01*
X011865Y008777D01*
X011865Y008827D01*
X010359Y007321D01*
X009815Y007321D01*
X008815Y007321D02*
X008815Y008377D01*
X008915Y008477D01*
X007665Y008177D02*
X007665Y008168D01*
X007665Y007377D01*
X007615Y007377D01*
X007615Y007321D01*
X006615Y007321D02*
X006615Y012977D01*
X007965Y014327D01*
X008015Y014327D01*
X013365Y013327D02*
X013415Y013377D01*
X008015Y010327D02*
X008015Y009627D01*
X007665Y009287D01*
X007365Y009327D01*
X012065Y007327D02*
X012515Y007327D01*
X012615Y007227D01*
X012615Y007214D01*
X013615Y007214D02*
X013615Y007227D01*
X013665Y007277D01*
X019365Y007277D01*
X019915Y007827D01*
X019915Y008677D01*
X019865Y008727D01*
X020125Y008727D01*
X019005Y008727D02*
X018805Y008868D01*
X018805Y009118D01*
X019815Y010127D01*
X020315Y010127D01*
X019005Y008727D02*
X017675Y008727D01*
X018715Y008727D02*
X019005Y008727D01*
X013715Y008827D02*
X012975Y008827D01*
X019327Y005453D02*
X019313Y005417D01*
X015614Y005417D01*
X015415Y005417D01*
X012165Y005417D01*
X012025Y005277D01*
X011915Y005167D01*
X010614Y005167D01*
X006345Y005167D01*
X006345Y005182D01*
X006239Y005287D01*
X005690Y005287D01*
X005585Y005182D01*
X005585Y005167D01*
X005465Y005167D01*
X005325Y005027D01*
X005175Y004877D01*
X005175Y004678D01*
X005175Y003192D01*
X005066Y003237D01*
X005003Y003237D01*
X005003Y002766D01*
X004926Y002766D01*
X004926Y003237D01*
X004863Y003237D01*
X004695Y003168D01*
X004695Y005677D01*
X020887Y005677D01*
X020887Y005484D01*
X020667Y005484D01*
X020573Y005391D01*
X020573Y005166D01*
X020892Y005166D01*
X020892Y005089D01*
X020573Y005089D01*
X020573Y004864D01*
X020575Y004863D01*
X020370Y004657D01*
X020111Y004657D01*
X020005Y004552D01*
X020005Y004003D01*
X020106Y003902D01*
X020003Y003799D01*
X020003Y003257D01*
X019859Y003257D01*
X019665Y003177D01*
X019628Y003140D01*
X019310Y003457D01*
X019120Y003457D01*
X018760Y003457D01*
X018472Y003745D01*
X018472Y003768D01*
X018402Y003936D01*
X018274Y004065D01*
X018106Y004135D01*
X017924Y004135D01*
X017756Y004065D01*
X017627Y003936D01*
X017558Y003768D01*
X017558Y003586D01*
X017611Y003457D01*
X017419Y003457D01*
X017472Y003586D01*
X017472Y003768D01*
X017402Y003936D01*
X017274Y004065D01*
X017106Y004135D01*
X016997Y004135D01*
X017204Y004342D01*
X017256Y004290D01*
X017424Y004220D01*
X017606Y004220D01*
X017774Y004290D01*
X017902Y004418D01*
X017972Y004586D01*
X017972Y004768D01*
X017902Y004936D01*
X017901Y004937D01*
X018128Y004937D01*
X018127Y004936D01*
X018058Y004768D01*
X018058Y004586D01*
X018127Y004418D01*
X018256Y004290D01*
X018424Y004220D01*
X018606Y004220D01*
X018624Y004228D01*
X018621Y004225D01*
X018549Y004051D01*
X018549Y003862D01*
X018621Y003687D01*
X018755Y003553D01*
X018930Y003481D01*
X019119Y003481D01*
X019293Y003553D01*
X019427Y003687D01*
X019499Y003862D01*
X019499Y004051D01*
X019427Y004225D01*
X019293Y004359D01*
X019119Y004431D01*
X018930Y004431D01*
X018903Y004420D01*
X018972Y004586D01*
X018972Y004768D01*
X018902Y004936D01*
X018901Y004937D01*
X019392Y004937D01*
X019439Y004890D01*
X019586Y004829D01*
X019744Y004829D01*
X019890Y004890D01*
X020002Y005002D01*
X020063Y005148D01*
X020063Y005307D01*
X020002Y005453D01*
X019890Y005565D01*
X019744Y005625D01*
X019586Y005625D01*
X019439Y005565D01*
X019327Y005453D01*
X019317Y005428D02*
X004695Y005428D01*
X004695Y005310D02*
X012058Y005310D01*
X011939Y005191D02*
X006335Y005191D01*
X006015Y004927D02*
X010515Y004927D01*
X012015Y004927D01*
X012265Y005177D01*
X015515Y005177D01*
X015515Y004677D01*
X015086Y004835D02*
X014841Y004835D01*
X014890Y004815D02*
X014744Y004875D01*
X014586Y004875D01*
X014439Y004815D01*
X014327Y004703D01*
X014267Y004557D01*
X014267Y004398D01*
X014327Y004252D01*
X014439Y004140D01*
X014586Y004079D01*
X014738Y004079D01*
X014754Y004063D01*
X014627Y003936D01*
X014558Y003768D01*
X014558Y003586D01*
X014627Y003418D01*
X014756Y003290D01*
X014847Y003252D01*
X014665Y003177D01*
X014653Y003165D01*
X014360Y003457D01*
X014170Y003457D01*
X013960Y003457D01*
X013674Y003743D01*
X013674Y003987D01*
X013878Y003987D01*
X013972Y004081D01*
X013972Y004502D01*
X013654Y004502D01*
X013654Y004579D01*
X013972Y004579D01*
X013972Y004937D01*
X015128Y004937D01*
X015127Y004936D01*
X015058Y004768D01*
X015058Y004586D01*
X015111Y004457D01*
X015063Y004457D01*
X015063Y004557D01*
X015002Y004703D01*
X014890Y004815D01*
X014988Y004717D02*
X015058Y004717D01*
X015046Y004598D02*
X015058Y004598D01*
X015063Y004480D02*
X015102Y004480D01*
X014489Y004835D02*
X013972Y004835D01*
X013972Y004717D02*
X014341Y004717D01*
X014284Y004598D02*
X013972Y004598D01*
X013972Y004480D02*
X014267Y004480D01*
X014282Y004361D02*
X013972Y004361D01*
X013972Y004243D02*
X014337Y004243D01*
X014477Y004124D02*
X013972Y004124D01*
X013896Y004006D02*
X014697Y004006D01*
X014607Y003887D02*
X013674Y003887D01*
X013674Y003768D02*
X014558Y003768D01*
X014558Y003650D02*
X013768Y003650D01*
X013886Y003531D02*
X014581Y003531D01*
X014633Y003413D02*
X014405Y003413D01*
X014523Y003294D02*
X014751Y003294D01*
X014664Y003176D02*
X014642Y003176D01*
X013628Y003140D02*
X013516Y003028D01*
X013465Y002905D01*
X013414Y003028D01*
X013265Y003177D01*
X013070Y003257D01*
X012859Y003257D01*
X012665Y003177D01*
X012516Y003028D01*
X012465Y002905D01*
X012414Y003028D01*
X012265Y003177D01*
X012195Y003206D01*
X012195Y004523D01*
X012060Y004657D01*
X012030Y004687D01*
X012114Y004687D01*
X012238Y004811D01*
X012238Y004073D01*
X012257Y004054D01*
X012255Y004052D01*
X012255Y003503D01*
X012361Y003397D01*
X012900Y003397D01*
X012965Y003463D01*
X013030Y003397D01*
X013370Y003397D01*
X013628Y003140D01*
X013591Y003176D02*
X013266Y003176D01*
X013385Y003057D02*
X013545Y003057D01*
X013479Y002939D02*
X013451Y002939D01*
X013473Y003294D02*
X012195Y003294D01*
X012195Y003413D02*
X012345Y003413D01*
X012255Y003531D02*
X012195Y003531D01*
X012195Y003650D02*
X012255Y003650D01*
X012255Y003768D02*
X012195Y003768D01*
X012195Y003887D02*
X012255Y003887D01*
X012255Y004006D02*
X012195Y004006D01*
X012195Y004124D02*
X012238Y004124D01*
X012238Y004243D02*
X012195Y004243D01*
X012195Y004361D02*
X012238Y004361D01*
X012238Y004480D02*
X012195Y004480D01*
X012238Y004598D02*
X012119Y004598D01*
X012144Y004717D02*
X012238Y004717D01*
X011615Y004577D02*
X011215Y004577D01*
X011200Y004562D01*
X011065Y004562D01*
X010515Y004562D02*
X010515Y004927D01*
X009438Y004687D02*
X009438Y003865D01*
X009543Y003760D01*
X010086Y003760D01*
X010124Y003797D01*
X010135Y003797D01*
X010135Y003623D01*
X010240Y003518D01*
X010789Y003518D01*
X010790Y003518D01*
X010790Y003518D01*
X011339Y003518D01*
X011358Y003536D01*
X011576Y003536D01*
X011576Y003854D01*
X011653Y003854D01*
X011653Y003536D01*
X011735Y003536D01*
X011735Y003206D01*
X011665Y003177D01*
X011516Y003028D01*
X011465Y002905D01*
X011414Y003028D01*
X011265Y003177D01*
X011070Y003257D01*
X010859Y003257D01*
X010665Y003177D01*
X010516Y003028D01*
X010465Y002905D01*
X010414Y003028D01*
X010265Y003177D01*
X010070Y003257D01*
X009859Y003257D01*
X009665Y003177D01*
X009653Y003165D01*
X009495Y003323D01*
X009360Y003457D01*
X007570Y003457D01*
X007710Y003597D01*
X007845Y003732D01*
X007845Y003760D01*
X007886Y003760D01*
X007992Y003865D01*
X007992Y004687D01*
X008458Y004687D01*
X008458Y004372D01*
X008776Y004372D01*
X008776Y004295D01*
X008458Y004295D01*
X008458Y003873D01*
X008552Y003780D01*
X008776Y003780D01*
X008776Y004295D01*
X008853Y004295D01*
X008853Y003780D01*
X009078Y003780D01*
X009172Y003873D01*
X009172Y004295D01*
X008854Y004295D01*
X008854Y004372D01*
X009172Y004372D01*
X009172Y004687D01*
X009438Y004687D01*
X009438Y004598D02*
X009172Y004598D01*
X009172Y004480D02*
X009438Y004480D01*
X009438Y004361D02*
X008854Y004361D01*
X008776Y004361D02*
X007992Y004361D01*
X007992Y004243D02*
X008458Y004243D01*
X008458Y004124D02*
X007992Y004124D01*
X007992Y004006D02*
X008458Y004006D01*
X008458Y003887D02*
X007992Y003887D01*
X007895Y003768D02*
X009535Y003768D01*
X009438Y003887D02*
X009172Y003887D01*
X009172Y004006D02*
X009438Y004006D01*
X009438Y004124D02*
X009172Y004124D01*
X009172Y004243D02*
X009438Y004243D01*
X008853Y004243D02*
X008776Y004243D01*
X008776Y004124D02*
X008853Y004124D01*
X008853Y004006D02*
X008776Y004006D01*
X008776Y003887D02*
X008853Y003887D01*
X009405Y003413D02*
X011735Y003413D01*
X011735Y003531D02*
X011353Y003531D01*
X011576Y003650D02*
X011653Y003650D01*
X011653Y003768D02*
X011576Y003768D01*
X011130Y003893D02*
X011065Y003893D01*
X011115Y003877D02*
X010565Y003877D01*
X010530Y003893D02*
X010515Y003893D01*
X010530Y003893D02*
X010515Y003877D01*
X010135Y003768D02*
X010095Y003768D01*
X010135Y003650D02*
X007763Y003650D01*
X007644Y003531D02*
X010227Y003531D01*
X010266Y003176D02*
X010664Y003176D01*
X010545Y003057D02*
X010385Y003057D01*
X010451Y002939D02*
X010479Y002939D01*
X011266Y003176D02*
X011664Y003176D01*
X011735Y003294D02*
X009523Y003294D01*
X009495Y003323D02*
X009495Y003323D01*
X009642Y003176D02*
X009664Y003176D01*
X011115Y003877D02*
X011130Y003893D01*
X011385Y003057D02*
X011545Y003057D01*
X011479Y002939D02*
X011451Y002939D01*
X012266Y003176D02*
X012664Y003176D01*
X012545Y003057D02*
X012385Y003057D01*
X012451Y002939D02*
X012479Y002939D01*
X012915Y003413D02*
X013015Y003413D01*
X012992Y004119D02*
X012992Y004937D01*
X013258Y004937D01*
X013258Y004579D01*
X013576Y004579D01*
X013576Y004502D01*
X013258Y004502D01*
X013258Y004157D01*
X013030Y004157D01*
X012992Y004119D01*
X012992Y004124D02*
X012997Y004124D01*
X012992Y004243D02*
X013258Y004243D01*
X013258Y004361D02*
X012992Y004361D01*
X012992Y004480D02*
X013258Y004480D01*
X013258Y004598D02*
X012992Y004598D01*
X012992Y004717D02*
X013258Y004717D01*
X013258Y004835D02*
X012992Y004835D01*
X015515Y005177D02*
X019615Y005177D01*
X019665Y005227D01*
X019954Y004954D02*
X020573Y004954D01*
X020573Y005072D02*
X020032Y005072D01*
X020063Y005191D02*
X020573Y005191D01*
X020573Y005310D02*
X020062Y005310D01*
X020013Y005428D02*
X020611Y005428D01*
X020887Y005547D02*
X019909Y005547D01*
X019421Y005547D02*
X004695Y005547D01*
X004695Y005665D02*
X020887Y005665D01*
X020548Y004835D02*
X019759Y004835D01*
X019571Y004835D02*
X018944Y004835D01*
X018972Y004717D02*
X020429Y004717D01*
X020052Y004598D02*
X018972Y004598D01*
X018928Y004480D02*
X020005Y004480D01*
X020005Y004361D02*
X019288Y004361D01*
X019410Y004243D02*
X020005Y004243D01*
X020005Y004124D02*
X019469Y004124D01*
X019499Y004006D02*
X020005Y004006D01*
X020092Y003887D02*
X019499Y003887D01*
X019461Y003768D02*
X020003Y003768D01*
X020003Y003650D02*
X019390Y003650D01*
X019241Y003531D02*
X020003Y003531D01*
X020003Y003413D02*
X019355Y003413D01*
X019473Y003294D02*
X020003Y003294D01*
X019664Y003176D02*
X019592Y003176D01*
X018808Y003531D02*
X018686Y003531D01*
X018658Y003650D02*
X018568Y003650D01*
X018588Y003768D02*
X018472Y003768D01*
X018423Y003887D02*
X018549Y003887D01*
X018549Y004006D02*
X018333Y004006D01*
X018131Y004124D02*
X018579Y004124D01*
X018370Y004243D02*
X017660Y004243D01*
X017845Y004361D02*
X018185Y004361D01*
X018102Y004480D02*
X017928Y004480D01*
X017972Y004598D02*
X018058Y004598D01*
X018058Y004717D02*
X017972Y004717D01*
X017944Y004835D02*
X018086Y004835D01*
X017370Y004243D02*
X017105Y004243D01*
X017131Y004124D02*
X017899Y004124D01*
X017697Y004006D02*
X017333Y004006D01*
X017423Y003887D02*
X017607Y003887D01*
X017558Y003768D02*
X017472Y003768D01*
X017472Y003650D02*
X017558Y003650D01*
X017581Y003531D02*
X017449Y003531D01*
X021323Y003902D02*
X021424Y004003D01*
X021424Y004447D01*
X021808Y004447D01*
X021808Y004300D01*
X022126Y004300D01*
X022126Y004224D01*
X021808Y004224D01*
X021808Y003999D01*
X021865Y003941D01*
X021788Y003864D01*
X021788Y003457D01*
X021610Y003457D01*
X021426Y003641D01*
X021426Y003799D01*
X021323Y003902D01*
X021338Y003887D02*
X021811Y003887D01*
X021808Y004006D02*
X021424Y004006D01*
X021424Y004124D02*
X021808Y004124D01*
X021808Y004361D02*
X021424Y004361D01*
X021424Y004243D02*
X022126Y004243D01*
X021788Y003768D02*
X021426Y003768D01*
X021426Y003650D02*
X021788Y003650D01*
X021788Y003531D02*
X021536Y003531D01*
X023766Y003877D02*
X024105Y003877D01*
X024105Y003878D01*
X023766Y003878D01*
X023766Y003877D01*
X024181Y003677D02*
X024211Y003647D01*
X024750Y003647D01*
X024829Y003727D01*
X024888Y003667D01*
X025112Y003667D01*
X025112Y003990D01*
X025187Y003990D01*
X025187Y003667D01*
X025235Y003667D01*
X025235Y003189D01*
X025070Y003257D01*
X024859Y003257D01*
X024665Y003177D01*
X024516Y003028D01*
X024465Y002905D01*
X024414Y003028D01*
X024265Y003177D01*
X024195Y003206D01*
X024195Y003382D01*
X024195Y003573D01*
X024181Y003586D01*
X024181Y003677D01*
X024181Y003650D02*
X024208Y003650D01*
X024195Y003531D02*
X025235Y003531D01*
X025235Y003413D02*
X024195Y003413D01*
X024195Y003294D02*
X025235Y003294D01*
X025235Y003650D02*
X024752Y003650D01*
X025112Y003768D02*
X025187Y003768D01*
X025187Y003887D02*
X025112Y003887D01*
X024664Y003176D02*
X024266Y003176D01*
X024385Y003057D02*
X024545Y003057D01*
X024479Y002939D02*
X024451Y002939D01*
X024415Y005277D02*
X023465Y005277D01*
X023759Y005547D02*
X024103Y005547D01*
X024103Y005517D02*
X023788Y005517D01*
X023690Y005615D01*
X023544Y005675D01*
X023392Y005675D01*
X023390Y005677D01*
X023715Y005677D01*
X023715Y006027D01*
X025235Y006027D01*
X025235Y005684D01*
X025188Y005684D01*
X025188Y005366D01*
X025111Y005366D01*
X025111Y005684D01*
X024886Y005684D01*
X024829Y005627D01*
X024752Y005704D01*
X024209Y005704D01*
X024103Y005599D01*
X024103Y005517D01*
X024170Y005665D02*
X023569Y005665D01*
X023715Y005784D02*
X025235Y005784D01*
X025235Y005902D02*
X023715Y005902D01*
X023715Y006021D02*
X025235Y006021D01*
X025188Y005665D02*
X025111Y005665D01*
X025111Y005547D02*
X025188Y005547D01*
X025188Y005428D02*
X025111Y005428D01*
X024867Y005665D02*
X024791Y005665D01*
X024465Y005343D02*
X024480Y005327D01*
X024465Y005343D02*
X024415Y005277D01*
X008458Y004598D02*
X007992Y004598D01*
X007992Y004480D02*
X008458Y004480D01*
X007238Y004480D02*
X006972Y004480D01*
X006972Y004372D02*
X006654Y004372D01*
X006654Y004295D01*
X006972Y004295D01*
X006972Y003873D01*
X006878Y003780D01*
X006653Y003780D01*
X006653Y004295D01*
X006576Y004295D01*
X006576Y003780D01*
X006352Y003780D01*
X006258Y003873D01*
X006258Y003886D01*
X006239Y003868D01*
X006195Y003868D01*
X006195Y003723D01*
X006460Y003457D01*
X006920Y003457D01*
X007283Y003820D01*
X007238Y003865D01*
X007238Y004687D01*
X006972Y004687D01*
X006972Y004372D01*
X006972Y004243D02*
X007238Y004243D01*
X007238Y004361D02*
X006654Y004361D01*
X006653Y004243D02*
X006576Y004243D01*
X006576Y004124D02*
X006653Y004124D01*
X006653Y004006D02*
X006576Y004006D01*
X006576Y003887D02*
X006653Y003887D01*
X006972Y003887D02*
X007238Y003887D01*
X007238Y004006D02*
X006972Y004006D01*
X006972Y004124D02*
X007238Y004124D01*
X007231Y003768D02*
X006195Y003768D01*
X006268Y003650D02*
X007112Y003650D01*
X006994Y003531D02*
X006386Y003531D01*
X005965Y002727D02*
X005415Y003277D01*
X005415Y004777D01*
X005565Y004927D01*
X006015Y004927D01*
X005594Y005191D02*
X004695Y005191D01*
X004695Y005072D02*
X005371Y005072D01*
X005252Y004954D02*
X004695Y004954D01*
X004695Y004835D02*
X005175Y004835D01*
X005175Y004717D02*
X004695Y004717D01*
X004695Y004598D02*
X005175Y004598D01*
X005175Y004480D02*
X004695Y004480D01*
X004695Y004361D02*
X005175Y004361D01*
X005175Y004243D02*
X004695Y004243D01*
X004695Y004124D02*
X005175Y004124D01*
X005175Y004006D02*
X004695Y004006D01*
X004695Y003887D02*
X005175Y003887D01*
X005175Y003768D02*
X004695Y003768D01*
X004695Y003650D02*
X005175Y003650D01*
X005175Y003531D02*
X004695Y003531D01*
X004695Y003413D02*
X005175Y003413D01*
X005175Y003294D02*
X004695Y003294D01*
X004695Y003176D02*
X004715Y003176D01*
X004926Y003176D02*
X005003Y003176D01*
X005003Y003057D02*
X004926Y003057D01*
X004926Y002939D02*
X005003Y002939D01*
X005003Y002820D02*
X004926Y002820D01*
X006972Y004598D02*
X007238Y004598D01*
D31*
X008215Y004327D03*
X006615Y003627D03*
X011465Y003227D03*
X012465Y003227D03*
X014115Y004477D03*
X014665Y004477D03*
X019665Y005227D03*
X020365Y005127D03*
X021615Y004077D03*
X023465Y005277D03*
X023965Y005777D03*
X024465Y003277D03*
X021465Y008527D03*
X012515Y011427D03*
X012465Y013427D03*
X008915Y008477D03*
X012065Y007327D03*
D32*
X012810Y008248D02*
X012810Y008292D01*
X012897Y008292D01*
X012897Y008750D01*
X013052Y008750D01*
X013052Y008292D01*
X013364Y008292D01*
X013470Y008398D01*
X013470Y008750D01*
X013052Y008750D01*
X013052Y008905D01*
X012897Y008905D01*
X012897Y009362D01*
X013052Y009362D01*
X013364Y009362D01*
X013470Y009257D01*
X013470Y008905D01*
X013052Y008905D01*
X013052Y009362D01*
X012897Y009362D02*
X012810Y009362D01*
X012810Y009447D01*
X012780Y009477D01*
X012810Y009507D01*
X012810Y009592D01*
X012897Y009592D01*
X012897Y010050D01*
X013052Y010050D01*
X013052Y009592D01*
X013364Y009592D01*
X013470Y009698D01*
X013470Y010050D01*
X013052Y010050D01*
X013052Y010205D01*
X013470Y010205D01*
X013470Y010557D01*
X013390Y010637D01*
X014149Y010637D01*
X014028Y010515D01*
X014028Y009739D01*
X014577Y009191D01*
X015353Y009191D01*
X015640Y009478D01*
X015927Y009191D01*
X016094Y009191D01*
X016060Y009157D01*
X016060Y008805D01*
X016477Y008805D01*
X016477Y008650D01*
X016060Y008650D01*
X016060Y008298D01*
X016166Y008192D01*
X016477Y008192D01*
X016477Y008650D01*
X016633Y008650D01*
X016633Y008192D01*
X016720Y008192D01*
X016720Y008107D01*
X016850Y007977D01*
X014347Y007977D01*
X014077Y008248D01*
X013153Y008248D01*
X013115Y008210D01*
X013077Y008248D01*
X012810Y008248D01*
X012810Y008252D02*
X016106Y008252D01*
X016060Y008411D02*
X013470Y008411D01*
X013470Y008569D02*
X016060Y008569D01*
X016477Y008569D02*
X016633Y008569D01*
X016633Y008411D02*
X016477Y008411D01*
X016477Y008252D02*
X016633Y008252D01*
X016734Y008094D02*
X014231Y008094D01*
X013052Y008411D02*
X012897Y008411D01*
X012897Y008569D02*
X013052Y008569D01*
X013052Y008728D02*
X012897Y008728D01*
X013052Y008886D02*
X016060Y008886D01*
X016060Y009045D02*
X013470Y009045D01*
X013470Y009203D02*
X014564Y009203D01*
X014406Y009362D02*
X013365Y009362D01*
X013052Y009203D02*
X012897Y009203D01*
X012897Y009045D02*
X013052Y009045D01*
X013470Y008728D02*
X016477Y008728D01*
X015914Y009203D02*
X015366Y009203D01*
X015524Y009362D02*
X015756Y009362D01*
X017235Y009722D02*
X017252Y009739D01*
X017252Y010515D01*
X016703Y011064D01*
X015927Y011064D01*
X015640Y010777D01*
X015353Y011064D01*
X014577Y011064D01*
X014555Y011042D01*
X014555Y012132D01*
X014210Y012477D01*
X014555Y012823D01*
X014555Y013943D01*
X014271Y014227D01*
X019342Y014227D01*
X019342Y014036D01*
X019542Y013836D01*
X019542Y013226D01*
X019446Y013226D01*
X019446Y013907D01*
X019349Y013907D01*
X019080Y013796D01*
X018875Y013591D01*
X018764Y013323D01*
X018764Y013225D01*
X019446Y013225D01*
X019446Y013129D01*
X019542Y013129D01*
X019542Y012447D01*
X019639Y012447D01*
X019908Y012559D01*
X020113Y012764D01*
X020224Y013032D01*
X020224Y013129D01*
X019542Y013129D01*
X019542Y013225D01*
X020224Y013225D01*
X020224Y013323D01*
X020113Y013591D01*
X020043Y013661D01*
X021000Y013661D01*
X021465Y013196D01*
X021465Y012434D01*
X021145Y012434D01*
X021145Y011940D01*
X020985Y011940D01*
X020985Y012434D01*
X019908Y012434D01*
X019802Y012328D01*
X019802Y011940D01*
X020985Y011940D01*
X020985Y011780D01*
X021145Y011780D01*
X021145Y011286D01*
X021465Y011286D01*
X021465Y009385D01*
X021294Y009385D01*
X021080Y009297D01*
X021080Y009347D01*
X020970Y009457D01*
X021252Y009739D01*
X021252Y010515D01*
X020703Y011064D01*
X019927Y011064D01*
X019690Y010827D01*
X019525Y010827D01*
X019115Y010417D01*
X018337Y009640D01*
X018255Y009722D01*
X017235Y009722D01*
X017252Y009837D02*
X018535Y009837D01*
X018377Y009679D02*
X018298Y009679D01*
X018694Y009996D02*
X017252Y009996D01*
X017252Y010155D02*
X018852Y010155D01*
X019011Y010313D02*
X017252Y010313D01*
X017252Y010472D02*
X019169Y010472D01*
X019328Y010630D02*
X017137Y010630D01*
X016978Y010789D02*
X019486Y010789D01*
X019810Y010947D02*
X016820Y010947D01*
X017228Y011136D02*
X017333Y011241D01*
X017333Y012397D01*
X016101Y012397D01*
X016101Y011136D01*
X017228Y011136D01*
X017333Y011264D02*
X021465Y011264D01*
X021465Y011106D02*
X014555Y011106D01*
X014555Y011264D02*
X014709Y011264D01*
X014709Y011241D02*
X014815Y011136D01*
X015941Y011136D01*
X015941Y012397D01*
X016101Y012397D01*
X016101Y012557D01*
X017333Y012557D01*
X017333Y013713D01*
X017228Y013819D01*
X016101Y013819D01*
X016101Y012558D01*
X015941Y012558D01*
X015941Y013819D01*
X014815Y013819D01*
X014709Y013713D01*
X014709Y012557D01*
X015941Y012557D01*
X015941Y012397D01*
X014709Y012397D01*
X014709Y011241D01*
X014709Y011423D02*
X014555Y011423D01*
X014555Y011581D02*
X014709Y011581D01*
X014709Y011740D02*
X014555Y011740D01*
X014555Y011899D02*
X014709Y011899D01*
X014709Y012057D02*
X014555Y012057D01*
X014471Y012216D02*
X014709Y012216D01*
X014709Y012374D02*
X014313Y012374D01*
X014265Y012533D02*
X015941Y012533D01*
X015941Y012691D02*
X016101Y012691D01*
X016101Y012533D02*
X019143Y012533D01*
X019080Y012559D02*
X019349Y012447D01*
X019446Y012447D01*
X019446Y013129D01*
X018764Y013129D01*
X018764Y013032D01*
X018875Y012764D01*
X019080Y012559D01*
X018948Y012691D02*
X017333Y012691D01*
X017333Y012850D02*
X018840Y012850D01*
X018774Y013008D02*
X017333Y013008D01*
X017333Y013167D02*
X019446Y013167D01*
X019542Y013167D02*
X021465Y013167D01*
X021465Y013008D02*
X020214Y013008D01*
X020148Y012850D02*
X021465Y012850D01*
X021465Y012691D02*
X020040Y012691D01*
X019845Y012533D02*
X021465Y012533D01*
X021145Y012374D02*
X020985Y012374D01*
X020985Y012216D02*
X021145Y012216D01*
X021145Y012057D02*
X020985Y012057D01*
X020985Y011899D02*
X017333Y011899D01*
X017333Y012057D02*
X019802Y012057D01*
X019802Y012216D02*
X017333Y012216D01*
X017333Y012374D02*
X019848Y012374D01*
X019542Y012533D02*
X019446Y012533D01*
X019446Y012691D02*
X019542Y012691D01*
X019542Y012850D02*
X019446Y012850D01*
X019446Y013008D02*
X019542Y013008D01*
X019542Y013325D02*
X019446Y013325D01*
X019446Y013484D02*
X019542Y013484D01*
X019542Y013643D02*
X019446Y013643D01*
X019446Y013801D02*
X019542Y013801D01*
X019419Y013960D02*
X014539Y013960D01*
X014555Y013801D02*
X014797Y013801D01*
X014709Y013643D02*
X014555Y013643D01*
X014555Y013484D02*
X014709Y013484D01*
X014709Y013325D02*
X014555Y013325D01*
X014555Y013167D02*
X014709Y013167D01*
X014709Y013008D02*
X014555Y013008D01*
X014555Y012850D02*
X014709Y012850D01*
X014709Y012691D02*
X014424Y012691D01*
X015941Y012850D02*
X016101Y012850D01*
X016101Y013008D02*
X015941Y013008D01*
X015941Y013167D02*
X016101Y013167D01*
X016101Y013325D02*
X015941Y013325D01*
X015941Y013484D02*
X016101Y013484D01*
X016101Y013643D02*
X015941Y013643D01*
X015941Y013801D02*
X016101Y013801D01*
X017245Y013801D02*
X019092Y013801D01*
X018927Y013643D02*
X017333Y013643D01*
X017333Y013484D02*
X018831Y013484D01*
X018765Y013325D02*
X017333Y013325D01*
X016101Y012374D02*
X015941Y012374D01*
X015941Y012216D02*
X016101Y012216D01*
X016101Y012057D02*
X015941Y012057D01*
X015941Y011899D02*
X016101Y011899D01*
X016101Y011740D02*
X015941Y011740D01*
X015941Y011581D02*
X016101Y011581D01*
X016101Y011423D02*
X015941Y011423D01*
X015941Y011264D02*
X016101Y011264D01*
X015810Y010947D02*
X015470Y010947D01*
X015628Y010789D02*
X015651Y010789D01*
X014143Y010630D02*
X013396Y010630D01*
X013470Y010472D02*
X014028Y010472D01*
X014028Y010313D02*
X013470Y010313D01*
X013052Y010155D02*
X014028Y010155D01*
X014028Y009996D02*
X013470Y009996D01*
X013470Y009837D02*
X014028Y009837D01*
X014088Y009679D02*
X013451Y009679D01*
X013052Y009679D02*
X012897Y009679D01*
X012897Y009837D02*
X013052Y009837D01*
X013052Y009996D02*
X012897Y009996D01*
X012810Y009520D02*
X014247Y009520D01*
X017333Y011423D02*
X019802Y011423D01*
X019802Y011392D02*
X019908Y011286D01*
X020985Y011286D01*
X020985Y011780D01*
X019802Y011780D01*
X019802Y011392D01*
X019802Y011581D02*
X017333Y011581D01*
X017333Y011740D02*
X019802Y011740D01*
X020985Y011740D02*
X021145Y011740D01*
X021145Y011581D02*
X020985Y011581D01*
X020985Y011423D02*
X021145Y011423D01*
X021465Y010947D02*
X020820Y010947D01*
X020978Y010789D02*
X021465Y010789D01*
X021465Y010630D02*
X021137Y010630D01*
X021252Y010472D02*
X021465Y010472D01*
X021465Y010313D02*
X021252Y010313D01*
X021252Y010155D02*
X021465Y010155D01*
X021465Y009996D02*
X021252Y009996D01*
X021252Y009837D02*
X021465Y009837D01*
X021465Y009679D02*
X021191Y009679D01*
X021033Y009520D02*
X021465Y009520D01*
X021237Y009362D02*
X021065Y009362D01*
X021465Y008527D02*
X021165Y008227D01*
X021165Y007788D01*
X021665Y007788D02*
X021665Y008327D01*
X021465Y008527D01*
X022165Y008277D02*
X022465Y008577D01*
X022665Y008377D01*
X022665Y007788D01*
X022165Y007788D02*
X022165Y008277D01*
X021335Y013325D02*
X020223Y013325D01*
X020157Y013484D02*
X021177Y013484D01*
X021018Y013643D02*
X020061Y013643D01*
X019342Y014118D02*
X014380Y014118D01*
D33*
X015465Y013127D03*
X016615Y013127D03*
X017515Y013527D03*
X017515Y012477D03*
X016615Y011827D03*
X017515Y011427D03*
X016015Y012477D03*
X015465Y011827D03*
X013715Y008827D03*
X015815Y008727D03*
D34*
X010215Y011527D02*
X009415Y011527D01*
X008615Y012327D01*
X008015Y012327D01*
X010215Y013827D02*
X010636Y013407D01*
X010636Y013177D01*
X010215Y013827D02*
X010215Y013927D01*
X008615Y015027D02*
X007865Y014277D01*
X008015Y014327D01*
X008615Y015027D02*
X020765Y015027D01*
X021065Y014695D01*
X020765Y015027D02*
X023115Y012677D01*
X023115Y012327D01*
X023115Y010327D02*
X023115Y009227D01*
X022465Y008577D01*
X013442Y013383D02*
X013442Y013400D01*
X013415Y013427D01*
X012465Y013427D01*
X013359Y013433D02*
X013415Y013377D01*
X013420Y013383D01*
X013442Y013383D01*
M02*
