G75*
G70*
%OFA0B0*%
%FSLAX24Y24*%
%IPPOS*%
%LPD*%
%AMOC8*
5,1,8,0,0,1.08239X$1,22.5*
%
%ADD10C,0.0120*%
%ADD11C,0.0100*%
%ADD12C,0.0200*%
%ADD13R,0.0750X0.0500*%
%ADD14R,0.0700X0.0300*%
%ADD15R,0.0300X0.0500*%
%ADD16R,0.0200X0.0200*%
%ADD17C,0.0160*%
%ADD18C,0.0080*%
%ADD19C,0.0240*%
%ADD20C,0.0060*%
%ADD21C,0.0040*%
%ADD22C,0.0010*%
%ADD23R,0.0750X0.0500*%
%ADD24R,0.0700X0.0300*%
%ADD25R,0.0300X0.0500*%
%ADD26C,0.0050*%
%ADD27R,0.0200X0.0200*%
D10*
X004633Y019522D02*
X004633Y002481D01*
X019625Y002481D01*
X019625Y019522D01*
X004633Y019522D01*
X006138Y018515D02*
X006274Y018248D01*
X006410Y017980D01*
X006274Y018248D01*
X006138Y018515D01*
X006360Y018628D02*
X006497Y018361D01*
X006633Y018094D01*
X006497Y018361D01*
X006360Y018628D01*
X008665Y018505D02*
X008801Y018238D01*
X008938Y017970D01*
X008801Y018238D01*
X008665Y018505D01*
X008888Y018618D02*
X009024Y018351D01*
X009160Y018084D01*
X009024Y018351D01*
X008888Y018618D01*
X011365Y018632D02*
X011365Y018332D01*
X011365Y018632D01*
X011365Y018932D01*
X011365Y018632D01*
X011615Y018632D02*
X011615Y018332D01*
X011615Y018632D01*
X011615Y018932D01*
X011615Y018632D01*
X018263Y016241D02*
X018563Y016241D01*
X018863Y016241D01*
X018563Y016241D01*
X018263Y016241D01*
X018263Y015991D02*
X018563Y015991D01*
X018863Y015991D01*
X018563Y015991D01*
X018263Y015991D01*
X008684Y011549D02*
X008384Y011549D01*
X008084Y011549D01*
X008384Y011549D01*
X008684Y011549D01*
X008684Y011299D02*
X008384Y011299D01*
X008084Y011299D01*
X008384Y011299D01*
X008684Y011299D01*
X007395Y011273D02*
X007095Y011273D01*
X006795Y011273D01*
X007095Y011273D01*
X007395Y011273D01*
X007395Y011523D02*
X007095Y011523D01*
X006795Y011523D01*
X007095Y011523D01*
X007395Y011523D01*
X007500Y004301D02*
X007324Y004058D01*
X007148Y003816D01*
X007324Y004058D01*
X007500Y004301D01*
X007702Y004154D02*
X007526Y003911D01*
X007350Y003669D01*
X007526Y003911D01*
X007702Y004154D01*
D11*
X007526Y003911D02*
X007834Y003688D01*
X008264Y003684D02*
X008278Y003707D01*
X008289Y003730D01*
X008296Y003755D01*
X008301Y003781D01*
X008302Y003807D01*
X008300Y003833D01*
X008294Y003859D01*
X008285Y003883D01*
X008273Y003907D01*
X008257Y003928D01*
X008240Y003947D01*
X008220Y003964D01*
X008219Y003964D02*
X007168Y004728D01*
X006888Y004684D01*
X006905Y004704D01*
X006924Y004721D01*
X006945Y004737D01*
X006969Y004749D01*
X006993Y004758D01*
X007019Y004764D01*
X007045Y004766D01*
X007071Y004765D01*
X007097Y004760D01*
X007122Y004753D01*
X007145Y004742D01*
X007168Y004728D01*
X007259Y004841D02*
X007245Y004934D01*
X007401Y005150D01*
X007495Y005165D01*
X007603Y005086D01*
X007617Y004993D01*
X007774Y004879D02*
X007867Y004894D01*
X007632Y004570D01*
X007578Y004609D02*
X007686Y004531D01*
X007461Y004777D02*
X007367Y004762D01*
X007259Y004841D01*
X007168Y004728D02*
X007145Y004742D01*
X007122Y004753D01*
X007097Y004760D01*
X007071Y004765D01*
X007045Y004766D01*
X007019Y004764D01*
X006993Y004758D01*
X006969Y004749D01*
X006945Y004737D01*
X006924Y004721D01*
X006905Y004704D01*
X006888Y004684D01*
X006905Y004704D01*
X006924Y004721D01*
X006945Y004737D01*
X006969Y004749D01*
X006993Y004758D01*
X007019Y004764D01*
X007045Y004766D01*
X007071Y004765D01*
X007097Y004760D01*
X007122Y004753D01*
X007145Y004742D01*
X007168Y004728D01*
X007025Y004276D02*
X007324Y004058D01*
X006638Y004000D02*
X006617Y004019D01*
X006598Y004040D01*
X006582Y004064D01*
X006570Y004089D01*
X006561Y004117D01*
X006557Y004145D01*
X006556Y004173D01*
X006560Y004202D01*
X006568Y004229D01*
X006579Y004255D01*
X006594Y004280D01*
X006594Y004279D02*
X006639Y004000D01*
X007690Y003236D01*
X007970Y003280D01*
X007953Y003260D01*
X007934Y003243D01*
X007913Y003227D01*
X007889Y003215D01*
X007865Y003206D01*
X007839Y003200D01*
X007813Y003198D01*
X007787Y003199D01*
X007761Y003204D01*
X007736Y003211D01*
X007713Y003222D01*
X007690Y003236D01*
X007713Y003222D01*
X007736Y003211D01*
X007761Y003204D01*
X007787Y003199D01*
X007813Y003198D01*
X007839Y003200D01*
X007865Y003206D01*
X007889Y003215D01*
X007913Y003227D01*
X007934Y003243D01*
X007953Y003260D01*
X007970Y003280D01*
X007953Y003260D01*
X007934Y003243D01*
X007913Y003227D01*
X007889Y003215D01*
X007865Y003206D01*
X007839Y003200D01*
X007813Y003198D01*
X007787Y003199D01*
X007761Y003204D01*
X007736Y003211D01*
X007713Y003222D01*
X007690Y003236D01*
X007502Y003115D02*
X007718Y002959D01*
X007493Y002875D02*
X007385Y002954D01*
X007228Y003067D02*
X007213Y003160D01*
X007051Y003278D01*
X006816Y002954D01*
X006895Y003062D02*
X007057Y002944D01*
X007150Y002959D01*
X007228Y003067D01*
X007267Y002792D02*
X007502Y003115D01*
X008264Y003684D02*
X008219Y003964D01*
X008220Y003964D02*
X008240Y003947D01*
X008257Y003928D01*
X008273Y003907D01*
X008285Y003883D01*
X008294Y003859D01*
X008300Y003833D01*
X008302Y003807D01*
X008301Y003781D01*
X008296Y003755D01*
X008289Y003730D01*
X008278Y003707D01*
X008264Y003684D01*
X008278Y003707D01*
X008289Y003730D01*
X008296Y003755D01*
X008301Y003781D01*
X008302Y003807D01*
X008300Y003833D01*
X008294Y003859D01*
X008285Y003883D01*
X008273Y003907D01*
X008257Y003928D01*
X008240Y003947D01*
X008220Y003964D01*
X009151Y003077D02*
X009284Y003077D01*
X009217Y003077D02*
X009217Y002677D01*
X009151Y002677D02*
X009284Y002677D01*
X009534Y002743D02*
X009534Y003010D01*
X009601Y003077D01*
X009735Y003077D01*
X009801Y003010D01*
X009995Y003010D02*
X010061Y003077D01*
X010061Y002677D01*
X009995Y002677D02*
X010128Y002677D01*
X010381Y002937D02*
X010381Y016887D01*
X010381Y016937D02*
X010881Y016937D01*
X011881Y016937D01*
X012381Y016937D01*
X012381Y002937D01*
X010381Y002937D01*
X009801Y002743D02*
X009735Y002677D01*
X009601Y002677D01*
X009534Y002743D01*
X006934Y003446D02*
X006919Y003539D01*
X006811Y003617D01*
X006718Y003603D01*
X006562Y003716D02*
X006547Y003810D01*
X006439Y003888D01*
X006346Y003873D01*
X006562Y003716D02*
X006523Y003662D01*
X006150Y003603D01*
X006366Y003446D01*
X006522Y003333D02*
X006895Y003392D01*
X006934Y003446D01*
X006738Y003176D02*
X006522Y003333D01*
X006638Y004000D02*
X006617Y004019D01*
X006598Y004040D01*
X006582Y004064D01*
X006570Y004089D01*
X006561Y004117D01*
X006557Y004145D01*
X006556Y004173D01*
X006560Y004202D01*
X006568Y004229D01*
X006579Y004255D01*
X006594Y004280D01*
X006579Y004255D01*
X006568Y004229D01*
X006560Y004202D01*
X006556Y004173D01*
X006557Y004145D01*
X006561Y004117D01*
X006570Y004089D01*
X006582Y004064D01*
X006598Y004040D01*
X006617Y004019D01*
X006638Y004000D01*
X006931Y006507D02*
X006931Y008907D01*
X006933Y008957D01*
X006939Y009006D01*
X006948Y009055D01*
X006961Y009103D01*
X006978Y009150D01*
X006998Y009195D01*
X007022Y009239D01*
X007049Y009281D01*
X007080Y009321D01*
X007113Y009358D01*
X007149Y009392D01*
X007187Y009424D01*
X007228Y009453D01*
X007270Y009478D01*
X007315Y009500D01*
X007361Y009519D01*
X007409Y009534D01*
X007457Y009545D01*
X007506Y009553D01*
X007556Y009557D01*
X007606Y009557D01*
X007656Y009553D01*
X007705Y009545D01*
X007753Y009534D01*
X007801Y009519D01*
X007847Y009500D01*
X007892Y009478D01*
X007934Y009453D01*
X007975Y009424D01*
X008013Y009392D01*
X008049Y009358D01*
X008082Y009321D01*
X008113Y009281D01*
X008140Y009239D01*
X008164Y009195D01*
X008184Y009150D01*
X008201Y009103D01*
X008214Y009055D01*
X008223Y009006D01*
X008229Y008957D01*
X008231Y008907D01*
X008231Y006507D01*
X008229Y006457D01*
X008223Y006408D01*
X008214Y006359D01*
X008201Y006311D01*
X008184Y006264D01*
X008164Y006219D01*
X008140Y006175D01*
X008113Y006133D01*
X008082Y006093D01*
X008049Y006056D01*
X008013Y006022D01*
X007975Y005990D01*
X007934Y005961D01*
X007892Y005936D01*
X007847Y005914D01*
X007801Y005895D01*
X007753Y005880D01*
X007705Y005869D01*
X007656Y005861D01*
X007606Y005857D01*
X007556Y005857D01*
X007506Y005861D01*
X007457Y005869D01*
X007409Y005880D01*
X007361Y005895D01*
X007315Y005914D01*
X007270Y005936D01*
X007228Y005961D01*
X007187Y005990D01*
X007149Y006022D01*
X007113Y006056D01*
X007080Y006093D01*
X007049Y006133D01*
X007022Y006175D01*
X006998Y006219D01*
X006978Y006264D01*
X006961Y006311D01*
X006948Y006359D01*
X006939Y006408D01*
X006933Y006457D01*
X006931Y006507D01*
X006933Y006457D01*
X006939Y006408D01*
X006948Y006359D01*
X006961Y006311D01*
X006978Y006264D01*
X006998Y006219D01*
X007022Y006175D01*
X007049Y006133D01*
X007080Y006093D01*
X007113Y006056D01*
X007149Y006022D01*
X007187Y005990D01*
X007228Y005961D01*
X007270Y005936D01*
X007315Y005914D01*
X007361Y005895D01*
X007409Y005880D01*
X007457Y005869D01*
X007506Y005861D01*
X007556Y005857D01*
X007606Y005857D01*
X007656Y005861D01*
X007705Y005869D01*
X007753Y005880D01*
X007801Y005895D01*
X007847Y005914D01*
X007892Y005936D01*
X007934Y005961D01*
X007975Y005990D01*
X008013Y006022D01*
X008049Y006056D01*
X008082Y006093D01*
X008113Y006133D01*
X008140Y006175D01*
X008164Y006219D01*
X008184Y006264D01*
X008201Y006311D01*
X008214Y006359D01*
X008223Y006408D01*
X008229Y006457D01*
X008231Y006507D01*
X008229Y006457D01*
X008223Y006408D01*
X008214Y006359D01*
X008201Y006311D01*
X008184Y006264D01*
X008164Y006219D01*
X008140Y006175D01*
X008113Y006133D01*
X008082Y006093D01*
X008049Y006056D01*
X008013Y006022D01*
X007975Y005990D01*
X007934Y005961D01*
X007892Y005936D01*
X007847Y005914D01*
X007801Y005895D01*
X007753Y005880D01*
X007705Y005869D01*
X007656Y005861D01*
X007606Y005857D01*
X007556Y005857D01*
X007506Y005861D01*
X007457Y005869D01*
X007409Y005880D01*
X007361Y005895D01*
X007315Y005914D01*
X007270Y005936D01*
X007228Y005961D01*
X007187Y005990D01*
X007149Y006022D01*
X007113Y006056D01*
X007080Y006093D01*
X007049Y006133D01*
X007022Y006175D01*
X006998Y006219D01*
X006978Y006264D01*
X006961Y006311D01*
X006948Y006359D01*
X006939Y006408D01*
X006933Y006457D01*
X006931Y006507D01*
X006402Y007091D02*
X006135Y007091D01*
X006069Y007158D01*
X006069Y007291D01*
X006135Y007358D01*
X006402Y007358D01*
X006469Y007291D01*
X006469Y007158D01*
X006402Y007091D01*
X006336Y007225D02*
X006469Y007358D01*
X006469Y007552D02*
X006469Y007685D01*
X006469Y007618D02*
X006069Y007618D01*
X006135Y007552D01*
X007281Y007607D02*
X007881Y007607D01*
X007881Y007807D01*
X007281Y007807D01*
X007281Y007607D01*
X007281Y007457D02*
X007581Y007457D01*
X007581Y007207D01*
X007581Y007457D02*
X007881Y007457D01*
X007881Y007957D02*
X007581Y007957D01*
X007581Y008207D01*
X007581Y007957D02*
X007281Y007957D01*
X006931Y008907D02*
X006933Y008957D01*
X006939Y009006D01*
X006948Y009055D01*
X006961Y009103D01*
X006978Y009150D01*
X006998Y009195D01*
X007022Y009239D01*
X007049Y009281D01*
X007080Y009321D01*
X007113Y009358D01*
X007149Y009392D01*
X007187Y009424D01*
X007228Y009453D01*
X007270Y009478D01*
X007315Y009500D01*
X007361Y009519D01*
X007409Y009534D01*
X007457Y009545D01*
X007506Y009553D01*
X007556Y009557D01*
X007606Y009557D01*
X007656Y009553D01*
X007705Y009545D01*
X007753Y009534D01*
X007801Y009519D01*
X007847Y009500D01*
X007892Y009478D01*
X007934Y009453D01*
X007975Y009424D01*
X008013Y009392D01*
X008049Y009358D01*
X008082Y009321D01*
X008113Y009281D01*
X008140Y009239D01*
X008164Y009195D01*
X008184Y009150D01*
X008201Y009103D01*
X008214Y009055D01*
X008223Y009006D01*
X008229Y008957D01*
X008231Y008907D01*
X008712Y008684D02*
X009113Y008684D01*
X009113Y008878D02*
X009113Y009145D01*
X008846Y009145D02*
X009113Y008878D01*
X008846Y008878D02*
X008846Y009145D01*
X008912Y008684D02*
X008912Y008418D01*
X008712Y008418D02*
X009113Y008418D01*
X009113Y008224D02*
X008712Y008224D01*
X008846Y008091D01*
X008712Y007957D01*
X009113Y007957D01*
X009046Y007764D02*
X009113Y007697D01*
X009113Y007564D01*
X009046Y007497D01*
X008779Y007764D01*
X009046Y007764D01*
X009046Y007497D02*
X008779Y007497D01*
X008712Y007564D01*
X008712Y007697D01*
X008779Y007764D01*
X008712Y007180D02*
X009113Y007180D01*
X009113Y007113D02*
X009113Y007247D01*
X008779Y007113D02*
X008712Y007180D01*
X008231Y008907D02*
X008229Y008957D01*
X008223Y009006D01*
X008214Y009055D01*
X008201Y009103D01*
X008184Y009150D01*
X008164Y009195D01*
X008140Y009239D01*
X008113Y009281D01*
X008082Y009321D01*
X008049Y009358D01*
X008013Y009392D01*
X007975Y009424D01*
X007934Y009453D01*
X007892Y009478D01*
X007847Y009500D01*
X007801Y009519D01*
X007753Y009534D01*
X007705Y009545D01*
X007656Y009553D01*
X007606Y009557D01*
X007556Y009557D01*
X007506Y009553D01*
X007457Y009545D01*
X007409Y009534D01*
X007361Y009519D01*
X007315Y009500D01*
X007270Y009478D01*
X007228Y009453D01*
X007187Y009424D01*
X007149Y009392D01*
X007113Y009358D01*
X007080Y009321D01*
X007049Y009281D01*
X007022Y009239D01*
X006998Y009195D01*
X006978Y009150D01*
X006961Y009103D01*
X006948Y009055D01*
X006939Y009006D01*
X006933Y008957D01*
X006931Y008907D01*
X006667Y009920D02*
X006574Y009906D01*
X006466Y009984D01*
X006451Y010077D01*
X006638Y010107D02*
X006692Y010068D01*
X006706Y009974D01*
X006667Y009920D01*
X006692Y010068D02*
X006785Y010082D01*
X006824Y010136D01*
X006809Y010230D01*
X006701Y010308D01*
X006608Y010293D01*
X006452Y010407D02*
X006437Y010500D01*
X006329Y010579D01*
X006236Y010564D01*
X006079Y010348D01*
X006094Y010255D01*
X006202Y010176D01*
X006295Y010191D01*
X006845Y010553D02*
X006645Y010753D01*
X006645Y012053D01*
X006845Y012253D01*
X006819Y012251D01*
X006793Y012246D01*
X006768Y012238D01*
X006745Y012226D01*
X006723Y012212D01*
X006704Y012194D01*
X006686Y012175D01*
X006672Y012153D01*
X006660Y012130D01*
X006652Y012105D01*
X006647Y012079D01*
X006645Y012053D01*
X006647Y012079D01*
X006652Y012105D01*
X006660Y012130D01*
X006672Y012153D01*
X006686Y012175D01*
X006704Y012194D01*
X006723Y012212D01*
X006745Y012226D01*
X006768Y012238D01*
X006793Y012246D01*
X006819Y012251D01*
X006845Y012253D01*
X006819Y012251D01*
X006793Y012246D01*
X006768Y012238D01*
X006745Y012226D01*
X006723Y012212D01*
X006704Y012194D01*
X006686Y012175D01*
X006672Y012153D01*
X006660Y012130D01*
X006652Y012105D01*
X006647Y012079D01*
X006645Y012053D01*
X007095Y011903D02*
X007095Y011523D01*
X007095Y011273D02*
X007095Y010903D01*
X006845Y010553D02*
X006819Y010555D01*
X006793Y010560D01*
X006768Y010568D01*
X006745Y010580D01*
X006723Y010594D01*
X006704Y010612D01*
X006686Y010631D01*
X006672Y010653D01*
X006660Y010676D01*
X006652Y010701D01*
X006647Y010727D01*
X006645Y010753D01*
X006647Y010727D01*
X006652Y010701D01*
X006660Y010676D01*
X006672Y010653D01*
X006686Y010631D01*
X006704Y010612D01*
X006723Y010594D01*
X006745Y010580D01*
X006768Y010568D01*
X006793Y010560D01*
X006819Y010555D01*
X006845Y010553D01*
X006819Y010555D01*
X006793Y010560D01*
X006768Y010568D01*
X006745Y010580D01*
X006723Y010594D01*
X006704Y010612D01*
X006686Y010631D01*
X006672Y010653D01*
X006660Y010676D01*
X006652Y010701D01*
X006647Y010727D01*
X006645Y010753D01*
X007345Y010553D02*
X007371Y010555D01*
X007397Y010560D01*
X007422Y010568D01*
X007445Y010580D01*
X007467Y010594D01*
X007486Y010612D01*
X007504Y010631D01*
X007518Y010653D01*
X007530Y010676D01*
X007538Y010701D01*
X007543Y010727D01*
X007545Y010753D01*
X007345Y010553D01*
X007371Y010555D01*
X007397Y010560D01*
X007422Y010568D01*
X007445Y010580D01*
X007467Y010594D01*
X007486Y010612D01*
X007504Y010631D01*
X007518Y010653D01*
X007530Y010676D01*
X007538Y010701D01*
X007543Y010727D01*
X007545Y010753D01*
X007545Y012053D01*
X007345Y012253D01*
X007371Y012251D01*
X007397Y012246D01*
X007422Y012238D01*
X007445Y012226D01*
X007467Y012212D01*
X007486Y012194D01*
X007504Y012175D01*
X007518Y012153D01*
X007530Y012130D01*
X007538Y012105D01*
X007543Y012079D01*
X007545Y012053D01*
X007543Y012079D01*
X007538Y012105D01*
X007530Y012130D01*
X007518Y012153D01*
X007504Y012175D01*
X007486Y012194D01*
X007467Y012212D01*
X007445Y012226D01*
X007422Y012238D01*
X007397Y012246D01*
X007371Y012251D01*
X007345Y012253D01*
X007371Y012251D01*
X007397Y012246D01*
X007422Y012238D01*
X007445Y012226D01*
X007467Y012212D01*
X007486Y012194D01*
X007504Y012175D01*
X007518Y012153D01*
X007530Y012130D01*
X007538Y012105D01*
X007543Y012079D01*
X007545Y012053D01*
X007934Y012079D02*
X007934Y010779D01*
X008134Y010579D01*
X008108Y010581D01*
X008082Y010586D01*
X008057Y010594D01*
X008034Y010606D01*
X008012Y010620D01*
X007993Y010638D01*
X007975Y010657D01*
X007961Y010679D01*
X007949Y010702D01*
X007941Y010727D01*
X007936Y010753D01*
X007934Y010779D01*
X007936Y010753D01*
X007941Y010727D01*
X007949Y010702D01*
X007961Y010679D01*
X007975Y010657D01*
X007993Y010638D01*
X008012Y010620D01*
X008034Y010606D01*
X008057Y010594D01*
X008082Y010586D01*
X008108Y010581D01*
X008134Y010579D01*
X008108Y010581D01*
X008082Y010586D01*
X008057Y010594D01*
X008034Y010606D01*
X008012Y010620D01*
X007993Y010638D01*
X007975Y010657D01*
X007961Y010679D01*
X007949Y010702D01*
X007941Y010727D01*
X007936Y010753D01*
X007934Y010779D01*
X008384Y010929D02*
X008384Y011299D01*
X008384Y011549D02*
X008384Y011929D01*
X008134Y012279D02*
X008108Y012277D01*
X008082Y012272D01*
X008057Y012264D01*
X008034Y012252D01*
X008012Y012238D01*
X007993Y012220D01*
X007975Y012201D01*
X007961Y012179D01*
X007949Y012156D01*
X007941Y012131D01*
X007936Y012105D01*
X007934Y012079D01*
X008134Y012279D01*
X008108Y012277D01*
X008082Y012272D01*
X008057Y012264D01*
X008034Y012252D01*
X008012Y012238D01*
X007993Y012220D01*
X007975Y012201D01*
X007961Y012179D01*
X007949Y012156D01*
X007941Y012131D01*
X007936Y012105D01*
X007934Y012079D01*
X007936Y012105D01*
X007941Y012131D01*
X007949Y012156D01*
X007961Y012179D01*
X007975Y012201D01*
X007993Y012220D01*
X008012Y012238D01*
X008034Y012252D01*
X008057Y012264D01*
X008082Y012272D01*
X008108Y012277D01*
X008134Y012279D01*
X008634Y012279D02*
X008834Y012079D01*
X008834Y010779D01*
X008634Y010579D01*
X008660Y010581D01*
X008686Y010586D01*
X008711Y010594D01*
X008734Y010606D01*
X008756Y010620D01*
X008775Y010638D01*
X008793Y010657D01*
X008807Y010679D01*
X008819Y010702D01*
X008827Y010727D01*
X008832Y010753D01*
X008834Y010779D01*
X008832Y010753D01*
X008827Y010727D01*
X008819Y010702D01*
X008807Y010679D01*
X008793Y010657D01*
X008775Y010638D01*
X008756Y010620D01*
X008734Y010606D01*
X008711Y010594D01*
X008686Y010586D01*
X008660Y010581D01*
X008634Y010579D01*
X008660Y010581D01*
X008686Y010586D01*
X008711Y010594D01*
X008734Y010606D01*
X008756Y010620D01*
X008775Y010638D01*
X008793Y010657D01*
X008807Y010679D01*
X008819Y010702D01*
X008827Y010727D01*
X008832Y010753D01*
X008834Y010779D01*
X008720Y010054D02*
X008586Y010054D01*
X008520Y009988D01*
X008520Y009721D01*
X008586Y009654D01*
X008720Y009654D01*
X008786Y009721D01*
X008980Y009654D02*
X009247Y009921D01*
X009247Y009988D01*
X009180Y010054D01*
X009047Y010054D01*
X008980Y009988D01*
X008786Y009988D02*
X008720Y010054D01*
X008980Y009654D02*
X009247Y009654D01*
X007545Y010753D02*
X007543Y010727D01*
X007538Y010701D01*
X007530Y010676D01*
X007518Y010653D01*
X007504Y010631D01*
X007486Y010612D01*
X007467Y010594D01*
X007445Y010580D01*
X007422Y010568D01*
X007397Y010560D01*
X007371Y010555D01*
X007345Y010553D01*
X008834Y012079D02*
X008832Y012105D01*
X008827Y012131D01*
X008819Y012156D01*
X008807Y012179D01*
X008793Y012201D01*
X008775Y012220D01*
X008756Y012238D01*
X008734Y012252D01*
X008711Y012264D01*
X008686Y012272D01*
X008660Y012277D01*
X008634Y012279D01*
X008660Y012277D01*
X008686Y012272D01*
X008711Y012264D01*
X008734Y012252D01*
X008756Y012238D01*
X008775Y012220D01*
X008793Y012201D01*
X008807Y012179D01*
X008819Y012156D01*
X008827Y012131D01*
X008832Y012105D01*
X008834Y012079D01*
X008832Y012105D01*
X008827Y012131D01*
X008819Y012156D01*
X008807Y012179D01*
X008793Y012201D01*
X008775Y012220D01*
X008756Y012238D01*
X008734Y012252D01*
X008711Y012264D01*
X008686Y012272D01*
X008660Y012277D01*
X008634Y012279D01*
X007799Y012814D02*
X007799Y013215D01*
X008066Y013215D01*
X007933Y013014D02*
X007799Y013014D01*
X007606Y013014D02*
X007606Y012881D01*
X007539Y012814D01*
X007339Y012814D01*
X007339Y012681D02*
X007339Y013081D01*
X007539Y013081D01*
X007606Y013014D01*
X007557Y013451D02*
X007424Y013451D01*
X007357Y013518D01*
X007624Y013785D01*
X007624Y013518D01*
X007557Y013451D01*
X007357Y013518D02*
X007357Y013785D01*
X007424Y013851D01*
X007557Y013851D01*
X007624Y013785D01*
X007817Y013518D02*
X007884Y013518D01*
X007884Y013451D01*
X007817Y013451D01*
X007817Y013518D01*
X008201Y013451D02*
X008334Y013451D01*
X008268Y013451D02*
X008268Y013851D01*
X008201Y013785D01*
X008584Y013718D02*
X008584Y013518D01*
X008651Y013451D01*
X008851Y013451D01*
X008851Y013718D01*
X009045Y013651D02*
X009178Y013651D01*
X009045Y013451D02*
X009045Y013851D01*
X009312Y013851D01*
X008709Y014307D02*
X008709Y014440D01*
X008642Y014507D01*
X008575Y014507D01*
X008442Y014440D01*
X008442Y014641D01*
X008709Y014641D01*
X008823Y014845D02*
X008556Y014845D01*
X008823Y015112D01*
X008823Y015178D01*
X008756Y015245D01*
X008623Y015245D01*
X008556Y015178D01*
X008362Y015178D02*
X008296Y015245D01*
X008162Y015245D01*
X008096Y015178D01*
X008096Y014911D01*
X008162Y014845D01*
X008296Y014845D01*
X008362Y014911D01*
X008181Y014641D02*
X008248Y014574D01*
X007981Y014307D01*
X008048Y014240D01*
X008181Y014240D01*
X008248Y014307D01*
X008248Y014574D01*
X008181Y014641D02*
X008048Y014641D01*
X007981Y014574D01*
X007981Y014307D01*
X007788Y014307D02*
X007721Y014240D01*
X007588Y014240D01*
X007521Y014307D01*
X007521Y014374D01*
X007588Y014440D01*
X007721Y014440D01*
X007788Y014374D01*
X007788Y014307D01*
X007721Y014440D02*
X007788Y014507D01*
X007788Y014574D01*
X007721Y014641D01*
X007588Y014641D01*
X007521Y014574D01*
X007521Y014507D01*
X007588Y014440D01*
X007327Y014574D02*
X007061Y014307D01*
X007061Y014240D01*
X007061Y014641D02*
X007327Y014641D01*
X007327Y014574D01*
X007712Y014845D02*
X007845Y014845D01*
X007779Y014845D02*
X007779Y015245D01*
X007845Y015245D02*
X007712Y015245D01*
X008442Y014307D02*
X008508Y014240D01*
X008642Y014240D01*
X008709Y014307D01*
X007145Y013148D02*
X007079Y013215D01*
X006945Y013215D01*
X006878Y013148D01*
X006685Y013148D02*
X006618Y013215D01*
X006485Y013215D01*
X006418Y013148D01*
X006685Y013148D02*
X006685Y013081D01*
X006418Y012814D01*
X006685Y012814D01*
X006878Y012814D02*
X007145Y013081D01*
X007145Y013148D01*
X007145Y012814D02*
X006878Y012814D01*
X005061Y015877D02*
X005061Y017027D01*
X005161Y017127D01*
X008961Y017127D01*
X009061Y017027D01*
X009061Y015877D01*
X010221Y017137D02*
X010371Y017137D01*
X010421Y017187D01*
X012321Y017187D01*
X012371Y017137D01*
X012521Y017137D01*
X012621Y017237D01*
X012619Y017217D01*
X012613Y017199D01*
X012604Y017181D01*
X012592Y017166D01*
X012577Y017154D01*
X012559Y017145D01*
X012541Y017139D01*
X012521Y017137D01*
X012541Y017139D01*
X012559Y017145D01*
X012577Y017154D01*
X012592Y017166D01*
X012604Y017181D01*
X012613Y017199D01*
X012619Y017217D01*
X012621Y017237D01*
X012619Y017217D01*
X012613Y017199D01*
X012604Y017181D01*
X012592Y017166D01*
X012577Y017154D01*
X012559Y017145D01*
X012541Y017139D01*
X012521Y017137D01*
X012721Y017257D02*
X012721Y016857D01*
X012721Y016990D02*
X012921Y016990D01*
X012988Y017057D01*
X012988Y017190D01*
X012921Y017257D01*
X012721Y017257D01*
X012854Y016990D02*
X012988Y016857D01*
X013181Y016857D02*
X013448Y017123D01*
X013448Y017190D01*
X013381Y017257D01*
X013248Y017257D01*
X013181Y017190D01*
X013181Y016857D02*
X013448Y016857D01*
X013891Y016897D02*
X013891Y017097D01*
X013891Y017197D01*
X014041Y017197D01*
X014041Y017297D01*
X014541Y017297D01*
X014541Y017197D01*
X014691Y017197D01*
X014691Y018447D01*
X014791Y018347D01*
X014891Y018447D01*
X014891Y017197D01*
X015041Y017197D01*
X015041Y017297D01*
X015541Y017297D01*
X015541Y017197D01*
X015691Y017197D01*
X015691Y018497D01*
X015891Y018497D01*
X016641Y018497D01*
X016691Y018447D01*
X016691Y017197D01*
X016891Y017197D01*
X016891Y018447D01*
X016941Y018497D01*
X017691Y018497D01*
X017691Y018797D01*
X017391Y018797D01*
X017391Y018847D01*
X017191Y018847D01*
X017191Y018797D01*
X016891Y018797D01*
X016891Y018747D01*
X016691Y018747D01*
X016691Y018797D01*
X016391Y018797D01*
X016391Y018847D01*
X016191Y018847D01*
X016191Y018797D01*
X015891Y018797D01*
X015891Y018747D01*
X015691Y018747D01*
X015691Y018797D01*
X015391Y018797D01*
X015391Y018847D01*
X015191Y018847D01*
X015191Y018797D01*
X014891Y018797D01*
X014891Y018747D01*
X014691Y018747D01*
X014691Y018797D01*
X014391Y018797D01*
X014391Y018847D01*
X014191Y018847D01*
X014191Y018797D01*
X013891Y018797D01*
X013891Y018497D01*
X014641Y018497D01*
X014691Y018447D01*
X014891Y018447D02*
X014941Y018497D01*
X015691Y018497D01*
X015891Y018497D02*
X015891Y017197D01*
X016041Y017197D01*
X016041Y017297D01*
X016541Y017297D01*
X016541Y017197D01*
X016691Y017197D01*
X016541Y017197D02*
X016541Y017097D01*
X017041Y017097D01*
X017041Y017197D01*
X017041Y017297D01*
X017541Y017297D01*
X017541Y017197D01*
X017691Y017197D01*
X017691Y017097D01*
X017541Y017097D01*
X017541Y017197D01*
X017691Y017197D02*
X017691Y018497D01*
X018243Y017895D02*
X018243Y017628D01*
X018310Y017561D01*
X018443Y017561D01*
X018510Y017628D01*
X018703Y017628D02*
X018703Y017561D01*
X018703Y017628D02*
X018970Y017895D01*
X018970Y017962D01*
X018703Y017962D01*
X018510Y017895D02*
X018443Y017962D01*
X018310Y017962D01*
X018243Y017895D01*
X018313Y016971D02*
X018113Y016771D01*
X018113Y015471D01*
X018313Y015271D01*
X018287Y015273D01*
X018261Y015278D01*
X018236Y015286D01*
X018213Y015298D01*
X018191Y015312D01*
X018172Y015330D01*
X018154Y015349D01*
X018140Y015371D01*
X018128Y015394D01*
X018120Y015419D01*
X018115Y015445D01*
X018113Y015471D01*
X018115Y015445D01*
X018120Y015419D01*
X018128Y015394D01*
X018140Y015371D01*
X018154Y015349D01*
X018172Y015330D01*
X018191Y015312D01*
X018213Y015298D01*
X018236Y015286D01*
X018261Y015278D01*
X018287Y015273D01*
X018313Y015271D01*
X018287Y015273D01*
X018261Y015278D01*
X018236Y015286D01*
X018213Y015298D01*
X018191Y015312D01*
X018172Y015330D01*
X018154Y015349D01*
X018140Y015371D01*
X018128Y015394D01*
X018120Y015419D01*
X018115Y015445D01*
X018113Y015471D01*
X017953Y015340D02*
X017953Y015273D01*
X017886Y015273D01*
X017886Y015340D01*
X017953Y015340D01*
X017886Y015080D02*
X017619Y015080D01*
X017886Y014813D01*
X017953Y014880D01*
X017953Y015013D01*
X017886Y015080D01*
X017619Y015080D02*
X017553Y015013D01*
X017553Y014880D01*
X017619Y014813D01*
X017886Y014813D01*
X018813Y015271D02*
X019013Y015471D01*
X019013Y016771D01*
X018813Y016971D01*
X018839Y016969D01*
X018865Y016964D01*
X018890Y016956D01*
X018913Y016944D01*
X018935Y016930D01*
X018954Y016912D01*
X018972Y016893D01*
X018986Y016871D01*
X018998Y016848D01*
X019006Y016823D01*
X019011Y016797D01*
X019013Y016771D01*
X019011Y016797D01*
X019006Y016823D01*
X018998Y016848D01*
X018986Y016871D01*
X018972Y016893D01*
X018954Y016912D01*
X018935Y016930D01*
X018913Y016944D01*
X018890Y016956D01*
X018865Y016964D01*
X018839Y016969D01*
X018813Y016971D01*
X018839Y016969D01*
X018865Y016964D01*
X018890Y016956D01*
X018913Y016944D01*
X018935Y016930D01*
X018954Y016912D01*
X018972Y016893D01*
X018986Y016871D01*
X018998Y016848D01*
X019006Y016823D01*
X019011Y016797D01*
X019013Y016771D01*
X018563Y016621D02*
X018563Y016241D01*
X018563Y015991D02*
X018563Y015621D01*
X018813Y015271D02*
X018839Y015273D01*
X018865Y015278D01*
X018890Y015286D01*
X018913Y015298D01*
X018935Y015312D01*
X018954Y015330D01*
X018972Y015349D01*
X018986Y015371D01*
X018998Y015394D01*
X019006Y015419D01*
X019011Y015445D01*
X019013Y015471D01*
X019011Y015445D01*
X019006Y015419D01*
X018998Y015394D01*
X018986Y015371D01*
X018972Y015349D01*
X018954Y015330D01*
X018935Y015312D01*
X018913Y015298D01*
X018890Y015286D01*
X018865Y015278D01*
X018839Y015273D01*
X018813Y015271D01*
X018839Y015273D01*
X018865Y015278D01*
X018890Y015286D01*
X018913Y015298D01*
X018935Y015312D01*
X018954Y015330D01*
X018972Y015349D01*
X018986Y015371D01*
X018998Y015394D01*
X019006Y015419D01*
X019011Y015445D01*
X019013Y015471D01*
X017953Y015657D02*
X017953Y015790D01*
X017953Y015724D02*
X017553Y015724D01*
X017619Y015657D01*
X017686Y016040D02*
X017886Y016040D01*
X017953Y016107D01*
X017953Y016307D01*
X017686Y016307D01*
X017753Y016501D02*
X017753Y016634D01*
X017953Y016501D02*
X017553Y016501D01*
X017553Y016768D01*
X017691Y016897D02*
X017691Y017097D01*
X017691Y016897D02*
X016891Y016897D01*
X016891Y016947D01*
X016691Y016947D01*
X016691Y016897D01*
X015891Y016897D01*
X015891Y016947D01*
X015691Y016947D01*
X015691Y016897D01*
X014891Y016897D01*
X014891Y016947D01*
X014691Y016947D01*
X014691Y016897D01*
X013891Y016897D01*
X013891Y017097D02*
X014041Y017097D01*
X014041Y017197D01*
X013891Y017197D02*
X013891Y018497D01*
X013613Y018405D02*
X013546Y018472D01*
X013346Y018472D01*
X013346Y018339D01*
X013412Y018272D01*
X013546Y018272D01*
X013613Y018339D01*
X013613Y018405D01*
X013479Y018606D02*
X013346Y018472D01*
X013479Y018606D02*
X013613Y018672D01*
X013633Y018952D02*
X013499Y018952D01*
X013566Y018952D02*
X013566Y019352D01*
X013499Y019286D01*
X013883Y019219D02*
X013883Y019019D01*
X013950Y018952D01*
X014150Y018952D01*
X014150Y019219D01*
X014343Y019152D02*
X014477Y019152D01*
X014343Y019352D02*
X014610Y019352D01*
X014343Y019352D02*
X014343Y018952D01*
X013182Y018952D02*
X013116Y018952D01*
X013116Y019019D01*
X013182Y019019D01*
X013182Y018952D01*
X012922Y019019D02*
X012922Y019286D01*
X012655Y019019D01*
X012722Y018952D01*
X012855Y018952D01*
X012922Y019019D01*
X012922Y019286D02*
X012855Y019352D01*
X012722Y019352D01*
X012655Y019286D01*
X012655Y019019D01*
X012335Y018882D02*
X012135Y019082D01*
X010835Y019082D01*
X010635Y018882D01*
X010637Y018908D01*
X010642Y018934D01*
X010650Y018959D01*
X010662Y018982D01*
X010676Y019004D01*
X010694Y019023D01*
X010713Y019041D01*
X010735Y019055D01*
X010758Y019067D01*
X010783Y019075D01*
X010809Y019080D01*
X010835Y019082D01*
X010809Y019080D01*
X010783Y019075D01*
X010758Y019067D01*
X010735Y019055D01*
X010713Y019041D01*
X010694Y019023D01*
X010676Y019004D01*
X010662Y018982D01*
X010650Y018959D01*
X010642Y018934D01*
X010637Y018908D01*
X010635Y018882D01*
X010637Y018908D01*
X010642Y018934D01*
X010650Y018959D01*
X010662Y018982D01*
X010676Y019004D01*
X010694Y019023D01*
X010713Y019041D01*
X010735Y019055D01*
X010758Y019067D01*
X010783Y019075D01*
X010809Y019080D01*
X010835Y019082D01*
X010985Y018632D02*
X011365Y018632D01*
X011615Y018632D02*
X011985Y018632D01*
X012335Y018882D02*
X012333Y018908D01*
X012328Y018934D01*
X012320Y018959D01*
X012308Y018982D01*
X012294Y019004D01*
X012276Y019023D01*
X012257Y019041D01*
X012235Y019055D01*
X012212Y019067D01*
X012187Y019075D01*
X012161Y019080D01*
X012135Y019082D01*
X012161Y019080D01*
X012187Y019075D01*
X012212Y019067D01*
X012235Y019055D01*
X012257Y019041D01*
X012276Y019023D01*
X012294Y019004D01*
X012308Y018982D01*
X012320Y018959D01*
X012328Y018934D01*
X012333Y018908D01*
X012335Y018882D01*
X012333Y018908D01*
X012328Y018934D01*
X012320Y018959D01*
X012308Y018982D01*
X012294Y019004D01*
X012276Y019023D01*
X012257Y019041D01*
X012235Y019055D01*
X012212Y019067D01*
X012187Y019075D01*
X012161Y019080D01*
X012135Y019082D01*
X012335Y018382D02*
X012333Y018356D01*
X012328Y018330D01*
X012320Y018305D01*
X012308Y018282D01*
X012294Y018260D01*
X012276Y018241D01*
X012257Y018223D01*
X012235Y018209D01*
X012212Y018197D01*
X012187Y018189D01*
X012161Y018184D01*
X012135Y018182D01*
X012335Y018382D01*
X012333Y018356D01*
X012328Y018330D01*
X012320Y018305D01*
X012308Y018282D01*
X012294Y018260D01*
X012276Y018241D01*
X012257Y018223D01*
X012235Y018209D01*
X012212Y018197D01*
X012187Y018189D01*
X012161Y018184D01*
X012135Y018182D01*
X010835Y018182D01*
X010635Y018382D01*
X010637Y018356D01*
X010642Y018330D01*
X010650Y018305D01*
X010662Y018282D01*
X010676Y018260D01*
X010694Y018241D01*
X010713Y018223D01*
X010735Y018209D01*
X010758Y018197D01*
X010783Y018189D01*
X010809Y018184D01*
X010835Y018182D01*
X010809Y018184D01*
X010783Y018189D01*
X010758Y018197D01*
X010735Y018209D01*
X010713Y018223D01*
X010694Y018241D01*
X010676Y018260D01*
X010662Y018282D01*
X010650Y018305D01*
X010642Y018330D01*
X010637Y018356D01*
X010635Y018382D01*
X010637Y018356D01*
X010642Y018330D01*
X010650Y018305D01*
X010662Y018282D01*
X010676Y018260D01*
X010694Y018241D01*
X010713Y018223D01*
X010735Y018209D01*
X010758Y018197D01*
X010783Y018189D01*
X010809Y018184D01*
X010835Y018182D01*
X010421Y017987D02*
X012321Y017987D01*
X012371Y018037D01*
X012521Y018037D01*
X012621Y017937D01*
X012619Y017957D01*
X012613Y017975D01*
X012604Y017993D01*
X012592Y018008D01*
X012577Y018020D01*
X012559Y018029D01*
X012541Y018035D01*
X012521Y018037D01*
X012541Y018035D01*
X012559Y018029D01*
X012577Y018020D01*
X012592Y018008D01*
X012604Y017993D01*
X012613Y017975D01*
X012619Y017957D01*
X012621Y017937D01*
X012619Y017957D01*
X012613Y017975D01*
X012604Y017993D01*
X012592Y018008D01*
X012577Y018020D01*
X012559Y018029D01*
X012541Y018035D01*
X012521Y018037D01*
X012885Y018339D02*
X012952Y018272D01*
X013085Y018272D01*
X013152Y018339D01*
X013152Y018606D02*
X013085Y018672D01*
X012952Y018672D01*
X012885Y018606D01*
X012885Y018339D01*
X012335Y018382D02*
X012333Y018356D01*
X012328Y018330D01*
X012320Y018305D01*
X012308Y018282D01*
X012294Y018260D01*
X012276Y018241D01*
X012257Y018223D01*
X012235Y018209D01*
X012212Y018197D01*
X012187Y018189D01*
X012161Y018184D01*
X012135Y018182D01*
X011375Y017683D02*
X011175Y017550D01*
X011375Y017417D01*
X011175Y017417D02*
X011175Y017817D01*
X010981Y017750D02*
X010981Y017483D01*
X010915Y017417D01*
X010781Y017417D01*
X010714Y017483D01*
X010981Y017750D01*
X010915Y017817D01*
X010781Y017817D01*
X010714Y017750D01*
X010714Y017483D01*
X010464Y017417D02*
X010331Y017417D01*
X010397Y017417D02*
X010397Y017817D01*
X010331Y017750D01*
X010121Y017937D02*
X010123Y017957D01*
X010129Y017975D01*
X010138Y017993D01*
X010150Y018008D01*
X010165Y018020D01*
X010183Y018029D01*
X010201Y018035D01*
X010221Y018037D01*
X010371Y018037D01*
X010421Y017987D01*
X010221Y018037D02*
X010121Y017937D01*
X010123Y017957D01*
X010129Y017975D01*
X010138Y017993D01*
X010150Y018008D01*
X010165Y018020D01*
X010183Y018029D01*
X010201Y018035D01*
X010221Y018037D01*
X010201Y018035D01*
X010183Y018029D01*
X010165Y018020D01*
X010150Y018008D01*
X010138Y017993D01*
X010129Y017975D01*
X010123Y017957D01*
X010121Y017937D01*
X009692Y018186D02*
X009779Y018455D01*
X009790Y018431D01*
X009797Y018406D01*
X009800Y018380D01*
X009801Y018354D01*
X009798Y018328D01*
X009791Y018302D01*
X009782Y018278D01*
X009769Y018255D01*
X009753Y018234D01*
X009735Y018215D01*
X009714Y018199D01*
X009692Y018186D01*
X008533Y017596D01*
X008264Y017683D01*
X008265Y017683D02*
X008280Y017659D01*
X008298Y017637D01*
X008319Y017617D01*
X008342Y017601D01*
X008368Y017589D01*
X008395Y017580D01*
X008423Y017575D01*
X008452Y017574D01*
X008480Y017577D01*
X008508Y017585D01*
X008534Y017596D01*
X008508Y017585D01*
X008480Y017577D01*
X008452Y017574D01*
X008423Y017575D01*
X008395Y017580D01*
X008368Y017589D01*
X008342Y017601D01*
X008319Y017617D01*
X008298Y017637D01*
X008280Y017659D01*
X008265Y017683D01*
X008280Y017659D01*
X008298Y017637D01*
X008319Y017617D01*
X008342Y017601D01*
X008368Y017589D01*
X008395Y017580D01*
X008423Y017575D01*
X008452Y017574D01*
X008480Y017577D01*
X008508Y017585D01*
X008534Y017596D01*
X008791Y017497D02*
X008912Y017259D01*
X009002Y017230D01*
X009121Y017291D01*
X009150Y017381D01*
X009262Y017587D02*
X009500Y017709D01*
X009349Y017857D02*
X009262Y017587D01*
X009029Y017618D02*
X008939Y017648D01*
X008820Y017587D01*
X008791Y017497D01*
X008463Y018065D02*
X008801Y018238D01*
X009024Y018351D02*
X009354Y018519D01*
X009779Y018455D02*
X009790Y018431D01*
X009797Y018406D01*
X009800Y018380D01*
X009801Y018354D01*
X009798Y018328D01*
X009791Y018302D01*
X009782Y018278D01*
X009769Y018255D01*
X009753Y018234D01*
X009735Y018215D01*
X009714Y018199D01*
X009692Y018186D01*
X009714Y018199D01*
X009735Y018215D01*
X009753Y018234D01*
X009769Y018255D01*
X009782Y018278D01*
X009791Y018302D01*
X009798Y018328D01*
X009801Y018354D01*
X009800Y018380D01*
X009797Y018406D01*
X009790Y018431D01*
X009779Y018455D01*
X009552Y018901D02*
X009283Y018988D01*
X008125Y018398D01*
X008037Y018129D01*
X008038Y018129D02*
X008027Y018153D01*
X008020Y018178D01*
X008017Y018204D01*
X008016Y018230D01*
X008019Y018256D01*
X008026Y018282D01*
X008035Y018306D01*
X008048Y018329D01*
X008064Y018350D01*
X008082Y018369D01*
X008103Y018385D01*
X008125Y018398D01*
X008103Y018385D01*
X008082Y018369D01*
X008064Y018350D01*
X008048Y018329D01*
X008035Y018306D01*
X008026Y018282D01*
X008019Y018256D01*
X008016Y018230D01*
X008017Y018204D01*
X008020Y018178D01*
X008027Y018153D01*
X008038Y018129D01*
X008027Y018153D01*
X008020Y018178D01*
X008017Y018204D01*
X008016Y018230D01*
X008019Y018256D01*
X008026Y018282D01*
X008035Y018306D01*
X008048Y018329D01*
X008064Y018350D01*
X008082Y018369D01*
X008103Y018385D01*
X008125Y018398D01*
X007924Y018463D02*
X007805Y018403D01*
X007864Y018433D02*
X007683Y018789D01*
X007653Y018700D01*
X007995Y018874D02*
X008024Y018964D01*
X008143Y019024D01*
X008233Y018995D01*
X008116Y018636D01*
X008206Y018607D01*
X008325Y018668D01*
X008354Y018757D01*
X008233Y018995D01*
X008405Y019083D02*
X008434Y019173D01*
X008553Y019233D01*
X008643Y019204D01*
X008526Y018845D01*
X008616Y018816D01*
X008735Y018877D01*
X008764Y018966D01*
X008643Y019204D01*
X008846Y019232D02*
X008967Y018995D01*
X008846Y019232D02*
X009024Y019323D01*
X009114Y019294D01*
X009205Y019116D01*
X009283Y018988D02*
X009309Y018999D01*
X009337Y019007D01*
X009365Y019010D01*
X009394Y019009D01*
X009422Y019004D01*
X009449Y018995D01*
X009475Y018983D01*
X009498Y018967D01*
X009519Y018947D01*
X009537Y018925D01*
X009552Y018901D01*
X009537Y018925D01*
X009519Y018947D01*
X009498Y018967D01*
X009475Y018983D01*
X009449Y018995D01*
X009422Y019004D01*
X009394Y019009D01*
X009365Y019010D01*
X009337Y019007D01*
X009309Y018999D01*
X009283Y018988D01*
X009309Y018999D01*
X009337Y019007D01*
X009365Y019010D01*
X009394Y019009D01*
X009422Y019004D01*
X009449Y018995D01*
X009475Y018983D01*
X009498Y018967D01*
X009519Y018947D01*
X009537Y018925D01*
X009552Y018901D01*
X008526Y018845D02*
X008405Y019083D01*
X007995Y018874D02*
X008116Y018636D01*
X007533Y017991D02*
X007444Y018020D01*
X007265Y017929D01*
X007386Y017691D01*
X007184Y017663D02*
X007154Y017573D01*
X007036Y017512D01*
X006946Y017542D01*
X007063Y017901D01*
X007184Y017663D01*
X007063Y017901D02*
X006973Y017930D01*
X006854Y017869D01*
X006825Y017779D01*
X006946Y017542D01*
X006774Y017454D02*
X006744Y017364D01*
X006625Y017304D01*
X006536Y017333D01*
X006652Y017692D01*
X006774Y017454D01*
X006652Y017692D02*
X006563Y017721D01*
X006444Y017660D01*
X006415Y017570D01*
X006536Y017333D01*
X006343Y017160D02*
X006224Y017099D01*
X006284Y017129D02*
X006102Y017486D01*
X006073Y017396D01*
X006006Y017606D02*
X007164Y018196D01*
X007252Y018465D01*
X007251Y018465D02*
X007262Y018441D01*
X007269Y018416D01*
X007272Y018390D01*
X007273Y018364D01*
X007270Y018338D01*
X007263Y018312D01*
X007254Y018288D01*
X007241Y018265D01*
X007225Y018244D01*
X007207Y018225D01*
X007186Y018209D01*
X007164Y018196D01*
X007186Y018209D01*
X007207Y018225D01*
X007225Y018244D01*
X007241Y018265D01*
X007254Y018288D01*
X007263Y018312D01*
X007270Y018338D01*
X007273Y018364D01*
X007272Y018390D01*
X007269Y018416D01*
X007262Y018441D01*
X007251Y018465D01*
X007262Y018441D01*
X007269Y018416D01*
X007272Y018390D01*
X007273Y018364D01*
X007270Y018338D01*
X007263Y018312D01*
X007254Y018288D01*
X007241Y018265D01*
X007225Y018244D01*
X007207Y018225D01*
X007186Y018209D01*
X007164Y018196D01*
X007533Y017991D02*
X007624Y017812D01*
X006826Y018529D02*
X006497Y018361D01*
X006274Y018248D02*
X005935Y018075D01*
X005510Y018139D02*
X005499Y018163D01*
X005492Y018188D01*
X005489Y018214D01*
X005488Y018240D01*
X005491Y018266D01*
X005498Y018292D01*
X005507Y018316D01*
X005520Y018339D01*
X005536Y018360D01*
X005554Y018379D01*
X005575Y018395D01*
X005597Y018408D01*
X006756Y018998D01*
X007025Y018911D01*
X007024Y018911D02*
X007009Y018935D01*
X006991Y018957D01*
X006970Y018977D01*
X006947Y018993D01*
X006921Y019005D01*
X006894Y019014D01*
X006866Y019019D01*
X006837Y019020D01*
X006809Y019017D01*
X006781Y019009D01*
X006755Y018998D01*
X006781Y019009D01*
X006809Y019017D01*
X006837Y019020D01*
X006866Y019019D01*
X006894Y019014D01*
X006921Y019005D01*
X006947Y018993D01*
X006970Y018977D01*
X006991Y018957D01*
X007009Y018935D01*
X007024Y018911D01*
X007009Y018935D01*
X006991Y018957D01*
X006970Y018977D01*
X006947Y018993D01*
X006921Y019005D01*
X006894Y019014D01*
X006866Y019019D01*
X006837Y019020D01*
X006809Y019017D01*
X006781Y019009D01*
X006755Y018998D01*
X005757Y018863D02*
X005728Y018773D01*
X005609Y018713D01*
X005519Y018742D01*
X005459Y018861D02*
X005547Y018981D01*
X005607Y019011D01*
X005697Y018982D01*
X005757Y018863D01*
X005459Y018861D02*
X005368Y019039D01*
X005606Y019160D01*
X005226Y018892D02*
X005136Y018921D01*
X005017Y018860D01*
X004988Y018771D01*
X005109Y018533D01*
X005199Y018504D01*
X005318Y018564D01*
X005347Y018654D01*
X005597Y018408D02*
X005510Y018139D01*
X005499Y018163D01*
X005492Y018188D01*
X005489Y018214D01*
X005488Y018240D01*
X005491Y018266D01*
X005498Y018292D01*
X005507Y018316D01*
X005520Y018339D01*
X005536Y018360D01*
X005554Y018379D01*
X005575Y018395D01*
X005597Y018408D01*
X005575Y018395D01*
X005554Y018379D01*
X005536Y018360D01*
X005520Y018339D01*
X005507Y018316D01*
X005498Y018292D01*
X005491Y018266D01*
X005488Y018240D01*
X005489Y018214D01*
X005492Y018188D01*
X005499Y018163D01*
X005510Y018139D01*
X005737Y017693D02*
X006006Y017606D01*
X005980Y017595D01*
X005952Y017587D01*
X005924Y017584D01*
X005895Y017585D01*
X005867Y017590D01*
X005840Y017599D01*
X005814Y017611D01*
X005791Y017627D01*
X005770Y017647D01*
X005752Y017669D01*
X005737Y017693D01*
X005752Y017669D01*
X005770Y017647D01*
X005791Y017627D01*
X005814Y017611D01*
X005840Y017599D01*
X005867Y017590D01*
X005895Y017585D01*
X005924Y017584D01*
X005952Y017587D01*
X005980Y017595D01*
X006006Y017606D01*
X005980Y017595D01*
X005952Y017587D01*
X005924Y017584D01*
X005895Y017585D01*
X005867Y017590D01*
X005840Y017599D01*
X005814Y017611D01*
X005791Y017627D01*
X005770Y017647D01*
X005752Y017669D01*
X005737Y017693D01*
X009349Y017857D02*
X009531Y017500D01*
X010121Y017237D02*
X010221Y017137D01*
X010201Y017139D01*
X010183Y017145D01*
X010165Y017154D01*
X010150Y017166D01*
X010138Y017181D01*
X010129Y017199D01*
X010123Y017217D01*
X010121Y017237D01*
X010123Y017217D01*
X010129Y017199D01*
X010138Y017181D01*
X010150Y017166D01*
X010165Y017154D01*
X010183Y017145D01*
X010201Y017139D01*
X010221Y017137D01*
X010201Y017139D01*
X010183Y017145D01*
X010165Y017154D01*
X010150Y017166D01*
X010138Y017181D01*
X010129Y017199D01*
X010123Y017217D01*
X010121Y017237D01*
X010881Y016937D02*
X010883Y016893D01*
X010889Y016850D01*
X010898Y016808D01*
X010911Y016766D01*
X010928Y016726D01*
X010948Y016687D01*
X010971Y016650D01*
X010998Y016616D01*
X011027Y016583D01*
X011060Y016554D01*
X011094Y016527D01*
X011131Y016504D01*
X011170Y016484D01*
X011210Y016467D01*
X011252Y016454D01*
X011294Y016445D01*
X011337Y016439D01*
X011381Y016437D01*
X011425Y016439D01*
X011468Y016445D01*
X011510Y016454D01*
X011552Y016467D01*
X011592Y016484D01*
X011631Y016504D01*
X011668Y016527D01*
X011702Y016554D01*
X011735Y016583D01*
X011764Y016616D01*
X011791Y016650D01*
X011814Y016687D01*
X011834Y016726D01*
X011851Y016766D01*
X011864Y016808D01*
X011873Y016850D01*
X011879Y016893D01*
X011881Y016937D01*
X011879Y016893D01*
X011873Y016850D01*
X011864Y016808D01*
X011851Y016766D01*
X011834Y016726D01*
X011814Y016687D01*
X011791Y016650D01*
X011764Y016616D01*
X011735Y016583D01*
X011702Y016554D01*
X011668Y016527D01*
X011631Y016504D01*
X011592Y016484D01*
X011552Y016467D01*
X011510Y016454D01*
X011468Y016445D01*
X011425Y016439D01*
X011381Y016437D01*
X011337Y016439D01*
X011294Y016445D01*
X011252Y016454D01*
X011210Y016467D01*
X011170Y016484D01*
X011131Y016504D01*
X011094Y016527D01*
X011060Y016554D01*
X011027Y016583D01*
X010998Y016616D01*
X010971Y016650D01*
X010948Y016687D01*
X010928Y016726D01*
X010911Y016766D01*
X010898Y016808D01*
X010889Y016850D01*
X010883Y016893D01*
X010881Y016937D01*
X010883Y016893D01*
X010889Y016850D01*
X010898Y016808D01*
X010911Y016766D01*
X010928Y016726D01*
X010948Y016687D01*
X010971Y016650D01*
X010998Y016616D01*
X011027Y016583D01*
X011060Y016554D01*
X011094Y016527D01*
X011131Y016504D01*
X011170Y016484D01*
X011210Y016467D01*
X011252Y016454D01*
X011294Y016445D01*
X011337Y016439D01*
X011381Y016437D01*
X011425Y016439D01*
X011468Y016445D01*
X011510Y016454D01*
X011552Y016467D01*
X011592Y016484D01*
X011631Y016504D01*
X011668Y016527D01*
X011702Y016554D01*
X011735Y016583D01*
X011764Y016616D01*
X011791Y016650D01*
X011814Y016687D01*
X011834Y016726D01*
X011851Y016766D01*
X011864Y016808D01*
X011873Y016850D01*
X011879Y016893D01*
X011881Y016937D01*
X011261Y015993D02*
X011327Y015926D01*
X011327Y015726D01*
X011461Y015726D02*
X011060Y015726D01*
X011060Y015926D01*
X011127Y015993D01*
X011261Y015993D01*
X011261Y015532D02*
X011394Y015532D01*
X011461Y015466D01*
X011461Y015332D01*
X011394Y015266D01*
X011261Y015266D02*
X011194Y015399D01*
X011194Y015466D01*
X011261Y015532D01*
X011060Y015532D02*
X011060Y015266D01*
X011261Y015266D01*
X011327Y015072D02*
X011394Y015072D01*
X011461Y015005D01*
X011461Y014872D01*
X011394Y014805D01*
X011327Y014805D01*
X011261Y014872D01*
X011261Y015005D01*
X011327Y015072D01*
X011261Y015005D02*
X011194Y015072D01*
X011127Y015072D01*
X011060Y015005D01*
X011060Y014872D01*
X011127Y014805D01*
X011194Y014805D01*
X011261Y014872D01*
X011327Y014612D02*
X011261Y014545D01*
X011261Y014345D01*
X011394Y014345D01*
X011461Y014412D01*
X011461Y014545D01*
X011394Y014612D01*
X011327Y014612D01*
X011127Y014478D02*
X011261Y014345D01*
X011127Y014478D02*
X011060Y014612D01*
X011127Y014151D02*
X011060Y014085D01*
X011060Y013951D01*
X011127Y013884D01*
X011060Y013691D02*
X011060Y013424D01*
X011461Y013424D01*
X011261Y013424D02*
X011261Y013558D01*
X011327Y013231D02*
X011394Y013231D01*
X011461Y013164D01*
X011461Y013030D01*
X011394Y012964D01*
X011327Y012964D01*
X011261Y013030D01*
X011261Y013164D01*
X011327Y013231D01*
X011261Y013164D02*
X011194Y013231D01*
X011127Y013231D01*
X011060Y013164D01*
X011060Y013030D01*
X011127Y012964D01*
X011194Y012964D01*
X011261Y013030D01*
X011461Y012714D02*
X011461Y012580D01*
X011461Y012647D02*
X011060Y012647D01*
X011127Y012580D01*
X011461Y013884D02*
X011194Y014151D01*
X011127Y014151D01*
X011461Y014151D02*
X011461Y013884D01*
X013771Y015137D02*
X013771Y015537D01*
X013971Y015537D01*
X014038Y015470D01*
X014038Y015337D01*
X013971Y015270D01*
X013771Y015270D01*
X013904Y015270D02*
X014038Y015137D01*
X014231Y015137D02*
X014365Y015137D01*
X014298Y015137D02*
X014298Y015537D01*
X014231Y015470D01*
X014511Y015577D02*
X014611Y015477D01*
X014761Y015477D01*
X014811Y015527D01*
X016711Y015527D01*
X016761Y015477D01*
X016911Y015477D01*
X017011Y015577D01*
X017009Y015557D01*
X017003Y015539D01*
X016994Y015521D01*
X016982Y015506D01*
X016967Y015494D01*
X016949Y015485D01*
X016931Y015479D01*
X016911Y015477D01*
X016931Y015479D01*
X016949Y015485D01*
X016967Y015494D01*
X016982Y015506D01*
X016994Y015521D01*
X017003Y015539D01*
X017009Y015557D01*
X017011Y015577D01*
X017009Y015557D01*
X017003Y015539D01*
X016994Y015521D01*
X016982Y015506D01*
X016967Y015494D01*
X016949Y015485D01*
X016931Y015479D01*
X016911Y015477D01*
X016511Y015757D02*
X016511Y015823D01*
X016778Y016090D01*
X016778Y016157D01*
X016511Y016157D01*
X016711Y016327D02*
X014811Y016327D01*
X014761Y016377D01*
X014611Y016377D01*
X014511Y016277D01*
X014513Y016297D01*
X014519Y016315D01*
X014528Y016333D01*
X014540Y016348D01*
X014555Y016360D01*
X014573Y016369D01*
X014591Y016375D01*
X014611Y016377D01*
X014591Y016375D01*
X014573Y016369D01*
X014555Y016360D01*
X014540Y016348D01*
X014528Y016333D01*
X014519Y016315D01*
X014513Y016297D01*
X014511Y016277D01*
X014513Y016297D01*
X014519Y016315D01*
X014528Y016333D01*
X014540Y016348D01*
X014555Y016360D01*
X014573Y016369D01*
X014591Y016375D01*
X014611Y016377D01*
X014541Y017097D02*
X015041Y017097D01*
X015041Y017197D01*
X014891Y017197D02*
X014691Y017197D01*
X014541Y017197D02*
X014541Y017097D01*
X015541Y017097D02*
X016041Y017097D01*
X016041Y017197D01*
X015891Y017197D02*
X015691Y017197D01*
X015541Y017197D02*
X015541Y017097D01*
X015791Y016157D02*
X015591Y015957D01*
X015858Y015957D01*
X016051Y015890D02*
X016251Y015757D01*
X016051Y015757D02*
X016051Y016157D01*
X016251Y016023D02*
X016051Y015890D01*
X015791Y015757D02*
X015791Y016157D01*
X016711Y016327D02*
X016761Y016377D01*
X016911Y016377D01*
X017011Y016277D01*
X017009Y016297D01*
X017003Y016315D01*
X016994Y016333D01*
X016982Y016348D01*
X016967Y016360D01*
X016949Y016369D01*
X016931Y016375D01*
X016911Y016377D01*
X016931Y016375D01*
X016949Y016369D01*
X016967Y016360D01*
X016982Y016348D01*
X016994Y016333D01*
X017003Y016315D01*
X017009Y016297D01*
X017011Y016277D01*
X017009Y016297D01*
X017003Y016315D01*
X016994Y016333D01*
X016982Y016348D01*
X016967Y016360D01*
X016949Y016369D01*
X016931Y016375D01*
X016911Y016377D01*
X016891Y017197D02*
X017041Y017197D01*
X016791Y018347D02*
X016691Y018447D01*
X016791Y018347D02*
X016941Y018497D01*
X016891Y018447D02*
X016791Y018347D01*
X018313Y016971D02*
X018287Y016969D01*
X018261Y016964D01*
X018236Y016956D01*
X018213Y016944D01*
X018191Y016930D01*
X018172Y016912D01*
X018154Y016893D01*
X018140Y016871D01*
X018128Y016848D01*
X018120Y016823D01*
X018115Y016797D01*
X018113Y016771D01*
X018115Y016797D01*
X018120Y016823D01*
X018128Y016848D01*
X018140Y016871D01*
X018154Y016893D01*
X018172Y016912D01*
X018191Y016930D01*
X018213Y016944D01*
X018236Y016956D01*
X018261Y016964D01*
X018287Y016969D01*
X018313Y016971D01*
X018287Y016969D01*
X018261Y016964D01*
X018236Y016956D01*
X018213Y016944D01*
X018191Y016930D01*
X018172Y016912D01*
X018154Y016893D01*
X018140Y016871D01*
X018128Y016848D01*
X018120Y016823D01*
X018115Y016797D01*
X018113Y016771D01*
X016781Y014907D02*
X016031Y014907D01*
X015531Y014907D01*
X014781Y014907D01*
X014781Y010907D01*
X016781Y010907D01*
X016781Y014907D01*
X016431Y014551D02*
X016431Y014351D01*
X016564Y014351D02*
X016164Y014351D01*
X016164Y014551D01*
X016230Y014618D01*
X016364Y014618D01*
X016431Y014551D01*
X016564Y014101D02*
X016564Y013967D01*
X016564Y014034D02*
X016164Y014034D01*
X016230Y013967D01*
X016164Y013774D02*
X016164Y013507D01*
X016364Y013507D01*
X016297Y013640D01*
X016297Y013707D01*
X016364Y013774D01*
X016497Y013774D01*
X016564Y013707D01*
X016564Y013573D01*
X016497Y013507D01*
X016497Y013313D02*
X016564Y013247D01*
X016564Y013113D01*
X016497Y013046D01*
X016364Y013046D02*
X016297Y013180D01*
X016297Y013247D01*
X016364Y013313D01*
X016497Y013313D01*
X016364Y013046D02*
X016164Y013046D01*
X016164Y013313D01*
X016230Y012853D02*
X016164Y012786D01*
X016164Y012653D01*
X016230Y012586D01*
X016230Y012393D02*
X016364Y012393D01*
X016431Y012326D01*
X016431Y012126D01*
X016564Y012126D02*
X016164Y012126D01*
X016164Y012326D01*
X016230Y012393D01*
X016564Y012586D02*
X016297Y012853D01*
X016230Y012853D01*
X016564Y012853D02*
X016564Y012586D01*
X016497Y011932D02*
X016564Y011865D01*
X016564Y011732D01*
X016497Y011665D01*
X016230Y011665D01*
X016164Y011732D01*
X016164Y011865D01*
X016230Y011932D01*
X016164Y011472D02*
X016564Y011472D01*
X016297Y011338D02*
X016164Y011472D01*
X016297Y011338D02*
X016164Y011205D01*
X016564Y011205D01*
X017411Y010527D02*
X017678Y010127D01*
X017871Y010127D02*
X018005Y010127D01*
X017938Y010127D02*
X017938Y010527D01*
X017871Y010460D01*
X017678Y010527D02*
X017411Y010127D01*
X017320Y009956D02*
X017162Y009956D01*
X017084Y009956D02*
X016966Y009956D01*
X016847Y009838D01*
X016926Y009878D02*
X016966Y009838D01*
X016966Y009445D01*
X016926Y009405D01*
X016966Y009445D02*
X017084Y009445D01*
X017084Y009327D02*
X016966Y009327D01*
X016847Y009445D01*
X016847Y009327D02*
X016966Y009327D01*
X017162Y009602D02*
X017320Y009602D01*
X017320Y009051D01*
X017162Y009051D01*
X017162Y008854D02*
X017320Y008854D01*
X017320Y008697D01*
X017162Y008697D01*
X017123Y008382D02*
X014399Y008382D01*
X014399Y010271D01*
X017123Y010271D01*
X017123Y008382D01*
X017214Y008277D02*
X017147Y008210D01*
X017147Y007943D01*
X017214Y007877D01*
X017347Y007877D01*
X017414Y007943D01*
X017607Y007877D02*
X017607Y008277D01*
X017607Y008077D02*
X017874Y008077D01*
X018068Y008077D02*
X018334Y008077D01*
X018528Y008077D02*
X018795Y008077D01*
X018728Y007877D02*
X018728Y008277D01*
X018528Y008077D01*
X018158Y007670D02*
X018091Y007737D01*
X017958Y007737D01*
X017891Y007670D01*
X017698Y007737D02*
X017431Y007337D01*
X017400Y007216D02*
X017242Y007216D01*
X017164Y007216D02*
X017046Y007216D01*
X016927Y007098D01*
X017006Y007138D02*
X017046Y007098D01*
X017046Y006705D01*
X017006Y006665D01*
X017046Y006705D02*
X017164Y006705D01*
X017164Y006587D02*
X017046Y006587D01*
X016927Y006705D01*
X016927Y006587D02*
X017046Y006587D01*
X017242Y006311D02*
X017400Y006311D01*
X017400Y006862D01*
X017242Y006862D01*
X017242Y007059D02*
X017400Y007059D01*
X017400Y007216D01*
X017164Y007098D02*
X017046Y007098D01*
X017046Y007216D02*
X016927Y007216D01*
X016888Y007374D02*
X016888Y005799D01*
X014794Y005799D01*
X014794Y007374D01*
X016888Y007374D01*
X017203Y007531D02*
X014479Y007531D01*
X014479Y005642D01*
X017203Y005642D01*
X017203Y007531D01*
X017431Y007737D02*
X017698Y007337D01*
X017891Y007337D02*
X018158Y007603D01*
X018158Y007670D01*
X018158Y007337D02*
X017891Y007337D01*
X017874Y007877D02*
X017874Y008277D01*
X017414Y008210D02*
X017347Y008277D01*
X017214Y008277D01*
X016953Y008277D02*
X016687Y008277D01*
X016820Y008277D02*
X016820Y007877D01*
X016493Y007877D02*
X016493Y008143D01*
X016360Y008277D01*
X016226Y008143D01*
X016226Y007877D01*
X016033Y007877D02*
X016033Y008277D01*
X015899Y008143D01*
X015766Y008277D01*
X015766Y007877D01*
X015572Y007943D02*
X015572Y008210D01*
X015506Y008277D01*
X015372Y008277D01*
X015305Y008210D01*
X015305Y007943D01*
X015372Y007877D01*
X015506Y007877D01*
X015572Y007943D01*
X015112Y007877D02*
X014979Y008010D01*
X015045Y008010D02*
X014845Y008010D01*
X014845Y007877D02*
X014845Y008277D01*
X015045Y008277D01*
X015112Y008210D01*
X015112Y008077D01*
X015045Y008010D01*
X014652Y007943D02*
X014585Y007877D01*
X014451Y007877D01*
X014385Y007943D01*
X014385Y008210D01*
X014451Y008277D01*
X014585Y008277D01*
X014652Y008210D01*
X014714Y008539D02*
X016808Y008539D01*
X016808Y010114D01*
X014714Y010114D01*
X014714Y008539D01*
X014359Y008697D02*
X014202Y008697D01*
X014202Y008854D01*
X014359Y008854D01*
X014359Y009051D02*
X014202Y009051D01*
X014202Y009602D01*
X014359Y009602D01*
X014359Y009799D02*
X014202Y009799D01*
X014202Y009956D01*
X014359Y009956D01*
X014135Y008277D02*
X014001Y008277D01*
X014068Y008277D02*
X014068Y007877D01*
X014001Y007877D02*
X014135Y007877D01*
X013808Y007877D02*
X013808Y008277D01*
X013674Y008143D01*
X013541Y008277D01*
X013541Y007877D01*
X014282Y007216D02*
X014282Y007059D01*
X014439Y007059D01*
X014439Y007216D02*
X014282Y007216D01*
X014282Y006862D02*
X014282Y006311D01*
X014439Y006311D01*
X014439Y006114D02*
X014282Y006114D01*
X014282Y005957D01*
X014439Y005957D01*
X014511Y005507D02*
X014445Y005440D01*
X014445Y005173D01*
X014511Y005107D01*
X014645Y005107D01*
X014712Y005173D01*
X014905Y005107D02*
X014905Y005507D01*
X015105Y005507D01*
X015172Y005440D01*
X015172Y005307D01*
X015105Y005240D01*
X014905Y005240D01*
X015039Y005240D02*
X015172Y005107D01*
X015365Y005173D02*
X015365Y005440D01*
X015432Y005507D01*
X015566Y005507D01*
X015632Y005440D01*
X015632Y005173D01*
X015566Y005107D01*
X015432Y005107D01*
X015365Y005173D01*
X015826Y005107D02*
X015826Y005507D01*
X015959Y005373D01*
X016093Y005507D01*
X016093Y005107D01*
X016286Y005107D02*
X016286Y005373D01*
X016420Y005507D01*
X016553Y005373D01*
X016553Y005107D01*
X016553Y005307D02*
X016286Y005307D01*
X016747Y005507D02*
X017013Y005507D01*
X016880Y005507D02*
X016880Y005107D01*
X017207Y005173D02*
X017207Y005440D01*
X017274Y005507D01*
X017407Y005507D01*
X017474Y005440D01*
X017667Y005507D02*
X017667Y005107D01*
X017667Y005307D02*
X017934Y005307D01*
X018128Y005307D02*
X018394Y005307D01*
X018588Y005307D02*
X018855Y005307D01*
X018788Y005507D02*
X018588Y005307D01*
X018788Y005107D02*
X018788Y005507D01*
X017934Y005507D02*
X017934Y005107D01*
X017474Y005173D02*
X017407Y005107D01*
X017274Y005107D01*
X017207Y005173D01*
X017242Y005957D02*
X017400Y005957D01*
X017400Y006114D01*
X017242Y006114D01*
X015911Y004717D02*
X013911Y004717D01*
X013911Y003717D01*
X013911Y003467D01*
X015911Y003467D01*
X015911Y003717D01*
X013911Y003717D01*
X014670Y003278D02*
X014803Y003278D01*
X014737Y003278D02*
X014737Y002944D01*
X014670Y002877D01*
X014603Y002877D01*
X014537Y002944D01*
X014997Y002877D02*
X015130Y002877D01*
X015064Y002877D02*
X015064Y003278D01*
X014997Y003211D01*
X015911Y003717D02*
X015911Y004717D01*
X016414Y003533D02*
X016414Y003132D01*
X016348Y003132D02*
X016481Y003132D01*
X016731Y003132D02*
X016998Y003399D01*
X016998Y003466D01*
X016931Y003533D01*
X016798Y003533D01*
X016731Y003466D01*
X016414Y003533D02*
X016348Y003466D01*
X016731Y003132D02*
X016998Y003132D01*
X017192Y003199D02*
X017192Y003466D01*
X017258Y003533D01*
X017392Y003533D01*
X017459Y003466D01*
X017192Y003199D01*
X017258Y003132D01*
X017392Y003132D01*
X017459Y003199D01*
X017459Y003466D01*
X017652Y003533D02*
X017652Y003132D01*
X017652Y003266D02*
X017852Y003266D01*
X017919Y003332D01*
X017919Y003466D01*
X017852Y003533D01*
X017652Y003533D01*
X017785Y003266D02*
X017919Y003132D01*
X016901Y004187D02*
X016903Y004232D01*
X016909Y004278D01*
X016920Y004322D01*
X016934Y004365D01*
X016952Y004407D01*
X016974Y004447D01*
X016999Y004485D01*
X017028Y004520D01*
X017060Y004552D01*
X017094Y004582D01*
X017132Y004608D01*
X017171Y004631D01*
X017212Y004650D01*
X017255Y004665D01*
X017299Y004677D01*
X017344Y004684D01*
X017390Y004687D01*
X017435Y004686D01*
X017480Y004681D01*
X017525Y004671D01*
X017568Y004658D01*
X017611Y004641D01*
X017651Y004620D01*
X017689Y004595D01*
X017725Y004568D01*
X017759Y004537D01*
X017789Y004503D01*
X017816Y004466D01*
X017840Y004427D01*
X017860Y004386D01*
X017876Y004344D01*
X017888Y004300D01*
X017896Y004255D01*
X017900Y004210D01*
X017900Y004164D01*
X017896Y004119D01*
X017888Y004074D01*
X017876Y004030D01*
X017860Y003988D01*
X017840Y003947D01*
X017816Y003908D01*
X017789Y003871D01*
X017759Y003837D01*
X017725Y003806D01*
X017689Y003779D01*
X017651Y003754D01*
X017611Y003733D01*
X017568Y003716D01*
X017525Y003703D01*
X017480Y003693D01*
X017435Y003688D01*
X017390Y003687D01*
X017344Y003690D01*
X017299Y003697D01*
X017255Y003709D01*
X017212Y003724D01*
X017171Y003743D01*
X017132Y003766D01*
X017094Y003792D01*
X017060Y003822D01*
X017028Y003854D01*
X016999Y003889D01*
X016974Y003927D01*
X016952Y003967D01*
X016934Y004009D01*
X016920Y004052D01*
X016909Y004096D01*
X016903Y004142D01*
X016901Y004187D01*
X016903Y004232D01*
X016909Y004278D01*
X016920Y004322D01*
X016934Y004365D01*
X016952Y004407D01*
X016974Y004447D01*
X016999Y004485D01*
X017028Y004520D01*
X017060Y004552D01*
X017094Y004582D01*
X017132Y004608D01*
X017171Y004631D01*
X017212Y004650D01*
X017255Y004665D01*
X017299Y004677D01*
X017344Y004684D01*
X017390Y004687D01*
X017435Y004686D01*
X017480Y004681D01*
X017525Y004671D01*
X017568Y004658D01*
X017611Y004641D01*
X017651Y004620D01*
X017689Y004595D01*
X017725Y004568D01*
X017759Y004537D01*
X017789Y004503D01*
X017816Y004466D01*
X017840Y004427D01*
X017860Y004386D01*
X017876Y004344D01*
X017888Y004300D01*
X017896Y004255D01*
X017900Y004210D01*
X017900Y004164D01*
X017896Y004119D01*
X017888Y004074D01*
X017876Y004030D01*
X017860Y003988D01*
X017840Y003947D01*
X017816Y003908D01*
X017789Y003871D01*
X017759Y003837D01*
X017725Y003806D01*
X017689Y003779D01*
X017651Y003754D01*
X017611Y003733D01*
X017568Y003716D01*
X017525Y003703D01*
X017480Y003693D01*
X017435Y003688D01*
X017390Y003687D01*
X017344Y003690D01*
X017299Y003697D01*
X017255Y003709D01*
X017212Y003724D01*
X017171Y003743D01*
X017132Y003766D01*
X017094Y003792D01*
X017060Y003822D01*
X017028Y003854D01*
X016999Y003889D01*
X016974Y003927D01*
X016952Y003967D01*
X016934Y004009D01*
X016920Y004052D01*
X016909Y004096D01*
X016903Y004142D01*
X016901Y004187D01*
X016903Y004232D01*
X016909Y004278D01*
X016920Y004322D01*
X016934Y004365D01*
X016952Y004407D01*
X016974Y004447D01*
X016999Y004485D01*
X017028Y004520D01*
X017060Y004552D01*
X017094Y004582D01*
X017132Y004608D01*
X017171Y004631D01*
X017212Y004650D01*
X017255Y004665D01*
X017299Y004677D01*
X017344Y004684D01*
X017390Y004687D01*
X017435Y004686D01*
X017480Y004681D01*
X017525Y004671D01*
X017568Y004658D01*
X017611Y004641D01*
X017651Y004620D01*
X017689Y004595D01*
X017725Y004568D01*
X017759Y004537D01*
X017789Y004503D01*
X017816Y004466D01*
X017840Y004427D01*
X017860Y004386D01*
X017876Y004344D01*
X017888Y004300D01*
X017896Y004255D01*
X017900Y004210D01*
X017900Y004164D01*
X017896Y004119D01*
X017888Y004074D01*
X017876Y004030D01*
X017860Y003988D01*
X017840Y003947D01*
X017816Y003908D01*
X017789Y003871D01*
X017759Y003837D01*
X017725Y003806D01*
X017689Y003779D01*
X017651Y003754D01*
X017611Y003733D01*
X017568Y003716D01*
X017525Y003703D01*
X017480Y003693D01*
X017435Y003688D01*
X017390Y003687D01*
X017344Y003690D01*
X017299Y003697D01*
X017255Y003709D01*
X017212Y003724D01*
X017171Y003743D01*
X017132Y003766D01*
X017094Y003792D01*
X017060Y003822D01*
X017028Y003854D01*
X016999Y003889D01*
X016974Y003927D01*
X016952Y003967D01*
X016934Y004009D01*
X016920Y004052D01*
X016909Y004096D01*
X016903Y004142D01*
X016901Y004187D01*
X014712Y005440D02*
X014645Y005507D01*
X014511Y005507D01*
X014195Y005507D02*
X014061Y005507D01*
X014128Y005507D02*
X014128Y005107D01*
X014061Y005107D02*
X014195Y005107D01*
X013868Y005107D02*
X013868Y005507D01*
X013734Y005373D01*
X013601Y005507D01*
X013601Y005107D01*
X014282Y006862D02*
X014439Y006862D01*
X016226Y008077D02*
X016493Y008077D01*
X016966Y009838D02*
X017084Y009838D01*
X017162Y009799D02*
X017320Y009799D01*
X017320Y009956D01*
X016966Y009956D02*
X016847Y009956D01*
X016031Y014907D02*
X016029Y014876D01*
X016023Y014845D01*
X016013Y014815D01*
X016000Y014787D01*
X015983Y014760D01*
X015963Y014736D01*
X015940Y014714D01*
X015915Y014696D01*
X015887Y014681D01*
X015858Y014669D01*
X015828Y014661D01*
X015797Y014657D01*
X015765Y014657D01*
X015734Y014661D01*
X015704Y014669D01*
X015675Y014681D01*
X015647Y014696D01*
X015622Y014714D01*
X015599Y014736D01*
X015579Y014760D01*
X015562Y014787D01*
X015549Y014815D01*
X015539Y014845D01*
X015533Y014876D01*
X015531Y014907D01*
X015533Y014876D01*
X015539Y014845D01*
X015549Y014815D01*
X015562Y014787D01*
X015579Y014760D01*
X015599Y014736D01*
X015622Y014714D01*
X015647Y014696D01*
X015675Y014681D01*
X015704Y014669D01*
X015734Y014661D01*
X015765Y014657D01*
X015797Y014657D01*
X015828Y014661D01*
X015858Y014669D01*
X015887Y014681D01*
X015915Y014696D01*
X015940Y014714D01*
X015963Y014736D01*
X015983Y014760D01*
X016000Y014787D01*
X016013Y014815D01*
X016023Y014845D01*
X016029Y014876D01*
X016031Y014907D01*
X016029Y014876D01*
X016023Y014845D01*
X016013Y014815D01*
X016000Y014787D01*
X015983Y014760D01*
X015963Y014736D01*
X015940Y014714D01*
X015915Y014696D01*
X015887Y014681D01*
X015858Y014669D01*
X015828Y014661D01*
X015797Y014657D01*
X015765Y014657D01*
X015734Y014661D01*
X015704Y014669D01*
X015675Y014681D01*
X015647Y014696D01*
X015622Y014714D01*
X015599Y014736D01*
X015579Y014760D01*
X015562Y014787D01*
X015549Y014815D01*
X015539Y014845D01*
X015533Y014876D01*
X015531Y014907D01*
X014611Y015477D02*
X014591Y015479D01*
X014573Y015485D01*
X014555Y015494D01*
X014540Y015506D01*
X014528Y015521D01*
X014519Y015539D01*
X014513Y015557D01*
X014511Y015577D01*
X014513Y015557D01*
X014519Y015539D01*
X014528Y015521D01*
X014540Y015506D01*
X014555Y015494D01*
X014573Y015485D01*
X014591Y015479D01*
X014611Y015477D01*
X014591Y015479D01*
X014573Y015485D01*
X014555Y015494D01*
X014540Y015506D01*
X014528Y015521D01*
X014519Y015539D01*
X014513Y015557D01*
X014511Y015577D01*
X024040Y008999D02*
X024040Y008598D01*
X024240Y008398D01*
X025041Y008398D01*
X025241Y008598D01*
X025241Y008999D01*
X025041Y009199D01*
X024240Y009199D02*
X024040Y008999D01*
X025241Y008002D02*
X025241Y007201D01*
X024040Y007201D01*
X024040Y006604D02*
X024040Y006204D01*
X024040Y006404D02*
X025241Y006404D01*
X025241Y006204D02*
X025241Y006604D01*
X025041Y005807D02*
X025241Y005607D01*
X025241Y005207D01*
X025041Y005007D01*
X024640Y005207D02*
X024640Y005607D01*
X024840Y005807D01*
X025041Y005807D01*
X024640Y005207D02*
X024440Y005007D01*
X024240Y005007D01*
X024040Y005207D01*
X024040Y005607D01*
X024240Y005807D01*
D12*
X008881Y016887D03*
X008881Y016887D03*
X008881Y016887D03*
X008881Y016887D03*
D13*
X008786Y015677D03*
X008786Y015677D03*
X008786Y015677D03*
X005336Y015677D03*
X005336Y015677D03*
X005336Y015677D03*
D14*
X006061Y015577D03*
X006061Y015577D03*
X006061Y015577D03*
X007061Y015577D03*
X007061Y015577D03*
X007061Y015577D03*
X008061Y015577D03*
X008061Y015577D03*
X008061Y015577D03*
D15*
X007561Y015677D03*
X007561Y015677D03*
X007561Y015677D03*
X006561Y015677D03*
X006561Y015677D03*
X006561Y015677D03*
D16*
X014411Y004217D03*
X014411Y004217D03*
X014411Y004217D03*
X015411Y004217D03*
X015411Y004217D03*
X015411Y004217D03*
D17*
X008431Y006507D02*
X008431Y008907D01*
X008231Y008907D01*
X006931Y008907D01*
X006731Y008907D01*
X006731Y006507D01*
X006931Y006507D01*
X008231Y006507D01*
X008431Y006507D01*
X008431Y008907D01*
X008429Y008965D01*
X008423Y009023D01*
X008413Y009080D01*
X008399Y009136D01*
X008382Y009192D01*
X008361Y009246D01*
X008336Y009298D01*
X008307Y009349D01*
X008275Y009397D01*
X008240Y009443D01*
X008202Y009487D01*
X008161Y009528D01*
X008117Y009566D01*
X008071Y009601D01*
X008023Y009633D01*
X007972Y009662D01*
X007920Y009687D01*
X007866Y009708D01*
X007810Y009725D01*
X007754Y009739D01*
X007697Y009749D01*
X007639Y009755D01*
X007581Y009757D01*
X007523Y009755D01*
X007465Y009749D01*
X007408Y009739D01*
X007352Y009725D01*
X007296Y009708D01*
X007242Y009687D01*
X007190Y009662D01*
X007139Y009633D01*
X007091Y009601D01*
X007045Y009566D01*
X007001Y009528D01*
X006960Y009487D01*
X006922Y009443D01*
X006887Y009397D01*
X006855Y009349D01*
X006826Y009298D01*
X006801Y009246D01*
X006780Y009192D01*
X006763Y009136D01*
X006749Y009080D01*
X006739Y009023D01*
X006733Y008965D01*
X006731Y008907D01*
X006731Y006507D01*
X006733Y006449D01*
X006739Y006391D01*
X006749Y006334D01*
X006763Y006278D01*
X006780Y006222D01*
X006801Y006168D01*
X006826Y006116D01*
X006855Y006065D01*
X006887Y006017D01*
X006922Y005971D01*
X006960Y005927D01*
X007001Y005886D01*
X007045Y005848D01*
X007091Y005813D01*
X007139Y005781D01*
X007190Y005752D01*
X007242Y005727D01*
X007296Y005706D01*
X007352Y005689D01*
X007408Y005675D01*
X007465Y005665D01*
X007523Y005659D01*
X007581Y005657D01*
X007639Y005659D01*
X007697Y005665D01*
X007754Y005675D01*
X007810Y005689D01*
X007866Y005706D01*
X007920Y005727D01*
X007972Y005752D01*
X008023Y005781D01*
X008071Y005813D01*
X008117Y005848D01*
X008161Y005886D01*
X008202Y005927D01*
X008240Y005971D01*
X008275Y006017D01*
X008307Y006065D01*
X008336Y006116D01*
X008361Y006168D01*
X008382Y006222D01*
X008399Y006278D01*
X008413Y006334D01*
X008423Y006391D01*
X008429Y006449D01*
X008431Y006507D01*
X008429Y006449D01*
X008423Y006391D01*
X008413Y006334D01*
X008399Y006278D01*
X008382Y006222D01*
X008361Y006168D01*
X008336Y006116D01*
X008307Y006065D01*
X008275Y006017D01*
X008240Y005971D01*
X008202Y005927D01*
X008161Y005886D01*
X008117Y005848D01*
X008071Y005813D01*
X008023Y005781D01*
X007972Y005752D01*
X007920Y005727D01*
X007866Y005706D01*
X007810Y005689D01*
X007754Y005675D01*
X007697Y005665D01*
X007639Y005659D01*
X007581Y005657D01*
X007523Y005659D01*
X007465Y005665D01*
X007408Y005675D01*
X007352Y005689D01*
X007296Y005706D01*
X007242Y005727D01*
X007190Y005752D01*
X007139Y005781D01*
X007091Y005813D01*
X007045Y005848D01*
X007001Y005886D01*
X006960Y005927D01*
X006922Y005971D01*
X006887Y006017D01*
X006855Y006065D01*
X006826Y006116D01*
X006801Y006168D01*
X006780Y006222D01*
X006763Y006278D01*
X006749Y006334D01*
X006739Y006391D01*
X006733Y006449D01*
X006731Y006507D01*
X006733Y006449D01*
X006739Y006391D01*
X006749Y006334D01*
X006763Y006278D01*
X006780Y006222D01*
X006801Y006168D01*
X006826Y006116D01*
X006855Y006065D01*
X006887Y006017D01*
X006922Y005971D01*
X006960Y005927D01*
X007001Y005886D01*
X007045Y005848D01*
X007091Y005813D01*
X007139Y005781D01*
X007190Y005752D01*
X007242Y005727D01*
X007296Y005706D01*
X007352Y005689D01*
X007408Y005675D01*
X007465Y005665D01*
X007523Y005659D01*
X007581Y005657D01*
X007639Y005659D01*
X007697Y005665D01*
X007754Y005675D01*
X007810Y005689D01*
X007866Y005706D01*
X007920Y005727D01*
X007972Y005752D01*
X008023Y005781D01*
X008071Y005813D01*
X008117Y005848D01*
X008161Y005886D01*
X008202Y005927D01*
X008240Y005971D01*
X008275Y006017D01*
X008307Y006065D01*
X008336Y006116D01*
X008361Y006168D01*
X008382Y006222D01*
X008399Y006278D01*
X008413Y006334D01*
X008423Y006391D01*
X008429Y006449D01*
X008431Y006507D01*
X008429Y006449D01*
X008423Y006391D01*
X008413Y006334D01*
X008399Y006278D01*
X008382Y006222D01*
X008361Y006168D01*
X008336Y006116D01*
X008307Y006065D01*
X008275Y006017D01*
X008240Y005971D01*
X008202Y005927D01*
X008161Y005886D01*
X008117Y005848D01*
X008071Y005813D01*
X008023Y005781D01*
X007972Y005752D01*
X007920Y005727D01*
X007866Y005706D01*
X007810Y005689D01*
X007754Y005675D01*
X007697Y005665D01*
X007639Y005659D01*
X007581Y005657D01*
X007523Y005659D01*
X007465Y005665D01*
X007408Y005675D01*
X007352Y005689D01*
X007296Y005706D01*
X007242Y005727D01*
X007190Y005752D01*
X007139Y005781D01*
X007091Y005813D01*
X007045Y005848D01*
X007001Y005886D01*
X006960Y005927D01*
X006922Y005971D01*
X006887Y006017D01*
X006855Y006065D01*
X006826Y006116D01*
X006801Y006168D01*
X006780Y006222D01*
X006763Y006278D01*
X006749Y006334D01*
X006739Y006391D01*
X006733Y006449D01*
X006731Y006507D01*
X006731Y008907D02*
X006733Y008965D01*
X006739Y009023D01*
X006749Y009080D01*
X006763Y009136D01*
X006780Y009192D01*
X006801Y009246D01*
X006826Y009298D01*
X006855Y009349D01*
X006887Y009397D01*
X006922Y009443D01*
X006960Y009487D01*
X007001Y009528D01*
X007045Y009566D01*
X007091Y009601D01*
X007139Y009633D01*
X007190Y009662D01*
X007242Y009687D01*
X007296Y009708D01*
X007352Y009725D01*
X007408Y009739D01*
X007465Y009749D01*
X007523Y009755D01*
X007581Y009757D01*
X007639Y009755D01*
X007697Y009749D01*
X007754Y009739D01*
X007810Y009725D01*
X007866Y009708D01*
X007920Y009687D01*
X007972Y009662D01*
X008023Y009633D01*
X008071Y009601D01*
X008117Y009566D01*
X008161Y009528D01*
X008202Y009487D01*
X008240Y009443D01*
X008275Y009397D01*
X008307Y009349D01*
X008336Y009298D01*
X008361Y009246D01*
X008382Y009192D01*
X008399Y009136D01*
X008413Y009080D01*
X008423Y009023D01*
X008429Y008965D01*
X008431Y008907D01*
X008429Y008965D01*
X008423Y009023D01*
X008413Y009080D01*
X008399Y009136D01*
X008382Y009192D01*
X008361Y009246D01*
X008336Y009298D01*
X008307Y009349D01*
X008275Y009397D01*
X008240Y009443D01*
X008202Y009487D01*
X008161Y009528D01*
X008117Y009566D01*
X008071Y009601D01*
X008023Y009633D01*
X007972Y009662D01*
X007920Y009687D01*
X007866Y009708D01*
X007810Y009725D01*
X007754Y009739D01*
X007697Y009749D01*
X007639Y009755D01*
X007581Y009757D01*
X007523Y009755D01*
X007465Y009749D01*
X007408Y009739D01*
X007352Y009725D01*
X007296Y009708D01*
X007242Y009687D01*
X007190Y009662D01*
X007139Y009633D01*
X007091Y009601D01*
X007045Y009566D01*
X007001Y009528D01*
X006960Y009487D01*
X006922Y009443D01*
X006887Y009397D01*
X006855Y009349D01*
X006826Y009298D01*
X006801Y009246D01*
X006780Y009192D01*
X006763Y009136D01*
X006749Y009080D01*
X006739Y009023D01*
X006733Y008965D01*
X006731Y008907D01*
X006733Y008965D01*
X006739Y009023D01*
X006749Y009080D01*
X006763Y009136D01*
X006780Y009192D01*
X006801Y009246D01*
X006826Y009298D01*
X006855Y009349D01*
X006887Y009397D01*
X006922Y009443D01*
X006960Y009487D01*
X007001Y009528D01*
X007045Y009566D01*
X007091Y009601D01*
X007139Y009633D01*
X007190Y009662D01*
X007242Y009687D01*
X007296Y009708D01*
X007352Y009725D01*
X007408Y009739D01*
X007465Y009749D01*
X007523Y009755D01*
X007581Y009757D01*
X007639Y009755D01*
X007697Y009749D01*
X007754Y009739D01*
X007810Y009725D01*
X007866Y009708D01*
X007920Y009687D01*
X007972Y009662D01*
X008023Y009633D01*
X008071Y009601D01*
X008117Y009566D01*
X008161Y009528D01*
X008202Y009487D01*
X008240Y009443D01*
X008275Y009397D01*
X008307Y009349D01*
X008336Y009298D01*
X008361Y009246D01*
X008382Y009192D01*
X008399Y009136D01*
X008413Y009080D01*
X008423Y009023D01*
X008429Y008965D01*
X008431Y008907D01*
D18*
X014202Y008854D02*
X014202Y008697D01*
X014359Y008697D01*
X014359Y008854D02*
X014202Y008854D01*
X014202Y009051D02*
X014359Y009051D01*
X014202Y009051D02*
X014202Y009602D01*
X014359Y009602D01*
X014359Y009799D02*
X014202Y009799D01*
X014202Y009956D01*
X014359Y009956D01*
X014399Y010271D02*
X017123Y010271D01*
X017123Y008382D01*
X014399Y008382D01*
X014399Y010271D01*
X014714Y010114D02*
X016808Y010114D01*
X016808Y008539D01*
X014714Y008539D01*
X014714Y010114D01*
X017162Y009956D02*
X017320Y009956D01*
X017320Y009799D01*
X017162Y009799D01*
X017162Y009602D02*
X017320Y009602D01*
X017320Y009051D01*
X017162Y009051D01*
X017162Y008854D02*
X017320Y008854D01*
X017320Y008697D01*
X017162Y008697D01*
X017203Y007531D02*
X014479Y007531D01*
X014479Y005642D01*
X017203Y005642D01*
X017203Y007531D01*
X016888Y007374D02*
X016888Y005799D01*
X014794Y005799D01*
X014794Y007374D01*
X016888Y007374D01*
X017242Y007216D02*
X017400Y007216D01*
X017400Y007059D01*
X017242Y007059D01*
X017242Y006862D02*
X017400Y006862D01*
X017400Y006311D01*
X017242Y006311D01*
X017242Y006114D02*
X017400Y006114D01*
X017400Y005957D01*
X017242Y005957D01*
X014439Y005957D02*
X014282Y005957D01*
X014282Y006114D01*
X014439Y006114D01*
X014439Y006311D02*
X014282Y006311D01*
X014282Y006862D01*
X014439Y006862D01*
X014439Y007059D02*
X014282Y007059D01*
X014282Y007216D01*
X014439Y007216D01*
X014451Y018207D02*
X014451Y018310D01*
X014451Y018207D01*
X014451Y018310D01*
X014451Y018258D02*
X014141Y018258D01*
X014192Y018207D01*
X014141Y018258D01*
X014451Y018258D01*
X014141Y018258D01*
X014192Y018207D01*
D19*
X016801Y004187D02*
X017001Y004187D01*
X016801Y004187D01*
D20*
X016901Y004187D02*
X016903Y004232D01*
X016909Y004278D01*
X016920Y004322D01*
X016934Y004365D01*
X016952Y004407D01*
X016974Y004447D01*
X016999Y004485D01*
X017028Y004520D01*
X017060Y004552D01*
X017094Y004582D01*
X017132Y004608D01*
X017171Y004631D01*
X017212Y004650D01*
X017255Y004665D01*
X017299Y004677D01*
X017344Y004684D01*
X017390Y004687D01*
X017435Y004686D01*
X017480Y004681D01*
X017525Y004671D01*
X017568Y004658D01*
X017611Y004641D01*
X017651Y004620D01*
X017689Y004595D01*
X017725Y004568D01*
X017759Y004537D01*
X017789Y004503D01*
X017816Y004466D01*
X017840Y004427D01*
X017860Y004386D01*
X017876Y004344D01*
X017888Y004300D01*
X017896Y004255D01*
X017900Y004210D01*
X017900Y004164D01*
X017896Y004119D01*
X017888Y004074D01*
X017876Y004030D01*
X017860Y003988D01*
X017840Y003947D01*
X017816Y003908D01*
X017789Y003871D01*
X017759Y003837D01*
X017725Y003806D01*
X017689Y003779D01*
X017651Y003754D01*
X017611Y003733D01*
X017568Y003716D01*
X017525Y003703D01*
X017480Y003693D01*
X017435Y003688D01*
X017390Y003687D01*
X017344Y003690D01*
X017299Y003697D01*
X017255Y003709D01*
X017212Y003724D01*
X017171Y003743D01*
X017132Y003766D01*
X017094Y003792D01*
X017060Y003822D01*
X017028Y003854D01*
X016999Y003889D01*
X016974Y003927D01*
X016952Y003967D01*
X016934Y004009D01*
X016920Y004052D01*
X016909Y004096D01*
X016903Y004142D01*
X016901Y004187D01*
X015911Y003717D02*
X015911Y003467D01*
X013911Y003467D01*
X013911Y003717D01*
X013911Y004717D01*
X015911Y004717D01*
X015911Y003717D01*
X013911Y003717D01*
X012381Y002937D02*
X012381Y016937D01*
X011881Y016937D01*
X011879Y016893D01*
X011873Y016850D01*
X011864Y016808D01*
X011851Y016766D01*
X011834Y016726D01*
X011814Y016687D01*
X011791Y016650D01*
X011764Y016616D01*
X011735Y016583D01*
X011702Y016554D01*
X011668Y016527D01*
X011631Y016504D01*
X011592Y016484D01*
X011552Y016467D01*
X011510Y016454D01*
X011468Y016445D01*
X011425Y016439D01*
X011381Y016437D01*
X011337Y016439D01*
X011294Y016445D01*
X011252Y016454D01*
X011210Y016467D01*
X011170Y016484D01*
X011131Y016504D01*
X011094Y016527D01*
X011060Y016554D01*
X011027Y016583D01*
X010998Y016616D01*
X010971Y016650D01*
X010948Y016687D01*
X010928Y016726D01*
X010911Y016766D01*
X010898Y016808D01*
X010889Y016850D01*
X010883Y016893D01*
X010881Y016937D01*
X010381Y016937D01*
X010381Y016887D02*
X010381Y002937D01*
X012381Y002937D01*
X008219Y003964D02*
X007168Y004728D01*
X007025Y004276D02*
X007324Y004058D01*
X007526Y003911D02*
X007834Y003688D01*
X007690Y003236D02*
X006639Y004000D01*
X006931Y006507D02*
X006931Y008907D01*
X006933Y008957D01*
X006939Y009006D01*
X006948Y009055D01*
X006961Y009103D01*
X006978Y009150D01*
X006998Y009195D01*
X007022Y009239D01*
X007049Y009281D01*
X007080Y009321D01*
X007113Y009358D01*
X007149Y009392D01*
X007187Y009424D01*
X007228Y009453D01*
X007270Y009478D01*
X007315Y009500D01*
X007361Y009519D01*
X007409Y009534D01*
X007457Y009545D01*
X007506Y009553D01*
X007556Y009557D01*
X007606Y009557D01*
X007656Y009553D01*
X007705Y009545D01*
X007753Y009534D01*
X007801Y009519D01*
X007847Y009500D01*
X007892Y009478D01*
X007934Y009453D01*
X007975Y009424D01*
X008013Y009392D01*
X008049Y009358D01*
X008082Y009321D01*
X008113Y009281D01*
X008140Y009239D01*
X008164Y009195D01*
X008184Y009150D01*
X008201Y009103D01*
X008214Y009055D01*
X008223Y009006D01*
X008229Y008957D01*
X008231Y008907D01*
X008231Y006507D01*
X008229Y006457D01*
X008223Y006408D01*
X008214Y006359D01*
X008201Y006311D01*
X008184Y006264D01*
X008164Y006219D01*
X008140Y006175D01*
X008113Y006133D01*
X008082Y006093D01*
X008049Y006056D01*
X008013Y006022D01*
X007975Y005990D01*
X007934Y005961D01*
X007892Y005936D01*
X007847Y005914D01*
X007801Y005895D01*
X007753Y005880D01*
X007705Y005869D01*
X007656Y005861D01*
X007606Y005857D01*
X007556Y005857D01*
X007506Y005861D01*
X007457Y005869D01*
X007409Y005880D01*
X007361Y005895D01*
X007315Y005914D01*
X007270Y005936D01*
X007228Y005961D01*
X007187Y005990D01*
X007149Y006022D01*
X007113Y006056D01*
X007080Y006093D01*
X007049Y006133D01*
X007022Y006175D01*
X006998Y006219D01*
X006978Y006264D01*
X006961Y006311D01*
X006948Y006359D01*
X006939Y006408D01*
X006933Y006457D01*
X006931Y006507D01*
X007581Y007207D02*
X007581Y007457D01*
X007881Y007457D01*
X007881Y007607D02*
X007281Y007607D01*
X007281Y007807D01*
X007881Y007807D01*
X007881Y007607D01*
X007581Y007457D02*
X007281Y007457D01*
X007281Y007957D02*
X007581Y007957D01*
X007581Y008207D01*
X007581Y007957D02*
X007881Y007957D01*
X007545Y010753D02*
X007545Y012053D01*
X007934Y012079D02*
X007934Y010779D01*
X008384Y010929D02*
X008384Y011299D01*
X008384Y011549D02*
X008384Y011929D01*
X008834Y012079D02*
X008834Y010779D01*
X007095Y010903D02*
X007095Y011273D01*
X007095Y011523D02*
X007095Y011903D01*
X006645Y012053D02*
X006645Y010753D01*
X005061Y015877D02*
X005061Y017027D01*
X005161Y017127D01*
X008961Y017127D01*
X009061Y017027D01*
X009061Y015877D01*
X010221Y017137D02*
X010371Y017137D01*
X010421Y017187D01*
X012321Y017187D01*
X012371Y017137D01*
X012521Y017137D01*
X012321Y017987D02*
X010421Y017987D01*
X010371Y018037D01*
X010221Y018037D01*
X009692Y018186D02*
X008533Y017596D01*
X008463Y018065D02*
X008801Y018238D01*
X009024Y018351D02*
X009354Y018519D01*
X009283Y018988D02*
X008125Y018398D01*
X007164Y018196D02*
X006006Y017606D01*
X005935Y018075D02*
X006274Y018248D01*
X006497Y018361D02*
X006826Y018529D01*
X006756Y018998D02*
X005597Y018408D01*
X010835Y018182D02*
X012135Y018182D01*
X012321Y017987D02*
X012371Y018037D01*
X012521Y018037D01*
X011985Y018632D02*
X011615Y018632D01*
X011365Y018632D02*
X010985Y018632D01*
X010835Y019082D02*
X012135Y019082D01*
X013891Y018797D02*
X013891Y018497D01*
X014641Y018497D01*
X014691Y018447D01*
X014691Y017197D01*
X014891Y017197D01*
X014891Y018447D01*
X014941Y018497D01*
X015691Y018497D01*
X015691Y017197D01*
X015891Y017197D01*
X015891Y018497D01*
X016641Y018497D01*
X016691Y018447D01*
X016691Y017197D01*
X016891Y017197D01*
X016891Y018447D01*
X016941Y018497D02*
X017691Y018497D01*
X017691Y018797D01*
X017391Y018797D01*
X017391Y018847D01*
X017191Y018847D01*
X017191Y018797D01*
X016891Y018797D01*
X016891Y018747D01*
X016691Y018747D01*
X016691Y018797D01*
X016391Y018797D01*
X016391Y018847D01*
X016191Y018847D01*
X016191Y018797D01*
X015891Y018797D01*
X015891Y018747D01*
X015691Y018747D01*
X015691Y018797D01*
X015391Y018797D01*
X015391Y018847D01*
X015191Y018847D01*
X015191Y018797D01*
X014891Y018797D01*
X014891Y018747D01*
X014691Y018747D01*
X014691Y018797D01*
X014391Y018797D01*
X014391Y018847D01*
X014191Y018847D01*
X014191Y018797D01*
X013891Y018797D01*
X013891Y018497D02*
X013891Y017197D01*
X013891Y017097D01*
X014041Y017097D01*
X014041Y017197D01*
X014041Y017297D01*
X014541Y017297D01*
X014541Y017197D01*
X014691Y017197D01*
X014541Y017197D02*
X014541Y017097D01*
X015041Y017097D01*
X015041Y017197D01*
X014891Y017197D01*
X015041Y017197D02*
X015041Y017297D01*
X015541Y017297D01*
X015541Y017197D01*
X015691Y017197D01*
X015541Y017197D02*
X015541Y017097D01*
X016041Y017097D01*
X016041Y017197D01*
X015891Y017197D01*
X016041Y017197D02*
X016041Y017297D01*
X016541Y017297D01*
X016541Y017197D01*
X016691Y017197D01*
X016541Y017197D02*
X016541Y017097D01*
X017041Y017097D01*
X017041Y017197D01*
X017041Y017297D01*
X017541Y017297D01*
X017541Y017197D01*
X017691Y017197D01*
X017691Y017097D01*
X017541Y017097D01*
X017541Y017197D01*
X017691Y017197D02*
X017691Y018497D01*
X016941Y018497D02*
X016791Y018347D01*
X016691Y018447D01*
X015891Y018497D02*
X015691Y018497D01*
X014891Y018447D02*
X014791Y018347D01*
X014691Y018447D01*
X014041Y017197D02*
X013891Y017197D01*
X013891Y017097D02*
X013891Y016897D01*
X014691Y016897D01*
X014691Y016947D01*
X014891Y016947D01*
X014891Y016897D01*
X015691Y016897D01*
X015691Y016947D01*
X015891Y016947D01*
X015891Y016897D01*
X016691Y016897D01*
X016691Y016947D01*
X016891Y016947D01*
X016891Y016897D01*
X017691Y016897D01*
X017691Y017097D01*
X018113Y016771D02*
X018113Y015471D01*
X018563Y015621D02*
X018563Y015991D01*
X018563Y016241D02*
X018563Y016621D01*
X019013Y016771D02*
X019013Y015471D01*
X016911Y015477D02*
X016761Y015477D01*
X016711Y015527D01*
X014811Y015527D01*
X014761Y015477D01*
X014611Y015477D01*
X014781Y014907D02*
X014781Y010907D01*
X016781Y010907D01*
X016781Y014907D01*
X016031Y014907D01*
X016029Y014876D01*
X016023Y014845D01*
X016013Y014815D01*
X016000Y014787D01*
X015983Y014760D01*
X015963Y014736D01*
X015940Y014714D01*
X015915Y014696D01*
X015887Y014681D01*
X015858Y014669D01*
X015828Y014661D01*
X015797Y014657D01*
X015765Y014657D01*
X015734Y014661D01*
X015704Y014669D01*
X015675Y014681D01*
X015647Y014696D01*
X015622Y014714D01*
X015599Y014736D01*
X015579Y014760D01*
X015562Y014787D01*
X015549Y014815D01*
X015539Y014845D01*
X015533Y014876D01*
X015531Y014907D01*
X014781Y014907D01*
X014811Y016327D02*
X016711Y016327D01*
X016761Y016377D01*
X016911Y016377D01*
X016891Y017197D02*
X017041Y017197D01*
X014811Y016327D02*
X014761Y016377D01*
X014611Y016377D01*
D21*
X016321Y015407D02*
X016321Y015107D01*
X016381Y015047D01*
X016501Y015047D01*
X016561Y015107D01*
X016561Y015407D01*
X016689Y015347D02*
X016749Y015407D01*
X016749Y015047D01*
X016689Y015047D02*
X016809Y015047D01*
X016847Y009956D02*
X016966Y009956D01*
X016847Y009838D01*
X016926Y009878D02*
X016966Y009838D01*
X016966Y009445D01*
X016926Y009405D01*
X016966Y009445D02*
X017084Y009445D01*
X017084Y009327D02*
X016966Y009327D01*
X016847Y009445D01*
X016847Y009327D02*
X016966Y009327D01*
X016966Y009838D02*
X017084Y009838D01*
X017084Y009956D02*
X016966Y009956D01*
X016927Y007216D02*
X017046Y007216D01*
X016927Y007098D01*
X017006Y007138D02*
X017046Y007098D01*
X017046Y006705D01*
X017006Y006665D01*
X017046Y006705D02*
X017164Y006705D01*
X017164Y006587D02*
X017046Y006587D01*
X016927Y006705D01*
X016927Y006587D02*
X017046Y006587D01*
X017046Y007098D02*
X017164Y007098D01*
X017164Y007216D02*
X017046Y007216D01*
D22*
X008638Y010554D02*
X008638Y010604D01*
X008639Y010604D02*
X008665Y010607D01*
X008691Y010614D01*
X008715Y010624D01*
X008738Y010638D01*
X008758Y010655D01*
X008775Y010675D01*
X008789Y010698D01*
X008799Y010722D01*
X008806Y010748D01*
X008809Y010774D01*
X008858Y010774D01*
X008859Y010774D01*
X008856Y010746D01*
X008850Y010718D01*
X008841Y010691D01*
X008828Y010665D01*
X008812Y010641D01*
X008793Y010620D01*
X008772Y010601D01*
X008748Y010585D01*
X008722Y010572D01*
X008695Y010563D01*
X008667Y010557D01*
X008639Y010554D01*
X008639Y010563D01*
X008666Y010565D01*
X008693Y010571D01*
X008719Y010580D01*
X008743Y010593D01*
X008766Y010608D01*
X008787Y010626D01*
X008805Y010647D01*
X008820Y010670D01*
X008833Y010694D01*
X008842Y010720D01*
X008848Y010747D01*
X008850Y010774D01*
X008841Y010774D01*
X008838Y010745D01*
X008832Y010718D01*
X008821Y010691D01*
X008807Y010666D01*
X008790Y010643D01*
X008770Y010623D01*
X008747Y010606D01*
X008722Y010592D01*
X008695Y010581D01*
X008668Y010575D01*
X008639Y010572D01*
X008639Y010581D01*
X008666Y010584D01*
X008693Y010590D01*
X008718Y010600D01*
X008742Y010613D01*
X008764Y010630D01*
X008783Y010649D01*
X008800Y010671D01*
X008813Y010695D01*
X008823Y010720D01*
X008829Y010747D01*
X008832Y010774D01*
X008823Y010774D01*
X008820Y010748D01*
X008814Y010723D01*
X008805Y010698D01*
X008792Y010676D01*
X008777Y010655D01*
X008758Y010636D01*
X008737Y010621D01*
X008715Y010608D01*
X008690Y010599D01*
X008665Y010593D01*
X008639Y010590D01*
X008639Y010599D01*
X008664Y010601D01*
X008688Y010607D01*
X008711Y010616D01*
X008732Y010628D01*
X008752Y010643D01*
X008770Y010661D01*
X008785Y010681D01*
X008797Y010702D01*
X008806Y010725D01*
X008812Y010749D01*
X008814Y010774D01*
X007909Y010774D02*
X007959Y010774D01*
X007962Y010748D01*
X007969Y010722D01*
X007979Y010698D01*
X007993Y010675D01*
X008010Y010655D01*
X008030Y010638D01*
X008053Y010624D01*
X008077Y010614D01*
X008103Y010607D01*
X008129Y010604D01*
X008129Y010554D01*
X008101Y010557D01*
X008073Y010563D01*
X008046Y010572D01*
X008020Y010585D01*
X007996Y010601D01*
X007975Y010620D01*
X007956Y010641D01*
X007940Y010665D01*
X007927Y010691D01*
X007918Y010718D01*
X007912Y010746D01*
X007909Y010774D01*
X007918Y010774D01*
X007920Y010747D01*
X007926Y010720D01*
X007935Y010694D01*
X007948Y010670D01*
X007963Y010647D01*
X007981Y010626D01*
X008002Y010608D01*
X008025Y010593D01*
X008049Y010580D01*
X008075Y010571D01*
X008102Y010565D01*
X008129Y010563D01*
X008129Y010572D01*
X008100Y010575D01*
X008073Y010581D01*
X008046Y010592D01*
X008021Y010606D01*
X007998Y010623D01*
X007978Y010643D01*
X007961Y010666D01*
X007947Y010691D01*
X007936Y010718D01*
X007930Y010745D01*
X007927Y010774D01*
X007936Y010774D01*
X007939Y010747D01*
X007945Y010720D01*
X007955Y010695D01*
X007968Y010671D01*
X007985Y010649D01*
X008004Y010630D01*
X008026Y010613D01*
X008050Y010600D01*
X008075Y010590D01*
X008102Y010584D01*
X008129Y010581D01*
X008129Y010590D01*
X008103Y010593D01*
X008078Y010599D01*
X008053Y010608D01*
X008031Y010621D01*
X008010Y010636D01*
X007991Y010655D01*
X007976Y010676D01*
X007963Y010698D01*
X007954Y010723D01*
X007948Y010748D01*
X007945Y010774D01*
X007954Y010774D01*
X007956Y010749D01*
X007962Y010725D01*
X007971Y010702D01*
X007983Y010681D01*
X007998Y010661D01*
X008016Y010643D01*
X008036Y010628D01*
X008057Y010616D01*
X008080Y010607D01*
X008104Y010601D01*
X008129Y010599D01*
X007349Y010528D02*
X007349Y010578D01*
X007350Y010578D02*
X007376Y010581D01*
X007402Y010588D01*
X007426Y010598D01*
X007449Y010612D01*
X007469Y010629D01*
X007486Y010649D01*
X007500Y010672D01*
X007510Y010696D01*
X007517Y010722D01*
X007520Y010748D01*
X007569Y010748D01*
X007570Y010748D01*
X007567Y010720D01*
X007561Y010692D01*
X007552Y010665D01*
X007539Y010639D01*
X007523Y010615D01*
X007504Y010594D01*
X007483Y010575D01*
X007459Y010559D01*
X007433Y010546D01*
X007406Y010537D01*
X007378Y010531D01*
X007350Y010528D01*
X007350Y010537D01*
X007377Y010539D01*
X007404Y010545D01*
X007430Y010554D01*
X007454Y010567D01*
X007477Y010582D01*
X007498Y010600D01*
X007516Y010621D01*
X007531Y010644D01*
X007544Y010668D01*
X007553Y010694D01*
X007559Y010721D01*
X007561Y010748D01*
X007552Y010748D01*
X007549Y010719D01*
X007543Y010692D01*
X007532Y010665D01*
X007518Y010640D01*
X007501Y010617D01*
X007481Y010597D01*
X007458Y010580D01*
X007433Y010566D01*
X007406Y010555D01*
X007379Y010549D01*
X007350Y010546D01*
X007350Y010555D01*
X007377Y010558D01*
X007404Y010564D01*
X007429Y010574D01*
X007453Y010587D01*
X007475Y010604D01*
X007494Y010623D01*
X007511Y010645D01*
X007524Y010669D01*
X007534Y010694D01*
X007540Y010721D01*
X007543Y010748D01*
X007534Y010748D01*
X007531Y010722D01*
X007525Y010697D01*
X007516Y010672D01*
X007503Y010650D01*
X007488Y010629D01*
X007469Y010610D01*
X007448Y010595D01*
X007426Y010582D01*
X007401Y010573D01*
X007376Y010567D01*
X007350Y010564D01*
X007350Y010573D01*
X007375Y010575D01*
X007399Y010581D01*
X007422Y010590D01*
X007443Y010602D01*
X007463Y010617D01*
X007481Y010635D01*
X007496Y010655D01*
X007508Y010676D01*
X007517Y010699D01*
X007523Y010723D01*
X007525Y010748D01*
X006620Y010748D02*
X006670Y010748D01*
X006673Y010722D01*
X006680Y010696D01*
X006690Y010672D01*
X006704Y010649D01*
X006721Y010629D01*
X006741Y010612D01*
X006764Y010598D01*
X006788Y010588D01*
X006814Y010581D01*
X006840Y010578D01*
X006840Y010528D01*
X006812Y010531D01*
X006784Y010537D01*
X006757Y010546D01*
X006731Y010559D01*
X006707Y010575D01*
X006686Y010594D01*
X006667Y010615D01*
X006651Y010639D01*
X006638Y010665D01*
X006629Y010692D01*
X006623Y010720D01*
X006620Y010748D01*
X006629Y010748D01*
X006631Y010721D01*
X006637Y010694D01*
X006646Y010668D01*
X006659Y010644D01*
X006674Y010621D01*
X006692Y010600D01*
X006713Y010582D01*
X006736Y010567D01*
X006760Y010554D01*
X006786Y010545D01*
X006813Y010539D01*
X006840Y010537D01*
X006840Y010546D01*
X006811Y010549D01*
X006784Y010555D01*
X006757Y010566D01*
X006732Y010580D01*
X006709Y010597D01*
X006689Y010617D01*
X006672Y010640D01*
X006658Y010665D01*
X006647Y010692D01*
X006641Y010719D01*
X006638Y010748D01*
X006647Y010748D01*
X006650Y010721D01*
X006656Y010694D01*
X006666Y010669D01*
X006679Y010645D01*
X006696Y010623D01*
X006715Y010604D01*
X006737Y010587D01*
X006761Y010574D01*
X006786Y010564D01*
X006813Y010558D01*
X006840Y010555D01*
X006840Y010564D01*
X006814Y010567D01*
X006789Y010573D01*
X006764Y010582D01*
X006742Y010595D01*
X006721Y010610D01*
X006702Y010629D01*
X006687Y010650D01*
X006674Y010672D01*
X006665Y010697D01*
X006659Y010722D01*
X006656Y010748D01*
X006665Y010748D01*
X006667Y010723D01*
X006673Y010699D01*
X006682Y010676D01*
X006694Y010655D01*
X006709Y010635D01*
X006727Y010617D01*
X006747Y010602D01*
X006768Y010590D01*
X006791Y010581D01*
X006815Y010575D01*
X006840Y010573D01*
X006840Y012277D02*
X006840Y012227D01*
X006840Y012228D02*
X006814Y012225D01*
X006788Y012218D01*
X006764Y012208D01*
X006741Y012194D01*
X006721Y012177D01*
X006704Y012157D01*
X006690Y012134D01*
X006680Y012110D01*
X006673Y012084D01*
X006670Y012058D01*
X006620Y012057D01*
X006620Y012058D01*
X006623Y012086D01*
X006629Y012114D01*
X006638Y012141D01*
X006651Y012167D01*
X006667Y012191D01*
X006686Y012212D01*
X006707Y012231D01*
X006731Y012247D01*
X006757Y012260D01*
X006784Y012269D01*
X006812Y012275D01*
X006840Y012278D01*
X006840Y012269D01*
X006813Y012267D01*
X006786Y012261D01*
X006760Y012252D01*
X006736Y012239D01*
X006713Y012224D01*
X006692Y012206D01*
X006674Y012185D01*
X006659Y012162D01*
X006646Y012138D01*
X006637Y012112D01*
X006631Y012085D01*
X006629Y012058D01*
X006638Y012058D01*
X006641Y012087D01*
X006647Y012114D01*
X006658Y012141D01*
X006672Y012166D01*
X006689Y012189D01*
X006709Y012209D01*
X006732Y012226D01*
X006757Y012240D01*
X006784Y012251D01*
X006811Y012257D01*
X006840Y012260D01*
X006840Y012251D01*
X006813Y012248D01*
X006786Y012242D01*
X006761Y012232D01*
X006737Y012219D01*
X006715Y012202D01*
X006696Y012183D01*
X006679Y012161D01*
X006666Y012137D01*
X006656Y012112D01*
X006650Y012085D01*
X006647Y012058D01*
X006656Y012058D01*
X006659Y012084D01*
X006665Y012109D01*
X006674Y012134D01*
X006687Y012156D01*
X006702Y012177D01*
X006721Y012196D01*
X006742Y012211D01*
X006764Y012224D01*
X006789Y012233D01*
X006814Y012239D01*
X006840Y012242D01*
X006840Y012233D01*
X006815Y012231D01*
X006791Y012225D01*
X006768Y012216D01*
X006747Y012204D01*
X006727Y012189D01*
X006709Y012171D01*
X006694Y012151D01*
X006682Y012130D01*
X006673Y012107D01*
X006667Y012083D01*
X006665Y012058D01*
X007569Y012057D02*
X007519Y012057D01*
X007520Y012058D02*
X007517Y012084D01*
X007510Y012110D01*
X007500Y012134D01*
X007486Y012157D01*
X007469Y012177D01*
X007449Y012194D01*
X007426Y012208D01*
X007402Y012218D01*
X007376Y012225D01*
X007350Y012228D01*
X007349Y012277D01*
X007350Y012278D01*
X007378Y012275D01*
X007406Y012269D01*
X007433Y012260D01*
X007459Y012247D01*
X007483Y012231D01*
X007504Y012212D01*
X007523Y012191D01*
X007539Y012167D01*
X007552Y012141D01*
X007561Y012114D01*
X007567Y012086D01*
X007570Y012058D01*
X007561Y012058D01*
X007559Y012085D01*
X007553Y012112D01*
X007544Y012138D01*
X007531Y012162D01*
X007516Y012185D01*
X007498Y012206D01*
X007477Y012224D01*
X007454Y012239D01*
X007430Y012252D01*
X007404Y012261D01*
X007377Y012267D01*
X007350Y012269D01*
X007350Y012260D01*
X007379Y012257D01*
X007406Y012251D01*
X007433Y012240D01*
X007458Y012226D01*
X007481Y012209D01*
X007501Y012189D01*
X007518Y012166D01*
X007532Y012141D01*
X007543Y012114D01*
X007549Y012087D01*
X007552Y012058D01*
X007543Y012058D01*
X007540Y012085D01*
X007534Y012112D01*
X007524Y012137D01*
X007511Y012161D01*
X007494Y012183D01*
X007475Y012202D01*
X007453Y012219D01*
X007429Y012232D01*
X007404Y012242D01*
X007377Y012248D01*
X007350Y012251D01*
X007350Y012242D01*
X007376Y012239D01*
X007401Y012233D01*
X007426Y012224D01*
X007448Y012211D01*
X007469Y012196D01*
X007488Y012177D01*
X007503Y012156D01*
X007516Y012134D01*
X007525Y012109D01*
X007531Y012084D01*
X007534Y012058D01*
X007525Y012058D01*
X007523Y012083D01*
X007517Y012107D01*
X007508Y012130D01*
X007496Y012151D01*
X007481Y012171D01*
X007463Y012189D01*
X007443Y012204D01*
X007422Y012216D01*
X007399Y012225D01*
X007375Y012231D01*
X007350Y012233D01*
X008129Y012303D02*
X008129Y012253D01*
X008129Y012254D02*
X008103Y012251D01*
X008077Y012244D01*
X008053Y012234D01*
X008030Y012220D01*
X008010Y012203D01*
X007993Y012183D01*
X007979Y012160D01*
X007969Y012136D01*
X007962Y012110D01*
X007959Y012084D01*
X007909Y012083D01*
X007909Y012084D01*
X007912Y012112D01*
X007918Y012140D01*
X007927Y012167D01*
X007940Y012193D01*
X007956Y012217D01*
X007975Y012238D01*
X007996Y012257D01*
X008020Y012273D01*
X008046Y012286D01*
X008073Y012295D01*
X008101Y012301D01*
X008129Y012304D01*
X008129Y012295D01*
X008102Y012293D01*
X008075Y012287D01*
X008049Y012278D01*
X008025Y012265D01*
X008002Y012250D01*
X007981Y012232D01*
X007963Y012211D01*
X007948Y012188D01*
X007935Y012164D01*
X007926Y012138D01*
X007920Y012111D01*
X007918Y012084D01*
X007927Y012084D01*
X007930Y012113D01*
X007936Y012140D01*
X007947Y012167D01*
X007961Y012192D01*
X007978Y012215D01*
X007998Y012235D01*
X008021Y012252D01*
X008046Y012266D01*
X008073Y012277D01*
X008100Y012283D01*
X008129Y012286D01*
X008129Y012277D01*
X008102Y012274D01*
X008075Y012268D01*
X008050Y012258D01*
X008026Y012245D01*
X008004Y012228D01*
X007985Y012209D01*
X007968Y012187D01*
X007955Y012163D01*
X007945Y012138D01*
X007939Y012111D01*
X007936Y012084D01*
X007945Y012084D01*
X007948Y012110D01*
X007954Y012135D01*
X007963Y012160D01*
X007976Y012182D01*
X007991Y012203D01*
X008010Y012222D01*
X008031Y012237D01*
X008053Y012250D01*
X008078Y012259D01*
X008103Y012265D01*
X008129Y012268D01*
X008129Y012259D01*
X008104Y012257D01*
X008080Y012251D01*
X008057Y012242D01*
X008036Y012230D01*
X008016Y012215D01*
X007998Y012197D01*
X007983Y012177D01*
X007971Y012156D01*
X007962Y012133D01*
X007956Y012109D01*
X007954Y012084D01*
X008858Y012083D02*
X008808Y012083D01*
X008809Y012084D02*
X008806Y012110D01*
X008799Y012136D01*
X008789Y012160D01*
X008775Y012183D01*
X008758Y012203D01*
X008738Y012220D01*
X008715Y012234D01*
X008691Y012244D01*
X008665Y012251D01*
X008639Y012254D01*
X008638Y012303D01*
X008639Y012304D01*
X008667Y012301D01*
X008695Y012295D01*
X008722Y012286D01*
X008748Y012273D01*
X008772Y012257D01*
X008793Y012238D01*
X008812Y012217D01*
X008828Y012193D01*
X008841Y012167D01*
X008850Y012140D01*
X008856Y012112D01*
X008859Y012084D01*
X008850Y012084D01*
X008848Y012111D01*
X008842Y012138D01*
X008833Y012164D01*
X008820Y012188D01*
X008805Y012211D01*
X008787Y012232D01*
X008766Y012250D01*
X008743Y012265D01*
X008719Y012278D01*
X008693Y012287D01*
X008666Y012293D01*
X008639Y012295D01*
X008639Y012286D01*
X008668Y012283D01*
X008695Y012277D01*
X008722Y012266D01*
X008747Y012252D01*
X008770Y012235D01*
X008790Y012215D01*
X008807Y012192D01*
X008821Y012167D01*
X008832Y012140D01*
X008838Y012113D01*
X008841Y012084D01*
X008832Y012084D01*
X008829Y012111D01*
X008823Y012138D01*
X008813Y012163D01*
X008800Y012187D01*
X008783Y012209D01*
X008764Y012228D01*
X008742Y012245D01*
X008718Y012258D01*
X008693Y012268D01*
X008666Y012274D01*
X008639Y012277D01*
X008639Y012268D01*
X008665Y012265D01*
X008690Y012259D01*
X008715Y012250D01*
X008737Y012237D01*
X008758Y012222D01*
X008777Y012203D01*
X008792Y012182D01*
X008805Y012160D01*
X008814Y012135D01*
X008820Y012110D01*
X008823Y012084D01*
X008814Y012084D01*
X008812Y012109D01*
X008806Y012133D01*
X008797Y012156D01*
X008785Y012177D01*
X008770Y012197D01*
X008752Y012215D01*
X008732Y012230D01*
X008711Y012242D01*
X008688Y012251D01*
X008664Y012257D01*
X008639Y012259D01*
X010096Y017232D02*
X010146Y017232D01*
X010149Y017217D01*
X010154Y017203D01*
X010163Y017190D01*
X010174Y017179D01*
X010187Y017170D01*
X010201Y017165D01*
X010216Y017162D01*
X010216Y017112D01*
X010195Y017115D01*
X010176Y017121D01*
X010157Y017130D01*
X010140Y017142D01*
X010126Y017156D01*
X010114Y017173D01*
X010105Y017192D01*
X010099Y017211D01*
X010096Y017232D01*
X010105Y017232D01*
X010108Y017211D01*
X010115Y017190D01*
X010125Y017172D01*
X010139Y017155D01*
X010156Y017141D01*
X010174Y017131D01*
X010195Y017124D01*
X010216Y017121D01*
X010216Y017130D01*
X010196Y017133D01*
X010178Y017139D01*
X010161Y017149D01*
X010145Y017161D01*
X010133Y017177D01*
X010123Y017194D01*
X010117Y017212D01*
X010114Y017232D01*
X010123Y017232D01*
X010126Y017214D01*
X010131Y017197D01*
X010140Y017182D01*
X010152Y017168D01*
X010166Y017156D01*
X010181Y017147D01*
X010198Y017142D01*
X010216Y017139D01*
X010216Y017148D01*
X010198Y017151D01*
X010180Y017158D01*
X010165Y017168D01*
X010152Y017181D01*
X010142Y017196D01*
X010135Y017214D01*
X010132Y017232D01*
X010141Y017232D01*
X010144Y017216D01*
X010150Y017200D01*
X010159Y017187D01*
X010171Y017175D01*
X010184Y017166D01*
X010200Y017160D01*
X010216Y017157D01*
X010216Y018061D02*
X010216Y018011D01*
X010216Y018012D02*
X010201Y018009D01*
X010187Y018004D01*
X010174Y017995D01*
X010163Y017984D01*
X010154Y017971D01*
X010149Y017957D01*
X010146Y017942D01*
X010096Y017941D01*
X010096Y017942D01*
X010099Y017963D01*
X010105Y017982D01*
X010114Y018001D01*
X010126Y018018D01*
X010140Y018032D01*
X010157Y018044D01*
X010176Y018053D01*
X010195Y018059D01*
X010216Y018062D01*
X010216Y018053D01*
X010195Y018050D01*
X010174Y018043D01*
X010156Y018033D01*
X010139Y018019D01*
X010125Y018002D01*
X010115Y017984D01*
X010108Y017963D01*
X010105Y017942D01*
X010114Y017942D01*
X010117Y017962D01*
X010123Y017980D01*
X010133Y017997D01*
X010145Y018013D01*
X010161Y018025D01*
X010178Y018035D01*
X010196Y018041D01*
X010216Y018044D01*
X010216Y018035D01*
X010198Y018032D01*
X010181Y018027D01*
X010166Y018018D01*
X010152Y018006D01*
X010140Y017992D01*
X010131Y017977D01*
X010126Y017960D01*
X010123Y017942D01*
X010132Y017942D01*
X010135Y017960D01*
X010142Y017978D01*
X010152Y017993D01*
X010165Y018006D01*
X010180Y018016D01*
X010198Y018023D01*
X010216Y018026D01*
X010216Y018017D01*
X010200Y018014D01*
X010184Y018008D01*
X010171Y017999D01*
X010159Y017987D01*
X010150Y017974D01*
X010144Y017958D01*
X010141Y017942D01*
X009707Y018165D02*
X009684Y018210D01*
X009685Y018210D02*
X009707Y018225D01*
X009727Y018242D01*
X009744Y018263D01*
X009757Y018285D01*
X009767Y018310D01*
X009774Y018336D01*
X009776Y018362D01*
X009774Y018388D01*
X009769Y018414D01*
X009759Y018439D01*
X009803Y018461D01*
X009804Y018462D01*
X009814Y018435D01*
X009822Y018408D01*
X009825Y018379D01*
X009826Y018351D01*
X009822Y018322D01*
X009815Y018294D01*
X009804Y018268D01*
X009791Y018243D01*
X009774Y018220D01*
X009754Y018199D01*
X009732Y018181D01*
X009708Y018166D01*
X009703Y018174D01*
X009727Y018188D01*
X009748Y018206D01*
X009767Y018226D01*
X009783Y018248D01*
X009796Y018272D01*
X009806Y018297D01*
X009813Y018324D01*
X009817Y018351D01*
X009817Y018378D01*
X009813Y018406D01*
X009806Y018432D01*
X009796Y018458D01*
X009788Y018453D01*
X009798Y018427D01*
X009805Y018399D01*
X009808Y018371D01*
X009807Y018342D01*
X009802Y018314D01*
X009793Y018287D01*
X009780Y018261D01*
X009765Y018237D01*
X009745Y018216D01*
X009724Y018197D01*
X009699Y018182D01*
X009695Y018190D01*
X009718Y018205D01*
X009739Y018222D01*
X009757Y018243D01*
X009773Y018265D01*
X009785Y018290D01*
X009793Y018316D01*
X009798Y018343D01*
X009799Y018370D01*
X009796Y018397D01*
X009790Y018424D01*
X009780Y018449D01*
X009772Y018445D01*
X009781Y018421D01*
X009787Y018396D01*
X009790Y018370D01*
X009789Y018344D01*
X009784Y018318D01*
X009776Y018293D01*
X009765Y018270D01*
X009750Y018248D01*
X009733Y018229D01*
X009713Y018212D01*
X009691Y018198D01*
X009687Y018206D01*
X009708Y018219D01*
X009727Y018235D01*
X009743Y018254D01*
X009757Y018274D01*
X009768Y018297D01*
X009776Y018320D01*
X009780Y018345D01*
X009781Y018369D01*
X009778Y018394D01*
X009773Y018418D01*
X009764Y018441D01*
X009572Y018916D02*
X009527Y018893D01*
X009528Y018894D02*
X009513Y018916D01*
X009496Y018936D01*
X009475Y018953D01*
X009453Y018966D01*
X009428Y018976D01*
X009402Y018983D01*
X009376Y018985D01*
X009350Y018983D01*
X009324Y018978D01*
X009299Y018968D01*
X009276Y019012D01*
X009276Y019013D01*
X009303Y019023D01*
X009330Y019031D01*
X009359Y019034D01*
X009387Y019035D01*
X009416Y019031D01*
X009444Y019024D01*
X009470Y019013D01*
X009495Y019000D01*
X009518Y018983D01*
X009539Y018963D01*
X009557Y018941D01*
X009572Y018917D01*
X009564Y018912D01*
X009550Y018936D01*
X009532Y018957D01*
X009512Y018976D01*
X009490Y018992D01*
X009466Y019005D01*
X009441Y019015D01*
X009414Y019022D01*
X009387Y019026D01*
X009360Y019026D01*
X009332Y019022D01*
X009306Y019015D01*
X009280Y019005D01*
X009285Y018997D01*
X009311Y019007D01*
X009339Y019014D01*
X009367Y019017D01*
X009396Y019016D01*
X009424Y019011D01*
X009451Y019002D01*
X009477Y018989D01*
X009501Y018974D01*
X009522Y018954D01*
X009541Y018933D01*
X009556Y018908D01*
X009548Y018904D01*
X009533Y018927D01*
X009516Y018948D01*
X009495Y018966D01*
X009473Y018982D01*
X009448Y018994D01*
X009422Y019002D01*
X009395Y019007D01*
X009368Y019008D01*
X009341Y019005D01*
X009314Y018999D01*
X009289Y018989D01*
X009293Y018981D01*
X009317Y018990D01*
X009342Y018996D01*
X009368Y018999D01*
X009394Y018998D01*
X009420Y018993D01*
X009445Y018985D01*
X009468Y018974D01*
X009490Y018959D01*
X009509Y018942D01*
X009526Y018922D01*
X009540Y018900D01*
X009532Y018896D01*
X009519Y018917D01*
X009503Y018936D01*
X009484Y018952D01*
X009464Y018966D01*
X009441Y018977D01*
X009418Y018985D01*
X009393Y018989D01*
X009369Y018990D01*
X009344Y018987D01*
X009320Y018982D01*
X009297Y018973D01*
X008109Y018418D02*
X008132Y018373D01*
X008132Y018374D02*
X008110Y018359D01*
X008090Y018342D01*
X008073Y018321D01*
X008060Y018299D01*
X008050Y018274D01*
X008043Y018248D01*
X008041Y018222D01*
X008043Y018196D01*
X008048Y018170D01*
X008058Y018145D01*
X008013Y018122D01*
X008003Y018149D01*
X007995Y018176D01*
X007992Y018205D01*
X007991Y018233D01*
X007995Y018262D01*
X008002Y018290D01*
X008013Y018316D01*
X008026Y018341D01*
X008043Y018364D01*
X008063Y018385D01*
X008085Y018403D01*
X008109Y018418D01*
X008114Y018410D01*
X008090Y018396D01*
X008069Y018378D01*
X008050Y018358D01*
X008034Y018336D01*
X008021Y018312D01*
X008011Y018287D01*
X008004Y018260D01*
X008000Y018233D01*
X008000Y018206D01*
X008004Y018178D01*
X008011Y018152D01*
X008021Y018126D01*
X008029Y018131D01*
X008019Y018157D01*
X008012Y018185D01*
X008009Y018213D01*
X008010Y018242D01*
X008015Y018270D01*
X008024Y018297D01*
X008037Y018323D01*
X008052Y018347D01*
X008072Y018368D01*
X008093Y018387D01*
X008118Y018402D01*
X008122Y018394D01*
X008099Y018379D01*
X008078Y018362D01*
X008060Y018341D01*
X008044Y018319D01*
X008032Y018294D01*
X008024Y018268D01*
X008019Y018241D01*
X008018Y018214D01*
X008021Y018187D01*
X008027Y018160D01*
X008037Y018135D01*
X008045Y018139D01*
X008036Y018163D01*
X008030Y018188D01*
X008027Y018214D01*
X008028Y018240D01*
X008033Y018266D01*
X008041Y018291D01*
X008052Y018314D01*
X008067Y018336D01*
X008084Y018355D01*
X008104Y018372D01*
X008126Y018386D01*
X008130Y018378D01*
X008109Y018365D01*
X008090Y018349D01*
X008074Y018330D01*
X008060Y018310D01*
X008049Y018287D01*
X008041Y018264D01*
X008037Y018239D01*
X008036Y018215D01*
X008039Y018190D01*
X008044Y018166D01*
X008053Y018143D01*
X008244Y017667D02*
X008289Y017690D01*
X008304Y017668D01*
X008321Y017648D01*
X008342Y017631D01*
X008364Y017618D01*
X008389Y017608D01*
X008415Y017601D01*
X008441Y017599D01*
X008467Y017601D01*
X008493Y017606D01*
X008518Y017616D01*
X008540Y017571D01*
X008541Y017571D01*
X008514Y017561D01*
X008487Y017553D01*
X008458Y017550D01*
X008430Y017549D01*
X008401Y017553D01*
X008373Y017560D01*
X008347Y017571D01*
X008322Y017584D01*
X008299Y017601D01*
X008278Y017621D01*
X008260Y017643D01*
X008245Y017667D01*
X008253Y017672D01*
X008267Y017648D01*
X008285Y017627D01*
X008305Y017608D01*
X008327Y017592D01*
X008351Y017579D01*
X008376Y017569D01*
X008403Y017562D01*
X008430Y017558D01*
X008457Y017558D01*
X008485Y017562D01*
X008511Y017569D01*
X008537Y017579D01*
X008532Y017587D01*
X008506Y017577D01*
X008478Y017570D01*
X008450Y017567D01*
X008421Y017568D01*
X008393Y017573D01*
X008366Y017582D01*
X008340Y017595D01*
X008316Y017610D01*
X008295Y017630D01*
X008276Y017651D01*
X008261Y017676D01*
X008269Y017680D01*
X008284Y017657D01*
X008301Y017636D01*
X008322Y017618D01*
X008344Y017602D01*
X008369Y017590D01*
X008395Y017582D01*
X008422Y017577D01*
X008449Y017576D01*
X008476Y017579D01*
X008503Y017585D01*
X008528Y017595D01*
X008524Y017603D01*
X008500Y017594D01*
X008475Y017588D01*
X008449Y017585D01*
X008423Y017586D01*
X008397Y017591D01*
X008372Y017599D01*
X008349Y017610D01*
X008327Y017625D01*
X008308Y017642D01*
X008291Y017662D01*
X008277Y017684D01*
X008285Y017688D01*
X008298Y017667D01*
X008314Y017648D01*
X008333Y017632D01*
X008353Y017618D01*
X008376Y017607D01*
X008399Y017599D01*
X008424Y017595D01*
X008448Y017594D01*
X008473Y017597D01*
X008497Y017602D01*
X008520Y017611D01*
X007179Y018175D02*
X007156Y018220D01*
X007157Y018220D02*
X007179Y018235D01*
X007199Y018252D01*
X007216Y018273D01*
X007229Y018295D01*
X007239Y018320D01*
X007246Y018346D01*
X007248Y018372D01*
X007246Y018398D01*
X007241Y018424D01*
X007231Y018449D01*
X007275Y018471D01*
X007276Y018472D01*
X007286Y018445D01*
X007294Y018418D01*
X007297Y018389D01*
X007298Y018361D01*
X007294Y018332D01*
X007287Y018304D01*
X007276Y018278D01*
X007263Y018253D01*
X007246Y018230D01*
X007226Y018209D01*
X007204Y018191D01*
X007180Y018176D01*
X007175Y018184D01*
X007199Y018198D01*
X007220Y018216D01*
X007239Y018236D01*
X007255Y018258D01*
X007268Y018282D01*
X007278Y018307D01*
X007285Y018334D01*
X007289Y018361D01*
X007289Y018388D01*
X007285Y018416D01*
X007278Y018442D01*
X007268Y018468D01*
X007260Y018463D01*
X007270Y018437D01*
X007277Y018409D01*
X007280Y018381D01*
X007279Y018352D01*
X007274Y018324D01*
X007265Y018297D01*
X007252Y018271D01*
X007237Y018247D01*
X007217Y018226D01*
X007196Y018207D01*
X007171Y018192D01*
X007167Y018200D01*
X007190Y018215D01*
X007211Y018232D01*
X007229Y018253D01*
X007245Y018275D01*
X007257Y018300D01*
X007265Y018326D01*
X007270Y018353D01*
X007271Y018380D01*
X007268Y018407D01*
X007262Y018434D01*
X007252Y018459D01*
X007244Y018455D01*
X007253Y018431D01*
X007259Y018406D01*
X007262Y018380D01*
X007261Y018354D01*
X007256Y018328D01*
X007248Y018303D01*
X007237Y018280D01*
X007222Y018258D01*
X007205Y018239D01*
X007185Y018222D01*
X007163Y018208D01*
X007159Y018216D01*
X007180Y018229D01*
X007199Y018245D01*
X007215Y018264D01*
X007229Y018284D01*
X007240Y018307D01*
X007248Y018330D01*
X007252Y018355D01*
X007253Y018379D01*
X007250Y018404D01*
X007245Y018428D01*
X007236Y018451D01*
X007044Y018926D02*
X006999Y018903D01*
X007000Y018904D02*
X006985Y018926D01*
X006968Y018946D01*
X006947Y018963D01*
X006925Y018976D01*
X006900Y018986D01*
X006874Y018993D01*
X006848Y018995D01*
X006822Y018993D01*
X006796Y018988D01*
X006771Y018978D01*
X006748Y019022D01*
X006748Y019023D01*
X006775Y019033D01*
X006802Y019041D01*
X006831Y019044D01*
X006859Y019045D01*
X006888Y019041D01*
X006916Y019034D01*
X006942Y019023D01*
X006967Y019010D01*
X006990Y018993D01*
X007011Y018973D01*
X007029Y018951D01*
X007044Y018927D01*
X007036Y018922D01*
X007022Y018946D01*
X007004Y018967D01*
X006984Y018986D01*
X006962Y019002D01*
X006938Y019015D01*
X006913Y019025D01*
X006886Y019032D01*
X006859Y019036D01*
X006832Y019036D01*
X006804Y019032D01*
X006778Y019025D01*
X006752Y019015D01*
X006757Y019007D01*
X006783Y019017D01*
X006811Y019024D01*
X006839Y019027D01*
X006868Y019026D01*
X006896Y019021D01*
X006923Y019012D01*
X006949Y018999D01*
X006973Y018984D01*
X006994Y018964D01*
X007013Y018943D01*
X007028Y018918D01*
X007020Y018914D01*
X007005Y018937D01*
X006988Y018958D01*
X006967Y018976D01*
X006945Y018992D01*
X006920Y019004D01*
X006894Y019012D01*
X006867Y019017D01*
X006840Y019018D01*
X006813Y019015D01*
X006786Y019009D01*
X006761Y018999D01*
X006765Y018991D01*
X006789Y019000D01*
X006814Y019006D01*
X006840Y019009D01*
X006866Y019008D01*
X006892Y019003D01*
X006917Y018995D01*
X006940Y018984D01*
X006962Y018969D01*
X006981Y018952D01*
X006998Y018932D01*
X007012Y018910D01*
X007004Y018906D01*
X006991Y018927D01*
X006975Y018946D01*
X006956Y018962D01*
X006936Y018976D01*
X006913Y018987D01*
X006890Y018995D01*
X006865Y018999D01*
X006841Y019000D01*
X006816Y018997D01*
X006792Y018992D01*
X006769Y018983D01*
X005581Y018428D02*
X005604Y018383D01*
X005604Y018384D02*
X005582Y018369D01*
X005562Y018352D01*
X005545Y018331D01*
X005532Y018309D01*
X005522Y018284D01*
X005515Y018258D01*
X005513Y018232D01*
X005515Y018206D01*
X005520Y018180D01*
X005530Y018155D01*
X005485Y018132D01*
X005475Y018159D01*
X005467Y018186D01*
X005464Y018215D01*
X005463Y018243D01*
X005467Y018272D01*
X005474Y018300D01*
X005485Y018326D01*
X005498Y018351D01*
X005515Y018374D01*
X005535Y018395D01*
X005557Y018413D01*
X005581Y018428D01*
X005586Y018420D01*
X005562Y018406D01*
X005541Y018388D01*
X005522Y018368D01*
X005506Y018346D01*
X005493Y018322D01*
X005483Y018297D01*
X005476Y018270D01*
X005472Y018243D01*
X005472Y018216D01*
X005476Y018188D01*
X005483Y018162D01*
X005493Y018136D01*
X005501Y018141D01*
X005491Y018167D01*
X005484Y018195D01*
X005481Y018223D01*
X005482Y018252D01*
X005487Y018280D01*
X005496Y018307D01*
X005509Y018333D01*
X005524Y018357D01*
X005544Y018378D01*
X005565Y018397D01*
X005590Y018412D01*
X005594Y018404D01*
X005571Y018389D01*
X005550Y018372D01*
X005532Y018351D01*
X005516Y018329D01*
X005504Y018304D01*
X005496Y018278D01*
X005491Y018251D01*
X005490Y018224D01*
X005493Y018197D01*
X005499Y018170D01*
X005509Y018145D01*
X005517Y018149D01*
X005508Y018173D01*
X005502Y018198D01*
X005499Y018224D01*
X005500Y018250D01*
X005505Y018276D01*
X005513Y018301D01*
X005524Y018324D01*
X005539Y018346D01*
X005556Y018365D01*
X005576Y018382D01*
X005598Y018396D01*
X005602Y018388D01*
X005581Y018375D01*
X005562Y018359D01*
X005546Y018340D01*
X005532Y018320D01*
X005521Y018297D01*
X005513Y018274D01*
X005509Y018249D01*
X005508Y018225D01*
X005511Y018200D01*
X005516Y018176D01*
X005525Y018153D01*
X005716Y017677D02*
X005761Y017700D01*
X005776Y017678D01*
X005793Y017658D01*
X005814Y017641D01*
X005836Y017628D01*
X005861Y017618D01*
X005887Y017611D01*
X005913Y017609D01*
X005939Y017611D01*
X005965Y017616D01*
X005990Y017626D01*
X006012Y017581D01*
X006013Y017581D01*
X005986Y017571D01*
X005959Y017563D01*
X005930Y017560D01*
X005902Y017559D01*
X005873Y017563D01*
X005845Y017570D01*
X005819Y017581D01*
X005794Y017594D01*
X005771Y017611D01*
X005750Y017631D01*
X005732Y017653D01*
X005717Y017677D01*
X005725Y017682D01*
X005739Y017658D01*
X005757Y017637D01*
X005777Y017618D01*
X005799Y017602D01*
X005823Y017589D01*
X005848Y017579D01*
X005875Y017572D01*
X005902Y017568D01*
X005929Y017568D01*
X005957Y017572D01*
X005983Y017579D01*
X006009Y017589D01*
X006004Y017597D01*
X005978Y017587D01*
X005950Y017580D01*
X005922Y017577D01*
X005893Y017578D01*
X005865Y017583D01*
X005838Y017592D01*
X005812Y017605D01*
X005788Y017620D01*
X005767Y017640D01*
X005748Y017661D01*
X005733Y017686D01*
X005741Y017690D01*
X005756Y017667D01*
X005773Y017646D01*
X005794Y017628D01*
X005816Y017612D01*
X005841Y017600D01*
X005867Y017592D01*
X005894Y017587D01*
X005921Y017586D01*
X005948Y017589D01*
X005975Y017595D01*
X006000Y017605D01*
X005996Y017613D01*
X005972Y017604D01*
X005947Y017598D01*
X005921Y017595D01*
X005895Y017596D01*
X005869Y017601D01*
X005844Y017609D01*
X005821Y017620D01*
X005799Y017635D01*
X005780Y017652D01*
X005763Y017672D01*
X005749Y017694D01*
X005757Y017698D01*
X005770Y017677D01*
X005786Y017658D01*
X005805Y017642D01*
X005825Y017628D01*
X005848Y017617D01*
X005871Y017609D01*
X005896Y017605D01*
X005920Y017604D01*
X005945Y017607D01*
X005969Y017612D01*
X005992Y017621D01*
X010610Y018377D02*
X010660Y018377D01*
X010663Y018351D01*
X010670Y018325D01*
X010680Y018301D01*
X010694Y018278D01*
X010711Y018258D01*
X010731Y018241D01*
X010754Y018227D01*
X010778Y018217D01*
X010804Y018210D01*
X010830Y018207D01*
X010830Y018157D01*
X010802Y018160D01*
X010774Y018166D01*
X010747Y018175D01*
X010721Y018188D01*
X010697Y018204D01*
X010676Y018223D01*
X010657Y018244D01*
X010641Y018268D01*
X010628Y018294D01*
X010619Y018321D01*
X010613Y018349D01*
X010610Y018377D01*
X010619Y018377D01*
X010621Y018350D01*
X010627Y018323D01*
X010636Y018297D01*
X010649Y018273D01*
X010664Y018250D01*
X010682Y018229D01*
X010703Y018211D01*
X010726Y018196D01*
X010750Y018183D01*
X010776Y018174D01*
X010803Y018168D01*
X010830Y018166D01*
X010830Y018175D01*
X010801Y018178D01*
X010774Y018184D01*
X010747Y018195D01*
X010722Y018209D01*
X010699Y018226D01*
X010679Y018246D01*
X010662Y018269D01*
X010648Y018294D01*
X010637Y018321D01*
X010631Y018348D01*
X010628Y018377D01*
X010637Y018377D01*
X010640Y018350D01*
X010646Y018323D01*
X010656Y018298D01*
X010669Y018274D01*
X010686Y018252D01*
X010705Y018233D01*
X010727Y018216D01*
X010751Y018203D01*
X010776Y018193D01*
X010803Y018187D01*
X010830Y018184D01*
X010830Y018193D01*
X010804Y018196D01*
X010779Y018202D01*
X010754Y018211D01*
X010732Y018224D01*
X010711Y018239D01*
X010692Y018258D01*
X010677Y018279D01*
X010664Y018301D01*
X010655Y018326D01*
X010649Y018351D01*
X010646Y018377D01*
X010655Y018377D01*
X010657Y018352D01*
X010663Y018328D01*
X010672Y018305D01*
X010684Y018284D01*
X010699Y018264D01*
X010717Y018246D01*
X010737Y018231D01*
X010758Y018219D01*
X010781Y018210D01*
X010805Y018204D01*
X010830Y018202D01*
X010830Y019106D02*
X010830Y019056D01*
X010830Y019057D02*
X010804Y019054D01*
X010778Y019047D01*
X010754Y019037D01*
X010731Y019023D01*
X010711Y019006D01*
X010694Y018986D01*
X010680Y018963D01*
X010670Y018939D01*
X010663Y018913D01*
X010660Y018887D01*
X010610Y018886D01*
X010610Y018887D01*
X010613Y018915D01*
X010619Y018943D01*
X010628Y018970D01*
X010641Y018996D01*
X010657Y019020D01*
X010676Y019041D01*
X010697Y019060D01*
X010721Y019076D01*
X010747Y019089D01*
X010774Y019098D01*
X010802Y019104D01*
X010830Y019107D01*
X010830Y019098D01*
X010803Y019096D01*
X010776Y019090D01*
X010750Y019081D01*
X010726Y019068D01*
X010703Y019053D01*
X010682Y019035D01*
X010664Y019014D01*
X010649Y018991D01*
X010636Y018967D01*
X010627Y018941D01*
X010621Y018914D01*
X010619Y018887D01*
X010628Y018887D01*
X010631Y018916D01*
X010637Y018943D01*
X010648Y018970D01*
X010662Y018995D01*
X010679Y019018D01*
X010699Y019038D01*
X010722Y019055D01*
X010747Y019069D01*
X010774Y019080D01*
X010801Y019086D01*
X010830Y019089D01*
X010830Y019080D01*
X010803Y019077D01*
X010776Y019071D01*
X010751Y019061D01*
X010727Y019048D01*
X010705Y019031D01*
X010686Y019012D01*
X010669Y018990D01*
X010656Y018966D01*
X010646Y018941D01*
X010640Y018914D01*
X010637Y018887D01*
X010646Y018887D01*
X010649Y018913D01*
X010655Y018938D01*
X010664Y018963D01*
X010677Y018985D01*
X010692Y019006D01*
X010711Y019025D01*
X010732Y019040D01*
X010754Y019053D01*
X010779Y019062D01*
X010804Y019068D01*
X010830Y019071D01*
X010830Y019062D01*
X010805Y019060D01*
X010781Y019054D01*
X010758Y019045D01*
X010737Y019033D01*
X010717Y019018D01*
X010699Y019000D01*
X010684Y018980D01*
X010672Y018959D01*
X010663Y018936D01*
X010657Y018912D01*
X010655Y018887D01*
X012359Y018886D02*
X012309Y018886D01*
X012310Y018887D02*
X012307Y018913D01*
X012300Y018939D01*
X012290Y018963D01*
X012276Y018986D01*
X012259Y019006D01*
X012239Y019023D01*
X012216Y019037D01*
X012192Y019047D01*
X012166Y019054D01*
X012140Y019057D01*
X012139Y019106D01*
X012140Y019107D01*
X012168Y019104D01*
X012196Y019098D01*
X012223Y019089D01*
X012249Y019076D01*
X012273Y019060D01*
X012294Y019041D01*
X012313Y019020D01*
X012329Y018996D01*
X012342Y018970D01*
X012351Y018943D01*
X012357Y018915D01*
X012360Y018887D01*
X012351Y018887D01*
X012349Y018914D01*
X012343Y018941D01*
X012334Y018967D01*
X012321Y018991D01*
X012306Y019014D01*
X012288Y019035D01*
X012267Y019053D01*
X012244Y019068D01*
X012220Y019081D01*
X012194Y019090D01*
X012167Y019096D01*
X012140Y019098D01*
X012140Y019089D01*
X012169Y019086D01*
X012196Y019080D01*
X012223Y019069D01*
X012248Y019055D01*
X012271Y019038D01*
X012291Y019018D01*
X012308Y018995D01*
X012322Y018970D01*
X012333Y018943D01*
X012339Y018916D01*
X012342Y018887D01*
X012333Y018887D01*
X012330Y018914D01*
X012324Y018941D01*
X012314Y018966D01*
X012301Y018990D01*
X012284Y019012D01*
X012265Y019031D01*
X012243Y019048D01*
X012219Y019061D01*
X012194Y019071D01*
X012167Y019077D01*
X012140Y019080D01*
X012140Y019071D01*
X012166Y019068D01*
X012191Y019062D01*
X012216Y019053D01*
X012238Y019040D01*
X012259Y019025D01*
X012278Y019006D01*
X012293Y018985D01*
X012306Y018963D01*
X012315Y018938D01*
X012321Y018913D01*
X012324Y018887D01*
X012315Y018887D01*
X012313Y018912D01*
X012307Y018936D01*
X012298Y018959D01*
X012286Y018980D01*
X012271Y019000D01*
X012253Y019018D01*
X012233Y019033D01*
X012212Y019045D01*
X012189Y019054D01*
X012165Y019060D01*
X012140Y019062D01*
X012139Y018157D02*
X012139Y018207D01*
X012140Y018207D02*
X012166Y018210D01*
X012192Y018217D01*
X012216Y018227D01*
X012239Y018241D01*
X012259Y018258D01*
X012276Y018278D01*
X012290Y018301D01*
X012300Y018325D01*
X012307Y018351D01*
X012310Y018377D01*
X012359Y018377D01*
X012360Y018377D01*
X012357Y018349D01*
X012351Y018321D01*
X012342Y018294D01*
X012329Y018268D01*
X012313Y018244D01*
X012294Y018223D01*
X012273Y018204D01*
X012249Y018188D01*
X012223Y018175D01*
X012196Y018166D01*
X012168Y018160D01*
X012140Y018157D01*
X012140Y018166D01*
X012167Y018168D01*
X012194Y018174D01*
X012220Y018183D01*
X012244Y018196D01*
X012267Y018211D01*
X012288Y018229D01*
X012306Y018250D01*
X012321Y018273D01*
X012334Y018297D01*
X012343Y018323D01*
X012349Y018350D01*
X012351Y018377D01*
X012342Y018377D01*
X012339Y018348D01*
X012333Y018321D01*
X012322Y018294D01*
X012308Y018269D01*
X012291Y018246D01*
X012271Y018226D01*
X012248Y018209D01*
X012223Y018195D01*
X012196Y018184D01*
X012169Y018178D01*
X012140Y018175D01*
X012140Y018184D01*
X012167Y018187D01*
X012194Y018193D01*
X012219Y018203D01*
X012243Y018216D01*
X012265Y018233D01*
X012284Y018252D01*
X012301Y018274D01*
X012314Y018298D01*
X012324Y018323D01*
X012330Y018350D01*
X012333Y018377D01*
X012324Y018377D01*
X012321Y018351D01*
X012315Y018326D01*
X012306Y018301D01*
X012293Y018279D01*
X012278Y018258D01*
X012259Y018239D01*
X012238Y018224D01*
X012216Y018211D01*
X012191Y018202D01*
X012166Y018196D01*
X012140Y018193D01*
X012140Y018202D01*
X012165Y018204D01*
X012189Y018210D01*
X012212Y018219D01*
X012233Y018231D01*
X012253Y018246D01*
X012271Y018264D01*
X012286Y018284D01*
X012298Y018305D01*
X012307Y018328D01*
X012313Y018352D01*
X012315Y018377D01*
X012645Y017941D02*
X012595Y017941D01*
X012596Y017942D02*
X012593Y017957D01*
X012588Y017971D01*
X012579Y017984D01*
X012568Y017995D01*
X012555Y018004D01*
X012541Y018009D01*
X012526Y018012D01*
X012525Y018061D01*
X012526Y018062D01*
X012547Y018059D01*
X012566Y018053D01*
X012585Y018044D01*
X012602Y018032D01*
X012616Y018018D01*
X012628Y018001D01*
X012637Y017982D01*
X012643Y017963D01*
X012646Y017942D01*
X012637Y017942D01*
X012634Y017963D01*
X012627Y017984D01*
X012617Y018002D01*
X012603Y018019D01*
X012586Y018033D01*
X012568Y018043D01*
X012547Y018050D01*
X012526Y018053D01*
X012526Y018044D01*
X012546Y018041D01*
X012564Y018035D01*
X012581Y018025D01*
X012597Y018013D01*
X012609Y017997D01*
X012619Y017980D01*
X012625Y017962D01*
X012628Y017942D01*
X012619Y017942D01*
X012616Y017960D01*
X012611Y017977D01*
X012602Y017992D01*
X012590Y018006D01*
X012576Y018018D01*
X012561Y018027D01*
X012544Y018032D01*
X012526Y018035D01*
X012526Y018026D01*
X012544Y018023D01*
X012562Y018016D01*
X012577Y018006D01*
X012590Y017993D01*
X012600Y017978D01*
X012607Y017960D01*
X012610Y017942D01*
X012601Y017942D01*
X012598Y017958D01*
X012592Y017974D01*
X012583Y017987D01*
X012571Y017999D01*
X012558Y018008D01*
X012542Y018014D01*
X012526Y018017D01*
X012525Y017112D02*
X012525Y017162D01*
X012526Y017162D02*
X012541Y017165D01*
X012555Y017170D01*
X012568Y017179D01*
X012579Y017190D01*
X012588Y017203D01*
X012593Y017217D01*
X012596Y017232D01*
X012645Y017232D01*
X012646Y017232D01*
X012643Y017211D01*
X012637Y017192D01*
X012628Y017173D01*
X012616Y017156D01*
X012602Y017142D01*
X012585Y017130D01*
X012566Y017121D01*
X012547Y017115D01*
X012526Y017112D01*
X012526Y017121D01*
X012547Y017124D01*
X012568Y017131D01*
X012586Y017141D01*
X012603Y017155D01*
X012617Y017172D01*
X012627Y017190D01*
X012634Y017211D01*
X012637Y017232D01*
X012628Y017232D01*
X012625Y017212D01*
X012619Y017194D01*
X012609Y017177D01*
X012597Y017161D01*
X012581Y017149D01*
X012564Y017139D01*
X012546Y017133D01*
X012526Y017130D01*
X012526Y017139D01*
X012544Y017142D01*
X012561Y017147D01*
X012576Y017156D01*
X012590Y017168D01*
X012602Y017182D01*
X012611Y017197D01*
X012616Y017214D01*
X012619Y017232D01*
X012610Y017232D01*
X012607Y017214D01*
X012600Y017196D01*
X012590Y017181D01*
X012577Y017168D01*
X012562Y017158D01*
X012544Y017151D01*
X012526Y017148D01*
X012526Y017157D01*
X012542Y017160D01*
X012558Y017166D01*
X012571Y017175D01*
X012583Y017187D01*
X012592Y017200D01*
X012598Y017216D01*
X012601Y017232D01*
X014606Y016401D02*
X014606Y016351D01*
X014606Y016352D02*
X014591Y016349D01*
X014577Y016344D01*
X014564Y016335D01*
X014553Y016324D01*
X014544Y016311D01*
X014539Y016297D01*
X014536Y016282D01*
X014486Y016281D01*
X014486Y016282D01*
X014489Y016303D01*
X014495Y016322D01*
X014504Y016341D01*
X014516Y016358D01*
X014530Y016372D01*
X014547Y016384D01*
X014566Y016393D01*
X014585Y016399D01*
X014606Y016402D01*
X014606Y016393D01*
X014585Y016390D01*
X014564Y016383D01*
X014546Y016373D01*
X014529Y016359D01*
X014515Y016342D01*
X014505Y016324D01*
X014498Y016303D01*
X014495Y016282D01*
X014504Y016282D01*
X014507Y016302D01*
X014513Y016320D01*
X014523Y016337D01*
X014535Y016353D01*
X014551Y016365D01*
X014568Y016375D01*
X014586Y016381D01*
X014606Y016384D01*
X014606Y016375D01*
X014588Y016372D01*
X014571Y016367D01*
X014556Y016358D01*
X014542Y016346D01*
X014530Y016332D01*
X014521Y016317D01*
X014516Y016300D01*
X014513Y016282D01*
X014522Y016282D01*
X014525Y016300D01*
X014532Y016318D01*
X014542Y016333D01*
X014555Y016346D01*
X014570Y016356D01*
X014588Y016363D01*
X014606Y016366D01*
X014606Y016357D01*
X014590Y016354D01*
X014574Y016348D01*
X014561Y016339D01*
X014549Y016327D01*
X014540Y016314D01*
X014534Y016298D01*
X014531Y016282D01*
X014486Y015572D02*
X014536Y015572D01*
X014539Y015557D01*
X014544Y015543D01*
X014553Y015530D01*
X014564Y015519D01*
X014577Y015510D01*
X014591Y015505D01*
X014606Y015502D01*
X014606Y015452D01*
X014585Y015455D01*
X014566Y015461D01*
X014547Y015470D01*
X014530Y015482D01*
X014516Y015496D01*
X014504Y015513D01*
X014495Y015532D01*
X014489Y015551D01*
X014486Y015572D01*
X014495Y015572D01*
X014498Y015551D01*
X014505Y015530D01*
X014515Y015512D01*
X014529Y015495D01*
X014546Y015481D01*
X014564Y015471D01*
X014585Y015464D01*
X014606Y015461D01*
X014606Y015470D01*
X014586Y015473D01*
X014568Y015479D01*
X014551Y015489D01*
X014535Y015501D01*
X014523Y015517D01*
X014513Y015534D01*
X014507Y015552D01*
X014504Y015572D01*
X014513Y015572D01*
X014516Y015554D01*
X014521Y015537D01*
X014530Y015522D01*
X014542Y015508D01*
X014556Y015496D01*
X014571Y015487D01*
X014588Y015482D01*
X014606Y015479D01*
X014606Y015488D01*
X014588Y015491D01*
X014570Y015498D01*
X014555Y015508D01*
X014542Y015521D01*
X014532Y015536D01*
X014525Y015554D01*
X014522Y015572D01*
X014531Y015572D01*
X014534Y015556D01*
X014540Y015540D01*
X014549Y015527D01*
X014561Y015515D01*
X014574Y015506D01*
X014590Y015500D01*
X014606Y015497D01*
X016915Y015452D02*
X016915Y015502D01*
X016916Y015502D02*
X016931Y015505D01*
X016945Y015510D01*
X016958Y015519D01*
X016969Y015530D01*
X016978Y015543D01*
X016983Y015557D01*
X016986Y015572D01*
X017035Y015572D01*
X017036Y015572D01*
X017033Y015551D01*
X017027Y015532D01*
X017018Y015513D01*
X017006Y015496D01*
X016992Y015482D01*
X016975Y015470D01*
X016956Y015461D01*
X016937Y015455D01*
X016916Y015452D01*
X016916Y015461D01*
X016937Y015464D01*
X016958Y015471D01*
X016976Y015481D01*
X016993Y015495D01*
X017007Y015512D01*
X017017Y015530D01*
X017024Y015551D01*
X017027Y015572D01*
X017018Y015572D01*
X017015Y015552D01*
X017009Y015534D01*
X016999Y015517D01*
X016987Y015501D01*
X016971Y015489D01*
X016954Y015479D01*
X016936Y015473D01*
X016916Y015470D01*
X016916Y015479D01*
X016934Y015482D01*
X016951Y015487D01*
X016966Y015496D01*
X016980Y015508D01*
X016992Y015522D01*
X017001Y015537D01*
X017006Y015554D01*
X017009Y015572D01*
X017000Y015572D01*
X016997Y015554D01*
X016990Y015536D01*
X016980Y015521D01*
X016967Y015508D01*
X016952Y015498D01*
X016934Y015491D01*
X016916Y015488D01*
X016916Y015497D01*
X016932Y015500D01*
X016948Y015506D01*
X016961Y015515D01*
X016973Y015527D01*
X016982Y015540D01*
X016988Y015556D01*
X016991Y015572D01*
X017035Y016281D02*
X016985Y016281D01*
X016986Y016282D02*
X016983Y016297D01*
X016978Y016311D01*
X016969Y016324D01*
X016958Y016335D01*
X016945Y016344D01*
X016931Y016349D01*
X016916Y016352D01*
X016915Y016401D01*
X016916Y016402D01*
X016937Y016399D01*
X016956Y016393D01*
X016975Y016384D01*
X016992Y016372D01*
X017006Y016358D01*
X017018Y016341D01*
X017027Y016322D01*
X017033Y016303D01*
X017036Y016282D01*
X017027Y016282D01*
X017024Y016303D01*
X017017Y016324D01*
X017007Y016342D01*
X016993Y016359D01*
X016976Y016373D01*
X016958Y016383D01*
X016937Y016390D01*
X016916Y016393D01*
X016916Y016384D01*
X016936Y016381D01*
X016954Y016375D01*
X016971Y016365D01*
X016987Y016353D01*
X016999Y016337D01*
X017009Y016320D01*
X017015Y016302D01*
X017018Y016282D01*
X017009Y016282D01*
X017006Y016300D01*
X017001Y016317D01*
X016992Y016332D01*
X016980Y016346D01*
X016966Y016358D01*
X016951Y016367D01*
X016934Y016372D01*
X016916Y016375D01*
X016916Y016366D01*
X016934Y016363D01*
X016952Y016356D01*
X016967Y016346D01*
X016980Y016333D01*
X016990Y016318D01*
X016997Y016300D01*
X017000Y016282D01*
X016991Y016282D01*
X016988Y016298D01*
X016982Y016314D01*
X016973Y016327D01*
X016961Y016339D01*
X016948Y016348D01*
X016932Y016354D01*
X016916Y016357D01*
X018308Y016995D02*
X018308Y016945D01*
X018308Y016946D02*
X018282Y016943D01*
X018256Y016936D01*
X018232Y016926D01*
X018209Y016912D01*
X018189Y016895D01*
X018172Y016875D01*
X018158Y016852D01*
X018148Y016828D01*
X018141Y016802D01*
X018138Y016776D01*
X018088Y016775D01*
X018088Y016776D01*
X018091Y016804D01*
X018097Y016832D01*
X018106Y016859D01*
X018119Y016885D01*
X018135Y016909D01*
X018154Y016930D01*
X018175Y016949D01*
X018199Y016965D01*
X018225Y016978D01*
X018252Y016987D01*
X018280Y016993D01*
X018308Y016996D01*
X018308Y016987D01*
X018281Y016985D01*
X018254Y016979D01*
X018228Y016970D01*
X018204Y016957D01*
X018181Y016942D01*
X018160Y016924D01*
X018142Y016903D01*
X018127Y016880D01*
X018114Y016856D01*
X018105Y016830D01*
X018099Y016803D01*
X018097Y016776D01*
X018106Y016776D01*
X018109Y016805D01*
X018115Y016832D01*
X018126Y016859D01*
X018140Y016884D01*
X018157Y016907D01*
X018177Y016927D01*
X018200Y016944D01*
X018225Y016958D01*
X018252Y016969D01*
X018279Y016975D01*
X018308Y016978D01*
X018308Y016969D01*
X018281Y016966D01*
X018254Y016960D01*
X018229Y016950D01*
X018205Y016937D01*
X018183Y016920D01*
X018164Y016901D01*
X018147Y016879D01*
X018134Y016855D01*
X018124Y016830D01*
X018118Y016803D01*
X018115Y016776D01*
X018124Y016776D01*
X018127Y016802D01*
X018133Y016827D01*
X018142Y016852D01*
X018155Y016874D01*
X018170Y016895D01*
X018189Y016914D01*
X018210Y016929D01*
X018232Y016942D01*
X018257Y016951D01*
X018282Y016957D01*
X018308Y016960D01*
X018308Y016951D01*
X018283Y016949D01*
X018259Y016943D01*
X018236Y016934D01*
X018215Y016922D01*
X018195Y016907D01*
X018177Y016889D01*
X018162Y016869D01*
X018150Y016848D01*
X018141Y016825D01*
X018135Y016801D01*
X018133Y016776D01*
X019037Y016775D02*
X018987Y016775D01*
X018988Y016776D02*
X018985Y016802D01*
X018978Y016828D01*
X018968Y016852D01*
X018954Y016875D01*
X018937Y016895D01*
X018917Y016912D01*
X018894Y016926D01*
X018870Y016936D01*
X018844Y016943D01*
X018818Y016946D01*
X018817Y016995D01*
X018818Y016996D01*
X018846Y016993D01*
X018874Y016987D01*
X018901Y016978D01*
X018927Y016965D01*
X018951Y016949D01*
X018972Y016930D01*
X018991Y016909D01*
X019007Y016885D01*
X019020Y016859D01*
X019029Y016832D01*
X019035Y016804D01*
X019038Y016776D01*
X019029Y016776D01*
X019027Y016803D01*
X019021Y016830D01*
X019012Y016856D01*
X018999Y016880D01*
X018984Y016903D01*
X018966Y016924D01*
X018945Y016942D01*
X018922Y016957D01*
X018898Y016970D01*
X018872Y016979D01*
X018845Y016985D01*
X018818Y016987D01*
X018818Y016978D01*
X018847Y016975D01*
X018874Y016969D01*
X018901Y016958D01*
X018926Y016944D01*
X018949Y016927D01*
X018969Y016907D01*
X018986Y016884D01*
X019000Y016859D01*
X019011Y016832D01*
X019017Y016805D01*
X019020Y016776D01*
X019011Y016776D01*
X019008Y016803D01*
X019002Y016830D01*
X018992Y016855D01*
X018979Y016879D01*
X018962Y016901D01*
X018943Y016920D01*
X018921Y016937D01*
X018897Y016950D01*
X018872Y016960D01*
X018845Y016966D01*
X018818Y016969D01*
X018818Y016960D01*
X018844Y016957D01*
X018869Y016951D01*
X018894Y016942D01*
X018916Y016929D01*
X018937Y016914D01*
X018956Y016895D01*
X018971Y016874D01*
X018984Y016852D01*
X018993Y016827D01*
X018999Y016802D01*
X019002Y016776D01*
X018993Y016776D01*
X018991Y016801D01*
X018985Y016825D01*
X018976Y016848D01*
X018964Y016869D01*
X018949Y016889D01*
X018931Y016907D01*
X018911Y016922D01*
X018890Y016934D01*
X018867Y016943D01*
X018843Y016949D01*
X018818Y016951D01*
X018817Y015246D02*
X018817Y015296D01*
X018818Y015296D02*
X018844Y015299D01*
X018870Y015306D01*
X018894Y015316D01*
X018917Y015330D01*
X018937Y015347D01*
X018954Y015367D01*
X018968Y015390D01*
X018978Y015414D01*
X018985Y015440D01*
X018988Y015466D01*
X019037Y015466D01*
X019038Y015466D01*
X019035Y015438D01*
X019029Y015410D01*
X019020Y015383D01*
X019007Y015357D01*
X018991Y015333D01*
X018972Y015312D01*
X018951Y015293D01*
X018927Y015277D01*
X018901Y015264D01*
X018874Y015255D01*
X018846Y015249D01*
X018818Y015246D01*
X018818Y015255D01*
X018845Y015257D01*
X018872Y015263D01*
X018898Y015272D01*
X018922Y015285D01*
X018945Y015300D01*
X018966Y015318D01*
X018984Y015339D01*
X018999Y015362D01*
X019012Y015386D01*
X019021Y015412D01*
X019027Y015439D01*
X019029Y015466D01*
X019020Y015466D01*
X019017Y015437D01*
X019011Y015410D01*
X019000Y015383D01*
X018986Y015358D01*
X018969Y015335D01*
X018949Y015315D01*
X018926Y015298D01*
X018901Y015284D01*
X018874Y015273D01*
X018847Y015267D01*
X018818Y015264D01*
X018818Y015273D01*
X018845Y015276D01*
X018872Y015282D01*
X018897Y015292D01*
X018921Y015305D01*
X018943Y015322D01*
X018962Y015341D01*
X018979Y015363D01*
X018992Y015387D01*
X019002Y015412D01*
X019008Y015439D01*
X019011Y015466D01*
X019002Y015466D01*
X018999Y015440D01*
X018993Y015415D01*
X018984Y015390D01*
X018971Y015368D01*
X018956Y015347D01*
X018937Y015328D01*
X018916Y015313D01*
X018894Y015300D01*
X018869Y015291D01*
X018844Y015285D01*
X018818Y015282D01*
X018818Y015291D01*
X018843Y015293D01*
X018867Y015299D01*
X018890Y015308D01*
X018911Y015320D01*
X018931Y015335D01*
X018949Y015353D01*
X018964Y015373D01*
X018976Y015394D01*
X018985Y015417D01*
X018991Y015441D01*
X018993Y015466D01*
X018088Y015466D02*
X018138Y015466D01*
X018141Y015440D01*
X018148Y015414D01*
X018158Y015390D01*
X018172Y015367D01*
X018189Y015347D01*
X018209Y015330D01*
X018232Y015316D01*
X018256Y015306D01*
X018282Y015299D01*
X018308Y015296D01*
X018308Y015246D01*
X018280Y015249D01*
X018252Y015255D01*
X018225Y015264D01*
X018199Y015277D01*
X018175Y015293D01*
X018154Y015312D01*
X018135Y015333D01*
X018119Y015357D01*
X018106Y015383D01*
X018097Y015410D01*
X018091Y015438D01*
X018088Y015466D01*
X018097Y015466D01*
X018099Y015439D01*
X018105Y015412D01*
X018114Y015386D01*
X018127Y015362D01*
X018142Y015339D01*
X018160Y015318D01*
X018181Y015300D01*
X018204Y015285D01*
X018228Y015272D01*
X018254Y015263D01*
X018281Y015257D01*
X018308Y015255D01*
X018308Y015264D01*
X018279Y015267D01*
X018252Y015273D01*
X018225Y015284D01*
X018200Y015298D01*
X018177Y015315D01*
X018157Y015335D01*
X018140Y015358D01*
X018126Y015383D01*
X018115Y015410D01*
X018109Y015437D01*
X018106Y015466D01*
X018115Y015466D01*
X018118Y015439D01*
X018124Y015412D01*
X018134Y015387D01*
X018147Y015363D01*
X018164Y015341D01*
X018183Y015322D01*
X018205Y015305D01*
X018229Y015292D01*
X018254Y015282D01*
X018281Y015276D01*
X018308Y015273D01*
X018308Y015282D01*
X018282Y015285D01*
X018257Y015291D01*
X018232Y015300D01*
X018210Y015313D01*
X018189Y015328D01*
X018170Y015347D01*
X018155Y015368D01*
X018142Y015390D01*
X018133Y015415D01*
X018127Y015440D01*
X018124Y015466D01*
X018133Y015466D01*
X018135Y015441D01*
X018141Y015417D01*
X018150Y015394D01*
X018162Y015373D01*
X018177Y015353D01*
X018195Y015335D01*
X018215Y015320D01*
X018236Y015308D01*
X018259Y015299D01*
X018283Y015293D01*
X018308Y015291D01*
X007178Y004750D02*
X007148Y004710D01*
X007149Y004710D02*
X007126Y004724D01*
X007101Y004733D01*
X007075Y004739D01*
X007049Y004741D01*
X007023Y004739D01*
X006997Y004733D01*
X006972Y004723D01*
X006950Y004709D01*
X006929Y004693D01*
X006911Y004673D01*
X006870Y004702D01*
X006871Y004702D01*
X006890Y004724D01*
X006911Y004743D01*
X006935Y004759D01*
X006960Y004772D01*
X006987Y004782D01*
X007015Y004788D01*
X007043Y004791D01*
X007072Y004790D01*
X007100Y004785D01*
X007128Y004777D01*
X007154Y004766D01*
X007178Y004751D01*
X007173Y004744D01*
X007149Y004758D01*
X007124Y004769D01*
X007098Y004777D01*
X007071Y004781D01*
X007044Y004782D01*
X007016Y004779D01*
X006989Y004773D01*
X006964Y004764D01*
X006939Y004751D01*
X006917Y004736D01*
X006896Y004718D01*
X006878Y004697D01*
X006886Y004692D01*
X006904Y004713D01*
X006926Y004732D01*
X006950Y004747D01*
X006976Y004759D01*
X007004Y004768D01*
X007032Y004772D01*
X007060Y004773D01*
X007089Y004769D01*
X007117Y004762D01*
X007143Y004751D01*
X007168Y004736D01*
X007162Y004729D01*
X007139Y004743D01*
X007114Y004754D01*
X007087Y004760D01*
X007060Y004764D01*
X007033Y004763D01*
X007006Y004759D01*
X006979Y004751D01*
X006955Y004740D01*
X006932Y004725D01*
X006911Y004707D01*
X006893Y004686D01*
X006900Y004681D01*
X006917Y004701D01*
X006937Y004718D01*
X006959Y004732D01*
X006983Y004743D01*
X007008Y004750D01*
X007033Y004754D01*
X007059Y004755D01*
X007085Y004752D01*
X007111Y004745D01*
X007135Y004735D01*
X007157Y004722D01*
X007152Y004715D01*
X007130Y004727D01*
X007107Y004737D01*
X007084Y004743D01*
X007059Y004746D01*
X007034Y004745D01*
X007010Y004741D01*
X006986Y004734D01*
X006963Y004724D01*
X006943Y004710D01*
X006924Y004694D01*
X006907Y004676D01*
X006571Y004290D02*
X006611Y004260D01*
X006612Y004261D02*
X006598Y004238D01*
X006589Y004213D01*
X006583Y004187D01*
X006581Y004161D01*
X006583Y004135D01*
X006589Y004109D01*
X006599Y004084D01*
X006613Y004062D01*
X006629Y004041D01*
X006649Y004023D01*
X006619Y003982D01*
X006620Y003983D01*
X006598Y004002D01*
X006579Y004023D01*
X006563Y004047D01*
X006550Y004072D01*
X006540Y004099D01*
X006534Y004127D01*
X006531Y004155D01*
X006532Y004184D01*
X006537Y004212D01*
X006545Y004240D01*
X006556Y004266D01*
X006571Y004290D01*
X006578Y004285D01*
X006564Y004261D01*
X006553Y004236D01*
X006545Y004210D01*
X006541Y004183D01*
X006540Y004156D01*
X006543Y004128D01*
X006549Y004101D01*
X006558Y004076D01*
X006571Y004051D01*
X006586Y004029D01*
X006604Y004008D01*
X006625Y003990D01*
X006630Y003998D01*
X006609Y004016D01*
X006590Y004038D01*
X006575Y004062D01*
X006563Y004088D01*
X006554Y004116D01*
X006550Y004144D01*
X006549Y004172D01*
X006553Y004201D01*
X006560Y004229D01*
X006571Y004255D01*
X006586Y004280D01*
X006593Y004274D01*
X006579Y004251D01*
X006568Y004226D01*
X006562Y004199D01*
X006558Y004172D01*
X006559Y004145D01*
X006563Y004118D01*
X006571Y004091D01*
X006582Y004067D01*
X006597Y004044D01*
X006615Y004023D01*
X006636Y004005D01*
X006641Y004012D01*
X006621Y004029D01*
X006604Y004049D01*
X006590Y004071D01*
X006579Y004095D01*
X006572Y004120D01*
X006568Y004145D01*
X006567Y004171D01*
X006570Y004197D01*
X006577Y004223D01*
X006587Y004247D01*
X006600Y004269D01*
X006607Y004264D01*
X006595Y004242D01*
X006585Y004219D01*
X006579Y004196D01*
X006576Y004171D01*
X006577Y004146D01*
X006581Y004122D01*
X006588Y004098D01*
X006598Y004075D01*
X006612Y004055D01*
X006628Y004036D01*
X006646Y004019D01*
X007679Y003213D02*
X007709Y003253D01*
X007709Y003254D02*
X007732Y003240D01*
X007757Y003231D01*
X007783Y003225D01*
X007809Y003223D01*
X007835Y003225D01*
X007861Y003231D01*
X007886Y003241D01*
X007908Y003255D01*
X007929Y003271D01*
X007947Y003291D01*
X007987Y003261D01*
X007987Y003262D01*
X007968Y003240D01*
X007947Y003221D01*
X007923Y003205D01*
X007898Y003192D01*
X007871Y003182D01*
X007843Y003176D01*
X007815Y003173D01*
X007786Y003174D01*
X007758Y003179D01*
X007730Y003187D01*
X007704Y003198D01*
X007680Y003213D01*
X007685Y003220D01*
X007709Y003206D01*
X007734Y003195D01*
X007760Y003187D01*
X007787Y003183D01*
X007814Y003182D01*
X007842Y003185D01*
X007869Y003191D01*
X007894Y003200D01*
X007919Y003213D01*
X007941Y003228D01*
X007962Y003246D01*
X007980Y003267D01*
X007972Y003272D01*
X007954Y003251D01*
X007932Y003232D01*
X007908Y003217D01*
X007882Y003205D01*
X007854Y003196D01*
X007826Y003192D01*
X007798Y003191D01*
X007769Y003195D01*
X007741Y003202D01*
X007715Y003213D01*
X007690Y003228D01*
X007696Y003235D01*
X007719Y003221D01*
X007744Y003210D01*
X007771Y003204D01*
X007798Y003200D01*
X007825Y003201D01*
X007852Y003205D01*
X007879Y003213D01*
X007903Y003224D01*
X007926Y003239D01*
X007947Y003257D01*
X007965Y003278D01*
X007958Y003283D01*
X007941Y003263D01*
X007921Y003246D01*
X007899Y003232D01*
X007875Y003221D01*
X007850Y003214D01*
X007825Y003210D01*
X007799Y003209D01*
X007773Y003212D01*
X007747Y003219D01*
X007723Y003229D01*
X007701Y003242D01*
X007706Y003249D01*
X007728Y003237D01*
X007751Y003227D01*
X007774Y003221D01*
X007799Y003218D01*
X007824Y003219D01*
X007848Y003223D01*
X007872Y003230D01*
X007895Y003240D01*
X007915Y003254D01*
X007934Y003270D01*
X007951Y003288D01*
X008286Y003673D02*
X008246Y003703D01*
X008260Y003726D01*
X008269Y003751D01*
X008275Y003777D01*
X008277Y003803D01*
X008275Y003829D01*
X008269Y003855D01*
X008259Y003880D01*
X008245Y003902D01*
X008229Y003923D01*
X008209Y003941D01*
X008238Y003981D01*
X008260Y003962D01*
X008279Y003941D01*
X008295Y003917D01*
X008308Y003892D01*
X008318Y003865D01*
X008324Y003837D01*
X008327Y003809D01*
X008326Y003780D01*
X008321Y003752D01*
X008313Y003724D01*
X008302Y003698D01*
X008287Y003674D01*
X008280Y003679D01*
X008294Y003703D01*
X008305Y003728D01*
X008313Y003754D01*
X008317Y003781D01*
X008318Y003808D01*
X008315Y003836D01*
X008309Y003863D01*
X008300Y003888D01*
X008287Y003913D01*
X008272Y003935D01*
X008254Y003956D01*
X008233Y003974D01*
X008228Y003966D01*
X008249Y003948D01*
X008268Y003926D01*
X008283Y003902D01*
X008295Y003876D01*
X008304Y003848D01*
X008308Y003820D01*
X008309Y003792D01*
X008305Y003763D01*
X008298Y003735D01*
X008287Y003709D01*
X008272Y003684D01*
X008265Y003690D01*
X008279Y003713D01*
X008290Y003738D01*
X008296Y003765D01*
X008300Y003792D01*
X008299Y003819D01*
X008295Y003846D01*
X008287Y003873D01*
X008276Y003897D01*
X008261Y003920D01*
X008243Y003941D01*
X008222Y003959D01*
X008217Y003952D01*
X008237Y003935D01*
X008254Y003915D01*
X008268Y003893D01*
X008279Y003869D01*
X008286Y003844D01*
X008290Y003819D01*
X008291Y003793D01*
X008288Y003767D01*
X008281Y003741D01*
X008271Y003717D01*
X008258Y003695D01*
X008251Y003700D01*
X008263Y003722D01*
X008273Y003745D01*
X008279Y003768D01*
X008282Y003793D01*
X008281Y003818D01*
X008277Y003842D01*
X008270Y003866D01*
X008260Y003889D01*
X008246Y003909D01*
X008230Y003928D01*
X008212Y003945D01*
D23*
X008786Y015677D03*
X005336Y015677D03*
D24*
X006061Y015577D03*
X007061Y015577D03*
X008061Y015577D03*
D25*
X007561Y015677D03*
X006561Y015677D03*
D26*
X014126Y018248D02*
X014466Y018248D01*
X014466Y018192D02*
X014466Y018305D01*
X014182Y018192D02*
X014126Y018248D01*
X018006Y018637D02*
X018081Y018562D01*
X018231Y018562D01*
X018306Y018637D01*
X018306Y018712D01*
X018231Y018787D01*
X018081Y018787D01*
X018006Y018862D01*
X018006Y018937D01*
X018081Y019012D01*
X018231Y019012D01*
X018306Y018937D01*
X018466Y019012D02*
X018466Y018562D01*
X018766Y018562D01*
X018926Y018562D02*
X019077Y018562D01*
X019002Y018562D02*
X019002Y019012D01*
X018926Y018937D01*
X016868Y004935D02*
X016718Y004935D01*
X016643Y004860D01*
X016483Y004860D02*
X016483Y004710D01*
X016408Y004635D01*
X016183Y004635D01*
X016333Y004635D02*
X016483Y004485D01*
X016643Y004560D02*
X016718Y004485D01*
X016868Y004485D01*
X016943Y004560D01*
X016943Y004635D01*
X016868Y004710D01*
X016793Y004710D01*
X016868Y004710D02*
X016943Y004785D01*
X016943Y004860D01*
X016868Y004935D01*
X016483Y004860D02*
X016408Y004935D01*
X016183Y004935D01*
X016183Y004485D01*
D27*
X015411Y004217D03*
X014411Y004217D03*
M02*
