G75*
G70*
%OFA0B0*%
%FSLAX24Y24*%
%IPPOS*%
%LPD*%
%AMOC8*
5,1,8,0,0,1.08239X$1,22.5*
%
%ADD10C,0.0120*%
%ADD11C,0.0100*%
%ADD12O,0.1100X0.0550*%
%ADD13C,0.0550*%
%ADD14OC8,0.0550*%
%ADD15C,0.0110*%
%ADD16C,0.0594*%
%ADD17O,0.0600X0.1200*%
%ADD18O,0.0560X0.1120*%
%ADD19C,0.0160*%
%ADD20C,0.0440*%
D10*
X004633Y019522D02*
X004633Y002481D01*
X019625Y002481D01*
X019625Y019522D01*
X004633Y019522D01*
X013721Y010237D02*
X013951Y010237D01*
X013951Y010007D01*
X013721Y010007D01*
X013721Y010237D01*
D11*
X014381Y009937D02*
X014881Y010437D01*
X015381Y010497D01*
X015381Y010937D02*
X015381Y013437D01*
X014381Y014437D01*
X014281Y014407D01*
X013381Y014437D02*
X012881Y014437D01*
X013381Y014437D02*
X013381Y014937D01*
X016381Y014937D01*
X016381Y013937D01*
X018381Y013937D01*
X018381Y014437D01*
X018481Y014337D01*
X017381Y014437D02*
X017281Y014407D01*
X017381Y014437D02*
X017381Y015937D01*
X017261Y015927D01*
X015431Y013987D02*
X016381Y012937D01*
X018381Y012937D01*
X018381Y013437D01*
X018481Y013337D01*
X017881Y011937D02*
X018481Y011337D01*
X017881Y011937D02*
X015771Y011937D01*
X015901Y011387D02*
X015881Y010437D01*
X017381Y010437D01*
X017381Y007437D01*
X016881Y007937D01*
X016381Y007937D01*
X015381Y006937D01*
X015591Y007087D01*
X015381Y007937D02*
X015881Y007937D01*
X016881Y008937D01*
X017881Y008937D02*
X017881Y007937D01*
X018481Y007337D01*
X018381Y006437D02*
X018481Y006337D01*
X018381Y006437D02*
X017881Y005937D01*
X017881Y003437D01*
X012881Y003437D01*
X014381Y003937D02*
X014411Y004217D01*
X014381Y004437D01*
X014881Y004937D01*
X014881Y005937D01*
X015091Y006087D01*
X014381Y006027D02*
X014381Y006937D01*
X015381Y007937D01*
X014381Y007937D02*
X014381Y009937D01*
X015381Y009937D02*
X015511Y009827D01*
X015381Y009937D02*
X015881Y010437D01*
X015381Y010937D02*
X013381Y010937D01*
X013381Y011437D01*
X012881Y011437D01*
X013381Y011937D02*
X013381Y012437D01*
X012881Y012437D01*
X013381Y011937D02*
X013881Y011937D01*
X013881Y011437D01*
X014281Y011407D01*
X011381Y009437D02*
X011421Y006497D01*
X011881Y005937D02*
X011881Y007937D01*
X013461Y007927D01*
X013471Y007937D01*
X013871Y008017D01*
X014381Y007937D02*
X013881Y007467D01*
X011881Y005937D02*
X012381Y005437D01*
X012881Y005437D01*
X010811Y005877D02*
X010881Y003937D01*
X014381Y003937D01*
X015381Y003937D02*
X015411Y004217D01*
X015381Y003937D02*
X016381Y003937D01*
X016401Y004187D01*
X017401Y004187D02*
X017381Y004437D01*
X017381Y007437D01*
X020590Y007641D02*
X020790Y007441D01*
X021591Y007441D01*
X021791Y007641D01*
X021791Y008041D01*
X021591Y008241D01*
X021791Y008638D02*
X020590Y008638D01*
X020990Y009038D01*
X020590Y009438D01*
X021791Y009438D01*
X021791Y010235D02*
X020990Y009835D01*
X020990Y010635D02*
X021791Y010235D01*
X021791Y011032D02*
X021791Y011432D01*
X021791Y011232D02*
X020590Y011232D01*
X020790Y011032D01*
X021190Y012029D02*
X021190Y012830D01*
X020590Y013226D02*
X020590Y014027D01*
X020590Y013626D02*
X021791Y013626D01*
X021591Y014423D02*
X020790Y014423D01*
X020590Y014623D01*
X020590Y015024D01*
X020790Y015224D01*
X021591Y015224D01*
X021791Y015024D01*
X021791Y014623D01*
X021591Y014423D01*
X021791Y015620D02*
X020590Y015620D01*
X020590Y016221D01*
X020790Y016421D01*
X021190Y016421D01*
X021390Y016221D01*
X021390Y015620D01*
X014381Y017937D02*
X014291Y017797D01*
X014381Y017937D02*
X013381Y017937D01*
X012881Y018437D01*
X012424Y018622D01*
X012485Y018632D01*
X012424Y018622D02*
X010381Y016937D01*
X010381Y016437D01*
X009881Y016437D01*
X009881Y017437D01*
X009871Y017587D01*
X007381Y015437D02*
X005881Y013937D01*
X005801Y013837D01*
X005881Y012937D02*
X005801Y012837D01*
X005881Y012937D02*
X006881Y013937D01*
X006881Y014437D01*
X009881Y014437D01*
X007763Y011429D02*
X006904Y011511D01*
X006767Y011263D01*
X006381Y010437D01*
X005881Y009937D01*
X005801Y009837D01*
X005881Y008937D02*
X005801Y008837D01*
X005881Y008937D02*
X006381Y008437D01*
X006381Y007937D01*
X008381Y007937D01*
X008381Y009437D01*
X009381Y010437D01*
X009881Y010437D01*
X009881Y011437D02*
X007881Y011437D01*
X007763Y011429D01*
X007095Y010403D02*
X007058Y010370D01*
X006881Y008937D01*
X007381Y008437D01*
X007581Y008657D01*
X007381Y007437D02*
X009881Y007437D01*
X008881Y006437D02*
X008881Y003937D01*
X009381Y003437D01*
X009881Y003437D01*
X008381Y004437D02*
X008381Y004937D01*
X007881Y005437D01*
X007381Y005437D01*
X006881Y005937D01*
X005881Y005937D01*
X005801Y005837D01*
X006381Y005437D02*
X005881Y004937D01*
X005801Y004837D01*
X006381Y005437D02*
X006851Y005407D01*
X007381Y005937D02*
X006381Y006937D01*
X005881Y006937D01*
X005801Y006837D01*
X007381Y006937D02*
X007581Y006757D01*
X007381Y006937D02*
X007381Y007437D01*
X007381Y005937D02*
X007881Y005937D01*
X008441Y005427D01*
X020590Y005047D02*
X021791Y005047D01*
X021190Y005047D02*
X021190Y005847D01*
X020590Y005847D02*
X021791Y005847D01*
X021791Y006244D02*
X020590Y006244D01*
X020990Y006644D01*
X020590Y007044D01*
X021791Y007044D01*
X020590Y007641D02*
X020590Y008041D01*
X020790Y008241D01*
D12*
X017281Y011407D03*
X017281Y012407D03*
X017281Y013407D03*
X017281Y014407D03*
X014281Y014407D03*
X014281Y013407D03*
X014281Y012407D03*
X014281Y011407D03*
X012881Y011437D03*
X012881Y010437D03*
X012881Y009437D03*
X012881Y008437D03*
X012881Y007437D03*
X012881Y006437D03*
X012881Y005437D03*
X012881Y004437D03*
X012881Y003437D03*
X009881Y003437D03*
X009881Y004437D03*
X009881Y005437D03*
X009881Y006437D03*
X009881Y007437D03*
X009881Y008437D03*
X009881Y009437D03*
X009881Y010437D03*
X009881Y011437D03*
X009881Y012437D03*
X009881Y013437D03*
X009881Y014437D03*
X009881Y015437D03*
X009881Y016437D03*
X012881Y016437D03*
X012881Y015437D03*
X012881Y014437D03*
X012881Y013437D03*
X012881Y012437D03*
D13*
X015511Y009827D03*
X016511Y009827D03*
X016011Y008827D03*
X015011Y008827D03*
X015591Y007087D03*
X016591Y007087D03*
X016091Y006087D03*
X015091Y006087D03*
X007581Y006757D03*
X007581Y008657D03*
D14*
X007095Y010403D03*
X008384Y010429D03*
X008384Y012429D03*
X007095Y012403D03*
X009871Y017587D03*
X010485Y018632D03*
X012485Y018632D03*
X012871Y017587D03*
X014261Y015927D03*
X017261Y015927D03*
X018563Y015121D03*
X018563Y017121D03*
X017401Y004187D03*
X016401Y004187D03*
D15*
X008169Y003541D02*
X008114Y003596D01*
X008293Y003625D01*
X008440Y003518D01*
X008469Y003339D01*
X008362Y003192D01*
X008183Y003163D01*
X008036Y003270D01*
X008007Y003449D01*
X008114Y003596D01*
X008161Y003519D01*
X008273Y003537D01*
X008363Y003471D01*
X008381Y003359D01*
X008315Y003269D01*
X008203Y003251D01*
X008113Y003317D01*
X008095Y003429D01*
X008161Y003519D01*
X008207Y003444D01*
X008252Y003451D01*
X008288Y003425D01*
X008295Y003380D01*
X008269Y003344D01*
X008224Y003337D01*
X008188Y003363D01*
X008181Y003408D01*
X008207Y003444D01*
X006551Y004717D02*
X006496Y004772D01*
X006675Y004801D01*
X006822Y004694D01*
X006851Y004515D01*
X006744Y004368D01*
X006565Y004339D01*
X006418Y004446D01*
X006389Y004625D01*
X006496Y004772D01*
X006543Y004695D01*
X006655Y004713D01*
X006745Y004647D01*
X006763Y004535D01*
X006697Y004445D01*
X006585Y004427D01*
X006495Y004493D01*
X006477Y004605D01*
X006543Y004695D01*
X006589Y004620D01*
X006634Y004627D01*
X006670Y004601D01*
X006677Y004556D01*
X006651Y004520D01*
X006606Y004513D01*
X006570Y004539D01*
X006563Y004584D01*
X006589Y004620D01*
X008199Y017801D02*
X008254Y017856D01*
X008197Y017684D01*
X008035Y017601D01*
X007863Y017658D01*
X007780Y017820D01*
X007837Y017992D01*
X007999Y018075D01*
X008171Y018018D01*
X008254Y017856D01*
X008164Y017850D01*
X008129Y017742D01*
X008029Y017691D01*
X007921Y017726D01*
X007870Y017826D01*
X007905Y017934D01*
X008005Y017985D01*
X008113Y017950D01*
X008164Y017850D01*
X008075Y017843D01*
X008061Y017799D01*
X008022Y017780D01*
X007978Y017794D01*
X007959Y017833D01*
X007973Y017877D01*
X008012Y017896D01*
X008056Y017882D01*
X008075Y017843D01*
X007454Y018719D02*
X007509Y018774D01*
X007452Y018602D01*
X007290Y018519D01*
X007118Y018576D01*
X007035Y018738D01*
X007092Y018910D01*
X007254Y018993D01*
X007426Y018936D01*
X007509Y018774D01*
X007419Y018768D01*
X007384Y018660D01*
X007284Y018609D01*
X007176Y018644D01*
X007125Y018744D01*
X007160Y018852D01*
X007260Y018903D01*
X007368Y018868D01*
X007419Y018768D01*
X007330Y018761D01*
X007316Y018717D01*
X007277Y018698D01*
X007233Y018712D01*
X007214Y018751D01*
X007228Y018795D01*
X007267Y018814D01*
X007311Y018800D01*
X007330Y018761D01*
X005672Y017811D02*
X005727Y017866D01*
X005670Y017694D01*
X005508Y017611D01*
X005336Y017668D01*
X005253Y017830D01*
X005310Y018002D01*
X005472Y018085D01*
X005644Y018028D01*
X005727Y017866D01*
X005637Y017860D01*
X005602Y017752D01*
X005502Y017701D01*
X005394Y017736D01*
X005343Y017836D01*
X005378Y017944D01*
X005478Y017995D01*
X005586Y017960D01*
X005637Y017860D01*
X005548Y017853D01*
X005534Y017809D01*
X005495Y017790D01*
X005451Y017804D01*
X005432Y017843D01*
X005446Y017887D01*
X005485Y017906D01*
X005529Y017892D01*
X005548Y017853D01*
X009981Y018709D02*
X010036Y018764D01*
X009979Y018592D01*
X009817Y018509D01*
X009645Y018566D01*
X009562Y018728D01*
X009619Y018900D01*
X009781Y018983D01*
X009953Y018926D01*
X010036Y018764D01*
X009946Y018758D01*
X009911Y018650D01*
X009811Y018599D01*
X009703Y018634D01*
X009652Y018734D01*
X009687Y018842D01*
X009787Y018893D01*
X009895Y018858D01*
X009946Y018758D01*
X009857Y018751D01*
X009843Y018707D01*
X009804Y018688D01*
X009760Y018702D01*
X009741Y018741D01*
X009755Y018785D01*
X009794Y018804D01*
X009838Y018790D01*
X009857Y018751D01*
D16*
X005801Y014837D03*
X005801Y013837D03*
X005801Y012837D03*
X005801Y011837D03*
X005801Y010837D03*
X005801Y009837D03*
X005801Y008837D03*
X005801Y007837D03*
X005801Y006837D03*
X005801Y005837D03*
X005801Y004837D03*
X005801Y003837D03*
X018481Y004337D03*
X018481Y003337D03*
X018481Y005337D03*
X018481Y006337D03*
X018481Y007337D03*
X018481Y008337D03*
X018481Y009337D03*
X018481Y010337D03*
X018481Y011337D03*
X018481Y012337D03*
X018481Y013337D03*
X018481Y014337D03*
D17*
X008061Y016427D03*
X007061Y016427D03*
X006061Y016427D03*
X014411Y004217D03*
X015411Y004217D03*
D18*
X015291Y017797D03*
X016291Y017797D03*
X017291Y017797D03*
X014291Y017797D03*
D19*
X013881Y016937D02*
X013381Y017437D01*
X012881Y017437D01*
X012871Y017587D01*
X012881Y017437D02*
X011881Y017437D01*
X011881Y015937D01*
X008881Y015937D01*
X008881Y016937D01*
X009034Y017437D01*
X008519Y018767D01*
X007975Y018748D01*
X007062Y017850D01*
X005885Y017720D01*
X005881Y017437D01*
X005889Y017759D01*
X005490Y017848D01*
X005881Y017437D02*
X005881Y016937D01*
X006061Y016427D01*
X007881Y015937D02*
X007881Y014937D01*
X010881Y014937D01*
X010881Y006437D01*
X011381Y005937D01*
X011381Y004937D01*
X013881Y004937D01*
X013881Y005437D01*
X014381Y005437D01*
X013881Y005437D02*
X013901Y006867D01*
X015881Y008937D01*
X016011Y008827D01*
X012881Y008437D02*
X012381Y008437D01*
X011881Y008937D01*
X011881Y012937D01*
X011881Y015937D01*
X013881Y016437D02*
X013881Y016937D01*
X013881Y016437D02*
X018381Y016437D01*
X018563Y017121D01*
X013881Y012937D02*
X011881Y012937D01*
X013881Y012937D02*
X013881Y012437D01*
X014281Y012407D01*
X007881Y015937D02*
X008061Y016427D01*
X007881Y016937D01*
X008017Y017838D01*
D20*
X007381Y015437D03*
X011381Y009437D03*
X013871Y008017D03*
X013881Y007467D03*
X014381Y006027D03*
X014381Y005437D03*
X011421Y006497D03*
X010811Y005877D03*
X008881Y006437D03*
X008441Y005427D03*
X008381Y004437D03*
X006851Y005407D03*
X015381Y010497D03*
X015901Y011387D03*
X015771Y011937D03*
X015431Y013987D03*
X016881Y008937D03*
X017881Y008937D03*
M02*
