G75*
G70*
%OFA0B0*%
%FSLAX24Y24*%
%IPPOS*%
%LPD*%
%AMOC8*
5,1,8,0,0,1.08239X$1,22.5*
%
%ADD10C,0.0120*%
%ADD11C,0.0100*%
%ADD12O,0.1210X0.0660*%
%ADD13C,0.0660*%
%ADD14OC8,0.0660*%
%ADD15C,0.0132*%
%ADD16C,0.0712*%
%ADD17O,0.0720X0.1320*%
%ADD18O,0.0672X0.1232*%
%ADD19C,0.0528*%
D10*
X004633Y019522D02*
X004633Y002481D01*
X019625Y002481D01*
X019625Y019522D01*
X004633Y019522D01*
D11*
X022300Y014076D02*
X023100Y013276D01*
X022900Y013476D02*
X023501Y014076D01*
X023501Y013276D02*
X022300Y013276D01*
X022500Y012879D02*
X022300Y012679D01*
X022300Y012279D01*
X022500Y012079D01*
X022700Y012079D01*
X022900Y012279D01*
X022900Y012679D01*
X023100Y012879D01*
X023301Y012879D01*
X023501Y012679D01*
X023501Y012279D01*
X023301Y012079D01*
X023501Y011682D02*
X022700Y011682D01*
X022300Y011282D01*
X022700Y010882D01*
X023501Y010882D01*
X023501Y010485D02*
X022300Y010485D01*
X022700Y010085D01*
X022300Y009685D01*
X023501Y009685D01*
X022900Y010882D02*
X022900Y011682D01*
X022900Y008091D02*
X022500Y008091D01*
X022300Y007891D01*
X022300Y007291D01*
X023501Y007291D01*
X023100Y007291D02*
X023100Y007891D01*
X022900Y008091D01*
X022500Y006894D02*
X022300Y006694D01*
X022300Y006294D01*
X022500Y006094D01*
X023301Y006094D01*
X023501Y006294D01*
X023501Y006694D01*
X023301Y006894D01*
X022500Y006894D01*
X022300Y005697D02*
X022300Y004897D01*
X022300Y005297D02*
X023501Y005297D01*
D12*
X017281Y011407D03*
X017281Y012407D03*
X017281Y013407D03*
X017281Y014407D03*
X014281Y014407D03*
X014281Y013407D03*
X014281Y012407D03*
X014281Y011407D03*
X012881Y011437D03*
X012881Y010437D03*
X012881Y009437D03*
X012881Y008437D03*
X012881Y007437D03*
X012881Y006437D03*
X012881Y005437D03*
X012881Y004437D03*
X012881Y003437D03*
X009881Y003437D03*
X009881Y004437D03*
X009881Y005437D03*
X009881Y006437D03*
X009881Y007437D03*
X009881Y008437D03*
X009881Y009437D03*
X009881Y010437D03*
X009881Y011437D03*
X009881Y012437D03*
X009881Y013437D03*
X009881Y014437D03*
X009881Y015437D03*
X009881Y016437D03*
X012881Y016437D03*
X012881Y015437D03*
X012881Y014437D03*
X012881Y013437D03*
X012881Y012437D03*
D13*
X015511Y009827D03*
X016511Y009827D03*
X016011Y008827D03*
X015011Y008827D03*
X015591Y007087D03*
X016591Y007087D03*
X016091Y006087D03*
X015091Y006087D03*
X007581Y006757D03*
X007581Y008657D03*
D14*
X007095Y010403D03*
X008384Y010429D03*
X008384Y012429D03*
X007095Y012403D03*
X009871Y017587D03*
X010485Y018632D03*
X012485Y018632D03*
X012871Y017587D03*
X014261Y015927D03*
X017261Y015927D03*
X018563Y015121D03*
X018563Y017121D03*
X017401Y004187D03*
X016401Y004187D03*
D15*
X008155Y003571D02*
X008089Y003637D01*
X008304Y003671D01*
X008481Y003543D01*
X008515Y003328D01*
X008387Y003151D01*
X008172Y003117D01*
X007995Y003245D01*
X007961Y003460D01*
X008089Y003637D01*
X008145Y003545D01*
X008279Y003567D01*
X008389Y003487D01*
X008411Y003353D01*
X008331Y003243D01*
X008197Y003221D01*
X008087Y003301D01*
X008065Y003435D01*
X008145Y003545D01*
X008201Y003454D01*
X008254Y003463D01*
X008298Y003431D01*
X008307Y003378D01*
X008275Y003334D01*
X008222Y003325D01*
X008178Y003357D01*
X008169Y003410D01*
X008201Y003454D01*
X006537Y004747D02*
X006471Y004813D01*
X006686Y004847D01*
X006863Y004719D01*
X006897Y004504D01*
X006769Y004327D01*
X006554Y004293D01*
X006377Y004421D01*
X006343Y004636D01*
X006471Y004813D01*
X006527Y004721D01*
X006661Y004743D01*
X006771Y004663D01*
X006793Y004529D01*
X006713Y004419D01*
X006579Y004397D01*
X006469Y004477D01*
X006447Y004611D01*
X006527Y004721D01*
X006583Y004630D01*
X006636Y004639D01*
X006680Y004607D01*
X006689Y004554D01*
X006657Y004510D01*
X006604Y004501D01*
X006560Y004533D01*
X006551Y004586D01*
X006583Y004630D01*
X008235Y017794D02*
X008301Y017860D01*
X008233Y017653D01*
X008039Y017554D01*
X007832Y017622D01*
X007733Y017816D01*
X007801Y018023D01*
X007995Y018122D01*
X008202Y018054D01*
X008301Y017860D01*
X008194Y017852D01*
X008152Y017722D01*
X008031Y017661D01*
X007901Y017703D01*
X007840Y017824D01*
X007882Y017954D01*
X008003Y018015D01*
X008133Y017973D01*
X008194Y017852D01*
X008088Y017843D01*
X008071Y017792D01*
X008022Y017767D01*
X007971Y017784D01*
X007946Y017833D01*
X007963Y017884D01*
X008012Y017909D01*
X008063Y017892D01*
X008088Y017843D01*
X007490Y018712D02*
X007556Y018778D01*
X007488Y018571D01*
X007294Y018472D01*
X007087Y018540D01*
X006988Y018734D01*
X007056Y018941D01*
X007250Y019040D01*
X007457Y018972D01*
X007556Y018778D01*
X007449Y018770D01*
X007407Y018640D01*
X007286Y018579D01*
X007156Y018621D01*
X007095Y018742D01*
X007137Y018872D01*
X007258Y018933D01*
X007388Y018891D01*
X007449Y018770D01*
X007343Y018761D01*
X007326Y018710D01*
X007277Y018685D01*
X007226Y018702D01*
X007201Y018751D01*
X007218Y018802D01*
X007267Y018827D01*
X007318Y018810D01*
X007343Y018761D01*
X005708Y017804D02*
X005774Y017870D01*
X005706Y017663D01*
X005512Y017564D01*
X005305Y017632D01*
X005206Y017826D01*
X005274Y018033D01*
X005468Y018132D01*
X005675Y018064D01*
X005774Y017870D01*
X005667Y017862D01*
X005625Y017732D01*
X005504Y017671D01*
X005374Y017713D01*
X005313Y017834D01*
X005355Y017964D01*
X005476Y018025D01*
X005606Y017983D01*
X005667Y017862D01*
X005561Y017853D01*
X005544Y017802D01*
X005495Y017777D01*
X005444Y017794D01*
X005419Y017843D01*
X005436Y017894D01*
X005485Y017919D01*
X005536Y017902D01*
X005561Y017853D01*
X010017Y018702D02*
X010083Y018768D01*
X010015Y018561D01*
X009821Y018462D01*
X009614Y018530D01*
X009515Y018724D01*
X009583Y018931D01*
X009777Y019030D01*
X009984Y018962D01*
X010083Y018768D01*
X009976Y018760D01*
X009934Y018630D01*
X009813Y018569D01*
X009683Y018611D01*
X009622Y018732D01*
X009664Y018862D01*
X009785Y018923D01*
X009915Y018881D01*
X009976Y018760D01*
X009870Y018751D01*
X009853Y018700D01*
X009804Y018675D01*
X009753Y018692D01*
X009728Y018741D01*
X009745Y018792D01*
X009794Y018817D01*
X009845Y018800D01*
X009870Y018751D01*
D16*
X005801Y014837D03*
X005801Y013837D03*
X005801Y012837D03*
X005801Y011837D03*
X005801Y010837D03*
X005801Y009837D03*
X005801Y008837D03*
X005801Y007837D03*
X005801Y006837D03*
X005801Y005837D03*
X005801Y004837D03*
X005801Y003837D03*
X018481Y004337D03*
X018481Y003337D03*
X018481Y005337D03*
X018481Y006337D03*
X018481Y007337D03*
X018481Y008337D03*
X018481Y009337D03*
X018481Y010337D03*
X018481Y011337D03*
X018481Y012337D03*
X018481Y013337D03*
X018481Y014337D03*
D17*
X008061Y016427D03*
X007061Y016427D03*
X006061Y016427D03*
X014411Y004217D03*
X015411Y004217D03*
D18*
X015291Y017797D03*
X016291Y017797D03*
X017291Y017797D03*
X014291Y017797D03*
D19*
X015431Y013987D03*
X015771Y011937D03*
X015901Y011387D03*
X015381Y010497D03*
X016881Y008937D03*
X017881Y008937D03*
X014381Y006027D03*
X014381Y005437D03*
X013881Y007467D03*
X013871Y008017D03*
X011381Y009437D03*
X011421Y006497D03*
X010811Y005877D03*
X008881Y006437D03*
X008441Y005427D03*
X008381Y004437D03*
X006851Y005407D03*
X007381Y015437D03*
M02*
