G75*
G70*
%OFA0B0*%
%FSLAX24Y24*%
%IPPOS*%
%LPD*%
%AMOC8*
5,1,8,0,0,1.08239X$1,22.5*
%
%ADD10C,0.0060*%
%ADD11C,0.0634*%
%ADD12C,0.0671*%
%ADD13C,0.0516*%
D10*
X000379Y003119D02*
X000699Y003119D01*
X000806Y003226D01*
X000806Y003439D01*
X000699Y003546D01*
X000379Y003546D01*
X000379Y003760D02*
X000379Y003119D01*
X001024Y003226D02*
X001130Y003119D01*
X001344Y003119D01*
X001451Y003226D01*
X001451Y003439D01*
X001344Y003546D01*
X001130Y003546D01*
X001024Y003439D01*
X001024Y003226D01*
X001775Y003226D02*
X001882Y003119D01*
X001775Y003226D02*
X001775Y003653D01*
X001668Y003546D02*
X001882Y003546D01*
X002098Y003546D02*
X002311Y003546D01*
X002205Y003653D02*
X002205Y003226D01*
X002311Y003119D01*
X002528Y003226D02*
X002634Y003119D01*
X002848Y003119D01*
X002955Y003226D01*
X002955Y003439D01*
X002848Y003546D01*
X002634Y003546D01*
X002528Y003439D01*
X002528Y003226D01*
X003172Y003119D02*
X003172Y003546D01*
X003279Y003546D01*
X003386Y003439D01*
X003492Y003546D01*
X003599Y003439D01*
X003599Y003119D01*
X003386Y003119D02*
X003386Y003439D01*
D11*
X008119Y002169D03*
X008809Y002169D03*
X009509Y002169D03*
X010209Y002169D03*
X011839Y002469D03*
X012839Y002469D03*
X013839Y002469D03*
X014839Y002469D03*
X014339Y003469D03*
X013339Y003469D03*
X012339Y003469D03*
X011339Y003469D03*
D12*
X010830Y002748D03*
D13*
X010989Y001519D03*
X017289Y002419D03*
X015389Y004269D03*
M02*
