G75*
G70*
%OFA0B0*%
%FSLAX24Y24*%
%IPPOS*%
%LPD*%
%AMOC8*
5,1,8,0,0,1.08239X$1,22.5*
%
%ADD10C,0.0100*%
%ADD11C,0.0060*%
%ADD12C,0.0554*%
%ADD13C,0.0000*%
%ADD14C,0.0436*%
%ADD15C,0.0120*%
D10*
X007689Y001119D02*
X007689Y001514D01*
X007689Y001908D02*
X007689Y002303D01*
X008789Y002219D02*
X008809Y002169D01*
X008789Y002219D02*
X010789Y004219D01*
X013639Y004219D01*
X014339Y003519D01*
X014339Y003469D01*
X013089Y002469D02*
X013539Y002019D01*
X016889Y002019D01*
X017289Y002419D01*
X019089Y002303D02*
X019089Y001908D01*
X019089Y001514D02*
X019089Y001119D01*
X018640Y001119D01*
X018247Y001119D02*
X017798Y001119D01*
X017404Y001119D02*
X016956Y001119D01*
X016562Y001119D02*
X016113Y001119D01*
X015719Y001119D02*
X015271Y001119D01*
X014877Y001119D02*
X014428Y001119D01*
X014035Y001119D02*
X013586Y001119D01*
X013192Y001119D02*
X012744Y001119D01*
X012350Y001119D02*
X011901Y001119D01*
X011507Y001119D02*
X011059Y001119D01*
X010665Y001119D02*
X010216Y001119D01*
X009823Y001119D02*
X009374Y001119D01*
X008980Y001119D02*
X008532Y001119D01*
X008138Y001119D02*
X007689Y001119D01*
X012839Y002469D02*
X013089Y002469D01*
X007689Y002697D02*
X007689Y003092D01*
X007689Y003485D02*
X007689Y003880D01*
X007689Y004274D02*
X007689Y004669D01*
X008138Y004669D01*
X008531Y004669D02*
X008980Y004669D01*
X009374Y004669D02*
X009823Y004669D01*
X010216Y004669D02*
X010665Y004669D01*
X011059Y004669D02*
X011507Y004669D01*
X011901Y004669D02*
X012350Y004669D01*
X012744Y004669D02*
X013192Y004669D01*
X013586Y004669D02*
X014035Y004669D01*
X014428Y004669D02*
X014877Y004669D01*
X015271Y004669D02*
X015719Y004669D01*
X016113Y004669D02*
X016562Y004669D01*
X016956Y004669D02*
X017404Y004669D01*
X017798Y004669D02*
X018247Y004669D01*
X018640Y004669D02*
X019089Y004669D01*
X019089Y004274D01*
X019089Y003880D02*
X019089Y003485D01*
X019089Y003092D02*
X019089Y002697D01*
D11*
X007259Y003119D02*
X007259Y003439D01*
X007152Y003546D01*
X007046Y003439D01*
X007046Y003119D01*
X006832Y003119D02*
X006832Y003546D01*
X006939Y003546D01*
X007046Y003439D01*
X006615Y003439D02*
X006508Y003546D01*
X006294Y003546D01*
X006188Y003439D01*
X006188Y003226D01*
X006294Y003119D01*
X006508Y003119D01*
X006615Y003226D01*
X006615Y003439D01*
X005971Y003546D02*
X005758Y003546D01*
X005542Y003546D02*
X005328Y003546D01*
X005435Y003653D02*
X005435Y003226D01*
X005542Y003119D01*
X005865Y003226D02*
X005971Y003119D01*
X005865Y003226D02*
X005865Y003653D01*
X005111Y003439D02*
X005004Y003546D01*
X004790Y003546D01*
X004684Y003439D01*
X004684Y003226D01*
X004790Y003119D01*
X005004Y003119D01*
X005111Y003226D01*
X005111Y003439D01*
X004466Y003439D02*
X004466Y003226D01*
X004359Y003119D01*
X004039Y003119D01*
X004039Y003760D01*
X004039Y003546D02*
X004359Y003546D01*
X004466Y003439D01*
D12*
X008119Y002169D03*
X008809Y002169D03*
X009509Y002169D03*
X010209Y002169D03*
X011839Y002469D03*
X012839Y002469D03*
X013839Y002469D03*
X014839Y002469D03*
X014339Y003469D03*
X013339Y003469D03*
X012339Y003469D03*
X011339Y003469D03*
D13*
X010535Y002748D02*
X010537Y002783D01*
X010543Y002817D01*
X010553Y002851D01*
X010568Y002883D01*
X010585Y002913D01*
X010607Y002941D01*
X010631Y002966D01*
X010658Y002988D01*
X010688Y003006D01*
X010719Y003021D01*
X010752Y003033D01*
X010786Y003040D01*
X010821Y003043D01*
X010856Y003042D01*
X010891Y003037D01*
X010924Y003027D01*
X010957Y003014D01*
X010987Y002997D01*
X011016Y002977D01*
X011042Y002953D01*
X011064Y002927D01*
X011084Y002898D01*
X011100Y002867D01*
X011112Y002834D01*
X011120Y002800D01*
X011124Y002765D01*
X011124Y002731D01*
X011120Y002696D01*
X011112Y002662D01*
X011100Y002629D01*
X011084Y002598D01*
X011064Y002569D01*
X011042Y002543D01*
X011016Y002519D01*
X010987Y002499D01*
X010957Y002482D01*
X010924Y002469D01*
X010891Y002459D01*
X010856Y002454D01*
X010821Y002453D01*
X010786Y002456D01*
X010752Y002463D01*
X010719Y002475D01*
X010688Y002490D01*
X010658Y002508D01*
X010631Y002530D01*
X010607Y002555D01*
X010585Y002583D01*
X010568Y002613D01*
X010553Y002645D01*
X010543Y002679D01*
X010537Y002713D01*
X010535Y002748D01*
D14*
X010989Y001519D03*
X017289Y002419D03*
X015389Y004269D03*
D15*
X014598Y003857D02*
X014430Y003926D01*
X014257Y003926D01*
X013744Y004439D01*
X018859Y004439D01*
X018859Y001349D01*
X007919Y001349D01*
X007919Y001757D01*
X008028Y001712D01*
X008210Y001712D01*
X008378Y001782D01*
X008464Y001868D01*
X008550Y001782D01*
X008718Y001712D01*
X008900Y001712D01*
X009068Y001782D01*
X009159Y001873D01*
X009250Y001782D01*
X009418Y001712D01*
X009600Y001712D01*
X009768Y001782D01*
X009859Y001873D01*
X009950Y001782D01*
X010118Y001712D01*
X010300Y001712D01*
X010468Y001782D01*
X010597Y001910D01*
X010666Y002078D01*
X010666Y002260D01*
X010646Y002310D01*
X010735Y002273D01*
X010924Y002273D01*
X011099Y002345D01*
X011233Y002479D01*
X011305Y002653D01*
X011305Y002842D01*
X011233Y003017D01*
X011230Y003019D01*
X011248Y003012D01*
X011430Y003012D01*
X011598Y003082D01*
X011727Y003210D01*
X011796Y003378D01*
X011796Y003560D01*
X011727Y003728D01*
X011598Y003857D01*
X011430Y003926D01*
X011248Y003926D01*
X011080Y003857D01*
X010952Y003728D01*
X010882Y003560D01*
X010882Y003378D01*
X010951Y003212D01*
X010924Y003223D01*
X010735Y003223D01*
X010561Y003151D01*
X010427Y003017D01*
X010354Y002842D01*
X010354Y002653D01*
X010379Y002593D01*
X010300Y002626D01*
X010118Y002626D01*
X009950Y002557D01*
X009859Y002466D01*
X009768Y002557D01*
X009600Y002626D01*
X009521Y002626D01*
X010884Y003989D01*
X013544Y003989D01*
X013909Y003624D01*
X013882Y003560D01*
X013882Y003378D01*
X013952Y003210D01*
X014080Y003082D01*
X014248Y003012D01*
X014430Y003012D01*
X014598Y003082D01*
X014727Y003210D01*
X014796Y003378D01*
X014796Y003560D01*
X014727Y003728D01*
X014598Y003857D01*
X014504Y003896D02*
X018859Y003896D01*
X018859Y004014D02*
X014169Y004014D01*
X014051Y004133D02*
X018859Y004133D01*
X018859Y004251D02*
X013932Y004251D01*
X013814Y004370D02*
X018859Y004370D01*
X018859Y003777D02*
X014678Y003777D01*
X014755Y003659D02*
X018859Y003659D01*
X018859Y003540D02*
X014796Y003540D01*
X014796Y003421D02*
X018859Y003421D01*
X018859Y003303D02*
X014765Y003303D01*
X014701Y003184D02*
X018859Y003184D01*
X018859Y003066D02*
X014560Y003066D01*
X014580Y002857D02*
X014748Y002926D01*
X014930Y002926D01*
X015098Y002857D01*
X015227Y002728D01*
X015296Y002560D01*
X015296Y002378D01*
X015243Y002249D01*
X016794Y002249D01*
X016891Y002346D01*
X016891Y002498D01*
X016952Y002645D01*
X017064Y002757D01*
X017210Y002817D01*
X017368Y002817D01*
X017515Y002757D01*
X017627Y002645D01*
X017687Y002498D01*
X017687Y002340D01*
X017627Y002194D01*
X017515Y002082D01*
X017368Y002021D01*
X017216Y002021D01*
X016984Y001789D01*
X016794Y001789D01*
X013444Y001789D01*
X013309Y001924D01*
X013125Y002108D01*
X013098Y002082D01*
X012930Y002012D01*
X012748Y002012D01*
X012580Y002082D01*
X012452Y002210D01*
X012382Y002378D01*
X012382Y002560D01*
X012452Y002728D01*
X012580Y002857D01*
X012748Y002926D01*
X012930Y002926D01*
X013098Y002857D01*
X013227Y002728D01*
X013277Y002606D01*
X013382Y002501D01*
X013382Y002560D01*
X013452Y002728D01*
X013580Y002857D01*
X013748Y002926D01*
X013930Y002926D01*
X014098Y002857D01*
X014227Y002728D01*
X014296Y002560D01*
X014296Y002378D01*
X014243Y002249D01*
X014435Y002249D01*
X014382Y002378D01*
X014382Y002560D01*
X014452Y002728D01*
X014580Y002857D01*
X014552Y002829D02*
X014126Y002829D01*
X014234Y002710D02*
X014444Y002710D01*
X014395Y002592D02*
X014283Y002592D01*
X014296Y002473D02*
X014382Y002473D01*
X014392Y002355D02*
X014286Y002355D01*
X013395Y002592D02*
X013292Y002592D01*
X013234Y002710D02*
X013444Y002710D01*
X013552Y002829D02*
X013126Y002829D01*
X013248Y003012D02*
X013430Y003012D01*
X013598Y003082D01*
X013727Y003210D01*
X013796Y003378D01*
X013796Y003560D01*
X013727Y003728D01*
X013598Y003857D01*
X013430Y003926D01*
X013248Y003926D01*
X013080Y003857D01*
X012952Y003728D01*
X012882Y003560D01*
X012882Y003378D01*
X012952Y003210D01*
X013080Y003082D01*
X013248Y003012D01*
X013118Y003066D02*
X012560Y003066D01*
X012598Y003082D02*
X012430Y003012D01*
X012248Y003012D01*
X012080Y003082D01*
X011952Y003210D01*
X011882Y003378D01*
X011882Y003560D01*
X011952Y003728D01*
X012080Y003857D01*
X012248Y003926D01*
X012430Y003926D01*
X012598Y003857D01*
X012727Y003728D01*
X012796Y003560D01*
X012796Y003378D01*
X012727Y003210D01*
X012598Y003082D01*
X012701Y003184D02*
X012977Y003184D01*
X012913Y003303D02*
X012765Y003303D01*
X012796Y003421D02*
X012882Y003421D01*
X012882Y003540D02*
X012796Y003540D01*
X012755Y003659D02*
X012923Y003659D01*
X013001Y003777D02*
X012678Y003777D01*
X012504Y003896D02*
X013174Y003896D01*
X013504Y003896D02*
X013637Y003896D01*
X013678Y003777D02*
X013756Y003777D01*
X013755Y003659D02*
X013874Y003659D01*
X013882Y003540D02*
X013796Y003540D01*
X013796Y003421D02*
X013882Y003421D01*
X013913Y003303D02*
X013765Y003303D01*
X013701Y003184D02*
X013977Y003184D01*
X014118Y003066D02*
X013560Y003066D01*
X012552Y002829D02*
X012126Y002829D01*
X012098Y002857D02*
X012227Y002728D01*
X012296Y002560D01*
X012296Y002378D01*
X012227Y002210D01*
X012098Y002082D01*
X011930Y002012D01*
X011748Y002012D01*
X011580Y002082D01*
X011452Y002210D01*
X011382Y002378D01*
X011382Y002560D01*
X011452Y002728D01*
X011580Y002857D01*
X011748Y002926D01*
X011930Y002926D01*
X012098Y002857D01*
X012234Y002710D02*
X012444Y002710D01*
X012395Y002592D02*
X012283Y002592D01*
X012296Y002473D02*
X012382Y002473D01*
X012392Y002355D02*
X012286Y002355D01*
X012237Y002236D02*
X012441Y002236D01*
X012544Y002117D02*
X012134Y002117D01*
X011544Y002117D02*
X010666Y002117D01*
X010666Y002236D02*
X011441Y002236D01*
X011392Y002355D02*
X011109Y002355D01*
X011227Y002473D02*
X011382Y002473D01*
X011395Y002592D02*
X011279Y002592D01*
X011305Y002710D02*
X011444Y002710D01*
X011552Y002829D02*
X011305Y002829D01*
X011262Y002947D02*
X018859Y002947D01*
X018859Y002829D02*
X015126Y002829D01*
X015234Y002710D02*
X017017Y002710D01*
X016930Y002592D02*
X015283Y002592D01*
X015296Y002473D02*
X016891Y002473D01*
X016891Y002355D02*
X015286Y002355D01*
X017076Y001880D02*
X018859Y001880D01*
X018859Y001762D02*
X010420Y001762D01*
X010567Y001880D02*
X013353Y001880D01*
X013234Y001999D02*
X010633Y001999D01*
X009998Y001762D02*
X009720Y001762D01*
X009298Y001762D02*
X009020Y001762D01*
X008598Y001762D02*
X008330Y001762D01*
X007919Y001643D02*
X018859Y001643D01*
X018859Y001525D02*
X007919Y001525D01*
X007919Y001406D02*
X018859Y001406D01*
X018859Y001999D02*
X017194Y001999D01*
X017550Y002117D02*
X018859Y002117D01*
X018859Y002236D02*
X017644Y002236D01*
X017687Y002355D02*
X018859Y002355D01*
X018859Y002473D02*
X017687Y002473D01*
X017649Y002592D02*
X018859Y002592D01*
X018859Y002710D02*
X017561Y002710D01*
X012118Y003066D02*
X011560Y003066D01*
X011701Y003184D02*
X011977Y003184D01*
X011913Y003303D02*
X011765Y003303D01*
X011796Y003421D02*
X011882Y003421D01*
X011882Y003540D02*
X011796Y003540D01*
X011755Y003659D02*
X011923Y003659D01*
X012001Y003777D02*
X011678Y003777D01*
X011504Y003896D02*
X012174Y003896D01*
X011174Y003896D02*
X010791Y003896D01*
X010672Y003777D02*
X011001Y003777D01*
X010923Y003659D02*
X010554Y003659D01*
X010435Y003540D02*
X010882Y003540D01*
X010882Y003421D02*
X010317Y003421D01*
X010198Y003303D02*
X010913Y003303D01*
X010642Y003184D02*
X010080Y003184D01*
X009961Y003066D02*
X010476Y003066D01*
X010398Y002947D02*
X009843Y002947D01*
X009724Y002829D02*
X010354Y002829D01*
X010354Y002710D02*
X009605Y002710D01*
X009684Y002592D02*
X010035Y002592D01*
X009867Y002473D02*
X009852Y002473D01*
M02*
