G75*
G70*
%OFA0B0*%
%FSLAX24Y24*%
%IPPOS*%
%LPD*%
%AMOC8*
5,1,8,0,0,1.08239X$1,22.5*
%
%ADD10C,0.0060*%
%ADD11C,0.0634*%
%ADD12C,0.0671*%
%ADD13R,0.0180X0.0395*%
%ADD14R,0.0237X0.0395*%
%ADD15R,0.0474X0.0474*%
%ADD16R,0.0480X0.0470*%
%ADD17R,0.0415X0.0434*%
%ADD18R,0.0249X0.0277*%
%ADD19C,0.0516*%
D10*
X014888Y002666D02*
X015102Y002666D01*
X014995Y002773D02*
X014995Y002346D01*
X015102Y002239D01*
X015318Y002346D02*
X015425Y002239D01*
X015638Y002239D01*
X015745Y002346D01*
X015745Y002559D01*
X015638Y002666D01*
X015425Y002666D01*
X015318Y002559D01*
X015318Y002346D01*
X015962Y002239D02*
X016283Y002239D01*
X016389Y002346D01*
X016389Y002559D01*
X016283Y002666D01*
X015962Y002666D01*
X015962Y002026D01*
D11*
X012028Y002169D03*
X011338Y002169D03*
X010638Y002169D03*
X009938Y002169D03*
X008308Y002469D03*
X007308Y002469D03*
X006308Y002469D03*
X005308Y002469D03*
X005808Y003469D03*
X006808Y003469D03*
X007808Y003469D03*
X008808Y003469D03*
D12*
X009318Y002748D03*
D13*
X002258Y002479D03*
X002058Y002479D03*
X001858Y002479D03*
X001658Y002479D03*
D14*
X001269Y001492D03*
X002647Y001492D03*
D15*
X003474Y002069D03*
X004143Y002069D03*
X004143Y002769D03*
X003474Y002769D03*
D16*
X002808Y003184D03*
X002108Y003184D03*
X001408Y003184D03*
X001408Y003854D03*
X002108Y003854D03*
X002808Y003854D03*
X010308Y003404D03*
X011058Y003404D03*
X011808Y003404D03*
X011808Y002734D03*
X011058Y002734D03*
X010308Y002734D03*
D17*
X010787Y001549D03*
X011830Y001549D03*
D18*
X011468Y001668D03*
X011149Y001668D03*
D19*
X009158Y001519D03*
X002858Y002419D03*
X004758Y004269D03*
M02*
