G75*
G70*
%OFA0B0*%
%FSLAX24Y24*%
%IPPOS*%
%LPD*%
%AMOC8*
5,1,8,0,0,1.08239X$1,22.5*
%
%ADD10C,0.0100*%
%ADD11C,0.0000*%
%ADD12C,0.0050*%
D10*
X002006Y005221D02*
X002404Y005221D01*
X002798Y005221D02*
X003197Y005221D01*
X003590Y005221D02*
X003989Y005221D01*
X004383Y005221D02*
X004781Y005221D01*
X005175Y005221D02*
X005574Y005221D01*
X005967Y005221D02*
X006366Y005221D01*
X006760Y005221D02*
X007158Y005221D01*
X007552Y005221D02*
X007951Y005221D01*
X008344Y005221D02*
X008743Y005221D01*
X009137Y005221D02*
X009535Y005221D01*
X009929Y005221D02*
X010328Y005221D01*
X010721Y005221D02*
X011120Y005221D01*
X011514Y005221D02*
X011912Y005221D01*
X012306Y005221D02*
X012704Y005221D01*
X013098Y005221D02*
X013497Y005221D01*
X013891Y005221D02*
X014289Y005221D01*
X014683Y005221D02*
X015081Y005221D01*
X015475Y005221D02*
X015874Y005221D01*
X016267Y005221D02*
X016666Y005221D01*
X017060Y005221D02*
X017458Y005221D01*
X017852Y005221D02*
X018251Y005221D01*
X018644Y005221D02*
X019043Y005221D01*
X019437Y005221D02*
X019835Y005221D01*
X020229Y005221D02*
X020628Y005221D01*
X021021Y005221D02*
X021420Y005221D01*
X021814Y005221D02*
X022212Y005221D01*
X022606Y005221D02*
X023005Y005221D01*
X023006Y005221D02*
X023006Y005654D01*
X023006Y006048D02*
X023006Y006481D01*
X023006Y006875D02*
X023006Y007308D01*
X023006Y007702D02*
X023006Y008135D01*
X023006Y008529D02*
X023006Y008962D01*
X023006Y009356D02*
X023006Y009789D01*
X023006Y010183D02*
X023006Y010616D01*
X023006Y011010D02*
X023006Y011443D01*
X023006Y011837D02*
X023006Y012271D01*
X022607Y012271D01*
X022213Y012271D02*
X021815Y012271D01*
X021421Y012271D02*
X021022Y012271D01*
X020629Y012271D02*
X020230Y012271D01*
X019836Y012271D02*
X019438Y012271D01*
X019044Y012271D02*
X018645Y012271D01*
X018252Y012271D02*
X017853Y012271D01*
X017459Y012271D02*
X017061Y012271D01*
X016667Y012271D02*
X016268Y012271D01*
X016103Y012067D02*
X016037Y012134D01*
X015903Y012134D01*
X015836Y012067D01*
X015643Y012067D02*
X015643Y011800D01*
X015576Y011734D01*
X015443Y011734D01*
X015376Y011800D01*
X015376Y012067D01*
X015443Y012134D01*
X015576Y012134D01*
X015643Y012067D01*
X015476Y012271D02*
X015875Y012271D01*
X016103Y012067D02*
X016103Y012001D01*
X015836Y011734D01*
X016103Y011734D01*
X015643Y011734D02*
X015510Y011867D01*
X015082Y012271D02*
X014684Y012271D01*
X014290Y012271D02*
X013891Y012271D01*
X013498Y012271D02*
X013099Y012271D01*
X012893Y012221D02*
X012626Y012221D01*
X012626Y012021D01*
X012760Y012088D01*
X012827Y012088D01*
X012893Y012021D01*
X012893Y011887D01*
X012827Y011821D01*
X012693Y011821D01*
X012626Y011887D01*
X012366Y011887D02*
X012366Y012221D01*
X012299Y012221D02*
X012433Y012221D01*
X012307Y012271D02*
X012705Y012271D01*
X011973Y012154D02*
X011906Y012221D01*
X011772Y012221D01*
X011706Y012154D01*
X011706Y012088D01*
X011772Y012021D01*
X011906Y012021D01*
X011973Y011954D01*
X011973Y011887D01*
X011906Y011821D01*
X011772Y011821D01*
X011706Y011887D01*
X011806Y011671D02*
X012906Y011671D01*
X012926Y011669D01*
X012944Y011663D01*
X012962Y011654D01*
X012977Y011642D01*
X012989Y011627D01*
X012998Y011609D01*
X013004Y011591D01*
X013006Y011571D01*
X013006Y010971D01*
X013004Y010951D01*
X012998Y010933D01*
X012989Y010915D01*
X012977Y010900D01*
X012962Y010888D01*
X012944Y010879D01*
X012926Y010873D01*
X012906Y010871D01*
X011806Y010871D01*
X011786Y010873D01*
X011768Y010879D01*
X011750Y010888D01*
X011735Y010900D01*
X011723Y010915D01*
X011714Y010933D01*
X011708Y010951D01*
X011706Y010971D01*
X011706Y011571D01*
X011708Y011591D01*
X011714Y011609D01*
X011723Y011627D01*
X011735Y011642D01*
X011750Y011654D01*
X011768Y011663D01*
X011786Y011669D01*
X011806Y011671D01*
X012166Y011887D02*
X012233Y011821D01*
X012299Y011821D01*
X012366Y011887D01*
X011913Y012271D02*
X011515Y012271D01*
X011121Y012271D02*
X010722Y012271D01*
X010329Y012271D02*
X009930Y012271D01*
X009536Y012271D02*
X009138Y012271D01*
X008744Y012271D02*
X008345Y012271D01*
X007952Y012271D02*
X007553Y012271D01*
X007159Y012271D02*
X006761Y012271D01*
X006367Y012271D02*
X005968Y012271D01*
X005575Y012271D02*
X005176Y012271D01*
X005118Y012138D02*
X004918Y012138D01*
X004918Y011871D01*
X004724Y011871D02*
X004524Y011871D01*
X004457Y011937D01*
X004524Y012004D01*
X004724Y012004D01*
X004724Y012071D02*
X004658Y012138D01*
X004524Y012138D01*
X004384Y012271D02*
X004782Y012271D01*
X004724Y012071D02*
X004724Y011871D01*
X004799Y011671D02*
X004799Y011271D01*
X004666Y011271D02*
X004933Y011271D01*
X004666Y011538D02*
X004799Y011671D01*
X004473Y011538D02*
X004339Y011271D01*
X004206Y011538D01*
X004264Y011871D02*
X004064Y011871D01*
X003997Y011937D01*
X003997Y012071D01*
X004064Y012138D01*
X004264Y012138D01*
X003990Y012271D02*
X003591Y012271D01*
X003537Y012071D02*
X003804Y012071D01*
X003343Y012071D02*
X003343Y011937D01*
X003277Y011871D01*
X003076Y011871D01*
X003076Y011737D02*
X003076Y012138D01*
X003277Y012138D01*
X003343Y012071D01*
X003198Y012271D02*
X002799Y012271D01*
X002883Y012138D02*
X002616Y011871D01*
X002423Y012004D02*
X002156Y012004D01*
X002156Y011937D02*
X002156Y012071D01*
X002222Y012138D01*
X002356Y012138D01*
X002423Y012071D01*
X002423Y012004D01*
X002356Y011871D02*
X002222Y011871D01*
X002156Y011937D01*
X002006Y011837D02*
X002006Y012271D01*
X002007Y012271D02*
X002405Y012271D01*
X002616Y012138D02*
X002883Y011871D01*
X002006Y011444D02*
X002006Y011010D01*
X002006Y010617D02*
X002006Y010183D01*
X002156Y010137D02*
X002222Y010071D01*
X002289Y010137D01*
X002356Y010071D01*
X002423Y010137D01*
X002423Y010338D01*
X002616Y010338D02*
X002616Y010137D01*
X002683Y010071D01*
X002749Y010137D01*
X002816Y010071D01*
X002883Y010137D01*
X002883Y010338D01*
X003076Y010338D02*
X003076Y010137D01*
X003143Y010071D01*
X003210Y010137D01*
X003277Y010071D01*
X003343Y010137D01*
X003343Y010338D01*
X003537Y010137D02*
X003603Y010137D01*
X003603Y010071D01*
X003537Y010071D01*
X003537Y010137D01*
X003767Y010137D02*
X003834Y010204D01*
X004034Y010204D01*
X004034Y010271D02*
X004034Y010071D01*
X003834Y010071D01*
X003767Y010137D01*
X003967Y010338D02*
X004034Y010271D01*
X003967Y010338D02*
X003834Y010338D01*
X004227Y010338D02*
X004227Y010137D01*
X004294Y010071D01*
X004494Y010071D01*
X004494Y010338D01*
X004688Y010338D02*
X004754Y010338D01*
X004821Y010271D01*
X004888Y010338D01*
X004954Y010271D01*
X004954Y010071D01*
X004821Y010071D02*
X004821Y010271D01*
X004688Y010338D02*
X004688Y010071D01*
X005148Y010071D02*
X005281Y010071D01*
X005215Y010071D02*
X005215Y010471D01*
X005148Y010471D01*
X005685Y010271D02*
X005752Y010338D01*
X005952Y010338D01*
X005885Y010204D02*
X005752Y010204D01*
X005685Y010271D01*
X005685Y010071D02*
X005885Y010071D01*
X005952Y010137D01*
X005885Y010204D01*
X006145Y010204D02*
X006412Y010204D01*
X006412Y010271D01*
X006346Y010338D01*
X006212Y010338D01*
X006145Y010271D01*
X006145Y010137D01*
X006212Y010071D01*
X006346Y010071D01*
X005522Y010071D02*
X005455Y010071D01*
X005455Y010137D01*
X005522Y010137D01*
X005522Y010071D01*
X005416Y009171D02*
X005416Y008971D01*
X005549Y009038D01*
X005616Y009038D01*
X005683Y008971D01*
X005683Y008837D01*
X005616Y008771D01*
X005483Y008771D01*
X005416Y008837D01*
X005223Y008837D02*
X005156Y008771D01*
X005022Y008771D01*
X004956Y008837D01*
X004956Y009104D01*
X005022Y009171D01*
X005156Y009171D01*
X005223Y009104D01*
X005416Y009171D02*
X005683Y009171D01*
X006656Y008971D02*
X008556Y008971D01*
X008556Y011671D01*
X008106Y011671D01*
X008106Y011421D01*
X007106Y011421D01*
X007106Y011671D01*
X006656Y011671D01*
X006656Y008971D01*
X005706Y008571D02*
X005256Y008571D01*
X003262Y008571D02*
X003129Y008504D01*
X002995Y008371D01*
X003195Y008371D01*
X003262Y008304D01*
X003262Y008237D01*
X003195Y008171D01*
X003062Y008171D01*
X002995Y008237D01*
X002995Y008371D01*
X002802Y008504D02*
X002735Y008571D01*
X002602Y008571D01*
X002535Y008504D01*
X002535Y008237D01*
X002602Y008171D01*
X002735Y008171D01*
X002802Y008237D01*
X002006Y008136D02*
X002006Y007702D01*
X002505Y007392D02*
X002572Y007458D01*
X002639Y007458D01*
X002706Y007392D01*
X002772Y007458D01*
X002839Y007458D01*
X002906Y007392D01*
X002906Y007258D01*
X002839Y007191D01*
X002706Y007325D02*
X002706Y007392D01*
X002505Y007392D02*
X002505Y007258D01*
X002572Y007191D01*
X003106Y007421D02*
X003106Y006321D01*
X003108Y006301D01*
X003114Y006283D01*
X003123Y006265D01*
X003135Y006250D01*
X003150Y006238D01*
X003168Y006229D01*
X003186Y006223D01*
X003206Y006221D01*
X003806Y006221D01*
X003826Y006223D01*
X003844Y006229D01*
X003862Y006238D01*
X003877Y006250D01*
X003889Y006265D01*
X003898Y006283D01*
X003904Y006301D01*
X003906Y006321D01*
X003906Y007421D01*
X003904Y007441D01*
X003898Y007459D01*
X003889Y007477D01*
X003877Y007492D01*
X003862Y007504D01*
X003844Y007513D01*
X003826Y007519D01*
X003806Y007521D01*
X003206Y007521D01*
X003186Y007519D01*
X003168Y007513D01*
X003150Y007504D01*
X003135Y007492D01*
X003123Y007477D01*
X003114Y007459D01*
X003108Y007441D01*
X003106Y007421D01*
X002839Y006931D02*
X002505Y006931D01*
X002505Y006865D02*
X002505Y006998D01*
X002839Y006931D02*
X002906Y006865D01*
X002906Y006798D01*
X002839Y006731D01*
X002839Y006538D02*
X002772Y006538D01*
X002706Y006471D01*
X002706Y006337D01*
X002639Y006271D01*
X002572Y006271D01*
X002505Y006337D01*
X002505Y006471D01*
X002572Y006538D01*
X002839Y006538D02*
X002906Y006471D01*
X002906Y006337D01*
X002839Y006271D01*
X002006Y006481D02*
X002006Y006048D01*
X002006Y005654D02*
X002006Y005221D01*
X005006Y006321D02*
X005006Y007421D01*
X005008Y007441D01*
X005014Y007459D01*
X005023Y007477D01*
X005035Y007492D01*
X005050Y007504D01*
X005068Y007513D01*
X005086Y007519D01*
X005106Y007521D01*
X005706Y007521D01*
X005726Y007519D01*
X005744Y007513D01*
X005762Y007504D01*
X005777Y007492D01*
X005789Y007477D01*
X005798Y007459D01*
X005804Y007441D01*
X005806Y007421D01*
X005806Y006321D01*
X005804Y006301D01*
X005798Y006283D01*
X005789Y006265D01*
X005777Y006250D01*
X005762Y006238D01*
X005744Y006229D01*
X005726Y006223D01*
X005706Y006221D01*
X005106Y006221D01*
X005086Y006223D01*
X005068Y006229D01*
X005050Y006238D01*
X005035Y006250D01*
X005023Y006265D01*
X005014Y006283D01*
X005008Y006301D01*
X005006Y006321D01*
X006005Y006356D02*
X006072Y006290D01*
X006139Y006290D01*
X006206Y006356D01*
X006206Y006490D01*
X006272Y006557D01*
X006339Y006557D01*
X006406Y006490D01*
X006406Y006356D01*
X006339Y006290D01*
X006005Y006356D02*
X006005Y006490D01*
X006072Y006557D01*
X006339Y006750D02*
X006406Y006817D01*
X006406Y006883D01*
X006339Y006950D01*
X006005Y006950D01*
X006005Y006883D02*
X006005Y007017D01*
X006072Y007210D02*
X006005Y007277D01*
X006005Y007411D01*
X006072Y007477D01*
X006139Y007477D01*
X006406Y007210D01*
X006406Y007477D01*
X005706Y007671D02*
X005256Y007671D01*
X007306Y008021D02*
X007306Y007121D01*
X008406Y007121D02*
X008406Y008021D01*
X008778Y007871D02*
X008911Y007871D01*
X008845Y007871D02*
X008845Y008271D01*
X008911Y008271D02*
X008778Y008271D01*
X009085Y008204D02*
X009085Y007937D01*
X009152Y007871D01*
X009285Y007871D01*
X009352Y007937D01*
X009545Y007871D02*
X009812Y008138D01*
X009812Y008204D01*
X009745Y008271D01*
X009612Y008271D01*
X009545Y008204D01*
X009352Y008204D02*
X009285Y008271D01*
X009152Y008271D01*
X009085Y008204D01*
X009545Y007871D02*
X009812Y007871D01*
X011385Y008071D02*
X011385Y008471D01*
X011585Y008471D01*
X011652Y008404D01*
X011652Y008271D01*
X011585Y008204D01*
X011385Y008204D01*
X011518Y008204D02*
X011652Y008071D01*
X011845Y008071D02*
X012112Y008338D01*
X012112Y008404D01*
X012045Y008471D01*
X011912Y008471D01*
X011845Y008404D01*
X011845Y008071D02*
X012112Y008071D01*
X011095Y008784D02*
X011097Y008799D01*
X011103Y008813D01*
X011112Y008826D01*
X011124Y008835D01*
X011139Y008841D01*
X011154Y008843D01*
X011169Y008841D01*
X011183Y008835D01*
X011196Y008826D01*
X011205Y008814D01*
X011211Y008799D01*
X011213Y008784D01*
X011211Y008769D01*
X011205Y008755D01*
X011196Y008742D01*
X011184Y008733D01*
X011169Y008727D01*
X011154Y008725D01*
X011139Y008727D01*
X011125Y008733D01*
X011112Y008742D01*
X011103Y008754D01*
X011097Y008769D01*
X011095Y008784D01*
X011806Y009321D02*
X012906Y009321D01*
X012926Y009323D01*
X012944Y009329D01*
X012962Y009338D01*
X012977Y009350D01*
X012989Y009365D01*
X012998Y009383D01*
X013004Y009401D01*
X013006Y009421D01*
X013006Y010021D01*
X013004Y010041D01*
X012998Y010059D01*
X012989Y010077D01*
X012977Y010092D01*
X012962Y010104D01*
X012944Y010113D01*
X012926Y010119D01*
X012906Y010121D01*
X011806Y010121D01*
X011786Y010119D01*
X011768Y010113D01*
X011750Y010104D01*
X011735Y010092D01*
X011723Y010077D01*
X011714Y010059D01*
X011708Y010041D01*
X011706Y010021D01*
X011706Y009421D01*
X011708Y009401D01*
X011714Y009383D01*
X011723Y009365D01*
X011735Y009350D01*
X011750Y009338D01*
X011768Y009329D01*
X011786Y009323D01*
X011806Y009321D01*
X011086Y009811D02*
X010246Y009811D01*
X010225Y009812D01*
X010205Y009817D01*
X010187Y009826D01*
X010170Y009838D01*
X010157Y009854D01*
X010146Y009871D01*
X010139Y009891D01*
X010136Y009911D01*
X010136Y010331D01*
X010138Y010351D01*
X010144Y010369D01*
X010153Y010387D01*
X010165Y010402D01*
X010180Y010414D01*
X010198Y010423D01*
X010216Y010429D01*
X010236Y010431D01*
X011076Y010431D01*
X011096Y010429D01*
X011114Y010423D01*
X011132Y010414D01*
X011147Y010402D01*
X011159Y010387D01*
X011168Y010369D01*
X011174Y010351D01*
X011176Y010331D01*
X011176Y009911D01*
X011175Y009892D01*
X011171Y009874D01*
X011163Y009857D01*
X011152Y009842D01*
X011138Y009830D01*
X011122Y009820D01*
X011104Y009814D01*
X011086Y009811D01*
X011706Y010337D02*
X011772Y010271D01*
X011906Y010271D01*
X011973Y010337D01*
X011973Y010404D01*
X011906Y010471D01*
X011772Y010471D01*
X011706Y010538D01*
X011706Y010604D01*
X011772Y010671D01*
X011906Y010671D01*
X011973Y010604D01*
X012299Y010671D02*
X012433Y010671D01*
X012366Y010671D02*
X012366Y010337D01*
X012299Y010271D01*
X012233Y010271D01*
X012166Y010337D01*
X012626Y010471D02*
X012893Y010471D01*
X012827Y010671D02*
X012626Y010471D01*
X012827Y010271D02*
X012827Y010671D01*
X013235Y010254D02*
X013302Y010321D01*
X013435Y010321D01*
X013502Y010254D01*
X013695Y010254D02*
X013762Y010321D01*
X013895Y010321D01*
X013962Y010254D01*
X013962Y010188D01*
X013695Y009921D01*
X013962Y009921D01*
X013502Y009987D02*
X013435Y009921D01*
X013302Y009921D01*
X013235Y009987D01*
X013235Y010254D01*
X011293Y010954D02*
X011293Y011021D01*
X011026Y011021D01*
X010833Y011021D02*
X010699Y011021D01*
X010766Y011021D02*
X010766Y010687D01*
X010699Y010621D01*
X010633Y010621D01*
X010566Y010687D01*
X010373Y010687D02*
X010306Y010621D01*
X010172Y010621D01*
X010106Y010687D01*
X010172Y010821D02*
X010306Y010821D01*
X010373Y010754D01*
X010373Y010687D01*
X010172Y010821D02*
X010106Y010888D01*
X010106Y010954D01*
X010172Y011021D01*
X010306Y011021D01*
X010373Y010954D01*
X011026Y010687D02*
X011026Y010621D01*
X011026Y010687D02*
X011293Y010954D01*
X011127Y011621D02*
X010993Y011621D01*
X010926Y011687D01*
X011193Y011954D01*
X011193Y011687D01*
X011127Y011621D01*
X010926Y011687D02*
X010926Y011954D01*
X010993Y012021D01*
X011127Y012021D01*
X011193Y011954D01*
X010599Y012021D02*
X010599Y011621D01*
X010466Y011621D02*
X010733Y011621D01*
X010273Y011687D02*
X010206Y011621D01*
X010072Y011621D01*
X010006Y011687D01*
X010006Y011954D01*
X010072Y012021D01*
X010206Y012021D01*
X010273Y011954D01*
X010466Y011888D02*
X010599Y012021D01*
X008956Y010898D02*
X008956Y010631D01*
X008755Y010831D01*
X009156Y010831D01*
X009156Y010438D02*
X009022Y010304D01*
X009022Y010371D02*
X009022Y010171D01*
X009156Y010171D02*
X008755Y010171D01*
X008755Y010371D01*
X008822Y010438D01*
X008956Y010438D01*
X009022Y010371D01*
X006462Y011271D02*
X006195Y011271D01*
X006329Y011271D02*
X006329Y011671D01*
X006195Y011538D01*
X006002Y011671D02*
X005735Y011271D01*
X006002Y011271D02*
X005735Y011671D01*
X005185Y011871D02*
X005185Y012071D01*
X005118Y012138D01*
X002156Y010338D02*
X002156Y010137D01*
X002006Y009790D02*
X002006Y009356D01*
X002006Y008963D02*
X002006Y008529D01*
X002006Y007309D02*
X002006Y006875D01*
X008656Y006871D02*
X008656Y006471D01*
X008923Y006471D01*
X009116Y006471D02*
X009383Y006471D01*
X009249Y006471D02*
X009249Y006871D01*
X009116Y006738D01*
X011056Y006654D02*
X011256Y006654D01*
X011323Y006721D01*
X011323Y006854D01*
X011256Y006921D01*
X011056Y006921D01*
X011056Y006521D01*
X011189Y006654D02*
X011323Y006521D01*
X011516Y006587D02*
X011583Y006521D01*
X011716Y006521D01*
X011783Y006587D01*
X011783Y006721D01*
X011716Y006788D01*
X011649Y006788D01*
X011516Y006721D01*
X011516Y006921D01*
X011783Y006921D01*
X011976Y006854D02*
X012043Y006921D01*
X012177Y006921D01*
X012243Y006854D01*
X012243Y006788D01*
X011976Y006521D01*
X012243Y006521D01*
X012578Y006871D02*
X012711Y006871D01*
X012645Y006871D02*
X012645Y007271D01*
X012711Y007271D02*
X012578Y007271D01*
X012885Y007204D02*
X012885Y006937D01*
X012952Y006871D01*
X013085Y006871D01*
X013152Y006937D01*
X013345Y006871D02*
X013612Y006871D01*
X013479Y006871D02*
X013479Y007271D01*
X013345Y007138D01*
X013152Y007204D02*
X013085Y007271D01*
X012952Y007271D01*
X012885Y007204D01*
X016048Y008929D02*
X016050Y008944D01*
X016056Y008958D01*
X016065Y008971D01*
X016077Y008980D01*
X016092Y008986D01*
X016107Y008988D01*
X016122Y008986D01*
X016136Y008980D01*
X016149Y008971D01*
X016158Y008959D01*
X016164Y008944D01*
X016166Y008929D01*
X016164Y008914D01*
X016158Y008900D01*
X016149Y008887D01*
X016137Y008878D01*
X016122Y008872D01*
X016107Y008870D01*
X016092Y008872D01*
X016078Y008878D01*
X016065Y008887D01*
X016056Y008899D01*
X016050Y008914D01*
X016048Y008929D01*
X016656Y009071D02*
X016656Y009471D01*
X016856Y009471D01*
X016923Y009404D01*
X016923Y009271D01*
X016856Y009204D01*
X016656Y009204D01*
X016789Y009204D02*
X016923Y009071D01*
X017116Y009137D02*
X017183Y009071D01*
X017316Y009071D01*
X017383Y009137D01*
X017383Y009204D01*
X017316Y009271D01*
X017249Y009271D01*
X017316Y009271D02*
X017383Y009338D01*
X017383Y009404D01*
X017316Y009471D01*
X017183Y009471D01*
X017116Y009404D01*
X018706Y009837D02*
X018706Y010104D01*
X018772Y010171D01*
X018906Y010171D01*
X018973Y010104D01*
X019166Y009971D02*
X019433Y009971D01*
X019366Y009771D02*
X019366Y010171D01*
X019166Y009971D01*
X018973Y009837D02*
X018906Y009771D01*
X018772Y009771D01*
X018706Y009837D01*
X020356Y009661D02*
X021756Y009661D01*
X021756Y007081D01*
X020356Y007081D01*
X020356Y009661D01*
X020456Y009891D02*
X020589Y009891D01*
X020522Y009891D02*
X020522Y010291D01*
X020456Y010291D02*
X020589Y010291D01*
X020763Y010224D02*
X020763Y009957D01*
X020829Y009891D01*
X020963Y009891D01*
X021029Y009957D01*
X021223Y009957D02*
X021290Y009891D01*
X021423Y009891D01*
X021490Y009957D01*
X021490Y010024D01*
X021423Y010091D01*
X021356Y010091D01*
X021423Y010091D02*
X021490Y010158D01*
X021490Y010224D01*
X021423Y010291D01*
X021290Y010291D01*
X021223Y010224D01*
X021029Y010224D02*
X020963Y010291D01*
X020829Y010291D01*
X020763Y010224D01*
X018383Y011621D02*
X018116Y011621D01*
X018249Y011621D02*
X018249Y012021D01*
X018116Y011888D01*
X017923Y011954D02*
X017856Y012021D01*
X017722Y012021D01*
X017656Y011954D01*
X017656Y011687D01*
X017722Y011621D01*
X017856Y011621D01*
X017923Y011687D01*
X018306Y008508D02*
X018306Y008241D01*
X018306Y008375D02*
X017905Y008375D01*
X018039Y008241D01*
X017905Y008048D02*
X017905Y007915D01*
X017905Y007981D02*
X018239Y007981D01*
X018306Y007915D01*
X018306Y007848D01*
X018239Y007781D01*
X018239Y007588D02*
X018306Y007521D01*
X018306Y007387D01*
X018239Y007321D01*
X018106Y007387D02*
X018106Y007521D01*
X018172Y007588D01*
X018239Y007588D01*
X017972Y007588D02*
X017905Y007521D01*
X017905Y007387D01*
X017972Y007321D01*
X018039Y007321D01*
X018106Y007387D01*
X018506Y007271D02*
X018506Y008371D01*
X018508Y008391D01*
X018514Y008409D01*
X018523Y008427D01*
X018535Y008442D01*
X018550Y008454D01*
X018568Y008463D01*
X018586Y008469D01*
X018606Y008471D01*
X019206Y008471D01*
X019226Y008469D01*
X019244Y008463D01*
X019262Y008454D01*
X019277Y008442D01*
X019289Y008427D01*
X019298Y008409D01*
X019304Y008391D01*
X019306Y008371D01*
X019306Y007271D01*
X019304Y007251D01*
X019298Y007233D01*
X019289Y007215D01*
X019277Y007200D01*
X019262Y007188D01*
X019244Y007179D01*
X019226Y007173D01*
X019206Y007171D01*
X018606Y007171D01*
X018586Y007173D01*
X018568Y007179D01*
X018550Y007188D01*
X018535Y007200D01*
X018523Y007215D01*
X018514Y007233D01*
X018508Y007251D01*
X018506Y007271D01*
X019385Y006804D02*
X019385Y006537D01*
X019452Y006471D01*
X019585Y006471D01*
X019652Y006537D01*
X019845Y006537D02*
X019912Y006471D01*
X020045Y006471D01*
X020112Y006537D01*
X020112Y006604D01*
X020045Y006671D01*
X019979Y006671D01*
X020045Y006671D02*
X020112Y006738D01*
X020112Y006804D01*
X020045Y006871D01*
X019912Y006871D01*
X019845Y006804D01*
X019652Y006804D02*
X019585Y006871D01*
X019452Y006871D01*
X019385Y006804D01*
X017362Y006321D02*
X017095Y006321D01*
X017229Y006321D02*
X017229Y006721D01*
X017095Y006588D01*
X016902Y006654D02*
X016902Y006521D01*
X016835Y006454D01*
X016635Y006454D01*
X016635Y006321D02*
X016635Y006721D01*
X016835Y006721D01*
X016902Y006654D01*
X016768Y006454D02*
X016902Y006321D01*
X016785Y007371D02*
X016852Y007437D01*
X016785Y007371D02*
X016652Y007371D01*
X016585Y007437D01*
X016585Y007704D01*
X016652Y007771D01*
X016785Y007771D01*
X016852Y007704D01*
X017045Y007704D02*
X017045Y007638D01*
X017112Y007571D01*
X017312Y007571D01*
X017312Y007704D02*
X017312Y007437D01*
X017245Y007371D01*
X017112Y007371D01*
X017045Y007437D01*
X017045Y007704D02*
X017112Y007771D01*
X017245Y007771D01*
X017312Y007704D01*
D11*
X021375Y011121D02*
X021377Y011169D01*
X021384Y011217D01*
X021395Y011264D01*
X021410Y011310D01*
X021429Y011354D01*
X021452Y011397D01*
X021479Y011437D01*
X021510Y011475D01*
X021544Y011509D01*
X021580Y011540D01*
X021620Y011568D01*
X021662Y011592D01*
X021706Y011613D01*
X021751Y011629D01*
X021798Y011641D01*
X021846Y011649D01*
X021894Y011652D01*
X021942Y011651D01*
X021990Y011645D01*
X022038Y011635D01*
X022084Y011621D01*
X022129Y011603D01*
X022171Y011581D01*
X022212Y011555D01*
X022250Y011525D01*
X022286Y011492D01*
X022318Y011456D01*
X022347Y011417D01*
X022372Y011376D01*
X022393Y011333D01*
X022410Y011287D01*
X022423Y011241D01*
X022432Y011193D01*
X022436Y011145D01*
X022436Y011097D01*
X022432Y011049D01*
X022423Y011001D01*
X022410Y010955D01*
X022393Y010909D01*
X022372Y010866D01*
X022347Y010825D01*
X022318Y010786D01*
X022286Y010750D01*
X022250Y010717D01*
X022212Y010687D01*
X022172Y010661D01*
X022129Y010639D01*
X022084Y010621D01*
X022038Y010607D01*
X021990Y010597D01*
X021942Y010591D01*
X021894Y010590D01*
X021846Y010593D01*
X021798Y010601D01*
X021751Y010613D01*
X021706Y010629D01*
X021662Y010650D01*
X021620Y010674D01*
X021580Y010702D01*
X021544Y010733D01*
X021510Y010767D01*
X021479Y010805D01*
X021452Y010845D01*
X021429Y010888D01*
X021410Y010932D01*
X021395Y010978D01*
X021384Y011025D01*
X021377Y011073D01*
X021375Y011121D01*
X007532Y011580D02*
X007534Y011615D01*
X007540Y011649D01*
X007550Y011683D01*
X007565Y011715D01*
X007582Y011745D01*
X007604Y011773D01*
X007628Y011798D01*
X007655Y011820D01*
X007685Y011838D01*
X007716Y011853D01*
X007749Y011865D01*
X007783Y011872D01*
X007818Y011875D01*
X007853Y011874D01*
X007888Y011869D01*
X007921Y011859D01*
X007954Y011846D01*
X007984Y011829D01*
X008013Y011809D01*
X008039Y011785D01*
X008061Y011759D01*
X008081Y011730D01*
X008097Y011699D01*
X008109Y011666D01*
X008117Y011632D01*
X008121Y011597D01*
X008121Y011563D01*
X008117Y011528D01*
X008109Y011494D01*
X008097Y011461D01*
X008081Y011430D01*
X008061Y011401D01*
X008039Y011375D01*
X008013Y011351D01*
X007984Y011331D01*
X007954Y011314D01*
X007921Y011301D01*
X007888Y011291D01*
X007853Y011286D01*
X007818Y011285D01*
X007783Y011288D01*
X007749Y011295D01*
X007716Y011307D01*
X007685Y011322D01*
X007655Y011340D01*
X007628Y011362D01*
X007604Y011387D01*
X007582Y011415D01*
X007565Y011445D01*
X007550Y011477D01*
X007540Y011511D01*
X007534Y011545D01*
X007532Y011580D01*
X002575Y011121D02*
X002577Y011169D01*
X002584Y011217D01*
X002595Y011264D01*
X002610Y011310D01*
X002629Y011354D01*
X002652Y011397D01*
X002679Y011437D01*
X002710Y011475D01*
X002744Y011509D01*
X002780Y011540D01*
X002820Y011568D01*
X002862Y011592D01*
X002906Y011613D01*
X002951Y011629D01*
X002998Y011641D01*
X003046Y011649D01*
X003094Y011652D01*
X003142Y011651D01*
X003190Y011645D01*
X003238Y011635D01*
X003284Y011621D01*
X003329Y011603D01*
X003371Y011581D01*
X003412Y011555D01*
X003450Y011525D01*
X003486Y011492D01*
X003518Y011456D01*
X003547Y011417D01*
X003572Y011376D01*
X003593Y011333D01*
X003610Y011287D01*
X003623Y011241D01*
X003632Y011193D01*
X003636Y011145D01*
X003636Y011097D01*
X003632Y011049D01*
X003623Y011001D01*
X003610Y010955D01*
X003593Y010909D01*
X003572Y010866D01*
X003547Y010825D01*
X003518Y010786D01*
X003486Y010750D01*
X003450Y010717D01*
X003412Y010687D01*
X003372Y010661D01*
X003329Y010639D01*
X003284Y010621D01*
X003238Y010607D01*
X003190Y010597D01*
X003142Y010591D01*
X003094Y010590D01*
X003046Y010593D01*
X002998Y010601D01*
X002951Y010613D01*
X002906Y010629D01*
X002862Y010650D01*
X002820Y010674D01*
X002780Y010702D01*
X002744Y010733D01*
X002710Y010767D01*
X002679Y010805D01*
X002652Y010845D01*
X002629Y010888D01*
X002610Y010932D01*
X002595Y010978D01*
X002584Y011025D01*
X002577Y011073D01*
X002575Y011121D01*
D12*
X006661Y011683D02*
X006661Y008959D01*
X008551Y008959D01*
X008551Y011683D01*
X008106Y011683D01*
X008106Y011371D01*
X007113Y011371D01*
X007106Y011371D02*
X007106Y011683D01*
X006661Y011683D01*
X005726Y008581D02*
X005246Y008581D01*
X005246Y007661D02*
X005726Y007661D01*
X007285Y008023D02*
X007285Y007109D01*
X008427Y007109D02*
X008427Y008033D01*
M02*
