G75*
G70*
%OFA0B0*%
%FSLAX24Y24*%
%IPPOS*%
%LPD*%
%AMOC8*
5,1,8,0,0,1.08239X$1,22.5*
%
%ADD10C,0.0100*%
%ADD11C,0.0000*%
%ADD12C,0.0060*%
%ADD13C,0.0700*%
%ADD14R,0.0236X0.0709*%
%ADD15R,0.0156X0.0512*%
%ADD16R,0.0145X0.0512*%
%ADD17R,0.0394X0.0394*%
%ADD18R,0.0390X0.0400*%
%ADD19C,0.0554*%
%ADD20R,0.0709X0.0551*%
%ADD21R,0.0880X0.0480*%
%ADD22R,0.0866X0.1417*%
%ADD23R,0.0630X0.0460*%
%ADD24R,0.0551X0.1063*%
%ADD25R,0.0460X0.0630*%
%ADD26R,0.0400X0.0390*%
%ADD27R,0.1339X0.0591*%
%ADD28R,0.0200X0.0400*%
%ADD29C,0.0120*%
%ADD30C,0.0436*%
%ADD31C,0.0160*%
D10*
X002006Y005221D02*
X002404Y005221D01*
X002798Y005221D02*
X003197Y005221D01*
X003590Y005221D02*
X003989Y005221D01*
X004383Y005221D02*
X004781Y005221D01*
X005175Y005221D02*
X005574Y005221D01*
X005967Y005221D02*
X006366Y005221D01*
X006760Y005221D02*
X007158Y005221D01*
X007552Y005221D02*
X007951Y005221D01*
X008344Y005221D02*
X008743Y005221D01*
X009137Y005221D02*
X009535Y005221D01*
X009929Y005221D02*
X010328Y005221D01*
X010721Y005221D02*
X011120Y005221D01*
X011514Y005221D02*
X011912Y005221D01*
X012306Y005221D02*
X012704Y005221D01*
X013098Y005221D02*
X013497Y005221D01*
X013891Y005221D02*
X014289Y005221D01*
X014683Y005221D02*
X015081Y005221D01*
X015475Y005221D02*
X015874Y005221D01*
X016267Y005221D02*
X016666Y005221D01*
X017060Y005221D02*
X017458Y005221D01*
X017852Y005221D02*
X018251Y005221D01*
X018644Y005221D02*
X019043Y005221D01*
X019437Y005221D02*
X019835Y005221D01*
X020229Y005221D02*
X020628Y005221D01*
X021021Y005221D02*
X021420Y005221D01*
X021814Y005221D02*
X022212Y005221D01*
X022606Y005221D02*
X023005Y005221D01*
X023006Y005221D02*
X023006Y005654D01*
X023006Y006048D02*
X023006Y006481D01*
X023006Y006875D02*
X023006Y007308D01*
X023006Y007702D02*
X023006Y008135D01*
X023006Y008529D02*
X023006Y008962D01*
X023006Y009356D02*
X023006Y009789D01*
X023006Y010183D02*
X023006Y010616D01*
X023006Y011010D02*
X023006Y011443D01*
X023006Y011837D02*
X023006Y012271D01*
X022607Y012271D01*
X022213Y012271D02*
X021815Y012271D01*
X021421Y012271D02*
X021022Y012271D01*
X020629Y012271D02*
X020230Y012271D01*
X019836Y012271D02*
X019438Y012271D01*
X019044Y012271D02*
X018645Y012271D01*
X018252Y012271D02*
X017853Y012271D01*
X017459Y012271D02*
X017061Y012271D01*
X016667Y012271D02*
X016268Y012271D01*
X015875Y012271D02*
X015476Y012271D01*
X015082Y012271D02*
X014684Y012271D01*
X014290Y012271D02*
X013891Y012271D01*
X013498Y012271D02*
X013099Y012271D01*
X012705Y012271D02*
X012307Y012271D01*
X011913Y012271D02*
X011515Y012271D01*
X011121Y012271D02*
X010722Y012271D01*
X010329Y012271D02*
X009930Y012271D01*
X009536Y012271D02*
X009138Y012271D01*
X008744Y012271D02*
X008345Y012271D01*
X007952Y012271D02*
X007553Y012271D01*
X007159Y012271D02*
X006761Y012271D01*
X006367Y012271D02*
X005968Y012271D01*
X005575Y012271D02*
X005176Y012271D01*
X004782Y012271D02*
X004384Y012271D01*
X003990Y012271D02*
X003591Y012271D01*
X003198Y012271D02*
X002799Y012271D01*
X002405Y012271D02*
X002007Y012271D01*
X002006Y012271D02*
X002006Y011837D01*
X002006Y011444D02*
X002006Y011010D01*
X002006Y010617D02*
X002006Y010183D01*
X002006Y009790D02*
X002006Y009356D01*
X002006Y008963D02*
X002006Y008529D01*
X002006Y008136D02*
X002006Y007702D01*
X002736Y007821D02*
X002736Y008539D01*
X002857Y008539D01*
X002857Y008837D01*
X002954Y008837D01*
X002954Y008539D01*
X003165Y008539D01*
X003252Y008627D01*
X003252Y008838D01*
X002954Y008838D01*
X002954Y008935D01*
X003252Y008935D01*
X003252Y009145D01*
X003177Y009221D01*
X003252Y009296D01*
X003252Y009441D01*
X003388Y009441D01*
X003388Y009398D01*
X003444Y009262D01*
X003547Y009159D01*
X003682Y009103D01*
X003829Y009103D01*
X003964Y009159D01*
X004068Y009262D01*
X004124Y009398D01*
X004124Y009544D01*
X004068Y009679D01*
X004026Y009721D01*
X006376Y009721D01*
X006376Y008802D01*
X005719Y008802D01*
X005631Y008714D01*
X005631Y007821D01*
X005341Y007821D01*
X005341Y008071D01*
X004965Y008071D01*
X004965Y008171D01*
X004865Y008171D01*
X004865Y008802D01*
X004577Y008802D01*
X004490Y008714D01*
X004490Y008171D01*
X004865Y008171D01*
X004865Y008071D01*
X004490Y008071D01*
X004490Y007893D01*
X004379Y007939D01*
X004232Y007939D01*
X004097Y007883D01*
X004035Y007821D01*
X002736Y007821D01*
X002736Y007881D02*
X004096Y007881D01*
X004490Y007980D02*
X002736Y007980D01*
X002736Y008079D02*
X004865Y008079D01*
X004865Y008177D02*
X004965Y008177D01*
X004965Y008171D02*
X004965Y008802D01*
X005253Y008802D01*
X005341Y008714D01*
X005341Y008171D01*
X004965Y008171D01*
X004965Y008079D02*
X005631Y008079D01*
X005631Y008177D02*
X005341Y008177D01*
X005341Y008276D02*
X005631Y008276D01*
X005631Y008374D02*
X005341Y008374D01*
X005341Y008473D02*
X005631Y008473D01*
X005631Y008571D02*
X005341Y008571D01*
X005341Y008670D02*
X005631Y008670D01*
X005685Y008768D02*
X005287Y008768D01*
X004965Y008768D02*
X004865Y008768D01*
X004865Y008670D02*
X004965Y008670D01*
X004965Y008571D02*
X004865Y008571D01*
X004865Y008473D02*
X004965Y008473D01*
X004965Y008374D02*
X004865Y008374D01*
X004865Y008276D02*
X004965Y008276D01*
X004490Y008276D02*
X002736Y008276D01*
X002736Y008374D02*
X004490Y008374D01*
X004490Y008473D02*
X002736Y008473D01*
X002857Y008571D02*
X002954Y008571D01*
X002954Y008670D02*
X002857Y008670D01*
X002857Y008768D02*
X002954Y008768D01*
X002954Y008867D02*
X006376Y008867D01*
X006376Y008965D02*
X003252Y008965D01*
X003252Y009064D02*
X006376Y009064D01*
X006376Y009163D02*
X003968Y009163D01*
X004067Y009261D02*
X006376Y009261D01*
X006376Y009360D02*
X004108Y009360D01*
X004124Y009458D02*
X006376Y009458D01*
X006376Y009557D02*
X004119Y009557D01*
X004078Y009655D02*
X006376Y009655D01*
X006956Y009921D02*
X007106Y010071D01*
X006956Y009921D02*
X006956Y008071D01*
X007106Y007921D01*
X010006Y007921D01*
X010106Y007821D01*
X010106Y007421D01*
X010156Y007421D01*
X010156Y007410D01*
X010106Y007410D01*
X010106Y006671D01*
X010021Y006671D01*
X009656Y006771D02*
X009656Y006421D01*
X009756Y006321D01*
X010456Y006321D01*
X010706Y006571D01*
X010690Y006586D01*
X010690Y006671D01*
X010706Y006671D01*
X010706Y007410D01*
X010656Y007410D01*
X009656Y007410D02*
X009606Y007410D01*
X009606Y007071D01*
X009156Y007071D01*
X009156Y007271D01*
X009556Y006871D02*
X008506Y006871D01*
X008379Y006744D01*
X007856Y006744D01*
X009556Y006871D02*
X009656Y006771D01*
X011106Y008571D02*
X012156Y007521D01*
X012506Y007521D01*
X013506Y007371D02*
X013506Y006671D01*
X012556Y005721D01*
X012506Y005721D01*
X013456Y005771D02*
X013506Y005721D01*
X013456Y005771D02*
X013456Y006321D01*
X013806Y006671D01*
X014256Y006671D01*
X014306Y006721D01*
X014306Y007071D01*
X014316Y007081D01*
X014316Y007089D01*
X014556Y007171D02*
X014556Y007471D01*
X014506Y007521D01*
X013656Y007521D01*
X013506Y007371D01*
X014556Y007171D02*
X014572Y007155D01*
X014572Y007089D01*
X015084Y007089D02*
X015106Y007089D01*
X015106Y006121D01*
X014706Y005721D01*
X014506Y005721D01*
X015356Y005721D02*
X015356Y007089D01*
X015340Y007089D01*
X015595Y007089D02*
X015595Y007081D01*
X015606Y007071D01*
X015606Y006771D01*
X015706Y006671D01*
X017056Y006671D01*
X017206Y006821D01*
X017206Y006921D01*
X017290Y007005D01*
X017290Y007021D01*
X017306Y007021D01*
X018056Y006271D01*
X019756Y006271D01*
X020306Y005721D01*
X020506Y005721D01*
X016621Y007021D02*
X016621Y007055D01*
X016606Y007071D01*
X016606Y007721D01*
X018106Y007721D01*
X018356Y007971D01*
X018756Y007971D01*
X018906Y008121D01*
X016621Y008071D02*
X016606Y008021D01*
X016606Y007721D01*
X016106Y007671D02*
X015856Y007671D01*
X015806Y007721D01*
X015856Y007671D02*
X015856Y007071D01*
X015851Y007075D01*
X015851Y007089D01*
X016107Y007089D02*
X016107Y006922D01*
X016106Y006921D01*
X016106Y007671D01*
X016107Y007089D02*
X016107Y007072D01*
X016106Y006921D01*
X016506Y006921D01*
X016556Y007021D01*
X016621Y007021D01*
X015506Y005721D02*
X015356Y005721D01*
X015356Y008371D02*
X014806Y008921D01*
X014456Y008921D01*
X014456Y008371D01*
X015356Y008371D02*
X015656Y008371D01*
X016106Y008821D01*
X016106Y009354D01*
X016107Y009353D01*
X016106Y009354D02*
X016106Y009371D01*
X015856Y009357D02*
X015856Y009671D01*
X015956Y009771D01*
X016256Y009771D01*
X016356Y009671D01*
X016356Y009071D01*
X016556Y008871D01*
X016556Y008836D01*
X016621Y008771D01*
X015856Y008921D02*
X015706Y008771D01*
X015506Y008771D01*
X015856Y008921D02*
X015856Y009271D01*
X015851Y009275D01*
X015851Y009353D01*
X015856Y009357D01*
X015256Y009871D02*
X016756Y011371D01*
X016956Y011371D01*
X017007Y011422D01*
X017016Y011422D01*
X017054Y011422D01*
X017106Y011371D01*
X017856Y011371D01*
X017921Y011305D01*
X017906Y011305D01*
X015256Y009871D02*
X014456Y009871D01*
X014306Y009721D01*
X014306Y009521D01*
X014316Y009511D01*
X014316Y009353D01*
X014060Y009353D02*
X014060Y009416D01*
X014056Y009421D01*
X014056Y009871D01*
X014496Y010311D01*
X014496Y010418D01*
X014303Y010418D01*
X014306Y010421D01*
X014156Y010571D01*
X013556Y010571D01*
X013656Y010621D01*
X013606Y010636D01*
X012806Y009821D02*
X012806Y009671D01*
X013556Y008921D01*
X014456Y008921D01*
X013106Y008321D02*
X013056Y008371D01*
X013056Y008871D01*
X013036Y008871D01*
X012476Y008871D02*
X012456Y008871D01*
X012456Y008371D01*
X012406Y008321D01*
X012421Y008321D01*
X013090Y008321D02*
X013106Y008321D01*
X011106Y008571D02*
X011106Y009271D01*
X011156Y009321D01*
X011156Y009331D01*
X011206Y009421D01*
X011556Y009421D01*
X011956Y009821D01*
X012056Y009721D01*
X012656Y009721D02*
X012756Y009871D01*
X012806Y009821D01*
X010906Y010121D02*
X010706Y010121D01*
X009656Y010021D02*
X009506Y010171D01*
X009256Y009921D01*
X009106Y009921D01*
X009040Y009855D01*
X009006Y009855D01*
X008106Y009571D02*
X008106Y008571D01*
X008006Y008471D01*
X007856Y008398D01*
X009006Y009171D02*
X009106Y009071D01*
X009256Y009071D01*
X009306Y009021D01*
X009306Y008621D01*
X009006Y009171D02*
X009006Y009186D01*
X009656Y009331D02*
X009656Y010021D01*
X005631Y007980D02*
X005341Y007980D01*
X005341Y007881D02*
X005631Y007881D01*
X004490Y008177D02*
X002736Y008177D01*
X003197Y008571D02*
X004490Y008571D01*
X004490Y008670D02*
X003252Y008670D01*
X003252Y008768D02*
X004543Y008768D01*
X003543Y009163D02*
X003235Y009163D01*
X003217Y009261D02*
X003445Y009261D01*
X003403Y009360D02*
X003252Y009360D01*
X002006Y007309D02*
X002006Y006875D01*
X002006Y006481D02*
X002006Y006048D01*
X002006Y005654D02*
X002006Y005221D01*
D11*
X002575Y011121D02*
X002577Y011169D01*
X002584Y011217D01*
X002595Y011264D01*
X002610Y011310D01*
X002629Y011354D01*
X002652Y011397D01*
X002679Y011437D01*
X002710Y011475D01*
X002744Y011509D01*
X002780Y011540D01*
X002820Y011568D01*
X002862Y011592D01*
X002906Y011613D01*
X002951Y011629D01*
X002998Y011641D01*
X003046Y011649D01*
X003094Y011652D01*
X003142Y011651D01*
X003190Y011645D01*
X003238Y011635D01*
X003284Y011621D01*
X003329Y011603D01*
X003371Y011581D01*
X003412Y011555D01*
X003450Y011525D01*
X003486Y011492D01*
X003518Y011456D01*
X003547Y011417D01*
X003572Y011376D01*
X003593Y011333D01*
X003610Y011287D01*
X003623Y011241D01*
X003632Y011193D01*
X003636Y011145D01*
X003636Y011097D01*
X003632Y011049D01*
X003623Y011001D01*
X003610Y010955D01*
X003593Y010909D01*
X003572Y010866D01*
X003547Y010825D01*
X003518Y010786D01*
X003486Y010750D01*
X003450Y010717D01*
X003412Y010687D01*
X003372Y010661D01*
X003329Y010639D01*
X003284Y010621D01*
X003238Y010607D01*
X003190Y010597D01*
X003142Y010591D01*
X003094Y010590D01*
X003046Y010593D01*
X002998Y010601D01*
X002951Y010613D01*
X002906Y010629D01*
X002862Y010650D01*
X002820Y010674D01*
X002780Y010702D01*
X002744Y010733D01*
X002710Y010767D01*
X002679Y010805D01*
X002652Y010845D01*
X002629Y010888D01*
X002610Y010932D01*
X002595Y010978D01*
X002584Y011025D01*
X002577Y011073D01*
X002575Y011121D01*
X007532Y011580D02*
X007534Y011615D01*
X007540Y011649D01*
X007550Y011683D01*
X007565Y011715D01*
X007582Y011745D01*
X007604Y011773D01*
X007628Y011798D01*
X007655Y011820D01*
X007685Y011838D01*
X007716Y011853D01*
X007749Y011865D01*
X007783Y011872D01*
X007818Y011875D01*
X007853Y011874D01*
X007888Y011869D01*
X007921Y011859D01*
X007954Y011846D01*
X007984Y011829D01*
X008013Y011809D01*
X008039Y011785D01*
X008061Y011759D01*
X008081Y011730D01*
X008097Y011699D01*
X008109Y011666D01*
X008117Y011632D01*
X008121Y011597D01*
X008121Y011563D01*
X008117Y011528D01*
X008109Y011494D01*
X008097Y011461D01*
X008081Y011430D01*
X008061Y011401D01*
X008039Y011375D01*
X008013Y011351D01*
X007984Y011331D01*
X007954Y011314D01*
X007921Y011301D01*
X007888Y011291D01*
X007853Y011286D01*
X007818Y011285D01*
X007783Y011288D01*
X007749Y011295D01*
X007716Y011307D01*
X007685Y011322D01*
X007655Y011340D01*
X007628Y011362D01*
X007604Y011387D01*
X007582Y011415D01*
X007565Y011445D01*
X007550Y011477D01*
X007540Y011511D01*
X007534Y011545D01*
X007532Y011580D01*
X021375Y011121D02*
X021377Y011169D01*
X021384Y011217D01*
X021395Y011264D01*
X021410Y011310D01*
X021429Y011354D01*
X021452Y011397D01*
X021479Y011437D01*
X021510Y011475D01*
X021544Y011509D01*
X021580Y011540D01*
X021620Y011568D01*
X021662Y011592D01*
X021706Y011613D01*
X021751Y011629D01*
X021798Y011641D01*
X021846Y011649D01*
X021894Y011652D01*
X021942Y011651D01*
X021990Y011645D01*
X022038Y011635D01*
X022084Y011621D01*
X022129Y011603D01*
X022171Y011581D01*
X022212Y011555D01*
X022250Y011525D01*
X022286Y011492D01*
X022318Y011456D01*
X022347Y011417D01*
X022372Y011376D01*
X022393Y011333D01*
X022410Y011287D01*
X022423Y011241D01*
X022432Y011193D01*
X022436Y011145D01*
X022436Y011097D01*
X022432Y011049D01*
X022423Y011001D01*
X022410Y010955D01*
X022393Y010909D01*
X022372Y010866D01*
X022347Y010825D01*
X022318Y010786D01*
X022286Y010750D01*
X022250Y010717D01*
X022212Y010687D01*
X022172Y010661D01*
X022129Y010639D01*
X022084Y010621D01*
X022038Y010607D01*
X021990Y010597D01*
X021942Y010591D01*
X021894Y010590D01*
X021846Y010593D01*
X021798Y010601D01*
X021751Y010613D01*
X021706Y010629D01*
X021662Y010650D01*
X021620Y010674D01*
X021580Y010702D01*
X021544Y010733D01*
X021510Y010767D01*
X021479Y010805D01*
X021452Y010845D01*
X021429Y010888D01*
X021410Y010932D01*
X021395Y010978D01*
X021384Y011025D01*
X021377Y011073D01*
X021375Y011121D01*
D12*
X024022Y008825D02*
X024022Y008398D01*
X024129Y008291D01*
X024345Y008398D02*
X024452Y008291D01*
X024666Y008291D01*
X024772Y008398D01*
X024772Y008611D01*
X024666Y008718D01*
X024452Y008718D01*
X024345Y008611D01*
X024345Y008398D01*
X024129Y008718D02*
X023916Y008718D01*
X024990Y008718D02*
X025310Y008718D01*
X025417Y008611D01*
X025417Y008398D01*
X025310Y008291D01*
X024990Y008291D01*
X024990Y008077D02*
X024990Y008718D01*
D13*
X022506Y005721D03*
X021506Y005721D03*
X020506Y005721D03*
X019506Y005721D03*
X018506Y005721D03*
X017506Y005721D03*
X016506Y005721D03*
X015506Y005721D03*
X014506Y005721D03*
X013506Y005721D03*
X012506Y005721D03*
X011506Y005721D03*
X010506Y005721D03*
X009506Y005721D03*
X008506Y005721D03*
X007506Y005721D03*
X006506Y005721D03*
X005506Y005721D03*
X004506Y005721D03*
X003506Y005721D03*
X002506Y005721D03*
D14*
X009656Y007410D03*
X010156Y007410D03*
X010656Y007410D03*
X011156Y007410D03*
X011156Y009331D03*
X010656Y009331D03*
X010156Y009331D03*
X009656Y009331D03*
D15*
X013804Y009353D03*
X014060Y009353D03*
X014316Y009353D03*
X014572Y009353D03*
X014828Y009353D03*
X015084Y009353D03*
X015340Y009353D03*
X015595Y009353D03*
X015851Y009353D03*
X016107Y009353D03*
X015851Y007089D03*
X015595Y007089D03*
X015340Y007089D03*
X015084Y007089D03*
X014828Y007089D03*
X014572Y007089D03*
X014316Y007089D03*
X014060Y007089D03*
X013804Y007089D03*
D16*
X016107Y007089D03*
D17*
X016621Y008071D03*
X017290Y008071D03*
X018956Y008786D03*
X018956Y009455D03*
X017906Y010636D03*
X017906Y011305D03*
X013606Y011305D03*
X013606Y010636D03*
X010890Y011321D03*
X010221Y011321D03*
X002906Y009555D03*
X002906Y008886D03*
X020421Y006671D03*
X021090Y006671D03*
D18*
X017290Y007021D03*
X016621Y007021D03*
X013090Y008321D03*
X012421Y008321D03*
X010690Y006671D03*
X010021Y006671D03*
X016621Y008771D03*
X017290Y008771D03*
D19*
X008106Y009571D03*
X007106Y010071D03*
X008106Y010571D03*
X007106Y011071D03*
D20*
X014496Y011422D03*
X014496Y010418D03*
X017016Y010418D03*
X017016Y011422D03*
D21*
X019836Y009281D03*
X019836Y008371D03*
X019836Y007461D03*
D22*
X022276Y008371D03*
D23*
X018906Y008121D03*
X018906Y007521D03*
X005406Y007171D03*
X005406Y006571D03*
X003506Y006571D03*
X003506Y007171D03*
D24*
X004915Y008121D03*
X006057Y008121D03*
D25*
X012056Y009721D03*
X012656Y009721D03*
X012656Y011271D03*
X012056Y011271D03*
D26*
X009006Y009855D03*
X009006Y009186D03*
D27*
X007856Y008398D03*
X007856Y006744D03*
D28*
X010346Y010121D03*
X010656Y010121D03*
X010966Y010121D03*
D29*
X011246Y010081D02*
X011646Y010081D01*
X011646Y010110D02*
X011646Y009836D01*
X011460Y009651D01*
X011454Y009651D01*
X011454Y009760D01*
X011348Y009866D01*
X011246Y009866D01*
X011246Y010395D01*
X011216Y010425D01*
X011216Y010998D01*
X011229Y011011D01*
X011646Y011011D01*
X011646Y010881D01*
X011751Y010776D01*
X012360Y010776D01*
X012380Y010796D01*
X012601Y010796D01*
X012601Y011216D01*
X012711Y011216D01*
X012711Y011326D01*
X013046Y011326D01*
X013046Y011652D01*
X012952Y011746D01*
X012711Y011746D01*
X012711Y011326D01*
X012601Y011326D01*
X012601Y011746D01*
X012380Y011746D01*
X012360Y011766D01*
X011751Y011766D01*
X011646Y011660D01*
X011646Y011531D01*
X011267Y011531D01*
X011267Y011592D01*
X011162Y011698D01*
X011046Y011698D01*
X010916Y011828D01*
X010763Y011981D01*
X009463Y011981D01*
X009248Y011981D01*
X008598Y011331D01*
X008238Y011331D01*
X008302Y011486D01*
X008302Y011675D01*
X008230Y011849D01*
X008096Y011983D01*
X007957Y012041D01*
X021135Y012041D01*
X021044Y011968D01*
X020947Y011860D01*
X020868Y011738D01*
X020809Y011605D01*
X020783Y011511D01*
X018905Y011511D01*
X018706Y011511D01*
X018566Y011370D01*
X018566Y008531D01*
X018516Y008531D01*
X018411Y008425D01*
X018411Y008201D01*
X018260Y008201D01*
X018010Y007951D01*
X017647Y007951D01*
X017647Y008032D01*
X017329Y008032D01*
X017329Y008109D01*
X017647Y008109D01*
X017647Y008334D01*
X017561Y008420D01*
X017645Y008504D01*
X017645Y008733D01*
X017328Y008733D01*
X017328Y008411D01*
X017329Y008411D01*
X017329Y008109D01*
X017252Y008109D01*
X017252Y008411D01*
X017253Y008411D01*
X017253Y008733D01*
X017328Y008733D01*
X017328Y008808D01*
X017645Y008808D01*
X017645Y009037D01*
X017552Y009131D01*
X017328Y009131D01*
X017328Y008809D01*
X017253Y008809D01*
X017253Y009131D01*
X017029Y009131D01*
X016970Y009071D01*
X016891Y009151D01*
X016601Y009151D01*
X016586Y009166D01*
X016586Y009576D01*
X016586Y009766D01*
X016486Y009866D01*
X016351Y010001D01*
X016051Y010001D01*
X015860Y010001D01*
X015648Y009789D01*
X015499Y009789D01*
X016676Y010966D01*
X017444Y010966D01*
X017529Y011051D01*
X017529Y011034D01*
X017606Y010957D01*
X017549Y010899D01*
X017549Y010675D01*
X017867Y010675D01*
X017867Y010598D01*
X017549Y010598D01*
X017549Y010373D01*
X017643Y010279D01*
X017867Y010279D01*
X017867Y010597D01*
X017944Y010597D01*
X017944Y010279D01*
X018169Y010279D01*
X018262Y010373D01*
X018262Y010598D01*
X017944Y010598D01*
X017944Y010675D01*
X018262Y010675D01*
X018262Y010899D01*
X018205Y010957D01*
X018282Y011034D01*
X018282Y011577D01*
X018177Y011682D01*
X017634Y011682D01*
X017553Y011601D01*
X017550Y011601D01*
X017550Y011772D01*
X017444Y011878D01*
X016587Y011878D01*
X016481Y011772D01*
X016481Y011422D01*
X015160Y010101D01*
X015030Y010101D01*
X015030Y010768D01*
X014925Y010874D01*
X014067Y010874D01*
X013994Y010801D01*
X013982Y010801D01*
X013982Y010908D01*
X013905Y010985D01*
X013962Y011042D01*
X013962Y011267D01*
X013644Y011267D01*
X013644Y011344D01*
X013567Y011344D01*
X013567Y011267D01*
X013249Y011267D01*
X013249Y011042D01*
X013306Y010985D01*
X013229Y010908D01*
X013229Y010365D01*
X013334Y010259D01*
X013877Y010259D01*
X013959Y010341D01*
X013961Y010341D01*
X013961Y010102D01*
X013826Y009966D01*
X013826Y009776D01*
X013826Y009769D01*
X013804Y009769D01*
X013660Y009769D01*
X013566Y009675D01*
X013566Y009353D01*
X013802Y009353D01*
X013802Y009352D01*
X013566Y009352D01*
X013566Y009235D01*
X013066Y009736D01*
X013066Y010110D01*
X012960Y010216D01*
X012351Y010216D01*
X011751Y010216D01*
X011646Y010110D01*
X011735Y010200D02*
X011246Y010200D01*
X011246Y010318D02*
X013275Y010318D01*
X013229Y010437D02*
X011216Y010437D01*
X011216Y010555D02*
X013229Y010555D01*
X013229Y010674D02*
X011216Y010674D01*
X011216Y010792D02*
X011735Y010792D01*
X011646Y010911D02*
X011216Y010911D01*
X012377Y010792D02*
X013229Y010792D01*
X013232Y010911D02*
X013046Y010911D01*
X013046Y010889D02*
X013046Y011216D01*
X012711Y011216D01*
X012711Y010796D01*
X012952Y010796D01*
X013046Y010889D01*
X013046Y011029D02*
X013262Y011029D01*
X013249Y011148D02*
X013046Y011148D01*
X013249Y011266D02*
X012711Y011266D01*
X012711Y011148D02*
X012601Y011148D01*
X012601Y011029D02*
X012711Y011029D01*
X012711Y010911D02*
X012601Y010911D01*
X013249Y011344D02*
X013567Y011344D01*
X013567Y011662D01*
X013343Y011662D01*
X013249Y011569D01*
X013249Y011344D01*
X013249Y011385D02*
X013046Y011385D01*
X013046Y011504D02*
X013249Y011504D01*
X013302Y011622D02*
X013046Y011622D01*
X012957Y011741D02*
X013981Y011741D01*
X013981Y011764D02*
X013981Y011482D01*
X014436Y011482D01*
X014436Y011858D01*
X014075Y011858D01*
X013981Y011764D01*
X013981Y011622D02*
X013909Y011622D01*
X013869Y011662D02*
X013962Y011569D01*
X013962Y011344D01*
X013644Y011344D01*
X013644Y011662D01*
X013869Y011662D01*
X013644Y011622D02*
X013567Y011622D01*
X013567Y011504D02*
X013644Y011504D01*
X013644Y011385D02*
X013567Y011385D01*
X013962Y011385D02*
X014436Y011385D01*
X014436Y011362D02*
X014436Y011482D01*
X014556Y011482D01*
X015010Y011482D01*
X015010Y011764D01*
X014916Y011858D01*
X014556Y011858D01*
X014556Y011482D01*
X014556Y011362D01*
X015010Y011362D01*
X015010Y011080D01*
X014916Y010986D01*
X014556Y010986D01*
X014556Y011362D01*
X014436Y011362D01*
X014436Y010986D01*
X014075Y010986D01*
X013981Y011080D01*
X013981Y011362D01*
X014436Y011362D01*
X014436Y011266D02*
X014556Y011266D01*
X014556Y011148D02*
X014436Y011148D01*
X014436Y011029D02*
X014556Y011029D01*
X014032Y011029D02*
X013950Y011029D01*
X013962Y011148D02*
X013981Y011148D01*
X013981Y011266D02*
X013962Y011266D01*
X013962Y011504D02*
X013981Y011504D01*
X014436Y011504D02*
X014556Y011504D01*
X014556Y011622D02*
X014436Y011622D01*
X014436Y011741D02*
X014556Y011741D01*
X014556Y011385D02*
X016445Y011385D01*
X016481Y011504D02*
X015010Y011504D01*
X015010Y011622D02*
X016481Y011622D01*
X016481Y011741D02*
X015010Y011741D01*
X015010Y011266D02*
X016326Y011266D01*
X016208Y011148D02*
X015010Y011148D01*
X014959Y011029D02*
X016089Y011029D01*
X015971Y010911D02*
X013979Y010911D01*
X013961Y010318D02*
X013936Y010318D01*
X013961Y010200D02*
X012976Y010200D01*
X013066Y010081D02*
X013941Y010081D01*
X013826Y009963D02*
X013066Y009963D01*
X013066Y009844D02*
X013826Y009844D01*
X013804Y009769D02*
X013804Y009685D01*
X013804Y009769D01*
X013804Y009725D02*
X013804Y009725D01*
X013804Y009685D02*
X013804Y009685D01*
X013617Y009725D02*
X013076Y009725D01*
X013195Y009607D02*
X013566Y009607D01*
X013566Y009488D02*
X013313Y009488D01*
X013432Y009370D02*
X013566Y009370D01*
X013566Y009251D02*
X013550Y009251D01*
X013412Y008739D02*
X013460Y008691D01*
X014213Y008691D01*
X014118Y008596D01*
X014058Y008450D01*
X014058Y008292D01*
X014118Y008145D01*
X014230Y008033D01*
X014376Y007973D01*
X014535Y007973D01*
X014681Y008033D01*
X014793Y008145D01*
X014854Y008292D01*
X014854Y008450D01*
X014793Y008596D01*
X014699Y008691D01*
X014710Y008691D01*
X015260Y008141D01*
X015451Y008141D01*
X015751Y008141D01*
X015886Y008276D01*
X016201Y008591D01*
X016246Y008636D01*
X016246Y008496D01*
X016322Y008420D01*
X016244Y008342D01*
X016244Y007857D01*
X016201Y007901D01*
X016162Y007901D01*
X016143Y007946D01*
X016031Y008058D01*
X015885Y008119D01*
X015726Y008119D01*
X015580Y008058D01*
X015468Y007946D01*
X015408Y007800D01*
X015408Y007642D01*
X015456Y007525D01*
X015443Y007525D01*
X015187Y007525D01*
X014980Y007525D01*
X014786Y007525D01*
X014786Y007566D01*
X014736Y007616D01*
X014601Y007751D01*
X013751Y007751D01*
X013560Y007751D01*
X013410Y007601D01*
X013276Y007466D01*
X013276Y006766D01*
X012717Y006207D01*
X012611Y006251D01*
X012400Y006251D01*
X012205Y006170D01*
X012056Y006021D01*
X012006Y005899D01*
X011955Y006021D01*
X011806Y006170D01*
X011611Y006251D01*
X011400Y006251D01*
X011205Y006170D01*
X011056Y006021D01*
X011006Y005899D01*
X010955Y006021D01*
X010806Y006170D01*
X010682Y006222D01*
X010751Y006291D01*
X010960Y006291D01*
X011065Y006396D01*
X011065Y006876D01*
X011348Y006876D01*
X011454Y006981D01*
X011454Y007839D01*
X011416Y007877D01*
X011416Y007936D01*
X012060Y007291D01*
X012173Y007291D01*
X012280Y007183D01*
X012426Y007123D01*
X012585Y007123D01*
X012731Y007183D01*
X012843Y007295D01*
X012904Y007442D01*
X012904Y007600D01*
X012843Y007746D01*
X012731Y007858D01*
X012585Y007919D01*
X012426Y007919D01*
X012280Y007858D01*
X012212Y007790D01*
X011336Y008666D01*
X011336Y008797D01*
X011348Y008797D01*
X011454Y008903D01*
X011454Y009191D01*
X011460Y009191D01*
X011651Y009191D01*
X011719Y009258D01*
X011751Y009226D01*
X012293Y009226D01*
X012250Y009208D01*
X012138Y009096D01*
X012078Y008950D01*
X012078Y008792D01*
X012126Y008675D01*
X012046Y008595D01*
X012046Y008046D01*
X012151Y007941D01*
X012691Y007941D01*
X012756Y008006D01*
X012821Y007941D01*
X013360Y007941D01*
X013465Y008046D01*
X013465Y008595D01*
X013385Y008675D01*
X013412Y008739D01*
X013402Y008659D02*
X014180Y008659D01*
X014095Y008540D02*
X013465Y008540D01*
X013465Y008421D02*
X014058Y008421D01*
X014058Y008303D02*
X013465Y008303D01*
X013465Y008184D02*
X014102Y008184D01*
X014198Y008066D02*
X013465Y008066D01*
X013366Y007947D02*
X015469Y007947D01*
X015419Y007829D02*
X012761Y007829D01*
X012814Y007947D02*
X012697Y007947D01*
X012251Y007829D02*
X012173Y007829D01*
X012145Y007947D02*
X012054Y007947D01*
X012046Y008066D02*
X011936Y008066D01*
X012046Y008184D02*
X011817Y008184D01*
X011699Y008303D02*
X012046Y008303D01*
X012046Y008421D02*
X011580Y008421D01*
X011462Y008540D02*
X012046Y008540D01*
X012109Y008659D02*
X011343Y008659D01*
X011336Y008777D02*
X012084Y008777D01*
X012078Y008896D02*
X011447Y008896D01*
X011454Y009014D02*
X012104Y009014D01*
X012175Y009133D02*
X011454Y009133D01*
X011711Y009251D02*
X011726Y009251D01*
X011535Y009725D02*
X011454Y009725D01*
X011370Y009844D02*
X011646Y009844D01*
X011646Y009963D02*
X011246Y009963D01*
X010046Y010178D02*
X009896Y010028D01*
X009896Y009818D01*
X009886Y009828D01*
X009886Y009926D01*
X009886Y010048D01*
X009904Y010092D01*
X009904Y010250D01*
X009843Y010396D01*
X009731Y010508D01*
X009585Y010569D01*
X009426Y010569D01*
X009280Y010508D01*
X009168Y010396D01*
X009108Y010250D01*
X009108Y010230D01*
X008731Y010230D01*
X008626Y010125D01*
X008626Y009586D01*
X008691Y009521D01*
X008626Y009456D01*
X008626Y008917D01*
X008731Y008811D01*
X008954Y008811D01*
X008908Y008700D01*
X008908Y008542D01*
X008968Y008395D01*
X009080Y008283D01*
X009226Y008223D01*
X009385Y008223D01*
X009531Y008283D01*
X009609Y008361D01*
X009698Y008361D01*
X009913Y008361D01*
X010058Y008505D01*
X010058Y008492D01*
X010118Y008345D01*
X010230Y008233D01*
X010376Y008173D01*
X010486Y008173D01*
X010714Y007944D01*
X010463Y007944D01*
X010406Y007887D01*
X010348Y007944D01*
X010307Y007944D01*
X010236Y008016D01*
X010101Y008151D01*
X008705Y008151D01*
X008705Y008767D01*
X008599Y008873D01*
X008336Y008873D01*
X008336Y009171D01*
X008365Y009183D01*
X008493Y009312D01*
X008563Y009480D01*
X008563Y009662D01*
X008493Y009830D01*
X008365Y009958D01*
X008197Y010028D01*
X008015Y010028D01*
X007847Y009958D01*
X007718Y009830D01*
X007649Y009662D01*
X007649Y009480D01*
X007718Y009312D01*
X007847Y009183D01*
X007876Y009171D01*
X007876Y008873D01*
X007186Y008873D01*
X007186Y009614D01*
X007197Y009614D01*
X007365Y009683D01*
X007493Y009812D01*
X007563Y009980D01*
X007563Y010162D01*
X007501Y010311D01*
X007719Y010311D01*
X007847Y010183D01*
X008015Y010114D01*
X008197Y010114D01*
X008365Y010183D01*
X008493Y010312D01*
X008563Y010480D01*
X008563Y010662D01*
X008501Y010811D01*
X008598Y010811D01*
X008813Y010811D01*
X009463Y011461D01*
X009844Y011461D01*
X009844Y011049D01*
X009950Y010944D01*
X010046Y010944D01*
X010046Y010328D01*
X010046Y010178D01*
X010046Y010200D02*
X009904Y010200D01*
X009899Y010081D02*
X009948Y010081D01*
X009896Y009963D02*
X009886Y009963D01*
X009886Y009844D02*
X009896Y009844D01*
X009876Y010318D02*
X010046Y010318D01*
X010046Y010437D02*
X009803Y010437D01*
X009618Y010555D02*
X010046Y010555D01*
X010046Y010674D02*
X008558Y010674D01*
X008563Y010555D02*
X009394Y010555D01*
X009209Y010437D02*
X008545Y010437D01*
X008496Y010318D02*
X009136Y010318D01*
X008700Y010200D02*
X008381Y010200D01*
X008626Y010081D02*
X007563Y010081D01*
X007556Y009963D02*
X007857Y009963D01*
X007732Y009844D02*
X007506Y009844D01*
X007407Y009725D02*
X007675Y009725D01*
X007649Y009607D02*
X007186Y009607D01*
X007186Y009488D02*
X007649Y009488D01*
X007694Y009370D02*
X007186Y009370D01*
X007186Y009251D02*
X007779Y009251D01*
X007876Y009133D02*
X007186Y009133D01*
X007186Y009014D02*
X007876Y009014D01*
X007876Y008896D02*
X007186Y008896D01*
X008336Y008896D02*
X008647Y008896D01*
X008626Y009014D02*
X008336Y009014D01*
X008336Y009133D02*
X008626Y009133D01*
X008626Y009251D02*
X008433Y009251D01*
X008517Y009370D02*
X008626Y009370D01*
X008658Y009488D02*
X008563Y009488D01*
X008563Y009607D02*
X008626Y009607D01*
X008626Y009725D02*
X008536Y009725D01*
X008479Y009844D02*
X008626Y009844D01*
X008626Y009963D02*
X008354Y009963D01*
X007830Y010200D02*
X007547Y010200D01*
X008509Y010792D02*
X010046Y010792D01*
X010046Y010911D02*
X008913Y010911D01*
X009032Y011029D02*
X009864Y011029D01*
X009844Y011148D02*
X009151Y011148D01*
X009269Y011266D02*
X009844Y011266D01*
X009844Y011385D02*
X009388Y011385D01*
X009008Y011741D02*
X008275Y011741D01*
X008302Y011622D02*
X008889Y011622D01*
X008771Y011504D02*
X008302Y011504D01*
X008260Y011385D02*
X008652Y011385D01*
X008220Y011859D02*
X009126Y011859D01*
X009245Y011978D02*
X008101Y011978D01*
X007697Y012041D02*
X007558Y011983D01*
X007424Y011849D01*
X007352Y011675D01*
X007352Y011486D01*
X007363Y011459D01*
X007197Y011528D01*
X007015Y011528D01*
X006847Y011458D01*
X006718Y011330D01*
X006649Y011162D01*
X006649Y011131D01*
X005536Y010019D01*
X005526Y010019D01*
X005380Y009958D01*
X005373Y009951D01*
X005289Y009951D01*
X005281Y009958D01*
X005135Y010019D01*
X004976Y010019D01*
X004830Y009958D01*
X004823Y009951D01*
X002701Y009951D01*
X002510Y009951D01*
X002376Y009816D01*
X002376Y009758D01*
X002246Y009628D01*
X002246Y009413D01*
X002246Y007363D01*
X002398Y007211D01*
X002648Y006961D01*
X002863Y006961D01*
X003011Y006961D01*
X003011Y006875D01*
X003011Y006266D01*
X003116Y006161D01*
X003196Y006161D01*
X003056Y006021D01*
X002995Y005872D01*
X002938Y006010D01*
X002795Y006153D01*
X002607Y006231D01*
X002544Y006231D01*
X002544Y005759D01*
X002467Y005759D01*
X002467Y006231D01*
X002404Y006231D01*
X002236Y006161D01*
X002236Y009971D01*
X003306Y009971D01*
X003454Y009982D01*
X003599Y010017D01*
X003737Y010074D01*
X003864Y010152D01*
X003977Y010249D01*
X004074Y010362D01*
X004152Y010489D01*
X004209Y010627D01*
X004244Y010772D01*
X004256Y010921D01*
X004256Y011321D01*
X004245Y011462D01*
X004212Y011599D01*
X004158Y011729D01*
X004084Y011850D01*
X003992Y011957D01*
X003894Y012041D01*
X007697Y012041D01*
X007552Y011978D02*
X003968Y011978D01*
X004076Y011859D02*
X007434Y011859D01*
X007379Y011741D02*
X004151Y011741D01*
X004202Y011622D02*
X007352Y011622D01*
X007352Y011504D02*
X007255Y011504D01*
X006956Y011504D02*
X004235Y011504D01*
X004251Y011385D02*
X006773Y011385D01*
X006692Y011266D02*
X004256Y011266D01*
X004256Y011148D02*
X006649Y011148D01*
X006547Y011029D02*
X004256Y011029D01*
X004255Y010911D02*
X006428Y010911D01*
X006310Y010792D02*
X004246Y010792D01*
X004220Y010674D02*
X006191Y010674D01*
X006072Y010555D02*
X004179Y010555D01*
X004120Y010437D02*
X005954Y010437D01*
X005835Y010318D02*
X004036Y010318D01*
X003920Y010200D02*
X005717Y010200D01*
X005598Y010081D02*
X003748Y010081D01*
X004840Y009963D02*
X002236Y009963D01*
X002236Y009844D02*
X002404Y009844D01*
X002343Y009725D02*
X002236Y009725D01*
X002236Y009607D02*
X002246Y009607D01*
X002236Y009488D02*
X002246Y009488D01*
X002236Y009370D02*
X002246Y009370D01*
X002236Y009251D02*
X002246Y009251D01*
X002236Y009133D02*
X002246Y009133D01*
X002236Y009014D02*
X002246Y009014D01*
X002236Y008896D02*
X002246Y008896D01*
X002236Y008777D02*
X002246Y008777D01*
X002236Y008659D02*
X002246Y008659D01*
X002236Y008540D02*
X002246Y008540D01*
X002236Y008421D02*
X002246Y008421D01*
X002236Y008303D02*
X002246Y008303D01*
X002236Y008184D02*
X002246Y008184D01*
X002236Y008066D02*
X002246Y008066D01*
X002236Y007947D02*
X002246Y007947D01*
X002236Y007829D02*
X002246Y007829D01*
X002236Y007710D02*
X002246Y007710D01*
X002236Y007592D02*
X002246Y007592D01*
X002236Y007473D02*
X002246Y007473D01*
X002236Y007355D02*
X002254Y007355D01*
X002236Y007236D02*
X002373Y007236D01*
X002491Y007117D02*
X002236Y007117D01*
X002236Y006999D02*
X002610Y006999D01*
X002236Y006880D02*
X003011Y006880D01*
X003011Y006762D02*
X002236Y006762D01*
X002236Y006643D02*
X003011Y006643D01*
X003011Y006525D02*
X002236Y006525D01*
X002236Y006406D02*
X003011Y006406D01*
X003011Y006288D02*
X002236Y006288D01*
X002236Y006169D02*
X002256Y006169D01*
X002467Y006169D02*
X002544Y006169D01*
X002544Y006051D02*
X002467Y006051D01*
X002467Y005932D02*
X002544Y005932D01*
X002544Y005814D02*
X002467Y005814D01*
X002897Y006051D02*
X003086Y006051D01*
X003108Y006169D02*
X002756Y006169D01*
X002970Y005932D02*
X003020Y005932D01*
X005805Y006170D02*
X005901Y006266D01*
X005901Y006875D01*
X005901Y007298D01*
X006012Y007409D01*
X006407Y007409D01*
X006512Y007515D01*
X006512Y007591D01*
X006651Y007591D01*
X006786Y007726D01*
X006786Y007916D01*
X006860Y007841D01*
X006876Y007826D01*
X007010Y007691D01*
X009358Y007691D01*
X009358Y007618D01*
X009235Y007669D01*
X009076Y007669D01*
X008930Y007608D01*
X008818Y007496D01*
X008758Y007350D01*
X008758Y007192D01*
X008795Y007101D01*
X008705Y007101D01*
X008705Y007114D01*
X008599Y007219D01*
X007112Y007219D01*
X007006Y007114D01*
X007006Y006374D01*
X007112Y006269D01*
X008599Y006269D01*
X008705Y006374D01*
X008705Y006641D01*
X009426Y006641D01*
X009426Y006516D01*
X009426Y006326D01*
X009500Y006251D01*
X009400Y006251D01*
X009205Y006170D01*
X009056Y006021D01*
X009006Y005899D01*
X008955Y006021D01*
X008806Y006170D01*
X008611Y006251D01*
X008400Y006251D01*
X008205Y006170D01*
X008056Y006021D01*
X008006Y005899D01*
X007955Y006021D01*
X007806Y006170D01*
X007611Y006251D01*
X007400Y006251D01*
X007205Y006170D01*
X007056Y006021D01*
X007006Y005899D01*
X006955Y006021D01*
X006806Y006170D01*
X006611Y006251D01*
X006400Y006251D01*
X006205Y006170D01*
X006056Y006021D01*
X006006Y005899D01*
X005955Y006021D01*
X005806Y006170D01*
X005805Y006170D01*
X005807Y006169D02*
X006204Y006169D01*
X006086Y006051D02*
X005925Y006051D01*
X005992Y005932D02*
X006020Y005932D01*
X006807Y006169D02*
X007204Y006169D01*
X007093Y006288D02*
X005901Y006288D01*
X005901Y006406D02*
X007006Y006406D01*
X007006Y006525D02*
X005901Y006525D01*
X005901Y006643D02*
X007006Y006643D01*
X007006Y006762D02*
X005901Y006762D01*
X005901Y006880D02*
X007006Y006880D01*
X007006Y006999D02*
X005901Y006999D01*
X005901Y007117D02*
X007010Y007117D01*
X006471Y007473D02*
X008809Y007473D01*
X008759Y007355D02*
X005957Y007355D01*
X005901Y007236D02*
X008758Y007236D01*
X008788Y007117D02*
X008701Y007117D01*
X008914Y007592D02*
X006652Y007592D01*
X006770Y007710D02*
X006991Y007710D01*
X006872Y007829D02*
X006786Y007829D01*
X008705Y008184D02*
X010348Y008184D01*
X010186Y008066D02*
X010593Y008066D01*
X010711Y007947D02*
X010304Y007947D01*
X010161Y008303D02*
X009551Y008303D01*
X009061Y008303D02*
X008705Y008303D01*
X008705Y008421D02*
X008957Y008421D01*
X008908Y008540D02*
X008705Y008540D01*
X008705Y008659D02*
X008908Y008659D01*
X008940Y008777D02*
X008695Y008777D01*
X009974Y008421D02*
X010087Y008421D01*
X011454Y007829D02*
X011522Y007829D01*
X011454Y007710D02*
X011641Y007710D01*
X011760Y007592D02*
X011454Y007592D01*
X011454Y007473D02*
X011878Y007473D01*
X011997Y007355D02*
X011454Y007355D01*
X011454Y007236D02*
X012227Y007236D01*
X012784Y007236D02*
X013276Y007236D01*
X013276Y007117D02*
X011454Y007117D01*
X011454Y006999D02*
X013276Y006999D01*
X013276Y006880D02*
X011353Y006880D01*
X011065Y006762D02*
X013272Y006762D01*
X013153Y006643D02*
X011065Y006643D01*
X011065Y006525D02*
X013034Y006525D01*
X012916Y006406D02*
X011065Y006406D01*
X010748Y006288D02*
X012797Y006288D01*
X012204Y006169D02*
X011807Y006169D01*
X011925Y006051D02*
X012086Y006051D01*
X012020Y005932D02*
X011992Y005932D01*
X011204Y006169D02*
X010807Y006169D01*
X010925Y006051D02*
X011086Y006051D01*
X011020Y005932D02*
X010992Y005932D01*
X009464Y006288D02*
X008618Y006288D01*
X008705Y006406D02*
X009426Y006406D01*
X009426Y006525D02*
X008705Y006525D01*
X008807Y006169D02*
X009204Y006169D01*
X009086Y006051D02*
X008925Y006051D01*
X008992Y005932D02*
X009020Y005932D01*
X008204Y006169D02*
X007807Y006169D01*
X007925Y006051D02*
X008086Y006051D01*
X008020Y005932D02*
X007992Y005932D01*
X007086Y006051D02*
X006925Y006051D01*
X006992Y005932D02*
X007020Y005932D01*
X012868Y007355D02*
X013276Y007355D01*
X013283Y007473D02*
X012904Y007473D01*
X012904Y007592D02*
X013401Y007592D01*
X013520Y007710D02*
X012858Y007710D01*
X014641Y007710D02*
X015408Y007710D01*
X015428Y007592D02*
X014760Y007592D01*
X014714Y008066D02*
X015598Y008066D01*
X015794Y008184D02*
X016244Y008184D01*
X016244Y008066D02*
X016013Y008066D01*
X016142Y007947D02*
X016244Y007947D01*
X016244Y008303D02*
X015913Y008303D01*
X016032Y008421D02*
X016321Y008421D01*
X016246Y008540D02*
X016150Y008540D01*
X015217Y008184D02*
X014809Y008184D01*
X014854Y008303D02*
X015098Y008303D01*
X014980Y008421D02*
X014854Y008421D01*
X014861Y008540D02*
X014816Y008540D01*
X014743Y008659D02*
X014731Y008659D01*
X016586Y009251D02*
X018566Y009251D01*
X018566Y009133D02*
X016909Y009133D01*
X017253Y009014D02*
X017328Y009014D01*
X017328Y008896D02*
X017253Y008896D01*
X017328Y008777D02*
X018566Y008777D01*
X018566Y008659D02*
X017645Y008659D01*
X017645Y008540D02*
X018566Y008540D01*
X018411Y008421D02*
X017562Y008421D01*
X017647Y008303D02*
X018411Y008303D01*
X018244Y008184D02*
X017647Y008184D01*
X017329Y008184D02*
X017252Y008184D01*
X017252Y008303D02*
X017329Y008303D01*
X017328Y008421D02*
X017253Y008421D01*
X017253Y008540D02*
X017328Y008540D01*
X017328Y008659D02*
X017253Y008659D01*
X017645Y008896D02*
X018566Y008896D01*
X018566Y009014D02*
X017645Y009014D01*
X018566Y009370D02*
X016586Y009370D01*
X016586Y009488D02*
X018566Y009488D01*
X018566Y009607D02*
X016586Y009607D01*
X016586Y009725D02*
X018566Y009725D01*
X018566Y009844D02*
X016508Y009844D01*
X016595Y009982D02*
X016956Y009982D01*
X016956Y010358D01*
X017075Y010358D01*
X017075Y009982D01*
X017436Y009982D01*
X017530Y010076D01*
X017530Y010358D01*
X017076Y010358D01*
X017076Y010478D01*
X017530Y010478D01*
X017530Y010760D01*
X017436Y010854D01*
X017075Y010854D01*
X017075Y010478D01*
X016956Y010478D01*
X016956Y010854D01*
X016595Y010854D01*
X016501Y010760D01*
X016501Y010478D01*
X016955Y010478D01*
X016955Y010358D01*
X016501Y010358D01*
X016501Y010076D01*
X016595Y009982D01*
X016501Y010081D02*
X015791Y010081D01*
X015822Y009963D02*
X015673Y009963D01*
X015704Y009844D02*
X015554Y009844D01*
X015259Y010200D02*
X015030Y010200D01*
X015030Y010318D02*
X015378Y010318D01*
X015496Y010437D02*
X015030Y010437D01*
X015030Y010555D02*
X015615Y010555D01*
X015733Y010674D02*
X015030Y010674D01*
X015006Y010792D02*
X015852Y010792D01*
X016147Y010437D02*
X016955Y010437D01*
X016956Y010555D02*
X017075Y010555D01*
X017076Y010437D02*
X017549Y010437D01*
X017549Y010555D02*
X017530Y010555D01*
X017530Y010674D02*
X017867Y010674D01*
X017944Y010674D02*
X018566Y010674D01*
X018566Y010792D02*
X018262Y010792D01*
X018251Y010911D02*
X018566Y010911D01*
X018566Y011029D02*
X018278Y011029D01*
X018282Y011148D02*
X018566Y011148D01*
X018566Y011266D02*
X018282Y011266D01*
X018282Y011385D02*
X018581Y011385D01*
X018699Y011504D02*
X018282Y011504D01*
X018237Y011622D02*
X020816Y011622D01*
X020870Y011741D02*
X017550Y011741D01*
X017550Y011622D02*
X017574Y011622D01*
X017463Y011859D02*
X020947Y011859D01*
X021057Y011978D02*
X010766Y011978D01*
X010885Y011859D02*
X016568Y011859D01*
X017507Y011029D02*
X017533Y011029D01*
X017560Y010911D02*
X016621Y010911D01*
X016534Y010792D02*
X016502Y010792D01*
X016501Y010674D02*
X016384Y010674D01*
X016501Y010555D02*
X016265Y010555D01*
X016501Y010318D02*
X016028Y010318D01*
X015910Y010200D02*
X016501Y010200D01*
X016956Y010200D02*
X017075Y010200D01*
X017075Y010318D02*
X016956Y010318D01*
X016956Y010081D02*
X017075Y010081D01*
X017530Y010081D02*
X018566Y010081D01*
X018566Y009963D02*
X016389Y009963D01*
X017530Y010200D02*
X018566Y010200D01*
X018566Y010318D02*
X018208Y010318D01*
X018262Y010437D02*
X018566Y010437D01*
X018566Y010555D02*
X018262Y010555D01*
X017944Y010555D02*
X017867Y010555D01*
X017867Y010437D02*
X017944Y010437D01*
X017944Y010318D02*
X017867Y010318D01*
X017604Y010318D02*
X017530Y010318D01*
X017075Y010674D02*
X016956Y010674D01*
X016956Y010792D02*
X017075Y010792D01*
X017497Y010792D02*
X017549Y010792D01*
X018806Y010792D02*
X020766Y010792D01*
X020767Y010772D02*
X020802Y010627D01*
X020859Y010489D01*
X020937Y010362D01*
X021034Y010249D01*
X021147Y010152D01*
X021274Y010074D01*
X021412Y010017D01*
X021557Y009982D01*
X021706Y009971D01*
X022656Y009971D01*
X022656Y009239D01*
X022336Y009239D01*
X022336Y008431D01*
X022216Y008431D01*
X022216Y009239D01*
X021776Y009239D01*
X021683Y009146D01*
X021683Y008431D01*
X022216Y008431D01*
X022216Y008311D01*
X022336Y008311D01*
X022336Y007502D01*
X022656Y007502D01*
X022656Y007121D01*
X020402Y007121D01*
X020436Y007154D01*
X020436Y007767D01*
X020342Y007861D01*
X019381Y007861D01*
X019381Y007971D01*
X019776Y007971D01*
X019776Y008311D01*
X019896Y008311D01*
X019896Y008431D01*
X020436Y008431D01*
X020436Y008677D01*
X020342Y008771D01*
X019896Y008771D01*
X019896Y008431D01*
X019776Y008431D01*
X019776Y008771D01*
X019329Y008771D01*
X019306Y008748D01*
X018994Y008748D01*
X018994Y008825D01*
X019312Y008825D01*
X019312Y008898D01*
X019329Y008881D01*
X020342Y008881D01*
X020436Y008974D01*
X020436Y009587D01*
X020342Y009681D01*
X019775Y009681D01*
X019745Y009711D01*
X019312Y009711D01*
X019312Y009719D01*
X019219Y009812D01*
X018806Y009812D01*
X018806Y011271D01*
X020756Y011271D01*
X020756Y010921D01*
X020767Y010772D01*
X020791Y010674D02*
X018806Y010674D01*
X018806Y010555D02*
X020832Y010555D01*
X020892Y010437D02*
X018806Y010437D01*
X018806Y010318D02*
X020975Y010318D01*
X021092Y010200D02*
X018806Y010200D01*
X018806Y010081D02*
X021263Y010081D01*
X020416Y009607D02*
X022656Y009607D01*
X022656Y009725D02*
X019306Y009725D01*
X018806Y009844D02*
X022656Y009844D01*
X022656Y009963D02*
X018806Y009963D01*
X020436Y009488D02*
X022656Y009488D01*
X022656Y009370D02*
X020436Y009370D01*
X020436Y009251D02*
X022656Y009251D01*
X022336Y009133D02*
X022216Y009133D01*
X022216Y009014D02*
X022336Y009014D01*
X022336Y008896D02*
X022216Y008896D01*
X022216Y008777D02*
X022336Y008777D01*
X022336Y008659D02*
X022216Y008659D01*
X022216Y008540D02*
X022336Y008540D01*
X022216Y008421D02*
X019896Y008421D01*
X019896Y008311D02*
X020436Y008311D01*
X020436Y008064D01*
X020342Y007971D01*
X019896Y007971D01*
X019896Y008311D01*
X019896Y008303D02*
X019776Y008303D01*
X019776Y008184D02*
X019896Y008184D01*
X019896Y008066D02*
X019776Y008066D01*
X019381Y007947D02*
X021683Y007947D01*
X021683Y007829D02*
X020374Y007829D01*
X020436Y007710D02*
X021683Y007710D01*
X021683Y007596D02*
X021776Y007502D01*
X022216Y007502D01*
X022216Y008311D01*
X021683Y008311D01*
X021683Y007596D01*
X021687Y007592D02*
X020436Y007592D01*
X020436Y007473D02*
X022656Y007473D01*
X022656Y007355D02*
X020436Y007355D01*
X020436Y007236D02*
X022656Y007236D01*
X022776Y006901D02*
X022776Y006183D01*
X022611Y006251D01*
X022400Y006251D01*
X022205Y006170D01*
X022056Y006021D01*
X022006Y005899D01*
X021955Y006021D01*
X021806Y006170D01*
X021611Y006251D01*
X021400Y006251D01*
X021205Y006170D01*
X021056Y006021D01*
X021006Y005899D01*
X020955Y006021D01*
X020806Y006170D01*
X020611Y006251D01*
X020400Y006251D01*
X020205Y006170D01*
X020194Y006158D01*
X019986Y006366D01*
X019851Y006501D01*
X018151Y006501D01*
X017665Y006986D01*
X017665Y007295D01*
X017560Y007401D01*
X017021Y007401D01*
X016956Y007336D01*
X016891Y007401D01*
X016836Y007401D01*
X016836Y007491D01*
X017813Y007491D01*
X017768Y007446D01*
X017708Y007300D01*
X017708Y007142D01*
X017768Y006995D01*
X017880Y006883D01*
X018026Y006823D01*
X018185Y006823D01*
X018331Y006883D01*
X018443Y006995D01*
X018498Y007129D01*
X018516Y007111D01*
X018566Y007111D01*
X018566Y007021D01*
X018706Y006881D01*
X019878Y006881D01*
X020044Y006715D01*
X020044Y006399D01*
X020150Y006294D01*
X020692Y006294D01*
X020770Y006371D01*
X020827Y006314D01*
X021052Y006314D01*
X021052Y006632D01*
X021129Y006632D01*
X021129Y006709D01*
X021447Y006709D01*
X021447Y006881D01*
X022556Y006881D01*
X022755Y006881D01*
X022776Y006901D01*
X022776Y006880D02*
X021447Y006880D01*
X021447Y006762D02*
X022776Y006762D01*
X022776Y006643D02*
X021129Y006643D01*
X021129Y006632D02*
X021447Y006632D01*
X021447Y006408D01*
X021353Y006314D01*
X021129Y006314D01*
X021129Y006632D01*
X021129Y006525D02*
X021052Y006525D01*
X021052Y006406D02*
X021129Y006406D01*
X021446Y006406D02*
X022776Y006406D01*
X022776Y006288D02*
X020064Y006288D01*
X020044Y006406D02*
X019945Y006406D01*
X020044Y006525D02*
X018127Y006525D01*
X018008Y006643D02*
X020044Y006643D01*
X019997Y006762D02*
X017890Y006762D01*
X017887Y006880D02*
X017771Y006880D01*
X017767Y006999D02*
X017665Y006999D01*
X017665Y007117D02*
X017718Y007117D01*
X017708Y007236D02*
X017665Y007236D01*
X017606Y007355D02*
X017730Y007355D01*
X017795Y007473D02*
X016836Y007473D01*
X016937Y007355D02*
X016975Y007355D01*
X018324Y006880D02*
X019878Y006880D01*
X018588Y006999D02*
X018445Y006999D01*
X018494Y007117D02*
X018509Y007117D01*
X017476Y006525D02*
X017235Y006525D01*
X017286Y006576D02*
X017351Y006641D01*
X017360Y006641D01*
X017960Y006041D01*
X018076Y006041D01*
X018056Y006021D01*
X018006Y005899D01*
X017955Y006021D01*
X017806Y006170D01*
X017611Y006251D01*
X017400Y006251D01*
X017205Y006170D01*
X017056Y006021D01*
X017006Y005899D01*
X016955Y006021D01*
X016806Y006170D01*
X016611Y006251D01*
X016400Y006251D01*
X016205Y006170D01*
X016056Y006021D01*
X016006Y005899D01*
X015955Y006021D01*
X015806Y006170D01*
X015611Y006251D01*
X015586Y006251D01*
X015586Y006466D01*
X015610Y006441D01*
X015801Y006441D01*
X017151Y006441D01*
X017286Y006576D01*
X017595Y006406D02*
X015586Y006406D01*
X015586Y006288D02*
X017714Y006288D01*
X017807Y006169D02*
X017832Y006169D01*
X017925Y006051D02*
X017951Y006051D01*
X017992Y005932D02*
X018020Y005932D01*
X017204Y006169D02*
X016807Y006169D01*
X016925Y006051D02*
X017086Y006051D01*
X017020Y005932D02*
X016992Y005932D01*
X016204Y006169D02*
X015807Y006169D01*
X015925Y006051D02*
X016086Y006051D01*
X016020Y005932D02*
X015992Y005932D01*
X014876Y006216D02*
X014818Y006158D01*
X014806Y006170D01*
X014611Y006251D01*
X014400Y006251D01*
X014205Y006170D01*
X014056Y006021D01*
X014006Y005899D01*
X013955Y006021D01*
X013806Y006170D01*
X013686Y006220D01*
X013686Y006226D01*
X013901Y006441D01*
X014351Y006441D01*
X014401Y006491D01*
X014536Y006626D01*
X014536Y006653D01*
X014724Y006653D01*
X014876Y006653D01*
X014876Y006216D01*
X014829Y006169D02*
X014807Y006169D01*
X014876Y006288D02*
X013748Y006288D01*
X013807Y006169D02*
X014204Y006169D01*
X014086Y006051D02*
X013925Y006051D01*
X013992Y005932D02*
X014020Y005932D01*
X013866Y006406D02*
X014876Y006406D01*
X014876Y006525D02*
X014435Y006525D01*
X014401Y006491D02*
X014401Y006491D01*
X014536Y006643D02*
X014876Y006643D01*
X017329Y008066D02*
X018125Y008066D01*
X018851Y008176D02*
X018851Y008429D01*
X018917Y008429D01*
X018917Y008747D01*
X018994Y008747D01*
X018994Y008511D01*
X018961Y008511D01*
X018961Y008176D01*
X018851Y008176D01*
X018851Y008184D02*
X018961Y008184D01*
X018961Y008303D02*
X018851Y008303D01*
X018851Y008421D02*
X018961Y008421D01*
X018994Y008540D02*
X018917Y008540D01*
X018917Y008659D02*
X018994Y008659D01*
X018994Y008777D02*
X021683Y008777D01*
X021683Y008659D02*
X020436Y008659D01*
X020436Y008540D02*
X021683Y008540D01*
X021683Y008303D02*
X020436Y008303D01*
X020436Y008184D02*
X021683Y008184D01*
X021683Y008066D02*
X020436Y008066D01*
X019896Y008540D02*
X019776Y008540D01*
X019776Y008659D02*
X019896Y008659D01*
X020357Y008896D02*
X021683Y008896D01*
X021683Y009014D02*
X020436Y009014D01*
X020436Y009133D02*
X021683Y009133D01*
X022216Y008303D02*
X022336Y008303D01*
X022336Y008184D02*
X022216Y008184D01*
X022216Y008066D02*
X022336Y008066D01*
X022336Y007947D02*
X022216Y007947D01*
X022216Y007829D02*
X022336Y007829D01*
X022336Y007710D02*
X022216Y007710D01*
X022216Y007592D02*
X022336Y007592D01*
X022776Y006525D02*
X021447Y006525D01*
X021204Y006169D02*
X020807Y006169D01*
X020925Y006051D02*
X021086Y006051D01*
X021020Y005932D02*
X020992Y005932D01*
X020205Y006169D02*
X020183Y006169D01*
X021807Y006169D02*
X022204Y006169D01*
X022086Y006051D02*
X021925Y006051D01*
X021992Y005932D02*
X022020Y005932D01*
X019315Y008896D02*
X019312Y008896D01*
X018806Y010911D02*
X020756Y010911D01*
X020756Y011029D02*
X018806Y011029D01*
X018806Y011148D02*
X020756Y011148D01*
X020756Y011266D02*
X018806Y011266D01*
X012711Y011385D02*
X012601Y011385D01*
X012601Y011504D02*
X012711Y011504D01*
X012711Y011622D02*
X012601Y011622D01*
X012601Y011741D02*
X012711Y011741D01*
X011726Y011741D02*
X011003Y011741D01*
X011237Y011622D02*
X011646Y011622D01*
X005390Y009963D02*
X005271Y009963D01*
D30*
X005056Y009621D03*
X005606Y009621D03*
X006156Y009171D03*
X004506Y009321D03*
X003756Y009471D03*
X004256Y008721D03*
X004256Y008171D03*
X004306Y007571D03*
X004356Y006771D03*
X006856Y006321D03*
X009156Y007271D03*
X011656Y007371D03*
X012506Y007521D03*
X014456Y008371D03*
X015506Y008771D03*
X015806Y007721D03*
X018106Y007221D03*
X017006Y006271D03*
X014006Y006271D03*
X012006Y006271D03*
X010456Y008571D03*
X009306Y008621D03*
X012476Y008871D03*
X013036Y008871D03*
X009506Y010171D03*
X009206Y010821D03*
X005556Y011021D03*
X013556Y011871D03*
X017906Y010071D03*
X021356Y008921D03*
X021356Y008371D03*
X021356Y007821D03*
X021706Y007321D03*
X022256Y007321D03*
X021656Y006571D03*
X021706Y009571D03*
X022256Y009571D03*
D31*
X019836Y009281D02*
X019646Y009471D01*
X018956Y009471D01*
X018956Y009455D01*
X018940Y009471D01*
X018456Y009471D01*
X018406Y007521D02*
X018106Y007221D01*
X018406Y007521D02*
X018906Y007521D01*
X019776Y007521D01*
X019836Y007461D01*
X019806Y007431D01*
X019806Y007321D01*
X020356Y006771D01*
X020356Y006736D01*
X020421Y006671D01*
X011156Y007410D02*
X011156Y007871D01*
X010456Y008571D01*
X010156Y008971D02*
X009806Y008621D01*
X009306Y008621D01*
X010156Y008971D02*
X010156Y009331D01*
X010156Y009921D01*
X010356Y010121D01*
X010346Y010121D01*
X010346Y010161D01*
X010356Y010171D01*
X010306Y010221D01*
X010306Y011221D01*
X010206Y011321D01*
X010221Y011321D01*
X010840Y011336D02*
X010956Y011221D01*
X010956Y011421D01*
X010656Y011721D01*
X009356Y011721D01*
X008706Y011071D01*
X007106Y011071D01*
X006956Y011071D01*
X005606Y009721D01*
X005606Y009621D01*
X006606Y010271D02*
X006606Y008371D01*
X006006Y007771D01*
X005406Y007171D01*
X004706Y007171D01*
X004306Y007571D01*
X003556Y007221D02*
X002756Y007221D01*
X002506Y007471D01*
X002506Y009521D01*
X002656Y009671D01*
X002956Y009671D01*
X002940Y009655D01*
X002906Y009555D01*
X002956Y009671D02*
X003556Y009671D01*
X003756Y009471D01*
X006606Y010271D02*
X006906Y010571D01*
X008106Y010571D01*
X010656Y010121D02*
X010656Y009331D01*
X010966Y010121D02*
X010966Y010211D01*
X010956Y010221D01*
X010956Y011221D01*
X010856Y011271D02*
X012056Y011271D01*
X010890Y011321D02*
X010840Y011286D01*
X010856Y011271D01*
X010890Y011321D02*
X010840Y011336D01*
X006057Y008121D02*
X006057Y008072D01*
X006006Y008021D01*
X006006Y007771D01*
X004356Y006771D02*
X004256Y006671D01*
X003606Y006671D01*
X003506Y006571D01*
X003506Y005721D01*
X004506Y005721D02*
X005306Y006521D01*
X005406Y006521D01*
X005406Y006571D01*
X003556Y007221D02*
X003506Y007171D01*
M02*
