G75*
G70*
%OFA0B0*%
%FSLAX24Y24*%
%IPPOS*%
%LPD*%
%AMOC8*
5,1,8,0,0,1.08239X$1,22.5*
%
%ADD10C,0.0100*%
%ADD11C,0.0000*%
%ADD12C,0.0060*%
%ADD13C,0.0700*%
%ADD14C,0.0554*%
%ADD15R,0.0709X0.0236*%
%ADD16R,0.0880X0.0480*%
%ADD17R,0.0866X0.1417*%
%ADD18R,0.0394X0.0394*%
%ADD19R,0.0460X0.0630*%
%ADD20C,0.0120*%
%ADD21C,0.0436*%
%ADD22C,0.0160*%
D10*
X008107Y005221D02*
X008107Y005654D01*
X008107Y006048D02*
X008107Y006481D01*
X008107Y006875D02*
X008107Y007308D01*
X008107Y007702D02*
X008107Y008135D01*
X008107Y008529D02*
X008107Y008962D01*
X008107Y009356D02*
X008107Y009789D01*
X008107Y010183D02*
X008107Y010616D01*
X008107Y011010D02*
X008107Y011443D01*
X008107Y011837D02*
X008107Y012271D01*
X008506Y012271D01*
X008900Y012271D02*
X009298Y012271D01*
X009692Y012271D02*
X010091Y012271D01*
X010484Y012271D02*
X010883Y012271D01*
X011277Y012271D02*
X011675Y012271D01*
X012069Y012271D02*
X012468Y012271D01*
X012861Y012271D02*
X013260Y012271D01*
X013654Y012271D02*
X014052Y012271D01*
X014446Y012271D02*
X014845Y012271D01*
X015238Y012271D02*
X015637Y012271D01*
X016031Y012271D02*
X016429Y012271D01*
X016823Y012271D02*
X017222Y012271D01*
X017615Y012271D02*
X018014Y012271D01*
X018408Y012271D02*
X018806Y012271D01*
X019200Y012271D02*
X019599Y012271D01*
X019992Y012271D02*
X020391Y012271D01*
X020785Y012271D02*
X021183Y012271D01*
X021577Y012271D02*
X021975Y012271D01*
X022369Y012271D02*
X022768Y012271D01*
X023161Y012271D02*
X023560Y012271D01*
X023954Y012271D02*
X024352Y012271D01*
X024746Y012271D02*
X025145Y012271D01*
X025538Y012271D02*
X025937Y012271D01*
X026331Y012271D02*
X026729Y012271D01*
X027123Y012271D02*
X027522Y012271D01*
X027915Y012271D02*
X028314Y012271D01*
X028708Y012271D02*
X029106Y012271D01*
X029107Y012271D02*
X029107Y011837D01*
X029107Y011444D02*
X029107Y011010D01*
X029107Y010617D02*
X029107Y010183D01*
X029107Y009790D02*
X029107Y009356D01*
X029107Y008963D02*
X029107Y008529D01*
X029107Y008136D02*
X029107Y007702D01*
X029107Y007309D02*
X029107Y006875D01*
X029107Y006481D02*
X029107Y006048D01*
X029107Y005654D02*
X029107Y005221D01*
X028709Y005221D01*
X028315Y005221D02*
X027916Y005221D01*
X027523Y005221D02*
X027124Y005221D01*
X026730Y005221D02*
X026332Y005221D01*
X025938Y005221D02*
X025539Y005221D01*
X025146Y005221D02*
X024747Y005221D01*
X024353Y005221D02*
X023955Y005221D01*
X023561Y005221D02*
X023162Y005221D01*
X022769Y005221D02*
X022370Y005221D01*
X021976Y005221D02*
X021578Y005221D01*
X021184Y005221D02*
X020786Y005221D01*
X020392Y005221D02*
X019993Y005221D01*
X019599Y005221D02*
X019201Y005221D01*
X018807Y005221D02*
X018409Y005221D01*
X018015Y005221D02*
X017616Y005221D01*
X017223Y005221D02*
X016824Y005221D01*
X016430Y005221D02*
X016032Y005221D01*
X015638Y005221D02*
X015239Y005221D01*
X014846Y005221D02*
X014447Y005221D01*
X014053Y005221D02*
X013655Y005221D01*
X013261Y005221D02*
X012862Y005221D01*
X012469Y005221D02*
X012070Y005221D01*
X011676Y005221D02*
X011278Y005221D01*
X010884Y005221D02*
X010485Y005221D01*
X010092Y005221D02*
X009693Y005221D01*
X009299Y005221D02*
X008901Y005221D01*
X008507Y005221D02*
X008108Y005221D01*
X015307Y007721D02*
X015457Y007871D01*
X017357Y007871D01*
X017397Y007871D02*
X017407Y007871D01*
X017397Y008371D02*
X016657Y008371D01*
X015657Y008821D02*
X015607Y008771D01*
X015657Y008821D02*
X017407Y008821D01*
X017407Y008860D01*
X017397Y008871D01*
X018077Y008871D01*
X018637Y008871D02*
X018657Y008871D01*
X018657Y009771D01*
X019057Y010171D01*
X021607Y010171D01*
X022307Y010521D02*
X022857Y011071D01*
X024007Y011071D01*
X025153Y010191D02*
X024157Y009196D01*
X024157Y007421D01*
X026375Y007421D01*
X026443Y007489D01*
X026439Y007498D01*
X026439Y007644D01*
X026495Y007779D01*
X026599Y007883D01*
X026734Y007939D01*
X026881Y007939D01*
X027016Y007883D01*
X027057Y007841D01*
X027057Y009250D01*
X027045Y009262D01*
X026989Y009398D01*
X026989Y009544D01*
X027010Y009593D01*
X026412Y010191D01*
X025153Y010191D01*
X025110Y010148D02*
X026455Y010148D01*
X026554Y010049D02*
X025011Y010049D01*
X024913Y009951D02*
X026652Y009951D01*
X026751Y009852D02*
X024814Y009852D01*
X024716Y009754D02*
X026849Y009754D01*
X026948Y009655D02*
X024617Y009655D01*
X024519Y009557D02*
X026995Y009557D01*
X026989Y009458D02*
X024420Y009458D01*
X024321Y009360D02*
X025222Y009360D01*
X025204Y009342D02*
X025292Y009429D01*
X025737Y009429D01*
X025737Y008621D01*
X025204Y008621D01*
X025204Y009342D01*
X025204Y009261D02*
X024223Y009261D01*
X024157Y009163D02*
X025204Y009163D01*
X025204Y009064D02*
X024157Y009064D01*
X024157Y008965D02*
X025204Y008965D01*
X025204Y008867D02*
X024157Y008867D01*
X024157Y008768D02*
X025204Y008768D01*
X025204Y008670D02*
X024157Y008670D01*
X024157Y008571D02*
X025737Y008571D01*
X025737Y008521D02*
X025737Y008621D01*
X025837Y008621D01*
X025837Y009429D01*
X026283Y009429D01*
X026370Y009342D01*
X026370Y008621D01*
X025837Y008621D01*
X025837Y008521D01*
X025737Y008521D01*
X025204Y008521D01*
X025204Y007800D01*
X025292Y007712D01*
X025737Y007712D01*
X025737Y008521D01*
X025737Y008473D02*
X025837Y008473D01*
X025837Y008521D02*
X025837Y007712D01*
X026283Y007712D01*
X026370Y007800D01*
X026370Y008521D01*
X025837Y008521D01*
X025837Y008571D02*
X027057Y008571D01*
X027057Y008473D02*
X026370Y008473D01*
X026370Y008374D02*
X027057Y008374D01*
X027057Y008276D02*
X026370Y008276D01*
X026370Y008177D02*
X027057Y008177D01*
X027057Y008079D02*
X026370Y008079D01*
X026370Y007980D02*
X027057Y007980D01*
X027057Y007881D02*
X027017Y007881D01*
X026597Y007881D02*
X026370Y007881D01*
X026353Y007783D02*
X026499Y007783D01*
X026456Y007684D02*
X024157Y007684D01*
X024157Y007586D02*
X026439Y007586D01*
X026441Y007487D02*
X024157Y007487D01*
X023857Y007321D02*
X023857Y007071D01*
X026307Y007071D01*
X026807Y007571D01*
X025837Y007783D02*
X025737Y007783D01*
X025737Y007881D02*
X025837Y007881D01*
X025837Y007980D02*
X025737Y007980D01*
X025737Y008079D02*
X025837Y008079D01*
X025837Y008177D02*
X025737Y008177D01*
X025737Y008276D02*
X025837Y008276D01*
X025837Y008374D02*
X025737Y008374D01*
X025204Y008374D02*
X024157Y008374D01*
X024157Y008276D02*
X025204Y008276D01*
X025204Y008177D02*
X024157Y008177D01*
X024157Y008079D02*
X025204Y008079D01*
X025204Y007980D02*
X024157Y007980D01*
X024157Y007881D02*
X025204Y007881D01*
X025221Y007783D02*
X024157Y007783D01*
X023857Y007321D02*
X023707Y007321D01*
X023107Y007321D02*
X023107Y007071D01*
X021957Y007071D01*
X021957Y007271D01*
X019318Y008371D02*
X018807Y008371D01*
X018607Y008171D01*
X018607Y007521D01*
X018637Y008871D02*
X019318Y008871D01*
X020107Y009121D02*
X020107Y009221D01*
X020357Y009471D01*
X022007Y009471D01*
X022307Y009771D01*
X022307Y010521D01*
X025737Y009360D02*
X025837Y009360D01*
X025837Y009261D02*
X025737Y009261D01*
X025737Y009163D02*
X025837Y009163D01*
X025837Y009064D02*
X025737Y009064D01*
X025737Y008965D02*
X025837Y008965D01*
X025837Y008867D02*
X025737Y008867D01*
X025737Y008768D02*
X025837Y008768D01*
X025837Y008670D02*
X025737Y008670D01*
X025204Y008473D02*
X024157Y008473D01*
X026370Y008670D02*
X027057Y008670D01*
X027057Y008768D02*
X026370Y008768D01*
X026370Y008867D02*
X027057Y008867D01*
X027057Y008965D02*
X026370Y008965D01*
X026370Y009064D02*
X027057Y009064D01*
X027057Y009163D02*
X026370Y009163D01*
X026370Y009261D02*
X027046Y009261D01*
X027005Y009360D02*
X026352Y009360D01*
D11*
X027476Y011121D02*
X027478Y011169D01*
X027485Y011217D01*
X027496Y011264D01*
X027511Y011310D01*
X027530Y011354D01*
X027553Y011397D01*
X027580Y011437D01*
X027611Y011475D01*
X027645Y011509D01*
X027681Y011540D01*
X027721Y011568D01*
X027763Y011592D01*
X027807Y011613D01*
X027852Y011629D01*
X027899Y011641D01*
X027947Y011649D01*
X027995Y011652D01*
X028043Y011651D01*
X028091Y011645D01*
X028139Y011635D01*
X028185Y011621D01*
X028230Y011603D01*
X028272Y011581D01*
X028313Y011555D01*
X028351Y011525D01*
X028387Y011492D01*
X028419Y011456D01*
X028448Y011417D01*
X028473Y011376D01*
X028494Y011333D01*
X028511Y011287D01*
X028524Y011241D01*
X028533Y011193D01*
X028537Y011145D01*
X028537Y011097D01*
X028533Y011049D01*
X028524Y011001D01*
X028511Y010955D01*
X028494Y010909D01*
X028473Y010866D01*
X028448Y010825D01*
X028419Y010786D01*
X028387Y010750D01*
X028351Y010717D01*
X028313Y010687D01*
X028273Y010661D01*
X028230Y010639D01*
X028185Y010621D01*
X028139Y010607D01*
X028091Y010597D01*
X028043Y010591D01*
X027995Y010590D01*
X027947Y010593D01*
X027899Y010601D01*
X027852Y010613D01*
X027807Y010629D01*
X027763Y010650D01*
X027721Y010674D01*
X027681Y010702D01*
X027645Y010733D01*
X027611Y010767D01*
X027580Y010805D01*
X027553Y010845D01*
X027530Y010888D01*
X027511Y010932D01*
X027496Y010978D01*
X027485Y011025D01*
X027478Y011073D01*
X027476Y011121D01*
X022991Y011580D02*
X022993Y011615D01*
X022999Y011649D01*
X023009Y011683D01*
X023024Y011715D01*
X023041Y011745D01*
X023063Y011773D01*
X023087Y011798D01*
X023114Y011820D01*
X023144Y011838D01*
X023175Y011853D01*
X023208Y011865D01*
X023242Y011872D01*
X023277Y011875D01*
X023312Y011874D01*
X023347Y011869D01*
X023380Y011859D01*
X023413Y011846D01*
X023443Y011829D01*
X023472Y011809D01*
X023498Y011785D01*
X023520Y011759D01*
X023540Y011730D01*
X023556Y011699D01*
X023568Y011666D01*
X023576Y011632D01*
X023580Y011597D01*
X023580Y011563D01*
X023576Y011528D01*
X023568Y011494D01*
X023556Y011461D01*
X023540Y011430D01*
X023520Y011401D01*
X023498Y011375D01*
X023472Y011351D01*
X023443Y011331D01*
X023413Y011314D01*
X023380Y011301D01*
X023347Y011291D01*
X023312Y011286D01*
X023277Y011285D01*
X023242Y011288D01*
X023208Y011295D01*
X023175Y011307D01*
X023144Y011322D01*
X023114Y011340D01*
X023087Y011362D01*
X023063Y011387D01*
X023041Y011415D01*
X023024Y011445D01*
X023009Y011477D01*
X022999Y011511D01*
X022993Y011545D01*
X022991Y011580D01*
X008676Y011121D02*
X008678Y011169D01*
X008685Y011217D01*
X008696Y011264D01*
X008711Y011310D01*
X008730Y011354D01*
X008753Y011397D01*
X008780Y011437D01*
X008811Y011475D01*
X008845Y011509D01*
X008881Y011540D01*
X008921Y011568D01*
X008963Y011592D01*
X009007Y011613D01*
X009052Y011629D01*
X009099Y011641D01*
X009147Y011649D01*
X009195Y011652D01*
X009243Y011651D01*
X009291Y011645D01*
X009339Y011635D01*
X009385Y011621D01*
X009430Y011603D01*
X009472Y011581D01*
X009513Y011555D01*
X009551Y011525D01*
X009587Y011492D01*
X009619Y011456D01*
X009648Y011417D01*
X009673Y011376D01*
X009694Y011333D01*
X009711Y011287D01*
X009724Y011241D01*
X009733Y011193D01*
X009737Y011145D01*
X009737Y011097D01*
X009733Y011049D01*
X009724Y011001D01*
X009711Y010955D01*
X009694Y010909D01*
X009673Y010866D01*
X009648Y010825D01*
X009619Y010786D01*
X009587Y010750D01*
X009551Y010717D01*
X009513Y010687D01*
X009473Y010661D01*
X009430Y010639D01*
X009385Y010621D01*
X009339Y010607D01*
X009291Y010597D01*
X009243Y010591D01*
X009195Y010590D01*
X009147Y010593D01*
X009099Y010601D01*
X009052Y010613D01*
X009007Y010629D01*
X008963Y010650D01*
X008921Y010674D01*
X008881Y010702D01*
X008845Y010733D01*
X008811Y010767D01*
X008780Y010805D01*
X008753Y010845D01*
X008730Y010888D01*
X008711Y010932D01*
X008696Y010978D01*
X008685Y011025D01*
X008678Y011073D01*
X008676Y011121D01*
D12*
X005863Y009685D02*
X005863Y009258D01*
X005970Y009151D01*
X006186Y009258D02*
X006293Y009151D01*
X006506Y009151D01*
X006613Y009258D01*
X006613Y009471D01*
X006506Y009578D01*
X006293Y009578D01*
X006186Y009471D01*
X006186Y009258D01*
X005970Y009578D02*
X005756Y009578D01*
X005540Y009578D02*
X005326Y009578D01*
X005433Y009685D02*
X005433Y009258D01*
X005540Y009151D01*
X005109Y009258D02*
X005109Y009471D01*
X005002Y009578D01*
X004789Y009578D01*
X004682Y009471D01*
X004682Y009258D01*
X004789Y009151D01*
X005002Y009151D01*
X005109Y009258D01*
X004464Y009258D02*
X004464Y009471D01*
X004358Y009578D01*
X004037Y009578D01*
X004037Y009791D02*
X004037Y009151D01*
X004358Y009151D01*
X004464Y009258D01*
X006830Y009151D02*
X006830Y009578D01*
X006937Y009578D01*
X007044Y009471D01*
X007151Y009578D01*
X007257Y009471D01*
X007257Y009151D01*
X007044Y009151D02*
X007044Y009471D01*
D13*
X008607Y005721D03*
X009607Y005721D03*
X010607Y005721D03*
X011607Y005721D03*
X012607Y005721D03*
X013607Y005721D03*
X014607Y005721D03*
X015607Y005721D03*
X016607Y005721D03*
X017607Y005721D03*
X018607Y005721D03*
X019607Y005721D03*
X020607Y005721D03*
X021607Y005721D03*
X022607Y005721D03*
X023607Y005721D03*
X024607Y005721D03*
X025607Y005721D03*
X026607Y005721D03*
X027607Y005721D03*
X028607Y005721D03*
D14*
X023007Y009571D03*
X024007Y010071D03*
X023007Y010571D03*
X024007Y011071D03*
D15*
X019318Y009371D03*
X019318Y008871D03*
X019318Y008371D03*
X019318Y007871D03*
X017397Y007871D03*
X017397Y008371D03*
X017397Y008871D03*
X017397Y009371D03*
D16*
X028227Y009481D03*
X028227Y008571D03*
X028227Y007661D03*
D17*
X025787Y008571D03*
D18*
X020107Y008286D03*
X020107Y008955D03*
X016692Y007471D03*
X016023Y007471D03*
D19*
X023107Y007321D03*
X023707Y007321D03*
D20*
X023927Y007816D02*
X023927Y008923D01*
X023817Y008813D01*
X023665Y008661D01*
X022215Y008661D01*
X022205Y008651D01*
X022205Y008542D01*
X022145Y008395D01*
X022033Y008283D01*
X021887Y008223D01*
X021777Y008223D01*
X021215Y007661D01*
X021000Y007661D01*
X020600Y007661D01*
X020447Y007813D01*
X020351Y007909D01*
X020264Y007909D01*
X020117Y007763D01*
X019965Y007611D01*
X019785Y007611D01*
X019747Y007573D01*
X019005Y007573D01*
X019005Y007442D01*
X018945Y007295D01*
X018833Y007183D01*
X018687Y007123D01*
X018528Y007123D01*
X018382Y007183D01*
X018270Y007295D01*
X018209Y007442D01*
X018209Y007600D01*
X018270Y007746D01*
X018377Y007854D01*
X018377Y008266D01*
X018512Y008401D01*
X018512Y008401D01*
X018577Y008466D01*
X018584Y008473D01*
X018558Y008473D01*
X018412Y008533D01*
X018357Y008588D01*
X018303Y008533D01*
X018157Y008473D01*
X017998Y008473D01*
X017931Y008501D01*
X017931Y008178D01*
X017874Y008121D01*
X017931Y008063D01*
X017931Y007678D01*
X017826Y007573D01*
X017427Y007573D01*
X017069Y007215D01*
X017069Y007199D01*
X016963Y007094D01*
X016421Y007094D01*
X016343Y007171D01*
X016286Y007114D01*
X016061Y007114D01*
X016061Y007432D01*
X015984Y007432D01*
X015984Y007509D01*
X015666Y007509D01*
X015666Y007546D01*
X015645Y007495D01*
X015533Y007383D01*
X015387Y007323D01*
X015228Y007323D01*
X015082Y007383D01*
X014970Y007495D01*
X014909Y007642D01*
X014909Y007800D01*
X014970Y007946D01*
X015082Y008058D01*
X015228Y008119D01*
X015387Y008119D01*
X015430Y008101D01*
X016364Y008101D01*
X016320Y008145D01*
X016259Y008292D01*
X016259Y008450D01*
X016318Y008591D01*
X015964Y008591D01*
X015945Y008545D01*
X015833Y008433D01*
X015687Y008373D01*
X015528Y008373D01*
X015382Y008433D01*
X015270Y008545D01*
X015209Y008692D01*
X015209Y008850D01*
X015270Y008996D01*
X015382Y009108D01*
X015528Y009169D01*
X015687Y009169D01*
X015833Y009108D01*
X015890Y009051D01*
X016862Y009051D01*
X016862Y009063D01*
X016934Y009135D01*
X016882Y009186D01*
X016882Y009371D01*
X016882Y009555D01*
X016976Y009649D01*
X017397Y009649D01*
X017817Y009649D01*
X017911Y009555D01*
X017911Y009371D01*
X017397Y009371D01*
X017397Y009371D01*
X017397Y009649D01*
X017397Y009371D01*
X017397Y009371D01*
X017911Y009371D01*
X017911Y009233D01*
X017998Y009269D01*
X018157Y009269D01*
X018303Y009208D01*
X018357Y009154D01*
X018412Y009208D01*
X018427Y009215D01*
X018427Y009866D01*
X018562Y010001D01*
X018962Y010401D01*
X019153Y010401D01*
X021274Y010401D01*
X021382Y010508D01*
X021528Y010569D01*
X021687Y010569D01*
X021833Y010508D01*
X021945Y010396D01*
X022005Y010250D01*
X022005Y010092D01*
X021945Y009945D01*
X021833Y009833D01*
X021687Y009773D01*
X021528Y009773D01*
X021382Y009833D01*
X021274Y009941D01*
X019153Y009941D01*
X018887Y009676D01*
X018887Y009667D01*
X018889Y009669D01*
X019747Y009669D01*
X019785Y009631D01*
X019965Y009631D01*
X020079Y009517D01*
X020127Y009566D01*
X020262Y009701D01*
X021912Y009701D01*
X022077Y009866D01*
X022077Y010426D01*
X022077Y010616D01*
X022627Y011166D01*
X022762Y011301D01*
X022893Y011301D01*
X022883Y011311D01*
X022811Y011486D01*
X022811Y011675D01*
X022883Y011849D01*
X023017Y011983D01*
X023156Y012041D01*
X009978Y012041D01*
X010069Y011968D01*
X010166Y011860D01*
X010245Y011738D01*
X010304Y011605D01*
X010330Y011511D01*
X010457Y011511D01*
X012208Y011511D01*
X012407Y011511D01*
X012547Y011370D01*
X012547Y007021D01*
X012407Y006881D01*
X012208Y006881D01*
X008358Y006881D01*
X008337Y006901D01*
X008337Y006183D01*
X008502Y006251D01*
X008713Y006251D01*
X008908Y006170D01*
X009057Y006021D01*
X009107Y005899D01*
X009158Y006021D01*
X009307Y006170D01*
X009502Y006251D01*
X009713Y006251D01*
X009908Y006170D01*
X010057Y006021D01*
X010107Y005899D01*
X010158Y006021D01*
X010307Y006170D01*
X010502Y006251D01*
X010713Y006251D01*
X010908Y006170D01*
X011057Y006021D01*
X011107Y005899D01*
X011158Y006021D01*
X011307Y006170D01*
X011502Y006251D01*
X011713Y006251D01*
X011908Y006170D01*
X012057Y006021D01*
X012107Y005899D01*
X012158Y006021D01*
X012307Y006170D01*
X012502Y006251D01*
X012713Y006251D01*
X012908Y006170D01*
X013057Y006021D01*
X013107Y005899D01*
X013158Y006021D01*
X013307Y006170D01*
X013502Y006251D01*
X013713Y006251D01*
X013908Y006170D01*
X014057Y006021D01*
X014107Y005899D01*
X014158Y006021D01*
X014307Y006170D01*
X014502Y006251D01*
X014713Y006251D01*
X014908Y006170D01*
X015057Y006021D01*
X015107Y005899D01*
X015158Y006021D01*
X015307Y006170D01*
X015502Y006251D01*
X015713Y006251D01*
X015908Y006170D01*
X016057Y006021D01*
X016107Y005899D01*
X016158Y006021D01*
X016307Y006170D01*
X016502Y006251D01*
X016713Y006251D01*
X016908Y006170D01*
X017057Y006021D01*
X017107Y005899D01*
X017158Y006021D01*
X017307Y006170D01*
X017502Y006251D01*
X017713Y006251D01*
X017908Y006170D01*
X018057Y006021D01*
X018107Y005899D01*
X018158Y006021D01*
X018307Y006170D01*
X018502Y006251D01*
X018713Y006251D01*
X018908Y006170D01*
X019057Y006021D01*
X019107Y005899D01*
X019158Y006021D01*
X019307Y006170D01*
X019502Y006251D01*
X019713Y006251D01*
X019908Y006170D01*
X020057Y006021D01*
X020107Y005899D01*
X020158Y006021D01*
X020307Y006170D01*
X020502Y006251D01*
X020713Y006251D01*
X020908Y006170D01*
X021057Y006021D01*
X021107Y005899D01*
X021158Y006021D01*
X021307Y006170D01*
X021502Y006251D01*
X021713Y006251D01*
X021908Y006170D01*
X022057Y006021D01*
X022107Y005899D01*
X022158Y006021D01*
X022307Y006170D01*
X022502Y006251D01*
X022713Y006251D01*
X022908Y006170D01*
X023057Y006021D01*
X023107Y005899D01*
X023158Y006021D01*
X023307Y006170D01*
X023502Y006251D01*
X023713Y006251D01*
X023908Y006170D01*
X024057Y006021D01*
X024107Y005899D01*
X024158Y006021D01*
X024307Y006170D01*
X024502Y006251D01*
X024713Y006251D01*
X024908Y006170D01*
X025057Y006021D01*
X025107Y005899D01*
X025158Y006021D01*
X025307Y006170D01*
X025502Y006251D01*
X025713Y006251D01*
X025908Y006170D01*
X026057Y006021D01*
X026107Y005899D01*
X026158Y006021D01*
X026307Y006170D01*
X026502Y006251D01*
X026713Y006251D01*
X026908Y006170D01*
X027057Y006021D01*
X027107Y005899D01*
X027158Y006021D01*
X027307Y006170D01*
X027502Y006251D01*
X027713Y006251D01*
X027908Y006170D01*
X028057Y006021D01*
X028118Y005872D01*
X028175Y006010D01*
X028319Y006153D01*
X028506Y006231D01*
X028569Y006231D01*
X028569Y005759D01*
X028646Y005759D01*
X028646Y006231D01*
X028709Y006231D01*
X028877Y006161D01*
X028877Y009971D01*
X027807Y009971D01*
X027659Y009982D01*
X027514Y010017D01*
X027376Y010074D01*
X027287Y010129D01*
X027287Y010008D01*
X027427Y009869D01*
X027437Y009869D01*
X027583Y009808D01*
X027607Y009784D01*
X027607Y009795D01*
X027713Y009901D01*
X028742Y009901D01*
X028847Y009795D01*
X028847Y009166D01*
X028742Y009061D01*
X027713Y009061D01*
X027612Y009162D01*
X027583Y009133D01*
X027437Y009073D01*
X027287Y009073D01*
X027287Y008831D01*
X027607Y008831D01*
X027607Y008885D01*
X027713Y008991D01*
X028742Y008991D01*
X028847Y008885D01*
X028847Y008256D01*
X028742Y008151D01*
X027713Y008151D01*
X027607Y008256D01*
X027607Y008311D01*
X027287Y008311D01*
X027287Y007831D01*
X027607Y007831D01*
X027607Y007975D01*
X027713Y008081D01*
X028742Y008081D01*
X028847Y007975D01*
X028847Y007346D01*
X028742Y007241D01*
X027713Y007241D01*
X027643Y007311D01*
X027273Y007311D01*
X027153Y007191D01*
X026962Y007191D01*
X026930Y007191D01*
X026887Y007173D01*
X026735Y007173D01*
X026731Y007169D01*
X026837Y007169D01*
X026983Y007108D01*
X027095Y006996D01*
X027155Y006850D01*
X027155Y006692D01*
X027095Y006545D01*
X026983Y006433D01*
X026837Y006373D01*
X026678Y006373D01*
X026532Y006433D01*
X026454Y006511D01*
X013350Y006511D01*
X013197Y006663D01*
X013038Y006823D01*
X012928Y006823D01*
X012782Y006883D01*
X012670Y006995D01*
X012609Y007142D01*
X012609Y007300D01*
X012670Y007446D01*
X012782Y007558D01*
X012928Y007619D01*
X013087Y007619D01*
X013233Y007558D01*
X013345Y007446D01*
X013405Y007300D01*
X013405Y007190D01*
X013565Y007031D01*
X021634Y007031D01*
X021620Y007045D01*
X021559Y007192D01*
X021559Y007350D01*
X021620Y007496D01*
X021732Y007608D01*
X021878Y007669D01*
X022037Y007669D01*
X022183Y007608D01*
X022295Y007496D01*
X022355Y007350D01*
X022355Y007301D01*
X022697Y007301D01*
X022697Y007710D01*
X021264Y007710D01*
X021383Y007829D02*
X023927Y007829D01*
X023927Y007816D02*
X023412Y007816D01*
X022803Y007816D01*
X022697Y007710D01*
X022697Y007592D02*
X022199Y007592D01*
X022304Y007473D02*
X022697Y007473D01*
X022697Y007355D02*
X022354Y007355D01*
X021715Y007592D02*
X019766Y007592D01*
X020064Y007710D02*
X020550Y007710D01*
X020432Y007829D02*
X020183Y007829D01*
X019005Y007473D02*
X021610Y007473D01*
X021561Y007355D02*
X018969Y007355D01*
X018886Y007236D02*
X021559Y007236D01*
X021590Y007117D02*
X016987Y007117D01*
X017090Y007236D02*
X018329Y007236D01*
X018245Y007355D02*
X017209Y007355D01*
X017327Y007473D02*
X018209Y007473D01*
X018209Y007592D02*
X017845Y007592D01*
X017931Y007710D02*
X018255Y007710D01*
X018352Y007829D02*
X017931Y007829D01*
X017931Y007947D02*
X018377Y007947D01*
X018377Y008066D02*
X017929Y008066D01*
X017931Y008184D02*
X018377Y008184D01*
X018414Y008303D02*
X017931Y008303D01*
X017931Y008421D02*
X018533Y008421D01*
X018577Y008466D02*
X018577Y008466D01*
X018405Y008540D02*
X018310Y008540D01*
X016932Y009133D02*
X015774Y009133D01*
X015441Y009133D02*
X012547Y009133D01*
X012547Y009251D02*
X016882Y009251D01*
X016882Y009370D02*
X012547Y009370D01*
X012547Y009488D02*
X016882Y009488D01*
X016882Y009371D02*
X017396Y009371D01*
X017396Y009371D01*
X016882Y009371D01*
X016934Y009607D02*
X012547Y009607D01*
X012547Y009725D02*
X018427Y009725D01*
X018427Y009607D02*
X017859Y009607D01*
X017911Y009488D02*
X018427Y009488D01*
X018427Y009370D02*
X017911Y009370D01*
X017911Y009251D02*
X017956Y009251D01*
X018199Y009251D02*
X018427Y009251D01*
X018937Y009725D02*
X021937Y009725D01*
X021844Y009844D02*
X022055Y009844D01*
X022077Y009963D02*
X021952Y009963D01*
X022001Y010081D02*
X022077Y010081D01*
X022077Y010200D02*
X022005Y010200D01*
X021977Y010318D02*
X022077Y010318D01*
X022077Y010437D02*
X021904Y010437D01*
X022077Y010555D02*
X021719Y010555D01*
X021495Y010555D02*
X012547Y010555D01*
X012547Y010437D02*
X021310Y010437D01*
X022135Y010674D02*
X012547Y010674D01*
X012547Y010792D02*
X022254Y010792D01*
X022372Y010911D02*
X012547Y010911D01*
X012547Y011029D02*
X022491Y011029D01*
X022609Y011148D02*
X012547Y011148D01*
X012547Y011266D02*
X022728Y011266D01*
X022853Y011385D02*
X012532Y011385D01*
X012414Y011504D02*
X022811Y011504D01*
X022811Y011622D02*
X010297Y011622D01*
X010244Y011741D02*
X022838Y011741D01*
X022893Y011859D02*
X010166Y011859D01*
X010056Y011978D02*
X023012Y011978D01*
X023416Y012041D02*
X023555Y011983D01*
X023689Y011849D01*
X023761Y011675D01*
X023761Y011486D01*
X023750Y011459D01*
X023916Y011528D01*
X024098Y011528D01*
X024266Y011458D01*
X024395Y011330D01*
X024465Y011162D01*
X024465Y010980D01*
X024395Y010812D01*
X024284Y010701D01*
X026886Y010701D01*
X026869Y010772D01*
X026857Y010921D01*
X026857Y011321D01*
X026868Y011462D01*
X026901Y011599D01*
X026955Y011729D01*
X027029Y011850D01*
X027121Y011957D01*
X027219Y012041D01*
X023416Y012041D01*
X023561Y011978D02*
X027145Y011978D01*
X027037Y011859D02*
X023679Y011859D01*
X023734Y011741D02*
X026962Y011741D01*
X026911Y011622D02*
X023761Y011622D01*
X023761Y011504D02*
X023858Y011504D01*
X024157Y011504D02*
X026879Y011504D01*
X026862Y011385D02*
X024340Y011385D01*
X024421Y011266D02*
X026857Y011266D01*
X026857Y011148D02*
X024465Y011148D01*
X024465Y011029D02*
X026857Y011029D01*
X026858Y010911D02*
X024436Y010911D01*
X024375Y010792D02*
X026867Y010792D01*
X027287Y010081D02*
X027365Y010081D01*
X027333Y009963D02*
X028877Y009963D01*
X028877Y009844D02*
X028799Y009844D01*
X028847Y009725D02*
X028877Y009725D01*
X028877Y009607D02*
X028847Y009607D01*
X028847Y009488D02*
X028877Y009488D01*
X028877Y009370D02*
X028847Y009370D01*
X028847Y009251D02*
X028877Y009251D01*
X028877Y009133D02*
X028814Y009133D01*
X028877Y009014D02*
X027287Y009014D01*
X027287Y008896D02*
X027618Y008896D01*
X027641Y009133D02*
X027582Y009133D01*
X028837Y008896D02*
X028877Y008896D01*
X028877Y008777D02*
X028847Y008777D01*
X028847Y008659D02*
X028877Y008659D01*
X028877Y008540D02*
X028847Y008540D01*
X028847Y008421D02*
X028877Y008421D01*
X028877Y008303D02*
X028847Y008303D01*
X028877Y008184D02*
X028776Y008184D01*
X028757Y008066D02*
X028877Y008066D01*
X028877Y007947D02*
X028847Y007947D01*
X028847Y007829D02*
X028877Y007829D01*
X028877Y007710D02*
X028847Y007710D01*
X028847Y007592D02*
X028877Y007592D01*
X028877Y007473D02*
X028847Y007473D01*
X028847Y007355D02*
X028877Y007355D01*
X028877Y007236D02*
X027198Y007236D01*
X026961Y007117D02*
X028877Y007117D01*
X028877Y006999D02*
X027092Y006999D01*
X027143Y006880D02*
X028877Y006880D01*
X028877Y006762D02*
X027155Y006762D01*
X027136Y006643D02*
X028877Y006643D01*
X028877Y006525D02*
X027074Y006525D01*
X026918Y006406D02*
X028877Y006406D01*
X028877Y006288D02*
X008337Y006288D01*
X008337Y006406D02*
X026597Y006406D01*
X026306Y006169D02*
X025909Y006169D01*
X026027Y006051D02*
X026188Y006051D01*
X026121Y005932D02*
X026093Y005932D01*
X025306Y006169D02*
X024909Y006169D01*
X025027Y006051D02*
X025188Y006051D01*
X025121Y005932D02*
X025093Y005932D01*
X024306Y006169D02*
X023909Y006169D01*
X024027Y006051D02*
X024188Y006051D01*
X024121Y005932D02*
X024093Y005932D01*
X023306Y006169D02*
X022909Y006169D01*
X023027Y006051D02*
X023188Y006051D01*
X023121Y005932D02*
X023093Y005932D01*
X022306Y006169D02*
X021909Y006169D01*
X022027Y006051D02*
X022188Y006051D01*
X022121Y005932D02*
X022093Y005932D01*
X021306Y006169D02*
X020909Y006169D01*
X021027Y006051D02*
X021188Y006051D01*
X021121Y005932D02*
X021093Y005932D01*
X020306Y006169D02*
X019909Y006169D01*
X020027Y006051D02*
X020188Y006051D01*
X020121Y005932D02*
X020093Y005932D01*
X019306Y006169D02*
X018909Y006169D01*
X019027Y006051D02*
X019188Y006051D01*
X019121Y005932D02*
X019093Y005932D01*
X018306Y006169D02*
X017909Y006169D01*
X018027Y006051D02*
X018188Y006051D01*
X018121Y005932D02*
X018093Y005932D01*
X017306Y006169D02*
X016909Y006169D01*
X017027Y006051D02*
X017188Y006051D01*
X017121Y005932D02*
X017093Y005932D01*
X016306Y006169D02*
X015909Y006169D01*
X016027Y006051D02*
X016188Y006051D01*
X016121Y005932D02*
X016093Y005932D01*
X015306Y006169D02*
X014909Y006169D01*
X015027Y006051D02*
X015188Y006051D01*
X015121Y005932D02*
X015093Y005932D01*
X014306Y006169D02*
X013909Y006169D01*
X014027Y006051D02*
X014188Y006051D01*
X014121Y005932D02*
X014094Y005932D01*
X013306Y006169D02*
X012909Y006169D01*
X013027Y006051D02*
X013188Y006051D01*
X013121Y005932D02*
X013094Y005932D01*
X012306Y006169D02*
X011909Y006169D01*
X012027Y006051D02*
X012188Y006051D01*
X012121Y005932D02*
X012094Y005932D01*
X011306Y006169D02*
X010909Y006169D01*
X011027Y006051D02*
X011188Y006051D01*
X011121Y005932D02*
X011094Y005932D01*
X010306Y006169D02*
X009909Y006169D01*
X010027Y006051D02*
X010188Y006051D01*
X010121Y005932D02*
X010094Y005932D01*
X009306Y006169D02*
X008909Y006169D01*
X009027Y006051D02*
X009188Y006051D01*
X009121Y005932D02*
X009094Y005932D01*
X008337Y006525D02*
X013336Y006525D01*
X013217Y006643D02*
X008337Y006643D01*
X008337Y006762D02*
X013099Y006762D01*
X012789Y006880D02*
X008337Y006880D01*
X008457Y007121D02*
X012307Y007121D01*
X012307Y011271D01*
X010357Y011271D01*
X010357Y010921D01*
X010346Y010772D01*
X010311Y010627D01*
X010254Y010489D01*
X010176Y010362D01*
X010079Y010249D01*
X009966Y010152D01*
X009839Y010074D01*
X009701Y010017D01*
X009556Y009982D01*
X009407Y009971D01*
X008457Y009971D01*
X008457Y007121D01*
X008457Y007236D02*
X012307Y007236D01*
X012307Y007355D02*
X008457Y007355D01*
X008457Y007473D02*
X012307Y007473D01*
X012307Y007592D02*
X008457Y007592D01*
X008457Y007710D02*
X012307Y007710D01*
X012307Y007829D02*
X008457Y007829D01*
X008457Y007947D02*
X012307Y007947D01*
X012307Y008066D02*
X008457Y008066D01*
X008457Y008184D02*
X012307Y008184D01*
X012307Y008303D02*
X008457Y008303D01*
X008457Y008421D02*
X012307Y008421D01*
X012307Y008540D02*
X008457Y008540D01*
X008457Y008659D02*
X012307Y008659D01*
X012307Y008777D02*
X008457Y008777D01*
X008457Y008896D02*
X012307Y008896D01*
X012307Y009014D02*
X008457Y009014D01*
X008457Y009133D02*
X012307Y009133D01*
X012307Y009251D02*
X008457Y009251D01*
X008457Y009370D02*
X012307Y009370D01*
X012307Y009488D02*
X008457Y009488D01*
X008457Y009607D02*
X012307Y009607D01*
X012307Y009725D02*
X008457Y009725D01*
X008457Y009844D02*
X012307Y009844D01*
X012307Y009963D02*
X008457Y009963D01*
X009850Y010081D02*
X012307Y010081D01*
X012307Y010200D02*
X010021Y010200D01*
X010138Y010318D02*
X012307Y010318D01*
X012307Y010437D02*
X010221Y010437D01*
X010281Y010555D02*
X012307Y010555D01*
X012307Y010674D02*
X010322Y010674D01*
X010347Y010792D02*
X012307Y010792D01*
X012307Y010911D02*
X010357Y010911D01*
X010357Y011029D02*
X012307Y011029D01*
X012307Y011148D02*
X010357Y011148D01*
X010357Y011266D02*
X012307Y011266D01*
X012547Y010318D02*
X018880Y010318D01*
X018761Y010200D02*
X012547Y010200D01*
X012547Y010081D02*
X018642Y010081D01*
X018524Y009963D02*
X012547Y009963D01*
X012547Y009844D02*
X018427Y009844D01*
X019056Y009844D02*
X021371Y009844D01*
X020168Y009607D02*
X019989Y009607D01*
X022213Y008659D02*
X023927Y008659D01*
X023927Y008777D02*
X023781Y008777D01*
X023900Y008896D02*
X023927Y008896D01*
X023927Y008540D02*
X022205Y008540D01*
X022156Y008421D02*
X023927Y008421D01*
X023927Y008303D02*
X022053Y008303D01*
X021739Y008184D02*
X023927Y008184D01*
X023927Y008066D02*
X021620Y008066D01*
X021502Y007947D02*
X023927Y007947D01*
X027287Y007947D02*
X027607Y007947D01*
X027698Y008066D02*
X027287Y008066D01*
X027287Y008184D02*
X027679Y008184D01*
X027607Y008303D02*
X027287Y008303D01*
X027497Y009844D02*
X027656Y009844D01*
X027909Y006169D02*
X028357Y006169D01*
X028216Y006051D02*
X028027Y006051D01*
X028094Y005932D02*
X028143Y005932D01*
X028569Y005932D02*
X028646Y005932D01*
X028646Y005814D02*
X028569Y005814D01*
X028569Y006051D02*
X028646Y006051D01*
X028646Y006169D02*
X028569Y006169D01*
X028858Y006169D02*
X028877Y006169D01*
X027306Y006169D02*
X026909Y006169D01*
X027027Y006051D02*
X027188Y006051D01*
X027121Y005932D02*
X027093Y005932D01*
X017397Y009488D02*
X017397Y009488D01*
X017397Y009607D02*
X017397Y009607D01*
X015288Y009014D02*
X012547Y009014D01*
X012547Y008896D02*
X015228Y008896D01*
X015209Y008777D02*
X012547Y008777D01*
X012547Y008659D02*
X015223Y008659D01*
X015275Y008540D02*
X012547Y008540D01*
X012547Y008421D02*
X015410Y008421D01*
X015804Y008421D02*
X016259Y008421D01*
X016259Y008303D02*
X012547Y008303D01*
X012547Y008184D02*
X016304Y008184D01*
X016297Y008540D02*
X015940Y008540D01*
X015100Y008066D02*
X012547Y008066D01*
X012547Y007947D02*
X014971Y007947D01*
X014921Y007829D02*
X012547Y007829D01*
X012547Y007710D02*
X014909Y007710D01*
X014930Y007592D02*
X013152Y007592D01*
X013318Y007473D02*
X014992Y007473D01*
X015151Y007355D02*
X013383Y007355D01*
X013405Y007236D02*
X015666Y007236D01*
X015666Y007208D02*
X015666Y007432D01*
X015984Y007432D01*
X015984Y007114D01*
X015760Y007114D01*
X015666Y007208D01*
X015756Y007117D02*
X013478Y007117D01*
X012668Y006999D02*
X012525Y006999D01*
X012547Y007117D02*
X012619Y007117D01*
X012609Y007236D02*
X012547Y007236D01*
X012547Y007355D02*
X012632Y007355D01*
X012697Y007473D02*
X012547Y007473D01*
X012547Y007592D02*
X012862Y007592D01*
X015464Y007355D02*
X015666Y007355D01*
X015623Y007473D02*
X015984Y007473D01*
X015984Y007355D02*
X016061Y007355D01*
X016061Y007236D02*
X015984Y007236D01*
X015984Y007117D02*
X016061Y007117D01*
X016289Y007117D02*
X016397Y007117D01*
D21*
X015307Y007721D03*
X016657Y008371D03*
X015607Y008771D03*
X018077Y008871D03*
X018637Y008871D03*
X020657Y008571D03*
X021807Y008621D03*
X019457Y007371D03*
X018607Y007521D03*
X019107Y006271D03*
X017107Y006271D03*
X014107Y006271D03*
X013007Y007221D03*
X009757Y007821D03*
X009407Y007321D03*
X008857Y007321D03*
X009457Y006571D03*
X009757Y008371D03*
X009757Y008921D03*
X009407Y009571D03*
X008857Y009571D03*
X013207Y010071D03*
X017557Y011871D03*
X021607Y010171D03*
X021907Y010821D03*
X025507Y009621D03*
X026057Y009621D03*
X026607Y009321D03*
X027357Y009471D03*
X026857Y008721D03*
X026857Y008171D03*
X026807Y007571D03*
X026757Y006771D03*
X024257Y006321D03*
X021957Y007271D03*
X024957Y009171D03*
X025557Y011021D03*
D22*
X025057Y010421D02*
X026507Y010421D01*
X027357Y009571D01*
X027357Y009471D01*
X028207Y009471D01*
X028217Y009481D01*
X028227Y009481D01*
X028227Y008571D02*
X026657Y008571D01*
X026857Y008171D01*
X028107Y007571D02*
X028207Y007671D01*
X028217Y007661D01*
X028227Y007661D01*
X028107Y007571D02*
X026807Y007571D01*
X026757Y006771D02*
X013457Y006771D01*
X013007Y007221D01*
X016692Y007471D02*
X016957Y007471D01*
X017357Y007871D01*
X017397Y007871D01*
X017407Y007860D01*
X019307Y007871D02*
X019318Y007871D01*
X019857Y007871D01*
X020157Y008171D01*
X020107Y008286D01*
X020192Y008286D01*
X020157Y008271D01*
X020357Y008271D01*
X020707Y007921D01*
X021107Y007921D01*
X021807Y008621D01*
X022107Y008921D01*
X023557Y008921D01*
X025057Y010421D01*
X020657Y008571D02*
X020657Y008521D01*
X020157Y008971D01*
X020107Y009121D01*
X019857Y009371D01*
X019318Y009371D01*
X020107Y009121D02*
X020107Y008955D01*
M02*
