%
M48
M72
T01C0.0236
T02C0.0354
T03C0.0394
T04C0.0591
T05C0.1063
%
T01
X6856Y6321
X9156Y7271
X11656Y7371
X12506Y7521
X14456Y8371
X15506Y8771
X15806Y7721
X18106Y7221
X17006Y6271
X14006Y6271
X12006Y6271
X10456Y8571
X9306Y8621
X9506Y10171
X9206Y10821
X6156Y9171
X5606Y9621
X5056Y9621
X4506Y9321
X3756Y9471
X4256Y8721
X4256Y8171
X4306Y7571
X4356Y6771
X12476Y8871
X13036Y8871
X17906Y10071
X21356Y8921
X21356Y8371
X21356Y7821
X21706Y7321
X22256Y7321
X21656Y6571
X21706Y9571
X22256Y9571
X13556Y11871
X5556Y11021
T02
X7106Y11071
X8106Y10571
X7106Y10071
X8106Y9571
T03
X2506Y5721
X3506Y5721
X4506Y5721
X5506Y5721
X6506Y5721
X7506Y5721
X8506Y5721
X9506Y5721
X10506Y5721
X11506Y5721
X12506Y5721
X13506Y5721
X14506Y5721
X15506Y5721
X16506Y5721
X17506Y5721
X18506Y5721
X19506Y5721
X20506Y5721
X21506Y5721
X22506Y5721
T04
X7827Y11580
T05
X3106Y11121
X21906Y11121
M30
