G75*
G70*
%OFA0B0*%
%FSLAX24Y24*%
%IPPOS*%
%LPD*%
%AMOC8*
5,1,8,0,0,1.08239X$1,22.5*
%
%ADD10C,0.0594*%
%ADD11C,0.0120*%
%ADD12C,0.0360*%
D10*
X002500Y002506D03*
X003500Y002506D03*
X004500Y002506D03*
X005500Y002506D03*
X006500Y002506D03*
X007500Y002506D03*
X008500Y002506D03*
X009500Y002506D03*
X010500Y002506D03*
X011500Y002506D03*
X012500Y002506D03*
X013500Y002506D03*
X014500Y002506D03*
X015500Y002506D03*
X016500Y002506D03*
X017500Y002506D03*
X018500Y002506D03*
X019500Y002506D03*
X020500Y002506D03*
X021500Y002506D03*
X022500Y002506D03*
D11*
X003023Y002456D02*
X002976Y002456D01*
X002976Y002601D01*
X002904Y002776D01*
X002770Y002910D01*
X002595Y002982D01*
X002405Y002982D01*
X002230Y002910D01*
X002180Y002860D01*
X002180Y008576D01*
X020850Y008576D01*
X020850Y006856D01*
X022820Y006856D01*
X022820Y002832D01*
X022758Y002893D01*
X022591Y002962D01*
X022538Y002962D01*
X022538Y002544D01*
X022461Y002544D01*
X022043Y002544D01*
X022043Y002597D01*
X022112Y002764D01*
X022241Y002893D01*
X022409Y002962D01*
X022461Y002962D01*
X022461Y002544D01*
X022461Y002467D01*
X022043Y002467D01*
X022043Y002456D01*
X021976Y002456D01*
X021976Y002601D01*
X021904Y002776D01*
X021770Y002910D01*
X021595Y002982D01*
X021405Y002982D01*
X021230Y002910D01*
X021095Y002776D01*
X021023Y002601D01*
X021023Y002456D01*
X020976Y002456D01*
X020976Y002601D01*
X020904Y002776D01*
X020770Y002910D01*
X020595Y002982D01*
X020405Y002982D01*
X020230Y002910D01*
X020095Y002776D01*
X020023Y002601D01*
X020023Y002456D01*
X019976Y002456D01*
X019976Y002601D01*
X019904Y002776D01*
X019770Y002910D01*
X019595Y002982D01*
X019405Y002982D01*
X019230Y002910D01*
X019095Y002776D01*
X019023Y002601D01*
X019023Y002456D01*
X018976Y002456D01*
X018976Y002601D01*
X018904Y002776D01*
X018770Y002910D01*
X018595Y002982D01*
X018405Y002982D01*
X018230Y002910D01*
X018095Y002776D01*
X018023Y002601D01*
X018023Y002456D01*
X017976Y002456D01*
X017976Y002601D01*
X017904Y002776D01*
X017770Y002910D01*
X017595Y002982D01*
X017405Y002982D01*
X017230Y002910D01*
X017095Y002776D01*
X017023Y002601D01*
X017023Y002456D01*
X016976Y002456D01*
X016976Y002601D01*
X016904Y002776D01*
X016770Y002910D01*
X016595Y002982D01*
X016405Y002982D01*
X016230Y002910D01*
X016095Y002776D01*
X016023Y002601D01*
X016023Y002456D01*
X015976Y002456D01*
X015976Y002601D01*
X015904Y002776D01*
X015770Y002910D01*
X015595Y002982D01*
X015405Y002982D01*
X015230Y002910D01*
X015095Y002776D01*
X015023Y002601D01*
X015023Y002456D01*
X014976Y002456D01*
X014976Y002601D01*
X014904Y002776D01*
X014770Y002910D01*
X014595Y002982D01*
X014405Y002982D01*
X014230Y002910D01*
X014095Y002776D01*
X014023Y002601D01*
X014023Y002456D01*
X013976Y002456D01*
X013976Y002601D01*
X013904Y002776D01*
X013770Y002910D01*
X013595Y002982D01*
X013405Y002982D01*
X013230Y002910D01*
X013095Y002776D01*
X013023Y002601D01*
X013023Y002456D01*
X012976Y002456D01*
X012976Y002601D01*
X012904Y002776D01*
X012770Y002910D01*
X012595Y002982D01*
X012405Y002982D01*
X012230Y002910D01*
X012095Y002776D01*
X012023Y002601D01*
X012023Y002456D01*
X011976Y002456D01*
X011976Y002601D01*
X011904Y002776D01*
X011770Y002910D01*
X011595Y002982D01*
X011405Y002982D01*
X011230Y002910D01*
X011095Y002776D01*
X011023Y002601D01*
X011023Y002456D01*
X010976Y002456D01*
X010976Y002601D01*
X010904Y002776D01*
X010770Y002910D01*
X010595Y002982D01*
X010405Y002982D01*
X010230Y002910D01*
X010095Y002776D01*
X010023Y002601D01*
X010023Y002456D01*
X009976Y002456D01*
X009976Y002601D01*
X009904Y002776D01*
X009770Y002910D01*
X009595Y002982D01*
X009405Y002982D01*
X009230Y002910D01*
X009095Y002776D01*
X009023Y002601D01*
X009023Y002456D01*
X008976Y002456D01*
X008976Y002601D01*
X008904Y002776D01*
X008770Y002910D01*
X008595Y002982D01*
X008405Y002982D01*
X008230Y002910D01*
X008095Y002776D01*
X008023Y002601D01*
X008023Y002456D01*
X007976Y002456D01*
X007976Y002601D01*
X007904Y002776D01*
X007770Y002910D01*
X007595Y002982D01*
X007405Y002982D01*
X007230Y002910D01*
X007095Y002776D01*
X007023Y002601D01*
X007023Y002456D01*
X006976Y002456D01*
X006976Y002601D01*
X006904Y002776D01*
X006770Y002910D01*
X006595Y002982D01*
X006405Y002982D01*
X006230Y002910D01*
X006095Y002776D01*
X006023Y002601D01*
X006023Y002456D01*
X005976Y002456D01*
X005976Y002601D01*
X005904Y002776D01*
X005770Y002910D01*
X005595Y002982D01*
X005405Y002982D01*
X005230Y002910D01*
X005095Y002776D01*
X005023Y002601D01*
X005023Y002456D01*
X004976Y002456D01*
X004976Y002601D01*
X004904Y002776D01*
X004770Y002910D01*
X004595Y002982D01*
X004405Y002982D01*
X004230Y002910D01*
X004095Y002776D01*
X004023Y002601D01*
X004023Y002456D01*
X003976Y002456D01*
X003976Y002601D01*
X003904Y002776D01*
X003770Y002910D01*
X003595Y002982D01*
X003405Y002982D01*
X003230Y002910D01*
X003095Y002776D01*
X003023Y002601D01*
X003023Y002456D01*
X003023Y002480D02*
X002976Y002480D01*
X002976Y002598D02*
X003023Y002598D01*
X003071Y002717D02*
X002928Y002717D01*
X002844Y002835D02*
X003155Y002835D01*
X003336Y002954D02*
X002663Y002954D01*
X002336Y002954D02*
X002180Y002954D01*
X002180Y003073D02*
X022820Y003073D01*
X022820Y003191D02*
X002180Y003191D01*
X002180Y003310D02*
X022820Y003310D01*
X022820Y003428D02*
X002180Y003428D01*
X002180Y003547D02*
X022820Y003547D01*
X022820Y003665D02*
X002180Y003665D01*
X002180Y003784D02*
X022820Y003784D01*
X022820Y003902D02*
X002180Y003902D01*
X002180Y004021D02*
X022820Y004021D01*
X022820Y004139D02*
X002180Y004139D01*
X002180Y004258D02*
X022820Y004258D01*
X022820Y004377D02*
X003813Y004377D01*
X003837Y004387D02*
X003706Y004332D01*
X003564Y004332D01*
X003433Y004387D01*
X003332Y004487D01*
X003278Y004618D01*
X003278Y004761D01*
X003332Y004892D01*
X003433Y004992D01*
X003564Y005047D01*
X003706Y005047D01*
X003837Y004992D01*
X003938Y004892D01*
X003992Y004761D01*
X003992Y004618D01*
X003938Y004487D01*
X003837Y004387D01*
X003941Y004495D02*
X022820Y004495D01*
X022820Y004614D02*
X003990Y004614D01*
X003992Y004732D02*
X022820Y004732D01*
X022820Y004851D02*
X003955Y004851D01*
X003860Y004969D02*
X022820Y004969D01*
X022820Y005088D02*
X002180Y005088D01*
X002180Y005206D02*
X022820Y005206D01*
X022820Y005325D02*
X002180Y005325D01*
X002180Y005443D02*
X022820Y005443D01*
X022820Y005562D02*
X002180Y005562D01*
X002180Y005681D02*
X022820Y005681D01*
X022820Y005799D02*
X002180Y005799D01*
X002180Y005918D02*
X022820Y005918D01*
X022820Y006036D02*
X002180Y006036D01*
X002180Y006155D02*
X003397Y006155D01*
X003433Y006119D02*
X003332Y006219D01*
X003278Y006351D01*
X003278Y006493D01*
X003332Y006624D01*
X003433Y006725D01*
X003564Y006779D01*
X003706Y006779D01*
X003837Y006725D01*
X003938Y006624D01*
X003992Y006493D01*
X003992Y006351D01*
X003938Y006219D01*
X003837Y006119D01*
X003706Y006065D01*
X003564Y006065D01*
X003433Y006119D01*
X003310Y006273D02*
X002180Y006273D01*
X002180Y006392D02*
X003278Y006392D01*
X003285Y006510D02*
X002180Y006510D01*
X002180Y006629D02*
X003337Y006629D01*
X003488Y006747D02*
X002180Y006747D01*
X002180Y006866D02*
X020850Y006866D01*
X020850Y006984D02*
X002180Y006984D01*
X002180Y007103D02*
X020850Y007103D01*
X020850Y007222D02*
X002180Y007222D01*
X002180Y007340D02*
X020850Y007340D01*
X020850Y007459D02*
X002180Y007459D01*
X002180Y007577D02*
X020850Y007577D01*
X020850Y007696D02*
X002180Y007696D01*
X002180Y007814D02*
X020850Y007814D01*
X020850Y007933D02*
X002180Y007933D01*
X002180Y008051D02*
X020850Y008051D01*
X020850Y008170D02*
X002180Y008170D01*
X002180Y008288D02*
X020850Y008288D01*
X020850Y008407D02*
X002180Y008407D01*
X002180Y008526D02*
X020850Y008526D01*
X022820Y006747D02*
X003782Y006747D01*
X003933Y006629D02*
X022820Y006629D01*
X022820Y006510D02*
X003985Y006510D01*
X003992Y006392D02*
X022820Y006392D01*
X022820Y006273D02*
X003960Y006273D01*
X003873Y006155D02*
X022820Y006155D01*
X022820Y002954D02*
X022611Y002954D01*
X022538Y002954D02*
X022461Y002954D01*
X022388Y002954D02*
X021663Y002954D01*
X021336Y002954D02*
X020663Y002954D01*
X020336Y002954D02*
X019663Y002954D01*
X019336Y002954D02*
X018663Y002954D01*
X018336Y002954D02*
X017663Y002954D01*
X017336Y002954D02*
X016663Y002954D01*
X016336Y002954D02*
X015663Y002954D01*
X015336Y002954D02*
X014663Y002954D01*
X014336Y002954D02*
X013663Y002954D01*
X013336Y002954D02*
X012663Y002954D01*
X012336Y002954D02*
X011663Y002954D01*
X011336Y002954D02*
X010663Y002954D01*
X010336Y002954D02*
X009663Y002954D01*
X009336Y002954D02*
X008663Y002954D01*
X008336Y002954D02*
X007663Y002954D01*
X007336Y002954D02*
X006663Y002954D01*
X006336Y002954D02*
X005663Y002954D01*
X005336Y002954D02*
X004663Y002954D01*
X004336Y002954D02*
X003663Y002954D01*
X003844Y002835D02*
X004155Y002835D01*
X004071Y002717D02*
X003928Y002717D01*
X003976Y002598D02*
X004023Y002598D01*
X004023Y002480D02*
X003976Y002480D01*
X004844Y002835D02*
X005155Y002835D01*
X005071Y002717D02*
X004928Y002717D01*
X004976Y002598D02*
X005023Y002598D01*
X005023Y002480D02*
X004976Y002480D01*
X005844Y002835D02*
X006155Y002835D01*
X006071Y002717D02*
X005928Y002717D01*
X005976Y002598D02*
X006023Y002598D01*
X006023Y002480D02*
X005976Y002480D01*
X006844Y002835D02*
X007155Y002835D01*
X007071Y002717D02*
X006928Y002717D01*
X006976Y002598D02*
X007023Y002598D01*
X007023Y002480D02*
X006976Y002480D01*
X007844Y002835D02*
X008155Y002835D01*
X008071Y002717D02*
X007928Y002717D01*
X007976Y002598D02*
X008023Y002598D01*
X008023Y002480D02*
X007976Y002480D01*
X008844Y002835D02*
X009155Y002835D01*
X009071Y002717D02*
X008928Y002717D01*
X008976Y002598D02*
X009023Y002598D01*
X009023Y002480D02*
X008976Y002480D01*
X009844Y002835D02*
X010155Y002835D01*
X010071Y002717D02*
X009928Y002717D01*
X009976Y002598D02*
X010023Y002598D01*
X010023Y002480D02*
X009976Y002480D01*
X010844Y002835D02*
X011155Y002835D01*
X011071Y002717D02*
X010928Y002717D01*
X010976Y002598D02*
X011023Y002598D01*
X011023Y002480D02*
X010976Y002480D01*
X011844Y002835D02*
X012155Y002835D01*
X012071Y002717D02*
X011928Y002717D01*
X011976Y002598D02*
X012023Y002598D01*
X012023Y002480D02*
X011976Y002480D01*
X012844Y002835D02*
X013155Y002835D01*
X013071Y002717D02*
X012928Y002717D01*
X012976Y002598D02*
X013023Y002598D01*
X013023Y002480D02*
X012976Y002480D01*
X013844Y002835D02*
X014155Y002835D01*
X014071Y002717D02*
X013928Y002717D01*
X013976Y002598D02*
X014023Y002598D01*
X014023Y002480D02*
X013976Y002480D01*
X014844Y002835D02*
X015155Y002835D01*
X015071Y002717D02*
X014928Y002717D01*
X014976Y002598D02*
X015023Y002598D01*
X015023Y002480D02*
X014976Y002480D01*
X015844Y002835D02*
X016155Y002835D01*
X016071Y002717D02*
X015928Y002717D01*
X015976Y002598D02*
X016023Y002598D01*
X016023Y002480D02*
X015976Y002480D01*
X016844Y002835D02*
X017155Y002835D01*
X017071Y002717D02*
X016928Y002717D01*
X016976Y002598D02*
X017023Y002598D01*
X017023Y002480D02*
X016976Y002480D01*
X017844Y002835D02*
X018155Y002835D01*
X018071Y002717D02*
X017928Y002717D01*
X017976Y002598D02*
X018023Y002598D01*
X018023Y002480D02*
X017976Y002480D01*
X018844Y002835D02*
X019155Y002835D01*
X019071Y002717D02*
X018928Y002717D01*
X018976Y002598D02*
X019023Y002598D01*
X019023Y002480D02*
X018976Y002480D01*
X019844Y002835D02*
X020155Y002835D01*
X020071Y002717D02*
X019928Y002717D01*
X019976Y002598D02*
X020023Y002598D01*
X020023Y002480D02*
X019976Y002480D01*
X020844Y002835D02*
X021155Y002835D01*
X021071Y002717D02*
X020928Y002717D01*
X020976Y002598D02*
X021023Y002598D01*
X021023Y002480D02*
X020976Y002480D01*
X021844Y002835D02*
X022183Y002835D01*
X022093Y002717D02*
X021928Y002717D01*
X021976Y002598D02*
X022044Y002598D01*
X021976Y002480D02*
X022461Y002480D01*
X022461Y002598D02*
X022538Y002598D01*
X022538Y002717D02*
X022461Y002717D01*
X022461Y002835D02*
X022538Y002835D01*
X022816Y002835D02*
X022820Y002835D01*
X003457Y004377D02*
X002180Y004377D01*
X002180Y004495D02*
X003329Y004495D01*
X003280Y004614D02*
X002180Y004614D01*
X002180Y004732D02*
X003278Y004732D01*
X003315Y004851D02*
X002180Y004851D01*
X002180Y004969D02*
X003410Y004969D01*
D12*
X006450Y005456D03*
X010350Y006406D03*
X013550Y005806D03*
M02*
