G75*
G70*
%OFA0B0*%
%FSLAX24Y24*%
%IPPOS*%
%LPD*%
%AMOC8*
5,1,8,0,0,1.08239X$1,22.5*
%
%ADD10C,0.0100*%
%ADD11C,0.0700*%
%ADD12C,0.0236*%
%ADD13C,0.0650*%
%ADD14R,0.0630X0.0460*%
%ADD15R,0.0400X0.0390*%
%ADD16C,0.0120*%
%ADD17C,0.0357*%
%ADD18C,0.0160*%
%ADD19C,0.0240*%
%ADD20C,0.0320*%
D10*
X008954Y007371D02*
X009354Y007371D01*
X009221Y007371D02*
X009221Y007571D01*
X009154Y007638D01*
X009021Y007638D01*
X008954Y007571D01*
X008954Y007371D01*
X009221Y007504D02*
X009354Y007638D01*
X009354Y007831D02*
X009087Y008098D01*
X009021Y008098D01*
X008954Y008031D01*
X008954Y007898D01*
X009021Y007831D01*
X009354Y007831D02*
X009354Y008098D01*
X009288Y008291D02*
X009354Y008358D01*
X009354Y008492D01*
X009288Y008558D01*
X009221Y008558D01*
X009154Y008492D01*
X009154Y008291D01*
X009288Y008291D01*
X009154Y008291D02*
X009021Y008425D01*
X008954Y008558D01*
X016854Y008558D02*
X016854Y008291D01*
X017054Y008291D01*
X016987Y008425D01*
X016987Y008492D01*
X017054Y008558D01*
X017188Y008558D01*
X017254Y008492D01*
X017254Y008358D01*
X017188Y008291D01*
X017254Y008098D02*
X017254Y007831D01*
X016987Y008098D01*
X016921Y008098D01*
X016854Y008031D01*
X016854Y007898D01*
X016921Y007831D01*
X016921Y007638D02*
X017054Y007638D01*
X017121Y007571D01*
X017121Y007371D01*
X017121Y007504D02*
X017254Y007638D01*
X016921Y007638D02*
X016854Y007571D01*
X016854Y007371D01*
X017254Y007371D01*
X019254Y007371D02*
X019254Y007571D01*
X019321Y007638D01*
X019454Y007638D01*
X019521Y007571D01*
X019521Y007371D01*
X019521Y007504D02*
X019654Y007638D01*
X019654Y007831D02*
X019387Y008098D01*
X019321Y008098D01*
X019254Y008031D01*
X019254Y007898D01*
X019321Y007831D01*
X019654Y007831D02*
X019654Y008098D01*
X019454Y008291D02*
X019454Y008558D01*
X019654Y008492D02*
X019254Y008492D01*
X019454Y008291D01*
X019654Y007371D02*
X019254Y007371D01*
X020854Y007371D02*
X020854Y007571D01*
X020921Y007638D01*
X021054Y007638D01*
X021121Y007571D01*
X021121Y007371D01*
X021121Y007504D02*
X021254Y007638D01*
X021254Y007831D02*
X020987Y008098D01*
X020921Y008098D01*
X020854Y008031D01*
X020854Y007898D01*
X020921Y007831D01*
X021254Y007831D02*
X021254Y008098D01*
X021188Y008291D02*
X021254Y008358D01*
X021254Y008492D01*
X021188Y008558D01*
X021121Y008558D01*
X021054Y008492D01*
X021054Y008425D01*
X021054Y008492D02*
X020987Y008558D01*
X020921Y008558D01*
X020854Y008492D01*
X020854Y008358D01*
X020921Y008291D01*
X020854Y007371D02*
X021254Y007371D01*
X022904Y007298D02*
X022904Y007165D01*
X022904Y007231D02*
X023238Y007231D01*
X023304Y007165D01*
X023304Y007098D01*
X023238Y007031D01*
X023238Y006838D02*
X023304Y006771D01*
X023304Y006637D01*
X023238Y006571D01*
X023104Y006637D02*
X023104Y006771D01*
X023171Y006838D01*
X023238Y006838D01*
X023104Y006637D02*
X023037Y006571D01*
X022971Y006571D01*
X022904Y006637D01*
X022904Y006771D01*
X022971Y006838D01*
X023037Y007491D02*
X022904Y007625D01*
X023304Y007625D01*
X023304Y007758D02*
X023304Y007491D01*
X023365Y014821D02*
X023632Y014821D01*
X023498Y014821D02*
X023498Y015221D01*
X023365Y015088D01*
X022904Y015221D02*
X022904Y014821D01*
X023171Y014821D01*
X018382Y014821D02*
X018115Y014821D01*
X018382Y015088D01*
X018382Y015154D01*
X018315Y015221D01*
X018181Y015221D01*
X018115Y015154D01*
X017921Y014821D02*
X017654Y014821D01*
X017654Y015221D01*
X013232Y015154D02*
X013232Y015088D01*
X013165Y015021D01*
X013232Y014954D01*
X013232Y014887D01*
X013165Y014821D01*
X013031Y014821D01*
X012965Y014887D01*
X013098Y015021D02*
X013165Y015021D01*
X013232Y015154D02*
X013165Y015221D01*
X013031Y015221D01*
X012965Y015154D01*
X012771Y014821D02*
X012504Y014821D01*
X012504Y015221D01*
X008282Y015021D02*
X008015Y015021D01*
X008215Y015221D01*
X008215Y014821D01*
X007821Y014821D02*
X007554Y014821D01*
X007554Y015221D01*
D11*
X005654Y005721D03*
X006654Y005721D03*
X007654Y005721D03*
X008654Y005721D03*
X009654Y005721D03*
X010654Y005721D03*
X011654Y005721D03*
X012654Y005721D03*
X013654Y005721D03*
X014654Y005721D03*
X015654Y005721D03*
X016654Y005721D03*
X017654Y005721D03*
X018654Y005721D03*
X019654Y005721D03*
X020654Y005721D03*
X021654Y005721D03*
X022654Y005721D03*
X023654Y005721D03*
X024654Y005721D03*
X025654Y005721D03*
D12*
X021929Y012479D02*
X022596Y013146D01*
X021929Y012479D02*
X021262Y013146D01*
X021929Y013813D01*
X022596Y013146D01*
X022164Y012714D02*
X021694Y012714D01*
X021459Y012949D02*
X022399Y012949D01*
X022558Y013184D02*
X021300Y013184D01*
X021535Y013419D02*
X022323Y013419D01*
X022088Y013654D02*
X021770Y013654D01*
X020047Y015846D02*
X019380Y015179D01*
X018713Y015846D01*
X019380Y016513D01*
X020047Y015846D01*
X019615Y015414D02*
X019145Y015414D01*
X018910Y015649D02*
X019850Y015649D01*
X020009Y015884D02*
X018751Y015884D01*
X018986Y016119D02*
X019774Y016119D01*
X019539Y016354D02*
X019221Y016354D01*
X017346Y013146D02*
X016679Y012479D01*
X016012Y013146D01*
X016679Y013813D01*
X017346Y013146D01*
X016914Y012714D02*
X016444Y012714D01*
X016209Y012949D02*
X017149Y012949D01*
X017308Y013184D02*
X016050Y013184D01*
X016285Y013419D02*
X017073Y013419D01*
X016838Y013654D02*
X016520Y013654D01*
X014847Y015846D02*
X014180Y015179D01*
X013513Y015846D01*
X014180Y016513D01*
X014847Y015846D01*
X014415Y015414D02*
X013945Y015414D01*
X013710Y015649D02*
X014650Y015649D01*
X014809Y015884D02*
X013551Y015884D01*
X013786Y016119D02*
X014574Y016119D01*
X014339Y016354D02*
X014021Y016354D01*
X012146Y013146D02*
X011479Y012479D01*
X010812Y013146D01*
X011479Y013813D01*
X012146Y013146D01*
X011714Y012714D02*
X011244Y012714D01*
X011009Y012949D02*
X011949Y012949D01*
X012108Y013184D02*
X010850Y013184D01*
X011085Y013419D02*
X011873Y013419D01*
X011638Y013654D02*
X011320Y013654D01*
X009280Y015179D02*
X009947Y015846D01*
X009280Y015179D02*
X008613Y015846D01*
X009280Y016513D01*
X009947Y015846D01*
X009515Y015414D02*
X009045Y015414D01*
X008810Y015649D02*
X009750Y015649D01*
X009909Y015884D02*
X008651Y015884D01*
X008886Y016119D02*
X009674Y016119D01*
X009439Y016354D02*
X009121Y016354D01*
X007246Y013146D02*
X006579Y012479D01*
X005912Y013146D01*
X006579Y013813D01*
X007246Y013146D01*
X006814Y012714D02*
X006344Y012714D01*
X006109Y012949D02*
X007049Y012949D01*
X007208Y013184D02*
X005950Y013184D01*
X006185Y013419D02*
X006973Y013419D01*
X006738Y013654D02*
X006420Y013654D01*
X024630Y015179D02*
X025297Y015846D01*
X024630Y015179D02*
X023963Y015846D01*
X024630Y016513D01*
X025297Y015846D01*
X024865Y015414D02*
X024395Y015414D01*
X024160Y015649D02*
X025100Y015649D01*
X025259Y015884D02*
X024001Y015884D01*
X024236Y016119D02*
X025024Y016119D01*
X024789Y016354D02*
X024471Y016354D01*
D13*
X022404Y016971D03*
X021404Y016971D03*
X017154Y016971D03*
X016154Y016971D03*
X012004Y016971D03*
X011004Y016971D03*
X006854Y016971D03*
X005854Y016971D03*
X024704Y008921D03*
X024704Y007921D03*
D14*
X022654Y008071D03*
X022654Y008671D03*
D15*
X021654Y008255D03*
X021654Y007586D03*
X020054Y007586D03*
X020054Y008255D03*
X017654Y008255D03*
X017654Y007586D03*
X009754Y007586D03*
X009754Y008255D03*
D16*
X009754Y009321D01*
X008704Y010371D01*
X008724Y010012D02*
X008633Y010012D01*
X008501Y010067D01*
X008400Y010168D01*
X008346Y010299D01*
X008346Y010442D01*
X008400Y010574D01*
X008501Y010675D01*
X008633Y010729D01*
X008776Y010729D01*
X008908Y010675D01*
X009008Y010574D01*
X009063Y010442D01*
X009063Y010351D01*
X009994Y009420D01*
X009994Y009221D01*
X009994Y008630D01*
X010029Y008630D01*
X010134Y008525D01*
X010134Y007986D01*
X010069Y007921D01*
X010134Y007856D01*
X010134Y007530D01*
X010545Y007119D01*
X010551Y007125D01*
X010683Y007179D01*
X010826Y007179D01*
X010958Y007125D01*
X011058Y007024D01*
X011113Y006892D01*
X011113Y006749D01*
X011058Y006618D01*
X010958Y006517D01*
X010826Y006462D01*
X010683Y006462D01*
X010551Y006517D01*
X010487Y006581D01*
X010405Y006581D01*
X009775Y007211D01*
X009520Y007211D01*
X009450Y007141D01*
X009316Y007141D01*
X009126Y007141D01*
X009049Y007141D01*
X008859Y007141D01*
X008724Y007276D01*
X008724Y007476D01*
X008724Y007666D01*
X008791Y007733D01*
X008792Y007734D01*
X008791Y007735D01*
X008724Y007803D01*
X008724Y007993D01*
X008724Y008127D01*
X008859Y008261D01*
X008859Y008261D01*
X008832Y008289D01*
X008791Y008330D01*
X008791Y008371D01*
X008724Y008504D01*
X008724Y008654D01*
X008859Y008788D01*
X009049Y008788D01*
X009087Y008750D01*
X009126Y008788D01*
X009316Y008788D01*
X009383Y008788D01*
X009514Y008657D01*
X009514Y009221D01*
X008724Y010012D01*
X008773Y009963D02*
X005594Y009963D01*
X005594Y010081D02*
X008487Y010081D01*
X008387Y010200D02*
X005594Y010200D01*
X005594Y010318D02*
X008346Y010318D01*
X008346Y010437D02*
X006462Y010437D01*
X006396Y010409D02*
X006113Y010409D01*
X005851Y010518D01*
X005651Y010718D01*
X005594Y010855D01*
X005594Y009570D01*
X006344Y008820D01*
X006344Y008621D01*
X006344Y008338D01*
X006408Y008274D01*
X006463Y008142D01*
X006463Y007999D01*
X006408Y007868D01*
X006308Y007767D01*
X006176Y007712D01*
X006033Y007712D01*
X005901Y007767D01*
X005800Y007868D01*
X005746Y007999D01*
X005746Y008142D01*
X005800Y008274D01*
X005864Y008338D01*
X005864Y008621D01*
X005334Y009151D01*
X005334Y006150D01*
X005354Y006170D01*
X005549Y006251D01*
X005760Y006251D01*
X005955Y006170D01*
X006104Y006021D01*
X006154Y005899D01*
X006205Y006021D01*
X006354Y006170D01*
X006549Y006251D01*
X006760Y006251D01*
X006955Y006170D01*
X007104Y006021D01*
X007154Y005899D01*
X007205Y006021D01*
X007354Y006170D01*
X007549Y006251D01*
X007760Y006251D01*
X007955Y006170D01*
X008104Y006021D01*
X008154Y005899D01*
X008205Y006021D01*
X008354Y006170D01*
X008549Y006251D01*
X008760Y006251D01*
X008955Y006170D01*
X009104Y006021D01*
X009154Y005899D01*
X009205Y006021D01*
X009354Y006170D01*
X009549Y006251D01*
X009760Y006251D01*
X009955Y006170D01*
X010104Y006021D01*
X010154Y005899D01*
X010205Y006021D01*
X010354Y006170D01*
X010549Y006251D01*
X010760Y006251D01*
X010944Y006174D01*
X011164Y006414D01*
X011164Y006420D01*
X011231Y006487D01*
X011305Y006561D01*
X011504Y006561D01*
X011755Y006561D01*
X013064Y007870D01*
X013205Y008011D01*
X013955Y008011D01*
X015846Y009901D01*
X015846Y009992D01*
X015900Y010124D01*
X016001Y010225D01*
X016133Y010279D01*
X016276Y010279D01*
X016408Y010225D01*
X016508Y010124D01*
X016563Y009992D01*
X016563Y009849D01*
X016508Y009718D01*
X016408Y009617D01*
X016276Y009562D01*
X016185Y009562D01*
X014384Y007761D01*
X014955Y007761D01*
X014996Y007801D01*
X014996Y007892D01*
X015050Y008024D01*
X015151Y008125D01*
X015283Y008179D01*
X015426Y008179D01*
X015558Y008125D01*
X015658Y008024D01*
X015713Y007892D01*
X015713Y007749D01*
X015658Y007618D01*
X015558Y007517D01*
X015426Y007462D01*
X015335Y007462D01*
X015154Y007281D01*
X014955Y007281D01*
X013554Y007281D01*
X012506Y006233D01*
X012549Y006251D01*
X012760Y006251D01*
X012955Y006170D01*
X013104Y006021D01*
X013154Y005899D01*
X013205Y006021D01*
X013354Y006170D01*
X013549Y006251D01*
X013760Y006251D01*
X013955Y006170D01*
X014104Y006021D01*
X014154Y005899D01*
X014205Y006021D01*
X014354Y006170D01*
X014549Y006251D01*
X014760Y006251D01*
X014955Y006170D01*
X015104Y006021D01*
X015154Y005899D01*
X015205Y006021D01*
X015354Y006170D01*
X015549Y006251D01*
X015760Y006251D01*
X015955Y006170D01*
X016104Y006021D01*
X016154Y005899D01*
X016205Y006021D01*
X016354Y006170D01*
X016549Y006251D01*
X016760Y006251D01*
X016955Y006170D01*
X017104Y006021D01*
X017154Y005899D01*
X017205Y006021D01*
X017354Y006170D01*
X017414Y006195D01*
X017414Y007206D01*
X017350Y007141D01*
X017216Y007141D01*
X017026Y007141D01*
X016949Y007141D01*
X016759Y007141D01*
X016624Y007276D01*
X016624Y007476D01*
X016624Y007666D01*
X016691Y007733D01*
X016692Y007734D01*
X016691Y007735D01*
X016624Y007803D01*
X016624Y007993D01*
X016624Y008127D01*
X016659Y008161D01*
X016624Y008196D01*
X016624Y008387D01*
X016624Y008654D01*
X016759Y008788D01*
X016949Y008788D01*
X016954Y008784D01*
X016959Y008788D01*
X017092Y008788D01*
X017283Y008788D01*
X017350Y008721D01*
X017353Y008718D01*
X017414Y008657D01*
X017414Y009671D01*
X016655Y010431D01*
X013772Y010431D01*
X013708Y010367D01*
X013576Y010312D01*
X013433Y010312D01*
X013301Y010367D01*
X013200Y010468D01*
X013146Y010599D01*
X013146Y010742D01*
X013200Y010874D01*
X013301Y010975D01*
X013433Y011029D01*
X010285Y011029D01*
X010404Y010911D02*
X013237Y010911D01*
X013166Y010792D02*
X010522Y010792D01*
X010641Y010674D02*
X013146Y010674D01*
X013164Y010555D02*
X010759Y010555D01*
X010878Y010437D02*
X013231Y010437D01*
X013418Y010318D02*
X010996Y010318D01*
X011115Y010200D02*
X015976Y010200D01*
X015882Y010081D02*
X011233Y010081D01*
X011352Y009963D02*
X015846Y009963D01*
X015788Y009844D02*
X011470Y009844D01*
X011589Y009725D02*
X015670Y009725D01*
X015551Y009607D02*
X011708Y009607D01*
X011826Y009488D02*
X015433Y009488D01*
X015314Y009370D02*
X011945Y009370D01*
X012063Y009251D02*
X015195Y009251D01*
X015077Y009133D02*
X012182Y009133D01*
X012300Y009014D02*
X014958Y009014D01*
X014840Y008896D02*
X013207Y008896D01*
X013258Y008875D02*
X013126Y008929D01*
X012983Y008929D01*
X012851Y008875D01*
X012787Y008811D01*
X012504Y008811D01*
X010163Y011151D01*
X010163Y011242D01*
X010108Y011374D01*
X010008Y011475D01*
X009876Y011529D01*
X009733Y011529D01*
X009601Y011475D01*
X009500Y011374D01*
X009446Y011242D01*
X009446Y011099D01*
X009500Y010968D01*
X009601Y010867D01*
X009733Y010812D01*
X009824Y010812D01*
X012305Y008331D01*
X012504Y008331D01*
X012787Y008331D01*
X012851Y008267D01*
X012983Y008212D01*
X013126Y008212D01*
X013258Y008267D01*
X013358Y008368D01*
X013413Y008499D01*
X013413Y008642D01*
X013358Y008774D01*
X013258Y008875D01*
X013355Y008777D02*
X014721Y008777D01*
X014603Y008659D02*
X013406Y008659D01*
X013413Y008540D02*
X014484Y008540D01*
X014366Y008421D02*
X013381Y008421D01*
X013294Y008303D02*
X014247Y008303D01*
X014129Y008184D02*
X010134Y008184D01*
X010134Y008066D02*
X014010Y008066D01*
X014054Y007771D02*
X016204Y009921D01*
X016526Y010081D02*
X017005Y010081D01*
X017123Y009963D02*
X016563Y009963D01*
X016561Y009844D02*
X017242Y009844D01*
X017360Y009725D02*
X016512Y009725D01*
X016384Y009607D02*
X017414Y009607D01*
X017414Y009488D02*
X016111Y009488D01*
X015993Y009370D02*
X017414Y009370D01*
X017414Y009251D02*
X015874Y009251D01*
X015756Y009133D02*
X017414Y009133D01*
X017414Y009014D02*
X015637Y009014D01*
X015519Y008896D02*
X017414Y008896D01*
X017414Y008777D02*
X017294Y008777D01*
X017413Y008659D02*
X017414Y008659D01*
X017654Y008255D02*
X017654Y009771D01*
X016754Y010671D01*
X013504Y010671D01*
X013772Y010911D02*
X017696Y010911D01*
X017696Y010942D02*
X017750Y011074D01*
X017851Y011175D01*
X017983Y011229D01*
X018126Y011229D01*
X018258Y011175D01*
X018358Y011074D01*
X018413Y010942D01*
X018413Y010851D01*
X020444Y008820D01*
X020444Y008621D01*
X020444Y008470D01*
X020444Y008271D01*
X020434Y008261D01*
X020434Y007986D01*
X020369Y007921D01*
X020434Y007856D01*
X020434Y007317D01*
X020329Y007211D01*
X020294Y007211D01*
X020294Y006420D01*
X020489Y006226D01*
X020549Y006251D01*
X020760Y006251D01*
X020955Y006170D01*
X021104Y006021D01*
X021154Y005899D01*
X021205Y006021D01*
X021354Y006170D01*
X021414Y006195D01*
X021414Y007206D01*
X021350Y007141D01*
X021216Y007141D01*
X021026Y007141D01*
X020949Y007141D01*
X020759Y007141D01*
X020624Y007276D01*
X020624Y007476D01*
X020624Y007666D01*
X020691Y007733D01*
X020692Y007734D01*
X020691Y007735D01*
X020624Y007803D01*
X020624Y007993D01*
X020624Y008127D01*
X020692Y008195D01*
X020691Y008196D01*
X020663Y008224D01*
X020624Y008263D01*
X020624Y008396D01*
X020624Y008587D01*
X020691Y008654D01*
X020825Y008788D01*
X020892Y008788D01*
X021026Y008788D01*
X021092Y008788D01*
X021283Y008788D01*
X021350Y008721D01*
X021353Y008718D01*
X021414Y008657D01*
X021414Y009071D01*
X021414Y009270D01*
X022964Y010820D01*
X022964Y011203D01*
X022900Y011268D01*
X022846Y011399D01*
X022846Y011542D01*
X022900Y011674D01*
X023001Y011775D01*
X023133Y011829D01*
X023276Y011829D01*
X023408Y011775D01*
X023508Y011674D01*
X023563Y011542D01*
X023563Y011399D01*
X023508Y011268D01*
X023444Y011203D01*
X023444Y010820D01*
X023444Y010621D01*
X021894Y009071D01*
X021894Y008630D01*
X021929Y008630D01*
X022034Y008525D01*
X022034Y007986D01*
X021969Y007921D01*
X022034Y007856D01*
X022034Y007317D01*
X021929Y007211D01*
X021894Y007211D01*
X021894Y006195D01*
X021955Y006170D01*
X022104Y006021D01*
X022154Y005899D01*
X022205Y006021D01*
X022354Y006170D01*
X022549Y006251D01*
X022760Y006251D01*
X022955Y006170D01*
X023104Y006021D01*
X023154Y005899D01*
X023205Y006021D01*
X023354Y006170D01*
X023394Y006187D01*
X023394Y006402D01*
X023333Y006341D01*
X023142Y006341D01*
X023138Y006346D01*
X023133Y006341D01*
X023133Y006341D01*
X022942Y006341D01*
X022875Y006341D01*
X022809Y006407D01*
X022743Y006473D01*
X022741Y006475D01*
X022674Y006542D01*
X022674Y006733D01*
X022674Y006866D01*
X022776Y006968D01*
X022674Y007069D01*
X022674Y007393D01*
X022742Y007461D01*
X022674Y007530D01*
X022674Y007661D01*
X022265Y007661D01*
X022159Y007766D01*
X022159Y008375D01*
X022159Y008975D01*
X022265Y009081D01*
X022747Y009081D01*
X023296Y009630D01*
X023296Y009692D01*
X023350Y009824D01*
X023451Y009925D01*
X023583Y009979D01*
X023726Y009979D01*
X023858Y009925D01*
X023958Y009824D01*
X024013Y009692D01*
X024013Y009549D01*
X023958Y009418D01*
X023858Y009317D01*
X023726Y009262D01*
X023663Y009262D01*
X023149Y008748D01*
X023149Y008375D01*
X023149Y008331D01*
X023247Y008331D01*
X023462Y008331D01*
X023914Y007878D01*
X023914Y007663D01*
X023914Y006187D01*
X023955Y006170D01*
X024104Y006021D01*
X024154Y005899D01*
X024205Y006021D01*
X024354Y006170D01*
X024549Y006251D01*
X024760Y006251D01*
X024955Y006170D01*
X025104Y006021D01*
X025165Y005872D01*
X025222Y006010D01*
X025365Y006153D01*
X025553Y006231D01*
X025616Y006231D01*
X025616Y005759D01*
X025693Y005759D01*
X025693Y006231D01*
X025756Y006231D01*
X025943Y006153D01*
X025974Y006122D01*
X025974Y007630D01*
X025929Y007585D01*
X025783Y007524D01*
X025625Y007524D01*
X025480Y007585D01*
X025368Y007696D01*
X025308Y007842D01*
X025308Y008000D01*
X025368Y008145D01*
X025480Y008257D01*
X025625Y008317D01*
X025783Y008317D01*
X025929Y008257D01*
X025974Y008211D01*
X025974Y008630D01*
X025929Y008585D01*
X025783Y008524D01*
X025625Y008524D01*
X025480Y008585D01*
X025368Y008696D01*
X025308Y008842D01*
X025308Y009000D01*
X025368Y009145D01*
X025480Y009257D01*
X025625Y009317D01*
X025783Y009317D01*
X025929Y009257D01*
X025974Y009211D01*
X025974Y018281D01*
X022655Y018281D01*
X022740Y018195D01*
X022801Y018050D01*
X022801Y017892D01*
X022740Y017746D01*
X022629Y017635D01*
X022483Y017574D01*
X022325Y017574D01*
X022180Y017635D01*
X022068Y017746D01*
X022008Y017892D01*
X022008Y018050D01*
X022068Y018195D01*
X022154Y018281D01*
X021655Y018281D01*
X021740Y018195D01*
X021801Y018050D01*
X021801Y017892D01*
X021740Y017746D01*
X021629Y017635D01*
X021483Y017574D01*
X021325Y017574D01*
X021180Y017635D01*
X021068Y017746D01*
X021008Y017892D01*
X021008Y018050D01*
X021068Y018195D01*
X021154Y018281D01*
X017405Y018281D01*
X017490Y018195D01*
X017551Y018050D01*
X017551Y017892D01*
X017490Y017746D01*
X017379Y017635D01*
X017233Y017574D01*
X017075Y017574D01*
X016930Y017635D01*
X016818Y017746D01*
X016758Y017892D01*
X016758Y018050D01*
X016818Y018195D01*
X016904Y018281D01*
X016405Y018281D01*
X016490Y018195D01*
X016551Y018050D01*
X016551Y017892D01*
X016490Y017746D01*
X016379Y017635D01*
X016233Y017574D01*
X016075Y017574D01*
X015930Y017635D01*
X015818Y017746D01*
X015758Y017892D01*
X015758Y018050D01*
X015818Y018195D01*
X015904Y018281D01*
X012255Y018281D01*
X012340Y018195D01*
X012401Y018050D01*
X012401Y017892D01*
X012340Y017746D01*
X012229Y017635D01*
X012083Y017574D01*
X011925Y017574D01*
X011780Y017635D01*
X011668Y017746D01*
X011608Y017892D01*
X011608Y018050D01*
X011668Y018195D01*
X011754Y018281D01*
X011255Y018281D01*
X011340Y018195D01*
X011401Y018050D01*
X011401Y017892D01*
X011340Y017746D01*
X011229Y017635D01*
X011083Y017574D01*
X010925Y017574D01*
X010780Y017635D01*
X010668Y017746D01*
X010608Y017892D01*
X010608Y018050D01*
X010668Y018195D01*
X010754Y018281D01*
X007105Y018281D01*
X007190Y018195D01*
X007251Y018050D01*
X007251Y017892D01*
X007190Y017746D01*
X007079Y017635D01*
X006933Y017574D01*
X006775Y017574D01*
X006630Y017635D01*
X006518Y017746D01*
X006458Y017892D01*
X006458Y018050D01*
X006518Y018195D01*
X006604Y018281D01*
X006105Y018281D01*
X006190Y018195D01*
X006251Y018050D01*
X006251Y017892D01*
X006190Y017746D01*
X006079Y017635D01*
X005933Y017574D01*
X005775Y017574D01*
X005630Y017635D01*
X005518Y017746D01*
X005458Y017892D01*
X005458Y018050D01*
X005518Y018195D01*
X005604Y018281D01*
X005334Y018281D01*
X005334Y015440D01*
X006503Y016609D01*
X006426Y016685D01*
X006354Y016859D01*
X006282Y016685D01*
X006140Y016543D01*
X005955Y016466D01*
X005754Y016466D01*
X005568Y016543D01*
X005426Y016685D01*
X005350Y016870D01*
X005350Y017071D01*
X005426Y017257D01*
X005568Y017399D01*
X005754Y017476D01*
X005955Y017476D01*
X006140Y017399D01*
X006282Y017257D01*
X006354Y017083D01*
X006426Y017257D01*
X006568Y017399D01*
X006754Y017476D01*
X006955Y017476D01*
X007140Y017399D01*
X007282Y017257D01*
X007359Y017071D01*
X007359Y016870D01*
X007282Y016685D01*
X007140Y016543D01*
X007094Y016524D01*
X007094Y016521D01*
X006954Y016381D01*
X005594Y015021D01*
X005594Y014418D01*
X005601Y014425D01*
X005646Y014444D01*
X005664Y014461D01*
X005688Y014461D01*
X005733Y014479D01*
X005876Y014479D01*
X005921Y014461D01*
X005945Y014461D01*
X005962Y014444D01*
X006008Y014425D01*
X006108Y014324D01*
X006127Y014279D01*
X006375Y014031D01*
X006505Y014161D01*
X006654Y014161D01*
X007595Y013220D01*
X007595Y013071D01*
X006654Y012131D01*
X006505Y012131D01*
X005594Y013041D01*
X005594Y011386D01*
X005651Y011524D01*
X005851Y011724D01*
X006113Y011832D01*
X006396Y011832D01*
X006657Y011724D01*
X006857Y011524D01*
X006966Y011262D01*
X006966Y010979D01*
X006857Y010718D01*
X006657Y010518D01*
X006396Y010409D01*
X006695Y010555D02*
X008392Y010555D01*
X008500Y010674D02*
X006814Y010674D01*
X006888Y010792D02*
X009843Y010792D01*
X009962Y010674D02*
X008909Y010674D01*
X009016Y010555D02*
X010080Y010555D01*
X010199Y010437D02*
X009063Y010437D01*
X009096Y010318D02*
X010318Y010318D01*
X010436Y010200D02*
X009215Y010200D01*
X009333Y010081D02*
X010555Y010081D01*
X010673Y009963D02*
X009452Y009963D01*
X009570Y009844D02*
X010792Y009844D01*
X010910Y009725D02*
X009689Y009725D01*
X009808Y009607D02*
X011029Y009607D01*
X011147Y009488D02*
X009926Y009488D01*
X009994Y009370D02*
X011266Y009370D01*
X011384Y009251D02*
X009994Y009251D01*
X009994Y009133D02*
X011503Y009133D01*
X011622Y009014D02*
X009994Y009014D01*
X009994Y008896D02*
X011740Y008896D01*
X011859Y008777D02*
X009994Y008777D01*
X009994Y008659D02*
X011977Y008659D01*
X012096Y008540D02*
X010119Y008540D01*
X010134Y008421D02*
X012214Y008421D01*
X012404Y008571D02*
X009804Y011171D01*
X009670Y011504D02*
X006866Y011504D01*
X006915Y011385D02*
X009511Y011385D01*
X009456Y011266D02*
X006964Y011266D01*
X006966Y011148D02*
X009446Y011148D01*
X009475Y011029D02*
X006966Y011029D01*
X006937Y010911D02*
X009557Y010911D01*
X010166Y011148D02*
X017824Y011148D01*
X017732Y011029D02*
X013576Y011029D01*
X013708Y010975D01*
X013772Y010911D01*
X016854Y010911D01*
X016994Y010770D01*
X017894Y009870D01*
X017894Y009671D01*
X017894Y008630D01*
X017929Y008630D01*
X018034Y008525D01*
X018034Y007986D01*
X017969Y007921D01*
X018034Y007856D01*
X018034Y007317D01*
X017929Y007211D01*
X017894Y007211D01*
X017894Y006195D01*
X017955Y006170D01*
X018104Y006021D01*
X018154Y005899D01*
X018205Y006021D01*
X018354Y006170D01*
X018549Y006251D01*
X018760Y006251D01*
X018955Y006170D01*
X019104Y006021D01*
X019154Y005899D01*
X019205Y006021D01*
X019354Y006170D01*
X019549Y006251D01*
X019760Y006251D01*
X019814Y006228D01*
X019814Y007206D01*
X019750Y007141D01*
X019616Y007141D01*
X019426Y007141D01*
X019349Y007141D01*
X019159Y007141D01*
X019024Y007276D01*
X019024Y007476D01*
X019024Y007666D01*
X019091Y007733D01*
X019092Y007734D01*
X019091Y007735D01*
X019024Y007803D01*
X019024Y007993D01*
X019024Y008127D01*
X019159Y008261D01*
X019159Y008261D01*
X019159Y008261D01*
X019024Y008396D01*
X019024Y008587D01*
X019159Y008722D01*
X019292Y008722D01*
X019359Y008788D01*
X019549Y008788D01*
X019616Y008722D01*
X019750Y008722D01*
X019841Y008630D01*
X019955Y008630D01*
X018074Y010512D01*
X017983Y010512D01*
X017851Y010567D01*
X017750Y010668D01*
X017696Y010799D01*
X017696Y010942D01*
X017699Y010792D02*
X016972Y010792D01*
X017091Y010674D02*
X017748Y010674D01*
X017879Y010555D02*
X017209Y010555D01*
X017328Y010437D02*
X018149Y010437D01*
X018268Y010318D02*
X017446Y010318D01*
X017565Y010200D02*
X018386Y010200D01*
X018505Y010081D02*
X017683Y010081D01*
X017802Y009963D02*
X018623Y009963D01*
X018742Y009844D02*
X017894Y009844D01*
X017894Y009725D02*
X018860Y009725D01*
X018979Y009607D02*
X017894Y009607D01*
X017894Y009488D02*
X019097Y009488D01*
X019216Y009370D02*
X017894Y009370D01*
X017894Y009251D02*
X019334Y009251D01*
X019453Y009133D02*
X017894Y009133D01*
X017894Y009014D02*
X019572Y009014D01*
X019690Y008896D02*
X017894Y008896D01*
X017894Y008777D02*
X019348Y008777D01*
X019561Y008777D02*
X019809Y008777D01*
X019813Y008659D02*
X019927Y008659D01*
X020204Y008721D02*
X018054Y010871D01*
X018377Y011029D02*
X022964Y011029D01*
X022964Y010911D02*
X018413Y010911D01*
X018472Y010792D02*
X022936Y010792D01*
X022818Y010674D02*
X018591Y010674D01*
X018709Y010555D02*
X022699Y010555D01*
X022581Y010437D02*
X018828Y010437D01*
X018946Y010318D02*
X022462Y010318D01*
X022344Y010200D02*
X019065Y010200D01*
X019183Y010081D02*
X022225Y010081D01*
X022107Y009963D02*
X019302Y009963D01*
X019420Y009844D02*
X021988Y009844D01*
X021870Y009725D02*
X019539Y009725D01*
X019658Y009607D02*
X021751Y009607D01*
X021633Y009488D02*
X019776Y009488D01*
X019895Y009370D02*
X021514Y009370D01*
X021414Y009251D02*
X020013Y009251D01*
X020132Y009133D02*
X021414Y009133D01*
X021414Y009014D02*
X020250Y009014D01*
X020369Y008896D02*
X021414Y008896D01*
X021414Y008777D02*
X021294Y008777D01*
X021413Y008659D02*
X021414Y008659D01*
X021894Y008659D02*
X022159Y008659D01*
X022159Y008777D02*
X021894Y008777D01*
X021894Y008896D02*
X022159Y008896D01*
X022198Y009014D02*
X021894Y009014D01*
X021956Y009133D02*
X022799Y009133D01*
X022917Y009251D02*
X022074Y009251D01*
X022193Y009370D02*
X023036Y009370D01*
X023154Y009488D02*
X022311Y009488D01*
X022430Y009607D02*
X023273Y009607D01*
X023309Y009725D02*
X022548Y009725D01*
X022667Y009844D02*
X023370Y009844D01*
X023542Y009963D02*
X022785Y009963D01*
X022904Y010081D02*
X025974Y010081D01*
X025974Y009963D02*
X023767Y009963D01*
X023938Y009844D02*
X025974Y009844D01*
X025974Y009725D02*
X023999Y009725D01*
X024013Y009607D02*
X025974Y009607D01*
X025974Y009488D02*
X023988Y009488D01*
X023911Y009370D02*
X024469Y009370D01*
X024418Y009349D02*
X024604Y009426D01*
X024805Y009426D01*
X024990Y009349D01*
X025132Y009207D01*
X025209Y009021D01*
X025209Y008820D01*
X025132Y008635D01*
X024990Y008493D01*
X024805Y008416D01*
X024604Y008416D01*
X024418Y008493D01*
X024276Y008635D01*
X024200Y008820D01*
X024200Y009021D01*
X024276Y009207D01*
X024418Y009349D01*
X024321Y009251D02*
X023652Y009251D01*
X023534Y009133D02*
X024246Y009133D01*
X024200Y009014D02*
X023415Y009014D01*
X023297Y008896D02*
X024200Y008896D01*
X024217Y008777D02*
X023178Y008777D01*
X023149Y008659D02*
X024267Y008659D01*
X024371Y008540D02*
X023149Y008540D01*
X023149Y008421D02*
X024591Y008421D01*
X024608Y008406D02*
X024430Y008332D01*
X024293Y008195D01*
X024220Y008017D01*
X024220Y007969D01*
X024656Y007969D01*
X024656Y007872D01*
X024656Y007436D01*
X024608Y007436D01*
X024430Y007510D01*
X024293Y007646D01*
X024220Y007824D01*
X024220Y007872D01*
X024656Y007872D01*
X024753Y007872D01*
X024753Y007436D01*
X024801Y007436D01*
X024979Y007510D01*
X025115Y007646D01*
X025189Y007824D01*
X025189Y007872D01*
X024753Y007872D01*
X024753Y007969D01*
X025189Y007969D01*
X025189Y008017D01*
X025115Y008195D01*
X024979Y008332D01*
X024801Y008406D01*
X024753Y008406D01*
X024753Y007969D01*
X024656Y007969D01*
X024656Y008406D01*
X024608Y008406D01*
X024656Y008303D02*
X024753Y008303D01*
X024753Y008184D02*
X024656Y008184D01*
X024656Y008066D02*
X024753Y008066D01*
X024753Y007947D02*
X025308Y007947D01*
X025313Y007829D02*
X025189Y007829D01*
X025142Y007710D02*
X025362Y007710D01*
X025473Y007592D02*
X025061Y007592D01*
X024890Y007473D02*
X025974Y007473D01*
X025974Y007355D02*
X023914Y007355D01*
X023914Y007473D02*
X024518Y007473D01*
X024656Y007473D02*
X024753Y007473D01*
X024753Y007592D02*
X024656Y007592D01*
X024656Y007710D02*
X024753Y007710D01*
X024753Y007829D02*
X024656Y007829D01*
X024656Y007947D02*
X023845Y007947D01*
X023914Y007829D02*
X024220Y007829D01*
X024267Y007710D02*
X023914Y007710D01*
X023914Y007592D02*
X024348Y007592D01*
X023914Y007236D02*
X025974Y007236D01*
X025974Y007117D02*
X023914Y007117D01*
X023914Y006999D02*
X025974Y006999D01*
X025974Y006880D02*
X023914Y006880D01*
X023914Y006762D02*
X025974Y006762D01*
X025974Y006643D02*
X023914Y006643D01*
X023914Y006525D02*
X025974Y006525D01*
X025974Y006406D02*
X023914Y006406D01*
X023914Y006288D02*
X025974Y006288D01*
X025974Y006169D02*
X025904Y006169D01*
X025693Y006169D02*
X025616Y006169D01*
X025616Y006051D02*
X025693Y006051D01*
X025693Y005932D02*
X025616Y005932D01*
X025616Y005814D02*
X025693Y005814D01*
X025404Y006169D02*
X024955Y006169D01*
X025074Y006051D02*
X025263Y006051D01*
X025190Y005932D02*
X025140Y005932D01*
X024353Y006169D02*
X023955Y006169D01*
X024074Y006051D02*
X024235Y006051D01*
X024168Y005932D02*
X024140Y005932D01*
X023394Y006288D02*
X021894Y006288D01*
X021894Y006406D02*
X022810Y006406D01*
X022809Y006407D02*
X022809Y006407D01*
X022691Y006525D02*
X021894Y006525D01*
X021894Y006643D02*
X022674Y006643D01*
X022674Y006762D02*
X021894Y006762D01*
X021894Y006880D02*
X022688Y006880D01*
X022744Y006999D02*
X021894Y006999D01*
X021894Y007117D02*
X022674Y007117D01*
X022674Y007236D02*
X021954Y007236D01*
X022034Y007355D02*
X022674Y007355D01*
X022731Y007473D02*
X022034Y007473D01*
X022034Y007592D02*
X022674Y007592D01*
X022215Y007710D02*
X022034Y007710D01*
X022034Y007829D02*
X022159Y007829D01*
X022159Y007947D02*
X021996Y007947D01*
X022034Y008066D02*
X022159Y008066D01*
X022159Y008184D02*
X022034Y008184D01*
X022034Y008303D02*
X022159Y008303D01*
X022159Y008421D02*
X022034Y008421D01*
X022019Y008540D02*
X022159Y008540D01*
X021654Y008255D02*
X021654Y009171D01*
X023204Y010721D01*
X023204Y011471D01*
X022879Y011622D02*
X006759Y011622D01*
X006617Y011741D02*
X022967Y011741D01*
X022846Y011504D02*
X009938Y011504D01*
X010097Y011385D02*
X022852Y011385D01*
X022901Y011266D02*
X010153Y011266D01*
X011405Y012131D02*
X010464Y013071D01*
X010464Y013220D01*
X010794Y013550D01*
X010546Y013798D01*
X010501Y013817D01*
X010400Y013918D01*
X010381Y013963D01*
X010364Y013980D01*
X010364Y014004D01*
X010346Y014049D01*
X010346Y014192D01*
X010364Y014237D01*
X010364Y014262D01*
X010381Y014279D01*
X010400Y014324D01*
X010501Y014425D01*
X010546Y014444D01*
X010564Y014461D01*
X010588Y014461D01*
X010633Y014479D01*
X010776Y014479D01*
X010821Y014461D01*
X010845Y014461D01*
X010862Y014444D01*
X010908Y014425D01*
X011008Y014324D01*
X011027Y014279D01*
X011275Y014031D01*
X011405Y014161D01*
X011554Y014161D01*
X012495Y013220D01*
X012495Y013071D01*
X011554Y012131D01*
X011405Y012131D01*
X011321Y012215D02*
X006738Y012215D01*
X006857Y012333D02*
X011202Y012333D01*
X011084Y012452D02*
X006975Y012452D01*
X007094Y012570D02*
X010965Y012570D01*
X010847Y012689D02*
X007212Y012689D01*
X007331Y012808D02*
X010728Y012808D01*
X010610Y012926D02*
X007449Y012926D01*
X007568Y013045D02*
X010491Y013045D01*
X010464Y013163D02*
X007595Y013163D01*
X007533Y013282D02*
X010526Y013282D01*
X010644Y013400D02*
X007415Y013400D01*
X007296Y013519D02*
X010763Y013519D01*
X010707Y013637D02*
X009128Y013637D01*
X009108Y013617D02*
X009062Y013598D01*
X009045Y013581D01*
X009021Y013581D01*
X008976Y013562D01*
X008833Y013562D01*
X008788Y013581D01*
X008764Y013581D01*
X008746Y013598D01*
X008701Y013617D01*
X008600Y013718D01*
X008581Y013763D01*
X008564Y013780D01*
X008564Y013804D01*
X008546Y013849D01*
X008546Y013992D01*
X008564Y014037D01*
X008564Y015472D01*
X008265Y015772D01*
X008265Y015921D01*
X009205Y016861D01*
X009354Y016861D01*
X010295Y015921D01*
X010295Y015772D01*
X009354Y014831D01*
X009244Y014831D01*
X009244Y014037D01*
X009263Y013992D01*
X009263Y013849D01*
X009244Y013804D01*
X009244Y013780D01*
X009227Y013763D01*
X009208Y013718D01*
X009108Y013617D01*
X009224Y013756D02*
X010588Y013756D01*
X010443Y013874D02*
X009263Y013874D01*
X009263Y013993D02*
X010364Y013993D01*
X010346Y014112D02*
X009244Y014112D01*
X009244Y014230D02*
X010361Y014230D01*
X010425Y014349D02*
X009244Y014349D01*
X009244Y014467D02*
X010603Y014467D01*
X010805Y014467D02*
X013714Y014467D01*
X013714Y014349D02*
X010984Y014349D01*
X011076Y014230D02*
X013714Y014230D01*
X013714Y014112D02*
X011603Y014112D01*
X011722Y013993D02*
X013696Y013993D01*
X013696Y013992D02*
X013714Y014037D01*
X013714Y015222D01*
X013165Y015772D01*
X013165Y015921D01*
X014105Y016861D01*
X014254Y016861D01*
X015195Y015921D01*
X015195Y015772D01*
X014394Y014971D01*
X014394Y014037D01*
X014413Y013992D01*
X014413Y013849D01*
X014394Y013804D01*
X014394Y013780D01*
X014377Y013763D01*
X014358Y013718D01*
X014258Y013617D01*
X014212Y013598D01*
X014195Y013581D01*
X014171Y013581D01*
X014126Y013562D01*
X013983Y013562D01*
X013938Y013581D01*
X013914Y013581D01*
X013896Y013598D01*
X013851Y013617D01*
X013750Y013718D01*
X013731Y013763D01*
X013714Y013780D01*
X013714Y013804D01*
X013696Y013849D01*
X013696Y013992D01*
X013696Y013874D02*
X011841Y013874D01*
X011959Y013756D02*
X013734Y013756D01*
X013830Y013637D02*
X012078Y013637D01*
X012196Y013519D02*
X015926Y013519D01*
X015944Y013500D02*
X015646Y013798D01*
X015601Y013817D01*
X015500Y013918D01*
X015481Y013963D01*
X015464Y013980D01*
X015464Y014004D01*
X015446Y014049D01*
X015446Y014192D01*
X015464Y014237D01*
X015464Y014262D01*
X015481Y014279D01*
X015500Y014324D01*
X015601Y014425D01*
X015646Y014444D01*
X015664Y014461D01*
X015688Y014461D01*
X015733Y014479D01*
X015876Y014479D01*
X015921Y014461D01*
X015945Y014461D01*
X015962Y014444D01*
X016008Y014425D01*
X016108Y014324D01*
X016127Y014279D01*
X016425Y013981D01*
X016605Y014161D01*
X016754Y014161D01*
X017695Y013220D01*
X017695Y013071D01*
X016754Y012131D01*
X016605Y012131D01*
X015664Y013071D01*
X015664Y013220D01*
X015944Y013500D01*
X015844Y013400D02*
X012315Y013400D01*
X012433Y013282D02*
X015726Y013282D01*
X015664Y013163D02*
X012495Y013163D01*
X012468Y013045D02*
X015691Y013045D01*
X015810Y012926D02*
X012349Y012926D01*
X012231Y012808D02*
X015928Y012808D01*
X016047Y012689D02*
X012112Y012689D01*
X011994Y012570D02*
X016165Y012570D01*
X016284Y012452D02*
X011875Y012452D01*
X011757Y012333D02*
X016402Y012333D01*
X016521Y012215D02*
X011638Y012215D01*
X013433Y011029D02*
X013576Y011029D01*
X013590Y010318D02*
X016768Y010318D01*
X016886Y010200D02*
X016433Y010200D01*
X018284Y011148D02*
X022964Y011148D01*
X023444Y011148D02*
X024343Y011148D01*
X024343Y011262D02*
X024343Y010979D01*
X024451Y010718D01*
X024651Y010518D01*
X024913Y010409D01*
X025196Y010409D01*
X025457Y010518D01*
X025657Y010718D01*
X025766Y010979D01*
X025766Y011262D01*
X025657Y011524D01*
X025457Y011724D01*
X025196Y011832D01*
X024913Y011832D01*
X024651Y011724D01*
X024451Y011524D01*
X024343Y011262D01*
X024345Y011266D02*
X023507Y011266D01*
X023557Y011385D02*
X024394Y011385D01*
X024443Y011504D02*
X023563Y011504D01*
X023530Y011622D02*
X024549Y011622D01*
X024692Y011741D02*
X023442Y011741D01*
X023444Y011029D02*
X024343Y011029D01*
X024371Y010911D02*
X023444Y010911D01*
X023444Y010792D02*
X024420Y010792D01*
X024495Y010674D02*
X023444Y010674D01*
X023378Y010555D02*
X024614Y010555D01*
X024847Y010437D02*
X023260Y010437D01*
X023141Y010318D02*
X025974Y010318D01*
X025974Y010200D02*
X023023Y010200D01*
X024939Y009370D02*
X025974Y009370D01*
X025974Y009251D02*
X025935Y009251D01*
X025474Y009251D02*
X025088Y009251D01*
X025163Y009133D02*
X025363Y009133D01*
X025314Y009014D02*
X025209Y009014D01*
X025209Y008896D02*
X025308Y008896D01*
X025335Y008777D02*
X025191Y008777D01*
X025142Y008659D02*
X025406Y008659D01*
X025587Y008540D02*
X025037Y008540D01*
X025008Y008303D02*
X025591Y008303D01*
X025407Y008184D02*
X025120Y008184D01*
X025169Y008066D02*
X025335Y008066D01*
X025818Y008303D02*
X025974Y008303D01*
X025974Y008421D02*
X024818Y008421D01*
X024401Y008303D02*
X023490Y008303D01*
X023608Y008184D02*
X024289Y008184D01*
X024240Y008066D02*
X023727Y008066D01*
X025821Y008540D02*
X025974Y008540D01*
X025974Y007592D02*
X025936Y007592D01*
X023353Y006169D02*
X022955Y006169D01*
X023074Y006051D02*
X023235Y006051D01*
X023168Y005932D02*
X023140Y005932D01*
X022353Y006169D02*
X021955Y006169D01*
X022074Y006051D02*
X022235Y006051D01*
X022168Y005932D02*
X022140Y005932D01*
X021654Y005721D02*
X021654Y007586D01*
X021414Y007117D02*
X020294Y007117D01*
X020294Y006999D02*
X021414Y006999D01*
X021414Y006880D02*
X020294Y006880D01*
X020294Y006762D02*
X021414Y006762D01*
X021414Y006643D02*
X020294Y006643D01*
X020294Y006525D02*
X021414Y006525D01*
X021414Y006406D02*
X020308Y006406D01*
X020427Y006288D02*
X021414Y006288D01*
X021353Y006169D02*
X020955Y006169D01*
X021074Y006051D02*
X021235Y006051D01*
X021168Y005932D02*
X021140Y005932D01*
X020654Y005721D02*
X020054Y006321D01*
X020054Y007586D01*
X020434Y007592D02*
X020624Y007592D01*
X020624Y007473D02*
X020434Y007473D01*
X020434Y007355D02*
X020624Y007355D01*
X020664Y007236D02*
X020354Y007236D01*
X019814Y007117D02*
X017894Y007117D01*
X017894Y006999D02*
X019814Y006999D01*
X019814Y006880D02*
X017894Y006880D01*
X017894Y006762D02*
X019814Y006762D01*
X019814Y006643D02*
X017894Y006643D01*
X017894Y006525D02*
X019814Y006525D01*
X019814Y006406D02*
X017894Y006406D01*
X017894Y006288D02*
X019814Y006288D01*
X019353Y006169D02*
X018955Y006169D01*
X019074Y006051D02*
X019235Y006051D01*
X019168Y005932D02*
X019140Y005932D01*
X018353Y006169D02*
X017955Y006169D01*
X018074Y006051D02*
X018235Y006051D01*
X018168Y005932D02*
X018140Y005932D01*
X017654Y005721D02*
X017654Y007586D01*
X018034Y007592D02*
X019024Y007592D01*
X019024Y007473D02*
X018034Y007473D01*
X018034Y007355D02*
X019024Y007355D01*
X019064Y007236D02*
X017954Y007236D01*
X017414Y007117D02*
X013390Y007117D01*
X013272Y006999D02*
X017414Y006999D01*
X017414Y006880D02*
X013153Y006880D01*
X013035Y006762D02*
X017414Y006762D01*
X017414Y006643D02*
X012916Y006643D01*
X012798Y006525D02*
X017414Y006525D01*
X017414Y006406D02*
X012679Y006406D01*
X012561Y006288D02*
X017414Y006288D01*
X017353Y006169D02*
X016955Y006169D01*
X017074Y006051D02*
X017235Y006051D01*
X017168Y005932D02*
X017140Y005932D01*
X016654Y005721D02*
X016654Y005671D01*
X016168Y005932D02*
X016140Y005932D01*
X016074Y006051D02*
X016235Y006051D01*
X016353Y006169D02*
X015955Y006169D01*
X015353Y006169D02*
X014955Y006169D01*
X015074Y006051D02*
X015235Y006051D01*
X015168Y005932D02*
X015140Y005932D01*
X014353Y006169D02*
X013955Y006169D01*
X014074Y006051D02*
X014235Y006051D01*
X014168Y005932D02*
X014140Y005932D01*
X013353Y006169D02*
X012955Y006169D01*
X013074Y006051D02*
X013235Y006051D01*
X013168Y005932D02*
X013140Y005932D01*
X011854Y006321D02*
X013304Y007771D01*
X014054Y007771D01*
X014452Y007829D02*
X014996Y007829D01*
X015018Y007947D02*
X014570Y007947D01*
X014689Y008066D02*
X015092Y008066D01*
X014926Y008303D02*
X016624Y008303D01*
X016624Y008421D02*
X015044Y008421D01*
X015163Y008540D02*
X016624Y008540D01*
X016629Y008659D02*
X015281Y008659D01*
X015400Y008777D02*
X016747Y008777D01*
X016636Y008184D02*
X014807Y008184D01*
X015354Y007821D02*
X015054Y007521D01*
X013454Y007521D01*
X011654Y005721D01*
X011854Y006321D02*
X011404Y006321D01*
X010854Y005721D01*
X010654Y005721D01*
X010168Y005932D02*
X010140Y005932D01*
X010074Y006051D02*
X010235Y006051D01*
X010353Y006169D02*
X009955Y006169D01*
X009353Y006169D02*
X008955Y006169D01*
X009074Y006051D02*
X009235Y006051D01*
X009168Y005932D02*
X009140Y005932D01*
X008353Y006169D02*
X007955Y006169D01*
X008074Y006051D02*
X008235Y006051D01*
X008168Y005932D02*
X008140Y005932D01*
X007353Y006169D02*
X006955Y006169D01*
X007074Y006051D02*
X007235Y006051D01*
X007168Y005932D02*
X007140Y005932D01*
X006353Y006169D02*
X005955Y006169D01*
X006074Y006051D02*
X006235Y006051D01*
X006168Y005932D02*
X006140Y005932D01*
X005353Y006169D02*
X005334Y006169D01*
X005334Y006288D02*
X011048Y006288D01*
X011157Y006406D02*
X005334Y006406D01*
X005334Y006525D02*
X010543Y006525D01*
X010342Y006643D02*
X005334Y006643D01*
X005334Y006762D02*
X010224Y006762D01*
X010105Y006880D02*
X005334Y006880D01*
X005334Y006999D02*
X009987Y006999D01*
X009868Y007117D02*
X005334Y007117D01*
X005334Y007236D02*
X008764Y007236D01*
X008724Y007355D02*
X005334Y007355D01*
X005334Y007473D02*
X008724Y007473D01*
X008724Y007592D02*
X005334Y007592D01*
X005334Y007710D02*
X008768Y007710D01*
X008724Y007829D02*
X006370Y007829D01*
X006441Y007947D02*
X008724Y007947D01*
X008724Y008066D02*
X006463Y008066D01*
X006446Y008184D02*
X008782Y008184D01*
X008817Y008303D02*
X006379Y008303D01*
X006344Y008421D02*
X008765Y008421D01*
X008724Y008540D02*
X006344Y008540D01*
X006344Y008659D02*
X008729Y008659D01*
X008847Y008777D02*
X006344Y008777D01*
X006269Y008896D02*
X009514Y008896D01*
X009514Y009014D02*
X006150Y009014D01*
X006032Y009133D02*
X009514Y009133D01*
X009484Y009251D02*
X005913Y009251D01*
X005795Y009370D02*
X009366Y009370D01*
X009247Y009488D02*
X005676Y009488D01*
X005594Y009607D02*
X009129Y009607D01*
X009010Y009725D02*
X005594Y009725D01*
X005594Y009844D02*
X008892Y009844D01*
X009060Y008777D02*
X009114Y008777D01*
X009394Y008777D02*
X009514Y008777D01*
X009514Y008659D02*
X009513Y008659D01*
X010134Y008303D02*
X012815Y008303D01*
X013054Y008571D02*
X012404Y008571D01*
X012419Y008896D02*
X012901Y008896D01*
X013141Y007947D02*
X010096Y007947D01*
X010134Y007829D02*
X013023Y007829D01*
X012904Y007710D02*
X010134Y007710D01*
X010134Y007592D02*
X012786Y007592D01*
X012667Y007473D02*
X010191Y007473D01*
X010310Y007355D02*
X012549Y007355D01*
X012430Y007236D02*
X010428Y007236D01*
X010965Y007117D02*
X012312Y007117D01*
X012193Y006999D02*
X011069Y006999D01*
X011113Y006880D02*
X012075Y006880D01*
X011956Y006762D02*
X011113Y006762D01*
X011069Y006643D02*
X011837Y006643D01*
X011269Y006525D02*
X010966Y006525D01*
X011231Y006487D02*
X011231Y006487D01*
X010754Y006821D02*
X010504Y006821D01*
X009754Y007571D01*
X009754Y007586D01*
X006104Y008071D02*
X006104Y008721D01*
X005354Y009471D01*
X005354Y015121D01*
X006854Y016621D01*
X006854Y016971D01*
X007308Y017194D02*
X010550Y017194D01*
X010576Y017257D02*
X010500Y017071D01*
X010500Y016870D01*
X010576Y016685D01*
X010718Y016543D01*
X010904Y016466D01*
X011105Y016466D01*
X011290Y016543D01*
X011432Y016685D01*
X011504Y016859D01*
X011576Y016685D01*
X011718Y016543D01*
X011904Y016466D01*
X012105Y016466D01*
X012290Y016543D01*
X012432Y016685D01*
X012509Y016870D01*
X012509Y017071D01*
X012432Y017257D01*
X012290Y017399D01*
X012105Y017476D01*
X011904Y017476D01*
X011718Y017399D01*
X011576Y017257D01*
X011504Y017083D01*
X011432Y017257D01*
X011290Y017399D01*
X011105Y017476D01*
X010904Y017476D01*
X010718Y017399D01*
X010576Y017257D01*
X010632Y017312D02*
X007227Y017312D01*
X007063Y017431D02*
X010796Y017431D01*
X010746Y017668D02*
X007112Y017668D01*
X007207Y017786D02*
X010651Y017786D01*
X010608Y017905D02*
X007251Y017905D01*
X007251Y018023D02*
X010608Y018023D01*
X010646Y018142D02*
X007213Y018142D01*
X007125Y018261D02*
X010733Y018261D01*
X011275Y018261D02*
X011733Y018261D01*
X011646Y018142D02*
X011363Y018142D01*
X011401Y018023D02*
X011608Y018023D01*
X011608Y017905D02*
X011401Y017905D01*
X011357Y017786D02*
X011651Y017786D01*
X011746Y017668D02*
X011262Y017668D01*
X011213Y017431D02*
X011796Y017431D01*
X011632Y017312D02*
X011377Y017312D01*
X011458Y017194D02*
X011550Y017194D01*
X011513Y016838D02*
X011496Y016838D01*
X011447Y016719D02*
X011562Y016719D01*
X011660Y016601D02*
X011348Y016601D01*
X011144Y016482D02*
X011864Y016482D01*
X012144Y016482D02*
X013726Y016482D01*
X013608Y016364D02*
X009852Y016364D01*
X009733Y016482D02*
X010864Y016482D01*
X010660Y016601D02*
X009615Y016601D01*
X009496Y016719D02*
X010562Y016719D01*
X010513Y016838D02*
X009378Y016838D01*
X009182Y016838D02*
X007346Y016838D01*
X007359Y016957D02*
X010500Y016957D01*
X010501Y017075D02*
X007357Y017075D01*
X007297Y016719D02*
X009063Y016719D01*
X008945Y016601D02*
X007198Y016601D01*
X007055Y016482D02*
X008826Y016482D01*
X008708Y016364D02*
X006937Y016364D01*
X006818Y016245D02*
X008589Y016245D01*
X008471Y016127D02*
X006700Y016127D01*
X006581Y016008D02*
X008352Y016008D01*
X008265Y015890D02*
X006463Y015890D01*
X006344Y015771D02*
X008265Y015771D01*
X008384Y015653D02*
X006226Y015653D01*
X006107Y015534D02*
X008502Y015534D01*
X008564Y015416D02*
X008346Y015416D01*
X008310Y015451D02*
X008445Y015316D01*
X008445Y015183D01*
X008512Y015116D01*
X008512Y014926D01*
X008445Y014859D01*
X008445Y014726D01*
X008310Y014591D01*
X008120Y014591D01*
X008018Y014692D01*
X007916Y014591D01*
X007459Y014591D01*
X007324Y014726D01*
X007324Y014916D01*
X007324Y015316D01*
X007459Y015451D01*
X007650Y015451D01*
X007784Y015316D01*
X007784Y015051D01*
X007785Y015051D01*
X007785Y015116D01*
X007919Y015251D01*
X008120Y015451D01*
X008310Y015451D01*
X008445Y015297D02*
X008564Y015297D01*
X008564Y015178D02*
X008449Y015178D01*
X008512Y015060D02*
X008564Y015060D01*
X008564Y014941D02*
X008512Y014941D01*
X008564Y014823D02*
X008445Y014823D01*
X008424Y014704D02*
X008564Y014704D01*
X008564Y014586D02*
X005594Y014586D01*
X005594Y014704D02*
X007346Y014704D01*
X007324Y014823D02*
X005594Y014823D01*
X005594Y014941D02*
X007324Y014941D01*
X007324Y015060D02*
X005633Y015060D01*
X005751Y015178D02*
X007324Y015178D01*
X007324Y015297D02*
X005870Y015297D01*
X005988Y015416D02*
X007424Y015416D01*
X007685Y015416D02*
X008084Y015416D01*
X007965Y015297D02*
X007784Y015297D01*
X007784Y015178D02*
X007847Y015178D01*
X007785Y015060D02*
X007784Y015060D01*
X008564Y014467D02*
X005905Y014467D01*
X005703Y014467D02*
X005594Y014467D01*
X006084Y014349D02*
X008564Y014349D01*
X008564Y014230D02*
X006176Y014230D01*
X006294Y014112D02*
X006455Y014112D01*
X006703Y014112D02*
X008564Y014112D01*
X008546Y013993D02*
X006822Y013993D01*
X006941Y013874D02*
X008546Y013874D01*
X008584Y013756D02*
X007059Y013756D01*
X007178Y013637D02*
X008680Y013637D01*
X009244Y014586D02*
X013714Y014586D01*
X013714Y014704D02*
X013374Y014704D01*
X013392Y014723D02*
X013327Y014657D01*
X013260Y014591D01*
X013127Y014591D01*
X012936Y014591D01*
X012901Y014626D01*
X012866Y014591D01*
X012409Y014591D01*
X012274Y014726D01*
X012274Y014916D01*
X012274Y015316D01*
X012409Y015451D01*
X012600Y015451D01*
X012734Y015316D01*
X012734Y015051D01*
X012743Y015051D01*
X012735Y015059D01*
X012735Y015250D01*
X012801Y015316D01*
X012801Y015316D01*
X012936Y015451D01*
X013070Y015451D01*
X013260Y015451D01*
X013327Y015384D01*
X013462Y015250D01*
X013462Y015183D01*
X013462Y015049D01*
X013462Y014983D01*
X013462Y014792D01*
X013394Y014725D01*
X013392Y014723D01*
X013327Y014657D02*
X013327Y014657D01*
X013462Y014823D02*
X013714Y014823D01*
X013714Y014941D02*
X013462Y014941D01*
X013462Y015060D02*
X013714Y015060D01*
X013714Y015178D02*
X013462Y015178D01*
X013414Y015297D02*
X013640Y015297D01*
X013521Y015416D02*
X013296Y015416D01*
X013402Y015534D02*
X010057Y015534D01*
X009939Y015416D02*
X012374Y015416D01*
X012274Y015297D02*
X009820Y015297D01*
X009702Y015178D02*
X012274Y015178D01*
X012274Y015060D02*
X009583Y015060D01*
X009465Y014941D02*
X012274Y014941D01*
X012274Y014823D02*
X009244Y014823D01*
X009244Y014704D02*
X012296Y014704D01*
X012734Y015060D02*
X012735Y015060D01*
X012735Y015178D02*
X012734Y015178D01*
X012734Y015297D02*
X012782Y015297D01*
X012901Y015416D02*
X012635Y015416D01*
X013165Y015771D02*
X010294Y015771D01*
X010295Y015890D02*
X013165Y015890D01*
X013252Y016008D02*
X010208Y016008D01*
X010089Y016127D02*
X013371Y016127D01*
X013489Y016245D02*
X009970Y016245D01*
X010176Y015653D02*
X013284Y015653D01*
X014394Y014941D02*
X017424Y014941D01*
X017424Y014916D02*
X017424Y015316D01*
X017559Y015451D01*
X017750Y015451D01*
X017884Y015316D01*
X017884Y015051D01*
X017893Y015051D01*
X017885Y015059D01*
X017885Y015250D01*
X017951Y015316D01*
X017951Y015316D01*
X018086Y015451D01*
X018410Y015451D01*
X018545Y015316D01*
X018612Y015250D01*
X018612Y015059D01*
X018612Y014992D01*
X018573Y014954D01*
X018612Y014916D01*
X018612Y014726D01*
X018477Y014591D01*
X018210Y014591D01*
X018019Y014591D01*
X018018Y014592D01*
X018016Y014591D01*
X017559Y014591D01*
X017424Y014726D01*
X017424Y014916D01*
X017424Y014823D02*
X014394Y014823D01*
X014394Y014704D02*
X017446Y014704D01*
X017424Y015060D02*
X014483Y015060D01*
X014602Y015178D02*
X017424Y015178D01*
X017424Y015297D02*
X014720Y015297D01*
X014839Y015416D02*
X017524Y015416D01*
X017785Y015416D02*
X018051Y015416D01*
X017932Y015297D02*
X017884Y015297D01*
X017885Y015178D02*
X017884Y015178D01*
X017885Y015060D02*
X017884Y015060D01*
X018446Y015416D02*
X018721Y015416D01*
X018602Y015534D02*
X014957Y015534D01*
X015076Y015653D02*
X018484Y015653D01*
X018365Y015771D02*
X015194Y015771D01*
X015195Y015890D02*
X018365Y015890D01*
X018365Y015921D02*
X019305Y016861D01*
X019454Y016861D01*
X020395Y015921D01*
X020395Y015772D01*
X019594Y014971D01*
X019594Y013837D01*
X019613Y013792D01*
X019613Y013649D01*
X019594Y013604D01*
X019594Y013580D01*
X019577Y013563D01*
X019558Y013518D01*
X019458Y013417D01*
X019412Y013398D01*
X019395Y013381D01*
X019371Y013381D01*
X019326Y013362D01*
X019183Y013362D01*
X019138Y013381D01*
X019114Y013381D01*
X019096Y013398D01*
X019051Y013417D01*
X018950Y013518D01*
X018931Y013563D01*
X018914Y013580D01*
X018914Y013604D01*
X018896Y013649D01*
X018896Y013792D01*
X018914Y013837D01*
X018914Y015222D01*
X018365Y015772D01*
X018365Y015921D01*
X018452Y016008D02*
X015108Y016008D01*
X014989Y016127D02*
X018571Y016127D01*
X018689Y016245D02*
X014870Y016245D01*
X014752Y016364D02*
X018808Y016364D01*
X018926Y016482D02*
X017294Y016482D01*
X017255Y016466D02*
X017054Y016466D01*
X016868Y016543D01*
X016726Y016685D01*
X016654Y016859D01*
X016582Y016685D01*
X016440Y016543D01*
X016255Y016466D01*
X016054Y016466D01*
X015868Y016543D01*
X015726Y016685D01*
X015650Y016870D01*
X015650Y017071D01*
X015726Y017257D01*
X015868Y017399D01*
X016054Y017476D01*
X016255Y017476D01*
X016440Y017399D01*
X016582Y017257D01*
X016654Y017083D01*
X016726Y017257D01*
X016868Y017399D01*
X017054Y017476D01*
X017255Y017476D01*
X017440Y017399D01*
X017582Y017257D01*
X017659Y017071D01*
X017659Y016870D01*
X017582Y016685D01*
X017440Y016543D01*
X017255Y016466D01*
X017014Y016482D02*
X016294Y016482D01*
X016498Y016601D02*
X016810Y016601D01*
X016712Y016719D02*
X016597Y016719D01*
X016646Y016838D02*
X016663Y016838D01*
X016700Y017194D02*
X016608Y017194D01*
X016527Y017312D02*
X016782Y017312D01*
X016946Y017431D02*
X016363Y017431D01*
X016412Y017668D02*
X016896Y017668D01*
X016801Y017786D02*
X016507Y017786D01*
X016551Y017905D02*
X016758Y017905D01*
X016758Y018023D02*
X016551Y018023D01*
X016513Y018142D02*
X016796Y018142D01*
X016883Y018261D02*
X016425Y018261D01*
X015883Y018261D02*
X012275Y018261D01*
X012363Y018142D02*
X015796Y018142D01*
X015758Y018023D02*
X012401Y018023D01*
X012401Y017905D02*
X015758Y017905D01*
X015801Y017786D02*
X012357Y017786D01*
X012262Y017668D02*
X015896Y017668D01*
X015946Y017431D02*
X012213Y017431D01*
X012377Y017312D02*
X015782Y017312D01*
X015700Y017194D02*
X012458Y017194D01*
X012507Y017075D02*
X015651Y017075D01*
X015650Y016957D02*
X012509Y016957D01*
X012496Y016838D02*
X014082Y016838D01*
X013963Y016719D02*
X012447Y016719D01*
X012348Y016601D02*
X013845Y016601D01*
X014278Y016838D02*
X015663Y016838D01*
X015712Y016719D02*
X014396Y016719D01*
X014515Y016601D02*
X015810Y016601D01*
X016014Y016482D02*
X014633Y016482D01*
X014394Y014586D02*
X018914Y014586D01*
X018914Y014704D02*
X018590Y014704D01*
X018612Y014823D02*
X018914Y014823D01*
X018914Y014941D02*
X018586Y014941D01*
X018612Y015060D02*
X018914Y015060D01*
X018914Y015178D02*
X018612Y015178D01*
X018564Y015297D02*
X018839Y015297D01*
X019594Y014941D02*
X022674Y014941D01*
X022674Y014916D02*
X022674Y015316D01*
X022809Y015451D01*
X023000Y015451D01*
X023134Y015316D01*
X023134Y015051D01*
X023135Y015051D01*
X023135Y015183D01*
X023268Y015316D01*
X023403Y015451D01*
X023593Y015451D01*
X023728Y015316D01*
X023728Y015049D01*
X023862Y014916D01*
X023862Y014726D01*
X023727Y014591D01*
X023269Y014591D01*
X023268Y014592D01*
X023266Y014591D01*
X022809Y014591D01*
X022674Y014726D01*
X022674Y014916D01*
X022674Y014823D02*
X019594Y014823D01*
X019594Y014704D02*
X022696Y014704D01*
X022674Y015060D02*
X019683Y015060D01*
X019802Y015178D02*
X022674Y015178D01*
X022674Y015297D02*
X019920Y015297D01*
X020039Y015416D02*
X022774Y015416D01*
X023035Y015416D02*
X023367Y015416D01*
X023249Y015297D02*
X023134Y015297D01*
X023135Y015178D02*
X023134Y015178D01*
X023135Y015060D02*
X023134Y015060D01*
X023728Y015060D02*
X024164Y015060D01*
X024164Y015178D02*
X023728Y015178D01*
X023728Y015297D02*
X024089Y015297D01*
X024164Y015222D02*
X023615Y015772D01*
X023615Y015921D01*
X024555Y016861D01*
X024704Y016861D01*
X025645Y015921D01*
X025645Y015772D01*
X024844Y014971D01*
X024844Y014030D01*
X024645Y013831D01*
X024177Y013363D01*
X024158Y013318D01*
X024058Y013217D01*
X024012Y013198D01*
X023995Y013181D01*
X023971Y013181D01*
X023926Y013162D01*
X023783Y013162D01*
X023738Y013181D01*
X023714Y013181D01*
X023696Y013198D01*
X023651Y013217D01*
X023550Y013318D01*
X023531Y013363D01*
X023514Y013380D01*
X023514Y013404D01*
X023496Y013449D01*
X023496Y013592D01*
X023514Y013637D01*
X022528Y013637D01*
X022646Y013519D02*
X023496Y013519D01*
X023514Y013637D02*
X023514Y013662D01*
X023531Y013679D01*
X023550Y013724D01*
X023651Y013825D01*
X023696Y013844D01*
X024164Y014312D01*
X024164Y015222D01*
X023971Y015416D02*
X023629Y015416D01*
X023852Y015534D02*
X020157Y015534D01*
X020276Y015653D02*
X023734Y015653D01*
X023615Y015771D02*
X020394Y015771D01*
X020395Y015890D02*
X023615Y015890D01*
X023702Y016008D02*
X020308Y016008D01*
X020189Y016127D02*
X023821Y016127D01*
X023939Y016245D02*
X020070Y016245D01*
X019952Y016364D02*
X024058Y016364D01*
X024176Y016482D02*
X022544Y016482D01*
X022505Y016466D02*
X022690Y016543D01*
X022832Y016685D01*
X022909Y016870D01*
X022909Y017071D01*
X022832Y017257D01*
X022690Y017399D01*
X022505Y017476D01*
X022304Y017476D01*
X022118Y017399D01*
X021976Y017257D01*
X021904Y017083D01*
X021832Y017257D01*
X021690Y017399D01*
X021505Y017476D01*
X021304Y017476D01*
X021118Y017399D01*
X020976Y017257D01*
X020900Y017071D01*
X020900Y016870D01*
X020976Y016685D01*
X021118Y016543D01*
X021304Y016466D01*
X021505Y016466D01*
X021690Y016543D01*
X021832Y016685D01*
X021904Y016859D01*
X021976Y016685D01*
X022118Y016543D01*
X022304Y016466D01*
X022505Y016466D01*
X022264Y016482D02*
X021544Y016482D01*
X021748Y016601D02*
X022060Y016601D01*
X021962Y016719D02*
X021847Y016719D01*
X021896Y016838D02*
X021913Y016838D01*
X021950Y017194D02*
X021858Y017194D01*
X021777Y017312D02*
X022032Y017312D01*
X022196Y017431D02*
X021613Y017431D01*
X021662Y017668D02*
X022146Y017668D01*
X022051Y017786D02*
X021757Y017786D01*
X021801Y017905D02*
X022008Y017905D01*
X022008Y018023D02*
X021801Y018023D01*
X021763Y018142D02*
X022046Y018142D01*
X022133Y018261D02*
X021675Y018261D01*
X021133Y018261D02*
X017425Y018261D01*
X017513Y018142D02*
X021046Y018142D01*
X021008Y018023D02*
X017551Y018023D01*
X017551Y017905D02*
X021008Y017905D01*
X021051Y017786D02*
X017507Y017786D01*
X017412Y017668D02*
X021146Y017668D01*
X021196Y017431D02*
X017363Y017431D01*
X017527Y017312D02*
X021032Y017312D01*
X020950Y017194D02*
X017608Y017194D01*
X017657Y017075D02*
X020901Y017075D01*
X020900Y016957D02*
X017659Y016957D01*
X017646Y016838D02*
X019282Y016838D01*
X019163Y016719D02*
X017597Y016719D01*
X017498Y016601D02*
X019045Y016601D01*
X019478Y016838D02*
X020913Y016838D01*
X020962Y016719D02*
X019596Y016719D01*
X019715Y016601D02*
X021060Y016601D01*
X021264Y016482D02*
X019833Y016482D01*
X019594Y014586D02*
X024164Y014586D01*
X024164Y014704D02*
X023840Y014704D01*
X023862Y014823D02*
X024164Y014823D01*
X024164Y014941D02*
X023836Y014941D01*
X024164Y014467D02*
X021105Y014467D01*
X021121Y014461D02*
X021076Y014479D01*
X020933Y014479D01*
X020888Y014461D01*
X020864Y014461D01*
X020846Y014444D01*
X020801Y014425D01*
X020700Y014324D01*
X020681Y014279D01*
X020664Y014262D01*
X020664Y014237D01*
X020646Y014192D01*
X020646Y014049D01*
X020664Y014004D01*
X020664Y013980D01*
X020681Y013963D01*
X020700Y013918D01*
X020801Y013817D01*
X020846Y013798D01*
X021169Y013475D01*
X020914Y013220D01*
X020914Y013071D01*
X021855Y012131D01*
X022004Y012131D01*
X022945Y013071D01*
X022945Y013220D01*
X022004Y014161D01*
X021855Y014161D01*
X021650Y013956D01*
X021327Y014279D01*
X021308Y014324D01*
X021208Y014425D01*
X021162Y014444D01*
X021145Y014461D01*
X021121Y014461D01*
X021284Y014349D02*
X024164Y014349D01*
X024083Y014230D02*
X021376Y014230D01*
X021494Y014112D02*
X021805Y014112D01*
X021687Y013993D02*
X021613Y013993D01*
X022053Y014112D02*
X023964Y014112D01*
X023846Y013993D02*
X022172Y013993D01*
X022291Y013874D02*
X023727Y013874D01*
X023582Y013756D02*
X022409Y013756D01*
X022765Y013400D02*
X023514Y013400D01*
X023586Y013282D02*
X022883Y013282D01*
X022945Y013163D02*
X023780Y013163D01*
X023928Y013163D02*
X025974Y013163D01*
X025974Y013045D02*
X022918Y013045D01*
X022799Y012926D02*
X025974Y012926D01*
X025974Y012808D02*
X022681Y012808D01*
X022562Y012689D02*
X025974Y012689D01*
X025974Y012570D02*
X022444Y012570D01*
X022325Y012452D02*
X025974Y012452D01*
X025974Y012333D02*
X022207Y012333D01*
X022088Y012215D02*
X025974Y012215D01*
X025974Y012096D02*
X005594Y012096D01*
X005594Y011978D02*
X025974Y011978D01*
X025974Y011859D02*
X005594Y011859D01*
X005594Y011741D02*
X005892Y011741D01*
X005749Y011622D02*
X005594Y011622D01*
X005594Y011504D02*
X005643Y011504D01*
X005620Y010792D02*
X005594Y010792D01*
X005594Y010674D02*
X005695Y010674D01*
X005594Y010555D02*
X005814Y010555D01*
X005594Y010437D02*
X006047Y010437D01*
X005353Y009133D02*
X005334Y009133D01*
X005334Y009014D02*
X005472Y009014D01*
X005590Y008896D02*
X005334Y008896D01*
X005334Y008777D02*
X005709Y008777D01*
X005827Y008659D02*
X005334Y008659D01*
X005334Y008540D02*
X005864Y008540D01*
X005864Y008421D02*
X005334Y008421D01*
X005334Y008303D02*
X005829Y008303D01*
X005763Y008184D02*
X005334Y008184D01*
X005334Y008066D02*
X005746Y008066D01*
X005767Y007947D02*
X005334Y007947D01*
X005334Y007829D02*
X005839Y007829D01*
X005594Y012215D02*
X006421Y012215D01*
X006302Y012333D02*
X005594Y012333D01*
X005594Y012452D02*
X006184Y012452D01*
X006065Y012570D02*
X005594Y012570D01*
X005594Y012689D02*
X005947Y012689D01*
X005828Y012808D02*
X005594Y012808D01*
X005594Y012926D02*
X005710Y012926D01*
X005428Y015534D02*
X005334Y015534D01*
X005334Y015653D02*
X005547Y015653D01*
X005665Y015771D02*
X005334Y015771D01*
X005334Y015890D02*
X005784Y015890D01*
X005902Y016008D02*
X005334Y016008D01*
X005334Y016127D02*
X006021Y016127D01*
X006140Y016245D02*
X005334Y016245D01*
X005334Y016364D02*
X006258Y016364D01*
X006377Y016482D02*
X005994Y016482D01*
X006198Y016601D02*
X006495Y016601D01*
X006412Y016719D02*
X006297Y016719D01*
X006346Y016838D02*
X006363Y016838D01*
X006400Y017194D02*
X006308Y017194D01*
X006227Y017312D02*
X006482Y017312D01*
X006646Y017431D02*
X006063Y017431D01*
X006112Y017668D02*
X006596Y017668D01*
X006501Y017786D02*
X006207Y017786D01*
X006251Y017905D02*
X006458Y017905D01*
X006458Y018023D02*
X006251Y018023D01*
X006213Y018142D02*
X006496Y018142D01*
X006583Y018261D02*
X006125Y018261D01*
X005583Y018261D02*
X005334Y018261D01*
X005334Y018142D02*
X005496Y018142D01*
X005458Y018023D02*
X005334Y018023D01*
X005334Y017905D02*
X005458Y017905D01*
X005501Y017786D02*
X005334Y017786D01*
X005334Y017668D02*
X005596Y017668D01*
X005646Y017431D02*
X005334Y017431D01*
X005334Y017549D02*
X025974Y017549D01*
X025974Y017431D02*
X022613Y017431D01*
X022777Y017312D02*
X025974Y017312D01*
X025974Y017194D02*
X022858Y017194D01*
X022907Y017075D02*
X025974Y017075D01*
X025974Y016957D02*
X022909Y016957D01*
X022896Y016838D02*
X024532Y016838D01*
X024413Y016719D02*
X022847Y016719D01*
X022748Y016601D02*
X024295Y016601D01*
X024728Y016838D02*
X025974Y016838D01*
X025974Y016719D02*
X024846Y016719D01*
X024965Y016601D02*
X025974Y016601D01*
X025974Y016482D02*
X025083Y016482D01*
X025202Y016364D02*
X025974Y016364D01*
X025974Y016245D02*
X025320Y016245D01*
X025439Y016127D02*
X025974Y016127D01*
X025974Y016008D02*
X025558Y016008D01*
X025645Y015890D02*
X025974Y015890D01*
X025974Y015771D02*
X025644Y015771D01*
X025526Y015653D02*
X025974Y015653D01*
X025974Y015534D02*
X025407Y015534D01*
X025289Y015416D02*
X025974Y015416D01*
X025974Y015297D02*
X025170Y015297D01*
X025052Y015178D02*
X025974Y015178D01*
X025974Y015060D02*
X024933Y015060D01*
X024844Y014941D02*
X025974Y014941D01*
X025974Y014823D02*
X024844Y014823D01*
X024844Y014704D02*
X025974Y014704D01*
X025974Y014586D02*
X024844Y014586D01*
X024844Y014467D02*
X025974Y014467D01*
X025974Y014349D02*
X024844Y014349D01*
X024844Y014230D02*
X025974Y014230D01*
X025974Y014112D02*
X024844Y014112D01*
X024807Y013993D02*
X025974Y013993D01*
X025974Y013874D02*
X024689Y013874D01*
X024570Y013756D02*
X025974Y013756D01*
X025974Y013637D02*
X024452Y013637D01*
X024333Y013519D02*
X025974Y013519D01*
X025974Y013400D02*
X024215Y013400D01*
X024123Y013282D02*
X025974Y013282D01*
X025974Y011741D02*
X025417Y011741D01*
X025559Y011622D02*
X025974Y011622D01*
X025974Y011504D02*
X025666Y011504D01*
X025715Y011385D02*
X025974Y011385D01*
X025974Y011266D02*
X025764Y011266D01*
X025766Y011148D02*
X025974Y011148D01*
X025974Y011029D02*
X025766Y011029D01*
X025737Y010911D02*
X025974Y010911D01*
X025974Y010792D02*
X025688Y010792D01*
X025614Y010674D02*
X025974Y010674D01*
X025974Y010555D02*
X025495Y010555D01*
X025262Y010437D02*
X025974Y010437D01*
X021771Y012215D02*
X016838Y012215D01*
X016957Y012333D02*
X021652Y012333D01*
X021534Y012452D02*
X017075Y012452D01*
X017194Y012570D02*
X021415Y012570D01*
X021297Y012689D02*
X017312Y012689D01*
X017431Y012808D02*
X021178Y012808D01*
X021060Y012926D02*
X017549Y012926D01*
X017668Y013045D02*
X020941Y013045D01*
X020914Y013163D02*
X017695Y013163D01*
X017633Y013282D02*
X020976Y013282D01*
X021094Y013400D02*
X019418Y013400D01*
X019559Y013519D02*
X021126Y013519D01*
X021007Y013637D02*
X019608Y013637D01*
X019613Y013756D02*
X020888Y013756D01*
X020743Y013874D02*
X019594Y013874D01*
X019594Y013993D02*
X020664Y013993D01*
X020646Y014112D02*
X019594Y014112D01*
X019594Y014230D02*
X020661Y014230D01*
X020725Y014349D02*
X019594Y014349D01*
X019594Y014467D02*
X020903Y014467D01*
X018914Y014467D02*
X015905Y014467D01*
X015703Y014467D02*
X014394Y014467D01*
X014394Y014349D02*
X015525Y014349D01*
X015461Y014230D02*
X014394Y014230D01*
X014394Y014112D02*
X015446Y014112D01*
X015464Y013993D02*
X014413Y013993D01*
X014413Y013874D02*
X015543Y013874D01*
X015688Y013756D02*
X014374Y013756D01*
X014278Y013637D02*
X015807Y013637D01*
X016413Y013993D02*
X016437Y013993D01*
X016555Y014112D02*
X016294Y014112D01*
X016176Y014230D02*
X018914Y014230D01*
X018914Y014112D02*
X016803Y014112D01*
X016922Y013993D02*
X018914Y013993D01*
X018914Y013874D02*
X017041Y013874D01*
X017159Y013756D02*
X018896Y013756D01*
X018901Y013637D02*
X017278Y013637D01*
X017396Y013519D02*
X018950Y013519D01*
X019091Y013400D02*
X017515Y013400D01*
X018914Y014349D02*
X016084Y014349D01*
X011355Y014112D02*
X011194Y014112D01*
X005714Y016482D02*
X005334Y016482D01*
X005334Y016601D02*
X005510Y016601D01*
X005412Y016719D02*
X005334Y016719D01*
X005334Y016838D02*
X005363Y016838D01*
X005350Y016957D02*
X005334Y016957D01*
X005334Y017075D02*
X005351Y017075D01*
X005334Y017194D02*
X005400Y017194D01*
X005334Y017312D02*
X005482Y017312D01*
X017894Y008659D02*
X019096Y008659D01*
X019024Y008540D02*
X018019Y008540D01*
X018034Y008421D02*
X019024Y008421D01*
X019118Y008303D02*
X018034Y008303D01*
X018034Y008184D02*
X019082Y008184D01*
X019024Y008066D02*
X018034Y008066D01*
X017996Y007947D02*
X019024Y007947D01*
X019024Y007829D02*
X018034Y007829D01*
X018034Y007710D02*
X019068Y007710D01*
X020054Y008255D02*
X020104Y008271D01*
X020204Y008371D01*
X020204Y008721D01*
X020444Y008777D02*
X020814Y008777D01*
X020696Y008659D02*
X020444Y008659D01*
X020444Y008540D02*
X020624Y008540D01*
X020624Y008421D02*
X020444Y008421D01*
X020444Y008303D02*
X020624Y008303D01*
X020692Y008195D02*
X020692Y008195D01*
X020682Y008184D02*
X020434Y008184D01*
X020434Y008066D02*
X020624Y008066D01*
X020624Y007947D02*
X020396Y007947D01*
X020434Y007829D02*
X020624Y007829D01*
X020668Y007710D02*
X020434Y007710D01*
X016668Y007710D02*
X015697Y007710D01*
X015713Y007829D02*
X016624Y007829D01*
X016624Y007947D02*
X015690Y007947D01*
X015617Y008066D02*
X016624Y008066D01*
X016624Y007592D02*
X015633Y007592D01*
X015452Y007473D02*
X016624Y007473D01*
X016624Y007355D02*
X015227Y007355D01*
X016664Y007236D02*
X013509Y007236D01*
X022662Y017668D02*
X025974Y017668D01*
X025974Y017786D02*
X022757Y017786D01*
X022801Y017905D02*
X025974Y017905D01*
X025974Y018023D02*
X022801Y018023D01*
X022763Y018142D02*
X025974Y018142D01*
X025974Y018261D02*
X022675Y018261D01*
D17*
X021004Y014121D03*
X019254Y013721D03*
X015804Y014121D03*
X014054Y013921D03*
X010704Y014121D03*
X008904Y013921D03*
X008054Y013421D03*
X008054Y012221D03*
X009804Y011171D03*
X008704Y010371D03*
X006754Y010371D03*
X006104Y008071D03*
X008304Y008121D03*
X010754Y006821D03*
X011154Y008521D03*
X013054Y008571D03*
X013454Y006921D03*
X015354Y007821D03*
X016204Y009921D03*
X017104Y010921D03*
X018054Y010871D03*
X021854Y010921D03*
X023204Y011471D03*
X023654Y009621D03*
X023854Y013521D03*
X013504Y010671D03*
X011904Y010871D03*
X005804Y014121D03*
D18*
X022654Y008671D02*
X022704Y008671D01*
X023654Y009621D01*
X023354Y008071D02*
X023654Y007771D01*
X023654Y005721D01*
X023354Y008071D02*
X022654Y008071D01*
D19*
X021954Y012771D02*
X021954Y012821D01*
X021954Y012771D02*
X021929Y013146D01*
X019354Y015721D02*
X019254Y015671D01*
X019354Y015721D02*
X019380Y015846D01*
X016679Y013146D02*
X016654Y013071D01*
X016604Y013021D01*
X016604Y013071D01*
X016679Y013146D02*
X016704Y012771D01*
X014204Y015421D02*
X014180Y015846D01*
X014104Y015771D01*
X014054Y015771D01*
X011479Y013146D02*
X011504Y012721D01*
X011554Y012821D01*
X011504Y012721D02*
X011504Y012671D01*
X011479Y012996D02*
X011479Y013146D01*
X008954Y015371D02*
X009280Y015846D01*
X008954Y015371D02*
X008904Y015371D01*
X006579Y013146D02*
X006305Y012771D01*
X006304Y012771D01*
X006304Y013221D01*
X024504Y015721D02*
X024630Y015846D01*
D20*
X024504Y015721D02*
X024504Y014171D01*
X023854Y013521D01*
X021904Y013271D02*
X021954Y012821D01*
X021904Y013271D02*
X021854Y013271D01*
X021004Y014121D01*
X019254Y013721D02*
X019254Y015671D01*
X016704Y013221D02*
X015804Y014121D01*
X016704Y013221D02*
X016704Y012771D01*
X014054Y013921D02*
X014054Y015771D01*
X011554Y013271D02*
X010704Y014121D01*
X011554Y013271D02*
X011554Y012821D01*
X008904Y013921D02*
X008904Y015371D01*
X006404Y013521D02*
X005804Y014121D01*
X006404Y013521D02*
X006404Y013221D01*
X006304Y013221D01*
M02*
