G75*
G70*
%OFA0B0*%
%FSLAX24Y24*%
%IPPOS*%
%LPD*%
%AMOC8*
5,1,8,0,0,1.08239X$1,22.5*
%
%ADD10C,0.0100*%
%ADD11C,0.0060*%
%ADD12C,0.0594*%
%ADD13C,0.0000*%
%ADD14R,0.0554X0.0554*%
%ADD15C,0.0554*%
%ADD16C,0.0886*%
%ADD17R,0.0880X0.0480*%
%ADD18R,0.0866X0.1417*%
%ADD19C,0.0120*%
%ADD20C,0.0436*%
%ADD21C,0.0160*%
D10*
X007855Y005221D02*
X007855Y005658D01*
X007855Y006052D02*
X007855Y006490D01*
X007855Y006883D02*
X007855Y007321D01*
X007855Y007714D02*
X007855Y008152D01*
X007855Y008546D02*
X007855Y008983D01*
X007855Y009377D02*
X007855Y009814D01*
X007855Y010208D02*
X007855Y010646D01*
X007855Y011039D02*
X007855Y011477D01*
X008355Y011431D02*
X008355Y011421D01*
X008855Y010921D01*
X011205Y010921D01*
X013555Y013271D01*
X021905Y013271D01*
X021905Y012671D02*
X016455Y012671D01*
X016005Y012221D01*
X016177Y013971D02*
X015779Y013971D01*
X015385Y013971D02*
X014986Y013971D01*
X014593Y013971D02*
X014194Y013971D01*
X013800Y013971D02*
X013402Y013971D01*
X013008Y013971D02*
X012609Y013971D01*
X012216Y013971D02*
X011817Y013971D01*
X011423Y013971D02*
X011025Y013971D01*
X010631Y013971D02*
X010232Y013971D01*
X009839Y013971D02*
X009440Y013971D01*
X009046Y013971D02*
X008648Y013971D01*
X008254Y013971D02*
X007855Y013971D01*
X007855Y013533D01*
X007855Y013139D02*
X007855Y012702D01*
X007855Y012308D02*
X007855Y011871D01*
X016571Y013971D02*
X016970Y013971D01*
X017363Y013971D02*
X017762Y013971D01*
X018156Y013971D02*
X018554Y013971D01*
X018948Y013971D02*
X019347Y013971D01*
X019740Y013971D02*
X020139Y013971D01*
X020533Y013971D02*
X020931Y013971D01*
X021325Y013971D02*
X021724Y013971D01*
X022117Y013971D02*
X022516Y013971D01*
X022910Y013971D02*
X023308Y013971D01*
X023702Y013971D02*
X024100Y013971D01*
X024494Y013971D02*
X024893Y013971D01*
X025286Y013971D02*
X025685Y013971D01*
X026079Y013971D02*
X026477Y013971D01*
X026871Y013971D02*
X027270Y013971D01*
X027663Y013971D02*
X028062Y013971D01*
X028456Y013971D02*
X028854Y013971D01*
X028855Y013971D02*
X028855Y013533D01*
X028855Y013140D02*
X028855Y012702D01*
X028855Y012308D02*
X028855Y011871D01*
X028855Y011477D02*
X028855Y011040D01*
X028855Y010646D02*
X028855Y010208D01*
X028855Y009815D02*
X028855Y009377D01*
X028855Y008983D02*
X028855Y008546D01*
X028855Y008152D02*
X028855Y007715D01*
X028855Y007321D02*
X028855Y006884D01*
X028855Y006490D02*
X028855Y006052D01*
X028855Y005659D02*
X028855Y005221D01*
X028457Y005221D01*
X028063Y005221D02*
X027664Y005221D01*
X027271Y005221D02*
X026872Y005221D01*
X026478Y005221D02*
X026080Y005221D01*
X025686Y005221D02*
X025287Y005221D01*
X024894Y005221D02*
X024495Y005221D01*
X024101Y005221D02*
X023703Y005221D01*
X023309Y005221D02*
X022911Y005221D01*
X022517Y005221D02*
X022118Y005221D01*
X021724Y005221D02*
X021326Y005221D01*
X020932Y005221D02*
X020534Y005221D01*
X020140Y005221D02*
X019741Y005221D01*
X019348Y005221D02*
X018949Y005221D01*
X018555Y005221D02*
X018157Y005221D01*
X017763Y005221D02*
X017364Y005221D01*
X016971Y005221D02*
X016572Y005221D01*
X016178Y005221D02*
X015780Y005221D01*
X015386Y005221D02*
X014987Y005221D01*
X014594Y005221D02*
X014195Y005221D01*
X013801Y005221D02*
X013403Y005221D01*
X013009Y005221D02*
X012610Y005221D01*
X012217Y005221D02*
X011818Y005221D01*
X011424Y005221D02*
X011026Y005221D01*
X010632Y005221D02*
X010233Y005221D01*
X009840Y005221D02*
X009441Y005221D01*
X009047Y005221D02*
X008649Y005221D01*
X008255Y005221D02*
X007856Y005221D01*
X011355Y005721D02*
X011805Y006171D01*
X016155Y006171D01*
X018655Y008671D01*
X018655Y008821D01*
X019105Y008971D02*
X019105Y007021D01*
X018455Y006371D01*
X016955Y006371D01*
X016355Y005771D01*
X016355Y005721D01*
X018355Y005721D02*
X019555Y006921D01*
X019555Y008821D01*
X019355Y009221D02*
X019105Y008971D01*
X019355Y009221D02*
X019805Y009221D01*
X020205Y008821D01*
D11*
X007255Y010351D02*
X007255Y010671D01*
X007149Y010778D01*
X007042Y010671D01*
X007042Y010351D01*
X006828Y010351D02*
X006828Y010778D01*
X006935Y010778D01*
X007042Y010671D01*
X006611Y010671D02*
X006611Y010458D01*
X006504Y010351D01*
X006291Y010351D01*
X006184Y010458D01*
X006184Y010671D01*
X006291Y010778D01*
X006504Y010778D01*
X006611Y010671D01*
X005968Y010778D02*
X005754Y010778D01*
X005861Y010885D02*
X005861Y010458D01*
X005968Y010351D01*
X005538Y010351D02*
X005431Y010458D01*
X005431Y010885D01*
X005324Y010778D02*
X005538Y010778D01*
X005107Y010671D02*
X005000Y010778D01*
X004787Y010778D01*
X004680Y010671D01*
X004680Y010458D01*
X004787Y010351D01*
X005000Y010351D01*
X005107Y010458D01*
X005107Y010671D01*
X004462Y010671D02*
X004462Y010458D01*
X004356Y010351D01*
X004035Y010351D01*
X004035Y010991D01*
X004035Y010778D02*
X004356Y010778D01*
X004462Y010671D01*
D12*
X008355Y011431D03*
X008355Y012431D03*
X008355Y008211D03*
X008355Y007211D03*
X008355Y005721D03*
X009355Y005721D03*
X010355Y005721D03*
X011355Y005721D03*
X012355Y005721D03*
X013355Y005721D03*
X014355Y005721D03*
X015355Y005721D03*
X016355Y005721D03*
X017355Y005721D03*
X018355Y005721D03*
X019355Y005721D03*
X020355Y005721D03*
X021355Y005721D03*
X022355Y005721D03*
X023355Y005721D03*
X024355Y005721D03*
X025355Y005721D03*
X026355Y005721D03*
X027355Y005721D03*
X028355Y005721D03*
D13*
X009305Y007571D02*
X009308Y007630D01*
X009316Y007689D01*
X009329Y007746D01*
X009348Y007803D01*
X009371Y007857D01*
X009400Y007909D01*
X009433Y007958D01*
X009470Y008004D01*
X009511Y008046D01*
X009556Y008084D01*
X009605Y008119D01*
X009656Y008148D01*
X009710Y008173D01*
X009765Y008193D01*
X009823Y008207D01*
X009881Y008217D01*
X009940Y008221D01*
X009999Y008219D01*
X010058Y008213D01*
X010116Y008201D01*
X010173Y008183D01*
X010227Y008161D01*
X010280Y008134D01*
X010330Y008102D01*
X010377Y008066D01*
X010420Y008025D01*
X010459Y007981D01*
X010494Y007934D01*
X010525Y007883D01*
X010551Y007830D01*
X010572Y007775D01*
X010588Y007718D01*
X010599Y007660D01*
X010604Y007601D01*
X010604Y007541D01*
X010599Y007482D01*
X010588Y007424D01*
X010572Y007367D01*
X010551Y007312D01*
X010525Y007259D01*
X010494Y007208D01*
X010459Y007161D01*
X010420Y007117D01*
X010377Y007076D01*
X010330Y007040D01*
X010280Y007008D01*
X010227Y006981D01*
X010173Y006959D01*
X010116Y006941D01*
X010058Y006929D01*
X009999Y006923D01*
X009940Y006921D01*
X009881Y006925D01*
X009823Y006935D01*
X009765Y006949D01*
X009710Y006969D01*
X009656Y006994D01*
X009605Y007023D01*
X009556Y007058D01*
X009511Y007096D01*
X009470Y007138D01*
X009433Y007184D01*
X009400Y007233D01*
X009371Y007285D01*
X009348Y007339D01*
X009329Y007396D01*
X009316Y007453D01*
X009308Y007512D01*
X009305Y007571D01*
X009305Y012071D02*
X009308Y012130D01*
X009316Y012189D01*
X009329Y012246D01*
X009348Y012303D01*
X009371Y012357D01*
X009400Y012409D01*
X009433Y012458D01*
X009470Y012504D01*
X009511Y012546D01*
X009556Y012584D01*
X009605Y012619D01*
X009656Y012648D01*
X009710Y012673D01*
X009765Y012693D01*
X009823Y012707D01*
X009881Y012717D01*
X009940Y012721D01*
X009999Y012719D01*
X010058Y012713D01*
X010116Y012701D01*
X010173Y012683D01*
X010227Y012661D01*
X010280Y012634D01*
X010330Y012602D01*
X010377Y012566D01*
X010420Y012525D01*
X010459Y012481D01*
X010494Y012434D01*
X010525Y012383D01*
X010551Y012330D01*
X010572Y012275D01*
X010588Y012218D01*
X010599Y012160D01*
X010604Y012101D01*
X010604Y012041D01*
X010599Y011982D01*
X010588Y011924D01*
X010572Y011867D01*
X010551Y011812D01*
X010525Y011759D01*
X010494Y011708D01*
X010459Y011661D01*
X010420Y011617D01*
X010377Y011576D01*
X010330Y011540D01*
X010280Y011508D01*
X010227Y011481D01*
X010173Y011459D01*
X010116Y011441D01*
X010058Y011429D01*
X009999Y011423D01*
X009940Y011421D01*
X009881Y011425D01*
X009823Y011435D01*
X009765Y011449D01*
X009710Y011469D01*
X009656Y011494D01*
X009605Y011523D01*
X009556Y011558D01*
X009511Y011596D01*
X009470Y011638D01*
X009433Y011684D01*
X009400Y011733D01*
X009371Y011785D01*
X009348Y011839D01*
X009329Y011896D01*
X009316Y011953D01*
X009308Y012012D01*
X009305Y012071D01*
D14*
X012455Y008071D03*
D15*
X013455Y008571D03*
X012455Y009071D03*
X013455Y009571D03*
X012455Y010071D03*
X013455Y010571D03*
X012455Y011071D03*
X013455Y011571D03*
D16*
X011155Y012871D03*
X011155Y006771D03*
D17*
X027875Y008761D03*
X027875Y009671D03*
X027875Y010581D03*
D18*
X025435Y009671D03*
D19*
X025375Y009725D02*
X022605Y009725D01*
X022605Y009607D02*
X024842Y009607D01*
X024842Y009611D02*
X025375Y009611D01*
X025375Y009731D01*
X024842Y009731D01*
X024842Y010446D01*
X024936Y010539D01*
X025375Y010539D01*
X025375Y009731D01*
X025495Y009731D01*
X025495Y010539D01*
X025935Y010539D01*
X026028Y010446D01*
X026028Y009731D01*
X025495Y009731D01*
X025495Y009611D01*
X025375Y009611D01*
X025375Y008802D01*
X024936Y008802D01*
X024842Y008896D01*
X024842Y009611D01*
X024842Y009488D02*
X022605Y009488D01*
X022605Y009370D02*
X024842Y009370D01*
X024842Y009251D02*
X022605Y009251D01*
X022605Y009133D02*
X024842Y009133D01*
X024842Y009014D02*
X022605Y009014D01*
X022605Y008896D02*
X024842Y008896D01*
X025375Y008896D02*
X025495Y008896D01*
X025495Y008802D02*
X025495Y009611D01*
X026028Y009611D01*
X026028Y008896D01*
X027255Y008896D01*
X027255Y009014D02*
X026028Y009014D01*
X026028Y008896D02*
X025935Y008802D01*
X025495Y008802D01*
X025495Y009014D02*
X025375Y009014D01*
X025375Y009133D02*
X025495Y009133D01*
X025495Y009251D02*
X025375Y009251D01*
X025375Y009370D02*
X025495Y009370D01*
X025495Y009488D02*
X025375Y009488D01*
X025375Y009607D02*
X025495Y009607D01*
X025495Y009725D02*
X027815Y009725D01*
X027815Y009731D02*
X027275Y009731D01*
X027275Y009977D01*
X027369Y010071D01*
X027816Y010071D01*
X027816Y009731D01*
X027935Y009731D01*
X027935Y010071D01*
X028382Y010071D01*
X028475Y009977D01*
X028475Y009731D01*
X027936Y009731D01*
X027936Y009611D01*
X028475Y009611D01*
X028475Y009364D01*
X028382Y009271D01*
X027935Y009271D01*
X027935Y009611D01*
X027816Y009611D01*
X027816Y009271D01*
X027369Y009271D01*
X027275Y009364D01*
X027275Y009611D01*
X027815Y009611D01*
X027815Y009731D01*
X027816Y009844D02*
X027935Y009844D01*
X027935Y009963D02*
X027816Y009963D01*
X027936Y009725D02*
X028625Y009725D01*
X028625Y009607D02*
X028475Y009607D01*
X028475Y009488D02*
X028625Y009488D01*
X028625Y009370D02*
X028475Y009370D01*
X028625Y009251D02*
X026028Y009251D01*
X026028Y009133D02*
X027313Y009133D01*
X027361Y009181D02*
X028390Y009181D01*
X028495Y009075D01*
X028495Y008446D01*
X028408Y008359D01*
X028454Y008250D01*
X028454Y008092D01*
X028393Y007945D01*
X028281Y007833D01*
X028135Y007773D01*
X027976Y007773D01*
X027830Y007833D01*
X027718Y007945D01*
X027657Y008092D01*
X027657Y008250D01*
X027695Y008341D01*
X027361Y008341D01*
X027255Y008446D01*
X027255Y009075D01*
X027361Y009181D01*
X027275Y009370D02*
X026028Y009370D01*
X026028Y009488D02*
X027275Y009488D01*
X027275Y009607D02*
X026028Y009607D01*
X026028Y009844D02*
X027275Y009844D01*
X027275Y009963D02*
X026028Y009963D01*
X026028Y010081D02*
X028625Y010081D01*
X028625Y009963D02*
X028475Y009963D01*
X028475Y009844D02*
X028625Y009844D01*
X028625Y010200D02*
X028429Y010200D01*
X028390Y010161D02*
X028495Y010266D01*
X028495Y010895D01*
X028390Y011001D01*
X028216Y011001D01*
X028254Y011092D01*
X028254Y011250D01*
X028193Y011396D01*
X028081Y011508D01*
X027935Y011569D01*
X027776Y011569D01*
X027630Y011508D01*
X027518Y011396D01*
X027457Y011250D01*
X027457Y011092D01*
X027495Y011001D01*
X027361Y011001D01*
X027255Y010895D01*
X027255Y010266D01*
X027361Y010161D01*
X028390Y010161D01*
X028495Y010318D02*
X028625Y010318D01*
X028625Y010437D02*
X028495Y010437D01*
X028495Y010555D02*
X028625Y010555D01*
X028625Y010674D02*
X028495Y010674D01*
X028495Y010792D02*
X028625Y010792D01*
X028625Y010911D02*
X028480Y010911D01*
X028625Y011029D02*
X028228Y011029D01*
X028254Y011148D02*
X028625Y011148D01*
X028625Y011266D02*
X028247Y011266D01*
X028198Y011385D02*
X028625Y011385D01*
X028625Y011504D02*
X028086Y011504D01*
X028625Y011622D02*
X022605Y011622D01*
X022605Y011504D02*
X027625Y011504D01*
X027513Y011385D02*
X022605Y011385D01*
X022605Y011266D02*
X027464Y011266D01*
X027457Y011148D02*
X022605Y011148D01*
X022605Y011029D02*
X027483Y011029D01*
X027271Y010911D02*
X022605Y010911D01*
X022605Y010792D02*
X027255Y010792D01*
X027255Y010674D02*
X022605Y010674D01*
X022605Y010555D02*
X027255Y010555D01*
X027255Y010437D02*
X026028Y010437D01*
X026028Y010318D02*
X027255Y010318D01*
X027322Y010200D02*
X026028Y010200D01*
X025495Y010200D02*
X025375Y010200D01*
X025375Y010318D02*
X025495Y010318D01*
X025495Y010437D02*
X025375Y010437D01*
X024842Y010437D02*
X022605Y010437D01*
X022605Y010318D02*
X024842Y010318D01*
X024842Y010200D02*
X022605Y010200D01*
X022605Y010081D02*
X024842Y010081D01*
X024842Y009963D02*
X022605Y009963D01*
X022605Y009844D02*
X024842Y009844D01*
X025375Y009844D02*
X025495Y009844D01*
X025495Y009963D02*
X025375Y009963D01*
X025375Y010081D02*
X025495Y010081D01*
X027255Y008777D02*
X022605Y008777D01*
X022605Y008659D02*
X027255Y008659D01*
X027255Y008540D02*
X022605Y008540D01*
X022605Y008421D02*
X027280Y008421D01*
X027679Y008303D02*
X022605Y008303D01*
X022605Y008184D02*
X027657Y008184D01*
X027668Y008066D02*
X022605Y008066D01*
X022605Y007947D02*
X027717Y007947D01*
X027841Y007829D02*
X022605Y007829D01*
X022605Y007710D02*
X028625Y007710D01*
X028625Y007592D02*
X022605Y007592D01*
X022605Y007473D02*
X028625Y007473D01*
X028625Y007355D02*
X022605Y007355D01*
X022605Y007236D02*
X028625Y007236D01*
X028625Y007117D02*
X022605Y007117D01*
X022605Y006999D02*
X028625Y006999D01*
X028625Y006880D02*
X022605Y006880D01*
X022605Y006821D02*
X022605Y013741D01*
X028625Y013741D01*
X028625Y006821D01*
X022605Y006821D01*
X022444Y006643D02*
X019603Y006643D01*
X019485Y006525D02*
X028625Y006525D01*
X028625Y006581D02*
X022506Y006581D01*
X022365Y006721D01*
X022365Y006920D01*
X022365Y009361D01*
X019991Y009361D01*
X020035Y009316D01*
X020133Y009219D01*
X020285Y009219D01*
X020431Y009158D01*
X020543Y009046D01*
X020604Y008900D01*
X020604Y008742D01*
X020543Y008595D01*
X020431Y008483D01*
X020285Y008423D01*
X020126Y008423D01*
X019980Y008483D01*
X019880Y008583D01*
X019785Y008488D01*
X019785Y007016D01*
X019785Y006826D01*
X018816Y005856D01*
X018832Y005816D01*
X018832Y005671D01*
X018879Y005671D01*
X018879Y005816D01*
X018951Y005991D01*
X019085Y006125D01*
X019261Y006198D01*
X019450Y006198D01*
X019626Y006125D01*
X019760Y005991D01*
X019832Y005816D01*
X019832Y005671D01*
X019879Y005671D01*
X019879Y005816D01*
X019951Y005991D01*
X020085Y006125D01*
X020261Y006198D01*
X020450Y006198D01*
X020626Y006125D01*
X020760Y005991D01*
X020832Y005816D01*
X020832Y005671D01*
X020879Y005671D01*
X020879Y005816D01*
X020951Y005991D01*
X021085Y006125D01*
X021261Y006198D01*
X021450Y006198D01*
X021626Y006125D01*
X021760Y005991D01*
X021832Y005816D01*
X021832Y005671D01*
X021879Y005671D01*
X021879Y005816D01*
X021951Y005991D01*
X022085Y006125D01*
X022261Y006198D01*
X022450Y006198D01*
X022626Y006125D01*
X022760Y005991D01*
X022832Y005816D01*
X022832Y005671D01*
X022879Y005671D01*
X022879Y005816D01*
X022951Y005991D01*
X023085Y006125D01*
X023261Y006198D01*
X023450Y006198D01*
X023626Y006125D01*
X023760Y005991D01*
X023832Y005816D01*
X023832Y005671D01*
X023879Y005671D01*
X023879Y005816D01*
X023951Y005991D01*
X024085Y006125D01*
X024261Y006198D01*
X024450Y006198D01*
X024626Y006125D01*
X024760Y005991D01*
X024832Y005816D01*
X024832Y005671D01*
X024879Y005671D01*
X024879Y005816D01*
X024951Y005991D01*
X025085Y006125D01*
X025261Y006198D01*
X025450Y006198D01*
X025626Y006125D01*
X025760Y005991D01*
X025832Y005816D01*
X025832Y005671D01*
X025879Y005671D01*
X025879Y005816D01*
X025951Y005991D01*
X026085Y006125D01*
X026261Y006198D01*
X026450Y006198D01*
X026626Y006125D01*
X026760Y005991D01*
X026832Y005816D01*
X026832Y005671D01*
X026879Y005671D01*
X026879Y005816D01*
X026951Y005991D01*
X027085Y006125D01*
X027261Y006198D01*
X027450Y006198D01*
X027626Y006125D01*
X027760Y005991D01*
X027832Y005816D01*
X027832Y005671D01*
X027899Y005671D01*
X027899Y005682D01*
X028317Y005682D01*
X028317Y005759D01*
X027899Y005759D01*
X027899Y005812D01*
X027968Y005980D01*
X028097Y006108D01*
X028265Y006178D01*
X028317Y006178D01*
X028317Y005759D01*
X028394Y005759D01*
X028394Y006178D01*
X028446Y006178D01*
X028614Y006108D01*
X028625Y006097D01*
X028625Y006581D01*
X028625Y006406D02*
X019366Y006406D01*
X019248Y006288D02*
X028625Y006288D01*
X028625Y006169D02*
X028467Y006169D01*
X028394Y006169D02*
X028317Y006169D01*
X028244Y006169D02*
X027519Y006169D01*
X027700Y006051D02*
X028039Y006051D01*
X027948Y005932D02*
X027784Y005932D01*
X027832Y005814D02*
X027899Y005814D01*
X027832Y005695D02*
X028317Y005695D01*
X028317Y005814D02*
X028394Y005814D01*
X028394Y005932D02*
X028317Y005932D01*
X028317Y006051D02*
X028394Y006051D01*
X027192Y006169D02*
X026519Y006169D01*
X026700Y006051D02*
X027011Y006051D01*
X026927Y005932D02*
X026784Y005932D01*
X026832Y005814D02*
X026879Y005814D01*
X026879Y005695D02*
X026832Y005695D01*
X026011Y006051D02*
X025700Y006051D01*
X025784Y005932D02*
X025927Y005932D01*
X025879Y005814D02*
X025832Y005814D01*
X025832Y005695D02*
X025879Y005695D01*
X025011Y006051D02*
X024700Y006051D01*
X024784Y005932D02*
X024927Y005932D01*
X024879Y005814D02*
X024832Y005814D01*
X024832Y005695D02*
X024879Y005695D01*
X025192Y006169D02*
X024519Y006169D01*
X024192Y006169D02*
X023519Y006169D01*
X023700Y006051D02*
X024011Y006051D01*
X023927Y005932D02*
X023784Y005932D01*
X023832Y005814D02*
X023879Y005814D01*
X023879Y005695D02*
X023832Y005695D01*
X023192Y006169D02*
X022519Y006169D01*
X022700Y006051D02*
X023011Y006051D01*
X022927Y005932D02*
X022784Y005932D01*
X022832Y005814D02*
X022879Y005814D01*
X022879Y005695D02*
X022832Y005695D01*
X022011Y006051D02*
X021700Y006051D01*
X021784Y005932D02*
X021927Y005932D01*
X021879Y005814D02*
X021832Y005814D01*
X021832Y005695D02*
X021879Y005695D01*
X021011Y006051D02*
X020700Y006051D01*
X020784Y005932D02*
X020927Y005932D01*
X020879Y005814D02*
X020832Y005814D01*
X020832Y005695D02*
X020879Y005695D01*
X021192Y006169D02*
X020519Y006169D01*
X020192Y006169D02*
X019519Y006169D01*
X019700Y006051D02*
X020011Y006051D01*
X019927Y005932D02*
X019784Y005932D01*
X019832Y005814D02*
X019879Y005814D01*
X019879Y005695D02*
X019832Y005695D01*
X019192Y006169D02*
X019129Y006169D01*
X019011Y006051D02*
X019010Y006051D01*
X018927Y005932D02*
X018892Y005932D01*
X018879Y005814D02*
X018832Y005814D01*
X018832Y005695D02*
X018879Y005695D01*
X019722Y006762D02*
X022365Y006762D01*
X022365Y006880D02*
X019785Y006880D01*
X019785Y006999D02*
X022365Y006999D01*
X022365Y007117D02*
X019785Y007117D01*
X019785Y007236D02*
X022365Y007236D01*
X022365Y007355D02*
X019785Y007355D01*
X019785Y007473D02*
X022365Y007473D01*
X022365Y007592D02*
X019785Y007592D01*
X019785Y007710D02*
X022365Y007710D01*
X022365Y007829D02*
X019785Y007829D01*
X019785Y007947D02*
X022365Y007947D01*
X022365Y008066D02*
X019785Y008066D01*
X019785Y008184D02*
X022365Y008184D01*
X022365Y008303D02*
X019785Y008303D01*
X019785Y008421D02*
X022365Y008421D01*
X022365Y008540D02*
X020488Y008540D01*
X020569Y008659D02*
X022365Y008659D01*
X022365Y008777D02*
X020604Y008777D01*
X020604Y008896D02*
X022365Y008896D01*
X022365Y009014D02*
X020556Y009014D01*
X020456Y009133D02*
X022365Y009133D01*
X022365Y009251D02*
X020100Y009251D01*
X019265Y009881D02*
X019265Y010568D01*
X019343Y010645D01*
X019404Y010792D01*
X022365Y010792D01*
X022365Y010674D02*
X019355Y010674D01*
X019404Y010792D02*
X019404Y010950D01*
X019343Y011096D01*
X019231Y011208D01*
X019085Y011269D01*
X018926Y011269D01*
X018780Y011208D01*
X018668Y011096D01*
X018607Y010950D01*
X018607Y010792D01*
X017254Y010792D01*
X017193Y010645D01*
X017115Y010568D01*
X017115Y009678D01*
X017115Y009463D01*
X016615Y008963D01*
X016463Y008811D01*
X013851Y008811D01*
X013913Y008662D01*
X013913Y008480D01*
X013851Y008331D01*
X016048Y008331D01*
X017295Y009578D01*
X017295Y009768D01*
X017218Y009845D01*
X017157Y009992D01*
X017157Y010150D01*
X017218Y010296D01*
X017330Y010408D01*
X017476Y010469D01*
X017635Y010469D01*
X017781Y010408D01*
X017893Y010296D01*
X017954Y010150D01*
X017954Y009992D01*
X017893Y009845D01*
X017815Y009768D01*
X017815Y009363D01*
X017663Y009211D01*
X016263Y007811D01*
X016048Y007811D01*
X012913Y007811D01*
X012913Y007719D01*
X012807Y007614D01*
X012104Y007614D01*
X011998Y007719D01*
X011998Y008422D01*
X012104Y008528D01*
X012807Y008528D01*
X012913Y008422D01*
X012913Y008331D01*
X013060Y008331D01*
X012998Y008480D01*
X012998Y008662D01*
X013060Y008811D01*
X012842Y008811D01*
X012714Y008683D01*
X012546Y008614D01*
X012364Y008614D01*
X012196Y008683D01*
X012068Y008812D01*
X011998Y008980D01*
X011998Y009162D01*
X012068Y009330D01*
X012196Y009458D01*
X012364Y009528D01*
X012546Y009528D01*
X012714Y009458D01*
X012842Y009331D01*
X013060Y009331D01*
X012998Y009480D01*
X012998Y009662D01*
X013068Y009830D01*
X013196Y009958D01*
X013364Y010028D01*
X013546Y010028D01*
X013714Y009958D01*
X013720Y009953D01*
X013748Y009981D01*
X015752Y009981D01*
X015830Y010058D01*
X015976Y010119D01*
X016135Y010119D01*
X016281Y010058D01*
X016393Y009946D01*
X016454Y009800D01*
X016454Y009642D01*
X016393Y009495D01*
X016281Y009383D01*
X016154Y009331D01*
X016248Y009331D01*
X016595Y009678D01*
X016595Y010568D01*
X016518Y010645D01*
X016457Y010792D01*
X016395Y010792D01*
X016393Y010796D02*
X016454Y010650D01*
X016454Y010492D01*
X016393Y010345D01*
X016281Y010233D01*
X016135Y010173D01*
X015976Y010173D01*
X015830Y010233D01*
X015752Y010311D01*
X013842Y010311D01*
X013714Y010183D01*
X013546Y010114D01*
X013364Y010114D01*
X013196Y010183D01*
X013068Y010312D01*
X012998Y010480D01*
X012998Y010662D01*
X013068Y010830D01*
X013196Y010958D01*
X013364Y011028D01*
X013546Y011028D01*
X013714Y010958D01*
X013842Y010831D01*
X015752Y010831D01*
X015830Y010908D01*
X015976Y010969D01*
X016135Y010969D01*
X016281Y010908D01*
X016393Y010796D01*
X016457Y010792D02*
X016457Y010950D01*
X016518Y011096D01*
X016630Y011208D01*
X016776Y011269D01*
X016935Y011269D01*
X017081Y011208D01*
X017193Y011096D01*
X017254Y010950D01*
X017254Y010792D01*
X017254Y010911D02*
X018607Y010911D01*
X018607Y010792D02*
X018668Y010645D01*
X018745Y010568D01*
X018745Y009881D01*
X018648Y009881D01*
X017845Y009078D01*
X017845Y008863D01*
X017845Y008628D01*
X016298Y007081D01*
X014408Y007081D01*
X014331Y007158D01*
X014185Y007219D01*
X014026Y007219D01*
X013880Y007158D01*
X013768Y007046D01*
X013707Y006900D01*
X013707Y006742D01*
X013768Y006595D01*
X013880Y006483D01*
X014026Y006423D01*
X014185Y006423D01*
X014331Y006483D01*
X014408Y006561D01*
X016220Y006561D01*
X016060Y006401D01*
X011710Y006401D01*
X011575Y006266D01*
X011490Y006181D01*
X011450Y006198D01*
X011347Y006198D01*
X011497Y006260D01*
X011667Y006429D01*
X011758Y006651D01*
X011758Y006711D01*
X011216Y006711D01*
X011216Y006831D01*
X011758Y006831D01*
X011758Y006891D01*
X011667Y007112D01*
X011497Y007282D01*
X011275Y007374D01*
X011215Y007374D01*
X011215Y006831D01*
X011095Y006831D01*
X010553Y006831D01*
X010553Y006891D01*
X010626Y007068D01*
X010425Y006867D01*
X010120Y006741D01*
X009790Y006741D01*
X009485Y006867D01*
X009252Y007101D01*
X009126Y007406D01*
X009126Y007736D01*
X009252Y008041D01*
X009485Y008274D01*
X009790Y008400D01*
X010120Y008400D01*
X010425Y008274D01*
X010659Y008041D01*
X010785Y007736D01*
X010785Y007406D01*
X010677Y007145D01*
X010814Y007282D01*
X011035Y007374D01*
X011095Y007374D01*
X011095Y006831D01*
X011095Y006711D01*
X010553Y006711D01*
X010553Y006651D01*
X010644Y006429D01*
X010814Y006260D01*
X011035Y006168D01*
X011095Y006168D01*
X011095Y006711D01*
X011215Y006711D01*
X011215Y006179D01*
X011085Y006125D01*
X010951Y005991D01*
X010879Y005816D01*
X010879Y005671D01*
X010832Y005671D01*
X010832Y005816D01*
X010760Y005991D01*
X010626Y006125D01*
X010450Y006198D01*
X010261Y006198D01*
X010085Y006125D01*
X009951Y005991D01*
X009879Y005816D01*
X009879Y005671D01*
X009832Y005671D01*
X009832Y005816D01*
X009760Y005991D01*
X009626Y006125D01*
X009450Y006198D01*
X009261Y006198D01*
X009085Y006125D01*
X008951Y005991D01*
X008879Y005816D01*
X008879Y005671D01*
X008832Y005671D01*
X008832Y005816D01*
X008760Y005991D01*
X008626Y006125D01*
X008450Y006198D01*
X008261Y006198D01*
X008085Y006125D01*
X008085Y006807D01*
X008261Y006734D01*
X008450Y006734D01*
X008626Y006807D01*
X008760Y006941D01*
X008832Y007116D01*
X008832Y007306D01*
X008760Y007481D01*
X008626Y007615D01*
X008450Y007688D01*
X008261Y007688D01*
X008085Y007615D01*
X008085Y007835D01*
X008097Y007823D01*
X008265Y007754D01*
X008317Y007754D01*
X008317Y008172D01*
X008394Y008172D01*
X008394Y007754D01*
X008446Y007754D01*
X008614Y007823D01*
X008743Y007952D01*
X008812Y008120D01*
X008812Y008172D01*
X008394Y008172D01*
X008394Y008249D01*
X008812Y008249D01*
X008812Y008302D01*
X008743Y008470D01*
X008614Y008598D01*
X008446Y008668D01*
X008394Y008668D01*
X008394Y008249D01*
X008317Y008249D01*
X008317Y008668D01*
X008265Y008668D01*
X008097Y008598D01*
X008085Y008587D01*
X008085Y011027D01*
X008261Y010954D01*
X008450Y010954D01*
X008483Y010968D01*
X008760Y010691D01*
X008951Y010691D01*
X011301Y010691D01*
X011435Y010826D01*
X013651Y013041D01*
X021572Y013041D01*
X021642Y012971D01*
X021572Y012901D01*
X016551Y012901D01*
X016360Y012901D01*
X016078Y012619D01*
X015926Y012619D01*
X015780Y012558D01*
X015668Y012446D01*
X015607Y012300D01*
X015607Y012142D01*
X015668Y011995D01*
X015780Y011883D01*
X015926Y011823D01*
X016085Y011823D01*
X016231Y011883D01*
X016343Y011995D01*
X016404Y012142D01*
X016404Y012294D01*
X016551Y012441D01*
X021572Y012441D01*
X021680Y012333D01*
X021826Y012273D01*
X021985Y012273D01*
X022131Y012333D01*
X022243Y012445D01*
X022304Y012592D01*
X022304Y012750D01*
X022243Y012896D01*
X022168Y012971D01*
X022243Y013045D01*
X022304Y013192D01*
X022304Y013350D01*
X022243Y013496D01*
X022131Y013608D01*
X021985Y013669D01*
X021826Y013669D01*
X021680Y013608D01*
X021572Y013501D01*
X013651Y013501D01*
X013460Y013501D01*
X011110Y011151D01*
X008951Y011151D01*
X008813Y011289D01*
X008832Y011336D01*
X008832Y011526D01*
X008760Y011701D01*
X008626Y011835D01*
X008450Y011908D01*
X008261Y011908D01*
X008085Y011835D01*
X008085Y012055D01*
X008097Y012043D01*
X008265Y011974D01*
X008317Y011974D01*
X008317Y012392D01*
X008394Y012392D01*
X008394Y011974D01*
X008446Y011974D01*
X008614Y012043D01*
X008743Y012172D01*
X008812Y012340D01*
X008812Y012392D01*
X008394Y012392D01*
X008394Y012469D01*
X008812Y012469D01*
X008812Y012522D01*
X008743Y012690D01*
X008614Y012818D01*
X008446Y012888D01*
X008394Y012888D01*
X008394Y012469D01*
X008317Y012469D01*
X008317Y012888D01*
X008265Y012888D01*
X008097Y012818D01*
X008085Y012807D01*
X008085Y013741D01*
X022365Y013741D01*
X022365Y009881D01*
X019265Y009881D01*
X019265Y009963D02*
X022365Y009963D01*
X022365Y010081D02*
X019265Y010081D01*
X019265Y010200D02*
X022365Y010200D01*
X022365Y010318D02*
X019265Y010318D01*
X019265Y010437D02*
X022365Y010437D01*
X022365Y010555D02*
X019265Y010555D01*
X018745Y010555D02*
X017115Y010555D01*
X017115Y010437D02*
X017399Y010437D01*
X017240Y010318D02*
X017115Y010318D01*
X017115Y010200D02*
X017178Y010200D01*
X017157Y010081D02*
X017115Y010081D01*
X017115Y009963D02*
X017169Y009963D01*
X017219Y009844D02*
X017115Y009844D01*
X017115Y009725D02*
X017295Y009725D01*
X017295Y009607D02*
X017115Y009607D01*
X017115Y009488D02*
X017205Y009488D01*
X017087Y009370D02*
X017022Y009370D01*
X016968Y009251D02*
X016904Y009251D01*
X016850Y009133D02*
X016785Y009133D01*
X016731Y009014D02*
X016666Y009014D01*
X016613Y008896D02*
X016548Y008896D01*
X016494Y008777D02*
X013865Y008777D01*
X013913Y008659D02*
X016376Y008659D01*
X016257Y008540D02*
X013913Y008540D01*
X013888Y008421D02*
X016138Y008421D01*
X016637Y008184D02*
X017401Y008184D01*
X017283Y008066D02*
X016518Y008066D01*
X016400Y007947D02*
X017164Y007947D01*
X017046Y007829D02*
X016281Y007829D01*
X016809Y007592D02*
X010785Y007592D01*
X010785Y007710D02*
X012007Y007710D01*
X011998Y007829D02*
X010746Y007829D01*
X010697Y007947D02*
X011998Y007947D01*
X011998Y008066D02*
X010634Y008066D01*
X010515Y008184D02*
X011998Y008184D01*
X011998Y008303D02*
X010356Y008303D01*
X009555Y008303D02*
X008812Y008303D01*
X008763Y008421D02*
X011998Y008421D01*
X012256Y008659D02*
X008468Y008659D01*
X008394Y008659D02*
X008317Y008659D01*
X008243Y008659D02*
X008085Y008659D01*
X008085Y008777D02*
X012103Y008777D01*
X012033Y008896D02*
X008085Y008896D01*
X008085Y009014D02*
X011998Y009014D01*
X011998Y009133D02*
X008085Y009133D01*
X008085Y009251D02*
X012035Y009251D01*
X012108Y009370D02*
X008085Y009370D01*
X008085Y009488D02*
X012269Y009488D01*
X012364Y009614D02*
X012196Y009683D01*
X012068Y009812D01*
X011998Y009980D01*
X011998Y010162D01*
X012068Y010330D01*
X012196Y010458D01*
X012364Y010528D01*
X012546Y010528D01*
X012714Y010458D01*
X012843Y010330D01*
X012913Y010162D01*
X012913Y009980D01*
X012843Y009812D01*
X012714Y009683D01*
X012546Y009614D01*
X012364Y009614D01*
X012154Y009725D02*
X008085Y009725D01*
X008085Y009607D02*
X012998Y009607D01*
X012998Y009488D02*
X012642Y009488D01*
X012803Y009370D02*
X013044Y009370D01*
X013025Y009725D02*
X012757Y009725D01*
X012856Y009844D02*
X013082Y009844D01*
X013207Y009963D02*
X012905Y009963D01*
X012913Y010081D02*
X015885Y010081D01*
X015911Y010200D02*
X013731Y010200D01*
X013729Y009963D02*
X013704Y009963D01*
X013180Y010200D02*
X012897Y010200D01*
X012848Y010318D02*
X013065Y010318D01*
X013016Y010437D02*
X012736Y010437D01*
X012692Y010674D02*
X013003Y010674D01*
X012998Y010555D02*
X008085Y010555D01*
X008085Y010437D02*
X012175Y010437D01*
X012063Y010318D02*
X008085Y010318D01*
X008085Y010200D02*
X012014Y010200D01*
X011998Y010081D02*
X008085Y010081D01*
X008085Y009963D02*
X012005Y009963D01*
X012055Y009844D02*
X008085Y009844D01*
X008085Y010674D02*
X012219Y010674D01*
X012196Y010683D02*
X012068Y010812D01*
X011998Y010980D01*
X011998Y011162D01*
X012068Y011330D01*
X012196Y011458D01*
X012364Y011528D01*
X012546Y011528D01*
X012714Y011458D01*
X012843Y011330D01*
X012913Y011162D01*
X012913Y010980D01*
X012843Y010812D01*
X012714Y010683D01*
X012546Y010614D01*
X012364Y010614D01*
X012196Y010683D01*
X012087Y010792D02*
X011402Y010792D01*
X011521Y010911D02*
X012027Y010911D01*
X011998Y011029D02*
X011639Y011029D01*
X011758Y011148D02*
X011998Y011148D01*
X012042Y011266D02*
X011876Y011266D01*
X011995Y011385D02*
X012123Y011385D01*
X012113Y011504D02*
X012306Y011504D01*
X012232Y011622D02*
X013018Y011622D01*
X013018Y011599D02*
X013018Y011658D01*
X013085Y011818D01*
X013208Y011941D01*
X013368Y012008D01*
X013427Y012008D01*
X013427Y011600D01*
X013484Y011600D01*
X013484Y012008D01*
X013542Y012008D01*
X013703Y011941D01*
X013826Y011818D01*
X013893Y011658D01*
X013893Y011599D01*
X013484Y011599D01*
X013484Y011542D01*
X013427Y011542D01*
X013427Y011134D01*
X013368Y011134D01*
X013208Y011200D01*
X013085Y011323D01*
X013018Y011484D01*
X013018Y011542D01*
X013427Y011542D01*
X013427Y011599D01*
X013018Y011599D01*
X013018Y011504D02*
X012605Y011504D01*
X012788Y011385D02*
X013059Y011385D01*
X013141Y011266D02*
X012869Y011266D01*
X012913Y011148D02*
X013334Y011148D01*
X013427Y011148D02*
X013484Y011148D01*
X013484Y011134D02*
X013484Y011542D01*
X013893Y011542D01*
X013893Y011484D01*
X013826Y011323D01*
X013703Y011200D01*
X013542Y011134D01*
X013484Y011134D01*
X013577Y011148D02*
X016570Y011148D01*
X016490Y011029D02*
X012913Y011029D01*
X012884Y010911D02*
X013149Y010911D01*
X013052Y010792D02*
X012823Y010792D01*
X013427Y011266D02*
X013484Y011266D01*
X013484Y011385D02*
X013427Y011385D01*
X013427Y011504D02*
X013484Y011504D01*
X013484Y011622D02*
X013427Y011622D01*
X013427Y011741D02*
X013484Y011741D01*
X013484Y011859D02*
X013427Y011859D01*
X013427Y011978D02*
X013484Y011978D01*
X013615Y011978D02*
X015685Y011978D01*
X015626Y012096D02*
X012706Y012096D01*
X012588Y011978D02*
X013296Y011978D01*
X013126Y011859D02*
X012469Y011859D01*
X012351Y011741D02*
X013053Y011741D01*
X013785Y011859D02*
X015838Y011859D01*
X016173Y011859D02*
X022365Y011859D01*
X022365Y011741D02*
X013858Y011741D01*
X013893Y011622D02*
X022365Y011622D01*
X022365Y011504D02*
X013893Y011504D01*
X013852Y011385D02*
X022365Y011385D01*
X022365Y011266D02*
X019090Y011266D01*
X018921Y011266D02*
X016940Y011266D01*
X016771Y011266D02*
X013769Y011266D01*
X013762Y010911D02*
X015836Y010911D01*
X016275Y010911D02*
X016457Y010911D01*
X016444Y010674D02*
X016506Y010674D01*
X016454Y010555D02*
X016595Y010555D01*
X016595Y010437D02*
X016431Y010437D01*
X016366Y010318D02*
X016595Y010318D01*
X016595Y010200D02*
X016200Y010200D01*
X016226Y010081D02*
X016595Y010081D01*
X016595Y009963D02*
X016377Y009963D01*
X016435Y009844D02*
X016595Y009844D01*
X016595Y009725D02*
X016454Y009725D01*
X016439Y009607D02*
X016524Y009607D01*
X016405Y009488D02*
X016386Y009488D01*
X016287Y009370D02*
X016248Y009370D01*
X017229Y008777D02*
X017845Y008777D01*
X017845Y008659D02*
X017111Y008659D01*
X016992Y008540D02*
X017757Y008540D01*
X017638Y008421D02*
X016874Y008421D01*
X016755Y008303D02*
X017520Y008303D01*
X017348Y008896D02*
X017845Y008896D01*
X017845Y009014D02*
X017466Y009014D01*
X017585Y009133D02*
X017900Y009133D01*
X018018Y009251D02*
X017704Y009251D01*
X017815Y009370D02*
X018137Y009370D01*
X018255Y009488D02*
X017815Y009488D01*
X017815Y009607D02*
X018374Y009607D01*
X018492Y009725D02*
X017815Y009725D01*
X017892Y009844D02*
X018611Y009844D01*
X018745Y009963D02*
X017941Y009963D01*
X017954Y010081D02*
X018745Y010081D01*
X018745Y010200D02*
X017933Y010200D01*
X017871Y010318D02*
X018745Y010318D01*
X018745Y010437D02*
X017712Y010437D01*
X017205Y010674D02*
X018656Y010674D01*
X018640Y011029D02*
X017221Y011029D01*
X017141Y011148D02*
X018720Y011148D01*
X019291Y011148D02*
X022365Y011148D01*
X022365Y011029D02*
X019371Y011029D01*
X019404Y010911D02*
X022365Y010911D01*
X022605Y011741D02*
X028625Y011741D01*
X028625Y011859D02*
X022605Y011859D01*
X022605Y011978D02*
X028625Y011978D01*
X028625Y012096D02*
X022605Y012096D01*
X022605Y012215D02*
X028625Y012215D01*
X028625Y012333D02*
X022605Y012333D01*
X022605Y012452D02*
X028625Y012452D01*
X028625Y012570D02*
X022605Y012570D01*
X022605Y012689D02*
X028625Y012689D01*
X028625Y012808D02*
X022605Y012808D01*
X022605Y012926D02*
X028625Y012926D01*
X028625Y013045D02*
X022605Y013045D01*
X022605Y013163D02*
X028625Y013163D01*
X028625Y013282D02*
X022605Y013282D01*
X022605Y013400D02*
X028625Y013400D01*
X028625Y013519D02*
X022605Y013519D01*
X022605Y013637D02*
X028625Y013637D01*
X022365Y013637D02*
X022061Y013637D01*
X022220Y013519D02*
X022365Y013519D01*
X022365Y013400D02*
X022283Y013400D01*
X022304Y013282D02*
X022365Y013282D01*
X022365Y013163D02*
X022292Y013163D01*
X022242Y013045D02*
X022365Y013045D01*
X022365Y012926D02*
X022213Y012926D01*
X022280Y012808D02*
X022365Y012808D01*
X022365Y012689D02*
X022304Y012689D01*
X022295Y012570D02*
X022365Y012570D01*
X022365Y012452D02*
X022246Y012452D01*
X022131Y012333D02*
X022365Y012333D01*
X022365Y012215D02*
X016404Y012215D01*
X016385Y012096D02*
X022365Y012096D01*
X022365Y011978D02*
X016325Y011978D01*
X015607Y012215D02*
X012825Y012215D01*
X012943Y012333D02*
X015621Y012333D01*
X015674Y012452D02*
X013062Y012452D01*
X013180Y012570D02*
X015809Y012570D01*
X016148Y012689D02*
X013299Y012689D01*
X013417Y012808D02*
X016267Y012808D01*
X016443Y012333D02*
X021680Y012333D01*
X021598Y012926D02*
X013536Y012926D01*
X013123Y013163D02*
X011687Y013163D01*
X011667Y013212D02*
X011758Y012991D01*
X011758Y012931D01*
X011216Y012931D01*
X011216Y012811D01*
X011758Y012811D01*
X011758Y012751D01*
X011667Y012529D01*
X011497Y012360D01*
X011275Y012268D01*
X011215Y012268D01*
X011215Y012811D01*
X011095Y012811D01*
X011095Y012931D01*
X010553Y012931D01*
X010553Y012991D01*
X010644Y013212D01*
X010814Y013382D01*
X011035Y013474D01*
X011095Y013474D01*
X011095Y012931D01*
X011215Y012931D01*
X011215Y013474D01*
X011275Y013474D01*
X011497Y013382D01*
X011667Y013212D01*
X011597Y013282D02*
X013241Y013282D01*
X013360Y013400D02*
X011453Y013400D01*
X011215Y013400D02*
X011095Y013400D01*
X011095Y013282D02*
X011215Y013282D01*
X011215Y013163D02*
X011095Y013163D01*
X011095Y013045D02*
X011215Y013045D01*
X011216Y012926D02*
X012886Y012926D01*
X013004Y013045D02*
X011736Y013045D01*
X011758Y012808D02*
X012767Y012808D01*
X012648Y012689D02*
X011733Y012689D01*
X011684Y012570D02*
X012530Y012570D01*
X012411Y012452D02*
X011589Y012452D01*
X011434Y012333D02*
X012293Y012333D01*
X012174Y012215D02*
X010785Y012215D01*
X010785Y012236D02*
X010785Y011906D01*
X010659Y011601D01*
X010425Y011367D01*
X010120Y011241D01*
X009790Y011241D01*
X009485Y011367D01*
X009252Y011601D01*
X009126Y011906D01*
X009126Y012236D01*
X009252Y012541D01*
X009485Y012774D01*
X009790Y012900D01*
X010120Y012900D01*
X010425Y012774D01*
X010626Y012573D01*
X010553Y012751D01*
X010553Y012811D01*
X011095Y012811D01*
X011095Y012268D01*
X011035Y012268D01*
X010814Y012360D01*
X010677Y012497D01*
X010785Y012236D01*
X010745Y012333D02*
X010877Y012333D01*
X010722Y012452D02*
X010695Y012452D01*
X011095Y012452D02*
X011215Y012452D01*
X011215Y012570D02*
X011095Y012570D01*
X011095Y012689D02*
X011215Y012689D01*
X011215Y012808D02*
X011095Y012808D01*
X011095Y012926D02*
X008085Y012926D01*
X008086Y012808D02*
X008085Y012808D01*
X008317Y012808D02*
X008394Y012808D01*
X008394Y012689D02*
X008317Y012689D01*
X008317Y012570D02*
X008394Y012570D01*
X008394Y012452D02*
X009215Y012452D01*
X009166Y012333D02*
X008810Y012333D01*
X008760Y012215D02*
X009126Y012215D01*
X009126Y012096D02*
X008667Y012096D01*
X008456Y011978D02*
X009126Y011978D01*
X009145Y011859D02*
X008567Y011859D01*
X008720Y011741D02*
X009194Y011741D01*
X009243Y011622D02*
X008792Y011622D01*
X008832Y011504D02*
X009349Y011504D01*
X009468Y011385D02*
X008832Y011385D01*
X008835Y011266D02*
X009729Y011266D01*
X010182Y011266D02*
X011226Y011266D01*
X011344Y011385D02*
X010443Y011385D01*
X010561Y011504D02*
X011463Y011504D01*
X011582Y011622D02*
X010668Y011622D01*
X010717Y011741D02*
X011700Y011741D01*
X011819Y011859D02*
X010766Y011859D01*
X010785Y011978D02*
X011937Y011978D01*
X012056Y012096D02*
X010785Y012096D01*
X011095Y012333D02*
X011215Y012333D01*
X010578Y012689D02*
X010510Y012689D01*
X010553Y012808D02*
X010344Y012808D01*
X010575Y013045D02*
X008085Y013045D01*
X008085Y013163D02*
X010624Y013163D01*
X010714Y013282D02*
X008085Y013282D01*
X008085Y013400D02*
X010858Y013400D01*
X009566Y012808D02*
X008625Y012808D01*
X008743Y012689D02*
X009400Y012689D01*
X009282Y012570D02*
X008792Y012570D01*
X008394Y012333D02*
X008317Y012333D01*
X008317Y012215D02*
X008394Y012215D01*
X008394Y012096D02*
X008317Y012096D01*
X008317Y011978D02*
X008394Y011978D01*
X008255Y011978D02*
X008085Y011978D01*
X008085Y011859D02*
X008144Y011859D01*
X008085Y010911D02*
X008540Y010911D01*
X008659Y010792D02*
X008085Y010792D01*
X008317Y008540D02*
X008394Y008540D01*
X008394Y008421D02*
X008317Y008421D01*
X008317Y008303D02*
X008394Y008303D01*
X008394Y008184D02*
X009396Y008184D01*
X009277Y008066D02*
X008790Y008066D01*
X008738Y007947D02*
X009213Y007947D01*
X009164Y007829D02*
X008619Y007829D01*
X008394Y007829D02*
X008317Y007829D01*
X008317Y007947D02*
X008394Y007947D01*
X008394Y008066D02*
X008317Y008066D01*
X008091Y007829D02*
X008085Y007829D01*
X008085Y007710D02*
X009126Y007710D01*
X009126Y007592D02*
X008649Y007592D01*
X008763Y007473D02*
X009126Y007473D01*
X009147Y007355D02*
X008812Y007355D01*
X008832Y007236D02*
X009196Y007236D01*
X009245Y007117D02*
X008832Y007117D01*
X008784Y006999D02*
X009354Y006999D01*
X009473Y006880D02*
X008699Y006880D01*
X008518Y006762D02*
X009741Y006762D01*
X010170Y006762D02*
X011095Y006762D01*
X011095Y006880D02*
X011215Y006880D01*
X011216Y006762D02*
X013707Y006762D01*
X013707Y006880D02*
X011758Y006880D01*
X011713Y006999D02*
X013748Y006999D01*
X013839Y007117D02*
X011661Y007117D01*
X011543Y007236D02*
X016453Y007236D01*
X016334Y007117D02*
X014372Y007117D01*
X013748Y006643D02*
X011755Y006643D01*
X011706Y006525D02*
X013838Y006525D01*
X014372Y006525D02*
X016184Y006525D01*
X016066Y006406D02*
X011644Y006406D01*
X011597Y006288D02*
X011525Y006288D01*
X011215Y006288D02*
X011095Y006288D01*
X011095Y006406D02*
X011215Y006406D01*
X011215Y006525D02*
X011095Y006525D01*
X011095Y006643D02*
X011215Y006643D01*
X011215Y006999D02*
X011095Y006999D01*
X011095Y007117D02*
X011215Y007117D01*
X011215Y007236D02*
X011095Y007236D01*
X011095Y007355D02*
X011215Y007355D01*
X011321Y007355D02*
X016572Y007355D01*
X016690Y007473D02*
X010785Y007473D01*
X010764Y007355D02*
X010989Y007355D01*
X010768Y007236D02*
X010715Y007236D01*
X010597Y006999D02*
X010557Y006999D01*
X010553Y006880D02*
X010438Y006880D01*
X010556Y006643D02*
X008085Y006643D01*
X008085Y006525D02*
X010605Y006525D01*
X010667Y006406D02*
X008085Y006406D01*
X008085Y006288D02*
X010786Y006288D01*
X011032Y006169D02*
X010519Y006169D01*
X010700Y006051D02*
X011011Y006051D01*
X011095Y006169D02*
X011192Y006169D01*
X010927Y005932D02*
X010784Y005932D01*
X010832Y005814D02*
X010879Y005814D01*
X010879Y005695D02*
X010832Y005695D01*
X010192Y006169D02*
X009519Y006169D01*
X009700Y006051D02*
X010011Y006051D01*
X009927Y005932D02*
X009784Y005932D01*
X009832Y005814D02*
X009879Y005814D01*
X009879Y005695D02*
X009832Y005695D01*
X009011Y006051D02*
X008700Y006051D01*
X008784Y005932D02*
X008927Y005932D01*
X008879Y005814D02*
X008832Y005814D01*
X008832Y005695D02*
X008879Y005695D01*
X009192Y006169D02*
X008519Y006169D01*
X008192Y006169D02*
X008085Y006169D01*
X008085Y006762D02*
X008193Y006762D01*
X008672Y008540D02*
X012998Y008540D01*
X012998Y008659D02*
X012655Y008659D01*
X012808Y008777D02*
X013046Y008777D01*
X013022Y008421D02*
X012913Y008421D01*
X012904Y007710D02*
X016927Y007710D01*
X019838Y008540D02*
X019923Y008540D01*
X021519Y006169D02*
X022192Y006169D01*
X025519Y006169D02*
X026192Y006169D01*
X028270Y007829D02*
X028625Y007829D01*
X028625Y007947D02*
X028394Y007947D01*
X028443Y008066D02*
X028625Y008066D01*
X028625Y008184D02*
X028454Y008184D01*
X028432Y008303D02*
X028625Y008303D01*
X028625Y008421D02*
X028471Y008421D01*
X028495Y008540D02*
X028625Y008540D01*
X028625Y008659D02*
X028495Y008659D01*
X028495Y008777D02*
X028625Y008777D01*
X028625Y008896D02*
X028495Y008896D01*
X028495Y009014D02*
X028625Y009014D01*
X028625Y009133D02*
X028438Y009133D01*
X027935Y009370D02*
X027816Y009370D01*
X027816Y009488D02*
X027935Y009488D01*
X027935Y009607D02*
X027816Y009607D01*
X021590Y013519D02*
X008085Y013519D01*
X008085Y013637D02*
X021750Y013637D01*
D20*
X021905Y013271D03*
X021905Y012671D03*
X019005Y010871D03*
X017555Y010071D03*
X016055Y009721D03*
X016055Y010571D03*
X016855Y010871D03*
X016005Y012221D03*
X021955Y008971D03*
X020205Y008821D03*
X019555Y008821D03*
X018655Y008821D03*
X014105Y006821D03*
X026955Y009671D03*
X027855Y011171D03*
X028055Y008171D03*
D21*
X028055Y008761D01*
X027875Y008761D01*
X027005Y009671D02*
X026955Y009671D01*
X026005Y010421D02*
X025455Y010421D01*
X025455Y009721D01*
X025435Y009701D01*
X025435Y009671D01*
X025405Y009671D01*
X025405Y008921D01*
X024855Y008921D01*
X025405Y008921D02*
X026005Y008921D01*
X024155Y009621D02*
X019005Y009621D01*
X018755Y009621D01*
X018105Y008971D01*
X018105Y008521D01*
X016405Y006821D01*
X014105Y006821D01*
X012455Y008071D02*
X016155Y008071D01*
X017555Y009471D01*
X017555Y010071D01*
X016855Y009571D02*
X016355Y009071D01*
X012455Y009071D01*
X013455Y009571D02*
X013705Y009571D01*
X013855Y009721D01*
X016055Y009721D01*
X016855Y009571D02*
X016855Y010871D01*
X016055Y010571D02*
X013455Y010571D01*
X019005Y010871D02*
X019005Y009621D01*
X024855Y010421D02*
X025455Y010421D01*
X027855Y010571D02*
X027855Y010581D01*
X027855Y011171D01*
X027855Y010581D02*
X027875Y010581D01*
M02*
