G75*
G70*
%OFA0B0*%
%FSLAX24Y24*%
%IPPOS*%
%LPD*%
%AMOC8*
5,1,8,0,0,1.08239X$1,22.5*
%
%ADD10C,0.0060*%
%ADD11C,0.0674*%
%ADD12C,0.1379*%
%ADD13R,0.0634X0.0634*%
%ADD14C,0.0634*%
%ADD15C,0.0966*%
%ADD16R,0.0960X0.0560*%
%ADD17R,0.0946X0.1497*%
%ADD18C,0.0516*%
D10*
X000375Y010351D02*
X000696Y010351D01*
X000802Y010458D01*
X000802Y010671D01*
X000696Y010778D01*
X000375Y010778D01*
X000375Y010991D02*
X000375Y010351D01*
X001020Y010458D02*
X001020Y010671D01*
X001127Y010778D01*
X001340Y010778D01*
X001447Y010671D01*
X001447Y010458D01*
X001340Y010351D01*
X001127Y010351D01*
X001020Y010458D01*
X001664Y010778D02*
X001878Y010778D01*
X001771Y010885D02*
X001771Y010458D01*
X001878Y010351D01*
X002201Y010458D02*
X002308Y010351D01*
X002201Y010458D02*
X002201Y010885D01*
X002094Y010778D02*
X002308Y010778D01*
X002524Y010671D02*
X002524Y010458D01*
X002631Y010351D01*
X002844Y010351D01*
X002951Y010458D01*
X002951Y010671D01*
X002844Y010778D01*
X002631Y010778D01*
X002524Y010671D01*
X003168Y010778D02*
X003168Y010351D01*
X003382Y010351D02*
X003382Y010671D01*
X003489Y010778D01*
X003595Y010671D01*
X003595Y010351D01*
X003382Y010671D02*
X003275Y010778D01*
X003168Y010778D01*
D11*
X008355Y005721D03*
X009355Y005721D03*
X010355Y005721D03*
X011355Y005721D03*
X012355Y005721D03*
X013355Y005721D03*
X014355Y005721D03*
X015355Y005721D03*
X016355Y005721D03*
X017355Y005721D03*
X018355Y005721D03*
X019355Y005721D03*
X020355Y005721D03*
X021355Y005721D03*
X022355Y005721D03*
X023355Y005721D03*
X024355Y005721D03*
X025355Y005721D03*
X026355Y005721D03*
X027355Y005721D03*
X028355Y005721D03*
X008355Y007211D03*
X008355Y008211D03*
X008355Y011431D03*
X008355Y012431D03*
D12*
X009955Y012071D03*
X009955Y007571D03*
D13*
X012455Y008071D03*
D14*
X013455Y008571D03*
X012455Y009071D03*
X013455Y009571D03*
X012455Y010071D03*
X013455Y010571D03*
X012455Y011071D03*
X013455Y011571D03*
D15*
X011155Y012871D03*
X011155Y006771D03*
D16*
X027875Y008761D03*
X027875Y009671D03*
X027875Y010581D03*
D17*
X025435Y009671D03*
D18*
X026955Y009671D03*
X027855Y011171D03*
X028055Y008171D03*
X021955Y008971D03*
X020205Y008821D03*
X019555Y008821D03*
X018655Y008821D03*
X017555Y010071D03*
X016055Y009721D03*
X016055Y010571D03*
X016855Y010871D03*
X019005Y010871D03*
X016005Y012221D03*
X021905Y012671D03*
X021905Y013271D03*
X014105Y006821D03*
M02*
