G75*
G70*
%OFA0B0*%
%FSLAX24Y24*%
%IPPOS*%
%LPD*%
%AMOC8*
5,1,8,0,0,1.08239X$1,22.5*
%
%ADD10C,0.0000*%
%ADD11C,0.0060*%
%ADD12C,0.0050*%
%ADD13C,0.0080*%
%ADD14C,0.0100*%
D10*
X003649Y000907D02*
X043019Y000907D01*
X043019Y007206D01*
X003649Y007206D01*
X003649Y000907D01*
D11*
X023241Y005245D02*
X023348Y005138D01*
X023562Y005138D01*
X023669Y005245D01*
X023669Y005672D01*
X023562Y005778D01*
X023348Y005778D01*
X023241Y005672D01*
X023241Y005245D01*
X023455Y005351D02*
X023669Y005138D01*
X023993Y005245D02*
X024100Y005138D01*
X023993Y005245D02*
X023993Y005672D01*
X023886Y005565D02*
X024100Y005565D01*
X024316Y005458D02*
X024422Y005565D01*
X024636Y005565D01*
X024743Y005458D01*
X024743Y005245D01*
X024636Y005138D01*
X024422Y005138D01*
X024316Y005245D01*
X024316Y005458D01*
X024960Y005565D02*
X024960Y005245D01*
X025067Y005138D01*
X025387Y005138D01*
X025387Y005565D01*
X025605Y005458D02*
X025711Y005565D01*
X026032Y005565D01*
X026249Y005458D02*
X026356Y005565D01*
X026570Y005565D01*
X026676Y005458D01*
X026676Y005138D01*
X026249Y005138D02*
X026249Y005778D01*
X027222Y005565D02*
X027435Y005138D01*
X027649Y005565D01*
X027866Y005565D02*
X028080Y005778D01*
X028080Y005138D01*
X028293Y005138D02*
X027866Y005138D01*
X026032Y005138D02*
X025711Y005138D01*
X025605Y005245D01*
X025605Y005458D01*
X025604Y005992D02*
X025497Y006099D01*
X025604Y006206D01*
X025924Y006206D01*
X025924Y006312D02*
X025924Y005992D01*
X025604Y005992D01*
X025282Y005992D02*
X025175Y005992D01*
X025175Y006099D01*
X025282Y006099D01*
X025282Y005992D01*
X024958Y006099D02*
X024958Y006419D01*
X024531Y006419D02*
X024531Y006099D01*
X024637Y005992D01*
X024744Y006099D01*
X024851Y005992D01*
X024958Y006099D01*
X024313Y006099D02*
X024313Y006419D01*
X023886Y006419D02*
X023886Y006099D01*
X023993Y005992D01*
X024100Y006099D01*
X024206Y005992D01*
X024313Y006099D01*
X023669Y006099D02*
X023562Y005992D01*
X023455Y006099D01*
X023348Y005992D01*
X023241Y006099D01*
X023241Y006419D01*
X023669Y006419D02*
X023669Y006099D01*
X025604Y006419D02*
X025818Y006419D01*
X025924Y006312D01*
X026142Y006419D02*
X026142Y006099D01*
X026249Y005992D01*
X026569Y005992D01*
X026569Y006419D01*
X026786Y006419D02*
X026893Y006419D01*
X027000Y006312D01*
X027107Y006419D01*
X027213Y006312D01*
X027213Y005992D01*
X027000Y005992D02*
X027000Y006312D01*
X026786Y006419D02*
X026786Y005992D01*
X027431Y005992D02*
X027644Y005992D01*
X027538Y005992D02*
X027538Y006633D01*
X027431Y006633D01*
X028183Y006312D02*
X028290Y006419D01*
X028610Y006419D01*
X028827Y006312D02*
X028934Y006419D01*
X029148Y006419D01*
X029254Y006312D01*
X029254Y006206D01*
X028827Y006206D01*
X028827Y006312D02*
X028827Y006099D01*
X028934Y005992D01*
X029148Y005992D01*
X028610Y006099D02*
X028503Y006206D01*
X028290Y006206D01*
X028183Y006312D01*
X027967Y006099D02*
X027967Y005992D01*
X027861Y005992D01*
X027861Y006099D01*
X027967Y006099D01*
X028183Y005992D02*
X028503Y005992D01*
X028610Y006099D01*
D12*
X041441Y003233D02*
X041441Y002932D01*
X041141Y002932D02*
X040991Y003082D01*
X041441Y003082D01*
X041216Y002772D02*
X041066Y002772D01*
X040991Y002697D01*
X040991Y002472D01*
X041441Y002472D01*
X041291Y002472D02*
X041291Y002697D01*
X041216Y002772D01*
X040991Y002312D02*
X040991Y002162D01*
X040991Y002237D02*
X041366Y002237D01*
X041441Y002162D01*
X041441Y002087D01*
X041366Y002012D01*
X004830Y001631D02*
X004830Y001573D01*
X004772Y001514D01*
X004655Y001514D01*
X004597Y001573D01*
X004597Y001631D01*
X004655Y001689D01*
X004772Y001689D01*
X004830Y001631D01*
X004462Y001631D02*
X004462Y001514D01*
X004404Y001456D01*
X004229Y001456D01*
X004345Y001456D02*
X004462Y001339D01*
X004597Y001398D02*
X004655Y001339D01*
X004772Y001339D01*
X004830Y001398D01*
X004830Y001456D01*
X004772Y001514D01*
X004655Y001514D02*
X004597Y001456D01*
X004597Y001398D01*
X004229Y001339D02*
X004229Y001689D01*
X004404Y001689D01*
X004462Y001631D01*
X004354Y005537D02*
X004588Y005887D01*
X004723Y005829D02*
X004781Y005887D01*
X004898Y005887D01*
X004956Y005829D01*
X004956Y005770D01*
X004723Y005537D01*
X004956Y005537D01*
X004588Y005537D02*
X004354Y005887D01*
D13*
X017844Y005818D02*
X017844Y005604D01*
X017898Y005551D01*
X018005Y005551D01*
X018058Y005604D01*
X018213Y005604D02*
X018266Y005551D01*
X018373Y005551D01*
X018426Y005604D01*
X018426Y005711D01*
X018373Y005765D01*
X018319Y005765D01*
X018213Y005711D01*
X018213Y005871D01*
X018426Y005871D01*
X018058Y005818D02*
X018005Y005871D01*
X017898Y005871D01*
X017844Y005818D01*
X017917Y006075D02*
X018024Y006075D01*
X018078Y006128D01*
X018232Y006075D02*
X018446Y006075D01*
X018339Y006075D02*
X018339Y006395D01*
X018232Y006288D01*
X018078Y006342D02*
X018024Y006395D01*
X017917Y006395D01*
X017864Y006342D01*
X017864Y006128D01*
X017917Y006075D01*
X017864Y006623D02*
X017864Y006944D01*
X018024Y006944D01*
X018078Y006890D01*
X018078Y006784D01*
X018024Y006730D01*
X017864Y006730D01*
X017971Y006730D02*
X018078Y006623D01*
X018232Y006677D02*
X018286Y006623D01*
X018393Y006623D01*
X018446Y006677D01*
X018446Y006784D01*
X018393Y006837D01*
X018339Y006837D01*
X018232Y006784D01*
X018232Y006944D01*
X018446Y006944D01*
X019944Y006944D02*
X020104Y006944D01*
X020157Y006891D01*
X020157Y006784D01*
X020104Y006731D01*
X019944Y006731D01*
X020050Y006731D02*
X020157Y006624D01*
X020312Y006624D02*
X020525Y006624D01*
X020419Y006624D02*
X020419Y006944D01*
X020312Y006838D01*
X019944Y006944D02*
X019944Y006624D01*
X018396Y005151D02*
X018236Y004991D01*
X018450Y004991D01*
X018082Y004991D02*
X018028Y004937D01*
X017868Y004937D01*
X017868Y004831D02*
X017868Y005151D01*
X018028Y005151D01*
X018082Y005097D01*
X018082Y004991D01*
X017975Y004937D02*
X018082Y004831D01*
X018396Y004831D02*
X018396Y005151D01*
X018422Y004661D02*
X018209Y004661D01*
X018054Y004608D02*
X018001Y004661D01*
X017840Y004661D01*
X017840Y004341D01*
X017840Y004448D02*
X018001Y004448D01*
X018054Y004501D01*
X018054Y004608D01*
X018209Y004394D02*
X018422Y004608D01*
X018422Y004661D01*
X018054Y004341D02*
X017947Y004448D01*
X018209Y004394D02*
X018209Y004341D01*
X018374Y004002D02*
X018534Y004002D01*
X018587Y003949D01*
X018587Y003842D01*
X018534Y003788D01*
X018374Y003788D01*
X018480Y003788D02*
X018587Y003682D01*
X018742Y003735D02*
X018795Y003682D01*
X018902Y003682D01*
X018955Y003735D01*
X018955Y003788D01*
X018902Y003842D01*
X018742Y003842D01*
X018742Y003735D01*
X018742Y003842D02*
X018849Y003949D01*
X018955Y004002D01*
X018374Y004002D02*
X018374Y003682D01*
X017821Y003292D02*
X017767Y003345D01*
X017661Y003345D01*
X017607Y003292D01*
X017714Y003185D02*
X017767Y003185D01*
X017821Y003132D01*
X017821Y003078D01*
X017767Y003025D01*
X017661Y003025D01*
X017607Y003078D01*
X017452Y003078D02*
X017399Y003025D01*
X017292Y003025D01*
X017239Y003078D01*
X017239Y003292D01*
X017292Y003345D01*
X017399Y003345D01*
X017452Y003292D01*
X017767Y003185D02*
X017821Y003239D01*
X017821Y003292D01*
X017874Y002774D02*
X017821Y002721D01*
X017821Y002508D01*
X017874Y002454D01*
X017981Y002454D01*
X018034Y002508D01*
X018189Y002454D02*
X018403Y002668D01*
X018403Y002721D01*
X018349Y002774D01*
X018242Y002774D01*
X018189Y002721D01*
X018034Y002721D02*
X017981Y002774D01*
X017874Y002774D01*
X018189Y002454D02*
X018403Y002454D01*
X018389Y002216D02*
X018442Y002163D01*
X018442Y002109D01*
X018389Y002056D01*
X018442Y002003D01*
X018442Y001949D01*
X018389Y001896D01*
X018282Y001896D01*
X018228Y001949D01*
X018335Y002056D02*
X018389Y002056D01*
X018282Y002216D02*
X018228Y002163D01*
X018282Y002216D02*
X018389Y002216D01*
X018074Y002163D02*
X018074Y002056D01*
X018020Y002003D01*
X017860Y002003D01*
X017967Y002003D02*
X018074Y001896D01*
X017860Y001896D02*
X017860Y002216D01*
X018020Y002216D01*
X018074Y002163D01*
X018107Y001695D02*
X018000Y001695D01*
X017947Y001642D01*
X017947Y001428D01*
X018000Y001375D01*
X018107Y001375D01*
X018160Y001428D01*
X018315Y001535D02*
X018529Y001535D01*
X018475Y001695D02*
X018315Y001535D01*
X018160Y001642D02*
X018107Y001695D01*
X018475Y001695D02*
X018475Y001375D01*
X040569Y005891D02*
X040569Y006051D01*
X040622Y006105D01*
X040729Y006105D01*
X040782Y006051D01*
X040782Y005891D01*
X040889Y005891D02*
X040569Y005891D01*
X040782Y005998D02*
X040889Y006105D01*
X040889Y006259D02*
X040675Y006473D01*
X040622Y006473D01*
X040569Y006420D01*
X040569Y006313D01*
X040622Y006259D01*
X040889Y006259D02*
X040889Y006473D01*
D14*
X041095Y005179D02*
X041028Y005113D01*
X041028Y004979D01*
X041095Y004912D01*
X041162Y005179D02*
X041429Y004912D01*
X041429Y005179D01*
X041162Y005179D02*
X041095Y005179D01*
X041095Y004719D02*
X041229Y004719D01*
X041295Y004652D01*
X041295Y004452D01*
X041429Y004452D02*
X041028Y004452D01*
X041028Y004652D01*
X041095Y004719D01*
X041028Y004259D02*
X041028Y004125D01*
X041028Y004192D02*
X041362Y004192D01*
X041429Y004125D01*
X041429Y004058D01*
X041362Y003992D01*
M02*
