%
M48
M72
T01C0.0160
T02C0.0354
T03C0.0394
T04C0.0591
T05C0.1299
%
T01
X2806Y8171
X3906Y9671
X3006Y11171
X8956Y12671
X8956Y13271
X11856Y10871
X13306Y10071
X14006Y10871
X14806Y10571
X14806Y9721
X12206Y8821
X11306Y8821
X10656Y8821
X8906Y8971
X14856Y12221
X16756Y6821
T02
X18406Y8071
X17406Y8571
X18406Y9071
X17406Y9571
X18406Y10071
X17406Y10571
X18406Y11071
X17406Y11571
T03
X2506Y5721
X3506Y5721
X4506Y5721
X5506Y5721
X6506Y5721
X7506Y5721
X8506Y5721
X9506Y5721
X10506Y5721
X11506Y5721
X12506Y5721
X13506Y5721
X14506Y5721
X15506Y5721
X16506Y5721
X17506Y5721
X18506Y5721
X19506Y5721
X20506Y5721
X21506Y5721
X22506Y5721
X22506Y7211
X22506Y8211
X22506Y11431
X22506Y12431
T04
X19706Y12871
X19706Y6771
T05
X20906Y7571
X20906Y12071
M30
