G75*
G70*
%OFA0B0*%
%FSLAX24Y24*%
%IPPOS*%
%LPD*%
%AMOC8*
5,1,8,0,0,1.08239X$1,22.5*
%
%ADD10C,0.0594*%
%ADD11R,0.0554X0.0554*%
%ADD12C,0.0554*%
%ADD13C,0.0886*%
%ADD14R,0.0880X0.0480*%
%ADD15R,0.0866X0.1417*%
%ADD16C,0.0120*%
%ADD17C,0.0360*%
%ADD18C,0.0160*%
%ADD19C,0.0100*%
D10*
X003558Y005721D03*
X004558Y005721D03*
X005558Y005721D03*
X006558Y005721D03*
X007558Y005721D03*
X008558Y005721D03*
X009558Y005721D03*
X010558Y005721D03*
X011558Y005721D03*
X012558Y005721D03*
X013558Y005721D03*
X014558Y005721D03*
X015558Y005721D03*
X016558Y005721D03*
X017558Y005721D03*
X018558Y005721D03*
X019558Y005721D03*
X020558Y005721D03*
X021558Y005721D03*
X022558Y005721D03*
X023558Y005721D03*
X003558Y007211D03*
X003558Y008211D03*
X003558Y011431D03*
X003558Y012431D03*
D11*
X007658Y008071D03*
D12*
X008658Y008571D03*
X007658Y009071D03*
X008658Y009571D03*
X007658Y010071D03*
X008658Y010571D03*
X007658Y011071D03*
X008658Y011571D03*
D13*
X006358Y012871D03*
X006358Y006771D03*
D14*
X023078Y008761D03*
X023078Y009671D03*
X023078Y010581D03*
D15*
X020638Y009671D03*
D16*
X020698Y009725D02*
X023018Y009725D01*
X023018Y009731D02*
X022478Y009731D01*
X022478Y009977D01*
X022572Y010071D01*
X023018Y010071D01*
X023018Y009731D01*
X023138Y009731D01*
X023138Y010071D01*
X023584Y010071D01*
X023678Y009977D01*
X023678Y009731D01*
X023138Y009731D01*
X023138Y009611D01*
X023678Y009611D01*
X023678Y009364D01*
X023584Y009271D01*
X023138Y009271D01*
X023138Y009611D01*
X023018Y009611D01*
X023018Y009731D01*
X023018Y009844D02*
X023138Y009844D01*
X023138Y009963D02*
X023018Y009963D01*
X023138Y009725D02*
X023878Y009725D01*
X023878Y009607D02*
X023678Y009607D01*
X023678Y009488D02*
X023878Y009488D01*
X023878Y009370D02*
X023678Y009370D01*
X023878Y009251D02*
X021231Y009251D01*
X021231Y009133D02*
X022515Y009133D01*
X022563Y009181D02*
X023592Y009181D01*
X023698Y009075D01*
X023698Y008446D01*
X023592Y008341D01*
X023577Y008341D01*
X023618Y008242D01*
X023618Y008099D01*
X023563Y007967D01*
X023462Y007866D01*
X023330Y007811D01*
X023186Y007811D01*
X023054Y007866D01*
X022953Y007967D01*
X022898Y008099D01*
X022898Y008242D01*
X022939Y008341D01*
X022563Y008341D01*
X022458Y008446D01*
X022458Y009075D01*
X022563Y009181D01*
X022572Y009271D02*
X022478Y009364D01*
X022478Y009611D01*
X023018Y009611D01*
X023018Y009271D01*
X022572Y009271D01*
X022478Y009370D02*
X021231Y009370D01*
X021231Y009488D02*
X022478Y009488D01*
X022478Y009607D02*
X021231Y009607D01*
X021231Y009611D02*
X021231Y008896D01*
X021137Y008802D01*
X020698Y008802D01*
X020698Y009611D01*
X021231Y009611D01*
X021231Y009731D02*
X020698Y009731D01*
X020698Y010539D01*
X021137Y010539D01*
X021231Y010446D01*
X021231Y009731D01*
X021231Y009844D02*
X022478Y009844D01*
X022478Y009963D02*
X021231Y009963D01*
X021231Y010081D02*
X023878Y010081D01*
X023878Y009963D02*
X023678Y009963D01*
X023678Y009844D02*
X023878Y009844D01*
X023878Y010200D02*
X023631Y010200D01*
X023592Y010161D02*
X022563Y010161D01*
X022458Y010266D01*
X022458Y010895D01*
X022563Y011001D01*
X022739Y011001D01*
X022698Y011099D01*
X022698Y011242D01*
X022753Y011375D01*
X022854Y011476D01*
X022986Y011531D01*
X023130Y011531D01*
X023262Y011476D01*
X023363Y011375D01*
X023418Y011242D01*
X023418Y011099D01*
X023377Y011001D01*
X023592Y011001D01*
X023698Y010895D01*
X023698Y010266D01*
X023592Y010161D01*
X023698Y010318D02*
X023878Y010318D01*
X023878Y010437D02*
X023698Y010437D01*
X023698Y010555D02*
X023878Y010555D01*
X023878Y010674D02*
X023698Y010674D01*
X023698Y010792D02*
X023878Y010792D01*
X023878Y010911D02*
X023682Y010911D01*
X023878Y011029D02*
X023389Y011029D01*
X023418Y011148D02*
X023878Y011148D01*
X023878Y011266D02*
X023408Y011266D01*
X023353Y011385D02*
X023878Y011385D01*
X023878Y011504D02*
X023195Y011504D01*
X022921Y011504D02*
X017808Y011504D01*
X017808Y011622D02*
X023878Y011622D01*
X023878Y011741D02*
X017808Y011741D01*
X017808Y011859D02*
X023878Y011859D01*
X023878Y011978D02*
X017808Y011978D01*
X017808Y012096D02*
X023878Y012096D01*
X023878Y012215D02*
X017808Y012215D01*
X017808Y012333D02*
X023878Y012333D01*
X023878Y012452D02*
X017808Y012452D01*
X017808Y012570D02*
X023878Y012570D01*
X023878Y012689D02*
X017808Y012689D01*
X017808Y012808D02*
X023878Y012808D01*
X023878Y012926D02*
X017808Y012926D01*
X017808Y013045D02*
X023878Y013045D01*
X023878Y013163D02*
X017808Y013163D01*
X017808Y013282D02*
X023878Y013282D01*
X023878Y013400D02*
X017808Y013400D01*
X017808Y013519D02*
X023878Y013519D01*
X023878Y013637D02*
X017808Y013637D01*
X017808Y013756D02*
X023878Y013756D01*
X023878Y013791D02*
X017808Y013791D01*
X017808Y006821D01*
X023878Y006821D01*
X023878Y013791D01*
X022763Y011385D02*
X017808Y011385D01*
X017808Y011266D02*
X022708Y011266D01*
X022698Y011148D02*
X017808Y011148D01*
X017808Y011029D02*
X022727Y011029D01*
X022474Y010911D02*
X017808Y010911D01*
X017808Y010792D02*
X022458Y010792D01*
X022458Y010674D02*
X017808Y010674D01*
X017808Y010555D02*
X022458Y010555D01*
X022458Y010437D02*
X021231Y010437D01*
X021231Y010318D02*
X022458Y010318D01*
X022525Y010200D02*
X021231Y010200D01*
X020698Y010200D02*
X020578Y010200D01*
X020578Y010318D02*
X020698Y010318D01*
X020698Y010437D02*
X020578Y010437D01*
X020578Y010539D02*
X020578Y009731D01*
X020698Y009731D01*
X020698Y009611D01*
X020578Y009611D01*
X020578Y009731D01*
X020045Y009731D01*
X020045Y010446D01*
X020139Y010539D01*
X020578Y010539D01*
X020045Y010437D02*
X017808Y010437D01*
X017808Y010318D02*
X020045Y010318D01*
X020045Y010200D02*
X017808Y010200D01*
X017808Y010081D02*
X020045Y010081D01*
X020045Y009963D02*
X017808Y009963D01*
X017808Y009844D02*
X020045Y009844D01*
X020045Y009611D02*
X020578Y009611D01*
X020578Y008802D01*
X020139Y008802D01*
X020045Y008896D01*
X020045Y009611D01*
X020045Y009607D02*
X017808Y009607D01*
X017808Y009725D02*
X020578Y009725D01*
X020578Y009607D02*
X020698Y009607D01*
X020698Y009488D02*
X020578Y009488D01*
X020578Y009370D02*
X020698Y009370D01*
X020698Y009251D02*
X020578Y009251D01*
X020578Y009133D02*
X020698Y009133D01*
X020698Y009014D02*
X020578Y009014D01*
X020578Y008896D02*
X020698Y008896D01*
X021231Y008896D02*
X022458Y008896D01*
X022458Y009014D02*
X021231Y009014D01*
X020045Y009014D02*
X017808Y009014D01*
X017808Y008896D02*
X020045Y008896D01*
X020045Y009133D02*
X017808Y009133D01*
X017808Y009251D02*
X020045Y009251D01*
X020045Y009370D02*
X017808Y009370D01*
X017808Y009488D02*
X020045Y009488D01*
X020578Y009844D02*
X020698Y009844D01*
X020698Y009963D02*
X020578Y009963D01*
X020578Y010081D02*
X020698Y010081D01*
X022458Y008777D02*
X017808Y008777D01*
X017808Y008659D02*
X022458Y008659D01*
X022458Y008540D02*
X017808Y008540D01*
X017808Y008421D02*
X022483Y008421D01*
X022923Y008303D02*
X017808Y008303D01*
X017808Y008184D02*
X022898Y008184D01*
X022912Y008066D02*
X017808Y008066D01*
X017808Y007947D02*
X022972Y007947D01*
X023143Y007829D02*
X017808Y007829D01*
X017808Y007710D02*
X023878Y007710D01*
X023878Y007592D02*
X017808Y007592D01*
X017808Y007473D02*
X023878Y007473D01*
X023878Y007355D02*
X017808Y007355D01*
X017808Y007236D02*
X023878Y007236D01*
X023878Y007117D02*
X017808Y007117D01*
X017808Y006999D02*
X023878Y006999D01*
X023878Y006880D02*
X017808Y006880D01*
X017568Y006880D02*
X014988Y006880D01*
X014988Y006826D02*
X014018Y005856D01*
X014035Y005816D01*
X014035Y005671D01*
X014081Y005671D01*
X014081Y005816D01*
X014154Y005991D01*
X014288Y006125D01*
X014463Y006198D01*
X014653Y006198D01*
X014828Y006125D01*
X014962Y005991D01*
X015035Y005816D01*
X015035Y005671D01*
X015081Y005671D01*
X015081Y005816D01*
X015154Y005991D01*
X015288Y006125D01*
X015463Y006198D01*
X015653Y006198D01*
X015828Y006125D01*
X015962Y005991D01*
X016035Y005816D01*
X016035Y005671D01*
X016081Y005671D01*
X016081Y005816D01*
X016154Y005991D01*
X016288Y006125D01*
X016463Y006198D01*
X016653Y006198D01*
X016828Y006125D01*
X016962Y005991D01*
X017035Y005816D01*
X017035Y005671D01*
X017081Y005671D01*
X017081Y005816D01*
X017154Y005991D01*
X017288Y006125D01*
X017463Y006198D01*
X017653Y006198D01*
X017828Y006125D01*
X017962Y005991D01*
X018035Y005816D01*
X018035Y005671D01*
X018081Y005671D01*
X018081Y005816D01*
X018154Y005991D01*
X018288Y006125D01*
X018463Y006198D01*
X018653Y006198D01*
X018828Y006125D01*
X018962Y005991D01*
X019035Y005816D01*
X019035Y005671D01*
X019081Y005671D01*
X019081Y005816D01*
X019154Y005991D01*
X019288Y006125D01*
X019463Y006198D01*
X019653Y006198D01*
X019828Y006125D01*
X019962Y005991D01*
X020035Y005816D01*
X020035Y005671D01*
X020081Y005671D01*
X020081Y005816D01*
X020154Y005991D01*
X020288Y006125D01*
X020463Y006198D01*
X020653Y006198D01*
X020828Y006125D01*
X020962Y005991D01*
X021035Y005816D01*
X021035Y005671D01*
X021081Y005671D01*
X021081Y005816D01*
X021154Y005991D01*
X021288Y006125D01*
X021463Y006198D01*
X021653Y006198D01*
X021828Y006125D01*
X021962Y005991D01*
X022035Y005816D01*
X022035Y005671D01*
X022081Y005671D01*
X022081Y005816D01*
X022154Y005991D01*
X022288Y006125D01*
X022463Y006198D01*
X022653Y006198D01*
X022828Y006125D01*
X022962Y005991D01*
X023035Y005816D01*
X023035Y005671D01*
X023101Y005671D01*
X023101Y005682D01*
X023519Y005682D01*
X023519Y005759D01*
X023101Y005759D01*
X023101Y005812D01*
X023171Y005980D01*
X023299Y006108D01*
X023467Y006178D01*
X023519Y006178D01*
X023519Y005759D01*
X023596Y005759D01*
X023596Y006178D01*
X023649Y006178D01*
X023817Y006108D01*
X023878Y006047D01*
X023878Y006581D01*
X017709Y006581D01*
X017568Y006721D01*
X017568Y006920D01*
X017568Y009361D01*
X015193Y009361D01*
X015238Y009316D01*
X015373Y009181D01*
X015480Y009181D01*
X015612Y009126D01*
X015713Y009025D01*
X015768Y008892D01*
X015768Y008749D01*
X015713Y008617D01*
X015612Y008516D01*
X015480Y008461D01*
X015336Y008461D01*
X015204Y008516D01*
X015103Y008617D01*
X015083Y008665D01*
X015063Y008617D01*
X014988Y008542D01*
X014988Y007016D01*
X014988Y006826D01*
X014924Y006762D02*
X017568Y006762D01*
X017646Y006643D02*
X014806Y006643D01*
X014687Y006525D02*
X023878Y006525D01*
X023878Y006406D02*
X014569Y006406D01*
X014450Y006288D02*
X023878Y006288D01*
X023878Y006169D02*
X023669Y006169D01*
X023596Y006169D02*
X023519Y006169D01*
X023447Y006169D02*
X022721Y006169D01*
X022902Y006051D02*
X023242Y006051D01*
X023151Y005932D02*
X022986Y005932D01*
X023035Y005814D02*
X023102Y005814D01*
X023035Y005695D02*
X023519Y005695D01*
X023519Y005814D02*
X023596Y005814D01*
X023596Y005932D02*
X023519Y005932D01*
X023519Y006051D02*
X023596Y006051D01*
X023874Y006051D02*
X023878Y006051D01*
X022394Y006169D02*
X021721Y006169D01*
X021902Y006051D02*
X022213Y006051D01*
X022129Y005932D02*
X021986Y005932D01*
X022035Y005814D02*
X022081Y005814D01*
X022081Y005695D02*
X022035Y005695D01*
X021394Y006169D02*
X020721Y006169D01*
X020902Y006051D02*
X021213Y006051D01*
X021129Y005932D02*
X020986Y005932D01*
X021035Y005814D02*
X021081Y005814D01*
X021081Y005695D02*
X021035Y005695D01*
X020394Y006169D02*
X019721Y006169D01*
X019902Y006051D02*
X020213Y006051D01*
X020129Y005932D02*
X019986Y005932D01*
X020035Y005814D02*
X020081Y005814D01*
X020081Y005695D02*
X020035Y005695D01*
X019394Y006169D02*
X018721Y006169D01*
X018902Y006051D02*
X019213Y006051D01*
X019129Y005932D02*
X018986Y005932D01*
X019035Y005814D02*
X019081Y005814D01*
X019081Y005695D02*
X019035Y005695D01*
X018394Y006169D02*
X017721Y006169D01*
X017902Y006051D02*
X018213Y006051D01*
X018129Y005932D02*
X017986Y005932D01*
X018035Y005814D02*
X018081Y005814D01*
X018081Y005695D02*
X018035Y005695D01*
X017394Y006169D02*
X016721Y006169D01*
X016902Y006051D02*
X017213Y006051D01*
X017129Y005932D02*
X016986Y005932D01*
X017035Y005814D02*
X017081Y005814D01*
X017081Y005695D02*
X017035Y005695D01*
X016394Y006169D02*
X015721Y006169D01*
X015902Y006051D02*
X016213Y006051D01*
X016129Y005932D02*
X015986Y005932D01*
X016035Y005814D02*
X016081Y005814D01*
X016081Y005695D02*
X016035Y005695D01*
X015394Y006169D02*
X014721Y006169D01*
X014902Y006051D02*
X015213Y006051D01*
X015129Y005932D02*
X014986Y005932D01*
X015035Y005814D02*
X015081Y005814D01*
X015081Y005695D02*
X015035Y005695D01*
X014394Y006169D02*
X014332Y006169D01*
X014213Y006051D02*
X014213Y006051D01*
X014129Y005932D02*
X014094Y005932D01*
X014081Y005814D02*
X014035Y005814D01*
X014035Y005695D02*
X014081Y005695D01*
X014988Y006999D02*
X017568Y006999D01*
X017568Y007117D02*
X014988Y007117D01*
X014988Y007236D02*
X017568Y007236D01*
X017568Y007355D02*
X014988Y007355D01*
X014988Y007473D02*
X017568Y007473D01*
X017568Y007592D02*
X014988Y007592D01*
X014988Y007710D02*
X017568Y007710D01*
X017568Y007829D02*
X014988Y007829D01*
X014988Y007947D02*
X017568Y007947D01*
X017568Y008066D02*
X014988Y008066D01*
X014988Y008184D02*
X017568Y008184D01*
X017568Y008303D02*
X014988Y008303D01*
X014988Y008421D02*
X017568Y008421D01*
X017568Y008540D02*
X015636Y008540D01*
X015730Y008659D02*
X017568Y008659D01*
X017568Y008777D02*
X015768Y008777D01*
X015767Y008896D02*
X017568Y008896D01*
X017568Y009014D02*
X015717Y009014D01*
X015595Y009133D02*
X017568Y009133D01*
X017568Y009251D02*
X015303Y009251D01*
X015086Y008659D02*
X015080Y008659D01*
X014988Y008540D02*
X015180Y008540D01*
X013531Y008669D02*
X013498Y008749D01*
X013498Y008793D01*
X011418Y006713D01*
X011266Y006561D01*
X009557Y006561D01*
X009512Y006516D01*
X009380Y006461D01*
X009236Y006461D01*
X009104Y006516D01*
X009003Y006617D01*
X008948Y006749D01*
X008948Y006892D01*
X009003Y007025D01*
X009104Y007126D01*
X009236Y007181D01*
X009380Y007181D01*
X009512Y007126D01*
X009557Y007081D01*
X011050Y007081D01*
X013698Y009728D01*
X013698Y009728D01*
X013850Y009881D01*
X013948Y009881D01*
X013948Y010622D01*
X013903Y010667D01*
X013848Y010799D01*
X013848Y010942D01*
X013903Y011075D01*
X014004Y011176D01*
X014136Y011231D01*
X014280Y011231D01*
X014412Y011176D01*
X014513Y011075D01*
X014568Y010942D01*
X014568Y010799D01*
X014513Y010667D01*
X014468Y010622D01*
X014468Y009881D01*
X017568Y009881D01*
X017568Y013791D01*
X003238Y013791D01*
X003238Y012757D01*
X003299Y012818D01*
X003467Y012888D01*
X003519Y012888D01*
X003519Y012469D01*
X003596Y012469D01*
X003596Y012888D01*
X003649Y012888D01*
X003817Y012818D01*
X003945Y012690D01*
X004015Y012522D01*
X004015Y012469D01*
X003597Y012469D01*
X003597Y012392D01*
X004015Y012392D01*
X004015Y012340D01*
X003945Y012172D01*
X003817Y012043D01*
X003649Y011974D01*
X003596Y011974D01*
X003596Y012392D01*
X003519Y012392D01*
X003519Y011974D01*
X003467Y011974D01*
X003299Y012043D01*
X003238Y012105D01*
X003238Y011785D01*
X003288Y011835D01*
X003463Y011908D01*
X003653Y011908D01*
X003828Y011835D01*
X003962Y011701D01*
X004035Y011526D01*
X004035Y011336D01*
X004015Y011289D01*
X004153Y011151D01*
X006163Y011151D01*
X008513Y013501D01*
X008703Y013501D01*
X016829Y013501D01*
X016904Y013576D01*
X017036Y013631D01*
X017180Y013631D01*
X017312Y013576D01*
X017413Y013475D01*
X017468Y013342D01*
X017468Y013199D01*
X017413Y013067D01*
X017317Y012971D01*
X017413Y012875D01*
X017468Y012742D01*
X017468Y012599D01*
X017413Y012467D01*
X017312Y012366D01*
X017180Y012311D01*
X017036Y012311D01*
X016904Y012366D01*
X016829Y012441D01*
X011753Y012441D01*
X011568Y012256D01*
X011568Y012149D01*
X011513Y012017D01*
X011412Y011916D01*
X011280Y011861D01*
X011136Y011861D01*
X011004Y011916D01*
X010903Y012017D01*
X010848Y012149D01*
X010848Y012292D01*
X010903Y012425D01*
X011004Y012526D01*
X011136Y012581D01*
X011243Y012581D01*
X011563Y012901D01*
X011753Y012901D01*
X016829Y012901D01*
X016899Y012971D01*
X016829Y013041D01*
X008703Y013041D01*
X006488Y010826D01*
X006353Y010691D01*
X004153Y010691D01*
X003963Y010691D01*
X003686Y010968D01*
X003653Y010954D01*
X003463Y010954D01*
X003288Y011027D01*
X003238Y011076D01*
X003238Y008537D01*
X003299Y008598D01*
X003467Y008668D01*
X003519Y008668D01*
X003519Y008249D01*
X003596Y008249D01*
X003596Y008668D01*
X003649Y008668D01*
X003817Y008598D01*
X003945Y008470D01*
X004015Y008302D01*
X004015Y008249D01*
X003597Y008249D01*
X003597Y008172D01*
X004015Y008172D01*
X004015Y008120D01*
X003945Y007952D01*
X003817Y007823D01*
X003649Y007754D01*
X003596Y007754D01*
X003596Y008172D01*
X003519Y008172D01*
X003519Y007754D01*
X003467Y007754D01*
X003299Y007823D01*
X003238Y007885D01*
X003238Y007565D01*
X003288Y007615D01*
X003463Y007688D01*
X003653Y007688D01*
X003828Y007615D01*
X003962Y007481D01*
X004035Y007306D01*
X004035Y007116D01*
X003962Y006941D01*
X003828Y006807D01*
X003653Y006734D01*
X003463Y006734D01*
X003288Y006807D01*
X003238Y006856D01*
X003238Y006075D01*
X003288Y006125D01*
X003463Y006198D01*
X003653Y006198D01*
X003828Y006125D01*
X003962Y005991D01*
X004035Y005816D01*
X004035Y005671D01*
X004081Y005671D01*
X004081Y005816D01*
X004154Y005991D01*
X004288Y006125D01*
X004463Y006198D01*
X004653Y006198D01*
X004828Y006125D01*
X004962Y005991D01*
X005035Y005816D01*
X005035Y005671D01*
X005081Y005671D01*
X005081Y005816D01*
X005154Y005991D01*
X005288Y006125D01*
X005463Y006198D01*
X005653Y006198D01*
X005828Y006125D01*
X005962Y005991D01*
X006035Y005816D01*
X006035Y005671D01*
X006081Y005671D01*
X006081Y005816D01*
X006154Y005991D01*
X006288Y006125D01*
X006418Y006179D01*
X006418Y006711D01*
X006961Y006711D01*
X006961Y006651D01*
X006869Y006429D01*
X006699Y006260D01*
X006550Y006198D01*
X006653Y006198D01*
X006693Y006181D01*
X006778Y006266D01*
X006913Y006401D01*
X011263Y006401D01*
X013531Y008669D01*
X013520Y008659D02*
X013363Y008659D01*
X013402Y008540D02*
X013245Y008540D01*
X013283Y008421D02*
X013126Y008421D01*
X013165Y008303D02*
X013008Y008303D01*
X013046Y008184D02*
X012889Y008184D01*
X012928Y008066D02*
X012771Y008066D01*
X012809Y007947D02*
X012652Y007947D01*
X012691Y007829D02*
X012534Y007829D01*
X012572Y007710D02*
X012415Y007710D01*
X012454Y007592D02*
X012296Y007592D01*
X012335Y007473D02*
X012178Y007473D01*
X012216Y007355D02*
X012059Y007355D01*
X012098Y007236D02*
X011941Y007236D01*
X011979Y007117D02*
X011822Y007117D01*
X011861Y006999D02*
X011704Y006999D01*
X011742Y006880D02*
X011585Y006880D01*
X011624Y006762D02*
X011467Y006762D01*
X011418Y006713D02*
X011418Y006713D01*
X011348Y006643D02*
X011505Y006643D01*
X011387Y006525D02*
X009521Y006525D01*
X009095Y006525D02*
X006909Y006525D01*
X006958Y006643D02*
X008992Y006643D01*
X008948Y006762D02*
X006418Y006762D01*
X006418Y006711D02*
X006418Y006831D01*
X006418Y007374D01*
X006478Y007374D01*
X006699Y007282D01*
X006869Y007112D01*
X006961Y006891D01*
X006961Y006831D01*
X006418Y006831D01*
X006298Y006831D01*
X006298Y007374D01*
X006238Y007374D01*
X006016Y007282D01*
X005879Y007145D01*
X005988Y007406D01*
X005988Y007736D01*
X005861Y008041D01*
X005628Y008274D01*
X005323Y008400D01*
X004993Y008400D01*
X004688Y008274D01*
X004455Y008041D01*
X004328Y007736D01*
X004328Y007406D01*
X004455Y007101D01*
X004688Y006867D01*
X004993Y006741D01*
X005323Y006741D01*
X005628Y006867D01*
X005829Y007068D01*
X005755Y006891D01*
X005755Y006831D01*
X006298Y006831D01*
X006298Y006711D01*
X005755Y006711D01*
X005755Y006651D01*
X005847Y006429D01*
X006016Y006260D01*
X006238Y006168D01*
X006298Y006168D01*
X006298Y006711D01*
X006418Y006711D01*
X006418Y006643D02*
X006298Y006643D01*
X006298Y006525D02*
X006418Y006525D01*
X006418Y006406D02*
X006298Y006406D01*
X006298Y006288D02*
X006418Y006288D01*
X006394Y006169D02*
X006298Y006169D01*
X006235Y006169D02*
X005721Y006169D01*
X005902Y006051D02*
X006213Y006051D01*
X006129Y005932D02*
X005986Y005932D01*
X006035Y005814D02*
X006081Y005814D01*
X006081Y005695D02*
X006035Y005695D01*
X005394Y006169D02*
X004721Y006169D01*
X004902Y006051D02*
X005213Y006051D01*
X005129Y005932D02*
X004986Y005932D01*
X005035Y005814D02*
X005081Y005814D01*
X005081Y005695D02*
X005035Y005695D01*
X004394Y006169D02*
X003721Y006169D01*
X003902Y006051D02*
X004213Y006051D01*
X004129Y005932D02*
X003986Y005932D01*
X004035Y005814D02*
X004081Y005814D01*
X004081Y005695D02*
X004035Y005695D01*
X003394Y006169D02*
X003238Y006169D01*
X003238Y006288D02*
X005988Y006288D01*
X005870Y006406D02*
X003238Y006406D01*
X003238Y006525D02*
X005807Y006525D01*
X005758Y006643D02*
X003238Y006643D01*
X003238Y006762D02*
X003396Y006762D01*
X003720Y006762D02*
X004943Y006762D01*
X004675Y006880D02*
X003902Y006880D01*
X003986Y006999D02*
X004557Y006999D01*
X004448Y007117D02*
X004035Y007117D01*
X004035Y007236D02*
X004399Y007236D01*
X004350Y007355D02*
X004014Y007355D01*
X003965Y007473D02*
X004328Y007473D01*
X004328Y007592D02*
X003851Y007592D01*
X003822Y007829D02*
X004367Y007829D01*
X004328Y007710D02*
X003238Y007710D01*
X003238Y007592D02*
X003264Y007592D01*
X003294Y007829D02*
X003238Y007829D01*
X003519Y007829D02*
X003596Y007829D01*
X003596Y007947D02*
X003519Y007947D01*
X003519Y008066D02*
X003596Y008066D01*
X003597Y008184D02*
X004598Y008184D01*
X004480Y008066D02*
X003992Y008066D01*
X003941Y007947D02*
X004416Y007947D01*
X004758Y008303D02*
X004014Y008303D01*
X003965Y008421D02*
X007201Y008421D01*
X007201Y008422D02*
X007306Y008528D01*
X008010Y008528D01*
X008115Y008422D01*
X008115Y008331D01*
X008263Y008331D01*
X008201Y008480D01*
X008201Y008662D01*
X008263Y008811D01*
X008044Y008811D01*
X007917Y008683D01*
X007749Y008614D01*
X007567Y008614D01*
X007399Y008683D01*
X007270Y008812D01*
X007201Y008980D01*
X007201Y009162D01*
X007270Y009330D01*
X007399Y009458D01*
X007567Y009528D01*
X007749Y009528D01*
X007917Y009458D01*
X008044Y009331D01*
X008263Y009331D01*
X008201Y009480D01*
X008201Y009662D01*
X008270Y009830D01*
X008399Y009958D01*
X008567Y010028D01*
X008749Y010028D01*
X008917Y009958D01*
X008922Y009953D01*
X008950Y009981D01*
X011009Y009981D01*
X011054Y010026D01*
X011186Y010081D01*
X011330Y010081D01*
X011462Y010026D01*
X011563Y009925D01*
X011618Y009792D01*
X011618Y009698D01*
X011798Y009878D01*
X011798Y010622D01*
X011753Y010667D01*
X011698Y010799D01*
X011698Y010942D01*
X011753Y011075D01*
X011854Y011176D01*
X011986Y011231D01*
X012130Y011231D01*
X012262Y011176D01*
X012363Y011075D01*
X012418Y010942D01*
X012418Y010799D01*
X012363Y010667D01*
X012318Y010622D01*
X012318Y009878D01*
X012318Y009663D01*
X011618Y008963D01*
X011466Y008811D01*
X009053Y008811D01*
X009115Y008662D01*
X009115Y008480D01*
X009053Y008331D01*
X011150Y008331D01*
X012498Y009678D01*
X012498Y009822D01*
X012453Y009867D01*
X012398Y009999D01*
X012398Y010142D01*
X012453Y010275D01*
X012554Y010376D01*
X012686Y010431D01*
X012830Y010431D01*
X012962Y010376D01*
X013063Y010275D01*
X013118Y010142D01*
X013118Y009999D01*
X013063Y009867D01*
X013018Y009822D01*
X013018Y009463D01*
X012866Y009311D01*
X011366Y007811D01*
X011150Y007811D01*
X008115Y007811D01*
X008115Y007719D01*
X008010Y007614D01*
X007306Y007614D01*
X007201Y007719D01*
X007201Y008422D01*
X007201Y008303D02*
X005558Y008303D01*
X005718Y008184D02*
X007201Y008184D01*
X007201Y008066D02*
X005836Y008066D01*
X005900Y007947D02*
X007201Y007947D01*
X007201Y007829D02*
X005949Y007829D01*
X005988Y007710D02*
X007210Y007710D01*
X006524Y007355D02*
X011324Y007355D01*
X011443Y007473D02*
X005988Y007473D01*
X005988Y007592D02*
X011561Y007592D01*
X011680Y007710D02*
X008106Y007710D01*
X009096Y007117D02*
X006864Y007117D01*
X006916Y006999D02*
X008992Y006999D01*
X008948Y006880D02*
X006961Y006880D01*
X006745Y007236D02*
X011206Y007236D01*
X011087Y007117D02*
X009520Y007117D01*
X011268Y006406D02*
X006846Y006406D01*
X006800Y006288D02*
X006727Y006288D01*
X006298Y006762D02*
X005373Y006762D01*
X005641Y006880D02*
X005755Y006880D01*
X005759Y006999D02*
X005800Y006999D01*
X005917Y007236D02*
X005971Y007236D01*
X005966Y007355D02*
X006192Y007355D01*
X006298Y007355D02*
X006418Y007355D01*
X006418Y007236D02*
X006298Y007236D01*
X006298Y007117D02*
X006418Y007117D01*
X006418Y006999D02*
X006298Y006999D01*
X006298Y006880D02*
X006418Y006880D01*
X008115Y008421D02*
X008225Y008421D01*
X008201Y008540D02*
X003875Y008540D01*
X003671Y008659D02*
X007459Y008659D01*
X007305Y008777D02*
X003238Y008777D01*
X003238Y008659D02*
X003445Y008659D01*
X003519Y008659D02*
X003596Y008659D01*
X003596Y008540D02*
X003519Y008540D01*
X003519Y008421D02*
X003596Y008421D01*
X003596Y008303D02*
X003519Y008303D01*
X003241Y008540D02*
X003238Y008540D01*
X003238Y008896D02*
X007236Y008896D01*
X007201Y009014D02*
X003238Y009014D01*
X003238Y009133D02*
X007201Y009133D01*
X007238Y009251D02*
X003238Y009251D01*
X003238Y009370D02*
X007310Y009370D01*
X007471Y009488D02*
X003238Y009488D01*
X003238Y009607D02*
X008201Y009607D01*
X008201Y009488D02*
X007844Y009488D01*
X007749Y009614D02*
X007567Y009614D01*
X007399Y009683D01*
X007270Y009812D01*
X007201Y009980D01*
X007201Y010162D01*
X007270Y010330D01*
X007399Y010458D01*
X007567Y010528D01*
X007749Y010528D01*
X007917Y010458D01*
X008045Y010330D01*
X008115Y010162D01*
X008115Y009980D01*
X008045Y009812D01*
X007917Y009683D01*
X007749Y009614D01*
X007959Y009725D02*
X008227Y009725D01*
X008285Y009844D02*
X008059Y009844D01*
X008108Y009963D02*
X008409Y009963D01*
X008567Y010114D02*
X008749Y010114D01*
X008917Y010183D01*
X009044Y010311D01*
X011009Y010311D01*
X011054Y010266D01*
X011186Y010211D01*
X011330Y010211D01*
X011462Y010266D01*
X011563Y010367D01*
X011618Y010499D01*
X011618Y010642D01*
X011563Y010775D01*
X011462Y010876D01*
X011330Y010931D01*
X011186Y010931D01*
X011054Y010876D01*
X011009Y010831D01*
X009044Y010831D01*
X008917Y010958D01*
X008749Y011028D01*
X008567Y011028D01*
X008399Y010958D01*
X008270Y010830D01*
X008201Y010662D01*
X008201Y010480D01*
X008270Y010312D01*
X008399Y010183D01*
X008567Y010114D01*
X008383Y010200D02*
X008099Y010200D01*
X008115Y010081D02*
X011798Y010081D01*
X011798Y009963D02*
X011525Y009963D01*
X011597Y009844D02*
X011763Y009844D01*
X011645Y009725D02*
X011618Y009725D01*
X012025Y009370D02*
X012189Y009370D01*
X012143Y009488D02*
X012308Y009488D01*
X012262Y009607D02*
X012426Y009607D01*
X012498Y009725D02*
X012318Y009725D01*
X012318Y009844D02*
X012476Y009844D01*
X012413Y009963D02*
X012318Y009963D01*
X012318Y010081D02*
X012398Y010081D01*
X012422Y010200D02*
X012318Y010200D01*
X012318Y010318D02*
X012496Y010318D01*
X012318Y010437D02*
X013948Y010437D01*
X013948Y010555D02*
X012318Y010555D01*
X012366Y010674D02*
X013900Y010674D01*
X013851Y010792D02*
X012415Y010792D01*
X012418Y010911D02*
X013848Y010911D01*
X013884Y011029D02*
X012382Y011029D01*
X012290Y011148D02*
X013976Y011148D01*
X014440Y011148D02*
X017568Y011148D01*
X017568Y011266D02*
X008972Y011266D01*
X009029Y011323D02*
X008906Y011200D01*
X008745Y011134D01*
X008687Y011134D01*
X008687Y011542D01*
X009095Y011542D01*
X009095Y011484D01*
X009029Y011323D01*
X009054Y011385D02*
X017568Y011385D01*
X017568Y011504D02*
X009095Y011504D01*
X009095Y011599D02*
X008687Y011599D01*
X008687Y011542D01*
X008629Y011542D01*
X008629Y011599D01*
X008221Y011599D01*
X008221Y011658D01*
X008287Y011818D01*
X008410Y011941D01*
X008571Y012008D01*
X008629Y012008D01*
X008629Y011600D01*
X008687Y011600D01*
X008687Y012008D01*
X008745Y012008D01*
X008906Y011941D01*
X009029Y011818D01*
X009095Y011658D01*
X009095Y011599D01*
X009095Y011622D02*
X017568Y011622D01*
X017568Y011741D02*
X009061Y011741D01*
X008988Y011859D02*
X017568Y011859D01*
X017568Y011978D02*
X011474Y011978D01*
X011546Y012096D02*
X017568Y012096D01*
X017568Y012215D02*
X011568Y012215D01*
X011646Y012333D02*
X016982Y012333D01*
X017234Y012333D02*
X017568Y012333D01*
X017568Y012452D02*
X017398Y012452D01*
X017456Y012570D02*
X017568Y012570D01*
X017568Y012689D02*
X017468Y012689D01*
X017441Y012808D02*
X017568Y012808D01*
X017568Y012926D02*
X017362Y012926D01*
X017391Y013045D02*
X017568Y013045D01*
X017568Y013163D02*
X017453Y013163D01*
X017468Y013282D02*
X017568Y013282D01*
X017568Y013400D02*
X017444Y013400D01*
X017369Y013519D02*
X017568Y013519D01*
X017568Y013637D02*
X003238Y013637D01*
X003238Y013519D02*
X016847Y013519D01*
X016854Y012926D02*
X008589Y012926D01*
X008470Y012808D02*
X011469Y012808D01*
X011351Y012689D02*
X008351Y012689D01*
X008233Y012570D02*
X011111Y012570D01*
X010930Y012452D02*
X008114Y012452D01*
X007996Y012333D02*
X010865Y012333D01*
X010848Y012215D02*
X007877Y012215D01*
X007759Y012096D02*
X010870Y012096D01*
X010942Y011978D02*
X008818Y011978D01*
X008687Y011978D02*
X008629Y011978D01*
X008629Y011859D02*
X008687Y011859D01*
X008687Y011741D02*
X008629Y011741D01*
X008629Y011622D02*
X008687Y011622D01*
X008629Y011542D02*
X008221Y011542D01*
X008221Y011484D01*
X008287Y011323D01*
X008410Y011200D01*
X008571Y011134D01*
X008629Y011134D01*
X008629Y011542D01*
X008629Y011504D02*
X008687Y011504D01*
X008687Y011385D02*
X008629Y011385D01*
X008629Y011266D02*
X008687Y011266D01*
X008687Y011148D02*
X008629Y011148D01*
X008536Y011148D02*
X008115Y011148D01*
X008115Y011162D02*
X008045Y011330D01*
X007917Y011458D01*
X007749Y011528D01*
X007567Y011528D01*
X007399Y011458D01*
X007270Y011330D01*
X007201Y011162D01*
X007201Y010980D01*
X007270Y010812D01*
X007399Y010683D01*
X007567Y010614D01*
X007749Y010614D01*
X007917Y010683D01*
X008045Y010812D01*
X008115Y010980D01*
X008115Y011162D01*
X008072Y011266D02*
X008344Y011266D01*
X008262Y011385D02*
X007990Y011385D01*
X007808Y011504D02*
X008221Y011504D01*
X008221Y011622D02*
X007285Y011622D01*
X007403Y011741D02*
X008255Y011741D01*
X008328Y011859D02*
X007522Y011859D01*
X007640Y011978D02*
X008498Y011978D01*
X007582Y012570D02*
X006886Y012570D01*
X006869Y012529D02*
X006699Y012360D01*
X006478Y012268D01*
X006418Y012268D01*
X006418Y012811D01*
X006961Y012811D01*
X006961Y012751D01*
X006869Y012529D01*
X006792Y012452D02*
X007464Y012452D01*
X007345Y012333D02*
X006636Y012333D01*
X006418Y012333D02*
X006298Y012333D01*
X006298Y012268D02*
X006238Y012268D01*
X006016Y012360D01*
X005879Y012497D01*
X005988Y012236D01*
X005988Y011906D01*
X005861Y011601D01*
X005628Y011367D01*
X005323Y011241D01*
X004993Y011241D01*
X004688Y011367D01*
X004455Y011601D01*
X004328Y011906D01*
X004328Y012236D01*
X004455Y012541D01*
X004688Y012774D01*
X004993Y012900D01*
X005323Y012900D01*
X005628Y012774D01*
X005829Y012573D01*
X005755Y012751D01*
X005755Y012811D01*
X006298Y012811D01*
X006298Y012931D01*
X006418Y012931D01*
X006418Y013474D01*
X006478Y013474D01*
X006699Y013382D01*
X006869Y013212D01*
X006961Y012991D01*
X006961Y012931D01*
X006418Y012931D01*
X006418Y012811D01*
X006298Y012811D01*
X006298Y012268D01*
X006298Y012452D02*
X006418Y012452D01*
X006418Y012570D02*
X006298Y012570D01*
X006298Y012689D02*
X006418Y012689D01*
X006418Y012808D02*
X006298Y012808D01*
X006298Y012926D02*
X003238Y012926D01*
X003238Y012808D02*
X003289Y012808D01*
X003519Y012808D02*
X003596Y012808D01*
X003596Y012689D02*
X003519Y012689D01*
X003519Y012570D02*
X003596Y012570D01*
X003597Y012452D02*
X004418Y012452D01*
X004369Y012333D02*
X004012Y012333D01*
X003963Y012215D02*
X004328Y012215D01*
X004328Y012096D02*
X003870Y012096D01*
X003658Y011978D02*
X004328Y011978D01*
X004348Y011859D02*
X003770Y011859D01*
X003922Y011741D02*
X004397Y011741D01*
X004446Y011622D02*
X003995Y011622D01*
X004035Y011504D02*
X004552Y011504D01*
X004670Y011385D02*
X004035Y011385D01*
X004037Y011266D02*
X004932Y011266D01*
X005384Y011266D02*
X006278Y011266D01*
X006397Y011385D02*
X005645Y011385D01*
X005764Y011504D02*
X006516Y011504D01*
X006634Y011622D02*
X005870Y011622D01*
X005919Y011741D02*
X006753Y011741D01*
X006871Y011859D02*
X005968Y011859D01*
X005988Y011978D02*
X006990Y011978D01*
X007108Y012096D02*
X005988Y012096D01*
X005988Y012215D02*
X007227Y012215D01*
X006935Y012689D02*
X007701Y012689D01*
X007819Y012808D02*
X006961Y012808D01*
X006938Y013045D02*
X008057Y013045D01*
X008175Y013163D02*
X006889Y013163D01*
X006800Y013282D02*
X008294Y013282D01*
X008412Y013400D02*
X006655Y013400D01*
X006418Y013400D02*
X006298Y013400D01*
X006298Y013474D02*
X006298Y012931D01*
X005755Y012931D01*
X005755Y012991D01*
X005847Y013212D01*
X006016Y013382D01*
X006238Y013474D01*
X006298Y013474D01*
X006298Y013282D02*
X006418Y013282D01*
X006418Y013163D02*
X006298Y013163D01*
X006298Y013045D02*
X006418Y013045D01*
X006418Y012926D02*
X007938Y012926D01*
X006061Y013400D02*
X003238Y013400D01*
X003238Y013282D02*
X005916Y013282D01*
X005826Y013163D02*
X003238Y013163D01*
X003238Y013045D02*
X005777Y013045D01*
X005755Y012808D02*
X005547Y012808D01*
X005713Y012689D02*
X005781Y012689D01*
X005898Y012452D02*
X005924Y012452D01*
X005947Y012333D02*
X006080Y012333D01*
X004769Y012808D02*
X003827Y012808D01*
X003945Y012689D02*
X004603Y012689D01*
X004484Y012570D02*
X003995Y012570D01*
X003596Y012333D02*
X003519Y012333D01*
X003519Y012215D02*
X003596Y012215D01*
X003596Y012096D02*
X003519Y012096D01*
X003519Y011978D02*
X003596Y011978D01*
X003458Y011978D02*
X003238Y011978D01*
X003246Y012096D02*
X003238Y012096D01*
X003238Y011859D02*
X003346Y011859D01*
X003285Y011029D02*
X003238Y011029D01*
X003238Y010911D02*
X003743Y010911D01*
X003861Y010792D02*
X003238Y010792D01*
X003238Y010674D02*
X007422Y010674D01*
X007290Y010792D02*
X006455Y010792D01*
X006573Y010911D02*
X007229Y010911D01*
X007201Y011029D02*
X006692Y011029D01*
X006810Y011148D02*
X007201Y011148D01*
X007244Y011266D02*
X006929Y011266D01*
X007047Y011385D02*
X007326Y011385D01*
X007166Y011504D02*
X007508Y011504D01*
X008115Y011029D02*
X011734Y011029D01*
X011698Y010911D02*
X011378Y010911D01*
X011545Y010792D02*
X011701Y010792D01*
X011750Y010674D02*
X011605Y010674D01*
X011618Y010555D02*
X011798Y010555D01*
X011798Y010437D02*
X011592Y010437D01*
X011514Y010318D02*
X011798Y010318D01*
X011798Y010200D02*
X008933Y010200D01*
X008932Y009963D02*
X008907Y009963D01*
X008268Y010318D02*
X008050Y010318D01*
X007939Y010437D02*
X008219Y010437D01*
X008201Y010555D02*
X003238Y010555D01*
X003238Y010437D02*
X007377Y010437D01*
X007266Y010318D02*
X003238Y010318D01*
X003238Y010200D02*
X007216Y010200D01*
X007201Y010081D02*
X003238Y010081D01*
X003238Y009963D02*
X007208Y009963D01*
X007257Y009844D02*
X003238Y009844D01*
X003238Y009725D02*
X007357Y009725D01*
X008005Y009370D02*
X008246Y009370D01*
X008249Y008777D02*
X008011Y008777D01*
X007857Y008659D02*
X008201Y008659D01*
X009067Y008777D02*
X011597Y008777D01*
X011550Y008896D02*
X011715Y008896D01*
X011669Y009014D02*
X011834Y009014D01*
X011788Y009133D02*
X011952Y009133D01*
X011906Y009251D02*
X012071Y009251D01*
X012450Y008896D02*
X012865Y008896D01*
X012984Y009014D02*
X012569Y009014D01*
X012688Y009133D02*
X013102Y009133D01*
X013221Y009251D02*
X012806Y009251D01*
X012925Y009370D02*
X013339Y009370D01*
X013458Y009488D02*
X013018Y009488D01*
X013018Y009607D02*
X013576Y009607D01*
X013695Y009725D02*
X013018Y009725D01*
X013040Y009844D02*
X013813Y009844D01*
X013948Y009963D02*
X013103Y009963D01*
X013118Y010081D02*
X013948Y010081D01*
X013948Y010200D02*
X013094Y010200D01*
X013020Y010318D02*
X013948Y010318D01*
X014468Y010318D02*
X017568Y010318D01*
X017568Y010200D02*
X014468Y010200D01*
X014468Y010081D02*
X017568Y010081D01*
X017568Y009963D02*
X014468Y009963D01*
X014468Y010437D02*
X017568Y010437D01*
X017568Y010555D02*
X014468Y010555D01*
X014516Y010674D02*
X017568Y010674D01*
X017568Y010792D02*
X014565Y010792D01*
X014568Y010911D02*
X017568Y010911D01*
X017568Y011029D02*
X014532Y011029D01*
X011826Y011148D02*
X008780Y011148D01*
X008964Y010911D02*
X011138Y010911D01*
X008352Y010911D02*
X008087Y010911D01*
X008026Y010792D02*
X008255Y010792D01*
X008206Y010674D02*
X007894Y010674D01*
X009115Y008659D02*
X011478Y008659D01*
X011359Y008540D02*
X009115Y008540D01*
X009091Y008421D02*
X011241Y008421D01*
X011739Y008184D02*
X012154Y008184D01*
X012035Y008066D02*
X011621Y008066D01*
X011502Y007947D02*
X011917Y007947D01*
X011798Y007829D02*
X011384Y007829D01*
X011858Y008303D02*
X012272Y008303D01*
X012391Y008421D02*
X011976Y008421D01*
X012095Y008540D02*
X012510Y008540D01*
X012628Y008659D02*
X012213Y008659D01*
X012332Y008777D02*
X012747Y008777D01*
X013482Y008777D02*
X013498Y008777D01*
X017568Y013756D02*
X003238Y013756D01*
X023018Y009607D02*
X023138Y009607D01*
X023138Y009488D02*
X023018Y009488D01*
X023018Y009370D02*
X023138Y009370D01*
X023641Y009133D02*
X023878Y009133D01*
X023878Y009014D02*
X023698Y009014D01*
X023698Y008896D02*
X023878Y008896D01*
X023878Y008777D02*
X023698Y008777D01*
X023698Y008659D02*
X023878Y008659D01*
X023878Y008540D02*
X023698Y008540D01*
X023673Y008421D02*
X023878Y008421D01*
X023878Y008303D02*
X023593Y008303D01*
X023618Y008184D02*
X023878Y008184D01*
X023878Y008066D02*
X023604Y008066D01*
X023544Y007947D02*
X023878Y007947D01*
X023878Y007829D02*
X023373Y007829D01*
D17*
X023258Y008171D03*
X022158Y009671D03*
X023058Y011171D03*
X017108Y012671D03*
X017108Y013271D03*
X014208Y010871D03*
X012758Y010071D03*
X012058Y010871D03*
X011258Y010571D03*
X011258Y009721D03*
X013858Y008821D03*
X014758Y008821D03*
X015408Y008821D03*
X017158Y008971D03*
X011208Y012221D03*
X009308Y006821D03*
D18*
X011158Y006821D01*
X013958Y009621D01*
X014208Y009621D01*
X019358Y009621D01*
X020058Y008921D02*
X020608Y008921D01*
X020608Y009671D01*
X020638Y009671D01*
X020638Y009701D01*
X020658Y009721D01*
X020658Y010421D01*
X020058Y010421D01*
X020658Y010421D02*
X021208Y010421D01*
X022158Y009671D02*
X022208Y009671D01*
X023058Y010571D02*
X023058Y010581D01*
X023058Y011171D01*
X023058Y010581D02*
X023078Y010581D01*
X021208Y008921D02*
X020608Y008921D01*
X023078Y008761D02*
X023258Y008761D01*
X023258Y008171D01*
X014208Y009621D02*
X014208Y010871D01*
X012758Y010071D02*
X012758Y009571D01*
X011258Y008071D01*
X007658Y008071D01*
X007658Y009071D02*
X011358Y009071D01*
X012058Y009771D01*
X012058Y010871D01*
X011258Y010571D02*
X008658Y010571D01*
X009058Y009721D02*
X011258Y009721D01*
X009058Y009721D02*
X008908Y009571D01*
X008658Y009571D01*
D19*
X006258Y010921D02*
X004058Y010921D01*
X003558Y011421D01*
X003558Y011431D01*
X006258Y010921D02*
X008608Y013271D01*
X017108Y013271D01*
X017108Y012671D02*
X011658Y012671D01*
X011208Y012221D01*
X014308Y008971D02*
X014558Y009221D01*
X015008Y009221D01*
X015408Y008821D01*
X014758Y008821D02*
X014758Y006921D01*
X013558Y005721D01*
X011558Y005771D02*
X011558Y005721D01*
X011558Y005771D02*
X014308Y008521D01*
X014308Y008971D01*
X013858Y008821D02*
X013858Y008671D01*
X011358Y006171D01*
X007008Y006171D01*
X006558Y005721D01*
M02*
