G75*
G70*
%OFA0B0*%
%FSLAX24Y24*%
%IPPOS*%
%LPD*%
%AMOC8*
5,1,8,0,0,1.08239X$1,22.5*
%
%ADD10C,0.0000*%
%ADD11C,0.0090*%
%ADD12R,0.0200X0.0050*%
%ADD13C,0.0100*%
%ADD14C,0.0283*%
%ADD15C,0.0050*%
D10*
X002006Y005221D02*
X002006Y013971D01*
X023006Y013971D01*
X023006Y005221D01*
X002006Y005221D01*
X020256Y007571D02*
X020259Y007630D01*
X020267Y007689D01*
X020280Y007746D01*
X020299Y007803D01*
X020322Y007857D01*
X020351Y007909D01*
X020384Y007958D01*
X020421Y008004D01*
X020462Y008046D01*
X020507Y008084D01*
X020556Y008119D01*
X020607Y008148D01*
X020661Y008173D01*
X020716Y008193D01*
X020774Y008207D01*
X020832Y008217D01*
X020891Y008221D01*
X020950Y008219D01*
X021009Y008213D01*
X021067Y008201D01*
X021124Y008183D01*
X021178Y008161D01*
X021231Y008134D01*
X021281Y008102D01*
X021328Y008066D01*
X021371Y008025D01*
X021410Y007981D01*
X021445Y007934D01*
X021476Y007883D01*
X021502Y007830D01*
X021523Y007775D01*
X021539Y007718D01*
X021550Y007660D01*
X021555Y007601D01*
X021555Y007541D01*
X021550Y007482D01*
X021539Y007424D01*
X021523Y007367D01*
X021502Y007312D01*
X021476Y007259D01*
X021445Y007208D01*
X021410Y007161D01*
X021371Y007117D01*
X021328Y007076D01*
X021281Y007040D01*
X021231Y007008D01*
X021178Y006981D01*
X021124Y006959D01*
X021067Y006941D01*
X021009Y006929D01*
X020950Y006923D01*
X020891Y006921D01*
X020832Y006925D01*
X020774Y006935D01*
X020716Y006949D01*
X020661Y006969D01*
X020607Y006994D01*
X020556Y007023D01*
X020507Y007058D01*
X020462Y007096D01*
X020421Y007138D01*
X020384Y007184D01*
X020351Y007233D01*
X020322Y007285D01*
X020299Y007339D01*
X020280Y007396D01*
X020267Y007453D01*
X020259Y007512D01*
X020256Y007571D01*
X020256Y012071D02*
X020259Y012130D01*
X020267Y012189D01*
X020280Y012246D01*
X020299Y012303D01*
X020322Y012357D01*
X020351Y012409D01*
X020384Y012458D01*
X020421Y012504D01*
X020462Y012546D01*
X020507Y012584D01*
X020556Y012619D01*
X020607Y012648D01*
X020661Y012673D01*
X020716Y012693D01*
X020774Y012707D01*
X020832Y012717D01*
X020891Y012721D01*
X020950Y012719D01*
X021009Y012713D01*
X021067Y012701D01*
X021124Y012683D01*
X021178Y012661D01*
X021231Y012634D01*
X021281Y012602D01*
X021328Y012566D01*
X021371Y012525D01*
X021410Y012481D01*
X021445Y012434D01*
X021476Y012383D01*
X021502Y012330D01*
X021523Y012275D01*
X021539Y012218D01*
X021550Y012160D01*
X021555Y012101D01*
X021555Y012041D01*
X021550Y011982D01*
X021539Y011924D01*
X021523Y011867D01*
X021502Y011812D01*
X021476Y011759D01*
X021445Y011708D01*
X021410Y011661D01*
X021371Y011617D01*
X021328Y011576D01*
X021281Y011540D01*
X021231Y011508D01*
X021178Y011481D01*
X021124Y011459D01*
X021067Y011441D01*
X021009Y011429D01*
X020950Y011423D01*
X020891Y011421D01*
X020832Y011425D01*
X020774Y011435D01*
X020716Y011449D01*
X020661Y011469D01*
X020607Y011494D01*
X020556Y011523D01*
X020507Y011558D01*
X020462Y011596D01*
X020421Y011638D01*
X020384Y011684D01*
X020351Y011733D01*
X020322Y011785D01*
X020299Y011839D01*
X020280Y011896D01*
X020267Y011953D01*
X020259Y012012D01*
X020256Y012071D01*
D11*
X020180Y013416D02*
X020180Y013689D01*
X020180Y013553D02*
X020317Y013689D01*
X020385Y013689D01*
X020564Y013689D02*
X020769Y013689D01*
X020837Y013621D01*
X020837Y013416D01*
X021024Y013484D02*
X021024Y013621D01*
X021092Y013689D01*
X021229Y013689D01*
X021298Y013621D01*
X021298Y013553D01*
X021024Y013553D01*
X021024Y013484D02*
X021092Y013416D01*
X021229Y013416D01*
X021553Y013484D02*
X021621Y013416D01*
X021553Y013484D02*
X021553Y013758D01*
X021621Y013689D02*
X021484Y013689D01*
X022101Y013689D02*
X022237Y013416D01*
X022374Y013689D01*
X022561Y013689D02*
X022698Y013826D01*
X022698Y013416D01*
X022561Y013416D02*
X022835Y013416D01*
X020564Y013416D02*
X020564Y013689D01*
X019993Y013621D02*
X019993Y013553D01*
X019720Y013553D01*
X019720Y013621D02*
X019788Y013689D01*
X019925Y013689D01*
X019993Y013621D01*
X019925Y013416D02*
X019788Y013416D01*
X019720Y013484D01*
X019720Y013621D01*
X019533Y013621D02*
X019533Y013416D01*
X019533Y013621D02*
X019464Y013689D01*
X019328Y013689D01*
X019259Y013621D01*
X019089Y013689D02*
X018952Y013689D01*
X019021Y013758D02*
X019021Y013484D01*
X019089Y013416D01*
X019259Y013416D02*
X019259Y013826D01*
X018766Y013621D02*
X018766Y013553D01*
X018492Y013553D01*
X018492Y013621D02*
X018560Y013689D01*
X018697Y013689D01*
X018766Y013621D01*
X018697Y013416D02*
X018560Y013416D01*
X018492Y013484D01*
X018492Y013621D01*
X018305Y013621D02*
X018032Y013621D01*
X017845Y013621D02*
X017845Y013484D01*
X017777Y013416D01*
X017571Y013416D01*
X017571Y013279D02*
X017571Y013689D01*
X017777Y013689D01*
X017845Y013621D01*
X017385Y013689D02*
X017111Y013416D01*
X016924Y013553D02*
X016651Y013553D01*
X016651Y013621D02*
X016719Y013689D01*
X016856Y013689D01*
X016924Y013621D01*
X016924Y013553D01*
X016856Y013416D02*
X016719Y013416D01*
X016651Y013484D01*
X016651Y013621D01*
X017111Y013689D02*
X017385Y013416D01*
X002661Y013011D02*
X002661Y012874D01*
X002592Y012805D01*
X002456Y012805D01*
X002387Y012874D01*
X002387Y013011D01*
X002456Y013079D01*
X002524Y013079D01*
X002524Y012805D01*
X002592Y012619D02*
X002524Y012550D01*
X002524Y012414D01*
X002456Y012345D01*
X002387Y012414D01*
X002387Y012619D01*
X002592Y012619D02*
X002661Y012550D01*
X002661Y012345D01*
X002661Y012183D02*
X002592Y012183D01*
X002592Y012115D01*
X002661Y012115D01*
X002661Y012183D01*
X002661Y011945D02*
X002661Y011808D01*
X002661Y011876D02*
X002250Y011876D01*
X002250Y011808D01*
X002456Y011621D02*
X002661Y011621D01*
X002661Y011484D02*
X002456Y011484D01*
X002387Y011553D01*
X002456Y011621D01*
X002456Y011484D02*
X002387Y011416D01*
X002387Y011348D01*
X002661Y011348D01*
X002661Y011161D02*
X002387Y011161D01*
X002661Y011161D02*
X002661Y010956D01*
X002592Y010887D01*
X002387Y010887D01*
X002456Y010701D02*
X002661Y010701D01*
X002661Y010495D01*
X002592Y010427D01*
X002524Y010495D01*
X002524Y010701D01*
X002456Y010701D02*
X002387Y010632D01*
X002387Y010495D01*
X002592Y010265D02*
X002661Y010265D01*
X002661Y010197D01*
X002592Y010197D01*
X002592Y010265D01*
X002592Y010010D02*
X002387Y010010D01*
X002592Y010010D02*
X002661Y009942D01*
X002592Y009873D01*
X002661Y009805D01*
X002592Y009736D01*
X002387Y009736D01*
X002387Y009550D02*
X002592Y009550D01*
X002661Y009481D01*
X002592Y009413D01*
X002661Y009345D01*
X002592Y009276D01*
X002387Y009276D01*
X002387Y009089D02*
X002592Y009089D01*
X002661Y009021D01*
X002592Y008953D01*
X002661Y008884D01*
X002592Y008816D01*
X002387Y008816D01*
D12*
X007856Y008426D03*
X008356Y008426D03*
X008856Y008426D03*
X009356Y008426D03*
X009856Y008426D03*
X010356Y008426D03*
X010856Y008426D03*
X011356Y008426D03*
X011856Y008426D03*
X012356Y008426D03*
X012856Y008426D03*
X013356Y008426D03*
X013856Y008426D03*
X014356Y008426D03*
X014356Y011416D03*
X013856Y011416D03*
X013356Y011416D03*
X012856Y011416D03*
X012356Y011416D03*
X011856Y011416D03*
X011356Y011416D03*
X010856Y011416D03*
X010356Y011416D03*
X009856Y011416D03*
X009356Y011416D03*
X008856Y011416D03*
X008356Y011416D03*
X007856Y011416D03*
D13*
X007556Y011421D02*
X014606Y011421D01*
X014606Y008421D01*
X007556Y008421D01*
X007556Y011421D01*
X006440Y012235D02*
X005849Y012235D01*
X006440Y012235D02*
X006440Y007707D01*
X005849Y007707D01*
X005062Y007707D02*
X004471Y007707D01*
X004471Y012235D01*
X005062Y012235D01*
X016656Y012871D02*
X016656Y006771D01*
X022956Y006771D01*
X022956Y012871D02*
X016656Y012871D01*
D14*
X007856Y008771D03*
D15*
X007398Y009827D02*
X007231Y009827D01*
X007314Y009827D02*
X007314Y010077D01*
X007231Y009994D01*
X007121Y010036D02*
X007080Y010077D01*
X006996Y010077D01*
X006955Y010036D01*
X006955Y009869D01*
X006996Y009827D01*
X007080Y009827D01*
X007121Y009869D01*
X006854Y009827D02*
X006770Y009827D01*
X006812Y009827D02*
X006812Y010077D01*
X006770Y010077D02*
X006854Y010077D01*
X004221Y007904D02*
X004179Y007946D01*
X004096Y007946D01*
X004054Y007904D01*
X004054Y007737D01*
X004221Y007904D01*
X004221Y007737D01*
X004179Y007696D01*
X004096Y007696D01*
X004054Y007737D01*
X003945Y007696D02*
X003778Y007696D01*
X003945Y007863D01*
X003945Y007904D01*
X003903Y007946D01*
X003820Y007946D01*
X003778Y007904D01*
X003669Y007904D02*
X003627Y007946D01*
X003544Y007946D01*
X003502Y007904D01*
X003502Y007737D01*
X003544Y007696D01*
X003627Y007696D01*
X003669Y007737D01*
X006202Y006804D02*
X006202Y006637D01*
X006244Y006596D01*
X006327Y006596D01*
X006369Y006637D01*
X006478Y006596D02*
X006645Y006596D01*
X006562Y006596D02*
X006562Y006846D01*
X006478Y006763D01*
X006369Y006804D02*
X006327Y006846D01*
X006244Y006846D01*
X006202Y006804D01*
X006754Y006804D02*
X006754Y006763D01*
X006796Y006721D01*
X006921Y006721D01*
X006921Y006804D02*
X006879Y006846D01*
X006796Y006846D01*
X006754Y006804D01*
X006754Y006637D02*
X006796Y006596D01*
X006879Y006596D01*
X006921Y006637D01*
X006921Y006804D01*
X007752Y006804D02*
X007752Y006637D01*
X007794Y006596D01*
X007877Y006596D01*
X007919Y006637D01*
X008028Y006596D02*
X008195Y006596D01*
X008112Y006596D02*
X008112Y006846D01*
X008028Y006763D01*
X007919Y006804D02*
X007877Y006846D01*
X007794Y006846D01*
X007752Y006804D01*
X008304Y006804D02*
X008346Y006846D01*
X008429Y006846D01*
X008471Y006804D01*
X008471Y006763D01*
X008304Y006596D01*
X008471Y006596D01*
X009252Y006596D02*
X009252Y006846D01*
X009377Y006846D01*
X009419Y006804D01*
X009419Y006721D01*
X009377Y006679D01*
X009252Y006679D01*
X009335Y006679D02*
X009419Y006596D01*
X009528Y006596D02*
X009695Y006596D01*
X009612Y006596D02*
X009612Y006846D01*
X009528Y006763D01*
X009804Y006804D02*
X009804Y006637D01*
X009971Y006804D01*
X009971Y006637D01*
X009929Y006596D01*
X009846Y006596D01*
X009804Y006637D01*
X009804Y006804D02*
X009846Y006846D01*
X009929Y006846D01*
X009971Y006804D01*
X010702Y006846D02*
X010702Y006596D01*
X010702Y006679D02*
X010827Y006679D01*
X010869Y006721D01*
X010869Y006804D01*
X010827Y006846D01*
X010702Y006846D01*
X010785Y006679D02*
X010869Y006596D01*
X010978Y006596D02*
X011145Y006596D01*
X011062Y006596D02*
X011062Y006846D01*
X010978Y006763D01*
X011254Y006763D02*
X011338Y006846D01*
X011338Y006596D01*
X011421Y006596D02*
X011254Y006596D01*
X012152Y006596D02*
X012152Y006846D01*
X012277Y006846D01*
X012319Y006804D01*
X012319Y006721D01*
X012277Y006679D01*
X012152Y006679D01*
X012235Y006679D02*
X012319Y006596D01*
X012428Y006596D02*
X012595Y006596D01*
X012512Y006596D02*
X012512Y006846D01*
X012428Y006763D01*
X012704Y006804D02*
X012746Y006846D01*
X012829Y006846D01*
X012871Y006804D01*
X012871Y006763D01*
X012704Y006596D01*
X012871Y006596D01*
X013878Y006596D02*
X013878Y006846D01*
X014003Y006846D01*
X014045Y006804D01*
X014045Y006721D01*
X014003Y006679D01*
X013878Y006679D01*
X013962Y006679D02*
X014045Y006596D01*
X014154Y006637D02*
X014196Y006596D01*
X014280Y006596D01*
X014321Y006637D01*
X014321Y006804D01*
X014280Y006846D01*
X014196Y006846D01*
X014154Y006804D01*
X014154Y006763D01*
X014196Y006721D01*
X014321Y006721D01*
X015531Y007046D02*
X015697Y007046D01*
X015807Y007046D02*
X015974Y007046D01*
X015890Y007046D02*
X015890Y007296D01*
X015807Y007213D01*
X015531Y007296D02*
X015531Y007046D01*
X015506Y007846D02*
X015547Y007887D01*
X015506Y007846D02*
X015422Y007846D01*
X015381Y007887D01*
X015381Y008054D01*
X015422Y008096D01*
X015506Y008096D01*
X015547Y008054D01*
X015657Y008013D02*
X015740Y008096D01*
X015740Y007846D01*
X015657Y007846D02*
X015824Y007846D01*
X015933Y007846D02*
X016100Y007846D01*
X016016Y007846D02*
X016016Y008096D01*
X015933Y008013D01*
X015932Y008696D02*
X015849Y008696D01*
X015807Y008737D01*
X015807Y008821D01*
X015932Y008821D01*
X015974Y008779D01*
X015974Y008737D01*
X015932Y008696D01*
X015807Y008821D02*
X015890Y008904D01*
X015974Y008946D01*
X015697Y008904D02*
X015697Y008821D01*
X015656Y008779D01*
X015531Y008779D01*
X015614Y008779D02*
X015697Y008696D01*
X015531Y008696D02*
X015531Y008946D01*
X015656Y008946D01*
X015697Y008904D01*
X015697Y009546D02*
X015614Y009629D01*
X015656Y009629D02*
X015531Y009629D01*
X015531Y009546D02*
X015531Y009796D01*
X015656Y009796D01*
X015697Y009754D01*
X015697Y009671D01*
X015656Y009629D01*
X015807Y009587D02*
X015849Y009546D01*
X015932Y009546D01*
X015974Y009587D01*
X015974Y009671D01*
X015932Y009713D01*
X015890Y009713D01*
X015807Y009671D01*
X015807Y009796D01*
X015974Y009796D01*
X015974Y010396D02*
X015807Y010396D01*
X015974Y010563D01*
X015974Y010604D01*
X015932Y010646D01*
X015849Y010646D01*
X015807Y010604D01*
X015697Y010604D02*
X015697Y010521D01*
X015656Y010479D01*
X015531Y010479D01*
X015614Y010479D02*
X015697Y010396D01*
X015531Y010396D02*
X015531Y010646D01*
X015656Y010646D01*
X015697Y010604D01*
X015656Y011246D02*
X015572Y011246D01*
X015531Y011287D01*
X015531Y011454D01*
X015572Y011496D01*
X015656Y011496D01*
X015697Y011454D01*
X015807Y011454D02*
X015807Y011413D01*
X015849Y011371D01*
X015974Y011371D01*
X015974Y011454D02*
X015932Y011496D01*
X015849Y011496D01*
X015807Y011454D01*
X015807Y011287D02*
X015849Y011246D01*
X015932Y011246D01*
X015974Y011287D01*
X015974Y011454D01*
X015697Y011287D02*
X015656Y011246D01*
X015697Y012096D02*
X015614Y012179D01*
X015656Y012179D02*
X015531Y012179D01*
X015531Y012096D02*
X015531Y012346D01*
X015656Y012346D01*
X015697Y012304D01*
X015697Y012221D01*
X015656Y012179D01*
X015807Y012096D02*
X015974Y012096D01*
X015890Y012096D02*
X015890Y012346D01*
X015807Y012263D01*
X015807Y012946D02*
X015807Y012987D01*
X015974Y013154D01*
X015974Y013196D01*
X015807Y013196D01*
X015697Y013154D02*
X015697Y013071D01*
X015656Y013029D01*
X015531Y013029D01*
X015614Y013029D02*
X015697Y012946D01*
X015531Y012946D02*
X015531Y013196D01*
X015656Y013196D01*
X015697Y013154D01*
X014750Y013687D02*
X014750Y013771D01*
X014708Y013813D01*
X014666Y013813D01*
X014583Y013771D01*
X014583Y013896D01*
X014750Y013896D01*
X014390Y013896D02*
X014390Y013646D01*
X014307Y013646D02*
X014474Y013646D01*
X014583Y013687D02*
X014625Y013646D01*
X014708Y013646D01*
X014750Y013687D01*
X014390Y013896D02*
X014307Y013813D01*
X014197Y013854D02*
X014156Y013896D01*
X014072Y013896D01*
X014031Y013854D01*
X014031Y013687D01*
X014072Y013646D01*
X014156Y013646D01*
X014197Y013687D01*
X012950Y013687D02*
X012950Y013729D01*
X012908Y013771D01*
X012783Y013771D01*
X012783Y013687D01*
X012825Y013646D01*
X012908Y013646D01*
X012950Y013687D01*
X012866Y013854D02*
X012783Y013771D01*
X012866Y013854D02*
X012950Y013896D01*
X012590Y013896D02*
X012590Y013646D01*
X012507Y013646D02*
X012674Y013646D01*
X012507Y013813D02*
X012590Y013896D01*
X012397Y013854D02*
X012356Y013896D01*
X012272Y013896D01*
X012231Y013854D01*
X012231Y013687D01*
X012272Y013646D01*
X012356Y013646D01*
X012397Y013687D01*
X012050Y013687D02*
X012050Y013729D01*
X012008Y013771D01*
X011966Y013771D01*
X012008Y013771D02*
X012050Y013813D01*
X012050Y013854D01*
X012008Y013896D01*
X011925Y013896D01*
X011883Y013854D01*
X011883Y013687D02*
X011925Y013646D01*
X012008Y013646D01*
X012050Y013687D01*
X011774Y013646D02*
X011607Y013646D01*
X011690Y013646D02*
X011690Y013896D01*
X011607Y013813D01*
X011497Y013854D02*
X011456Y013896D01*
X011372Y013896D01*
X011331Y013854D01*
X011331Y013687D01*
X011372Y013646D01*
X011456Y013646D01*
X011497Y013687D01*
X010100Y013771D02*
X009933Y013771D01*
X010058Y013896D01*
X010058Y013646D01*
X009824Y013646D02*
X009657Y013646D01*
X009740Y013646D02*
X009740Y013896D01*
X009657Y013813D01*
X009547Y013854D02*
X009506Y013896D01*
X009422Y013896D01*
X009381Y013854D01*
X009381Y013687D01*
X009422Y013646D01*
X009506Y013646D01*
X009547Y013687D01*
X008674Y013687D02*
X008632Y013646D01*
X008549Y013646D01*
X008507Y013687D01*
X008507Y013729D01*
X008549Y013771D01*
X008632Y013771D01*
X008674Y013729D01*
X008674Y013687D01*
X008632Y013771D02*
X008674Y013813D01*
X008674Y013854D01*
X008632Y013896D01*
X008549Y013896D01*
X008507Y013854D01*
X008507Y013813D01*
X008549Y013771D01*
X008397Y013771D02*
X008356Y013729D01*
X008231Y013729D01*
X008314Y013729D02*
X008397Y013646D01*
X008397Y013771D02*
X008397Y013854D01*
X008356Y013896D01*
X008231Y013896D01*
X008231Y013646D01*
X008100Y013854D02*
X007933Y013687D01*
X007933Y013646D01*
X007824Y013646D02*
X007657Y013646D01*
X007740Y013646D02*
X007740Y013896D01*
X007657Y013813D01*
X007547Y013854D02*
X007506Y013896D01*
X007422Y013896D01*
X007381Y013854D01*
X007381Y013687D01*
X007422Y013646D01*
X007506Y013646D01*
X007547Y013687D01*
X007933Y013896D02*
X008100Y013896D01*
X008100Y013854D01*
X007000Y013854D02*
X007000Y013813D01*
X006958Y013771D01*
X006875Y013771D01*
X006833Y013813D01*
X006833Y013854D01*
X006875Y013896D01*
X006958Y013896D01*
X007000Y013854D01*
X006958Y013771D02*
X007000Y013729D01*
X007000Y013687D01*
X006958Y013646D01*
X006875Y013646D01*
X006833Y013687D01*
X006833Y013729D01*
X006875Y013771D01*
X006724Y013646D02*
X006557Y013646D01*
X006640Y013646D02*
X006640Y013896D01*
X006557Y013813D01*
X006447Y013854D02*
X006406Y013896D01*
X006322Y013896D01*
X006281Y013854D01*
X006281Y013687D01*
X006322Y013646D01*
X006406Y013646D01*
X006447Y013687D01*
X004990Y012646D02*
X004990Y012396D01*
X004907Y012396D02*
X005074Y012396D01*
X004907Y012563D02*
X004990Y012646D01*
X004797Y012604D02*
X004797Y012437D01*
X004756Y012396D01*
X004672Y012396D01*
X004631Y012437D01*
X004631Y012604D01*
X004672Y012646D01*
X004756Y012646D01*
X004797Y012604D01*
X004714Y012479D02*
X004797Y012396D01*
X004221Y012354D02*
X004179Y012396D01*
X004096Y012396D01*
X004054Y012354D01*
X003945Y012354D02*
X003903Y012396D01*
X003820Y012396D01*
X003778Y012354D01*
X003669Y012354D02*
X003627Y012396D01*
X003544Y012396D01*
X003502Y012354D01*
X003502Y012187D01*
X003544Y012146D01*
X003627Y012146D01*
X003669Y012187D01*
X003778Y012146D02*
X003945Y012313D01*
X003945Y012354D01*
X003945Y012146D02*
X003778Y012146D01*
X004054Y012146D02*
X004221Y012313D01*
X004221Y012354D01*
X004221Y012146D02*
X004054Y012146D01*
X020228Y006387D02*
X020270Y006346D01*
X020312Y006346D01*
X020353Y006387D01*
X020353Y006596D01*
X020312Y006596D02*
X020395Y006596D01*
X020504Y006513D02*
X020588Y006596D01*
X020588Y006346D01*
X020671Y006346D02*
X020504Y006346D01*
M02*
