G75*
G70*
%OFA0B0*%
%FSLAX24Y24*%
%IPPOS*%
%LPD*%
%AMOC8*
5,1,8,0,0,1.08239X$1,22.5*
%
%ADD10R,0.0394X0.0187*%
%ADD11C,0.0700*%
%ADD12R,0.0945X0.0591*%
%ADD13R,0.2264X0.2323*%
%ADD14R,0.0710X0.0630*%
%ADD15R,0.0630X0.0710*%
%ADD16OC8,0.0594*%
%ADD17R,0.0390X0.0400*%
%ADD18C,0.1000*%
%ADD19R,0.0400X0.0390*%
%ADD20C,0.1100*%
%ADD21R,0.0394X0.0394*%
%ADD22R,0.0394X0.0787*%
%ADD23C,0.0554*%
%ADD24R,0.0236X0.0709*%
%ADD25R,0.0472X0.0236*%
%ADD26R,0.0787X0.2165*%
%ADD27C,0.0768*%
%ADD28C,0.0120*%
%ADD29C,0.0357*%
%ADD30C,0.0100*%
%ADD31C,0.0160*%
%ADD32C,0.0476*%
%ADD33C,0.0320*%
%ADD34C,0.0436*%
D10*
X006620Y004811D03*
X007624Y004811D03*
D11*
X007272Y002727D03*
X008272Y002727D03*
X009272Y002727D03*
X010272Y002727D03*
X011272Y002727D03*
X012272Y002727D03*
X013272Y002727D03*
X014272Y002727D03*
X015272Y002727D03*
X016272Y002727D03*
X017272Y002727D03*
X018272Y002727D03*
X019272Y002727D03*
X020272Y002727D03*
X021272Y002727D03*
X022272Y002727D03*
X023272Y002727D03*
X006272Y002727D03*
X005272Y002727D03*
X004272Y002727D03*
X003272Y002727D03*
D12*
X015544Y012272D03*
X015544Y014083D03*
D13*
X012965Y013177D03*
D14*
X010322Y012887D03*
X010322Y011768D03*
X010322Y010937D03*
X010322Y009818D03*
D15*
X010162Y008527D03*
X011281Y008527D03*
X013062Y008527D03*
X014181Y008527D03*
X015162Y008527D03*
X016281Y008527D03*
X017312Y008527D03*
X018431Y008527D03*
X008781Y008527D03*
X007662Y008527D03*
D16*
X009272Y010127D03*
X013272Y010127D03*
X014622Y010127D03*
X018622Y010127D03*
D17*
X020487Y005127D03*
X021156Y005127D03*
X022787Y004677D03*
X022787Y004027D03*
X023456Y004027D03*
X023456Y004677D03*
X019356Y004277D03*
X018687Y004277D03*
X011606Y003777D03*
X010937Y003777D03*
D18*
X006722Y011227D03*
X004722Y011227D03*
X020672Y011227D03*
X022672Y011227D03*
D19*
X009222Y004562D03*
X008522Y004562D03*
X008522Y003893D03*
X009222Y003893D03*
D20*
X008843Y013177D03*
X017701Y013177D03*
D21*
X022787Y005327D03*
X023456Y005327D03*
X020472Y004262D03*
X020472Y003593D03*
X019356Y003527D03*
X018687Y003527D03*
X019237Y005127D03*
X019906Y005127D03*
X009922Y004562D03*
X009922Y003893D03*
D22*
X010922Y004541D03*
X011922Y004541D03*
X011922Y007214D03*
X010922Y007214D03*
X007622Y007321D03*
X006622Y007321D03*
X006622Y004333D03*
X007622Y004333D03*
D23*
X013322Y003677D03*
X014322Y003677D03*
X015322Y003677D03*
X016322Y003677D03*
X016822Y004677D03*
X015822Y004677D03*
X014822Y004677D03*
X013822Y004677D03*
X012222Y010127D03*
D24*
X019472Y007788D03*
X019972Y007788D03*
X020472Y007788D03*
X020972Y007788D03*
X020972Y005867D03*
X020472Y005867D03*
X019972Y005867D03*
X019472Y005867D03*
D25*
X021044Y004251D03*
X021044Y003503D03*
X022072Y003503D03*
X022072Y003877D03*
X022072Y004251D03*
D26*
X021739Y013227D03*
X018904Y013227D03*
D27*
X008222Y013927D03*
X008222Y011527D03*
D28*
X003233Y003237D02*
X003233Y002766D01*
X003310Y002766D01*
X003310Y003237D01*
X003373Y003237D01*
X003561Y003160D01*
X003704Y003016D01*
X003761Y002879D01*
X003822Y003028D01*
X003971Y003177D01*
X004032Y003202D01*
X004032Y004528D01*
X004032Y004727D01*
X004582Y005277D01*
X004722Y005417D01*
X008422Y005417D01*
X013722Y005417D01*
X017662Y005417D01*
X017668Y005431D01*
X017768Y005531D01*
X017900Y005586D01*
X018043Y005586D01*
X018175Y005531D01*
X018276Y005431D01*
X018330Y005299D01*
X018330Y005156D01*
X018276Y005024D01*
X018175Y004923D01*
X018043Y004869D01*
X017900Y004869D01*
X017768Y004923D01*
X017754Y004937D01*
X017208Y004937D01*
X017209Y004936D01*
X017279Y004768D01*
X017279Y004586D01*
X017210Y004420D01*
X017236Y004431D01*
X017426Y004431D01*
X017600Y004359D01*
X017734Y004225D01*
X017806Y004051D01*
X017806Y003862D01*
X017734Y003687D01*
X017600Y003553D01*
X017426Y003481D01*
X017236Y003481D01*
X017062Y003553D01*
X016928Y003687D01*
X016856Y003862D01*
X016856Y004051D01*
X016928Y004225D01*
X016930Y004228D01*
X016913Y004220D01*
X016731Y004220D01*
X016563Y004290D01*
X016434Y004418D01*
X016364Y004586D01*
X016364Y004768D01*
X016434Y004936D01*
X016435Y004937D01*
X016208Y004937D01*
X016209Y004936D01*
X016279Y004768D01*
X016279Y004586D01*
X016209Y004418D01*
X016081Y004290D01*
X015913Y004220D01*
X015731Y004220D01*
X015563Y004290D01*
X015511Y004342D01*
X015304Y004135D01*
X015413Y004135D01*
X015581Y004065D01*
X015709Y003936D01*
X015779Y003768D01*
X015779Y003586D01*
X015725Y003457D01*
X015918Y003457D01*
X015864Y003586D01*
X015864Y003768D01*
X015934Y003936D01*
X016063Y004065D01*
X016231Y004135D01*
X016413Y004135D01*
X016581Y004065D01*
X016709Y003936D01*
X016779Y003768D01*
X016779Y003745D01*
X017067Y003457D01*
X017426Y003457D01*
X017617Y003457D01*
X017934Y003140D01*
X017971Y003177D01*
X018166Y003257D01*
X018310Y003257D01*
X018310Y003799D01*
X018413Y003902D01*
X018312Y004003D01*
X018312Y004552D01*
X018417Y004657D01*
X018676Y004657D01*
X018882Y004863D01*
X018880Y004864D01*
X018880Y005089D01*
X019198Y005089D01*
X019198Y005166D01*
X018880Y005166D01*
X018880Y005391D01*
X018974Y005484D01*
X019194Y005484D01*
X019194Y005677D01*
X002952Y005677D01*
X002952Y003129D01*
X002983Y003160D01*
X003170Y003237D01*
X003233Y003237D01*
X003233Y003176D02*
X003310Y003176D01*
X003310Y003057D02*
X003233Y003057D01*
X003233Y002939D02*
X003310Y002939D01*
X003310Y002820D02*
X003233Y002820D01*
X003663Y003057D02*
X003852Y003057D01*
X003786Y002939D02*
X003736Y002939D01*
X003522Y003176D02*
X003970Y003176D01*
X004032Y003294D02*
X002952Y003294D01*
X002952Y003176D02*
X003021Y003176D01*
X002952Y003413D02*
X004032Y003413D01*
X004032Y003531D02*
X002952Y003531D01*
X002952Y003650D02*
X004032Y003650D01*
X004032Y003768D02*
X002952Y003768D01*
X002952Y003887D02*
X004032Y003887D01*
X004032Y004006D02*
X002952Y004006D01*
X002952Y004124D02*
X004032Y004124D01*
X004032Y004243D02*
X002952Y004243D01*
X002952Y004361D02*
X004032Y004361D01*
X004032Y004480D02*
X002952Y004480D01*
X002952Y004598D02*
X004032Y004598D01*
X004032Y004717D02*
X002952Y004717D01*
X002952Y004835D02*
X004140Y004835D01*
X004259Y004954D02*
X002952Y004954D01*
X002952Y005072D02*
X004377Y005072D01*
X004496Y005191D02*
X002952Y005191D01*
X002952Y005310D02*
X004614Y005310D01*
X004822Y005177D02*
X008522Y005177D01*
X013822Y005177D01*
X013822Y004677D01*
X013418Y004457D02*
X013330Y004457D01*
X013330Y004549D01*
X013276Y004681D01*
X013175Y004781D01*
X013043Y004836D01*
X012900Y004836D01*
X012768Y004781D01*
X012668Y004681D01*
X012613Y004549D01*
X012613Y004406D01*
X012668Y004274D01*
X012768Y004173D01*
X012900Y004119D01*
X013005Y004119D01*
X013061Y004063D01*
X012934Y003936D01*
X012864Y003768D01*
X012864Y003586D01*
X012934Y003418D01*
X013063Y003290D01*
X013154Y003252D01*
X012971Y003177D01*
X012959Y003165D01*
X012667Y003457D01*
X012476Y003457D01*
X012267Y003457D01*
X011981Y003743D01*
X011981Y003987D01*
X012185Y003987D01*
X012278Y004081D01*
X012278Y004502D01*
X011960Y004502D01*
X011960Y004579D01*
X012278Y004579D01*
X012278Y004937D01*
X013435Y004937D01*
X013434Y004936D01*
X013364Y004768D01*
X013364Y004586D01*
X013418Y004457D01*
X013409Y004480D02*
X013330Y004480D01*
X013310Y004598D02*
X013364Y004598D01*
X013364Y004717D02*
X013240Y004717D01*
X013392Y004835D02*
X013045Y004835D01*
X012899Y004835D02*
X012278Y004835D01*
X012278Y004717D02*
X012704Y004717D01*
X012633Y004598D02*
X012278Y004598D01*
X012278Y004480D02*
X012613Y004480D01*
X012631Y004361D02*
X012278Y004361D01*
X012278Y004243D02*
X012699Y004243D01*
X012887Y004124D02*
X012278Y004124D01*
X012203Y004006D02*
X013003Y004006D01*
X012914Y003887D02*
X011981Y003887D01*
X011981Y003768D02*
X012865Y003768D01*
X012864Y003650D02*
X012074Y003650D01*
X012193Y003531D02*
X012887Y003531D01*
X012940Y003413D02*
X012711Y003413D01*
X012830Y003294D02*
X013058Y003294D01*
X012971Y003176D02*
X012949Y003176D01*
X011934Y003140D02*
X011822Y003028D01*
X011772Y002905D01*
X011721Y003028D01*
X011572Y003177D01*
X011377Y003257D01*
X011166Y003257D01*
X010971Y003177D01*
X010822Y003028D01*
X010772Y002905D01*
X010721Y003028D01*
X010572Y003177D01*
X010502Y003206D01*
X010502Y004523D01*
X010367Y004657D01*
X010317Y004707D01*
X010298Y004707D01*
X010298Y004833D01*
X010194Y004937D01*
X010545Y004937D01*
X010545Y004073D01*
X010564Y004054D01*
X010562Y004052D01*
X010562Y003503D01*
X010667Y003397D01*
X011207Y003397D01*
X011272Y003463D01*
X011337Y003397D01*
X011676Y003397D01*
X011934Y003140D01*
X011898Y003176D02*
X011573Y003176D01*
X011691Y003057D02*
X011852Y003057D01*
X011786Y002939D02*
X011758Y002939D01*
X011779Y003294D02*
X010502Y003294D01*
X010502Y003413D02*
X010652Y003413D01*
X010562Y003531D02*
X010502Y003531D01*
X010502Y003650D02*
X010562Y003650D01*
X010562Y003768D02*
X010502Y003768D01*
X010502Y003887D02*
X010562Y003887D01*
X010562Y004006D02*
X010502Y004006D01*
X010502Y004124D02*
X010545Y004124D01*
X010545Y004243D02*
X010502Y004243D01*
X010502Y004361D02*
X010545Y004361D01*
X010545Y004480D02*
X010502Y004480D01*
X010545Y004598D02*
X010426Y004598D01*
X010545Y004717D02*
X010298Y004717D01*
X010297Y004835D02*
X010545Y004835D01*
X009922Y004577D02*
X009372Y004577D01*
X009356Y004562D01*
X009222Y004562D01*
X008522Y004562D02*
X008522Y005177D01*
X007247Y004937D02*
X007247Y004804D01*
X007245Y004802D01*
X007245Y003865D01*
X007350Y003760D01*
X007893Y003760D01*
X007998Y003865D01*
X007998Y003975D01*
X008042Y003932D01*
X008142Y003832D01*
X008142Y003623D01*
X008247Y003518D01*
X008796Y003518D01*
X008872Y003593D01*
X008947Y003518D01*
X009496Y003518D01*
X009586Y003608D01*
X009659Y003536D01*
X009883Y003536D01*
X009883Y003854D01*
X009960Y003854D01*
X009960Y003536D01*
X010042Y003536D01*
X010042Y003206D01*
X009971Y003177D01*
X009822Y003028D01*
X009772Y002905D01*
X009721Y003028D01*
X009572Y003177D01*
X009377Y003257D01*
X009166Y003257D01*
X008971Y003177D01*
X008822Y003028D01*
X008772Y002905D01*
X008721Y003028D01*
X008572Y003177D01*
X008377Y003257D01*
X008166Y003257D01*
X007971Y003177D01*
X007822Y003028D01*
X007772Y002905D01*
X007721Y003028D01*
X007572Y003177D01*
X007377Y003257D01*
X007166Y003257D01*
X006971Y003177D01*
X006822Y003028D01*
X006772Y002905D01*
X006721Y003028D01*
X006572Y003177D01*
X006377Y003257D01*
X006166Y003257D01*
X005971Y003177D01*
X005822Y003028D01*
X005772Y002905D01*
X005721Y003028D01*
X005572Y003177D01*
X005377Y003257D01*
X005166Y003257D01*
X004971Y003177D01*
X004822Y003028D01*
X004772Y002905D01*
X004721Y003028D01*
X004572Y003177D01*
X004512Y003202D01*
X004512Y004528D01*
X004921Y004937D01*
X006243Y004937D01*
X006243Y004643D01*
X006265Y004621D01*
X006265Y004372D01*
X006583Y004372D01*
X006583Y004295D01*
X006265Y004295D01*
X006265Y003873D01*
X006359Y003780D01*
X006583Y003780D01*
X006583Y004295D01*
X006660Y004295D01*
X006660Y004372D01*
X006978Y004372D01*
X006978Y004625D01*
X006997Y004643D01*
X006997Y004937D01*
X007247Y004937D01*
X007247Y004835D02*
X006997Y004835D01*
X006997Y004717D02*
X007245Y004717D01*
X007245Y004598D02*
X006978Y004598D01*
X006978Y004480D02*
X007245Y004480D01*
X007245Y004361D02*
X006660Y004361D01*
X006660Y004295D02*
X006978Y004295D01*
X006978Y003873D01*
X006885Y003780D01*
X006660Y003780D01*
X006660Y004295D01*
X006660Y004243D02*
X006583Y004243D01*
X006583Y004361D02*
X004512Y004361D01*
X004512Y004243D02*
X006265Y004243D01*
X006265Y004124D02*
X004512Y004124D01*
X004512Y004006D02*
X006265Y004006D01*
X006265Y003887D02*
X004512Y003887D01*
X004512Y003768D02*
X007341Y003768D01*
X007245Y003887D02*
X006978Y003887D01*
X006978Y004006D02*
X007245Y004006D01*
X007245Y004124D02*
X006978Y004124D01*
X006978Y004243D02*
X007245Y004243D01*
X007998Y003887D02*
X008087Y003887D01*
X008142Y003768D02*
X007902Y003768D01*
X008142Y003650D02*
X004512Y003650D01*
X004512Y003531D02*
X008233Y003531D01*
X007970Y003176D02*
X007573Y003176D01*
X007691Y003057D02*
X007852Y003057D01*
X007786Y002939D02*
X007758Y002939D01*
X006970Y003176D02*
X006573Y003176D01*
X006691Y003057D02*
X006852Y003057D01*
X006786Y002939D02*
X006758Y002939D01*
X005970Y003176D02*
X005573Y003176D01*
X005691Y003057D02*
X005852Y003057D01*
X005786Y002939D02*
X005758Y002939D01*
X004970Y003176D02*
X004573Y003176D01*
X004512Y003294D02*
X010042Y003294D01*
X010042Y003413D02*
X004512Y003413D01*
X004691Y003057D02*
X004852Y003057D01*
X004786Y002939D02*
X004758Y002939D01*
X004272Y002727D02*
X004272Y004627D01*
X004822Y005177D01*
X004819Y004835D02*
X006243Y004835D01*
X006243Y004717D02*
X004700Y004717D01*
X004582Y004598D02*
X006265Y004598D01*
X006265Y004480D02*
X004512Y004480D01*
X002952Y005428D02*
X017666Y005428D01*
X017805Y005547D02*
X002952Y005547D01*
X002952Y005665D02*
X019194Y005665D01*
X019194Y005547D02*
X018138Y005547D01*
X018277Y005428D02*
X018918Y005428D01*
X018880Y005310D02*
X018326Y005310D01*
X018330Y005191D02*
X018880Y005191D01*
X018880Y005072D02*
X018296Y005072D01*
X018205Y004954D02*
X018880Y004954D01*
X018854Y004835D02*
X017251Y004835D01*
X017279Y004717D02*
X018736Y004717D01*
X018358Y004598D02*
X017279Y004598D01*
X017235Y004480D02*
X018312Y004480D01*
X018312Y004361D02*
X017595Y004361D01*
X017717Y004243D02*
X018312Y004243D01*
X018312Y004124D02*
X017776Y004124D01*
X017806Y004006D02*
X018312Y004006D01*
X018398Y003887D02*
X017806Y003887D01*
X017768Y003768D02*
X018310Y003768D01*
X018310Y003650D02*
X017697Y003650D01*
X017547Y003531D02*
X018310Y003531D01*
X018310Y003413D02*
X017661Y003413D01*
X017780Y003294D02*
X018310Y003294D01*
X017971Y003176D02*
X017899Y003176D01*
X017114Y003531D02*
X016993Y003531D01*
X016965Y003650D02*
X016874Y003650D01*
X016894Y003768D02*
X016779Y003768D01*
X016730Y003887D02*
X016856Y003887D01*
X016856Y004006D02*
X016640Y004006D01*
X016438Y004124D02*
X016886Y004124D01*
X016677Y004243D02*
X015967Y004243D01*
X016152Y004361D02*
X016491Y004361D01*
X016409Y004480D02*
X016235Y004480D01*
X016279Y004598D02*
X016364Y004598D01*
X016364Y004717D02*
X016279Y004717D01*
X016251Y004835D02*
X016392Y004835D01*
X015677Y004243D02*
X015412Y004243D01*
X015438Y004124D02*
X016206Y004124D01*
X016003Y004006D02*
X015640Y004006D01*
X015730Y003887D02*
X015914Y003887D01*
X015865Y003768D02*
X015779Y003768D01*
X015779Y003650D02*
X015864Y003650D01*
X015887Y003531D02*
X015756Y003531D01*
X013822Y005177D02*
X017922Y005177D01*
X017972Y005227D01*
X019731Y004447D02*
X019731Y004003D01*
X019630Y003902D01*
X019733Y003799D01*
X019733Y003641D01*
X019917Y003457D01*
X020095Y003457D01*
X020095Y003864D01*
X020172Y003941D01*
X020115Y003999D01*
X020115Y004224D01*
X020433Y004224D01*
X020433Y004300D01*
X020115Y004300D01*
X020115Y004447D01*
X019731Y004447D01*
X019731Y004361D02*
X020115Y004361D01*
X020433Y004243D02*
X019731Y004243D01*
X019731Y004124D02*
X020115Y004124D01*
X020115Y004006D02*
X019731Y004006D01*
X019645Y003887D02*
X020118Y003887D01*
X020095Y003768D02*
X019733Y003768D01*
X019733Y003650D02*
X020095Y003650D01*
X020095Y003531D02*
X019843Y003531D01*
X022072Y003877D02*
X022412Y003877D01*
X022412Y003878D01*
X022072Y003878D01*
X022072Y003877D01*
X022488Y003677D02*
X022517Y003647D01*
X023057Y003647D01*
X023136Y003727D01*
X023195Y003667D01*
X023419Y003667D01*
X023419Y003990D01*
X023494Y003990D01*
X023494Y003667D01*
X023592Y003667D01*
X023592Y003157D01*
X023572Y003177D01*
X023377Y003257D01*
X023166Y003257D01*
X022971Y003177D01*
X022822Y003028D01*
X022772Y002905D01*
X022721Y003028D01*
X022572Y003177D01*
X022502Y003206D01*
X022502Y003382D01*
X022502Y003573D01*
X022488Y003586D01*
X022488Y003677D01*
X022488Y003650D02*
X022515Y003650D01*
X022502Y003531D02*
X023592Y003531D01*
X023592Y003413D02*
X022502Y003413D01*
X022502Y003294D02*
X023592Y003294D01*
X023592Y003176D02*
X023573Y003176D01*
X022970Y003176D02*
X022573Y003176D01*
X022691Y003057D02*
X022852Y003057D01*
X022786Y002939D02*
X022758Y002939D01*
X023059Y003650D02*
X023592Y003650D01*
X023494Y003768D02*
X023419Y003768D01*
X023419Y003887D02*
X023494Y003887D01*
X023495Y005366D02*
X023418Y005366D01*
X023418Y005684D01*
X023193Y005684D01*
X023136Y005627D01*
X023058Y005704D01*
X022516Y005704D01*
X022410Y005599D01*
X022410Y005517D01*
X022039Y005517D01*
X021975Y005581D01*
X021843Y005636D01*
X021738Y005636D01*
X021697Y005677D01*
X022022Y005677D01*
X022022Y006027D01*
X023592Y006027D01*
X023592Y005684D01*
X023495Y005684D01*
X023495Y005366D01*
X023495Y005428D02*
X023418Y005428D01*
X023418Y005547D02*
X023495Y005547D01*
X023495Y005665D02*
X023418Y005665D01*
X023592Y005784D02*
X022022Y005784D01*
X022022Y005902D02*
X023592Y005902D01*
X023592Y006021D02*
X022022Y006021D01*
X021709Y005665D02*
X022477Y005665D01*
X022410Y005547D02*
X022010Y005547D01*
X021772Y005277D02*
X022722Y005277D01*
X022772Y005343D01*
X022787Y005327D01*
X023097Y005665D02*
X023174Y005665D01*
X018431Y008527D02*
X018272Y008727D01*
X018222Y008677D01*
X018222Y007827D01*
X017672Y007277D01*
X011972Y007277D01*
X011922Y007227D01*
X011922Y007214D01*
X010922Y007227D02*
X010922Y007214D01*
X010922Y007227D02*
X010822Y007327D01*
X010372Y007327D01*
X010162Y008527D02*
X010122Y008568D01*
X010122Y008527D01*
X008781Y008527D01*
X008772Y008577D01*
X007662Y008527D02*
X007622Y008587D01*
X007622Y007321D01*
X006622Y007321D02*
X006622Y008027D01*
X004722Y009927D01*
X004722Y011227D01*
X010122Y011137D02*
X010122Y011827D01*
X010322Y011768D01*
X010122Y011137D02*
X010322Y010937D01*
X010172Y010977D01*
X010022Y009827D02*
X010322Y009818D01*
X015572Y012277D02*
X015622Y012327D01*
X015522Y014077D02*
X015672Y014127D01*
X014872Y014127D01*
X015372Y014227D02*
X015522Y014077D01*
X015522Y014083D01*
X015544Y014083D01*
X015527Y014083D01*
X015522Y014077D01*
X017112Y008718D02*
X017312Y008527D01*
X017322Y008627D01*
X011565Y004937D02*
X011565Y004579D01*
X011883Y004579D01*
X011883Y004502D01*
X011565Y004502D01*
X011565Y004157D01*
X011337Y004157D01*
X011298Y004119D01*
X011298Y004937D01*
X011565Y004937D01*
X011565Y004835D02*
X011298Y004835D01*
X011298Y004717D02*
X011565Y004717D01*
X011565Y004598D02*
X011298Y004598D01*
X011298Y004480D02*
X011565Y004480D01*
X011565Y004361D02*
X011298Y004361D01*
X011298Y004243D02*
X011565Y004243D01*
X011304Y004124D02*
X011298Y004124D01*
X011321Y003413D02*
X011222Y003413D01*
X010970Y003176D02*
X010573Y003176D01*
X010691Y003057D02*
X010852Y003057D01*
X010786Y002939D02*
X010758Y002939D01*
X009970Y003176D02*
X009573Y003176D01*
X009691Y003057D02*
X009852Y003057D01*
X009786Y002939D02*
X009758Y002939D01*
X008970Y003176D02*
X008573Y003176D01*
X008691Y003057D02*
X008852Y003057D01*
X008786Y002939D02*
X008758Y002939D01*
X008810Y003531D02*
X008933Y003531D01*
X009222Y003893D02*
X009287Y003893D01*
X009272Y003877D01*
X008572Y003877D01*
X008537Y003893D02*
X008522Y003893D01*
X008537Y003893D02*
X008522Y003877D01*
X009510Y003531D02*
X010042Y003531D01*
X009960Y003650D02*
X009883Y003650D01*
X009883Y003768D02*
X009960Y003768D01*
X006660Y003887D02*
X006583Y003887D01*
X006583Y004006D02*
X006660Y004006D01*
X006660Y004124D02*
X006583Y004124D01*
D29*
X004772Y003227D03*
X009772Y003227D03*
X010772Y003227D03*
X012422Y004477D03*
X012972Y004477D03*
X010372Y007327D03*
X012172Y008527D03*
X011872Y009077D03*
X012522Y009077D03*
X012372Y011227D03*
X012972Y011677D03*
X013572Y011227D03*
X014122Y011677D03*
X014422Y013177D03*
X011772Y011677D03*
X011522Y012277D03*
X011072Y012727D03*
X011522Y013177D03*
X011072Y013627D03*
X011522Y014077D03*
X022272Y005777D03*
X021772Y005277D03*
X019922Y004077D03*
X018672Y005127D03*
X017972Y005227D03*
X022772Y003277D03*
D30*
X022472Y003477D01*
X022472Y003727D01*
X022372Y003827D01*
X022322Y003877D01*
X022072Y003877D01*
X022122Y003527D02*
X022072Y003503D01*
X022072Y003478D01*
X021822Y003227D01*
X019822Y003227D01*
X019522Y003527D01*
X019322Y003577D01*
X019322Y004177D01*
X019372Y004227D01*
X019356Y004277D01*
X019022Y004677D02*
X018672Y004327D01*
X018687Y004312D01*
X018687Y004277D01*
X018672Y004227D01*
X018672Y003577D01*
X018687Y003562D01*
X018687Y003527D01*
X019356Y003527D02*
X019522Y003527D01*
X020472Y003527D02*
X021072Y003527D01*
X021322Y003527D01*
X021622Y003827D01*
X021622Y005127D01*
X021772Y005277D01*
X021422Y005627D01*
X021022Y005627D01*
X020972Y005677D01*
X020972Y005867D01*
X020472Y005867D02*
X020472Y005177D01*
X020487Y005162D01*
X020487Y005127D01*
X019972Y005177D02*
X019972Y005867D01*
X019972Y005877D01*
X020472Y005867D02*
X020472Y005877D01*
X019972Y005177D02*
X019922Y005127D01*
X019906Y005127D01*
X019472Y005327D02*
X019472Y005867D01*
X019472Y005877D01*
X019472Y005327D02*
X019272Y005127D01*
X019237Y005127D01*
X019022Y004677D02*
X021072Y004677D01*
X021122Y004677D01*
X021122Y005077D01*
X021156Y005112D01*
X021156Y005127D01*
X021122Y005127D01*
X021122Y004677D02*
X021122Y004277D01*
X021096Y004251D01*
X021146Y004203D01*
X021096Y004251D02*
X021044Y004251D01*
X021072Y003527D02*
X021094Y003505D01*
X021044Y003503D01*
X020472Y003527D02*
X020472Y003593D01*
X022072Y003503D02*
X022122Y003477D01*
X022272Y003477D01*
X022272Y002727D01*
X022122Y003477D02*
X022122Y003477D01*
X022722Y003977D02*
X022722Y004627D01*
X022737Y004627D01*
X022787Y004677D01*
X022687Y004227D02*
X022122Y004227D01*
X022072Y004251D01*
X022687Y004227D02*
X022787Y004027D01*
X022722Y003977D01*
X023422Y004627D02*
X023456Y004677D01*
X023372Y004677D01*
X022872Y005227D01*
X022772Y005327D01*
X022772Y005343D01*
X018272Y002727D02*
X018022Y002727D01*
X017522Y003227D01*
X016972Y003227D01*
X016522Y003677D01*
X016322Y003677D01*
X016572Y003227D02*
X017072Y002727D01*
X017272Y002727D01*
X016572Y003227D02*
X013772Y003227D01*
X013322Y003677D01*
X013222Y004227D02*
X012972Y004477D01*
X013222Y004227D02*
X015072Y004227D01*
X015522Y004677D01*
X015822Y004677D01*
X013272Y002727D02*
X013072Y002727D01*
X012572Y003227D01*
X012172Y003227D01*
X011706Y003693D01*
X011706Y003712D01*
X011606Y003777D01*
X010937Y003777D02*
X010922Y003827D01*
X010922Y004541D01*
X010272Y004427D02*
X010272Y002727D01*
X008672Y003843D02*
X008522Y003827D01*
X008572Y003877D01*
X008556Y003893D01*
X008537Y003893D01*
X008522Y003893D02*
X008522Y003877D01*
X008522Y004027D01*
X008272Y004027D01*
X007972Y004327D01*
X007622Y004333D01*
X008522Y003893D02*
X008622Y003877D01*
X009922Y004562D02*
X009972Y004512D01*
X009972Y004477D01*
X010222Y004477D01*
X010272Y004427D01*
X009922Y004562D02*
X009922Y004577D01*
D31*
X011776Y008248D02*
X011776Y008450D01*
X011359Y008450D01*
X011359Y008605D01*
X011204Y008605D01*
X011204Y009062D01*
X011141Y009062D01*
X011317Y009237D01*
X011317Y009372D01*
X011322Y009377D01*
X011675Y009377D01*
X011702Y009350D01*
X012039Y009210D01*
X012404Y009210D01*
X012729Y009345D01*
X012884Y009191D01*
X013208Y009191D01*
X013239Y009160D01*
X013227Y009147D01*
X013227Y009062D01*
X013139Y009062D01*
X013139Y008605D01*
X012984Y008605D01*
X012984Y008450D01*
X012567Y008450D01*
X012567Y008227D01*
X012404Y008227D01*
X012384Y008248D01*
X011776Y008248D01*
X011776Y008252D02*
X012567Y008252D01*
X012567Y008411D02*
X011776Y008411D01*
X011776Y008605D02*
X011359Y008605D01*
X011359Y009062D01*
X011671Y009062D01*
X011776Y008957D01*
X011776Y008605D01*
X011776Y008728D02*
X012567Y008728D01*
X012567Y008605D02*
X012984Y008605D01*
X012984Y009062D01*
X012672Y009062D01*
X012567Y008957D01*
X012567Y008605D01*
X012172Y008527D02*
X013062Y008527D01*
X012984Y008569D02*
X011359Y008569D01*
X011281Y008527D02*
X012172Y008527D01*
X012567Y008886D02*
X011776Y008886D01*
X011689Y009045D02*
X012655Y009045D01*
X012871Y009203D02*
X011282Y009203D01*
X011317Y009362D02*
X011690Y009362D01*
X011359Y009045D02*
X011204Y009045D01*
X011204Y008886D02*
X011359Y008886D01*
X011359Y008728D02*
X011204Y008728D01*
X010022Y009827D02*
X009722Y010127D01*
X009272Y010127D01*
X011317Y010339D02*
X011317Y010357D01*
X011317Y011517D01*
X011317Y012348D01*
X010942Y012722D01*
X010857Y012722D01*
X010857Y012810D01*
X010399Y012810D01*
X010399Y012965D01*
X010244Y012965D01*
X010244Y013382D01*
X010032Y013382D01*
X010032Y013414D01*
X009851Y013851D01*
X009622Y014081D01*
X009622Y014277D01*
X011653Y014277D01*
X011653Y013257D01*
X012885Y013257D01*
X012885Y013097D01*
X013045Y013097D01*
X013045Y011836D01*
X014172Y011836D01*
X014277Y011941D01*
X014277Y013097D01*
X013045Y013097D01*
X013045Y013257D01*
X014277Y013257D01*
X014277Y013508D01*
X014386Y013400D01*
X014674Y013281D01*
X014777Y013177D01*
X014432Y012832D01*
X014432Y011711D01*
X014807Y011337D01*
X015181Y011337D01*
X015497Y011021D01*
X015323Y010847D01*
X015226Y010847D01*
X015010Y011064D01*
X014234Y011064D01*
X014017Y010847D01*
X013876Y010847D01*
X013660Y011064D01*
X012884Y011064D01*
X012729Y010910D01*
X012404Y011045D01*
X012039Y011045D01*
X011702Y010905D01*
X011444Y010647D01*
X011317Y010339D01*
X011317Y010472D02*
X011372Y010472D01*
X011317Y010630D02*
X011437Y010630D01*
X011317Y010789D02*
X011586Y010789D01*
X011804Y010947D02*
X011317Y010947D01*
X011317Y011106D02*
X015412Y011106D01*
X015423Y010947D02*
X015127Y010947D01*
X015253Y011264D02*
X011317Y011264D01*
X011317Y011423D02*
X014720Y011423D01*
X014562Y011581D02*
X011317Y011581D01*
X011317Y011740D02*
X014432Y011740D01*
X014432Y011899D02*
X014234Y011899D01*
X014277Y012057D02*
X014432Y012057D01*
X014432Y012216D02*
X014277Y012216D01*
X014277Y012374D02*
X014432Y012374D01*
X014432Y012533D02*
X014277Y012533D01*
X014277Y012691D02*
X014432Y012691D01*
X014449Y012850D02*
X014277Y012850D01*
X014277Y013008D02*
X014608Y013008D01*
X014766Y013167D02*
X013045Y013167D01*
X013045Y013258D02*
X013045Y014277D01*
X012885Y014277D01*
X013045Y014277D01*
X013045Y014118D02*
X012885Y014118D01*
X012885Y013960D02*
X013045Y013960D01*
X013045Y013801D02*
X012885Y013801D01*
X012885Y013643D02*
X013045Y013643D01*
X013045Y013484D02*
X012885Y013484D01*
X012885Y013325D02*
X013045Y013325D01*
X013045Y013258D02*
X012885Y013258D01*
X012885Y014277D01*
X011653Y014277D02*
X009622Y014277D01*
X009622Y014118D02*
X011653Y014118D01*
X011653Y013960D02*
X009743Y013960D01*
X009872Y013801D02*
X011653Y013801D01*
X011653Y013643D02*
X009938Y013643D01*
X010004Y013484D02*
X011653Y013484D01*
X011653Y013325D02*
X010808Y013325D01*
X010857Y013277D02*
X010751Y013382D01*
X010399Y013382D01*
X010399Y012965D01*
X010857Y012965D01*
X010857Y013277D01*
X010857Y013167D02*
X012885Y013167D01*
X012885Y013097D02*
X011653Y013097D01*
X011653Y011941D01*
X011759Y011836D01*
X012885Y011836D01*
X012885Y013097D01*
X012885Y013008D02*
X013045Y013008D01*
X013045Y012850D02*
X012885Y012850D01*
X012885Y012691D02*
X013045Y012691D01*
X013045Y012533D02*
X012885Y012533D01*
X012885Y012374D02*
X013045Y012374D01*
X013045Y012216D02*
X012885Y012216D01*
X012885Y012057D02*
X013045Y012057D01*
X013045Y011899D02*
X012885Y011899D01*
X012767Y010947D02*
X012639Y010947D01*
X013777Y010947D02*
X014117Y010947D01*
X014622Y010127D02*
X013272Y010127D01*
X012222Y010127D01*
X012984Y009045D02*
X013139Y009045D01*
X013139Y008886D02*
X012984Y008886D01*
X012984Y008728D02*
X013139Y008728D01*
X014622Y010127D02*
X015622Y010127D01*
X016472Y010977D01*
X016472Y011177D01*
X016803Y011977D02*
X016656Y012124D01*
X016656Y012832D01*
X016311Y013177D01*
X016656Y013523D01*
X016656Y014277D01*
X018331Y014277D01*
X018331Y013564D01*
X018320Y013591D01*
X018114Y013796D01*
X017846Y013907D01*
X017749Y013907D01*
X017749Y013226D01*
X017653Y013226D01*
X017653Y013907D01*
X017556Y013907D01*
X017287Y013796D01*
X017082Y013591D01*
X016971Y013323D01*
X016971Y013225D01*
X017653Y013225D01*
X017653Y013129D01*
X017749Y013129D01*
X017749Y012447D01*
X017846Y012447D01*
X018114Y012559D01*
X018320Y012764D01*
X018331Y012791D01*
X018331Y012070D01*
X018423Y011977D01*
X016803Y011977D01*
X016723Y012057D02*
X018344Y012057D01*
X018331Y012216D02*
X016656Y012216D01*
X016656Y012374D02*
X018331Y012374D01*
X018331Y012533D02*
X018052Y012533D01*
X018247Y012691D02*
X018331Y012691D01*
X018331Y013129D02*
X017749Y013129D01*
X017749Y013225D01*
X018431Y013225D01*
X018431Y013307D01*
X018824Y013307D01*
X018824Y013147D01*
X018331Y013147D01*
X018331Y013129D01*
X018824Y013167D02*
X017749Y013167D01*
X017653Y013167D02*
X016322Y013167D01*
X016459Y013325D02*
X016972Y013325D01*
X017038Y013484D02*
X016618Y013484D01*
X016656Y013643D02*
X017134Y013643D01*
X017299Y013801D02*
X016656Y013801D01*
X016656Y013960D02*
X018331Y013960D01*
X018331Y014118D02*
X016656Y014118D01*
X016656Y014277D02*
X018331Y014277D01*
X018331Y013801D02*
X018103Y013801D01*
X018268Y013643D02*
X018331Y013643D01*
X017749Y013643D02*
X017653Y013643D01*
X017653Y013801D02*
X017749Y013801D01*
X017749Y013484D02*
X017653Y013484D01*
X017653Y013325D02*
X017749Y013325D01*
X017653Y013129D02*
X016971Y013129D01*
X016971Y013032D01*
X017082Y012764D01*
X017287Y012559D01*
X017556Y012447D01*
X017653Y012447D01*
X017653Y013129D01*
X017653Y013008D02*
X017749Y013008D01*
X017749Y012850D02*
X017653Y012850D01*
X017653Y012691D02*
X017749Y012691D01*
X017749Y012533D02*
X017653Y012533D01*
X017350Y012533D02*
X016656Y012533D01*
X016656Y012691D02*
X017155Y012691D01*
X017046Y012850D02*
X016639Y012850D01*
X016480Y013008D02*
X016981Y013008D01*
X018984Y013147D02*
X018984Y013307D01*
X019478Y013307D01*
X019478Y014277D01*
X019772Y014277D01*
X019772Y011940D01*
X019705Y011873D01*
X019633Y011698D01*
X019366Y011965D01*
X019373Y011965D01*
X019478Y012070D01*
X019478Y013147D01*
X018984Y013147D01*
X018984Y013167D02*
X019772Y013167D01*
X019772Y013325D02*
X019478Y013325D01*
X019478Y013484D02*
X019772Y013484D01*
X019772Y013643D02*
X019478Y013643D01*
X019478Y013801D02*
X019772Y013801D01*
X019772Y013960D02*
X019478Y013960D01*
X019478Y014118D02*
X019772Y014118D01*
X019772Y014277D02*
X019478Y014277D01*
X019478Y013008D02*
X019772Y013008D01*
X019772Y012850D02*
X019478Y012850D01*
X019478Y012691D02*
X019772Y012691D01*
X019772Y012533D02*
X019478Y012533D01*
X019478Y012374D02*
X019772Y012374D01*
X019772Y012216D02*
X019478Y012216D01*
X019465Y012057D02*
X019772Y012057D01*
X019731Y011899D02*
X019432Y011899D01*
X019590Y011740D02*
X019650Y011740D01*
X018197Y010377D02*
X018145Y010325D01*
X018145Y010146D01*
X018603Y010146D01*
X018603Y010109D01*
X018145Y010109D01*
X018145Y009930D01*
X018424Y009651D01*
X018603Y009651D01*
X018603Y010109D01*
X018640Y010109D01*
X018640Y009651D01*
X018772Y009651D01*
X018772Y009522D01*
X017851Y009522D01*
X017477Y009147D01*
X017477Y009062D01*
X017389Y009062D01*
X017389Y008605D01*
X017234Y008605D01*
X017234Y008450D01*
X016817Y008450D01*
X016817Y008327D01*
X016776Y008327D01*
X016776Y008450D01*
X016359Y008450D01*
X016359Y008605D01*
X016204Y008605D01*
X016204Y009062D01*
X016172Y009062D01*
X016172Y009659D01*
X016770Y010257D01*
X016890Y010377D01*
X018197Y010377D01*
X018145Y010313D02*
X016826Y010313D01*
X016667Y010155D02*
X018145Y010155D01*
X018122Y010127D02*
X018622Y010127D01*
X018603Y009996D02*
X018640Y009996D01*
X018640Y009837D02*
X018603Y009837D01*
X018603Y009679D02*
X018640Y009679D01*
X018396Y009679D02*
X016191Y009679D01*
X016172Y009520D02*
X017850Y009520D01*
X017691Y009362D02*
X016172Y009362D01*
X016172Y009203D02*
X017532Y009203D01*
X017389Y009045D02*
X017234Y009045D01*
X017234Y009062D02*
X016922Y009062D01*
X016817Y008957D01*
X016817Y008605D01*
X017234Y008605D01*
X017234Y009062D01*
X017112Y009118D02*
X018122Y010127D01*
X018145Y009996D02*
X016508Y009996D01*
X016350Y009837D02*
X018237Y009837D01*
X017112Y009118D02*
X017112Y008718D01*
X017234Y008728D02*
X017389Y008728D01*
X017389Y008886D02*
X017234Y008886D01*
X016905Y009045D02*
X016689Y009045D01*
X016671Y009062D02*
X016359Y009062D01*
X016359Y008605D01*
X016776Y008605D01*
X016776Y008957D01*
X016671Y009062D01*
X016776Y008886D02*
X016817Y008886D01*
X016817Y008728D02*
X016776Y008728D01*
X016776Y008411D02*
X016817Y008411D01*
X017234Y008569D02*
X016359Y008569D01*
X016359Y008728D02*
X016204Y008728D01*
X016204Y008886D02*
X016359Y008886D01*
X016359Y009045D02*
X016204Y009045D01*
X019472Y008227D02*
X019472Y007788D01*
X019972Y007788D02*
X019972Y008327D01*
X019772Y008527D01*
X019472Y008227D01*
X020472Y008277D02*
X020472Y007788D01*
X020972Y007788D02*
X020972Y008377D01*
X020772Y008577D01*
X020472Y008277D01*
X014565Y013325D02*
X014277Y013325D01*
X014277Y013484D02*
X014301Y013484D01*
X011653Y013008D02*
X010857Y013008D01*
X010973Y012691D02*
X011653Y012691D01*
X011653Y012533D02*
X011131Y012533D01*
X011290Y012374D02*
X011653Y012374D01*
X011653Y012216D02*
X011317Y012216D01*
X011317Y012057D02*
X011653Y012057D01*
X011696Y011899D02*
X011317Y011899D01*
X011653Y012850D02*
X010399Y012850D01*
X010399Y013008D02*
X010244Y013008D01*
X010244Y013167D02*
X010399Y013167D01*
X010399Y013325D02*
X010244Y013325D01*
D32*
X012372Y013827D03*
X012972Y013177D03*
X013522Y012527D03*
X012372Y012527D03*
X013522Y013827D03*
D33*
X012372Y013827D02*
X012122Y014077D01*
X011422Y014077D01*
X012372Y012527D02*
X012122Y012277D01*
X011522Y012277D01*
X013522Y012527D02*
X014122Y011927D01*
X014122Y011877D01*
X015422Y012227D02*
X015572Y012227D01*
X015544Y012255D01*
X015544Y012272D01*
X015566Y012272D01*
X015572Y012277D01*
X015627Y012222D01*
X015422Y012227D02*
X016472Y011177D01*
X019022Y011177D01*
X019672Y010527D01*
X019672Y008627D01*
X019772Y008527D01*
X020772Y008577D02*
X022672Y010477D01*
X022672Y011227D01*
X021722Y012527D02*
X020672Y011477D01*
X020672Y011227D01*
X021722Y012527D02*
X021722Y013177D01*
X021739Y013227D01*
X021722Y013177D02*
X021722Y013777D01*
X020422Y015077D01*
X007372Y015077D01*
X004722Y012427D01*
X004722Y011227D01*
X006722Y011227D02*
X006722Y011277D01*
X006772Y011277D01*
X007022Y011527D01*
X008222Y011527D01*
X008843Y013177D02*
X008843Y013307D01*
X008222Y013927D01*
X014222Y008577D02*
X015172Y008577D01*
X015172Y008627D01*
X015162Y008527D01*
X014231Y008537D02*
X014222Y008577D01*
X014231Y008537D02*
X014181Y008527D01*
D34*
X014872Y014127D03*
M02*
