G75*
G70*
%OFA0B0*%
%FSLAX24Y24*%
%IPPOS*%
%LPD*%
%AMOC8*
5,1,8,0,0,1.08239X$1,22.5*
%
%ADD10C,0.1143*%
%ADD11C,0.0780*%
%ADD12R,0.1025X0.0671*%
%ADD13R,0.2344X0.2403*%
%ADD14R,0.0790X0.0710*%
%ADD15R,0.0710X0.0790*%
%ADD16OC8,0.0674*%
%ADD17R,0.0470X0.0480*%
%ADD18C,0.1080*%
%ADD19R,0.0480X0.0470*%
%ADD20C,0.1180*%
%ADD21R,0.0474X0.0474*%
%ADD22R,0.0474X0.0867*%
%ADD23C,0.0634*%
%ADD24C,0.0671*%
%ADD25R,0.0316X0.0789*%
%ADD26R,0.0552X0.0316*%
%ADD27R,0.0867X0.2245*%
%ADD28C,0.0848*%
%ADD29C,0.0556*%
%ADD30C,0.0516*%
D10*
X003872Y008127D03*
X022672Y008127D03*
D11*
X003272Y002727D03*
X004272Y002727D03*
X005272Y002727D03*
X006272Y002727D03*
X007272Y002727D03*
X008272Y002727D03*
X009272Y002727D03*
X010272Y002727D03*
X011272Y002727D03*
X012272Y002727D03*
X013272Y002727D03*
X014272Y002727D03*
X015272Y002727D03*
X016272Y002727D03*
X017272Y002727D03*
X018272Y002727D03*
X019272Y002727D03*
X020272Y002727D03*
X021272Y002727D03*
X022272Y002727D03*
X023272Y002727D03*
D12*
X015544Y012272D03*
X015544Y014083D03*
D13*
X012965Y013177D03*
D14*
X010322Y012887D03*
X010322Y011768D03*
X010322Y010937D03*
X010322Y009818D03*
D15*
X010162Y008527D03*
X011281Y008527D03*
X013062Y008527D03*
X014181Y008527D03*
X015162Y008527D03*
X016281Y008527D03*
X017312Y008527D03*
X018431Y008527D03*
X008781Y008527D03*
X007662Y008527D03*
D16*
X009272Y010127D03*
X013272Y010127D03*
X014622Y010127D03*
X018622Y010127D03*
D17*
X020487Y005127D03*
X021156Y005127D03*
X022787Y004677D03*
X022787Y004027D03*
X023456Y004027D03*
X023456Y004677D03*
X019356Y004277D03*
X018687Y004277D03*
X011606Y003777D03*
X010937Y003777D03*
D18*
X006722Y011227D03*
X004722Y011227D03*
X020672Y011227D03*
X022672Y011227D03*
D19*
X009222Y004562D03*
X008522Y004562D03*
X008522Y003893D03*
X009222Y003893D03*
D20*
X008843Y013177D03*
X017701Y013177D03*
D21*
X022787Y005327D03*
X023456Y005327D03*
X020472Y004262D03*
X020472Y003593D03*
X019356Y003527D03*
X018687Y003527D03*
X019237Y005127D03*
X019906Y005127D03*
X009922Y004562D03*
X009922Y003893D03*
D22*
X010922Y004541D03*
X011922Y004541D03*
X011922Y007214D03*
X010922Y007214D03*
X007622Y007321D03*
X006622Y007321D03*
X006622Y004333D03*
X007622Y004333D03*
D23*
X013322Y003677D03*
X014322Y003677D03*
X015322Y003677D03*
X016322Y003677D03*
X016822Y004677D03*
X015822Y004677D03*
X014822Y004677D03*
X013822Y004677D03*
X012222Y010127D03*
D24*
X017331Y003956D03*
D25*
X019472Y005867D03*
X019972Y005867D03*
X020472Y005867D03*
X020972Y005867D03*
X020972Y007788D03*
X020472Y007788D03*
X019972Y007788D03*
X019472Y007788D03*
D26*
X021044Y004251D03*
X021044Y003503D03*
X022072Y003503D03*
X022072Y003877D03*
X022072Y004251D03*
D27*
X021739Y013227D03*
X018904Y013227D03*
D28*
X008222Y013927D03*
X008222Y011527D03*
D29*
X012372Y012527D03*
X012972Y013177D03*
X013522Y012527D03*
X013522Y013827D03*
X012372Y013827D03*
D30*
X014872Y014127D03*
M02*
