%
M48
M72
T01C0.0157
T02C0.0236
T03C0.0276
T04C0.0354
T05C0.0394
T06C0.0512
T07C0.0591
T08C0.1063
%
T01
X4772Y3227
X9772Y3227
X10772Y3227
X12422Y4477
X12972Y4477
X10372Y7327
X12172Y8527
X11872Y9077
X12522Y9077
X12372Y11227
X12972Y11677
X13572Y11227
X14122Y11677
X14422Y13177
X11772Y11677
X11522Y12277
X11072Y12727
X11522Y13177
X11072Y13627
X11522Y14077
X22272Y5777
X21772Y5277
X19922Y4077
X18672Y5127
X17972Y5227
X22772Y3277
T02
X14872Y14127
T03
X13522Y13827
X12972Y13177
X13522Y12527
X12372Y12527
X12372Y13827
T04
X12222Y10127
X13822Y4677
X14822Y4677
X15822Y4677
X16822Y4677
X16322Y3677
X15322Y3677
X14322Y3677
X13322Y3677
T05
X3272Y2727
X4272Y2727
X5272Y2727
X6272Y2727
X7272Y2727
X8272Y2727
X9272Y2727
X10272Y2727
X11272Y2727
X12272Y2727
X13272Y2727
X14272Y2727
X15272Y2727
X16272Y2727
X17272Y2727
X18272Y2727
X19272Y2727
X20272Y2727
X21272Y2727
X22272Y2727
X23272Y2727
X18622Y10127
X14622Y10127
X13272Y10127
X9272Y10127
T06
X8222Y11527
X6722Y11227
X4722Y11227
X8843Y13177
X8222Y13927
X17701Y13177
X20672Y11227
X22672Y11227
T07
X17331Y3956
T08
X22672Y8127
X3872Y8127
M30
