G75*
G70*
%OFA0B0*%
%FSLAX24Y24*%
%IPPOS*%
%LPD*%
%AMOC8*
5,1,8,0,0,1.08239X$1,22.5*
%
%ADD10C,0.0000*%
%ADD11R,0.0434X0.0512*%
%ADD12C,0.0476*%
%ADD13R,0.0430X0.0440*%
%ADD14C,0.0560*%
%ADD15R,0.0440X0.0430*%
%ADD16C,0.0640*%
%ADD17R,0.0473X0.0434*%
%ADD18R,0.0434X0.0473*%
%ADD19C,0.0740*%
D10*
X003649Y000907D02*
X043019Y000907D01*
X043019Y007206D01*
X003649Y007206D01*
X003649Y000907D01*
D11*
X008169Y001425D03*
X008669Y001425D03*
X012169Y001425D03*
X012669Y001425D03*
X013169Y001425D03*
X013669Y001425D03*
X014169Y001425D03*
X014669Y001425D03*
X015169Y001425D03*
X015669Y001425D03*
X014669Y006725D03*
X014169Y006725D03*
X013669Y006725D03*
X013169Y006725D03*
X012669Y006725D03*
X012169Y006725D03*
X011669Y006725D03*
X011169Y006725D03*
X010669Y006725D03*
X010169Y006725D03*
X009169Y006725D03*
X008169Y006725D03*
X007169Y006725D03*
D12*
X014319Y004647D03*
X015319Y004647D03*
X015319Y003647D03*
X014319Y003647D03*
X014319Y002647D03*
X015319Y002647D03*
D13*
X016830Y002057D03*
X017499Y002057D03*
X017382Y003869D03*
X018052Y003869D03*
X017499Y004552D03*
X016830Y004552D03*
X016826Y005042D03*
X017495Y005042D03*
X017483Y006807D03*
X016814Y006807D03*
X018941Y006820D03*
X019610Y006820D03*
X004983Y002007D03*
X004314Y002007D03*
D14*
X005149Y003057D03*
X004149Y003557D03*
X005149Y004057D03*
X004149Y004557D03*
D15*
X041229Y006117D03*
X041229Y006786D03*
D16*
X041952Y003107D02*
X042552Y003107D01*
X042552Y002107D02*
X041952Y002107D01*
D17*
X017491Y002598D03*
X016822Y002598D03*
X016814Y001507D03*
X017483Y001507D03*
X017483Y005707D03*
X016814Y005707D03*
X016814Y006286D03*
X017483Y006286D03*
D18*
X016819Y003833D03*
X016819Y003164D03*
D19*
X042247Y004108D03*
X042247Y005108D03*
X042247Y006108D03*
M02*
