G75*
G70*
%OFA0B0*%
%FSLAX25Y25*%
%IPPOS*%
%LPD*%
%AMOC8*
5,1,8,0,0,1.08239X$1,22.5*
%
%ADD10C,0.00000*%
%ADD11R,0.03937X0.04724*%
%ADD12C,0.04362*%
%ADD13R,0.03900X0.04000*%
%ADD14C,0.05200*%
%ADD15R,0.04000X0.03900*%
%ADD16C,0.06000*%
%ADD17R,0.04331X0.03937*%
%ADD18R,0.03937X0.04331*%
%ADD19C,0.07000*%
%ADD20C,0.00787*%
%ADD21C,0.02775*%
%ADD22C,0.07000*%
D10*
X0036485Y0009071D02*
X0430186Y0009071D01*
X0430186Y0072063D01*
X0036485Y0072063D01*
X0036485Y0009071D01*
D11*
X0081685Y0014246D03*
X0086685Y0014246D03*
X0121685Y0014246D03*
X0126685Y0014246D03*
X0131685Y0014246D03*
X0136685Y0014246D03*
X0141685Y0014246D03*
X0146685Y0014246D03*
X0151685Y0014246D03*
X0156685Y0014246D03*
X0146685Y0067246D03*
X0141685Y0067246D03*
X0136685Y0067246D03*
X0131685Y0067246D03*
X0126685Y0067246D03*
X0121685Y0067246D03*
X0116685Y0067246D03*
X0111685Y0067246D03*
X0106685Y0067246D03*
X0101685Y0067246D03*
X0091685Y0067246D03*
X0081685Y0067246D03*
X0071685Y0067246D03*
D12*
X0143185Y0046471D03*
X0153185Y0046471D03*
X0153185Y0036471D03*
X0143185Y0036471D03*
X0143185Y0026471D03*
X0153185Y0026471D03*
D13*
X0168296Y0020575D03*
X0174989Y0020575D03*
X0173824Y0038693D03*
X0180517Y0038693D03*
X0174989Y0045520D03*
X0168296Y0045520D03*
X0168257Y0050417D03*
X0174950Y0050417D03*
X0174831Y0068071D03*
X0168139Y0068071D03*
X0189406Y0068197D03*
X0196099Y0068197D03*
X0049831Y0020071D03*
X0043139Y0020071D03*
D14*
X0051485Y0030571D03*
X0041485Y0035571D03*
X0051485Y0040571D03*
X0041485Y0045571D03*
D15*
X0412288Y0061165D03*
X0412288Y0067858D03*
D16*
X0419517Y0031071D02*
X0425517Y0031071D01*
X0425517Y0021071D02*
X0419517Y0021071D01*
D17*
X0174910Y0025984D03*
X0168217Y0025984D03*
X0168139Y0015071D03*
X0174831Y0015071D03*
X0174831Y0057071D03*
X0168139Y0057071D03*
X0168139Y0062858D03*
X0174831Y0062858D03*
D18*
X0168194Y0038331D03*
X0168194Y0031638D03*
D19*
X0422469Y0041079D03*
X0422469Y0051079D03*
X0422469Y0061079D03*
D20*
X0422430Y0061118D01*
X0422430Y0064346D01*
X0418918Y0067858D01*
X0412288Y0067858D01*
X0196437Y0067858D01*
X0196099Y0068197D01*
X0189406Y0068197D02*
X0183446Y0068197D01*
X0183414Y0068165D01*
X0177564Y0068071D02*
X0202902Y0046591D01*
X0223769Y0046591D01*
X0225698Y0044661D01*
X0199005Y0041394D02*
X0279438Y0041394D01*
X0281367Y0039465D01*
X0329713Y0034465D02*
X0336879Y0041630D01*
X0340540Y0041630D01*
X0340658Y0041512D01*
X0329713Y0034465D02*
X0193454Y0034465D01*
X0189225Y0038693D01*
X0180517Y0038693D01*
X0181154Y0038693D01*
X0184713Y0035134D01*
X0177485Y0036071D02*
X0174831Y0033417D01*
X0174910Y0025984D01*
X0171406Y0028819D02*
X0168217Y0025984D01*
X0159485Y0024071D02*
X0155485Y0020071D01*
X0153485Y0020071D01*
X0151485Y0018071D01*
X0151485Y0014446D01*
X0151685Y0014246D01*
X0156685Y0014246D02*
X0156685Y0015071D01*
X0168139Y0015071D01*
X0170753Y0010874D02*
X0174831Y0015071D01*
X0168296Y0020575D01*
X0174989Y0020575D02*
X0360745Y0020575D01*
X0380816Y0040646D01*
X0414123Y0056748D02*
X0413942Y0059528D01*
X0412288Y0061165D01*
X0412288Y0067858D02*
X0417698Y0067858D01*
X0199005Y0041394D02*
X0194879Y0045520D01*
X0174989Y0045520D01*
X0171328Y0044268D02*
X0171249Y0044268D01*
X0171249Y0042929D01*
X0170485Y0043724D01*
X0168296Y0045520D01*
X0159438Y0046071D01*
X0159438Y0042457D01*
X0157942Y0042457D01*
X0131658Y0042488D01*
X0121685Y0035271D01*
X0121685Y0014246D01*
X0126685Y0014246D02*
X0126685Y0029271D01*
X0137973Y0040362D01*
X0158209Y0040283D01*
X0168194Y0038331D01*
X0173713Y0038331D01*
X0173824Y0038693D01*
X0171328Y0041929D02*
X0171328Y0044268D01*
X0171328Y0041929D02*
X0170564Y0041929D01*
X0171328Y0041929D02*
X0177564Y0041929D01*
X0177485Y0036071D01*
X0171446Y0034181D02*
X0170879Y0034984D01*
X0164564Y0035063D01*
X0163800Y0035126D01*
X0160800Y0035126D01*
X0157485Y0033071D01*
X0157485Y0025071D01*
X0155485Y0023071D01*
X0154485Y0023071D01*
X0153485Y0022071D01*
X0151485Y0022071D01*
X0146685Y0017271D01*
X0146685Y0014246D01*
X0142485Y0015046D02*
X0141685Y0014246D01*
X0142485Y0015046D02*
X0142485Y0020071D01*
X0159485Y0024071D02*
X0159485Y0029071D01*
X0161501Y0031756D01*
X0168194Y0031638D01*
X0171446Y0034181D02*
X0171406Y0028819D01*
X0148485Y0030071D02*
X0136485Y0030071D01*
X0136685Y0029871D01*
X0136685Y0014246D01*
X0131685Y0014246D02*
X0131685Y0011271D01*
X0131406Y0010874D01*
X0170753Y0010874D01*
X0086685Y0014246D02*
X0086485Y0014446D01*
X0086485Y0016071D01*
X0082485Y0020071D01*
X0049831Y0020071D01*
X0051485Y0021724D01*
X0051485Y0030571D01*
X0043139Y0033917D02*
X0041485Y0035571D01*
X0043139Y0033917D02*
X0043139Y0020071D01*
X0043485Y0019724D01*
X0043485Y0017071D01*
X0046310Y0014246D01*
X0081685Y0014246D01*
X0051485Y0040571D02*
X0073985Y0063071D01*
X0087485Y0063071D01*
X0091660Y0067246D01*
X0091685Y0067246D01*
X0096761Y0067378D02*
X0096761Y0064898D01*
X0098887Y0062772D01*
X0120580Y0062772D01*
X0121131Y0062220D01*
X0121131Y0066691D01*
X0121685Y0067246D01*
X0113446Y0070622D02*
X0111685Y0069271D01*
X0111685Y0067246D01*
X0113446Y0070622D02*
X0168099Y0070622D01*
X0168139Y0068071D01*
X0174847Y0063173D01*
X0174831Y0062858D01*
X0168139Y0062858D02*
X0168068Y0062906D01*
X0152414Y0062906D01*
X0148485Y0057071D02*
X0141685Y0063871D01*
X0141685Y0067246D01*
X0174831Y0068071D02*
X0177564Y0068071D01*
X0174831Y0057071D02*
X0174831Y0054835D01*
X0173950Y0053835D01*
X0148485Y0053795D01*
X0148485Y0057071D02*
X0168139Y0057071D01*
X0174831Y0054835D02*
X0174950Y0050417D01*
X0168257Y0050417D02*
X0124674Y0050457D01*
X0114461Y0040717D01*
X0071685Y0067246D02*
X0050010Y0045571D01*
X0041485Y0045571D01*
X0065461Y0066472D02*
X0066235Y0067246D01*
X0071685Y0067246D01*
D21*
X0065461Y0066472D03*
X0096761Y0067378D03*
X0152414Y0062906D03*
X0183414Y0068165D03*
X0148485Y0053795D03*
X0114461Y0040717D03*
X0148485Y0030071D03*
X0184713Y0035134D03*
X0225698Y0044661D03*
X0281367Y0039465D03*
X0340658Y0041512D03*
X0380816Y0040646D03*
X0414123Y0056748D03*
X0142485Y0020071D03*
D22*
X0412115Y0023441D02*
X0413690Y0021866D01*
X0421721Y0021866D01*
X0422517Y0021071D01*
X0412115Y0023441D02*
X0412115Y0033559D01*
X0412194Y0047142D01*
X0413060Y0048441D01*
X0415698Y0051079D01*
X0422469Y0051079D01*
X0422469Y0041079D02*
X0422469Y0031118D01*
X0422517Y0031071D01*
M02*
