%
M48
M72
T01C0.0157
T02C0.0236
T03C0.0320
T04C0.0394
T05C0.0400
%
T01
X14249Y2007
X14849Y3007
X18471Y3513
X22570Y4466
X28137Y3946
X34066Y4151
X38082Y4065
X41412Y5675
X18341Y6817
X15241Y6291
X14849Y5380
X11446Y4072
X6546Y6647
X9676Y6738
T02
X14319Y4647
X15319Y4647
X15319Y3647
X14319Y3647
X14319Y2647
X15319Y2647
T03
X5149Y3057
X4149Y3557
X5149Y4057
X4149Y4557
T04
X42247Y4108
X42247Y5108
X42247Y6108
T05
X42252Y3107
X42252Y2107
M30
