G75*
G70*
%OFA0B0*%
%FSLAX25Y25*%
%IPPOS*%
%LPD*%
%AMOC8*
5,1,8,0,0,1.08239X$1,22.5*
%
%ADD10C,0.00000*%
%ADD11R,0.03937X0.04724*%
%ADD12C,0.04362*%
%ADD13R,0.07480X0.13386*%
%ADD14C,0.05543*%
%ADD15OC8,0.06000*%
%ADD16R,0.08800X0.04800*%
%ADD17R,0.08661X0.14173*%
%ADD18C,0.05937*%
%ADD19R,0.05906X0.05118*%
%ADD20R,0.05118X0.05906*%
%ADD21R,0.03900X0.04000*%
%ADD22R,0.03937X0.03937*%
%ADD23R,0.05512X0.03937*%
%ADD24C,0.05937*%
%ADD25R,0.01969X0.05709*%
%ADD26R,0.05709X0.01969*%
%ADD27R,0.04000X0.03900*%
%ADD28R,0.05118X0.06299*%
%ADD29R,0.07087X0.08268*%
%ADD30R,0.11024X0.14961*%
%ADD31R,0.03937X0.05512*%
%ADD32R,0.09843X0.03937*%
%ADD33C,0.01200*%
%ADD34C,0.03181*%
%ADD35C,0.01600*%
%ADD36C,0.01000*%
D10*
X0035880Y0009071D02*
X0035880Y0189071D01*
X0230880Y0189071D01*
X0230880Y0009071D01*
X0035880Y0009071D01*
X0162021Y0117858D02*
X0162025Y0118003D01*
X0162035Y0118147D01*
X0162053Y0118291D01*
X0162078Y0118434D01*
X0162109Y0118576D01*
X0162148Y0118715D01*
X0162194Y0118853D01*
X0162246Y0118988D01*
X0162305Y0119121D01*
X0162370Y0119250D01*
X0162441Y0119376D01*
X0162519Y0119499D01*
X0162602Y0119617D01*
X0162691Y0119731D01*
X0162786Y0119841D01*
X0162886Y0119946D01*
X0162991Y0120046D01*
X0163101Y0120141D01*
X0163215Y0120230D01*
X0163333Y0120313D01*
X0163456Y0120391D01*
X0163582Y0120462D01*
X0163711Y0120527D01*
X0163844Y0120586D01*
X0163979Y0120638D01*
X0164117Y0120684D01*
X0164256Y0120723D01*
X0164398Y0120754D01*
X0164541Y0120779D01*
X0164685Y0120797D01*
X0164829Y0120807D01*
X0164974Y0120811D01*
X0165119Y0120807D01*
X0165263Y0120797D01*
X0165407Y0120779D01*
X0165550Y0120754D01*
X0165692Y0120723D01*
X0165831Y0120684D01*
X0165969Y0120638D01*
X0166104Y0120586D01*
X0166237Y0120527D01*
X0166366Y0120462D01*
X0166492Y0120391D01*
X0166615Y0120313D01*
X0166733Y0120230D01*
X0166847Y0120141D01*
X0166957Y0120046D01*
X0167062Y0119946D01*
X0167162Y0119841D01*
X0167257Y0119731D01*
X0167346Y0119617D01*
X0167429Y0119499D01*
X0167507Y0119376D01*
X0167578Y0119250D01*
X0167643Y0119121D01*
X0167702Y0118988D01*
X0167754Y0118853D01*
X0167800Y0118715D01*
X0167839Y0118576D01*
X0167870Y0118434D01*
X0167895Y0118291D01*
X0167913Y0118147D01*
X0167923Y0118003D01*
X0167927Y0117858D01*
X0167923Y0117713D01*
X0167913Y0117569D01*
X0167895Y0117425D01*
X0167870Y0117282D01*
X0167839Y0117140D01*
X0167800Y0117001D01*
X0167754Y0116863D01*
X0167702Y0116728D01*
X0167643Y0116595D01*
X0167578Y0116466D01*
X0167507Y0116340D01*
X0167429Y0116217D01*
X0167346Y0116099D01*
X0167257Y0115985D01*
X0167162Y0115875D01*
X0167062Y0115770D01*
X0166957Y0115670D01*
X0166847Y0115575D01*
X0166733Y0115486D01*
X0166615Y0115403D01*
X0166492Y0115325D01*
X0166366Y0115254D01*
X0166237Y0115189D01*
X0166104Y0115130D01*
X0165969Y0115078D01*
X0165831Y0115032D01*
X0165692Y0114993D01*
X0165550Y0114962D01*
X0165407Y0114937D01*
X0165263Y0114919D01*
X0165119Y0114909D01*
X0164974Y0114905D01*
X0164829Y0114909D01*
X0164685Y0114919D01*
X0164541Y0114937D01*
X0164398Y0114962D01*
X0164256Y0114993D01*
X0164117Y0115032D01*
X0163979Y0115078D01*
X0163844Y0115130D01*
X0163711Y0115189D01*
X0163582Y0115254D01*
X0163456Y0115325D01*
X0163333Y0115403D01*
X0163215Y0115486D01*
X0163101Y0115575D01*
X0162991Y0115670D01*
X0162886Y0115770D01*
X0162786Y0115875D01*
X0162691Y0115985D01*
X0162602Y0116099D01*
X0162519Y0116217D01*
X0162441Y0116340D01*
X0162370Y0116466D01*
X0162305Y0116595D01*
X0162246Y0116728D01*
X0162194Y0116863D01*
X0162148Y0117001D01*
X0162109Y0117140D01*
X0162078Y0117282D01*
X0162053Y0117425D01*
X0162035Y0117569D01*
X0162025Y0117713D01*
X0162021Y0117858D01*
X0113656Y0146071D02*
X0113663Y0146341D01*
X0113683Y0146611D01*
X0113716Y0146880D01*
X0113762Y0147146D01*
X0113821Y0147410D01*
X0113893Y0147671D01*
X0113978Y0147928D01*
X0114076Y0148180D01*
X0114185Y0148428D01*
X0114307Y0148669D01*
X0114440Y0148905D01*
X0114585Y0149133D01*
X0114741Y0149354D01*
X0114907Y0149568D01*
X0115084Y0149773D01*
X0115270Y0149969D01*
X0115466Y0150155D01*
X0115671Y0150332D01*
X0115885Y0150498D01*
X0116106Y0150654D01*
X0116334Y0150799D01*
X0116570Y0150932D01*
X0116811Y0151054D01*
X0117059Y0151163D01*
X0117311Y0151261D01*
X0117568Y0151346D01*
X0117829Y0151418D01*
X0118093Y0151477D01*
X0118359Y0151523D01*
X0118628Y0151556D01*
X0118898Y0151576D01*
X0119168Y0151583D01*
X0119438Y0151576D01*
X0119708Y0151556D01*
X0119977Y0151523D01*
X0120243Y0151477D01*
X0120507Y0151418D01*
X0120768Y0151346D01*
X0121025Y0151261D01*
X0121277Y0151163D01*
X0121525Y0151054D01*
X0121766Y0150932D01*
X0122002Y0150799D01*
X0122230Y0150654D01*
X0122451Y0150498D01*
X0122665Y0150332D01*
X0122870Y0150155D01*
X0123066Y0149969D01*
X0123252Y0149773D01*
X0123429Y0149568D01*
X0123595Y0149354D01*
X0123751Y0149133D01*
X0123896Y0148905D01*
X0124029Y0148669D01*
X0124151Y0148428D01*
X0124260Y0148180D01*
X0124358Y0147928D01*
X0124443Y0147671D01*
X0124515Y0147410D01*
X0124574Y0147146D01*
X0124620Y0146880D01*
X0124653Y0146611D01*
X0124673Y0146341D01*
X0124680Y0146071D01*
X0124673Y0145801D01*
X0124653Y0145531D01*
X0124620Y0145262D01*
X0124574Y0144996D01*
X0124515Y0144732D01*
X0124443Y0144471D01*
X0124358Y0144214D01*
X0124260Y0143962D01*
X0124151Y0143714D01*
X0124029Y0143473D01*
X0123896Y0143237D01*
X0123751Y0143009D01*
X0123595Y0142788D01*
X0123429Y0142574D01*
X0123252Y0142369D01*
X0123066Y0142173D01*
X0122870Y0141987D01*
X0122665Y0141810D01*
X0122451Y0141644D01*
X0122230Y0141488D01*
X0122002Y0141343D01*
X0121766Y0141210D01*
X0121525Y0141088D01*
X0121277Y0140979D01*
X0121025Y0140881D01*
X0120768Y0140796D01*
X0120507Y0140724D01*
X0120243Y0140665D01*
X0119977Y0140619D01*
X0119708Y0140586D01*
X0119438Y0140566D01*
X0119168Y0140559D01*
X0118898Y0140566D01*
X0118628Y0140586D01*
X0118359Y0140619D01*
X0118093Y0140665D01*
X0117829Y0140724D01*
X0117568Y0140796D01*
X0117311Y0140881D01*
X0117059Y0140979D01*
X0116811Y0141088D01*
X0116570Y0141210D01*
X0116334Y0141343D01*
X0116106Y0141488D01*
X0115885Y0141644D01*
X0115671Y0141810D01*
X0115466Y0141987D01*
X0115270Y0142173D01*
X0115084Y0142369D01*
X0114907Y0142574D01*
X0114741Y0142788D01*
X0114585Y0143009D01*
X0114440Y0143237D01*
X0114307Y0143473D01*
X0114185Y0143714D01*
X0114076Y0143962D01*
X0113978Y0144214D01*
X0113893Y0144471D01*
X0113821Y0144732D01*
X0113762Y0144996D01*
X0113716Y0145262D01*
X0113683Y0145531D01*
X0113663Y0145801D01*
X0113656Y0146071D01*
X0091337Y0148701D02*
X0091342Y0148923D01*
X0091359Y0149145D01*
X0091386Y0149365D01*
X0091424Y0149584D01*
X0091473Y0149801D01*
X0091532Y0150015D01*
X0091602Y0150226D01*
X0091682Y0150434D01*
X0091772Y0150637D01*
X0091872Y0150835D01*
X0091981Y0151029D01*
X0092100Y0151217D01*
X0092228Y0151398D01*
X0092365Y0151574D01*
X0092510Y0151742D01*
X0092663Y0151903D01*
X0092824Y0152056D01*
X0092992Y0152201D01*
X0093168Y0152338D01*
X0093349Y0152466D01*
X0093537Y0152585D01*
X0093731Y0152694D01*
X0093929Y0152794D01*
X0094132Y0152884D01*
X0094340Y0152964D01*
X0094551Y0153034D01*
X0094765Y0153093D01*
X0094982Y0153142D01*
X0095201Y0153180D01*
X0095421Y0153207D01*
X0095643Y0153224D01*
X0095865Y0153229D01*
X0096087Y0153224D01*
X0096309Y0153207D01*
X0096529Y0153180D01*
X0096748Y0153142D01*
X0096965Y0153093D01*
X0097179Y0153034D01*
X0097390Y0152964D01*
X0097598Y0152884D01*
X0097801Y0152794D01*
X0097999Y0152694D01*
X0098193Y0152585D01*
X0098381Y0152466D01*
X0098562Y0152338D01*
X0098738Y0152201D01*
X0098906Y0152056D01*
X0099067Y0151903D01*
X0099220Y0151742D01*
X0099365Y0151574D01*
X0099502Y0151398D01*
X0099630Y0151217D01*
X0099749Y0151029D01*
X0099858Y0150835D01*
X0099958Y0150637D01*
X0100048Y0150434D01*
X0100128Y0150226D01*
X0100198Y0150015D01*
X0100257Y0149801D01*
X0100306Y0149584D01*
X0100344Y0149365D01*
X0100371Y0149145D01*
X0100388Y0148923D01*
X0100393Y0148701D01*
X0100388Y0148479D01*
X0100371Y0148257D01*
X0100344Y0148037D01*
X0100306Y0147818D01*
X0100257Y0147601D01*
X0100198Y0147387D01*
X0100128Y0147176D01*
X0100048Y0146968D01*
X0099958Y0146765D01*
X0099858Y0146567D01*
X0099749Y0146373D01*
X0099630Y0146185D01*
X0099502Y0146004D01*
X0099365Y0145828D01*
X0099220Y0145660D01*
X0099067Y0145499D01*
X0098906Y0145346D01*
X0098738Y0145201D01*
X0098562Y0145064D01*
X0098381Y0144936D01*
X0098193Y0144817D01*
X0097999Y0144708D01*
X0097801Y0144608D01*
X0097598Y0144518D01*
X0097390Y0144438D01*
X0097179Y0144368D01*
X0096965Y0144309D01*
X0096748Y0144260D01*
X0096529Y0144222D01*
X0096309Y0144195D01*
X0096087Y0144178D01*
X0095865Y0144173D01*
X0095643Y0144178D01*
X0095421Y0144195D01*
X0095201Y0144222D01*
X0094982Y0144260D01*
X0094765Y0144309D01*
X0094551Y0144368D01*
X0094340Y0144438D01*
X0094132Y0144518D01*
X0093929Y0144608D01*
X0093731Y0144708D01*
X0093537Y0144817D01*
X0093349Y0144936D01*
X0093168Y0145064D01*
X0092992Y0145201D01*
X0092824Y0145346D01*
X0092663Y0145499D01*
X0092510Y0145660D01*
X0092365Y0145828D01*
X0092228Y0146004D01*
X0092100Y0146185D01*
X0091981Y0146373D01*
X0091872Y0146567D01*
X0091772Y0146765D01*
X0091682Y0146968D01*
X0091602Y0147176D01*
X0091532Y0147387D01*
X0091473Y0147601D01*
X0091424Y0147818D01*
X0091386Y0148037D01*
X0091359Y0148257D01*
X0091342Y0148479D01*
X0091337Y0148701D01*
X0044974Y0174071D02*
X0044981Y0174361D01*
X0045002Y0174650D01*
X0045038Y0174938D01*
X0045087Y0175223D01*
X0045151Y0175506D01*
X0045228Y0175785D01*
X0045319Y0176061D01*
X0045424Y0176331D01*
X0045541Y0176596D01*
X0045671Y0176855D01*
X0045814Y0177107D01*
X0045969Y0177352D01*
X0046136Y0177589D01*
X0046315Y0177818D01*
X0046504Y0178037D01*
X0046704Y0178247D01*
X0046914Y0178447D01*
X0047133Y0178636D01*
X0047362Y0178815D01*
X0047599Y0178982D01*
X0047844Y0179137D01*
X0048096Y0179280D01*
X0048355Y0179410D01*
X0048620Y0179527D01*
X0048890Y0179632D01*
X0049166Y0179723D01*
X0049445Y0179800D01*
X0049728Y0179864D01*
X0050013Y0179913D01*
X0050301Y0179949D01*
X0050590Y0179970D01*
X0050880Y0179977D01*
X0051170Y0179970D01*
X0051459Y0179949D01*
X0051747Y0179913D01*
X0052032Y0179864D01*
X0052315Y0179800D01*
X0052594Y0179723D01*
X0052870Y0179632D01*
X0053140Y0179527D01*
X0053405Y0179410D01*
X0053664Y0179280D01*
X0053916Y0179137D01*
X0054161Y0178982D01*
X0054398Y0178815D01*
X0054627Y0178636D01*
X0054846Y0178447D01*
X0055056Y0178247D01*
X0055256Y0178037D01*
X0055445Y0177818D01*
X0055624Y0177589D01*
X0055791Y0177352D01*
X0055946Y0177107D01*
X0056089Y0176855D01*
X0056219Y0176596D01*
X0056336Y0176331D01*
X0056441Y0176061D01*
X0056532Y0175785D01*
X0056609Y0175506D01*
X0056673Y0175223D01*
X0056722Y0174938D01*
X0056758Y0174650D01*
X0056779Y0174361D01*
X0056786Y0174071D01*
X0056779Y0173781D01*
X0056758Y0173492D01*
X0056722Y0173204D01*
X0056673Y0172919D01*
X0056609Y0172636D01*
X0056532Y0172357D01*
X0056441Y0172081D01*
X0056336Y0171811D01*
X0056219Y0171546D01*
X0056089Y0171287D01*
X0055946Y0171035D01*
X0055791Y0170790D01*
X0055624Y0170553D01*
X0055445Y0170324D01*
X0055256Y0170105D01*
X0055056Y0169895D01*
X0054846Y0169695D01*
X0054627Y0169506D01*
X0054398Y0169327D01*
X0054161Y0169160D01*
X0053916Y0169005D01*
X0053664Y0168862D01*
X0053405Y0168732D01*
X0053140Y0168615D01*
X0052870Y0168510D01*
X0052594Y0168419D01*
X0052315Y0168342D01*
X0052032Y0168278D01*
X0051747Y0168229D01*
X0051459Y0168193D01*
X0051170Y0168172D01*
X0050880Y0168165D01*
X0050590Y0168172D01*
X0050301Y0168193D01*
X0050013Y0168229D01*
X0049728Y0168278D01*
X0049445Y0168342D01*
X0049166Y0168419D01*
X0048890Y0168510D01*
X0048620Y0168615D01*
X0048355Y0168732D01*
X0048096Y0168862D01*
X0047844Y0169005D01*
X0047599Y0169160D01*
X0047362Y0169327D01*
X0047133Y0169506D01*
X0046914Y0169695D01*
X0046704Y0169895D01*
X0046504Y0170105D01*
X0046315Y0170324D01*
X0046136Y0170553D01*
X0045969Y0170790D01*
X0045814Y0171035D01*
X0045671Y0171287D01*
X0045541Y0171546D01*
X0045424Y0171811D01*
X0045319Y0172081D01*
X0045228Y0172357D01*
X0045151Y0172636D01*
X0045087Y0172919D01*
X0045038Y0173204D01*
X0045002Y0173492D01*
X0044981Y0173781D01*
X0044974Y0174071D01*
X0039762Y0148701D02*
X0039767Y0148923D01*
X0039784Y0149145D01*
X0039811Y0149365D01*
X0039849Y0149584D01*
X0039898Y0149801D01*
X0039957Y0150015D01*
X0040027Y0150226D01*
X0040107Y0150434D01*
X0040197Y0150637D01*
X0040297Y0150835D01*
X0040406Y0151029D01*
X0040525Y0151217D01*
X0040653Y0151398D01*
X0040790Y0151574D01*
X0040935Y0151742D01*
X0041088Y0151903D01*
X0041249Y0152056D01*
X0041417Y0152201D01*
X0041593Y0152338D01*
X0041774Y0152466D01*
X0041962Y0152585D01*
X0042156Y0152694D01*
X0042354Y0152794D01*
X0042557Y0152884D01*
X0042765Y0152964D01*
X0042976Y0153034D01*
X0043190Y0153093D01*
X0043407Y0153142D01*
X0043626Y0153180D01*
X0043846Y0153207D01*
X0044068Y0153224D01*
X0044290Y0153229D01*
X0044512Y0153224D01*
X0044734Y0153207D01*
X0044954Y0153180D01*
X0045173Y0153142D01*
X0045390Y0153093D01*
X0045604Y0153034D01*
X0045815Y0152964D01*
X0046023Y0152884D01*
X0046226Y0152794D01*
X0046424Y0152694D01*
X0046618Y0152585D01*
X0046806Y0152466D01*
X0046987Y0152338D01*
X0047163Y0152201D01*
X0047331Y0152056D01*
X0047492Y0151903D01*
X0047645Y0151742D01*
X0047790Y0151574D01*
X0047927Y0151398D01*
X0048055Y0151217D01*
X0048174Y0151029D01*
X0048283Y0150835D01*
X0048383Y0150637D01*
X0048473Y0150434D01*
X0048553Y0150226D01*
X0048623Y0150015D01*
X0048682Y0149801D01*
X0048731Y0149584D01*
X0048769Y0149365D01*
X0048796Y0149145D01*
X0048813Y0148923D01*
X0048818Y0148701D01*
X0048813Y0148479D01*
X0048796Y0148257D01*
X0048769Y0148037D01*
X0048731Y0147818D01*
X0048682Y0147601D01*
X0048623Y0147387D01*
X0048553Y0147176D01*
X0048473Y0146968D01*
X0048383Y0146765D01*
X0048283Y0146567D01*
X0048174Y0146373D01*
X0048055Y0146185D01*
X0047927Y0146004D01*
X0047790Y0145828D01*
X0047645Y0145660D01*
X0047492Y0145499D01*
X0047331Y0145346D01*
X0047163Y0145201D01*
X0046987Y0145064D01*
X0046806Y0144936D01*
X0046618Y0144817D01*
X0046424Y0144708D01*
X0046226Y0144608D01*
X0046023Y0144518D01*
X0045815Y0144438D01*
X0045604Y0144368D01*
X0045390Y0144309D01*
X0045173Y0144260D01*
X0044954Y0144222D01*
X0044734Y0144195D01*
X0044512Y0144178D01*
X0044290Y0144173D01*
X0044068Y0144178D01*
X0043846Y0144195D01*
X0043626Y0144222D01*
X0043407Y0144260D01*
X0043190Y0144309D01*
X0042976Y0144368D01*
X0042765Y0144438D01*
X0042557Y0144518D01*
X0042354Y0144608D01*
X0042156Y0144708D01*
X0041962Y0144817D01*
X0041774Y0144936D01*
X0041593Y0145064D01*
X0041417Y0145201D01*
X0041249Y0145346D01*
X0041088Y0145499D01*
X0040935Y0145660D01*
X0040790Y0145828D01*
X0040653Y0146004D01*
X0040525Y0146185D01*
X0040406Y0146373D01*
X0040297Y0146567D01*
X0040197Y0146765D01*
X0040107Y0146968D01*
X0040027Y0147176D01*
X0039957Y0147387D01*
X0039898Y0147601D01*
X0039849Y0147818D01*
X0039811Y0148037D01*
X0039784Y0148257D01*
X0039767Y0148479D01*
X0039762Y0148701D01*
X0212081Y0146071D02*
X0212088Y0146341D01*
X0212108Y0146611D01*
X0212141Y0146880D01*
X0212187Y0147146D01*
X0212246Y0147410D01*
X0212318Y0147671D01*
X0212403Y0147928D01*
X0212501Y0148180D01*
X0212610Y0148428D01*
X0212732Y0148669D01*
X0212865Y0148905D01*
X0213010Y0149133D01*
X0213166Y0149354D01*
X0213332Y0149568D01*
X0213509Y0149773D01*
X0213695Y0149969D01*
X0213891Y0150155D01*
X0214096Y0150332D01*
X0214310Y0150498D01*
X0214531Y0150654D01*
X0214759Y0150799D01*
X0214995Y0150932D01*
X0215236Y0151054D01*
X0215484Y0151163D01*
X0215736Y0151261D01*
X0215993Y0151346D01*
X0216254Y0151418D01*
X0216518Y0151477D01*
X0216784Y0151523D01*
X0217053Y0151556D01*
X0217323Y0151576D01*
X0217593Y0151583D01*
X0217863Y0151576D01*
X0218133Y0151556D01*
X0218402Y0151523D01*
X0218668Y0151477D01*
X0218932Y0151418D01*
X0219193Y0151346D01*
X0219450Y0151261D01*
X0219702Y0151163D01*
X0219950Y0151054D01*
X0220191Y0150932D01*
X0220427Y0150799D01*
X0220655Y0150654D01*
X0220876Y0150498D01*
X0221090Y0150332D01*
X0221295Y0150155D01*
X0221491Y0149969D01*
X0221677Y0149773D01*
X0221854Y0149568D01*
X0222020Y0149354D01*
X0222176Y0149133D01*
X0222321Y0148905D01*
X0222454Y0148669D01*
X0222576Y0148428D01*
X0222685Y0148180D01*
X0222783Y0147928D01*
X0222868Y0147671D01*
X0222940Y0147410D01*
X0222999Y0147146D01*
X0223045Y0146880D01*
X0223078Y0146611D01*
X0223098Y0146341D01*
X0223105Y0146071D01*
X0223098Y0145801D01*
X0223078Y0145531D01*
X0223045Y0145262D01*
X0222999Y0144996D01*
X0222940Y0144732D01*
X0222868Y0144471D01*
X0222783Y0144214D01*
X0222685Y0143962D01*
X0222576Y0143714D01*
X0222454Y0143473D01*
X0222321Y0143237D01*
X0222176Y0143009D01*
X0222020Y0142788D01*
X0221854Y0142574D01*
X0221677Y0142369D01*
X0221491Y0142173D01*
X0221295Y0141987D01*
X0221090Y0141810D01*
X0220876Y0141644D01*
X0220655Y0141488D01*
X0220427Y0141343D01*
X0220191Y0141210D01*
X0219950Y0141088D01*
X0219702Y0140979D01*
X0219450Y0140881D01*
X0219193Y0140796D01*
X0218932Y0140724D01*
X0218668Y0140665D01*
X0218402Y0140619D01*
X0218133Y0140586D01*
X0217863Y0140566D01*
X0217593Y0140559D01*
X0217323Y0140566D01*
X0217053Y0140586D01*
X0216784Y0140619D01*
X0216518Y0140665D01*
X0216254Y0140724D01*
X0215993Y0140796D01*
X0215736Y0140881D01*
X0215484Y0140979D01*
X0215236Y0141088D01*
X0214995Y0141210D01*
X0214759Y0141343D01*
X0214531Y0141488D01*
X0214310Y0141644D01*
X0214096Y0141810D01*
X0213891Y0141987D01*
X0213695Y0142173D01*
X0213509Y0142369D01*
X0213332Y0142574D01*
X0213166Y0142788D01*
X0213010Y0143009D01*
X0212865Y0143237D01*
X0212732Y0143473D01*
X0212610Y0143714D01*
X0212501Y0143962D01*
X0212403Y0144214D01*
X0212318Y0144471D01*
X0212246Y0144732D01*
X0212187Y0144996D01*
X0212141Y0145262D01*
X0212108Y0145531D01*
X0212088Y0145801D01*
X0212081Y0146071D01*
X0209974Y0174071D02*
X0209981Y0174361D01*
X0210002Y0174650D01*
X0210038Y0174938D01*
X0210087Y0175223D01*
X0210151Y0175506D01*
X0210228Y0175785D01*
X0210319Y0176061D01*
X0210424Y0176331D01*
X0210541Y0176596D01*
X0210671Y0176855D01*
X0210814Y0177107D01*
X0210969Y0177352D01*
X0211136Y0177589D01*
X0211315Y0177818D01*
X0211504Y0178037D01*
X0211704Y0178247D01*
X0211914Y0178447D01*
X0212133Y0178636D01*
X0212362Y0178815D01*
X0212599Y0178982D01*
X0212844Y0179137D01*
X0213096Y0179280D01*
X0213355Y0179410D01*
X0213620Y0179527D01*
X0213890Y0179632D01*
X0214166Y0179723D01*
X0214445Y0179800D01*
X0214728Y0179864D01*
X0215013Y0179913D01*
X0215301Y0179949D01*
X0215590Y0179970D01*
X0215880Y0179977D01*
X0216170Y0179970D01*
X0216459Y0179949D01*
X0216747Y0179913D01*
X0217032Y0179864D01*
X0217315Y0179800D01*
X0217594Y0179723D01*
X0217870Y0179632D01*
X0218140Y0179527D01*
X0218405Y0179410D01*
X0218664Y0179280D01*
X0218916Y0179137D01*
X0219161Y0178982D01*
X0219398Y0178815D01*
X0219627Y0178636D01*
X0219846Y0178447D01*
X0220056Y0178247D01*
X0220256Y0178037D01*
X0220445Y0177818D01*
X0220624Y0177589D01*
X0220791Y0177352D01*
X0220946Y0177107D01*
X0221089Y0176855D01*
X0221219Y0176596D01*
X0221336Y0176331D01*
X0221441Y0176061D01*
X0221532Y0175785D01*
X0221609Y0175506D01*
X0221673Y0175223D01*
X0221722Y0174938D01*
X0221758Y0174650D01*
X0221779Y0174361D01*
X0221786Y0174071D01*
X0221779Y0173781D01*
X0221758Y0173492D01*
X0221722Y0173204D01*
X0221673Y0172919D01*
X0221609Y0172636D01*
X0221532Y0172357D01*
X0221441Y0172081D01*
X0221336Y0171811D01*
X0221219Y0171546D01*
X0221089Y0171287D01*
X0220946Y0171035D01*
X0220791Y0170790D01*
X0220624Y0170553D01*
X0220445Y0170324D01*
X0220256Y0170105D01*
X0220056Y0169895D01*
X0219846Y0169695D01*
X0219627Y0169506D01*
X0219398Y0169327D01*
X0219161Y0169160D01*
X0218916Y0169005D01*
X0218664Y0168862D01*
X0218405Y0168732D01*
X0218140Y0168615D01*
X0217870Y0168510D01*
X0217594Y0168419D01*
X0217315Y0168342D01*
X0217032Y0168278D01*
X0216747Y0168229D01*
X0216459Y0168193D01*
X0216170Y0168172D01*
X0215880Y0168165D01*
X0215590Y0168172D01*
X0215301Y0168193D01*
X0215013Y0168229D01*
X0214728Y0168278D01*
X0214445Y0168342D01*
X0214166Y0168419D01*
X0213890Y0168510D01*
X0213620Y0168615D01*
X0213355Y0168732D01*
X0213096Y0168862D01*
X0212844Y0169005D01*
X0212599Y0169160D01*
X0212362Y0169327D01*
X0212133Y0169506D01*
X0211914Y0169695D01*
X0211704Y0169895D01*
X0211504Y0170105D01*
X0211315Y0170324D01*
X0211136Y0170553D01*
X0210969Y0170790D01*
X0210814Y0171035D01*
X0210671Y0171287D01*
X0210541Y0171546D01*
X0210424Y0171811D01*
X0210319Y0172081D01*
X0210228Y0172357D01*
X0210151Y0172636D01*
X0210087Y0172919D01*
X0210038Y0173204D01*
X0210002Y0173492D01*
X0209981Y0173781D01*
X0209974Y0174071D01*
D11*
X0198180Y0072396D03*
X0193180Y0072396D03*
X0158180Y0072396D03*
X0153180Y0072396D03*
X0148180Y0072396D03*
X0143180Y0072396D03*
X0138180Y0072396D03*
X0133180Y0072396D03*
X0128180Y0072396D03*
X0123180Y0072396D03*
X0133180Y0019396D03*
X0138180Y0019396D03*
X0143180Y0019396D03*
X0148180Y0019396D03*
X0153180Y0019396D03*
X0158180Y0019396D03*
X0163180Y0019396D03*
X0168180Y0019396D03*
X0173180Y0019396D03*
X0178180Y0019396D03*
X0188180Y0019396D03*
X0198180Y0019396D03*
X0208180Y0019396D03*
D12*
X0178880Y0013571D03*
X0173380Y0013571D03*
X0167880Y0013571D03*
X0162380Y0013571D03*
X0153380Y0013571D03*
X0143380Y0013571D03*
X0137880Y0013571D03*
X0132380Y0013571D03*
X0136680Y0040171D03*
X0126680Y0040171D03*
X0126680Y0050171D03*
X0126680Y0060171D03*
X0136680Y0060171D03*
X0136680Y0050171D03*
X0142880Y0078071D03*
X0148380Y0078071D03*
X0153880Y0078071D03*
X0159380Y0078071D03*
X0128380Y0078571D03*
D13*
X0128782Y0121571D03*
X0108703Y0121571D03*
D14*
X0144880Y0115071D03*
X0154880Y0115071D03*
X0149880Y0125071D03*
X0159880Y0125071D03*
D15*
X0157580Y0141071D03*
X0146780Y0141071D03*
X0152180Y0151071D03*
X0162980Y0151071D03*
X0173780Y0151071D03*
X0184580Y0151071D03*
X0179180Y0141071D03*
X0168380Y0141071D03*
X0189980Y0141071D03*
D16*
X0051680Y0083671D03*
X0051680Y0074571D03*
X0051680Y0065471D03*
D17*
X0076081Y0074571D03*
D18*
X0168380Y0092102D02*
X0168380Y0098039D01*
X0178380Y0098039D02*
X0178380Y0092102D01*
X0188380Y0092102D02*
X0188380Y0098039D01*
D19*
X0040880Y0087417D03*
X0040880Y0080724D03*
D20*
X0041034Y0057071D03*
X0047727Y0057071D03*
X0216534Y0088071D03*
X0223227Y0088071D03*
D21*
X0224227Y0097071D03*
X0217534Y0097071D03*
X0213227Y0078071D03*
X0206534Y0078071D03*
X0089727Y0110071D03*
X0083034Y0110071D03*
X0083034Y0117571D03*
X0089727Y0117571D03*
X0074727Y0117571D03*
X0068034Y0117571D03*
X0059727Y0117571D03*
X0053034Y0117571D03*
D22*
X0053034Y0125071D03*
X0059727Y0125071D03*
X0068034Y0125071D03*
X0074727Y0125071D03*
X0083034Y0125071D03*
X0089727Y0125071D03*
X0072880Y0100417D03*
X0072880Y0093724D03*
X0041880Y0074417D03*
X0041880Y0067724D03*
X0053534Y0056071D03*
X0060227Y0056071D03*
X0049227Y0044071D03*
X0042534Y0044071D03*
X0061380Y0038417D03*
X0061380Y0031724D03*
X0063534Y0020071D03*
X0070227Y0020071D03*
X0050227Y0015071D03*
X0043534Y0015071D03*
X0093534Y0014571D03*
X0100227Y0014571D03*
X0108880Y0031724D03*
X0108880Y0038417D03*
X0086227Y0060071D03*
X0079534Y0060071D03*
D23*
X0089711Y0093831D03*
X0089711Y0101311D03*
X0081050Y0097571D03*
D24*
X0083660Y0138071D03*
X0073817Y0138071D03*
X0065943Y0138071D03*
X0056101Y0138071D03*
D25*
X0074357Y0053713D03*
X0077506Y0053713D03*
X0080656Y0053713D03*
X0083806Y0053713D03*
X0086955Y0053713D03*
X0090105Y0053713D03*
X0093254Y0053713D03*
X0096404Y0053713D03*
X0096404Y0021429D03*
X0093254Y0021429D03*
X0090105Y0021429D03*
X0086955Y0021429D03*
X0083806Y0021429D03*
X0080656Y0021429D03*
X0077506Y0021429D03*
X0074357Y0021429D03*
D26*
X0069239Y0026547D03*
X0069239Y0029697D03*
X0069239Y0032846D03*
X0069239Y0035996D03*
X0069239Y0039146D03*
X0069239Y0042295D03*
X0069239Y0045445D03*
X0069239Y0048594D03*
X0101522Y0048594D03*
X0101522Y0045445D03*
X0101522Y0042295D03*
X0101522Y0039146D03*
X0101522Y0035996D03*
X0101522Y0032846D03*
X0101522Y0029697D03*
X0101522Y0026547D03*
D27*
X0108880Y0043224D03*
X0108880Y0049917D03*
X0111380Y0068224D03*
X0111380Y0074917D03*
D28*
X0051494Y0036681D03*
X0042439Y0036681D03*
X0042439Y0021720D03*
X0051494Y0021720D03*
D29*
X0224380Y0107516D03*
X0224380Y0124839D03*
D30*
X0207947Y0118071D03*
X0178813Y0118071D03*
D31*
X0150120Y0101902D03*
X0142640Y0101902D03*
X0146380Y0093240D03*
D32*
X0131239Y0090654D03*
X0131239Y0100496D03*
X0101317Y0100496D03*
X0101317Y0090654D03*
D33*
X0106984Y0094422D02*
X0095650Y0094422D01*
X0094596Y0093367D01*
X0094596Y0087939D01*
X0095650Y0086885D01*
X0106984Y0086885D01*
X0107869Y0087771D01*
X0116928Y0087771D01*
X0124428Y0080271D01*
X0124776Y0080271D01*
X0124399Y0079363D01*
X0124399Y0077779D01*
X0124905Y0076558D01*
X0120466Y0076558D01*
X0119412Y0075504D01*
X0119412Y0071855D01*
X0115180Y0067622D01*
X0115180Y0070920D01*
X0114529Y0071570D01*
X0115180Y0072222D01*
X0115180Y0077613D01*
X0114126Y0078667D01*
X0113180Y0078667D01*
X0113180Y0079618D01*
X0113180Y0081523D01*
X0112770Y0081933D01*
X0112770Y0082745D01*
X0112254Y0083991D01*
X0111301Y0084945D01*
X0110055Y0085461D01*
X0108706Y0085461D01*
X0107459Y0084945D01*
X0106506Y0083991D01*
X0105990Y0082745D01*
X0105990Y0081396D01*
X0106506Y0080150D01*
X0107459Y0079196D01*
X0108580Y0078732D01*
X0108580Y0078612D01*
X0107580Y0077613D01*
X0107580Y0072222D01*
X0108231Y0071570D01*
X0107580Y0070920D01*
X0107580Y0066702D01*
X0106959Y0066445D01*
X0106006Y0065491D01*
X0105490Y0064245D01*
X0105490Y0062896D01*
X0105772Y0062215D01*
X0104580Y0061023D01*
X0104180Y0060622D01*
X0104180Y0062118D01*
X0104180Y0064023D01*
X0097180Y0071023D01*
X0097180Y0083023D01*
X0095833Y0084370D01*
X0095832Y0084370D01*
X0094180Y0086023D01*
X0094180Y0086618D01*
X0094180Y0088523D01*
X0092833Y0089870D01*
X0090332Y0089870D01*
X0090180Y0090023D01*
X0090180Y0090062D01*
X0093212Y0090062D01*
X0094267Y0091117D01*
X0094267Y0096544D01*
X0093240Y0097571D01*
X0094267Y0098597D01*
X0094267Y0100781D01*
X0094596Y0101110D01*
X0094596Y0097782D01*
X0095650Y0096728D01*
X0106984Y0096728D01*
X0107527Y0097271D01*
X0110428Y0097271D01*
X0115328Y0092370D01*
X0108038Y0092370D01*
X0108038Y0093367D01*
X0106984Y0094422D01*
X0107246Y0094159D02*
X0113539Y0094159D01*
X0112341Y0095357D02*
X0094267Y0095357D01*
X0094267Y0094159D02*
X0095388Y0094159D01*
X0094596Y0092961D02*
X0094267Y0092961D01*
X0094267Y0091762D02*
X0094596Y0091762D01*
X0094596Y0090564D02*
X0093714Y0090564D01*
X0093338Y0089365D02*
X0094596Y0089365D01*
X0094596Y0088167D02*
X0094180Y0088167D01*
X0094180Y0086969D02*
X0095567Y0086969D01*
X0094433Y0085770D02*
X0118928Y0085770D01*
X0117730Y0086969D02*
X0107067Y0086969D01*
X0107086Y0084572D02*
X0095631Y0084572D01*
X0096830Y0083373D02*
X0106250Y0083373D01*
X0105990Y0082175D02*
X0097180Y0082175D01*
X0097180Y0080976D02*
X0106163Y0080976D01*
X0106878Y0079778D02*
X0097180Y0079778D01*
X0097180Y0078580D02*
X0108548Y0078580D01*
X0107580Y0077381D02*
X0097180Y0077381D01*
X0097180Y0076183D02*
X0107580Y0076183D01*
X0107580Y0074984D02*
X0097180Y0074984D01*
X0097180Y0073786D02*
X0107580Y0073786D01*
X0107580Y0072587D02*
X0097180Y0072587D01*
X0097180Y0071389D02*
X0108050Y0071389D01*
X0107580Y0070191D02*
X0098013Y0070191D01*
X0099211Y0068992D02*
X0107580Y0068992D01*
X0107580Y0067794D02*
X0100409Y0067794D01*
X0101608Y0066595D02*
X0107323Y0066595D01*
X0105967Y0065397D02*
X0102806Y0065397D01*
X0104005Y0064198D02*
X0105490Y0064198D01*
X0105490Y0063000D02*
X0104180Y0063000D01*
X0104180Y0061802D02*
X0105359Y0061802D01*
X0114711Y0071389D02*
X0118946Y0071389D01*
X0119412Y0072587D02*
X0115180Y0072587D01*
X0115180Y0073786D02*
X0119412Y0073786D01*
X0119412Y0074984D02*
X0115180Y0074984D01*
X0115180Y0076183D02*
X0120091Y0076183D01*
X0124564Y0077381D02*
X0115180Y0077381D01*
X0114213Y0078580D02*
X0124399Y0078580D01*
X0124572Y0079778D02*
X0113180Y0079778D01*
X0113180Y0080976D02*
X0123722Y0080976D01*
X0122524Y0082175D02*
X0112770Y0082175D01*
X0112511Y0083373D02*
X0121325Y0083373D01*
X0120127Y0084572D02*
X0111674Y0084572D01*
X0114738Y0092961D02*
X0108038Y0092961D01*
X0111143Y0096556D02*
X0094255Y0096556D01*
X0094624Y0097754D02*
X0093424Y0097754D01*
X0094267Y0098953D02*
X0094596Y0098953D01*
X0094596Y0100151D02*
X0094267Y0100151D01*
X0096801Y0104264D02*
X0097270Y0105396D01*
X0097270Y0106745D01*
X0096754Y0107991D01*
X0095801Y0108945D01*
X0094555Y0109461D01*
X0093476Y0109461D01*
X0093476Y0112816D01*
X0092472Y0113820D01*
X0093476Y0114825D01*
X0093476Y0120316D01*
X0092422Y0121370D01*
X0087031Y0121370D01*
X0086380Y0120719D01*
X0085772Y0121327D01*
X0086521Y0122076D01*
X0086776Y0121822D01*
X0087141Y0121611D01*
X0087547Y0121502D01*
X0089342Y0121502D01*
X0089342Y0124684D01*
X0090111Y0124684D01*
X0090111Y0121502D01*
X0091906Y0121502D01*
X0092313Y0121611D01*
X0092678Y0121822D01*
X0092975Y0122120D01*
X0093186Y0122485D01*
X0093295Y0122891D01*
X0093295Y0124686D01*
X0090113Y0124686D01*
X0090113Y0125455D01*
X0093295Y0125455D01*
X0093295Y0127250D01*
X0093186Y0127657D01*
X0092975Y0128022D01*
X0092678Y0128319D01*
X0092313Y0128530D01*
X0091906Y0128639D01*
X0090111Y0128639D01*
X0090111Y0125457D01*
X0089342Y0125457D01*
X0089342Y0128639D01*
X0087547Y0128639D01*
X0087141Y0128530D01*
X0086776Y0128319D01*
X0086521Y0128065D01*
X0085980Y0128606D01*
X0085980Y0133871D01*
X0086361Y0134028D01*
X0087702Y0135370D01*
X0088428Y0137122D01*
X0088428Y0139019D01*
X0087702Y0140772D01*
X0086361Y0142113D01*
X0084608Y0142839D01*
X0082711Y0142839D01*
X0080959Y0142113D01*
X0079617Y0140772D01*
X0078891Y0139019D01*
X0078891Y0137122D01*
X0079617Y0135370D01*
X0080780Y0134207D01*
X0080780Y0128839D01*
X0080320Y0128839D01*
X0079265Y0127785D01*
X0079265Y0122357D01*
X0080280Y0121342D01*
X0080280Y0121313D01*
X0079284Y0120316D01*
X0079284Y0114825D01*
X0080289Y0113820D01*
X0079284Y0112816D01*
X0079284Y0109443D01*
X0079280Y0109434D01*
X0079280Y0108400D01*
X0079280Y0101670D01*
X0079032Y0101670D01*
X0076648Y0101670D01*
X0076648Y0103131D01*
X0075594Y0104185D01*
X0073247Y0104185D01*
X0075680Y0106618D01*
X0075680Y0108523D01*
X0075680Y0113771D01*
X0077422Y0113771D01*
X0078476Y0114825D01*
X0078476Y0120316D01*
X0077422Y0121370D01*
X0072031Y0121370D01*
X0071380Y0120719D01*
X0070772Y0121327D01*
X0071521Y0122076D01*
X0071776Y0121822D01*
X0072141Y0121611D01*
X0072547Y0121502D01*
X0074342Y0121502D01*
X0074342Y0124684D01*
X0075111Y0124684D01*
X0075111Y0121502D01*
X0076906Y0121502D01*
X0077313Y0121611D01*
X0077678Y0121822D01*
X0077975Y0122120D01*
X0078186Y0122485D01*
X0078295Y0122891D01*
X0078295Y0124686D01*
X0075113Y0124686D01*
X0075113Y0125455D01*
X0078295Y0125455D01*
X0078295Y0127250D01*
X0078186Y0127657D01*
X0077975Y0128022D01*
X0077678Y0128319D01*
X0077313Y0128530D01*
X0076906Y0128639D01*
X0075111Y0128639D01*
X0075111Y0125457D01*
X0074342Y0125457D01*
X0074342Y0128639D01*
X0072625Y0128639D01*
X0076084Y0132098D01*
X0076480Y0133054D01*
X0076480Y0134013D01*
X0076518Y0134028D01*
X0077859Y0135370D01*
X0078585Y0137122D01*
X0078585Y0139019D01*
X0077859Y0140772D01*
X0076518Y0142113D01*
X0074766Y0142839D01*
X0072869Y0142839D01*
X0071116Y0142113D01*
X0069880Y0140877D01*
X0068644Y0142113D01*
X0066892Y0142839D01*
X0064994Y0142839D01*
X0063242Y0142113D01*
X0061901Y0140772D01*
X0061175Y0139019D01*
X0061175Y0137122D01*
X0061901Y0135370D01*
X0062452Y0134819D01*
X0058407Y0130775D01*
X0057676Y0130043D01*
X0057280Y0129088D01*
X0057280Y0128839D01*
X0057013Y0128839D01*
X0056239Y0128065D01*
X0055985Y0128319D01*
X0055620Y0128530D01*
X0055213Y0128639D01*
X0053418Y0128639D01*
X0053418Y0125457D01*
X0052649Y0125457D01*
X0052649Y0128639D01*
X0050854Y0128639D01*
X0050448Y0128530D01*
X0050083Y0128319D01*
X0049785Y0128022D01*
X0049574Y0127657D01*
X0049465Y0127250D01*
X0049465Y0125455D01*
X0052647Y0125455D01*
X0052647Y0124686D01*
X0049465Y0124686D01*
X0049465Y0122891D01*
X0049574Y0122485D01*
X0049785Y0122120D01*
X0050083Y0121822D01*
X0050448Y0121611D01*
X0050854Y0121502D01*
X0052649Y0121502D01*
X0052649Y0124684D01*
X0053418Y0124684D01*
X0053418Y0121502D01*
X0055213Y0121502D01*
X0055620Y0121611D01*
X0055985Y0121822D01*
X0056239Y0122076D01*
X0056988Y0121327D01*
X0056380Y0120719D01*
X0055729Y0121370D01*
X0050338Y0121370D01*
X0049284Y0120316D01*
X0049284Y0114825D01*
X0050338Y0113771D01*
X0053428Y0113771D01*
X0058328Y0108870D01*
X0042928Y0108870D01*
X0041580Y0107523D01*
X0041580Y0105618D01*
X0041580Y0091576D01*
X0041479Y0091576D01*
X0041479Y0088019D01*
X0040281Y0088019D01*
X0040281Y0091576D01*
X0037717Y0091576D01*
X0037680Y0091566D01*
X0037680Y0159071D01*
X0229080Y0159071D01*
X0229080Y0130360D01*
X0228669Y0130772D01*
X0220091Y0130772D01*
X0219990Y0130670D01*
X0199397Y0130670D01*
X0198363Y0130670D01*
X0197407Y0130275D01*
X0186303Y0119170D01*
X0186125Y0119170D01*
X0186125Y0126296D01*
X0185480Y0126941D01*
X0185480Y0135494D01*
X0185853Y0135867D01*
X0186584Y0136598D01*
X0186901Y0137363D01*
X0187992Y0136271D01*
X0191968Y0136271D01*
X0194780Y0139083D01*
X0194780Y0143059D01*
X0191968Y0145870D01*
X0187992Y0145870D01*
X0186980Y0144858D01*
X0186980Y0146683D01*
X0189380Y0149083D01*
X0189380Y0153059D01*
X0186568Y0155870D01*
X0182592Y0155870D01*
X0179780Y0153059D01*
X0179780Y0149083D01*
X0181780Y0147083D01*
X0181780Y0145258D01*
X0181168Y0145870D01*
X0177192Y0145870D01*
X0174380Y0143059D01*
X0174380Y0139083D01*
X0177192Y0136271D01*
X0180280Y0136271D01*
X0180280Y0136054D01*
X0180280Y0127351D01*
X0172556Y0127351D01*
X0171502Y0126296D01*
X0171502Y0113670D01*
X0167282Y0113670D01*
X0167666Y0113829D01*
X0169003Y0115166D01*
X0169726Y0116913D01*
X0169726Y0118804D01*
X0169003Y0120550D01*
X0167666Y0121887D01*
X0165919Y0122611D01*
X0164028Y0122611D01*
X0163267Y0122295D01*
X0163619Y0122780D01*
X0163931Y0123393D01*
X0164144Y0124047D01*
X0164252Y0124726D01*
X0164252Y0124784D01*
X0160169Y0124784D01*
X0160169Y0125357D01*
X0164252Y0125357D01*
X0164252Y0125415D01*
X0164144Y0126094D01*
X0163931Y0126749D01*
X0163619Y0127362D01*
X0163215Y0127919D01*
X0162728Y0128405D01*
X0162171Y0128809D01*
X0161558Y0129122D01*
X0160904Y0129335D01*
X0160224Y0129442D01*
X0160166Y0129442D01*
X0160166Y0125359D01*
X0159594Y0125359D01*
X0159594Y0129442D01*
X0159536Y0129442D01*
X0158856Y0129335D01*
X0158202Y0129122D01*
X0157589Y0128809D01*
X0157480Y0128730D01*
X0157480Y0129494D01*
X0164353Y0136367D01*
X0165084Y0137098D01*
X0165308Y0137638D01*
X0166475Y0136471D01*
X0167980Y0136471D01*
X0167980Y0140668D01*
X0168780Y0140668D01*
X0168780Y0136471D01*
X0170285Y0136471D01*
X0172980Y0139165D01*
X0172980Y0140670D01*
X0168783Y0140670D01*
X0168783Y0141471D01*
X0172980Y0141471D01*
X0172980Y0142976D01*
X0170285Y0145670D01*
X0168780Y0145670D01*
X0168780Y0141473D01*
X0167980Y0141473D01*
X0167980Y0145670D01*
X0166475Y0145670D01*
X0165480Y0144675D01*
X0165480Y0146783D01*
X0167780Y0149083D01*
X0167780Y0153059D01*
X0164968Y0155870D01*
X0160992Y0155870D01*
X0158180Y0153059D01*
X0158180Y0149083D01*
X0160280Y0146983D01*
X0160280Y0145158D01*
X0159568Y0145870D01*
X0155592Y0145870D01*
X0152780Y0143059D01*
X0152780Y0139948D01*
X0147676Y0134843D01*
X0147280Y0133888D01*
X0147280Y0132854D01*
X0147280Y0128935D01*
X0146015Y0127670D01*
X0134322Y0127670D01*
X0134322Y0129009D01*
X0133267Y0130063D01*
X0124296Y0130063D01*
X0123242Y0129009D01*
X0123242Y0114132D01*
X0124296Y0113078D01*
X0127780Y0113078D01*
X0127780Y0104264D01*
X0125980Y0104264D01*
X0125980Y0104588D01*
X0125584Y0105543D01*
X0124853Y0106275D01*
X0114243Y0116885D01*
X0114243Y0129009D01*
X0113189Y0130063D01*
X0104217Y0130063D01*
X0103163Y0129009D01*
X0103163Y0114132D01*
X0104217Y0113078D01*
X0110696Y0113078D01*
X0120780Y0102994D01*
X0120780Y0096588D01*
X0120780Y0095554D01*
X0121176Y0094598D01*
X0124517Y0091257D01*
X0124517Y0089685D01*
X0112333Y0101870D01*
X0110428Y0101870D01*
X0108038Y0101870D01*
X0108038Y0103210D01*
X0106984Y0104264D01*
X0096801Y0104264D01*
X0097083Y0104945D02*
X0118829Y0104945D01*
X0117631Y0106143D02*
X0097270Y0106143D01*
X0097024Y0107342D02*
X0116432Y0107342D01*
X0115234Y0108540D02*
X0096206Y0108540D01*
X0093476Y0109739D02*
X0114035Y0109739D01*
X0112837Y0110937D02*
X0093476Y0110937D01*
X0093476Y0112135D02*
X0111639Y0112135D01*
X0115397Y0115731D02*
X0123242Y0115731D01*
X0123242Y0116929D02*
X0114243Y0116929D01*
X0114243Y0118128D02*
X0123242Y0118128D01*
X0123242Y0119326D02*
X0114243Y0119326D01*
X0114243Y0120524D02*
X0123242Y0120524D01*
X0123242Y0121723D02*
X0114243Y0121723D01*
X0114243Y0122921D02*
X0123242Y0122921D01*
X0123242Y0124120D02*
X0114243Y0124120D01*
X0114243Y0125318D02*
X0123242Y0125318D01*
X0123242Y0126517D02*
X0114243Y0126517D01*
X0114243Y0127715D02*
X0123242Y0127715D01*
X0123242Y0128913D02*
X0114243Y0128913D01*
X0117713Y0138759D02*
X0120622Y0138759D01*
X0123309Y0139872D01*
X0125366Y0141929D01*
X0126479Y0144616D01*
X0126479Y0147525D01*
X0125366Y0150213D01*
X0123309Y0152269D01*
X0120622Y0153382D01*
X0117713Y0153382D01*
X0115026Y0152269D01*
X0112969Y0150213D01*
X0111856Y0147525D01*
X0111856Y0144616D01*
X0112969Y0141929D01*
X0115026Y0139872D01*
X0117713Y0138759D01*
X0115443Y0139699D02*
X0088146Y0139699D01*
X0088428Y0138501D02*
X0142562Y0138501D01*
X0141980Y0139083D02*
X0144792Y0136271D01*
X0148768Y0136271D01*
X0151580Y0139083D01*
X0151580Y0143059D01*
X0148768Y0145870D01*
X0144792Y0145870D01*
X0141980Y0143059D01*
X0141980Y0139083D01*
X0141980Y0139699D02*
X0122892Y0139699D01*
X0124335Y0140898D02*
X0141980Y0140898D01*
X0141980Y0142096D02*
X0125435Y0142096D01*
X0125931Y0143294D02*
X0142216Y0143294D01*
X0143415Y0144493D02*
X0126428Y0144493D01*
X0126479Y0145691D02*
X0144613Y0145691D01*
X0148375Y0148088D02*
X0126246Y0148088D01*
X0126479Y0146890D02*
X0149573Y0146890D01*
X0150192Y0146271D02*
X0154168Y0146271D01*
X0156980Y0149083D01*
X0156980Y0153059D01*
X0154168Y0155870D01*
X0150192Y0155870D01*
X0147380Y0153059D01*
X0147380Y0149083D01*
X0150192Y0146271D01*
X0148947Y0145691D02*
X0155413Y0145691D01*
X0154787Y0146890D02*
X0160280Y0146890D01*
X0160280Y0145691D02*
X0159747Y0145691D01*
X0159175Y0148088D02*
X0155985Y0148088D01*
X0156980Y0149287D02*
X0158180Y0149287D01*
X0158180Y0150485D02*
X0156980Y0150485D01*
X0156980Y0151683D02*
X0158180Y0151683D01*
X0158180Y0152882D02*
X0156980Y0152882D01*
X0155958Y0154080D02*
X0159202Y0154080D01*
X0160400Y0155279D02*
X0154760Y0155279D01*
X0149600Y0155279D02*
X0037680Y0155279D01*
X0037680Y0156477D02*
X0229080Y0156477D01*
X0229080Y0155279D02*
X0187160Y0155279D01*
X0188358Y0154080D02*
X0229080Y0154080D01*
X0229080Y0152882D02*
X0220256Y0152882D01*
X0219047Y0153382D02*
X0216138Y0153382D01*
X0213451Y0152269D01*
X0211394Y0150213D01*
X0210281Y0147525D01*
X0210281Y0144616D01*
X0211394Y0141929D01*
X0213451Y0139872D01*
X0216138Y0138759D01*
X0219047Y0138759D01*
X0221735Y0139872D01*
X0223791Y0141929D01*
X0224904Y0144616D01*
X0224904Y0147525D01*
X0223791Y0150213D01*
X0221735Y0152269D01*
X0219047Y0153382D01*
X0222320Y0151683D02*
X0229080Y0151683D01*
X0229080Y0150485D02*
X0223519Y0150485D01*
X0224175Y0149287D02*
X0229080Y0149287D01*
X0229080Y0148088D02*
X0224671Y0148088D01*
X0224904Y0146890D02*
X0229080Y0146890D01*
X0229080Y0145691D02*
X0224904Y0145691D01*
X0224853Y0144493D02*
X0229080Y0144493D01*
X0229080Y0143294D02*
X0224357Y0143294D01*
X0223861Y0142096D02*
X0229080Y0142096D01*
X0229080Y0140898D02*
X0222760Y0140898D01*
X0221317Y0139699D02*
X0229080Y0139699D01*
X0229080Y0138501D02*
X0194198Y0138501D01*
X0194780Y0139699D02*
X0213868Y0139699D01*
X0212425Y0140898D02*
X0194780Y0140898D01*
X0194780Y0142096D02*
X0211324Y0142096D01*
X0210828Y0143294D02*
X0194544Y0143294D01*
X0193346Y0144493D02*
X0210332Y0144493D01*
X0210281Y0145691D02*
X0192147Y0145691D01*
X0187813Y0145691D02*
X0186980Y0145691D01*
X0187187Y0146890D02*
X0210281Y0146890D01*
X0210515Y0148088D02*
X0188385Y0148088D01*
X0189380Y0149287D02*
X0211011Y0149287D01*
X0211667Y0150485D02*
X0189380Y0150485D01*
X0189380Y0151683D02*
X0212865Y0151683D01*
X0214930Y0152882D02*
X0189380Y0152882D01*
X0182000Y0155279D02*
X0176360Y0155279D01*
X0175768Y0155870D02*
X0171792Y0155870D01*
X0168980Y0153059D01*
X0168980Y0149083D01*
X0171792Y0146271D01*
X0175768Y0146271D01*
X0178580Y0149083D01*
X0178580Y0153059D01*
X0175768Y0155870D01*
X0177558Y0154080D02*
X0180802Y0154080D01*
X0179780Y0152882D02*
X0178580Y0152882D01*
X0178580Y0151683D02*
X0179780Y0151683D01*
X0179780Y0150485D02*
X0178580Y0150485D01*
X0178580Y0149287D02*
X0179780Y0149287D01*
X0180775Y0148088D02*
X0177585Y0148088D01*
X0176387Y0146890D02*
X0181780Y0146890D01*
X0181780Y0145691D02*
X0181347Y0145691D01*
X0177013Y0145691D02*
X0165480Y0145691D01*
X0165587Y0146890D02*
X0171173Y0146890D01*
X0169975Y0148088D02*
X0166785Y0148088D01*
X0167780Y0149287D02*
X0168980Y0149287D01*
X0168980Y0150485D02*
X0167780Y0150485D01*
X0167780Y0151683D02*
X0168980Y0151683D01*
X0168980Y0152882D02*
X0167780Y0152882D01*
X0166758Y0154080D02*
X0170002Y0154080D01*
X0171200Y0155279D02*
X0165560Y0155279D01*
X0167980Y0144493D02*
X0168780Y0144493D01*
X0168780Y0143294D02*
X0167980Y0143294D01*
X0167980Y0142096D02*
X0168780Y0142096D01*
X0168783Y0140898D02*
X0174380Y0140898D01*
X0174380Y0142096D02*
X0172980Y0142096D01*
X0172661Y0143294D02*
X0174616Y0143294D01*
X0175815Y0144493D02*
X0171463Y0144493D01*
X0172980Y0139699D02*
X0174380Y0139699D01*
X0174962Y0138501D02*
X0172315Y0138501D01*
X0171117Y0137302D02*
X0176161Y0137302D01*
X0180280Y0136104D02*
X0164090Y0136104D01*
X0165169Y0137302D02*
X0165643Y0137302D01*
X0167980Y0137302D02*
X0168780Y0137302D01*
X0168780Y0138501D02*
X0167980Y0138501D01*
X0167980Y0139699D02*
X0168780Y0139699D01*
X0162892Y0134906D02*
X0180280Y0134906D01*
X0180280Y0133707D02*
X0161693Y0133707D01*
X0160495Y0132509D02*
X0180280Y0132509D01*
X0180280Y0131310D02*
X0159296Y0131310D01*
X0158098Y0130112D02*
X0180280Y0130112D01*
X0180280Y0128913D02*
X0161968Y0128913D01*
X0160166Y0128913D02*
X0159594Y0128913D01*
X0159594Y0127715D02*
X0160166Y0127715D01*
X0160166Y0126517D02*
X0159594Y0126517D01*
X0160169Y0125318D02*
X0171502Y0125318D01*
X0171502Y0124120D02*
X0164156Y0124120D01*
X0163691Y0122921D02*
X0171502Y0122921D01*
X0171502Y0121723D02*
X0167830Y0121723D01*
X0169014Y0120524D02*
X0171502Y0120524D01*
X0171502Y0119326D02*
X0169510Y0119326D01*
X0169726Y0118128D02*
X0171502Y0118128D01*
X0171502Y0116929D02*
X0169726Y0116929D01*
X0169237Y0115731D02*
X0171502Y0115731D01*
X0171502Y0114532D02*
X0168369Y0114532D01*
X0172363Y0108471D02*
X0161363Y0108471D01*
X0160407Y0108867D01*
X0159676Y0109598D01*
X0157774Y0111500D01*
X0157470Y0111195D01*
X0155790Y0110499D01*
X0153970Y0110499D01*
X0152291Y0111195D01*
X0151980Y0111506D01*
X0151980Y0111054D01*
X0151980Y0106457D01*
X0152834Y0106457D01*
X0153889Y0105403D01*
X0153889Y0101808D01*
X0153980Y0101588D01*
X0153980Y0089588D01*
X0153980Y0088554D01*
X0153584Y0087598D01*
X0152856Y0086870D01*
X0169904Y0086870D01*
X0169407Y0087367D01*
X0169329Y0087334D01*
X0167431Y0087334D01*
X0165679Y0088060D01*
X0164338Y0089401D01*
X0163612Y0091154D01*
X0163612Y0098988D01*
X0164338Y0100740D01*
X0165679Y0102081D01*
X0167431Y0102807D01*
X0169329Y0102807D01*
X0171081Y0102081D01*
X0172422Y0100740D01*
X0173148Y0098988D01*
X0173148Y0091154D01*
X0173097Y0091030D01*
X0174457Y0089670D01*
X0174500Y0089670D01*
X0174473Y0089708D01*
X0174146Y0090348D01*
X0173924Y0091032D01*
X0173812Y0091743D01*
X0173812Y0094686D01*
X0177993Y0094686D01*
X0177993Y0095455D01*
X0173812Y0095455D01*
X0173812Y0098399D01*
X0173924Y0099109D01*
X0174146Y0099793D01*
X0174473Y0100433D01*
X0174896Y0101015D01*
X0175404Y0101524D01*
X0175986Y0101946D01*
X0176626Y0102273D01*
X0177310Y0102495D01*
X0177995Y0102603D01*
X0177995Y0095457D01*
X0178765Y0095457D01*
X0178765Y0102603D01*
X0179450Y0102495D01*
X0180134Y0102273D01*
X0180774Y0101946D01*
X0181356Y0101524D01*
X0181865Y0101015D01*
X0182287Y0100433D01*
X0182614Y0099793D01*
X0182836Y0099109D01*
X0182948Y0098399D01*
X0182948Y0095455D01*
X0178767Y0095455D01*
X0178767Y0094686D01*
X0182948Y0094686D01*
X0182948Y0091743D01*
X0182836Y0091032D01*
X0182614Y0090348D01*
X0182287Y0089708D01*
X0182260Y0089670D01*
X0184226Y0089670D01*
X0183612Y0091154D01*
X0183612Y0098988D01*
X0184338Y0100740D01*
X0185679Y0102081D01*
X0187431Y0102807D01*
X0189329Y0102807D01*
X0191081Y0102081D01*
X0192422Y0100740D01*
X0192865Y0099670D01*
X0213784Y0099670D01*
X0213784Y0099816D01*
X0214838Y0100870D01*
X0220229Y0100870D01*
X0220880Y0100219D01*
X0221531Y0100870D01*
X0222280Y0100870D01*
X0222280Y0101582D01*
X0220091Y0101582D01*
X0219037Y0102636D01*
X0219037Y0112395D01*
X0220091Y0113449D01*
X0228669Y0113449D01*
X0229080Y0113037D01*
X0229080Y0119317D01*
X0228669Y0118905D01*
X0220091Y0118905D01*
X0219037Y0119959D01*
X0219037Y0125471D01*
X0215059Y0125471D01*
X0215059Y0118670D01*
X0208548Y0118670D01*
X0208548Y0117471D01*
X0215059Y0117471D01*
X0215059Y0110380D01*
X0214950Y0109973D01*
X0214739Y0109608D01*
X0214441Y0109310D01*
X0214076Y0109100D01*
X0213670Y0108991D01*
X0208546Y0108991D01*
X0208546Y0117469D01*
X0207348Y0117469D01*
X0207348Y0108991D01*
X0202224Y0108991D01*
X0201818Y0109100D01*
X0201453Y0109310D01*
X0201155Y0109608D01*
X0200944Y0109973D01*
X0200835Y0110380D01*
X0200835Y0117471D01*
X0207346Y0117471D01*
X0207346Y0118670D01*
X0200835Y0118670D01*
X0200835Y0125471D01*
X0199957Y0125471D01*
X0189584Y0115098D01*
X0188853Y0114367D01*
X0187897Y0113971D01*
X0186125Y0113971D01*
X0186125Y0109845D01*
X0185070Y0108791D01*
X0174169Y0108791D01*
X0173397Y0108471D01*
X0172363Y0108471D01*
X0173565Y0108540D02*
X0219037Y0108540D01*
X0219037Y0107342D02*
X0151980Y0107342D01*
X0151980Y0108540D02*
X0161195Y0108540D01*
X0159535Y0109739D02*
X0151980Y0109739D01*
X0151980Y0110937D02*
X0152914Y0110937D01*
X0156846Y0110937D02*
X0158337Y0110937D01*
X0153889Y0104945D02*
X0219037Y0104945D01*
X0219037Y0106143D02*
X0153148Y0106143D01*
X0153889Y0103746D02*
X0219037Y0103746D01*
X0219125Y0102548D02*
X0189955Y0102548D01*
X0191813Y0101350D02*
X0222280Y0101350D01*
X0220880Y0093922D02*
X0221531Y0093271D01*
X0225780Y0093271D01*
X0225780Y0092623D01*
X0223826Y0092623D01*
X0223826Y0088672D01*
X0222627Y0088672D01*
X0222627Y0092623D01*
X0220480Y0092623D01*
X0220480Y0093522D01*
X0220880Y0093922D01*
X0220480Y0092961D02*
X0225780Y0092961D01*
X0223826Y0091762D02*
X0222627Y0091762D01*
X0222627Y0090564D02*
X0223826Y0090564D01*
X0223826Y0089365D02*
X0222627Y0089365D01*
X0222627Y0087469D02*
X0223826Y0087469D01*
X0223826Y0083518D01*
X0225780Y0083518D01*
X0225780Y0031148D01*
X0211748Y0017115D01*
X0211748Y0019011D01*
X0208567Y0019011D01*
X0208567Y0019780D01*
X0211748Y0019780D01*
X0211748Y0021969D01*
X0211639Y0022376D01*
X0211429Y0022741D01*
X0211131Y0023038D01*
X0210766Y0023249D01*
X0210359Y0023358D01*
X0208565Y0023358D01*
X0208565Y0019783D01*
X0207795Y0019783D01*
X0207795Y0023358D01*
X0206001Y0023358D01*
X0205594Y0023249D01*
X0205229Y0023038D01*
X0204931Y0022741D01*
X0204721Y0022376D01*
X0204612Y0021969D01*
X0204612Y0019780D01*
X0207793Y0019780D01*
X0207793Y0019011D01*
X0204612Y0019011D01*
X0204612Y0016823D01*
X0204653Y0016670D01*
X0201948Y0016670D01*
X0201948Y0022504D01*
X0200980Y0023472D01*
X0200980Y0023994D01*
X0211084Y0034098D01*
X0211480Y0035054D01*
X0211480Y0036088D01*
X0211480Y0071994D01*
X0213757Y0074271D01*
X0215922Y0074271D01*
X0216976Y0075325D01*
X0216976Y0080816D01*
X0215922Y0081870D01*
X0210531Y0081870D01*
X0209880Y0081219D01*
X0209229Y0081870D01*
X0208480Y0081870D01*
X0208480Y0083741D01*
X0208084Y0084697D01*
X0207353Y0085428D01*
X0204238Y0088543D01*
X0203506Y0089275D01*
X0202551Y0089670D01*
X0192534Y0089670D01*
X0193148Y0091154D01*
X0193148Y0094471D01*
X0213784Y0094471D01*
X0213784Y0094325D01*
X0214838Y0093271D01*
X0215280Y0093271D01*
X0215280Y0092823D01*
X0213229Y0092823D01*
X0212175Y0091769D01*
X0212175Y0084372D01*
X0213229Y0083318D01*
X0219838Y0083318D01*
X0220127Y0083607D01*
X0220457Y0083518D01*
X0222627Y0083518D01*
X0222627Y0087469D01*
X0222627Y0086969D02*
X0223826Y0086969D01*
X0223826Y0085770D02*
X0222627Y0085770D01*
X0222627Y0084572D02*
X0223826Y0084572D01*
X0225780Y0083373D02*
X0219893Y0083373D01*
X0216816Y0080976D02*
X0225780Y0080976D01*
X0225780Y0079778D02*
X0216976Y0079778D01*
X0216976Y0078580D02*
X0225780Y0078580D01*
X0225780Y0077381D02*
X0216976Y0077381D01*
X0216976Y0076183D02*
X0225780Y0076183D01*
X0225780Y0074984D02*
X0216635Y0074984D01*
X0213272Y0073786D02*
X0225780Y0073786D01*
X0225780Y0072587D02*
X0212073Y0072587D01*
X0211480Y0071389D02*
X0225780Y0071389D01*
X0225780Y0070191D02*
X0211480Y0070191D01*
X0211480Y0068992D02*
X0225780Y0068992D01*
X0225780Y0067794D02*
X0211480Y0067794D01*
X0211480Y0066595D02*
X0225780Y0066595D01*
X0225780Y0065397D02*
X0211480Y0065397D01*
X0211480Y0064198D02*
X0225780Y0064198D01*
X0225780Y0063000D02*
X0211480Y0063000D01*
X0211480Y0061802D02*
X0225780Y0061802D01*
X0225780Y0060603D02*
X0211480Y0060603D01*
X0211480Y0059405D02*
X0225780Y0059405D01*
X0225780Y0058206D02*
X0211480Y0058206D01*
X0211480Y0057008D02*
X0225780Y0057008D01*
X0225780Y0055809D02*
X0211480Y0055809D01*
X0211480Y0054611D02*
X0225780Y0054611D01*
X0225780Y0053413D02*
X0211480Y0053413D01*
X0211480Y0052214D02*
X0225780Y0052214D01*
X0225780Y0051016D02*
X0211480Y0051016D01*
X0211480Y0049817D02*
X0225780Y0049817D01*
X0225780Y0048619D02*
X0211480Y0048619D01*
X0211480Y0047420D02*
X0225780Y0047420D01*
X0225780Y0046222D02*
X0211480Y0046222D01*
X0211480Y0045024D02*
X0225780Y0045024D01*
X0225780Y0043825D02*
X0211480Y0043825D01*
X0211480Y0042627D02*
X0225780Y0042627D01*
X0225780Y0041428D02*
X0211480Y0041428D01*
X0211480Y0040230D02*
X0225780Y0040230D01*
X0225780Y0039031D02*
X0211480Y0039031D01*
X0211480Y0037833D02*
X0225780Y0037833D01*
X0225780Y0036635D02*
X0211480Y0036635D01*
X0211480Y0035436D02*
X0225780Y0035436D01*
X0225780Y0034238D02*
X0211142Y0034238D01*
X0210026Y0033039D02*
X0225780Y0033039D01*
X0225780Y0031841D02*
X0208827Y0031841D01*
X0207629Y0030643D02*
X0225276Y0030643D01*
X0224077Y0029444D02*
X0206430Y0029444D01*
X0205232Y0028246D02*
X0222879Y0028246D01*
X0221680Y0027047D02*
X0204033Y0027047D01*
X0202835Y0025849D02*
X0220482Y0025849D01*
X0219283Y0024650D02*
X0201637Y0024650D01*
X0201000Y0023452D02*
X0218085Y0023452D01*
X0216887Y0022254D02*
X0211672Y0022254D01*
X0211748Y0021055D02*
X0215688Y0021055D01*
X0214490Y0019857D02*
X0211748Y0019857D01*
X0211748Y0018658D02*
X0213291Y0018658D01*
X0212093Y0017460D02*
X0211748Y0017460D01*
X0208565Y0019857D02*
X0207795Y0019857D01*
X0207795Y0021055D02*
X0208565Y0021055D01*
X0208565Y0022254D02*
X0207795Y0022254D01*
X0204688Y0022254D02*
X0201948Y0022254D01*
X0201948Y0021055D02*
X0204612Y0021055D01*
X0204612Y0019857D02*
X0201948Y0019857D01*
X0201948Y0018658D02*
X0204612Y0018658D01*
X0204612Y0017460D02*
X0201948Y0017460D01*
X0194412Y0017460D02*
X0191948Y0017460D01*
X0191948Y0016679D02*
X0191948Y0022504D01*
X0190894Y0023558D01*
X0185466Y0023558D01*
X0184412Y0022504D01*
X0184412Y0016288D01*
X0185466Y0015234D01*
X0186413Y0015234D01*
X0186676Y0014598D01*
X0187407Y0013867D01*
X0189407Y0011867D01*
X0190363Y0011471D01*
X0191397Y0011471D01*
X0212897Y0011471D01*
X0213853Y0011867D01*
X0214584Y0012598D01*
X0229080Y0027094D01*
X0229080Y0010870D01*
X0181809Y0010870D01*
X0182255Y0011316D01*
X0182861Y0012779D01*
X0182861Y0014363D01*
X0182255Y0015826D01*
X0181870Y0016210D01*
X0181948Y0016288D01*
X0181948Y0022504D01*
X0180894Y0023558D01*
X0175466Y0023558D01*
X0170466Y0023558D01*
X0165466Y0023558D01*
X0160466Y0023558D01*
X0160145Y0023558D01*
X0158833Y0024870D01*
X0155833Y0027870D01*
X0153928Y0027870D01*
X0116428Y0027870D01*
X0115080Y0026523D01*
X0113928Y0025370D01*
X0112432Y0025370D01*
X0113333Y0026271D01*
X0114680Y0027618D01*
X0114680Y0034118D01*
X0114680Y0036023D01*
X0112680Y0038023D01*
X0112648Y0038054D01*
X0112648Y0040498D01*
X0112680Y0040529D01*
X0112680Y0045920D01*
X0112029Y0046571D01*
X0112680Y0047222D01*
X0112680Y0051680D01*
X0113555Y0051680D01*
X0114801Y0052196D01*
X0115754Y0053150D01*
X0116270Y0054396D01*
X0116270Y0055745D01*
X0116135Y0056073D01*
X0123833Y0063771D01*
X0124970Y0063771D01*
X0124425Y0063546D01*
X0123305Y0062426D01*
X0122699Y0060963D01*
X0122699Y0059379D01*
X0123305Y0057916D01*
X0124425Y0056796D01*
X0125888Y0056190D01*
X0127472Y0056190D01*
X0128935Y0056796D01*
X0130055Y0057916D01*
X0130661Y0059379D01*
X0130661Y0060963D01*
X0130055Y0062426D01*
X0128935Y0063546D01*
X0128391Y0063771D01*
X0133428Y0063771D01*
X0134970Y0063771D01*
X0134425Y0063546D01*
X0133305Y0062426D01*
X0132699Y0060963D01*
X0132699Y0059379D01*
X0133305Y0057916D01*
X0134425Y0056796D01*
X0135888Y0056190D01*
X0137472Y0056190D01*
X0138935Y0056796D01*
X0140055Y0057916D01*
X0140661Y0059379D01*
X0140661Y0060963D01*
X0140055Y0062426D01*
X0138935Y0063546D01*
X0137472Y0064152D01*
X0135888Y0064152D01*
X0135589Y0064028D01*
X0138333Y0066771D01*
X0139680Y0068118D01*
X0139680Y0068234D01*
X0140466Y0068234D01*
X0145466Y0068234D01*
X0150466Y0068234D01*
X0155466Y0068234D01*
X0160894Y0068234D01*
X0161948Y0069288D01*
X0161948Y0073003D01*
X0161980Y0073079D01*
X0161980Y0074113D01*
X0161980Y0075041D01*
X0162755Y0075816D01*
X0163361Y0077279D01*
X0163361Y0078863D01*
X0162778Y0080271D01*
X0186428Y0080271D01*
X0190304Y0076395D01*
X0189412Y0075504D01*
X0189412Y0069288D01*
X0190466Y0068234D01*
X0195466Y0068234D01*
X0200894Y0068234D01*
X0201948Y0069288D01*
X0201948Y0075504D01*
X0200894Y0076558D01*
X0199180Y0076558D01*
X0199180Y0077523D01*
X0197833Y0078870D01*
X0192232Y0084471D01*
X0200957Y0084471D01*
X0203280Y0082147D01*
X0203280Y0081313D01*
X0202784Y0080816D01*
X0202784Y0075325D01*
X0203838Y0074271D01*
X0206563Y0074271D01*
X0206280Y0073588D01*
X0206280Y0072554D01*
X0206280Y0036648D01*
X0196907Y0027275D01*
X0196176Y0026543D01*
X0195780Y0025588D01*
X0195780Y0023558D01*
X0195466Y0023558D01*
X0194412Y0022504D01*
X0194412Y0016670D01*
X0191957Y0016670D01*
X0191948Y0016679D01*
X0191948Y0018658D02*
X0194412Y0018658D01*
X0194412Y0019857D02*
X0191948Y0019857D01*
X0191948Y0021055D02*
X0194412Y0021055D01*
X0194412Y0022254D02*
X0191948Y0022254D01*
X0191000Y0023452D02*
X0195360Y0023452D01*
X0195780Y0024650D02*
X0159053Y0024650D01*
X0157854Y0025849D02*
X0195889Y0025849D01*
X0196680Y0027047D02*
X0156656Y0027047D01*
X0140055Y0037916D02*
X0140661Y0039379D01*
X0140661Y0040963D01*
X0140055Y0042426D01*
X0138935Y0043546D01*
X0137472Y0044152D01*
X0135888Y0044152D01*
X0134425Y0043546D01*
X0133305Y0042426D01*
X0132699Y0040963D01*
X0132699Y0039379D01*
X0133305Y0037916D01*
X0134425Y0036796D01*
X0135888Y0036190D01*
X0137472Y0036190D01*
X0138935Y0036796D01*
X0140055Y0037916D01*
X0139972Y0037833D02*
X0206280Y0037833D01*
X0206280Y0039031D02*
X0140517Y0039031D01*
X0140661Y0040230D02*
X0206280Y0040230D01*
X0206280Y0041428D02*
X0140469Y0041428D01*
X0139854Y0042627D02*
X0206280Y0042627D01*
X0206280Y0043825D02*
X0138260Y0043825D01*
X0137472Y0046190D02*
X0135888Y0046190D01*
X0134425Y0046796D01*
X0133305Y0047916D01*
X0132699Y0049379D01*
X0132699Y0050963D01*
X0133305Y0052426D01*
X0134425Y0053546D01*
X0135888Y0054152D01*
X0137472Y0054152D01*
X0138935Y0053546D01*
X0140055Y0052426D01*
X0140661Y0050963D01*
X0140661Y0049379D01*
X0140055Y0047916D01*
X0138935Y0046796D01*
X0137472Y0046190D01*
X0137550Y0046222D02*
X0206280Y0046222D01*
X0206280Y0047420D02*
X0139560Y0047420D01*
X0140346Y0048619D02*
X0206280Y0048619D01*
X0206280Y0049817D02*
X0140661Y0049817D01*
X0140639Y0051016D02*
X0206280Y0051016D01*
X0206280Y0052214D02*
X0140143Y0052214D01*
X0139068Y0053413D02*
X0206280Y0053413D01*
X0206280Y0054611D02*
X0116270Y0054611D01*
X0116244Y0055809D02*
X0206280Y0055809D01*
X0206280Y0057008D02*
X0139147Y0057008D01*
X0140175Y0058206D02*
X0206280Y0058206D01*
X0206280Y0059405D02*
X0140661Y0059405D01*
X0140661Y0060603D02*
X0206280Y0060603D01*
X0206280Y0061802D02*
X0140314Y0061802D01*
X0139481Y0063000D02*
X0206280Y0063000D01*
X0206280Y0064198D02*
X0135760Y0064198D01*
X0136958Y0065397D02*
X0206280Y0065397D01*
X0206280Y0066595D02*
X0138157Y0066595D01*
X0139356Y0067794D02*
X0206280Y0067794D01*
X0206280Y0068992D02*
X0201652Y0068992D01*
X0201948Y0070191D02*
X0206280Y0070191D01*
X0206280Y0071389D02*
X0201948Y0071389D01*
X0201948Y0072587D02*
X0206280Y0072587D01*
X0206363Y0073786D02*
X0201948Y0073786D01*
X0201948Y0074984D02*
X0203125Y0074984D01*
X0202784Y0076183D02*
X0201269Y0076183D01*
X0202784Y0077381D02*
X0199180Y0077381D01*
X0198124Y0078580D02*
X0202784Y0078580D01*
X0202784Y0079778D02*
X0196925Y0079778D01*
X0195727Y0080976D02*
X0202944Y0080976D01*
X0203253Y0082175D02*
X0194528Y0082175D01*
X0193330Y0083373D02*
X0202054Y0083373D01*
X0205813Y0086969D02*
X0212175Y0086969D01*
X0212175Y0088167D02*
X0204614Y0088167D01*
X0204238Y0088543D02*
X0204238Y0088543D01*
X0203288Y0089365D02*
X0212175Y0089365D01*
X0212175Y0090564D02*
X0192904Y0090564D01*
X0193148Y0091762D02*
X0212175Y0091762D01*
X0213950Y0094159D02*
X0193148Y0094159D01*
X0193148Y0092961D02*
X0215280Y0092961D01*
X0214119Y0100151D02*
X0192667Y0100151D01*
X0186806Y0102548D02*
X0179114Y0102548D01*
X0178765Y0102548D02*
X0177995Y0102548D01*
X0177647Y0102548D02*
X0169955Y0102548D01*
X0171813Y0101350D02*
X0175230Y0101350D01*
X0174329Y0100151D02*
X0172667Y0100151D01*
X0173148Y0098953D02*
X0173900Y0098953D01*
X0173812Y0097754D02*
X0173148Y0097754D01*
X0173148Y0096556D02*
X0173812Y0096556D01*
X0173148Y0095357D02*
X0177993Y0095357D01*
X0178767Y0095357D02*
X0183612Y0095357D01*
X0183612Y0094159D02*
X0182948Y0094159D01*
X0182948Y0092961D02*
X0183612Y0092961D01*
X0183612Y0091762D02*
X0182948Y0091762D01*
X0182683Y0090564D02*
X0183856Y0090564D01*
X0183612Y0096556D02*
X0182948Y0096556D01*
X0182948Y0097754D02*
X0183612Y0097754D01*
X0183612Y0098953D02*
X0182861Y0098953D01*
X0182431Y0100151D02*
X0184094Y0100151D01*
X0184947Y0101350D02*
X0181530Y0101350D01*
X0178765Y0101350D02*
X0177995Y0101350D01*
X0177995Y0100151D02*
X0178765Y0100151D01*
X0178765Y0098953D02*
X0177995Y0098953D01*
X0177995Y0097754D02*
X0178765Y0097754D01*
X0178765Y0096556D02*
X0177995Y0096556D01*
X0173812Y0094159D02*
X0173148Y0094159D01*
X0173148Y0092961D02*
X0173812Y0092961D01*
X0173812Y0091762D02*
X0173148Y0091762D01*
X0173564Y0090564D02*
X0174076Y0090564D01*
X0169806Y0086969D02*
X0152954Y0086969D01*
X0153820Y0088167D02*
X0165572Y0088167D01*
X0164374Y0089365D02*
X0153980Y0089365D01*
X0153980Y0090564D02*
X0163856Y0090564D01*
X0163612Y0091762D02*
X0153980Y0091762D01*
X0153980Y0092961D02*
X0163612Y0092961D01*
X0163612Y0094159D02*
X0153980Y0094159D01*
X0153980Y0095357D02*
X0163612Y0095357D01*
X0163612Y0096556D02*
X0153980Y0096556D01*
X0153980Y0097754D02*
X0163612Y0097754D01*
X0163612Y0098953D02*
X0153980Y0098953D01*
X0153980Y0100151D02*
X0164094Y0100151D01*
X0164947Y0101350D02*
X0153980Y0101350D01*
X0153889Y0102548D02*
X0166806Y0102548D01*
X0160580Y0116047D02*
X0159353Y0117275D01*
X0158824Y0117493D01*
X0158756Y0117660D01*
X0157470Y0118946D01*
X0155790Y0119642D01*
X0155628Y0119642D01*
X0156353Y0120367D01*
X0157084Y0121098D01*
X0157275Y0121560D01*
X0157589Y0121332D01*
X0158202Y0121019D01*
X0158856Y0120807D01*
X0159536Y0120699D01*
X0159594Y0120699D01*
X0159594Y0124782D01*
X0160166Y0124782D01*
X0160166Y0120699D01*
X0160224Y0120699D01*
X0160904Y0120807D01*
X0161345Y0120950D01*
X0160945Y0120550D01*
X0160221Y0118804D01*
X0160221Y0116913D01*
X0160580Y0116047D01*
X0160221Y0116929D02*
X0159698Y0116929D01*
X0160221Y0118128D02*
X0158288Y0118128D01*
X0156553Y0119326D02*
X0160438Y0119326D01*
X0160934Y0120524D02*
X0156511Y0120524D01*
X0159594Y0121723D02*
X0160166Y0121723D01*
X0160166Y0122921D02*
X0159594Y0122921D01*
X0159594Y0124120D02*
X0160166Y0124120D01*
X0164007Y0126517D02*
X0171722Y0126517D01*
X0163363Y0127715D02*
X0180280Y0127715D01*
X0185480Y0127715D02*
X0194848Y0127715D01*
X0196046Y0128913D02*
X0185480Y0128913D01*
X0185480Y0130112D02*
X0197244Y0130112D01*
X0193649Y0126517D02*
X0185905Y0126517D01*
X0186125Y0125318D02*
X0192451Y0125318D01*
X0191252Y0124120D02*
X0186125Y0124120D01*
X0186125Y0122921D02*
X0190054Y0122921D01*
X0188856Y0121723D02*
X0186125Y0121723D01*
X0186125Y0120524D02*
X0187657Y0120524D01*
X0186459Y0119326D02*
X0186125Y0119326D01*
X0190217Y0115731D02*
X0200835Y0115731D01*
X0200835Y0116929D02*
X0191415Y0116929D01*
X0192614Y0118128D02*
X0207346Y0118128D01*
X0207348Y0116929D02*
X0208546Y0116929D01*
X0208546Y0115731D02*
X0207348Y0115731D01*
X0207348Y0114532D02*
X0208546Y0114532D01*
X0208546Y0113334D02*
X0207348Y0113334D01*
X0207348Y0112135D02*
X0208546Y0112135D01*
X0208546Y0110937D02*
X0207348Y0110937D01*
X0207348Y0109739D02*
X0208546Y0109739D01*
X0214814Y0109739D02*
X0219037Y0109739D01*
X0219037Y0110937D02*
X0215059Y0110937D01*
X0215059Y0112135D02*
X0219037Y0112135D01*
X0219976Y0113334D02*
X0215059Y0113334D01*
X0215059Y0114532D02*
X0229080Y0114532D01*
X0229080Y0113334D02*
X0228784Y0113334D01*
X0229080Y0115731D02*
X0215059Y0115731D01*
X0215059Y0116929D02*
X0229080Y0116929D01*
X0229080Y0118128D02*
X0208548Y0118128D01*
X0215059Y0119326D02*
X0219670Y0119326D01*
X0219037Y0120524D02*
X0215059Y0120524D01*
X0215059Y0121723D02*
X0219037Y0121723D01*
X0219037Y0122921D02*
X0215059Y0122921D01*
X0215059Y0124120D02*
X0219037Y0124120D01*
X0219037Y0125318D02*
X0215059Y0125318D01*
X0200835Y0125318D02*
X0199804Y0125318D01*
X0200835Y0124120D02*
X0198606Y0124120D01*
X0197407Y0122921D02*
X0200835Y0122921D01*
X0200835Y0121723D02*
X0196209Y0121723D01*
X0195011Y0120524D02*
X0200835Y0120524D01*
X0200835Y0119326D02*
X0193812Y0119326D01*
X0189019Y0114532D02*
X0200835Y0114532D01*
X0200835Y0113334D02*
X0186125Y0113334D01*
X0186125Y0112135D02*
X0200835Y0112135D01*
X0200835Y0110937D02*
X0186125Y0110937D01*
X0186019Y0109739D02*
X0201080Y0109739D01*
X0185480Y0131310D02*
X0229080Y0131310D01*
X0229080Y0132509D02*
X0185480Y0132509D01*
X0185480Y0133707D02*
X0229080Y0133707D01*
X0229080Y0134906D02*
X0185480Y0134906D01*
X0186090Y0136104D02*
X0229080Y0136104D01*
X0229080Y0137302D02*
X0193000Y0137302D01*
X0186961Y0137302D02*
X0186876Y0137302D01*
X0157793Y0128913D02*
X0157480Y0128913D01*
X0150135Y0137302D02*
X0149800Y0137302D01*
X0148937Y0136104D02*
X0088006Y0136104D01*
X0088428Y0137302D02*
X0143761Y0137302D01*
X0147738Y0134906D02*
X0087238Y0134906D01*
X0085980Y0133707D02*
X0147280Y0133707D01*
X0147280Y0132509D02*
X0085980Y0132509D01*
X0085980Y0131310D02*
X0147280Y0131310D01*
X0147280Y0130112D02*
X0085980Y0130112D01*
X0085980Y0128913D02*
X0103163Y0128913D01*
X0103163Y0127715D02*
X0093152Y0127715D01*
X0093295Y0126517D02*
X0103163Y0126517D01*
X0103163Y0125318D02*
X0090113Y0125318D01*
X0090111Y0124120D02*
X0089342Y0124120D01*
X0089342Y0122921D02*
X0090111Y0122921D01*
X0090111Y0121723D02*
X0089342Y0121723D01*
X0086947Y0121723D02*
X0086168Y0121723D01*
X0079899Y0121723D02*
X0077506Y0121723D01*
X0078268Y0120524D02*
X0079492Y0120524D01*
X0079284Y0119326D02*
X0078476Y0119326D01*
X0078476Y0118128D02*
X0079284Y0118128D01*
X0079284Y0116929D02*
X0078476Y0116929D01*
X0078476Y0115731D02*
X0079284Y0115731D01*
X0079577Y0114532D02*
X0078183Y0114532D01*
X0079802Y0113334D02*
X0075680Y0113334D01*
X0075680Y0112135D02*
X0079284Y0112135D01*
X0079284Y0110937D02*
X0075680Y0110937D01*
X0075680Y0109739D02*
X0079284Y0109739D01*
X0079280Y0108540D02*
X0075680Y0108540D01*
X0075680Y0107342D02*
X0079280Y0107342D01*
X0079280Y0106143D02*
X0075205Y0106143D01*
X0074006Y0104945D02*
X0079280Y0104945D01*
X0079280Y0103746D02*
X0076033Y0103746D01*
X0076648Y0102548D02*
X0079280Y0102548D01*
X0092959Y0113334D02*
X0103961Y0113334D01*
X0103163Y0114532D02*
X0093183Y0114532D01*
X0093476Y0115731D02*
X0103163Y0115731D01*
X0103163Y0116929D02*
X0093476Y0116929D01*
X0093476Y0118128D02*
X0103163Y0118128D01*
X0103163Y0119326D02*
X0093476Y0119326D01*
X0093268Y0120524D02*
X0103163Y0120524D01*
X0103163Y0121723D02*
X0092506Y0121723D01*
X0093295Y0122921D02*
X0103163Y0122921D01*
X0103163Y0124120D02*
X0093295Y0124120D01*
X0090111Y0126517D02*
X0089342Y0126517D01*
X0089342Y0127715D02*
X0090111Y0127715D01*
X0080780Y0128913D02*
X0072899Y0128913D01*
X0074098Y0130112D02*
X0080780Y0130112D01*
X0080780Y0131310D02*
X0075296Y0131310D01*
X0076254Y0132509D02*
X0080780Y0132509D01*
X0080780Y0133707D02*
X0076480Y0133707D01*
X0077395Y0134906D02*
X0080081Y0134906D01*
X0079313Y0136104D02*
X0078163Y0136104D01*
X0078585Y0137302D02*
X0078891Y0137302D01*
X0078891Y0138501D02*
X0078585Y0138501D01*
X0078304Y0139699D02*
X0079173Y0139699D01*
X0079743Y0140898D02*
X0077733Y0140898D01*
X0076535Y0142096D02*
X0080942Y0142096D01*
X0086378Y0142096D02*
X0112899Y0142096D01*
X0112403Y0143294D02*
X0099346Y0143294D01*
X0099448Y0143337D02*
X0101228Y0145117D01*
X0102192Y0147442D01*
X0102192Y0149959D01*
X0101228Y0152285D01*
X0099448Y0154065D01*
X0097123Y0155028D01*
X0094606Y0155028D01*
X0092280Y0154065D01*
X0090500Y0152285D01*
X0089537Y0149959D01*
X0089537Y0147442D01*
X0090500Y0145117D01*
X0092280Y0143337D01*
X0094606Y0142373D01*
X0097123Y0142373D01*
X0099448Y0143337D01*
X0100605Y0144493D02*
X0111907Y0144493D01*
X0111856Y0145691D02*
X0101466Y0145691D01*
X0101963Y0146890D02*
X0111856Y0146890D01*
X0112089Y0148088D02*
X0102192Y0148088D01*
X0102192Y0149287D02*
X0112585Y0149287D01*
X0113241Y0150485D02*
X0101974Y0150485D01*
X0101478Y0151683D02*
X0114440Y0151683D01*
X0116505Y0152882D02*
X0100631Y0152882D01*
X0099411Y0154080D02*
X0148402Y0154080D01*
X0147380Y0152882D02*
X0121830Y0152882D01*
X0123895Y0151683D02*
X0147380Y0151683D01*
X0147380Y0150485D02*
X0125094Y0150485D01*
X0125750Y0149287D02*
X0147380Y0149287D01*
X0150146Y0144493D02*
X0154215Y0144493D01*
X0153016Y0143294D02*
X0151344Y0143294D01*
X0151580Y0142096D02*
X0152780Y0142096D01*
X0152780Y0140898D02*
X0151580Y0140898D01*
X0151580Y0139699D02*
X0152532Y0139699D01*
X0151333Y0138501D02*
X0150998Y0138501D01*
X0147258Y0128913D02*
X0134322Y0128913D01*
X0134322Y0127715D02*
X0146060Y0127715D01*
X0141604Y0122471D02*
X0137676Y0118543D01*
X0137280Y0117588D01*
X0137280Y0116554D01*
X0137280Y0112554D01*
X0137676Y0111598D01*
X0138407Y0110867D01*
X0139280Y0109994D01*
X0139280Y0105811D01*
X0138872Y0105403D01*
X0138872Y0098400D01*
X0139926Y0097346D01*
X0143551Y0097346D01*
X0143429Y0097276D01*
X0143131Y0096978D01*
X0142921Y0096613D01*
X0142812Y0096207D01*
X0142812Y0093624D01*
X0145993Y0093624D01*
X0145993Y0092855D01*
X0142812Y0092855D01*
X0142812Y0090273D01*
X0142840Y0090170D01*
X0137959Y0090170D01*
X0137959Y0093367D01*
X0136905Y0094422D01*
X0128706Y0094422D01*
X0126400Y0096728D01*
X0136905Y0096728D01*
X0137959Y0097782D01*
X0137959Y0103210D01*
X0136905Y0104264D01*
X0132980Y0104264D01*
X0132980Y0113078D01*
X0133267Y0113078D01*
X0134322Y0114132D01*
X0134322Y0122471D01*
X0141604Y0122471D01*
X0140856Y0121723D02*
X0134322Y0121723D01*
X0134322Y0120524D02*
X0139657Y0120524D01*
X0138459Y0119326D02*
X0134322Y0119326D01*
X0134322Y0118128D02*
X0137504Y0118128D01*
X0137280Y0116929D02*
X0134322Y0116929D01*
X0134322Y0115731D02*
X0137280Y0115731D01*
X0137280Y0114532D02*
X0134322Y0114532D01*
X0133523Y0113334D02*
X0137280Y0113334D01*
X0137453Y0112135D02*
X0132980Y0112135D01*
X0132980Y0110937D02*
X0138337Y0110937D01*
X0139280Y0109739D02*
X0132980Y0109739D01*
X0132980Y0108540D02*
X0139280Y0108540D01*
X0139280Y0107342D02*
X0132980Y0107342D01*
X0132980Y0106143D02*
X0139280Y0106143D01*
X0138872Y0104945D02*
X0132980Y0104945D01*
X0137423Y0103746D02*
X0138872Y0103746D01*
X0138872Y0102548D02*
X0137959Y0102548D01*
X0137959Y0101350D02*
X0138872Y0101350D01*
X0138872Y0100151D02*
X0137959Y0100151D01*
X0137959Y0098953D02*
X0138872Y0098953D01*
X0139517Y0097754D02*
X0137932Y0097754D01*
X0137168Y0094159D02*
X0142812Y0094159D01*
X0142812Y0095357D02*
X0127770Y0095357D01*
X0126572Y0096556D02*
X0142906Y0096556D01*
X0145604Y0097596D02*
X0146380Y0098372D01*
X0147157Y0097596D01*
X0146765Y0097596D01*
X0146765Y0093627D01*
X0145995Y0093627D01*
X0145995Y0097596D01*
X0145604Y0097596D01*
X0145762Y0097754D02*
X0146998Y0097754D01*
X0146765Y0096556D02*
X0145995Y0096556D01*
X0145995Y0095357D02*
X0146765Y0095357D01*
X0146765Y0094159D02*
X0145995Y0094159D01*
X0145993Y0092961D02*
X0137959Y0092961D01*
X0137959Y0091762D02*
X0142812Y0091762D01*
X0142812Y0090564D02*
X0137959Y0090564D01*
X0124517Y0090564D02*
X0123639Y0090564D01*
X0124012Y0091762D02*
X0122441Y0091762D01*
X0122813Y0092961D02*
X0121243Y0092961D01*
X0121615Y0094159D02*
X0120044Y0094159D01*
X0120861Y0095357D02*
X0118846Y0095357D01*
X0117647Y0096556D02*
X0120780Y0096556D01*
X0120780Y0097754D02*
X0116449Y0097754D01*
X0115250Y0098953D02*
X0120780Y0098953D01*
X0120780Y0100151D02*
X0114052Y0100151D01*
X0112854Y0101350D02*
X0120780Y0101350D01*
X0120780Y0102548D02*
X0108038Y0102548D01*
X0107502Y0103746D02*
X0120028Y0103746D01*
X0123786Y0107342D02*
X0127780Y0107342D01*
X0127780Y0108540D02*
X0122587Y0108540D01*
X0121389Y0109739D02*
X0127780Y0109739D01*
X0127780Y0110937D02*
X0120191Y0110937D01*
X0118992Y0112135D02*
X0127780Y0112135D01*
X0124040Y0113334D02*
X0117794Y0113334D01*
X0116595Y0114532D02*
X0123242Y0114532D01*
X0124984Y0106143D02*
X0127780Y0106143D01*
X0127780Y0104945D02*
X0125832Y0104945D01*
X0162982Y0079778D02*
X0186920Y0079778D01*
X0188119Y0078580D02*
X0163361Y0078580D01*
X0163361Y0077381D02*
X0189317Y0077381D01*
X0190091Y0076183D02*
X0162907Y0076183D01*
X0161980Y0074984D02*
X0189412Y0074984D01*
X0189412Y0073786D02*
X0161980Y0073786D01*
X0161948Y0072587D02*
X0189412Y0072587D01*
X0189412Y0071389D02*
X0161948Y0071389D01*
X0161948Y0070191D02*
X0189412Y0070191D01*
X0189708Y0068992D02*
X0161652Y0068992D01*
X0134292Y0053413D02*
X0129068Y0053413D01*
X0128935Y0053546D02*
X0127472Y0054152D01*
X0125888Y0054152D01*
X0124425Y0053546D01*
X0123305Y0052426D01*
X0122699Y0050963D01*
X0122699Y0049379D01*
X0123305Y0047916D01*
X0124425Y0046796D01*
X0125888Y0046190D01*
X0127472Y0046190D01*
X0128935Y0046796D01*
X0130055Y0047916D01*
X0130661Y0049379D01*
X0130661Y0050963D01*
X0130055Y0052426D01*
X0128935Y0053546D01*
X0130143Y0052214D02*
X0133218Y0052214D01*
X0132721Y0051016D02*
X0130639Y0051016D01*
X0130661Y0049817D02*
X0132699Y0049817D01*
X0133014Y0048619D02*
X0130346Y0048619D01*
X0129560Y0047420D02*
X0133800Y0047420D01*
X0135810Y0046222D02*
X0127550Y0046222D01*
X0125810Y0046222D02*
X0112378Y0046222D01*
X0112680Y0047420D02*
X0123800Y0047420D01*
X0123014Y0048619D02*
X0112680Y0048619D01*
X0112680Y0049817D02*
X0122699Y0049817D01*
X0122721Y0051016D02*
X0112680Y0051016D01*
X0114819Y0052214D02*
X0123218Y0052214D01*
X0124292Y0053413D02*
X0115863Y0053413D01*
X0117070Y0057008D02*
X0124213Y0057008D01*
X0123185Y0058206D02*
X0118268Y0058206D01*
X0119467Y0059405D02*
X0122699Y0059405D01*
X0122699Y0060603D02*
X0120665Y0060603D01*
X0121863Y0061802D02*
X0123047Y0061802D01*
X0123062Y0063000D02*
X0123880Y0063000D01*
X0129147Y0057008D02*
X0134213Y0057008D01*
X0133185Y0058206D02*
X0130175Y0058206D01*
X0130661Y0059405D02*
X0132699Y0059405D01*
X0132699Y0060603D02*
X0130661Y0060603D01*
X0130314Y0061802D02*
X0133047Y0061802D01*
X0133880Y0063000D02*
X0129481Y0063000D01*
X0117748Y0070191D02*
X0115180Y0070191D01*
X0115180Y0068992D02*
X0116550Y0068992D01*
X0115351Y0067794D02*
X0115180Y0067794D01*
X0101518Y0048596D02*
X0097068Y0048596D01*
X0097068Y0049058D01*
X0094984Y0049058D01*
X0093687Y0049058D01*
X0093754Y0048991D01*
X0094270Y0047745D01*
X0094270Y0046396D01*
X0093754Y0045150D01*
X0093180Y0044576D01*
X0093180Y0037023D01*
X0095333Y0034870D01*
X0097068Y0034870D01*
X0097068Y0035994D01*
X0101518Y0035994D01*
X0101518Y0035998D01*
X0097068Y0035998D01*
X0097068Y0037191D01*
X0097073Y0037211D01*
X0096868Y0037416D01*
X0096868Y0040875D01*
X0097073Y0041080D01*
X0097068Y0041100D01*
X0097068Y0042293D01*
X0101518Y0042293D01*
X0101518Y0042297D01*
X0097068Y0042297D01*
X0097068Y0043490D01*
X0097073Y0043510D01*
X0096868Y0043715D01*
X0096868Y0047174D01*
X0097073Y0047380D01*
X0097068Y0047399D01*
X0097068Y0048592D01*
X0101518Y0048592D01*
X0101518Y0048596D01*
X0097068Y0048619D02*
X0093909Y0048619D01*
X0094270Y0047420D02*
X0097068Y0047420D01*
X0096868Y0046222D02*
X0094198Y0046222D01*
X0093628Y0045024D02*
X0096868Y0045024D01*
X0096868Y0043825D02*
X0093180Y0043825D01*
X0093180Y0042627D02*
X0097068Y0042627D01*
X0097068Y0041428D02*
X0093180Y0041428D01*
X0093180Y0040230D02*
X0096868Y0040230D01*
X0096868Y0039031D02*
X0093180Y0039031D01*
X0093180Y0037833D02*
X0096868Y0037833D01*
X0097068Y0036635D02*
X0093569Y0036635D01*
X0094767Y0035436D02*
X0097068Y0035436D01*
X0101526Y0035994D02*
X0105112Y0035994D01*
X0105112Y0035998D01*
X0101526Y0035998D01*
X0101526Y0035994D01*
X0106176Y0032109D02*
X0108493Y0032109D01*
X0108493Y0031339D01*
X0106176Y0031339D01*
X0106176Y0032109D01*
X0106176Y0031841D02*
X0108493Y0031841D01*
X0114680Y0031841D02*
X0201474Y0031841D01*
X0202672Y0033039D02*
X0114680Y0033039D01*
X0114680Y0034238D02*
X0203870Y0034238D01*
X0205069Y0035436D02*
X0114680Y0035436D01*
X0114069Y0036635D02*
X0124814Y0036635D01*
X0124425Y0036796D02*
X0125888Y0036190D01*
X0127472Y0036190D01*
X0128935Y0036796D01*
X0130055Y0037916D01*
X0130661Y0039379D01*
X0130661Y0040963D01*
X0130055Y0042426D01*
X0128935Y0043546D01*
X0127472Y0044152D01*
X0125888Y0044152D01*
X0124425Y0043546D01*
X0123305Y0042426D01*
X0122699Y0040963D01*
X0122699Y0039379D01*
X0123305Y0037916D01*
X0124425Y0036796D01*
X0123388Y0037833D02*
X0112870Y0037833D01*
X0112648Y0039031D02*
X0122843Y0039031D01*
X0122699Y0040230D02*
X0112648Y0040230D01*
X0112680Y0041428D02*
X0122892Y0041428D01*
X0123506Y0042627D02*
X0112680Y0042627D01*
X0112680Y0043825D02*
X0125100Y0043825D01*
X0128260Y0043825D02*
X0135100Y0043825D01*
X0133506Y0042627D02*
X0129854Y0042627D01*
X0130469Y0041428D02*
X0132892Y0041428D01*
X0132699Y0040230D02*
X0130661Y0040230D01*
X0130517Y0039031D02*
X0132843Y0039031D01*
X0133388Y0037833D02*
X0129972Y0037833D01*
X0128546Y0036635D02*
X0134814Y0036635D01*
X0138546Y0036635D02*
X0206267Y0036635D01*
X0200275Y0030643D02*
X0114680Y0030643D01*
X0114680Y0029444D02*
X0199077Y0029444D01*
X0197878Y0028246D02*
X0114680Y0028246D01*
X0114109Y0027047D02*
X0115604Y0027047D01*
X0114406Y0025849D02*
X0112910Y0025849D01*
X0103497Y0023763D02*
X0103490Y0023745D01*
X0103490Y0022961D01*
X0102206Y0022961D01*
X0100959Y0022445D01*
X0100006Y0021491D01*
X0099490Y0020245D01*
X0099490Y0018896D01*
X0099804Y0018139D01*
X0098927Y0018139D01*
X0098988Y0018364D01*
X0098988Y0021427D01*
X0096408Y0021427D01*
X0096408Y0021431D01*
X0098988Y0021431D01*
X0098988Y0023763D01*
X0103497Y0023763D01*
X0103490Y0023452D02*
X0098988Y0023452D01*
X0098988Y0022254D02*
X0100768Y0022254D01*
X0099826Y0021055D02*
X0098988Y0021055D01*
X0098988Y0019857D02*
X0099490Y0019857D01*
X0099588Y0018658D02*
X0098988Y0018658D01*
X0100613Y0014955D02*
X0103795Y0014955D01*
X0103795Y0016280D01*
X0104801Y0016696D01*
X0105375Y0017271D01*
X0124928Y0017271D01*
X0126833Y0017271D01*
X0129412Y0019850D01*
X0129412Y0016288D01*
X0129440Y0016260D01*
X0129005Y0015826D01*
X0128399Y0014363D01*
X0128399Y0012779D01*
X0129005Y0011316D01*
X0129451Y0010870D01*
X0096315Y0010870D01*
X0097021Y0011576D01*
X0097276Y0011322D01*
X0097641Y0011111D01*
X0098047Y0011002D01*
X0099842Y0011002D01*
X0099842Y0014184D01*
X0100611Y0014184D01*
X0100611Y0011002D01*
X0102406Y0011002D01*
X0102813Y0011111D01*
X0103178Y0011322D01*
X0103475Y0011620D01*
X0103686Y0011985D01*
X0103795Y0012391D01*
X0103795Y0014186D01*
X0100613Y0014186D01*
X0100613Y0014955D01*
X0100611Y0013865D02*
X0099842Y0013865D01*
X0099842Y0012666D02*
X0100611Y0012666D01*
X0100611Y0011468D02*
X0099842Y0011468D01*
X0097130Y0011468D02*
X0096913Y0011468D01*
X0090752Y0010870D02*
X0083432Y0010870D01*
X0087832Y0015271D01*
X0087833Y0015271D01*
X0089180Y0016618D01*
X0089180Y0016975D01*
X0089765Y0016975D01*
X0089765Y0011857D01*
X0090752Y0010870D01*
X0090154Y0011468D02*
X0084029Y0011468D01*
X0085228Y0012666D02*
X0089765Y0012666D01*
X0089765Y0013865D02*
X0086426Y0013865D01*
X0087624Y0015063D02*
X0089765Y0015063D01*
X0089765Y0016261D02*
X0088823Y0016261D01*
X0090102Y0017621D02*
X0090102Y0021425D01*
X0090106Y0021425D01*
X0090106Y0017625D01*
X0090102Y0017621D01*
X0090102Y0018658D02*
X0090106Y0018658D01*
X0090102Y0019857D02*
X0090106Y0019857D01*
X0090102Y0021055D02*
X0090106Y0021055D01*
X0103795Y0016261D02*
X0129439Y0016261D01*
X0129412Y0017460D02*
X0127021Y0017460D01*
X0128220Y0018658D02*
X0129412Y0018658D01*
X0128689Y0015063D02*
X0103795Y0015063D01*
X0103795Y0013865D02*
X0128399Y0013865D01*
X0128446Y0012666D02*
X0103795Y0012666D01*
X0103323Y0011468D02*
X0128942Y0011468D01*
X0112680Y0045024D02*
X0206280Y0045024D01*
X0226636Y0024650D02*
X0229080Y0024650D01*
X0229080Y0023452D02*
X0225438Y0023452D01*
X0224239Y0022254D02*
X0229080Y0022254D01*
X0229080Y0021055D02*
X0223041Y0021055D01*
X0221843Y0019857D02*
X0229080Y0019857D01*
X0229080Y0018658D02*
X0220644Y0018658D01*
X0219446Y0017460D02*
X0229080Y0017460D01*
X0229080Y0016261D02*
X0218247Y0016261D01*
X0217049Y0015063D02*
X0229080Y0015063D01*
X0229080Y0013865D02*
X0215850Y0013865D01*
X0214652Y0012666D02*
X0229080Y0012666D01*
X0229080Y0011468D02*
X0182318Y0011468D01*
X0182814Y0012666D02*
X0188608Y0012666D01*
X0187409Y0013865D02*
X0182861Y0013865D01*
X0182571Y0015063D02*
X0186483Y0015063D01*
X0184439Y0016261D02*
X0181921Y0016261D01*
X0181948Y0017460D02*
X0184412Y0017460D01*
X0184412Y0018658D02*
X0181948Y0018658D01*
X0181948Y0019857D02*
X0184412Y0019857D01*
X0184412Y0021055D02*
X0181948Y0021055D01*
X0181948Y0022254D02*
X0184412Y0022254D01*
X0185360Y0023452D02*
X0181000Y0023452D01*
X0227835Y0025849D02*
X0229080Y0025849D01*
X0229033Y0027047D02*
X0229080Y0027047D01*
X0225780Y0082175D02*
X0208480Y0082175D01*
X0208480Y0083373D02*
X0213174Y0083373D01*
X0212175Y0084572D02*
X0208136Y0084572D01*
X0207011Y0085770D02*
X0212175Y0085770D01*
X0229080Y0157676D02*
X0037680Y0157676D01*
X0037680Y0158874D02*
X0229080Y0158874D01*
X0114000Y0140898D02*
X0087576Y0140898D01*
X0091124Y0144493D02*
X0049030Y0144493D01*
X0049654Y0145117D02*
X0050617Y0147442D01*
X0050617Y0149959D01*
X0049654Y0152285D01*
X0047874Y0154065D01*
X0045548Y0155028D01*
X0043031Y0155028D01*
X0040706Y0154065D01*
X0038926Y0152285D01*
X0037962Y0149959D01*
X0037962Y0147442D01*
X0038926Y0145117D01*
X0040706Y0143337D01*
X0043031Y0142373D01*
X0045548Y0142373D01*
X0047874Y0143337D01*
X0049654Y0145117D01*
X0049891Y0145691D02*
X0090262Y0145691D01*
X0089765Y0146890D02*
X0050388Y0146890D01*
X0050617Y0148088D02*
X0089537Y0148088D01*
X0089537Y0149287D02*
X0050617Y0149287D01*
X0050399Y0150485D02*
X0089755Y0150485D01*
X0090252Y0151683D02*
X0049903Y0151683D01*
X0049056Y0152882D02*
X0091098Y0152882D01*
X0092319Y0154080D02*
X0047836Y0154080D01*
X0040744Y0154080D02*
X0037680Y0154080D01*
X0037680Y0152882D02*
X0039523Y0152882D01*
X0038677Y0151683D02*
X0037680Y0151683D01*
X0037680Y0150485D02*
X0038180Y0150485D01*
X0037962Y0149287D02*
X0037680Y0149287D01*
X0037680Y0148088D02*
X0037962Y0148088D01*
X0038191Y0146890D02*
X0037680Y0146890D01*
X0037680Y0145691D02*
X0038687Y0145691D01*
X0039549Y0144493D02*
X0037680Y0144493D01*
X0037680Y0143294D02*
X0040807Y0143294D01*
X0037680Y0142096D02*
X0053938Y0142096D01*
X0053706Y0141978D02*
X0053124Y0141555D01*
X0052616Y0141047D01*
X0052193Y0140465D01*
X0051867Y0139824D01*
X0051645Y0139141D01*
X0051536Y0138455D01*
X0055714Y0138455D01*
X0055714Y0137686D01*
X0051536Y0137686D01*
X0051645Y0137001D01*
X0051867Y0136317D01*
X0052193Y0135676D01*
X0052616Y0135094D01*
X0053124Y0134586D01*
X0053706Y0134163D01*
X0054347Y0133837D01*
X0055031Y0133615D01*
X0055716Y0133506D01*
X0055716Y0137684D01*
X0056485Y0137684D01*
X0056485Y0133506D01*
X0057170Y0133615D01*
X0057854Y0133837D01*
X0058495Y0134163D01*
X0059077Y0134586D01*
X0059585Y0135094D01*
X0060008Y0135676D01*
X0060334Y0136317D01*
X0060556Y0137001D01*
X0060665Y0137686D01*
X0056487Y0137686D01*
X0056487Y0138455D01*
X0060665Y0138455D01*
X0060556Y0139141D01*
X0060334Y0139824D01*
X0060008Y0140465D01*
X0059585Y0141047D01*
X0059077Y0141555D01*
X0058495Y0141978D01*
X0057854Y0142304D01*
X0057170Y0142526D01*
X0056485Y0142635D01*
X0056485Y0138457D01*
X0055716Y0138457D01*
X0055716Y0142635D01*
X0055031Y0142526D01*
X0054347Y0142304D01*
X0053706Y0141978D01*
X0052508Y0140898D02*
X0037680Y0140898D01*
X0037680Y0139699D02*
X0051826Y0139699D01*
X0051544Y0138501D02*
X0037680Y0138501D01*
X0037680Y0137302D02*
X0051597Y0137302D01*
X0051975Y0136104D02*
X0037680Y0136104D01*
X0037680Y0134906D02*
X0052805Y0134906D01*
X0054747Y0133707D02*
X0037680Y0133707D01*
X0037680Y0132509D02*
X0060142Y0132509D01*
X0061340Y0133707D02*
X0057454Y0133707D01*
X0056485Y0133707D02*
X0055716Y0133707D01*
X0055716Y0134906D02*
X0056485Y0134906D01*
X0056485Y0136104D02*
X0055716Y0136104D01*
X0055716Y0137302D02*
X0056485Y0137302D01*
X0056485Y0138501D02*
X0055716Y0138501D01*
X0055716Y0139699D02*
X0056485Y0139699D01*
X0056485Y0140898D02*
X0055716Y0140898D01*
X0055716Y0142096D02*
X0056485Y0142096D01*
X0058263Y0142096D02*
X0063225Y0142096D01*
X0062027Y0140898D02*
X0059694Y0140898D01*
X0060375Y0139699D02*
X0061457Y0139699D01*
X0061175Y0138501D02*
X0060657Y0138501D01*
X0060604Y0137302D02*
X0061175Y0137302D01*
X0061596Y0136104D02*
X0060226Y0136104D01*
X0059396Y0134906D02*
X0062365Y0134906D01*
X0058943Y0131310D02*
X0037680Y0131310D01*
X0037680Y0130112D02*
X0057744Y0130112D01*
X0057280Y0128913D02*
X0037680Y0128913D01*
X0037680Y0127715D02*
X0049608Y0127715D01*
X0049465Y0126517D02*
X0037680Y0126517D01*
X0037680Y0125318D02*
X0052647Y0125318D01*
X0052649Y0124120D02*
X0053418Y0124120D01*
X0053418Y0122921D02*
X0052649Y0122921D01*
X0052649Y0121723D02*
X0053418Y0121723D01*
X0055813Y0121723D02*
X0056593Y0121723D01*
X0053418Y0126517D02*
X0052649Y0126517D01*
X0052649Y0127715D02*
X0053418Y0127715D01*
X0049465Y0124120D02*
X0037680Y0124120D01*
X0037680Y0122921D02*
X0049465Y0122921D01*
X0050254Y0121723D02*
X0037680Y0121723D01*
X0037680Y0120524D02*
X0049492Y0120524D01*
X0049284Y0119326D02*
X0037680Y0119326D01*
X0037680Y0118128D02*
X0049284Y0118128D01*
X0049284Y0116929D02*
X0037680Y0116929D01*
X0037680Y0115731D02*
X0049284Y0115731D01*
X0049577Y0114532D02*
X0037680Y0114532D01*
X0037680Y0113334D02*
X0053865Y0113334D01*
X0055063Y0112135D02*
X0037680Y0112135D01*
X0037680Y0110937D02*
X0056262Y0110937D01*
X0057460Y0109739D02*
X0037680Y0109739D01*
X0037680Y0108540D02*
X0042597Y0108540D01*
X0041580Y0107342D02*
X0037680Y0107342D01*
X0037680Y0106143D02*
X0041580Y0106143D01*
X0041580Y0104945D02*
X0037680Y0104945D01*
X0037680Y0103746D02*
X0041580Y0103746D01*
X0041580Y0102548D02*
X0037680Y0102548D01*
X0037680Y0101350D02*
X0041580Y0101350D01*
X0041580Y0100151D02*
X0037680Y0100151D01*
X0037680Y0098953D02*
X0041580Y0098953D01*
X0041580Y0097754D02*
X0037680Y0097754D01*
X0037680Y0096556D02*
X0041580Y0096556D01*
X0041580Y0095357D02*
X0037680Y0095357D01*
X0037680Y0094159D02*
X0041580Y0094159D01*
X0041580Y0092961D02*
X0037680Y0092961D01*
X0037680Y0091762D02*
X0041580Y0091762D01*
X0041479Y0090564D02*
X0040281Y0090564D01*
X0040281Y0089365D02*
X0041479Y0089365D01*
X0041479Y0088167D02*
X0040281Y0088167D01*
X0041481Y0088016D02*
X0041481Y0086818D01*
X0041580Y0086818D01*
X0041580Y0088016D01*
X0041481Y0088016D01*
X0041481Y0086969D02*
X0041580Y0086969D01*
X0038112Y0076365D02*
X0038112Y0071703D01*
X0038886Y0070930D01*
X0038631Y0070675D01*
X0038421Y0070310D01*
X0038312Y0069904D01*
X0038312Y0068109D01*
X0041493Y0068109D01*
X0041493Y0067339D01*
X0038312Y0067339D01*
X0038312Y0065545D01*
X0038421Y0065138D01*
X0038631Y0064773D01*
X0038929Y0064476D01*
X0039294Y0064265D01*
X0039701Y0064156D01*
X0041160Y0064156D01*
X0040990Y0063745D01*
X0040990Y0062396D01*
X0041506Y0061150D01*
X0041580Y0061076D01*
X0041580Y0057672D01*
X0040434Y0057672D01*
X0040434Y0061623D01*
X0038264Y0061623D01*
X0037857Y0061514D01*
X0037680Y0061411D01*
X0037680Y0076365D01*
X0038112Y0076365D01*
X0038112Y0076183D02*
X0037680Y0076183D01*
X0037680Y0074984D02*
X0038112Y0074984D01*
X0038112Y0073786D02*
X0037680Y0073786D01*
X0037680Y0072587D02*
X0038112Y0072587D01*
X0038426Y0071389D02*
X0037680Y0071389D01*
X0037680Y0070191D02*
X0038389Y0070191D01*
X0038312Y0068992D02*
X0037680Y0068992D01*
X0037680Y0067794D02*
X0041493Y0067794D01*
X0038312Y0066595D02*
X0037680Y0066595D01*
X0037680Y0065397D02*
X0038351Y0065397D01*
X0037680Y0064198D02*
X0039542Y0064198D01*
X0040990Y0063000D02*
X0037680Y0063000D01*
X0037680Y0061802D02*
X0041236Y0061802D01*
X0041580Y0060603D02*
X0040434Y0060603D01*
X0040434Y0059405D02*
X0041580Y0059405D01*
X0041580Y0058206D02*
X0040434Y0058206D01*
X0040434Y0056469D02*
X0041580Y0056469D01*
X0041580Y0056118D01*
X0041633Y0056066D01*
X0041633Y0052518D01*
X0043804Y0052518D01*
X0044134Y0052607D01*
X0044422Y0052318D01*
X0050804Y0052318D01*
X0050820Y0052302D01*
X0056248Y0052302D01*
X0057021Y0053076D01*
X0057276Y0052822D01*
X0057641Y0052611D01*
X0058047Y0052502D01*
X0059842Y0052502D01*
X0059842Y0054771D01*
X0060611Y0054771D01*
X0060611Y0052502D01*
X0062406Y0052502D01*
X0062813Y0052611D01*
X0063178Y0052822D01*
X0063475Y0053120D01*
X0063686Y0053485D01*
X0063795Y0053891D01*
X0063795Y0054771D01*
X0065328Y0054771D01*
X0060928Y0050370D01*
X0059580Y0049023D01*
X0059580Y0042185D01*
X0058666Y0042185D01*
X0057612Y0041131D01*
X0057612Y0038555D01*
X0057080Y0038023D01*
X0055580Y0036523D01*
X0055580Y0036081D01*
X0052096Y0036081D01*
X0052096Y0037280D01*
X0055653Y0037280D01*
X0055653Y0040041D01*
X0055544Y0040448D01*
X0055333Y0040813D01*
X0055036Y0041111D01*
X0054671Y0041321D01*
X0054264Y0041430D01*
X0052654Y0041430D01*
X0052686Y0041485D01*
X0052795Y0041891D01*
X0052795Y0043686D01*
X0049613Y0043686D01*
X0049613Y0044455D01*
X0052795Y0044455D01*
X0052795Y0046250D01*
X0052686Y0046657D01*
X0052475Y0047022D01*
X0052178Y0047319D01*
X0051813Y0047530D01*
X0051406Y0047639D01*
X0049611Y0047639D01*
X0049611Y0044457D01*
X0048842Y0044457D01*
X0048842Y0047639D01*
X0047047Y0047639D01*
X0046641Y0047530D01*
X0046276Y0047319D01*
X0046021Y0047065D01*
X0045248Y0047839D01*
X0039820Y0047839D01*
X0038765Y0046785D01*
X0038765Y0041357D01*
X0038813Y0041309D01*
X0038080Y0040576D01*
X0038080Y0032786D01*
X0039135Y0031731D01*
X0042967Y0031731D01*
X0044580Y0030118D01*
X0045928Y0028771D01*
X0049428Y0028771D01*
X0051529Y0026670D01*
X0048190Y0026670D01*
X0047135Y0025615D01*
X0047135Y0018462D01*
X0046739Y0018065D01*
X0046565Y0018239D01*
X0046598Y0018360D01*
X0046598Y0021121D01*
X0043041Y0021121D01*
X0043041Y0022319D01*
X0046598Y0022319D01*
X0046598Y0025081D01*
X0046489Y0025487D01*
X0046278Y0025852D01*
X0045981Y0026150D01*
X0045616Y0026361D01*
X0045209Y0026470D01*
X0043038Y0026470D01*
X0043038Y0022322D01*
X0041840Y0022322D01*
X0041840Y0026470D01*
X0039669Y0026470D01*
X0039263Y0026361D01*
X0038898Y0026150D01*
X0038600Y0025852D01*
X0038389Y0025487D01*
X0038280Y0025081D01*
X0038280Y0022319D01*
X0041838Y0022319D01*
X0041838Y0021121D01*
X0038280Y0021121D01*
X0038280Y0018360D01*
X0038389Y0017953D01*
X0038600Y0017588D01*
X0038898Y0017291D01*
X0039263Y0017080D01*
X0039669Y0016971D01*
X0039965Y0016971D01*
X0039965Y0015455D01*
X0043147Y0015455D01*
X0043147Y0014686D01*
X0039965Y0014686D01*
X0039965Y0012891D01*
X0040074Y0012485D01*
X0040285Y0012120D01*
X0040583Y0011822D01*
X0040948Y0011611D01*
X0041354Y0011502D01*
X0043149Y0011502D01*
X0043149Y0014684D01*
X0043918Y0014684D01*
X0043918Y0011502D01*
X0045713Y0011502D01*
X0046120Y0011611D01*
X0046485Y0011822D01*
X0046739Y0012076D01*
X0047513Y0011302D01*
X0052941Y0011302D01*
X0053995Y0012357D01*
X0053995Y0014204D01*
X0057328Y0010870D01*
X0037680Y0010870D01*
X0037680Y0052730D01*
X0037857Y0052627D01*
X0038264Y0052518D01*
X0040434Y0052518D01*
X0040434Y0056469D01*
X0040434Y0055809D02*
X0041633Y0055809D01*
X0041633Y0054611D02*
X0040434Y0054611D01*
X0040434Y0053413D02*
X0041633Y0053413D01*
X0037680Y0052214D02*
X0062772Y0052214D01*
X0063644Y0053413D02*
X0063970Y0053413D01*
X0063795Y0054611D02*
X0065169Y0054611D01*
X0060611Y0054611D02*
X0059842Y0054611D01*
X0059842Y0053413D02*
X0060611Y0053413D01*
X0061573Y0051016D02*
X0037680Y0051016D01*
X0037680Y0049817D02*
X0060374Y0049817D01*
X0059580Y0048619D02*
X0037680Y0048619D01*
X0037680Y0047420D02*
X0039401Y0047420D01*
X0038765Y0046222D02*
X0037680Y0046222D01*
X0037680Y0045024D02*
X0038765Y0045024D01*
X0038765Y0043825D02*
X0037680Y0043825D01*
X0037680Y0042627D02*
X0038765Y0042627D01*
X0038765Y0041428D02*
X0037680Y0041428D01*
X0037680Y0040230D02*
X0038080Y0040230D01*
X0038080Y0039031D02*
X0037680Y0039031D01*
X0037680Y0037833D02*
X0038080Y0037833D01*
X0038080Y0036635D02*
X0037680Y0036635D01*
X0037680Y0035436D02*
X0038080Y0035436D01*
X0038080Y0034238D02*
X0037680Y0034238D01*
X0037680Y0033039D02*
X0038080Y0033039D01*
X0037680Y0031841D02*
X0039025Y0031841D01*
X0037680Y0030643D02*
X0044056Y0030643D01*
X0045254Y0029444D02*
X0037680Y0029444D01*
X0037680Y0028246D02*
X0049953Y0028246D01*
X0051151Y0027047D02*
X0037680Y0027047D01*
X0037680Y0025849D02*
X0038598Y0025849D01*
X0038280Y0024650D02*
X0037680Y0024650D01*
X0037680Y0023452D02*
X0038280Y0023452D01*
X0037680Y0022254D02*
X0041838Y0022254D01*
X0041840Y0023452D02*
X0043038Y0023452D01*
X0043041Y0022254D02*
X0047135Y0022254D01*
X0047135Y0023452D02*
X0046598Y0023452D01*
X0046598Y0024650D02*
X0047135Y0024650D01*
X0047369Y0025849D02*
X0046281Y0025849D01*
X0043038Y0025849D02*
X0041840Y0025849D01*
X0041840Y0024650D02*
X0043038Y0024650D01*
X0046598Y0021055D02*
X0047135Y0021055D01*
X0047135Y0019857D02*
X0046598Y0019857D01*
X0046598Y0018658D02*
X0047135Y0018658D01*
X0043147Y0015063D02*
X0037680Y0015063D01*
X0037680Y0013865D02*
X0039965Y0013865D01*
X0040026Y0012666D02*
X0037680Y0012666D01*
X0037680Y0011468D02*
X0047347Y0011468D01*
X0043918Y0012666D02*
X0043149Y0012666D01*
X0043149Y0013865D02*
X0043918Y0013865D01*
X0039965Y0016261D02*
X0037680Y0016261D01*
X0037680Y0017460D02*
X0038728Y0017460D01*
X0038280Y0018658D02*
X0037680Y0018658D01*
X0037680Y0019857D02*
X0038280Y0019857D01*
X0038280Y0021055D02*
X0037680Y0021055D01*
X0047335Y0033867D02*
X0046798Y0034405D01*
X0046798Y0040569D01*
X0047047Y0040502D01*
X0047476Y0040502D01*
X0047444Y0040448D01*
X0047335Y0040041D01*
X0047335Y0037280D01*
X0050893Y0037280D01*
X0050893Y0036081D01*
X0047335Y0036081D01*
X0047335Y0033867D01*
X0047335Y0034238D02*
X0046965Y0034238D01*
X0046798Y0035436D02*
X0047335Y0035436D01*
X0046798Y0036635D02*
X0050893Y0036635D01*
X0052096Y0036635D02*
X0055692Y0036635D01*
X0055653Y0037833D02*
X0056890Y0037833D01*
X0057612Y0039031D02*
X0055653Y0039031D01*
X0055603Y0040230D02*
X0057612Y0040230D01*
X0057909Y0041428D02*
X0054272Y0041428D01*
X0052795Y0042627D02*
X0059580Y0042627D01*
X0059580Y0043825D02*
X0049613Y0043825D01*
X0049611Y0045024D02*
X0048842Y0045024D01*
X0048842Y0046222D02*
X0049611Y0046222D01*
X0049611Y0047420D02*
X0048842Y0047420D01*
X0046451Y0047420D02*
X0045666Y0047420D01*
X0052002Y0047420D02*
X0059580Y0047420D01*
X0059580Y0046222D02*
X0052795Y0046222D01*
X0052795Y0045024D02*
X0059580Y0045024D01*
X0064180Y0045024D02*
X0064584Y0045024D01*
X0064584Y0046222D02*
X0064180Y0046222D01*
X0064180Y0047118D02*
X0064584Y0047523D01*
X0064584Y0047174D01*
X0064584Y0043715D01*
X0064790Y0043510D01*
X0064784Y0043490D01*
X0064784Y0042297D01*
X0069234Y0042297D01*
X0069234Y0042293D01*
X0064784Y0042293D01*
X0064784Y0041670D01*
X0064609Y0041670D01*
X0064180Y0042100D01*
X0064180Y0047118D01*
X0064482Y0047420D02*
X0064584Y0047420D01*
X0064584Y0043825D02*
X0064180Y0043825D01*
X0064180Y0042627D02*
X0064784Y0042627D01*
X0069243Y0042297D02*
X0073693Y0042297D01*
X0073693Y0043271D01*
X0073833Y0043271D01*
X0074833Y0044271D01*
X0075928Y0044271D01*
X0076580Y0043618D01*
X0076580Y0042118D01*
X0077221Y0041478D01*
X0076055Y0041961D01*
X0074706Y0041961D01*
X0073693Y0041541D01*
X0073693Y0042293D01*
X0069243Y0042293D01*
X0069243Y0042297D01*
X0073693Y0042627D02*
X0076580Y0042627D01*
X0076373Y0043825D02*
X0074387Y0043825D01*
X0061765Y0031337D02*
X0061765Y0028156D01*
X0063559Y0028156D01*
X0063966Y0028265D01*
X0064331Y0028476D01*
X0064584Y0028729D01*
X0064584Y0028277D01*
X0064584Y0024817D01*
X0065639Y0023763D01*
X0067437Y0023763D01*
X0066739Y0023065D01*
X0066485Y0023319D01*
X0066120Y0023530D01*
X0065713Y0023639D01*
X0063918Y0023639D01*
X0063918Y0020457D01*
X0063149Y0020457D01*
X0063149Y0023639D01*
X0061354Y0023639D01*
X0060948Y0023530D01*
X0060583Y0023319D01*
X0060285Y0023022D01*
X0060180Y0022839D01*
X0060180Y0028156D01*
X0060995Y0028156D01*
X0060995Y0031337D01*
X0061765Y0031337D01*
X0061765Y0030643D02*
X0060995Y0030643D01*
X0060995Y0029444D02*
X0061765Y0029444D01*
X0061765Y0028246D02*
X0060995Y0028246D01*
X0060180Y0027047D02*
X0064584Y0027047D01*
X0064584Y0025849D02*
X0060180Y0025849D01*
X0060180Y0024650D02*
X0064751Y0024650D01*
X0063918Y0023452D02*
X0063149Y0023452D01*
X0063149Y0022254D02*
X0063918Y0022254D01*
X0063918Y0021055D02*
X0063149Y0021055D01*
X0060813Y0023452D02*
X0060180Y0023452D01*
X0063894Y0028246D02*
X0064584Y0028246D01*
X0066255Y0023452D02*
X0067126Y0023452D01*
X0074354Y0023452D02*
X0074358Y0023452D01*
X0074358Y0024271D02*
X0074358Y0021433D01*
X0074354Y0021433D01*
X0074354Y0024271D01*
X0074358Y0024271D01*
X0074354Y0022254D02*
X0074358Y0022254D01*
X0056731Y0011468D02*
X0053106Y0011468D01*
X0053995Y0012666D02*
X0055533Y0012666D01*
X0054334Y0013865D02*
X0053995Y0013865D01*
X0047335Y0037833D02*
X0046798Y0037833D01*
X0046798Y0039031D02*
X0047335Y0039031D01*
X0047386Y0040230D02*
X0046798Y0040230D01*
X0071168Y0121723D02*
X0071947Y0121723D01*
X0074342Y0121723D02*
X0075111Y0121723D01*
X0075111Y0122921D02*
X0074342Y0122921D01*
X0074342Y0124120D02*
X0075111Y0124120D01*
X0075113Y0125318D02*
X0079265Y0125318D01*
X0079265Y0124120D02*
X0078295Y0124120D01*
X0078295Y0122921D02*
X0079265Y0122921D01*
X0079265Y0126517D02*
X0078295Y0126517D01*
X0078152Y0127715D02*
X0079265Y0127715D01*
X0075111Y0127715D02*
X0074342Y0127715D01*
X0074342Y0126517D02*
X0075111Y0126517D01*
X0069901Y0140898D02*
X0069859Y0140898D01*
X0068661Y0142096D02*
X0071099Y0142096D01*
X0092382Y0143294D02*
X0047772Y0143294D01*
D34*
X0040880Y0138571D03*
X0047380Y0124571D03*
X0039880Y0093571D03*
X0060380Y0083571D03*
X0060380Y0079071D03*
X0067380Y0079071D03*
X0067380Y0083571D03*
X0066880Y0071071D03*
X0066880Y0066571D03*
X0060380Y0066571D03*
X0060380Y0071071D03*
X0044380Y0063071D03*
X0038880Y0063071D03*
X0040380Y0050571D03*
X0053880Y0044571D03*
X0058880Y0051071D03*
X0075380Y0043071D03*
X0075380Y0038571D03*
X0079380Y0036571D03*
X0079880Y0031571D03*
X0076380Y0028571D03*
X0090380Y0031571D03*
X0095880Y0036071D03*
X0090880Y0047071D03*
X0100380Y0056571D03*
X0102380Y0052571D03*
X0107880Y0055571D03*
X0112880Y0055071D03*
X0108880Y0063571D03*
X0104880Y0065571D03*
X0098380Y0061071D03*
X0090880Y0059571D03*
X0089380Y0066071D03*
X0085880Y0071071D03*
X0085880Y0075571D03*
X0085880Y0080071D03*
X0101880Y0080571D03*
X0109380Y0082071D03*
X0117880Y0080571D03*
X0140880Y0093571D03*
X0149880Y0066071D03*
X0148880Y0032071D03*
X0126380Y0013571D03*
X0106880Y0023071D03*
X0102880Y0019571D03*
X0104880Y0014071D03*
X0088380Y0014071D03*
X0061380Y0027071D03*
X0042380Y0028071D03*
X0038880Y0015071D03*
X0093880Y0106071D03*
X0100380Y0137571D03*
X0135380Y0138571D03*
X0170880Y0132571D03*
X0188380Y0127071D03*
X0197880Y0118571D03*
X0197880Y0114571D03*
X0197880Y0110571D03*
X0201880Y0106071D03*
X0205880Y0106071D03*
X0209880Y0106071D03*
X0197380Y0082571D03*
X0199380Y0064571D03*
X0223380Y0081571D03*
X0225880Y0135071D03*
X0207880Y0025071D03*
X0192880Y0025571D03*
X0224880Y0018071D03*
D35*
X0228380Y0030071D02*
X0212380Y0014071D01*
X0190880Y0014071D01*
X0188880Y0016071D01*
X0188880Y0018696D01*
X0188180Y0019396D01*
X0178880Y0018696D02*
X0178880Y0013571D01*
X0178880Y0018696D02*
X0178180Y0019396D01*
X0173380Y0019196D02*
X0173380Y0013571D01*
X0167880Y0013571D02*
X0167880Y0019096D01*
X0168180Y0019396D01*
X0163180Y0019396D02*
X0162380Y0018596D01*
X0162380Y0013571D01*
X0153380Y0013571D02*
X0153380Y0019196D01*
X0153180Y0019396D01*
X0143380Y0019196D02*
X0143380Y0013571D01*
X0137880Y0013571D02*
X0137880Y0019096D01*
X0138180Y0019396D01*
X0133180Y0019396D02*
X0132380Y0018596D01*
X0132380Y0013571D01*
X0143180Y0019396D02*
X0143380Y0019196D01*
X0173180Y0019396D02*
X0173380Y0019196D01*
X0198180Y0019396D02*
X0198380Y0019596D01*
X0198380Y0025071D01*
X0208880Y0035571D01*
X0208880Y0073071D01*
X0213227Y0077417D01*
X0213227Y0078071D01*
X0206534Y0078071D02*
X0206534Y0079417D01*
X0205880Y0080071D01*
X0205880Y0083224D01*
X0202034Y0087071D01*
X0173380Y0087071D01*
X0168380Y0092071D01*
X0168380Y0095071D01*
X0172880Y0111071D02*
X0161880Y0111071D01*
X0157880Y0115071D01*
X0154880Y0115071D01*
X0149380Y0111571D02*
X0145880Y0115071D01*
X0144880Y0115071D01*
X0147380Y0115071D01*
X0154880Y0122571D01*
X0154880Y0130571D01*
X0162880Y0138571D01*
X0162880Y0150971D01*
X0162980Y0151071D01*
X0157580Y0141071D02*
X0149880Y0133371D01*
X0149880Y0125071D01*
X0147880Y0125071D01*
X0139880Y0117071D01*
X0139880Y0113071D01*
X0141880Y0111071D01*
X0141880Y0103571D01*
X0142640Y0102811D01*
X0142640Y0101902D01*
X0148880Y0103142D02*
X0150120Y0101902D01*
X0150880Y0101902D01*
X0150880Y0101571D01*
X0151380Y0101071D01*
X0151380Y0089071D01*
X0149880Y0087571D01*
X0136380Y0087571D01*
X0133298Y0090654D01*
X0131239Y0090654D01*
X0128298Y0090654D01*
X0127880Y0091071D01*
X0127880Y0091571D01*
X0123380Y0096071D01*
X0123380Y0104071D01*
X0111380Y0116071D01*
X0111380Y0118894D01*
X0108703Y0121571D01*
X0093880Y0106071D02*
X0093880Y0104071D01*
X0091880Y0102071D01*
X0090471Y0102071D01*
X0089711Y0101311D01*
X0089711Y0102402D01*
X0089880Y0102571D01*
X0089880Y0109917D01*
X0089727Y0110071D01*
X0089380Y0116417D02*
X0083034Y0110071D01*
X0081880Y0108917D01*
X0081880Y0098571D01*
X0081050Y0097740D01*
X0081050Y0097571D01*
X0079550Y0099071D01*
X0073880Y0099071D01*
X0072880Y0100071D01*
X0072880Y0100417D01*
X0072880Y0093724D02*
X0072880Y0093571D01*
X0073880Y0092571D01*
X0087880Y0092571D01*
X0088451Y0092571D01*
X0089711Y0093831D01*
X0101317Y0100496D02*
X0104455Y0100496D01*
X0089380Y0116417D02*
X0089380Y0116571D01*
X0089727Y0116917D01*
X0089727Y0117571D01*
X0083034Y0117571D02*
X0082880Y0117724D01*
X0082880Y0124071D01*
X0083034Y0124224D01*
X0083034Y0125071D01*
X0083380Y0125417D01*
X0083380Y0137571D01*
X0083660Y0137850D01*
X0083660Y0138071D01*
X0073880Y0137071D02*
X0073880Y0133571D01*
X0068380Y0128071D01*
X0068380Y0125417D01*
X0068034Y0125071D01*
X0068034Y0124724D01*
X0067380Y0124071D01*
X0067380Y0118224D01*
X0068034Y0117571D01*
X0060380Y0118224D02*
X0059727Y0117571D01*
X0060380Y0118224D02*
X0060380Y0124571D01*
X0059880Y0125071D01*
X0059727Y0125071D01*
X0059880Y0125224D01*
X0059880Y0128571D01*
X0065880Y0134571D01*
X0065880Y0137571D01*
X0065943Y0137634D01*
X0065943Y0138071D01*
X0073817Y0138071D02*
X0073817Y0137134D01*
X0073880Y0137071D01*
X0041534Y0087417D02*
X0042880Y0086071D01*
X0046380Y0086071D01*
X0048880Y0083571D01*
X0051580Y0083571D01*
X0051680Y0083671D01*
X0051680Y0074571D02*
X0054880Y0074571D01*
X0055380Y0075071D01*
X0075581Y0075071D01*
X0076081Y0074571D01*
X0086227Y0060071D02*
X0088880Y0060071D01*
X0089880Y0059071D01*
X0090880Y0059071D01*
X0090880Y0059571D01*
X0089880Y0059071D02*
X0089880Y0053937D01*
X0090105Y0053713D01*
X0101522Y0039146D02*
X0101597Y0039071D01*
X0107380Y0039071D01*
X0108034Y0038417D01*
X0108880Y0038417D01*
X0109380Y0038917D01*
X0109380Y0043071D01*
X0108880Y0043571D01*
X0108880Y0043224D01*
X0103380Y0036071D02*
X0103306Y0035996D01*
X0101522Y0035996D01*
X0110380Y0067071D02*
X0111380Y0067571D01*
X0111380Y0068224D01*
X0110880Y0074417D02*
X0111380Y0074917D01*
X0128180Y0072396D02*
X0128380Y0072596D01*
X0128380Y0078571D01*
X0142880Y0078071D02*
X0142880Y0072696D01*
X0143180Y0072396D01*
X0148180Y0072396D02*
X0148380Y0072596D01*
X0148380Y0078071D01*
X0153880Y0073096D02*
X0153180Y0072396D01*
X0153880Y0073096D02*
X0153880Y0078071D01*
X0159380Y0078071D02*
X0159380Y0073596D01*
X0158180Y0072396D01*
X0188380Y0095071D02*
X0190380Y0097071D01*
X0217534Y0097071D01*
X0217534Y0096417D01*
X0217880Y0096071D01*
X0217880Y0088724D01*
X0216534Y0088071D01*
X0224227Y0097071D02*
X0224880Y0097071D01*
X0225380Y0096571D01*
X0226380Y0096571D01*
X0228380Y0094571D01*
X0228380Y0030071D01*
X0224227Y0097071D02*
X0224880Y0097724D01*
X0224880Y0104071D01*
X0224380Y0104571D01*
X0224380Y0107516D01*
X0224380Y0124839D02*
X0224380Y0126071D01*
X0222380Y0128071D01*
X0198880Y0128071D01*
X0187380Y0116571D01*
X0181380Y0116571D01*
X0180880Y0117071D01*
X0179813Y0117071D01*
X0178813Y0118071D01*
X0178813Y0120004D01*
X0182880Y0124071D01*
X0182880Y0136571D01*
X0184380Y0138071D01*
X0184380Y0150871D01*
X0184580Y0151071D01*
X0178813Y0118071D02*
X0174880Y0114138D01*
X0174880Y0113071D01*
X0172880Y0111071D01*
X0149380Y0111571D02*
X0149380Y0104071D01*
X0148880Y0103571D01*
X0148880Y0103142D01*
X0131239Y0100496D02*
X0130380Y0101354D01*
X0130380Y0115071D01*
X0130880Y0115571D01*
X0130880Y0119472D01*
X0128782Y0121571D01*
X0128782Y0121972D01*
X0131880Y0125071D01*
X0147880Y0125071D01*
X0053880Y0064571D02*
X0053880Y0057071D01*
X0053380Y0056071D01*
X0053534Y0056071D01*
X0054534Y0055571D01*
X0048880Y0055571D01*
X0047727Y0056724D01*
X0047727Y0057071D01*
X0044380Y0063071D02*
X0044880Y0063571D01*
X0047880Y0063571D01*
X0048880Y0064571D01*
X0052580Y0064571D01*
X0051680Y0065471D01*
X0052580Y0064571D02*
X0053880Y0064571D01*
X0050680Y0073571D02*
X0051680Y0074571D01*
X0050680Y0073571D02*
X0042880Y0073571D01*
X0042227Y0073917D01*
X0041880Y0074417D01*
X0042380Y0073417D01*
X0042380Y0079071D01*
X0040880Y0080571D01*
X0040880Y0080724D01*
X0040880Y0087417D02*
X0041534Y0087417D01*
X0042380Y0044071D02*
X0041880Y0043571D01*
X0041880Y0037240D01*
X0042439Y0036681D01*
X0042380Y0044071D02*
X0042534Y0044071D01*
X0061380Y0038417D02*
X0061727Y0038417D01*
X0062380Y0039071D01*
X0069164Y0039071D01*
X0069239Y0039146D01*
X0061380Y0031724D02*
X0061380Y0027071D01*
X0051494Y0021720D02*
X0049880Y0020106D01*
X0049880Y0015571D01*
X0049380Y0015071D01*
X0050227Y0015071D01*
D36*
X0052380Y0019071D02*
X0059380Y0012071D01*
X0081380Y0012071D01*
X0086880Y0017571D01*
X0086880Y0021354D01*
X0086955Y0021429D01*
X0090105Y0021429D02*
X0090105Y0019295D01*
X0089880Y0019071D01*
X0089880Y0011571D01*
X0090380Y0011071D01*
X0103380Y0011071D01*
X0103880Y0011571D01*
X0103880Y0013071D01*
X0104880Y0014071D01*
X0100227Y0014571D02*
X0098880Y0015917D01*
X0098880Y0020071D01*
X0097522Y0021429D01*
X0096404Y0021429D01*
X0093380Y0021303D02*
X0093380Y0015571D01*
X0093534Y0015417D01*
X0093534Y0014571D01*
X0093380Y0021303D02*
X0093254Y0021429D01*
X0092880Y0021803D01*
X0092880Y0025071D01*
X0091880Y0026071D01*
X0081880Y0026071D01*
X0080880Y0025071D01*
X0080880Y0023571D01*
X0080656Y0023346D01*
X0080656Y0021429D01*
X0077506Y0021429D02*
X0077506Y0024697D01*
X0080880Y0028071D01*
X0092880Y0028071D01*
X0094880Y0026071D01*
X0098880Y0026071D01*
X0099380Y0026571D01*
X0101498Y0026571D01*
X0101522Y0026547D01*
X0101880Y0026906D01*
X0101880Y0029571D01*
X0101754Y0029697D01*
X0101522Y0029697D01*
X0101246Y0032571D02*
X0101522Y0032846D01*
X0101246Y0032571D02*
X0094380Y0032571D01*
X0090880Y0036071D01*
X0090880Y0047071D01*
X0093254Y0053713D02*
X0092880Y0054087D01*
X0092880Y0056571D01*
X0094380Y0058071D01*
X0094380Y0061571D01*
X0092880Y0063071D01*
X0092880Y0081071D01*
X0084380Y0089571D01*
X0070880Y0089571D01*
X0069380Y0091071D01*
X0069380Y0103571D01*
X0073380Y0107571D01*
X0073380Y0116071D01*
X0074727Y0117417D01*
X0074727Y0117571D01*
X0062703Y0104920D02*
X0043880Y0104920D01*
X0043880Y0105918D02*
X0061704Y0105918D01*
X0061052Y0106571D02*
X0065380Y0102242D01*
X0065380Y0090899D01*
X0065380Y0089242D01*
X0067880Y0086742D01*
X0069052Y0085571D01*
X0082552Y0085571D01*
X0088880Y0079242D01*
X0088880Y0069161D01*
X0088765Y0069161D01*
X0087630Y0068691D01*
X0086760Y0067821D01*
X0086290Y0066685D01*
X0086290Y0065456D01*
X0086760Y0064320D01*
X0087542Y0063539D01*
X0083637Y0063539D01*
X0082832Y0062735D01*
X0082702Y0062960D01*
X0082423Y0063239D01*
X0082081Y0063437D01*
X0081700Y0063539D01*
X0080018Y0063539D01*
X0080018Y0060557D01*
X0079049Y0060557D01*
X0079049Y0063539D01*
X0077368Y0063539D01*
X0076986Y0063437D01*
X0076644Y0063239D01*
X0076365Y0062960D01*
X0076168Y0062618D01*
X0076065Y0062237D01*
X0076065Y0060555D01*
X0079047Y0060555D01*
X0079047Y0059586D01*
X0076065Y0059586D01*
X0076065Y0058067D01*
X0075962Y0058067D01*
X0072751Y0058067D01*
X0071872Y0057188D01*
X0071872Y0057071D01*
X0063695Y0057071D01*
X0063695Y0058661D01*
X0062817Y0059539D01*
X0057637Y0059539D01*
X0056880Y0058782D01*
X0056180Y0059483D01*
X0056180Y0061571D01*
X0056702Y0061571D01*
X0057580Y0062449D01*
X0057580Y0068492D01*
X0056702Y0069370D01*
X0046659Y0069370D01*
X0045780Y0068492D01*
X0045780Y0065870D01*
X0045696Y0065870D01*
X0045348Y0066015D01*
X0045348Y0070314D01*
X0044544Y0071119D01*
X0044770Y0071248D01*
X0045049Y0071528D01*
X0045246Y0071870D01*
X0045348Y0072251D01*
X0045348Y0073932D01*
X0043880Y0073932D01*
X0043880Y0074902D01*
X0045348Y0074902D01*
X0045348Y0076583D01*
X0045246Y0076965D01*
X0045059Y0077289D01*
X0045230Y0077586D01*
X0045333Y0077968D01*
X0045333Y0080225D01*
X0043880Y0080225D01*
X0043880Y0081223D01*
X0045333Y0081223D01*
X0045333Y0083481D01*
X0045255Y0083771D01*
X0045428Y0083771D01*
X0045780Y0083418D01*
X0045780Y0080649D01*
X0046659Y0079771D01*
X0056702Y0079771D01*
X0057580Y0080649D01*
X0057580Y0086692D01*
X0056702Y0087570D01*
X0048133Y0087570D01*
X0047333Y0088370D01*
X0045428Y0088370D01*
X0045333Y0088370D01*
X0045333Y0090598D01*
X0044454Y0091476D01*
X0043880Y0091476D01*
X0043880Y0106571D01*
X0061052Y0106571D01*
X0063701Y0103921D02*
X0043880Y0103921D01*
X0043880Y0102923D02*
X0064700Y0102923D01*
X0065380Y0101924D02*
X0043880Y0101924D01*
X0043880Y0100926D02*
X0065380Y0100926D01*
X0065380Y0099928D02*
X0043880Y0099928D01*
X0043880Y0098929D02*
X0065380Y0098929D01*
X0065380Y0097931D02*
X0043880Y0097931D01*
X0043880Y0096932D02*
X0065380Y0096932D01*
X0065380Y0095934D02*
X0043880Y0095934D01*
X0043880Y0094935D02*
X0065380Y0094935D01*
X0065380Y0093937D02*
X0043880Y0093937D01*
X0043880Y0092939D02*
X0065380Y0092939D01*
X0065380Y0091940D02*
X0043880Y0091940D01*
X0044989Y0090942D02*
X0065380Y0090942D01*
X0065380Y0089943D02*
X0045333Y0089943D01*
X0045333Y0088945D02*
X0065678Y0088945D01*
X0066676Y0087946D02*
X0047757Y0087946D01*
X0045780Y0082954D02*
X0045333Y0082954D01*
X0045333Y0081956D02*
X0045780Y0081956D01*
X0045780Y0080957D02*
X0043880Y0080957D01*
X0045333Y0079959D02*
X0046470Y0079959D01*
X0045333Y0078961D02*
X0070250Y0078961D01*
X0070250Y0079959D02*
X0056890Y0079959D01*
X0057580Y0080957D02*
X0070250Y0080957D01*
X0070250Y0081855D02*
X0070250Y0075070D01*
X0075580Y0075070D01*
X0075580Y0074071D01*
X0070250Y0074071D01*
X0070250Y0067287D01*
X0070353Y0066905D01*
X0070550Y0066563D01*
X0070829Y0066284D01*
X0071171Y0066087D01*
X0071553Y0065984D01*
X0075581Y0065984D01*
X0075581Y0074069D01*
X0076580Y0074069D01*
X0076580Y0065984D01*
X0080609Y0065984D01*
X0080991Y0066087D01*
X0081333Y0066284D01*
X0081612Y0066563D01*
X0081809Y0066905D01*
X0081911Y0067287D01*
X0081911Y0074071D01*
X0076582Y0074071D01*
X0076582Y0075070D01*
X0081911Y0075070D01*
X0081911Y0081855D01*
X0081809Y0082236D01*
X0081612Y0082578D01*
X0081333Y0082857D01*
X0080991Y0083055D01*
X0080609Y0083157D01*
X0076580Y0083157D01*
X0076580Y0075072D01*
X0075581Y0075072D01*
X0075581Y0083157D01*
X0071553Y0083157D01*
X0071171Y0083055D01*
X0070829Y0082857D01*
X0070550Y0082578D01*
X0070353Y0082236D01*
X0070250Y0081855D01*
X0070278Y0081956D02*
X0057580Y0081956D01*
X0057580Y0082954D02*
X0070997Y0082954D01*
X0068673Y0085950D02*
X0057580Y0085950D01*
X0057580Y0084951D02*
X0083171Y0084951D01*
X0084170Y0083953D02*
X0057580Y0083953D01*
X0057324Y0086948D02*
X0067674Y0086948D01*
X0069880Y0087571D02*
X0083380Y0087571D01*
X0090880Y0080071D01*
X0090880Y0067571D01*
X0089380Y0066071D01*
X0086485Y0064983D02*
X0057580Y0064983D01*
X0057580Y0065981D02*
X0086290Y0065981D01*
X0086412Y0066980D02*
X0081829Y0066980D01*
X0081911Y0067978D02*
X0086917Y0067978D01*
X0088320Y0068976D02*
X0081911Y0068976D01*
X0081911Y0069975D02*
X0088880Y0069975D01*
X0088880Y0070973D02*
X0081911Y0070973D01*
X0081911Y0071972D02*
X0088880Y0071972D01*
X0088880Y0072970D02*
X0081911Y0072970D01*
X0081911Y0073969D02*
X0088880Y0073969D01*
X0088880Y0074967D02*
X0076582Y0074967D01*
X0076081Y0074571D02*
X0076081Y0071870D01*
X0079880Y0068071D01*
X0079880Y0060724D01*
X0079534Y0060071D01*
X0080380Y0060071D01*
X0079380Y0059071D01*
X0080880Y0059071D01*
X0080880Y0053937D01*
X0080656Y0053713D01*
X0080018Y0058067D02*
X0080018Y0059584D01*
X0079049Y0059584D01*
X0079049Y0058067D01*
X0079112Y0058067D01*
X0079188Y0057990D01*
X0079474Y0058067D01*
X0080018Y0058067D01*
X0079203Y0057994D02*
X0079185Y0057994D01*
X0079049Y0058992D02*
X0080018Y0058992D01*
X0080020Y0059586D02*
X0082758Y0059586D01*
X0082758Y0060555D01*
X0080020Y0060555D01*
X0080020Y0059586D01*
X0080020Y0059991D02*
X0082758Y0059991D01*
X0080018Y0060989D02*
X0079049Y0060989D01*
X0079047Y0059991D02*
X0056180Y0059991D01*
X0056180Y0060989D02*
X0076065Y0060989D01*
X0076065Y0061987D02*
X0057118Y0061987D01*
X0057580Y0062986D02*
X0076391Y0062986D01*
X0079049Y0062986D02*
X0080018Y0062986D01*
X0080018Y0061987D02*
X0079049Y0061987D01*
X0079380Y0059071D02*
X0072880Y0059071D01*
X0061880Y0048071D01*
X0061880Y0038917D01*
X0061380Y0038417D01*
X0060034Y0037071D01*
X0059380Y0037071D01*
X0057880Y0035571D01*
X0057880Y0019571D01*
X0061380Y0016071D01*
X0069880Y0016071D01*
X0069880Y0020417D01*
X0070227Y0020071D01*
X0069380Y0020571D01*
X0069727Y0019724D02*
X0070227Y0020071D01*
X0073880Y0023571D02*
X0064380Y0023571D01*
X0064380Y0027071D01*
X0061380Y0027071D01*
X0055880Y0025571D02*
X0055880Y0018571D01*
X0060380Y0014071D01*
X0080380Y0014071D01*
X0083880Y0017571D01*
X0083880Y0021354D01*
X0083806Y0021429D01*
X0077506Y0021429D02*
X0077380Y0021303D01*
X0077380Y0018071D01*
X0075380Y0016071D01*
X0069880Y0016071D01*
X0074357Y0021429D02*
X0074357Y0023094D01*
X0073880Y0023571D01*
X0074380Y0026571D02*
X0071380Y0026571D01*
X0071357Y0026547D01*
X0069239Y0026547D01*
X0069239Y0029697D02*
X0071006Y0029697D01*
X0071380Y0030071D01*
X0073380Y0030071D01*
X0075380Y0032071D01*
X0079380Y0032071D01*
X0079880Y0031571D01*
X0076880Y0034071D02*
X0079380Y0036571D01*
X0076880Y0034071D02*
X0073880Y0034071D01*
X0072880Y0033071D01*
X0071380Y0033071D01*
X0071156Y0032846D01*
X0069239Y0032846D01*
X0069239Y0035996D02*
X0071306Y0035996D01*
X0071380Y0036071D01*
X0072880Y0036071D01*
X0075380Y0038571D01*
X0078880Y0043071D02*
X0090380Y0031571D01*
X0101522Y0035996D02*
X0101597Y0036071D01*
X0104880Y0036071D01*
X0107380Y0033571D01*
X0107380Y0032571D01*
X0108227Y0031724D01*
X0108880Y0031724D01*
X0112380Y0028571D02*
X0112380Y0035071D01*
X0110380Y0037071D01*
X0110227Y0037071D01*
X0108880Y0038417D01*
X0104880Y0045571D02*
X0107380Y0048071D01*
X0107380Y0048917D01*
X0108880Y0049917D01*
X0104880Y0045571D02*
X0103880Y0045571D01*
X0103754Y0045445D01*
X0101522Y0045445D01*
X0102380Y0052571D02*
X0102880Y0053071D01*
X0102880Y0053571D01*
X0103880Y0054571D01*
X0103880Y0057071D01*
X0106880Y0060071D01*
X0110880Y0060071D01*
X0121880Y0071071D01*
X0121880Y0071096D01*
X0123180Y0072396D01*
X0121880Y0068071D02*
X0131880Y0068071D01*
X0132880Y0069071D01*
X0132880Y0072096D01*
X0133180Y0072396D01*
X0137380Y0071596D02*
X0137380Y0069071D01*
X0134380Y0066071D01*
X0122880Y0066071D01*
X0112880Y0056071D01*
X0112880Y0055071D01*
X0111880Y0058071D02*
X0121880Y0068071D01*
X0110380Y0067071D02*
X0110380Y0065071D01*
X0108880Y0063571D01*
X0110380Y0058071D02*
X0111880Y0058071D01*
X0110380Y0058071D02*
X0107880Y0055571D01*
X0101880Y0058571D02*
X0101880Y0063071D01*
X0094880Y0070071D01*
X0094880Y0082071D01*
X0087880Y0089071D01*
X0087880Y0092571D01*
X0085168Y0082954D02*
X0081165Y0082954D01*
X0081885Y0081956D02*
X0086167Y0081956D01*
X0087165Y0080957D02*
X0081911Y0080957D01*
X0081911Y0079959D02*
X0088163Y0079959D01*
X0088880Y0078961D02*
X0081911Y0078961D01*
X0081911Y0077962D02*
X0088880Y0077962D01*
X0088880Y0076964D02*
X0081911Y0076964D01*
X0081911Y0075965D02*
X0088880Y0075965D01*
X0087096Y0063984D02*
X0057580Y0063984D01*
X0057580Y0066980D02*
X0070333Y0066980D01*
X0070250Y0067978D02*
X0057580Y0067978D01*
X0057096Y0068976D02*
X0070250Y0068976D01*
X0070250Y0069975D02*
X0045348Y0069975D01*
X0045348Y0068976D02*
X0046265Y0068976D01*
X0045780Y0067978D02*
X0045348Y0067978D01*
X0045348Y0066980D02*
X0045780Y0066980D01*
X0045780Y0065981D02*
X0045430Y0065981D01*
X0046701Y0070773D02*
X0047083Y0070671D01*
X0051181Y0070671D01*
X0051181Y0074069D01*
X0052179Y0074069D01*
X0052179Y0070671D01*
X0056278Y0070671D01*
X0056659Y0070773D01*
X0057001Y0070970D01*
X0057280Y0071250D01*
X0057478Y0071592D01*
X0057580Y0071973D01*
X0057580Y0074071D01*
X0052181Y0074071D01*
X0052181Y0075070D01*
X0057580Y0075070D01*
X0057580Y0077168D01*
X0057478Y0077550D01*
X0057280Y0077892D01*
X0057001Y0078171D01*
X0056659Y0078368D01*
X0056278Y0078470D01*
X0052179Y0078470D01*
X0052179Y0075072D01*
X0051181Y0075072D01*
X0051181Y0078470D01*
X0047083Y0078470D01*
X0046701Y0078368D01*
X0046359Y0078171D01*
X0046080Y0077892D01*
X0045883Y0077550D01*
X0045780Y0077168D01*
X0045780Y0075070D01*
X0051179Y0075070D01*
X0051179Y0074071D01*
X0045780Y0074071D01*
X0045780Y0071973D01*
X0045883Y0071592D01*
X0046080Y0071250D01*
X0046359Y0070970D01*
X0046701Y0070773D01*
X0046356Y0070973D02*
X0044689Y0070973D01*
X0045273Y0071972D02*
X0045781Y0071972D01*
X0045780Y0072970D02*
X0045348Y0072970D01*
X0045780Y0073969D02*
X0043880Y0073969D01*
X0045348Y0074967D02*
X0051179Y0074967D01*
X0051181Y0075965D02*
X0052179Y0075965D01*
X0052181Y0074967D02*
X0075580Y0074967D01*
X0075581Y0075965D02*
X0076580Y0075965D01*
X0076580Y0076964D02*
X0075581Y0076964D01*
X0075581Y0077962D02*
X0076580Y0077962D01*
X0076580Y0078961D02*
X0075581Y0078961D01*
X0075581Y0079959D02*
X0076580Y0079959D01*
X0076580Y0080957D02*
X0075581Y0080957D01*
X0075581Y0081956D02*
X0076580Y0081956D01*
X0076580Y0082954D02*
X0075581Y0082954D01*
X0069880Y0087571D02*
X0067380Y0090071D01*
X0067380Y0103071D01*
X0054380Y0116071D01*
X0054380Y0116571D01*
X0053380Y0117571D01*
X0053034Y0117571D01*
X0052179Y0077962D02*
X0051181Y0077962D01*
X0051181Y0076964D02*
X0052179Y0076964D01*
X0052179Y0073969D02*
X0051181Y0073969D01*
X0051181Y0072970D02*
X0052179Y0072970D01*
X0052179Y0071972D02*
X0051181Y0071972D01*
X0051181Y0070973D02*
X0052179Y0070973D01*
X0057004Y0070973D02*
X0070250Y0070973D01*
X0070250Y0071972D02*
X0057579Y0071972D01*
X0057580Y0072970D02*
X0070250Y0072970D01*
X0070250Y0073969D02*
X0057580Y0073969D01*
X0057580Y0075965D02*
X0070250Y0075965D01*
X0070250Y0076964D02*
X0057580Y0076964D01*
X0057210Y0077962D02*
X0070250Y0077962D01*
X0075581Y0073969D02*
X0076580Y0073969D01*
X0076580Y0072970D02*
X0075581Y0072970D01*
X0075581Y0071972D02*
X0076580Y0071972D01*
X0076580Y0070973D02*
X0075581Y0070973D01*
X0075581Y0069975D02*
X0076580Y0069975D01*
X0076580Y0068976D02*
X0075581Y0068976D01*
X0075581Y0067978D02*
X0076580Y0067978D01*
X0076580Y0066980D02*
X0075581Y0066980D01*
X0076065Y0058992D02*
X0063363Y0058992D01*
X0063695Y0057994D02*
X0072678Y0057994D01*
X0082677Y0062986D02*
X0083083Y0062986D01*
X0096880Y0058071D02*
X0096880Y0054189D01*
X0096404Y0053713D01*
X0100380Y0056571D02*
X0100380Y0057071D01*
X0101880Y0058571D01*
X0098380Y0059571D02*
X0098380Y0061071D01*
X0098380Y0059571D02*
X0096880Y0058071D01*
X0110880Y0074417D02*
X0110880Y0080571D01*
X0109380Y0082071D01*
X0105380Y0090071D02*
X0117880Y0090071D01*
X0125380Y0082571D01*
X0187380Y0082571D01*
X0192880Y0077071D01*
X0192880Y0072696D01*
X0193180Y0072396D01*
X0196880Y0073696D02*
X0196880Y0076571D01*
X0188880Y0084571D01*
X0126380Y0084571D01*
X0111380Y0099571D01*
X0105380Y0099571D01*
X0104455Y0100496D01*
X0104798Y0090654D02*
X0101317Y0090654D01*
X0104798Y0090654D02*
X0105380Y0090071D01*
X0137380Y0071596D02*
X0138180Y0072396D01*
X0112380Y0028571D02*
X0110380Y0026571D01*
X0102380Y0026571D01*
X0102357Y0026547D01*
X0101522Y0026547D01*
X0106880Y0023071D02*
X0114880Y0023071D01*
X0117380Y0025571D01*
X0154880Y0025571D01*
X0157880Y0022571D01*
X0157880Y0019696D01*
X0158180Y0019396D01*
X0148180Y0019396D02*
X0147880Y0019696D01*
X0147880Y0022571D01*
X0146880Y0023571D01*
X0129880Y0023571D01*
X0125880Y0019571D01*
X0102880Y0019571D01*
X0076380Y0028571D02*
X0074380Y0026571D01*
X0078880Y0043071D02*
X0078880Y0044571D01*
X0076880Y0046571D01*
X0073880Y0046571D01*
X0072880Y0045571D01*
X0071380Y0045571D01*
X0071254Y0045445D01*
X0069239Y0045445D01*
X0057090Y0058992D02*
X0056670Y0058992D01*
X0045780Y0075965D02*
X0045348Y0075965D01*
X0045246Y0076964D02*
X0045780Y0076964D01*
X0046150Y0077962D02*
X0045331Y0077962D01*
X0042439Y0036681D02*
X0042439Y0036512D01*
X0044380Y0034571D01*
X0044380Y0033571D01*
X0046880Y0031071D01*
X0050380Y0031071D01*
X0055880Y0025571D01*
X0051731Y0021720D02*
X0053380Y0020071D01*
X0052380Y0019071D01*
X0051731Y0021720D02*
X0051494Y0021720D01*
X0196880Y0073696D02*
X0198180Y0072396D01*
M02*
