%
T01C0.015700
X011600Y002300
X012200Y003300
X015822Y003806
X019921Y004759
X025488Y004239
X031417Y004444
X035433Y004358
X038763Y005968
X015692Y007110
X012592Y006584
X012200Y005673
X008797Y004365
X003897Y006940
X007027Y007031
X007020Y016037
X006150Y016037
X005070Y019127
X004620Y019097
X004170Y019097
X003720Y019097
X003270Y019097
X002820Y019097
X002280Y019097
X002310Y015697
X015957Y016037
X015087Y016037
X014007Y019127
X013557Y019097
X013107Y019097
X012657Y019097
X012207Y019097
X011757Y019097
X011217Y019097
X011247Y015697
X028043Y016037
X027173Y016037
X026093Y019127
X025643Y019097
X025193Y019097
X024743Y019097
X024293Y019097
X023843Y019097
X023303Y019097
X023333Y015697
X036980Y016037
X036110Y016037
X035030Y019127
X034580Y019097
X034130Y019097
X033680Y019097
X033230Y019097
X032780Y019097
X032240Y019097
X032270Y015697
X011600Y031444
X012200Y032444
X015822Y032950
X019921Y033903
X025488Y033383
X031417Y033588
X035433Y033502
X038763Y035112
X015692Y036254
X012592Y035728
X012200Y034817
X008797Y033509
X003897Y036084
X007027Y036175
T02C0.023600
X011670Y004940
X012670Y004940
X012670Y003940
X011670Y003940
X011670Y002940
X012670Y002940
X002970Y016467
X002970Y017467
X003970Y017467
X003970Y016467
X004970Y016467
X004970Y017467
X011907Y016467
X011907Y017467
X012907Y017467
X012907Y016467
X013907Y016467
X013907Y017467
X023993Y016467
X023993Y017467
X024993Y017467
X024993Y016467
X025993Y016467
X025993Y017467
X032930Y016467
X032930Y017467
X033930Y017467
X033930Y016467
X034930Y016467
X034930Y017467
X011670Y034084
X012670Y034084
X012670Y033084
X011670Y033084
X011670Y032084
X012670Y032084
T03C0.033700
X002500Y003350
X001500Y003850
X002500Y004350
X001500Y004850
X005000Y014747
X005000Y013747
X005000Y012747
X005000Y011747
X005000Y010747
X005000Y009747
X005000Y008747
X006000Y008747
X006000Y009747
X006000Y010747
X006000Y011747
X006000Y012747
X006000Y013747
X006000Y014747
X007000Y014747
X007000Y013747
X007000Y012747
X007000Y011747
X007000Y010747
X007000Y009747
X007000Y008747
X004000Y011747
X004000Y012747
X004000Y013747
X004000Y014747
X003000Y014747
X003000Y013747
X003000Y012747
X003000Y011747
X002000Y011747
X002000Y012747
X002000Y013747
X002000Y014747
X005210Y027707
X005710Y028707
X006210Y027707
X006710Y028707
X013937Y014747
X013937Y013747
X013937Y012747
X013937Y011747
X013937Y010747
X013937Y009747
X013937Y008747
X014937Y008747
X014937Y009747
X014937Y010747
X014937Y011747
X014937Y012747
X014937Y013747
X014937Y014747
X015937Y014747
X015937Y013747
X015937Y012747
X015937Y011747
X015937Y010747
X015937Y009747
X015937Y008747
X012937Y011747
X012937Y012747
X012937Y013747
X012937Y014747
X011937Y014747
X011937Y013747
X011937Y012747
X011937Y011747
X010937Y011747
X010937Y012747
X010937Y013747
X010937Y014747
X014147Y027707
X014647Y028707
X015147Y027707
X015647Y028707
X019535Y012722
X019535Y013722
X019542Y015793
X019542Y016793
X019532Y018904
X019532Y019904
X019549Y021952
X019549Y022952
X019558Y024981
X019558Y025981
X020558Y025481
X020558Y024481
X020549Y022452
X020549Y021452
X020532Y019404
X020532Y018404
X020542Y016293
X020542Y015293
X020535Y013222
X020535Y012222
X020545Y009994
X020545Y008994
X019545Y009494
X019545Y010494
X026023Y014747
X026023Y013747
X026023Y012747
X026023Y011747
X026023Y010747
X026023Y009747
X026023Y008747
X027023Y008747
X027023Y009747
X027023Y010747
X027023Y011747
X027023Y012747
X027023Y013747
X027023Y014747
X028023Y014747
X028023Y013747
X028023Y012747
X028023Y011747
X028023Y010747
X028023Y009747
X028023Y008747
X025023Y011747
X025023Y012747
X025023Y013747
X025023Y014747
X024023Y014747
X024023Y013747
X024023Y012747
X024023Y011747
X023023Y011747
X023023Y012747
X023023Y013747
X023023Y014747
X026233Y027707
X026733Y028707
X027233Y027707
X027733Y028707
X034960Y014747
X034960Y013747
X034960Y012747
X034960Y011747
X034960Y010747
X034960Y009747
X034960Y008747
X035960Y008747
X035960Y009747
X035960Y010747
X035960Y011747
X035960Y012747
X035960Y013747
X035960Y014747
X036960Y014747
X036960Y013747
X036960Y012747
X036960Y011747
X036960Y010747
X036960Y009747
X036960Y008747
X033960Y011747
X033960Y012747
X033960Y013747
X033960Y014747
X032960Y014747
X032960Y013747
X032960Y012747
X032960Y011747
X031960Y011747
X031960Y012747
X031960Y013747
X031960Y014747
X035170Y027707
X035670Y028707
X036170Y027707
X036670Y028707
X002500Y032494
X001500Y032994
X002500Y033494
X001500Y033994
T04C0.041350
X039603Y003400
X039603Y002400
X039598Y004401
X039598Y005401
X039598Y006401
X008650Y008797
X008650Y009797
X008650Y010797
X008650Y011797
X008650Y012797
X008650Y013797
X008650Y014797
X008650Y015797
X008650Y016797
X008650Y017797
X008650Y018797
X008650Y019797
X008650Y020797
X008650Y021797
X008650Y022797
X008650Y023797
X008650Y024797
X008650Y025797
X008650Y026797
X008650Y027797
X008650Y028797
X017587Y008797
X017587Y009797
X017587Y010797
X017587Y011797
X017587Y012797
X017587Y013797
X017587Y014797
X017587Y015797
X017587Y016797
X017587Y017797
X017587Y018797
X017587Y019797
X017587Y020797
X017587Y021797
X017587Y022797
X017587Y023797
X017587Y024797
X017587Y025797
X017587Y026797
X017587Y027797
X017587Y028797
X019528Y028100
X019528Y029100
X020528Y029100
X020528Y028100
X029673Y008797
X029673Y009797
X029673Y010797
X029673Y011797
X029673Y012797
X029673Y013797
X029673Y014797
X029673Y015797
X029673Y016797
X029673Y017797
X029673Y018797
X029673Y019797
X029673Y020797
X029673Y021797
X029673Y022797
X029673Y023797
X029673Y024797
X029673Y025797
X029673Y026797
X029673Y027797
X029673Y028797
X038610Y008797
X038610Y009797
X038610Y010797
X038610Y011797
X038610Y012797
X038610Y013797
X038610Y014797
X038610Y015797
X038610Y016797
X038610Y017797
X038610Y018797
X038610Y019797
X038610Y020797
X038610Y021797
X038610Y022797
X038610Y023797
X038610Y024797
X038610Y025797
X038610Y026797
X038610Y027797
X038610Y028797
X039603Y032544
X039603Y031544
X039598Y033545
X039598Y034545
X039598Y035545
T05C0.047200
X003970Y023467
X003970Y022467
X002970Y022467
X002970Y023467
X012907Y023467
X012907Y022467
X011907Y022467
X011907Y023467
X024993Y023467
X024993Y022467
X023993Y022467
X023993Y023467
X033930Y023467
X033930Y022467
X032930Y022467
X032930Y023467
T06C0.059100
X007220Y027986
X016157Y027986
X020279Y026490
X020270Y023462
X020253Y020413
X020263Y017303
X020256Y014232
X020266Y011003
X028243Y027986
X037180Y027986
T07C0.106300
X003250Y028197
X003250Y009397
X012187Y028197
X012187Y009397
X024273Y028197
X024273Y009397
X033210Y028197
X033210Y009397
M30
