%
M48
M72
T01C0.0157
T02C0.0236
T03C0.0354
T04C0.0394
T05C0.0472
T06C0.0591
T07C0.1063
%
T01
X8042Y4388
X8042Y5258
X11132Y6338
X11102Y6788
X11102Y7238
X11102Y7688
X11102Y8138
X11102Y8588
X11102Y9128
X7702Y9098
T02
X8472Y8438
X9472Y8438
X9472Y7438
X8472Y7438
X8472Y6438
X9472Y6438
T03
X6752Y6408
X5752Y6408
X4752Y6408
X3752Y6408
X2752Y6408
X1752Y6408
X752Y6408
X752Y5408
X1752Y5408
X2752Y5408
X3752Y5408
X4752Y5408
X5752Y5408
X6752Y5408
X6752Y4408
X5752Y4408
X4752Y4408
X3752Y4408
X2752Y4408
X1752Y4408
X752Y4408
X3752Y7408
X4752Y7408
X5752Y7408
X6752Y7408
X6752Y8408
X5752Y8408
X4752Y8408
X3752Y8408
X3752Y9408
X4752Y9408
X5752Y9408
X6752Y9408
X19712Y6198
X20712Y5698
X19712Y5198
X20712Y4698
T04
X802Y2758
X1802Y2758
X2802Y2758
X3802Y2758
X4802Y2758
X5802Y2758
X6802Y2758
X7802Y2758
X8802Y2758
X9802Y2758
X10802Y2758
X11802Y2758
X12802Y2758
X13802Y2758
X14802Y2758
X15802Y2758
X16802Y2758
X17802Y2758
X18802Y2758
X19802Y2758
X20802Y2758
T05
X15472Y7438
X14472Y7438
X14472Y8438
X15472Y8438
T06
X19991Y4188
T07
X20202Y8158
X1402Y8158
M30
