G75*
G70*
%OFA0B0*%
%FSLAX24Y24*%
%IPPOS*%
%LPD*%
%AMOC8*
5,1,8,0,0,1.08239X$1,22.5*
%
%ADD10C,0.0700*%
%ADD11C,0.0476*%
%ADD12C,0.0650*%
%ADD13C,0.0120*%
%ADD14C,0.0360*%
D10*
X003558Y005721D03*
X004558Y005721D03*
X005558Y005721D03*
X006558Y005721D03*
X007558Y005721D03*
X008558Y005721D03*
X009558Y005721D03*
X010558Y005721D03*
X011558Y005721D03*
X012558Y005721D03*
X013558Y005721D03*
X014558Y005721D03*
X015558Y005721D03*
X016558Y005721D03*
X017558Y005721D03*
X018558Y005721D03*
X019558Y005721D03*
X020558Y005721D03*
X021558Y005721D03*
X022558Y005721D03*
X023558Y005721D03*
X017358Y007621D03*
X016358Y007621D03*
X015358Y007621D03*
X014358Y007621D03*
X014358Y009071D03*
X018658Y011621D03*
X019658Y011621D03*
X020658Y011621D03*
X021658Y011621D03*
X020658Y010271D03*
X008758Y011621D03*
X007758Y011621D03*
X006758Y011621D03*
X005758Y011621D03*
D11*
X021104Y008871D03*
X021104Y007871D03*
X021104Y006871D03*
D12*
X012908Y008321D03*
X011908Y008321D03*
X010258Y008321D03*
X009258Y008321D03*
X007608Y008321D03*
X006608Y008321D03*
X004958Y008321D03*
X003958Y008321D03*
D13*
X004399Y008066D02*
X004517Y008066D01*
X004530Y008035D02*
X004458Y008209D01*
X004386Y008035D01*
X004244Y007893D01*
X004058Y007816D01*
X003858Y007816D01*
X003672Y007893D01*
X003530Y008035D01*
X003453Y008220D01*
X003453Y008421D01*
X003530Y008607D01*
X003672Y008749D01*
X003858Y008826D01*
X004058Y008826D01*
X004244Y008749D01*
X004386Y008607D01*
X004458Y008433D01*
X004530Y008607D01*
X004672Y008749D01*
X004858Y008826D01*
X005058Y008826D01*
X005244Y008749D01*
X005386Y008607D01*
X005463Y008421D01*
X005463Y008220D01*
X005444Y008174D01*
X005657Y007961D01*
X006254Y007961D01*
X006180Y008035D01*
X006103Y008220D01*
X006103Y008421D01*
X006180Y008607D01*
X006322Y008749D01*
X006508Y008826D01*
X006708Y008826D01*
X006894Y008749D01*
X007036Y008607D01*
X007108Y008433D01*
X007180Y008607D01*
X007322Y008749D01*
X007508Y008826D01*
X007708Y008826D01*
X007894Y008749D01*
X008036Y008607D01*
X008113Y008421D01*
X008113Y008220D01*
X008094Y008174D01*
X008307Y007961D01*
X008904Y007961D01*
X008830Y008035D01*
X008753Y008220D01*
X008753Y008421D01*
X008830Y008607D01*
X008972Y008749D01*
X009158Y008826D01*
X009358Y008826D01*
X009544Y008749D01*
X009686Y008607D01*
X009758Y008433D01*
X009830Y008607D01*
X009972Y008749D01*
X010158Y008826D01*
X010358Y008826D01*
X010544Y008749D01*
X010686Y008607D01*
X010763Y008421D01*
X010763Y008220D01*
X010686Y008035D01*
X010544Y007893D01*
X010358Y007816D01*
X010158Y007816D01*
X010112Y007835D01*
X009757Y007481D01*
X009559Y007481D01*
X008307Y007481D01*
X008109Y007481D01*
X005459Y007481D01*
X005318Y007621D01*
X005104Y007835D01*
X005058Y007816D01*
X004858Y007816D01*
X004672Y007893D01*
X004530Y008035D01*
X004618Y007947D02*
X004298Y007947D01*
X004089Y007829D02*
X004827Y007829D01*
X005089Y007829D02*
X005111Y007829D01*
X005229Y007710D02*
X003238Y007710D01*
X003238Y007592D02*
X005348Y007592D01*
X005558Y007721D02*
X008208Y007721D01*
X007608Y008321D01*
X008113Y008303D02*
X008753Y008303D01*
X008753Y008421D02*
X008113Y008421D01*
X008064Y008540D02*
X008802Y008540D01*
X008882Y008659D02*
X007984Y008659D01*
X007825Y008777D02*
X009040Y008777D01*
X009179Y008924D02*
X009033Y008985D01*
X008922Y009096D01*
X008861Y009242D01*
X008861Y009400D01*
X008922Y009545D01*
X009033Y009657D01*
X009179Y009717D01*
X009337Y009717D01*
X009483Y009657D01*
X009594Y009545D01*
X009654Y009400D01*
X009654Y009242D01*
X009594Y009096D01*
X009483Y008985D01*
X009337Y008924D01*
X009179Y008924D01*
X009004Y009014D02*
X007862Y009014D01*
X007833Y008985D02*
X007687Y008924D01*
X007529Y008924D01*
X007383Y008985D01*
X007272Y009096D01*
X007211Y009242D01*
X007211Y009400D01*
X007272Y009545D01*
X007383Y009657D01*
X007529Y009717D01*
X007687Y009717D01*
X007833Y009657D01*
X007944Y009545D01*
X008004Y009400D01*
X008004Y009242D01*
X007944Y009096D01*
X007833Y008985D01*
X007959Y009133D02*
X008907Y009133D01*
X008861Y009251D02*
X008004Y009251D01*
X008004Y009370D02*
X008861Y009370D01*
X008898Y009488D02*
X007968Y009488D01*
X007883Y009607D02*
X008983Y009607D01*
X009109Y009881D02*
X008968Y010021D01*
X008968Y010021D01*
X007888Y011101D01*
X007863Y011091D01*
X007652Y011091D01*
X007458Y011171D01*
X007309Y011321D01*
X007284Y011381D01*
X007232Y011381D01*
X007207Y011321D01*
X007058Y011171D01*
X006863Y011091D01*
X006652Y011091D01*
X006458Y011171D01*
X006309Y011321D01*
X006247Y011469D01*
X006190Y011332D01*
X006047Y011188D01*
X005859Y011111D01*
X005796Y011111D01*
X005796Y011582D01*
X005719Y011582D01*
X005719Y011111D01*
X005656Y011111D01*
X005469Y011188D01*
X005326Y011332D01*
X005308Y011375D01*
X005308Y010921D01*
X005296Y010772D01*
X005261Y010627D01*
X005204Y010489D01*
X005126Y010362D01*
X005030Y010249D01*
X004916Y010152D01*
X004789Y010074D01*
X004651Y010017D01*
X004507Y009982D01*
X004358Y009971D01*
X003238Y009971D01*
X003238Y006150D01*
X003258Y006170D01*
X003452Y006251D01*
X003663Y006251D01*
X003858Y006170D01*
X004007Y006021D01*
X004058Y005899D01*
X004109Y006021D01*
X004258Y006170D01*
X004452Y006251D01*
X004663Y006251D01*
X004858Y006170D01*
X005007Y006021D01*
X005058Y005899D01*
X005109Y006021D01*
X005258Y006170D01*
X005452Y006251D01*
X005663Y006251D01*
X005858Y006170D01*
X006007Y006021D01*
X006058Y005899D01*
X006109Y006021D01*
X006258Y006170D01*
X006452Y006251D01*
X006663Y006251D01*
X006858Y006170D01*
X007007Y006021D01*
X007058Y005899D01*
X007109Y006021D01*
X007258Y006170D01*
X007452Y006251D01*
X007663Y006251D01*
X007858Y006170D01*
X008007Y006021D01*
X008058Y005899D01*
X008109Y006021D01*
X008258Y006170D01*
X008452Y006251D01*
X008663Y006251D01*
X008858Y006170D01*
X009007Y006021D01*
X009058Y005899D01*
X009109Y006021D01*
X009258Y006170D01*
X009452Y006251D01*
X009663Y006251D01*
X009858Y006170D01*
X010007Y006021D01*
X010058Y005899D01*
X010109Y006021D01*
X010258Y006170D01*
X010452Y006251D01*
X010663Y006251D01*
X010858Y006170D01*
X011007Y006021D01*
X011058Y005899D01*
X011109Y006021D01*
X011258Y006170D01*
X011452Y006251D01*
X011663Y006251D01*
X011858Y006170D01*
X012007Y006021D01*
X012058Y005899D01*
X012109Y006021D01*
X012258Y006170D01*
X012318Y006195D01*
X012318Y006221D01*
X010959Y007581D01*
X010818Y007721D01*
X010818Y009471D01*
X010409Y009881D01*
X009109Y009881D01*
X009027Y009963D02*
X003238Y009963D01*
X003238Y009844D02*
X010445Y009844D01*
X010337Y009717D02*
X010483Y009657D01*
X010594Y009545D01*
X010654Y009400D01*
X010654Y009242D01*
X010594Y009096D01*
X010483Y008985D01*
X010337Y008924D01*
X010179Y008924D01*
X010033Y008985D01*
X009922Y009096D01*
X009861Y009242D01*
X009861Y009400D01*
X009922Y009545D01*
X010033Y009657D01*
X010179Y009717D01*
X010337Y009717D01*
X010533Y009607D02*
X010682Y009607D01*
X010618Y009488D02*
X010801Y009488D01*
X010818Y009370D02*
X010654Y009370D01*
X010654Y009251D02*
X010818Y009251D01*
X010818Y009133D02*
X010609Y009133D01*
X010512Y009014D02*
X010818Y009014D01*
X010818Y008896D02*
X003238Y008896D01*
X003238Y009014D02*
X003704Y009014D01*
X003733Y008985D02*
X003622Y009096D01*
X003561Y009242D01*
X003561Y009400D01*
X003622Y009545D01*
X003733Y009657D01*
X003879Y009717D01*
X004037Y009717D01*
X004183Y009657D01*
X004294Y009545D01*
X004354Y009400D01*
X004354Y009242D01*
X004294Y009096D01*
X004183Y008985D01*
X004037Y008924D01*
X003879Y008924D01*
X003733Y008985D01*
X003607Y009133D02*
X003238Y009133D01*
X003238Y009251D02*
X003561Y009251D01*
X003561Y009370D02*
X003238Y009370D01*
X003238Y009488D02*
X003598Y009488D01*
X003683Y009607D02*
X003238Y009607D01*
X003238Y009725D02*
X010564Y009725D01*
X010508Y010121D02*
X011058Y009571D01*
X011058Y007821D01*
X012558Y006321D01*
X012558Y005721D01*
X013044Y005932D02*
X013072Y005932D01*
X013058Y005899D02*
X013109Y006021D01*
X013258Y006170D01*
X013452Y006251D01*
X013589Y006251D01*
X012809Y007031D01*
X012668Y007171D01*
X012668Y007874D01*
X012622Y007893D01*
X012480Y008035D01*
X012408Y008209D01*
X012336Y008035D01*
X012194Y007893D01*
X012008Y007816D01*
X011808Y007816D01*
X011622Y007893D01*
X011480Y008035D01*
X011403Y008220D01*
X011403Y008421D01*
X011480Y008607D01*
X011622Y008749D01*
X011808Y008826D01*
X012008Y008826D01*
X012194Y008749D01*
X012336Y008607D01*
X012408Y008433D01*
X012480Y008607D01*
X012622Y008749D01*
X012808Y008826D01*
X013008Y008826D01*
X013194Y008749D01*
X013336Y008607D01*
X013413Y008421D01*
X013413Y008220D01*
X013336Y008035D01*
X013194Y007893D01*
X013148Y007874D01*
X013148Y007370D01*
X014007Y006511D01*
X015107Y006511D01*
X015248Y006370D01*
X015392Y006226D01*
X015452Y006251D01*
X015663Y006251D01*
X015858Y006170D01*
X016007Y006021D01*
X016058Y005899D01*
X016109Y006021D01*
X016258Y006170D01*
X016452Y006251D01*
X016663Y006251D01*
X016858Y006170D01*
X017007Y006021D01*
X017058Y005899D01*
X017109Y006021D01*
X017258Y006170D01*
X017407Y006232D01*
X016524Y007116D01*
X016463Y007091D01*
X016252Y007091D01*
X016058Y007171D01*
X015909Y007321D01*
X015858Y007443D01*
X015807Y007321D01*
X015658Y007171D01*
X015463Y007091D01*
X015252Y007091D01*
X015058Y007171D01*
X014909Y007321D01*
X014858Y007443D01*
X014807Y007321D01*
X014658Y007171D01*
X014463Y007091D01*
X014252Y007091D01*
X014058Y007171D01*
X013909Y007321D01*
X013828Y007515D01*
X013828Y007726D01*
X013909Y007921D01*
X014058Y008070D01*
X014252Y008151D01*
X014463Y008151D01*
X014658Y008070D01*
X014807Y007921D01*
X014858Y007799D01*
X014909Y007921D01*
X015058Y008070D01*
X015252Y008151D01*
X015463Y008151D01*
X015524Y008126D01*
X016009Y008611D01*
X016207Y008611D01*
X020773Y008611D01*
X020749Y008634D01*
X020686Y008788D01*
X020686Y008954D01*
X020749Y009107D01*
X020867Y009225D01*
X021020Y009289D01*
X021187Y009289D01*
X021340Y009225D01*
X021458Y009107D01*
X021521Y008954D01*
X021521Y008788D01*
X021458Y008634D01*
X021434Y008611D01*
X021657Y008611D01*
X021798Y008470D01*
X022657Y007611D01*
X022798Y007470D01*
X022798Y006195D01*
X022858Y006170D01*
X023007Y006021D01*
X023069Y005872D01*
X023126Y006010D01*
X023269Y006153D01*
X023456Y006231D01*
X023519Y006231D01*
X023519Y005759D01*
X023596Y005759D01*
X023596Y006231D01*
X023659Y006231D01*
X023847Y006153D01*
X023878Y006122D01*
X023878Y009971D01*
X022758Y009971D01*
X022609Y009982D01*
X022464Y010017D01*
X022327Y010074D01*
X022200Y010152D01*
X022086Y010249D01*
X021989Y010362D01*
X021911Y010489D01*
X021854Y010627D01*
X021820Y010772D01*
X021808Y010921D01*
X021808Y011081D01*
X021757Y011031D01*
X021163Y010436D01*
X021188Y010376D01*
X021188Y010165D01*
X021107Y009971D01*
X020958Y009821D01*
X020763Y009741D01*
X020552Y009741D01*
X020358Y009821D01*
X020209Y009971D01*
X020128Y010165D01*
X020128Y010376D01*
X020209Y010571D01*
X020358Y010720D01*
X020552Y010801D01*
X020763Y010801D01*
X020824Y010776D01*
X021289Y011241D01*
X021209Y011321D01*
X021147Y011469D01*
X021090Y011332D01*
X020947Y011188D01*
X020759Y011111D01*
X020696Y011111D01*
X020696Y011582D01*
X020619Y011582D01*
X020619Y011659D01*
X020168Y011659D01*
X019697Y011659D01*
X019697Y011582D01*
X020168Y011582D01*
X020619Y011582D01*
X020619Y011111D01*
X020556Y011111D01*
X020369Y011188D01*
X020226Y011332D01*
X020158Y011495D01*
X020090Y011332D01*
X019947Y011188D01*
X019759Y011111D01*
X019696Y011111D01*
X019696Y011582D01*
X019619Y011582D01*
X019619Y011111D01*
X019556Y011111D01*
X019369Y011188D01*
X019226Y011332D01*
X019169Y011469D01*
X019107Y011321D01*
X018958Y011171D01*
X018763Y011091D01*
X018552Y011091D01*
X018358Y011171D01*
X018209Y011321D01*
X018128Y011515D01*
X018128Y011726D01*
X018209Y011921D01*
X018328Y012041D01*
X009087Y012041D01*
X009207Y011921D01*
X009288Y011726D01*
X009288Y011515D01*
X009207Y011321D01*
X009058Y011171D01*
X008863Y011091D01*
X008652Y011091D01*
X008524Y011144D01*
X009307Y010361D01*
X010607Y010361D01*
X010748Y010220D01*
X011298Y009670D01*
X011298Y009471D01*
X011298Y007920D01*
X012798Y006420D01*
X012798Y006221D01*
X012798Y006195D01*
X012858Y006170D01*
X013007Y006021D01*
X013058Y005899D01*
X013138Y006051D02*
X012978Y006051D01*
X012859Y006169D02*
X013257Y006169D01*
X013552Y006288D02*
X012798Y006288D01*
X012798Y006406D02*
X013433Y006406D01*
X013315Y006525D02*
X012693Y006525D01*
X012575Y006643D02*
X013196Y006643D01*
X013078Y006762D02*
X012456Y006762D01*
X012338Y006880D02*
X012959Y006880D01*
X012840Y006999D02*
X012219Y006999D01*
X012101Y007117D02*
X012722Y007117D01*
X012668Y007236D02*
X011982Y007236D01*
X011864Y007355D02*
X012668Y007355D01*
X012668Y007473D02*
X011745Y007473D01*
X011626Y007592D02*
X012668Y007592D01*
X012668Y007710D02*
X011508Y007710D01*
X011389Y007829D02*
X011777Y007829D01*
X011568Y007947D02*
X011298Y007947D01*
X011298Y008066D02*
X011467Y008066D01*
X011418Y008184D02*
X011298Y008184D01*
X011298Y008303D02*
X011403Y008303D01*
X011403Y008421D02*
X011298Y008421D01*
X011298Y008540D02*
X011452Y008540D01*
X011532Y008659D02*
X011298Y008659D01*
X011298Y008777D02*
X011690Y008777D01*
X011829Y008924D02*
X011683Y008985D01*
X011572Y009096D01*
X011511Y009242D01*
X011511Y009400D01*
X011572Y009545D01*
X011683Y009657D01*
X011829Y009717D01*
X011987Y009717D01*
X012133Y009657D01*
X012244Y009545D01*
X012304Y009400D01*
X012304Y009242D01*
X012244Y009096D01*
X012133Y008985D01*
X011987Y008924D01*
X011829Y008924D01*
X011654Y009014D02*
X011298Y009014D01*
X011298Y008896D02*
X013857Y008896D01*
X013828Y008965D02*
X013909Y008771D01*
X014058Y008621D01*
X014252Y008541D01*
X014463Y008541D01*
X014658Y008621D01*
X014807Y008771D01*
X014888Y008965D01*
X014888Y009176D01*
X014807Y009371D01*
X014658Y009520D01*
X014463Y009601D01*
X014252Y009601D01*
X014058Y009520D01*
X013909Y009371D01*
X013828Y009176D01*
X013828Y008965D01*
X013828Y009014D02*
X013162Y009014D01*
X013133Y008985D02*
X012987Y008924D01*
X012829Y008924D01*
X012683Y008985D01*
X012572Y009096D01*
X012511Y009242D01*
X012511Y009400D01*
X012572Y009545D01*
X012683Y009657D01*
X012829Y009717D01*
X012987Y009717D01*
X013133Y009657D01*
X013244Y009545D01*
X013304Y009400D01*
X013304Y009242D01*
X013244Y009096D01*
X013133Y008985D01*
X013259Y009133D02*
X013828Y009133D01*
X013859Y009251D02*
X013304Y009251D01*
X013304Y009370D02*
X013908Y009370D01*
X014026Y009488D02*
X013268Y009488D01*
X013183Y009607D02*
X023878Y009607D01*
X023878Y009725D02*
X011243Y009725D01*
X011298Y009607D02*
X011633Y009607D01*
X011548Y009488D02*
X011298Y009488D01*
X011298Y009370D02*
X011511Y009370D01*
X011511Y009251D02*
X011298Y009251D01*
X011298Y009133D02*
X011557Y009133D01*
X012162Y009014D02*
X012654Y009014D01*
X012557Y009133D02*
X012259Y009133D01*
X012304Y009251D02*
X012511Y009251D01*
X012511Y009370D02*
X012304Y009370D01*
X012268Y009488D02*
X012548Y009488D01*
X012633Y009607D02*
X012183Y009607D01*
X011124Y009844D02*
X020335Y009844D01*
X020217Y009963D02*
X011006Y009963D01*
X010887Y010081D02*
X020163Y010081D01*
X020128Y010200D02*
X010768Y010200D01*
X010650Y010318D02*
X020128Y010318D01*
X020153Y010437D02*
X009231Y010437D01*
X009113Y010555D02*
X020202Y010555D01*
X020311Y010674D02*
X008994Y010674D01*
X008876Y010792D02*
X020532Y010792D01*
X020784Y010792D02*
X020840Y010792D01*
X020959Y010911D02*
X008757Y010911D01*
X008639Y011029D02*
X021077Y011029D01*
X021196Y011148D02*
X020849Y011148D01*
X020696Y011148D02*
X020619Y011148D01*
X020619Y011266D02*
X020696Y011266D01*
X020696Y011385D02*
X020619Y011385D01*
X020619Y011504D02*
X020696Y011504D01*
X020619Y011622D02*
X019697Y011622D01*
X019696Y011504D02*
X019619Y011504D01*
X019619Y011385D02*
X019696Y011385D01*
X019696Y011266D02*
X019619Y011266D01*
X019619Y011148D02*
X019696Y011148D01*
X019849Y011148D02*
X020467Y011148D01*
X020291Y011266D02*
X020025Y011266D01*
X020112Y011385D02*
X020204Y011385D01*
X019467Y011148D02*
X018901Y011148D01*
X019053Y011266D02*
X019291Y011266D01*
X019204Y011385D02*
X019134Y011385D01*
X018414Y011148D02*
X009001Y011148D01*
X009153Y011266D02*
X018263Y011266D01*
X018182Y011385D02*
X009234Y011385D01*
X009283Y011504D02*
X018133Y011504D01*
X018128Y011622D02*
X009288Y011622D01*
X009282Y011741D02*
X018134Y011741D01*
X018183Y011859D02*
X009233Y011859D01*
X009150Y011978D02*
X018265Y011978D01*
X021025Y011266D02*
X021263Y011266D01*
X021182Y011385D02*
X021112Y011385D01*
X021658Y011271D02*
X021658Y011621D01*
X021658Y011271D02*
X020658Y010271D01*
X021153Y010081D02*
X022316Y010081D01*
X022144Y010200D02*
X021188Y010200D01*
X021188Y010318D02*
X022027Y010318D01*
X021944Y010437D02*
X021163Y010437D01*
X021282Y010555D02*
X021884Y010555D01*
X021843Y010674D02*
X021400Y010674D01*
X021519Y010792D02*
X021818Y010792D01*
X021809Y010911D02*
X021637Y010911D01*
X021756Y011029D02*
X021808Y011029D01*
X021099Y009963D02*
X023878Y009963D01*
X023878Y009844D02*
X020981Y009844D01*
X020930Y009251D02*
X014857Y009251D01*
X014888Y009133D02*
X020775Y009133D01*
X020711Y009014D02*
X014888Y009014D01*
X014859Y008896D02*
X020686Y008896D01*
X020690Y008777D02*
X014810Y008777D01*
X014695Y008659D02*
X020739Y008659D01*
X021468Y008659D02*
X023878Y008659D01*
X023878Y008777D02*
X021517Y008777D01*
X021521Y008896D02*
X023878Y008896D01*
X023878Y009014D02*
X021496Y009014D01*
X021433Y009133D02*
X023878Y009133D01*
X023878Y009251D02*
X021277Y009251D01*
X021728Y008540D02*
X023878Y008540D01*
X023878Y008421D02*
X021847Y008421D01*
X021965Y008303D02*
X023878Y008303D01*
X023878Y008184D02*
X022084Y008184D01*
X022202Y008066D02*
X023878Y008066D01*
X023878Y007947D02*
X022321Y007947D01*
X022439Y007829D02*
X023878Y007829D01*
X023878Y007710D02*
X022558Y007710D01*
X022676Y007592D02*
X023878Y007592D01*
X023878Y007473D02*
X022795Y007473D01*
X022798Y007355D02*
X023878Y007355D01*
X023878Y007236D02*
X022798Y007236D01*
X022798Y007117D02*
X023878Y007117D01*
X023878Y006999D02*
X022798Y006999D01*
X022798Y006880D02*
X023878Y006880D01*
X023878Y006762D02*
X022798Y006762D01*
X022798Y006643D02*
X023878Y006643D01*
X023878Y006525D02*
X022798Y006525D01*
X022798Y006406D02*
X023878Y006406D01*
X023878Y006288D02*
X022798Y006288D01*
X022859Y006169D02*
X023308Y006169D01*
X023167Y006051D02*
X022978Y006051D01*
X023044Y005932D02*
X023093Y005932D01*
X023519Y005932D02*
X023596Y005932D01*
X023596Y005814D02*
X023519Y005814D01*
X023519Y006051D02*
X023596Y006051D01*
X023596Y006169D02*
X023519Y006169D01*
X023808Y006169D02*
X023878Y006169D01*
X022558Y005721D02*
X022558Y007371D01*
X021558Y008371D01*
X016108Y008371D01*
X015358Y007621D01*
X014895Y007355D02*
X014821Y007355D01*
X014723Y007236D02*
X014993Y007236D01*
X015188Y007117D02*
X014528Y007117D01*
X014188Y007117D02*
X013401Y007117D01*
X013519Y006999D02*
X016640Y006999D01*
X016759Y006880D02*
X013638Y006880D01*
X013756Y006762D02*
X016878Y006762D01*
X016996Y006643D02*
X013875Y006643D01*
X013993Y006525D02*
X017115Y006525D01*
X017233Y006406D02*
X015212Y006406D01*
X015330Y006288D02*
X017352Y006288D01*
X017257Y006169D02*
X016859Y006169D01*
X016978Y006051D02*
X017138Y006051D01*
X017072Y005932D02*
X017044Y005932D01*
X017758Y006221D02*
X016358Y007621D01*
X016845Y007829D02*
X016892Y007829D01*
X016869Y007772D02*
X016926Y007910D01*
X017069Y008053D01*
X017256Y008131D01*
X017319Y008131D01*
X017319Y007659D01*
X017396Y007659D01*
X017396Y008131D01*
X017459Y008131D01*
X017647Y008053D01*
X017790Y007910D01*
X017868Y007722D01*
X017868Y007659D01*
X017397Y007659D01*
X017397Y007582D01*
X017868Y007582D01*
X017868Y007519D01*
X017790Y007332D01*
X017647Y007188D01*
X017459Y007111D01*
X017396Y007111D01*
X017396Y007582D01*
X017319Y007582D01*
X017319Y007111D01*
X017256Y007111D01*
X017172Y007146D01*
X017857Y006461D01*
X018157Y006461D01*
X018298Y006320D01*
X018392Y006226D01*
X018452Y006251D01*
X018663Y006251D01*
X018858Y006170D01*
X019007Y006021D01*
X019058Y005899D01*
X019109Y006021D01*
X019258Y006170D01*
X019452Y006251D01*
X019663Y006251D01*
X019858Y006170D01*
X020007Y006021D01*
X020058Y005899D01*
X020109Y006021D01*
X020258Y006170D01*
X020452Y006251D01*
X020663Y006251D01*
X020858Y006170D01*
X021007Y006021D01*
X021058Y005899D01*
X021109Y006021D01*
X021258Y006170D01*
X021452Y006251D01*
X021663Y006251D01*
X021858Y006170D01*
X022007Y006021D01*
X022058Y005899D01*
X022109Y006021D01*
X022258Y006170D01*
X022318Y006195D01*
X022318Y007271D01*
X021459Y008131D01*
X021406Y008131D01*
X021441Y008096D01*
X021501Y007950D01*
X021501Y007880D01*
X021113Y007880D01*
X021113Y007862D01*
X021501Y007862D01*
X021501Y007792D01*
X021441Y007645D01*
X021329Y007534D01*
X021183Y007473D01*
X022116Y007473D01*
X021998Y007592D02*
X021387Y007592D01*
X021468Y007710D02*
X021879Y007710D01*
X021761Y007829D02*
X021501Y007829D01*
X021501Y007947D02*
X021642Y007947D01*
X021524Y008066D02*
X021453Y008066D01*
X021113Y007862D02*
X021095Y007862D01*
X021095Y007473D01*
X021113Y007473D01*
X021113Y007862D01*
X021094Y007862D02*
X021094Y007880D01*
X020706Y007880D01*
X020706Y007950D01*
X020766Y008096D01*
X020801Y008131D01*
X016511Y008131D01*
X016658Y008070D01*
X016807Y007921D01*
X016869Y007772D01*
X016781Y007947D02*
X016963Y007947D01*
X017100Y008066D02*
X016662Y008066D01*
X017319Y008066D02*
X017396Y008066D01*
X017396Y007947D02*
X017319Y007947D01*
X017319Y007829D02*
X017396Y007829D01*
X017396Y007710D02*
X017319Y007710D01*
X017397Y007592D02*
X020820Y007592D01*
X020766Y007645D02*
X020706Y007792D01*
X020706Y007862D01*
X021094Y007862D01*
X021095Y007829D02*
X021113Y007829D01*
X021113Y007710D02*
X021095Y007710D01*
X021095Y007592D02*
X021113Y007592D01*
X021113Y007473D02*
X021183Y007473D01*
X021095Y007473D02*
X021024Y007473D01*
X017849Y007473D01*
X017800Y007355D02*
X022235Y007355D01*
X022318Y007236D02*
X021314Y007236D01*
X021340Y007225D02*
X021458Y007107D01*
X021521Y006954D01*
X021521Y006788D01*
X021458Y006634D01*
X021340Y006517D01*
X021187Y006453D01*
X021020Y006453D01*
X020867Y006517D01*
X020749Y006634D01*
X020686Y006788D01*
X020686Y006954D01*
X020749Y007107D01*
X020867Y007225D01*
X021020Y007289D01*
X021187Y007289D01*
X021340Y007225D01*
X021448Y007117D02*
X022318Y007117D01*
X022318Y006999D02*
X021503Y006999D01*
X021521Y006880D02*
X022318Y006880D01*
X022318Y006762D02*
X021511Y006762D01*
X021462Y006643D02*
X022318Y006643D01*
X022318Y006525D02*
X021348Y006525D01*
X020859Y006525D02*
X017793Y006525D01*
X017675Y006643D02*
X020746Y006643D01*
X020697Y006762D02*
X017556Y006762D01*
X017438Y006880D02*
X020686Y006880D01*
X020704Y006999D02*
X017319Y006999D01*
X017319Y007117D02*
X017396Y007117D01*
X017476Y007117D02*
X020759Y007117D01*
X020894Y007236D02*
X017694Y007236D01*
X017396Y007236D02*
X017319Y007236D01*
X017319Y007355D02*
X017396Y007355D01*
X017396Y007473D02*
X017319Y007473D01*
X017240Y007117D02*
X017201Y007117D01*
X016188Y007117D02*
X015528Y007117D01*
X015723Y007236D02*
X015993Y007236D01*
X015895Y007355D02*
X015821Y007355D01*
X014870Y007829D02*
X014845Y007829D01*
X014781Y007947D02*
X014935Y007947D01*
X015053Y008066D02*
X014662Y008066D01*
X014053Y008066D02*
X013349Y008066D01*
X013398Y008184D02*
X015582Y008184D01*
X015701Y008303D02*
X013413Y008303D01*
X013413Y008421D02*
X015819Y008421D01*
X015938Y008540D02*
X013364Y008540D01*
X013284Y008659D02*
X014021Y008659D01*
X013906Y008777D02*
X013125Y008777D01*
X012690Y008777D02*
X012125Y008777D01*
X012284Y008659D02*
X012532Y008659D01*
X012452Y008540D02*
X012363Y008540D01*
X012908Y008321D02*
X012908Y007271D01*
X013908Y006271D01*
X015008Y006271D01*
X015558Y005721D01*
X016044Y005932D02*
X016072Y005932D01*
X016138Y006051D02*
X015978Y006051D01*
X015859Y006169D02*
X016257Y006169D01*
X017758Y006221D02*
X018058Y006221D01*
X018558Y005721D01*
X019044Y005932D02*
X019072Y005932D01*
X019138Y006051D02*
X018978Y006051D01*
X018859Y006169D02*
X019257Y006169D01*
X019859Y006169D02*
X020257Y006169D01*
X020138Y006051D02*
X019978Y006051D01*
X020044Y005932D02*
X020072Y005932D01*
X020859Y006169D02*
X021257Y006169D01*
X021138Y006051D02*
X020978Y006051D01*
X021044Y005932D02*
X021072Y005932D01*
X021859Y006169D02*
X022257Y006169D01*
X022318Y006288D02*
X018330Y006288D01*
X018212Y006406D02*
X022318Y006406D01*
X022138Y006051D02*
X021978Y006051D01*
X022044Y005932D02*
X022072Y005932D01*
X022558Y005721D02*
X022558Y005671D01*
X021024Y007473D02*
X020878Y007534D01*
X020766Y007645D01*
X020740Y007710D02*
X017868Y007710D01*
X017824Y007829D02*
X020706Y007829D01*
X020706Y007947D02*
X017753Y007947D01*
X017616Y008066D02*
X020754Y008066D01*
X023878Y009370D02*
X014808Y009370D01*
X014690Y009488D02*
X023878Y009488D01*
X013935Y007947D02*
X013248Y007947D01*
X013148Y007829D02*
X013870Y007829D01*
X013828Y007710D02*
X013148Y007710D01*
X013148Y007592D02*
X013828Y007592D01*
X013845Y007473D02*
X013148Y007473D01*
X013164Y007355D02*
X013895Y007355D01*
X013993Y007236D02*
X013282Y007236D01*
X012668Y007829D02*
X012039Y007829D01*
X012248Y007947D02*
X012568Y007947D01*
X012467Y008066D02*
X012349Y008066D01*
X012398Y008184D02*
X012418Y008184D01*
X011185Y007355D02*
X003238Y007355D01*
X003238Y007473D02*
X011066Y007473D01*
X010948Y007592D02*
X009868Y007592D01*
X009987Y007710D02*
X010829Y007710D01*
X010818Y007829D02*
X010389Y007829D01*
X010598Y007947D02*
X010818Y007947D01*
X010818Y008066D02*
X010699Y008066D01*
X010748Y008184D02*
X010818Y008184D01*
X010818Y008303D02*
X010763Y008303D01*
X010763Y008421D02*
X010818Y008421D01*
X010818Y008540D02*
X010714Y008540D01*
X010634Y008659D02*
X010818Y008659D01*
X010818Y008777D02*
X010475Y008777D01*
X010040Y008777D02*
X009475Y008777D01*
X009634Y008659D02*
X009882Y008659D01*
X009802Y008540D02*
X009713Y008540D01*
X010258Y008321D02*
X009658Y007721D01*
X008208Y007721D01*
X008202Y008066D02*
X008817Y008066D01*
X008768Y008184D02*
X008098Y008184D01*
X007232Y008659D02*
X006984Y008659D01*
X007063Y008540D02*
X007152Y008540D01*
X007390Y008777D02*
X006825Y008777D01*
X006687Y008924D02*
X006833Y008985D01*
X006944Y009096D01*
X007004Y009242D01*
X007004Y009400D01*
X006944Y009545D01*
X006833Y009657D01*
X006687Y009717D01*
X006529Y009717D01*
X006383Y009657D01*
X006272Y009545D01*
X006211Y009400D01*
X006211Y009242D01*
X006272Y009096D01*
X006383Y008985D01*
X006529Y008924D01*
X006687Y008924D01*
X006862Y009014D02*
X007354Y009014D01*
X007257Y009133D02*
X006959Y009133D01*
X007004Y009251D02*
X007211Y009251D01*
X007211Y009370D02*
X007004Y009370D01*
X006968Y009488D02*
X007248Y009488D01*
X007333Y009607D02*
X006883Y009607D01*
X006333Y009607D02*
X005233Y009607D01*
X005183Y009657D02*
X005294Y009545D01*
X005354Y009400D01*
X005354Y009242D01*
X005294Y009096D01*
X005183Y008985D01*
X005037Y008924D01*
X004879Y008924D01*
X004733Y008985D01*
X004622Y009096D01*
X004561Y009242D01*
X004561Y009400D01*
X004622Y009545D01*
X004733Y009657D01*
X004879Y009717D01*
X005037Y009717D01*
X005183Y009657D01*
X005318Y009488D02*
X006248Y009488D01*
X006211Y009370D02*
X005354Y009370D01*
X005354Y009251D02*
X006211Y009251D01*
X006257Y009133D02*
X005309Y009133D01*
X005212Y009014D02*
X006354Y009014D01*
X006390Y008777D02*
X005175Y008777D01*
X005334Y008659D02*
X006232Y008659D01*
X006152Y008540D02*
X005414Y008540D01*
X005463Y008421D02*
X006103Y008421D01*
X006103Y008303D02*
X005463Y008303D01*
X005448Y008184D02*
X006118Y008184D01*
X006167Y008066D02*
X005552Y008066D01*
X005558Y007721D02*
X004958Y008321D01*
X004502Y008540D02*
X004413Y008540D01*
X004334Y008659D02*
X004582Y008659D01*
X004740Y008777D02*
X004175Y008777D01*
X004212Y009014D02*
X004704Y009014D01*
X004607Y009133D02*
X004309Y009133D01*
X004354Y009251D02*
X004561Y009251D01*
X004561Y009370D02*
X004354Y009370D01*
X004318Y009488D02*
X004598Y009488D01*
X004683Y009607D02*
X004233Y009607D01*
X004800Y010081D02*
X008908Y010081D01*
X008790Y010200D02*
X004972Y010200D01*
X005089Y010318D02*
X008671Y010318D01*
X008553Y010437D02*
X005172Y010437D01*
X005232Y010555D02*
X008434Y010555D01*
X008316Y010674D02*
X005273Y010674D01*
X005298Y010792D02*
X008197Y010792D01*
X008079Y010911D02*
X005307Y010911D01*
X005308Y011029D02*
X007960Y011029D01*
X007514Y011148D02*
X007001Y011148D01*
X007153Y011266D02*
X007363Y011266D01*
X007758Y011571D02*
X009208Y010121D01*
X010508Y010121D01*
X009983Y009607D02*
X009533Y009607D01*
X009618Y009488D02*
X009898Y009488D01*
X009861Y009370D02*
X009654Y009370D01*
X009654Y009251D02*
X009861Y009251D01*
X009907Y009133D02*
X009609Y009133D01*
X009512Y009014D02*
X010004Y009014D01*
X010105Y007829D02*
X010127Y007829D01*
X011303Y007236D02*
X003238Y007236D01*
X003238Y007117D02*
X011422Y007117D01*
X011540Y006999D02*
X003238Y006999D01*
X003238Y006880D02*
X011659Y006880D01*
X011777Y006762D02*
X003238Y006762D01*
X003238Y006643D02*
X011896Y006643D01*
X012015Y006525D02*
X003238Y006525D01*
X003238Y006406D02*
X012133Y006406D01*
X012252Y006288D02*
X003238Y006288D01*
X003238Y006169D02*
X003257Y006169D01*
X003859Y006169D02*
X004257Y006169D01*
X004138Y006051D02*
X003978Y006051D01*
X004044Y005932D02*
X004072Y005932D01*
X004859Y006169D02*
X005257Y006169D01*
X005138Y006051D02*
X004978Y006051D01*
X005044Y005932D02*
X005072Y005932D01*
X005859Y006169D02*
X006257Y006169D01*
X006138Y006051D02*
X005978Y006051D01*
X006044Y005932D02*
X006072Y005932D01*
X006859Y006169D02*
X007257Y006169D01*
X007138Y006051D02*
X006978Y006051D01*
X007044Y005932D02*
X007072Y005932D01*
X007859Y006169D02*
X008257Y006169D01*
X008138Y006051D02*
X007978Y006051D01*
X008044Y005932D02*
X008072Y005932D01*
X008859Y006169D02*
X009257Y006169D01*
X009138Y006051D02*
X008978Y006051D01*
X009044Y005932D02*
X009072Y005932D01*
X009859Y006169D02*
X010257Y006169D01*
X010138Y006051D02*
X009978Y006051D01*
X010044Y005932D02*
X010072Y005932D01*
X010859Y006169D02*
X011257Y006169D01*
X011138Y006051D02*
X010978Y006051D01*
X011044Y005932D02*
X011072Y005932D01*
X011859Y006169D02*
X012257Y006169D01*
X012138Y006051D02*
X011978Y006051D01*
X012044Y005932D02*
X012072Y005932D01*
X004468Y008184D02*
X004448Y008184D01*
X003827Y007829D02*
X003238Y007829D01*
X003238Y007947D02*
X003618Y007947D01*
X003517Y008066D02*
X003238Y008066D01*
X003238Y008184D02*
X003468Y008184D01*
X003453Y008303D02*
X003238Y008303D01*
X003238Y008421D02*
X003453Y008421D01*
X003502Y008540D02*
X003238Y008540D01*
X003238Y008659D02*
X003582Y008659D01*
X003740Y008777D02*
X003238Y008777D01*
X005308Y011148D02*
X005567Y011148D01*
X005719Y011148D02*
X005796Y011148D01*
X005796Y011266D02*
X005719Y011266D01*
X005719Y011385D02*
X005796Y011385D01*
X005796Y011504D02*
X005719Y011504D01*
X005391Y011266D02*
X005308Y011266D01*
X005949Y011148D02*
X006514Y011148D01*
X006363Y011266D02*
X006125Y011266D01*
X006212Y011385D02*
X006282Y011385D01*
X006758Y011621D02*
X007758Y011621D01*
X007758Y011571D01*
D14*
X013808Y009621D03*
X014358Y009821D03*
X014908Y009621D03*
X015108Y009071D03*
X014908Y008521D03*
X013758Y008571D03*
X013708Y008071D03*
X013608Y007571D03*
X013808Y007071D03*
X014358Y006871D03*
X014858Y007021D03*
X013608Y009071D03*
X016808Y010071D03*
X019908Y010221D03*
X020108Y009721D03*
X020658Y009521D03*
X021208Y009721D03*
X021408Y010271D03*
X019908Y010771D03*
M02*
