%
M48
M72
T01C0.0160
T02C0.0276
T03C0.0394
T04C0.0433
T05C0.1063
%
T01
X11706Y6871
X11206Y7021
X12256Y7071
X12456Y7571
X12356Y8071
X12306Y8571
X12456Y9071
X12256Y9621
X11706Y9821
X11156Y9621
X10956Y9071
X11156Y8521
X9256Y10071
X6156Y10221
X5956Y9721
X5406Y9521
X4856Y9721
X4656Y10271
X6156Y10771
T02
X4960Y8871
X4960Y7871
X4960Y6871
T03
X2506Y5721
X3506Y5721
X4506Y5721
X5506Y5721
X6506Y5721
X7506Y5721
X8506Y5721
X9506Y5721
X10506Y5721
X11506Y5721
X12506Y5721
X13506Y5721
X14506Y5721
X15506Y5721
X16506Y5721
X17506Y5721
X18506Y5721
X19506Y5721
X20506Y5721
X21506Y5721
X22506Y5721
X20306Y11621
X19306Y11621
X18306Y11621
X17306Y11621
X11706Y9071
X11706Y7621
X10706Y7621
X9706Y7621
X8706Y7621
X5406Y10271
X5406Y11621
X6406Y11621
X7406Y11621
X4406Y11621
T04
X13156Y9321
X14156Y9321
X15806Y9321
X16806Y9321
X18456Y9321
X19456Y9321
X21106Y9321
X22106Y9321
X22106Y8321
X21106Y8321
X19456Y8321
X18456Y8321
X16806Y8321
X15806Y8321
X14156Y8321
X13156Y8321
T05
X21906Y11121
X3106Y11121
M30
