G75*
G70*
%OFA0B0*%
%FSLAX24Y24*%
%IPPOS*%
%LPD*%
%AMOC8*
5,1,8,0,0,1.08239X$1,22.5*
%
%ADD10C,0.0700*%
%ADD11R,0.0394X0.0433*%
%ADD12R,0.0433X0.0394*%
%ADD13C,0.0476*%
%ADD14C,0.0650*%
%ADD15R,0.0866X0.0354*%
%ADD16C,0.0120*%
%ADD17C,0.0360*%
D10*
X002506Y005721D03*
X003506Y005721D03*
X004506Y005721D03*
X005506Y005721D03*
X006506Y005721D03*
X007506Y005721D03*
X008506Y005721D03*
X009506Y005721D03*
X010506Y005721D03*
X011506Y005721D03*
X012506Y005721D03*
X013506Y005721D03*
X014506Y005721D03*
X015506Y005721D03*
X016506Y005721D03*
X017506Y005721D03*
X018506Y005721D03*
X019506Y005721D03*
X020506Y005721D03*
X021506Y005721D03*
X022506Y005721D03*
X020306Y011621D03*
X019306Y011621D03*
X018306Y011621D03*
X017306Y011621D03*
X011706Y009071D03*
X011706Y007621D03*
X010706Y007621D03*
X009706Y007621D03*
X008706Y007621D03*
X005406Y010271D03*
X005406Y011621D03*
X006406Y011621D03*
X007406Y011621D03*
X004406Y011621D03*
D11*
X002406Y008805D03*
X002406Y008136D03*
X013471Y006671D03*
X014140Y006671D03*
X016121Y006671D03*
X016790Y006671D03*
X018771Y006671D03*
X019440Y006671D03*
X021421Y006671D03*
X022090Y006671D03*
D12*
X017990Y010721D03*
X017321Y010721D03*
X009390Y008521D03*
X008721Y008521D03*
X007440Y010721D03*
X006771Y010721D03*
X002406Y007255D03*
X002406Y006586D03*
D13*
X004960Y006871D03*
X004960Y007871D03*
X004960Y008871D03*
D14*
X013156Y008321D03*
X014156Y008321D03*
X015806Y008321D03*
X016806Y008321D03*
X018456Y008321D03*
X019456Y008321D03*
X021106Y008321D03*
X022106Y008321D03*
D15*
X004056Y008521D03*
X004056Y008021D03*
X004056Y007521D03*
X004056Y007021D03*
D16*
X004156Y007121D01*
X004056Y007121D01*
X004806Y006371D01*
X005706Y006371D01*
X005706Y008125D01*
X004960Y008871D01*
X005353Y009014D02*
X009073Y009014D01*
X009041Y009046D02*
X009166Y008921D01*
X009166Y008898D01*
X009099Y008898D01*
X009041Y008840D01*
X009004Y008878D01*
X008759Y008878D01*
X008759Y008559D01*
X008683Y008559D01*
X008683Y008878D01*
X008438Y008878D01*
X008344Y008784D01*
X008344Y008559D01*
X008682Y008559D01*
X008682Y008482D01*
X008344Y008482D01*
X008344Y008258D01*
X008438Y008164D01*
X008683Y008164D01*
X008683Y008482D01*
X008759Y008482D01*
X008759Y008164D01*
X009004Y008164D01*
X009041Y008202D01*
X009099Y008144D01*
X009584Y008144D01*
X009405Y008070D01*
X009256Y007921D01*
X009195Y007772D01*
X009138Y007910D01*
X008995Y008053D01*
X008807Y008131D01*
X008744Y008131D01*
X008744Y007659D01*
X008667Y007659D01*
X008667Y007582D01*
X008744Y007582D01*
X008744Y007111D01*
X008807Y007111D01*
X008995Y007188D01*
X009138Y007332D01*
X009195Y007469D01*
X009256Y007321D01*
X009405Y007171D01*
X009600Y007091D01*
X009811Y007091D01*
X010006Y007171D01*
X010155Y007321D01*
X010206Y007443D01*
X010256Y007321D01*
X010405Y007171D01*
X010600Y007091D01*
X010811Y007091D01*
X011006Y007171D01*
X011155Y007321D01*
X011206Y007443D01*
X011256Y007321D01*
X011405Y007171D01*
X011600Y007091D01*
X011811Y007091D01*
X012006Y007171D01*
X012155Y007321D01*
X012236Y007515D01*
X012236Y007726D01*
X012155Y007921D01*
X012006Y008070D01*
X011946Y008095D01*
X011946Y008596D01*
X012006Y008621D01*
X012155Y008771D01*
X012236Y008965D01*
X012236Y009176D01*
X012155Y009371D01*
X012006Y009520D01*
X011811Y009601D01*
X011600Y009601D01*
X011405Y009520D01*
X011256Y009371D01*
X011176Y009176D01*
X011176Y008965D01*
X011256Y008771D01*
X011405Y008621D01*
X011466Y008596D01*
X011466Y008095D01*
X011405Y008070D01*
X011256Y007921D01*
X011206Y007799D01*
X011155Y007921D01*
X011006Y008070D01*
X010811Y008151D01*
X010600Y008151D01*
X010540Y008126D01*
X009905Y008761D01*
X009787Y008761D01*
X009787Y008792D01*
X009681Y008898D01*
X009646Y008898D01*
X009646Y009120D01*
X009620Y009146D01*
X010955Y010481D01*
X016924Y010481D01*
X016924Y010449D01*
X017030Y010344D01*
X017612Y010344D01*
X017670Y010402D01*
X017707Y010364D01*
X017952Y010364D01*
X017952Y010682D01*
X018029Y010682D01*
X018029Y010759D01*
X018367Y010759D01*
X018367Y010984D01*
X018273Y011078D01*
X018029Y011078D01*
X018029Y010759D01*
X017952Y010759D01*
X017952Y011078D01*
X017707Y011078D01*
X017670Y011040D01*
X017612Y011098D01*
X017546Y011098D01*
X017546Y011147D01*
X017606Y011171D01*
X017755Y011321D01*
X017806Y011443D01*
X017856Y011321D01*
X018005Y011171D01*
X018200Y011091D01*
X018411Y011091D01*
X018606Y011171D01*
X018755Y011321D01*
X018806Y011443D01*
X018856Y011321D01*
X019005Y011171D01*
X019200Y011091D01*
X019411Y011091D01*
X019606Y011171D01*
X019755Y011321D01*
X019816Y011469D01*
X019873Y011332D01*
X020017Y011188D01*
X020204Y011111D01*
X020267Y011111D01*
X020267Y011582D01*
X020344Y011582D01*
X020344Y011111D01*
X020407Y011111D01*
X020595Y011188D01*
X020738Y011332D01*
X020756Y011375D01*
X020756Y010921D01*
X020767Y010772D01*
X020802Y010627D01*
X020859Y010489D01*
X020937Y010362D01*
X021034Y010249D01*
X021147Y010152D01*
X021274Y010074D01*
X021412Y010017D01*
X021557Y009982D01*
X021706Y009971D01*
X022826Y009971D01*
X022826Y006150D01*
X022806Y006170D01*
X022611Y006251D01*
X022400Y006251D01*
X022205Y006170D01*
X022056Y006021D01*
X022006Y005899D01*
X021955Y006021D01*
X021806Y006170D01*
X021611Y006251D01*
X021400Y006251D01*
X021205Y006170D01*
X021056Y006021D01*
X021006Y005899D01*
X020955Y006021D01*
X020806Y006170D01*
X020611Y006251D01*
X020400Y006251D01*
X020205Y006170D01*
X020056Y006021D01*
X020006Y005899D01*
X019955Y006021D01*
X019806Y006170D01*
X019611Y006251D01*
X019400Y006251D01*
X019205Y006170D01*
X019056Y006021D01*
X019006Y005899D01*
X018955Y006021D01*
X018806Y006170D01*
X018611Y006251D01*
X018400Y006251D01*
X018205Y006170D01*
X018056Y006021D01*
X018006Y005899D01*
X017955Y006021D01*
X017806Y006170D01*
X017611Y006251D01*
X017400Y006251D01*
X017205Y006170D01*
X017056Y006021D01*
X017006Y005899D01*
X016955Y006021D01*
X016806Y006170D01*
X016611Y006251D01*
X016400Y006251D01*
X016205Y006170D01*
X016056Y006021D01*
X016006Y005899D01*
X015955Y006021D01*
X015806Y006170D01*
X015611Y006251D01*
X015400Y006251D01*
X015205Y006170D01*
X015056Y006021D01*
X015006Y005899D01*
X014955Y006021D01*
X014806Y006170D01*
X014611Y006251D01*
X014400Y006251D01*
X014205Y006170D01*
X014056Y006021D01*
X014006Y005899D01*
X013955Y006021D01*
X013806Y006170D01*
X013611Y006251D01*
X013400Y006251D01*
X013205Y006170D01*
X013056Y006021D01*
X013006Y005899D01*
X012955Y006021D01*
X012806Y006170D01*
X012611Y006251D01*
X012400Y006251D01*
X012205Y006170D01*
X012056Y006021D01*
X012006Y005899D01*
X011955Y006021D01*
X011806Y006170D01*
X011611Y006251D01*
X011400Y006251D01*
X011205Y006170D01*
X011056Y006021D01*
X011006Y005899D01*
X010955Y006021D01*
X010806Y006170D01*
X010611Y006251D01*
X010400Y006251D01*
X010205Y006170D01*
X010056Y006021D01*
X010006Y005899D01*
X009955Y006021D01*
X009806Y006170D01*
X009611Y006251D01*
X009400Y006251D01*
X009205Y006170D01*
X009056Y006021D01*
X009006Y005899D01*
X008955Y006021D01*
X008806Y006170D01*
X008611Y006251D01*
X008400Y006251D01*
X008269Y006196D01*
X007855Y006611D01*
X007656Y006611D01*
X005946Y006611D01*
X005946Y008224D01*
X005805Y008365D01*
X005378Y008792D01*
X005378Y008954D01*
X005314Y009107D01*
X005197Y009225D01*
X005043Y009289D01*
X004877Y009289D01*
X004723Y009225D01*
X004606Y009107D01*
X004542Y008954D01*
X004542Y008858D01*
X004084Y008858D01*
X004084Y008550D01*
X004027Y008550D01*
X004027Y008858D01*
X003556Y008858D01*
X003463Y008764D01*
X003463Y008549D01*
X004027Y008549D01*
X004027Y008492D01*
X004084Y008492D01*
X004084Y008358D01*
X004084Y008050D01*
X004027Y008050D01*
X004027Y008358D01*
X004027Y008492D01*
X003463Y008492D01*
X003463Y008277D01*
X003469Y008271D01*
X003463Y008264D01*
X003463Y008049D01*
X004027Y008049D01*
X004027Y007992D01*
X003463Y007992D01*
X003463Y007792D01*
X003443Y007772D01*
X003443Y007761D01*
X002698Y007761D01*
X002782Y007845D01*
X002782Y008427D01*
X002725Y008485D01*
X002762Y008523D01*
X002762Y008767D01*
X002444Y008767D01*
X002444Y008844D01*
X002367Y008844D01*
X002367Y009182D01*
X002186Y009182D01*
X002186Y009971D01*
X003306Y009971D01*
X003454Y009982D01*
X003599Y010017D01*
X003737Y010074D01*
X003864Y010152D01*
X003977Y010249D01*
X004074Y010362D01*
X004152Y010489D01*
X004209Y010627D01*
X004244Y010772D01*
X004256Y010921D01*
X004256Y011109D01*
X004300Y011091D01*
X004511Y011091D01*
X004706Y011171D01*
X004855Y011321D01*
X004916Y011469D01*
X004973Y011332D01*
X005117Y011188D01*
X005304Y011111D01*
X005367Y011111D01*
X005367Y011582D01*
X005444Y011582D01*
X005444Y011111D01*
X005507Y011111D01*
X005695Y011188D01*
X005838Y011332D01*
X005906Y011495D01*
X005973Y011332D01*
X006117Y011188D01*
X006304Y011111D01*
X006367Y011111D01*
X006367Y011582D01*
X006444Y011582D01*
X006444Y011111D01*
X006507Y011111D01*
X006695Y011188D01*
X006838Y011332D01*
X006895Y011469D01*
X006956Y011321D01*
X007105Y011171D01*
X007166Y011147D01*
X007166Y011098D01*
X007149Y011098D01*
X007092Y011040D01*
X007054Y011078D01*
X006809Y011078D01*
X006809Y010759D01*
X006733Y010759D01*
X006733Y011078D01*
X006488Y011078D01*
X006394Y010984D01*
X006394Y010759D01*
X006732Y010759D01*
X006732Y010682D01*
X006394Y010682D01*
X006394Y010458D01*
X006488Y010364D01*
X006733Y010364D01*
X006733Y010682D01*
X006809Y010682D01*
X006809Y010364D01*
X007054Y010364D01*
X007092Y010402D01*
X007149Y010344D01*
X007731Y010344D01*
X007737Y010350D01*
X009041Y009046D01*
X008954Y009133D02*
X005289Y009133D01*
X005133Y009251D02*
X008836Y009251D01*
X008717Y009370D02*
X002186Y009370D01*
X002186Y009488D02*
X008599Y009488D01*
X008480Y009607D02*
X002186Y009607D01*
X002186Y009725D02*
X008362Y009725D01*
X008243Y009844D02*
X005728Y009844D01*
X005706Y009821D02*
X005855Y009971D01*
X005936Y010165D01*
X005936Y010376D01*
X005855Y010571D01*
X005706Y010720D01*
X005511Y010801D01*
X005300Y010801D01*
X005105Y010720D01*
X004956Y010571D01*
X004876Y010376D01*
X004876Y010165D01*
X004956Y009971D01*
X005105Y009821D01*
X005300Y009741D01*
X005511Y009741D01*
X005706Y009821D01*
X005847Y009963D02*
X008125Y009963D01*
X008006Y010081D02*
X005901Y010081D01*
X005936Y010200D02*
X007887Y010200D01*
X007769Y010318D02*
X005936Y010318D01*
X005911Y010437D02*
X006415Y010437D01*
X006394Y010555D02*
X005861Y010555D01*
X005752Y010674D02*
X006394Y010674D01*
X006394Y010792D02*
X005531Y010792D01*
X005280Y010792D02*
X004246Y010792D01*
X004255Y010911D02*
X006394Y010911D01*
X006440Y011029D02*
X004256Y011029D01*
X004649Y011148D02*
X005214Y011148D01*
X005367Y011148D02*
X005444Y011148D01*
X005444Y011266D02*
X005367Y011266D01*
X005367Y011385D02*
X005444Y011385D01*
X005444Y011504D02*
X005367Y011504D01*
X005444Y011582D02*
X005444Y011659D01*
X005896Y011659D01*
X006367Y011659D01*
X006367Y011582D01*
X005896Y011582D01*
X005444Y011582D01*
X005444Y011622D02*
X006367Y011622D01*
X006367Y011504D02*
X006444Y011504D01*
X006444Y011385D02*
X006367Y011385D01*
X006367Y011266D02*
X006444Y011266D01*
X006444Y011148D02*
X006367Y011148D01*
X006214Y011148D02*
X005597Y011148D01*
X005773Y011266D02*
X006039Y011266D01*
X005951Y011385D02*
X005860Y011385D01*
X006597Y011148D02*
X007162Y011148D01*
X007010Y011266D02*
X006773Y011266D01*
X006860Y011385D02*
X006930Y011385D01*
X006809Y011029D02*
X006733Y011029D01*
X006733Y010911D02*
X006809Y010911D01*
X006809Y010792D02*
X006733Y010792D01*
X006733Y010674D02*
X006809Y010674D01*
X006809Y010555D02*
X006733Y010555D01*
X006733Y010437D02*
X006809Y010437D01*
X007406Y010721D02*
X007706Y010721D01*
X009281Y009146D01*
X009306Y009171D01*
X010856Y010721D01*
X017306Y010721D01*
X017306Y011621D01*
X016776Y011622D02*
X007936Y011622D01*
X007936Y011726D02*
X007855Y011921D01*
X007735Y012041D01*
X016976Y012041D01*
X016856Y011921D01*
X016776Y011726D01*
X016776Y011515D01*
X016856Y011321D01*
X017005Y011171D01*
X017066Y011147D01*
X017066Y011098D01*
X017030Y011098D01*
X016924Y010992D01*
X016924Y010961D01*
X010955Y010961D01*
X010756Y010961D01*
X009281Y009485D01*
X007837Y010929D01*
X007837Y010992D01*
X007731Y011098D01*
X007646Y011098D01*
X007646Y011147D01*
X007706Y011171D01*
X007855Y011321D01*
X007936Y011515D01*
X007936Y011726D01*
X007930Y011741D02*
X016782Y011741D01*
X016831Y011859D02*
X007881Y011859D01*
X007798Y011978D02*
X016913Y011978D01*
X016781Y011504D02*
X007931Y011504D01*
X007882Y011385D02*
X016830Y011385D01*
X016910Y011266D02*
X007801Y011266D01*
X007649Y011148D02*
X017062Y011148D01*
X016962Y011029D02*
X007800Y011029D01*
X007855Y010911D02*
X010706Y010911D01*
X010588Y010792D02*
X007973Y010792D01*
X008092Y010674D02*
X010469Y010674D01*
X010351Y010555D02*
X008211Y010555D01*
X008329Y010437D02*
X010232Y010437D01*
X010114Y010318D02*
X008448Y010318D01*
X008566Y010200D02*
X009995Y010200D01*
X009877Y010081D02*
X008685Y010081D01*
X008803Y009963D02*
X009758Y009963D01*
X009639Y009844D02*
X008922Y009844D01*
X009040Y009725D02*
X009521Y009725D01*
X009402Y009607D02*
X009159Y009607D01*
X009277Y009488D02*
X009284Y009488D01*
X009726Y009251D02*
X011207Y009251D01*
X011176Y009133D02*
X009633Y009133D01*
X009646Y009014D02*
X011176Y009014D01*
X011205Y008896D02*
X009683Y008896D01*
X009787Y008777D02*
X011254Y008777D01*
X011368Y008659D02*
X010007Y008659D01*
X010126Y008540D02*
X011466Y008540D01*
X011466Y008421D02*
X010244Y008421D01*
X010363Y008303D02*
X011466Y008303D01*
X011466Y008184D02*
X010481Y008184D01*
X011010Y008066D02*
X011401Y008066D01*
X011283Y007947D02*
X011129Y007947D01*
X011193Y007829D02*
X011218Y007829D01*
X011706Y007621D02*
X011706Y009071D01*
X012205Y009251D02*
X012759Y009251D01*
X012759Y009242D02*
X012819Y009096D01*
X012931Y008985D01*
X013077Y008924D01*
X013235Y008924D01*
X013380Y008985D01*
X013492Y009096D01*
X013552Y009242D01*
X013552Y009400D01*
X013492Y009545D01*
X013380Y009657D01*
X013235Y009717D01*
X013077Y009717D01*
X012931Y009657D01*
X012819Y009545D01*
X012759Y009400D01*
X012759Y009242D01*
X012804Y009133D02*
X012236Y009133D01*
X012236Y009014D02*
X012901Y009014D01*
X012938Y008777D02*
X012158Y008777D01*
X012207Y008896D02*
X013391Y008896D01*
X013410Y009014D02*
X013510Y009014D01*
X013556Y009061D02*
X013302Y008806D01*
X013256Y008826D01*
X013055Y008826D01*
X012870Y008749D01*
X012728Y008607D01*
X012651Y008421D01*
X012651Y008220D01*
X012728Y008035D01*
X012870Y007893D01*
X013055Y007816D01*
X013256Y007816D01*
X013442Y007893D01*
X013584Y008035D01*
X013656Y008209D01*
X013728Y008035D01*
X013870Y007893D01*
X013966Y007853D01*
X013966Y007067D01*
X013869Y007067D01*
X013792Y006990D01*
X013734Y007047D01*
X013509Y007047D01*
X013509Y006709D01*
X013433Y006709D01*
X013433Y007047D01*
X013208Y007047D01*
X013114Y006954D01*
X013114Y006709D01*
X013432Y006709D01*
X013432Y006632D01*
X013114Y006632D01*
X013114Y006388D01*
X013208Y006294D01*
X013433Y006294D01*
X013433Y006632D01*
X013509Y006632D01*
X013509Y006294D01*
X013734Y006294D01*
X013792Y006352D01*
X013869Y006274D01*
X014412Y006274D01*
X014517Y006380D01*
X014517Y006962D01*
X014446Y007033D01*
X014446Y007897D01*
X014584Y008035D01*
X014660Y008220D01*
X014660Y008421D01*
X014594Y008581D01*
X015206Y008581D01*
X015320Y008467D01*
X015301Y008421D01*
X015301Y008220D01*
X015378Y008035D01*
X015520Y007893D01*
X015705Y007816D01*
X015906Y007816D01*
X016092Y007893D01*
X016234Y008035D01*
X016306Y008209D01*
X016378Y008035D01*
X016520Y007893D01*
X016566Y007874D01*
X016566Y007067D01*
X016519Y007067D01*
X016442Y006990D01*
X016384Y007047D01*
X016159Y007047D01*
X016159Y006709D01*
X016083Y006709D01*
X016083Y007047D01*
X015858Y007047D01*
X015764Y006954D01*
X015764Y006709D01*
X016082Y006709D01*
X016082Y006632D01*
X015764Y006632D01*
X015764Y006388D01*
X015858Y006294D01*
X016083Y006294D01*
X016083Y006632D01*
X016159Y006632D01*
X016159Y006294D01*
X016384Y006294D01*
X016442Y006352D01*
X016519Y006274D01*
X017062Y006274D01*
X017167Y006380D01*
X017167Y006962D01*
X017062Y007067D01*
X017046Y007067D01*
X017046Y007874D01*
X017092Y007893D01*
X017234Y008035D01*
X017310Y008220D01*
X017310Y008421D01*
X017234Y008607D01*
X017092Y008749D01*
X016906Y008826D01*
X016705Y008826D01*
X016520Y008749D01*
X016378Y008607D01*
X016306Y008433D01*
X016234Y008607D01*
X016092Y008749D01*
X015906Y008826D01*
X015705Y008826D01*
X015659Y008806D01*
X015546Y008920D01*
X015405Y009061D01*
X014456Y009061D01*
X014492Y009096D01*
X014552Y009242D01*
X014552Y009400D01*
X014492Y009545D01*
X014380Y009657D01*
X014235Y009717D01*
X014077Y009717D01*
X013931Y009657D01*
X013819Y009545D01*
X013759Y009400D01*
X013759Y009242D01*
X013819Y009096D01*
X013855Y009061D01*
X013755Y009061D01*
X013556Y009061D01*
X013507Y009133D02*
X013804Y009133D01*
X013759Y009251D02*
X013552Y009251D01*
X013552Y009370D02*
X013759Y009370D01*
X013796Y009488D02*
X013515Y009488D01*
X013430Y009607D02*
X013881Y009607D01*
X014430Y009607D02*
X015531Y009607D01*
X015581Y009657D02*
X015469Y009545D01*
X015409Y009400D01*
X015409Y009242D01*
X015469Y009096D01*
X015581Y008985D01*
X015727Y008924D01*
X015885Y008924D01*
X016030Y008985D01*
X016142Y009096D01*
X016202Y009242D01*
X016202Y009400D01*
X016142Y009545D01*
X016030Y009657D01*
X015885Y009717D01*
X015727Y009717D01*
X015581Y009657D01*
X015446Y009488D02*
X014515Y009488D01*
X014552Y009370D02*
X015409Y009370D01*
X015409Y009251D02*
X014552Y009251D01*
X014507Y009133D02*
X015454Y009133D01*
X015452Y009014D02*
X015551Y009014D01*
X015570Y008896D02*
X022826Y008896D01*
X022826Y009014D02*
X022360Y009014D01*
X022330Y008985D02*
X022442Y009096D01*
X022502Y009242D01*
X022502Y009400D01*
X022442Y009545D01*
X022330Y009657D01*
X022185Y009717D01*
X022027Y009717D01*
X021881Y009657D01*
X021769Y009545D01*
X021709Y009400D01*
X021709Y009242D01*
X021769Y009096D01*
X021881Y008985D01*
X022027Y008924D01*
X022185Y008924D01*
X022330Y008985D01*
X022457Y009133D02*
X022826Y009133D01*
X022826Y009251D02*
X022502Y009251D01*
X022502Y009370D02*
X022826Y009370D01*
X022826Y009488D02*
X022465Y009488D01*
X022380Y009607D02*
X022826Y009607D01*
X022826Y009725D02*
X010200Y009725D01*
X010081Y009607D02*
X012881Y009607D01*
X012796Y009488D02*
X012038Y009488D01*
X012155Y009370D02*
X012759Y009370D01*
X013656Y008821D02*
X013156Y008321D01*
X013496Y007947D02*
X013815Y007947D01*
X013715Y008066D02*
X013596Y008066D01*
X013646Y008184D02*
X013666Y008184D01*
X013966Y007829D02*
X013287Y007829D01*
X013024Y007829D02*
X012193Y007829D01*
X012236Y007710D02*
X013966Y007710D01*
X013966Y007592D02*
X012236Y007592D01*
X012218Y007473D02*
X013966Y007473D01*
X013966Y007355D02*
X012169Y007355D01*
X012070Y007236D02*
X013966Y007236D01*
X013966Y007117D02*
X011876Y007117D01*
X011536Y007117D02*
X010876Y007117D01*
X011070Y007236D02*
X011341Y007236D01*
X011242Y007355D02*
X011169Y007355D01*
X010706Y007621D02*
X009806Y008521D01*
X009406Y008521D01*
X009406Y009021D01*
X009281Y009146D01*
X009097Y008896D02*
X005378Y008896D01*
X005393Y008777D02*
X008344Y008777D01*
X008344Y008659D02*
X005512Y008659D01*
X005630Y008540D02*
X008682Y008540D01*
X008683Y008421D02*
X008759Y008421D01*
X008759Y008303D02*
X008683Y008303D01*
X008683Y008184D02*
X008759Y008184D01*
X008667Y008131D02*
X008604Y008131D01*
X008417Y008053D01*
X008273Y007910D01*
X008196Y007722D01*
X008196Y007659D01*
X008667Y007659D01*
X008667Y008131D01*
X008667Y008066D02*
X008744Y008066D01*
X008744Y007947D02*
X008667Y007947D01*
X008667Y007829D02*
X008744Y007829D01*
X008744Y007710D02*
X008667Y007710D01*
X008667Y007592D02*
X005946Y007592D01*
X005946Y007710D02*
X008196Y007710D01*
X008240Y007829D02*
X005946Y007829D01*
X005946Y007947D02*
X008311Y007947D01*
X008447Y008066D02*
X005946Y008066D01*
X005946Y008184D02*
X008418Y008184D01*
X008344Y008303D02*
X005867Y008303D01*
X005749Y008421D02*
X008344Y008421D01*
X008683Y008659D02*
X008759Y008659D01*
X008759Y008777D02*
X008683Y008777D01*
X009390Y008521D02*
X009406Y008521D01*
X009401Y008066D02*
X008964Y008066D01*
X009024Y008184D02*
X009059Y008184D01*
X009100Y007947D02*
X009283Y007947D01*
X009218Y007829D02*
X009172Y007829D01*
X008667Y007582D02*
X008667Y007111D01*
X008604Y007111D01*
X008417Y007188D01*
X008273Y007332D01*
X008196Y007519D01*
X008196Y007582D01*
X008667Y007582D01*
X008667Y007473D02*
X008744Y007473D01*
X008744Y007355D02*
X008667Y007355D01*
X008667Y007236D02*
X008744Y007236D01*
X008744Y007117D02*
X008667Y007117D01*
X008588Y007117D02*
X005946Y007117D01*
X005946Y006999D02*
X013160Y006999D01*
X013114Y006880D02*
X005946Y006880D01*
X005946Y006762D02*
X013114Y006762D01*
X013114Y006525D02*
X007941Y006525D01*
X008060Y006406D02*
X013114Y006406D01*
X013433Y006406D02*
X013509Y006406D01*
X013509Y006525D02*
X013433Y006525D01*
X013432Y006643D02*
X005946Y006643D01*
X005706Y006371D02*
X007756Y006371D01*
X008406Y005721D01*
X008506Y005721D01*
X008992Y005932D02*
X009020Y005932D01*
X009086Y006051D02*
X008925Y006051D01*
X008807Y006169D02*
X009204Y006169D01*
X009807Y006169D02*
X010204Y006169D01*
X010086Y006051D02*
X009925Y006051D01*
X009992Y005932D02*
X010020Y005932D01*
X010807Y006169D02*
X011204Y006169D01*
X011086Y006051D02*
X010925Y006051D01*
X010992Y005932D02*
X011020Y005932D01*
X011807Y006169D02*
X012204Y006169D01*
X012086Y006051D02*
X011925Y006051D01*
X011992Y005932D02*
X012020Y005932D01*
X012807Y006169D02*
X013204Y006169D01*
X013086Y006051D02*
X012925Y006051D01*
X012992Y005932D02*
X013020Y005932D01*
X013807Y006169D02*
X014204Y006169D01*
X014086Y006051D02*
X013925Y006051D01*
X013992Y005932D02*
X014020Y005932D01*
X013855Y006288D02*
X008178Y006288D01*
X008823Y007117D02*
X009536Y007117D01*
X009341Y007236D02*
X009042Y007236D01*
X009147Y007355D02*
X009242Y007355D01*
X009876Y007117D02*
X010536Y007117D01*
X010341Y007236D02*
X010070Y007236D01*
X010169Y007355D02*
X010242Y007355D01*
X011946Y008184D02*
X012666Y008184D01*
X012651Y008303D02*
X011946Y008303D01*
X011946Y008421D02*
X012651Y008421D01*
X012700Y008540D02*
X011946Y008540D01*
X012043Y008659D02*
X012780Y008659D01*
X013656Y008821D02*
X015306Y008821D01*
X015806Y008321D01*
X016261Y008540D02*
X016350Y008540D01*
X016430Y008659D02*
X016182Y008659D01*
X016023Y008777D02*
X016588Y008777D01*
X016727Y008924D02*
X016581Y008985D01*
X016469Y009096D01*
X016409Y009242D01*
X016409Y009400D01*
X016469Y009545D01*
X016581Y009657D01*
X016727Y009717D01*
X016885Y009717D01*
X017030Y009657D01*
X017142Y009545D01*
X017202Y009400D01*
X017202Y009242D01*
X017142Y009096D01*
X017030Y008985D01*
X016885Y008924D01*
X016727Y008924D01*
X016551Y009014D02*
X016060Y009014D01*
X016157Y009133D02*
X016454Y009133D01*
X016409Y009251D02*
X016202Y009251D01*
X016202Y009370D02*
X016409Y009370D01*
X016446Y009488D02*
X016165Y009488D01*
X016080Y009607D02*
X016531Y009607D01*
X017080Y009607D02*
X018181Y009607D01*
X018231Y009657D02*
X018119Y009545D01*
X018059Y009400D01*
X018059Y009242D01*
X018119Y009096D01*
X018231Y008985D01*
X018377Y008924D01*
X018535Y008924D01*
X018680Y008985D01*
X018792Y009096D01*
X018852Y009242D01*
X018852Y009400D01*
X018792Y009545D01*
X018680Y009657D01*
X018535Y009717D01*
X018377Y009717D01*
X018231Y009657D01*
X018096Y009488D02*
X017165Y009488D01*
X017202Y009370D02*
X018059Y009370D01*
X018059Y009251D02*
X017202Y009251D01*
X017157Y009133D02*
X018104Y009133D01*
X018201Y009014D02*
X017060Y009014D01*
X017023Y008777D02*
X018238Y008777D01*
X018170Y008749D02*
X018028Y008607D01*
X017951Y008421D01*
X017951Y008220D01*
X018028Y008035D01*
X018170Y007893D01*
X018355Y007816D01*
X018556Y007816D01*
X018742Y007893D01*
X018884Y008035D01*
X018956Y008209D01*
X019028Y008035D01*
X019170Y007893D01*
X019216Y007874D01*
X019216Y007067D01*
X019169Y007067D01*
X019092Y006990D01*
X019034Y007047D01*
X018809Y007047D01*
X018809Y006709D01*
X018733Y006709D01*
X018733Y007047D01*
X018508Y007047D01*
X018414Y006954D01*
X018414Y006709D01*
X018732Y006709D01*
X018732Y006632D01*
X018414Y006632D01*
X018414Y006388D01*
X018508Y006294D01*
X018733Y006294D01*
X018733Y006632D01*
X018809Y006632D01*
X018809Y006294D01*
X019034Y006294D01*
X019092Y006352D01*
X019169Y006274D01*
X019712Y006274D01*
X019817Y006380D01*
X019817Y006962D01*
X019712Y007067D01*
X019696Y007067D01*
X019696Y007874D01*
X019742Y007893D01*
X019884Y008035D01*
X019960Y008220D01*
X019960Y008421D01*
X019884Y008607D01*
X019742Y008749D01*
X019556Y008826D01*
X019355Y008826D01*
X019170Y008749D01*
X019028Y008607D01*
X018956Y008433D01*
X018884Y008607D01*
X018742Y008749D01*
X018556Y008826D01*
X018355Y008826D01*
X018170Y008749D01*
X018080Y008659D02*
X017182Y008659D01*
X017261Y008540D02*
X018000Y008540D01*
X017951Y008421D02*
X017310Y008421D01*
X017310Y008303D02*
X017951Y008303D01*
X017966Y008184D02*
X017296Y008184D01*
X017246Y008066D02*
X018015Y008066D01*
X018115Y007947D02*
X017146Y007947D01*
X017046Y007829D02*
X018324Y007829D01*
X018587Y007829D02*
X019216Y007829D01*
X019216Y007710D02*
X017046Y007710D01*
X017046Y007592D02*
X019216Y007592D01*
X019216Y007473D02*
X017046Y007473D01*
X017046Y007355D02*
X019216Y007355D01*
X019216Y007236D02*
X017046Y007236D01*
X017046Y007117D02*
X019216Y007117D01*
X019101Y006999D02*
X019082Y006999D01*
X018809Y006999D02*
X018733Y006999D01*
X018733Y006880D02*
X018809Y006880D01*
X018809Y006762D02*
X018733Y006762D01*
X018732Y006643D02*
X017167Y006643D01*
X017167Y006525D02*
X018414Y006525D01*
X018414Y006406D02*
X017167Y006406D01*
X017075Y006288D02*
X019155Y006288D01*
X019204Y006169D02*
X018807Y006169D01*
X018925Y006051D02*
X019086Y006051D01*
X019020Y005932D02*
X018992Y005932D01*
X019725Y006288D02*
X021805Y006288D01*
X021819Y006274D02*
X022362Y006274D01*
X022467Y006380D01*
X022467Y006962D01*
X022362Y007067D01*
X022346Y007067D01*
X022346Y007874D01*
X022392Y007893D01*
X022534Y008035D01*
X022610Y008220D01*
X022610Y008421D01*
X022534Y008607D01*
X022392Y008749D01*
X022206Y008826D01*
X022005Y008826D01*
X021820Y008749D01*
X021678Y008607D01*
X021606Y008433D01*
X021534Y008607D01*
X021392Y008749D01*
X021206Y008826D01*
X021005Y008826D01*
X020820Y008749D01*
X020678Y008607D01*
X020601Y008421D01*
X020601Y008220D01*
X020678Y008035D01*
X020820Y007893D01*
X021005Y007816D01*
X021206Y007816D01*
X021392Y007893D01*
X021534Y008035D01*
X021606Y008209D01*
X021678Y008035D01*
X021820Y007893D01*
X021866Y007874D01*
X021866Y007067D01*
X021819Y007067D01*
X021742Y006990D01*
X021684Y007047D01*
X021459Y007047D01*
X021459Y006709D01*
X021383Y006709D01*
X021383Y007047D01*
X021158Y007047D01*
X021064Y006954D01*
X021064Y006709D01*
X021382Y006709D01*
X021382Y006632D01*
X021064Y006632D01*
X021064Y006388D01*
X021158Y006294D01*
X021383Y006294D01*
X021383Y006632D01*
X021459Y006632D01*
X021459Y006294D01*
X021684Y006294D01*
X021742Y006352D01*
X021819Y006274D01*
X021807Y006169D02*
X022204Y006169D01*
X022086Y006051D02*
X021925Y006051D01*
X021992Y005932D02*
X022020Y005932D01*
X022375Y006288D02*
X022826Y006288D01*
X022826Y006406D02*
X022467Y006406D01*
X022467Y006525D02*
X022826Y006525D01*
X022826Y006643D02*
X022467Y006643D01*
X022467Y006762D02*
X022826Y006762D01*
X022826Y006880D02*
X022467Y006880D01*
X022430Y006999D02*
X022826Y006999D01*
X022826Y007117D02*
X022346Y007117D01*
X022346Y007236D02*
X022826Y007236D01*
X022826Y007355D02*
X022346Y007355D01*
X022346Y007473D02*
X022826Y007473D01*
X022826Y007592D02*
X022346Y007592D01*
X022346Y007710D02*
X022826Y007710D01*
X022826Y007829D02*
X022346Y007829D01*
X022446Y007947D02*
X022826Y007947D01*
X022826Y008066D02*
X022546Y008066D01*
X022596Y008184D02*
X022826Y008184D01*
X022826Y008303D02*
X022610Y008303D01*
X022610Y008421D02*
X022826Y008421D01*
X022826Y008540D02*
X022561Y008540D01*
X022482Y008659D02*
X022826Y008659D01*
X022826Y008777D02*
X022323Y008777D01*
X021888Y008777D02*
X021323Y008777D01*
X021482Y008659D02*
X021730Y008659D01*
X021650Y008540D02*
X021561Y008540D01*
X022106Y008321D02*
X022106Y006771D01*
X022090Y006671D01*
X021751Y006999D02*
X021732Y006999D01*
X021866Y007117D02*
X019696Y007117D01*
X019696Y007236D02*
X021866Y007236D01*
X021866Y007355D02*
X019696Y007355D01*
X019696Y007473D02*
X021866Y007473D01*
X021866Y007592D02*
X019696Y007592D01*
X019696Y007710D02*
X021866Y007710D01*
X021866Y007829D02*
X021237Y007829D01*
X021446Y007947D02*
X021765Y007947D01*
X021665Y008066D02*
X021546Y008066D01*
X021596Y008184D02*
X021616Y008184D01*
X020974Y007829D02*
X019696Y007829D01*
X019796Y007947D02*
X020765Y007947D01*
X020665Y008066D02*
X019896Y008066D01*
X019946Y008184D02*
X020616Y008184D01*
X020601Y008303D02*
X019960Y008303D01*
X019960Y008421D02*
X020601Y008421D01*
X020650Y008540D02*
X019911Y008540D01*
X019832Y008659D02*
X020730Y008659D01*
X020888Y008777D02*
X019673Y008777D01*
X019535Y008924D02*
X019680Y008985D01*
X019792Y009096D01*
X019852Y009242D01*
X019852Y009400D01*
X019792Y009545D01*
X019680Y009657D01*
X019535Y009717D01*
X019377Y009717D01*
X019231Y009657D01*
X019119Y009545D01*
X019059Y009400D01*
X019059Y009242D01*
X019119Y009096D01*
X019231Y008985D01*
X019377Y008924D01*
X019535Y008924D01*
X019710Y009014D02*
X020851Y009014D01*
X020881Y008985D02*
X021027Y008924D01*
X021185Y008924D01*
X021330Y008985D01*
X021442Y009096D01*
X021502Y009242D01*
X021502Y009400D01*
X021442Y009545D01*
X021330Y009657D01*
X021185Y009717D01*
X021027Y009717D01*
X020881Y009657D01*
X020769Y009545D01*
X020709Y009400D01*
X020709Y009242D01*
X020769Y009096D01*
X020881Y008985D01*
X020754Y009133D02*
X019807Y009133D01*
X019852Y009251D02*
X020709Y009251D01*
X020709Y009370D02*
X019852Y009370D01*
X019815Y009488D02*
X020746Y009488D01*
X020831Y009607D02*
X019730Y009607D01*
X019181Y009607D02*
X018730Y009607D01*
X018815Y009488D02*
X019096Y009488D01*
X019059Y009370D02*
X018852Y009370D01*
X018852Y009251D02*
X019059Y009251D01*
X019104Y009133D02*
X018807Y009133D01*
X018710Y009014D02*
X019201Y009014D01*
X019238Y008777D02*
X018673Y008777D01*
X018832Y008659D02*
X019080Y008659D01*
X019000Y008540D02*
X018911Y008540D01*
X019456Y008321D02*
X019456Y006821D01*
X019440Y006671D01*
X019817Y006643D02*
X021382Y006643D01*
X021383Y006525D02*
X021459Y006525D01*
X021459Y006406D02*
X021383Y006406D01*
X021204Y006169D02*
X020807Y006169D01*
X020925Y006051D02*
X021086Y006051D01*
X021020Y005932D02*
X020992Y005932D01*
X020204Y006169D02*
X019807Y006169D01*
X019925Y006051D02*
X020086Y006051D01*
X020020Y005932D02*
X019992Y005932D01*
X019817Y006406D02*
X021064Y006406D01*
X021064Y006525D02*
X019817Y006525D01*
X019817Y006762D02*
X021064Y006762D01*
X021064Y006880D02*
X019817Y006880D01*
X019780Y006999D02*
X021110Y006999D01*
X021383Y006999D02*
X021459Y006999D01*
X021459Y006880D02*
X021383Y006880D01*
X021383Y006762D02*
X021459Y006762D01*
X022807Y006169D02*
X022826Y006169D01*
X019115Y007947D02*
X018796Y007947D01*
X018896Y008066D02*
X019015Y008066D01*
X018966Y008184D02*
X018946Y008184D01*
X018460Y006999D02*
X017130Y006999D01*
X017167Y006880D02*
X018414Y006880D01*
X018414Y006762D02*
X017167Y006762D01*
X016806Y006771D02*
X016806Y008321D01*
X016465Y007947D02*
X016146Y007947D01*
X016246Y008066D02*
X016365Y008066D01*
X016316Y008184D02*
X016296Y008184D01*
X016566Y007829D02*
X015937Y007829D01*
X015674Y007829D02*
X014446Y007829D01*
X014446Y007710D02*
X016566Y007710D01*
X016566Y007592D02*
X014446Y007592D01*
X014446Y007473D02*
X016566Y007473D01*
X016566Y007355D02*
X014446Y007355D01*
X014446Y007236D02*
X016566Y007236D01*
X016566Y007117D02*
X014446Y007117D01*
X014480Y006999D02*
X015810Y006999D01*
X015764Y006880D02*
X014517Y006880D01*
X014517Y006762D02*
X015764Y006762D01*
X015764Y006525D02*
X014517Y006525D01*
X014517Y006643D02*
X016082Y006643D01*
X016083Y006525D02*
X016159Y006525D01*
X016159Y006406D02*
X016083Y006406D01*
X015764Y006406D02*
X014517Y006406D01*
X014425Y006288D02*
X016505Y006288D01*
X016204Y006169D02*
X015807Y006169D01*
X015925Y006051D02*
X016086Y006051D01*
X016020Y005932D02*
X015992Y005932D01*
X015204Y006169D02*
X014807Y006169D01*
X014925Y006051D02*
X015086Y006051D01*
X015020Y005932D02*
X014992Y005932D01*
X014140Y006671D02*
X014140Y006705D01*
X014206Y006771D01*
X014206Y008271D01*
X014156Y008321D01*
X014660Y008303D02*
X015301Y008303D01*
X015301Y008421D02*
X014660Y008421D01*
X014611Y008540D02*
X015247Y008540D01*
X015316Y008184D02*
X014646Y008184D01*
X014596Y008066D02*
X015365Y008066D01*
X015465Y007947D02*
X014496Y007947D01*
X012815Y007947D02*
X012129Y007947D01*
X012010Y008066D02*
X012715Y008066D01*
X013433Y006999D02*
X013509Y006999D01*
X013509Y006880D02*
X013433Y006880D01*
X013433Y006762D02*
X013509Y006762D01*
X013782Y006999D02*
X013801Y006999D01*
X016083Y006999D02*
X016159Y006999D01*
X016159Y006880D02*
X016083Y006880D01*
X016083Y006762D02*
X016159Y006762D01*
X016432Y006999D02*
X016451Y006999D01*
X016806Y006771D02*
X016790Y006671D01*
X016807Y006169D02*
X017204Y006169D01*
X017086Y006051D02*
X016925Y006051D01*
X016992Y005932D02*
X017020Y005932D01*
X017807Y006169D02*
X018204Y006169D01*
X018086Y006051D02*
X017925Y006051D01*
X017992Y005932D02*
X018020Y005932D01*
X018733Y006406D02*
X018809Y006406D01*
X018809Y006525D02*
X018733Y006525D01*
X021360Y009014D02*
X021851Y009014D01*
X021754Y009133D02*
X021457Y009133D01*
X021502Y009251D02*
X021709Y009251D01*
X021709Y009370D02*
X021502Y009370D01*
X021465Y009488D02*
X021746Y009488D01*
X021831Y009607D02*
X021380Y009607D01*
X021263Y010081D02*
X010555Y010081D01*
X010437Y009963D02*
X022826Y009963D01*
X022826Y009844D02*
X010318Y009844D01*
X009963Y009488D02*
X011374Y009488D01*
X011256Y009370D02*
X009844Y009370D01*
X010674Y010200D02*
X021092Y010200D01*
X020975Y010318D02*
X010792Y010318D01*
X010911Y010437D02*
X016937Y010437D01*
X017306Y010721D02*
X017321Y010721D01*
X017952Y010674D02*
X018029Y010674D01*
X018029Y010682D02*
X018029Y010364D01*
X018273Y010364D01*
X018367Y010458D01*
X018367Y010682D01*
X018029Y010682D01*
X018029Y010792D02*
X017952Y010792D01*
X017952Y010911D02*
X018029Y010911D01*
X018029Y011029D02*
X017952Y011029D01*
X018062Y011148D02*
X017549Y011148D01*
X017701Y011266D02*
X017910Y011266D01*
X017830Y011385D02*
X017782Y011385D01*
X018321Y011029D02*
X020756Y011029D01*
X020756Y010911D02*
X018367Y010911D01*
X018367Y010792D02*
X020766Y010792D01*
X020791Y010674D02*
X018367Y010674D01*
X018367Y010555D02*
X020832Y010555D01*
X020892Y010437D02*
X018346Y010437D01*
X018029Y010437D02*
X017952Y010437D01*
X017952Y010555D02*
X018029Y010555D01*
X018549Y011148D02*
X019062Y011148D01*
X018910Y011266D02*
X018701Y011266D01*
X018782Y011385D02*
X018830Y011385D01*
X019549Y011148D02*
X020114Y011148D01*
X020267Y011148D02*
X020344Y011148D01*
X020344Y011266D02*
X020267Y011266D01*
X020267Y011385D02*
X020344Y011385D01*
X020344Y011504D02*
X020267Y011504D01*
X019851Y011385D02*
X019782Y011385D01*
X019701Y011266D02*
X019939Y011266D01*
X020497Y011148D02*
X020756Y011148D01*
X020756Y011266D02*
X020673Y011266D01*
X008369Y007236D02*
X005946Y007236D01*
X005946Y007355D02*
X008264Y007355D01*
X008215Y007473D02*
X005946Y007473D01*
X005466Y007473D02*
X005039Y007473D01*
X005185Y007534D01*
X005297Y007645D01*
X005358Y007792D01*
X005358Y007862D01*
X004969Y007862D01*
X004969Y007880D01*
X004951Y007880D01*
X004951Y008269D01*
X004881Y008269D01*
X004735Y008208D01*
X004649Y008122D01*
X004649Y008264D01*
X004642Y008271D01*
X004649Y008277D01*
X004649Y008492D01*
X004084Y008492D01*
X004084Y008549D01*
X004649Y008549D01*
X004649Y008591D01*
X004723Y008517D01*
X004877Y008453D01*
X005038Y008453D01*
X005466Y008026D01*
X005466Y006611D01*
X005291Y006611D01*
X005314Y006634D01*
X005378Y006788D01*
X005378Y006954D01*
X005314Y007107D01*
X005197Y007225D01*
X005187Y007229D01*
X005055Y007361D01*
X004943Y007473D01*
X004951Y007473D01*
X004951Y007862D01*
X004969Y007862D01*
X004969Y007473D01*
X005039Y007473D01*
X004969Y007473D02*
X004951Y007473D01*
X004951Y007592D02*
X004969Y007592D01*
X004969Y007710D02*
X004951Y007710D01*
X004951Y007829D02*
X004969Y007829D01*
X004969Y007880D02*
X005358Y007880D01*
X005358Y007950D01*
X005297Y008096D01*
X005185Y008208D01*
X005039Y008269D01*
X004969Y008269D01*
X004969Y007880D01*
X004969Y007947D02*
X004951Y007947D01*
X004951Y008066D02*
X004969Y008066D01*
X004969Y008184D02*
X004951Y008184D01*
X004711Y008184D02*
X004649Y008184D01*
X004649Y008303D02*
X005188Y008303D01*
X005209Y008184D02*
X005307Y008184D01*
X005310Y008066D02*
X005426Y008066D01*
X005466Y007947D02*
X005358Y007947D01*
X005358Y007829D02*
X005466Y007829D01*
X005466Y007710D02*
X005324Y007710D01*
X005243Y007592D02*
X005466Y007592D01*
X005466Y007355D02*
X005061Y007355D01*
X005180Y007236D02*
X005466Y007236D01*
X005466Y007117D02*
X005304Y007117D01*
X005359Y006999D02*
X005466Y006999D01*
X005466Y006880D02*
X005378Y006880D01*
X005367Y006762D02*
X005466Y006762D01*
X005466Y006643D02*
X005318Y006643D01*
X004960Y006871D02*
X004956Y007121D01*
X004656Y007421D01*
X004256Y007421D01*
X004206Y007471D01*
X004056Y007521D01*
X002656Y007521D01*
X002456Y007321D01*
X002406Y007321D01*
X002406Y008136D01*
X002782Y008184D02*
X003463Y008184D01*
X003463Y008066D02*
X002782Y008066D01*
X002782Y007947D02*
X003463Y007947D01*
X003463Y007829D02*
X002766Y007829D01*
X002782Y008303D02*
X003463Y008303D01*
X003463Y008421D02*
X002782Y008421D01*
X002762Y008540D02*
X004027Y008540D01*
X004084Y008540D02*
X004700Y008540D01*
X004649Y008421D02*
X005070Y008421D01*
X004542Y008896D02*
X002762Y008896D01*
X002762Y008844D02*
X002762Y009088D01*
X002669Y009182D01*
X002444Y009182D01*
X002444Y008844D01*
X002762Y008844D01*
X002762Y009014D02*
X004567Y009014D01*
X004631Y009133D02*
X002718Y009133D01*
X002444Y009133D02*
X002367Y009133D01*
X002367Y009014D02*
X002444Y009014D01*
X002444Y008896D02*
X002367Y008896D01*
X002444Y008777D02*
X003475Y008777D01*
X003463Y008659D02*
X002762Y008659D01*
X002186Y009251D02*
X004787Y009251D01*
X004084Y008777D02*
X004027Y008777D01*
X004027Y008659D02*
X004084Y008659D01*
X004084Y008421D02*
X004027Y008421D01*
X004027Y008303D02*
X004084Y008303D01*
X004084Y008184D02*
X004027Y008184D01*
X004027Y008066D02*
X004084Y008066D01*
X002456Y007321D02*
X002471Y007271D01*
X002406Y007255D01*
X002406Y007271D01*
X002456Y007321D01*
X002406Y006586D02*
X002806Y006571D01*
X003506Y005871D01*
X003506Y005721D01*
X002186Y009844D02*
X005083Y009844D01*
X004964Y009963D02*
X002186Y009963D01*
X003748Y010081D02*
X004911Y010081D01*
X004876Y010200D02*
X003920Y010200D01*
X004036Y010318D02*
X004876Y010318D01*
X004901Y010437D02*
X004120Y010437D01*
X004179Y010555D02*
X004950Y010555D01*
X005059Y010674D02*
X004220Y010674D01*
X004801Y011266D02*
X005039Y011266D01*
X004951Y011385D02*
X004882Y011385D01*
X007406Y011621D02*
X007406Y010721D01*
X007440Y010721D01*
D17*
X006156Y010771D03*
X006156Y010221D03*
X005956Y009721D03*
X005406Y009521D03*
X004856Y009721D03*
X004656Y010271D03*
X009256Y010071D03*
X011156Y009621D03*
X011706Y009821D03*
X012256Y009621D03*
X012456Y009071D03*
X012306Y008571D03*
X012356Y008071D03*
X012456Y007571D03*
X012256Y007071D03*
X011706Y006871D03*
X011206Y007021D03*
X011156Y008521D03*
X010956Y009071D03*
M02*
