G75*
G70*
%OFA0B0*%
%FSLAX24Y24*%
%IPPOS*%
%LPD*%
%AMOC8*
5,1,8,0,0,1.08239X$1,22.5*
%
%ADD10C,0.0000*%
%ADD11C,0.0060*%
%ADD12C,0.0090*%
%ADD13C,0.0120*%
%ADD14C,0.0050*%
%ADD15C,0.0100*%
D10*
X002006Y005221D02*
X002006Y012221D01*
X023006Y012221D01*
X023006Y005221D01*
X002006Y005221D01*
X002575Y011121D02*
X002577Y011169D01*
X002584Y011217D01*
X002595Y011264D01*
X002610Y011310D01*
X002629Y011354D01*
X002652Y011397D01*
X002679Y011437D01*
X002710Y011475D01*
X002744Y011509D01*
X002780Y011540D01*
X002820Y011568D01*
X002862Y011592D01*
X002906Y011613D01*
X002951Y011629D01*
X002998Y011641D01*
X003046Y011649D01*
X003094Y011652D01*
X003142Y011651D01*
X003190Y011645D01*
X003238Y011635D01*
X003284Y011621D01*
X003329Y011603D01*
X003371Y011581D01*
X003412Y011555D01*
X003450Y011525D01*
X003486Y011492D01*
X003518Y011456D01*
X003547Y011417D01*
X003572Y011376D01*
X003593Y011333D01*
X003610Y011287D01*
X003623Y011241D01*
X003632Y011193D01*
X003636Y011145D01*
X003636Y011097D01*
X003632Y011049D01*
X003623Y011001D01*
X003610Y010955D01*
X003593Y010909D01*
X003572Y010866D01*
X003547Y010825D01*
X003518Y010786D01*
X003486Y010750D01*
X003450Y010717D01*
X003412Y010687D01*
X003372Y010661D01*
X003329Y010639D01*
X003284Y010621D01*
X003238Y010607D01*
X003190Y010597D01*
X003142Y010591D01*
X003094Y010590D01*
X003046Y010593D01*
X002998Y010601D01*
X002951Y010613D01*
X002906Y010629D01*
X002862Y010650D01*
X002820Y010674D01*
X002780Y010702D01*
X002744Y010733D01*
X002710Y010767D01*
X002679Y010805D01*
X002652Y010845D01*
X002629Y010888D01*
X002610Y010932D01*
X002595Y010978D01*
X002584Y011025D01*
X002577Y011073D01*
X002575Y011121D01*
X012939Y009321D02*
X012941Y009351D01*
X012947Y009380D01*
X012957Y009407D01*
X012971Y009434D01*
X012988Y009458D01*
X013008Y009480D01*
X013031Y009498D01*
X013056Y009514D01*
X013083Y009525D01*
X013112Y009533D01*
X013141Y009537D01*
X013171Y009537D01*
X013200Y009533D01*
X013229Y009525D01*
X013256Y009514D01*
X013281Y009498D01*
X013304Y009480D01*
X013324Y009458D01*
X013341Y009434D01*
X013355Y009407D01*
X013365Y009380D01*
X013371Y009351D01*
X013373Y009321D01*
X013371Y009291D01*
X013365Y009262D01*
X013355Y009235D01*
X013341Y009208D01*
X013324Y009184D01*
X013304Y009162D01*
X013281Y009144D01*
X013256Y009128D01*
X013229Y009117D01*
X013200Y009109D01*
X013171Y009105D01*
X013141Y009105D01*
X013112Y009109D01*
X013083Y009117D01*
X013056Y009128D01*
X013031Y009144D01*
X013008Y009162D01*
X012988Y009184D01*
X012971Y009208D01*
X012957Y009235D01*
X012947Y009262D01*
X012941Y009291D01*
X012939Y009321D01*
X013939Y009321D02*
X013941Y009351D01*
X013947Y009380D01*
X013957Y009407D01*
X013971Y009434D01*
X013988Y009458D01*
X014008Y009480D01*
X014031Y009498D01*
X014056Y009514D01*
X014083Y009525D01*
X014112Y009533D01*
X014141Y009537D01*
X014171Y009537D01*
X014200Y009533D01*
X014229Y009525D01*
X014256Y009514D01*
X014281Y009498D01*
X014304Y009480D01*
X014324Y009458D01*
X014341Y009434D01*
X014355Y009407D01*
X014365Y009380D01*
X014371Y009351D01*
X014373Y009321D01*
X014371Y009291D01*
X014365Y009262D01*
X014355Y009235D01*
X014341Y009208D01*
X014324Y009184D01*
X014304Y009162D01*
X014281Y009144D01*
X014256Y009128D01*
X014229Y009117D01*
X014200Y009109D01*
X014171Y009105D01*
X014141Y009105D01*
X014112Y009109D01*
X014083Y009117D01*
X014056Y009128D01*
X014031Y009144D01*
X014008Y009162D01*
X013988Y009184D01*
X013971Y009208D01*
X013957Y009235D01*
X013947Y009262D01*
X013941Y009291D01*
X013939Y009321D01*
X015589Y009321D02*
X015591Y009351D01*
X015597Y009380D01*
X015607Y009407D01*
X015621Y009434D01*
X015638Y009458D01*
X015658Y009480D01*
X015681Y009498D01*
X015706Y009514D01*
X015733Y009525D01*
X015762Y009533D01*
X015791Y009537D01*
X015821Y009537D01*
X015850Y009533D01*
X015879Y009525D01*
X015906Y009514D01*
X015931Y009498D01*
X015954Y009480D01*
X015974Y009458D01*
X015991Y009434D01*
X016005Y009407D01*
X016015Y009380D01*
X016021Y009351D01*
X016023Y009321D01*
X016021Y009291D01*
X016015Y009262D01*
X016005Y009235D01*
X015991Y009208D01*
X015974Y009184D01*
X015954Y009162D01*
X015931Y009144D01*
X015906Y009128D01*
X015879Y009117D01*
X015850Y009109D01*
X015821Y009105D01*
X015791Y009105D01*
X015762Y009109D01*
X015733Y009117D01*
X015706Y009128D01*
X015681Y009144D01*
X015658Y009162D01*
X015638Y009184D01*
X015621Y009208D01*
X015607Y009235D01*
X015597Y009262D01*
X015591Y009291D01*
X015589Y009321D01*
X016589Y009321D02*
X016591Y009351D01*
X016597Y009380D01*
X016607Y009407D01*
X016621Y009434D01*
X016638Y009458D01*
X016658Y009480D01*
X016681Y009498D01*
X016706Y009514D01*
X016733Y009525D01*
X016762Y009533D01*
X016791Y009537D01*
X016821Y009537D01*
X016850Y009533D01*
X016879Y009525D01*
X016906Y009514D01*
X016931Y009498D01*
X016954Y009480D01*
X016974Y009458D01*
X016991Y009434D01*
X017005Y009407D01*
X017015Y009380D01*
X017021Y009351D01*
X017023Y009321D01*
X017021Y009291D01*
X017015Y009262D01*
X017005Y009235D01*
X016991Y009208D01*
X016974Y009184D01*
X016954Y009162D01*
X016931Y009144D01*
X016906Y009128D01*
X016879Y009117D01*
X016850Y009109D01*
X016821Y009105D01*
X016791Y009105D01*
X016762Y009109D01*
X016733Y009117D01*
X016706Y009128D01*
X016681Y009144D01*
X016658Y009162D01*
X016638Y009184D01*
X016621Y009208D01*
X016607Y009235D01*
X016597Y009262D01*
X016591Y009291D01*
X016589Y009321D01*
X018239Y009321D02*
X018241Y009351D01*
X018247Y009380D01*
X018257Y009407D01*
X018271Y009434D01*
X018288Y009458D01*
X018308Y009480D01*
X018331Y009498D01*
X018356Y009514D01*
X018383Y009525D01*
X018412Y009533D01*
X018441Y009537D01*
X018471Y009537D01*
X018500Y009533D01*
X018529Y009525D01*
X018556Y009514D01*
X018581Y009498D01*
X018604Y009480D01*
X018624Y009458D01*
X018641Y009434D01*
X018655Y009407D01*
X018665Y009380D01*
X018671Y009351D01*
X018673Y009321D01*
X018671Y009291D01*
X018665Y009262D01*
X018655Y009235D01*
X018641Y009208D01*
X018624Y009184D01*
X018604Y009162D01*
X018581Y009144D01*
X018556Y009128D01*
X018529Y009117D01*
X018500Y009109D01*
X018471Y009105D01*
X018441Y009105D01*
X018412Y009109D01*
X018383Y009117D01*
X018356Y009128D01*
X018331Y009144D01*
X018308Y009162D01*
X018288Y009184D01*
X018271Y009208D01*
X018257Y009235D01*
X018247Y009262D01*
X018241Y009291D01*
X018239Y009321D01*
X019239Y009321D02*
X019241Y009351D01*
X019247Y009380D01*
X019257Y009407D01*
X019271Y009434D01*
X019288Y009458D01*
X019308Y009480D01*
X019331Y009498D01*
X019356Y009514D01*
X019383Y009525D01*
X019412Y009533D01*
X019441Y009537D01*
X019471Y009537D01*
X019500Y009533D01*
X019529Y009525D01*
X019556Y009514D01*
X019581Y009498D01*
X019604Y009480D01*
X019624Y009458D01*
X019641Y009434D01*
X019655Y009407D01*
X019665Y009380D01*
X019671Y009351D01*
X019673Y009321D01*
X019671Y009291D01*
X019665Y009262D01*
X019655Y009235D01*
X019641Y009208D01*
X019624Y009184D01*
X019604Y009162D01*
X019581Y009144D01*
X019556Y009128D01*
X019529Y009117D01*
X019500Y009109D01*
X019471Y009105D01*
X019441Y009105D01*
X019412Y009109D01*
X019383Y009117D01*
X019356Y009128D01*
X019331Y009144D01*
X019308Y009162D01*
X019288Y009184D01*
X019271Y009208D01*
X019257Y009235D01*
X019247Y009262D01*
X019241Y009291D01*
X019239Y009321D01*
X020889Y009321D02*
X020891Y009351D01*
X020897Y009380D01*
X020907Y009407D01*
X020921Y009434D01*
X020938Y009458D01*
X020958Y009480D01*
X020981Y009498D01*
X021006Y009514D01*
X021033Y009525D01*
X021062Y009533D01*
X021091Y009537D01*
X021121Y009537D01*
X021150Y009533D01*
X021179Y009525D01*
X021206Y009514D01*
X021231Y009498D01*
X021254Y009480D01*
X021274Y009458D01*
X021291Y009434D01*
X021305Y009407D01*
X021315Y009380D01*
X021321Y009351D01*
X021323Y009321D01*
X021321Y009291D01*
X021315Y009262D01*
X021305Y009235D01*
X021291Y009208D01*
X021274Y009184D01*
X021254Y009162D01*
X021231Y009144D01*
X021206Y009128D01*
X021179Y009117D01*
X021150Y009109D01*
X021121Y009105D01*
X021091Y009105D01*
X021062Y009109D01*
X021033Y009117D01*
X021006Y009128D01*
X020981Y009144D01*
X020958Y009162D01*
X020938Y009184D01*
X020921Y009208D01*
X020907Y009235D01*
X020897Y009262D01*
X020891Y009291D01*
X020889Y009321D01*
X021889Y009321D02*
X021891Y009351D01*
X021897Y009380D01*
X021907Y009407D01*
X021921Y009434D01*
X021938Y009458D01*
X021958Y009480D01*
X021981Y009498D01*
X022006Y009514D01*
X022033Y009525D01*
X022062Y009533D01*
X022091Y009537D01*
X022121Y009537D01*
X022150Y009533D01*
X022179Y009525D01*
X022206Y009514D01*
X022231Y009498D01*
X022254Y009480D01*
X022274Y009458D01*
X022291Y009434D01*
X022305Y009407D01*
X022315Y009380D01*
X022321Y009351D01*
X022323Y009321D01*
X022321Y009291D01*
X022315Y009262D01*
X022305Y009235D01*
X022291Y009208D01*
X022274Y009184D01*
X022254Y009162D01*
X022231Y009144D01*
X022206Y009128D01*
X022179Y009117D01*
X022150Y009109D01*
X022121Y009105D01*
X022091Y009105D01*
X022062Y009109D01*
X022033Y009117D01*
X022006Y009128D01*
X021981Y009144D01*
X021958Y009162D01*
X021938Y009184D01*
X021921Y009208D01*
X021907Y009235D01*
X021897Y009262D01*
X021891Y009291D01*
X021889Y009321D01*
X021375Y011121D02*
X021377Y011169D01*
X021384Y011217D01*
X021395Y011264D01*
X021410Y011310D01*
X021429Y011354D01*
X021452Y011397D01*
X021479Y011437D01*
X021510Y011475D01*
X021544Y011509D01*
X021580Y011540D01*
X021620Y011568D01*
X021662Y011592D01*
X021706Y011613D01*
X021751Y011629D01*
X021798Y011641D01*
X021846Y011649D01*
X021894Y011652D01*
X021942Y011651D01*
X021990Y011645D01*
X022038Y011635D01*
X022084Y011621D01*
X022129Y011603D01*
X022171Y011581D01*
X022212Y011555D01*
X022250Y011525D01*
X022286Y011492D01*
X022318Y011456D01*
X022347Y011417D01*
X022372Y011376D01*
X022393Y011333D01*
X022410Y011287D01*
X022423Y011241D01*
X022432Y011193D01*
X022436Y011145D01*
X022436Y011097D01*
X022432Y011049D01*
X022423Y011001D01*
X022410Y010955D01*
X022393Y010909D01*
X022372Y010866D01*
X022347Y010825D01*
X022318Y010786D01*
X022286Y010750D01*
X022250Y010717D01*
X022212Y010687D01*
X022172Y010661D01*
X022129Y010639D01*
X022084Y010621D01*
X022038Y010607D01*
X021990Y010597D01*
X021942Y010591D01*
X021894Y010590D01*
X021846Y010593D01*
X021798Y010601D01*
X021751Y010613D01*
X021706Y010629D01*
X021662Y010650D01*
X021620Y010674D01*
X021580Y010702D01*
X021544Y010733D01*
X021510Y010767D01*
X021479Y010805D01*
X021452Y010845D01*
X021429Y010888D01*
X021410Y010932D01*
X021395Y010978D01*
X021384Y011025D01*
X021377Y011073D01*
X021375Y011121D01*
D11*
X021456Y010271D02*
X021706Y010021D01*
X021456Y009771D01*
X021456Y010021D01*
X021456Y010271D01*
X021756Y010271D02*
X021756Y009771D01*
X021806Y010021D02*
X022106Y010021D01*
X022106Y009671D01*
X021456Y010021D02*
X021106Y010021D01*
X021106Y009671D01*
X019456Y009671D02*
X019456Y010021D01*
X019156Y010021D01*
X019056Y010021D02*
X018806Y010271D01*
X018806Y010021D01*
X018806Y009771D01*
X019056Y010021D01*
X018806Y010021D02*
X018456Y010021D01*
X018456Y009671D01*
X019106Y009771D02*
X019106Y010271D01*
X016806Y010021D02*
X016806Y009671D01*
X016456Y009771D02*
X016456Y010271D01*
X016506Y010021D02*
X016806Y010021D01*
X016406Y010021D02*
X016156Y010271D01*
X016156Y010021D01*
X016156Y009771D01*
X016406Y010021D01*
X016156Y010021D02*
X015806Y010021D01*
X015806Y009671D01*
X014156Y009671D02*
X014156Y010021D01*
X013856Y010021D01*
X013756Y010021D02*
X013506Y010271D01*
X013506Y010021D01*
X013506Y009771D01*
X013756Y010021D01*
X013506Y010021D02*
X013156Y010021D01*
X013156Y009671D01*
X013806Y009771D02*
X013806Y010271D01*
D12*
X013861Y010716D02*
X013861Y010989D01*
X014066Y010989D01*
X014135Y010921D01*
X014135Y010716D01*
X014390Y010784D02*
X014458Y010716D01*
X014390Y010784D02*
X014390Y011058D01*
X014458Y010989D02*
X014321Y010989D01*
X014628Y010989D02*
X014628Y010716D01*
X014628Y010853D02*
X014765Y010989D01*
X014834Y010989D01*
X015012Y010921D02*
X015012Y010784D01*
X015080Y010716D01*
X015217Y010716D01*
X015286Y010784D01*
X015286Y010921D01*
X015217Y010989D01*
X015080Y010989D01*
X015012Y010921D01*
X015472Y011126D02*
X015541Y011126D01*
X015541Y010716D01*
X015609Y010716D02*
X015472Y010716D01*
X015901Y010989D02*
X016037Y010716D01*
X016174Y010989D01*
X016361Y010989D02*
X016498Y011126D01*
X016498Y010716D01*
X016361Y010716D02*
X016635Y010716D01*
X014414Y011453D02*
X014140Y011453D01*
X014140Y011521D02*
X014209Y011589D01*
X014346Y011589D01*
X014414Y011521D01*
X014414Y011453D01*
X014346Y011316D02*
X014209Y011316D01*
X014140Y011384D01*
X014140Y011521D01*
X013954Y011589D02*
X013748Y011589D01*
X013680Y011521D01*
X013748Y011453D01*
X013885Y011453D01*
X013954Y011384D01*
X013885Y011316D01*
X013680Y011316D01*
X013518Y011316D02*
X013450Y011316D01*
X013450Y011384D01*
X013518Y011384D01*
X013518Y011316D01*
X013280Y011316D02*
X013143Y011316D01*
X013211Y011316D02*
X013211Y011726D01*
X013143Y011726D01*
X012956Y011521D02*
X012956Y011316D01*
X012819Y011316D02*
X012819Y011521D01*
X012888Y011589D01*
X012956Y011521D01*
X012819Y011521D02*
X012751Y011589D01*
X012683Y011589D01*
X012683Y011316D01*
X012496Y011316D02*
X012496Y011589D01*
X012222Y011589D02*
X012222Y011384D01*
X012291Y011316D01*
X012496Y011316D01*
X012035Y011316D02*
X012035Y011521D01*
X011967Y011589D01*
X011830Y011589D01*
X011830Y011453D02*
X012035Y011453D01*
X012035Y011316D02*
X011830Y011316D01*
X011762Y011384D01*
X011830Y011453D01*
X011600Y011384D02*
X011600Y011316D01*
X011532Y011316D01*
X011532Y011384D01*
X011600Y011384D01*
X011345Y011384D02*
X011345Y011589D01*
X011071Y011589D02*
X011071Y011384D01*
X011140Y011316D01*
X011208Y011384D01*
X011277Y011316D01*
X011345Y011384D01*
X010885Y011384D02*
X010885Y011589D01*
X010611Y011589D02*
X010611Y011384D01*
X010679Y011316D01*
X010748Y011384D01*
X010816Y011316D01*
X010885Y011384D01*
X010605Y011058D02*
X010605Y010921D01*
X010537Y010853D01*
X010332Y010853D01*
X010469Y010853D02*
X010605Y010716D01*
X010792Y010784D02*
X010792Y010921D01*
X010860Y010989D01*
X010997Y010989D01*
X011066Y010921D01*
X011066Y010853D01*
X010792Y010853D01*
X010792Y010784D02*
X010860Y010716D01*
X010997Y010716D01*
X011252Y010716D02*
X011252Y010989D01*
X011321Y010989D01*
X011389Y010921D01*
X011458Y010989D01*
X011526Y010921D01*
X011526Y010716D01*
X011389Y010716D02*
X011389Y010921D01*
X011713Y010921D02*
X011713Y010784D01*
X011781Y010716D01*
X011918Y010716D01*
X011986Y010784D01*
X011986Y010921D01*
X011918Y010989D01*
X011781Y010989D01*
X011713Y010921D01*
X012173Y010989D02*
X012310Y010989D01*
X012242Y011058D02*
X012242Y010784D01*
X012310Y010716D01*
X012480Y010784D02*
X012480Y010921D01*
X012548Y010989D01*
X012685Y010989D01*
X012754Y010921D01*
X012754Y010853D01*
X012480Y010853D01*
X012480Y010784D02*
X012548Y010716D01*
X012685Y010716D01*
X012940Y010784D02*
X013009Y010716D01*
X013146Y010716D01*
X013214Y010784D01*
X013401Y010784D02*
X013469Y010716D01*
X013606Y010716D01*
X013674Y010784D01*
X013674Y010921D01*
X013606Y010989D01*
X013469Y010989D01*
X013401Y010921D01*
X013401Y010784D01*
X013214Y011058D02*
X013146Y011126D01*
X013009Y011126D01*
X012940Y011058D01*
X012940Y010784D01*
X010605Y011058D02*
X010537Y011126D01*
X010332Y011126D01*
X010332Y010716D01*
X010145Y010784D02*
X010077Y010716D01*
X009871Y010716D01*
X009871Y010579D02*
X009871Y010989D01*
X010077Y010989D01*
X010145Y010921D01*
X010145Y010784D01*
X009685Y010716D02*
X009411Y010989D01*
X009224Y010921D02*
X009224Y010853D01*
X008951Y010853D01*
X008951Y010921D02*
X008951Y010784D01*
X009019Y010716D01*
X009156Y010716D01*
X009411Y010716D02*
X009685Y010989D01*
X009224Y010921D02*
X009156Y010989D01*
X009019Y010989D01*
X008951Y010921D01*
X010151Y011384D02*
X010219Y011316D01*
X010287Y011384D01*
X010356Y011316D01*
X010424Y011384D01*
X010424Y011589D01*
X010151Y011589D02*
X010151Y011384D01*
D13*
X004335Y010821D02*
X004337Y010838D01*
X004343Y010854D01*
X004353Y010868D01*
X004366Y010879D01*
X004381Y010887D01*
X004397Y010891D01*
X004415Y010891D01*
X004431Y010887D01*
X004446Y010879D01*
X004459Y010868D01*
X004469Y010854D01*
X004475Y010838D01*
X004477Y010821D01*
X004475Y010804D01*
X004469Y010788D01*
X004459Y010774D01*
X004446Y010763D01*
X004431Y010755D01*
X004415Y010751D01*
X004397Y010751D01*
X004381Y010755D01*
X004366Y010763D01*
X004353Y010774D01*
X004343Y010788D01*
X004337Y010804D01*
X004335Y010821D01*
X008635Y006821D02*
X008637Y006838D01*
X008643Y006854D01*
X008653Y006868D01*
X008666Y006879D01*
X008681Y006887D01*
X008697Y006891D01*
X008715Y006891D01*
X008731Y006887D01*
X008746Y006879D01*
X008759Y006868D01*
X008769Y006854D01*
X008775Y006838D01*
X008777Y006821D01*
X008775Y006804D01*
X008769Y006788D01*
X008759Y006774D01*
X008746Y006763D01*
X008731Y006755D01*
X008715Y006751D01*
X008697Y006751D01*
X008681Y006755D01*
X008666Y006763D01*
X008653Y006774D01*
X008643Y006788D01*
X008637Y006804D01*
X008635Y006821D01*
D14*
X009951Y006916D02*
X010034Y006916D01*
X009992Y006916D02*
X009992Y006666D01*
X009951Y006666D02*
X010034Y006666D01*
X010135Y006707D02*
X010176Y006666D01*
X010260Y006666D01*
X010302Y006707D01*
X010411Y006707D02*
X010453Y006666D01*
X010536Y006666D01*
X010578Y006707D01*
X010578Y006749D01*
X010536Y006791D01*
X010494Y006791D01*
X010536Y006791D02*
X010578Y006833D01*
X010578Y006874D01*
X010536Y006916D01*
X010453Y006916D01*
X010411Y006874D01*
X010302Y006874D02*
X010260Y006916D01*
X010176Y006916D01*
X010135Y006874D01*
X010135Y006707D01*
X012631Y006696D02*
X012797Y006946D01*
X012907Y006863D02*
X012990Y006946D01*
X012990Y006696D01*
X012907Y006696D02*
X013074Y006696D01*
X012797Y006696D02*
X012631Y006946D01*
X013628Y006396D02*
X013753Y006396D01*
X013795Y006354D01*
X013795Y006271D01*
X013753Y006229D01*
X013628Y006229D01*
X013628Y006146D02*
X013628Y006396D01*
X013712Y006229D02*
X013795Y006146D01*
X013904Y006146D02*
X014071Y006146D01*
X013988Y006146D02*
X013988Y006396D01*
X013904Y006313D01*
X015281Y006696D02*
X015447Y006946D01*
X015557Y006904D02*
X015599Y006946D01*
X015682Y006946D01*
X015724Y006904D01*
X015724Y006863D01*
X015557Y006696D01*
X015724Y006696D01*
X015447Y006696D02*
X015281Y006946D01*
X016228Y006396D02*
X016353Y006396D01*
X016395Y006354D01*
X016395Y006271D01*
X016353Y006229D01*
X016228Y006229D01*
X016228Y006146D02*
X016228Y006396D01*
X016312Y006229D02*
X016395Y006146D01*
X016504Y006146D02*
X016671Y006313D01*
X016671Y006354D01*
X016630Y006396D01*
X016546Y006396D01*
X016504Y006354D01*
X016504Y006146D02*
X016671Y006146D01*
X017931Y006696D02*
X018097Y006946D01*
X018207Y006904D02*
X018249Y006946D01*
X018332Y006946D01*
X018374Y006904D01*
X018374Y006863D01*
X018332Y006821D01*
X018374Y006779D01*
X018374Y006737D01*
X018332Y006696D01*
X018249Y006696D01*
X018207Y006737D01*
X018097Y006696D02*
X017931Y006946D01*
X018290Y006821D02*
X018332Y006821D01*
X018878Y006396D02*
X019003Y006396D01*
X019045Y006354D01*
X019045Y006271D01*
X019003Y006229D01*
X018878Y006229D01*
X018878Y006146D02*
X018878Y006396D01*
X018962Y006229D02*
X019045Y006146D01*
X019154Y006187D02*
X019196Y006146D01*
X019280Y006146D01*
X019321Y006187D01*
X019321Y006229D01*
X019280Y006271D01*
X019238Y006271D01*
X019280Y006271D02*
X019321Y006313D01*
X019321Y006354D01*
X019280Y006396D01*
X019196Y006396D01*
X019154Y006354D01*
X020581Y006696D02*
X020747Y006946D01*
X020581Y006946D02*
X020747Y006696D01*
X020857Y006821D02*
X021024Y006821D01*
X020982Y006946D02*
X020857Y006821D01*
X020982Y006696D02*
X020982Y006946D01*
X021528Y006396D02*
X021653Y006396D01*
X021695Y006354D01*
X021695Y006271D01*
X021653Y006229D01*
X021528Y006229D01*
X021528Y006146D02*
X021528Y006396D01*
X021612Y006229D02*
X021695Y006146D01*
X021804Y006271D02*
X021971Y006271D01*
X021930Y006146D02*
X021930Y006396D01*
X021804Y006271D01*
X018782Y010496D02*
X018699Y010496D01*
X018657Y010537D01*
X018547Y010537D02*
X018506Y010496D01*
X018422Y010496D01*
X018381Y010537D01*
X018381Y010704D01*
X018422Y010746D01*
X018506Y010746D01*
X018547Y010704D01*
X018657Y010704D02*
X018699Y010746D01*
X018782Y010746D01*
X018824Y010704D01*
X018824Y010663D01*
X018782Y010621D01*
X018824Y010579D01*
X018824Y010537D01*
X018782Y010496D01*
X018782Y010621D02*
X018740Y010621D01*
X016604Y011707D02*
X016604Y011749D01*
X016562Y011791D01*
X016437Y011791D01*
X016328Y011791D02*
X016161Y011791D01*
X016286Y011916D01*
X016286Y011666D01*
X016437Y011666D02*
X016562Y011666D01*
X016604Y011707D01*
X016562Y011791D02*
X016604Y011833D01*
X016604Y011874D01*
X016562Y011916D01*
X016437Y011916D01*
X016437Y011666D01*
X016052Y011707D02*
X016010Y011666D01*
X015926Y011666D01*
X015885Y011707D01*
X015885Y011874D01*
X015926Y011916D01*
X016010Y011916D01*
X016052Y011874D01*
X015784Y011916D02*
X015701Y011916D01*
X015742Y011916D02*
X015742Y011666D01*
X015701Y011666D02*
X015784Y011666D01*
X012349Y010266D02*
X012182Y010016D01*
X012349Y010016D02*
X012182Y010266D01*
X012072Y010266D02*
X011906Y010266D01*
X011989Y010266D02*
X011989Y010016D01*
X011796Y009974D02*
X011629Y009974D01*
X011436Y010016D02*
X011436Y010266D01*
X011353Y010266D02*
X011520Y010266D01*
X011244Y010266D02*
X011244Y010016D01*
X011077Y010266D01*
X011077Y010016D01*
X010967Y010016D02*
X010967Y010183D01*
X010884Y010266D01*
X010801Y010183D01*
X010801Y010016D01*
X010801Y010141D02*
X010967Y010141D01*
X008924Y009054D02*
X008924Y009013D01*
X008757Y008846D01*
X008924Y008846D01*
X008647Y008887D02*
X008606Y008846D01*
X008522Y008846D01*
X008481Y008887D01*
X008481Y009054D01*
X008522Y009096D01*
X008606Y009096D01*
X008647Y009054D01*
X008757Y009054D02*
X008799Y009096D01*
X008882Y009096D01*
X008924Y009054D01*
X007649Y009866D02*
X007482Y010116D01*
X007372Y010074D02*
X007372Y009991D01*
X007331Y009949D01*
X007206Y009949D01*
X007289Y009949D02*
X007372Y009866D01*
X007482Y009866D02*
X007649Y010116D01*
X007372Y010074D02*
X007331Y010116D01*
X007206Y010116D01*
X007206Y009866D01*
X007096Y009824D02*
X006929Y009824D01*
X006736Y009866D02*
X006736Y010116D01*
X006653Y010116D02*
X006820Y010116D01*
X006544Y010116D02*
X006544Y009866D01*
X006377Y010116D01*
X006377Y009866D01*
X006267Y009866D02*
X006267Y010033D01*
X006184Y010116D01*
X006101Y010033D01*
X006101Y009866D01*
X006101Y009991D02*
X006267Y009991D01*
X007731Y010637D02*
X007772Y010596D01*
X007856Y010596D01*
X007897Y010637D01*
X008007Y010721D02*
X008174Y010721D01*
X008132Y010596D02*
X008132Y010846D01*
X008007Y010721D01*
X007897Y010804D02*
X007856Y010846D01*
X007772Y010846D01*
X007731Y010804D01*
X007731Y010637D01*
X008101Y011666D02*
X008184Y011666D01*
X008142Y011666D02*
X008142Y011916D01*
X008101Y011916D02*
X008184Y011916D01*
X008285Y011874D02*
X008285Y011707D01*
X008326Y011666D01*
X008410Y011666D01*
X008452Y011707D01*
X008561Y011791D02*
X008728Y011791D01*
X008686Y011666D02*
X008686Y011916D01*
X008561Y011791D01*
X008452Y011874D02*
X008410Y011916D01*
X008326Y011916D01*
X008285Y011874D01*
X004174Y009096D02*
X004174Y008846D01*
X004091Y008846D02*
X004258Y008846D01*
X004091Y009013D02*
X004174Y009096D01*
X003982Y009054D02*
X003940Y009096D01*
X003856Y009096D01*
X003815Y009054D01*
X003815Y008887D01*
X003856Y008846D01*
X003940Y008846D01*
X003982Y008887D01*
X003714Y008846D02*
X003631Y008846D01*
X003672Y008846D02*
X003672Y009096D01*
X003631Y009096D02*
X003714Y009096D01*
X003040Y008646D02*
X003040Y008396D01*
X002957Y008396D02*
X003124Y008396D01*
X002957Y008563D02*
X003040Y008646D01*
X002847Y008604D02*
X002806Y008646D01*
X002722Y008646D01*
X002681Y008604D01*
X002681Y008437D01*
X002722Y008396D01*
X002806Y008396D01*
X002847Y008437D01*
X002806Y007046D02*
X002847Y007004D01*
X002847Y006921D01*
X002806Y006879D01*
X002681Y006879D01*
X002764Y006879D02*
X002847Y006796D01*
X002957Y006837D02*
X002999Y006796D01*
X003082Y006796D01*
X003124Y006837D01*
X003124Y006921D01*
X003082Y006963D01*
X003040Y006963D01*
X002957Y006921D01*
X002957Y007046D01*
X003124Y007046D01*
X002806Y007046D02*
X002681Y007046D01*
X002681Y006796D01*
X005381Y008746D02*
X005464Y008746D01*
X005422Y008746D02*
X005422Y008996D01*
X005381Y008996D02*
X005464Y008996D01*
X005565Y008954D02*
X005565Y008787D01*
X005606Y008746D01*
X005690Y008746D01*
X005732Y008787D01*
X005841Y008746D02*
X006008Y008913D01*
X006008Y008954D01*
X005966Y008996D01*
X005883Y008996D01*
X005841Y008954D01*
X005732Y008954D02*
X005690Y008996D01*
X005606Y008996D01*
X005565Y008954D01*
X005841Y008746D02*
X006008Y008746D01*
D15*
X005656Y009771D02*
X005156Y009771D01*
X004906Y010021D01*
X004906Y010521D01*
X005156Y010771D01*
X005656Y010771D01*
X005906Y010521D01*
X005906Y010021D01*
X005656Y009771D01*
X005656Y011121D02*
X005156Y011121D01*
X004906Y011371D01*
X004656Y011121D01*
X004156Y011121D01*
X003906Y011371D01*
X003906Y011871D01*
X004156Y012121D01*
X004656Y012121D01*
X004906Y011871D01*
X005156Y012121D01*
X005656Y012121D01*
X005906Y011871D01*
X006156Y012121D01*
X006656Y012121D01*
X006906Y011871D01*
X007156Y012121D01*
X007656Y012121D01*
X007906Y011871D01*
X007906Y011371D01*
X007656Y011121D01*
X007156Y011121D01*
X006906Y011371D01*
X006656Y011121D01*
X006156Y011121D01*
X005906Y011371D01*
X005656Y011121D01*
X005906Y011371D02*
X005906Y011871D01*
X006906Y011871D02*
X006906Y011371D01*
X004906Y011371D02*
X004906Y011871D01*
X011206Y009321D02*
X011206Y008821D01*
X011456Y008571D01*
X011956Y008571D01*
X012206Y008821D01*
X012206Y009321D01*
X011956Y009571D01*
X011456Y009571D01*
X011206Y009321D01*
X012561Y009541D02*
X012561Y007100D01*
X014750Y007100D01*
X014750Y009541D01*
X012561Y009541D01*
X011956Y008121D02*
X011456Y008121D01*
X011206Y007871D01*
X011206Y007371D01*
X011456Y007121D01*
X011956Y007121D01*
X012206Y007371D01*
X012206Y007871D01*
X011956Y008121D01*
X011206Y007871D02*
X010956Y008121D01*
X010456Y008121D01*
X010206Y007871D01*
X010206Y007371D01*
X010456Y007121D01*
X010956Y007121D01*
X011206Y007371D01*
X010206Y007371D02*
X009956Y007121D01*
X009456Y007121D01*
X009206Y007371D01*
X008956Y007121D01*
X008456Y007121D01*
X008206Y007371D01*
X008206Y007871D01*
X008456Y008121D01*
X008956Y008121D01*
X009206Y007871D01*
X009456Y008121D01*
X009956Y008121D01*
X010206Y007871D01*
X009206Y007871D02*
X009206Y007371D01*
X015211Y007100D02*
X015211Y009541D01*
X017400Y009541D01*
X017400Y007100D01*
X015211Y007100D01*
X017861Y007100D02*
X017861Y009541D01*
X020050Y009541D01*
X020050Y007100D01*
X017861Y007100D01*
X020511Y007100D02*
X020511Y009541D01*
X022700Y009541D01*
X022700Y007100D01*
X020511Y007100D01*
X020556Y011121D02*
X020056Y011121D01*
X019806Y011371D01*
X019556Y011121D01*
X019056Y011121D01*
X018806Y011371D01*
X018556Y011121D01*
X018056Y011121D01*
X017806Y011371D01*
X017556Y011121D01*
X017056Y011121D01*
X016806Y011371D01*
X016806Y011871D01*
X017056Y012121D01*
X017556Y012121D01*
X017806Y011871D01*
X018056Y012121D01*
X018556Y012121D01*
X018806Y011871D01*
X019056Y012121D01*
X019556Y012121D01*
X019806Y011871D01*
X020056Y012121D01*
X020556Y012121D01*
X020806Y011871D01*
X020806Y011371D01*
X020556Y011121D01*
X019806Y011371D02*
X019806Y011871D01*
X018806Y011871D02*
X018806Y011371D01*
X017806Y011371D02*
X017806Y011871D01*
M02*
