G75*
%MOIN*%
%OFA0B0*%
%FSLAX24Y24*%
%IPPOS*%
%LPD*%
%AMOC8*
5,1,8,0,0,1.08239X$1,22.5*
%
%ADD10C,0.0000*%
%ADD11C,0.0070*%
D10*
X001733Y011238D02*
X001733Y020692D01*
X016441Y020692D01*
X016441Y011238D01*
X001733Y011238D01*
X002021Y012078D02*
X002023Y012124D01*
X002029Y012169D01*
X002039Y012214D01*
X002052Y012257D01*
X002069Y012300D01*
X002090Y012340D01*
X002114Y012379D01*
X002142Y012415D01*
X002173Y012449D01*
X002206Y012481D01*
X002242Y012509D01*
X002280Y012534D01*
X002320Y012556D01*
X002362Y012574D01*
X002405Y012588D01*
X002450Y012599D01*
X002495Y012606D01*
X002541Y012609D01*
X002586Y012608D01*
X002632Y012603D01*
X002677Y012594D01*
X002720Y012582D01*
X002763Y012565D01*
X002804Y012545D01*
X002843Y012522D01*
X002881Y012495D01*
X002915Y012465D01*
X002947Y012433D01*
X002976Y012397D01*
X003002Y012360D01*
X003025Y012320D01*
X003044Y012279D01*
X003059Y012236D01*
X003071Y012191D01*
X003079Y012146D01*
X003083Y012101D01*
X003083Y012055D01*
X003079Y012010D01*
X003071Y011965D01*
X003059Y011920D01*
X003044Y011877D01*
X003025Y011836D01*
X003002Y011796D01*
X002976Y011759D01*
X002947Y011723D01*
X002915Y011691D01*
X002881Y011661D01*
X002843Y011634D01*
X002804Y011611D01*
X002763Y011591D01*
X002720Y011574D01*
X002677Y011562D01*
X002632Y011553D01*
X002586Y011548D01*
X002541Y011547D01*
X002495Y011550D01*
X002450Y011557D01*
X002405Y011568D01*
X002362Y011582D01*
X002320Y011600D01*
X002280Y011622D01*
X002242Y011647D01*
X002206Y011675D01*
X002173Y011707D01*
X002142Y011741D01*
X002114Y011777D01*
X002090Y011816D01*
X002069Y011856D01*
X002052Y011899D01*
X002039Y011942D01*
X002029Y011987D01*
X002023Y012032D01*
X002021Y012078D01*
X002014Y019886D02*
X002016Y019932D01*
X002022Y019977D01*
X002032Y020022D01*
X002045Y020065D01*
X002062Y020108D01*
X002083Y020148D01*
X002107Y020187D01*
X002135Y020223D01*
X002166Y020257D01*
X002199Y020289D01*
X002235Y020317D01*
X002273Y020342D01*
X002313Y020364D01*
X002355Y020382D01*
X002398Y020396D01*
X002443Y020407D01*
X002488Y020414D01*
X002534Y020417D01*
X002579Y020416D01*
X002625Y020411D01*
X002670Y020402D01*
X002713Y020390D01*
X002756Y020373D01*
X002797Y020353D01*
X002836Y020330D01*
X002874Y020303D01*
X002908Y020273D01*
X002940Y020241D01*
X002969Y020205D01*
X002995Y020168D01*
X003018Y020128D01*
X003037Y020087D01*
X003052Y020044D01*
X003064Y019999D01*
X003072Y019954D01*
X003076Y019909D01*
X003076Y019863D01*
X003072Y019818D01*
X003064Y019773D01*
X003052Y019728D01*
X003037Y019685D01*
X003018Y019644D01*
X002995Y019604D01*
X002969Y019567D01*
X002940Y019531D01*
X002908Y019499D01*
X002874Y019469D01*
X002836Y019442D01*
X002797Y019419D01*
X002756Y019399D01*
X002713Y019382D01*
X002670Y019370D01*
X002625Y019361D01*
X002579Y019356D01*
X002534Y019355D01*
X002488Y019358D01*
X002443Y019365D01*
X002398Y019376D01*
X002355Y019390D01*
X002313Y019408D01*
X002273Y019430D01*
X002235Y019455D01*
X002199Y019483D01*
X002166Y019515D01*
X002135Y019549D01*
X002107Y019585D01*
X002083Y019624D01*
X002062Y019664D01*
X002045Y019707D01*
X002032Y019750D01*
X002022Y019795D01*
X002016Y019840D01*
X002014Y019886D01*
X013503Y012129D02*
X013505Y012163D01*
X013511Y012197D01*
X013521Y012230D01*
X013534Y012261D01*
X013552Y012291D01*
X013572Y012319D01*
X013596Y012344D01*
X013622Y012366D01*
X013650Y012384D01*
X013681Y012400D01*
X013713Y012412D01*
X013747Y012420D01*
X013781Y012424D01*
X013815Y012424D01*
X013849Y012420D01*
X013883Y012412D01*
X013915Y012400D01*
X013945Y012384D01*
X013974Y012366D01*
X014000Y012344D01*
X014024Y012319D01*
X014044Y012291D01*
X014062Y012261D01*
X014075Y012230D01*
X014085Y012197D01*
X014091Y012163D01*
X014093Y012129D01*
X014091Y012095D01*
X014085Y012061D01*
X014075Y012028D01*
X014062Y011997D01*
X014044Y011967D01*
X014024Y011939D01*
X014000Y011914D01*
X013974Y011892D01*
X013946Y011874D01*
X013915Y011858D01*
X013883Y011846D01*
X013849Y011838D01*
X013815Y011834D01*
X013781Y011834D01*
X013747Y011838D01*
X013713Y011846D01*
X013681Y011858D01*
X013650Y011874D01*
X013622Y011892D01*
X013596Y011914D01*
X013572Y011939D01*
X013552Y011967D01*
X013534Y011997D01*
X013521Y012028D01*
X013511Y012061D01*
X013505Y012095D01*
X013503Y012129D01*
X015114Y012061D02*
X015116Y012107D01*
X015122Y012152D01*
X015132Y012197D01*
X015145Y012240D01*
X015162Y012283D01*
X015183Y012323D01*
X015207Y012362D01*
X015235Y012398D01*
X015266Y012432D01*
X015299Y012464D01*
X015335Y012492D01*
X015373Y012517D01*
X015413Y012539D01*
X015455Y012557D01*
X015498Y012571D01*
X015543Y012582D01*
X015588Y012589D01*
X015634Y012592D01*
X015679Y012591D01*
X015725Y012586D01*
X015770Y012577D01*
X015813Y012565D01*
X015856Y012548D01*
X015897Y012528D01*
X015936Y012505D01*
X015974Y012478D01*
X016008Y012448D01*
X016040Y012416D01*
X016069Y012380D01*
X016095Y012343D01*
X016118Y012303D01*
X016137Y012262D01*
X016152Y012219D01*
X016164Y012174D01*
X016172Y012129D01*
X016176Y012084D01*
X016176Y012038D01*
X016172Y011993D01*
X016164Y011948D01*
X016152Y011903D01*
X016137Y011860D01*
X016118Y011819D01*
X016095Y011779D01*
X016069Y011742D01*
X016040Y011706D01*
X016008Y011674D01*
X015974Y011644D01*
X015936Y011617D01*
X015897Y011594D01*
X015856Y011574D01*
X015813Y011557D01*
X015770Y011545D01*
X015725Y011536D01*
X015679Y011531D01*
X015634Y011530D01*
X015588Y011533D01*
X015543Y011540D01*
X015498Y011551D01*
X015455Y011565D01*
X015413Y011583D01*
X015373Y011605D01*
X015335Y011630D01*
X015299Y011658D01*
X015266Y011690D01*
X015235Y011724D01*
X015207Y011760D01*
X015183Y011799D01*
X015162Y011839D01*
X015145Y011882D01*
X015132Y011925D01*
X015122Y011970D01*
X015116Y012015D01*
X015114Y012061D01*
X015098Y019868D02*
X015100Y019914D01*
X015106Y019959D01*
X015116Y020004D01*
X015129Y020047D01*
X015146Y020090D01*
X015167Y020130D01*
X015191Y020169D01*
X015219Y020205D01*
X015250Y020239D01*
X015283Y020271D01*
X015319Y020299D01*
X015357Y020324D01*
X015397Y020346D01*
X015439Y020364D01*
X015482Y020378D01*
X015527Y020389D01*
X015572Y020396D01*
X015618Y020399D01*
X015663Y020398D01*
X015709Y020393D01*
X015754Y020384D01*
X015797Y020372D01*
X015840Y020355D01*
X015881Y020335D01*
X015920Y020312D01*
X015958Y020285D01*
X015992Y020255D01*
X016024Y020223D01*
X016053Y020187D01*
X016079Y020150D01*
X016102Y020110D01*
X016121Y020069D01*
X016136Y020026D01*
X016148Y019981D01*
X016156Y019936D01*
X016160Y019891D01*
X016160Y019845D01*
X016156Y019800D01*
X016148Y019755D01*
X016136Y019710D01*
X016121Y019667D01*
X016102Y019626D01*
X016079Y019586D01*
X016053Y019549D01*
X016024Y019513D01*
X015992Y019481D01*
X015958Y019451D01*
X015920Y019424D01*
X015881Y019401D01*
X015840Y019381D01*
X015797Y019364D01*
X015754Y019352D01*
X015709Y019343D01*
X015663Y019338D01*
X015618Y019337D01*
X015572Y019340D01*
X015527Y019347D01*
X015482Y019358D01*
X015439Y019372D01*
X015397Y019390D01*
X015357Y019412D01*
X015319Y019437D01*
X015283Y019465D01*
X015250Y019497D01*
X015219Y019531D01*
X015191Y019567D01*
X015167Y019606D01*
X015146Y019646D01*
X015129Y019689D01*
X015116Y019732D01*
X015106Y019777D01*
X015100Y019822D01*
X015098Y019868D01*
D11*
X000963Y008208D02*
X000648Y008208D01*
X000648Y008839D01*
X000963Y008839D01*
X001068Y008734D01*
X001068Y008313D01*
X000963Y008208D01*
X001293Y008208D02*
X001503Y008208D01*
X001398Y008208D02*
X001398Y008629D01*
X001293Y008629D01*
X001398Y008839D02*
X001398Y008944D01*
X001722Y008629D02*
X001827Y008629D01*
X001932Y008524D01*
X002037Y008629D01*
X002143Y008524D01*
X002143Y008208D01*
X001932Y008208D02*
X001932Y008524D01*
X001722Y008629D02*
X001722Y008208D01*
X002367Y008313D02*
X002367Y008524D01*
X002472Y008629D01*
X002682Y008629D01*
X002787Y008524D01*
X002787Y008419D01*
X002367Y008419D01*
X002367Y008313D02*
X002472Y008208D01*
X002682Y008208D01*
X003011Y008208D02*
X003011Y008629D01*
X003327Y008629D01*
X003432Y008524D01*
X003432Y008208D01*
X003656Y008208D02*
X003971Y008208D01*
X004076Y008313D01*
X003971Y008419D01*
X003761Y008419D01*
X003656Y008524D01*
X003761Y008629D01*
X004076Y008629D01*
X004300Y008629D02*
X004406Y008629D01*
X004406Y008208D01*
X004511Y008208D02*
X004300Y008208D01*
X004730Y008313D02*
X004835Y008208D01*
X005045Y008208D01*
X005150Y008313D01*
X005150Y008524D01*
X005045Y008629D01*
X004835Y008629D01*
X004730Y008524D01*
X004730Y008313D01*
X004406Y008839D02*
X004406Y008944D01*
X005375Y008629D02*
X005375Y008208D01*
X005375Y008629D02*
X005690Y008629D01*
X005795Y008524D01*
X005795Y008208D01*
M02*
