G75*
%MOIN*%
%OFA0B0*%
%FSLAX24Y24*%
%IPPOS*%
%LPD*%
%AMOC8*
5,1,8,0,0,1.08239X$1,22.5*
%
%ADD10C,0.0070*%
%ADD11R,0.0512X0.0156*%
%ADD12R,0.0512X0.0145*%
%ADD13R,0.0276X0.0276*%
%ADD14R,0.0709X0.0236*%
%ADD15R,0.1063X0.0551*%
%ADD16R,0.0394X0.0394*%
%ADD17R,0.0551X0.1063*%
%ADD18R,0.1150X0.1000*%
%ADD19R,0.0400X0.0500*%
%ADD20R,0.0827X0.0709*%
%ADD21R,0.0591X0.0197*%
%ADD22R,0.0197X0.0591*%
%ADD23R,0.0512X0.0591*%
%ADD24R,0.0591X0.0512*%
%ADD25R,0.0551X0.0394*%
%ADD26R,0.0394X0.0551*%
%ADD27R,0.0827X0.0236*%
%ADD28R,0.0827X0.0157*%
D10*
X000648Y001518D02*
X000648Y002149D01*
X000963Y002149D01*
X001068Y002044D01*
X001068Y001834D01*
X000963Y001729D01*
X000648Y001729D01*
X001293Y001623D02*
X001398Y001729D01*
X001713Y001729D01*
X001713Y001834D02*
X001713Y001518D01*
X001398Y001518D01*
X001293Y001623D01*
X001398Y001939D02*
X001608Y001939D01*
X001713Y001834D01*
X001937Y001834D02*
X002042Y001939D01*
X002357Y001939D01*
X002582Y001939D02*
X002792Y001939D01*
X002687Y002044D02*
X002687Y001623D01*
X002792Y001518D01*
X003011Y001623D02*
X003011Y001834D01*
X003116Y001939D01*
X003327Y001939D01*
X003432Y001834D01*
X003432Y001729D01*
X003011Y001729D01*
X003011Y001623D02*
X003116Y001518D01*
X003327Y001518D01*
X003656Y001518D02*
X003656Y001939D01*
X003761Y001939D01*
X003866Y001834D01*
X003971Y001939D01*
X004076Y001834D01*
X004076Y001518D01*
X003866Y001518D02*
X003866Y001834D01*
X004300Y001623D02*
X004406Y001729D01*
X004721Y001729D01*
X004721Y001834D02*
X004721Y001518D01*
X004406Y001518D01*
X004300Y001623D01*
X004406Y001939D02*
X004616Y001939D01*
X004721Y001834D01*
X004945Y001834D02*
X005050Y001939D01*
X005365Y001939D01*
X005260Y001729D02*
X005050Y001729D01*
X004945Y001834D01*
X004945Y001518D02*
X005260Y001518D01*
X005365Y001623D01*
X005260Y001729D01*
X005590Y001729D02*
X005905Y001939D01*
X005590Y002149D02*
X005590Y001518D01*
X005590Y001729D02*
X005905Y001518D01*
X006127Y001308D02*
X006337Y001518D01*
X006232Y001518D01*
X006232Y001623D01*
X006337Y001623D01*
X006337Y001518D01*
X007201Y001939D02*
X007411Y001939D01*
X007306Y002044D02*
X007306Y001623D01*
X007411Y001518D01*
X007631Y001623D02*
X007631Y001834D01*
X007736Y001939D01*
X007946Y001939D01*
X008051Y001834D01*
X008051Y001623D01*
X007946Y001518D01*
X007736Y001518D01*
X007631Y001623D01*
X008275Y001518D02*
X008590Y001518D01*
X008696Y001623D01*
X008696Y001834D01*
X008590Y001939D01*
X008275Y001939D01*
X008275Y001308D01*
X009564Y001518D02*
X009880Y001518D01*
X009985Y001623D01*
X009880Y001729D01*
X009669Y001729D01*
X009564Y001834D01*
X009669Y001939D01*
X009985Y001939D01*
X010209Y001939D02*
X010314Y001939D01*
X010314Y001518D01*
X010209Y001518D02*
X010419Y001518D01*
X010638Y001623D02*
X010638Y001834D01*
X010744Y001939D01*
X011059Y001939D01*
X011059Y002149D02*
X011059Y001518D01*
X010744Y001518D01*
X010638Y001623D01*
X010314Y002149D02*
X010314Y002254D01*
X011283Y001834D02*
X011283Y001623D01*
X011388Y001518D01*
X011598Y001518D01*
X011703Y001729D02*
X011283Y001729D01*
X011283Y001834D02*
X011388Y001939D01*
X011598Y001939D01*
X011703Y001834D01*
X011703Y001729D01*
X002357Y001623D02*
X002252Y001729D01*
X002042Y001729D01*
X001937Y001834D01*
X001937Y001518D02*
X002252Y001518D01*
X002357Y001623D01*
D11*
X007483Y017857D03*
X007483Y018113D03*
X007483Y018369D03*
X007483Y018625D03*
X007483Y018881D03*
X007483Y019137D03*
X007483Y019393D03*
X007483Y019648D03*
X007483Y019904D03*
X007483Y020160D03*
X009747Y019904D03*
X009747Y019648D03*
X009747Y019393D03*
X009747Y019137D03*
X009747Y018881D03*
X009747Y018625D03*
X009747Y018369D03*
X009747Y018113D03*
X009747Y017857D03*
D12*
X009747Y020160D03*
D13*
X010280Y020108D03*
X010752Y020108D03*
X010752Y019578D03*
X010280Y019578D03*
X012333Y015932D03*
X011919Y015895D03*
X011919Y015445D03*
X012333Y015459D03*
X011447Y015445D03*
X011447Y015895D03*
X009508Y014603D03*
X009036Y014603D03*
X007679Y014608D03*
X007207Y014608D03*
X005024Y012634D03*
X005024Y012162D03*
X004487Y013748D03*
X004014Y013748D03*
X004641Y018283D03*
X005114Y018283D03*
X014483Y017485D03*
X014483Y017012D03*
X014583Y015932D03*
X014583Y015459D03*
D14*
X013864Y016495D03*
X013864Y016995D03*
X013864Y017495D03*
X013864Y017995D03*
X011942Y017995D03*
X011942Y017495D03*
X011942Y016995D03*
X011942Y016495D03*
X009481Y016603D03*
X009481Y016103D03*
X009481Y015603D03*
X009481Y015103D03*
X007560Y015103D03*
X007560Y015603D03*
X007560Y016103D03*
X007560Y016603D03*
X007593Y013140D03*
X007593Y012640D03*
X007593Y012140D03*
X007593Y011640D03*
X005672Y011640D03*
X005672Y012140D03*
X005672Y012640D03*
X005672Y013140D03*
D15*
X015433Y015355D03*
X015433Y016497D03*
X015443Y017344D03*
X015443Y018486D03*
D16*
X014118Y018695D03*
X013448Y018695D03*
D17*
X013974Y015656D03*
X012832Y015656D03*
D18*
X014277Y019645D03*
D19*
X013277Y019645D03*
D20*
X013269Y014193D03*
X011537Y014193D03*
D21*
X006548Y014935D03*
X006548Y015250D03*
X006548Y015565D03*
X006548Y015880D03*
X006548Y016195D03*
X006548Y016510D03*
X006548Y016825D03*
X006548Y017140D03*
X003201Y017140D03*
X003201Y016825D03*
X003201Y016510D03*
X003201Y016195D03*
X003201Y015880D03*
X003201Y015565D03*
X003201Y015250D03*
X003201Y014935D03*
D22*
X003772Y014365D03*
X004087Y014365D03*
X004402Y014365D03*
X004717Y014365D03*
X005032Y014365D03*
X005347Y014365D03*
X005662Y014365D03*
X005977Y014365D03*
X005977Y017711D03*
X005662Y017711D03*
X005347Y017711D03*
X005032Y017711D03*
X004717Y017711D03*
X004402Y017711D03*
X004087Y017711D03*
X003772Y017711D03*
D23*
X014097Y013983D03*
X014767Y013983D03*
D24*
X015472Y013985D03*
X015472Y014654D03*
X010291Y015518D03*
X010291Y016188D03*
D25*
X008406Y012834D03*
X008406Y012086D03*
X009272Y012460D03*
D26*
X009978Y013814D03*
X010726Y013814D03*
X010352Y014680D03*
D27*
X002404Y016302D03*
X002404Y017050D03*
D28*
X002404Y016676D03*
M02*
