%
M48
M72
T01C0.0118
T02C0.0320
T03C0.0394
T04C0.0591
T05C0.1063
%
T01
X6703Y12518
X7223Y13878
X6423Y14518
X5783Y14918
X6043Y15248
X5543Y15558
X6043Y15888
X5923Y16368
X5843Y16968
X5383Y16918
X4763Y17208
X4403Y17248
X4083Y17248
X3683Y16648
X3823Y15678
X4703Y16278
X4763Y15168
X4743Y14838
X4843Y13528
X4083Y13368
X3663Y13718
X4693Y12658
X1931Y15967
X1931Y17367
X2883Y17448
X3343Y18358
X4203Y18208
X5003Y18608
X6863Y18238
X7463Y17558
X7803Y17448
X8163Y16368
X8483Y16208
X8563Y15888
X8563Y15528
X8043Y15288
X9503Y14238
X9913Y14688
X11133Y15695
X11363Y14968
X12023Y14758
X11263Y13558
X8943Y13238
X8813Y12448
X11063Y16438
X10063Y16718
X9583Y17278
X10263Y18638
X9283Y19368
X8543Y19798
X8343Y19118
X6983Y19838
X6823Y20438
X11103Y20118
X12063Y18598
X12977Y19195
X13277Y19195
X14495Y16675
X14415Y16275
X14883Y16045
X15433Y15895
X15733Y15895
X16013Y14655
X14933Y14615
X13515Y15765
X13515Y16005
X12493Y16495
X2423Y18398
T02
X10789Y11850
X11289Y12850
X11789Y11850
X12289Y12850
X12789Y11850
X13289Y12850
T03
X6156Y19099
X6156Y20099
X5156Y20099
X5156Y19099
X4156Y19099
X4156Y20099
T04
X13798Y12129
T05
X2552Y12078
X2545Y19886
X15629Y19868
X15645Y12061
M30
