G75*
%MOIN*%
%OFA0B0*%
%FSLAX24Y24*%
%IPPOS*%
%LPD*%
%AMOC8*
5,1,8,0,0,1.08239X$1,22.5*
%
%ADD10C,0.0070*%
%ADD11R,0.0512X0.0156*%
%ADD12R,0.0512X0.0145*%
%ADD13R,0.0276X0.0276*%
%ADD14R,0.0709X0.0236*%
%ADD15R,0.1063X0.0551*%
%ADD16R,0.0394X0.0394*%
%ADD17R,0.0551X0.1063*%
%ADD18R,0.1150X0.1000*%
%ADD19R,0.0400X0.0500*%
%ADD20R,0.0827X0.0709*%
%ADD21C,0.0554*%
%ADD22R,0.0554X0.0554*%
%ADD23R,0.0591X0.0197*%
%ADD24R,0.0197X0.0591*%
%ADD25C,0.0480*%
%ADD26R,0.0512X0.0591*%
%ADD27R,0.0591X0.0512*%
%ADD28R,0.0551X0.0394*%
%ADD29R,0.0394X0.0551*%
%ADD30R,0.0827X0.0236*%
%ADD31R,0.0827X0.0157*%
%ADD32C,0.0120*%
%ADD33C,0.0218*%
%ADD34C,0.0080*%
%ADD35C,0.0160*%
%ADD36C,0.0400*%
%ADD37C,0.0100*%
%ADD38C,0.0060*%
%ADD39C,0.0240*%
D10*
X001937Y006898D02*
X001937Y007529D01*
X002252Y007529D01*
X002357Y007424D01*
X002357Y007213D01*
X002252Y007108D01*
X001937Y007108D01*
X001713Y007213D02*
X001713Y007424D01*
X001608Y007529D01*
X001398Y007529D01*
X001293Y007424D01*
X001293Y007213D01*
X001398Y007108D01*
X001608Y007108D01*
X001713Y007213D01*
X001068Y007213D02*
X000963Y007108D01*
X000753Y007108D01*
X000648Y007213D01*
X000648Y007634D01*
X000753Y007739D01*
X000963Y007739D01*
X001068Y007634D01*
X002582Y007529D02*
X002582Y006898D01*
X002582Y007108D02*
X002897Y007108D01*
X003002Y007213D01*
X003002Y007424D01*
X002897Y007529D01*
X002582Y007529D01*
X003226Y007424D02*
X003226Y007213D01*
X003331Y007108D01*
X003541Y007108D01*
X003647Y007319D02*
X003226Y007319D01*
X003226Y007424D02*
X003331Y007529D01*
X003541Y007529D01*
X003647Y007424D01*
X003647Y007319D01*
X003871Y007319D02*
X004081Y007529D01*
X004186Y007529D01*
X003871Y007529D02*
X003871Y007108D01*
X004408Y006898D02*
X004618Y007108D01*
X004513Y007108D01*
X004513Y007213D01*
X004618Y007213D01*
X004618Y007108D01*
X005482Y007529D02*
X005692Y007529D01*
X005587Y007634D02*
X005587Y007213D01*
X005692Y007108D01*
X005912Y007213D02*
X006017Y007108D01*
X006227Y007108D01*
X006332Y007213D01*
X006332Y007424D01*
X006227Y007529D01*
X006017Y007529D01*
X005912Y007424D01*
X005912Y007213D01*
X006556Y007108D02*
X006872Y007108D01*
X006977Y007213D01*
X006977Y007424D01*
X006872Y007529D01*
X006556Y007529D01*
X006556Y006898D01*
X007845Y007108D02*
X008161Y007108D01*
X008266Y007213D01*
X008161Y007319D01*
X007951Y007319D01*
X007845Y007424D01*
X007951Y007529D01*
X008266Y007529D01*
X008490Y007529D02*
X008595Y007529D01*
X008595Y007108D01*
X008490Y007108D02*
X008700Y007108D01*
X008920Y007213D02*
X008920Y007424D01*
X009025Y007529D01*
X009340Y007529D01*
X009340Y007739D02*
X009340Y007108D01*
X009025Y007108D01*
X008920Y007213D01*
X008595Y007739D02*
X008595Y007844D01*
X009564Y007424D02*
X009564Y007213D01*
X009669Y007108D01*
X009880Y007108D01*
X009985Y007319D02*
X009564Y007319D01*
X009564Y007424D02*
X009669Y007529D01*
X009880Y007529D01*
X009985Y007424D01*
X009985Y007319D01*
D11*
X009747Y017857D03*
X009747Y018113D03*
X009747Y018369D03*
X009747Y018625D03*
X009747Y018881D03*
X009747Y019137D03*
X009747Y019393D03*
X009747Y019648D03*
X009747Y019904D03*
X007483Y019904D03*
X007483Y020160D03*
X007483Y019648D03*
X007483Y019393D03*
X007483Y019137D03*
X007483Y018881D03*
X007483Y018625D03*
X007483Y018369D03*
X007483Y018113D03*
X007483Y017857D03*
D12*
X009747Y020160D03*
D13*
X010280Y020108D03*
X010752Y020108D03*
X010752Y019578D03*
X010280Y019578D03*
X012333Y015932D03*
X011919Y015895D03*
X011919Y015445D03*
X012333Y015459D03*
X011447Y015445D03*
X011447Y015895D03*
X009508Y014603D03*
X009036Y014603D03*
X007679Y014608D03*
X007207Y014608D03*
X005024Y012634D03*
X005024Y012162D03*
X004487Y013748D03*
X004014Y013748D03*
X004641Y018283D03*
X005114Y018283D03*
X014483Y017485D03*
X014483Y017012D03*
X014583Y015932D03*
X014583Y015459D03*
D14*
X013864Y016495D03*
X013864Y016995D03*
X013864Y017495D03*
X013864Y017995D03*
X011942Y017995D03*
X011942Y017495D03*
X011942Y016995D03*
X011942Y016495D03*
X009481Y016603D03*
X009481Y016103D03*
X009481Y015603D03*
X009481Y015103D03*
X007560Y015103D03*
X007560Y015603D03*
X007560Y016103D03*
X007560Y016603D03*
X007593Y013140D03*
X007593Y012640D03*
X007593Y012140D03*
X007593Y011640D03*
X005672Y011640D03*
X005672Y012140D03*
X005672Y012640D03*
X005672Y013140D03*
D15*
X015433Y015355D03*
X015433Y016497D03*
X015443Y017344D03*
X015443Y018486D03*
D16*
X014118Y018695D03*
X013448Y018695D03*
D17*
X013974Y015656D03*
X012832Y015656D03*
D18*
X014277Y019645D03*
D19*
X013277Y019645D03*
D20*
X013269Y014193D03*
X011537Y014193D03*
D21*
X006156Y019099D03*
X005156Y019099D03*
X005156Y020099D03*
X004156Y020099D03*
X004156Y019099D03*
D22*
X006156Y020099D03*
D23*
X006548Y017140D03*
X006548Y016825D03*
X006548Y016510D03*
X006548Y016195D03*
X006548Y015880D03*
X006548Y015565D03*
X006548Y015250D03*
X006548Y014935D03*
X003201Y014935D03*
X003201Y015250D03*
X003201Y015565D03*
X003201Y015880D03*
X003201Y016195D03*
X003201Y016510D03*
X003201Y016825D03*
X003201Y017140D03*
D24*
X003772Y017711D03*
X004087Y017711D03*
X004402Y017711D03*
X004717Y017711D03*
X005032Y017711D03*
X005347Y017711D03*
X005662Y017711D03*
X005977Y017711D03*
X005977Y014365D03*
X005662Y014365D03*
X005347Y014365D03*
X005032Y014365D03*
X004717Y014365D03*
X004402Y014365D03*
X004087Y014365D03*
X003772Y014365D03*
D25*
X010789Y011850D03*
X011289Y012850D03*
X011789Y011850D03*
X012289Y012850D03*
X012789Y011850D03*
X013289Y012850D03*
D26*
X014097Y013983D03*
X014767Y013983D03*
D27*
X015472Y013985D03*
X015472Y014654D03*
X010291Y015518D03*
X010291Y016188D03*
D28*
X008406Y012834D03*
X008406Y012086D03*
X009272Y012460D03*
D29*
X009978Y013814D03*
X010726Y013814D03*
X010352Y014680D03*
D30*
X002404Y016302D03*
X002404Y017050D03*
D31*
X002404Y016676D03*
D32*
X004443Y014168D02*
X004443Y013791D01*
X004443Y013704D02*
X004443Y012448D01*
X004723Y012168D01*
X004923Y012168D01*
X005024Y012128D02*
X005403Y012128D01*
X005443Y012648D02*
X005038Y012648D01*
X005003Y012648D02*
X004703Y012648D01*
X004563Y013808D02*
X005043Y013808D01*
X006243Y013808D01*
X006963Y014528D01*
X007163Y014528D01*
X009036Y014603D02*
X009036Y013856D01*
X009883Y013008D01*
X010363Y013008D01*
X010923Y012448D01*
X011483Y012448D01*
X011723Y012688D01*
X011723Y013888D01*
X011883Y014208D02*
X012123Y014208D01*
X012323Y014408D01*
X012323Y015449D01*
X012333Y015445D02*
X012633Y015445D01*
X012493Y016495D02*
X011942Y016495D01*
X012215Y016488D02*
X011563Y016488D01*
X010763Y017288D01*
X010763Y019648D01*
X010712Y019659D02*
X010366Y020005D01*
X010280Y020045D02*
X010123Y019888D01*
X009923Y019888D01*
X009755Y020168D02*
X010219Y020168D01*
X009739Y020168D02*
X009283Y020168D01*
X009083Y020368D01*
X007123Y020368D01*
X006683Y019928D01*
X006683Y019568D01*
X006214Y019099D01*
X006156Y019099D01*
X005083Y018528D02*
X005083Y018368D01*
X005083Y018528D02*
X005003Y018608D01*
X005083Y018168D02*
X005083Y017762D01*
X005043Y017608D02*
X005043Y014353D01*
X005043Y013808D01*
X003923Y013688D02*
X003693Y013688D01*
X003663Y013718D01*
X004723Y017717D02*
X004723Y018201D01*
X009043Y014888D02*
X009043Y014611D01*
X009036Y014603D01*
X009043Y014888D02*
X009203Y015048D01*
X009283Y015048D01*
X012763Y013048D02*
X012763Y011888D01*
X012789Y011862D02*
X012789Y011850D01*
X012763Y013048D02*
X013243Y013528D01*
X013243Y014167D01*
X013403Y014008D02*
X014072Y014008D01*
X014923Y013968D02*
X015415Y013968D01*
X015433Y015345D02*
X014633Y015345D01*
X014583Y015345D01*
X014533Y015295D01*
X014583Y015345D02*
X014133Y015345D01*
X013974Y015505D01*
X013974Y015656D01*
X014583Y015459D02*
X014583Y015345D01*
X014618Y015361D02*
X014633Y015345D01*
X014618Y015361D02*
X014583Y015459D01*
X014683Y016045D02*
X014883Y016045D01*
X014683Y016045D02*
X014984Y016347D01*
X015433Y015895D02*
X015433Y015355D01*
X015433Y015345D01*
X014377Y019536D02*
X014277Y019645D01*
X011103Y020118D02*
X011093Y020128D01*
X010843Y020128D01*
D33*
X011103Y020118D03*
X010263Y018638D03*
X009283Y019368D03*
X008543Y019798D03*
X008343Y019118D03*
X006983Y019838D03*
X006823Y020438D03*
X006863Y018238D03*
X007463Y017558D03*
X007803Y017448D03*
X008163Y016368D03*
X008483Y016208D03*
X008563Y015888D03*
X008563Y015528D03*
X008043Y015288D03*
X007223Y013878D03*
X006423Y014518D03*
X005783Y014918D03*
X006043Y015248D03*
X005543Y015558D03*
X006043Y015888D03*
X005923Y016368D03*
X005843Y016968D03*
X005383Y016918D03*
X004763Y017208D03*
X004403Y017248D03*
X004083Y017248D03*
X003683Y016648D03*
X003823Y015678D03*
X004703Y016278D03*
X004763Y015168D03*
X004743Y014838D03*
X004843Y013528D03*
X004083Y013368D03*
X003663Y013718D03*
X004693Y012658D03*
X006703Y012518D03*
X008813Y012448D03*
X008943Y013238D03*
X009503Y014238D03*
X009913Y014688D03*
X011133Y015695D03*
X011363Y014968D03*
X012023Y014758D03*
X011263Y013558D03*
X013515Y015765D03*
X013515Y016005D03*
X014415Y016275D03*
X014495Y016675D03*
X014883Y016045D03*
X015433Y015895D03*
X015733Y015895D03*
X016013Y014655D03*
X014933Y014615D03*
X012493Y016495D03*
X011063Y016438D03*
X010063Y016718D03*
X009583Y017278D03*
X012063Y018598D03*
X012977Y019195D03*
X013277Y019195D03*
X005003Y018608D03*
X004203Y018208D03*
X003343Y018358D03*
X002883Y017448D03*
X002423Y018398D03*
X001931Y017367D03*
X001931Y015967D03*
D34*
X001853Y016046D01*
X001853Y016688D01*
X001853Y017289D01*
X001931Y017367D01*
X001941Y017288D02*
X001870Y017218D01*
X001870Y016882D01*
X001895Y016858D01*
X001878Y016841D01*
X001860Y016809D01*
X001853Y016783D01*
X001853Y020572D01*
X016321Y020572D01*
X016321Y011358D01*
X012099Y011358D01*
X012163Y011422D01*
X012403Y011662D01*
X012403Y011795D01*
X012403Y012508D01*
X012493Y012545D01*
X012583Y012635D01*
X012583Y012153D01*
X012484Y012054D01*
X012429Y011922D01*
X012429Y011778D01*
X012484Y011646D01*
X012585Y011545D01*
X012717Y011490D01*
X012860Y011490D01*
X012993Y011545D01*
X013094Y011646D01*
X013149Y011778D01*
X013149Y011922D01*
X013094Y012054D01*
X012993Y012155D01*
X012943Y012176D01*
X012943Y012692D01*
X012952Y012670D01*
X012994Y012608D01*
X013047Y012555D01*
X013109Y012513D01*
X013178Y012485D01*
X013249Y012470D01*
X013249Y012810D01*
X013329Y012810D01*
X013329Y012890D01*
X013668Y012890D01*
X013654Y012961D01*
X013626Y013030D01*
X013584Y013092D01*
X013531Y013145D01*
X013469Y013187D01*
X013400Y013215D01*
X013329Y013229D01*
X013329Y012890D01*
X013249Y012890D01*
X013249Y013229D01*
X013186Y013217D01*
X013318Y013348D01*
X013423Y013454D01*
X013423Y013719D01*
X013721Y013719D01*
X013721Y013638D01*
X013792Y013568D01*
X014403Y013568D01*
X014432Y013597D01*
X014461Y013568D01*
X015072Y013568D01*
X015120Y013616D01*
X015127Y013609D01*
X015817Y013609D01*
X015887Y013680D01*
X015887Y014291D01*
X015872Y014306D01*
X015879Y014313D01*
X015898Y014345D01*
X015907Y014380D01*
X015907Y014614D01*
X015512Y014614D01*
X015512Y014694D01*
X015907Y014694D01*
X015907Y014929D01*
X015904Y014939D01*
X015983Y014939D01*
X016019Y014949D01*
X016050Y014967D01*
X016076Y014993D01*
X016095Y015025D01*
X016104Y015061D01*
X016104Y015315D01*
X015473Y015315D01*
X015473Y015395D01*
X015393Y015395D01*
X015393Y015770D01*
X015473Y015770D01*
X015473Y015395D01*
X016104Y015395D01*
X016104Y015649D01*
X016095Y015684D01*
X016076Y015716D01*
X016050Y015742D01*
X016019Y015761D01*
X015983Y015770D01*
X015473Y015770D01*
X015473Y015691D02*
X015393Y015691D01*
X015393Y015613D02*
X015473Y015613D01*
X015473Y015534D02*
X015393Y015534D01*
X015393Y015456D02*
X015473Y015456D01*
X015473Y015377D02*
X016321Y015377D01*
X016321Y015299D02*
X016104Y015299D01*
X016104Y015220D02*
X016321Y015220D01*
X016321Y015142D02*
X016104Y015142D01*
X016104Y015063D02*
X016321Y015063D01*
X016321Y014985D02*
X016068Y014985D01*
X015907Y014906D02*
X016321Y014906D01*
X016321Y014828D02*
X015907Y014828D01*
X015907Y014749D02*
X016321Y014749D01*
X016321Y014671D02*
X015512Y014671D01*
X015512Y014694D02*
X015432Y014694D01*
X015432Y014614D01*
X015037Y014614D01*
X015037Y014398D01*
X014461Y014398D01*
X014432Y014369D01*
X014403Y014398D01*
X013803Y014398D01*
X013803Y014597D01*
X013732Y014667D01*
X012806Y014667D01*
X012736Y014597D01*
X012736Y013789D01*
X012806Y013719D01*
X013063Y013719D01*
X013063Y013603D01*
X012583Y013123D01*
X012583Y013065D01*
X012493Y013155D01*
X012360Y013210D01*
X012217Y013210D01*
X012085Y013155D01*
X011984Y013054D01*
X011929Y012922D01*
X011929Y012778D01*
X011984Y012646D01*
X012083Y012547D01*
X012083Y012065D01*
X011993Y012155D01*
X011860Y012210D01*
X011717Y012210D01*
X011626Y012172D01*
X011529Y012268D01*
X011558Y012268D01*
X011663Y012374D01*
X011798Y012508D01*
X011903Y012614D01*
X011903Y013719D01*
X012000Y013719D01*
X012070Y013789D01*
X012070Y014028D01*
X012198Y014028D01*
X012398Y014228D01*
X012503Y014334D01*
X012503Y015008D01*
X012506Y015005D01*
X013157Y015005D01*
X013188Y015035D01*
X013589Y015035D01*
X013612Y015013D01*
X013644Y014994D01*
X013680Y014985D01*
X013934Y014985D01*
X014014Y014985D01*
X014268Y014985D01*
X014303Y014994D01*
X014335Y015013D01*
X014361Y015039D01*
X014380Y015071D01*
X014389Y015106D01*
X014389Y015192D01*
X014391Y015191D01*
X014427Y015181D01*
X014554Y015181D01*
X014554Y015430D01*
X014612Y015430D01*
X014612Y015181D01*
X014739Y015181D01*
X014761Y015187D01*
X014761Y015061D01*
X014771Y015025D01*
X014789Y014993D01*
X014816Y014967D01*
X014847Y014949D01*
X014883Y014939D01*
X015039Y014939D01*
X015037Y014929D01*
X015037Y014694D01*
X015432Y014694D01*
X015432Y015050D01*
X015393Y015050D01*
X015393Y015315D01*
X015473Y015315D01*
X015473Y014939D01*
X015512Y014939D01*
X015512Y014694D01*
X015512Y014749D02*
X015432Y014749D01*
X015432Y014671D02*
X012503Y014671D01*
X012503Y014749D02*
X015037Y014749D01*
X015037Y014828D02*
X012503Y014828D01*
X012503Y014906D02*
X015037Y014906D01*
X014798Y014985D02*
X014269Y014985D01*
X014375Y015063D02*
X014761Y015063D01*
X014761Y015142D02*
X014389Y015142D01*
X014554Y015220D02*
X014612Y015220D01*
X014612Y015299D02*
X014554Y015299D01*
X014554Y015377D02*
X014612Y015377D01*
X014841Y015757D02*
X014841Y015816D01*
X014978Y015816D01*
X015112Y015951D01*
X015112Y016101D01*
X016014Y016101D01*
X016084Y016171D01*
X016084Y016822D01*
X016014Y016892D01*
X015753Y016892D01*
X015753Y016949D01*
X016024Y016949D01*
X016094Y017019D01*
X016094Y017670D01*
X016067Y017697D01*
X016083Y017713D01*
X016083Y018149D01*
X016094Y018161D01*
X016094Y018811D01*
X016083Y018823D01*
X016083Y019401D01*
X016181Y019499D01*
X016280Y019739D01*
X016280Y019998D01*
X016181Y020238D01*
X015998Y020421D01*
X015758Y020520D01*
X015499Y020520D01*
X015260Y020421D01*
X015184Y020345D01*
X013655Y020345D01*
X013538Y020228D01*
X013538Y020022D01*
X013531Y020026D01*
X013496Y020035D01*
X013317Y020035D01*
X013317Y019685D01*
X013237Y019685D01*
X013237Y019605D01*
X012937Y019605D01*
X012937Y019377D01*
X012947Y019341D01*
X012965Y019309D01*
X012991Y019283D01*
X013023Y019265D01*
X013059Y019255D01*
X013237Y019255D01*
X013237Y019605D01*
X013317Y019605D01*
X013317Y019255D01*
X013496Y019255D01*
X013531Y019265D01*
X013538Y019269D01*
X013538Y019095D01*
X013030Y019095D01*
X012913Y018978D01*
X012913Y018866D01*
X012847Y018839D01*
X012244Y018235D01*
X011895Y018235D01*
X011890Y018234D01*
X011538Y018234D01*
X011468Y018163D01*
X011468Y017828D01*
X011538Y017757D01*
X011890Y017757D01*
X011895Y017755D01*
X012391Y017755D01*
X012479Y017792D01*
X012546Y017859D01*
X012913Y018226D01*
X012913Y017713D01*
X012920Y017705D01*
X012567Y017705D01*
X012473Y017612D01*
X012473Y016724D01*
X012398Y016724D01*
X012377Y016703D01*
X012346Y016734D01*
X011572Y016734D01*
X011549Y016757D01*
X012346Y016757D01*
X012417Y016828D01*
X012417Y017163D01*
X012346Y017234D01*
X011538Y017234D01*
X011468Y017163D01*
X011468Y016838D01*
X010943Y017363D01*
X010943Y019323D01*
X011010Y019390D01*
X011010Y019765D01*
X010940Y019836D01*
X010929Y019836D01*
X010944Y019840D01*
X010976Y019858D01*
X011002Y019884D01*
X011021Y019916D01*
X011030Y019952D01*
X011030Y020079D01*
X010781Y020079D01*
X010781Y020137D01*
X010723Y020137D01*
X010723Y020386D01*
X010596Y020386D01*
X010560Y020376D01*
X010529Y020358D01*
X010502Y020332D01*
X010502Y020331D01*
X010467Y020366D01*
X010092Y020366D01*
X010075Y020348D01*
X010057Y020348D01*
X010052Y020353D01*
X009441Y020353D01*
X009437Y020348D01*
X009358Y020348D01*
X009158Y020548D01*
X007048Y020548D01*
X006553Y020053D01*
X006553Y020425D01*
X006483Y020496D01*
X005830Y020496D01*
X005759Y020425D01*
X005759Y019991D01*
X005603Y019835D01*
X005603Y018835D01*
X005513Y018924D01*
X005553Y019020D01*
X005553Y019178D01*
X005493Y019324D01*
X005381Y019435D01*
X005235Y019496D01*
X005077Y019496D01*
X004931Y019435D01*
X004820Y019324D01*
X004759Y019178D01*
X004759Y019020D01*
X004820Y018874D01*
X004882Y018812D01*
X004774Y018703D01*
X004774Y018560D01*
X004670Y018560D01*
X004670Y018312D01*
X004612Y018312D01*
X004612Y018560D01*
X004485Y018560D01*
X004449Y018551D01*
X004418Y018532D01*
X004391Y018506D01*
X004373Y018474D01*
X004364Y018439D01*
X004364Y018372D01*
X004298Y018437D01*
X004108Y018437D01*
X004039Y018368D01*
X003817Y018368D01*
X003723Y018275D01*
X003643Y018195D01*
X003643Y018126D01*
X003624Y018126D01*
X003554Y018056D01*
X003554Y017366D01*
X003619Y017300D01*
X003605Y017300D01*
X003546Y017359D01*
X003112Y017359D01*
X003112Y017543D01*
X003043Y017612D01*
X003043Y018782D01*
X003709Y019448D01*
X003928Y019448D01*
X003885Y019417D01*
X003838Y019370D01*
X003800Y019317D01*
X003770Y019259D01*
X003750Y019196D01*
X003740Y019139D01*
X004116Y019139D01*
X004116Y019059D01*
X003740Y019059D01*
X003750Y019001D01*
X003770Y018939D01*
X003800Y018880D01*
X003838Y018827D01*
X003885Y018781D01*
X003938Y018742D01*
X003996Y018713D01*
X004059Y018692D01*
X004116Y018683D01*
X004116Y019059D01*
X004196Y019059D01*
X004196Y018683D01*
X004254Y018692D01*
X004316Y018713D01*
X004375Y018742D01*
X004428Y018781D01*
X004474Y018827D01*
X004513Y018880D01*
X004543Y018939D01*
X004563Y019001D01*
X004572Y019059D01*
X004196Y019059D01*
X004196Y019139D01*
X004572Y019139D01*
X004563Y019196D01*
X004543Y019259D01*
X004513Y019317D01*
X004474Y019370D01*
X004428Y019417D01*
X004384Y019448D01*
X004629Y019448D01*
X004940Y019759D01*
X005077Y019702D01*
X005235Y019702D01*
X005381Y019762D01*
X005493Y019874D01*
X005553Y020020D01*
X005553Y020178D01*
X005493Y020324D01*
X005381Y020435D01*
X005235Y020496D01*
X005077Y020496D01*
X004931Y020435D01*
X004820Y020324D01*
X004759Y020178D01*
X004759Y020031D01*
X004497Y019768D01*
X004387Y019768D01*
X004493Y019874D01*
X004553Y020020D01*
X004553Y020178D01*
X004493Y020324D01*
X004381Y020435D01*
X004235Y020496D01*
X004077Y020496D01*
X003931Y020435D01*
X003820Y020324D01*
X003759Y020178D01*
X003759Y020020D01*
X003820Y019874D01*
X003926Y019768D01*
X003577Y019768D01*
X003483Y019675D01*
X003483Y019675D01*
X002723Y018915D01*
X002723Y017612D01*
X002654Y017543D01*
X002654Y017353D01*
X002719Y017288D01*
X001941Y017288D01*
X001914Y017261D02*
X001853Y017261D01*
X001853Y017183D02*
X001870Y017183D01*
X001870Y017104D02*
X001853Y017104D01*
X001853Y017026D02*
X001870Y017026D01*
X001870Y016947D02*
X001853Y016947D01*
X001853Y016869D02*
X001884Y016869D01*
X001853Y016790D02*
X001855Y016790D01*
X001853Y016688D02*
X002043Y016688D01*
X002055Y016676D01*
X002404Y016676D01*
X001853Y016676D01*
X001853Y016676D01*
X002404Y016676D01*
X002404Y016676D01*
X002404Y016302D02*
X002737Y016302D01*
X002923Y016488D01*
X003179Y016488D01*
X003201Y016510D01*
X003201Y016195D02*
X003376Y016195D01*
X003403Y016168D01*
X003643Y016168D01*
X003683Y016208D01*
X003683Y016648D01*
X003843Y016484D02*
X003912Y016553D01*
X003912Y016743D01*
X003887Y016768D01*
X004549Y016768D01*
X004760Y016979D01*
X004858Y016979D01*
X004863Y016984D01*
X004863Y015392D01*
X004858Y015397D01*
X004668Y015397D01*
X004534Y015263D01*
X004534Y015166D01*
X004457Y015088D01*
X003612Y015088D01*
X003607Y015093D01*
X003616Y015102D01*
X003616Y015399D01*
X003607Y015408D01*
X003616Y015417D01*
X003616Y015713D01*
X003607Y015723D01*
X003616Y015732D01*
X003616Y016008D01*
X003709Y016008D01*
X003749Y016048D01*
X003843Y016142D01*
X003843Y016484D01*
X003843Y016476D02*
X004863Y016476D01*
X004863Y016398D02*
X003843Y016398D01*
X003843Y016319D02*
X004863Y016319D01*
X004863Y016241D02*
X003843Y016241D01*
X003843Y016162D02*
X004863Y016162D01*
X004863Y016084D02*
X003785Y016084D01*
X003616Y016005D02*
X004863Y016005D01*
X004863Y015927D02*
X003616Y015927D01*
X003616Y015848D02*
X004863Y015848D01*
X004863Y015770D02*
X003616Y015770D01*
X003616Y015691D02*
X004863Y015691D01*
X004863Y015613D02*
X003616Y015613D01*
X003616Y015534D02*
X004863Y015534D01*
X004863Y015456D02*
X003616Y015456D01*
X003616Y015377D02*
X004648Y015377D01*
X004570Y015299D02*
X003616Y015299D01*
X003616Y015220D02*
X004534Y015220D01*
X004510Y015142D02*
X003616Y015142D01*
X003403Y014928D02*
X004523Y014928D01*
X004763Y015168D01*
X004760Y014939D02*
X004858Y014939D01*
X004863Y014944D01*
X004863Y014792D01*
X004834Y014800D01*
X004726Y014800D01*
X004726Y014374D01*
X004708Y014374D01*
X004708Y014800D01*
X004621Y014800D01*
X004760Y014939D01*
X004727Y014906D02*
X004863Y014906D01*
X004863Y014828D02*
X004649Y014828D01*
X004743Y014838D02*
X004763Y014818D01*
X004763Y014608D01*
X004717Y014562D01*
X004717Y014365D01*
X004708Y014435D02*
X004726Y014435D01*
X004726Y014514D02*
X004708Y014514D01*
X004708Y014592D02*
X004726Y014592D01*
X004726Y014671D02*
X004708Y014671D01*
X004708Y014749D02*
X004726Y014749D01*
X005032Y014365D02*
X005043Y014353D01*
X005223Y014780D02*
X005223Y017296D01*
X005495Y017296D01*
X005504Y017305D01*
X005514Y017296D01*
X005810Y017296D01*
X005819Y017305D01*
X005829Y017296D01*
X006125Y017296D01*
X006195Y017366D01*
X006195Y018056D01*
X006125Y018126D01*
X006123Y018126D01*
X006123Y018675D01*
X006096Y018702D01*
X006235Y018702D01*
X006381Y018762D01*
X006493Y018874D01*
X006553Y019020D01*
X006553Y019178D01*
X006551Y019182D01*
X006758Y019388D01*
X006863Y019494D01*
X006863Y019854D01*
X007107Y020098D01*
X007107Y020033D01*
X007107Y020032D01*
X007107Y019777D01*
X007107Y019776D01*
X007107Y019521D01*
X007107Y019520D01*
X007107Y019265D01*
X007107Y019265D01*
X007107Y019264D01*
X007107Y019009D01*
X007107Y019009D01*
X007107Y019008D01*
X007107Y018753D01*
X007107Y018753D01*
X006358Y018753D01*
X006450Y018831D02*
X007107Y018831D01*
X007107Y018753D02*
X007107Y018752D01*
X007107Y018497D01*
X007107Y018497D01*
X007107Y018497D01*
X007107Y018288D01*
X007017Y018288D01*
X006497Y017768D01*
X006403Y017675D01*
X006403Y017359D01*
X006203Y017359D01*
X006132Y017288D01*
X006132Y016992D01*
X006142Y016983D01*
X006132Y016973D01*
X006132Y016968D01*
X006072Y016968D01*
X006072Y017063D01*
X005938Y017197D01*
X005748Y017197D01*
X005614Y017063D01*
X005614Y016873D01*
X005748Y016739D01*
X005846Y016739D01*
X005937Y016648D01*
X006132Y016648D01*
X006132Y016483D01*
X006018Y016597D01*
X005828Y016597D01*
X005694Y016463D01*
X005694Y016273D01*
X005828Y016139D01*
X005926Y016139D01*
X005948Y016117D01*
X005814Y015983D01*
X005814Y015793D01*
X005948Y015659D01*
X006132Y015659D01*
X006132Y015477D01*
X005948Y015477D01*
X005814Y015343D01*
X005814Y015153D01*
X005948Y015019D01*
X006132Y015019D01*
X006132Y014787D01*
X006203Y014717D01*
X006893Y014717D01*
X006949Y014773D01*
X006949Y014708D01*
X006888Y014708D01*
X006168Y013988D01*
X006164Y013988D01*
X006195Y014020D01*
X006195Y014710D01*
X006125Y014780D01*
X005829Y014780D01*
X005819Y014770D01*
X005810Y014780D01*
X005514Y014780D01*
X005504Y014770D01*
X005495Y014780D01*
X005223Y014780D01*
X005223Y014828D02*
X006132Y014828D01*
X006132Y014906D02*
X005223Y014906D01*
X005223Y014985D02*
X006132Y014985D01*
X006083Y015208D02*
X006043Y015248D01*
X006083Y015208D02*
X006323Y015208D01*
X006365Y015250D01*
X006548Y015250D01*
X006548Y014935D02*
X006770Y014935D01*
X006803Y014968D01*
X006923Y014968D01*
X007003Y015048D01*
X007003Y015528D01*
X007083Y015608D01*
X007555Y015608D01*
X007560Y015603D01*
X007963Y015848D02*
X008363Y015448D01*
X008363Y013728D01*
X007843Y013208D01*
X007662Y013208D01*
X007593Y013140D01*
X007786Y013378D02*
X007189Y013378D01*
X007119Y013308D01*
X007119Y012972D01*
X007189Y012902D01*
X007997Y012902D01*
X008010Y012915D01*
X008010Y012865D01*
X007997Y012878D01*
X007189Y012878D01*
X007119Y012808D01*
X007119Y012472D01*
X007189Y012402D01*
X007997Y012402D01*
X008068Y012472D01*
X008068Y012528D01*
X008070Y012528D01*
X008081Y012517D01*
X008731Y012517D01*
X008801Y012588D01*
X008801Y012648D01*
X008856Y012648D01*
X008856Y012500D01*
X009232Y012500D01*
X009232Y012420D01*
X009312Y012420D01*
X009312Y012123D01*
X009566Y012123D01*
X009602Y012133D01*
X009634Y012151D01*
X009660Y012177D01*
X009678Y012209D01*
X009688Y012245D01*
X009688Y012420D01*
X009312Y012420D01*
X009312Y012500D01*
X009688Y012500D01*
X009688Y012648D01*
X010177Y012648D01*
X010643Y012182D01*
X010645Y012180D01*
X010585Y012155D01*
X010484Y012054D01*
X010429Y011922D01*
X010429Y011778D01*
X010483Y011648D01*
X009189Y011648D01*
X008803Y012035D01*
X008803Y012075D01*
X008801Y012076D01*
X008801Y012333D01*
X008731Y012403D01*
X008081Y012403D01*
X008026Y012349D01*
X007997Y012378D01*
X007189Y012378D01*
X007119Y012308D01*
X007119Y011972D01*
X007189Y011902D01*
X007997Y011902D01*
X008010Y011915D01*
X008010Y011865D01*
X007997Y011878D01*
X007189Y011878D01*
X007119Y011808D01*
X007119Y011472D01*
X007189Y011402D01*
X007997Y011402D01*
X008068Y011472D01*
X008068Y011782D01*
X008081Y011769D01*
X008616Y011769D01*
X009027Y011358D01*
X001853Y011358D01*
X001853Y016569D01*
X001860Y016543D01*
X001878Y016511D01*
X001895Y016495D01*
X001870Y016470D01*
X001870Y016134D01*
X001941Y016064D01*
X002786Y016064D01*
X002786Y016047D01*
X002795Y016038D01*
X002786Y016028D01*
X002786Y015732D01*
X002795Y015723D01*
X002786Y015713D01*
X002786Y015417D01*
X002795Y015408D01*
X002786Y015399D01*
X002786Y015102D01*
X002795Y015093D01*
X002786Y015084D01*
X002786Y014787D01*
X002856Y014717D01*
X003546Y014717D01*
X003597Y014768D01*
X003612Y014768D01*
X003554Y014710D01*
X003554Y014020D01*
X003624Y013949D01*
X003751Y013949D01*
X003746Y013940D01*
X003736Y013904D01*
X003736Y013777D01*
X003985Y013777D01*
X003985Y013719D01*
X003736Y013719D01*
X003736Y013592D01*
X003746Y013556D01*
X003764Y013524D01*
X003790Y013498D01*
X003822Y013480D01*
X003858Y013470D01*
X003861Y013470D01*
X003854Y013463D01*
X003854Y013273D01*
X003923Y013204D01*
X003923Y012422D01*
X004723Y011622D01*
X004817Y011528D01*
X005198Y011528D01*
X005198Y011472D01*
X005268Y011402D01*
X006076Y011402D01*
X006146Y011472D01*
X006146Y011808D01*
X006076Y011878D01*
X005268Y011878D01*
X005238Y011848D01*
X004949Y011848D01*
X004894Y011904D01*
X005212Y011904D01*
X005239Y011931D01*
X005268Y011902D01*
X006076Y011902D01*
X006146Y011972D01*
X006146Y012308D01*
X006076Y012378D01*
X005268Y012378D01*
X005260Y012370D01*
X005247Y012384D01*
X005248Y012384D01*
X005258Y012395D01*
X005264Y012391D01*
X005299Y012382D01*
X005653Y012382D01*
X005653Y012621D01*
X005178Y012621D01*
X005178Y012605D01*
X005053Y012605D01*
X005053Y012663D01*
X004995Y012663D01*
X004995Y012605D01*
X004746Y012605D01*
X004746Y012478D01*
X004756Y012442D01*
X004774Y012410D01*
X004800Y012384D01*
X004801Y012384D01*
X004782Y012364D01*
X004623Y012523D01*
X004623Y013424D01*
X004683Y013364D01*
X004683Y013342D01*
X004963Y013062D01*
X005057Y012968D01*
X005202Y012968D01*
X005268Y012902D01*
X006076Y012902D01*
X006146Y012972D01*
X006146Y013308D01*
X006076Y013378D01*
X005268Y013378D01*
X005198Y013308D01*
X005198Y013288D01*
X005189Y013288D01*
X005058Y013420D01*
X005072Y013433D01*
X005072Y013623D01*
X005067Y013628D01*
X006318Y013628D01*
X006423Y013734D01*
X007038Y014348D01*
X007238Y014348D01*
X007240Y014351D01*
X007394Y014351D01*
X007443Y014399D01*
X007492Y014351D01*
X007867Y014351D01*
X007937Y014421D01*
X007937Y014796D01*
X007868Y014865D01*
X007964Y014865D01*
X008034Y014935D01*
X008034Y015054D01*
X008040Y015059D01*
X008138Y015059D01*
X008203Y015124D01*
X008203Y013795D01*
X007786Y013378D01*
X007823Y013415D02*
X005063Y013415D01*
X005072Y013493D02*
X007902Y013493D01*
X007980Y013572D02*
X005072Y013572D01*
X005141Y013336D02*
X005226Y013336D01*
X005123Y013128D02*
X005661Y013128D01*
X005672Y013140D01*
X005653Y012898D02*
X005299Y012898D01*
X005264Y012888D01*
X005251Y012881D01*
X005248Y012884D01*
X005216Y012902D01*
X005180Y012912D01*
X005053Y012912D01*
X005053Y012663D01*
X005178Y012663D01*
X005178Y012659D01*
X005653Y012659D01*
X005653Y012621D01*
X005691Y012621D01*
X005691Y012382D01*
X006045Y012382D01*
X006080Y012391D01*
X006112Y012410D01*
X006138Y012436D01*
X006157Y012468D01*
X006166Y012503D01*
X006166Y012621D01*
X005691Y012621D01*
X005691Y012659D01*
X005653Y012659D01*
X005653Y012898D01*
X005653Y012865D02*
X005691Y012865D01*
X005691Y012898D02*
X005691Y012659D01*
X006166Y012659D01*
X006166Y012776D01*
X006157Y012812D01*
X006138Y012844D01*
X006112Y012870D01*
X006080Y012888D01*
X006045Y012898D01*
X005691Y012898D01*
X005691Y012787D02*
X005653Y012787D01*
X005653Y012708D02*
X005691Y012708D01*
X005672Y012640D02*
X005451Y012640D01*
X005443Y012648D01*
X005653Y012630D02*
X005053Y012630D01*
X005038Y012648D02*
X005024Y012634D01*
X005017Y012634D01*
X005003Y012648D01*
X004995Y012663D02*
X004746Y012663D01*
X004746Y012790D01*
X004756Y012826D01*
X004774Y012858D01*
X004800Y012884D01*
X004832Y012902D01*
X004868Y012912D01*
X004995Y012912D01*
X004995Y012663D01*
X004995Y012630D02*
X004623Y012630D01*
X004693Y012658D02*
X004703Y012648D01*
X004746Y012708D02*
X004623Y012708D01*
X004623Y012787D02*
X004746Y012787D01*
X004782Y012865D02*
X004623Y012865D01*
X004623Y012944D02*
X005226Y012944D01*
X005053Y012865D02*
X004995Y012865D01*
X004995Y012787D02*
X005053Y012787D01*
X005053Y012708D02*
X004995Y012708D01*
X004746Y012551D02*
X004623Y012551D01*
X004673Y012473D02*
X004748Y012473D01*
X004752Y012394D02*
X004790Y012394D01*
X004952Y012198D02*
X004923Y012168D01*
X004952Y012198D02*
X005024Y012198D01*
X005024Y012162D02*
X005024Y012128D01*
X005231Y011923D02*
X005247Y011923D01*
X005403Y012128D02*
X005403Y012140D01*
X005672Y012140D01*
X005653Y012394D02*
X005691Y012394D01*
X005691Y012473D02*
X005653Y012473D01*
X005653Y012551D02*
X005691Y012551D01*
X005691Y012630D02*
X007119Y012630D01*
X007119Y012708D02*
X006166Y012708D01*
X006164Y012787D02*
X007119Y012787D01*
X007177Y012865D02*
X006117Y012865D01*
X006118Y012944D02*
X007147Y012944D01*
X007119Y013022D02*
X006146Y013022D01*
X006146Y013101D02*
X007119Y013101D01*
X007119Y013179D02*
X006146Y013179D01*
X006146Y013258D02*
X007119Y013258D01*
X007148Y013336D02*
X006118Y013336D01*
X006340Y013650D02*
X008059Y013650D01*
X008137Y013729D02*
X006418Y013729D01*
X006497Y013807D02*
X008203Y013807D01*
X008203Y013886D02*
X006575Y013886D01*
X006654Y013964D02*
X008203Y013964D01*
X008203Y014043D02*
X006732Y014043D01*
X006811Y014121D02*
X008203Y014121D01*
X008203Y014200D02*
X006889Y014200D01*
X006968Y014278D02*
X008203Y014278D01*
X008203Y014357D02*
X007873Y014357D01*
X007937Y014435D02*
X008203Y014435D01*
X008203Y014514D02*
X007937Y014514D01*
X007937Y014592D02*
X008203Y014592D01*
X008203Y014671D02*
X007937Y014671D01*
X007937Y014749D02*
X008203Y014749D01*
X008203Y014828D02*
X007905Y014828D01*
X008006Y014906D02*
X008203Y014906D01*
X008203Y014985D02*
X008034Y014985D01*
X008142Y015063D02*
X008203Y015063D01*
X008043Y015288D02*
X007883Y015128D01*
X007788Y015143D01*
X007643Y015103D01*
X007560Y015103D01*
X007643Y015103D02*
X007643Y014608D01*
X007679Y014608D01*
X007485Y014357D02*
X007401Y014357D01*
X007207Y014572D02*
X007163Y014528D01*
X007207Y014572D02*
X007207Y014608D01*
X006949Y014749D02*
X006925Y014749D01*
X006851Y014671D02*
X006195Y014671D01*
X006195Y014592D02*
X006772Y014592D01*
X006694Y014514D02*
X006195Y014514D01*
X006195Y014435D02*
X006615Y014435D01*
X006537Y014357D02*
X006195Y014357D01*
X006195Y014278D02*
X006458Y014278D01*
X006380Y014200D02*
X006195Y014200D01*
X006195Y014121D02*
X006301Y014121D01*
X006223Y014043D02*
X006195Y014043D01*
X006170Y014749D02*
X006155Y014749D01*
X005904Y015063D02*
X005223Y015063D01*
X005223Y015142D02*
X005826Y015142D01*
X005814Y015220D02*
X005223Y015220D01*
X005223Y015299D02*
X005814Y015299D01*
X005848Y015377D02*
X005223Y015377D01*
X005223Y015456D02*
X005927Y015456D01*
X005916Y015691D02*
X005223Y015691D01*
X005223Y015613D02*
X006132Y015613D01*
X006132Y015534D02*
X005223Y015534D01*
X005223Y015770D02*
X005838Y015770D01*
X005814Y015848D02*
X005223Y015848D01*
X005223Y015927D02*
X005814Y015927D01*
X005836Y016005D02*
X005223Y016005D01*
X005223Y016084D02*
X005915Y016084D01*
X005805Y016162D02*
X005223Y016162D01*
X005223Y016241D02*
X005726Y016241D01*
X005694Y016319D02*
X005223Y016319D01*
X005223Y016398D02*
X005694Y016398D01*
X005707Y016476D02*
X005223Y016476D01*
X005223Y016555D02*
X005786Y016555D01*
X005873Y016712D02*
X005223Y016712D01*
X005223Y016790D02*
X005697Y016790D01*
X005618Y016869D02*
X005223Y016869D01*
X005223Y016947D02*
X005614Y016947D01*
X005614Y017026D02*
X005223Y017026D01*
X005223Y017104D02*
X005655Y017104D01*
X005734Y017183D02*
X005223Y017183D01*
X005223Y017261D02*
X006132Y017261D01*
X006132Y017183D02*
X005952Y017183D01*
X006031Y017104D02*
X006132Y017104D01*
X006132Y017026D02*
X006072Y017026D01*
X006003Y016808D02*
X006531Y016808D01*
X006548Y016825D01*
X006548Y017140D02*
X006563Y017155D01*
X006563Y017608D01*
X007083Y018128D01*
X007283Y018128D01*
X007458Y018088D01*
X007483Y018113D01*
X007483Y017857D02*
X007483Y017857D01*
X007483Y017639D01*
X007670Y017639D01*
X007574Y017543D01*
X007574Y017353D01*
X007708Y017219D01*
X007883Y017219D01*
X007883Y016841D01*
X007156Y016841D01*
X007086Y016771D01*
X007086Y016632D01*
X007069Y016648D01*
X006963Y016648D01*
X006963Y016658D01*
X006954Y016668D01*
X006963Y016677D01*
X006963Y016973D01*
X006954Y016983D01*
X006963Y016992D01*
X006963Y017288D01*
X006893Y017359D01*
X006723Y017359D01*
X006723Y017542D01*
X007087Y017906D01*
X007087Y017857D01*
X007087Y017761D01*
X007097Y017725D01*
X007115Y017693D01*
X007141Y017667D01*
X007173Y017649D01*
X007209Y017639D01*
X007483Y017639D01*
X007483Y017857D01*
X007483Y017857D01*
X007483Y017648D01*
X007403Y017568D01*
X007473Y017568D01*
X007463Y017558D01*
X007483Y017654D02*
X007483Y017654D01*
X007483Y017732D02*
X007483Y017732D01*
X007483Y017811D02*
X007483Y017811D01*
X007483Y017857D02*
X007087Y017857D01*
X007483Y017857D01*
X007164Y017654D02*
X006835Y017654D01*
X006913Y017732D02*
X007095Y017732D01*
X007087Y017811D02*
X006992Y017811D01*
X007070Y017889D02*
X007087Y017889D01*
X006853Y018125D02*
X006126Y018125D01*
X006123Y018203D02*
X006932Y018203D01*
X007010Y018282D02*
X006123Y018282D01*
X006123Y018360D02*
X007107Y018360D01*
X007107Y018439D02*
X006123Y018439D01*
X006123Y018517D02*
X007107Y018517D01*
X007107Y018596D02*
X006123Y018596D01*
X006123Y018674D02*
X007107Y018674D01*
X007107Y018910D02*
X006507Y018910D01*
X006540Y018988D02*
X007107Y018988D01*
X007107Y019067D02*
X006553Y019067D01*
X006553Y019145D02*
X007107Y019145D01*
X007107Y019224D02*
X006593Y019224D01*
X006672Y019302D02*
X007107Y019302D01*
X007107Y019381D02*
X006750Y019381D01*
X006829Y019459D02*
X007107Y019459D01*
X007107Y019520D02*
X007107Y019520D01*
X007107Y019538D02*
X006863Y019538D01*
X006863Y019616D02*
X007107Y019616D01*
X007107Y019695D02*
X006863Y019695D01*
X006863Y019773D02*
X007107Y019773D01*
X007107Y019776D02*
X007107Y019776D01*
X007107Y019852D02*
X006863Y019852D01*
X006940Y019930D02*
X007107Y019930D01*
X007107Y020009D02*
X007018Y020009D01*
X007107Y020032D02*
X007107Y020032D01*
X007097Y020087D02*
X007107Y020087D01*
X006823Y020323D02*
X006553Y020323D01*
X006553Y020401D02*
X006901Y020401D01*
X006980Y020480D02*
X006499Y020480D01*
X006553Y020244D02*
X006744Y020244D01*
X006666Y020166D02*
X006553Y020166D01*
X006553Y020087D02*
X006587Y020087D01*
X006156Y020099D02*
X006026Y019968D01*
X005963Y019968D01*
X005763Y019768D01*
X005763Y018808D01*
X005963Y018608D01*
X005963Y017768D01*
X005977Y017755D01*
X005977Y017711D01*
X006195Y017732D02*
X006461Y017732D01*
X006403Y017654D02*
X006195Y017654D01*
X006195Y017575D02*
X006403Y017575D01*
X006403Y017497D02*
X006195Y017497D01*
X006195Y017418D02*
X006403Y017418D01*
X006184Y017340D02*
X006169Y017340D01*
X006548Y017140D02*
X006576Y017168D01*
X006763Y017168D01*
X006963Y017183D02*
X007883Y017183D01*
X007883Y017104D02*
X006963Y017104D01*
X006963Y017026D02*
X007883Y017026D01*
X007883Y016947D02*
X006963Y016947D01*
X006963Y016869D02*
X007883Y016869D01*
X008043Y016768D02*
X007883Y016608D01*
X007843Y016648D01*
X007798Y016603D01*
X007560Y016603D01*
X007535Y016128D02*
X007560Y016103D01*
X007535Y016128D02*
X007123Y016128D01*
X007043Y016208D01*
X007043Y016448D01*
X007003Y016488D01*
X006803Y016488D01*
X006781Y016510D01*
X006548Y016510D01*
X006548Y016195D02*
X006376Y016195D01*
X006363Y016208D01*
X006083Y016208D01*
X005923Y016368D01*
X006060Y016555D02*
X006132Y016555D01*
X006132Y016633D02*
X005223Y016633D01*
X004863Y016633D02*
X003912Y016633D01*
X003912Y016555D02*
X004863Y016555D01*
X004863Y016712D02*
X003912Y016712D01*
X003843Y016928D02*
X004483Y016928D01*
X004763Y017208D01*
X004728Y016947D02*
X004863Y016947D01*
X004863Y016869D02*
X004650Y016869D01*
X004571Y016790D02*
X004863Y016790D01*
X004403Y017248D02*
X004363Y017288D01*
X004363Y017488D01*
X004402Y017527D01*
X004402Y017711D01*
X004717Y017711D02*
X004723Y017717D01*
X005032Y017711D02*
X005032Y017619D01*
X005043Y017608D01*
X005032Y017711D02*
X005083Y017762D01*
X005083Y018168D02*
X005114Y018199D01*
X005114Y018283D01*
X005114Y018338D01*
X005083Y018368D01*
X004774Y018596D02*
X003043Y018596D01*
X003043Y018674D02*
X004774Y018674D01*
X004824Y018753D02*
X004389Y018753D01*
X004477Y018831D02*
X004862Y018831D01*
X004805Y018910D02*
X004528Y018910D01*
X004559Y018988D02*
X004772Y018988D01*
X004759Y019067D02*
X004196Y019067D01*
X004196Y018988D02*
X004116Y018988D01*
X004116Y018910D02*
X004196Y018910D01*
X004196Y018831D02*
X004116Y018831D01*
X004116Y018753D02*
X004196Y018753D01*
X004402Y018517D02*
X003043Y018517D01*
X003043Y018439D02*
X004364Y018439D01*
X004612Y018439D02*
X004670Y018439D01*
X004670Y018517D02*
X004612Y018517D01*
X004612Y018360D02*
X004670Y018360D01*
X004641Y018283D02*
X004723Y018201D01*
X004203Y018208D02*
X003883Y018208D01*
X003803Y018128D01*
X003803Y017928D01*
X003772Y017897D01*
X003772Y017711D01*
X003554Y017732D02*
X003043Y017732D01*
X003043Y017654D02*
X003554Y017654D01*
X003554Y017575D02*
X003080Y017575D01*
X003112Y017497D02*
X003554Y017497D01*
X003554Y017418D02*
X003112Y017418D01*
X002883Y017448D02*
X002883Y018848D01*
X003643Y019608D01*
X004563Y019608D01*
X005054Y020099D01*
X005156Y020099D01*
X005163Y020106D01*
X005273Y020480D02*
X005814Y020480D01*
X005759Y020401D02*
X005415Y020401D01*
X005493Y020323D02*
X005759Y020323D01*
X005759Y020244D02*
X005525Y020244D01*
X005553Y020166D02*
X005759Y020166D01*
X005759Y020087D02*
X005553Y020087D01*
X005548Y020009D02*
X005759Y020009D01*
X005699Y019930D02*
X005516Y019930D01*
X005470Y019852D02*
X005620Y019852D01*
X005603Y019773D02*
X005392Y019773D01*
X005603Y019695D02*
X004876Y019695D01*
X004797Y019616D02*
X005603Y019616D01*
X005603Y019538D02*
X004719Y019538D01*
X004640Y019459D02*
X004990Y019459D01*
X004877Y019381D02*
X004464Y019381D01*
X004520Y019302D02*
X004811Y019302D01*
X004778Y019224D02*
X004554Y019224D01*
X004571Y019145D02*
X004759Y019145D01*
X005156Y019099D02*
X005192Y019099D01*
X005203Y019088D01*
X005203Y019008D01*
X005643Y018568D01*
X005643Y017730D01*
X005662Y017711D01*
X006195Y017811D02*
X006539Y017811D01*
X006618Y017889D02*
X006195Y017889D01*
X006195Y017968D02*
X006696Y017968D01*
X006775Y018046D02*
X006195Y018046D01*
X006756Y017575D02*
X007606Y017575D01*
X007574Y017497D02*
X006723Y017497D01*
X006723Y017418D02*
X007574Y017418D01*
X007587Y017340D02*
X006911Y017340D01*
X006963Y017261D02*
X007666Y017261D01*
X007803Y017448D02*
X007883Y017528D01*
X007883Y019848D01*
X007843Y019888D01*
X007643Y019888D01*
X007627Y019904D01*
X007483Y019904D01*
X007483Y020160D02*
X007491Y020168D01*
X007803Y020168D01*
X008043Y019928D01*
X008043Y016768D01*
X008323Y016488D02*
X008203Y016368D01*
X008163Y016368D01*
X008323Y016488D02*
X008323Y018328D01*
X009043Y019048D01*
X009043Y019448D01*
X009243Y019648D01*
X009747Y019648D01*
X010270Y019648D01*
X010280Y019578D01*
X010123Y019320D02*
X010467Y019320D01*
X010516Y019369D01*
X010565Y019320D01*
X010583Y019320D01*
X010583Y017214D01*
X011383Y016414D01*
X011468Y016329D01*
X011468Y016328D01*
X011538Y016257D01*
X012346Y016257D01*
X012377Y016288D01*
X012398Y016266D01*
X012465Y016266D01*
X012436Y016237D01*
X012436Y016189D01*
X012145Y016189D01*
X012108Y016152D01*
X012107Y016153D01*
X011732Y016153D01*
X011697Y016118D01*
X011697Y016119D01*
X011671Y016145D01*
X011639Y016164D01*
X011603Y016173D01*
X011476Y016173D01*
X011476Y015924D01*
X011418Y015924D01*
X011418Y015867D01*
X011169Y015867D01*
X011169Y015739D01*
X011178Y015704D01*
X011197Y015672D01*
X011198Y015670D01*
X011197Y015669D01*
X011178Y015637D01*
X011169Y015602D01*
X011169Y015474D01*
X011418Y015474D01*
X011418Y015417D01*
X011169Y015417D01*
X011169Y015289D01*
X011178Y015254D01*
X011197Y015222D01*
X011223Y015196D01*
X011250Y015180D01*
X011134Y015063D01*
X011134Y014873D01*
X011268Y014739D01*
X011458Y014739D01*
X011527Y014808D01*
X011829Y014808D01*
X011949Y014928D01*
X012043Y015022D01*
X012043Y015188D01*
X012107Y015188D01*
X012133Y015214D01*
X012143Y015204D01*
X012143Y014483D01*
X012070Y014410D01*
X012070Y014597D01*
X012000Y014667D01*
X011074Y014667D01*
X011004Y014597D01*
X011004Y014179D01*
X011003Y014179D01*
X011003Y015915D01*
X010909Y016008D01*
X010749Y016168D01*
X010706Y016168D01*
X010706Y016493D01*
X010636Y016564D01*
X009976Y016564D01*
X009976Y016584D01*
X009500Y016584D01*
X009500Y016345D01*
X009854Y016345D01*
X009876Y016351D01*
X009876Y016341D01*
X009077Y016341D01*
X009043Y016307D01*
X009043Y016372D01*
X009073Y016354D01*
X009109Y016345D01*
X009462Y016345D01*
X009462Y016584D01*
X008987Y016584D01*
X008987Y016571D01*
X008963Y016595D01*
X008963Y017942D01*
X009229Y018208D01*
X009371Y018208D01*
X009371Y017985D01*
X009371Y017985D01*
X009371Y017985D01*
X009371Y017729D01*
X009441Y017659D01*
X010052Y017659D01*
X010123Y017729D01*
X010123Y017985D01*
X010122Y017985D01*
X010123Y017985D01*
X010123Y018241D01*
X010123Y018497D01*
X010123Y018752D01*
X010122Y018753D01*
X010123Y018753D01*
X010123Y019008D01*
X010122Y019009D01*
X010123Y019009D01*
X010123Y019264D01*
X010122Y019265D01*
X010123Y019265D01*
X010123Y019320D01*
X010123Y019302D02*
X010583Y019302D01*
X010583Y019224D02*
X010123Y019224D01*
X010123Y019145D02*
X010583Y019145D01*
X010583Y019067D02*
X010123Y019067D01*
X010123Y018988D02*
X010583Y018988D01*
X010583Y018910D02*
X010123Y018910D01*
X010123Y018831D02*
X010583Y018831D01*
X010583Y018753D02*
X010123Y018753D01*
X010123Y018674D02*
X010583Y018674D01*
X010583Y018596D02*
X010123Y018596D01*
X010123Y018517D02*
X010583Y018517D01*
X010583Y018439D02*
X010123Y018439D01*
X010123Y018497D02*
X010122Y018497D01*
X010123Y018497D01*
X010123Y018360D02*
X010583Y018360D01*
X010583Y018282D02*
X010123Y018282D01*
X010122Y018241D02*
X010123Y018241D01*
X010122Y018241D01*
X010123Y018203D02*
X010583Y018203D01*
X010583Y018125D02*
X010123Y018125D01*
X010123Y018046D02*
X010583Y018046D01*
X010583Y017968D02*
X010123Y017968D01*
X010123Y017889D02*
X010583Y017889D01*
X010583Y017811D02*
X010123Y017811D01*
X010123Y017732D02*
X010583Y017732D01*
X010583Y017654D02*
X008963Y017654D01*
X008963Y017732D02*
X009371Y017732D01*
X009371Y017811D02*
X008963Y017811D01*
X008963Y017889D02*
X009371Y017889D01*
X009371Y017968D02*
X008989Y017968D01*
X009067Y018046D02*
X009371Y018046D01*
X009371Y018125D02*
X009146Y018125D01*
X009224Y018203D02*
X009371Y018203D01*
X009163Y018368D02*
X009746Y018368D01*
X009747Y018369D01*
X009747Y018625D02*
X009723Y018648D01*
X009203Y018648D01*
X008643Y018088D01*
X008643Y016448D01*
X008723Y016368D01*
X008723Y015968D01*
X008643Y015888D01*
X008563Y015888D01*
X008883Y015808D02*
X008603Y015528D01*
X008563Y015528D01*
X008736Y015377D02*
X009065Y015377D01*
X009077Y015365D02*
X009876Y015365D01*
X009876Y015341D01*
X009077Y015341D01*
X009007Y015271D01*
X009007Y015107D01*
X008968Y015068D01*
X008863Y014963D01*
X008863Y014861D01*
X008848Y014861D01*
X008778Y014791D01*
X008778Y014416D01*
X008848Y014345D01*
X008856Y014345D01*
X008856Y013781D01*
X008961Y013676D01*
X009668Y012968D01*
X008801Y012968D01*
X008801Y013081D01*
X008731Y013151D01*
X008081Y013151D01*
X008068Y013138D01*
X008068Y013207D01*
X008523Y013662D01*
X008523Y015299D01*
X009035Y015299D01*
X009077Y015365D02*
X009007Y015435D01*
X009007Y015706D01*
X008949Y015648D01*
X008792Y015491D01*
X008792Y015433D01*
X008658Y015299D01*
X008523Y015299D01*
X008523Y015220D02*
X009007Y015220D01*
X009007Y015142D02*
X008523Y015142D01*
X008523Y015063D02*
X008963Y015063D01*
X008885Y014985D02*
X008523Y014985D01*
X008523Y014906D02*
X008863Y014906D01*
X008815Y014828D02*
X008523Y014828D01*
X008523Y014749D02*
X008778Y014749D01*
X008778Y014671D02*
X008523Y014671D01*
X008523Y014592D02*
X008778Y014592D01*
X008778Y014514D02*
X008523Y014514D01*
X008523Y014435D02*
X008778Y014435D01*
X008837Y014357D02*
X008523Y014357D01*
X008523Y014278D02*
X008856Y014278D01*
X008856Y014200D02*
X008523Y014200D01*
X008523Y014121D02*
X008856Y014121D01*
X008856Y014043D02*
X008523Y014043D01*
X008523Y013964D02*
X008856Y013964D01*
X008856Y013886D02*
X008523Y013886D01*
X008523Y013807D02*
X008856Y013807D01*
X008908Y013729D02*
X008523Y013729D01*
X008511Y013650D02*
X008986Y013650D01*
X009065Y013572D02*
X008433Y013572D01*
X008354Y013493D02*
X009143Y013493D01*
X009222Y013415D02*
X008276Y013415D01*
X008197Y013336D02*
X009300Y013336D01*
X009379Y013258D02*
X008119Y013258D01*
X008068Y013179D02*
X009457Y013179D01*
X009536Y013101D02*
X008781Y013101D01*
X008801Y013022D02*
X009614Y013022D01*
X009888Y013258D02*
X010687Y013258D01*
X010657Y013288D02*
X010957Y012988D01*
X010929Y012922D01*
X010929Y012778D01*
X010984Y012646D01*
X011001Y012628D01*
X010998Y012628D01*
X010543Y013083D01*
X010438Y013188D01*
X009958Y013188D01*
X009216Y013930D01*
X009216Y014345D01*
X009223Y014345D01*
X009258Y014380D01*
X009258Y014380D01*
X009284Y014353D01*
X009316Y014335D01*
X009352Y014325D01*
X009479Y014325D01*
X009479Y014574D01*
X009537Y014574D01*
X009537Y014325D01*
X009664Y014325D01*
X009700Y014335D01*
X009732Y014353D01*
X009758Y014380D01*
X009776Y014411D01*
X009786Y014447D01*
X009786Y014574D01*
X009537Y014574D01*
X009537Y014632D01*
X009786Y014632D01*
X009786Y014760D01*
X009776Y014795D01*
X009758Y014827D01*
X009732Y014853D01*
X009711Y014865D01*
X009885Y014865D01*
X009956Y014935D01*
X009956Y015143D01*
X010636Y015143D01*
X010683Y015189D01*
X010683Y014995D01*
X010679Y015010D01*
X010661Y015042D01*
X010634Y015068D01*
X010603Y015087D01*
X010567Y015096D01*
X010392Y015096D01*
X010392Y014720D01*
X010312Y014720D01*
X010312Y014640D01*
X010392Y014640D01*
X010392Y014265D01*
X010567Y014265D01*
X010603Y014274D01*
X010634Y014293D01*
X010661Y014319D01*
X010679Y014351D01*
X010683Y014366D01*
X010683Y014210D01*
X010479Y014210D01*
X010409Y014140D01*
X010409Y013489D01*
X010479Y013419D01*
X010563Y013419D01*
X010563Y013382D01*
X010657Y013288D01*
X010609Y013336D02*
X009809Y013336D01*
X009731Y013415D02*
X010563Y013415D01*
X010723Y013448D02*
X010723Y013812D01*
X010726Y013814D01*
X010726Y013971D01*
X010843Y014088D01*
X010843Y015848D01*
X010683Y016008D01*
X010563Y016008D01*
X010523Y016048D01*
X010331Y016048D01*
X010291Y016088D01*
X010291Y016188D01*
X010291Y016088D02*
X009683Y016088D01*
X009683Y016103D01*
X009481Y016103D01*
X009462Y016398D02*
X009500Y016398D01*
X009500Y016476D02*
X009462Y016476D01*
X009462Y016555D02*
X009500Y016555D01*
X009500Y016584D02*
X009462Y016584D01*
X009462Y016622D01*
X008987Y016622D01*
X008987Y016740D01*
X008997Y016775D01*
X009015Y016807D01*
X009041Y016833D01*
X009073Y016852D01*
X009109Y016861D01*
X009462Y016861D01*
X009462Y016622D01*
X009500Y016622D01*
X009500Y016861D01*
X009854Y016861D01*
X009890Y016852D01*
X009922Y016833D01*
X009948Y016807D01*
X009966Y016775D01*
X009976Y016740D01*
X009976Y016622D01*
X009500Y016622D01*
X009500Y016584D01*
X009518Y016603D02*
X009523Y016608D01*
X009883Y016608D01*
X009993Y016718D01*
X010063Y016718D01*
X009976Y016712D02*
X011085Y016712D01*
X011163Y016633D02*
X009976Y016633D01*
X009957Y016790D02*
X011006Y016790D01*
X010928Y016869D02*
X008963Y016869D01*
X008963Y016947D02*
X010849Y016947D01*
X010771Y017026D02*
X008963Y017026D01*
X008963Y017104D02*
X010692Y017104D01*
X010614Y017183D02*
X008963Y017183D01*
X008963Y017261D02*
X010583Y017261D01*
X010583Y017340D02*
X008963Y017340D01*
X008963Y017418D02*
X010583Y017418D01*
X010583Y017497D02*
X008963Y017497D01*
X008963Y017575D02*
X010583Y017575D01*
X010943Y017575D02*
X011468Y017575D01*
X011468Y017497D02*
X010943Y017497D01*
X010943Y017418D02*
X011468Y017418D01*
X011468Y017340D02*
X010966Y017340D01*
X011044Y017261D02*
X011534Y017261D01*
X011538Y017257D02*
X012346Y017257D01*
X012417Y017328D01*
X012417Y017663D01*
X012346Y017734D01*
X011538Y017734D01*
X011468Y017663D01*
X011468Y017328D01*
X011538Y017257D01*
X011488Y017183D02*
X011123Y017183D01*
X011201Y017104D02*
X011468Y017104D01*
X011468Y017026D02*
X011280Y017026D01*
X011358Y016947D02*
X011468Y016947D01*
X011468Y016869D02*
X011437Y016869D01*
X011242Y016555D02*
X010645Y016555D01*
X010706Y016476D02*
X011320Y016476D01*
X011399Y016398D02*
X010706Y016398D01*
X010706Y016319D02*
X011476Y016319D01*
X011476Y016162D02*
X011418Y016162D01*
X011418Y016173D02*
X011291Y016173D01*
X011255Y016164D01*
X011223Y016145D01*
X011197Y016119D01*
X011178Y016087D01*
X011169Y016052D01*
X011169Y015924D01*
X011418Y015924D01*
X011418Y016173D01*
X011418Y016084D02*
X011476Y016084D01*
X011476Y016005D02*
X011418Y016005D01*
X011418Y015927D02*
X011476Y015927D01*
X011447Y015895D02*
X011443Y015892D01*
X011443Y015488D01*
X011403Y015528D01*
X011243Y015528D01*
X011133Y015638D01*
X011133Y015695D01*
X011186Y015691D02*
X011003Y015691D01*
X011003Y015613D02*
X011172Y015613D01*
X011169Y015534D02*
X011003Y015534D01*
X011003Y015456D02*
X011418Y015456D01*
X011418Y015474D02*
X011418Y015867D01*
X011476Y015867D01*
X011476Y015618D01*
X011476Y015474D01*
X011418Y015474D01*
X011443Y015488D02*
X011447Y015485D01*
X011447Y015445D01*
X011418Y015534D02*
X011476Y015534D01*
X011476Y015613D02*
X011418Y015613D01*
X011418Y015691D02*
X011476Y015691D01*
X011476Y015770D02*
X011418Y015770D01*
X011418Y015848D02*
X011476Y015848D01*
X011169Y015848D02*
X011003Y015848D01*
X011003Y015770D02*
X011169Y015770D01*
X011169Y015927D02*
X010991Y015927D01*
X010912Y016005D02*
X011169Y016005D01*
X011178Y016084D02*
X010834Y016084D01*
X010909Y016008D02*
X010909Y016008D01*
X010755Y016162D02*
X011253Y016162D01*
X011641Y016162D02*
X012118Y016162D01*
X011919Y015959D02*
X011919Y015895D01*
X011919Y015445D02*
X011883Y015409D01*
X011883Y015088D01*
X011763Y014968D01*
X011363Y014968D01*
X011213Y015142D02*
X011003Y015142D01*
X011003Y015220D02*
X011198Y015220D01*
X011169Y015299D02*
X011003Y015299D01*
X011003Y015377D02*
X011169Y015377D01*
X011134Y015063D02*
X011003Y015063D01*
X011003Y014985D02*
X011134Y014985D01*
X011134Y014906D02*
X011003Y014906D01*
X011003Y014828D02*
X011180Y014828D01*
X011258Y014749D02*
X011003Y014749D01*
X011003Y014671D02*
X012143Y014671D01*
X012143Y014749D02*
X011468Y014749D01*
X011849Y014828D02*
X012143Y014828D01*
X012143Y014906D02*
X011927Y014906D01*
X012006Y014985D02*
X012143Y014985D01*
X012143Y015063D02*
X012043Y015063D01*
X012043Y015142D02*
X012143Y015142D01*
X012323Y015449D02*
X012333Y015459D01*
X012333Y015445D01*
X012633Y015456D02*
X013578Y015456D01*
X013578Y015534D02*
X012633Y015534D01*
X012633Y015613D02*
X013343Y015613D01*
X013286Y015670D02*
X013420Y015536D01*
X013578Y015536D01*
X013578Y015195D01*
X012633Y015195D01*
X012633Y016311D01*
X012722Y016401D01*
X012722Y016590D01*
X012633Y016679D01*
X012633Y017545D01*
X014483Y017545D01*
X014483Y017445D01*
X013683Y017445D01*
X013683Y017234D01*
X013460Y017234D01*
X013389Y017163D01*
X013389Y016828D01*
X013460Y016757D01*
X013683Y016757D01*
X013683Y016734D01*
X013460Y016734D01*
X013389Y016663D01*
X013389Y016328D01*
X013460Y016257D01*
X013598Y016257D01*
X013578Y016237D01*
X013578Y016234D01*
X013420Y016234D01*
X013286Y016100D01*
X013286Y015910D01*
X013311Y015885D01*
X013286Y015860D01*
X013286Y015670D01*
X013286Y015691D02*
X012633Y015691D01*
X012633Y015770D02*
X013286Y015770D01*
X013286Y015848D02*
X012633Y015848D01*
X012633Y015927D02*
X013286Y015927D01*
X013286Y016005D02*
X012633Y016005D01*
X012633Y016084D02*
X013286Y016084D01*
X013349Y016162D02*
X012633Y016162D01*
X012633Y016241D02*
X013582Y016241D01*
X013398Y016319D02*
X012641Y016319D01*
X012719Y016398D02*
X013389Y016398D01*
X013389Y016476D02*
X012722Y016476D01*
X012722Y016555D02*
X013389Y016555D01*
X013389Y016633D02*
X012679Y016633D01*
X012633Y016712D02*
X013438Y016712D01*
X013426Y016790D02*
X012633Y016790D01*
X012633Y016869D02*
X013389Y016869D01*
X013389Y016947D02*
X012633Y016947D01*
X012633Y017026D02*
X013389Y017026D01*
X013389Y017104D02*
X012633Y017104D01*
X012633Y017183D02*
X013409Y017183D01*
X013683Y017261D02*
X012633Y017261D01*
X012633Y017340D02*
X013683Y017340D01*
X013683Y017418D02*
X012633Y017418D01*
X012633Y017497D02*
X014483Y017497D01*
X014255Y017257D02*
X013843Y017257D01*
X013843Y017254D01*
X013845Y017254D01*
X013845Y017014D01*
X013883Y017014D01*
X014358Y017014D01*
X014358Y017041D01*
X014454Y017041D01*
X014454Y016983D01*
X014512Y016983D01*
X014512Y016734D01*
X014639Y016734D01*
X014675Y016744D01*
X014707Y016762D01*
X014733Y016788D01*
X014751Y016820D01*
X014761Y016856D01*
X014761Y016983D01*
X014512Y016983D01*
X014512Y017041D01*
X014761Y017041D01*
X014761Y017168D01*
X014751Y017204D01*
X014733Y017236D01*
X014707Y017262D01*
X014706Y017262D01*
X014741Y017297D01*
X014741Y017595D01*
X014791Y017595D01*
X014791Y017019D01*
X014862Y016949D01*
X015113Y016949D01*
X015113Y016892D01*
X014852Y016892D01*
X014781Y016822D01*
X014781Y016398D01*
X014338Y016398D01*
X014338Y016328D02*
X014319Y016309D01*
X014335Y016300D01*
X014361Y016274D01*
X014380Y016242D01*
X014389Y016206D01*
X014389Y016183D01*
X014395Y016189D01*
X014572Y016189D01*
X014608Y016225D01*
X014781Y016398D01*
X014781Y016476D02*
X014338Y016476D01*
X014338Y016555D02*
X014781Y016555D01*
X014781Y016633D02*
X014338Y016633D01*
X014338Y016663D02*
X014268Y016734D01*
X013843Y016734D01*
X013843Y016737D01*
X013845Y016737D01*
X013845Y016976D01*
X013883Y016976D01*
X013883Y017014D01*
X013883Y017254D01*
X014236Y017254D01*
X014248Y017250D01*
X014255Y017257D01*
X014358Y017026D02*
X014454Y017026D01*
X014454Y016983D02*
X014205Y016983D01*
X014205Y016976D01*
X013883Y016976D01*
X013883Y016737D01*
X014236Y016737D01*
X014272Y016747D01*
X014279Y016751D01*
X014291Y016744D01*
X014327Y016734D01*
X014454Y016734D01*
X014454Y016983D01*
X014454Y016947D02*
X014512Y016947D01*
X014512Y016869D02*
X014454Y016869D01*
X014454Y016790D02*
X014512Y016790D01*
X014338Y016663D02*
X014338Y016328D01*
X014330Y016319D02*
X014702Y016319D01*
X014624Y016241D02*
X014380Y016241D01*
X014014Y016241D02*
X013934Y016241D01*
X013934Y016257D02*
X013934Y015696D01*
X014014Y015696D01*
X014014Y016257D01*
X013934Y016257D01*
X013934Y016162D02*
X014014Y016162D01*
X014014Y016084D02*
X013934Y016084D01*
X013934Y016005D02*
X014014Y016005D01*
X014014Y015927D02*
X013934Y015927D01*
X013934Y015848D02*
X014014Y015848D01*
X014014Y015770D02*
X013934Y015770D01*
X013934Y015616D02*
X014014Y015616D01*
X014014Y014985D01*
X014014Y015063D02*
X013934Y015063D01*
X013934Y014985D02*
X013934Y015616D01*
X013934Y015613D02*
X014014Y015613D01*
X014014Y015534D02*
X013934Y015534D01*
X013934Y015456D02*
X014014Y015456D01*
X014014Y015377D02*
X013934Y015377D01*
X013934Y015299D02*
X014014Y015299D01*
X014014Y015220D02*
X013934Y015220D01*
X013934Y015142D02*
X014014Y015142D01*
X013678Y014985D02*
X012503Y014985D01*
X012633Y015220D02*
X013578Y015220D01*
X013578Y015299D02*
X012633Y015299D01*
X012633Y015377D02*
X013578Y015377D01*
X013803Y014592D02*
X015037Y014592D01*
X015037Y014514D02*
X013803Y014514D01*
X013803Y014435D02*
X015037Y014435D01*
X014923Y013968D02*
X014868Y013983D01*
X014767Y013983D01*
X015076Y013572D02*
X016321Y013572D01*
X016321Y013650D02*
X015858Y013650D01*
X015887Y013729D02*
X016321Y013729D01*
X016321Y013807D02*
X015887Y013807D01*
X015887Y013886D02*
X016321Y013886D01*
X016321Y013964D02*
X015887Y013964D01*
X015887Y014043D02*
X016321Y014043D01*
X016321Y014121D02*
X015887Y014121D01*
X015887Y014200D02*
X016321Y014200D01*
X016321Y014278D02*
X015887Y014278D01*
X015901Y014357D02*
X016321Y014357D01*
X016321Y014435D02*
X015907Y014435D01*
X015907Y014514D02*
X016321Y014514D01*
X016321Y014592D02*
X015907Y014592D01*
X015512Y014828D02*
X015432Y014828D01*
X015432Y014906D02*
X015512Y014906D01*
X015473Y014985D02*
X015432Y014985D01*
X015393Y015063D02*
X015473Y015063D01*
X015473Y015142D02*
X015393Y015142D01*
X015393Y015220D02*
X015473Y015220D01*
X015473Y015299D02*
X015393Y015299D01*
X015393Y015770D02*
X014883Y015770D01*
X014847Y015761D01*
X014841Y015757D01*
X014841Y015770D02*
X014881Y015770D01*
X015010Y015848D02*
X016321Y015848D01*
X016321Y015770D02*
X015985Y015770D01*
X016091Y015691D02*
X016321Y015691D01*
X016321Y015613D02*
X016104Y015613D01*
X016104Y015534D02*
X016321Y015534D01*
X016321Y015456D02*
X016104Y015456D01*
X016321Y015927D02*
X015088Y015927D01*
X015112Y016005D02*
X016321Y016005D01*
X016321Y016084D02*
X015112Y016084D01*
X014781Y016712D02*
X014289Y016712D01*
X014512Y017026D02*
X014791Y017026D01*
X014791Y017104D02*
X014761Y017104D01*
X014757Y017183D02*
X014791Y017183D01*
X014791Y017261D02*
X014707Y017261D01*
X014741Y017340D02*
X014791Y017340D01*
X014791Y017418D02*
X014741Y017418D01*
X014741Y017497D02*
X014791Y017497D01*
X014791Y017575D02*
X014741Y017575D01*
X014761Y016947D02*
X015113Y016947D01*
X014828Y016869D02*
X014761Y016869D01*
X014781Y016790D02*
X014734Y016790D01*
X013883Y016790D02*
X013845Y016790D01*
X013845Y016869D02*
X013883Y016869D01*
X013883Y016947D02*
X013845Y016947D01*
X013845Y017026D02*
X013883Y017026D01*
X013883Y017104D02*
X013845Y017104D01*
X013845Y017183D02*
X013883Y017183D01*
X012913Y017732D02*
X012348Y017732D01*
X012417Y017654D02*
X012515Y017654D01*
X012473Y017575D02*
X012417Y017575D01*
X012417Y017497D02*
X012473Y017497D01*
X012473Y017418D02*
X012417Y017418D01*
X012417Y017340D02*
X012473Y017340D01*
X012473Y017261D02*
X012350Y017261D01*
X012397Y017183D02*
X012473Y017183D01*
X012473Y017104D02*
X012417Y017104D01*
X012417Y017026D02*
X012473Y017026D01*
X012473Y016947D02*
X012417Y016947D01*
X012417Y016869D02*
X012473Y016869D01*
X012473Y016790D02*
X012379Y016790D01*
X012368Y016712D02*
X012385Y016712D01*
X012215Y016488D02*
X011942Y016495D01*
X012440Y016241D02*
X010706Y016241D01*
X010291Y015568D02*
X010291Y015518D01*
X010291Y015568D02*
X009723Y015568D01*
X009723Y015603D01*
X009481Y015603D01*
X009481Y015103D02*
X009481Y015048D01*
X009283Y015048D01*
X009593Y014688D02*
X009913Y014688D01*
X010163Y014688D01*
X010203Y014728D01*
X010304Y014728D01*
X010352Y014680D01*
X010312Y014671D02*
X009786Y014671D01*
X009786Y014749D02*
X010015Y014749D01*
X010015Y014720D02*
X010312Y014720D01*
X010312Y015096D01*
X010136Y015096D01*
X010101Y015087D01*
X010069Y015068D01*
X010043Y015042D01*
X010024Y015010D01*
X010015Y014974D01*
X010015Y014720D01*
X010015Y014640D02*
X010015Y014386D01*
X010024Y014351D01*
X010043Y014319D01*
X010069Y014293D01*
X010101Y014274D01*
X010136Y014265D01*
X010312Y014265D01*
X010312Y014640D01*
X010015Y014640D01*
X010015Y014592D02*
X009537Y014592D01*
X009508Y014603D02*
X009483Y014578D01*
X009483Y014568D01*
X009503Y014548D01*
X009503Y014238D01*
X009479Y014357D02*
X009537Y014357D01*
X009537Y014435D02*
X009479Y014435D01*
X009479Y014514D02*
X009537Y014514D01*
X009508Y014603D02*
X009593Y014688D01*
X009757Y014828D02*
X010015Y014828D01*
X010015Y014906D02*
X009927Y014906D01*
X009956Y014985D02*
X010018Y014985D01*
X010064Y015063D02*
X009956Y015063D01*
X009956Y015142D02*
X010683Y015142D01*
X010683Y015063D02*
X010639Y015063D01*
X010392Y015063D02*
X010312Y015063D01*
X010312Y014985D02*
X010392Y014985D01*
X010392Y014906D02*
X010312Y014906D01*
X010312Y014828D02*
X010392Y014828D01*
X010392Y014749D02*
X010312Y014749D01*
X010312Y014592D02*
X010392Y014592D01*
X010392Y014514D02*
X010312Y014514D01*
X010312Y014435D02*
X010392Y014435D01*
X010392Y014357D02*
X010312Y014357D01*
X010312Y014278D02*
X010392Y014278D01*
X010469Y014200D02*
X010234Y014200D01*
X010224Y014210D02*
X009731Y014210D01*
X009661Y014140D01*
X009661Y013489D01*
X009731Y013419D01*
X010224Y013419D01*
X010294Y013489D01*
X010294Y014140D01*
X010224Y014210D01*
X010294Y014121D02*
X010409Y014121D01*
X010409Y014043D02*
X010294Y014043D01*
X010294Y013964D02*
X010409Y013964D01*
X010409Y013886D02*
X010294Y013886D01*
X010294Y013807D02*
X010409Y013807D01*
X010409Y013729D02*
X010294Y013729D01*
X010294Y013650D02*
X010409Y013650D01*
X010409Y013572D02*
X010294Y013572D01*
X010294Y013493D02*
X010409Y013493D01*
X010446Y013179D02*
X010766Y013179D01*
X010844Y013101D02*
X010525Y013101D01*
X010603Y013022D02*
X010923Y013022D01*
X010938Y012944D02*
X010682Y012944D01*
X010760Y012865D02*
X010929Y012865D01*
X010929Y012787D02*
X010839Y012787D01*
X010918Y012708D02*
X010958Y012708D01*
X010996Y012630D02*
X011000Y012630D01*
X011243Y012888D02*
X011243Y012928D01*
X010723Y013448D01*
X010976Y013422D02*
X011042Y013489D01*
X011042Y013750D01*
X011074Y013719D01*
X011543Y013719D01*
X011543Y013105D01*
X011493Y013155D01*
X011360Y013210D01*
X011217Y013210D01*
X011196Y013201D01*
X010976Y013422D01*
X010983Y013415D02*
X011543Y013415D01*
X011543Y013493D02*
X011042Y013493D01*
X011042Y013572D02*
X011543Y013572D01*
X011543Y013650D02*
X011042Y013650D01*
X011042Y013729D02*
X011064Y013729D01*
X011061Y013336D02*
X011543Y013336D01*
X011543Y013258D02*
X011140Y013258D01*
X011434Y013179D02*
X011543Y013179D01*
X011903Y013179D02*
X012144Y013179D01*
X012031Y013101D02*
X011903Y013101D01*
X011903Y013022D02*
X011971Y013022D01*
X011938Y012944D02*
X011903Y012944D01*
X011903Y012865D02*
X011929Y012865D01*
X011929Y012787D02*
X011903Y012787D01*
X011903Y012708D02*
X011958Y012708D01*
X012000Y012630D02*
X011903Y012630D01*
X011841Y012551D02*
X012078Y012551D01*
X012083Y012473D02*
X011762Y012473D01*
X011798Y012508D02*
X011798Y012508D01*
X011684Y012394D02*
X012083Y012394D01*
X012083Y012316D02*
X011605Y012316D01*
X011663Y012374D02*
X011663Y012374D01*
X011560Y012237D02*
X012083Y012237D01*
X012083Y012159D02*
X011984Y012159D01*
X012068Y012080D02*
X012083Y012080D01*
X012243Y011728D02*
X012003Y011488D01*
X009123Y011488D01*
X008643Y011968D01*
X008643Y012008D01*
X008565Y012086D01*
X008406Y012086D01*
X008203Y012086D01*
X008203Y012128D01*
X007593Y012128D01*
X007593Y012140D01*
X007168Y011923D02*
X006098Y011923D01*
X006109Y011845D02*
X007156Y011845D01*
X007119Y011766D02*
X006146Y011766D01*
X006146Y011688D02*
X007119Y011688D01*
X007119Y011609D02*
X006146Y011609D01*
X006146Y011531D02*
X007119Y011531D01*
X007139Y011452D02*
X006127Y011452D01*
X005672Y011640D02*
X005624Y011688D01*
X004883Y011688D01*
X004083Y012488D01*
X004083Y013368D01*
X003854Y013336D02*
X001853Y013336D01*
X001853Y013258D02*
X003870Y013258D01*
X003923Y013179D02*
X001853Y013179D01*
X001853Y013101D02*
X003923Y013101D01*
X003923Y013022D02*
X001853Y013022D01*
X001853Y012944D02*
X003923Y012944D01*
X003923Y012865D02*
X001853Y012865D01*
X001853Y012787D02*
X003923Y012787D01*
X003923Y012708D02*
X002733Y012708D01*
X002682Y012729D02*
X002423Y012729D01*
X002183Y012630D01*
X001853Y012630D01*
X001853Y012708D02*
X002372Y012708D01*
X002183Y012630D02*
X002000Y012447D01*
X001901Y012207D01*
X001901Y011948D01*
X002000Y011709D01*
X002183Y011526D01*
X002423Y011426D01*
X002682Y011426D01*
X002921Y011526D01*
X003105Y011709D01*
X003204Y011948D01*
X003204Y012207D01*
X003105Y012447D01*
X002921Y012630D01*
X002682Y012729D01*
X002922Y012630D02*
X003923Y012630D01*
X003923Y012551D02*
X003000Y012551D01*
X003079Y012473D02*
X003923Y012473D01*
X003951Y012394D02*
X003126Y012394D01*
X003159Y012316D02*
X004029Y012316D01*
X004108Y012237D02*
X003192Y012237D01*
X003204Y012159D02*
X004186Y012159D01*
X004265Y012080D02*
X003204Y012080D01*
X003204Y012002D02*
X004343Y012002D01*
X004422Y011923D02*
X003194Y011923D01*
X003161Y011845D02*
X004500Y011845D01*
X004579Y011766D02*
X003129Y011766D01*
X003084Y011688D02*
X004657Y011688D01*
X004736Y011609D02*
X003005Y011609D01*
X002927Y011531D02*
X004814Y011531D01*
X005218Y011452D02*
X002745Y011452D01*
X002360Y011452D02*
X001853Y011452D01*
X001853Y011374D02*
X009011Y011374D01*
X008933Y011452D02*
X008048Y011452D01*
X008068Y011531D02*
X008854Y011531D01*
X008776Y011609D02*
X008068Y011609D01*
X008068Y011688D02*
X008697Y011688D01*
X008619Y011766D02*
X008068Y011766D01*
X008072Y012394D02*
X006086Y012394D01*
X006138Y012316D02*
X007127Y012316D01*
X007119Y012237D02*
X006146Y012237D01*
X006146Y012159D02*
X007119Y012159D01*
X007119Y012080D02*
X006146Y012080D01*
X006146Y012002D02*
X007119Y012002D01*
X007119Y012473D02*
X006158Y012473D01*
X006166Y012551D02*
X007119Y012551D01*
X007593Y012640D02*
X007593Y012688D01*
X008203Y012688D01*
X008203Y012834D01*
X008406Y012834D01*
X008577Y012834D01*
X008603Y012808D01*
X010243Y012808D01*
X010803Y012248D01*
X011323Y012248D01*
X011721Y011850D01*
X011789Y011850D01*
X012193Y011452D02*
X015411Y011452D01*
X015515Y011409D02*
X015775Y011409D01*
X016014Y011508D01*
X016197Y011691D01*
X016297Y011931D01*
X016297Y012190D01*
X016197Y012430D01*
X016014Y012613D01*
X015775Y012712D01*
X015515Y012712D01*
X015276Y012613D01*
X015093Y012430D01*
X014994Y012190D01*
X014994Y011931D01*
X015093Y011691D01*
X015276Y011508D01*
X015515Y011409D01*
X015253Y011531D02*
X012959Y011531D01*
X013057Y011609D02*
X015175Y011609D01*
X015096Y011688D02*
X013111Y011688D01*
X013144Y011766D02*
X013588Y011766D01*
X013563Y011777D02*
X013716Y011713D01*
X013881Y011713D01*
X014033Y011777D01*
X014150Y011893D01*
X014214Y012046D01*
X014214Y012211D01*
X014150Y012364D01*
X014033Y012481D01*
X013881Y012544D01*
X013716Y012544D01*
X013563Y012481D01*
X013446Y012364D01*
X013383Y012211D01*
X013383Y012046D01*
X013446Y011893D01*
X013563Y011777D01*
X013495Y011845D02*
X013149Y011845D01*
X013148Y011923D02*
X013434Y011923D01*
X013401Y012002D02*
X013116Y012002D01*
X013068Y012080D02*
X013383Y012080D01*
X013383Y012159D02*
X012984Y012159D01*
X012943Y012237D02*
X013394Y012237D01*
X013426Y012316D02*
X012943Y012316D01*
X012943Y012394D02*
X013477Y012394D01*
X013555Y012473D02*
X013341Y012473D01*
X013329Y012473D02*
X013249Y012473D01*
X013237Y012473D02*
X012943Y012473D01*
X012943Y012551D02*
X013052Y012551D01*
X012979Y012630D02*
X012943Y012630D01*
X013249Y012630D02*
X013329Y012630D01*
X013329Y012708D02*
X013249Y012708D01*
X013249Y012787D02*
X013329Y012787D01*
X013329Y012810D02*
X013329Y012470D01*
X013400Y012485D01*
X013469Y012513D01*
X013531Y012555D01*
X013584Y012608D01*
X013626Y012670D01*
X013654Y012739D01*
X013668Y012810D01*
X013329Y012810D01*
X013329Y012865D02*
X016321Y012865D01*
X016321Y012787D02*
X013664Y012787D01*
X013642Y012708D02*
X015507Y012708D01*
X015317Y012630D02*
X013599Y012630D01*
X013526Y012551D02*
X015214Y012551D01*
X015136Y012473D02*
X014041Y012473D01*
X014120Y012394D02*
X015078Y012394D01*
X015046Y012316D02*
X014170Y012316D01*
X014203Y012237D02*
X015013Y012237D01*
X014994Y012159D02*
X014214Y012159D01*
X014214Y012080D02*
X014994Y012080D01*
X014994Y012002D02*
X014195Y012002D01*
X014163Y011923D02*
X014997Y011923D01*
X015029Y011845D02*
X014102Y011845D01*
X014009Y011766D02*
X015062Y011766D01*
X015879Y011452D02*
X016321Y011452D01*
X016321Y011374D02*
X012115Y011374D01*
X012272Y011531D02*
X012618Y011531D01*
X012520Y011609D02*
X012350Y011609D01*
X012403Y011688D02*
X012466Y011688D01*
X012434Y011766D02*
X012403Y011766D01*
X012403Y011845D02*
X012429Y011845D01*
X012430Y011923D02*
X012403Y011923D01*
X012403Y012002D02*
X012462Y012002D01*
X012510Y012080D02*
X012403Y012080D01*
X012403Y012159D02*
X012583Y012159D01*
X012583Y012237D02*
X012403Y012237D01*
X012403Y012316D02*
X012583Y012316D01*
X012583Y012394D02*
X012403Y012394D01*
X012403Y012473D02*
X012583Y012473D01*
X012583Y012551D02*
X012499Y012551D01*
X012578Y012630D02*
X012583Y012630D01*
X012323Y012848D02*
X012243Y012768D01*
X012243Y011728D01*
X012763Y011888D02*
X012789Y011862D01*
X013249Y012551D02*
X013329Y012551D01*
X013329Y012944D02*
X013249Y012944D01*
X013249Y013022D02*
X013329Y013022D01*
X013329Y013101D02*
X013249Y013101D01*
X013249Y013179D02*
X013329Y013179D01*
X013227Y013258D02*
X016321Y013258D01*
X016321Y013336D02*
X013306Y013336D01*
X013384Y013415D02*
X016321Y013415D01*
X016321Y013493D02*
X013423Y013493D01*
X013423Y013572D02*
X013788Y013572D01*
X013721Y013650D02*
X013423Y013650D01*
X013403Y014008D02*
X013269Y014142D01*
X013269Y014193D01*
X013243Y014167D01*
X013063Y013650D02*
X011903Y013650D01*
X011903Y013572D02*
X013032Y013572D01*
X012953Y013493D02*
X011903Y013493D01*
X011903Y013415D02*
X012875Y013415D01*
X012796Y013336D02*
X011903Y013336D01*
X011903Y013258D02*
X012718Y013258D01*
X012639Y013179D02*
X012434Y013179D01*
X012547Y013101D02*
X012583Y013101D01*
X012323Y012848D02*
X012290Y012848D01*
X012289Y012850D01*
X012010Y013729D02*
X012796Y013729D01*
X012736Y013807D02*
X012070Y013807D01*
X012070Y013886D02*
X012736Y013886D01*
X012736Y013964D02*
X012070Y013964D01*
X012212Y014043D02*
X012736Y014043D01*
X012736Y014121D02*
X012291Y014121D01*
X012369Y014200D02*
X012736Y014200D01*
X012736Y014278D02*
X012448Y014278D01*
X012503Y014357D02*
X012736Y014357D01*
X012736Y014435D02*
X012503Y014435D01*
X012503Y014514D02*
X012736Y014514D01*
X012736Y014592D02*
X012503Y014592D01*
X012143Y014592D02*
X012070Y014592D01*
X012070Y014514D02*
X012143Y014514D01*
X012095Y014435D02*
X012070Y014435D01*
X011883Y014208D02*
X011868Y014193D01*
X011537Y014193D01*
X011683Y014047D01*
X011683Y013928D01*
X011723Y013888D01*
X011004Y014200D02*
X011003Y014200D01*
X011003Y014278D02*
X011004Y014278D01*
X011003Y014357D02*
X011004Y014357D01*
X011003Y014435D02*
X011004Y014435D01*
X011003Y014514D02*
X011004Y014514D01*
X011003Y014592D02*
X011004Y014592D01*
X010683Y014357D02*
X010681Y014357D01*
X010683Y014278D02*
X010609Y014278D01*
X010094Y014278D02*
X009216Y014278D01*
X009216Y014200D02*
X009721Y014200D01*
X009661Y014121D02*
X009216Y014121D01*
X009216Y014043D02*
X009661Y014043D01*
X009661Y013964D02*
X009216Y013964D01*
X009260Y013886D02*
X009661Y013886D01*
X009661Y013807D02*
X009338Y013807D01*
X009417Y013729D02*
X009661Y013729D01*
X009661Y013650D02*
X009495Y013650D01*
X009574Y013572D02*
X009661Y013572D01*
X009652Y013493D02*
X009661Y013493D01*
X009688Y012630D02*
X010195Y012630D01*
X010274Y012551D02*
X009688Y012551D01*
X009688Y012394D02*
X010431Y012394D01*
X010509Y012316D02*
X009688Y012316D01*
X009685Y012237D02*
X010588Y012237D01*
X010594Y012159D02*
X009641Y012159D01*
X009312Y012159D02*
X009232Y012159D01*
X009232Y012123D02*
X008978Y012123D01*
X008942Y012133D01*
X008910Y012151D01*
X008884Y012177D01*
X008866Y012209D01*
X008856Y012245D01*
X008856Y012420D01*
X009232Y012420D01*
X009232Y012123D01*
X009232Y012237D02*
X009312Y012237D01*
X009312Y012316D02*
X009232Y012316D01*
X009232Y012394D02*
X009312Y012394D01*
X009260Y012448D02*
X008813Y012448D01*
X008856Y012394D02*
X008740Y012394D01*
X008801Y012316D02*
X008856Y012316D01*
X008858Y012237D02*
X008801Y012237D01*
X008801Y012159D02*
X008903Y012159D01*
X008801Y012080D02*
X010510Y012080D01*
X010462Y012002D02*
X008836Y012002D01*
X008914Y011923D02*
X010430Y011923D01*
X010429Y011845D02*
X008993Y011845D01*
X009071Y011766D02*
X010434Y011766D01*
X010466Y011688D02*
X009150Y011688D01*
X009260Y012448D02*
X009272Y012460D01*
X009312Y012473D02*
X010352Y012473D01*
X011243Y012888D02*
X011281Y012850D01*
X011289Y012850D01*
X010023Y014357D02*
X009735Y014357D01*
X009783Y014435D02*
X010015Y014435D01*
X010015Y014514D02*
X009786Y014514D01*
X009281Y014357D02*
X009235Y014357D01*
X009123Y014603D02*
X009036Y014603D01*
X009007Y015456D02*
X008792Y015456D01*
X008835Y015534D02*
X009007Y015534D01*
X009007Y015613D02*
X008914Y015613D01*
X008992Y015691D02*
X009007Y015691D01*
X008883Y015808D02*
X008883Y016448D01*
X008803Y016528D01*
X008803Y018008D01*
X009163Y018368D01*
X008678Y018910D02*
X008203Y018910D01*
X008203Y018988D02*
X008757Y018988D01*
X008835Y019067D02*
X008203Y019067D01*
X008203Y019145D02*
X008883Y019145D01*
X008883Y019115D02*
X008203Y018435D01*
X008203Y019995D01*
X008009Y020188D01*
X009008Y020188D01*
X009103Y020094D01*
X009208Y019988D01*
X009371Y019988D01*
X009371Y019808D01*
X009177Y019808D01*
X009083Y019715D01*
X009083Y019715D01*
X008883Y019515D01*
X008883Y019115D01*
X008883Y019224D02*
X008203Y019224D01*
X008203Y019302D02*
X008883Y019302D01*
X008883Y019381D02*
X008203Y019381D01*
X008203Y019459D02*
X008883Y019459D01*
X008906Y019538D02*
X008203Y019538D01*
X008203Y019616D02*
X008985Y019616D01*
X009063Y019695D02*
X008203Y019695D01*
X008203Y019773D02*
X009142Y019773D01*
X009188Y020009D02*
X008189Y020009D01*
X008203Y019930D02*
X009371Y019930D01*
X009371Y019852D02*
X008203Y019852D01*
X008110Y020087D02*
X009109Y020087D01*
X009031Y020166D02*
X008032Y020166D01*
X009226Y020480D02*
X015402Y020480D01*
X015240Y020401D02*
X009304Y020401D01*
X009739Y020168D02*
X009747Y020160D01*
X009755Y020168D01*
X009747Y019904D02*
X009899Y019904D01*
X009923Y019888D01*
X009747Y019648D02*
X009747Y019648D01*
X009747Y019648D01*
X009731Y019408D02*
X009603Y019408D01*
X009563Y019368D01*
X009283Y019368D01*
X009363Y019128D02*
X009738Y019128D01*
X009747Y019137D01*
X009747Y019393D02*
X009731Y019408D01*
X009363Y019128D02*
X008483Y018248D01*
X008483Y016208D01*
X009043Y016319D02*
X009056Y016319D01*
X008987Y016633D02*
X008963Y016633D01*
X008963Y016712D02*
X008987Y016712D01*
X009005Y016790D02*
X008963Y016790D01*
X009462Y016790D02*
X009500Y016790D01*
X009500Y016712D02*
X009462Y016712D01*
X009462Y016633D02*
X009500Y016633D01*
X009518Y016603D02*
X009481Y016603D01*
X010943Y017654D02*
X011468Y017654D01*
X011537Y017732D02*
X010943Y017732D01*
X010943Y017811D02*
X011485Y017811D01*
X011468Y017889D02*
X010943Y017889D01*
X010943Y017968D02*
X011468Y017968D01*
X011468Y018046D02*
X010943Y018046D01*
X010943Y018125D02*
X011468Y018125D01*
X011508Y018203D02*
X010943Y018203D01*
X010943Y018282D02*
X012290Y018282D01*
X012369Y018360D02*
X010943Y018360D01*
X010943Y018439D02*
X012447Y018439D01*
X012526Y018517D02*
X010943Y018517D01*
X010943Y018596D02*
X012604Y018596D01*
X012683Y018674D02*
X010943Y018674D01*
X010943Y018753D02*
X012761Y018753D01*
X012840Y018831D02*
X010943Y018831D01*
X010943Y018910D02*
X012913Y018910D01*
X012923Y018988D02*
X010943Y018988D01*
X010943Y019067D02*
X013002Y019067D01*
X012973Y019302D02*
X010943Y019302D01*
X010943Y019224D02*
X013538Y019224D01*
X013538Y019145D02*
X010943Y019145D01*
X011001Y019381D02*
X012937Y019381D01*
X012937Y019459D02*
X011010Y019459D01*
X011010Y019538D02*
X012937Y019538D01*
X012937Y019685D02*
X013237Y019685D01*
X013237Y020035D01*
X013059Y020035D01*
X013023Y020026D01*
X012991Y020007D01*
X012965Y019981D01*
X012947Y019949D01*
X012937Y019914D01*
X012937Y019685D01*
X012937Y019695D02*
X011010Y019695D01*
X011010Y019616D02*
X013237Y019616D01*
X013237Y019538D02*
X013317Y019538D01*
X013317Y019459D02*
X013237Y019459D01*
X013237Y019381D02*
X013317Y019381D01*
X013317Y019302D02*
X013237Y019302D01*
X013237Y019695D02*
X013317Y019695D01*
X013317Y019773D02*
X013237Y019773D01*
X013237Y019852D02*
X013317Y019852D01*
X013317Y019930D02*
X013237Y019930D01*
X013237Y020009D02*
X013317Y020009D01*
X013538Y020087D02*
X010781Y020087D01*
X010752Y020108D02*
X010823Y020108D01*
X010843Y020128D01*
X010781Y020137D02*
X011030Y020137D01*
X011030Y020264D01*
X011021Y020300D01*
X011002Y020332D01*
X010976Y020358D01*
X010944Y020376D01*
X010908Y020386D01*
X010781Y020386D01*
X010781Y020137D01*
X010781Y020166D02*
X010723Y020166D01*
X010723Y020244D02*
X010781Y020244D01*
X010781Y020323D02*
X010723Y020323D01*
X011007Y020323D02*
X013633Y020323D01*
X013554Y020244D02*
X011030Y020244D01*
X011030Y020166D02*
X013538Y020166D01*
X012994Y020009D02*
X011030Y020009D01*
X011024Y019930D02*
X012942Y019930D01*
X012937Y019852D02*
X010965Y019852D01*
X011002Y019773D02*
X012937Y019773D01*
X012890Y018203D02*
X012913Y018203D01*
X012913Y018125D02*
X012812Y018125D01*
X012733Y018046D02*
X012913Y018046D01*
X012913Y017968D02*
X012655Y017968D01*
X012576Y017889D02*
X012913Y017889D01*
X012913Y017811D02*
X012498Y017811D01*
X010752Y019578D02*
X010712Y019659D01*
X010763Y019648D02*
X010766Y019651D01*
X010766Y019658D01*
X010366Y020005D02*
X010280Y020045D01*
X010280Y020108D01*
X010219Y020168D01*
X008600Y018831D02*
X008203Y018831D01*
X008203Y018753D02*
X008521Y018753D01*
X008443Y018674D02*
X008203Y018674D01*
X008203Y018596D02*
X008364Y018596D01*
X008286Y018517D02*
X008203Y018517D01*
X008203Y018439D02*
X008207Y018439D01*
X007105Y016790D02*
X006963Y016790D01*
X006963Y016712D02*
X007086Y016712D01*
X007084Y016633D02*
X007086Y016633D01*
X007083Y015848D02*
X007963Y015848D01*
X007083Y015848D02*
X006843Y015608D01*
X006591Y015608D01*
X006548Y015565D01*
X006548Y015880D02*
X006355Y015880D01*
X006323Y015848D01*
X006083Y015848D01*
X006043Y015888D01*
X006003Y016808D02*
X005843Y016968D01*
X005603Y018910D02*
X005528Y018910D01*
X005540Y018988D02*
X005603Y018988D01*
X005603Y019067D02*
X005553Y019067D01*
X005553Y019145D02*
X005603Y019145D01*
X005603Y019224D02*
X005534Y019224D01*
X005501Y019302D02*
X005603Y019302D01*
X005603Y019381D02*
X005435Y019381D01*
X005323Y019459D02*
X005603Y019459D01*
X004737Y020009D02*
X004548Y020009D01*
X004553Y020087D02*
X004759Y020087D01*
X004759Y020166D02*
X004553Y020166D01*
X004525Y020244D02*
X004787Y020244D01*
X004819Y020323D02*
X004493Y020323D01*
X004415Y020401D02*
X004897Y020401D01*
X005039Y020480D02*
X004273Y020480D01*
X004039Y020480D02*
X002813Y020480D01*
X002914Y020438D02*
X002675Y020537D01*
X002415Y020537D01*
X002176Y020438D01*
X001993Y020255D01*
X001893Y020015D01*
X001893Y019756D01*
X001993Y019517D01*
X002176Y019334D01*
X002415Y019234D01*
X002675Y019234D01*
X002914Y019334D01*
X003097Y019517D01*
X003196Y019756D01*
X003196Y020015D01*
X003097Y020255D01*
X002914Y020438D01*
X002951Y020401D02*
X003897Y020401D01*
X003819Y020323D02*
X003029Y020323D01*
X003102Y020244D02*
X003787Y020244D01*
X003759Y020166D02*
X003134Y020166D01*
X003167Y020087D02*
X003759Y020087D01*
X003764Y020009D02*
X003196Y020009D01*
X003196Y019930D02*
X003796Y019930D01*
X003842Y019852D02*
X003196Y019852D01*
X003196Y019773D02*
X003920Y019773D01*
X003849Y019381D02*
X003642Y019381D01*
X003563Y019302D02*
X003792Y019302D01*
X003759Y019224D02*
X003485Y019224D01*
X003406Y019145D02*
X003742Y019145D01*
X003754Y018988D02*
X003249Y018988D01*
X003171Y018910D02*
X003785Y018910D01*
X003835Y018831D02*
X003092Y018831D01*
X003043Y018753D02*
X003923Y018753D01*
X004116Y019067D02*
X003328Y019067D01*
X003189Y019381D02*
X002961Y019381D01*
X003040Y019459D02*
X003268Y019459D01*
X003346Y019538D02*
X003106Y019538D01*
X003139Y019616D02*
X003425Y019616D01*
X003503Y019695D02*
X003171Y019695D01*
X003111Y019302D02*
X002839Y019302D01*
X002954Y019145D02*
X001853Y019145D01*
X001853Y019067D02*
X002875Y019067D01*
X002797Y018988D02*
X001853Y018988D01*
X001853Y018910D02*
X002723Y018910D01*
X002723Y018831D02*
X001853Y018831D01*
X001853Y018753D02*
X002723Y018753D01*
X002723Y018674D02*
X001853Y018674D01*
X001853Y018596D02*
X002723Y018596D01*
X002723Y018517D02*
X001853Y018517D01*
X001853Y018439D02*
X002723Y018439D01*
X002723Y018360D02*
X001853Y018360D01*
X001853Y018282D02*
X002723Y018282D01*
X002723Y018203D02*
X001853Y018203D01*
X001853Y018125D02*
X002723Y018125D01*
X002723Y018046D02*
X001853Y018046D01*
X001853Y017968D02*
X002723Y017968D01*
X002723Y017889D02*
X001853Y017889D01*
X001853Y017811D02*
X002723Y017811D01*
X002723Y017732D02*
X001853Y017732D01*
X001853Y017654D02*
X002723Y017654D01*
X002686Y017575D02*
X001853Y017575D01*
X001853Y017497D02*
X002654Y017497D01*
X002654Y017418D02*
X001853Y017418D01*
X001853Y017340D02*
X002667Y017340D01*
X002721Y017050D02*
X002923Y016848D01*
X003178Y016848D01*
X003201Y016825D01*
X003201Y017140D02*
X003631Y017140D01*
X003843Y016928D01*
X004083Y017248D02*
X004043Y017288D01*
X004043Y017488D01*
X004087Y017532D01*
X004087Y017711D01*
X003554Y017811D02*
X003043Y017811D01*
X003043Y017889D02*
X003554Y017889D01*
X003554Y017968D02*
X003043Y017968D01*
X003043Y018046D02*
X003554Y018046D01*
X003622Y018125D02*
X003043Y018125D01*
X003043Y018203D02*
X003652Y018203D01*
X003730Y018282D02*
X003043Y018282D01*
X003043Y018360D02*
X003809Y018360D01*
X003032Y019224D02*
X001853Y019224D01*
X001853Y019302D02*
X002251Y019302D01*
X002129Y019381D02*
X001853Y019381D01*
X001853Y019459D02*
X002050Y019459D01*
X001984Y019538D02*
X001853Y019538D01*
X001853Y019616D02*
X001951Y019616D01*
X001919Y019695D02*
X001853Y019695D01*
X001853Y019773D02*
X001893Y019773D01*
X001893Y019852D02*
X001853Y019852D01*
X001853Y019930D02*
X001893Y019930D01*
X001893Y020009D02*
X001853Y020009D01*
X001853Y020087D02*
X001923Y020087D01*
X001956Y020166D02*
X001853Y020166D01*
X001853Y020244D02*
X001988Y020244D01*
X002061Y020323D02*
X001853Y020323D01*
X001853Y020401D02*
X002139Y020401D01*
X002277Y020480D02*
X001853Y020480D01*
X001853Y020558D02*
X016321Y020558D01*
X016321Y020480D02*
X015855Y020480D01*
X016017Y020401D02*
X016321Y020401D01*
X016321Y020323D02*
X016096Y020323D01*
X016174Y020244D02*
X016321Y020244D01*
X016321Y020166D02*
X016211Y020166D01*
X016243Y020087D02*
X016321Y020087D01*
X016321Y020009D02*
X016276Y020009D01*
X016280Y019930D02*
X016321Y019930D01*
X016321Y019852D02*
X016280Y019852D01*
X016280Y019773D02*
X016321Y019773D01*
X016321Y019695D02*
X016262Y019695D01*
X016230Y019616D02*
X016321Y019616D01*
X016321Y019538D02*
X016197Y019538D01*
X016141Y019459D02*
X016321Y019459D01*
X016321Y019381D02*
X016083Y019381D01*
X016083Y019302D02*
X016321Y019302D01*
X016321Y019224D02*
X016083Y019224D01*
X016083Y019145D02*
X016321Y019145D01*
X016321Y019067D02*
X016083Y019067D01*
X016083Y018988D02*
X016321Y018988D01*
X016321Y018910D02*
X016083Y018910D01*
X016083Y018831D02*
X016321Y018831D01*
X016321Y018753D02*
X016094Y018753D01*
X016094Y018674D02*
X016321Y018674D01*
X016321Y018596D02*
X016094Y018596D01*
X016094Y018517D02*
X016321Y018517D01*
X016321Y018439D02*
X016094Y018439D01*
X016094Y018360D02*
X016321Y018360D01*
X016321Y018282D02*
X016094Y018282D01*
X016094Y018203D02*
X016321Y018203D01*
X016321Y018125D02*
X016083Y018125D01*
X016083Y018046D02*
X016321Y018046D01*
X016321Y017968D02*
X016083Y017968D01*
X016083Y017889D02*
X016321Y017889D01*
X016321Y017811D02*
X016083Y017811D01*
X016083Y017732D02*
X016321Y017732D01*
X016321Y017654D02*
X016094Y017654D01*
X016094Y017575D02*
X016321Y017575D01*
X016321Y017497D02*
X016094Y017497D01*
X016094Y017418D02*
X016321Y017418D01*
X016321Y017340D02*
X016094Y017340D01*
X016094Y017261D02*
X016321Y017261D01*
X016321Y017183D02*
X016094Y017183D01*
X016094Y017104D02*
X016321Y017104D01*
X016321Y017026D02*
X016094Y017026D01*
X016037Y016869D02*
X016321Y016869D01*
X016321Y016947D02*
X015753Y016947D01*
X016084Y016790D02*
X016321Y016790D01*
X016321Y016712D02*
X016084Y016712D01*
X016084Y016633D02*
X016321Y016633D01*
X016321Y016555D02*
X016084Y016555D01*
X016084Y016476D02*
X016321Y016476D01*
X016321Y016398D02*
X016084Y016398D01*
X016084Y016319D02*
X016321Y016319D01*
X016321Y016241D02*
X016084Y016241D01*
X016076Y016162D02*
X016321Y016162D01*
X015472Y013985D02*
X015415Y013968D01*
X016321Y013179D02*
X013480Y013179D01*
X013575Y013101D02*
X016321Y013101D01*
X016321Y013022D02*
X013629Y013022D01*
X013658Y012944D02*
X016321Y012944D01*
X016321Y012708D02*
X015783Y012708D01*
X015973Y012630D02*
X016321Y012630D01*
X016321Y012551D02*
X016076Y012551D01*
X016154Y012473D02*
X016321Y012473D01*
X016321Y012394D02*
X016212Y012394D01*
X016244Y012316D02*
X016321Y012316D01*
X016321Y012237D02*
X016277Y012237D01*
X016297Y012159D02*
X016321Y012159D01*
X016321Y012080D02*
X016297Y012080D01*
X016297Y012002D02*
X016321Y012002D01*
X016321Y011923D02*
X016293Y011923D01*
X016321Y011845D02*
X016261Y011845D01*
X016228Y011766D02*
X016321Y011766D01*
X016321Y011688D02*
X016194Y011688D01*
X016115Y011609D02*
X016321Y011609D01*
X016321Y011531D02*
X016037Y011531D01*
X014457Y013572D02*
X014407Y013572D01*
X014097Y013983D02*
X014072Y014008D01*
X009232Y012473D02*
X008068Y012473D01*
X008010Y012865D02*
X008010Y012865D01*
X008765Y012551D02*
X008856Y012551D01*
X008856Y012630D02*
X008801Y012630D01*
X005259Y012394D02*
X005258Y012394D01*
X005003Y013022D02*
X004623Y013022D01*
X004623Y013101D02*
X004924Y013101D01*
X004846Y013179D02*
X004623Y013179D01*
X004623Y013258D02*
X004767Y013258D01*
X004689Y013336D02*
X004623Y013336D01*
X004623Y013415D02*
X004633Y013415D01*
X004843Y013408D02*
X005123Y013128D01*
X004843Y013408D02*
X004843Y013528D01*
X004563Y013808D02*
X004502Y013748D01*
X004487Y013748D01*
X004443Y013704D01*
X004487Y013748D02*
X004443Y013791D01*
X004443Y014168D02*
X004402Y014209D01*
X004402Y014365D01*
X004014Y013748D02*
X003982Y013748D01*
X003923Y013688D01*
X003985Y013729D02*
X001853Y013729D01*
X001853Y013807D02*
X003736Y013807D01*
X003736Y013886D02*
X001853Y013886D01*
X001853Y013964D02*
X003609Y013964D01*
X003554Y014043D02*
X001853Y014043D01*
X001853Y014121D02*
X003554Y014121D01*
X003554Y014200D02*
X001853Y014200D01*
X001853Y014278D02*
X003554Y014278D01*
X003554Y014357D02*
X001853Y014357D01*
X001853Y014435D02*
X003554Y014435D01*
X003554Y014514D02*
X001853Y014514D01*
X001853Y014592D02*
X003554Y014592D01*
X003554Y014671D02*
X001853Y014671D01*
X001853Y014749D02*
X002824Y014749D01*
X002786Y014828D02*
X001853Y014828D01*
X001853Y014906D02*
X002786Y014906D01*
X002786Y014985D02*
X001853Y014985D01*
X001853Y015063D02*
X002786Y015063D01*
X002786Y015142D02*
X001853Y015142D01*
X001853Y015220D02*
X002786Y015220D01*
X002786Y015299D02*
X001853Y015299D01*
X001853Y015377D02*
X002786Y015377D01*
X002786Y015456D02*
X001853Y015456D01*
X001853Y015534D02*
X002786Y015534D01*
X002786Y015613D02*
X001853Y015613D01*
X001853Y015691D02*
X002786Y015691D01*
X002786Y015770D02*
X001853Y015770D01*
X001853Y015848D02*
X002786Y015848D01*
X002786Y015927D02*
X001853Y015927D01*
X001853Y016005D02*
X002786Y016005D01*
X001921Y016084D02*
X001853Y016084D01*
X001853Y016162D02*
X001870Y016162D01*
X001870Y016241D02*
X001853Y016241D01*
X001853Y016319D02*
X001870Y016319D01*
X001870Y016398D02*
X001853Y016398D01*
X001853Y016476D02*
X001877Y016476D01*
X001857Y016555D02*
X001853Y016555D01*
X002404Y017050D02*
X002721Y017050D01*
X003565Y017340D02*
X003580Y017340D01*
X003396Y014935D02*
X003201Y014935D01*
X003396Y014935D02*
X003403Y014928D01*
X003579Y014749D02*
X003593Y014749D01*
X003736Y013650D02*
X001853Y013650D01*
X001853Y013572D02*
X003742Y013572D01*
X003798Y013493D02*
X001853Y013493D01*
X001853Y013415D02*
X003854Y013415D01*
X002105Y012551D02*
X001853Y012551D01*
X001853Y012473D02*
X002026Y012473D01*
X001978Y012394D02*
X001853Y012394D01*
X001853Y012316D02*
X001946Y012316D01*
X001913Y012237D02*
X001853Y012237D01*
X001853Y012159D02*
X001901Y012159D01*
X001901Y012080D02*
X001853Y012080D01*
X001853Y012002D02*
X001901Y012002D01*
X001911Y011923D02*
X001853Y011923D01*
X001853Y011845D02*
X001944Y011845D01*
X001976Y011766D02*
X001853Y011766D01*
X001853Y011688D02*
X002021Y011688D01*
X002100Y011609D02*
X001853Y011609D01*
X001853Y011531D02*
X002178Y011531D01*
X004392Y019773D02*
X004502Y019773D01*
X004470Y019852D02*
X004580Y019852D01*
X004516Y019930D02*
X004659Y019930D01*
D35*
X011942Y017995D02*
X012133Y017995D01*
X013113Y018029D02*
X013329Y018029D01*
X013329Y017995D02*
X013329Y018137D01*
X013342Y018183D01*
X013365Y018224D01*
X013399Y018258D01*
X013440Y018281D01*
X013486Y018294D01*
X013864Y018294D01*
X013864Y017995D01*
X013864Y017995D01*
X014398Y017995D01*
X014398Y017854D01*
X014386Y017808D01*
X014378Y017795D01*
X015883Y017795D01*
X015883Y018030D01*
X015501Y018030D01*
X015501Y018428D01*
X015385Y018428D01*
X015385Y018030D01*
X014888Y018030D01*
X014842Y018043D01*
X014801Y018066D01*
X014767Y018100D01*
X014744Y018141D01*
X014731Y018187D01*
X014731Y018428D01*
X015385Y018428D01*
X015385Y018544D01*
X015385Y018942D01*
X014888Y018942D01*
X014842Y018929D01*
X014801Y018906D01*
X014767Y018872D01*
X014744Y018831D01*
X014731Y018785D01*
X014731Y018544D01*
X015385Y018544D01*
X015501Y018544D01*
X015501Y018942D01*
X015883Y018942D01*
X015883Y019225D01*
X015766Y019177D01*
X015491Y019177D01*
X015237Y019282D01*
X015043Y019477D01*
X015032Y019501D01*
X015032Y019122D01*
X015020Y019076D01*
X014996Y019035D01*
X014963Y019001D01*
X014922Y018978D01*
X014876Y018965D01*
X014480Y018965D01*
X014482Y018962D01*
X014494Y018916D01*
X014494Y018714D01*
X014136Y018714D01*
X014136Y018677D01*
X014136Y018319D01*
X014338Y018319D01*
X014384Y018331D01*
X014425Y018355D01*
X014459Y018388D01*
X014482Y018429D01*
X014494Y018475D01*
X014494Y018677D01*
X014136Y018677D01*
X014099Y018677D01*
X014099Y018319D01*
X013897Y018319D01*
X013851Y018331D01*
X013810Y018355D01*
X013777Y018388D01*
X013771Y018398D01*
X013711Y018339D01*
X013185Y018339D01*
X013168Y018355D01*
X013113Y018355D01*
X013113Y017795D01*
X013349Y017795D01*
X013342Y017808D01*
X013329Y017854D01*
X013329Y017995D01*
X013864Y017995D01*
X014398Y017995D01*
X014398Y018137D01*
X014386Y018183D01*
X014362Y018224D01*
X014328Y018258D01*
X014287Y018281D01*
X014242Y018294D01*
X013864Y018294D01*
X013864Y017995D01*
X013864Y017995D01*
X013864Y017995D01*
X013329Y017995D01*
X013329Y017870D02*
X013113Y017870D01*
X013113Y018187D02*
X013344Y018187D01*
X013178Y018346D02*
X013113Y018346D01*
X013719Y018346D02*
X013825Y018346D01*
X013864Y018187D02*
X013864Y018187D01*
X013864Y018029D02*
X013864Y018029D01*
X014099Y018346D02*
X014136Y018346D01*
X014136Y018504D02*
X014099Y018504D01*
X014099Y018663D02*
X014136Y018663D01*
X014494Y018663D02*
X014731Y018663D01*
X014741Y018821D02*
X014494Y018821D01*
X014494Y018504D02*
X015385Y018504D01*
X015385Y018346D02*
X015501Y018346D01*
X015501Y018187D02*
X015385Y018187D01*
X015083Y018008D02*
X015803Y018008D01*
X015803Y019008D01*
X015883Y018980D02*
X014926Y018980D01*
X014963Y018968D02*
X015083Y018968D01*
X015083Y018008D01*
X014731Y018187D02*
X014383Y018187D01*
X014398Y018029D02*
X015883Y018029D01*
X015883Y017870D02*
X014398Y017870D01*
X014472Y017495D02*
X014483Y017485D01*
X014472Y017495D02*
X013864Y017495D01*
X013864Y016995D02*
X014466Y016995D01*
X014483Y017012D01*
X014495Y017000D01*
X014495Y016340D01*
X014003Y015848D01*
X013963Y015768D02*
X013523Y015768D01*
X013523Y016008D02*
X013963Y016008D01*
X014410Y018346D02*
X014731Y018346D01*
X014963Y018968D02*
X015123Y019128D01*
X015123Y019328D01*
X015032Y019297D02*
X015223Y019297D01*
X015064Y019455D02*
X015032Y019455D01*
X015006Y019565D02*
X014357Y019565D01*
X014357Y019725D01*
X014940Y019725D01*
X015006Y019565D01*
X014986Y019614D02*
X014357Y019614D01*
X015032Y019138D02*
X015883Y019138D01*
X015501Y018821D02*
X015385Y018821D01*
X015385Y018663D02*
X015501Y018663D01*
D36*
X015443Y017344D02*
X015433Y017192D01*
X015433Y016497D01*
X015383Y016545D01*
D37*
X015433Y016497D02*
X014984Y016347D01*
X014683Y016045D02*
X014633Y015995D01*
X014618Y015980D01*
X014548Y015980D01*
X014583Y015932D01*
X014548Y015980D02*
X014633Y015995D01*
X012832Y015656D02*
X012833Y015645D01*
X012633Y015445D01*
X012283Y015895D02*
X011933Y015895D01*
X011933Y015495D01*
X011969Y015482D01*
X011919Y015445D01*
X011919Y015895D02*
X011933Y015895D01*
X012283Y015895D02*
X012319Y015932D01*
X012333Y015932D01*
X010752Y019578D02*
X010766Y019658D01*
X005024Y012198D02*
X005024Y012162D01*
D38*
X011919Y015895D02*
X011933Y015995D01*
X013383Y018645D02*
X013433Y018695D01*
X013448Y018695D01*
D39*
X013433Y018680D01*
X013443Y018688D02*
X013383Y018645D01*
X013443Y018635D02*
X013443Y018688D01*
X013443Y018635D02*
X012983Y018635D01*
X012343Y017995D01*
X011942Y017995D01*
X014118Y018695D02*
X014118Y019403D01*
X014123Y019408D01*
X014403Y019408D01*
X014523Y019288D01*
X014523Y018968D01*
X014723Y019488D02*
X014566Y019645D01*
X014277Y019645D01*
X014723Y019488D02*
X014963Y019488D01*
X015123Y019328D01*
M02*
