G75*
%MOIN*%
%OFA0B0*%
%FSLAX24Y24*%
%IPPOS*%
%LPD*%
%AMOC8*
5,1,8,0,0,1.08239X$1,22.5*
%
%ADD10C,0.0070*%
%ADD11C,0.0554*%
%ADD12R,0.0554X0.0554*%
%ADD13C,0.0480*%
%ADD14C,0.0100*%
%ADD15C,0.0218*%
%ADD16C,0.0080*%
%ADD17C,0.0120*%
D10*
X000628Y005958D02*
X000838Y005958D01*
X000943Y006063D01*
X000943Y006274D01*
X000838Y006379D01*
X000628Y006379D01*
X000523Y006274D01*
X000523Y006169D01*
X000943Y006169D01*
X001167Y006379D02*
X001482Y006379D01*
X001587Y006274D01*
X001587Y006063D01*
X001482Y005958D01*
X001167Y005958D01*
X001167Y006589D01*
X001912Y006589D02*
X001912Y006694D01*
X001912Y006379D02*
X001912Y005958D01*
X002017Y005958D02*
X001807Y005958D01*
X001912Y006379D02*
X002017Y006379D01*
X002241Y006379D02*
X002557Y006379D01*
X002662Y006274D01*
X002557Y006169D01*
X002346Y006169D01*
X002241Y006063D01*
X002346Y005958D01*
X002662Y005958D01*
X003530Y005958D02*
X003530Y006274D01*
X003636Y006379D01*
X003741Y006274D01*
X003741Y005958D01*
X003951Y005958D02*
X003951Y006379D01*
X003846Y006379D01*
X003741Y006274D01*
X004175Y006274D02*
X004175Y006063D01*
X004280Y005958D01*
X004490Y005958D01*
X004595Y006063D01*
X004595Y006274D01*
X004490Y006379D01*
X004280Y006379D01*
X004175Y006274D01*
X004815Y006379D02*
X005025Y006379D01*
X004920Y006484D02*
X004920Y006063D01*
X004815Y005958D01*
X005245Y005958D02*
X005350Y006063D01*
X005350Y006484D01*
X005455Y006379D02*
X005245Y006379D01*
X005679Y006274D02*
X005679Y006063D01*
X005784Y005958D01*
X005994Y005958D01*
X006099Y006063D01*
X006099Y006274D01*
X005994Y006379D01*
X005784Y006379D01*
X005679Y006274D01*
X006323Y006274D02*
X006323Y006063D01*
X006429Y005958D01*
X006744Y005958D01*
X006744Y006589D01*
X006744Y006379D02*
X006429Y006379D01*
X006323Y006274D01*
X007608Y006063D02*
X007713Y006063D01*
X007713Y005958D01*
X007608Y005958D01*
X007608Y006063D01*
X007608Y005958D02*
X007818Y005748D01*
X008355Y005958D02*
X008355Y006379D01*
X008355Y006169D02*
X008145Y006379D01*
X008040Y006379D01*
X008579Y006274D02*
X008579Y006169D01*
X009000Y006169D01*
X009000Y006274D02*
X008895Y006379D01*
X008685Y006379D01*
X008579Y006274D01*
X008685Y005958D02*
X008895Y005958D01*
X009000Y006063D01*
X009000Y006274D01*
X009224Y006274D02*
X009224Y006063D01*
X009329Y005958D01*
X009644Y005958D01*
X009644Y005748D02*
X009644Y006379D01*
X009329Y006379D01*
X009224Y006274D01*
X009869Y006274D02*
X009869Y006063D01*
X009974Y005958D01*
X010289Y005958D01*
X010289Y005748D02*
X010289Y006379D01*
X009974Y006379D01*
X009869Y006274D01*
X010513Y006274D02*
X010513Y006063D01*
X010618Y005958D01*
X010828Y005958D01*
X010933Y006063D01*
X010933Y006274D01*
X010828Y006379D01*
X010618Y006379D01*
X010513Y006274D01*
X011158Y006484D02*
X011263Y006589D01*
X011473Y006589D01*
X011578Y006484D01*
X011578Y006063D01*
X011473Y005958D01*
X011263Y005958D01*
X011158Y006063D01*
D11*
X006156Y019099D03*
X005156Y019099D03*
X005156Y020099D03*
X004156Y020099D03*
X004156Y019099D03*
D12*
X006156Y020099D03*
D13*
X011289Y012850D03*
X011789Y011850D03*
X012289Y012850D03*
X012789Y011850D03*
X013289Y012850D03*
X010789Y011850D03*
D14*
X014533Y015045D02*
X014933Y015045D01*
X014533Y015045D02*
X014533Y015345D01*
D15*
X014883Y016045D03*
X014415Y016275D03*
X014495Y016675D03*
X013515Y016005D03*
X013515Y015765D03*
X012493Y016495D03*
X011363Y014968D03*
X012023Y014758D03*
X011133Y015695D03*
X011063Y016438D03*
X010063Y016718D03*
X009583Y017278D03*
X010263Y018638D03*
X009283Y019368D03*
X008543Y019798D03*
X008343Y019118D03*
X006983Y019838D03*
X006823Y020438D03*
X006863Y018238D03*
X007463Y017558D03*
X007803Y017448D03*
X008163Y016368D03*
X008483Y016208D03*
X008563Y015888D03*
X008563Y015528D03*
X008043Y015288D03*
X007223Y013878D03*
X006423Y014518D03*
X005783Y014918D03*
X006043Y015248D03*
X005543Y015558D03*
X006043Y015888D03*
X005923Y016368D03*
X005843Y016968D03*
X005383Y016918D03*
X004763Y017208D03*
X004403Y017248D03*
X004083Y017248D03*
X003683Y016648D03*
X003823Y015678D03*
X004703Y016278D03*
X004763Y015168D03*
X004743Y014838D03*
X004843Y013528D03*
X004083Y013368D03*
X003663Y013718D03*
X004693Y012658D03*
X006703Y012518D03*
X008813Y012448D03*
X008943Y013238D03*
X009503Y014238D03*
X009913Y014688D03*
X011263Y013558D03*
X014933Y014615D03*
X016013Y014655D03*
X015733Y015895D03*
X015433Y015895D03*
X013277Y019195D03*
X012977Y019195D03*
X012063Y018598D03*
X011103Y020118D03*
X005003Y018608D03*
X004203Y018208D03*
X003343Y018358D03*
X002883Y017448D03*
X002423Y018398D03*
X001931Y017367D03*
X001931Y015967D03*
D16*
X001853Y016005D02*
X003923Y016005D01*
X003923Y015927D02*
X001853Y015927D01*
X001853Y015848D02*
X003923Y015848D01*
X003923Y015770D02*
X001853Y015770D01*
X001853Y015691D02*
X003923Y015691D01*
X003923Y015613D02*
X001853Y015613D01*
X001853Y015534D02*
X003923Y015534D01*
X003923Y015456D02*
X001853Y015456D01*
X001853Y015377D02*
X003923Y015377D01*
X003923Y015299D02*
X001853Y015299D01*
X001853Y015220D02*
X003923Y015220D01*
X003923Y015142D02*
X001853Y015142D01*
X001853Y015063D02*
X003923Y015063D01*
X003923Y014985D02*
X001853Y014985D01*
X001853Y014906D02*
X003923Y014906D01*
X003923Y014828D02*
X001853Y014828D01*
X001853Y014749D02*
X003923Y014749D01*
X003923Y014671D02*
X001853Y014671D01*
X001853Y014592D02*
X003923Y014592D01*
X003923Y014514D02*
X001853Y014514D01*
X001853Y014435D02*
X003923Y014435D01*
X003923Y014357D02*
X001853Y014357D01*
X001853Y014278D02*
X003923Y014278D01*
X003923Y014200D02*
X001853Y014200D01*
X001853Y014121D02*
X003923Y014121D01*
X003923Y014043D02*
X001853Y014043D01*
X001853Y013964D02*
X003923Y013964D01*
X003923Y013886D02*
X001853Y013886D01*
X001853Y013807D02*
X003923Y013807D01*
X003923Y013729D02*
X001853Y013729D01*
X001853Y013650D02*
X003923Y013650D01*
X003923Y013572D02*
X001853Y013572D01*
X001853Y013493D02*
X003884Y013493D01*
X003854Y013463D02*
X003854Y013273D01*
X003988Y013139D01*
X004178Y013139D01*
X004312Y013273D01*
X004312Y013463D01*
X004243Y013532D01*
X004243Y017084D01*
X004243Y013902D01*
X004614Y013531D01*
X004614Y013433D01*
X004748Y013299D01*
X004938Y013299D01*
X005072Y013433D01*
X005072Y013623D01*
X004938Y013757D01*
X004840Y013757D01*
X004563Y014035D01*
X004563Y015044D01*
X004668Y014939D01*
X004766Y014939D01*
X004817Y014888D01*
X005469Y014888D01*
X005814Y015233D01*
X005814Y015153D01*
X005948Y015019D01*
X006138Y015019D01*
X006207Y015088D01*
X007617Y015088D01*
X007803Y014902D01*
X007897Y014808D01*
X011199Y014808D01*
X011268Y014739D01*
X011458Y014739D01*
X011592Y014873D01*
X011592Y015063D01*
X011458Y015197D01*
X011268Y015197D01*
X011199Y015128D01*
X008207Y015128D01*
X008207Y015128D01*
X008749Y015128D01*
X008909Y015288D01*
X009003Y015382D01*
X009003Y016475D01*
X008032Y017446D01*
X008032Y017543D01*
X007898Y017677D01*
X007708Y017677D01*
X007574Y017543D01*
X007574Y017353D01*
X007708Y017219D01*
X007806Y017219D01*
X008683Y016342D01*
X008683Y016332D01*
X008578Y016437D01*
X008392Y016437D01*
X008392Y016463D01*
X008258Y016597D01*
X008068Y016597D01*
X007999Y016528D01*
X006087Y016528D01*
X006018Y016597D01*
X005828Y016597D01*
X005694Y016463D01*
X005694Y016384D01*
X004978Y017100D01*
X004992Y017113D01*
X004992Y017303D01*
X004858Y017437D01*
X004668Y017437D01*
X004603Y017372D01*
X004498Y017477D01*
X004308Y017477D01*
X004243Y017412D01*
X004178Y017477D01*
X003988Y017477D01*
X003854Y017343D01*
X003854Y017153D01*
X003923Y017084D01*
X003923Y013532D01*
X003854Y013463D01*
X003854Y013415D02*
X001853Y013415D01*
X001853Y013336D02*
X003854Y013336D01*
X003870Y013258D02*
X001853Y013258D01*
X001853Y013179D02*
X003948Y013179D01*
X004083Y013368D02*
X004083Y017248D01*
X004243Y017084D02*
X004243Y017084D01*
X004243Y017026D02*
X004243Y017026D01*
X004243Y016947D02*
X004243Y016947D01*
X004243Y016869D02*
X004243Y016869D01*
X004243Y016790D02*
X004243Y016790D01*
X004243Y016712D02*
X004243Y016712D01*
X004243Y016633D02*
X004243Y016633D01*
X004243Y016555D02*
X004243Y016555D01*
X004243Y016476D02*
X004243Y016476D01*
X004243Y016398D02*
X004243Y016398D01*
X004243Y016319D02*
X004243Y016319D01*
X004243Y016241D02*
X004243Y016241D01*
X004243Y016162D02*
X004243Y016162D01*
X004243Y016084D02*
X004243Y016084D01*
X004243Y016005D02*
X004243Y016005D01*
X004243Y015927D02*
X004243Y015927D01*
X004243Y015848D02*
X004243Y015848D01*
X004243Y015770D02*
X004243Y015770D01*
X004243Y015691D02*
X004243Y015691D01*
X004243Y015613D02*
X004243Y015613D01*
X004243Y015534D02*
X004243Y015534D01*
X004243Y015456D02*
X004243Y015456D01*
X004243Y015377D02*
X004243Y015377D01*
X004243Y015299D02*
X004243Y015299D01*
X004243Y015220D02*
X004243Y015220D01*
X004243Y015142D02*
X004243Y015142D01*
X004243Y015063D02*
X004243Y015063D01*
X004243Y014985D02*
X004243Y014985D01*
X004243Y014906D02*
X004243Y014906D01*
X004243Y014828D02*
X004243Y014828D01*
X004243Y014749D02*
X004243Y014749D01*
X004243Y014671D02*
X004243Y014671D01*
X004243Y014592D02*
X004243Y014592D01*
X004243Y014514D02*
X004243Y014514D01*
X004243Y014435D02*
X004243Y014435D01*
X004243Y014357D02*
X004243Y014357D01*
X004243Y014278D02*
X004243Y014278D01*
X004243Y014200D02*
X004243Y014200D01*
X004243Y014121D02*
X004243Y014121D01*
X004243Y014043D02*
X004243Y014043D01*
X004243Y013964D02*
X004243Y013964D01*
X004243Y013886D02*
X004259Y013886D01*
X004243Y013807D02*
X004338Y013807D01*
X004416Y013729D02*
X004243Y013729D01*
X004243Y013650D02*
X004495Y013650D01*
X004573Y013572D02*
X004243Y013572D01*
X004282Y013493D02*
X004614Y013493D01*
X004633Y013415D02*
X004312Y013415D01*
X004312Y013336D02*
X004711Y013336D01*
X004843Y013528D02*
X004403Y013968D01*
X004403Y017248D01*
X004563Y017084D02*
X004563Y017084D01*
X004563Y015292D01*
X004668Y015397D01*
X004858Y015397D01*
X004992Y015263D01*
X004992Y015208D01*
X005337Y015208D01*
X005723Y015595D01*
X005817Y015688D01*
X005919Y015688D01*
X005814Y015793D01*
X005814Y015968D01*
X005657Y015968D01*
X004737Y016888D01*
X004643Y016982D01*
X004643Y017004D01*
X004563Y017084D01*
X004563Y017026D02*
X004621Y017026D01*
X004678Y016947D02*
X004563Y016947D01*
X004563Y016869D02*
X004756Y016869D01*
X004835Y016790D02*
X004563Y016790D01*
X004563Y016712D02*
X004913Y016712D01*
X004992Y016633D02*
X004563Y016633D01*
X004563Y016555D02*
X005070Y016555D01*
X005149Y016476D02*
X004563Y016476D01*
X004563Y016398D02*
X005227Y016398D01*
X005306Y016319D02*
X004563Y016319D01*
X004563Y016241D02*
X005384Y016241D01*
X005463Y016162D02*
X004563Y016162D01*
X004563Y016084D02*
X005541Y016084D01*
X005620Y016005D02*
X004563Y016005D01*
X004563Y015927D02*
X005814Y015927D01*
X005814Y015848D02*
X004563Y015848D01*
X004563Y015770D02*
X005838Y015770D01*
X005916Y015691D02*
X004563Y015691D01*
X004563Y015613D02*
X005741Y015613D01*
X005663Y015534D02*
X004563Y015534D01*
X004563Y015456D02*
X005584Y015456D01*
X005506Y015377D02*
X004878Y015377D01*
X004956Y015299D02*
X005427Y015299D01*
X005349Y015220D02*
X004992Y015220D01*
X004883Y015048D02*
X005403Y015048D01*
X005883Y015528D01*
X008563Y015528D01*
X008683Y015288D02*
X008843Y015448D01*
X008843Y016408D01*
X007803Y017448D01*
X007574Y017418D02*
X005619Y017418D01*
X005698Y017340D02*
X007587Y017340D01*
X007666Y017261D02*
X005776Y017261D01*
X005840Y017197D02*
X005069Y017968D01*
X003949Y017968D01*
X003883Y018035D01*
X003883Y018783D01*
X003885Y018781D01*
X003938Y018742D01*
X003996Y018713D01*
X004059Y018692D01*
X004116Y018683D01*
X004116Y019059D01*
X004196Y019059D01*
X004196Y018683D01*
X004254Y018692D01*
X004316Y018713D01*
X004375Y018742D01*
X004428Y018781D01*
X004474Y018827D01*
X004513Y018880D01*
X004543Y018939D01*
X004563Y019001D01*
X004572Y019059D01*
X004196Y019059D01*
X004196Y019139D01*
X004116Y019139D01*
X004116Y019515D01*
X004059Y019505D01*
X003996Y019485D01*
X003976Y019475D01*
X004203Y019702D01*
X004235Y019702D01*
X004381Y019762D01*
X004493Y019874D01*
X004553Y020020D01*
X004553Y020178D01*
X004493Y020324D01*
X004381Y020435D01*
X004235Y020496D01*
X004077Y020496D01*
X003931Y020435D01*
X003820Y020324D01*
X003759Y020178D01*
X003759Y020020D01*
X003820Y019874D01*
X003871Y019823D01*
X003657Y019608D01*
X003563Y019515D01*
X003563Y017902D01*
X003723Y017742D01*
X003817Y017648D01*
X004937Y017648D01*
X005614Y016971D01*
X005614Y016873D01*
X005748Y016739D01*
X005938Y016739D01*
X006072Y016873D01*
X006072Y017063D01*
X005938Y017197D01*
X005840Y017197D01*
X005952Y017183D02*
X007842Y017183D01*
X007921Y017104D02*
X006031Y017104D01*
X006072Y017026D02*
X007999Y017026D01*
X008078Y016947D02*
X006072Y016947D01*
X006067Y016869D02*
X008156Y016869D01*
X008235Y016790D02*
X005989Y016790D01*
X005843Y016968D02*
X005003Y017808D01*
X003883Y017808D01*
X003723Y017968D01*
X003723Y019448D01*
X004156Y019882D01*
X004156Y020099D01*
X004196Y019695D02*
X014996Y019695D01*
X014977Y019739D02*
X015077Y019499D01*
X015260Y019316D01*
X015499Y019217D01*
X015758Y019217D01*
X015998Y019316D01*
X016181Y019499D01*
X016280Y019739D01*
X016280Y019998D01*
X016181Y020238D01*
X015998Y020421D01*
X015758Y020520D01*
X015499Y020520D01*
X015260Y020421D01*
X015077Y020238D01*
X014977Y019998D01*
X014977Y019739D01*
X014977Y019773D02*
X006553Y019773D01*
X006553Y019772D02*
X006553Y020425D01*
X006483Y020496D01*
X005830Y020496D01*
X005759Y020425D01*
X005759Y019772D01*
X005830Y019702D01*
X006483Y019702D01*
X006553Y019772D01*
X006553Y019852D02*
X014977Y019852D01*
X014977Y019930D02*
X006553Y019930D01*
X006553Y020009D02*
X014982Y020009D01*
X015014Y020087D02*
X006553Y020087D01*
X006553Y020166D02*
X015047Y020166D01*
X015083Y020244D02*
X006553Y020244D01*
X006553Y020323D02*
X015162Y020323D01*
X015240Y020401D02*
X006553Y020401D01*
X006499Y020480D02*
X015402Y020480D01*
X015855Y020480D02*
X016321Y020480D01*
X016321Y020558D02*
X001853Y020558D01*
X001853Y020572D02*
X016321Y020572D01*
X016321Y011358D01*
X001853Y011358D01*
X001853Y020572D01*
X001853Y020480D02*
X002277Y020480D01*
X002176Y020438D02*
X002415Y020537D01*
X002675Y020537D01*
X002914Y020438D01*
X003097Y020255D01*
X003196Y020015D01*
X003196Y019756D01*
X003097Y019517D01*
X002914Y019334D01*
X002675Y019234D01*
X002415Y019234D01*
X002176Y019334D01*
X001993Y019517D01*
X001893Y019756D01*
X001893Y020015D01*
X001993Y020255D01*
X002176Y020438D01*
X002139Y020401D02*
X001853Y020401D01*
X001853Y020323D02*
X002061Y020323D01*
X001988Y020244D02*
X001853Y020244D01*
X001853Y020166D02*
X001956Y020166D01*
X001923Y020087D02*
X001853Y020087D01*
X001853Y020009D02*
X001893Y020009D01*
X001893Y019930D02*
X001853Y019930D01*
X001853Y019852D02*
X001893Y019852D01*
X001893Y019773D02*
X001853Y019773D01*
X001853Y019695D02*
X001919Y019695D01*
X001951Y019616D02*
X001853Y019616D01*
X001853Y019538D02*
X001984Y019538D01*
X002050Y019459D02*
X001853Y019459D01*
X001853Y019381D02*
X002129Y019381D01*
X002251Y019302D02*
X001853Y019302D01*
X001853Y019224D02*
X003563Y019224D01*
X003563Y019302D02*
X002839Y019302D01*
X002961Y019381D02*
X003563Y019381D01*
X003563Y019459D02*
X003040Y019459D01*
X003106Y019538D02*
X003586Y019538D01*
X003665Y019616D02*
X003139Y019616D01*
X003171Y019695D02*
X003743Y019695D01*
X003822Y019773D02*
X003196Y019773D01*
X003196Y019852D02*
X003842Y019852D01*
X003796Y019930D02*
X003196Y019930D01*
X003196Y020009D02*
X003764Y020009D01*
X003759Y020087D02*
X003167Y020087D01*
X003134Y020166D02*
X003759Y020166D01*
X003787Y020244D02*
X003102Y020244D01*
X003029Y020323D02*
X003819Y020323D01*
X003897Y020401D02*
X002951Y020401D01*
X002813Y020480D02*
X004039Y020480D01*
X004273Y020480D02*
X005039Y020480D01*
X005077Y020496D02*
X004931Y020435D01*
X004820Y020324D01*
X004759Y020178D01*
X004759Y020020D01*
X004820Y019874D01*
X004931Y019762D01*
X005077Y019702D01*
X005235Y019702D01*
X005381Y019762D01*
X005493Y019874D01*
X005553Y020020D01*
X005553Y020178D01*
X005493Y020324D01*
X005381Y020435D01*
X005235Y020496D01*
X005077Y020496D01*
X005273Y020480D02*
X005814Y020480D01*
X005759Y020401D02*
X005415Y020401D01*
X005493Y020323D02*
X005759Y020323D01*
X005759Y020244D02*
X005525Y020244D01*
X005553Y020166D02*
X005759Y020166D01*
X005759Y020087D02*
X005553Y020087D01*
X005548Y020009D02*
X005759Y020009D01*
X005759Y019930D02*
X005516Y019930D01*
X005470Y019852D02*
X005759Y019852D01*
X005759Y019773D02*
X005392Y019773D01*
X005235Y019496D02*
X005077Y019496D01*
X004931Y019435D01*
X004820Y019324D01*
X004759Y019178D01*
X004759Y019020D01*
X004820Y018874D01*
X004882Y018812D01*
X004774Y018703D01*
X004774Y018513D01*
X004908Y018379D01*
X005098Y018379D01*
X005227Y018508D01*
X005518Y018508D01*
X005852Y018842D01*
X005931Y018762D01*
X006077Y018702D01*
X006235Y018702D01*
X006364Y018755D01*
X005977Y018368D01*
X004367Y018368D01*
X004298Y018437D01*
X004108Y018437D01*
X003974Y018303D01*
X003974Y018113D01*
X004108Y017979D01*
X004298Y017979D01*
X004367Y018048D01*
X006109Y018048D01*
X007269Y019208D01*
X009119Y019208D01*
X009188Y019139D01*
X009378Y019139D01*
X009512Y019273D01*
X009512Y019463D01*
X009378Y019597D01*
X009188Y019597D01*
X009119Y019528D01*
X007137Y019528D01*
X007043Y019435D01*
X006500Y018891D01*
X006553Y019020D01*
X006553Y019178D01*
X006493Y019324D01*
X006381Y019435D01*
X006235Y019496D01*
X006077Y019496D01*
X005931Y019435D01*
X005820Y019324D01*
X005801Y019279D01*
X005779Y019279D01*
X005674Y019173D01*
X005553Y019053D01*
X005553Y019178D01*
X005493Y019324D01*
X005381Y019435D01*
X005235Y019496D01*
X005323Y019459D02*
X005990Y019459D01*
X005877Y019381D02*
X005435Y019381D01*
X005501Y019302D02*
X005811Y019302D01*
X005724Y019224D02*
X005534Y019224D01*
X005553Y019145D02*
X005645Y019145D01*
X005567Y019067D02*
X005553Y019067D01*
X005841Y018831D02*
X005862Y018831D01*
X005955Y018753D02*
X005762Y018753D01*
X005684Y018674D02*
X006283Y018674D01*
X006358Y018753D02*
X006361Y018753D01*
X006507Y018910D02*
X006518Y018910D01*
X006540Y018988D02*
X006597Y018988D01*
X006553Y019067D02*
X006675Y019067D01*
X006754Y019145D02*
X006553Y019145D01*
X006534Y019224D02*
X006832Y019224D01*
X006911Y019302D02*
X006501Y019302D01*
X006435Y019381D02*
X006989Y019381D01*
X007068Y019459D02*
X006323Y019459D01*
X006892Y018831D02*
X016321Y018831D01*
X016321Y018753D02*
X006814Y018753D01*
X006735Y018674D02*
X016321Y018674D01*
X016321Y018596D02*
X006657Y018596D01*
X006578Y018517D02*
X016321Y018517D01*
X016321Y018439D02*
X006500Y018439D01*
X006421Y018360D02*
X016321Y018360D01*
X016321Y018282D02*
X006343Y018282D01*
X006264Y018203D02*
X016321Y018203D01*
X016321Y018125D02*
X006186Y018125D01*
X006043Y018208D02*
X007203Y019368D01*
X009283Y019368D01*
X009512Y019381D02*
X015195Y019381D01*
X015117Y019459D02*
X009512Y019459D01*
X009437Y019538D02*
X015061Y019538D01*
X015028Y019616D02*
X004117Y019616D01*
X004039Y019538D02*
X009129Y019538D01*
X009182Y019145D02*
X007206Y019145D01*
X007128Y019067D02*
X016321Y019067D01*
X016321Y019145D02*
X009384Y019145D01*
X009462Y019224D02*
X015483Y019224D01*
X015293Y019302D02*
X009512Y019302D01*
X007921Y017654D02*
X016321Y017654D01*
X016321Y017732D02*
X005305Y017732D01*
X005384Y017654D02*
X007685Y017654D01*
X007606Y017575D02*
X005462Y017575D01*
X005541Y017497D02*
X007574Y017497D01*
X008000Y017575D02*
X016321Y017575D01*
X016321Y017497D02*
X008032Y017497D01*
X008059Y017418D02*
X016321Y017418D01*
X016321Y017340D02*
X008138Y017340D01*
X008216Y017261D02*
X016321Y017261D01*
X016321Y017183D02*
X008295Y017183D01*
X008373Y017104D02*
X016321Y017104D01*
X016321Y017026D02*
X008452Y017026D01*
X008530Y016947D02*
X016321Y016947D01*
X016321Y016869D02*
X008609Y016869D01*
X008687Y016790D02*
X016321Y016790D01*
X016321Y016712D02*
X012600Y016712D01*
X012588Y016724D02*
X012398Y016724D01*
X012264Y016590D01*
X012264Y016401D01*
X012313Y016351D01*
X012313Y015871D01*
X012418Y015765D01*
X012968Y015215D01*
X014308Y015215D01*
X014413Y015321D01*
X014908Y015816D01*
X014978Y015816D01*
X015112Y015951D01*
X015112Y016140D01*
X014978Y016274D01*
X014788Y016274D01*
X014654Y016140D01*
X014654Y016071D01*
X014158Y015575D01*
X013118Y015575D01*
X012673Y016020D01*
X012673Y016351D01*
X012722Y016401D01*
X012722Y016590D01*
X012588Y016724D01*
X012679Y016633D02*
X016321Y016633D01*
X016321Y016555D02*
X012722Y016555D01*
X012722Y016476D02*
X016321Y016476D01*
X016321Y016398D02*
X012719Y016398D01*
X012673Y016319D02*
X016321Y016319D01*
X016321Y016241D02*
X015011Y016241D01*
X015090Y016162D02*
X016321Y016162D01*
X016321Y016084D02*
X015112Y016084D01*
X015112Y016005D02*
X016321Y016005D01*
X016321Y015927D02*
X015088Y015927D01*
X015010Y015848D02*
X016321Y015848D01*
X016321Y015770D02*
X014862Y015770D01*
X014783Y015691D02*
X016321Y015691D01*
X016321Y015613D02*
X014705Y015613D01*
X014626Y015534D02*
X016321Y015534D01*
X016321Y015456D02*
X014548Y015456D01*
X014469Y015377D02*
X016321Y015377D01*
X016321Y015299D02*
X014391Y015299D01*
X014312Y015220D02*
X016321Y015220D01*
X016321Y015142D02*
X011513Y015142D01*
X011592Y015063D02*
X016321Y015063D01*
X016321Y014985D02*
X011592Y014985D01*
X011592Y014906D02*
X016321Y014906D01*
X016321Y014828D02*
X011546Y014828D01*
X011468Y014749D02*
X016321Y014749D01*
X016321Y014671D02*
X004563Y014671D01*
X004563Y014749D02*
X011258Y014749D01*
X011363Y014968D02*
X007963Y014968D01*
X007683Y015248D01*
X006043Y015248D01*
X005814Y015220D02*
X005801Y015220D01*
X005826Y015142D02*
X005723Y015142D01*
X005644Y015063D02*
X005904Y015063D01*
X006182Y015063D02*
X007642Y015063D01*
X007720Y014985D02*
X005566Y014985D01*
X005487Y014906D02*
X007799Y014906D01*
X007877Y014828D02*
X004563Y014828D01*
X004563Y014906D02*
X004799Y014906D01*
X004883Y015048D02*
X004763Y015168D01*
X004623Y014985D02*
X004563Y014985D01*
X004563Y015299D02*
X004570Y015299D01*
X004563Y015377D02*
X004648Y015377D01*
X004563Y014592D02*
X016321Y014592D01*
X016321Y014514D02*
X004563Y014514D01*
X004563Y014435D02*
X016321Y014435D01*
X016321Y014357D02*
X004563Y014357D01*
X004563Y014278D02*
X016321Y014278D01*
X016321Y014200D02*
X004563Y014200D01*
X004563Y014121D02*
X016321Y014121D01*
X016321Y014043D02*
X004563Y014043D01*
X004633Y013964D02*
X016321Y013964D01*
X016321Y013886D02*
X004712Y013886D01*
X004790Y013807D02*
X016321Y013807D01*
X016321Y013729D02*
X004966Y013729D01*
X005045Y013650D02*
X016321Y013650D01*
X016321Y013572D02*
X005072Y013572D01*
X005072Y013493D02*
X016321Y013493D01*
X016321Y013415D02*
X005053Y013415D01*
X004975Y013336D02*
X016321Y013336D01*
X016321Y013258D02*
X004296Y013258D01*
X004218Y013179D02*
X011144Y013179D01*
X011085Y013155D02*
X010984Y013054D01*
X010929Y012922D01*
X010929Y012778D01*
X010984Y012646D01*
X011085Y012545D01*
X011217Y012490D01*
X011360Y012490D01*
X011493Y012545D01*
X011594Y012646D01*
X011649Y012778D01*
X011649Y012922D01*
X011594Y013054D01*
X011493Y013155D01*
X011360Y013210D01*
X011217Y013210D01*
X011085Y013155D01*
X011031Y013101D02*
X001853Y013101D01*
X001853Y013022D02*
X010971Y013022D01*
X010938Y012944D02*
X001853Y012944D01*
X001853Y012865D02*
X010929Y012865D01*
X010929Y012787D02*
X001853Y012787D01*
X001853Y012708D02*
X002372Y012708D01*
X002423Y012729D02*
X002183Y012630D01*
X001853Y012630D01*
X001853Y012551D02*
X002105Y012551D01*
X002026Y012473D02*
X001853Y012473D01*
X001853Y012394D02*
X001978Y012394D01*
X002000Y012447D02*
X001901Y012207D01*
X001901Y011948D01*
X002000Y011709D01*
X002183Y011526D01*
X002423Y011426D01*
X002682Y011426D01*
X002921Y011526D01*
X003105Y011709D01*
X003204Y011948D01*
X003204Y012207D01*
X003105Y012447D01*
X002921Y012630D01*
X002682Y012729D01*
X002423Y012729D01*
X002183Y012630D02*
X002000Y012447D01*
X001946Y012316D02*
X001853Y012316D01*
X001853Y012237D02*
X001913Y012237D01*
X001901Y012159D02*
X001853Y012159D01*
X001853Y012080D02*
X001901Y012080D01*
X001901Y012002D02*
X001853Y012002D01*
X001853Y011923D02*
X001911Y011923D01*
X001944Y011845D02*
X001853Y011845D01*
X001853Y011766D02*
X001976Y011766D01*
X002021Y011688D02*
X001853Y011688D01*
X001853Y011609D02*
X002100Y011609D01*
X002178Y011531D02*
X001853Y011531D01*
X001853Y011452D02*
X002360Y011452D01*
X002745Y011452D02*
X015411Y011452D01*
X015515Y011409D02*
X015775Y011409D01*
X016014Y011508D01*
X016197Y011691D01*
X016297Y011931D01*
X016297Y012190D01*
X016197Y012430D01*
X016014Y012613D01*
X015775Y012712D01*
X015515Y012712D01*
X015276Y012613D01*
X015093Y012430D01*
X014994Y012190D01*
X014994Y011931D01*
X015093Y011691D01*
X015276Y011508D01*
X015515Y011409D01*
X015253Y011531D02*
X012959Y011531D01*
X012993Y011545D02*
X013094Y011646D01*
X013149Y011778D01*
X013149Y011922D01*
X013094Y012054D01*
X012993Y012155D01*
X012860Y012210D01*
X012717Y012210D01*
X012585Y012155D01*
X012484Y012054D01*
X012429Y011922D01*
X012429Y011778D01*
X012484Y011646D01*
X012585Y011545D01*
X012717Y011490D01*
X012860Y011490D01*
X012993Y011545D01*
X013057Y011609D02*
X015175Y011609D01*
X015096Y011688D02*
X013111Y011688D01*
X013144Y011766D02*
X013588Y011766D01*
X013563Y011777D02*
X013716Y011713D01*
X013881Y011713D01*
X014033Y011777D01*
X014150Y011893D01*
X014214Y012046D01*
X014214Y012211D01*
X014150Y012364D01*
X014033Y012481D01*
X013881Y012544D01*
X013716Y012544D01*
X013563Y012481D01*
X013446Y012364D01*
X013383Y012211D01*
X013383Y012046D01*
X013446Y011893D01*
X013563Y011777D01*
X013495Y011845D02*
X013149Y011845D01*
X013148Y011923D02*
X013434Y011923D01*
X013401Y012002D02*
X013116Y012002D01*
X013068Y012080D02*
X013383Y012080D01*
X013383Y012159D02*
X012984Y012159D01*
X013109Y012513D02*
X013047Y012555D01*
X012994Y012608D01*
X012952Y012670D01*
X012923Y012739D01*
X012909Y012810D01*
X013249Y012810D01*
X013329Y012810D01*
X013329Y012890D01*
X013668Y012890D01*
X013654Y012961D01*
X013626Y013030D01*
X013584Y013092D01*
X013531Y013145D01*
X013469Y013187D01*
X013400Y013215D01*
X013329Y013229D01*
X013329Y012890D01*
X013249Y012890D01*
X013249Y013229D01*
X013178Y013215D01*
X013109Y013187D01*
X013047Y013145D01*
X012994Y013092D01*
X012952Y013030D01*
X012923Y012961D01*
X012909Y012890D01*
X013249Y012890D01*
X013249Y012810D01*
X013249Y012470D01*
X013178Y012485D01*
X013109Y012513D01*
X013052Y012551D02*
X012499Y012551D01*
X012493Y012545D02*
X012594Y012646D01*
X012649Y012778D01*
X012649Y012922D01*
X012594Y013054D01*
X012493Y013155D01*
X012360Y013210D01*
X012217Y013210D01*
X012085Y013155D01*
X011984Y013054D01*
X011929Y012922D01*
X011929Y012778D01*
X011984Y012646D01*
X012085Y012545D01*
X012217Y012490D01*
X012360Y012490D01*
X012493Y012545D01*
X012578Y012630D02*
X012979Y012630D01*
X012936Y012708D02*
X012620Y012708D01*
X012649Y012787D02*
X012914Y012787D01*
X012920Y012944D02*
X012640Y012944D01*
X012649Y012865D02*
X013249Y012865D01*
X013249Y012787D02*
X013329Y012787D01*
X013329Y012810D02*
X013329Y012470D01*
X013400Y012485D01*
X013469Y012513D01*
X013531Y012555D01*
X013584Y012608D01*
X013626Y012670D01*
X013654Y012739D01*
X013668Y012810D01*
X013329Y012810D01*
X013329Y012865D02*
X016321Y012865D01*
X016321Y012787D02*
X013664Y012787D01*
X013642Y012708D02*
X015507Y012708D01*
X015317Y012630D02*
X013599Y012630D01*
X013526Y012551D02*
X015214Y012551D01*
X015136Y012473D02*
X014041Y012473D01*
X014120Y012394D02*
X015078Y012394D01*
X015046Y012316D02*
X014170Y012316D01*
X014203Y012237D02*
X015013Y012237D01*
X014994Y012159D02*
X014214Y012159D01*
X014214Y012080D02*
X014994Y012080D01*
X014994Y012002D02*
X014195Y012002D01*
X014163Y011923D02*
X014997Y011923D01*
X015029Y011845D02*
X014102Y011845D01*
X014009Y011766D02*
X015062Y011766D01*
X015879Y011452D02*
X016321Y011452D01*
X016321Y011374D02*
X001853Y011374D01*
X002927Y011531D02*
X010618Y011531D01*
X010585Y011545D02*
X010717Y011490D01*
X010860Y011490D01*
X010993Y011545D01*
X011094Y011646D01*
X011149Y011778D01*
X011149Y011922D01*
X011094Y012054D01*
X010993Y012155D01*
X010860Y012210D01*
X010717Y012210D01*
X010585Y012155D01*
X010484Y012054D01*
X010429Y011922D01*
X010429Y011778D01*
X010484Y011646D01*
X010585Y011545D01*
X010520Y011609D02*
X003005Y011609D01*
X003084Y011688D02*
X010466Y011688D01*
X010434Y011766D02*
X003129Y011766D01*
X003161Y011845D02*
X010429Y011845D01*
X010430Y011923D02*
X003194Y011923D01*
X003204Y012002D02*
X010462Y012002D01*
X010510Y012080D02*
X003204Y012080D01*
X003204Y012159D02*
X010594Y012159D01*
X010984Y012159D02*
X011594Y012159D01*
X011585Y012155D02*
X011484Y012054D01*
X011429Y011922D01*
X011429Y011778D01*
X011484Y011646D01*
X011585Y011545D01*
X011717Y011490D01*
X011860Y011490D01*
X011993Y011545D01*
X012094Y011646D01*
X012149Y011778D01*
X012149Y011922D01*
X012094Y012054D01*
X011993Y012155D01*
X011860Y012210D01*
X011717Y012210D01*
X011585Y012155D01*
X011510Y012080D02*
X011068Y012080D01*
X011116Y012002D02*
X011462Y012002D01*
X011430Y011923D02*
X011148Y011923D01*
X011149Y011845D02*
X011429Y011845D01*
X011434Y011766D02*
X011144Y011766D01*
X011111Y011688D02*
X011466Y011688D01*
X011520Y011609D02*
X011057Y011609D01*
X010959Y011531D02*
X011618Y011531D01*
X011959Y011531D02*
X012618Y011531D01*
X012520Y011609D02*
X012057Y011609D01*
X012111Y011688D02*
X012466Y011688D01*
X012434Y011766D02*
X012144Y011766D01*
X012149Y011845D02*
X012429Y011845D01*
X012430Y011923D02*
X012148Y011923D01*
X012116Y012002D02*
X012462Y012002D01*
X012510Y012080D02*
X012068Y012080D01*
X011984Y012159D02*
X012594Y012159D01*
X012078Y012551D02*
X011499Y012551D01*
X011578Y012630D02*
X012000Y012630D01*
X011958Y012708D02*
X011620Y012708D01*
X011649Y012787D02*
X011929Y012787D01*
X011929Y012865D02*
X011649Y012865D01*
X011640Y012944D02*
X011938Y012944D01*
X011971Y013022D02*
X011607Y013022D01*
X011547Y013101D02*
X012031Y013101D01*
X012144Y013179D02*
X011434Y013179D01*
X010958Y012708D02*
X002733Y012708D01*
X002922Y012630D02*
X011000Y012630D01*
X011078Y012551D02*
X003000Y012551D01*
X003079Y012473D02*
X013237Y012473D01*
X013249Y012473D02*
X013329Y012473D01*
X013341Y012473D02*
X013555Y012473D01*
X013477Y012394D02*
X003126Y012394D01*
X003159Y012316D02*
X013426Y012316D01*
X013394Y012237D02*
X003192Y012237D01*
X006043Y015888D02*
X008563Y015888D01*
X008403Y016128D02*
X008483Y016208D01*
X008403Y016128D02*
X005723Y016128D01*
X004803Y017048D01*
X004803Y017168D01*
X004763Y017208D01*
X004992Y017183D02*
X005402Y017183D01*
X005324Y017261D02*
X004992Y017261D01*
X004955Y017340D02*
X005245Y017340D01*
X005167Y017418D02*
X004877Y017418D01*
X005010Y017575D02*
X003080Y017575D01*
X003112Y017543D02*
X002978Y017677D01*
X002788Y017677D01*
X002654Y017543D01*
X002654Y017353D01*
X002788Y017219D01*
X002886Y017219D01*
X003454Y016651D01*
X003454Y016553D01*
X003588Y016419D01*
X003778Y016419D01*
X003912Y016553D01*
X003912Y016743D01*
X003778Y016877D01*
X003680Y016877D01*
X003112Y017446D01*
X003112Y017543D01*
X003112Y017497D02*
X005088Y017497D01*
X005227Y017811D02*
X016321Y017811D01*
X016321Y017889D02*
X005148Y017889D01*
X005070Y017968D02*
X016321Y017968D01*
X016321Y018046D02*
X004365Y018046D01*
X004203Y018208D02*
X006043Y018208D01*
X006047Y018439D02*
X005157Y018439D01*
X004848Y018439D02*
X003883Y018439D01*
X003883Y018517D02*
X004774Y018517D01*
X004774Y018596D02*
X003883Y018596D01*
X003883Y018674D02*
X004774Y018674D01*
X004824Y018753D02*
X004389Y018753D01*
X004477Y018831D02*
X004862Y018831D01*
X004805Y018910D02*
X004528Y018910D01*
X004559Y018988D02*
X004772Y018988D01*
X004759Y019067D02*
X004196Y019067D01*
X004196Y019139D02*
X004572Y019139D01*
X004563Y019196D01*
X004543Y019259D01*
X004513Y019317D01*
X004474Y019370D01*
X004428Y019417D01*
X004375Y019455D01*
X004316Y019485D01*
X004254Y019505D01*
X004196Y019515D01*
X004196Y019139D01*
X004196Y019145D02*
X004116Y019145D01*
X004116Y019224D02*
X004196Y019224D01*
X004196Y019302D02*
X004116Y019302D01*
X004116Y019381D02*
X004196Y019381D01*
X004196Y019459D02*
X004116Y019459D01*
X004367Y019459D02*
X004990Y019459D01*
X004877Y019381D02*
X004464Y019381D01*
X004520Y019302D02*
X004811Y019302D01*
X004778Y019224D02*
X004554Y019224D01*
X004571Y019145D02*
X004759Y019145D01*
X004196Y018988D02*
X004116Y018988D01*
X004116Y018910D02*
X004196Y018910D01*
X004196Y018831D02*
X004116Y018831D01*
X004116Y018753D02*
X004196Y018753D01*
X003923Y018753D02*
X003883Y018753D01*
X003563Y018753D02*
X001853Y018753D01*
X001853Y018831D02*
X003563Y018831D01*
X003563Y018910D02*
X001853Y018910D01*
X001853Y018988D02*
X003563Y018988D01*
X003563Y019067D02*
X001853Y019067D01*
X001853Y019145D02*
X003563Y019145D01*
X003563Y018674D02*
X001853Y018674D01*
X001853Y018596D02*
X003563Y018596D01*
X003563Y018517D02*
X001853Y018517D01*
X001853Y018439D02*
X003563Y018439D01*
X003563Y018360D02*
X001853Y018360D01*
X001853Y018282D02*
X003563Y018282D01*
X003563Y018203D02*
X001853Y018203D01*
X001853Y018125D02*
X003563Y018125D01*
X003563Y018046D02*
X001853Y018046D01*
X001853Y017968D02*
X003563Y017968D01*
X003576Y017889D02*
X001853Y017889D01*
X001853Y017811D02*
X003654Y017811D01*
X003733Y017732D02*
X001853Y017732D01*
X001853Y017654D02*
X002765Y017654D01*
X002686Y017575D02*
X001853Y017575D01*
X001853Y017497D02*
X002654Y017497D01*
X002654Y017418D02*
X001853Y017418D01*
X001853Y017340D02*
X002667Y017340D01*
X002746Y017261D02*
X001853Y017261D01*
X001853Y017183D02*
X002922Y017183D01*
X003001Y017104D02*
X001853Y017104D01*
X001853Y017026D02*
X003079Y017026D01*
X003158Y016947D02*
X001853Y016947D01*
X001853Y016869D02*
X003236Y016869D01*
X003315Y016790D02*
X001853Y016790D01*
X001853Y016712D02*
X003393Y016712D01*
X003454Y016633D02*
X001853Y016633D01*
X001853Y016555D02*
X003454Y016555D01*
X003531Y016476D02*
X001853Y016476D01*
X001853Y016398D02*
X003923Y016398D01*
X003923Y016476D02*
X003835Y016476D01*
X003912Y016555D02*
X003923Y016555D01*
X003912Y016633D02*
X003923Y016633D01*
X003912Y016712D02*
X003923Y016712D01*
X003923Y016790D02*
X003865Y016790D01*
X003923Y016869D02*
X003786Y016869D01*
X003923Y016947D02*
X003610Y016947D01*
X003532Y017026D02*
X003923Y017026D01*
X003903Y017104D02*
X003453Y017104D01*
X003375Y017183D02*
X003854Y017183D01*
X003854Y017261D02*
X003296Y017261D01*
X003218Y017340D02*
X003854Y017340D01*
X003929Y017418D02*
X003139Y017418D01*
X002883Y017448D02*
X003683Y016648D01*
X003923Y016319D02*
X001853Y016319D01*
X001853Y016241D02*
X003923Y016241D01*
X003923Y016162D02*
X001853Y016162D01*
X001853Y016084D02*
X003923Y016084D01*
X005052Y017026D02*
X005559Y017026D01*
X005614Y016947D02*
X005130Y016947D01*
X005209Y016869D02*
X005618Y016869D01*
X005697Y016790D02*
X005287Y016790D01*
X005366Y016712D02*
X008313Y016712D01*
X008392Y016633D02*
X005444Y016633D01*
X005523Y016555D02*
X005786Y016555D01*
X005707Y016476D02*
X005601Y016476D01*
X005680Y016398D02*
X005694Y016398D01*
X005923Y016368D02*
X008163Y016368D01*
X008300Y016555D02*
X008470Y016555D01*
X008549Y016476D02*
X008379Y016476D01*
X008617Y016398D02*
X008627Y016398D01*
X008844Y016633D02*
X012307Y016633D01*
X012264Y016555D02*
X008923Y016555D01*
X009001Y016476D02*
X012264Y016476D01*
X012267Y016398D02*
X009003Y016398D01*
X009003Y016319D02*
X012313Y016319D01*
X012313Y016241D02*
X009003Y016241D01*
X009003Y016162D02*
X012313Y016162D01*
X012313Y016084D02*
X009003Y016084D01*
X009003Y016005D02*
X012313Y016005D01*
X012313Y015927D02*
X009003Y015927D01*
X009003Y015848D02*
X012335Y015848D01*
X012414Y015770D02*
X009003Y015770D01*
X009003Y015691D02*
X012492Y015691D01*
X012571Y015613D02*
X009003Y015613D01*
X009003Y015534D02*
X012649Y015534D01*
X012728Y015456D02*
X009003Y015456D01*
X008998Y015377D02*
X012806Y015377D01*
X012885Y015299D02*
X008920Y015299D01*
X008841Y015220D02*
X012963Y015220D01*
X013080Y015613D02*
X014196Y015613D01*
X014274Y015691D02*
X013002Y015691D01*
X012923Y015770D02*
X014353Y015770D01*
X014431Y015848D02*
X012845Y015848D01*
X012766Y015927D02*
X014510Y015927D01*
X014588Y016005D02*
X012688Y016005D01*
X012673Y016084D02*
X014654Y016084D01*
X014676Y016162D02*
X012673Y016162D01*
X012673Y016241D02*
X014754Y016241D01*
X016321Y018910D02*
X006971Y018910D01*
X007049Y018988D02*
X016321Y018988D01*
X016321Y019224D02*
X015775Y019224D01*
X015965Y019302D02*
X016321Y019302D01*
X016321Y019381D02*
X016063Y019381D01*
X016141Y019459D02*
X016321Y019459D01*
X016321Y019538D02*
X016197Y019538D01*
X016230Y019616D02*
X016321Y019616D01*
X016321Y019695D02*
X016262Y019695D01*
X016280Y019773D02*
X016321Y019773D01*
X016321Y019852D02*
X016280Y019852D01*
X016280Y019930D02*
X016321Y019930D01*
X016321Y020009D02*
X016276Y020009D01*
X016243Y020087D02*
X016321Y020087D01*
X016321Y020166D02*
X016211Y020166D01*
X016174Y020244D02*
X016321Y020244D01*
X016321Y020323D02*
X016096Y020323D01*
X016017Y020401D02*
X016321Y020401D01*
X012385Y016712D02*
X008766Y016712D01*
X008026Y016555D02*
X006060Y016555D01*
X005481Y017104D02*
X004983Y017104D01*
X004649Y017418D02*
X004557Y017418D01*
X004249Y017418D02*
X004237Y017418D01*
X003811Y017654D02*
X003001Y017654D01*
X003883Y018046D02*
X004041Y018046D01*
X003974Y018125D02*
X003883Y018125D01*
X003883Y018203D02*
X003974Y018203D01*
X003974Y018282D02*
X003883Y018282D01*
X003883Y018360D02*
X004031Y018360D01*
X004392Y019773D02*
X004920Y019773D01*
X004842Y019852D02*
X004470Y019852D01*
X004516Y019930D02*
X004796Y019930D01*
X004764Y020009D02*
X004548Y020009D01*
X004553Y020087D02*
X004759Y020087D01*
X004759Y020166D02*
X004553Y020166D01*
X004525Y020244D02*
X004787Y020244D01*
X004819Y020323D02*
X004493Y020323D01*
X004415Y020401D02*
X004897Y020401D01*
X005605Y018596D02*
X006204Y018596D01*
X006126Y018517D02*
X005527Y018517D01*
X008043Y015288D02*
X008683Y015288D01*
X008763Y015142D02*
X011213Y015142D01*
X012434Y013179D02*
X013098Y013179D01*
X013002Y013101D02*
X012547Y013101D01*
X012607Y013022D02*
X012949Y013022D01*
X013249Y013022D02*
X013329Y013022D01*
X013329Y012944D02*
X013249Y012944D01*
X013249Y013101D02*
X013329Y013101D01*
X013329Y013179D02*
X013249Y013179D01*
X013480Y013179D02*
X016321Y013179D01*
X016321Y013101D02*
X013575Y013101D01*
X013629Y013022D02*
X016321Y013022D01*
X016321Y012944D02*
X013658Y012944D01*
X013329Y012708D02*
X013249Y012708D01*
X013249Y012630D02*
X013329Y012630D01*
X013329Y012551D02*
X013249Y012551D01*
X015783Y012708D02*
X016321Y012708D01*
X016321Y012630D02*
X015973Y012630D01*
X016076Y012551D02*
X016321Y012551D01*
X016321Y012473D02*
X016154Y012473D01*
X016212Y012394D02*
X016321Y012394D01*
X016321Y012316D02*
X016244Y012316D01*
X016277Y012237D02*
X016321Y012237D01*
X016321Y012159D02*
X016297Y012159D01*
X016297Y012080D02*
X016321Y012080D01*
X016321Y012002D02*
X016297Y012002D01*
X016293Y011923D02*
X016321Y011923D01*
X016321Y011845D02*
X016261Y011845D01*
X016228Y011766D02*
X016321Y011766D01*
X016321Y011688D02*
X016194Y011688D01*
X016115Y011609D02*
X016321Y011609D01*
X016321Y011531D02*
X016037Y011531D01*
D17*
X014233Y015395D02*
X013043Y015395D01*
X012493Y015945D01*
X012493Y016495D01*
X014233Y015395D02*
X014883Y016045D01*
X006156Y019099D02*
X005854Y019099D01*
X005443Y018688D01*
X005083Y018688D01*
X005003Y018608D01*
M02*
