%
M48
M72
T01C0.0354
T02C0.0394
%
T01
X2466Y2470
X3466Y2470
X2966Y3470
X3966Y3470
X5916Y2470
X6916Y2470
X6416Y3470
X7416Y3470
X9366Y2470
X10366Y2470
X9866Y3470
X10866Y3470
X12816Y2470
X13816Y2470
X13316Y3470
X14316Y3470
X16266Y2470
X17266Y2470
X16766Y3470
X17766Y3470
X19716Y2470
X20716Y2470
X20216Y3470
X21216Y3470
X23166Y2470
X24166Y2470
X23666Y3470
X24666Y3470
X26616Y2470
X27616Y2470
X27116Y3470
X28116Y3470
X30066Y2470
X31066Y2470
X30566Y3470
X31566Y3470
X33516Y2470
X34516Y2470
X34016Y3470
X35016Y3470
X36966Y2470
X37966Y2470
X37466Y3470
X38466Y3470
X40416Y2470
X41416Y2470
X40916Y3470
X41916Y3470
X43866Y2470
X44866Y2470
X44366Y3470
X45366Y3470
X47316Y2470
X48316Y2470
X47816Y3470
X48816Y3470
X50766Y2470
X51766Y2470
X51266Y3470
X52266Y3470
X54216Y2470
X55216Y2470
X54716Y3470
X55716Y3470
X57666Y2470
X58666Y2470
X58166Y3470
X59166Y3470
X61116Y2470
X62116Y2470
X61616Y3470
X62616Y3470
X62116Y6830
X61116Y6830
X61616Y7830
X62616Y7830
X59166Y7830
X58166Y7830
X57666Y6830
X58666Y6830
X55716Y7830
X54716Y7830
X54216Y6830
X55216Y6830
X52266Y7830
X51266Y7830
X50766Y6830
X51766Y6830
X48816Y7830
X47816Y7830
X47316Y6830
X48316Y6830
X45366Y7830
X44366Y7830
X43866Y6830
X44866Y6830
X41916Y7830
X40916Y7830
X40416Y6830
X41416Y6830
X38466Y7830
X37466Y7830
X36966Y6830
X37966Y6830
X35016Y7830
X34016Y7830
X33516Y6830
X34516Y6830
X31566Y7830
X30566Y7830
X30066Y6830
X31066Y6830
X28116Y7830
X27116Y7830
X26616Y6830
X27616Y6830
X24666Y7830
X23666Y7830
X23166Y6830
X24166Y6830
X21216Y7830
X20216Y7830
X19716Y6830
X20716Y6830
X17766Y7830
X16766Y7830
X16266Y6830
X17266Y6830
X14316Y7830
X13316Y7830
X12816Y6830
X13816Y6830
X10866Y7830
X9866Y7830
X9366Y6830
X10366Y6830
X7416Y7830
X6416Y7830
X5916Y6830
X6916Y6830
X3966Y7830
X2966Y7830
X2466Y6830
X3466Y6830
X3466Y14790
X2466Y14790
X2966Y15790
X3966Y15790
X5916Y14790
X6916Y14790
X6416Y15790
X7416Y15790
X9366Y14790
X10366Y14790
X9866Y15790
X10866Y15790
X12816Y14790
X13816Y14790
X13316Y15790
X14316Y15790
X16266Y14790
X17266Y14790
X16766Y15790
X17766Y15790
X19716Y14790
X20716Y14790
X20216Y15790
X21216Y15790
X23166Y14790
X24166Y14790
X23666Y15790
X24666Y15790
X26616Y14790
X27616Y14790
X27116Y15790
X28116Y15790
X30066Y14790
X31066Y14790
X30566Y15790
X31566Y15790
X33516Y14790
X34516Y14790
X34016Y15790
X35016Y15790
X36966Y14790
X37966Y14790
X37466Y15790
X38466Y15790
X40416Y14790
X41416Y14790
X40916Y15790
X41916Y15790
X43866Y14790
X44866Y14790
X44366Y15790
X45366Y15790
X47316Y14790
X48316Y14790
X47816Y15790
X48816Y15790
X50766Y14790
X51766Y14790
X51266Y15790
X52266Y15790
X54216Y14790
X55216Y14790
X54716Y15790
X55716Y15790
X57666Y14790
X58666Y14790
X58166Y15790
X59166Y15790
X61116Y14790
X62116Y14790
X61616Y15790
X62616Y15790
X62116Y19150
X61116Y19150
X61616Y20150
X62616Y20150
X59166Y20150
X58166Y20150
X57666Y19150
X58666Y19150
X55716Y20150
X54716Y20150
X52266Y20150
X51266Y20150
X48816Y20150
X47816Y20150
X45366Y20150
X44366Y20150
X43866Y19150
X44866Y19150
X47316Y19150
X48316Y19150
X50766Y19150
X51766Y19150
X54216Y19150
X55216Y19150
X55216Y22820
X54216Y22820
X54716Y23820
X55716Y23820
X57666Y22820
X58666Y22820
X58166Y23820
X59166Y23820
X61116Y22820
X62116Y22820
X61616Y23820
X62616Y23820
X62116Y27180
X61116Y27180
X61616Y28180
X62616Y28180
X59166Y28180
X58166Y28180
X57666Y27180
X58666Y27180
X55716Y28180
X54716Y28180
X52266Y28180
X51266Y28180
X48816Y28180
X47816Y28180
X45366Y28180
X44366Y28180
X43866Y27180
X44866Y27180
X47316Y27180
X48316Y27180
X50766Y27180
X51766Y27180
X54216Y27180
X55216Y27180
X52266Y23820
X51266Y23820
X50766Y22820
X51766Y22820
X48816Y23820
X47816Y23820
X47316Y22820
X48316Y22820
X45366Y23820
X44366Y23820
X43866Y22820
X44866Y22820
X41916Y23820
X40916Y23820
X40416Y22820
X41416Y22820
X38466Y23820
X37466Y23820
X36966Y22820
X37966Y22820
X35016Y23820
X34016Y23820
X33516Y22820
X34516Y22820
X31566Y23820
X30566Y23820
X30066Y22820
X31066Y22820
X28116Y23820
X27116Y23820
X26616Y22820
X27616Y22820
X24666Y23820
X23666Y23820
X23166Y22820
X24166Y22820
X21216Y23820
X20216Y23820
X19716Y22820
X20716Y22820
X17766Y23820
X16766Y23820
X16266Y22820
X17266Y22820
X14316Y23820
X13316Y23820
X12816Y22820
X13816Y22820
X10866Y23820
X9866Y23820
X9366Y22820
X10366Y22820
X7416Y23820
X6416Y23820
X5916Y22820
X6916Y22820
X3966Y23820
X2966Y23820
X2466Y22820
X3466Y22820
X2966Y20150
X3966Y20150
X3466Y19150
X2466Y19150
X5916Y19150
X6916Y19150
X6416Y20150
X7416Y20150
X9366Y19150
X10366Y19150
X9866Y20150
X10866Y20150
X12816Y19150
X13816Y19150
X13316Y20150
X14316Y20150
X16766Y20150
X17766Y20150
X20216Y20150
X21216Y20150
X20716Y19150
X19716Y19150
X17266Y19150
X16266Y19150
X23166Y19150
X24166Y19150
X23666Y20150
X24666Y20150
X26616Y19150
X27616Y19150
X30066Y19150
X31066Y19150
X33516Y19150
X34516Y19150
X34016Y20150
X35016Y20150
X36966Y19150
X37966Y19150
X37466Y20150
X38466Y20150
X40416Y19150
X41416Y19150
X40916Y20150
X41916Y20150
X31566Y20150
X30566Y20150
X28116Y20150
X27116Y20150
X26616Y27180
X27616Y27180
X30066Y27180
X31066Y27180
X33516Y27180
X34516Y27180
X34016Y28180
X35016Y28180
X36966Y27180
X37966Y27180
X37466Y28180
X38466Y28180
X40416Y27180
X41416Y27180
X40916Y28180
X41916Y28180
X31566Y28180
X30566Y28180
X28116Y28180
X27116Y28180
X24666Y28180
X23666Y28180
X23166Y27180
X24166Y27180
X21216Y28180
X20216Y28180
X17766Y28180
X16766Y28180
X14316Y28180
X13316Y28180
X12816Y27180
X13816Y27180
X16266Y27180
X17266Y27180
X19716Y27180
X20716Y27180
X10866Y28180
X9866Y28180
X9366Y27180
X10366Y27180
X7416Y28180
X6416Y28180
X5916Y27180
X6916Y27180
X3966Y28180
X2966Y28180
X2466Y27180
X3466Y27180
X3466Y35140
X2466Y35140
X2966Y36140
X3966Y36140
X5916Y35140
X6916Y35140
X6416Y36140
X7416Y36140
X9366Y35140
X10366Y35140
X9866Y36140
X10866Y36140
X12816Y35140
X13816Y35140
X13316Y36140
X14316Y36140
X16266Y35140
X17266Y35140
X16766Y36140
X17766Y36140
X19716Y35140
X20716Y35140
X20216Y36140
X21216Y36140
X23166Y35140
X24166Y35140
X23666Y36140
X24666Y36140
X26616Y35140
X27616Y35140
X27116Y36140
X28116Y36140
X30066Y35140
X31066Y35140
X30566Y36140
X31566Y36140
X33516Y35140
X34516Y35140
X34016Y36140
X35016Y36140
X36966Y35140
X37966Y35140
X37466Y36140
X38466Y36140
X40416Y35140
X41416Y35140
X40916Y36140
X41916Y36140
X43866Y35140
X44866Y35140
X44366Y36140
X45366Y36140
X47316Y35140
X48316Y35140
X47816Y36140
X48816Y36140
X50766Y35140
X51766Y35140
X51266Y36140
X52266Y36140
X54216Y35140
X55216Y35140
X54716Y36140
X55716Y36140
X57666Y35140
X58666Y35140
X58166Y36140
X59166Y36140
X61116Y35140
X62116Y35140
X61616Y36140
X62616Y36140
X62116Y39500
X61116Y39500
X61616Y40500
X62616Y40500
X59166Y40500
X58166Y40500
X57666Y39500
X58666Y39500
X55716Y40500
X54716Y40500
X54216Y39500
X55216Y39500
X52266Y40500
X51266Y40500
X50766Y39500
X51766Y39500
X48816Y40500
X47816Y40500
X47316Y39500
X48316Y39500
X45366Y40500
X44366Y40500
X43866Y39500
X44866Y39500
X41916Y40500
X40916Y40500
X40416Y39500
X41416Y39500
X38466Y40500
X37466Y40500
X36966Y39500
X37966Y39500
X35016Y40500
X34016Y40500
X33516Y39500
X34516Y39500
X31566Y40500
X30566Y40500
X30066Y39500
X31066Y39500
X28116Y40500
X27116Y40500
X26616Y39500
X27616Y39500
X24666Y40500
X23666Y40500
X23166Y39500
X24166Y39500
X21216Y40500
X20216Y40500
X19716Y39500
X20716Y39500
X17766Y40500
X16766Y40500
X16266Y39500
X17266Y39500
X14316Y40500
X13316Y40500
X12816Y39500
X13816Y39500
X10866Y40500
X9866Y40500
X9366Y39500
X10366Y39500
X7416Y40500
X6416Y40500
X5916Y39500
X6916Y39500
X3966Y40500
X2966Y40500
X2466Y39500
X3466Y39500
T02
X4416Y39700
X7866Y39700
X11316Y39700
X14766Y39700
X18216Y39700
X21666Y39700
X25116Y39700
X28566Y39700
X32016Y39700
X35466Y39700
X38916Y39700
X42366Y39700
X45816Y39700
X49266Y39700
X52716Y39700
X56166Y39700
X59616Y39700
X63066Y39700
X63066Y35340
X59616Y35340
X56166Y35340
X52716Y35340
X49266Y35340
X45816Y35340
X42366Y35340
X38916Y35340
X35466Y35340
X32016Y35340
X28566Y35340
X25116Y35340
X21666Y35340
X18216Y35340
X14766Y35340
X11316Y35340
X7866Y35340
X4416Y35340
X4416Y27380
X7866Y27380
X11316Y27380
X14766Y27380
X18216Y27380
X21666Y27380
X25116Y27380
X28566Y27380
X32016Y27380
X35466Y27380
X38916Y27380
X42366Y27380
X45816Y27380
X49266Y27380
X52716Y27380
X56166Y27380
X59616Y27380
X63066Y27380
X63066Y23020
X59616Y23020
X56166Y23020
X52716Y23020
X49266Y23020
X45816Y23020
X42366Y23020
X38916Y23020
X35466Y23020
X32016Y23020
X28566Y23020
X25116Y23020
X21666Y23020
X18216Y23020
X14766Y23020
X11316Y23020
X7866Y23020
X4416Y23020
X4416Y19350
X7866Y19350
X11316Y19350
X14766Y19350
X18216Y19350
X21666Y19350
X25116Y19350
X28566Y19350
X32016Y19350
X35466Y19350
X38916Y19350
X42366Y19350
X45816Y19350
X49266Y19350
X52716Y19350
X56166Y19350
X59616Y19350
X63066Y19350
X63066Y14990
X59616Y14990
X56166Y14990
X52716Y14990
X49266Y14990
X45816Y14990
X42366Y14990
X38916Y14990
X35466Y14990
X32016Y14990
X28566Y14990
X25116Y14990
X21666Y14990
X18216Y14990
X14766Y14990
X11316Y14990
X7866Y14990
X4416Y14990
X4416Y7030
X7866Y7030
X11316Y7030
X14766Y7030
X18216Y7030
X21666Y7030
X25116Y7030
X28566Y7030
X32016Y7030
X35466Y7030
X38916Y7030
X42366Y7030
X45816Y7030
X49266Y7030
X52716Y7030
X56166Y7030
X59616Y7030
X63066Y7030
X63066Y2670
X59616Y2670
X56166Y2670
X52716Y2670
X49266Y2670
X45816Y2670
X42366Y2670
X38916Y2670
X35466Y2670
X32016Y2670
X28566Y2670
X25116Y2670
X21666Y2670
X18216Y2670
X14766Y2670
X11316Y2670
X7866Y2670
X4416Y2670
M30
