G75*
G70*
%OFA0B0*%
%FSLAX24Y24*%
%IPPOS*%
%LPD*%
%AMOC8*
5,1,8,0,0,1.08239X$1,22.5*
%
%ADD10C,0.0100*%
%ADD11C,0.0300*%
%ADD12C,0.0665*%
%ADD13C,0.0000*%
%ADD14C,0.0472*%
D10*
X024179Y001794D02*
X087172Y001794D01*
X087172Y041164D01*
X024179Y041164D01*
X024179Y001794D01*
D11*
X017503Y025147D02*
X017503Y026848D01*
X018354Y026848D01*
X018638Y026564D01*
X018638Y025997D01*
X018354Y025714D01*
X017503Y025714D01*
X016796Y025997D02*
X016796Y026564D01*
X016512Y026848D01*
X015945Y026848D01*
X015662Y026564D01*
X015662Y025997D01*
X015945Y025714D01*
X016512Y025714D01*
X016796Y025997D01*
X015001Y025714D02*
X014718Y025997D01*
X014718Y027132D01*
X015001Y026848D02*
X014434Y026848D01*
X013727Y026848D02*
X012876Y026848D01*
X012593Y026564D01*
X012876Y026281D01*
X013443Y026281D01*
X013727Y025997D01*
X013443Y025714D01*
X012593Y025714D01*
X011885Y026564D02*
X010751Y026564D01*
X010044Y026564D02*
X009760Y026848D01*
X009477Y026564D01*
X009477Y025714D01*
X010044Y025714D02*
X010044Y026564D01*
X009477Y026564D02*
X009193Y026848D01*
X008909Y026848D01*
X008909Y025714D01*
X008202Y025997D02*
X008202Y026564D01*
X007919Y026848D01*
X007351Y026848D01*
X007068Y026564D01*
X007068Y025997D01*
X007351Y025714D01*
X007919Y025714D01*
X008202Y025997D01*
X006407Y025714D02*
X006124Y025997D01*
X006124Y027132D01*
X006407Y026848D02*
X005840Y026848D01*
X005180Y026848D02*
X004613Y026848D01*
X004896Y027132D02*
X004896Y025997D01*
X005180Y025714D01*
X003905Y025997D02*
X003905Y026564D01*
X003622Y026848D01*
X003055Y026848D01*
X002771Y026564D01*
X002771Y025997D01*
X003055Y025714D01*
X003622Y025714D01*
X003905Y025997D01*
X002064Y025997D02*
X001780Y025714D01*
X000929Y025714D01*
X000929Y027415D01*
X000929Y026848D02*
X001780Y026848D01*
X002064Y026564D01*
X002064Y025997D01*
D12*
X025936Y023820D03*
X026936Y023820D03*
X027436Y022820D03*
X026436Y022820D03*
X029386Y023820D03*
X030386Y023820D03*
X030886Y022820D03*
X029886Y022820D03*
X032836Y023820D03*
X033836Y023820D03*
X034336Y022820D03*
X033336Y022820D03*
X036286Y023820D03*
X037286Y023820D03*
X037786Y022820D03*
X036786Y022820D03*
X039736Y023820D03*
X040736Y023820D03*
X041236Y022820D03*
X040236Y022820D03*
X043186Y023820D03*
X044186Y023820D03*
X044686Y022820D03*
X043686Y022820D03*
X046636Y023820D03*
X047636Y023820D03*
X048136Y022820D03*
X047136Y022820D03*
X050086Y023820D03*
X051086Y023820D03*
X051586Y022820D03*
X050586Y022820D03*
X053536Y023820D03*
X054536Y023820D03*
X055036Y022820D03*
X054036Y022820D03*
X056986Y023820D03*
X057986Y023820D03*
X058486Y022820D03*
X057486Y022820D03*
X060436Y023820D03*
X061436Y023820D03*
X061936Y022820D03*
X060936Y022820D03*
X063886Y023820D03*
X064886Y023820D03*
X065386Y022820D03*
X064386Y022820D03*
X067336Y023820D03*
X068336Y023820D03*
X068836Y022820D03*
X067836Y022820D03*
X070786Y023820D03*
X071786Y023820D03*
X072286Y022820D03*
X071286Y022820D03*
X074236Y023820D03*
X075236Y023820D03*
X075736Y022820D03*
X074736Y022820D03*
X077686Y023820D03*
X078686Y023820D03*
X079186Y022820D03*
X078186Y022820D03*
X081136Y023820D03*
X082136Y023820D03*
X082636Y022820D03*
X081636Y022820D03*
X084586Y023820D03*
X085586Y023820D03*
X086086Y022820D03*
X085086Y022820D03*
X085586Y020150D03*
X084586Y020150D03*
X085086Y019150D03*
X086086Y019150D03*
X082636Y019150D03*
X081636Y019150D03*
X082136Y020150D03*
X081136Y020150D03*
X079186Y019150D03*
X078186Y019150D03*
X078686Y020150D03*
X077686Y020150D03*
X075736Y019150D03*
X074736Y019150D03*
X075236Y020150D03*
X074236Y020150D03*
X071786Y020150D03*
X070786Y020150D03*
X068336Y020150D03*
X067336Y020150D03*
X067836Y019150D03*
X068836Y019150D03*
X071286Y019150D03*
X072286Y019150D03*
X071786Y015790D03*
X070786Y015790D03*
X071286Y014790D03*
X072286Y014790D03*
X074236Y015790D03*
X075236Y015790D03*
X075736Y014790D03*
X074736Y014790D03*
X077686Y015790D03*
X078686Y015790D03*
X079186Y014790D03*
X078186Y014790D03*
X081136Y015790D03*
X082136Y015790D03*
X082636Y014790D03*
X081636Y014790D03*
X084586Y015790D03*
X085586Y015790D03*
X086086Y014790D03*
X085086Y014790D03*
X085586Y007830D03*
X084586Y007830D03*
X085086Y006830D03*
X086086Y006830D03*
X082636Y006830D03*
X081636Y006830D03*
X082136Y007830D03*
X081136Y007830D03*
X079186Y006830D03*
X078186Y006830D03*
X078686Y007830D03*
X077686Y007830D03*
X075736Y006830D03*
X074736Y006830D03*
X075236Y007830D03*
X074236Y007830D03*
X072286Y006830D03*
X071286Y006830D03*
X071786Y007830D03*
X070786Y007830D03*
X068836Y006830D03*
X067836Y006830D03*
X068336Y007830D03*
X067336Y007830D03*
X065386Y006830D03*
X064386Y006830D03*
X064886Y007830D03*
X063886Y007830D03*
X061936Y006830D03*
X060936Y006830D03*
X061436Y007830D03*
X060436Y007830D03*
X058486Y006830D03*
X057486Y006830D03*
X057986Y007830D03*
X056986Y007830D03*
X055036Y006830D03*
X054036Y006830D03*
X054536Y007830D03*
X053536Y007830D03*
X051586Y006830D03*
X050586Y006830D03*
X051086Y007830D03*
X050086Y007830D03*
X048136Y006830D03*
X047136Y006830D03*
X047636Y007830D03*
X046636Y007830D03*
X044686Y006830D03*
X043686Y006830D03*
X044186Y007830D03*
X043186Y007830D03*
X041236Y006830D03*
X040236Y006830D03*
X040736Y007830D03*
X039736Y007830D03*
X037786Y006830D03*
X036786Y006830D03*
X037286Y007830D03*
X036286Y007830D03*
X034336Y006830D03*
X033336Y006830D03*
X033836Y007830D03*
X032836Y007830D03*
X030886Y006830D03*
X029886Y006830D03*
X030386Y007830D03*
X029386Y007830D03*
X027436Y006830D03*
X026436Y006830D03*
X026936Y007830D03*
X025936Y007830D03*
X025936Y003470D03*
X026936Y003470D03*
X027436Y002470D03*
X026436Y002470D03*
X029386Y003470D03*
X030386Y003470D03*
X030886Y002470D03*
X029886Y002470D03*
X032836Y003470D03*
X033836Y003470D03*
X034336Y002470D03*
X033336Y002470D03*
X036286Y003470D03*
X037286Y003470D03*
X037786Y002470D03*
X036786Y002470D03*
X039736Y003470D03*
X040736Y003470D03*
X041236Y002470D03*
X040236Y002470D03*
X043186Y003470D03*
X044186Y003470D03*
X044686Y002470D03*
X043686Y002470D03*
X046636Y003470D03*
X047636Y003470D03*
X048136Y002470D03*
X047136Y002470D03*
X050086Y003470D03*
X051086Y003470D03*
X051586Y002470D03*
X050586Y002470D03*
X053536Y003470D03*
X054536Y003470D03*
X055036Y002470D03*
X054036Y002470D03*
X056986Y003470D03*
X057986Y003470D03*
X058486Y002470D03*
X057486Y002470D03*
X060436Y003470D03*
X061436Y003470D03*
X061936Y002470D03*
X060936Y002470D03*
X063886Y003470D03*
X064886Y003470D03*
X065386Y002470D03*
X064386Y002470D03*
X067336Y003470D03*
X068336Y003470D03*
X068836Y002470D03*
X067836Y002470D03*
X070786Y003470D03*
X071786Y003470D03*
X072286Y002470D03*
X071286Y002470D03*
X074236Y003470D03*
X075236Y003470D03*
X075736Y002470D03*
X074736Y002470D03*
X077686Y003470D03*
X078686Y003470D03*
X079186Y002470D03*
X078186Y002470D03*
X081136Y003470D03*
X082136Y003470D03*
X082636Y002470D03*
X081636Y002470D03*
X084586Y003470D03*
X085586Y003470D03*
X086086Y002470D03*
X085086Y002470D03*
X068836Y014790D03*
X067836Y014790D03*
X068336Y015790D03*
X067336Y015790D03*
X065386Y014790D03*
X064386Y014790D03*
X064886Y015790D03*
X063886Y015790D03*
X061936Y014790D03*
X060936Y014790D03*
X061436Y015790D03*
X060436Y015790D03*
X058486Y014790D03*
X057486Y014790D03*
X057986Y015790D03*
X056986Y015790D03*
X055036Y014790D03*
X054036Y014790D03*
X054536Y015790D03*
X053536Y015790D03*
X051586Y014790D03*
X050586Y014790D03*
X051086Y015790D03*
X050086Y015790D03*
X048136Y014790D03*
X047136Y014790D03*
X047636Y015790D03*
X046636Y015790D03*
X044686Y014790D03*
X043686Y014790D03*
X044186Y015790D03*
X043186Y015790D03*
X041236Y014790D03*
X040236Y014790D03*
X040736Y015790D03*
X039736Y015790D03*
X037786Y014790D03*
X036786Y014790D03*
X037286Y015790D03*
X036286Y015790D03*
X034336Y014790D03*
X033336Y014790D03*
X033836Y015790D03*
X032836Y015790D03*
X030886Y014790D03*
X029886Y014790D03*
X030386Y015790D03*
X029386Y015790D03*
X027436Y014790D03*
X026436Y014790D03*
X026936Y015790D03*
X025936Y015790D03*
X026436Y019150D03*
X027436Y019150D03*
X026936Y020150D03*
X025936Y020150D03*
X029386Y020150D03*
X030386Y020150D03*
X030886Y019150D03*
X029886Y019150D03*
X032836Y020150D03*
X033836Y020150D03*
X036286Y020150D03*
X037286Y020150D03*
X039736Y020150D03*
X040736Y020150D03*
X043186Y020150D03*
X044186Y020150D03*
X044686Y019150D03*
X043686Y019150D03*
X041236Y019150D03*
X040236Y019150D03*
X037786Y019150D03*
X036786Y019150D03*
X034336Y019150D03*
X033336Y019150D03*
X046636Y020150D03*
X047636Y020150D03*
X048136Y019150D03*
X047136Y019150D03*
X050086Y020150D03*
X051086Y020150D03*
X051586Y019150D03*
X050586Y019150D03*
X053536Y020150D03*
X054536Y020150D03*
X055036Y019150D03*
X054036Y019150D03*
X056986Y020150D03*
X057986Y020150D03*
X058486Y019150D03*
X057486Y019150D03*
X060436Y020150D03*
X061436Y020150D03*
X061936Y019150D03*
X060936Y019150D03*
X063886Y020150D03*
X064886Y020150D03*
X065386Y019150D03*
X064386Y019150D03*
X064386Y027180D03*
X065386Y027180D03*
X064886Y028180D03*
X063886Y028180D03*
X061936Y027180D03*
X060936Y027180D03*
X058486Y027180D03*
X057486Y027180D03*
X055036Y027180D03*
X054036Y027180D03*
X054536Y028180D03*
X053536Y028180D03*
X051586Y027180D03*
X050586Y027180D03*
X051086Y028180D03*
X050086Y028180D03*
X048136Y027180D03*
X047136Y027180D03*
X047636Y028180D03*
X046636Y028180D03*
X044686Y027180D03*
X043686Y027180D03*
X044186Y028180D03*
X043186Y028180D03*
X040736Y028180D03*
X039736Y028180D03*
X037286Y028180D03*
X036286Y028180D03*
X033836Y028180D03*
X032836Y028180D03*
X033336Y027180D03*
X034336Y027180D03*
X036786Y027180D03*
X037786Y027180D03*
X040236Y027180D03*
X041236Y027180D03*
X030886Y027180D03*
X029886Y027180D03*
X030386Y028180D03*
X029386Y028180D03*
X027436Y027180D03*
X026436Y027180D03*
X026936Y028180D03*
X025936Y028180D03*
X026436Y035140D03*
X027436Y035140D03*
X026936Y036140D03*
X025936Y036140D03*
X029386Y036140D03*
X030386Y036140D03*
X030886Y035140D03*
X029886Y035140D03*
X032836Y036140D03*
X033836Y036140D03*
X034336Y035140D03*
X033336Y035140D03*
X036286Y036140D03*
X037286Y036140D03*
X037786Y035140D03*
X036786Y035140D03*
X039736Y036140D03*
X040736Y036140D03*
X041236Y035140D03*
X040236Y035140D03*
X043186Y036140D03*
X044186Y036140D03*
X044686Y035140D03*
X043686Y035140D03*
X046636Y036140D03*
X047636Y036140D03*
X048136Y035140D03*
X047136Y035140D03*
X050086Y036140D03*
X051086Y036140D03*
X051586Y035140D03*
X050586Y035140D03*
X053536Y036140D03*
X054536Y036140D03*
X055036Y035140D03*
X054036Y035140D03*
X056986Y036140D03*
X057986Y036140D03*
X058486Y035140D03*
X057486Y035140D03*
X060436Y036140D03*
X061436Y036140D03*
X061936Y035140D03*
X060936Y035140D03*
X063886Y036140D03*
X064886Y036140D03*
X065386Y035140D03*
X064386Y035140D03*
X067336Y036140D03*
X068336Y036140D03*
X068836Y035140D03*
X067836Y035140D03*
X070786Y036140D03*
X071786Y036140D03*
X072286Y035140D03*
X071286Y035140D03*
X074236Y036140D03*
X075236Y036140D03*
X075736Y035140D03*
X074736Y035140D03*
X077686Y036140D03*
X078686Y036140D03*
X079186Y035140D03*
X078186Y035140D03*
X081136Y036140D03*
X082136Y036140D03*
X082636Y035140D03*
X081636Y035140D03*
X084586Y036140D03*
X085586Y036140D03*
X086086Y035140D03*
X085086Y035140D03*
X085086Y039500D03*
X086086Y039500D03*
X085586Y040500D03*
X084586Y040500D03*
X082636Y039500D03*
X081636Y039500D03*
X082136Y040500D03*
X081136Y040500D03*
X079186Y039500D03*
X078186Y039500D03*
X078686Y040500D03*
X077686Y040500D03*
X075736Y039500D03*
X074736Y039500D03*
X075236Y040500D03*
X074236Y040500D03*
X072286Y039500D03*
X071286Y039500D03*
X071786Y040500D03*
X070786Y040500D03*
X068836Y039500D03*
X067836Y039500D03*
X068336Y040500D03*
X067336Y040500D03*
X065386Y039500D03*
X064386Y039500D03*
X064886Y040500D03*
X063886Y040500D03*
X061936Y039500D03*
X060936Y039500D03*
X061436Y040500D03*
X060436Y040500D03*
X058486Y039500D03*
X057486Y039500D03*
X057986Y040500D03*
X056986Y040500D03*
X055036Y039500D03*
X054036Y039500D03*
X054536Y040500D03*
X053536Y040500D03*
X051586Y039500D03*
X050586Y039500D03*
X051086Y040500D03*
X050086Y040500D03*
X048136Y039500D03*
X047136Y039500D03*
X047636Y040500D03*
X046636Y040500D03*
X044686Y039500D03*
X043686Y039500D03*
X044186Y040500D03*
X043186Y040500D03*
X041236Y039500D03*
X040236Y039500D03*
X040736Y040500D03*
X039736Y040500D03*
X037786Y039500D03*
X036786Y039500D03*
X037286Y040500D03*
X036286Y040500D03*
X034336Y039500D03*
X033336Y039500D03*
X033836Y040500D03*
X032836Y040500D03*
X030886Y039500D03*
X029886Y039500D03*
X030386Y040500D03*
X029386Y040500D03*
X027436Y039500D03*
X026436Y039500D03*
X026936Y040500D03*
X025936Y040500D03*
X056986Y028180D03*
X057986Y028180D03*
X060436Y028180D03*
X061436Y028180D03*
X067336Y028180D03*
X068336Y028180D03*
X070786Y028180D03*
X071786Y028180D03*
X074236Y028180D03*
X075236Y028180D03*
X075736Y027180D03*
X074736Y027180D03*
X072286Y027180D03*
X071286Y027180D03*
X068836Y027180D03*
X067836Y027180D03*
X077686Y028180D03*
X078686Y028180D03*
X079186Y027180D03*
X078186Y027180D03*
X081136Y028180D03*
X082136Y028180D03*
X082636Y027180D03*
X081636Y027180D03*
X084586Y028180D03*
X085586Y028180D03*
X086086Y027180D03*
X085086Y027180D03*
D13*
X083939Y027380D02*
X083941Y027408D01*
X083947Y027436D01*
X083957Y027462D01*
X083970Y027487D01*
X083987Y027509D01*
X084007Y027529D01*
X084029Y027546D01*
X084054Y027559D01*
X084080Y027569D01*
X084108Y027575D01*
X084136Y027577D01*
X084164Y027575D01*
X084192Y027569D01*
X084218Y027559D01*
X084243Y027546D01*
X084265Y027529D01*
X084285Y027509D01*
X084302Y027487D01*
X084315Y027462D01*
X084325Y027436D01*
X084331Y027408D01*
X084333Y027380D01*
X084331Y027352D01*
X084325Y027324D01*
X084315Y027298D01*
X084302Y027273D01*
X084285Y027251D01*
X084265Y027231D01*
X084243Y027214D01*
X084218Y027201D01*
X084192Y027191D01*
X084164Y027185D01*
X084136Y027183D01*
X084108Y027185D01*
X084080Y027191D01*
X084054Y027201D01*
X084029Y027214D01*
X084007Y027231D01*
X083987Y027251D01*
X083970Y027273D01*
X083957Y027298D01*
X083947Y027324D01*
X083941Y027352D01*
X083939Y027380D01*
X080489Y027380D02*
X080491Y027408D01*
X080497Y027436D01*
X080507Y027462D01*
X080520Y027487D01*
X080537Y027509D01*
X080557Y027529D01*
X080579Y027546D01*
X080604Y027559D01*
X080630Y027569D01*
X080658Y027575D01*
X080686Y027577D01*
X080714Y027575D01*
X080742Y027569D01*
X080768Y027559D01*
X080793Y027546D01*
X080815Y027529D01*
X080835Y027509D01*
X080852Y027487D01*
X080865Y027462D01*
X080875Y027436D01*
X080881Y027408D01*
X080883Y027380D01*
X080881Y027352D01*
X080875Y027324D01*
X080865Y027298D01*
X080852Y027273D01*
X080835Y027251D01*
X080815Y027231D01*
X080793Y027214D01*
X080768Y027201D01*
X080742Y027191D01*
X080714Y027185D01*
X080686Y027183D01*
X080658Y027185D01*
X080630Y027191D01*
X080604Y027201D01*
X080579Y027214D01*
X080557Y027231D01*
X080537Y027251D01*
X080520Y027273D01*
X080507Y027298D01*
X080497Y027324D01*
X080491Y027352D01*
X080489Y027380D01*
X077039Y027380D02*
X077041Y027408D01*
X077047Y027436D01*
X077057Y027462D01*
X077070Y027487D01*
X077087Y027509D01*
X077107Y027529D01*
X077129Y027546D01*
X077154Y027559D01*
X077180Y027569D01*
X077208Y027575D01*
X077236Y027577D01*
X077264Y027575D01*
X077292Y027569D01*
X077318Y027559D01*
X077343Y027546D01*
X077365Y027529D01*
X077385Y027509D01*
X077402Y027487D01*
X077415Y027462D01*
X077425Y027436D01*
X077431Y027408D01*
X077433Y027380D01*
X077431Y027352D01*
X077425Y027324D01*
X077415Y027298D01*
X077402Y027273D01*
X077385Y027251D01*
X077365Y027231D01*
X077343Y027214D01*
X077318Y027201D01*
X077292Y027191D01*
X077264Y027185D01*
X077236Y027183D01*
X077208Y027185D01*
X077180Y027191D01*
X077154Y027201D01*
X077129Y027214D01*
X077107Y027231D01*
X077087Y027251D01*
X077070Y027273D01*
X077057Y027298D01*
X077047Y027324D01*
X077041Y027352D01*
X077039Y027380D01*
X073589Y027380D02*
X073591Y027408D01*
X073597Y027436D01*
X073607Y027462D01*
X073620Y027487D01*
X073637Y027509D01*
X073657Y027529D01*
X073679Y027546D01*
X073704Y027559D01*
X073730Y027569D01*
X073758Y027575D01*
X073786Y027577D01*
X073814Y027575D01*
X073842Y027569D01*
X073868Y027559D01*
X073893Y027546D01*
X073915Y027529D01*
X073935Y027509D01*
X073952Y027487D01*
X073965Y027462D01*
X073975Y027436D01*
X073981Y027408D01*
X073983Y027380D01*
X073981Y027352D01*
X073975Y027324D01*
X073965Y027298D01*
X073952Y027273D01*
X073935Y027251D01*
X073915Y027231D01*
X073893Y027214D01*
X073868Y027201D01*
X073842Y027191D01*
X073814Y027185D01*
X073786Y027183D01*
X073758Y027185D01*
X073730Y027191D01*
X073704Y027201D01*
X073679Y027214D01*
X073657Y027231D01*
X073637Y027251D01*
X073620Y027273D01*
X073607Y027298D01*
X073597Y027324D01*
X073591Y027352D01*
X073589Y027380D01*
X070139Y027380D02*
X070141Y027408D01*
X070147Y027436D01*
X070157Y027462D01*
X070170Y027487D01*
X070187Y027509D01*
X070207Y027529D01*
X070229Y027546D01*
X070254Y027559D01*
X070280Y027569D01*
X070308Y027575D01*
X070336Y027577D01*
X070364Y027575D01*
X070392Y027569D01*
X070418Y027559D01*
X070443Y027546D01*
X070465Y027529D01*
X070485Y027509D01*
X070502Y027487D01*
X070515Y027462D01*
X070525Y027436D01*
X070531Y027408D01*
X070533Y027380D01*
X070531Y027352D01*
X070525Y027324D01*
X070515Y027298D01*
X070502Y027273D01*
X070485Y027251D01*
X070465Y027231D01*
X070443Y027214D01*
X070418Y027201D01*
X070392Y027191D01*
X070364Y027185D01*
X070336Y027183D01*
X070308Y027185D01*
X070280Y027191D01*
X070254Y027201D01*
X070229Y027214D01*
X070207Y027231D01*
X070187Y027251D01*
X070170Y027273D01*
X070157Y027298D01*
X070147Y027324D01*
X070141Y027352D01*
X070139Y027380D01*
X066689Y027380D02*
X066691Y027408D01*
X066697Y027436D01*
X066707Y027462D01*
X066720Y027487D01*
X066737Y027509D01*
X066757Y027529D01*
X066779Y027546D01*
X066804Y027559D01*
X066830Y027569D01*
X066858Y027575D01*
X066886Y027577D01*
X066914Y027575D01*
X066942Y027569D01*
X066968Y027559D01*
X066993Y027546D01*
X067015Y027529D01*
X067035Y027509D01*
X067052Y027487D01*
X067065Y027462D01*
X067075Y027436D01*
X067081Y027408D01*
X067083Y027380D01*
X067081Y027352D01*
X067075Y027324D01*
X067065Y027298D01*
X067052Y027273D01*
X067035Y027251D01*
X067015Y027231D01*
X066993Y027214D01*
X066968Y027201D01*
X066942Y027191D01*
X066914Y027185D01*
X066886Y027183D01*
X066858Y027185D01*
X066830Y027191D01*
X066804Y027201D01*
X066779Y027214D01*
X066757Y027231D01*
X066737Y027251D01*
X066720Y027273D01*
X066707Y027298D01*
X066697Y027324D01*
X066691Y027352D01*
X066689Y027380D01*
X063239Y027380D02*
X063241Y027408D01*
X063247Y027436D01*
X063257Y027462D01*
X063270Y027487D01*
X063287Y027509D01*
X063307Y027529D01*
X063329Y027546D01*
X063354Y027559D01*
X063380Y027569D01*
X063408Y027575D01*
X063436Y027577D01*
X063464Y027575D01*
X063492Y027569D01*
X063518Y027559D01*
X063543Y027546D01*
X063565Y027529D01*
X063585Y027509D01*
X063602Y027487D01*
X063615Y027462D01*
X063625Y027436D01*
X063631Y027408D01*
X063633Y027380D01*
X063631Y027352D01*
X063625Y027324D01*
X063615Y027298D01*
X063602Y027273D01*
X063585Y027251D01*
X063565Y027231D01*
X063543Y027214D01*
X063518Y027201D01*
X063492Y027191D01*
X063464Y027185D01*
X063436Y027183D01*
X063408Y027185D01*
X063380Y027191D01*
X063354Y027201D01*
X063329Y027214D01*
X063307Y027231D01*
X063287Y027251D01*
X063270Y027273D01*
X063257Y027298D01*
X063247Y027324D01*
X063241Y027352D01*
X063239Y027380D01*
X059789Y027380D02*
X059791Y027408D01*
X059797Y027436D01*
X059807Y027462D01*
X059820Y027487D01*
X059837Y027509D01*
X059857Y027529D01*
X059879Y027546D01*
X059904Y027559D01*
X059930Y027569D01*
X059958Y027575D01*
X059986Y027577D01*
X060014Y027575D01*
X060042Y027569D01*
X060068Y027559D01*
X060093Y027546D01*
X060115Y027529D01*
X060135Y027509D01*
X060152Y027487D01*
X060165Y027462D01*
X060175Y027436D01*
X060181Y027408D01*
X060183Y027380D01*
X060181Y027352D01*
X060175Y027324D01*
X060165Y027298D01*
X060152Y027273D01*
X060135Y027251D01*
X060115Y027231D01*
X060093Y027214D01*
X060068Y027201D01*
X060042Y027191D01*
X060014Y027185D01*
X059986Y027183D01*
X059958Y027185D01*
X059930Y027191D01*
X059904Y027201D01*
X059879Y027214D01*
X059857Y027231D01*
X059837Y027251D01*
X059820Y027273D01*
X059807Y027298D01*
X059797Y027324D01*
X059791Y027352D01*
X059789Y027380D01*
X056339Y027380D02*
X056341Y027408D01*
X056347Y027436D01*
X056357Y027462D01*
X056370Y027487D01*
X056387Y027509D01*
X056407Y027529D01*
X056429Y027546D01*
X056454Y027559D01*
X056480Y027569D01*
X056508Y027575D01*
X056536Y027577D01*
X056564Y027575D01*
X056592Y027569D01*
X056618Y027559D01*
X056643Y027546D01*
X056665Y027529D01*
X056685Y027509D01*
X056702Y027487D01*
X056715Y027462D01*
X056725Y027436D01*
X056731Y027408D01*
X056733Y027380D01*
X056731Y027352D01*
X056725Y027324D01*
X056715Y027298D01*
X056702Y027273D01*
X056685Y027251D01*
X056665Y027231D01*
X056643Y027214D01*
X056618Y027201D01*
X056592Y027191D01*
X056564Y027185D01*
X056536Y027183D01*
X056508Y027185D01*
X056480Y027191D01*
X056454Y027201D01*
X056429Y027214D01*
X056407Y027231D01*
X056387Y027251D01*
X056370Y027273D01*
X056357Y027298D01*
X056347Y027324D01*
X056341Y027352D01*
X056339Y027380D01*
X052889Y027380D02*
X052891Y027408D01*
X052897Y027436D01*
X052907Y027462D01*
X052920Y027487D01*
X052937Y027509D01*
X052957Y027529D01*
X052979Y027546D01*
X053004Y027559D01*
X053030Y027569D01*
X053058Y027575D01*
X053086Y027577D01*
X053114Y027575D01*
X053142Y027569D01*
X053168Y027559D01*
X053193Y027546D01*
X053215Y027529D01*
X053235Y027509D01*
X053252Y027487D01*
X053265Y027462D01*
X053275Y027436D01*
X053281Y027408D01*
X053283Y027380D01*
X053281Y027352D01*
X053275Y027324D01*
X053265Y027298D01*
X053252Y027273D01*
X053235Y027251D01*
X053215Y027231D01*
X053193Y027214D01*
X053168Y027201D01*
X053142Y027191D01*
X053114Y027185D01*
X053086Y027183D01*
X053058Y027185D01*
X053030Y027191D01*
X053004Y027201D01*
X052979Y027214D01*
X052957Y027231D01*
X052937Y027251D01*
X052920Y027273D01*
X052907Y027298D01*
X052897Y027324D01*
X052891Y027352D01*
X052889Y027380D01*
X049439Y027380D02*
X049441Y027408D01*
X049447Y027436D01*
X049457Y027462D01*
X049470Y027487D01*
X049487Y027509D01*
X049507Y027529D01*
X049529Y027546D01*
X049554Y027559D01*
X049580Y027569D01*
X049608Y027575D01*
X049636Y027577D01*
X049664Y027575D01*
X049692Y027569D01*
X049718Y027559D01*
X049743Y027546D01*
X049765Y027529D01*
X049785Y027509D01*
X049802Y027487D01*
X049815Y027462D01*
X049825Y027436D01*
X049831Y027408D01*
X049833Y027380D01*
X049831Y027352D01*
X049825Y027324D01*
X049815Y027298D01*
X049802Y027273D01*
X049785Y027251D01*
X049765Y027231D01*
X049743Y027214D01*
X049718Y027201D01*
X049692Y027191D01*
X049664Y027185D01*
X049636Y027183D01*
X049608Y027185D01*
X049580Y027191D01*
X049554Y027201D01*
X049529Y027214D01*
X049507Y027231D01*
X049487Y027251D01*
X049470Y027273D01*
X049457Y027298D01*
X049447Y027324D01*
X049441Y027352D01*
X049439Y027380D01*
X045989Y027380D02*
X045991Y027408D01*
X045997Y027436D01*
X046007Y027462D01*
X046020Y027487D01*
X046037Y027509D01*
X046057Y027529D01*
X046079Y027546D01*
X046104Y027559D01*
X046130Y027569D01*
X046158Y027575D01*
X046186Y027577D01*
X046214Y027575D01*
X046242Y027569D01*
X046268Y027559D01*
X046293Y027546D01*
X046315Y027529D01*
X046335Y027509D01*
X046352Y027487D01*
X046365Y027462D01*
X046375Y027436D01*
X046381Y027408D01*
X046383Y027380D01*
X046381Y027352D01*
X046375Y027324D01*
X046365Y027298D01*
X046352Y027273D01*
X046335Y027251D01*
X046315Y027231D01*
X046293Y027214D01*
X046268Y027201D01*
X046242Y027191D01*
X046214Y027185D01*
X046186Y027183D01*
X046158Y027185D01*
X046130Y027191D01*
X046104Y027201D01*
X046079Y027214D01*
X046057Y027231D01*
X046037Y027251D01*
X046020Y027273D01*
X046007Y027298D01*
X045997Y027324D01*
X045991Y027352D01*
X045989Y027380D01*
X042539Y027380D02*
X042541Y027408D01*
X042547Y027436D01*
X042557Y027462D01*
X042570Y027487D01*
X042587Y027509D01*
X042607Y027529D01*
X042629Y027546D01*
X042654Y027559D01*
X042680Y027569D01*
X042708Y027575D01*
X042736Y027577D01*
X042764Y027575D01*
X042792Y027569D01*
X042818Y027559D01*
X042843Y027546D01*
X042865Y027529D01*
X042885Y027509D01*
X042902Y027487D01*
X042915Y027462D01*
X042925Y027436D01*
X042931Y027408D01*
X042933Y027380D01*
X042931Y027352D01*
X042925Y027324D01*
X042915Y027298D01*
X042902Y027273D01*
X042885Y027251D01*
X042865Y027231D01*
X042843Y027214D01*
X042818Y027201D01*
X042792Y027191D01*
X042764Y027185D01*
X042736Y027183D01*
X042708Y027185D01*
X042680Y027191D01*
X042654Y027201D01*
X042629Y027214D01*
X042607Y027231D01*
X042587Y027251D01*
X042570Y027273D01*
X042557Y027298D01*
X042547Y027324D01*
X042541Y027352D01*
X042539Y027380D01*
X039089Y027380D02*
X039091Y027408D01*
X039097Y027436D01*
X039107Y027462D01*
X039120Y027487D01*
X039137Y027509D01*
X039157Y027529D01*
X039179Y027546D01*
X039204Y027559D01*
X039230Y027569D01*
X039258Y027575D01*
X039286Y027577D01*
X039314Y027575D01*
X039342Y027569D01*
X039368Y027559D01*
X039393Y027546D01*
X039415Y027529D01*
X039435Y027509D01*
X039452Y027487D01*
X039465Y027462D01*
X039475Y027436D01*
X039481Y027408D01*
X039483Y027380D01*
X039481Y027352D01*
X039475Y027324D01*
X039465Y027298D01*
X039452Y027273D01*
X039435Y027251D01*
X039415Y027231D01*
X039393Y027214D01*
X039368Y027201D01*
X039342Y027191D01*
X039314Y027185D01*
X039286Y027183D01*
X039258Y027185D01*
X039230Y027191D01*
X039204Y027201D01*
X039179Y027214D01*
X039157Y027231D01*
X039137Y027251D01*
X039120Y027273D01*
X039107Y027298D01*
X039097Y027324D01*
X039091Y027352D01*
X039089Y027380D01*
X035639Y027380D02*
X035641Y027408D01*
X035647Y027436D01*
X035657Y027462D01*
X035670Y027487D01*
X035687Y027509D01*
X035707Y027529D01*
X035729Y027546D01*
X035754Y027559D01*
X035780Y027569D01*
X035808Y027575D01*
X035836Y027577D01*
X035864Y027575D01*
X035892Y027569D01*
X035918Y027559D01*
X035943Y027546D01*
X035965Y027529D01*
X035985Y027509D01*
X036002Y027487D01*
X036015Y027462D01*
X036025Y027436D01*
X036031Y027408D01*
X036033Y027380D01*
X036031Y027352D01*
X036025Y027324D01*
X036015Y027298D01*
X036002Y027273D01*
X035985Y027251D01*
X035965Y027231D01*
X035943Y027214D01*
X035918Y027201D01*
X035892Y027191D01*
X035864Y027185D01*
X035836Y027183D01*
X035808Y027185D01*
X035780Y027191D01*
X035754Y027201D01*
X035729Y027214D01*
X035707Y027231D01*
X035687Y027251D01*
X035670Y027273D01*
X035657Y027298D01*
X035647Y027324D01*
X035641Y027352D01*
X035639Y027380D01*
X032189Y027380D02*
X032191Y027408D01*
X032197Y027436D01*
X032207Y027462D01*
X032220Y027487D01*
X032237Y027509D01*
X032257Y027529D01*
X032279Y027546D01*
X032304Y027559D01*
X032330Y027569D01*
X032358Y027575D01*
X032386Y027577D01*
X032414Y027575D01*
X032442Y027569D01*
X032468Y027559D01*
X032493Y027546D01*
X032515Y027529D01*
X032535Y027509D01*
X032552Y027487D01*
X032565Y027462D01*
X032575Y027436D01*
X032581Y027408D01*
X032583Y027380D01*
X032581Y027352D01*
X032575Y027324D01*
X032565Y027298D01*
X032552Y027273D01*
X032535Y027251D01*
X032515Y027231D01*
X032493Y027214D01*
X032468Y027201D01*
X032442Y027191D01*
X032414Y027185D01*
X032386Y027183D01*
X032358Y027185D01*
X032330Y027191D01*
X032304Y027201D01*
X032279Y027214D01*
X032257Y027231D01*
X032237Y027251D01*
X032220Y027273D01*
X032207Y027298D01*
X032197Y027324D01*
X032191Y027352D01*
X032189Y027380D01*
X028739Y027380D02*
X028741Y027408D01*
X028747Y027436D01*
X028757Y027462D01*
X028770Y027487D01*
X028787Y027509D01*
X028807Y027529D01*
X028829Y027546D01*
X028854Y027559D01*
X028880Y027569D01*
X028908Y027575D01*
X028936Y027577D01*
X028964Y027575D01*
X028992Y027569D01*
X029018Y027559D01*
X029043Y027546D01*
X029065Y027529D01*
X029085Y027509D01*
X029102Y027487D01*
X029115Y027462D01*
X029125Y027436D01*
X029131Y027408D01*
X029133Y027380D01*
X029131Y027352D01*
X029125Y027324D01*
X029115Y027298D01*
X029102Y027273D01*
X029085Y027251D01*
X029065Y027231D01*
X029043Y027214D01*
X029018Y027201D01*
X028992Y027191D01*
X028964Y027185D01*
X028936Y027183D01*
X028908Y027185D01*
X028880Y027191D01*
X028854Y027201D01*
X028829Y027214D01*
X028807Y027231D01*
X028787Y027251D01*
X028770Y027273D01*
X028757Y027298D01*
X028747Y027324D01*
X028741Y027352D01*
X028739Y027380D01*
X025289Y027380D02*
X025291Y027408D01*
X025297Y027436D01*
X025307Y027462D01*
X025320Y027487D01*
X025337Y027509D01*
X025357Y027529D01*
X025379Y027546D01*
X025404Y027559D01*
X025430Y027569D01*
X025458Y027575D01*
X025486Y027577D01*
X025514Y027575D01*
X025542Y027569D01*
X025568Y027559D01*
X025593Y027546D01*
X025615Y027529D01*
X025635Y027509D01*
X025652Y027487D01*
X025665Y027462D01*
X025675Y027436D01*
X025681Y027408D01*
X025683Y027380D01*
X025681Y027352D01*
X025675Y027324D01*
X025665Y027298D01*
X025652Y027273D01*
X025635Y027251D01*
X025615Y027231D01*
X025593Y027214D01*
X025568Y027201D01*
X025542Y027191D01*
X025514Y027185D01*
X025486Y027183D01*
X025458Y027185D01*
X025430Y027191D01*
X025404Y027201D01*
X025379Y027214D01*
X025357Y027231D01*
X025337Y027251D01*
X025320Y027273D01*
X025307Y027298D01*
X025297Y027324D01*
X025291Y027352D01*
X025289Y027380D01*
X025289Y023020D02*
X025291Y023048D01*
X025297Y023076D01*
X025307Y023102D01*
X025320Y023127D01*
X025337Y023149D01*
X025357Y023169D01*
X025379Y023186D01*
X025404Y023199D01*
X025430Y023209D01*
X025458Y023215D01*
X025486Y023217D01*
X025514Y023215D01*
X025542Y023209D01*
X025568Y023199D01*
X025593Y023186D01*
X025615Y023169D01*
X025635Y023149D01*
X025652Y023127D01*
X025665Y023102D01*
X025675Y023076D01*
X025681Y023048D01*
X025683Y023020D01*
X025681Y022992D01*
X025675Y022964D01*
X025665Y022938D01*
X025652Y022913D01*
X025635Y022891D01*
X025615Y022871D01*
X025593Y022854D01*
X025568Y022841D01*
X025542Y022831D01*
X025514Y022825D01*
X025486Y022823D01*
X025458Y022825D01*
X025430Y022831D01*
X025404Y022841D01*
X025379Y022854D01*
X025357Y022871D01*
X025337Y022891D01*
X025320Y022913D01*
X025307Y022938D01*
X025297Y022964D01*
X025291Y022992D01*
X025289Y023020D01*
X028739Y023020D02*
X028741Y023048D01*
X028747Y023076D01*
X028757Y023102D01*
X028770Y023127D01*
X028787Y023149D01*
X028807Y023169D01*
X028829Y023186D01*
X028854Y023199D01*
X028880Y023209D01*
X028908Y023215D01*
X028936Y023217D01*
X028964Y023215D01*
X028992Y023209D01*
X029018Y023199D01*
X029043Y023186D01*
X029065Y023169D01*
X029085Y023149D01*
X029102Y023127D01*
X029115Y023102D01*
X029125Y023076D01*
X029131Y023048D01*
X029133Y023020D01*
X029131Y022992D01*
X029125Y022964D01*
X029115Y022938D01*
X029102Y022913D01*
X029085Y022891D01*
X029065Y022871D01*
X029043Y022854D01*
X029018Y022841D01*
X028992Y022831D01*
X028964Y022825D01*
X028936Y022823D01*
X028908Y022825D01*
X028880Y022831D01*
X028854Y022841D01*
X028829Y022854D01*
X028807Y022871D01*
X028787Y022891D01*
X028770Y022913D01*
X028757Y022938D01*
X028747Y022964D01*
X028741Y022992D01*
X028739Y023020D01*
X032189Y023020D02*
X032191Y023048D01*
X032197Y023076D01*
X032207Y023102D01*
X032220Y023127D01*
X032237Y023149D01*
X032257Y023169D01*
X032279Y023186D01*
X032304Y023199D01*
X032330Y023209D01*
X032358Y023215D01*
X032386Y023217D01*
X032414Y023215D01*
X032442Y023209D01*
X032468Y023199D01*
X032493Y023186D01*
X032515Y023169D01*
X032535Y023149D01*
X032552Y023127D01*
X032565Y023102D01*
X032575Y023076D01*
X032581Y023048D01*
X032583Y023020D01*
X032581Y022992D01*
X032575Y022964D01*
X032565Y022938D01*
X032552Y022913D01*
X032535Y022891D01*
X032515Y022871D01*
X032493Y022854D01*
X032468Y022841D01*
X032442Y022831D01*
X032414Y022825D01*
X032386Y022823D01*
X032358Y022825D01*
X032330Y022831D01*
X032304Y022841D01*
X032279Y022854D01*
X032257Y022871D01*
X032237Y022891D01*
X032220Y022913D01*
X032207Y022938D01*
X032197Y022964D01*
X032191Y022992D01*
X032189Y023020D01*
X035639Y023020D02*
X035641Y023048D01*
X035647Y023076D01*
X035657Y023102D01*
X035670Y023127D01*
X035687Y023149D01*
X035707Y023169D01*
X035729Y023186D01*
X035754Y023199D01*
X035780Y023209D01*
X035808Y023215D01*
X035836Y023217D01*
X035864Y023215D01*
X035892Y023209D01*
X035918Y023199D01*
X035943Y023186D01*
X035965Y023169D01*
X035985Y023149D01*
X036002Y023127D01*
X036015Y023102D01*
X036025Y023076D01*
X036031Y023048D01*
X036033Y023020D01*
X036031Y022992D01*
X036025Y022964D01*
X036015Y022938D01*
X036002Y022913D01*
X035985Y022891D01*
X035965Y022871D01*
X035943Y022854D01*
X035918Y022841D01*
X035892Y022831D01*
X035864Y022825D01*
X035836Y022823D01*
X035808Y022825D01*
X035780Y022831D01*
X035754Y022841D01*
X035729Y022854D01*
X035707Y022871D01*
X035687Y022891D01*
X035670Y022913D01*
X035657Y022938D01*
X035647Y022964D01*
X035641Y022992D01*
X035639Y023020D01*
X039089Y023020D02*
X039091Y023048D01*
X039097Y023076D01*
X039107Y023102D01*
X039120Y023127D01*
X039137Y023149D01*
X039157Y023169D01*
X039179Y023186D01*
X039204Y023199D01*
X039230Y023209D01*
X039258Y023215D01*
X039286Y023217D01*
X039314Y023215D01*
X039342Y023209D01*
X039368Y023199D01*
X039393Y023186D01*
X039415Y023169D01*
X039435Y023149D01*
X039452Y023127D01*
X039465Y023102D01*
X039475Y023076D01*
X039481Y023048D01*
X039483Y023020D01*
X039481Y022992D01*
X039475Y022964D01*
X039465Y022938D01*
X039452Y022913D01*
X039435Y022891D01*
X039415Y022871D01*
X039393Y022854D01*
X039368Y022841D01*
X039342Y022831D01*
X039314Y022825D01*
X039286Y022823D01*
X039258Y022825D01*
X039230Y022831D01*
X039204Y022841D01*
X039179Y022854D01*
X039157Y022871D01*
X039137Y022891D01*
X039120Y022913D01*
X039107Y022938D01*
X039097Y022964D01*
X039091Y022992D01*
X039089Y023020D01*
X042539Y023020D02*
X042541Y023048D01*
X042547Y023076D01*
X042557Y023102D01*
X042570Y023127D01*
X042587Y023149D01*
X042607Y023169D01*
X042629Y023186D01*
X042654Y023199D01*
X042680Y023209D01*
X042708Y023215D01*
X042736Y023217D01*
X042764Y023215D01*
X042792Y023209D01*
X042818Y023199D01*
X042843Y023186D01*
X042865Y023169D01*
X042885Y023149D01*
X042902Y023127D01*
X042915Y023102D01*
X042925Y023076D01*
X042931Y023048D01*
X042933Y023020D01*
X042931Y022992D01*
X042925Y022964D01*
X042915Y022938D01*
X042902Y022913D01*
X042885Y022891D01*
X042865Y022871D01*
X042843Y022854D01*
X042818Y022841D01*
X042792Y022831D01*
X042764Y022825D01*
X042736Y022823D01*
X042708Y022825D01*
X042680Y022831D01*
X042654Y022841D01*
X042629Y022854D01*
X042607Y022871D01*
X042587Y022891D01*
X042570Y022913D01*
X042557Y022938D01*
X042547Y022964D01*
X042541Y022992D01*
X042539Y023020D01*
X045989Y023020D02*
X045991Y023048D01*
X045997Y023076D01*
X046007Y023102D01*
X046020Y023127D01*
X046037Y023149D01*
X046057Y023169D01*
X046079Y023186D01*
X046104Y023199D01*
X046130Y023209D01*
X046158Y023215D01*
X046186Y023217D01*
X046214Y023215D01*
X046242Y023209D01*
X046268Y023199D01*
X046293Y023186D01*
X046315Y023169D01*
X046335Y023149D01*
X046352Y023127D01*
X046365Y023102D01*
X046375Y023076D01*
X046381Y023048D01*
X046383Y023020D01*
X046381Y022992D01*
X046375Y022964D01*
X046365Y022938D01*
X046352Y022913D01*
X046335Y022891D01*
X046315Y022871D01*
X046293Y022854D01*
X046268Y022841D01*
X046242Y022831D01*
X046214Y022825D01*
X046186Y022823D01*
X046158Y022825D01*
X046130Y022831D01*
X046104Y022841D01*
X046079Y022854D01*
X046057Y022871D01*
X046037Y022891D01*
X046020Y022913D01*
X046007Y022938D01*
X045997Y022964D01*
X045991Y022992D01*
X045989Y023020D01*
X049439Y023020D02*
X049441Y023048D01*
X049447Y023076D01*
X049457Y023102D01*
X049470Y023127D01*
X049487Y023149D01*
X049507Y023169D01*
X049529Y023186D01*
X049554Y023199D01*
X049580Y023209D01*
X049608Y023215D01*
X049636Y023217D01*
X049664Y023215D01*
X049692Y023209D01*
X049718Y023199D01*
X049743Y023186D01*
X049765Y023169D01*
X049785Y023149D01*
X049802Y023127D01*
X049815Y023102D01*
X049825Y023076D01*
X049831Y023048D01*
X049833Y023020D01*
X049831Y022992D01*
X049825Y022964D01*
X049815Y022938D01*
X049802Y022913D01*
X049785Y022891D01*
X049765Y022871D01*
X049743Y022854D01*
X049718Y022841D01*
X049692Y022831D01*
X049664Y022825D01*
X049636Y022823D01*
X049608Y022825D01*
X049580Y022831D01*
X049554Y022841D01*
X049529Y022854D01*
X049507Y022871D01*
X049487Y022891D01*
X049470Y022913D01*
X049457Y022938D01*
X049447Y022964D01*
X049441Y022992D01*
X049439Y023020D01*
X052889Y023020D02*
X052891Y023048D01*
X052897Y023076D01*
X052907Y023102D01*
X052920Y023127D01*
X052937Y023149D01*
X052957Y023169D01*
X052979Y023186D01*
X053004Y023199D01*
X053030Y023209D01*
X053058Y023215D01*
X053086Y023217D01*
X053114Y023215D01*
X053142Y023209D01*
X053168Y023199D01*
X053193Y023186D01*
X053215Y023169D01*
X053235Y023149D01*
X053252Y023127D01*
X053265Y023102D01*
X053275Y023076D01*
X053281Y023048D01*
X053283Y023020D01*
X053281Y022992D01*
X053275Y022964D01*
X053265Y022938D01*
X053252Y022913D01*
X053235Y022891D01*
X053215Y022871D01*
X053193Y022854D01*
X053168Y022841D01*
X053142Y022831D01*
X053114Y022825D01*
X053086Y022823D01*
X053058Y022825D01*
X053030Y022831D01*
X053004Y022841D01*
X052979Y022854D01*
X052957Y022871D01*
X052937Y022891D01*
X052920Y022913D01*
X052907Y022938D01*
X052897Y022964D01*
X052891Y022992D01*
X052889Y023020D01*
X056339Y023020D02*
X056341Y023048D01*
X056347Y023076D01*
X056357Y023102D01*
X056370Y023127D01*
X056387Y023149D01*
X056407Y023169D01*
X056429Y023186D01*
X056454Y023199D01*
X056480Y023209D01*
X056508Y023215D01*
X056536Y023217D01*
X056564Y023215D01*
X056592Y023209D01*
X056618Y023199D01*
X056643Y023186D01*
X056665Y023169D01*
X056685Y023149D01*
X056702Y023127D01*
X056715Y023102D01*
X056725Y023076D01*
X056731Y023048D01*
X056733Y023020D01*
X056731Y022992D01*
X056725Y022964D01*
X056715Y022938D01*
X056702Y022913D01*
X056685Y022891D01*
X056665Y022871D01*
X056643Y022854D01*
X056618Y022841D01*
X056592Y022831D01*
X056564Y022825D01*
X056536Y022823D01*
X056508Y022825D01*
X056480Y022831D01*
X056454Y022841D01*
X056429Y022854D01*
X056407Y022871D01*
X056387Y022891D01*
X056370Y022913D01*
X056357Y022938D01*
X056347Y022964D01*
X056341Y022992D01*
X056339Y023020D01*
X059789Y023020D02*
X059791Y023048D01*
X059797Y023076D01*
X059807Y023102D01*
X059820Y023127D01*
X059837Y023149D01*
X059857Y023169D01*
X059879Y023186D01*
X059904Y023199D01*
X059930Y023209D01*
X059958Y023215D01*
X059986Y023217D01*
X060014Y023215D01*
X060042Y023209D01*
X060068Y023199D01*
X060093Y023186D01*
X060115Y023169D01*
X060135Y023149D01*
X060152Y023127D01*
X060165Y023102D01*
X060175Y023076D01*
X060181Y023048D01*
X060183Y023020D01*
X060181Y022992D01*
X060175Y022964D01*
X060165Y022938D01*
X060152Y022913D01*
X060135Y022891D01*
X060115Y022871D01*
X060093Y022854D01*
X060068Y022841D01*
X060042Y022831D01*
X060014Y022825D01*
X059986Y022823D01*
X059958Y022825D01*
X059930Y022831D01*
X059904Y022841D01*
X059879Y022854D01*
X059857Y022871D01*
X059837Y022891D01*
X059820Y022913D01*
X059807Y022938D01*
X059797Y022964D01*
X059791Y022992D01*
X059789Y023020D01*
X063239Y023020D02*
X063241Y023048D01*
X063247Y023076D01*
X063257Y023102D01*
X063270Y023127D01*
X063287Y023149D01*
X063307Y023169D01*
X063329Y023186D01*
X063354Y023199D01*
X063380Y023209D01*
X063408Y023215D01*
X063436Y023217D01*
X063464Y023215D01*
X063492Y023209D01*
X063518Y023199D01*
X063543Y023186D01*
X063565Y023169D01*
X063585Y023149D01*
X063602Y023127D01*
X063615Y023102D01*
X063625Y023076D01*
X063631Y023048D01*
X063633Y023020D01*
X063631Y022992D01*
X063625Y022964D01*
X063615Y022938D01*
X063602Y022913D01*
X063585Y022891D01*
X063565Y022871D01*
X063543Y022854D01*
X063518Y022841D01*
X063492Y022831D01*
X063464Y022825D01*
X063436Y022823D01*
X063408Y022825D01*
X063380Y022831D01*
X063354Y022841D01*
X063329Y022854D01*
X063307Y022871D01*
X063287Y022891D01*
X063270Y022913D01*
X063257Y022938D01*
X063247Y022964D01*
X063241Y022992D01*
X063239Y023020D01*
X066689Y023020D02*
X066691Y023048D01*
X066697Y023076D01*
X066707Y023102D01*
X066720Y023127D01*
X066737Y023149D01*
X066757Y023169D01*
X066779Y023186D01*
X066804Y023199D01*
X066830Y023209D01*
X066858Y023215D01*
X066886Y023217D01*
X066914Y023215D01*
X066942Y023209D01*
X066968Y023199D01*
X066993Y023186D01*
X067015Y023169D01*
X067035Y023149D01*
X067052Y023127D01*
X067065Y023102D01*
X067075Y023076D01*
X067081Y023048D01*
X067083Y023020D01*
X067081Y022992D01*
X067075Y022964D01*
X067065Y022938D01*
X067052Y022913D01*
X067035Y022891D01*
X067015Y022871D01*
X066993Y022854D01*
X066968Y022841D01*
X066942Y022831D01*
X066914Y022825D01*
X066886Y022823D01*
X066858Y022825D01*
X066830Y022831D01*
X066804Y022841D01*
X066779Y022854D01*
X066757Y022871D01*
X066737Y022891D01*
X066720Y022913D01*
X066707Y022938D01*
X066697Y022964D01*
X066691Y022992D01*
X066689Y023020D01*
X070139Y023020D02*
X070141Y023048D01*
X070147Y023076D01*
X070157Y023102D01*
X070170Y023127D01*
X070187Y023149D01*
X070207Y023169D01*
X070229Y023186D01*
X070254Y023199D01*
X070280Y023209D01*
X070308Y023215D01*
X070336Y023217D01*
X070364Y023215D01*
X070392Y023209D01*
X070418Y023199D01*
X070443Y023186D01*
X070465Y023169D01*
X070485Y023149D01*
X070502Y023127D01*
X070515Y023102D01*
X070525Y023076D01*
X070531Y023048D01*
X070533Y023020D01*
X070531Y022992D01*
X070525Y022964D01*
X070515Y022938D01*
X070502Y022913D01*
X070485Y022891D01*
X070465Y022871D01*
X070443Y022854D01*
X070418Y022841D01*
X070392Y022831D01*
X070364Y022825D01*
X070336Y022823D01*
X070308Y022825D01*
X070280Y022831D01*
X070254Y022841D01*
X070229Y022854D01*
X070207Y022871D01*
X070187Y022891D01*
X070170Y022913D01*
X070157Y022938D01*
X070147Y022964D01*
X070141Y022992D01*
X070139Y023020D01*
X073589Y023020D02*
X073591Y023048D01*
X073597Y023076D01*
X073607Y023102D01*
X073620Y023127D01*
X073637Y023149D01*
X073657Y023169D01*
X073679Y023186D01*
X073704Y023199D01*
X073730Y023209D01*
X073758Y023215D01*
X073786Y023217D01*
X073814Y023215D01*
X073842Y023209D01*
X073868Y023199D01*
X073893Y023186D01*
X073915Y023169D01*
X073935Y023149D01*
X073952Y023127D01*
X073965Y023102D01*
X073975Y023076D01*
X073981Y023048D01*
X073983Y023020D01*
X073981Y022992D01*
X073975Y022964D01*
X073965Y022938D01*
X073952Y022913D01*
X073935Y022891D01*
X073915Y022871D01*
X073893Y022854D01*
X073868Y022841D01*
X073842Y022831D01*
X073814Y022825D01*
X073786Y022823D01*
X073758Y022825D01*
X073730Y022831D01*
X073704Y022841D01*
X073679Y022854D01*
X073657Y022871D01*
X073637Y022891D01*
X073620Y022913D01*
X073607Y022938D01*
X073597Y022964D01*
X073591Y022992D01*
X073589Y023020D01*
X077039Y023020D02*
X077041Y023048D01*
X077047Y023076D01*
X077057Y023102D01*
X077070Y023127D01*
X077087Y023149D01*
X077107Y023169D01*
X077129Y023186D01*
X077154Y023199D01*
X077180Y023209D01*
X077208Y023215D01*
X077236Y023217D01*
X077264Y023215D01*
X077292Y023209D01*
X077318Y023199D01*
X077343Y023186D01*
X077365Y023169D01*
X077385Y023149D01*
X077402Y023127D01*
X077415Y023102D01*
X077425Y023076D01*
X077431Y023048D01*
X077433Y023020D01*
X077431Y022992D01*
X077425Y022964D01*
X077415Y022938D01*
X077402Y022913D01*
X077385Y022891D01*
X077365Y022871D01*
X077343Y022854D01*
X077318Y022841D01*
X077292Y022831D01*
X077264Y022825D01*
X077236Y022823D01*
X077208Y022825D01*
X077180Y022831D01*
X077154Y022841D01*
X077129Y022854D01*
X077107Y022871D01*
X077087Y022891D01*
X077070Y022913D01*
X077057Y022938D01*
X077047Y022964D01*
X077041Y022992D01*
X077039Y023020D01*
X080489Y023020D02*
X080491Y023048D01*
X080497Y023076D01*
X080507Y023102D01*
X080520Y023127D01*
X080537Y023149D01*
X080557Y023169D01*
X080579Y023186D01*
X080604Y023199D01*
X080630Y023209D01*
X080658Y023215D01*
X080686Y023217D01*
X080714Y023215D01*
X080742Y023209D01*
X080768Y023199D01*
X080793Y023186D01*
X080815Y023169D01*
X080835Y023149D01*
X080852Y023127D01*
X080865Y023102D01*
X080875Y023076D01*
X080881Y023048D01*
X080883Y023020D01*
X080881Y022992D01*
X080875Y022964D01*
X080865Y022938D01*
X080852Y022913D01*
X080835Y022891D01*
X080815Y022871D01*
X080793Y022854D01*
X080768Y022841D01*
X080742Y022831D01*
X080714Y022825D01*
X080686Y022823D01*
X080658Y022825D01*
X080630Y022831D01*
X080604Y022841D01*
X080579Y022854D01*
X080557Y022871D01*
X080537Y022891D01*
X080520Y022913D01*
X080507Y022938D01*
X080497Y022964D01*
X080491Y022992D01*
X080489Y023020D01*
X083939Y023020D02*
X083941Y023048D01*
X083947Y023076D01*
X083957Y023102D01*
X083970Y023127D01*
X083987Y023149D01*
X084007Y023169D01*
X084029Y023186D01*
X084054Y023199D01*
X084080Y023209D01*
X084108Y023215D01*
X084136Y023217D01*
X084164Y023215D01*
X084192Y023209D01*
X084218Y023199D01*
X084243Y023186D01*
X084265Y023169D01*
X084285Y023149D01*
X084302Y023127D01*
X084315Y023102D01*
X084325Y023076D01*
X084331Y023048D01*
X084333Y023020D01*
X084331Y022992D01*
X084325Y022964D01*
X084315Y022938D01*
X084302Y022913D01*
X084285Y022891D01*
X084265Y022871D01*
X084243Y022854D01*
X084218Y022841D01*
X084192Y022831D01*
X084164Y022825D01*
X084136Y022823D01*
X084108Y022825D01*
X084080Y022831D01*
X084054Y022841D01*
X084029Y022854D01*
X084007Y022871D01*
X083987Y022891D01*
X083970Y022913D01*
X083957Y022938D01*
X083947Y022964D01*
X083941Y022992D01*
X083939Y023020D01*
X083939Y019350D02*
X083941Y019378D01*
X083947Y019406D01*
X083957Y019432D01*
X083970Y019457D01*
X083987Y019479D01*
X084007Y019499D01*
X084029Y019516D01*
X084054Y019529D01*
X084080Y019539D01*
X084108Y019545D01*
X084136Y019547D01*
X084164Y019545D01*
X084192Y019539D01*
X084218Y019529D01*
X084243Y019516D01*
X084265Y019499D01*
X084285Y019479D01*
X084302Y019457D01*
X084315Y019432D01*
X084325Y019406D01*
X084331Y019378D01*
X084333Y019350D01*
X084331Y019322D01*
X084325Y019294D01*
X084315Y019268D01*
X084302Y019243D01*
X084285Y019221D01*
X084265Y019201D01*
X084243Y019184D01*
X084218Y019171D01*
X084192Y019161D01*
X084164Y019155D01*
X084136Y019153D01*
X084108Y019155D01*
X084080Y019161D01*
X084054Y019171D01*
X084029Y019184D01*
X084007Y019201D01*
X083987Y019221D01*
X083970Y019243D01*
X083957Y019268D01*
X083947Y019294D01*
X083941Y019322D01*
X083939Y019350D01*
X080489Y019350D02*
X080491Y019378D01*
X080497Y019406D01*
X080507Y019432D01*
X080520Y019457D01*
X080537Y019479D01*
X080557Y019499D01*
X080579Y019516D01*
X080604Y019529D01*
X080630Y019539D01*
X080658Y019545D01*
X080686Y019547D01*
X080714Y019545D01*
X080742Y019539D01*
X080768Y019529D01*
X080793Y019516D01*
X080815Y019499D01*
X080835Y019479D01*
X080852Y019457D01*
X080865Y019432D01*
X080875Y019406D01*
X080881Y019378D01*
X080883Y019350D01*
X080881Y019322D01*
X080875Y019294D01*
X080865Y019268D01*
X080852Y019243D01*
X080835Y019221D01*
X080815Y019201D01*
X080793Y019184D01*
X080768Y019171D01*
X080742Y019161D01*
X080714Y019155D01*
X080686Y019153D01*
X080658Y019155D01*
X080630Y019161D01*
X080604Y019171D01*
X080579Y019184D01*
X080557Y019201D01*
X080537Y019221D01*
X080520Y019243D01*
X080507Y019268D01*
X080497Y019294D01*
X080491Y019322D01*
X080489Y019350D01*
X077039Y019350D02*
X077041Y019378D01*
X077047Y019406D01*
X077057Y019432D01*
X077070Y019457D01*
X077087Y019479D01*
X077107Y019499D01*
X077129Y019516D01*
X077154Y019529D01*
X077180Y019539D01*
X077208Y019545D01*
X077236Y019547D01*
X077264Y019545D01*
X077292Y019539D01*
X077318Y019529D01*
X077343Y019516D01*
X077365Y019499D01*
X077385Y019479D01*
X077402Y019457D01*
X077415Y019432D01*
X077425Y019406D01*
X077431Y019378D01*
X077433Y019350D01*
X077431Y019322D01*
X077425Y019294D01*
X077415Y019268D01*
X077402Y019243D01*
X077385Y019221D01*
X077365Y019201D01*
X077343Y019184D01*
X077318Y019171D01*
X077292Y019161D01*
X077264Y019155D01*
X077236Y019153D01*
X077208Y019155D01*
X077180Y019161D01*
X077154Y019171D01*
X077129Y019184D01*
X077107Y019201D01*
X077087Y019221D01*
X077070Y019243D01*
X077057Y019268D01*
X077047Y019294D01*
X077041Y019322D01*
X077039Y019350D01*
X073589Y019350D02*
X073591Y019378D01*
X073597Y019406D01*
X073607Y019432D01*
X073620Y019457D01*
X073637Y019479D01*
X073657Y019499D01*
X073679Y019516D01*
X073704Y019529D01*
X073730Y019539D01*
X073758Y019545D01*
X073786Y019547D01*
X073814Y019545D01*
X073842Y019539D01*
X073868Y019529D01*
X073893Y019516D01*
X073915Y019499D01*
X073935Y019479D01*
X073952Y019457D01*
X073965Y019432D01*
X073975Y019406D01*
X073981Y019378D01*
X073983Y019350D01*
X073981Y019322D01*
X073975Y019294D01*
X073965Y019268D01*
X073952Y019243D01*
X073935Y019221D01*
X073915Y019201D01*
X073893Y019184D01*
X073868Y019171D01*
X073842Y019161D01*
X073814Y019155D01*
X073786Y019153D01*
X073758Y019155D01*
X073730Y019161D01*
X073704Y019171D01*
X073679Y019184D01*
X073657Y019201D01*
X073637Y019221D01*
X073620Y019243D01*
X073607Y019268D01*
X073597Y019294D01*
X073591Y019322D01*
X073589Y019350D01*
X070139Y019350D02*
X070141Y019378D01*
X070147Y019406D01*
X070157Y019432D01*
X070170Y019457D01*
X070187Y019479D01*
X070207Y019499D01*
X070229Y019516D01*
X070254Y019529D01*
X070280Y019539D01*
X070308Y019545D01*
X070336Y019547D01*
X070364Y019545D01*
X070392Y019539D01*
X070418Y019529D01*
X070443Y019516D01*
X070465Y019499D01*
X070485Y019479D01*
X070502Y019457D01*
X070515Y019432D01*
X070525Y019406D01*
X070531Y019378D01*
X070533Y019350D01*
X070531Y019322D01*
X070525Y019294D01*
X070515Y019268D01*
X070502Y019243D01*
X070485Y019221D01*
X070465Y019201D01*
X070443Y019184D01*
X070418Y019171D01*
X070392Y019161D01*
X070364Y019155D01*
X070336Y019153D01*
X070308Y019155D01*
X070280Y019161D01*
X070254Y019171D01*
X070229Y019184D01*
X070207Y019201D01*
X070187Y019221D01*
X070170Y019243D01*
X070157Y019268D01*
X070147Y019294D01*
X070141Y019322D01*
X070139Y019350D01*
X066689Y019350D02*
X066691Y019378D01*
X066697Y019406D01*
X066707Y019432D01*
X066720Y019457D01*
X066737Y019479D01*
X066757Y019499D01*
X066779Y019516D01*
X066804Y019529D01*
X066830Y019539D01*
X066858Y019545D01*
X066886Y019547D01*
X066914Y019545D01*
X066942Y019539D01*
X066968Y019529D01*
X066993Y019516D01*
X067015Y019499D01*
X067035Y019479D01*
X067052Y019457D01*
X067065Y019432D01*
X067075Y019406D01*
X067081Y019378D01*
X067083Y019350D01*
X067081Y019322D01*
X067075Y019294D01*
X067065Y019268D01*
X067052Y019243D01*
X067035Y019221D01*
X067015Y019201D01*
X066993Y019184D01*
X066968Y019171D01*
X066942Y019161D01*
X066914Y019155D01*
X066886Y019153D01*
X066858Y019155D01*
X066830Y019161D01*
X066804Y019171D01*
X066779Y019184D01*
X066757Y019201D01*
X066737Y019221D01*
X066720Y019243D01*
X066707Y019268D01*
X066697Y019294D01*
X066691Y019322D01*
X066689Y019350D01*
X063239Y019350D02*
X063241Y019378D01*
X063247Y019406D01*
X063257Y019432D01*
X063270Y019457D01*
X063287Y019479D01*
X063307Y019499D01*
X063329Y019516D01*
X063354Y019529D01*
X063380Y019539D01*
X063408Y019545D01*
X063436Y019547D01*
X063464Y019545D01*
X063492Y019539D01*
X063518Y019529D01*
X063543Y019516D01*
X063565Y019499D01*
X063585Y019479D01*
X063602Y019457D01*
X063615Y019432D01*
X063625Y019406D01*
X063631Y019378D01*
X063633Y019350D01*
X063631Y019322D01*
X063625Y019294D01*
X063615Y019268D01*
X063602Y019243D01*
X063585Y019221D01*
X063565Y019201D01*
X063543Y019184D01*
X063518Y019171D01*
X063492Y019161D01*
X063464Y019155D01*
X063436Y019153D01*
X063408Y019155D01*
X063380Y019161D01*
X063354Y019171D01*
X063329Y019184D01*
X063307Y019201D01*
X063287Y019221D01*
X063270Y019243D01*
X063257Y019268D01*
X063247Y019294D01*
X063241Y019322D01*
X063239Y019350D01*
X059789Y019350D02*
X059791Y019378D01*
X059797Y019406D01*
X059807Y019432D01*
X059820Y019457D01*
X059837Y019479D01*
X059857Y019499D01*
X059879Y019516D01*
X059904Y019529D01*
X059930Y019539D01*
X059958Y019545D01*
X059986Y019547D01*
X060014Y019545D01*
X060042Y019539D01*
X060068Y019529D01*
X060093Y019516D01*
X060115Y019499D01*
X060135Y019479D01*
X060152Y019457D01*
X060165Y019432D01*
X060175Y019406D01*
X060181Y019378D01*
X060183Y019350D01*
X060181Y019322D01*
X060175Y019294D01*
X060165Y019268D01*
X060152Y019243D01*
X060135Y019221D01*
X060115Y019201D01*
X060093Y019184D01*
X060068Y019171D01*
X060042Y019161D01*
X060014Y019155D01*
X059986Y019153D01*
X059958Y019155D01*
X059930Y019161D01*
X059904Y019171D01*
X059879Y019184D01*
X059857Y019201D01*
X059837Y019221D01*
X059820Y019243D01*
X059807Y019268D01*
X059797Y019294D01*
X059791Y019322D01*
X059789Y019350D01*
X056339Y019350D02*
X056341Y019378D01*
X056347Y019406D01*
X056357Y019432D01*
X056370Y019457D01*
X056387Y019479D01*
X056407Y019499D01*
X056429Y019516D01*
X056454Y019529D01*
X056480Y019539D01*
X056508Y019545D01*
X056536Y019547D01*
X056564Y019545D01*
X056592Y019539D01*
X056618Y019529D01*
X056643Y019516D01*
X056665Y019499D01*
X056685Y019479D01*
X056702Y019457D01*
X056715Y019432D01*
X056725Y019406D01*
X056731Y019378D01*
X056733Y019350D01*
X056731Y019322D01*
X056725Y019294D01*
X056715Y019268D01*
X056702Y019243D01*
X056685Y019221D01*
X056665Y019201D01*
X056643Y019184D01*
X056618Y019171D01*
X056592Y019161D01*
X056564Y019155D01*
X056536Y019153D01*
X056508Y019155D01*
X056480Y019161D01*
X056454Y019171D01*
X056429Y019184D01*
X056407Y019201D01*
X056387Y019221D01*
X056370Y019243D01*
X056357Y019268D01*
X056347Y019294D01*
X056341Y019322D01*
X056339Y019350D01*
X052889Y019350D02*
X052891Y019378D01*
X052897Y019406D01*
X052907Y019432D01*
X052920Y019457D01*
X052937Y019479D01*
X052957Y019499D01*
X052979Y019516D01*
X053004Y019529D01*
X053030Y019539D01*
X053058Y019545D01*
X053086Y019547D01*
X053114Y019545D01*
X053142Y019539D01*
X053168Y019529D01*
X053193Y019516D01*
X053215Y019499D01*
X053235Y019479D01*
X053252Y019457D01*
X053265Y019432D01*
X053275Y019406D01*
X053281Y019378D01*
X053283Y019350D01*
X053281Y019322D01*
X053275Y019294D01*
X053265Y019268D01*
X053252Y019243D01*
X053235Y019221D01*
X053215Y019201D01*
X053193Y019184D01*
X053168Y019171D01*
X053142Y019161D01*
X053114Y019155D01*
X053086Y019153D01*
X053058Y019155D01*
X053030Y019161D01*
X053004Y019171D01*
X052979Y019184D01*
X052957Y019201D01*
X052937Y019221D01*
X052920Y019243D01*
X052907Y019268D01*
X052897Y019294D01*
X052891Y019322D01*
X052889Y019350D01*
X049439Y019350D02*
X049441Y019378D01*
X049447Y019406D01*
X049457Y019432D01*
X049470Y019457D01*
X049487Y019479D01*
X049507Y019499D01*
X049529Y019516D01*
X049554Y019529D01*
X049580Y019539D01*
X049608Y019545D01*
X049636Y019547D01*
X049664Y019545D01*
X049692Y019539D01*
X049718Y019529D01*
X049743Y019516D01*
X049765Y019499D01*
X049785Y019479D01*
X049802Y019457D01*
X049815Y019432D01*
X049825Y019406D01*
X049831Y019378D01*
X049833Y019350D01*
X049831Y019322D01*
X049825Y019294D01*
X049815Y019268D01*
X049802Y019243D01*
X049785Y019221D01*
X049765Y019201D01*
X049743Y019184D01*
X049718Y019171D01*
X049692Y019161D01*
X049664Y019155D01*
X049636Y019153D01*
X049608Y019155D01*
X049580Y019161D01*
X049554Y019171D01*
X049529Y019184D01*
X049507Y019201D01*
X049487Y019221D01*
X049470Y019243D01*
X049457Y019268D01*
X049447Y019294D01*
X049441Y019322D01*
X049439Y019350D01*
X045989Y019350D02*
X045991Y019378D01*
X045997Y019406D01*
X046007Y019432D01*
X046020Y019457D01*
X046037Y019479D01*
X046057Y019499D01*
X046079Y019516D01*
X046104Y019529D01*
X046130Y019539D01*
X046158Y019545D01*
X046186Y019547D01*
X046214Y019545D01*
X046242Y019539D01*
X046268Y019529D01*
X046293Y019516D01*
X046315Y019499D01*
X046335Y019479D01*
X046352Y019457D01*
X046365Y019432D01*
X046375Y019406D01*
X046381Y019378D01*
X046383Y019350D01*
X046381Y019322D01*
X046375Y019294D01*
X046365Y019268D01*
X046352Y019243D01*
X046335Y019221D01*
X046315Y019201D01*
X046293Y019184D01*
X046268Y019171D01*
X046242Y019161D01*
X046214Y019155D01*
X046186Y019153D01*
X046158Y019155D01*
X046130Y019161D01*
X046104Y019171D01*
X046079Y019184D01*
X046057Y019201D01*
X046037Y019221D01*
X046020Y019243D01*
X046007Y019268D01*
X045997Y019294D01*
X045991Y019322D01*
X045989Y019350D01*
X042539Y019350D02*
X042541Y019378D01*
X042547Y019406D01*
X042557Y019432D01*
X042570Y019457D01*
X042587Y019479D01*
X042607Y019499D01*
X042629Y019516D01*
X042654Y019529D01*
X042680Y019539D01*
X042708Y019545D01*
X042736Y019547D01*
X042764Y019545D01*
X042792Y019539D01*
X042818Y019529D01*
X042843Y019516D01*
X042865Y019499D01*
X042885Y019479D01*
X042902Y019457D01*
X042915Y019432D01*
X042925Y019406D01*
X042931Y019378D01*
X042933Y019350D01*
X042931Y019322D01*
X042925Y019294D01*
X042915Y019268D01*
X042902Y019243D01*
X042885Y019221D01*
X042865Y019201D01*
X042843Y019184D01*
X042818Y019171D01*
X042792Y019161D01*
X042764Y019155D01*
X042736Y019153D01*
X042708Y019155D01*
X042680Y019161D01*
X042654Y019171D01*
X042629Y019184D01*
X042607Y019201D01*
X042587Y019221D01*
X042570Y019243D01*
X042557Y019268D01*
X042547Y019294D01*
X042541Y019322D01*
X042539Y019350D01*
X039089Y019350D02*
X039091Y019378D01*
X039097Y019406D01*
X039107Y019432D01*
X039120Y019457D01*
X039137Y019479D01*
X039157Y019499D01*
X039179Y019516D01*
X039204Y019529D01*
X039230Y019539D01*
X039258Y019545D01*
X039286Y019547D01*
X039314Y019545D01*
X039342Y019539D01*
X039368Y019529D01*
X039393Y019516D01*
X039415Y019499D01*
X039435Y019479D01*
X039452Y019457D01*
X039465Y019432D01*
X039475Y019406D01*
X039481Y019378D01*
X039483Y019350D01*
X039481Y019322D01*
X039475Y019294D01*
X039465Y019268D01*
X039452Y019243D01*
X039435Y019221D01*
X039415Y019201D01*
X039393Y019184D01*
X039368Y019171D01*
X039342Y019161D01*
X039314Y019155D01*
X039286Y019153D01*
X039258Y019155D01*
X039230Y019161D01*
X039204Y019171D01*
X039179Y019184D01*
X039157Y019201D01*
X039137Y019221D01*
X039120Y019243D01*
X039107Y019268D01*
X039097Y019294D01*
X039091Y019322D01*
X039089Y019350D01*
X035639Y019350D02*
X035641Y019378D01*
X035647Y019406D01*
X035657Y019432D01*
X035670Y019457D01*
X035687Y019479D01*
X035707Y019499D01*
X035729Y019516D01*
X035754Y019529D01*
X035780Y019539D01*
X035808Y019545D01*
X035836Y019547D01*
X035864Y019545D01*
X035892Y019539D01*
X035918Y019529D01*
X035943Y019516D01*
X035965Y019499D01*
X035985Y019479D01*
X036002Y019457D01*
X036015Y019432D01*
X036025Y019406D01*
X036031Y019378D01*
X036033Y019350D01*
X036031Y019322D01*
X036025Y019294D01*
X036015Y019268D01*
X036002Y019243D01*
X035985Y019221D01*
X035965Y019201D01*
X035943Y019184D01*
X035918Y019171D01*
X035892Y019161D01*
X035864Y019155D01*
X035836Y019153D01*
X035808Y019155D01*
X035780Y019161D01*
X035754Y019171D01*
X035729Y019184D01*
X035707Y019201D01*
X035687Y019221D01*
X035670Y019243D01*
X035657Y019268D01*
X035647Y019294D01*
X035641Y019322D01*
X035639Y019350D01*
X032189Y019350D02*
X032191Y019378D01*
X032197Y019406D01*
X032207Y019432D01*
X032220Y019457D01*
X032237Y019479D01*
X032257Y019499D01*
X032279Y019516D01*
X032304Y019529D01*
X032330Y019539D01*
X032358Y019545D01*
X032386Y019547D01*
X032414Y019545D01*
X032442Y019539D01*
X032468Y019529D01*
X032493Y019516D01*
X032515Y019499D01*
X032535Y019479D01*
X032552Y019457D01*
X032565Y019432D01*
X032575Y019406D01*
X032581Y019378D01*
X032583Y019350D01*
X032581Y019322D01*
X032575Y019294D01*
X032565Y019268D01*
X032552Y019243D01*
X032535Y019221D01*
X032515Y019201D01*
X032493Y019184D01*
X032468Y019171D01*
X032442Y019161D01*
X032414Y019155D01*
X032386Y019153D01*
X032358Y019155D01*
X032330Y019161D01*
X032304Y019171D01*
X032279Y019184D01*
X032257Y019201D01*
X032237Y019221D01*
X032220Y019243D01*
X032207Y019268D01*
X032197Y019294D01*
X032191Y019322D01*
X032189Y019350D01*
X028739Y019350D02*
X028741Y019378D01*
X028747Y019406D01*
X028757Y019432D01*
X028770Y019457D01*
X028787Y019479D01*
X028807Y019499D01*
X028829Y019516D01*
X028854Y019529D01*
X028880Y019539D01*
X028908Y019545D01*
X028936Y019547D01*
X028964Y019545D01*
X028992Y019539D01*
X029018Y019529D01*
X029043Y019516D01*
X029065Y019499D01*
X029085Y019479D01*
X029102Y019457D01*
X029115Y019432D01*
X029125Y019406D01*
X029131Y019378D01*
X029133Y019350D01*
X029131Y019322D01*
X029125Y019294D01*
X029115Y019268D01*
X029102Y019243D01*
X029085Y019221D01*
X029065Y019201D01*
X029043Y019184D01*
X029018Y019171D01*
X028992Y019161D01*
X028964Y019155D01*
X028936Y019153D01*
X028908Y019155D01*
X028880Y019161D01*
X028854Y019171D01*
X028829Y019184D01*
X028807Y019201D01*
X028787Y019221D01*
X028770Y019243D01*
X028757Y019268D01*
X028747Y019294D01*
X028741Y019322D01*
X028739Y019350D01*
X025289Y019350D02*
X025291Y019378D01*
X025297Y019406D01*
X025307Y019432D01*
X025320Y019457D01*
X025337Y019479D01*
X025357Y019499D01*
X025379Y019516D01*
X025404Y019529D01*
X025430Y019539D01*
X025458Y019545D01*
X025486Y019547D01*
X025514Y019545D01*
X025542Y019539D01*
X025568Y019529D01*
X025593Y019516D01*
X025615Y019499D01*
X025635Y019479D01*
X025652Y019457D01*
X025665Y019432D01*
X025675Y019406D01*
X025681Y019378D01*
X025683Y019350D01*
X025681Y019322D01*
X025675Y019294D01*
X025665Y019268D01*
X025652Y019243D01*
X025635Y019221D01*
X025615Y019201D01*
X025593Y019184D01*
X025568Y019171D01*
X025542Y019161D01*
X025514Y019155D01*
X025486Y019153D01*
X025458Y019155D01*
X025430Y019161D01*
X025404Y019171D01*
X025379Y019184D01*
X025357Y019201D01*
X025337Y019221D01*
X025320Y019243D01*
X025307Y019268D01*
X025297Y019294D01*
X025291Y019322D01*
X025289Y019350D01*
X025289Y014990D02*
X025291Y015018D01*
X025297Y015046D01*
X025307Y015072D01*
X025320Y015097D01*
X025337Y015119D01*
X025357Y015139D01*
X025379Y015156D01*
X025404Y015169D01*
X025430Y015179D01*
X025458Y015185D01*
X025486Y015187D01*
X025514Y015185D01*
X025542Y015179D01*
X025568Y015169D01*
X025593Y015156D01*
X025615Y015139D01*
X025635Y015119D01*
X025652Y015097D01*
X025665Y015072D01*
X025675Y015046D01*
X025681Y015018D01*
X025683Y014990D01*
X025681Y014962D01*
X025675Y014934D01*
X025665Y014908D01*
X025652Y014883D01*
X025635Y014861D01*
X025615Y014841D01*
X025593Y014824D01*
X025568Y014811D01*
X025542Y014801D01*
X025514Y014795D01*
X025486Y014793D01*
X025458Y014795D01*
X025430Y014801D01*
X025404Y014811D01*
X025379Y014824D01*
X025357Y014841D01*
X025337Y014861D01*
X025320Y014883D01*
X025307Y014908D01*
X025297Y014934D01*
X025291Y014962D01*
X025289Y014990D01*
X028739Y014990D02*
X028741Y015018D01*
X028747Y015046D01*
X028757Y015072D01*
X028770Y015097D01*
X028787Y015119D01*
X028807Y015139D01*
X028829Y015156D01*
X028854Y015169D01*
X028880Y015179D01*
X028908Y015185D01*
X028936Y015187D01*
X028964Y015185D01*
X028992Y015179D01*
X029018Y015169D01*
X029043Y015156D01*
X029065Y015139D01*
X029085Y015119D01*
X029102Y015097D01*
X029115Y015072D01*
X029125Y015046D01*
X029131Y015018D01*
X029133Y014990D01*
X029131Y014962D01*
X029125Y014934D01*
X029115Y014908D01*
X029102Y014883D01*
X029085Y014861D01*
X029065Y014841D01*
X029043Y014824D01*
X029018Y014811D01*
X028992Y014801D01*
X028964Y014795D01*
X028936Y014793D01*
X028908Y014795D01*
X028880Y014801D01*
X028854Y014811D01*
X028829Y014824D01*
X028807Y014841D01*
X028787Y014861D01*
X028770Y014883D01*
X028757Y014908D01*
X028747Y014934D01*
X028741Y014962D01*
X028739Y014990D01*
X032189Y014990D02*
X032191Y015018D01*
X032197Y015046D01*
X032207Y015072D01*
X032220Y015097D01*
X032237Y015119D01*
X032257Y015139D01*
X032279Y015156D01*
X032304Y015169D01*
X032330Y015179D01*
X032358Y015185D01*
X032386Y015187D01*
X032414Y015185D01*
X032442Y015179D01*
X032468Y015169D01*
X032493Y015156D01*
X032515Y015139D01*
X032535Y015119D01*
X032552Y015097D01*
X032565Y015072D01*
X032575Y015046D01*
X032581Y015018D01*
X032583Y014990D01*
X032581Y014962D01*
X032575Y014934D01*
X032565Y014908D01*
X032552Y014883D01*
X032535Y014861D01*
X032515Y014841D01*
X032493Y014824D01*
X032468Y014811D01*
X032442Y014801D01*
X032414Y014795D01*
X032386Y014793D01*
X032358Y014795D01*
X032330Y014801D01*
X032304Y014811D01*
X032279Y014824D01*
X032257Y014841D01*
X032237Y014861D01*
X032220Y014883D01*
X032207Y014908D01*
X032197Y014934D01*
X032191Y014962D01*
X032189Y014990D01*
X035639Y014990D02*
X035641Y015018D01*
X035647Y015046D01*
X035657Y015072D01*
X035670Y015097D01*
X035687Y015119D01*
X035707Y015139D01*
X035729Y015156D01*
X035754Y015169D01*
X035780Y015179D01*
X035808Y015185D01*
X035836Y015187D01*
X035864Y015185D01*
X035892Y015179D01*
X035918Y015169D01*
X035943Y015156D01*
X035965Y015139D01*
X035985Y015119D01*
X036002Y015097D01*
X036015Y015072D01*
X036025Y015046D01*
X036031Y015018D01*
X036033Y014990D01*
X036031Y014962D01*
X036025Y014934D01*
X036015Y014908D01*
X036002Y014883D01*
X035985Y014861D01*
X035965Y014841D01*
X035943Y014824D01*
X035918Y014811D01*
X035892Y014801D01*
X035864Y014795D01*
X035836Y014793D01*
X035808Y014795D01*
X035780Y014801D01*
X035754Y014811D01*
X035729Y014824D01*
X035707Y014841D01*
X035687Y014861D01*
X035670Y014883D01*
X035657Y014908D01*
X035647Y014934D01*
X035641Y014962D01*
X035639Y014990D01*
X039089Y014990D02*
X039091Y015018D01*
X039097Y015046D01*
X039107Y015072D01*
X039120Y015097D01*
X039137Y015119D01*
X039157Y015139D01*
X039179Y015156D01*
X039204Y015169D01*
X039230Y015179D01*
X039258Y015185D01*
X039286Y015187D01*
X039314Y015185D01*
X039342Y015179D01*
X039368Y015169D01*
X039393Y015156D01*
X039415Y015139D01*
X039435Y015119D01*
X039452Y015097D01*
X039465Y015072D01*
X039475Y015046D01*
X039481Y015018D01*
X039483Y014990D01*
X039481Y014962D01*
X039475Y014934D01*
X039465Y014908D01*
X039452Y014883D01*
X039435Y014861D01*
X039415Y014841D01*
X039393Y014824D01*
X039368Y014811D01*
X039342Y014801D01*
X039314Y014795D01*
X039286Y014793D01*
X039258Y014795D01*
X039230Y014801D01*
X039204Y014811D01*
X039179Y014824D01*
X039157Y014841D01*
X039137Y014861D01*
X039120Y014883D01*
X039107Y014908D01*
X039097Y014934D01*
X039091Y014962D01*
X039089Y014990D01*
X042539Y014990D02*
X042541Y015018D01*
X042547Y015046D01*
X042557Y015072D01*
X042570Y015097D01*
X042587Y015119D01*
X042607Y015139D01*
X042629Y015156D01*
X042654Y015169D01*
X042680Y015179D01*
X042708Y015185D01*
X042736Y015187D01*
X042764Y015185D01*
X042792Y015179D01*
X042818Y015169D01*
X042843Y015156D01*
X042865Y015139D01*
X042885Y015119D01*
X042902Y015097D01*
X042915Y015072D01*
X042925Y015046D01*
X042931Y015018D01*
X042933Y014990D01*
X042931Y014962D01*
X042925Y014934D01*
X042915Y014908D01*
X042902Y014883D01*
X042885Y014861D01*
X042865Y014841D01*
X042843Y014824D01*
X042818Y014811D01*
X042792Y014801D01*
X042764Y014795D01*
X042736Y014793D01*
X042708Y014795D01*
X042680Y014801D01*
X042654Y014811D01*
X042629Y014824D01*
X042607Y014841D01*
X042587Y014861D01*
X042570Y014883D01*
X042557Y014908D01*
X042547Y014934D01*
X042541Y014962D01*
X042539Y014990D01*
X045989Y014990D02*
X045991Y015018D01*
X045997Y015046D01*
X046007Y015072D01*
X046020Y015097D01*
X046037Y015119D01*
X046057Y015139D01*
X046079Y015156D01*
X046104Y015169D01*
X046130Y015179D01*
X046158Y015185D01*
X046186Y015187D01*
X046214Y015185D01*
X046242Y015179D01*
X046268Y015169D01*
X046293Y015156D01*
X046315Y015139D01*
X046335Y015119D01*
X046352Y015097D01*
X046365Y015072D01*
X046375Y015046D01*
X046381Y015018D01*
X046383Y014990D01*
X046381Y014962D01*
X046375Y014934D01*
X046365Y014908D01*
X046352Y014883D01*
X046335Y014861D01*
X046315Y014841D01*
X046293Y014824D01*
X046268Y014811D01*
X046242Y014801D01*
X046214Y014795D01*
X046186Y014793D01*
X046158Y014795D01*
X046130Y014801D01*
X046104Y014811D01*
X046079Y014824D01*
X046057Y014841D01*
X046037Y014861D01*
X046020Y014883D01*
X046007Y014908D01*
X045997Y014934D01*
X045991Y014962D01*
X045989Y014990D01*
X049439Y014990D02*
X049441Y015018D01*
X049447Y015046D01*
X049457Y015072D01*
X049470Y015097D01*
X049487Y015119D01*
X049507Y015139D01*
X049529Y015156D01*
X049554Y015169D01*
X049580Y015179D01*
X049608Y015185D01*
X049636Y015187D01*
X049664Y015185D01*
X049692Y015179D01*
X049718Y015169D01*
X049743Y015156D01*
X049765Y015139D01*
X049785Y015119D01*
X049802Y015097D01*
X049815Y015072D01*
X049825Y015046D01*
X049831Y015018D01*
X049833Y014990D01*
X049831Y014962D01*
X049825Y014934D01*
X049815Y014908D01*
X049802Y014883D01*
X049785Y014861D01*
X049765Y014841D01*
X049743Y014824D01*
X049718Y014811D01*
X049692Y014801D01*
X049664Y014795D01*
X049636Y014793D01*
X049608Y014795D01*
X049580Y014801D01*
X049554Y014811D01*
X049529Y014824D01*
X049507Y014841D01*
X049487Y014861D01*
X049470Y014883D01*
X049457Y014908D01*
X049447Y014934D01*
X049441Y014962D01*
X049439Y014990D01*
X052889Y014990D02*
X052891Y015018D01*
X052897Y015046D01*
X052907Y015072D01*
X052920Y015097D01*
X052937Y015119D01*
X052957Y015139D01*
X052979Y015156D01*
X053004Y015169D01*
X053030Y015179D01*
X053058Y015185D01*
X053086Y015187D01*
X053114Y015185D01*
X053142Y015179D01*
X053168Y015169D01*
X053193Y015156D01*
X053215Y015139D01*
X053235Y015119D01*
X053252Y015097D01*
X053265Y015072D01*
X053275Y015046D01*
X053281Y015018D01*
X053283Y014990D01*
X053281Y014962D01*
X053275Y014934D01*
X053265Y014908D01*
X053252Y014883D01*
X053235Y014861D01*
X053215Y014841D01*
X053193Y014824D01*
X053168Y014811D01*
X053142Y014801D01*
X053114Y014795D01*
X053086Y014793D01*
X053058Y014795D01*
X053030Y014801D01*
X053004Y014811D01*
X052979Y014824D01*
X052957Y014841D01*
X052937Y014861D01*
X052920Y014883D01*
X052907Y014908D01*
X052897Y014934D01*
X052891Y014962D01*
X052889Y014990D01*
X056339Y014990D02*
X056341Y015018D01*
X056347Y015046D01*
X056357Y015072D01*
X056370Y015097D01*
X056387Y015119D01*
X056407Y015139D01*
X056429Y015156D01*
X056454Y015169D01*
X056480Y015179D01*
X056508Y015185D01*
X056536Y015187D01*
X056564Y015185D01*
X056592Y015179D01*
X056618Y015169D01*
X056643Y015156D01*
X056665Y015139D01*
X056685Y015119D01*
X056702Y015097D01*
X056715Y015072D01*
X056725Y015046D01*
X056731Y015018D01*
X056733Y014990D01*
X056731Y014962D01*
X056725Y014934D01*
X056715Y014908D01*
X056702Y014883D01*
X056685Y014861D01*
X056665Y014841D01*
X056643Y014824D01*
X056618Y014811D01*
X056592Y014801D01*
X056564Y014795D01*
X056536Y014793D01*
X056508Y014795D01*
X056480Y014801D01*
X056454Y014811D01*
X056429Y014824D01*
X056407Y014841D01*
X056387Y014861D01*
X056370Y014883D01*
X056357Y014908D01*
X056347Y014934D01*
X056341Y014962D01*
X056339Y014990D01*
X059789Y014990D02*
X059791Y015018D01*
X059797Y015046D01*
X059807Y015072D01*
X059820Y015097D01*
X059837Y015119D01*
X059857Y015139D01*
X059879Y015156D01*
X059904Y015169D01*
X059930Y015179D01*
X059958Y015185D01*
X059986Y015187D01*
X060014Y015185D01*
X060042Y015179D01*
X060068Y015169D01*
X060093Y015156D01*
X060115Y015139D01*
X060135Y015119D01*
X060152Y015097D01*
X060165Y015072D01*
X060175Y015046D01*
X060181Y015018D01*
X060183Y014990D01*
X060181Y014962D01*
X060175Y014934D01*
X060165Y014908D01*
X060152Y014883D01*
X060135Y014861D01*
X060115Y014841D01*
X060093Y014824D01*
X060068Y014811D01*
X060042Y014801D01*
X060014Y014795D01*
X059986Y014793D01*
X059958Y014795D01*
X059930Y014801D01*
X059904Y014811D01*
X059879Y014824D01*
X059857Y014841D01*
X059837Y014861D01*
X059820Y014883D01*
X059807Y014908D01*
X059797Y014934D01*
X059791Y014962D01*
X059789Y014990D01*
X063239Y014990D02*
X063241Y015018D01*
X063247Y015046D01*
X063257Y015072D01*
X063270Y015097D01*
X063287Y015119D01*
X063307Y015139D01*
X063329Y015156D01*
X063354Y015169D01*
X063380Y015179D01*
X063408Y015185D01*
X063436Y015187D01*
X063464Y015185D01*
X063492Y015179D01*
X063518Y015169D01*
X063543Y015156D01*
X063565Y015139D01*
X063585Y015119D01*
X063602Y015097D01*
X063615Y015072D01*
X063625Y015046D01*
X063631Y015018D01*
X063633Y014990D01*
X063631Y014962D01*
X063625Y014934D01*
X063615Y014908D01*
X063602Y014883D01*
X063585Y014861D01*
X063565Y014841D01*
X063543Y014824D01*
X063518Y014811D01*
X063492Y014801D01*
X063464Y014795D01*
X063436Y014793D01*
X063408Y014795D01*
X063380Y014801D01*
X063354Y014811D01*
X063329Y014824D01*
X063307Y014841D01*
X063287Y014861D01*
X063270Y014883D01*
X063257Y014908D01*
X063247Y014934D01*
X063241Y014962D01*
X063239Y014990D01*
X066689Y014990D02*
X066691Y015018D01*
X066697Y015046D01*
X066707Y015072D01*
X066720Y015097D01*
X066737Y015119D01*
X066757Y015139D01*
X066779Y015156D01*
X066804Y015169D01*
X066830Y015179D01*
X066858Y015185D01*
X066886Y015187D01*
X066914Y015185D01*
X066942Y015179D01*
X066968Y015169D01*
X066993Y015156D01*
X067015Y015139D01*
X067035Y015119D01*
X067052Y015097D01*
X067065Y015072D01*
X067075Y015046D01*
X067081Y015018D01*
X067083Y014990D01*
X067081Y014962D01*
X067075Y014934D01*
X067065Y014908D01*
X067052Y014883D01*
X067035Y014861D01*
X067015Y014841D01*
X066993Y014824D01*
X066968Y014811D01*
X066942Y014801D01*
X066914Y014795D01*
X066886Y014793D01*
X066858Y014795D01*
X066830Y014801D01*
X066804Y014811D01*
X066779Y014824D01*
X066757Y014841D01*
X066737Y014861D01*
X066720Y014883D01*
X066707Y014908D01*
X066697Y014934D01*
X066691Y014962D01*
X066689Y014990D01*
X070139Y014990D02*
X070141Y015018D01*
X070147Y015046D01*
X070157Y015072D01*
X070170Y015097D01*
X070187Y015119D01*
X070207Y015139D01*
X070229Y015156D01*
X070254Y015169D01*
X070280Y015179D01*
X070308Y015185D01*
X070336Y015187D01*
X070364Y015185D01*
X070392Y015179D01*
X070418Y015169D01*
X070443Y015156D01*
X070465Y015139D01*
X070485Y015119D01*
X070502Y015097D01*
X070515Y015072D01*
X070525Y015046D01*
X070531Y015018D01*
X070533Y014990D01*
X070531Y014962D01*
X070525Y014934D01*
X070515Y014908D01*
X070502Y014883D01*
X070485Y014861D01*
X070465Y014841D01*
X070443Y014824D01*
X070418Y014811D01*
X070392Y014801D01*
X070364Y014795D01*
X070336Y014793D01*
X070308Y014795D01*
X070280Y014801D01*
X070254Y014811D01*
X070229Y014824D01*
X070207Y014841D01*
X070187Y014861D01*
X070170Y014883D01*
X070157Y014908D01*
X070147Y014934D01*
X070141Y014962D01*
X070139Y014990D01*
X073589Y014990D02*
X073591Y015018D01*
X073597Y015046D01*
X073607Y015072D01*
X073620Y015097D01*
X073637Y015119D01*
X073657Y015139D01*
X073679Y015156D01*
X073704Y015169D01*
X073730Y015179D01*
X073758Y015185D01*
X073786Y015187D01*
X073814Y015185D01*
X073842Y015179D01*
X073868Y015169D01*
X073893Y015156D01*
X073915Y015139D01*
X073935Y015119D01*
X073952Y015097D01*
X073965Y015072D01*
X073975Y015046D01*
X073981Y015018D01*
X073983Y014990D01*
X073981Y014962D01*
X073975Y014934D01*
X073965Y014908D01*
X073952Y014883D01*
X073935Y014861D01*
X073915Y014841D01*
X073893Y014824D01*
X073868Y014811D01*
X073842Y014801D01*
X073814Y014795D01*
X073786Y014793D01*
X073758Y014795D01*
X073730Y014801D01*
X073704Y014811D01*
X073679Y014824D01*
X073657Y014841D01*
X073637Y014861D01*
X073620Y014883D01*
X073607Y014908D01*
X073597Y014934D01*
X073591Y014962D01*
X073589Y014990D01*
X077039Y014990D02*
X077041Y015018D01*
X077047Y015046D01*
X077057Y015072D01*
X077070Y015097D01*
X077087Y015119D01*
X077107Y015139D01*
X077129Y015156D01*
X077154Y015169D01*
X077180Y015179D01*
X077208Y015185D01*
X077236Y015187D01*
X077264Y015185D01*
X077292Y015179D01*
X077318Y015169D01*
X077343Y015156D01*
X077365Y015139D01*
X077385Y015119D01*
X077402Y015097D01*
X077415Y015072D01*
X077425Y015046D01*
X077431Y015018D01*
X077433Y014990D01*
X077431Y014962D01*
X077425Y014934D01*
X077415Y014908D01*
X077402Y014883D01*
X077385Y014861D01*
X077365Y014841D01*
X077343Y014824D01*
X077318Y014811D01*
X077292Y014801D01*
X077264Y014795D01*
X077236Y014793D01*
X077208Y014795D01*
X077180Y014801D01*
X077154Y014811D01*
X077129Y014824D01*
X077107Y014841D01*
X077087Y014861D01*
X077070Y014883D01*
X077057Y014908D01*
X077047Y014934D01*
X077041Y014962D01*
X077039Y014990D01*
X080489Y014990D02*
X080491Y015018D01*
X080497Y015046D01*
X080507Y015072D01*
X080520Y015097D01*
X080537Y015119D01*
X080557Y015139D01*
X080579Y015156D01*
X080604Y015169D01*
X080630Y015179D01*
X080658Y015185D01*
X080686Y015187D01*
X080714Y015185D01*
X080742Y015179D01*
X080768Y015169D01*
X080793Y015156D01*
X080815Y015139D01*
X080835Y015119D01*
X080852Y015097D01*
X080865Y015072D01*
X080875Y015046D01*
X080881Y015018D01*
X080883Y014990D01*
X080881Y014962D01*
X080875Y014934D01*
X080865Y014908D01*
X080852Y014883D01*
X080835Y014861D01*
X080815Y014841D01*
X080793Y014824D01*
X080768Y014811D01*
X080742Y014801D01*
X080714Y014795D01*
X080686Y014793D01*
X080658Y014795D01*
X080630Y014801D01*
X080604Y014811D01*
X080579Y014824D01*
X080557Y014841D01*
X080537Y014861D01*
X080520Y014883D01*
X080507Y014908D01*
X080497Y014934D01*
X080491Y014962D01*
X080489Y014990D01*
X083939Y014990D02*
X083941Y015018D01*
X083947Y015046D01*
X083957Y015072D01*
X083970Y015097D01*
X083987Y015119D01*
X084007Y015139D01*
X084029Y015156D01*
X084054Y015169D01*
X084080Y015179D01*
X084108Y015185D01*
X084136Y015187D01*
X084164Y015185D01*
X084192Y015179D01*
X084218Y015169D01*
X084243Y015156D01*
X084265Y015139D01*
X084285Y015119D01*
X084302Y015097D01*
X084315Y015072D01*
X084325Y015046D01*
X084331Y015018D01*
X084333Y014990D01*
X084331Y014962D01*
X084325Y014934D01*
X084315Y014908D01*
X084302Y014883D01*
X084285Y014861D01*
X084265Y014841D01*
X084243Y014824D01*
X084218Y014811D01*
X084192Y014801D01*
X084164Y014795D01*
X084136Y014793D01*
X084108Y014795D01*
X084080Y014801D01*
X084054Y014811D01*
X084029Y014824D01*
X084007Y014841D01*
X083987Y014861D01*
X083970Y014883D01*
X083957Y014908D01*
X083947Y014934D01*
X083941Y014962D01*
X083939Y014990D01*
X083939Y007030D02*
X083941Y007058D01*
X083947Y007086D01*
X083957Y007112D01*
X083970Y007137D01*
X083987Y007159D01*
X084007Y007179D01*
X084029Y007196D01*
X084054Y007209D01*
X084080Y007219D01*
X084108Y007225D01*
X084136Y007227D01*
X084164Y007225D01*
X084192Y007219D01*
X084218Y007209D01*
X084243Y007196D01*
X084265Y007179D01*
X084285Y007159D01*
X084302Y007137D01*
X084315Y007112D01*
X084325Y007086D01*
X084331Y007058D01*
X084333Y007030D01*
X084331Y007002D01*
X084325Y006974D01*
X084315Y006948D01*
X084302Y006923D01*
X084285Y006901D01*
X084265Y006881D01*
X084243Y006864D01*
X084218Y006851D01*
X084192Y006841D01*
X084164Y006835D01*
X084136Y006833D01*
X084108Y006835D01*
X084080Y006841D01*
X084054Y006851D01*
X084029Y006864D01*
X084007Y006881D01*
X083987Y006901D01*
X083970Y006923D01*
X083957Y006948D01*
X083947Y006974D01*
X083941Y007002D01*
X083939Y007030D01*
X080489Y007030D02*
X080491Y007058D01*
X080497Y007086D01*
X080507Y007112D01*
X080520Y007137D01*
X080537Y007159D01*
X080557Y007179D01*
X080579Y007196D01*
X080604Y007209D01*
X080630Y007219D01*
X080658Y007225D01*
X080686Y007227D01*
X080714Y007225D01*
X080742Y007219D01*
X080768Y007209D01*
X080793Y007196D01*
X080815Y007179D01*
X080835Y007159D01*
X080852Y007137D01*
X080865Y007112D01*
X080875Y007086D01*
X080881Y007058D01*
X080883Y007030D01*
X080881Y007002D01*
X080875Y006974D01*
X080865Y006948D01*
X080852Y006923D01*
X080835Y006901D01*
X080815Y006881D01*
X080793Y006864D01*
X080768Y006851D01*
X080742Y006841D01*
X080714Y006835D01*
X080686Y006833D01*
X080658Y006835D01*
X080630Y006841D01*
X080604Y006851D01*
X080579Y006864D01*
X080557Y006881D01*
X080537Y006901D01*
X080520Y006923D01*
X080507Y006948D01*
X080497Y006974D01*
X080491Y007002D01*
X080489Y007030D01*
X077039Y007030D02*
X077041Y007058D01*
X077047Y007086D01*
X077057Y007112D01*
X077070Y007137D01*
X077087Y007159D01*
X077107Y007179D01*
X077129Y007196D01*
X077154Y007209D01*
X077180Y007219D01*
X077208Y007225D01*
X077236Y007227D01*
X077264Y007225D01*
X077292Y007219D01*
X077318Y007209D01*
X077343Y007196D01*
X077365Y007179D01*
X077385Y007159D01*
X077402Y007137D01*
X077415Y007112D01*
X077425Y007086D01*
X077431Y007058D01*
X077433Y007030D01*
X077431Y007002D01*
X077425Y006974D01*
X077415Y006948D01*
X077402Y006923D01*
X077385Y006901D01*
X077365Y006881D01*
X077343Y006864D01*
X077318Y006851D01*
X077292Y006841D01*
X077264Y006835D01*
X077236Y006833D01*
X077208Y006835D01*
X077180Y006841D01*
X077154Y006851D01*
X077129Y006864D01*
X077107Y006881D01*
X077087Y006901D01*
X077070Y006923D01*
X077057Y006948D01*
X077047Y006974D01*
X077041Y007002D01*
X077039Y007030D01*
X073589Y007030D02*
X073591Y007058D01*
X073597Y007086D01*
X073607Y007112D01*
X073620Y007137D01*
X073637Y007159D01*
X073657Y007179D01*
X073679Y007196D01*
X073704Y007209D01*
X073730Y007219D01*
X073758Y007225D01*
X073786Y007227D01*
X073814Y007225D01*
X073842Y007219D01*
X073868Y007209D01*
X073893Y007196D01*
X073915Y007179D01*
X073935Y007159D01*
X073952Y007137D01*
X073965Y007112D01*
X073975Y007086D01*
X073981Y007058D01*
X073983Y007030D01*
X073981Y007002D01*
X073975Y006974D01*
X073965Y006948D01*
X073952Y006923D01*
X073935Y006901D01*
X073915Y006881D01*
X073893Y006864D01*
X073868Y006851D01*
X073842Y006841D01*
X073814Y006835D01*
X073786Y006833D01*
X073758Y006835D01*
X073730Y006841D01*
X073704Y006851D01*
X073679Y006864D01*
X073657Y006881D01*
X073637Y006901D01*
X073620Y006923D01*
X073607Y006948D01*
X073597Y006974D01*
X073591Y007002D01*
X073589Y007030D01*
X070139Y007030D02*
X070141Y007058D01*
X070147Y007086D01*
X070157Y007112D01*
X070170Y007137D01*
X070187Y007159D01*
X070207Y007179D01*
X070229Y007196D01*
X070254Y007209D01*
X070280Y007219D01*
X070308Y007225D01*
X070336Y007227D01*
X070364Y007225D01*
X070392Y007219D01*
X070418Y007209D01*
X070443Y007196D01*
X070465Y007179D01*
X070485Y007159D01*
X070502Y007137D01*
X070515Y007112D01*
X070525Y007086D01*
X070531Y007058D01*
X070533Y007030D01*
X070531Y007002D01*
X070525Y006974D01*
X070515Y006948D01*
X070502Y006923D01*
X070485Y006901D01*
X070465Y006881D01*
X070443Y006864D01*
X070418Y006851D01*
X070392Y006841D01*
X070364Y006835D01*
X070336Y006833D01*
X070308Y006835D01*
X070280Y006841D01*
X070254Y006851D01*
X070229Y006864D01*
X070207Y006881D01*
X070187Y006901D01*
X070170Y006923D01*
X070157Y006948D01*
X070147Y006974D01*
X070141Y007002D01*
X070139Y007030D01*
X066689Y007030D02*
X066691Y007058D01*
X066697Y007086D01*
X066707Y007112D01*
X066720Y007137D01*
X066737Y007159D01*
X066757Y007179D01*
X066779Y007196D01*
X066804Y007209D01*
X066830Y007219D01*
X066858Y007225D01*
X066886Y007227D01*
X066914Y007225D01*
X066942Y007219D01*
X066968Y007209D01*
X066993Y007196D01*
X067015Y007179D01*
X067035Y007159D01*
X067052Y007137D01*
X067065Y007112D01*
X067075Y007086D01*
X067081Y007058D01*
X067083Y007030D01*
X067081Y007002D01*
X067075Y006974D01*
X067065Y006948D01*
X067052Y006923D01*
X067035Y006901D01*
X067015Y006881D01*
X066993Y006864D01*
X066968Y006851D01*
X066942Y006841D01*
X066914Y006835D01*
X066886Y006833D01*
X066858Y006835D01*
X066830Y006841D01*
X066804Y006851D01*
X066779Y006864D01*
X066757Y006881D01*
X066737Y006901D01*
X066720Y006923D01*
X066707Y006948D01*
X066697Y006974D01*
X066691Y007002D01*
X066689Y007030D01*
X063239Y007030D02*
X063241Y007058D01*
X063247Y007086D01*
X063257Y007112D01*
X063270Y007137D01*
X063287Y007159D01*
X063307Y007179D01*
X063329Y007196D01*
X063354Y007209D01*
X063380Y007219D01*
X063408Y007225D01*
X063436Y007227D01*
X063464Y007225D01*
X063492Y007219D01*
X063518Y007209D01*
X063543Y007196D01*
X063565Y007179D01*
X063585Y007159D01*
X063602Y007137D01*
X063615Y007112D01*
X063625Y007086D01*
X063631Y007058D01*
X063633Y007030D01*
X063631Y007002D01*
X063625Y006974D01*
X063615Y006948D01*
X063602Y006923D01*
X063585Y006901D01*
X063565Y006881D01*
X063543Y006864D01*
X063518Y006851D01*
X063492Y006841D01*
X063464Y006835D01*
X063436Y006833D01*
X063408Y006835D01*
X063380Y006841D01*
X063354Y006851D01*
X063329Y006864D01*
X063307Y006881D01*
X063287Y006901D01*
X063270Y006923D01*
X063257Y006948D01*
X063247Y006974D01*
X063241Y007002D01*
X063239Y007030D01*
X059789Y007030D02*
X059791Y007058D01*
X059797Y007086D01*
X059807Y007112D01*
X059820Y007137D01*
X059837Y007159D01*
X059857Y007179D01*
X059879Y007196D01*
X059904Y007209D01*
X059930Y007219D01*
X059958Y007225D01*
X059986Y007227D01*
X060014Y007225D01*
X060042Y007219D01*
X060068Y007209D01*
X060093Y007196D01*
X060115Y007179D01*
X060135Y007159D01*
X060152Y007137D01*
X060165Y007112D01*
X060175Y007086D01*
X060181Y007058D01*
X060183Y007030D01*
X060181Y007002D01*
X060175Y006974D01*
X060165Y006948D01*
X060152Y006923D01*
X060135Y006901D01*
X060115Y006881D01*
X060093Y006864D01*
X060068Y006851D01*
X060042Y006841D01*
X060014Y006835D01*
X059986Y006833D01*
X059958Y006835D01*
X059930Y006841D01*
X059904Y006851D01*
X059879Y006864D01*
X059857Y006881D01*
X059837Y006901D01*
X059820Y006923D01*
X059807Y006948D01*
X059797Y006974D01*
X059791Y007002D01*
X059789Y007030D01*
X056339Y007030D02*
X056341Y007058D01*
X056347Y007086D01*
X056357Y007112D01*
X056370Y007137D01*
X056387Y007159D01*
X056407Y007179D01*
X056429Y007196D01*
X056454Y007209D01*
X056480Y007219D01*
X056508Y007225D01*
X056536Y007227D01*
X056564Y007225D01*
X056592Y007219D01*
X056618Y007209D01*
X056643Y007196D01*
X056665Y007179D01*
X056685Y007159D01*
X056702Y007137D01*
X056715Y007112D01*
X056725Y007086D01*
X056731Y007058D01*
X056733Y007030D01*
X056731Y007002D01*
X056725Y006974D01*
X056715Y006948D01*
X056702Y006923D01*
X056685Y006901D01*
X056665Y006881D01*
X056643Y006864D01*
X056618Y006851D01*
X056592Y006841D01*
X056564Y006835D01*
X056536Y006833D01*
X056508Y006835D01*
X056480Y006841D01*
X056454Y006851D01*
X056429Y006864D01*
X056407Y006881D01*
X056387Y006901D01*
X056370Y006923D01*
X056357Y006948D01*
X056347Y006974D01*
X056341Y007002D01*
X056339Y007030D01*
X052889Y007030D02*
X052891Y007058D01*
X052897Y007086D01*
X052907Y007112D01*
X052920Y007137D01*
X052937Y007159D01*
X052957Y007179D01*
X052979Y007196D01*
X053004Y007209D01*
X053030Y007219D01*
X053058Y007225D01*
X053086Y007227D01*
X053114Y007225D01*
X053142Y007219D01*
X053168Y007209D01*
X053193Y007196D01*
X053215Y007179D01*
X053235Y007159D01*
X053252Y007137D01*
X053265Y007112D01*
X053275Y007086D01*
X053281Y007058D01*
X053283Y007030D01*
X053281Y007002D01*
X053275Y006974D01*
X053265Y006948D01*
X053252Y006923D01*
X053235Y006901D01*
X053215Y006881D01*
X053193Y006864D01*
X053168Y006851D01*
X053142Y006841D01*
X053114Y006835D01*
X053086Y006833D01*
X053058Y006835D01*
X053030Y006841D01*
X053004Y006851D01*
X052979Y006864D01*
X052957Y006881D01*
X052937Y006901D01*
X052920Y006923D01*
X052907Y006948D01*
X052897Y006974D01*
X052891Y007002D01*
X052889Y007030D01*
X049439Y007030D02*
X049441Y007058D01*
X049447Y007086D01*
X049457Y007112D01*
X049470Y007137D01*
X049487Y007159D01*
X049507Y007179D01*
X049529Y007196D01*
X049554Y007209D01*
X049580Y007219D01*
X049608Y007225D01*
X049636Y007227D01*
X049664Y007225D01*
X049692Y007219D01*
X049718Y007209D01*
X049743Y007196D01*
X049765Y007179D01*
X049785Y007159D01*
X049802Y007137D01*
X049815Y007112D01*
X049825Y007086D01*
X049831Y007058D01*
X049833Y007030D01*
X049831Y007002D01*
X049825Y006974D01*
X049815Y006948D01*
X049802Y006923D01*
X049785Y006901D01*
X049765Y006881D01*
X049743Y006864D01*
X049718Y006851D01*
X049692Y006841D01*
X049664Y006835D01*
X049636Y006833D01*
X049608Y006835D01*
X049580Y006841D01*
X049554Y006851D01*
X049529Y006864D01*
X049507Y006881D01*
X049487Y006901D01*
X049470Y006923D01*
X049457Y006948D01*
X049447Y006974D01*
X049441Y007002D01*
X049439Y007030D01*
X045989Y007030D02*
X045991Y007058D01*
X045997Y007086D01*
X046007Y007112D01*
X046020Y007137D01*
X046037Y007159D01*
X046057Y007179D01*
X046079Y007196D01*
X046104Y007209D01*
X046130Y007219D01*
X046158Y007225D01*
X046186Y007227D01*
X046214Y007225D01*
X046242Y007219D01*
X046268Y007209D01*
X046293Y007196D01*
X046315Y007179D01*
X046335Y007159D01*
X046352Y007137D01*
X046365Y007112D01*
X046375Y007086D01*
X046381Y007058D01*
X046383Y007030D01*
X046381Y007002D01*
X046375Y006974D01*
X046365Y006948D01*
X046352Y006923D01*
X046335Y006901D01*
X046315Y006881D01*
X046293Y006864D01*
X046268Y006851D01*
X046242Y006841D01*
X046214Y006835D01*
X046186Y006833D01*
X046158Y006835D01*
X046130Y006841D01*
X046104Y006851D01*
X046079Y006864D01*
X046057Y006881D01*
X046037Y006901D01*
X046020Y006923D01*
X046007Y006948D01*
X045997Y006974D01*
X045991Y007002D01*
X045989Y007030D01*
X042539Y007030D02*
X042541Y007058D01*
X042547Y007086D01*
X042557Y007112D01*
X042570Y007137D01*
X042587Y007159D01*
X042607Y007179D01*
X042629Y007196D01*
X042654Y007209D01*
X042680Y007219D01*
X042708Y007225D01*
X042736Y007227D01*
X042764Y007225D01*
X042792Y007219D01*
X042818Y007209D01*
X042843Y007196D01*
X042865Y007179D01*
X042885Y007159D01*
X042902Y007137D01*
X042915Y007112D01*
X042925Y007086D01*
X042931Y007058D01*
X042933Y007030D01*
X042931Y007002D01*
X042925Y006974D01*
X042915Y006948D01*
X042902Y006923D01*
X042885Y006901D01*
X042865Y006881D01*
X042843Y006864D01*
X042818Y006851D01*
X042792Y006841D01*
X042764Y006835D01*
X042736Y006833D01*
X042708Y006835D01*
X042680Y006841D01*
X042654Y006851D01*
X042629Y006864D01*
X042607Y006881D01*
X042587Y006901D01*
X042570Y006923D01*
X042557Y006948D01*
X042547Y006974D01*
X042541Y007002D01*
X042539Y007030D01*
X039089Y007030D02*
X039091Y007058D01*
X039097Y007086D01*
X039107Y007112D01*
X039120Y007137D01*
X039137Y007159D01*
X039157Y007179D01*
X039179Y007196D01*
X039204Y007209D01*
X039230Y007219D01*
X039258Y007225D01*
X039286Y007227D01*
X039314Y007225D01*
X039342Y007219D01*
X039368Y007209D01*
X039393Y007196D01*
X039415Y007179D01*
X039435Y007159D01*
X039452Y007137D01*
X039465Y007112D01*
X039475Y007086D01*
X039481Y007058D01*
X039483Y007030D01*
X039481Y007002D01*
X039475Y006974D01*
X039465Y006948D01*
X039452Y006923D01*
X039435Y006901D01*
X039415Y006881D01*
X039393Y006864D01*
X039368Y006851D01*
X039342Y006841D01*
X039314Y006835D01*
X039286Y006833D01*
X039258Y006835D01*
X039230Y006841D01*
X039204Y006851D01*
X039179Y006864D01*
X039157Y006881D01*
X039137Y006901D01*
X039120Y006923D01*
X039107Y006948D01*
X039097Y006974D01*
X039091Y007002D01*
X039089Y007030D01*
X035639Y007030D02*
X035641Y007058D01*
X035647Y007086D01*
X035657Y007112D01*
X035670Y007137D01*
X035687Y007159D01*
X035707Y007179D01*
X035729Y007196D01*
X035754Y007209D01*
X035780Y007219D01*
X035808Y007225D01*
X035836Y007227D01*
X035864Y007225D01*
X035892Y007219D01*
X035918Y007209D01*
X035943Y007196D01*
X035965Y007179D01*
X035985Y007159D01*
X036002Y007137D01*
X036015Y007112D01*
X036025Y007086D01*
X036031Y007058D01*
X036033Y007030D01*
X036031Y007002D01*
X036025Y006974D01*
X036015Y006948D01*
X036002Y006923D01*
X035985Y006901D01*
X035965Y006881D01*
X035943Y006864D01*
X035918Y006851D01*
X035892Y006841D01*
X035864Y006835D01*
X035836Y006833D01*
X035808Y006835D01*
X035780Y006841D01*
X035754Y006851D01*
X035729Y006864D01*
X035707Y006881D01*
X035687Y006901D01*
X035670Y006923D01*
X035657Y006948D01*
X035647Y006974D01*
X035641Y007002D01*
X035639Y007030D01*
X032189Y007030D02*
X032191Y007058D01*
X032197Y007086D01*
X032207Y007112D01*
X032220Y007137D01*
X032237Y007159D01*
X032257Y007179D01*
X032279Y007196D01*
X032304Y007209D01*
X032330Y007219D01*
X032358Y007225D01*
X032386Y007227D01*
X032414Y007225D01*
X032442Y007219D01*
X032468Y007209D01*
X032493Y007196D01*
X032515Y007179D01*
X032535Y007159D01*
X032552Y007137D01*
X032565Y007112D01*
X032575Y007086D01*
X032581Y007058D01*
X032583Y007030D01*
X032581Y007002D01*
X032575Y006974D01*
X032565Y006948D01*
X032552Y006923D01*
X032535Y006901D01*
X032515Y006881D01*
X032493Y006864D01*
X032468Y006851D01*
X032442Y006841D01*
X032414Y006835D01*
X032386Y006833D01*
X032358Y006835D01*
X032330Y006841D01*
X032304Y006851D01*
X032279Y006864D01*
X032257Y006881D01*
X032237Y006901D01*
X032220Y006923D01*
X032207Y006948D01*
X032197Y006974D01*
X032191Y007002D01*
X032189Y007030D01*
X028739Y007030D02*
X028741Y007058D01*
X028747Y007086D01*
X028757Y007112D01*
X028770Y007137D01*
X028787Y007159D01*
X028807Y007179D01*
X028829Y007196D01*
X028854Y007209D01*
X028880Y007219D01*
X028908Y007225D01*
X028936Y007227D01*
X028964Y007225D01*
X028992Y007219D01*
X029018Y007209D01*
X029043Y007196D01*
X029065Y007179D01*
X029085Y007159D01*
X029102Y007137D01*
X029115Y007112D01*
X029125Y007086D01*
X029131Y007058D01*
X029133Y007030D01*
X029131Y007002D01*
X029125Y006974D01*
X029115Y006948D01*
X029102Y006923D01*
X029085Y006901D01*
X029065Y006881D01*
X029043Y006864D01*
X029018Y006851D01*
X028992Y006841D01*
X028964Y006835D01*
X028936Y006833D01*
X028908Y006835D01*
X028880Y006841D01*
X028854Y006851D01*
X028829Y006864D01*
X028807Y006881D01*
X028787Y006901D01*
X028770Y006923D01*
X028757Y006948D01*
X028747Y006974D01*
X028741Y007002D01*
X028739Y007030D01*
X025289Y007030D02*
X025291Y007058D01*
X025297Y007086D01*
X025307Y007112D01*
X025320Y007137D01*
X025337Y007159D01*
X025357Y007179D01*
X025379Y007196D01*
X025404Y007209D01*
X025430Y007219D01*
X025458Y007225D01*
X025486Y007227D01*
X025514Y007225D01*
X025542Y007219D01*
X025568Y007209D01*
X025593Y007196D01*
X025615Y007179D01*
X025635Y007159D01*
X025652Y007137D01*
X025665Y007112D01*
X025675Y007086D01*
X025681Y007058D01*
X025683Y007030D01*
X025681Y007002D01*
X025675Y006974D01*
X025665Y006948D01*
X025652Y006923D01*
X025635Y006901D01*
X025615Y006881D01*
X025593Y006864D01*
X025568Y006851D01*
X025542Y006841D01*
X025514Y006835D01*
X025486Y006833D01*
X025458Y006835D01*
X025430Y006841D01*
X025404Y006851D01*
X025379Y006864D01*
X025357Y006881D01*
X025337Y006901D01*
X025320Y006923D01*
X025307Y006948D01*
X025297Y006974D01*
X025291Y007002D01*
X025289Y007030D01*
X025289Y002670D02*
X025291Y002698D01*
X025297Y002726D01*
X025307Y002752D01*
X025320Y002777D01*
X025337Y002799D01*
X025357Y002819D01*
X025379Y002836D01*
X025404Y002849D01*
X025430Y002859D01*
X025458Y002865D01*
X025486Y002867D01*
X025514Y002865D01*
X025542Y002859D01*
X025568Y002849D01*
X025593Y002836D01*
X025615Y002819D01*
X025635Y002799D01*
X025652Y002777D01*
X025665Y002752D01*
X025675Y002726D01*
X025681Y002698D01*
X025683Y002670D01*
X025681Y002642D01*
X025675Y002614D01*
X025665Y002588D01*
X025652Y002563D01*
X025635Y002541D01*
X025615Y002521D01*
X025593Y002504D01*
X025568Y002491D01*
X025542Y002481D01*
X025514Y002475D01*
X025486Y002473D01*
X025458Y002475D01*
X025430Y002481D01*
X025404Y002491D01*
X025379Y002504D01*
X025357Y002521D01*
X025337Y002541D01*
X025320Y002563D01*
X025307Y002588D01*
X025297Y002614D01*
X025291Y002642D01*
X025289Y002670D01*
X028739Y002670D02*
X028741Y002698D01*
X028747Y002726D01*
X028757Y002752D01*
X028770Y002777D01*
X028787Y002799D01*
X028807Y002819D01*
X028829Y002836D01*
X028854Y002849D01*
X028880Y002859D01*
X028908Y002865D01*
X028936Y002867D01*
X028964Y002865D01*
X028992Y002859D01*
X029018Y002849D01*
X029043Y002836D01*
X029065Y002819D01*
X029085Y002799D01*
X029102Y002777D01*
X029115Y002752D01*
X029125Y002726D01*
X029131Y002698D01*
X029133Y002670D01*
X029131Y002642D01*
X029125Y002614D01*
X029115Y002588D01*
X029102Y002563D01*
X029085Y002541D01*
X029065Y002521D01*
X029043Y002504D01*
X029018Y002491D01*
X028992Y002481D01*
X028964Y002475D01*
X028936Y002473D01*
X028908Y002475D01*
X028880Y002481D01*
X028854Y002491D01*
X028829Y002504D01*
X028807Y002521D01*
X028787Y002541D01*
X028770Y002563D01*
X028757Y002588D01*
X028747Y002614D01*
X028741Y002642D01*
X028739Y002670D01*
X032189Y002670D02*
X032191Y002698D01*
X032197Y002726D01*
X032207Y002752D01*
X032220Y002777D01*
X032237Y002799D01*
X032257Y002819D01*
X032279Y002836D01*
X032304Y002849D01*
X032330Y002859D01*
X032358Y002865D01*
X032386Y002867D01*
X032414Y002865D01*
X032442Y002859D01*
X032468Y002849D01*
X032493Y002836D01*
X032515Y002819D01*
X032535Y002799D01*
X032552Y002777D01*
X032565Y002752D01*
X032575Y002726D01*
X032581Y002698D01*
X032583Y002670D01*
X032581Y002642D01*
X032575Y002614D01*
X032565Y002588D01*
X032552Y002563D01*
X032535Y002541D01*
X032515Y002521D01*
X032493Y002504D01*
X032468Y002491D01*
X032442Y002481D01*
X032414Y002475D01*
X032386Y002473D01*
X032358Y002475D01*
X032330Y002481D01*
X032304Y002491D01*
X032279Y002504D01*
X032257Y002521D01*
X032237Y002541D01*
X032220Y002563D01*
X032207Y002588D01*
X032197Y002614D01*
X032191Y002642D01*
X032189Y002670D01*
X035639Y002670D02*
X035641Y002698D01*
X035647Y002726D01*
X035657Y002752D01*
X035670Y002777D01*
X035687Y002799D01*
X035707Y002819D01*
X035729Y002836D01*
X035754Y002849D01*
X035780Y002859D01*
X035808Y002865D01*
X035836Y002867D01*
X035864Y002865D01*
X035892Y002859D01*
X035918Y002849D01*
X035943Y002836D01*
X035965Y002819D01*
X035985Y002799D01*
X036002Y002777D01*
X036015Y002752D01*
X036025Y002726D01*
X036031Y002698D01*
X036033Y002670D01*
X036031Y002642D01*
X036025Y002614D01*
X036015Y002588D01*
X036002Y002563D01*
X035985Y002541D01*
X035965Y002521D01*
X035943Y002504D01*
X035918Y002491D01*
X035892Y002481D01*
X035864Y002475D01*
X035836Y002473D01*
X035808Y002475D01*
X035780Y002481D01*
X035754Y002491D01*
X035729Y002504D01*
X035707Y002521D01*
X035687Y002541D01*
X035670Y002563D01*
X035657Y002588D01*
X035647Y002614D01*
X035641Y002642D01*
X035639Y002670D01*
X039089Y002670D02*
X039091Y002698D01*
X039097Y002726D01*
X039107Y002752D01*
X039120Y002777D01*
X039137Y002799D01*
X039157Y002819D01*
X039179Y002836D01*
X039204Y002849D01*
X039230Y002859D01*
X039258Y002865D01*
X039286Y002867D01*
X039314Y002865D01*
X039342Y002859D01*
X039368Y002849D01*
X039393Y002836D01*
X039415Y002819D01*
X039435Y002799D01*
X039452Y002777D01*
X039465Y002752D01*
X039475Y002726D01*
X039481Y002698D01*
X039483Y002670D01*
X039481Y002642D01*
X039475Y002614D01*
X039465Y002588D01*
X039452Y002563D01*
X039435Y002541D01*
X039415Y002521D01*
X039393Y002504D01*
X039368Y002491D01*
X039342Y002481D01*
X039314Y002475D01*
X039286Y002473D01*
X039258Y002475D01*
X039230Y002481D01*
X039204Y002491D01*
X039179Y002504D01*
X039157Y002521D01*
X039137Y002541D01*
X039120Y002563D01*
X039107Y002588D01*
X039097Y002614D01*
X039091Y002642D01*
X039089Y002670D01*
X042539Y002670D02*
X042541Y002698D01*
X042547Y002726D01*
X042557Y002752D01*
X042570Y002777D01*
X042587Y002799D01*
X042607Y002819D01*
X042629Y002836D01*
X042654Y002849D01*
X042680Y002859D01*
X042708Y002865D01*
X042736Y002867D01*
X042764Y002865D01*
X042792Y002859D01*
X042818Y002849D01*
X042843Y002836D01*
X042865Y002819D01*
X042885Y002799D01*
X042902Y002777D01*
X042915Y002752D01*
X042925Y002726D01*
X042931Y002698D01*
X042933Y002670D01*
X042931Y002642D01*
X042925Y002614D01*
X042915Y002588D01*
X042902Y002563D01*
X042885Y002541D01*
X042865Y002521D01*
X042843Y002504D01*
X042818Y002491D01*
X042792Y002481D01*
X042764Y002475D01*
X042736Y002473D01*
X042708Y002475D01*
X042680Y002481D01*
X042654Y002491D01*
X042629Y002504D01*
X042607Y002521D01*
X042587Y002541D01*
X042570Y002563D01*
X042557Y002588D01*
X042547Y002614D01*
X042541Y002642D01*
X042539Y002670D01*
X045989Y002670D02*
X045991Y002698D01*
X045997Y002726D01*
X046007Y002752D01*
X046020Y002777D01*
X046037Y002799D01*
X046057Y002819D01*
X046079Y002836D01*
X046104Y002849D01*
X046130Y002859D01*
X046158Y002865D01*
X046186Y002867D01*
X046214Y002865D01*
X046242Y002859D01*
X046268Y002849D01*
X046293Y002836D01*
X046315Y002819D01*
X046335Y002799D01*
X046352Y002777D01*
X046365Y002752D01*
X046375Y002726D01*
X046381Y002698D01*
X046383Y002670D01*
X046381Y002642D01*
X046375Y002614D01*
X046365Y002588D01*
X046352Y002563D01*
X046335Y002541D01*
X046315Y002521D01*
X046293Y002504D01*
X046268Y002491D01*
X046242Y002481D01*
X046214Y002475D01*
X046186Y002473D01*
X046158Y002475D01*
X046130Y002481D01*
X046104Y002491D01*
X046079Y002504D01*
X046057Y002521D01*
X046037Y002541D01*
X046020Y002563D01*
X046007Y002588D01*
X045997Y002614D01*
X045991Y002642D01*
X045989Y002670D01*
X049439Y002670D02*
X049441Y002698D01*
X049447Y002726D01*
X049457Y002752D01*
X049470Y002777D01*
X049487Y002799D01*
X049507Y002819D01*
X049529Y002836D01*
X049554Y002849D01*
X049580Y002859D01*
X049608Y002865D01*
X049636Y002867D01*
X049664Y002865D01*
X049692Y002859D01*
X049718Y002849D01*
X049743Y002836D01*
X049765Y002819D01*
X049785Y002799D01*
X049802Y002777D01*
X049815Y002752D01*
X049825Y002726D01*
X049831Y002698D01*
X049833Y002670D01*
X049831Y002642D01*
X049825Y002614D01*
X049815Y002588D01*
X049802Y002563D01*
X049785Y002541D01*
X049765Y002521D01*
X049743Y002504D01*
X049718Y002491D01*
X049692Y002481D01*
X049664Y002475D01*
X049636Y002473D01*
X049608Y002475D01*
X049580Y002481D01*
X049554Y002491D01*
X049529Y002504D01*
X049507Y002521D01*
X049487Y002541D01*
X049470Y002563D01*
X049457Y002588D01*
X049447Y002614D01*
X049441Y002642D01*
X049439Y002670D01*
X052889Y002670D02*
X052891Y002698D01*
X052897Y002726D01*
X052907Y002752D01*
X052920Y002777D01*
X052937Y002799D01*
X052957Y002819D01*
X052979Y002836D01*
X053004Y002849D01*
X053030Y002859D01*
X053058Y002865D01*
X053086Y002867D01*
X053114Y002865D01*
X053142Y002859D01*
X053168Y002849D01*
X053193Y002836D01*
X053215Y002819D01*
X053235Y002799D01*
X053252Y002777D01*
X053265Y002752D01*
X053275Y002726D01*
X053281Y002698D01*
X053283Y002670D01*
X053281Y002642D01*
X053275Y002614D01*
X053265Y002588D01*
X053252Y002563D01*
X053235Y002541D01*
X053215Y002521D01*
X053193Y002504D01*
X053168Y002491D01*
X053142Y002481D01*
X053114Y002475D01*
X053086Y002473D01*
X053058Y002475D01*
X053030Y002481D01*
X053004Y002491D01*
X052979Y002504D01*
X052957Y002521D01*
X052937Y002541D01*
X052920Y002563D01*
X052907Y002588D01*
X052897Y002614D01*
X052891Y002642D01*
X052889Y002670D01*
X056339Y002670D02*
X056341Y002698D01*
X056347Y002726D01*
X056357Y002752D01*
X056370Y002777D01*
X056387Y002799D01*
X056407Y002819D01*
X056429Y002836D01*
X056454Y002849D01*
X056480Y002859D01*
X056508Y002865D01*
X056536Y002867D01*
X056564Y002865D01*
X056592Y002859D01*
X056618Y002849D01*
X056643Y002836D01*
X056665Y002819D01*
X056685Y002799D01*
X056702Y002777D01*
X056715Y002752D01*
X056725Y002726D01*
X056731Y002698D01*
X056733Y002670D01*
X056731Y002642D01*
X056725Y002614D01*
X056715Y002588D01*
X056702Y002563D01*
X056685Y002541D01*
X056665Y002521D01*
X056643Y002504D01*
X056618Y002491D01*
X056592Y002481D01*
X056564Y002475D01*
X056536Y002473D01*
X056508Y002475D01*
X056480Y002481D01*
X056454Y002491D01*
X056429Y002504D01*
X056407Y002521D01*
X056387Y002541D01*
X056370Y002563D01*
X056357Y002588D01*
X056347Y002614D01*
X056341Y002642D01*
X056339Y002670D01*
X059789Y002670D02*
X059791Y002698D01*
X059797Y002726D01*
X059807Y002752D01*
X059820Y002777D01*
X059837Y002799D01*
X059857Y002819D01*
X059879Y002836D01*
X059904Y002849D01*
X059930Y002859D01*
X059958Y002865D01*
X059986Y002867D01*
X060014Y002865D01*
X060042Y002859D01*
X060068Y002849D01*
X060093Y002836D01*
X060115Y002819D01*
X060135Y002799D01*
X060152Y002777D01*
X060165Y002752D01*
X060175Y002726D01*
X060181Y002698D01*
X060183Y002670D01*
X060181Y002642D01*
X060175Y002614D01*
X060165Y002588D01*
X060152Y002563D01*
X060135Y002541D01*
X060115Y002521D01*
X060093Y002504D01*
X060068Y002491D01*
X060042Y002481D01*
X060014Y002475D01*
X059986Y002473D01*
X059958Y002475D01*
X059930Y002481D01*
X059904Y002491D01*
X059879Y002504D01*
X059857Y002521D01*
X059837Y002541D01*
X059820Y002563D01*
X059807Y002588D01*
X059797Y002614D01*
X059791Y002642D01*
X059789Y002670D01*
X063239Y002670D02*
X063241Y002698D01*
X063247Y002726D01*
X063257Y002752D01*
X063270Y002777D01*
X063287Y002799D01*
X063307Y002819D01*
X063329Y002836D01*
X063354Y002849D01*
X063380Y002859D01*
X063408Y002865D01*
X063436Y002867D01*
X063464Y002865D01*
X063492Y002859D01*
X063518Y002849D01*
X063543Y002836D01*
X063565Y002819D01*
X063585Y002799D01*
X063602Y002777D01*
X063615Y002752D01*
X063625Y002726D01*
X063631Y002698D01*
X063633Y002670D01*
X063631Y002642D01*
X063625Y002614D01*
X063615Y002588D01*
X063602Y002563D01*
X063585Y002541D01*
X063565Y002521D01*
X063543Y002504D01*
X063518Y002491D01*
X063492Y002481D01*
X063464Y002475D01*
X063436Y002473D01*
X063408Y002475D01*
X063380Y002481D01*
X063354Y002491D01*
X063329Y002504D01*
X063307Y002521D01*
X063287Y002541D01*
X063270Y002563D01*
X063257Y002588D01*
X063247Y002614D01*
X063241Y002642D01*
X063239Y002670D01*
X066689Y002670D02*
X066691Y002698D01*
X066697Y002726D01*
X066707Y002752D01*
X066720Y002777D01*
X066737Y002799D01*
X066757Y002819D01*
X066779Y002836D01*
X066804Y002849D01*
X066830Y002859D01*
X066858Y002865D01*
X066886Y002867D01*
X066914Y002865D01*
X066942Y002859D01*
X066968Y002849D01*
X066993Y002836D01*
X067015Y002819D01*
X067035Y002799D01*
X067052Y002777D01*
X067065Y002752D01*
X067075Y002726D01*
X067081Y002698D01*
X067083Y002670D01*
X067081Y002642D01*
X067075Y002614D01*
X067065Y002588D01*
X067052Y002563D01*
X067035Y002541D01*
X067015Y002521D01*
X066993Y002504D01*
X066968Y002491D01*
X066942Y002481D01*
X066914Y002475D01*
X066886Y002473D01*
X066858Y002475D01*
X066830Y002481D01*
X066804Y002491D01*
X066779Y002504D01*
X066757Y002521D01*
X066737Y002541D01*
X066720Y002563D01*
X066707Y002588D01*
X066697Y002614D01*
X066691Y002642D01*
X066689Y002670D01*
X070139Y002670D02*
X070141Y002698D01*
X070147Y002726D01*
X070157Y002752D01*
X070170Y002777D01*
X070187Y002799D01*
X070207Y002819D01*
X070229Y002836D01*
X070254Y002849D01*
X070280Y002859D01*
X070308Y002865D01*
X070336Y002867D01*
X070364Y002865D01*
X070392Y002859D01*
X070418Y002849D01*
X070443Y002836D01*
X070465Y002819D01*
X070485Y002799D01*
X070502Y002777D01*
X070515Y002752D01*
X070525Y002726D01*
X070531Y002698D01*
X070533Y002670D01*
X070531Y002642D01*
X070525Y002614D01*
X070515Y002588D01*
X070502Y002563D01*
X070485Y002541D01*
X070465Y002521D01*
X070443Y002504D01*
X070418Y002491D01*
X070392Y002481D01*
X070364Y002475D01*
X070336Y002473D01*
X070308Y002475D01*
X070280Y002481D01*
X070254Y002491D01*
X070229Y002504D01*
X070207Y002521D01*
X070187Y002541D01*
X070170Y002563D01*
X070157Y002588D01*
X070147Y002614D01*
X070141Y002642D01*
X070139Y002670D01*
X073589Y002670D02*
X073591Y002698D01*
X073597Y002726D01*
X073607Y002752D01*
X073620Y002777D01*
X073637Y002799D01*
X073657Y002819D01*
X073679Y002836D01*
X073704Y002849D01*
X073730Y002859D01*
X073758Y002865D01*
X073786Y002867D01*
X073814Y002865D01*
X073842Y002859D01*
X073868Y002849D01*
X073893Y002836D01*
X073915Y002819D01*
X073935Y002799D01*
X073952Y002777D01*
X073965Y002752D01*
X073975Y002726D01*
X073981Y002698D01*
X073983Y002670D01*
X073981Y002642D01*
X073975Y002614D01*
X073965Y002588D01*
X073952Y002563D01*
X073935Y002541D01*
X073915Y002521D01*
X073893Y002504D01*
X073868Y002491D01*
X073842Y002481D01*
X073814Y002475D01*
X073786Y002473D01*
X073758Y002475D01*
X073730Y002481D01*
X073704Y002491D01*
X073679Y002504D01*
X073657Y002521D01*
X073637Y002541D01*
X073620Y002563D01*
X073607Y002588D01*
X073597Y002614D01*
X073591Y002642D01*
X073589Y002670D01*
X077039Y002670D02*
X077041Y002698D01*
X077047Y002726D01*
X077057Y002752D01*
X077070Y002777D01*
X077087Y002799D01*
X077107Y002819D01*
X077129Y002836D01*
X077154Y002849D01*
X077180Y002859D01*
X077208Y002865D01*
X077236Y002867D01*
X077264Y002865D01*
X077292Y002859D01*
X077318Y002849D01*
X077343Y002836D01*
X077365Y002819D01*
X077385Y002799D01*
X077402Y002777D01*
X077415Y002752D01*
X077425Y002726D01*
X077431Y002698D01*
X077433Y002670D01*
X077431Y002642D01*
X077425Y002614D01*
X077415Y002588D01*
X077402Y002563D01*
X077385Y002541D01*
X077365Y002521D01*
X077343Y002504D01*
X077318Y002491D01*
X077292Y002481D01*
X077264Y002475D01*
X077236Y002473D01*
X077208Y002475D01*
X077180Y002481D01*
X077154Y002491D01*
X077129Y002504D01*
X077107Y002521D01*
X077087Y002541D01*
X077070Y002563D01*
X077057Y002588D01*
X077047Y002614D01*
X077041Y002642D01*
X077039Y002670D01*
X080489Y002670D02*
X080491Y002698D01*
X080497Y002726D01*
X080507Y002752D01*
X080520Y002777D01*
X080537Y002799D01*
X080557Y002819D01*
X080579Y002836D01*
X080604Y002849D01*
X080630Y002859D01*
X080658Y002865D01*
X080686Y002867D01*
X080714Y002865D01*
X080742Y002859D01*
X080768Y002849D01*
X080793Y002836D01*
X080815Y002819D01*
X080835Y002799D01*
X080852Y002777D01*
X080865Y002752D01*
X080875Y002726D01*
X080881Y002698D01*
X080883Y002670D01*
X080881Y002642D01*
X080875Y002614D01*
X080865Y002588D01*
X080852Y002563D01*
X080835Y002541D01*
X080815Y002521D01*
X080793Y002504D01*
X080768Y002491D01*
X080742Y002481D01*
X080714Y002475D01*
X080686Y002473D01*
X080658Y002475D01*
X080630Y002481D01*
X080604Y002491D01*
X080579Y002504D01*
X080557Y002521D01*
X080537Y002541D01*
X080520Y002563D01*
X080507Y002588D01*
X080497Y002614D01*
X080491Y002642D01*
X080489Y002670D01*
X083939Y002670D02*
X083941Y002698D01*
X083947Y002726D01*
X083957Y002752D01*
X083970Y002777D01*
X083987Y002799D01*
X084007Y002819D01*
X084029Y002836D01*
X084054Y002849D01*
X084080Y002859D01*
X084108Y002865D01*
X084136Y002867D01*
X084164Y002865D01*
X084192Y002859D01*
X084218Y002849D01*
X084243Y002836D01*
X084265Y002819D01*
X084285Y002799D01*
X084302Y002777D01*
X084315Y002752D01*
X084325Y002726D01*
X084331Y002698D01*
X084333Y002670D01*
X084331Y002642D01*
X084325Y002614D01*
X084315Y002588D01*
X084302Y002563D01*
X084285Y002541D01*
X084265Y002521D01*
X084243Y002504D01*
X084218Y002491D01*
X084192Y002481D01*
X084164Y002475D01*
X084136Y002473D01*
X084108Y002475D01*
X084080Y002481D01*
X084054Y002491D01*
X084029Y002504D01*
X084007Y002521D01*
X083987Y002541D01*
X083970Y002563D01*
X083957Y002588D01*
X083947Y002614D01*
X083941Y002642D01*
X083939Y002670D01*
X083939Y035340D02*
X083941Y035368D01*
X083947Y035396D01*
X083957Y035422D01*
X083970Y035447D01*
X083987Y035469D01*
X084007Y035489D01*
X084029Y035506D01*
X084054Y035519D01*
X084080Y035529D01*
X084108Y035535D01*
X084136Y035537D01*
X084164Y035535D01*
X084192Y035529D01*
X084218Y035519D01*
X084243Y035506D01*
X084265Y035489D01*
X084285Y035469D01*
X084302Y035447D01*
X084315Y035422D01*
X084325Y035396D01*
X084331Y035368D01*
X084333Y035340D01*
X084331Y035312D01*
X084325Y035284D01*
X084315Y035258D01*
X084302Y035233D01*
X084285Y035211D01*
X084265Y035191D01*
X084243Y035174D01*
X084218Y035161D01*
X084192Y035151D01*
X084164Y035145D01*
X084136Y035143D01*
X084108Y035145D01*
X084080Y035151D01*
X084054Y035161D01*
X084029Y035174D01*
X084007Y035191D01*
X083987Y035211D01*
X083970Y035233D01*
X083957Y035258D01*
X083947Y035284D01*
X083941Y035312D01*
X083939Y035340D01*
X080489Y035340D02*
X080491Y035368D01*
X080497Y035396D01*
X080507Y035422D01*
X080520Y035447D01*
X080537Y035469D01*
X080557Y035489D01*
X080579Y035506D01*
X080604Y035519D01*
X080630Y035529D01*
X080658Y035535D01*
X080686Y035537D01*
X080714Y035535D01*
X080742Y035529D01*
X080768Y035519D01*
X080793Y035506D01*
X080815Y035489D01*
X080835Y035469D01*
X080852Y035447D01*
X080865Y035422D01*
X080875Y035396D01*
X080881Y035368D01*
X080883Y035340D01*
X080881Y035312D01*
X080875Y035284D01*
X080865Y035258D01*
X080852Y035233D01*
X080835Y035211D01*
X080815Y035191D01*
X080793Y035174D01*
X080768Y035161D01*
X080742Y035151D01*
X080714Y035145D01*
X080686Y035143D01*
X080658Y035145D01*
X080630Y035151D01*
X080604Y035161D01*
X080579Y035174D01*
X080557Y035191D01*
X080537Y035211D01*
X080520Y035233D01*
X080507Y035258D01*
X080497Y035284D01*
X080491Y035312D01*
X080489Y035340D01*
X077039Y035340D02*
X077041Y035368D01*
X077047Y035396D01*
X077057Y035422D01*
X077070Y035447D01*
X077087Y035469D01*
X077107Y035489D01*
X077129Y035506D01*
X077154Y035519D01*
X077180Y035529D01*
X077208Y035535D01*
X077236Y035537D01*
X077264Y035535D01*
X077292Y035529D01*
X077318Y035519D01*
X077343Y035506D01*
X077365Y035489D01*
X077385Y035469D01*
X077402Y035447D01*
X077415Y035422D01*
X077425Y035396D01*
X077431Y035368D01*
X077433Y035340D01*
X077431Y035312D01*
X077425Y035284D01*
X077415Y035258D01*
X077402Y035233D01*
X077385Y035211D01*
X077365Y035191D01*
X077343Y035174D01*
X077318Y035161D01*
X077292Y035151D01*
X077264Y035145D01*
X077236Y035143D01*
X077208Y035145D01*
X077180Y035151D01*
X077154Y035161D01*
X077129Y035174D01*
X077107Y035191D01*
X077087Y035211D01*
X077070Y035233D01*
X077057Y035258D01*
X077047Y035284D01*
X077041Y035312D01*
X077039Y035340D01*
X073589Y035340D02*
X073591Y035368D01*
X073597Y035396D01*
X073607Y035422D01*
X073620Y035447D01*
X073637Y035469D01*
X073657Y035489D01*
X073679Y035506D01*
X073704Y035519D01*
X073730Y035529D01*
X073758Y035535D01*
X073786Y035537D01*
X073814Y035535D01*
X073842Y035529D01*
X073868Y035519D01*
X073893Y035506D01*
X073915Y035489D01*
X073935Y035469D01*
X073952Y035447D01*
X073965Y035422D01*
X073975Y035396D01*
X073981Y035368D01*
X073983Y035340D01*
X073981Y035312D01*
X073975Y035284D01*
X073965Y035258D01*
X073952Y035233D01*
X073935Y035211D01*
X073915Y035191D01*
X073893Y035174D01*
X073868Y035161D01*
X073842Y035151D01*
X073814Y035145D01*
X073786Y035143D01*
X073758Y035145D01*
X073730Y035151D01*
X073704Y035161D01*
X073679Y035174D01*
X073657Y035191D01*
X073637Y035211D01*
X073620Y035233D01*
X073607Y035258D01*
X073597Y035284D01*
X073591Y035312D01*
X073589Y035340D01*
X070139Y035340D02*
X070141Y035368D01*
X070147Y035396D01*
X070157Y035422D01*
X070170Y035447D01*
X070187Y035469D01*
X070207Y035489D01*
X070229Y035506D01*
X070254Y035519D01*
X070280Y035529D01*
X070308Y035535D01*
X070336Y035537D01*
X070364Y035535D01*
X070392Y035529D01*
X070418Y035519D01*
X070443Y035506D01*
X070465Y035489D01*
X070485Y035469D01*
X070502Y035447D01*
X070515Y035422D01*
X070525Y035396D01*
X070531Y035368D01*
X070533Y035340D01*
X070531Y035312D01*
X070525Y035284D01*
X070515Y035258D01*
X070502Y035233D01*
X070485Y035211D01*
X070465Y035191D01*
X070443Y035174D01*
X070418Y035161D01*
X070392Y035151D01*
X070364Y035145D01*
X070336Y035143D01*
X070308Y035145D01*
X070280Y035151D01*
X070254Y035161D01*
X070229Y035174D01*
X070207Y035191D01*
X070187Y035211D01*
X070170Y035233D01*
X070157Y035258D01*
X070147Y035284D01*
X070141Y035312D01*
X070139Y035340D01*
X066689Y035340D02*
X066691Y035368D01*
X066697Y035396D01*
X066707Y035422D01*
X066720Y035447D01*
X066737Y035469D01*
X066757Y035489D01*
X066779Y035506D01*
X066804Y035519D01*
X066830Y035529D01*
X066858Y035535D01*
X066886Y035537D01*
X066914Y035535D01*
X066942Y035529D01*
X066968Y035519D01*
X066993Y035506D01*
X067015Y035489D01*
X067035Y035469D01*
X067052Y035447D01*
X067065Y035422D01*
X067075Y035396D01*
X067081Y035368D01*
X067083Y035340D01*
X067081Y035312D01*
X067075Y035284D01*
X067065Y035258D01*
X067052Y035233D01*
X067035Y035211D01*
X067015Y035191D01*
X066993Y035174D01*
X066968Y035161D01*
X066942Y035151D01*
X066914Y035145D01*
X066886Y035143D01*
X066858Y035145D01*
X066830Y035151D01*
X066804Y035161D01*
X066779Y035174D01*
X066757Y035191D01*
X066737Y035211D01*
X066720Y035233D01*
X066707Y035258D01*
X066697Y035284D01*
X066691Y035312D01*
X066689Y035340D01*
X063239Y035340D02*
X063241Y035368D01*
X063247Y035396D01*
X063257Y035422D01*
X063270Y035447D01*
X063287Y035469D01*
X063307Y035489D01*
X063329Y035506D01*
X063354Y035519D01*
X063380Y035529D01*
X063408Y035535D01*
X063436Y035537D01*
X063464Y035535D01*
X063492Y035529D01*
X063518Y035519D01*
X063543Y035506D01*
X063565Y035489D01*
X063585Y035469D01*
X063602Y035447D01*
X063615Y035422D01*
X063625Y035396D01*
X063631Y035368D01*
X063633Y035340D01*
X063631Y035312D01*
X063625Y035284D01*
X063615Y035258D01*
X063602Y035233D01*
X063585Y035211D01*
X063565Y035191D01*
X063543Y035174D01*
X063518Y035161D01*
X063492Y035151D01*
X063464Y035145D01*
X063436Y035143D01*
X063408Y035145D01*
X063380Y035151D01*
X063354Y035161D01*
X063329Y035174D01*
X063307Y035191D01*
X063287Y035211D01*
X063270Y035233D01*
X063257Y035258D01*
X063247Y035284D01*
X063241Y035312D01*
X063239Y035340D01*
X059789Y035340D02*
X059791Y035368D01*
X059797Y035396D01*
X059807Y035422D01*
X059820Y035447D01*
X059837Y035469D01*
X059857Y035489D01*
X059879Y035506D01*
X059904Y035519D01*
X059930Y035529D01*
X059958Y035535D01*
X059986Y035537D01*
X060014Y035535D01*
X060042Y035529D01*
X060068Y035519D01*
X060093Y035506D01*
X060115Y035489D01*
X060135Y035469D01*
X060152Y035447D01*
X060165Y035422D01*
X060175Y035396D01*
X060181Y035368D01*
X060183Y035340D01*
X060181Y035312D01*
X060175Y035284D01*
X060165Y035258D01*
X060152Y035233D01*
X060135Y035211D01*
X060115Y035191D01*
X060093Y035174D01*
X060068Y035161D01*
X060042Y035151D01*
X060014Y035145D01*
X059986Y035143D01*
X059958Y035145D01*
X059930Y035151D01*
X059904Y035161D01*
X059879Y035174D01*
X059857Y035191D01*
X059837Y035211D01*
X059820Y035233D01*
X059807Y035258D01*
X059797Y035284D01*
X059791Y035312D01*
X059789Y035340D01*
X056339Y035340D02*
X056341Y035368D01*
X056347Y035396D01*
X056357Y035422D01*
X056370Y035447D01*
X056387Y035469D01*
X056407Y035489D01*
X056429Y035506D01*
X056454Y035519D01*
X056480Y035529D01*
X056508Y035535D01*
X056536Y035537D01*
X056564Y035535D01*
X056592Y035529D01*
X056618Y035519D01*
X056643Y035506D01*
X056665Y035489D01*
X056685Y035469D01*
X056702Y035447D01*
X056715Y035422D01*
X056725Y035396D01*
X056731Y035368D01*
X056733Y035340D01*
X056731Y035312D01*
X056725Y035284D01*
X056715Y035258D01*
X056702Y035233D01*
X056685Y035211D01*
X056665Y035191D01*
X056643Y035174D01*
X056618Y035161D01*
X056592Y035151D01*
X056564Y035145D01*
X056536Y035143D01*
X056508Y035145D01*
X056480Y035151D01*
X056454Y035161D01*
X056429Y035174D01*
X056407Y035191D01*
X056387Y035211D01*
X056370Y035233D01*
X056357Y035258D01*
X056347Y035284D01*
X056341Y035312D01*
X056339Y035340D01*
X052889Y035340D02*
X052891Y035368D01*
X052897Y035396D01*
X052907Y035422D01*
X052920Y035447D01*
X052937Y035469D01*
X052957Y035489D01*
X052979Y035506D01*
X053004Y035519D01*
X053030Y035529D01*
X053058Y035535D01*
X053086Y035537D01*
X053114Y035535D01*
X053142Y035529D01*
X053168Y035519D01*
X053193Y035506D01*
X053215Y035489D01*
X053235Y035469D01*
X053252Y035447D01*
X053265Y035422D01*
X053275Y035396D01*
X053281Y035368D01*
X053283Y035340D01*
X053281Y035312D01*
X053275Y035284D01*
X053265Y035258D01*
X053252Y035233D01*
X053235Y035211D01*
X053215Y035191D01*
X053193Y035174D01*
X053168Y035161D01*
X053142Y035151D01*
X053114Y035145D01*
X053086Y035143D01*
X053058Y035145D01*
X053030Y035151D01*
X053004Y035161D01*
X052979Y035174D01*
X052957Y035191D01*
X052937Y035211D01*
X052920Y035233D01*
X052907Y035258D01*
X052897Y035284D01*
X052891Y035312D01*
X052889Y035340D01*
X049439Y035340D02*
X049441Y035368D01*
X049447Y035396D01*
X049457Y035422D01*
X049470Y035447D01*
X049487Y035469D01*
X049507Y035489D01*
X049529Y035506D01*
X049554Y035519D01*
X049580Y035529D01*
X049608Y035535D01*
X049636Y035537D01*
X049664Y035535D01*
X049692Y035529D01*
X049718Y035519D01*
X049743Y035506D01*
X049765Y035489D01*
X049785Y035469D01*
X049802Y035447D01*
X049815Y035422D01*
X049825Y035396D01*
X049831Y035368D01*
X049833Y035340D01*
X049831Y035312D01*
X049825Y035284D01*
X049815Y035258D01*
X049802Y035233D01*
X049785Y035211D01*
X049765Y035191D01*
X049743Y035174D01*
X049718Y035161D01*
X049692Y035151D01*
X049664Y035145D01*
X049636Y035143D01*
X049608Y035145D01*
X049580Y035151D01*
X049554Y035161D01*
X049529Y035174D01*
X049507Y035191D01*
X049487Y035211D01*
X049470Y035233D01*
X049457Y035258D01*
X049447Y035284D01*
X049441Y035312D01*
X049439Y035340D01*
X045989Y035340D02*
X045991Y035368D01*
X045997Y035396D01*
X046007Y035422D01*
X046020Y035447D01*
X046037Y035469D01*
X046057Y035489D01*
X046079Y035506D01*
X046104Y035519D01*
X046130Y035529D01*
X046158Y035535D01*
X046186Y035537D01*
X046214Y035535D01*
X046242Y035529D01*
X046268Y035519D01*
X046293Y035506D01*
X046315Y035489D01*
X046335Y035469D01*
X046352Y035447D01*
X046365Y035422D01*
X046375Y035396D01*
X046381Y035368D01*
X046383Y035340D01*
X046381Y035312D01*
X046375Y035284D01*
X046365Y035258D01*
X046352Y035233D01*
X046335Y035211D01*
X046315Y035191D01*
X046293Y035174D01*
X046268Y035161D01*
X046242Y035151D01*
X046214Y035145D01*
X046186Y035143D01*
X046158Y035145D01*
X046130Y035151D01*
X046104Y035161D01*
X046079Y035174D01*
X046057Y035191D01*
X046037Y035211D01*
X046020Y035233D01*
X046007Y035258D01*
X045997Y035284D01*
X045991Y035312D01*
X045989Y035340D01*
X042539Y035340D02*
X042541Y035368D01*
X042547Y035396D01*
X042557Y035422D01*
X042570Y035447D01*
X042587Y035469D01*
X042607Y035489D01*
X042629Y035506D01*
X042654Y035519D01*
X042680Y035529D01*
X042708Y035535D01*
X042736Y035537D01*
X042764Y035535D01*
X042792Y035529D01*
X042818Y035519D01*
X042843Y035506D01*
X042865Y035489D01*
X042885Y035469D01*
X042902Y035447D01*
X042915Y035422D01*
X042925Y035396D01*
X042931Y035368D01*
X042933Y035340D01*
X042931Y035312D01*
X042925Y035284D01*
X042915Y035258D01*
X042902Y035233D01*
X042885Y035211D01*
X042865Y035191D01*
X042843Y035174D01*
X042818Y035161D01*
X042792Y035151D01*
X042764Y035145D01*
X042736Y035143D01*
X042708Y035145D01*
X042680Y035151D01*
X042654Y035161D01*
X042629Y035174D01*
X042607Y035191D01*
X042587Y035211D01*
X042570Y035233D01*
X042557Y035258D01*
X042547Y035284D01*
X042541Y035312D01*
X042539Y035340D01*
X039089Y035340D02*
X039091Y035368D01*
X039097Y035396D01*
X039107Y035422D01*
X039120Y035447D01*
X039137Y035469D01*
X039157Y035489D01*
X039179Y035506D01*
X039204Y035519D01*
X039230Y035529D01*
X039258Y035535D01*
X039286Y035537D01*
X039314Y035535D01*
X039342Y035529D01*
X039368Y035519D01*
X039393Y035506D01*
X039415Y035489D01*
X039435Y035469D01*
X039452Y035447D01*
X039465Y035422D01*
X039475Y035396D01*
X039481Y035368D01*
X039483Y035340D01*
X039481Y035312D01*
X039475Y035284D01*
X039465Y035258D01*
X039452Y035233D01*
X039435Y035211D01*
X039415Y035191D01*
X039393Y035174D01*
X039368Y035161D01*
X039342Y035151D01*
X039314Y035145D01*
X039286Y035143D01*
X039258Y035145D01*
X039230Y035151D01*
X039204Y035161D01*
X039179Y035174D01*
X039157Y035191D01*
X039137Y035211D01*
X039120Y035233D01*
X039107Y035258D01*
X039097Y035284D01*
X039091Y035312D01*
X039089Y035340D01*
X035639Y035340D02*
X035641Y035368D01*
X035647Y035396D01*
X035657Y035422D01*
X035670Y035447D01*
X035687Y035469D01*
X035707Y035489D01*
X035729Y035506D01*
X035754Y035519D01*
X035780Y035529D01*
X035808Y035535D01*
X035836Y035537D01*
X035864Y035535D01*
X035892Y035529D01*
X035918Y035519D01*
X035943Y035506D01*
X035965Y035489D01*
X035985Y035469D01*
X036002Y035447D01*
X036015Y035422D01*
X036025Y035396D01*
X036031Y035368D01*
X036033Y035340D01*
X036031Y035312D01*
X036025Y035284D01*
X036015Y035258D01*
X036002Y035233D01*
X035985Y035211D01*
X035965Y035191D01*
X035943Y035174D01*
X035918Y035161D01*
X035892Y035151D01*
X035864Y035145D01*
X035836Y035143D01*
X035808Y035145D01*
X035780Y035151D01*
X035754Y035161D01*
X035729Y035174D01*
X035707Y035191D01*
X035687Y035211D01*
X035670Y035233D01*
X035657Y035258D01*
X035647Y035284D01*
X035641Y035312D01*
X035639Y035340D01*
X032189Y035340D02*
X032191Y035368D01*
X032197Y035396D01*
X032207Y035422D01*
X032220Y035447D01*
X032237Y035469D01*
X032257Y035489D01*
X032279Y035506D01*
X032304Y035519D01*
X032330Y035529D01*
X032358Y035535D01*
X032386Y035537D01*
X032414Y035535D01*
X032442Y035529D01*
X032468Y035519D01*
X032493Y035506D01*
X032515Y035489D01*
X032535Y035469D01*
X032552Y035447D01*
X032565Y035422D01*
X032575Y035396D01*
X032581Y035368D01*
X032583Y035340D01*
X032581Y035312D01*
X032575Y035284D01*
X032565Y035258D01*
X032552Y035233D01*
X032535Y035211D01*
X032515Y035191D01*
X032493Y035174D01*
X032468Y035161D01*
X032442Y035151D01*
X032414Y035145D01*
X032386Y035143D01*
X032358Y035145D01*
X032330Y035151D01*
X032304Y035161D01*
X032279Y035174D01*
X032257Y035191D01*
X032237Y035211D01*
X032220Y035233D01*
X032207Y035258D01*
X032197Y035284D01*
X032191Y035312D01*
X032189Y035340D01*
X028739Y035340D02*
X028741Y035368D01*
X028747Y035396D01*
X028757Y035422D01*
X028770Y035447D01*
X028787Y035469D01*
X028807Y035489D01*
X028829Y035506D01*
X028854Y035519D01*
X028880Y035529D01*
X028908Y035535D01*
X028936Y035537D01*
X028964Y035535D01*
X028992Y035529D01*
X029018Y035519D01*
X029043Y035506D01*
X029065Y035489D01*
X029085Y035469D01*
X029102Y035447D01*
X029115Y035422D01*
X029125Y035396D01*
X029131Y035368D01*
X029133Y035340D01*
X029131Y035312D01*
X029125Y035284D01*
X029115Y035258D01*
X029102Y035233D01*
X029085Y035211D01*
X029065Y035191D01*
X029043Y035174D01*
X029018Y035161D01*
X028992Y035151D01*
X028964Y035145D01*
X028936Y035143D01*
X028908Y035145D01*
X028880Y035151D01*
X028854Y035161D01*
X028829Y035174D01*
X028807Y035191D01*
X028787Y035211D01*
X028770Y035233D01*
X028757Y035258D01*
X028747Y035284D01*
X028741Y035312D01*
X028739Y035340D01*
X025289Y035340D02*
X025291Y035368D01*
X025297Y035396D01*
X025307Y035422D01*
X025320Y035447D01*
X025337Y035469D01*
X025357Y035489D01*
X025379Y035506D01*
X025404Y035519D01*
X025430Y035529D01*
X025458Y035535D01*
X025486Y035537D01*
X025514Y035535D01*
X025542Y035529D01*
X025568Y035519D01*
X025593Y035506D01*
X025615Y035489D01*
X025635Y035469D01*
X025652Y035447D01*
X025665Y035422D01*
X025675Y035396D01*
X025681Y035368D01*
X025683Y035340D01*
X025681Y035312D01*
X025675Y035284D01*
X025665Y035258D01*
X025652Y035233D01*
X025635Y035211D01*
X025615Y035191D01*
X025593Y035174D01*
X025568Y035161D01*
X025542Y035151D01*
X025514Y035145D01*
X025486Y035143D01*
X025458Y035145D01*
X025430Y035151D01*
X025404Y035161D01*
X025379Y035174D01*
X025357Y035191D01*
X025337Y035211D01*
X025320Y035233D01*
X025307Y035258D01*
X025297Y035284D01*
X025291Y035312D01*
X025289Y035340D01*
X025289Y039700D02*
X025291Y039728D01*
X025297Y039756D01*
X025307Y039782D01*
X025320Y039807D01*
X025337Y039829D01*
X025357Y039849D01*
X025379Y039866D01*
X025404Y039879D01*
X025430Y039889D01*
X025458Y039895D01*
X025486Y039897D01*
X025514Y039895D01*
X025542Y039889D01*
X025568Y039879D01*
X025593Y039866D01*
X025615Y039849D01*
X025635Y039829D01*
X025652Y039807D01*
X025665Y039782D01*
X025675Y039756D01*
X025681Y039728D01*
X025683Y039700D01*
X025681Y039672D01*
X025675Y039644D01*
X025665Y039618D01*
X025652Y039593D01*
X025635Y039571D01*
X025615Y039551D01*
X025593Y039534D01*
X025568Y039521D01*
X025542Y039511D01*
X025514Y039505D01*
X025486Y039503D01*
X025458Y039505D01*
X025430Y039511D01*
X025404Y039521D01*
X025379Y039534D01*
X025357Y039551D01*
X025337Y039571D01*
X025320Y039593D01*
X025307Y039618D01*
X025297Y039644D01*
X025291Y039672D01*
X025289Y039700D01*
X028739Y039700D02*
X028741Y039728D01*
X028747Y039756D01*
X028757Y039782D01*
X028770Y039807D01*
X028787Y039829D01*
X028807Y039849D01*
X028829Y039866D01*
X028854Y039879D01*
X028880Y039889D01*
X028908Y039895D01*
X028936Y039897D01*
X028964Y039895D01*
X028992Y039889D01*
X029018Y039879D01*
X029043Y039866D01*
X029065Y039849D01*
X029085Y039829D01*
X029102Y039807D01*
X029115Y039782D01*
X029125Y039756D01*
X029131Y039728D01*
X029133Y039700D01*
X029131Y039672D01*
X029125Y039644D01*
X029115Y039618D01*
X029102Y039593D01*
X029085Y039571D01*
X029065Y039551D01*
X029043Y039534D01*
X029018Y039521D01*
X028992Y039511D01*
X028964Y039505D01*
X028936Y039503D01*
X028908Y039505D01*
X028880Y039511D01*
X028854Y039521D01*
X028829Y039534D01*
X028807Y039551D01*
X028787Y039571D01*
X028770Y039593D01*
X028757Y039618D01*
X028747Y039644D01*
X028741Y039672D01*
X028739Y039700D01*
X032189Y039700D02*
X032191Y039728D01*
X032197Y039756D01*
X032207Y039782D01*
X032220Y039807D01*
X032237Y039829D01*
X032257Y039849D01*
X032279Y039866D01*
X032304Y039879D01*
X032330Y039889D01*
X032358Y039895D01*
X032386Y039897D01*
X032414Y039895D01*
X032442Y039889D01*
X032468Y039879D01*
X032493Y039866D01*
X032515Y039849D01*
X032535Y039829D01*
X032552Y039807D01*
X032565Y039782D01*
X032575Y039756D01*
X032581Y039728D01*
X032583Y039700D01*
X032581Y039672D01*
X032575Y039644D01*
X032565Y039618D01*
X032552Y039593D01*
X032535Y039571D01*
X032515Y039551D01*
X032493Y039534D01*
X032468Y039521D01*
X032442Y039511D01*
X032414Y039505D01*
X032386Y039503D01*
X032358Y039505D01*
X032330Y039511D01*
X032304Y039521D01*
X032279Y039534D01*
X032257Y039551D01*
X032237Y039571D01*
X032220Y039593D01*
X032207Y039618D01*
X032197Y039644D01*
X032191Y039672D01*
X032189Y039700D01*
X035639Y039700D02*
X035641Y039728D01*
X035647Y039756D01*
X035657Y039782D01*
X035670Y039807D01*
X035687Y039829D01*
X035707Y039849D01*
X035729Y039866D01*
X035754Y039879D01*
X035780Y039889D01*
X035808Y039895D01*
X035836Y039897D01*
X035864Y039895D01*
X035892Y039889D01*
X035918Y039879D01*
X035943Y039866D01*
X035965Y039849D01*
X035985Y039829D01*
X036002Y039807D01*
X036015Y039782D01*
X036025Y039756D01*
X036031Y039728D01*
X036033Y039700D01*
X036031Y039672D01*
X036025Y039644D01*
X036015Y039618D01*
X036002Y039593D01*
X035985Y039571D01*
X035965Y039551D01*
X035943Y039534D01*
X035918Y039521D01*
X035892Y039511D01*
X035864Y039505D01*
X035836Y039503D01*
X035808Y039505D01*
X035780Y039511D01*
X035754Y039521D01*
X035729Y039534D01*
X035707Y039551D01*
X035687Y039571D01*
X035670Y039593D01*
X035657Y039618D01*
X035647Y039644D01*
X035641Y039672D01*
X035639Y039700D01*
X039089Y039700D02*
X039091Y039728D01*
X039097Y039756D01*
X039107Y039782D01*
X039120Y039807D01*
X039137Y039829D01*
X039157Y039849D01*
X039179Y039866D01*
X039204Y039879D01*
X039230Y039889D01*
X039258Y039895D01*
X039286Y039897D01*
X039314Y039895D01*
X039342Y039889D01*
X039368Y039879D01*
X039393Y039866D01*
X039415Y039849D01*
X039435Y039829D01*
X039452Y039807D01*
X039465Y039782D01*
X039475Y039756D01*
X039481Y039728D01*
X039483Y039700D01*
X039481Y039672D01*
X039475Y039644D01*
X039465Y039618D01*
X039452Y039593D01*
X039435Y039571D01*
X039415Y039551D01*
X039393Y039534D01*
X039368Y039521D01*
X039342Y039511D01*
X039314Y039505D01*
X039286Y039503D01*
X039258Y039505D01*
X039230Y039511D01*
X039204Y039521D01*
X039179Y039534D01*
X039157Y039551D01*
X039137Y039571D01*
X039120Y039593D01*
X039107Y039618D01*
X039097Y039644D01*
X039091Y039672D01*
X039089Y039700D01*
X042539Y039700D02*
X042541Y039728D01*
X042547Y039756D01*
X042557Y039782D01*
X042570Y039807D01*
X042587Y039829D01*
X042607Y039849D01*
X042629Y039866D01*
X042654Y039879D01*
X042680Y039889D01*
X042708Y039895D01*
X042736Y039897D01*
X042764Y039895D01*
X042792Y039889D01*
X042818Y039879D01*
X042843Y039866D01*
X042865Y039849D01*
X042885Y039829D01*
X042902Y039807D01*
X042915Y039782D01*
X042925Y039756D01*
X042931Y039728D01*
X042933Y039700D01*
X042931Y039672D01*
X042925Y039644D01*
X042915Y039618D01*
X042902Y039593D01*
X042885Y039571D01*
X042865Y039551D01*
X042843Y039534D01*
X042818Y039521D01*
X042792Y039511D01*
X042764Y039505D01*
X042736Y039503D01*
X042708Y039505D01*
X042680Y039511D01*
X042654Y039521D01*
X042629Y039534D01*
X042607Y039551D01*
X042587Y039571D01*
X042570Y039593D01*
X042557Y039618D01*
X042547Y039644D01*
X042541Y039672D01*
X042539Y039700D01*
X045989Y039700D02*
X045991Y039728D01*
X045997Y039756D01*
X046007Y039782D01*
X046020Y039807D01*
X046037Y039829D01*
X046057Y039849D01*
X046079Y039866D01*
X046104Y039879D01*
X046130Y039889D01*
X046158Y039895D01*
X046186Y039897D01*
X046214Y039895D01*
X046242Y039889D01*
X046268Y039879D01*
X046293Y039866D01*
X046315Y039849D01*
X046335Y039829D01*
X046352Y039807D01*
X046365Y039782D01*
X046375Y039756D01*
X046381Y039728D01*
X046383Y039700D01*
X046381Y039672D01*
X046375Y039644D01*
X046365Y039618D01*
X046352Y039593D01*
X046335Y039571D01*
X046315Y039551D01*
X046293Y039534D01*
X046268Y039521D01*
X046242Y039511D01*
X046214Y039505D01*
X046186Y039503D01*
X046158Y039505D01*
X046130Y039511D01*
X046104Y039521D01*
X046079Y039534D01*
X046057Y039551D01*
X046037Y039571D01*
X046020Y039593D01*
X046007Y039618D01*
X045997Y039644D01*
X045991Y039672D01*
X045989Y039700D01*
X049439Y039700D02*
X049441Y039728D01*
X049447Y039756D01*
X049457Y039782D01*
X049470Y039807D01*
X049487Y039829D01*
X049507Y039849D01*
X049529Y039866D01*
X049554Y039879D01*
X049580Y039889D01*
X049608Y039895D01*
X049636Y039897D01*
X049664Y039895D01*
X049692Y039889D01*
X049718Y039879D01*
X049743Y039866D01*
X049765Y039849D01*
X049785Y039829D01*
X049802Y039807D01*
X049815Y039782D01*
X049825Y039756D01*
X049831Y039728D01*
X049833Y039700D01*
X049831Y039672D01*
X049825Y039644D01*
X049815Y039618D01*
X049802Y039593D01*
X049785Y039571D01*
X049765Y039551D01*
X049743Y039534D01*
X049718Y039521D01*
X049692Y039511D01*
X049664Y039505D01*
X049636Y039503D01*
X049608Y039505D01*
X049580Y039511D01*
X049554Y039521D01*
X049529Y039534D01*
X049507Y039551D01*
X049487Y039571D01*
X049470Y039593D01*
X049457Y039618D01*
X049447Y039644D01*
X049441Y039672D01*
X049439Y039700D01*
X052889Y039700D02*
X052891Y039728D01*
X052897Y039756D01*
X052907Y039782D01*
X052920Y039807D01*
X052937Y039829D01*
X052957Y039849D01*
X052979Y039866D01*
X053004Y039879D01*
X053030Y039889D01*
X053058Y039895D01*
X053086Y039897D01*
X053114Y039895D01*
X053142Y039889D01*
X053168Y039879D01*
X053193Y039866D01*
X053215Y039849D01*
X053235Y039829D01*
X053252Y039807D01*
X053265Y039782D01*
X053275Y039756D01*
X053281Y039728D01*
X053283Y039700D01*
X053281Y039672D01*
X053275Y039644D01*
X053265Y039618D01*
X053252Y039593D01*
X053235Y039571D01*
X053215Y039551D01*
X053193Y039534D01*
X053168Y039521D01*
X053142Y039511D01*
X053114Y039505D01*
X053086Y039503D01*
X053058Y039505D01*
X053030Y039511D01*
X053004Y039521D01*
X052979Y039534D01*
X052957Y039551D01*
X052937Y039571D01*
X052920Y039593D01*
X052907Y039618D01*
X052897Y039644D01*
X052891Y039672D01*
X052889Y039700D01*
X056339Y039700D02*
X056341Y039728D01*
X056347Y039756D01*
X056357Y039782D01*
X056370Y039807D01*
X056387Y039829D01*
X056407Y039849D01*
X056429Y039866D01*
X056454Y039879D01*
X056480Y039889D01*
X056508Y039895D01*
X056536Y039897D01*
X056564Y039895D01*
X056592Y039889D01*
X056618Y039879D01*
X056643Y039866D01*
X056665Y039849D01*
X056685Y039829D01*
X056702Y039807D01*
X056715Y039782D01*
X056725Y039756D01*
X056731Y039728D01*
X056733Y039700D01*
X056731Y039672D01*
X056725Y039644D01*
X056715Y039618D01*
X056702Y039593D01*
X056685Y039571D01*
X056665Y039551D01*
X056643Y039534D01*
X056618Y039521D01*
X056592Y039511D01*
X056564Y039505D01*
X056536Y039503D01*
X056508Y039505D01*
X056480Y039511D01*
X056454Y039521D01*
X056429Y039534D01*
X056407Y039551D01*
X056387Y039571D01*
X056370Y039593D01*
X056357Y039618D01*
X056347Y039644D01*
X056341Y039672D01*
X056339Y039700D01*
X059789Y039700D02*
X059791Y039728D01*
X059797Y039756D01*
X059807Y039782D01*
X059820Y039807D01*
X059837Y039829D01*
X059857Y039849D01*
X059879Y039866D01*
X059904Y039879D01*
X059930Y039889D01*
X059958Y039895D01*
X059986Y039897D01*
X060014Y039895D01*
X060042Y039889D01*
X060068Y039879D01*
X060093Y039866D01*
X060115Y039849D01*
X060135Y039829D01*
X060152Y039807D01*
X060165Y039782D01*
X060175Y039756D01*
X060181Y039728D01*
X060183Y039700D01*
X060181Y039672D01*
X060175Y039644D01*
X060165Y039618D01*
X060152Y039593D01*
X060135Y039571D01*
X060115Y039551D01*
X060093Y039534D01*
X060068Y039521D01*
X060042Y039511D01*
X060014Y039505D01*
X059986Y039503D01*
X059958Y039505D01*
X059930Y039511D01*
X059904Y039521D01*
X059879Y039534D01*
X059857Y039551D01*
X059837Y039571D01*
X059820Y039593D01*
X059807Y039618D01*
X059797Y039644D01*
X059791Y039672D01*
X059789Y039700D01*
X063239Y039700D02*
X063241Y039728D01*
X063247Y039756D01*
X063257Y039782D01*
X063270Y039807D01*
X063287Y039829D01*
X063307Y039849D01*
X063329Y039866D01*
X063354Y039879D01*
X063380Y039889D01*
X063408Y039895D01*
X063436Y039897D01*
X063464Y039895D01*
X063492Y039889D01*
X063518Y039879D01*
X063543Y039866D01*
X063565Y039849D01*
X063585Y039829D01*
X063602Y039807D01*
X063615Y039782D01*
X063625Y039756D01*
X063631Y039728D01*
X063633Y039700D01*
X063631Y039672D01*
X063625Y039644D01*
X063615Y039618D01*
X063602Y039593D01*
X063585Y039571D01*
X063565Y039551D01*
X063543Y039534D01*
X063518Y039521D01*
X063492Y039511D01*
X063464Y039505D01*
X063436Y039503D01*
X063408Y039505D01*
X063380Y039511D01*
X063354Y039521D01*
X063329Y039534D01*
X063307Y039551D01*
X063287Y039571D01*
X063270Y039593D01*
X063257Y039618D01*
X063247Y039644D01*
X063241Y039672D01*
X063239Y039700D01*
X066689Y039700D02*
X066691Y039728D01*
X066697Y039756D01*
X066707Y039782D01*
X066720Y039807D01*
X066737Y039829D01*
X066757Y039849D01*
X066779Y039866D01*
X066804Y039879D01*
X066830Y039889D01*
X066858Y039895D01*
X066886Y039897D01*
X066914Y039895D01*
X066942Y039889D01*
X066968Y039879D01*
X066993Y039866D01*
X067015Y039849D01*
X067035Y039829D01*
X067052Y039807D01*
X067065Y039782D01*
X067075Y039756D01*
X067081Y039728D01*
X067083Y039700D01*
X067081Y039672D01*
X067075Y039644D01*
X067065Y039618D01*
X067052Y039593D01*
X067035Y039571D01*
X067015Y039551D01*
X066993Y039534D01*
X066968Y039521D01*
X066942Y039511D01*
X066914Y039505D01*
X066886Y039503D01*
X066858Y039505D01*
X066830Y039511D01*
X066804Y039521D01*
X066779Y039534D01*
X066757Y039551D01*
X066737Y039571D01*
X066720Y039593D01*
X066707Y039618D01*
X066697Y039644D01*
X066691Y039672D01*
X066689Y039700D01*
X070139Y039700D02*
X070141Y039728D01*
X070147Y039756D01*
X070157Y039782D01*
X070170Y039807D01*
X070187Y039829D01*
X070207Y039849D01*
X070229Y039866D01*
X070254Y039879D01*
X070280Y039889D01*
X070308Y039895D01*
X070336Y039897D01*
X070364Y039895D01*
X070392Y039889D01*
X070418Y039879D01*
X070443Y039866D01*
X070465Y039849D01*
X070485Y039829D01*
X070502Y039807D01*
X070515Y039782D01*
X070525Y039756D01*
X070531Y039728D01*
X070533Y039700D01*
X070531Y039672D01*
X070525Y039644D01*
X070515Y039618D01*
X070502Y039593D01*
X070485Y039571D01*
X070465Y039551D01*
X070443Y039534D01*
X070418Y039521D01*
X070392Y039511D01*
X070364Y039505D01*
X070336Y039503D01*
X070308Y039505D01*
X070280Y039511D01*
X070254Y039521D01*
X070229Y039534D01*
X070207Y039551D01*
X070187Y039571D01*
X070170Y039593D01*
X070157Y039618D01*
X070147Y039644D01*
X070141Y039672D01*
X070139Y039700D01*
X073589Y039700D02*
X073591Y039728D01*
X073597Y039756D01*
X073607Y039782D01*
X073620Y039807D01*
X073637Y039829D01*
X073657Y039849D01*
X073679Y039866D01*
X073704Y039879D01*
X073730Y039889D01*
X073758Y039895D01*
X073786Y039897D01*
X073814Y039895D01*
X073842Y039889D01*
X073868Y039879D01*
X073893Y039866D01*
X073915Y039849D01*
X073935Y039829D01*
X073952Y039807D01*
X073965Y039782D01*
X073975Y039756D01*
X073981Y039728D01*
X073983Y039700D01*
X073981Y039672D01*
X073975Y039644D01*
X073965Y039618D01*
X073952Y039593D01*
X073935Y039571D01*
X073915Y039551D01*
X073893Y039534D01*
X073868Y039521D01*
X073842Y039511D01*
X073814Y039505D01*
X073786Y039503D01*
X073758Y039505D01*
X073730Y039511D01*
X073704Y039521D01*
X073679Y039534D01*
X073657Y039551D01*
X073637Y039571D01*
X073620Y039593D01*
X073607Y039618D01*
X073597Y039644D01*
X073591Y039672D01*
X073589Y039700D01*
X077039Y039700D02*
X077041Y039728D01*
X077047Y039756D01*
X077057Y039782D01*
X077070Y039807D01*
X077087Y039829D01*
X077107Y039849D01*
X077129Y039866D01*
X077154Y039879D01*
X077180Y039889D01*
X077208Y039895D01*
X077236Y039897D01*
X077264Y039895D01*
X077292Y039889D01*
X077318Y039879D01*
X077343Y039866D01*
X077365Y039849D01*
X077385Y039829D01*
X077402Y039807D01*
X077415Y039782D01*
X077425Y039756D01*
X077431Y039728D01*
X077433Y039700D01*
X077431Y039672D01*
X077425Y039644D01*
X077415Y039618D01*
X077402Y039593D01*
X077385Y039571D01*
X077365Y039551D01*
X077343Y039534D01*
X077318Y039521D01*
X077292Y039511D01*
X077264Y039505D01*
X077236Y039503D01*
X077208Y039505D01*
X077180Y039511D01*
X077154Y039521D01*
X077129Y039534D01*
X077107Y039551D01*
X077087Y039571D01*
X077070Y039593D01*
X077057Y039618D01*
X077047Y039644D01*
X077041Y039672D01*
X077039Y039700D01*
X080489Y039700D02*
X080491Y039728D01*
X080497Y039756D01*
X080507Y039782D01*
X080520Y039807D01*
X080537Y039829D01*
X080557Y039849D01*
X080579Y039866D01*
X080604Y039879D01*
X080630Y039889D01*
X080658Y039895D01*
X080686Y039897D01*
X080714Y039895D01*
X080742Y039889D01*
X080768Y039879D01*
X080793Y039866D01*
X080815Y039849D01*
X080835Y039829D01*
X080852Y039807D01*
X080865Y039782D01*
X080875Y039756D01*
X080881Y039728D01*
X080883Y039700D01*
X080881Y039672D01*
X080875Y039644D01*
X080865Y039618D01*
X080852Y039593D01*
X080835Y039571D01*
X080815Y039551D01*
X080793Y039534D01*
X080768Y039521D01*
X080742Y039511D01*
X080714Y039505D01*
X080686Y039503D01*
X080658Y039505D01*
X080630Y039511D01*
X080604Y039521D01*
X080579Y039534D01*
X080557Y039551D01*
X080537Y039571D01*
X080520Y039593D01*
X080507Y039618D01*
X080497Y039644D01*
X080491Y039672D01*
X080489Y039700D01*
X083939Y039700D02*
X083941Y039728D01*
X083947Y039756D01*
X083957Y039782D01*
X083970Y039807D01*
X083987Y039829D01*
X084007Y039849D01*
X084029Y039866D01*
X084054Y039879D01*
X084080Y039889D01*
X084108Y039895D01*
X084136Y039897D01*
X084164Y039895D01*
X084192Y039889D01*
X084218Y039879D01*
X084243Y039866D01*
X084265Y039849D01*
X084285Y039829D01*
X084302Y039807D01*
X084315Y039782D01*
X084325Y039756D01*
X084331Y039728D01*
X084333Y039700D01*
X084331Y039672D01*
X084325Y039644D01*
X084315Y039618D01*
X084302Y039593D01*
X084285Y039571D01*
X084265Y039551D01*
X084243Y039534D01*
X084218Y039521D01*
X084192Y039511D01*
X084164Y039505D01*
X084136Y039503D01*
X084108Y039505D01*
X084080Y039511D01*
X084054Y039521D01*
X084029Y039534D01*
X084007Y039551D01*
X083987Y039571D01*
X083970Y039593D01*
X083957Y039618D01*
X083947Y039644D01*
X083941Y039672D01*
X083939Y039700D01*
D14*
X084136Y039700D03*
X080686Y039700D03*
X077236Y039700D03*
X073786Y039700D03*
X070336Y039700D03*
X066886Y039700D03*
X063436Y039700D03*
X059986Y039700D03*
X056536Y039700D03*
X053086Y039700D03*
X049636Y039700D03*
X046186Y039700D03*
X042736Y039700D03*
X039286Y039700D03*
X035836Y039700D03*
X032386Y039700D03*
X028936Y039700D03*
X025486Y039700D03*
X025486Y035340D03*
X028936Y035340D03*
X032386Y035340D03*
X035836Y035340D03*
X039286Y035340D03*
X042736Y035340D03*
X046186Y035340D03*
X049636Y035340D03*
X053086Y035340D03*
X056536Y035340D03*
X059986Y035340D03*
X063436Y035340D03*
X066886Y035340D03*
X070336Y035340D03*
X073786Y035340D03*
X077236Y035340D03*
X080686Y035340D03*
X084136Y035340D03*
X084136Y027380D03*
X080686Y027380D03*
X077236Y027380D03*
X073786Y027380D03*
X070336Y027380D03*
X066886Y027380D03*
X063436Y027380D03*
X059986Y027380D03*
X056536Y027380D03*
X053086Y027380D03*
X049636Y027380D03*
X046186Y027380D03*
X042736Y027380D03*
X039286Y027380D03*
X035836Y027380D03*
X032386Y027380D03*
X028936Y027380D03*
X025486Y027380D03*
X025486Y023020D03*
X028936Y023020D03*
X032386Y023020D03*
X035836Y023020D03*
X039286Y023020D03*
X042736Y023020D03*
X046186Y023020D03*
X049636Y023020D03*
X053086Y023020D03*
X056536Y023020D03*
X059986Y023020D03*
X063436Y023020D03*
X066886Y023020D03*
X070336Y023020D03*
X073786Y023020D03*
X077236Y023020D03*
X080686Y023020D03*
X084136Y023020D03*
X084136Y019350D03*
X080686Y019350D03*
X077236Y019350D03*
X073786Y019350D03*
X070336Y019350D03*
X066886Y019350D03*
X063436Y019350D03*
X059986Y019350D03*
X056536Y019350D03*
X053086Y019350D03*
X049636Y019350D03*
X046186Y019350D03*
X042736Y019350D03*
X039286Y019350D03*
X035836Y019350D03*
X032386Y019350D03*
X028936Y019350D03*
X025486Y019350D03*
X025486Y014990D03*
X028936Y014990D03*
X032386Y014990D03*
X035836Y014990D03*
X039286Y014990D03*
X042736Y014990D03*
X046186Y014990D03*
X049636Y014990D03*
X053086Y014990D03*
X056536Y014990D03*
X059986Y014990D03*
X063436Y014990D03*
X066886Y014990D03*
X070336Y014990D03*
X073786Y014990D03*
X077236Y014990D03*
X080686Y014990D03*
X084136Y014990D03*
X084136Y007030D03*
X080686Y007030D03*
X077236Y007030D03*
X073786Y007030D03*
X070336Y007030D03*
X066886Y007030D03*
X063436Y007030D03*
X059986Y007030D03*
X056536Y007030D03*
X053086Y007030D03*
X049636Y007030D03*
X046186Y007030D03*
X042736Y007030D03*
X039286Y007030D03*
X035836Y007030D03*
X032386Y007030D03*
X028936Y007030D03*
X025486Y007030D03*
X025486Y002670D03*
X028936Y002670D03*
X032386Y002670D03*
X035836Y002670D03*
X039286Y002670D03*
X042736Y002670D03*
X046186Y002670D03*
X049636Y002670D03*
X053086Y002670D03*
X056536Y002670D03*
X059986Y002670D03*
X063436Y002670D03*
X066886Y002670D03*
X070336Y002670D03*
X073786Y002670D03*
X077236Y002670D03*
X080686Y002670D03*
X084136Y002670D03*
M02*
