G75*
G70*
%OFA0B0*%
%FSLAX24Y24*%
%IPPOS*%
%LPD*%
%AMOC8*
5,1,8,0,0,1.08239X$1,22.5*
%
%ADD10R,0.0394X0.0472*%
%ADD11R,0.0390X0.0400*%
%ADD12C,0.0554*%
%ADD13R,0.0591X0.0118*%
%ADD14R,0.0394X0.0433*%
%ADD15R,0.0433X0.0394*%
%ADD16R,0.0886X0.0197*%
%ADD17R,0.1575X0.0807*%
%ADD18R,0.1378X0.0807*%
%ADD19R,0.0400X0.0390*%
%ADD20R,0.0460X0.0630*%
%ADD21C,0.0120*%
%ADD22C,0.0100*%
%ADD23C,0.0594*%
%ADD24C,0.0318*%
D10*
X010407Y001750D03*
X010907Y001750D03*
X011407Y001750D03*
X011907Y001750D03*
X012407Y001750D03*
X012907Y001750D03*
X013407Y001750D03*
X013907Y001750D03*
X014407Y001750D03*
X014907Y001750D03*
X015907Y001750D03*
X016907Y001750D03*
X017907Y001750D03*
X016907Y007050D03*
X016407Y007050D03*
X012907Y007050D03*
X012407Y007050D03*
X011907Y007050D03*
X011407Y007050D03*
X010907Y007050D03*
X010407Y007050D03*
X009907Y007050D03*
X009407Y007050D03*
D11*
X004891Y005907D03*
X004222Y005907D03*
X020222Y004407D03*
X020891Y004407D03*
X020822Y006907D03*
X021491Y006907D03*
X021491Y007507D03*
X020822Y007507D03*
D12*
X020107Y003457D03*
X021107Y002957D03*
X020107Y002457D03*
X021107Y001957D03*
D13*
X007884Y001944D03*
X007884Y002200D03*
X007884Y002456D03*
X007884Y002711D03*
X007884Y002967D03*
X007884Y003223D03*
X007884Y003479D03*
X007884Y003735D03*
X007884Y003991D03*
X007884Y004247D03*
X007884Y004503D03*
X007884Y004759D03*
X007884Y005015D03*
X007884Y005270D03*
X005030Y005270D03*
X005030Y005015D03*
X005030Y004759D03*
X005030Y004503D03*
X005030Y004247D03*
X005030Y003991D03*
X005030Y003735D03*
X005030Y003479D03*
X005030Y003223D03*
X005030Y002967D03*
X005030Y002711D03*
X005030Y002456D03*
X005030Y002200D03*
X005030Y001944D03*
D14*
X004357Y003872D03*
X004357Y004542D03*
D15*
X005622Y005907D03*
X006291Y005907D03*
X006922Y005907D03*
X007591Y005907D03*
X007291Y001307D03*
X006622Y001307D03*
D16*
X003437Y004177D03*
X003437Y004492D03*
X003437Y004807D03*
X003437Y005122D03*
X003437Y005437D03*
D17*
X001744Y006736D03*
X001744Y002878D03*
D18*
X003437Y002878D03*
X003437Y006736D03*
D19*
X019957Y005842D03*
X021057Y005842D03*
X021057Y005172D03*
X019957Y005172D03*
D20*
X004007Y001757D03*
X003407Y001757D03*
D21*
X001017Y002314D02*
X001017Y001067D01*
X004246Y001067D01*
X004186Y001126D01*
X004138Y001244D01*
X004138Y001282D01*
X003710Y001282D01*
X003707Y001286D01*
X003703Y001282D01*
X003110Y001282D01*
X003017Y001376D01*
X003017Y002138D01*
X003110Y002232D01*
X003197Y002232D01*
X003197Y002244D01*
X003267Y002314D01*
X002682Y002314D01*
X002640Y002356D01*
X002598Y002314D01*
X001017Y002314D01*
X001017Y002211D02*
X003089Y002211D01*
X003017Y002093D02*
X001017Y002093D01*
X001017Y001974D02*
X003017Y001974D01*
X003017Y001855D02*
X001017Y001855D01*
X001017Y001737D02*
X003017Y001737D01*
X003017Y001618D02*
X001017Y001618D01*
X001017Y001500D02*
X003017Y001500D01*
X003017Y001381D02*
X001017Y001381D01*
X001017Y001263D02*
X004138Y001263D01*
X004179Y001144D02*
X001017Y001144D01*
X004397Y001664D02*
X004397Y002138D01*
X004391Y002144D01*
X004444Y002197D01*
X004567Y002320D01*
X004567Y003496D01*
X004574Y003496D01*
X004574Y003354D01*
X004577Y003351D01*
X004574Y003349D01*
X004574Y003098D01*
X004577Y003095D01*
X004574Y003093D01*
X004574Y002842D01*
X004585Y002831D01*
X004574Y002792D01*
X004574Y002712D01*
X005029Y002712D01*
X005029Y002711D01*
X004574Y002711D01*
X004574Y002631D01*
X004585Y002591D01*
X004589Y002583D01*
X004585Y002576D01*
X004574Y002536D01*
X004574Y002456D01*
X005029Y002456D01*
X005029Y002675D01*
X005029Y002711D01*
X005030Y002711D01*
X005030Y002712D01*
X005485Y002712D01*
X005485Y002730D01*
X005486Y002726D01*
X005576Y002637D01*
X005693Y002588D01*
X005820Y002588D01*
X005937Y002637D01*
X006027Y002726D01*
X006076Y002844D01*
X006076Y002971D01*
X006027Y003088D01*
X005958Y003157D01*
X006027Y003226D01*
X006076Y003344D01*
X006076Y003471D01*
X006027Y003588D01*
X005937Y003678D01*
X005820Y003726D01*
X005693Y003726D01*
X005671Y003717D01*
X005570Y003717D01*
X005485Y003717D01*
X005485Y003735D01*
X005485Y003797D01*
X006647Y003797D01*
X006647Y001720D01*
X006703Y001664D01*
X006660Y001664D01*
X006660Y001346D01*
X006584Y001346D01*
X006584Y001664D01*
X006384Y001664D01*
X006344Y001653D01*
X006307Y001632D01*
X006277Y001602D01*
X006256Y001566D01*
X006246Y001525D01*
X006246Y001346D01*
X006583Y001346D01*
X006583Y001269D01*
X006246Y001269D01*
X006246Y001089D01*
X006251Y001067D01*
X004668Y001067D01*
X004727Y001126D01*
X004776Y001244D01*
X004776Y001371D01*
X004727Y001488D01*
X004637Y001578D01*
X004520Y001626D01*
X004435Y001626D01*
X004397Y001664D01*
X004397Y001737D02*
X004656Y001737D01*
X004668Y001725D02*
X005391Y001725D01*
X005485Y001818D01*
X005485Y002069D01*
X005482Y002072D01*
X005485Y002074D01*
X005485Y002325D01*
X005474Y002336D01*
X005485Y002375D01*
X005485Y002455D01*
X005030Y002455D01*
X005030Y002456D01*
X005029Y002456D01*
X005029Y002455D01*
X004574Y002455D01*
X004574Y002375D01*
X004585Y002336D01*
X004574Y002325D01*
X004574Y002074D01*
X004577Y002072D01*
X004574Y002069D01*
X004574Y001818D01*
X004668Y001725D01*
X004574Y001855D02*
X004397Y001855D01*
X004397Y001974D02*
X004574Y001974D01*
X004574Y002093D02*
X004397Y002093D01*
X004458Y002211D02*
X004574Y002211D01*
X004567Y002330D02*
X004579Y002330D01*
X004567Y002448D02*
X004574Y002448D01*
X004567Y002567D02*
X004583Y002567D01*
X005029Y002567D02*
X005030Y002567D01*
X005030Y002675D02*
X005030Y002456D01*
X005485Y002456D01*
X005485Y002536D01*
X005474Y002576D01*
X005470Y002583D01*
X005474Y002591D01*
X005485Y002631D01*
X005485Y002711D01*
X005030Y002711D01*
X005030Y002675D01*
X005029Y002685D02*
X005030Y002685D01*
X004574Y002685D02*
X004567Y002685D01*
X004567Y002804D02*
X004578Y002804D01*
X004567Y002922D02*
X004574Y002922D01*
X004567Y003041D02*
X004574Y003041D01*
X004567Y003159D02*
X004574Y003159D01*
X004567Y003278D02*
X004574Y003278D01*
X004567Y003396D02*
X004574Y003396D01*
X004147Y003441D02*
X004147Y003496D01*
X004094Y003496D01*
X004000Y003590D01*
X004000Y003972D01*
X003978Y003951D01*
X003942Y003930D01*
X003901Y003919D01*
X003437Y003919D01*
X003437Y004177D01*
X003437Y004177D01*
X003437Y003919D01*
X002973Y003919D01*
X002932Y003930D01*
X002896Y003951D01*
X002866Y003980D01*
X002845Y004017D01*
X002834Y004058D01*
X002834Y004177D01*
X003437Y004177D01*
X003437Y004177D01*
X004022Y004177D01*
X004022Y004177D01*
X003437Y004177D01*
X003437Y004177D01*
X002834Y004177D01*
X002834Y004297D01*
X002841Y004321D01*
X002834Y004327D01*
X002834Y004657D01*
X002834Y004957D01*
X002834Y005272D01*
X002834Y005602D01*
X002928Y005695D01*
X003867Y005695D01*
X003867Y006173D01*
X002682Y006173D01*
X002640Y006215D01*
X002598Y006173D01*
X001017Y006173D01*
X001017Y006148D01*
X001495Y006148D01*
X001589Y006054D01*
X001589Y003481D01*
X001550Y003441D01*
X002598Y003441D01*
X002640Y003399D01*
X002682Y003441D01*
X004147Y003441D01*
X004074Y003515D02*
X001589Y003515D01*
X001589Y003634D02*
X002353Y003634D01*
X002301Y003655D02*
X002425Y003604D01*
X002559Y003604D01*
X002683Y003655D01*
X002778Y003750D01*
X002829Y003874D01*
X002829Y004008D01*
X002778Y004132D01*
X002683Y004227D01*
X002559Y004278D01*
X002425Y004278D01*
X002301Y004227D01*
X002206Y004132D01*
X002155Y004008D01*
X002155Y003874D01*
X002206Y003750D01*
X002301Y003655D01*
X002205Y003752D02*
X001589Y003752D01*
X001589Y003871D02*
X002156Y003871D01*
X002155Y003989D02*
X001589Y003989D01*
X001589Y004108D02*
X002196Y004108D01*
X002301Y004226D02*
X001589Y004226D01*
X001589Y004345D02*
X002834Y004345D01*
X002834Y004463D02*
X001589Y004463D01*
X001589Y004582D02*
X002834Y004582D01*
X002834Y004700D02*
X001589Y004700D01*
X001589Y004819D02*
X002834Y004819D01*
X002834Y004938D02*
X001589Y004938D01*
X001589Y005056D02*
X002834Y005056D01*
X002834Y005175D02*
X001589Y005175D01*
X001589Y005293D02*
X002834Y005293D01*
X002834Y005412D02*
X002707Y005412D01*
X002683Y005387D02*
X002778Y005482D01*
X002829Y005606D01*
X002829Y005740D01*
X002778Y005864D01*
X002683Y005959D01*
X002559Y006010D01*
X002425Y006010D01*
X002301Y005959D01*
X002206Y005864D01*
X002155Y005740D01*
X002155Y005606D01*
X002206Y005482D01*
X002301Y005387D01*
X002425Y005336D01*
X002559Y005336D01*
X002683Y005387D01*
X002277Y005412D02*
X001589Y005412D01*
X001589Y005530D02*
X002186Y005530D01*
X002155Y005649D02*
X001589Y005649D01*
X001589Y005767D02*
X002166Y005767D01*
X002228Y005886D02*
X001589Y005886D01*
X001589Y006004D02*
X002411Y006004D01*
X002573Y006004D02*
X003867Y006004D01*
X003867Y005886D02*
X002756Y005886D01*
X002818Y005767D02*
X003867Y005767D01*
X003867Y006123D02*
X001521Y006123D01*
X002829Y005649D02*
X002881Y005649D01*
X002834Y005530D02*
X002798Y005530D01*
X004318Y004872D02*
X004544Y005097D01*
X004574Y005097D01*
X004574Y004918D01*
X004395Y004918D01*
X004395Y004580D01*
X004574Y004580D01*
X004574Y004503D01*
X004395Y004503D01*
X004395Y004580D01*
X004318Y004580D01*
X004318Y004872D01*
X004318Y004819D02*
X004395Y004819D01*
X004384Y004938D02*
X004574Y004938D01*
X004574Y005056D02*
X004503Y005056D01*
X004395Y004700D02*
X004318Y004700D01*
X004318Y004582D02*
X004395Y004582D01*
X005030Y004503D02*
X005485Y004503D01*
X005485Y004583D01*
X005481Y004597D01*
X005644Y004597D01*
X005844Y004797D01*
X005967Y004920D01*
X005967Y005592D01*
X005977Y005582D01*
X006013Y005561D01*
X006054Y005550D01*
X006253Y005550D01*
X006253Y005868D01*
X006330Y005868D01*
X006330Y005550D01*
X006529Y005550D01*
X006570Y005561D01*
X006606Y005582D01*
X006607Y005583D01*
X006639Y005550D01*
X006647Y005550D01*
X006647Y004217D01*
X005485Y004217D01*
X005485Y004372D01*
X005474Y004383D01*
X005485Y004423D01*
X005485Y004503D01*
X005030Y004503D01*
X005030Y004503D01*
X005485Y004463D02*
X006647Y004463D01*
X006647Y004345D02*
X005485Y004345D01*
X005485Y004226D02*
X006647Y004226D01*
X007067Y004226D02*
X007429Y004226D01*
X007429Y004121D02*
X007429Y004372D01*
X007431Y004375D01*
X007429Y004377D01*
X007429Y004628D01*
X007431Y004631D01*
X007429Y004633D01*
X007429Y004884D01*
X007431Y004887D01*
X007429Y004889D01*
X007429Y005140D01*
X007431Y005142D01*
X007429Y005145D01*
X007429Y005396D01*
X007522Y005489D01*
X008147Y005489D01*
X008147Y005920D01*
X007970Y006097D01*
X007968Y006097D01*
X007968Y005946D01*
X007630Y005946D01*
X007630Y005869D01*
X007968Y005869D01*
X007968Y005689D01*
X007957Y005648D01*
X007936Y005612D01*
X007906Y005582D01*
X007870Y005561D01*
X007829Y005550D01*
X007630Y005550D01*
X007630Y005868D01*
X007553Y005868D01*
X007553Y005550D01*
X007354Y005550D01*
X007313Y005561D01*
X007277Y005582D01*
X007257Y005602D01*
X007205Y005550D01*
X007067Y005550D01*
X007067Y004094D01*
X007067Y001894D01*
X007147Y001814D01*
X007147Y002694D01*
X007270Y002817D01*
X007374Y002921D01*
X007429Y002921D01*
X007429Y003093D01*
X007431Y003095D01*
X007429Y003098D01*
X007429Y003349D01*
X007439Y003359D01*
X007429Y003399D01*
X007429Y003479D01*
X007883Y003479D01*
X007883Y003479D01*
X007429Y003479D01*
X007429Y003559D01*
X007439Y003599D01*
X007429Y003610D01*
X007429Y003860D01*
X007431Y003863D01*
X007429Y003866D01*
X007429Y004116D01*
X007431Y004119D01*
X007429Y004121D01*
X007429Y004108D02*
X007067Y004108D01*
X007067Y003989D02*
X007429Y003989D01*
X007429Y003871D02*
X007067Y003871D01*
X007067Y003752D02*
X007429Y003752D01*
X007429Y003634D02*
X007067Y003634D01*
X007067Y003515D02*
X007429Y003515D01*
X007429Y003396D02*
X007067Y003396D01*
X007067Y003278D02*
X007429Y003278D01*
X007429Y003159D02*
X007067Y003159D01*
X007067Y003041D02*
X007429Y003041D01*
X007429Y002922D02*
X007067Y002922D01*
X007067Y002804D02*
X007256Y002804D01*
X007147Y002685D02*
X007067Y002685D01*
X006647Y002685D02*
X005986Y002685D01*
X006059Y002804D02*
X006647Y002804D01*
X006647Y002922D02*
X006076Y002922D01*
X006047Y003041D02*
X006647Y003041D01*
X006647Y003159D02*
X005960Y003159D01*
X006049Y003278D02*
X006647Y003278D01*
X006647Y003396D02*
X006076Y003396D01*
X006057Y003515D02*
X006647Y003515D01*
X006647Y003634D02*
X005981Y003634D01*
X005485Y003735D02*
X005030Y003735D01*
X005485Y003735D01*
X005485Y003752D02*
X006647Y003752D01*
X007067Y004345D02*
X007429Y004345D01*
X007429Y004463D02*
X007067Y004463D01*
X007067Y004582D02*
X007429Y004582D01*
X007429Y004700D02*
X007067Y004700D01*
X006647Y004700D02*
X005747Y004700D01*
X005485Y004582D02*
X006647Y004582D01*
X006647Y004819D02*
X005866Y004819D01*
X005967Y004938D02*
X006647Y004938D01*
X007067Y004938D02*
X007429Y004938D01*
X007429Y004819D02*
X007067Y004819D01*
X007067Y005056D02*
X007429Y005056D01*
X007429Y005175D02*
X007067Y005175D01*
X006647Y005175D02*
X005967Y005175D01*
X005967Y005056D02*
X006647Y005056D01*
X006647Y005293D02*
X005967Y005293D01*
X005967Y005412D02*
X006647Y005412D01*
X007067Y005412D02*
X007445Y005412D01*
X007429Y005293D02*
X007067Y005293D01*
X007067Y005530D02*
X008147Y005530D01*
X008147Y005649D02*
X007957Y005649D01*
X007630Y005649D02*
X007553Y005649D01*
X007553Y005767D02*
X007630Y005767D01*
X007630Y005886D02*
X008147Y005886D01*
X008147Y005767D02*
X007968Y005767D01*
X007968Y006004D02*
X008062Y006004D01*
X008444Y006217D02*
X008567Y006094D01*
X008567Y003417D01*
X008657Y003417D01*
X008657Y007507D01*
X009457Y007507D01*
X009457Y007446D01*
X009644Y007446D01*
X010144Y007446D01*
X010644Y007446D01*
X011144Y007446D01*
X011644Y007446D01*
X012144Y007446D01*
X012644Y007446D01*
X013170Y007446D01*
X013264Y007352D01*
X013264Y006747D01*
X013170Y006653D01*
X012644Y006653D01*
X012144Y006653D01*
X011644Y006653D01*
X011207Y006653D01*
X011567Y006294D01*
X011567Y006120D01*
X011567Y003420D01*
X011444Y003297D01*
X010292Y002146D01*
X010644Y002146D01*
X011144Y002146D01*
X011644Y002146D01*
X012144Y002146D01*
X012644Y002146D01*
X013144Y002146D01*
X013644Y002146D01*
X014144Y002146D01*
X014644Y002146D01*
X015170Y002146D01*
X015264Y002052D01*
X015264Y001447D01*
X015170Y001353D01*
X014644Y001353D01*
X014144Y001353D01*
X013644Y001353D01*
X013144Y001353D01*
X012644Y001353D01*
X012144Y001353D01*
X011644Y001353D01*
X011144Y001353D01*
X010644Y001353D01*
X010144Y001353D01*
X010050Y001447D01*
X010050Y001903D01*
X009844Y001697D01*
X009670Y001697D01*
X009457Y001697D01*
X009457Y001067D01*
X016346Y001067D01*
X016286Y001126D01*
X016238Y001244D01*
X016238Y001371D01*
X016286Y001488D01*
X016376Y001578D01*
X016493Y001626D01*
X016550Y001626D01*
X016550Y002052D01*
X016644Y002146D01*
X016698Y002146D01*
X016750Y002197D01*
X016244Y002197D01*
X016181Y002134D01*
X016264Y002052D01*
X016264Y001447D01*
X016170Y001353D01*
X015644Y001353D01*
X015550Y001447D01*
X015550Y002052D01*
X015644Y002146D01*
X015747Y002146D01*
X015747Y002294D01*
X015870Y002417D01*
X016070Y002617D01*
X016244Y002617D01*
X019700Y002617D01*
X019736Y002705D01*
X019859Y002828D01*
X020020Y002894D01*
X020194Y002894D01*
X020354Y002828D01*
X020477Y002705D01*
X020544Y002544D01*
X020544Y002491D01*
X020647Y002594D01*
X020749Y002696D01*
X020736Y002709D01*
X020670Y002870D01*
X020670Y003044D01*
X020736Y003205D01*
X020847Y003315D01*
X020847Y003920D01*
X020770Y003997D01*
X020720Y004047D01*
X020630Y004047D01*
X020557Y004120D01*
X020483Y004047D01*
X020367Y004047D01*
X020367Y003815D01*
X020477Y003705D01*
X020544Y003544D01*
X020544Y003370D01*
X020477Y003209D01*
X020354Y003086D01*
X020194Y003020D01*
X020020Y003020D01*
X019859Y003086D01*
X019736Y003209D01*
X019670Y003370D01*
X019670Y003544D01*
X019736Y003705D01*
X019859Y003828D01*
X019947Y003864D01*
X019947Y004061D01*
X019867Y004141D01*
X019867Y004397D01*
X017144Y004397D01*
X016970Y004397D01*
X016470Y004897D01*
X016347Y005020D01*
X016347Y006653D01*
X016144Y006653D01*
X016050Y006747D01*
X016050Y007352D01*
X016144Y007446D01*
X016644Y007446D01*
X017170Y007446D01*
X017264Y007352D01*
X017264Y006747D01*
X017170Y006653D01*
X016967Y006653D01*
X016967Y005294D01*
X017244Y005017D01*
X018996Y005017D01*
X018986Y005026D01*
X018938Y005144D01*
X018938Y005271D01*
X018986Y005388D01*
X019076Y005478D01*
X019193Y005526D01*
X019320Y005526D01*
X019437Y005478D01*
X019498Y005417D01*
X019597Y005417D01*
X019597Y005434D01*
X019670Y005507D01*
X019597Y005580D01*
X019597Y006103D01*
X019690Y006197D01*
X019847Y006197D01*
X019847Y006320D01*
X019847Y006494D01*
X020247Y006894D01*
X020247Y007320D01*
X020247Y007494D01*
X020347Y007594D01*
X020467Y007714D01*
X020467Y007773D01*
X020491Y007797D01*
X001017Y007797D01*
X001017Y007300D01*
X002598Y007300D01*
X002640Y007258D01*
X002682Y007300D01*
X004192Y007300D01*
X004286Y007206D01*
X004286Y006267D01*
X004483Y006267D01*
X004557Y006194D01*
X004630Y006267D01*
X004747Y006267D01*
X004747Y006294D01*
X004847Y006394D01*
X004970Y006517D01*
X006650Y006517D01*
X006252Y006914D01*
X006098Y006850D01*
X005916Y006850D01*
X005748Y006920D01*
X005619Y007048D01*
X005550Y007216D01*
X005550Y007398D01*
X005619Y007566D01*
X005748Y007694D01*
X005916Y007764D01*
X006098Y007764D01*
X006265Y007694D01*
X006394Y007566D01*
X006464Y007398D01*
X006464Y007297D01*
X007244Y006517D01*
X007970Y006517D01*
X008144Y006517D01*
X008444Y006217D01*
X008419Y006242D02*
X008657Y006242D01*
X008657Y006123D02*
X008538Y006123D01*
X008567Y006004D02*
X008657Y006004D01*
X008657Y005886D02*
X008567Y005886D01*
X008567Y005767D02*
X008657Y005767D01*
X008657Y005649D02*
X008567Y005649D01*
X008567Y005530D02*
X008657Y005530D01*
X008657Y005412D02*
X008567Y005412D01*
X008567Y005293D02*
X008657Y005293D01*
X008657Y005175D02*
X008567Y005175D01*
X008567Y005056D02*
X008657Y005056D01*
X008657Y004938D02*
X008567Y004938D01*
X008567Y004819D02*
X008657Y004819D01*
X008657Y004700D02*
X008567Y004700D01*
X008567Y004582D02*
X008657Y004582D01*
X008657Y004463D02*
X008567Y004463D01*
X008567Y004345D02*
X008657Y004345D01*
X008657Y004226D02*
X008567Y004226D01*
X008567Y004108D02*
X008657Y004108D01*
X008657Y003989D02*
X008567Y003989D01*
X008567Y003871D02*
X008657Y003871D01*
X008657Y003752D02*
X008567Y003752D01*
X008567Y003634D02*
X008657Y003634D01*
X008657Y003515D02*
X008567Y003515D01*
X010832Y002685D02*
X019728Y002685D01*
X019835Y002804D02*
X010950Y002804D01*
X011069Y002922D02*
X020670Y002922D01*
X020697Y002804D02*
X020378Y002804D01*
X020485Y002685D02*
X020738Y002685D01*
X020619Y002567D02*
X020534Y002567D01*
X021382Y002297D02*
X021444Y002297D01*
X021644Y002497D01*
X021697Y002550D01*
X021697Y001067D01*
X020649Y001067D01*
X020771Y001190D01*
X020841Y001357D01*
X020841Y001538D01*
X020794Y001652D01*
X020822Y001624D01*
X020878Y001583D01*
X020939Y001552D01*
X021004Y001531D01*
X021072Y001520D01*
X021078Y001520D01*
X021078Y001928D01*
X021135Y001928D01*
X021135Y001520D01*
X021141Y001520D01*
X021209Y001531D01*
X021274Y001552D01*
X021336Y001583D01*
X021391Y001624D01*
X021440Y001672D01*
X021481Y001728D01*
X021512Y001789D01*
X021533Y001855D01*
X021544Y001923D01*
X021544Y001928D01*
X021136Y001928D01*
X021136Y001986D01*
X021544Y001986D01*
X021544Y001991D01*
X021533Y002059D01*
X021512Y002125D01*
X021481Y002186D01*
X021440Y002242D01*
X021391Y002291D01*
X021382Y002297D01*
X021476Y002330D02*
X021697Y002330D01*
X021697Y002211D02*
X021462Y002211D01*
X021522Y002093D02*
X021697Y002093D01*
X021697Y001974D02*
X021136Y001974D01*
X021078Y001974D02*
X020621Y001974D01*
X020670Y001986D02*
X021078Y001986D01*
X021078Y001928D01*
X020670Y001928D01*
X020670Y001923D01*
X020680Y001855D01*
X020702Y001789D01*
X020716Y001761D01*
X020643Y001834D01*
X020528Y001881D01*
X020675Y002029D01*
X020670Y001991D01*
X020670Y001986D01*
X020680Y001855D02*
X020591Y001855D01*
X021078Y001855D02*
X021135Y001855D01*
X021135Y001737D02*
X021078Y001737D01*
X021078Y001618D02*
X021135Y001618D01*
X021384Y001618D02*
X021697Y001618D01*
X021697Y001500D02*
X020841Y001500D01*
X020841Y001381D02*
X021697Y001381D01*
X021697Y001263D02*
X020802Y001263D01*
X020726Y001144D02*
X021697Y001144D01*
X020829Y001618D02*
X020808Y001618D01*
X021485Y001737D02*
X021697Y001737D01*
X021697Y001855D02*
X021533Y001855D01*
X020091Y001797D02*
X019999Y001706D01*
X019930Y001538D01*
X019930Y001357D01*
X019999Y001190D01*
X020122Y001067D01*
X016768Y001067D01*
X016827Y001126D01*
X016865Y001219D01*
X016944Y001297D01*
X017000Y001353D01*
X017170Y001353D01*
X017264Y001447D01*
X017264Y001997D01*
X017550Y001997D01*
X017550Y001788D01*
X017868Y001788D01*
X017868Y001711D01*
X017550Y001711D01*
X017550Y001492D01*
X017561Y001452D01*
X017582Y001415D01*
X017612Y001385D01*
X017648Y001364D01*
X017689Y001353D01*
X017868Y001353D01*
X017868Y001711D01*
X017945Y001711D01*
X017945Y001353D01*
X018125Y001353D01*
X018165Y001364D01*
X018202Y001385D01*
X018232Y001415D01*
X018253Y001452D01*
X018264Y001492D01*
X018264Y001711D01*
X017945Y001711D01*
X017945Y001788D01*
X018264Y001788D01*
X018264Y001997D01*
X019570Y001997D01*
X019647Y001920D01*
X019770Y001797D01*
X020091Y001797D01*
X020031Y001737D02*
X017945Y001737D01*
X017868Y001737D02*
X017264Y001737D01*
X017264Y001855D02*
X017550Y001855D01*
X017550Y001974D02*
X017264Y001974D01*
X016590Y002093D02*
X016223Y002093D01*
X016264Y001974D02*
X016550Y001974D01*
X016550Y001855D02*
X016264Y001855D01*
X016264Y001737D02*
X016550Y001737D01*
X016474Y001618D02*
X016264Y001618D01*
X016264Y001500D02*
X016298Y001500D01*
X016242Y001381D02*
X016198Y001381D01*
X016238Y001263D02*
X009457Y001263D01*
X009457Y001144D02*
X016279Y001144D01*
X016834Y001144D02*
X020045Y001144D01*
X019969Y001263D02*
X016909Y001263D01*
X017198Y001381D02*
X017619Y001381D01*
X017550Y001500D02*
X017264Y001500D01*
X017264Y001618D02*
X017550Y001618D01*
X017868Y001618D02*
X017945Y001618D01*
X017945Y001500D02*
X017868Y001500D01*
X017868Y001381D02*
X017945Y001381D01*
X018195Y001381D02*
X019930Y001381D01*
X019930Y001500D02*
X018264Y001500D01*
X018264Y001618D02*
X019963Y001618D01*
X019711Y001855D02*
X018264Y001855D01*
X018264Y001974D02*
X019593Y001974D01*
X021595Y002448D02*
X021697Y002448D01*
X021644Y002497D02*
X021644Y002497D01*
X020670Y003041D02*
X020244Y003041D01*
X020427Y003159D02*
X020717Y003159D01*
X020809Y003278D02*
X020506Y003278D01*
X020544Y003396D02*
X020847Y003396D01*
X020847Y003515D02*
X020544Y003515D01*
X020507Y003634D02*
X020847Y003634D01*
X020847Y003752D02*
X020430Y003752D01*
X020367Y003871D02*
X020847Y003871D01*
X020778Y003989D02*
X020367Y003989D01*
X020544Y004108D02*
X020569Y004108D01*
X019947Y003989D02*
X011567Y003989D01*
X011567Y004108D02*
X019900Y004108D01*
X019867Y004226D02*
X011567Y004226D01*
X011567Y004345D02*
X019867Y004345D01*
X019947Y003871D02*
X011567Y003871D01*
X011567Y003752D02*
X019784Y003752D01*
X019707Y003634D02*
X011567Y003634D01*
X011567Y003515D02*
X019670Y003515D01*
X019670Y003396D02*
X011543Y003396D01*
X011424Y003278D02*
X019708Y003278D01*
X019786Y003159D02*
X011306Y003159D01*
X011187Y003041D02*
X019969Y003041D01*
X016019Y002567D02*
X010713Y002567D01*
X010595Y002448D02*
X015901Y002448D01*
X015782Y002330D02*
X010476Y002330D01*
X010358Y002211D02*
X015747Y002211D01*
X015590Y002093D02*
X015223Y002093D01*
X015264Y001974D02*
X015550Y001974D01*
X015550Y001855D02*
X015264Y001855D01*
X015264Y001737D02*
X015550Y001737D01*
X015550Y001618D02*
X015264Y001618D01*
X015264Y001500D02*
X015550Y001500D01*
X015616Y001381D02*
X015198Y001381D01*
X010116Y001381D02*
X009457Y001381D01*
X009457Y001500D02*
X010050Y001500D01*
X010050Y001618D02*
X009457Y001618D01*
X009883Y001737D02*
X010050Y001737D01*
X010050Y001855D02*
X010002Y001855D01*
X007147Y001855D02*
X007105Y001855D01*
X007067Y001974D02*
X007147Y001974D01*
X007147Y002093D02*
X007067Y002093D01*
X006647Y002093D02*
X005485Y002093D01*
X005485Y001974D02*
X006647Y001974D01*
X006647Y001855D02*
X005485Y001855D01*
X005403Y001737D02*
X006647Y001737D01*
X006660Y001618D02*
X006584Y001618D01*
X006584Y001500D02*
X006660Y001500D01*
X006660Y001381D02*
X006584Y001381D01*
X006246Y001381D02*
X004771Y001381D01*
X004715Y001500D02*
X006246Y001500D01*
X006294Y001618D02*
X004539Y001618D01*
X004776Y001263D02*
X006246Y001263D01*
X006246Y001144D02*
X004734Y001144D01*
X005485Y002211D02*
X006647Y002211D01*
X006647Y002330D02*
X005480Y002330D01*
X005485Y002448D02*
X006647Y002448D01*
X006647Y002567D02*
X005476Y002567D01*
X005485Y002685D02*
X005527Y002685D01*
X007067Y002567D02*
X007147Y002567D01*
X007147Y002448D02*
X007067Y002448D01*
X007067Y002330D02*
X007147Y002330D01*
X007147Y002211D02*
X007067Y002211D01*
X004000Y003634D02*
X002631Y003634D01*
X002779Y003752D02*
X004000Y003752D01*
X004000Y003871D02*
X002828Y003871D01*
X002829Y003989D02*
X002861Y003989D01*
X002834Y004108D02*
X002788Y004108D01*
X002834Y004226D02*
X002684Y004226D01*
X003437Y004108D02*
X003437Y004108D01*
X003437Y003989D02*
X003437Y003989D01*
X005030Y003735D02*
X005030Y003735D01*
X002667Y002330D02*
X002613Y002330D01*
X011567Y004463D02*
X016903Y004463D01*
X016785Y004582D02*
X011567Y004582D01*
X011567Y004700D02*
X016666Y004700D01*
X016548Y004819D02*
X011567Y004819D01*
X011567Y004938D02*
X016429Y004938D01*
X016347Y005056D02*
X011567Y005056D01*
X011567Y005175D02*
X016347Y005175D01*
X016347Y005293D02*
X011567Y005293D01*
X011567Y005412D02*
X016347Y005412D01*
X016347Y005530D02*
X011567Y005530D01*
X011567Y005649D02*
X016347Y005649D01*
X016347Y005767D02*
X011567Y005767D01*
X011567Y005886D02*
X016347Y005886D01*
X016347Y006004D02*
X011567Y006004D01*
X011567Y006123D02*
X016347Y006123D01*
X016347Y006242D02*
X011567Y006242D01*
X011501Y006360D02*
X016347Y006360D01*
X016347Y006479D02*
X011382Y006479D01*
X011264Y006597D02*
X016347Y006597D01*
X016081Y006716D02*
X013232Y006716D01*
X013264Y006834D02*
X016050Y006834D01*
X016050Y006953D02*
X013264Y006953D01*
X013264Y007071D02*
X016050Y007071D01*
X016050Y007190D02*
X013264Y007190D01*
X013264Y007308D02*
X016050Y007308D01*
X016125Y007427D02*
X013189Y007427D01*
X016967Y006597D02*
X019950Y006597D01*
X020068Y006716D02*
X017232Y006716D01*
X017264Y006834D02*
X020187Y006834D01*
X020247Y006953D02*
X017264Y006953D01*
X017264Y007071D02*
X020247Y007071D01*
X020247Y007190D02*
X017264Y007190D01*
X017264Y007308D02*
X020247Y007308D01*
X020247Y007427D02*
X017189Y007427D01*
X016967Y006479D02*
X019847Y006479D01*
X019847Y006360D02*
X016967Y006360D01*
X016967Y006242D02*
X019847Y006242D01*
X019617Y006123D02*
X016967Y006123D01*
X016967Y006004D02*
X019597Y006004D01*
X019597Y005886D02*
X016967Y005886D01*
X016967Y005767D02*
X019597Y005767D01*
X019597Y005649D02*
X016967Y005649D01*
X016967Y005530D02*
X019647Y005530D01*
X019010Y005412D02*
X016967Y005412D01*
X016968Y005293D02*
X018947Y005293D01*
X018938Y005175D02*
X017086Y005175D01*
X017205Y005056D02*
X018974Y005056D01*
X020243Y005507D02*
X020317Y005580D01*
X020317Y006103D01*
X020267Y006153D01*
X020267Y006320D01*
X020527Y006581D01*
X020561Y006547D01*
X020747Y006547D01*
X020747Y006153D01*
X020697Y006103D01*
X020697Y005580D01*
X020770Y005507D01*
X020739Y005476D01*
X020737Y005478D01*
X020620Y005526D01*
X020493Y005526D01*
X020376Y005478D01*
X020317Y005418D01*
X020317Y005434D01*
X020243Y005507D01*
X020266Y005530D02*
X020747Y005530D01*
X020697Y005649D02*
X020317Y005649D01*
X020317Y005767D02*
X020697Y005767D01*
X020697Y005886D02*
X020317Y005886D01*
X020317Y006004D02*
X020697Y006004D01*
X020717Y006123D02*
X020297Y006123D01*
X020267Y006242D02*
X020747Y006242D01*
X020747Y006360D02*
X020307Y006360D01*
X020425Y006479D02*
X020747Y006479D01*
X020298Y007546D02*
X008402Y007546D01*
X008394Y007566D02*
X008464Y007398D01*
X008464Y007216D01*
X008394Y007048D01*
X008265Y006920D01*
X008098Y006850D01*
X007916Y006850D01*
X007748Y006920D01*
X007619Y007048D01*
X007550Y007216D01*
X007550Y007398D01*
X007619Y007566D01*
X007748Y007694D01*
X007916Y007764D01*
X008098Y007764D01*
X008265Y007694D01*
X008394Y007566D01*
X008296Y007664D02*
X020417Y007664D01*
X020476Y007783D02*
X001017Y007783D01*
X001017Y007664D02*
X005718Y007664D01*
X005611Y007546D02*
X001017Y007546D01*
X001017Y007427D02*
X005562Y007427D01*
X005550Y007308D02*
X001017Y007308D01*
X004286Y007190D02*
X005561Y007190D01*
X005610Y007071D02*
X004286Y007071D01*
X004286Y006953D02*
X005715Y006953D01*
X006333Y006834D02*
X004286Y006834D01*
X004286Y006716D02*
X006451Y006716D01*
X006570Y006597D02*
X004286Y006597D01*
X004286Y006479D02*
X004931Y006479D01*
X004813Y006360D02*
X004286Y006360D01*
X004509Y006242D02*
X004605Y006242D01*
X006253Y005767D02*
X006330Y005767D01*
X006330Y005649D02*
X006253Y005649D01*
X005967Y005530D02*
X006647Y005530D01*
X008301Y006360D02*
X008657Y006360D01*
X008657Y006479D02*
X008182Y006479D01*
X008657Y006597D02*
X007164Y006597D01*
X007045Y006716D02*
X008657Y006716D01*
X008657Y006834D02*
X006926Y006834D01*
X006808Y006953D02*
X007715Y006953D01*
X007610Y007071D02*
X006689Y007071D01*
X006571Y007190D02*
X007561Y007190D01*
X007550Y007308D02*
X006464Y007308D01*
X006451Y007427D02*
X007562Y007427D01*
X007611Y007546D02*
X006402Y007546D01*
X006296Y007664D02*
X007718Y007664D01*
X008451Y007427D02*
X008657Y007427D01*
X008657Y007308D02*
X008464Y007308D01*
X008453Y007190D02*
X008657Y007190D01*
X008657Y007071D02*
X008404Y007071D01*
X008299Y006953D02*
X008657Y006953D01*
D22*
X010257Y006900D02*
X010407Y007050D01*
X010257Y006900D02*
X010257Y003507D01*
X009957Y003207D01*
X008357Y003207D01*
X008357Y006007D01*
X008057Y006307D01*
X007157Y006307D01*
X006207Y007257D01*
X006007Y007307D01*
X006757Y006307D02*
X005057Y006307D01*
X004957Y006207D01*
X004957Y006007D01*
X004891Y005942D01*
X004891Y005907D01*
X004222Y005907D02*
X004157Y005842D01*
X004157Y005607D01*
X003987Y005437D01*
X003437Y005437D01*
X003437Y005122D02*
X003972Y005122D01*
X004357Y005507D01*
X005457Y005507D01*
X005557Y005407D01*
X005557Y005107D01*
X005457Y005007D01*
X005037Y005007D01*
X005030Y005015D01*
X005308Y004759D02*
X005357Y004807D01*
X005557Y004807D01*
X005757Y005007D01*
X005757Y005772D01*
X005622Y005907D01*
X006757Y006307D02*
X006857Y006207D01*
X006857Y005972D01*
X006922Y005907D01*
X006857Y005872D01*
X006857Y004007D01*
X006857Y001807D01*
X007291Y001372D01*
X007291Y001307D01*
X007357Y001342D01*
X007357Y002607D01*
X007461Y002711D01*
X007884Y002711D01*
X008457Y002707D02*
X008457Y001907D01*
X009757Y001907D01*
X011357Y003507D01*
X011357Y006207D01*
X010957Y006607D01*
X010957Y007000D01*
X010907Y007050D01*
X016407Y007050D02*
X016557Y006900D01*
X016557Y005107D01*
X017057Y004607D01*
X019957Y004607D01*
X020157Y004407D01*
X020222Y004407D01*
X020157Y004342D01*
X020157Y003507D01*
X020107Y003457D01*
X021057Y003107D02*
X021057Y004007D01*
X020857Y004207D01*
X020857Y004372D01*
X020891Y004407D01*
X020891Y004572D01*
X020657Y004807D01*
X017157Y004807D01*
X016757Y005207D01*
X016757Y006900D01*
X016907Y007050D01*
X020057Y006407D02*
X020057Y005942D01*
X019957Y005842D01*
X020957Y005942D02*
X021057Y005842D01*
X020957Y005942D02*
X020957Y006907D01*
X020822Y006907D01*
X020457Y006807D02*
X020457Y007407D01*
X020557Y007507D01*
X020822Y007507D01*
X021491Y007507D02*
X021557Y007442D01*
X021557Y006907D01*
X021491Y006907D01*
X021557Y006907D02*
X021557Y002707D01*
X021357Y002507D01*
X020857Y002507D01*
X020357Y002007D01*
X019857Y002007D01*
X019657Y002207D01*
X017057Y002207D01*
X016907Y002057D01*
X016907Y001750D01*
X016857Y001700D01*
X016857Y001507D01*
X016657Y001307D01*
X016557Y001307D01*
X015957Y001800D02*
X015907Y001750D01*
X015957Y001800D02*
X015957Y002207D01*
X016157Y002407D01*
X019957Y002407D01*
X020107Y002457D01*
X021107Y002957D02*
X021107Y003057D01*
X021057Y003107D01*
X021057Y005172D02*
X020922Y005207D01*
X020557Y005207D01*
X019957Y005172D02*
X019922Y005207D01*
X019257Y005207D01*
X020057Y006407D02*
X020457Y006807D01*
X008357Y003207D02*
X008357Y003107D01*
X008257Y003007D01*
X008157Y003007D01*
X008117Y002967D01*
X007884Y002967D01*
X007884Y003479D02*
X007385Y003479D01*
X007357Y003507D01*
X006857Y004007D02*
X005257Y004007D01*
X005241Y003991D01*
X005030Y003991D01*
X005013Y004007D01*
X004457Y004007D01*
X004357Y003907D01*
X004357Y003872D01*
X004357Y002407D01*
X004257Y002307D01*
X003557Y002307D01*
X003407Y002157D01*
X003407Y001757D01*
X004007Y001757D02*
X004007Y001657D01*
X004157Y001507D01*
X004257Y001507D01*
X004457Y001307D01*
X005557Y002507D02*
X005657Y002407D01*
X005557Y002507D02*
X005257Y002507D01*
X005208Y002456D01*
X005030Y002456D01*
X005757Y002907D02*
X005457Y003207D01*
X005257Y003207D01*
X005241Y003223D01*
X005030Y003223D01*
X005030Y003479D02*
X005229Y003479D01*
X005257Y003507D01*
X005657Y003507D01*
X005757Y003407D01*
X004157Y004407D02*
X003957Y004207D01*
X003757Y004207D01*
X003727Y004177D01*
X003437Y004177D01*
X004157Y004407D02*
X004222Y004407D01*
X004357Y004542D01*
X004422Y004542D01*
X004457Y004507D01*
X005025Y004507D01*
X005030Y004503D01*
X005652Y004503D01*
X005657Y004507D01*
X005308Y004759D02*
X005030Y004759D01*
X004457Y005307D02*
X003957Y004807D01*
X003437Y004807D01*
X004757Y005307D02*
X004793Y005270D01*
X005030Y005270D01*
X004757Y005307D02*
X004457Y005307D01*
X007884Y001944D02*
X008120Y001944D01*
X008157Y001907D01*
X008457Y001907D01*
D23*
X008007Y007307D03*
X007007Y007307D03*
X006007Y007307D03*
D24*
X003757Y007607D03*
X001557Y007607D03*
X006257Y005407D03*
X007257Y005407D03*
X005657Y004407D03*
X003457Y003807D03*
X005757Y003407D03*
X006157Y003607D03*
X007257Y003507D03*
X005757Y002907D03*
X005657Y002407D03*
X008457Y002707D03*
X012257Y003107D03*
X014257Y003107D03*
X016357Y003107D03*
X018457Y001807D03*
X016557Y001307D03*
X019257Y005207D03*
X020557Y005207D03*
X018457Y006207D03*
X020457Y006307D03*
X018457Y007607D03*
X015557Y006107D03*
X013857Y006107D03*
X012357Y006107D03*
X013757Y007607D03*
X002157Y004907D03*
X002157Y001807D03*
X004457Y001307D03*
M02*
