G75*
G70*
%OFA0B0*%
%FSLAX24Y24*%
%IPPOS*%
%LPD*%
%AMOC8*
5,1,8,0,0,1.08239X$1,22.5*
%
%ADD10C,0.0000*%
%ADD11C,0.0060*%
%ADD12C,0.0080*%
%ADD13C,0.0050*%
%ADD14C,0.0030*%
%ADD15C,0.0100*%
%ADD16R,0.2047X0.0384*%
D10*
X000857Y000907D02*
X000857Y007957D01*
X021857Y007957D01*
X021857Y000907D01*
X000857Y000907D01*
X009521Y003827D02*
X009523Y003857D01*
X009529Y003887D01*
X009538Y003916D01*
X009551Y003943D01*
X009568Y003968D01*
X009587Y003991D01*
X009610Y004012D01*
X009635Y004029D01*
X009661Y004043D01*
X009690Y004053D01*
X009719Y004060D01*
X009749Y004063D01*
X009780Y004062D01*
X009810Y004057D01*
X009839Y004048D01*
X009866Y004036D01*
X009892Y004021D01*
X009916Y004002D01*
X009937Y003980D01*
X009955Y003956D01*
X009970Y003929D01*
X009981Y003901D01*
X009989Y003872D01*
X009993Y003842D01*
X009993Y003812D01*
X009989Y003782D01*
X009981Y003753D01*
X009970Y003725D01*
X009955Y003698D01*
X009937Y003674D01*
X009916Y003652D01*
X009892Y003633D01*
X009866Y003618D01*
X009839Y003606D01*
X009810Y003597D01*
X009780Y003592D01*
X009749Y003591D01*
X009719Y003594D01*
X009690Y003601D01*
X009661Y003611D01*
X009635Y003625D01*
X009610Y003642D01*
X009587Y003663D01*
X009568Y003686D01*
X009551Y003711D01*
X009538Y003738D01*
X009529Y003767D01*
X009523Y003797D01*
X009521Y003827D01*
X010521Y003827D02*
X010523Y003857D01*
X010529Y003887D01*
X010538Y003916D01*
X010551Y003943D01*
X010568Y003968D01*
X010587Y003991D01*
X010610Y004012D01*
X010635Y004029D01*
X010661Y004043D01*
X010690Y004053D01*
X010719Y004060D01*
X010749Y004063D01*
X010780Y004062D01*
X010810Y004057D01*
X010839Y004048D01*
X010866Y004036D01*
X010892Y004021D01*
X010916Y004002D01*
X010937Y003980D01*
X010955Y003956D01*
X010970Y003929D01*
X010981Y003901D01*
X010989Y003872D01*
X010993Y003842D01*
X010993Y003812D01*
X010989Y003782D01*
X010981Y003753D01*
X010970Y003725D01*
X010955Y003698D01*
X010937Y003674D01*
X010916Y003652D01*
X010892Y003633D01*
X010866Y003618D01*
X010839Y003606D01*
X010810Y003597D01*
X010780Y003592D01*
X010749Y003591D01*
X010719Y003594D01*
X010690Y003601D01*
X010661Y003611D01*
X010635Y003625D01*
X010610Y003642D01*
X010587Y003663D01*
X010568Y003686D01*
X010551Y003711D01*
X010538Y003738D01*
X010529Y003767D01*
X010523Y003797D01*
X010521Y003827D01*
X010521Y004827D02*
X010523Y004857D01*
X010529Y004887D01*
X010538Y004916D01*
X010551Y004943D01*
X010568Y004968D01*
X010587Y004991D01*
X010610Y005012D01*
X010635Y005029D01*
X010661Y005043D01*
X010690Y005053D01*
X010719Y005060D01*
X010749Y005063D01*
X010780Y005062D01*
X010810Y005057D01*
X010839Y005048D01*
X010866Y005036D01*
X010892Y005021D01*
X010916Y005002D01*
X010937Y004980D01*
X010955Y004956D01*
X010970Y004929D01*
X010981Y004901D01*
X010989Y004872D01*
X010993Y004842D01*
X010993Y004812D01*
X010989Y004782D01*
X010981Y004753D01*
X010970Y004725D01*
X010955Y004698D01*
X010937Y004674D01*
X010916Y004652D01*
X010892Y004633D01*
X010866Y004618D01*
X010839Y004606D01*
X010810Y004597D01*
X010780Y004592D01*
X010749Y004591D01*
X010719Y004594D01*
X010690Y004601D01*
X010661Y004611D01*
X010635Y004625D01*
X010610Y004642D01*
X010587Y004663D01*
X010568Y004686D01*
X010551Y004711D01*
X010538Y004738D01*
X010529Y004767D01*
X010523Y004797D01*
X010521Y004827D01*
X009521Y004827D02*
X009523Y004857D01*
X009529Y004887D01*
X009538Y004916D01*
X009551Y004943D01*
X009568Y004968D01*
X009587Y004991D01*
X009610Y005012D01*
X009635Y005029D01*
X009661Y005043D01*
X009690Y005053D01*
X009719Y005060D01*
X009749Y005063D01*
X009780Y005062D01*
X009810Y005057D01*
X009839Y005048D01*
X009866Y005036D01*
X009892Y005021D01*
X009916Y005002D01*
X009937Y004980D01*
X009955Y004956D01*
X009970Y004929D01*
X009981Y004901D01*
X009989Y004872D01*
X009993Y004842D01*
X009993Y004812D01*
X009989Y004782D01*
X009981Y004753D01*
X009970Y004725D01*
X009955Y004698D01*
X009937Y004674D01*
X009916Y004652D01*
X009892Y004633D01*
X009866Y004618D01*
X009839Y004606D01*
X009810Y004597D01*
X009780Y004592D01*
X009749Y004591D01*
X009719Y004594D01*
X009690Y004601D01*
X009661Y004611D01*
X009635Y004625D01*
X009610Y004642D01*
X009587Y004663D01*
X009568Y004686D01*
X009551Y004711D01*
X009538Y004738D01*
X009529Y004767D01*
X009523Y004797D01*
X009521Y004827D01*
X009521Y005827D02*
X009523Y005857D01*
X009529Y005887D01*
X009538Y005916D01*
X009551Y005943D01*
X009568Y005968D01*
X009587Y005991D01*
X009610Y006012D01*
X009635Y006029D01*
X009661Y006043D01*
X009690Y006053D01*
X009719Y006060D01*
X009749Y006063D01*
X009780Y006062D01*
X009810Y006057D01*
X009839Y006048D01*
X009866Y006036D01*
X009892Y006021D01*
X009916Y006002D01*
X009937Y005980D01*
X009955Y005956D01*
X009970Y005929D01*
X009981Y005901D01*
X009989Y005872D01*
X009993Y005842D01*
X009993Y005812D01*
X009989Y005782D01*
X009981Y005753D01*
X009970Y005725D01*
X009955Y005698D01*
X009937Y005674D01*
X009916Y005652D01*
X009892Y005633D01*
X009866Y005618D01*
X009839Y005606D01*
X009810Y005597D01*
X009780Y005592D01*
X009749Y005591D01*
X009719Y005594D01*
X009690Y005601D01*
X009661Y005611D01*
X009635Y005625D01*
X009610Y005642D01*
X009587Y005663D01*
X009568Y005686D01*
X009551Y005711D01*
X009538Y005738D01*
X009529Y005767D01*
X009523Y005797D01*
X009521Y005827D01*
X010521Y005827D02*
X010523Y005857D01*
X010529Y005887D01*
X010538Y005916D01*
X010551Y005943D01*
X010568Y005968D01*
X010587Y005991D01*
X010610Y006012D01*
X010635Y006029D01*
X010661Y006043D01*
X010690Y006053D01*
X010719Y006060D01*
X010749Y006063D01*
X010780Y006062D01*
X010810Y006057D01*
X010839Y006048D01*
X010866Y006036D01*
X010892Y006021D01*
X010916Y006002D01*
X010937Y005980D01*
X010955Y005956D01*
X010970Y005929D01*
X010981Y005901D01*
X010989Y005872D01*
X010993Y005842D01*
X010993Y005812D01*
X010989Y005782D01*
X010981Y005753D01*
X010970Y005725D01*
X010955Y005698D01*
X010937Y005674D01*
X010916Y005652D01*
X010892Y005633D01*
X010866Y005618D01*
X010839Y005606D01*
X010810Y005597D01*
X010780Y005592D01*
X010749Y005591D01*
X010719Y005594D01*
X010690Y005601D01*
X010661Y005611D01*
X010635Y005625D01*
X010610Y005642D01*
X010587Y005663D01*
X010568Y005686D01*
X010551Y005711D01*
X010538Y005738D01*
X010529Y005767D01*
X010523Y005797D01*
X010521Y005827D01*
X002315Y005673D02*
X002317Y005699D01*
X002323Y005725D01*
X002333Y005750D01*
X002346Y005773D01*
X002362Y005793D01*
X002382Y005811D01*
X002404Y005826D01*
X002427Y005838D01*
X002453Y005846D01*
X002479Y005850D01*
X002505Y005850D01*
X002531Y005846D01*
X002557Y005838D01*
X002581Y005826D01*
X002602Y005811D01*
X002622Y005793D01*
X002638Y005773D01*
X002651Y005750D01*
X002661Y005725D01*
X002667Y005699D01*
X002669Y005673D01*
X002667Y005647D01*
X002661Y005621D01*
X002651Y005596D01*
X002638Y005573D01*
X002622Y005553D01*
X002602Y005535D01*
X002580Y005520D01*
X002557Y005508D01*
X002531Y005500D01*
X002505Y005496D01*
X002479Y005496D01*
X002453Y005500D01*
X002427Y005508D01*
X002403Y005520D01*
X002382Y005535D01*
X002362Y005553D01*
X002346Y005573D01*
X002333Y005596D01*
X002323Y005621D01*
X002317Y005647D01*
X002315Y005673D01*
X002315Y003941D02*
X002317Y003967D01*
X002323Y003993D01*
X002333Y004018D01*
X002346Y004041D01*
X002362Y004061D01*
X002382Y004079D01*
X002404Y004094D01*
X002427Y004106D01*
X002453Y004114D01*
X002479Y004118D01*
X002505Y004118D01*
X002531Y004114D01*
X002557Y004106D01*
X002581Y004094D01*
X002602Y004079D01*
X002622Y004061D01*
X002638Y004041D01*
X002651Y004018D01*
X002661Y003993D01*
X002667Y003967D01*
X002669Y003941D01*
X002667Y003915D01*
X002661Y003889D01*
X002651Y003864D01*
X002638Y003841D01*
X002622Y003821D01*
X002602Y003803D01*
X002580Y003788D01*
X002557Y003776D01*
X002531Y003768D01*
X002505Y003764D01*
X002479Y003764D01*
X002453Y003768D01*
X002427Y003776D01*
X002403Y003788D01*
X002382Y003803D01*
X002362Y003821D01*
X002346Y003841D01*
X002333Y003864D01*
X002323Y003889D01*
X002317Y003915D01*
X002315Y003941D01*
X020090Y001448D02*
X020092Y001482D01*
X020098Y001516D01*
X020108Y001549D01*
X020121Y001580D01*
X020139Y001610D01*
X020159Y001638D01*
X020183Y001663D01*
X020209Y001685D01*
X020237Y001703D01*
X020268Y001719D01*
X020300Y001731D01*
X020334Y001739D01*
X020368Y001743D01*
X020402Y001743D01*
X020436Y001739D01*
X020470Y001731D01*
X020502Y001719D01*
X020532Y001703D01*
X020561Y001685D01*
X020587Y001663D01*
X020611Y001638D01*
X020631Y001610D01*
X020649Y001580D01*
X020662Y001549D01*
X020672Y001516D01*
X020678Y001482D01*
X020680Y001448D01*
X020678Y001414D01*
X020672Y001380D01*
X020662Y001347D01*
X020649Y001316D01*
X020631Y001286D01*
X020611Y001258D01*
X020587Y001233D01*
X020561Y001211D01*
X020533Y001193D01*
X020502Y001177D01*
X020470Y001165D01*
X020436Y001157D01*
X020402Y001153D01*
X020368Y001153D01*
X020334Y001157D01*
X020300Y001165D01*
X020268Y001177D01*
X020237Y001193D01*
X020209Y001211D01*
X020183Y001233D01*
X020159Y001258D01*
X020139Y001286D01*
X020121Y001316D01*
X020108Y001347D01*
X020098Y001380D01*
X020092Y001414D01*
X020090Y001448D01*
D11*
X018057Y001257D02*
X017757Y001257D01*
X017057Y001257D02*
X016757Y001257D01*
X016907Y001407D02*
X016907Y001107D01*
X015727Y001257D02*
X015729Y001283D01*
X015735Y001309D01*
X015744Y001333D01*
X015757Y001356D01*
X015773Y001377D01*
X015792Y001395D01*
X015813Y001411D01*
X015837Y001423D01*
X015861Y001431D01*
X015887Y001436D01*
X015914Y001437D01*
X015940Y001434D01*
X015965Y001427D01*
X015989Y001417D01*
X016012Y001403D01*
X016032Y001387D01*
X016049Y001367D01*
X016064Y001345D01*
X016075Y001321D01*
X016083Y001296D01*
X016087Y001270D01*
X016087Y001244D01*
X016083Y001218D01*
X016075Y001193D01*
X016064Y001169D01*
X016049Y001147D01*
X016032Y001127D01*
X016012Y001111D01*
X015989Y001097D01*
X015965Y001087D01*
X015940Y001080D01*
X015914Y001077D01*
X015887Y001078D01*
X015861Y001083D01*
X015837Y001091D01*
X015813Y001103D01*
X015792Y001119D01*
X015773Y001137D01*
X015757Y001158D01*
X015744Y001181D01*
X015735Y001205D01*
X015729Y001231D01*
X015727Y001257D01*
X001582Y001037D02*
X001355Y001037D01*
X001468Y001037D02*
X001468Y001377D01*
X001355Y001264D01*
X001214Y001264D02*
X001100Y001037D01*
X000987Y001264D01*
X004543Y006537D02*
X004657Y006537D01*
X004714Y006594D01*
X004714Y006877D01*
X004855Y006821D02*
X004855Y006764D01*
X004912Y006707D01*
X005025Y006707D01*
X005082Y006651D01*
X005082Y006594D01*
X005025Y006537D01*
X004912Y006537D01*
X004855Y006594D01*
X005223Y006537D02*
X005393Y006537D01*
X005450Y006594D01*
X005450Y006651D01*
X005393Y006707D01*
X005223Y006707D01*
X005393Y006707D02*
X005450Y006764D01*
X005450Y006821D01*
X005393Y006877D01*
X005223Y006877D01*
X005223Y006537D01*
X005687Y006537D02*
X005687Y006877D01*
X005857Y006877D01*
X005914Y006821D01*
X005914Y006707D01*
X005857Y006651D01*
X005687Y006651D01*
X005800Y006651D02*
X005914Y006537D01*
X006055Y006537D02*
X006282Y006877D01*
X006055Y006877D02*
X006282Y006537D01*
X006887Y006707D02*
X007114Y006707D01*
X007687Y006877D02*
X007914Y006877D01*
X007800Y006877D02*
X007800Y006537D01*
X008055Y006537D02*
X008282Y006877D01*
X008055Y006877D02*
X008282Y006537D01*
X005082Y006821D02*
X005025Y006877D01*
X004912Y006877D01*
X004855Y006821D01*
X004487Y006877D02*
X004487Y006594D01*
X004543Y006537D01*
X004449Y007337D02*
X004335Y007337D01*
X004279Y007394D01*
X004279Y007507D01*
X004335Y007564D01*
X004449Y007564D01*
X004505Y007507D01*
X004505Y007451D01*
X004279Y007451D01*
X004137Y007394D02*
X004080Y007451D01*
X003967Y007451D01*
X003910Y007507D01*
X003967Y007564D01*
X004137Y007564D01*
X004137Y007394D02*
X004080Y007337D01*
X003910Y007337D01*
X003783Y007337D02*
X003783Y007394D01*
X003726Y007394D01*
X003726Y007337D01*
X003783Y007337D01*
X003594Y007337D02*
X003481Y007337D01*
X003537Y007337D02*
X003537Y007677D01*
X003481Y007677D01*
X003339Y007507D02*
X003282Y007564D01*
X003226Y007507D01*
X003226Y007337D01*
X003339Y007337D02*
X003339Y007507D01*
X003226Y007507D02*
X003169Y007564D01*
X003112Y007564D01*
X003112Y007337D01*
X002971Y007337D02*
X002971Y007564D01*
X002744Y007564D02*
X002744Y007394D01*
X002801Y007337D01*
X002971Y007337D01*
X002603Y007337D02*
X002432Y007337D01*
X002376Y007394D01*
X002432Y007451D01*
X002603Y007451D01*
X002603Y007507D02*
X002603Y007337D01*
X002603Y007507D02*
X002546Y007564D01*
X002432Y007564D01*
X002050Y007564D02*
X002050Y007394D01*
X001993Y007337D01*
X001937Y007394D01*
X001880Y007337D01*
X001823Y007394D01*
X001823Y007564D01*
X001682Y007564D02*
X001682Y007394D01*
X001625Y007337D01*
X001568Y007394D01*
X001512Y007337D01*
X001455Y007394D01*
X001455Y007564D01*
X001314Y007564D02*
X001314Y007394D01*
X001257Y007337D01*
X001200Y007394D01*
X001143Y007337D01*
X001087Y007394D01*
X001087Y007564D01*
X002192Y007394D02*
X002192Y007337D01*
X002248Y007337D01*
X002248Y007394D01*
X002192Y007394D01*
X017787Y007494D02*
X017843Y007437D01*
X017957Y007437D01*
X018014Y007551D02*
X017787Y007551D01*
X017787Y007607D02*
X017787Y007494D01*
X017787Y007607D02*
X017843Y007664D01*
X017957Y007664D01*
X018014Y007607D01*
X018014Y007551D01*
X018155Y007664D02*
X018382Y007437D01*
X018523Y007437D02*
X018693Y007437D01*
X018750Y007494D01*
X018750Y007607D01*
X018693Y007664D01*
X018523Y007664D01*
X018523Y007324D01*
X018382Y007664D02*
X018155Y007437D01*
X018892Y007494D02*
X018948Y007437D01*
X019062Y007437D01*
X019118Y007494D01*
X019118Y007777D01*
X019260Y007721D02*
X019260Y007664D01*
X019317Y007607D01*
X019430Y007607D01*
X019487Y007551D01*
X019487Y007494D01*
X019430Y007437D01*
X019317Y007437D01*
X019260Y007494D01*
X019628Y007437D02*
X019798Y007437D01*
X019855Y007494D01*
X019855Y007551D01*
X019798Y007607D01*
X019628Y007607D01*
X019798Y007607D02*
X019855Y007664D01*
X019855Y007721D01*
X019798Y007777D01*
X019628Y007777D01*
X019628Y007437D01*
X018892Y007494D02*
X018892Y007777D01*
X019260Y007721D02*
X019317Y007777D01*
X019430Y007777D01*
X019487Y007721D01*
X019587Y006977D02*
X019587Y006694D01*
X019643Y006637D01*
X019757Y006637D01*
X019814Y006694D01*
X019814Y006977D01*
X019955Y006921D02*
X019955Y006864D01*
X020012Y006807D01*
X020125Y006807D01*
X020182Y006751D01*
X020182Y006694D01*
X020125Y006637D01*
X020012Y006637D01*
X019955Y006694D01*
X020323Y006637D02*
X020493Y006637D01*
X020550Y006694D01*
X020550Y006751D01*
X020493Y006807D01*
X020323Y006807D01*
X020493Y006807D02*
X020550Y006864D01*
X020550Y006921D01*
X020493Y006977D01*
X020323Y006977D01*
X020323Y006637D01*
X020282Y006477D02*
X020055Y006137D01*
X019914Y006137D02*
X019800Y006251D01*
X019857Y006251D02*
X019687Y006251D01*
X019687Y006137D02*
X019687Y006477D01*
X019857Y006477D01*
X019914Y006421D01*
X019914Y006307D01*
X019857Y006251D01*
X020055Y006477D02*
X020282Y006137D01*
X020900Y006137D02*
X020900Y006477D01*
X020787Y006477D02*
X021014Y006477D01*
X021155Y006477D02*
X021382Y006137D01*
X021155Y006137D02*
X021382Y006477D01*
X020182Y006921D02*
X020125Y006977D01*
X020012Y006977D01*
X019955Y006921D01*
D12*
X009057Y006625D02*
X009057Y007907D01*
X009057Y006355D02*
X009057Y006304D01*
X009057Y006034D02*
X009057Y004752D01*
X009057Y004483D02*
X009057Y004432D01*
X009057Y004162D02*
X009057Y002880D01*
X009057Y002610D02*
X009057Y002559D01*
X009057Y002289D02*
X009057Y001007D01*
D13*
X010282Y001082D02*
X010282Y001316D01*
X010398Y001432D01*
X010515Y001316D01*
X010515Y001082D01*
X010782Y001140D02*
X010840Y001082D01*
X010957Y001082D01*
X011015Y001140D01*
X011015Y001257D01*
X010898Y001257D01*
X010782Y001374D02*
X010782Y001140D01*
X010515Y001257D02*
X010282Y001257D01*
X010782Y001374D02*
X010840Y001432D01*
X010957Y001432D01*
X011015Y001374D01*
X011282Y001432D02*
X011515Y001432D01*
X011282Y001432D02*
X011282Y001082D01*
X011282Y001257D02*
X011398Y001257D01*
X011782Y001257D02*
X011898Y001257D01*
X011782Y001082D02*
X012015Y001082D01*
X011782Y001082D02*
X011782Y001432D01*
X012015Y001432D01*
X012282Y001432D02*
X012457Y001432D01*
X012515Y001374D01*
X012515Y001140D01*
X012457Y001082D01*
X012282Y001082D01*
X012282Y001432D01*
X012782Y001374D02*
X012782Y001140D01*
X012840Y001082D01*
X012957Y001082D01*
X013015Y001140D01*
X013282Y001082D02*
X013457Y001082D01*
X013515Y001140D01*
X013515Y001199D01*
X013457Y001257D01*
X013282Y001257D01*
X013457Y001257D02*
X013515Y001316D01*
X013515Y001374D01*
X013457Y001432D01*
X013282Y001432D01*
X013282Y001082D01*
X013782Y001082D02*
X013782Y001432D01*
X013957Y001432D01*
X014015Y001374D01*
X014015Y001257D01*
X013957Y001199D01*
X013782Y001199D01*
X014282Y001140D02*
X014282Y001374D01*
X014340Y001432D01*
X014457Y001432D01*
X014515Y001374D01*
X014515Y001140D01*
X014457Y001082D01*
X014340Y001082D01*
X014282Y001140D01*
X014398Y001199D02*
X014515Y001082D01*
X014782Y001082D02*
X014782Y001432D01*
X014957Y001432D01*
X015015Y001374D01*
X015015Y001257D01*
X014957Y001199D01*
X014782Y001199D01*
X014898Y001199D02*
X015015Y001082D01*
X015157Y001627D02*
X015657Y001627D01*
X016157Y001627D02*
X016657Y001627D01*
X017157Y001627D02*
X017657Y001627D01*
X018157Y001627D02*
X019457Y001627D01*
X019457Y007177D01*
X017157Y007177D01*
X016948Y007382D02*
X016832Y007382D01*
X016890Y007382D02*
X016890Y007732D01*
X016832Y007732D01*
X016515Y007557D02*
X016515Y007382D01*
X016282Y007382D02*
X016282Y007732D01*
X016340Y007616D02*
X016457Y007616D01*
X016515Y007557D01*
X016340Y007616D02*
X016282Y007557D01*
X016157Y007177D02*
X013157Y007177D01*
X012957Y007382D02*
X012840Y007382D01*
X012782Y007440D01*
X012782Y007674D01*
X012840Y007732D01*
X012957Y007732D01*
X013015Y007674D01*
X013015Y007440D01*
X012957Y007382D01*
X012515Y007382D02*
X012515Y007732D01*
X012282Y007732D02*
X012515Y007382D01*
X012282Y007382D02*
X012282Y007732D01*
X012015Y007732D02*
X012015Y007382D01*
X011782Y007382D02*
X011782Y007732D01*
X011898Y007616D01*
X012015Y007732D01*
X011282Y007732D02*
X011282Y007382D01*
X011515Y007382D01*
X011015Y007382D02*
X010840Y007557D01*
X010782Y007499D02*
X011015Y007732D01*
X010782Y007732D02*
X010782Y007382D01*
X010457Y007440D02*
X010457Y007732D01*
X010515Y007732D02*
X010398Y007732D01*
X009948Y007732D02*
X009832Y007732D01*
X009890Y007732D02*
X009890Y007382D01*
X009832Y007382D02*
X009948Y007382D01*
X010282Y007440D02*
X010340Y007382D01*
X010398Y007382D01*
X010457Y007440D01*
X009515Y007382D02*
X009515Y007732D01*
X009282Y007732D02*
X009282Y007382D01*
X009157Y007177D02*
X008607Y007177D01*
X008607Y001627D01*
X010157Y001627D01*
X012782Y001374D02*
X012840Y001432D01*
X012957Y001432D01*
X013015Y001374D01*
X019662Y001345D02*
X019662Y004069D01*
X021552Y004069D01*
X021552Y001345D01*
X021107Y001345D01*
X021107Y001657D01*
X021099Y001657D02*
X020107Y001657D01*
X020107Y001345D01*
X019662Y001345D01*
X019797Y005407D02*
X020117Y005407D01*
X020897Y005407D02*
X021217Y005407D01*
X009515Y007557D02*
X009282Y007557D01*
D14*
X010833Y001442D02*
X010772Y001381D01*
X010833Y001442D01*
X010957Y001442D01*
X011019Y001381D01*
X010957Y001442D01*
X010833Y001442D01*
X010772Y001381D01*
X010833Y001442D01*
X010957Y001442D01*
X011019Y001381D01*
X010957Y001442D01*
X010833Y001442D01*
X010772Y001381D01*
X010772Y001134D01*
X010833Y001072D01*
X010957Y001072D01*
X011019Y001134D01*
X011019Y001257D01*
X010895Y001257D01*
X011019Y001257D01*
X011019Y001134D01*
X010957Y001072D01*
X010833Y001072D01*
X010772Y001134D01*
X010772Y001381D01*
X010772Y001134D01*
X010833Y001072D01*
X010957Y001072D01*
X011019Y001134D01*
X011019Y001257D01*
X010895Y001257D01*
X011019Y001257D01*
X011019Y001134D01*
X010957Y001072D01*
X010833Y001072D01*
X010772Y001134D01*
X010772Y001381D01*
X010772Y001134D01*
X010833Y001072D01*
X010957Y001072D01*
X011019Y001134D01*
X011019Y001257D01*
X010895Y001257D01*
X011019Y001381D02*
X010957Y001442D01*
X010833Y001442D01*
D15*
X007480Y001599D02*
X007480Y005615D01*
X005433Y005615D01*
X005433Y001599D01*
X004357Y001457D02*
X004357Y002057D01*
X004355Y002074D01*
X004351Y002091D01*
X004344Y002107D01*
X004334Y002121D01*
X004321Y002134D01*
X004307Y002144D01*
X004291Y002151D01*
X004274Y002155D01*
X004257Y002157D01*
X003157Y002157D01*
X003140Y002155D01*
X003123Y002151D01*
X003107Y002144D01*
X003093Y002134D01*
X003080Y002121D01*
X003070Y002107D01*
X003063Y002091D01*
X003059Y002074D01*
X003057Y002057D01*
X003057Y001457D01*
X003059Y001440D01*
X003063Y001423D01*
X003070Y001407D01*
X003080Y001393D01*
X003093Y001380D01*
X003107Y001370D01*
X003123Y001363D01*
X003140Y001359D01*
X003157Y001357D01*
X004257Y001357D01*
X004274Y001359D01*
X004291Y001363D01*
X004307Y001370D01*
X004321Y001380D01*
X004334Y001393D01*
X004344Y001407D01*
X004351Y001423D01*
X004355Y001440D01*
X004357Y001457D01*
X003713Y003350D02*
X000917Y003350D01*
X003713Y003350D02*
X003713Y004020D01*
X003713Y005594D02*
X003713Y006264D01*
X000917Y006264D01*
X015887Y001257D02*
X015889Y001265D01*
X015894Y001272D01*
X015901Y001276D01*
X015909Y001277D01*
X015917Y001274D01*
X015923Y001269D01*
X015927Y001261D01*
X015927Y001253D01*
X015923Y001245D01*
X015917Y001240D01*
X015909Y001237D01*
X015901Y001238D01*
X015894Y001242D01*
X015889Y001249D01*
X015887Y001257D01*
D16*
X006457Y001752D03*
M02*
