G75*
G70*
%OFA0B0*%
%FSLAX24Y24*%
%IPPOS*%
%LPD*%
%AMOC8*
5,1,8,0,0,1.08239X$1,22.5*
%
%ADD10C,0.0554*%
%ADD11C,0.0120*%
%ADD12C,0.0594*%
%ADD13C,0.0318*%
%ADD14C,0.0100*%
D10*
X020107Y002457D03*
X021107Y001957D03*
X021107Y002957D03*
X020107Y003457D03*
D11*
X001017Y001067D02*
X001017Y007797D01*
X021697Y007797D01*
X021697Y001067D01*
X020649Y001067D01*
X020771Y001190D01*
X020841Y001357D01*
X020841Y001538D01*
X020794Y001652D01*
X020822Y001624D01*
X020878Y001583D01*
X020939Y001552D01*
X021004Y001531D01*
X021072Y001520D01*
X021078Y001520D01*
X021078Y001928D01*
X021135Y001928D01*
X021135Y001520D01*
X021141Y001520D01*
X021209Y001531D01*
X021274Y001552D01*
X021336Y001583D01*
X021391Y001624D01*
X021440Y001672D01*
X021481Y001728D01*
X021512Y001789D01*
X021533Y001855D01*
X021544Y001923D01*
X021544Y001928D01*
X021136Y001928D01*
X021136Y001986D01*
X021544Y001986D01*
X021544Y001991D01*
X021533Y002059D01*
X021512Y002125D01*
X021481Y002186D01*
X021440Y002242D01*
X021391Y002291D01*
X021336Y002331D01*
X021274Y002362D01*
X021209Y002383D01*
X021141Y002394D01*
X021135Y002394D01*
X021135Y001986D01*
X021078Y001986D01*
X021078Y002394D01*
X021072Y002394D01*
X021004Y002383D01*
X020939Y002362D01*
X020878Y002331D01*
X020822Y002291D01*
X020773Y002242D01*
X020733Y002186D01*
X020702Y002125D01*
X020680Y002059D01*
X020670Y001991D01*
X020670Y001986D01*
X021078Y001986D01*
X021078Y001928D01*
X020670Y001928D01*
X020670Y001923D01*
X020680Y001855D01*
X020702Y001789D01*
X020716Y001761D01*
X020643Y001834D01*
X020476Y001903D01*
X020295Y001903D01*
X020128Y001834D01*
X019999Y001706D01*
X019930Y001538D01*
X019930Y001357D01*
X019999Y001190D01*
X020122Y001067D01*
X016768Y001067D01*
X016827Y001126D01*
X016876Y001244D01*
X016876Y001371D01*
X016827Y001488D01*
X016737Y001578D01*
X016620Y001626D01*
X016493Y001626D01*
X016376Y001578D01*
X016315Y001517D01*
X009457Y001517D01*
X009457Y001597D01*
X009770Y001597D01*
X009944Y001597D01*
X012244Y003897D01*
X019370Y003897D01*
X019544Y003897D01*
X020535Y004888D01*
X020620Y004888D01*
X020737Y004937D01*
X020827Y005026D01*
X020876Y005144D01*
X020876Y005271D01*
X020827Y005388D01*
X020737Y005478D01*
X020620Y005526D01*
X020493Y005526D01*
X020376Y005478D01*
X020286Y005388D01*
X020238Y005271D01*
X020238Y005185D01*
X019370Y004317D01*
X018664Y004317D01*
X019235Y004888D01*
X019320Y004888D01*
X019437Y004937D01*
X019527Y005026D01*
X019576Y005144D01*
X019576Y005271D01*
X019527Y005388D01*
X019437Y005478D01*
X019320Y005526D01*
X019193Y005526D01*
X019076Y005478D01*
X018986Y005388D01*
X018938Y005271D01*
X018938Y005185D01*
X018270Y004517D01*
X011970Y004517D01*
X011847Y004394D01*
X011119Y003666D01*
X011153Y003748D01*
X011153Y003906D01*
X011093Y004051D01*
X010981Y004163D01*
X010836Y004223D01*
X010678Y004223D01*
X010532Y004163D01*
X010421Y004051D01*
X010360Y003906D01*
X010360Y003748D01*
X010421Y003603D01*
X010532Y003491D01*
X010678Y003431D01*
X010836Y003431D01*
X010918Y003465D01*
X009970Y002517D01*
X009457Y002517D01*
X009457Y003567D01*
X009532Y003491D01*
X009678Y003431D01*
X009836Y003431D01*
X009981Y003491D01*
X010093Y003603D01*
X010153Y003748D01*
X010153Y003906D01*
X010093Y004051D01*
X009981Y004163D01*
X009836Y004223D01*
X009678Y004223D01*
X009532Y004163D01*
X009457Y004087D01*
X009457Y004567D01*
X009532Y004491D01*
X009678Y004431D01*
X009836Y004431D01*
X009981Y004491D01*
X010093Y004603D01*
X010153Y004748D01*
X010153Y004906D01*
X010093Y005051D01*
X009981Y005163D01*
X009836Y005223D01*
X009678Y005223D01*
X009532Y005163D01*
X009457Y005087D01*
X009457Y005567D01*
X009532Y005491D01*
X009678Y005431D01*
X009836Y005431D01*
X009981Y005491D01*
X010093Y005603D01*
X010153Y005748D01*
X010153Y005906D01*
X010093Y006051D01*
X009981Y006163D01*
X009836Y006223D01*
X009678Y006223D01*
X009532Y006163D01*
X009457Y006087D01*
X009457Y007507D01*
X008657Y007507D01*
X008657Y002958D01*
X008637Y002978D01*
X008567Y003007D01*
X008567Y006094D01*
X008444Y006217D01*
X008217Y006444D01*
X008217Y006900D01*
X008265Y006920D01*
X008394Y007048D01*
X008464Y007216D01*
X008464Y007398D01*
X008394Y007566D01*
X008265Y007694D01*
X008098Y007764D01*
X007916Y007764D01*
X007748Y007694D01*
X007619Y007566D01*
X007550Y007398D01*
X007550Y007216D01*
X007619Y007048D01*
X007748Y006920D01*
X007797Y006900D01*
X007797Y006444D01*
X007797Y006270D01*
X008147Y005920D01*
X008147Y002894D01*
X008147Y002792D01*
X008138Y002771D01*
X008138Y002644D01*
X008186Y002526D01*
X008196Y002517D01*
X006944Y002517D01*
X006076Y003385D01*
X006076Y003471D01*
X006027Y003588D01*
X005937Y003678D01*
X005820Y003726D01*
X005693Y003726D01*
X005576Y003678D01*
X005486Y003588D01*
X005438Y003471D01*
X005438Y003344D01*
X005486Y003226D01*
X005556Y003157D01*
X005486Y003088D01*
X005438Y002971D01*
X005438Y002844D01*
X005486Y002726D01*
X005576Y002637D01*
X005693Y002588D01*
X005779Y002588D01*
X006647Y001720D01*
X006770Y001597D01*
X008657Y001597D01*
X008657Y001517D01*
X004698Y001517D01*
X004637Y001578D01*
X004520Y001626D01*
X004393Y001626D01*
X004276Y001578D01*
X004186Y001488D01*
X004138Y001371D01*
X004138Y001244D01*
X004186Y001126D01*
X004246Y001067D01*
X001017Y001067D01*
X001017Y001144D02*
X004179Y001144D01*
X004138Y001263D02*
X001017Y001263D01*
X001017Y001381D02*
X004142Y001381D01*
X004198Y001500D02*
X001017Y001500D01*
X001017Y001618D02*
X004374Y001618D01*
X004539Y001618D02*
X006748Y001618D01*
X006630Y001737D02*
X001017Y001737D01*
X001017Y001855D02*
X006511Y001855D01*
X006393Y001974D02*
X001017Y001974D01*
X001017Y002093D02*
X006274Y002093D01*
X006156Y002211D02*
X001017Y002211D01*
X001017Y002330D02*
X006037Y002330D01*
X005919Y002448D02*
X001017Y002448D01*
X001017Y002567D02*
X005800Y002567D01*
X005527Y002685D02*
X001017Y002685D01*
X001017Y002804D02*
X005454Y002804D01*
X005438Y002922D02*
X001017Y002922D01*
X001017Y003041D02*
X005467Y003041D01*
X005553Y003159D02*
X001017Y003159D01*
X001017Y003278D02*
X005465Y003278D01*
X005438Y003396D02*
X001017Y003396D01*
X001017Y003515D02*
X005456Y003515D01*
X005532Y003634D02*
X002631Y003634D01*
X002683Y003655D02*
X002559Y003604D01*
X002425Y003604D01*
X002301Y003655D01*
X002206Y003750D01*
X002155Y003874D01*
X002155Y004008D01*
X002206Y004132D01*
X002301Y004227D01*
X002425Y004278D01*
X002559Y004278D01*
X002683Y004227D01*
X002778Y004132D01*
X002829Y004008D01*
X002829Y003874D01*
X002778Y003750D01*
X002683Y003655D01*
X002779Y003752D02*
X008147Y003752D01*
X008147Y003871D02*
X002828Y003871D01*
X002829Y003989D02*
X008147Y003989D01*
X008147Y004108D02*
X002788Y004108D01*
X002684Y004226D02*
X008147Y004226D01*
X008147Y004345D02*
X001017Y004345D01*
X001017Y004463D02*
X008147Y004463D01*
X008567Y004463D02*
X008657Y004463D01*
X008657Y004345D02*
X008567Y004345D01*
X008567Y004226D02*
X008657Y004226D01*
X008657Y004108D02*
X008567Y004108D01*
X008567Y003989D02*
X008657Y003989D01*
X008657Y003871D02*
X008567Y003871D01*
X008567Y003752D02*
X008657Y003752D01*
X008657Y003634D02*
X008567Y003634D01*
X008567Y003515D02*
X008657Y003515D01*
X008657Y003396D02*
X008567Y003396D01*
X008567Y003278D02*
X008657Y003278D01*
X008657Y003159D02*
X008567Y003159D01*
X008567Y003041D02*
X008657Y003041D01*
X008147Y003041D02*
X006420Y003041D01*
X006301Y003159D02*
X008147Y003159D01*
X008147Y003278D02*
X006183Y003278D01*
X006076Y003396D02*
X008147Y003396D01*
X008147Y003515D02*
X006057Y003515D01*
X005981Y003634D02*
X008147Y003634D01*
X009457Y003515D02*
X009508Y003515D01*
X009457Y003396D02*
X010849Y003396D01*
X010731Y003278D02*
X009457Y003278D01*
X009457Y003159D02*
X010612Y003159D01*
X010494Y003041D02*
X009457Y003041D01*
X009457Y002922D02*
X010375Y002922D01*
X010256Y002804D02*
X009457Y002804D01*
X009457Y002685D02*
X010138Y002685D01*
X010019Y002567D02*
X009457Y002567D01*
X010558Y002211D02*
X019735Y002211D01*
X019736Y002209D02*
X019859Y002086D01*
X020020Y002020D01*
X020194Y002020D01*
X020354Y002086D01*
X020477Y002209D01*
X020544Y002370D01*
X020544Y002544D01*
X020477Y002705D01*
X020354Y002828D01*
X020194Y002894D01*
X020020Y002894D01*
X019859Y002828D01*
X019736Y002705D01*
X019670Y002544D01*
X019670Y002370D01*
X019736Y002209D01*
X019686Y002330D02*
X010676Y002330D01*
X010795Y002448D02*
X019670Y002448D01*
X019679Y002567D02*
X010913Y002567D01*
X011032Y002685D02*
X019728Y002685D01*
X019835Y002804D02*
X011150Y002804D01*
X011269Y002922D02*
X020670Y002922D01*
X020670Y002870D02*
X020736Y002709D01*
X020859Y002586D01*
X021020Y002520D01*
X021194Y002520D01*
X021354Y002586D01*
X021477Y002709D01*
X021544Y002870D01*
X021544Y003044D01*
X021477Y003205D01*
X021354Y003328D01*
X021194Y003394D01*
X021020Y003394D01*
X020859Y003328D01*
X020736Y003205D01*
X020670Y003044D01*
X020670Y002870D01*
X020697Y002804D02*
X020378Y002804D01*
X020485Y002685D02*
X020760Y002685D01*
X020907Y002567D02*
X020534Y002567D01*
X020544Y002448D02*
X021697Y002448D01*
X021697Y002567D02*
X021307Y002567D01*
X021453Y002685D02*
X021697Y002685D01*
X021697Y002804D02*
X021516Y002804D01*
X021544Y002922D02*
X021697Y002922D01*
X021697Y003041D02*
X021544Y003041D01*
X021496Y003159D02*
X021697Y003159D01*
X021697Y003278D02*
X021404Y003278D01*
X021697Y003396D02*
X020544Y003396D01*
X020544Y003370D02*
X020477Y003209D01*
X020354Y003086D01*
X020194Y003020D01*
X020020Y003020D01*
X019859Y003086D01*
X019736Y003209D01*
X019670Y003370D01*
X019670Y003544D01*
X019736Y003705D01*
X019859Y003828D01*
X020020Y003894D01*
X020194Y003894D01*
X020354Y003828D01*
X020477Y003705D01*
X020544Y003544D01*
X020544Y003370D01*
X020506Y003278D02*
X020809Y003278D01*
X020717Y003159D02*
X020427Y003159D01*
X020244Y003041D02*
X020670Y003041D01*
X019969Y003041D02*
X011387Y003041D01*
X011506Y003159D02*
X019786Y003159D01*
X019708Y003278D02*
X011625Y003278D01*
X011743Y003396D02*
X019670Y003396D01*
X019670Y003515D02*
X011862Y003515D01*
X011980Y003634D02*
X019707Y003634D01*
X019784Y003752D02*
X012099Y003752D01*
X012217Y003871D02*
X019963Y003871D01*
X020251Y003871D02*
X021697Y003871D01*
X021697Y003752D02*
X020430Y003752D01*
X020507Y003634D02*
X021697Y003634D01*
X021697Y003515D02*
X020544Y003515D01*
X019636Y003989D02*
X021697Y003989D01*
X021697Y004108D02*
X019754Y004108D01*
X019873Y004226D02*
X021697Y004226D01*
X021697Y004345D02*
X019991Y004345D01*
X020110Y004463D02*
X021697Y004463D01*
X021697Y004582D02*
X020229Y004582D01*
X020347Y004700D02*
X021697Y004700D01*
X021697Y004819D02*
X020466Y004819D01*
X020738Y004938D02*
X021697Y004938D01*
X021697Y005056D02*
X020839Y005056D01*
X020876Y005175D02*
X021697Y005175D01*
X021697Y005293D02*
X020866Y005293D01*
X020803Y005412D02*
X021697Y005412D01*
X021697Y005530D02*
X011020Y005530D01*
X010981Y005491D02*
X011093Y005603D01*
X011153Y005748D01*
X011153Y005906D01*
X011093Y006051D01*
X010981Y006163D01*
X010836Y006223D01*
X010678Y006223D01*
X010532Y006163D01*
X010421Y006051D01*
X010360Y005906D01*
X010360Y005748D01*
X010421Y005603D01*
X010532Y005491D01*
X010678Y005431D01*
X010836Y005431D01*
X010981Y005491D01*
X011112Y005649D02*
X021697Y005649D01*
X021697Y005767D02*
X011153Y005767D01*
X011153Y005886D02*
X021697Y005886D01*
X021697Y006004D02*
X011112Y006004D01*
X011021Y006123D02*
X021697Y006123D01*
X021697Y006242D02*
X009457Y006242D01*
X009457Y006123D02*
X009492Y006123D01*
X010021Y006123D02*
X010492Y006123D01*
X010401Y006004D02*
X010112Y006004D01*
X010153Y005886D02*
X010360Y005886D01*
X010360Y005767D02*
X010153Y005767D01*
X010112Y005649D02*
X010402Y005649D01*
X010493Y005530D02*
X010020Y005530D01*
X009493Y005530D02*
X009457Y005530D01*
X009457Y005412D02*
X019010Y005412D01*
X018947Y005293D02*
X009457Y005293D01*
X009457Y005175D02*
X009560Y005175D01*
X009953Y005175D02*
X010560Y005175D01*
X010532Y005163D02*
X010421Y005051D01*
X010360Y004906D01*
X010360Y004748D01*
X010421Y004603D01*
X010532Y004491D01*
X010678Y004431D01*
X010836Y004431D01*
X010981Y004491D01*
X011093Y004603D01*
X011153Y004748D01*
X011153Y004906D01*
X011093Y005051D01*
X010981Y005163D01*
X010836Y005223D01*
X010678Y005223D01*
X010532Y005163D01*
X010425Y005056D02*
X010088Y005056D01*
X010140Y004938D02*
X010374Y004938D01*
X010360Y004819D02*
X010153Y004819D01*
X010133Y004700D02*
X010380Y004700D01*
X010441Y004582D02*
X010072Y004582D01*
X009914Y004463D02*
X010599Y004463D01*
X010914Y004463D02*
X011916Y004463D01*
X011798Y004345D02*
X009457Y004345D01*
X009457Y004463D02*
X009599Y004463D01*
X009457Y004226D02*
X011679Y004226D01*
X011560Y004108D02*
X011036Y004108D01*
X011118Y003989D02*
X011442Y003989D01*
X011323Y003871D02*
X011153Y003871D01*
X011153Y003752D02*
X011205Y003752D01*
X010508Y003515D02*
X010005Y003515D01*
X010105Y003634D02*
X010408Y003634D01*
X010360Y003752D02*
X010153Y003752D01*
X010153Y003871D02*
X010360Y003871D01*
X010395Y003989D02*
X010118Y003989D01*
X010036Y004108D02*
X010477Y004108D01*
X009477Y004108D02*
X009457Y004108D01*
X008657Y004582D02*
X008567Y004582D01*
X008567Y004700D02*
X008657Y004700D01*
X008657Y004819D02*
X008567Y004819D01*
X008567Y004938D02*
X008657Y004938D01*
X008657Y005056D02*
X008567Y005056D01*
X008567Y005175D02*
X008657Y005175D01*
X008657Y005293D02*
X008567Y005293D01*
X008567Y005412D02*
X008657Y005412D01*
X008657Y005530D02*
X008567Y005530D01*
X008567Y005649D02*
X008657Y005649D01*
X008657Y005767D02*
X008567Y005767D01*
X008567Y005886D02*
X008657Y005886D01*
X008657Y006004D02*
X008567Y006004D01*
X008147Y005886D02*
X002756Y005886D01*
X002778Y005864D02*
X002683Y005959D01*
X002559Y006010D01*
X002425Y006010D01*
X002301Y005959D01*
X002206Y005864D01*
X002155Y005740D01*
X002155Y005606D01*
X002206Y005482D01*
X002301Y005387D01*
X002425Y005336D01*
X002559Y005336D01*
X002683Y005387D01*
X002778Y005482D01*
X002829Y005606D01*
X002829Y005740D01*
X002778Y005864D01*
X002818Y005767D02*
X008147Y005767D01*
X008147Y005649D02*
X002829Y005649D01*
X002798Y005530D02*
X008147Y005530D01*
X008147Y005412D02*
X002707Y005412D01*
X002277Y005412D02*
X001017Y005412D01*
X001017Y005293D02*
X008147Y005293D01*
X008147Y005175D02*
X001017Y005175D01*
X001017Y005056D02*
X008147Y005056D01*
X008147Y004938D02*
X001017Y004938D01*
X001017Y004819D02*
X008147Y004819D01*
X008147Y004700D02*
X001017Y004700D01*
X001017Y004582D02*
X008147Y004582D01*
X010953Y005175D02*
X018927Y005175D01*
X018809Y005056D02*
X011088Y005056D01*
X011140Y004938D02*
X018690Y004938D01*
X018572Y004819D02*
X011153Y004819D01*
X011133Y004700D02*
X018453Y004700D01*
X018335Y004582D02*
X011072Y004582D01*
X008062Y006004D02*
X002573Y006004D01*
X002411Y006004D02*
X001017Y006004D01*
X001017Y005886D02*
X002228Y005886D01*
X002166Y005767D02*
X001017Y005767D01*
X001017Y005649D02*
X002155Y005649D01*
X002186Y005530D02*
X001017Y005530D01*
X001017Y006123D02*
X007944Y006123D01*
X007825Y006242D02*
X001017Y006242D01*
X001017Y006360D02*
X007797Y006360D01*
X007797Y006479D02*
X001017Y006479D01*
X001017Y006597D02*
X007797Y006597D01*
X007797Y006716D02*
X001017Y006716D01*
X001017Y006834D02*
X007797Y006834D01*
X007715Y006953D02*
X006299Y006953D01*
X006265Y006920D02*
X006394Y007048D01*
X006464Y007216D01*
X006464Y007398D01*
X006394Y007566D01*
X006265Y007694D01*
X006098Y007764D01*
X005916Y007764D01*
X005748Y007694D01*
X005619Y007566D01*
X005550Y007398D01*
X005550Y007216D01*
X005619Y007048D01*
X005748Y006920D01*
X005916Y006850D01*
X006098Y006850D01*
X006265Y006920D01*
X006404Y007071D02*
X007610Y007071D01*
X007561Y007190D02*
X006453Y007190D01*
X006464Y007308D02*
X007550Y007308D01*
X007562Y007427D02*
X006451Y007427D01*
X006402Y007546D02*
X007611Y007546D01*
X007718Y007664D02*
X006296Y007664D01*
X005718Y007664D02*
X001017Y007664D01*
X001017Y007783D02*
X021697Y007783D01*
X021697Y007664D02*
X008296Y007664D01*
X008402Y007546D02*
X021697Y007546D01*
X021697Y007427D02*
X009457Y007427D01*
X009457Y007308D02*
X021697Y007308D01*
X021697Y007190D02*
X009457Y007190D01*
X009457Y007071D02*
X021697Y007071D01*
X021697Y006953D02*
X009457Y006953D01*
X009457Y006834D02*
X021697Y006834D01*
X021697Y006716D02*
X009457Y006716D01*
X009457Y006597D02*
X021697Y006597D01*
X021697Y006479D02*
X009457Y006479D01*
X009457Y006360D02*
X021697Y006360D01*
X020310Y005412D02*
X019503Y005412D01*
X019566Y005293D02*
X020247Y005293D01*
X020227Y005175D02*
X019576Y005175D01*
X019539Y005056D02*
X020109Y005056D01*
X019990Y004938D02*
X019438Y004938D01*
X019166Y004819D02*
X019872Y004819D01*
X019753Y004700D02*
X019047Y004700D01*
X018928Y004582D02*
X019635Y004582D01*
X019516Y004463D02*
X018810Y004463D01*
X018691Y004345D02*
X019397Y004345D01*
X020527Y002330D02*
X020876Y002330D01*
X020751Y002211D02*
X020478Y002211D01*
X020360Y002093D02*
X020691Y002093D01*
X021078Y002093D02*
X021135Y002093D01*
X021136Y001974D02*
X021697Y001974D01*
X021697Y002093D02*
X021522Y002093D01*
X021462Y002211D02*
X021697Y002211D01*
X021697Y002330D02*
X021338Y002330D01*
X021135Y002330D02*
X021078Y002330D01*
X021078Y002211D02*
X021135Y002211D01*
X021078Y001974D02*
X010321Y001974D01*
X010439Y002093D02*
X019853Y002093D01*
X020180Y001855D02*
X010202Y001855D01*
X010083Y001737D02*
X020031Y001737D01*
X019963Y001618D02*
X016639Y001618D01*
X016474Y001618D02*
X009965Y001618D01*
X008169Y002567D02*
X006894Y002567D01*
X006775Y002685D02*
X008138Y002685D01*
X008147Y002804D02*
X006657Y002804D01*
X006538Y002922D02*
X008147Y002922D01*
X002353Y003634D02*
X001017Y003634D01*
X001017Y003752D02*
X002205Y003752D01*
X002156Y003871D02*
X001017Y003871D01*
X001017Y003989D02*
X002155Y003989D01*
X002196Y004108D02*
X001017Y004108D01*
X001017Y004226D02*
X002301Y004226D01*
X008419Y006242D02*
X008657Y006242D01*
X008657Y006123D02*
X008538Y006123D01*
X008657Y006360D02*
X008301Y006360D01*
X008217Y006479D02*
X008657Y006479D01*
X008657Y006597D02*
X008217Y006597D01*
X008217Y006716D02*
X008657Y006716D01*
X008657Y006834D02*
X008217Y006834D01*
X008299Y006953D02*
X008657Y006953D01*
X008657Y007071D02*
X008404Y007071D01*
X008453Y007190D02*
X008657Y007190D01*
X008657Y007308D02*
X008464Y007308D01*
X008451Y007427D02*
X008657Y007427D01*
X005715Y006953D02*
X001017Y006953D01*
X001017Y007071D02*
X005610Y007071D01*
X005561Y007190D02*
X001017Y007190D01*
X001017Y007308D02*
X005550Y007308D01*
X005562Y007427D02*
X001017Y007427D01*
X001017Y007546D02*
X005611Y007546D01*
X020591Y001855D02*
X020680Y001855D01*
X021078Y001855D02*
X021135Y001855D01*
X021135Y001737D02*
X021078Y001737D01*
X021078Y001618D02*
X021135Y001618D01*
X021384Y001618D02*
X021697Y001618D01*
X021697Y001500D02*
X020841Y001500D01*
X020841Y001381D02*
X021697Y001381D01*
X021697Y001263D02*
X020802Y001263D01*
X020726Y001144D02*
X021697Y001144D01*
X020829Y001618D02*
X020807Y001618D01*
X021485Y001737D02*
X021697Y001737D01*
X021697Y001855D02*
X021533Y001855D01*
X019930Y001500D02*
X016815Y001500D01*
X016871Y001381D02*
X019930Y001381D01*
X019969Y001263D02*
X016876Y001263D01*
X016834Y001144D02*
X020045Y001144D01*
D12*
X008007Y007307D03*
X007007Y007307D03*
X006007Y007307D03*
D13*
X003757Y007607D03*
X001557Y007607D03*
X006257Y005407D03*
X007257Y005407D03*
X005657Y004407D03*
X003457Y003807D03*
X005757Y003407D03*
X006157Y003607D03*
X007257Y003507D03*
X005757Y002907D03*
X005657Y002407D03*
X008457Y002707D03*
X012257Y003107D03*
X014257Y003107D03*
X016357Y003107D03*
X018457Y001807D03*
X016557Y001307D03*
X019257Y005207D03*
X020557Y005207D03*
X018457Y006207D03*
X020457Y006307D03*
X018457Y007607D03*
X015557Y006107D03*
X013857Y006107D03*
X012357Y006107D03*
X013757Y007607D03*
X002157Y004907D03*
X002157Y001807D03*
X004457Y001307D03*
D14*
X016557Y001307D01*
X012157Y004107D02*
X009857Y001807D01*
X006857Y001807D01*
X005757Y002907D01*
X005757Y003407D02*
X006857Y002307D01*
X010057Y002307D01*
X012057Y004307D01*
X018357Y004307D01*
X019257Y005207D01*
X019457Y004107D02*
X020557Y005207D01*
X019457Y004107D02*
X012157Y004107D01*
X008457Y002707D02*
X008357Y002807D01*
X008357Y006007D01*
X008007Y006357D01*
X008007Y007307D01*
M02*
