%
M48
M72
T01C0.0118
T02C0.0354
T03C0.0394
T04C0.0472
T05C0.0591
%
T01
X4457Y1307
X2157Y1807
X5657Y2407
X5757Y2907
X5757Y3407
X6157Y3607
X7257Y3507
X8457Y2707
X12257Y3107
X14257Y3107
X16357Y3107
X18457Y1807
X16557Y1307
X5657Y4407
X3457Y3807
X2157Y4907
X6257Y5407
X7257Y5407
X12357Y6107
X13857Y6107
X15557Y6107
X18457Y6207
X20457Y6307
X20557Y5207
X19257Y5207
X18457Y7607
X13757Y7607
X3757Y7607
X1557Y7607
T02
X2492Y5673
X2492Y3941
X20107Y3457
X21107Y2957
X20107Y2457
X21107Y1957
T03
X8007Y7307
X7007Y7307
X6007Y7307
T04
X9757Y5827
X10757Y5827
X10757Y4827
X9757Y4827
X9757Y3827
X10757Y3827
T05
X20385Y1448
M30
