G75*
G70*
%OFA0B0*%
%FSLAX24Y24*%
%IPPOS*%
%LPD*%
%AMOC8*
5,1,8,0,0,1.08239X$1,22.5*
%
%ADD10C,0.0100*%
%ADD11C,0.0060*%
%ADD12C,0.0554*%
%ADD13C,0.0000*%
%ADD14R,0.0394X0.0433*%
%ADD15R,0.0390X0.0400*%
%ADD16R,0.0433X0.0394*%
%ADD17C,0.0650*%
%ADD18C,0.0160*%
%ADD19C,0.0120*%
%ADD20C,0.0320*%
D10*
X003477Y000232D02*
X005839Y000232D01*
X005839Y021492D01*
X003477Y021492D01*
X003477Y000232D01*
D11*
X003884Y019059D02*
X003884Y019486D01*
X004097Y019272D02*
X003670Y019272D01*
X005220Y019282D02*
X005647Y019282D01*
D12*
X005161Y017416D03*
X005161Y016416D03*
X005152Y014387D03*
X005152Y013387D03*
X005135Y011339D03*
X005135Y010339D03*
X005145Y008228D03*
X005145Y007228D03*
X005138Y005157D03*
X005138Y004157D03*
X005148Y001929D03*
X005148Y000929D03*
X004148Y001429D03*
X004148Y002429D03*
X004138Y004657D03*
X004138Y005657D03*
X004145Y007728D03*
X004145Y008728D03*
X004135Y010839D03*
X004135Y011839D03*
X004152Y013887D03*
X004152Y014887D03*
X004161Y016916D03*
X004161Y017916D03*
D13*
X004587Y018425D02*
X004589Y018459D01*
X004595Y018493D01*
X004605Y018526D01*
X004618Y018557D01*
X004636Y018587D01*
X004656Y018615D01*
X004680Y018640D01*
X004706Y018662D01*
X004734Y018680D01*
X004765Y018696D01*
X004797Y018708D01*
X004831Y018716D01*
X004865Y018720D01*
X004899Y018720D01*
X004933Y018716D01*
X004967Y018708D01*
X004999Y018696D01*
X005029Y018680D01*
X005058Y018662D01*
X005084Y018640D01*
X005108Y018615D01*
X005128Y018587D01*
X005146Y018557D01*
X005159Y018526D01*
X005169Y018493D01*
X005175Y018459D01*
X005177Y018425D01*
X005175Y018391D01*
X005169Y018357D01*
X005159Y018324D01*
X005146Y018293D01*
X005128Y018263D01*
X005108Y018235D01*
X005084Y018210D01*
X005058Y018188D01*
X005030Y018170D01*
X004999Y018154D01*
X004967Y018142D01*
X004933Y018134D01*
X004899Y018130D01*
X004865Y018130D01*
X004831Y018134D01*
X004797Y018142D01*
X004765Y018154D01*
X004734Y018170D01*
X004706Y018188D01*
X004680Y018210D01*
X004656Y018235D01*
X004636Y018263D01*
X004618Y018293D01*
X004605Y018324D01*
X004595Y018357D01*
X004589Y018391D01*
X004587Y018425D01*
X003914Y021035D02*
X003916Y021064D01*
X003922Y021092D01*
X003931Y021120D01*
X003944Y021146D01*
X003961Y021169D01*
X003980Y021191D01*
X004002Y021210D01*
X004027Y021225D01*
X004053Y021238D01*
X004081Y021246D01*
X004109Y021251D01*
X004138Y021252D01*
X004167Y021249D01*
X004195Y021242D01*
X004222Y021232D01*
X004248Y021218D01*
X004271Y021201D01*
X004292Y021181D01*
X004310Y021158D01*
X004325Y021133D01*
X004336Y021106D01*
X004344Y021078D01*
X004348Y021049D01*
X004348Y021021D01*
X004344Y020992D01*
X004336Y020964D01*
X004325Y020937D01*
X004310Y020912D01*
X004292Y020889D01*
X004271Y020869D01*
X004248Y020852D01*
X004222Y020838D01*
X004195Y020828D01*
X004167Y020821D01*
X004138Y020818D01*
X004109Y020819D01*
X004081Y020824D01*
X004053Y020832D01*
X004027Y020845D01*
X004002Y020860D01*
X003980Y020879D01*
X003961Y020901D01*
X003944Y020924D01*
X003931Y020950D01*
X003922Y020978D01*
X003916Y021006D01*
X003914Y021035D01*
X004914Y021035D02*
X004916Y021064D01*
X004922Y021092D01*
X004931Y021120D01*
X004944Y021146D01*
X004961Y021169D01*
X004980Y021191D01*
X005002Y021210D01*
X005027Y021225D01*
X005053Y021238D01*
X005081Y021246D01*
X005109Y021251D01*
X005138Y021252D01*
X005167Y021249D01*
X005195Y021242D01*
X005222Y021232D01*
X005248Y021218D01*
X005271Y021201D01*
X005292Y021181D01*
X005310Y021158D01*
X005325Y021133D01*
X005336Y021106D01*
X005344Y021078D01*
X005348Y021049D01*
X005348Y021021D01*
X005344Y020992D01*
X005336Y020964D01*
X005325Y020937D01*
X005310Y020912D01*
X005292Y020889D01*
X005271Y020869D01*
X005248Y020852D01*
X005222Y020838D01*
X005195Y020828D01*
X005167Y020821D01*
X005138Y020818D01*
X005109Y020819D01*
X005081Y020824D01*
X005053Y020832D01*
X005027Y020845D01*
X005002Y020860D01*
X004980Y020879D01*
X004961Y020901D01*
X004944Y020924D01*
X004931Y020950D01*
X004922Y020978D01*
X004916Y021006D01*
X004914Y021035D01*
X004578Y015397D02*
X004580Y015431D01*
X004586Y015465D01*
X004596Y015498D01*
X004609Y015529D01*
X004627Y015559D01*
X004647Y015587D01*
X004671Y015612D01*
X004697Y015634D01*
X004725Y015652D01*
X004756Y015668D01*
X004788Y015680D01*
X004822Y015688D01*
X004856Y015692D01*
X004890Y015692D01*
X004924Y015688D01*
X004958Y015680D01*
X004990Y015668D01*
X005020Y015652D01*
X005049Y015634D01*
X005075Y015612D01*
X005099Y015587D01*
X005119Y015559D01*
X005137Y015529D01*
X005150Y015498D01*
X005160Y015465D01*
X005166Y015431D01*
X005168Y015397D01*
X005166Y015363D01*
X005160Y015329D01*
X005150Y015296D01*
X005137Y015265D01*
X005119Y015235D01*
X005099Y015207D01*
X005075Y015182D01*
X005049Y015160D01*
X005021Y015142D01*
X004990Y015126D01*
X004958Y015114D01*
X004924Y015106D01*
X004890Y015102D01*
X004856Y015102D01*
X004822Y015106D01*
X004788Y015114D01*
X004756Y015126D01*
X004725Y015142D01*
X004697Y015160D01*
X004671Y015182D01*
X004647Y015207D01*
X004627Y015235D01*
X004609Y015265D01*
X004596Y015296D01*
X004586Y015329D01*
X004580Y015363D01*
X004578Y015397D01*
X004561Y012348D02*
X004563Y012382D01*
X004569Y012416D01*
X004579Y012449D01*
X004592Y012480D01*
X004610Y012510D01*
X004630Y012538D01*
X004654Y012563D01*
X004680Y012585D01*
X004708Y012603D01*
X004739Y012619D01*
X004771Y012631D01*
X004805Y012639D01*
X004839Y012643D01*
X004873Y012643D01*
X004907Y012639D01*
X004941Y012631D01*
X004973Y012619D01*
X005003Y012603D01*
X005032Y012585D01*
X005058Y012563D01*
X005082Y012538D01*
X005102Y012510D01*
X005120Y012480D01*
X005133Y012449D01*
X005143Y012416D01*
X005149Y012382D01*
X005151Y012348D01*
X005149Y012314D01*
X005143Y012280D01*
X005133Y012247D01*
X005120Y012216D01*
X005102Y012186D01*
X005082Y012158D01*
X005058Y012133D01*
X005032Y012111D01*
X005004Y012093D01*
X004973Y012077D01*
X004941Y012065D01*
X004907Y012057D01*
X004873Y012053D01*
X004839Y012053D01*
X004805Y012057D01*
X004771Y012065D01*
X004739Y012077D01*
X004708Y012093D01*
X004680Y012111D01*
X004654Y012133D01*
X004630Y012158D01*
X004610Y012186D01*
X004592Y012216D01*
X004579Y012247D01*
X004569Y012280D01*
X004563Y012314D01*
X004561Y012348D01*
X004571Y009238D02*
X004573Y009272D01*
X004579Y009306D01*
X004589Y009339D01*
X004602Y009370D01*
X004620Y009400D01*
X004640Y009428D01*
X004664Y009453D01*
X004690Y009475D01*
X004718Y009493D01*
X004749Y009509D01*
X004781Y009521D01*
X004815Y009529D01*
X004849Y009533D01*
X004883Y009533D01*
X004917Y009529D01*
X004951Y009521D01*
X004983Y009509D01*
X005013Y009493D01*
X005042Y009475D01*
X005068Y009453D01*
X005092Y009428D01*
X005112Y009400D01*
X005130Y009370D01*
X005143Y009339D01*
X005153Y009306D01*
X005159Y009272D01*
X005161Y009238D01*
X005159Y009204D01*
X005153Y009170D01*
X005143Y009137D01*
X005130Y009106D01*
X005112Y009076D01*
X005092Y009048D01*
X005068Y009023D01*
X005042Y009001D01*
X005014Y008983D01*
X004983Y008967D01*
X004951Y008955D01*
X004917Y008947D01*
X004883Y008943D01*
X004849Y008943D01*
X004815Y008947D01*
X004781Y008955D01*
X004749Y008967D01*
X004718Y008983D01*
X004690Y009001D01*
X004664Y009023D01*
X004640Y009048D01*
X004620Y009076D01*
X004602Y009106D01*
X004589Y009137D01*
X004579Y009170D01*
X004573Y009204D01*
X004571Y009238D01*
X004564Y006167D02*
X004566Y006201D01*
X004572Y006235D01*
X004582Y006268D01*
X004595Y006299D01*
X004613Y006329D01*
X004633Y006357D01*
X004657Y006382D01*
X004683Y006404D01*
X004711Y006422D01*
X004742Y006438D01*
X004774Y006450D01*
X004808Y006458D01*
X004842Y006462D01*
X004876Y006462D01*
X004910Y006458D01*
X004944Y006450D01*
X004976Y006438D01*
X005006Y006422D01*
X005035Y006404D01*
X005061Y006382D01*
X005085Y006357D01*
X005105Y006329D01*
X005123Y006299D01*
X005136Y006268D01*
X005146Y006235D01*
X005152Y006201D01*
X005154Y006167D01*
X005152Y006133D01*
X005146Y006099D01*
X005136Y006066D01*
X005123Y006035D01*
X005105Y006005D01*
X005085Y005977D01*
X005061Y005952D01*
X005035Y005930D01*
X005007Y005912D01*
X004976Y005896D01*
X004944Y005884D01*
X004910Y005876D01*
X004876Y005872D01*
X004842Y005872D01*
X004808Y005876D01*
X004774Y005884D01*
X004742Y005896D01*
X004711Y005912D01*
X004683Y005930D01*
X004657Y005952D01*
X004633Y005977D01*
X004613Y006005D01*
X004595Y006035D01*
X004582Y006066D01*
X004572Y006099D01*
X004566Y006133D01*
X004564Y006167D01*
X004574Y002938D02*
X004576Y002972D01*
X004582Y003006D01*
X004592Y003039D01*
X004605Y003070D01*
X004623Y003100D01*
X004643Y003128D01*
X004667Y003153D01*
X004693Y003175D01*
X004721Y003193D01*
X004752Y003209D01*
X004784Y003221D01*
X004818Y003229D01*
X004852Y003233D01*
X004886Y003233D01*
X004920Y003229D01*
X004954Y003221D01*
X004986Y003209D01*
X005016Y003193D01*
X005045Y003175D01*
X005071Y003153D01*
X005095Y003128D01*
X005115Y003100D01*
X005133Y003070D01*
X005146Y003039D01*
X005156Y003006D01*
X005162Y002972D01*
X005164Y002938D01*
X005162Y002904D01*
X005156Y002870D01*
X005146Y002837D01*
X005133Y002806D01*
X005115Y002776D01*
X005095Y002748D01*
X005071Y002723D01*
X005045Y002701D01*
X005017Y002683D01*
X004986Y002667D01*
X004954Y002655D01*
X004920Y002647D01*
X004886Y002643D01*
X004852Y002643D01*
X004818Y002647D01*
X004784Y002655D01*
X004752Y002667D01*
X004721Y002683D01*
X004693Y002701D01*
X004667Y002723D01*
X004643Y002748D01*
X004623Y002776D01*
X004605Y002806D01*
X004592Y002837D01*
X004582Y002870D01*
X004576Y002904D01*
X004574Y002938D01*
D14*
X004132Y003240D03*
X004132Y003909D03*
X004027Y009450D03*
X004027Y010120D03*
X004151Y015593D03*
X004151Y016262D03*
D15*
X003874Y000663D03*
X004543Y000663D03*
D16*
X004323Y019253D03*
X004992Y019253D03*
D17*
X005131Y020035D03*
X004131Y020035D03*
D18*
X004428Y020480D02*
X004235Y020560D01*
X004026Y020560D01*
X003833Y020480D01*
X003727Y020374D01*
X003727Y020921D01*
X003778Y020799D01*
X003895Y020682D01*
X004048Y020618D01*
X004214Y020618D01*
X004367Y020682D01*
X004484Y020799D01*
X004547Y020952D01*
X004547Y021118D01*
X004496Y021242D01*
X004766Y021242D01*
X004714Y021118D01*
X004714Y020952D01*
X004778Y020799D01*
X004895Y020682D01*
X005048Y020618D01*
X005214Y020618D01*
X005367Y020682D01*
X005484Y020799D01*
X005547Y020952D01*
X005547Y021118D01*
X005496Y021242D01*
X005589Y021242D01*
X005589Y020247D01*
X005562Y020300D01*
X005516Y020364D01*
X005460Y020420D01*
X005395Y020467D01*
X005324Y020503D01*
X005249Y020527D01*
X005170Y020540D01*
X005159Y020540D01*
X005159Y020063D01*
X005102Y020063D01*
X005102Y020540D01*
X005091Y020540D01*
X005012Y020527D01*
X004937Y020503D01*
X004866Y020467D01*
X004802Y020420D01*
X004746Y020364D01*
X004699Y020300D01*
X004663Y020229D01*
X004643Y020169D01*
X004576Y020332D01*
X004428Y020480D01*
X004369Y020684D02*
X004893Y020684D01*
X005007Y020525D02*
X004318Y020525D01*
X004502Y020842D02*
X004760Y020842D01*
X004714Y021001D02*
X004547Y021001D01*
X004530Y021160D02*
X004731Y021160D01*
X004749Y020367D02*
X004541Y020367D01*
X004627Y020208D02*
X004656Y020208D01*
X004673Y018908D02*
X004622Y018857D01*
X004023Y018857D01*
X004015Y018865D01*
X003979Y018829D01*
X003788Y018829D01*
X003727Y018890D01*
X003727Y018060D01*
X003737Y018091D01*
X003770Y018155D01*
X003812Y018213D01*
X003863Y018264D01*
X003921Y018307D01*
X003985Y018339D01*
X004054Y018362D01*
X004125Y018373D01*
X004152Y018373D01*
X004152Y017924D01*
X004169Y017924D01*
X004169Y018373D01*
X004197Y018373D01*
X004268Y018362D01*
X004336Y018339D01*
X004394Y018310D01*
X004387Y018326D01*
X004387Y018524D01*
X004462Y018706D01*
X004601Y018845D01*
X004707Y018889D01*
X004706Y018889D01*
X004673Y018908D01*
X004538Y018781D02*
X003727Y018781D01*
X003727Y018623D02*
X004428Y018623D01*
X004387Y018464D02*
X003727Y018464D01*
X003727Y018306D02*
X003920Y018306D01*
X003766Y018147D02*
X003727Y018147D01*
X003727Y017771D02*
X003727Y017116D01*
X003756Y017186D01*
X003890Y017320D01*
X004066Y017393D01*
X004256Y017393D01*
X004431Y017320D01*
X004564Y017187D01*
X004688Y017310D01*
X004684Y017321D01*
X004684Y017511D01*
X004756Y017686D01*
X004890Y017820D01*
X005066Y017893D01*
X005256Y017893D01*
X005431Y017820D01*
X005565Y017686D01*
X005589Y017628D01*
X005589Y019052D01*
X005389Y019052D01*
X005389Y019033D01*
X005376Y018987D01*
X005353Y018946D01*
X005319Y018913D01*
X005278Y018889D01*
X005232Y018877D01*
X005086Y018877D01*
X005163Y018845D01*
X005302Y018706D01*
X005377Y018524D01*
X005377Y018326D01*
X005302Y018144D01*
X005163Y018005D01*
X004981Y017930D01*
X004784Y017930D01*
X004610Y018002D01*
X004618Y017952D01*
X004618Y017924D01*
X004170Y017924D01*
X004170Y017907D01*
X004618Y017907D01*
X004618Y017880D01*
X004607Y017809D01*
X004584Y017740D01*
X004552Y017676D01*
X004509Y017618D01*
X004459Y017567D01*
X004400Y017525D01*
X004336Y017492D01*
X004268Y017470D01*
X004197Y017459D01*
X004169Y017459D01*
X004169Y017907D01*
X004152Y017907D01*
X004152Y017459D01*
X004125Y017459D01*
X004054Y017470D01*
X003985Y017492D01*
X003921Y017525D01*
X003863Y017567D01*
X003812Y017618D01*
X003770Y017676D01*
X003737Y017740D01*
X003727Y017771D01*
X003727Y017672D02*
X003773Y017672D01*
X003727Y017513D02*
X003944Y017513D01*
X003973Y017354D02*
X003727Y017354D01*
X003727Y017196D02*
X003766Y017196D01*
X004152Y017513D02*
X004169Y017513D01*
X004152Y017672D02*
X004169Y017672D01*
X004152Y017830D02*
X004169Y017830D01*
X004152Y017989D02*
X004169Y017989D01*
X004152Y018147D02*
X004169Y018147D01*
X004152Y018306D02*
X004169Y018306D01*
X004378Y017513D02*
X004685Y017513D01*
X004684Y017354D02*
X004348Y017354D01*
X004555Y017196D02*
X004573Y017196D01*
X004549Y017672D02*
X004750Y017672D01*
X004610Y017830D02*
X004915Y017830D01*
X005123Y017989D02*
X005589Y017989D01*
X005589Y018147D02*
X005303Y018147D01*
X005369Y018306D02*
X005589Y018306D01*
X005589Y018464D02*
X005377Y018464D01*
X005336Y018623D02*
X005589Y018623D01*
X005589Y018781D02*
X005226Y018781D01*
X005347Y018940D02*
X005589Y018940D01*
X005589Y017830D02*
X005407Y017830D01*
X005571Y017672D02*
X005589Y017672D01*
X005347Y015248D02*
X005347Y014823D01*
X005247Y014864D01*
X005057Y014864D01*
X004881Y014792D01*
X004747Y014658D01*
X004674Y014482D01*
X004674Y014292D01*
X004747Y014117D01*
X004881Y013983D01*
X005057Y013910D01*
X005247Y013910D01*
X005347Y013952D01*
X005347Y013823D01*
X005247Y013864D01*
X005057Y013864D01*
X004881Y013792D01*
X004747Y013658D01*
X004674Y013482D01*
X004674Y013292D01*
X004747Y013117D01*
X004881Y012983D01*
X005057Y012910D01*
X005247Y012910D01*
X005347Y012952D01*
X005347Y012457D01*
X005276Y012628D01*
X005137Y012768D01*
X004955Y012843D01*
X004758Y012843D01*
X004576Y012768D01*
X004436Y012628D01*
X004361Y012446D01*
X004361Y012249D01*
X004368Y012233D01*
X004310Y012262D01*
X004242Y012284D01*
X004171Y012296D01*
X004144Y012296D01*
X004144Y011847D01*
X004592Y011847D01*
X004592Y011874D01*
X004584Y011924D01*
X004758Y011853D01*
X004955Y011853D01*
X005137Y011928D01*
X005276Y012067D01*
X005347Y012239D01*
X005347Y011767D01*
X005230Y011816D01*
X005040Y011816D01*
X004865Y011743D01*
X004730Y011609D01*
X004691Y011513D01*
X004663Y011486D01*
X004417Y011239D01*
X004415Y011234D01*
X004405Y011243D01*
X004230Y011316D01*
X004040Y011316D01*
X003967Y011285D01*
X003967Y011412D01*
X004028Y011393D01*
X004099Y011381D01*
X004126Y011381D01*
X004126Y011830D01*
X004144Y011830D01*
X004144Y011847D01*
X004126Y011847D01*
X004126Y012296D01*
X004099Y012296D01*
X004028Y012284D01*
X003967Y012265D01*
X003967Y013447D01*
X004057Y013410D01*
X004247Y013410D01*
X004422Y013483D01*
X004556Y013617D01*
X004629Y013792D01*
X004629Y013982D01*
X004556Y014158D01*
X004422Y014292D01*
X004247Y014364D01*
X004057Y014364D01*
X003967Y014327D01*
X003967Y014468D01*
X003976Y014464D01*
X004045Y014441D01*
X004116Y014430D01*
X004143Y014430D01*
X004143Y014878D01*
X004160Y014878D01*
X004160Y014430D01*
X004188Y014430D01*
X004259Y014441D01*
X004327Y014464D01*
X004391Y014496D01*
X004449Y014539D01*
X004500Y014589D01*
X004543Y014648D01*
X004575Y014712D01*
X004598Y014780D01*
X004609Y014851D01*
X004609Y014879D01*
X004160Y014879D01*
X004160Y014896D01*
X004143Y014896D01*
X004143Y015344D01*
X004133Y015344D01*
X004133Y015574D01*
X004170Y015574D01*
X004170Y015344D01*
X004160Y015344D01*
X004160Y014896D01*
X004609Y014896D01*
X004609Y014923D01*
X004601Y014973D01*
X004774Y014901D01*
X004971Y014901D01*
X005153Y014977D01*
X005293Y015116D01*
X005347Y015248D01*
X005347Y015135D02*
X005301Y015135D01*
X005347Y014976D02*
X005152Y014976D01*
X004944Y014818D02*
X004603Y014818D01*
X004549Y014659D02*
X004749Y014659D01*
X004682Y014501D02*
X004397Y014501D01*
X004300Y014342D02*
X004674Y014342D01*
X004720Y014184D02*
X004530Y014184D01*
X004611Y014025D02*
X004839Y014025D01*
X004798Y013708D02*
X004594Y013708D01*
X004629Y013867D02*
X005347Y013867D01*
X005347Y012915D02*
X005259Y012915D01*
X005347Y012757D02*
X005148Y012757D01*
X005044Y012915D02*
X003967Y012915D01*
X003967Y012757D02*
X004565Y012757D01*
X004424Y012598D02*
X003967Y012598D01*
X003967Y012440D02*
X004361Y012440D01*
X004361Y012281D02*
X004252Y012281D01*
X004144Y012281D02*
X004126Y012281D01*
X004018Y012281D02*
X003967Y012281D01*
X004126Y012123D02*
X004144Y012123D01*
X004144Y011964D02*
X004126Y011964D01*
X004144Y011830D02*
X004592Y011830D01*
X004592Y011802D01*
X004581Y011731D01*
X004559Y011663D01*
X004526Y011599D01*
X004484Y011541D01*
X004433Y011490D01*
X004375Y011447D01*
X004310Y011415D01*
X004242Y011393D01*
X004171Y011381D01*
X004144Y011381D01*
X004144Y011830D01*
X004144Y011805D02*
X004126Y011805D01*
X004126Y011647D02*
X004144Y011647D01*
X004144Y011488D02*
X004126Y011488D01*
X003967Y011330D02*
X004508Y011330D01*
X004431Y011488D02*
X004666Y011488D01*
X004769Y011647D02*
X004550Y011647D01*
X004592Y011805D02*
X005016Y011805D01*
X005173Y011964D02*
X005347Y011964D01*
X005347Y012123D02*
X005299Y012123D01*
X005254Y011805D02*
X005347Y011805D01*
X005347Y012598D02*
X005289Y012598D01*
X004790Y013074D02*
X003967Y013074D01*
X003967Y013232D02*
X004699Y013232D01*
X004674Y013391D02*
X003967Y013391D01*
X003967Y014342D02*
X004003Y014342D01*
X004143Y014501D02*
X004160Y014501D01*
X004143Y014659D02*
X004160Y014659D01*
X004143Y014818D02*
X004160Y014818D01*
X004143Y014976D02*
X004160Y014976D01*
X004143Y015135D02*
X004160Y015135D01*
X004143Y015293D02*
X004160Y015293D01*
X004170Y015452D02*
X004133Y015452D01*
X004489Y013549D02*
X004702Y013549D01*
X004728Y010075D02*
X004730Y010068D01*
X004865Y009934D01*
X005040Y009861D01*
X005230Y009861D01*
X005347Y009910D01*
X005347Y009371D01*
X005286Y009518D01*
X005147Y009657D01*
X004965Y009733D01*
X004768Y009733D01*
X004586Y009657D01*
X004446Y009518D01*
X004404Y009415D01*
X004404Y009432D01*
X004046Y009432D01*
X004046Y009469D01*
X004404Y009469D01*
X004404Y009691D01*
X004392Y009736D01*
X004373Y009769D01*
X004424Y009820D01*
X004424Y009982D01*
X004475Y009982D01*
X004579Y009982D01*
X004674Y010021D01*
X004728Y010075D01*
X004737Y010061D02*
X004715Y010061D01*
X004514Y009586D02*
X004404Y009586D01*
X004404Y009427D02*
X004409Y009427D01*
X004387Y009744D02*
X005347Y009744D01*
X005347Y009586D02*
X005218Y009586D01*
X005324Y009427D02*
X005347Y009427D01*
X005347Y009104D02*
X005286Y008957D01*
X005147Y008818D01*
X004965Y008742D01*
X004768Y008742D01*
X004594Y008814D01*
X004602Y008764D01*
X004602Y008737D01*
X004154Y008737D01*
X004154Y008720D01*
X004602Y008720D01*
X004602Y008692D01*
X004591Y008621D01*
X004569Y008553D01*
X004536Y008489D01*
X004494Y008430D01*
X004443Y008380D01*
X004385Y008337D01*
X004321Y008305D01*
X004252Y008282D01*
X004181Y008271D01*
X004154Y008271D01*
X004154Y008719D01*
X004136Y008719D01*
X004136Y008271D01*
X004109Y008271D01*
X004038Y008282D01*
X003970Y008305D01*
X003967Y008306D01*
X003967Y008171D01*
X004050Y008205D01*
X004240Y008205D01*
X004415Y008133D01*
X004550Y007999D01*
X004622Y007823D01*
X004622Y007633D01*
X004550Y007458D01*
X004415Y007324D01*
X004240Y007251D01*
X004050Y007251D01*
X003967Y007285D01*
X003967Y006083D01*
X004031Y006103D01*
X004102Y006115D01*
X004129Y006115D01*
X004129Y005666D01*
X004146Y005666D01*
X004146Y006115D01*
X004174Y006115D01*
X004245Y006103D01*
X004313Y006081D01*
X004371Y006052D01*
X004364Y006068D01*
X004364Y006265D01*
X004439Y006447D01*
X004579Y006587D01*
X004761Y006662D01*
X004958Y006662D01*
X005140Y006587D01*
X005279Y006447D01*
X005347Y006282D01*
X005347Y006796D01*
X005240Y006751D01*
X005050Y006751D01*
X004875Y006824D01*
X004741Y006958D01*
X004668Y007133D01*
X004668Y007323D01*
X004741Y007499D01*
X004875Y007633D01*
X005050Y007705D01*
X005240Y007705D01*
X005347Y007661D01*
X005347Y007796D01*
X005240Y007751D01*
X005050Y007751D01*
X004875Y007824D01*
X004741Y007958D01*
X004668Y008133D01*
X004668Y008323D01*
X004741Y008499D01*
X004875Y008633D01*
X005050Y008705D01*
X005240Y008705D01*
X005347Y008661D01*
X005347Y009104D01*
X005347Y008952D02*
X005281Y008952D01*
X005347Y008793D02*
X005087Y008793D01*
X004879Y008635D02*
X004593Y008635D01*
X004598Y008793D02*
X004645Y008793D01*
X004731Y008476D02*
X004527Y008476D01*
X004668Y008318D02*
X004346Y008318D01*
X004352Y008159D02*
X004668Y008159D01*
X004723Y008000D02*
X004548Y008000D01*
X004614Y007842D02*
X004857Y007842D01*
X004997Y007683D02*
X004622Y007683D01*
X004577Y007525D02*
X004767Y007525D01*
X004686Y007366D02*
X004458Y007366D01*
X004668Y007208D02*
X003967Y007208D01*
X003967Y007049D02*
X004703Y007049D01*
X004808Y006891D02*
X003967Y006891D01*
X003967Y006732D02*
X005347Y006732D01*
X005347Y006574D02*
X005153Y006574D01*
X005292Y006415D02*
X005347Y006415D01*
X005347Y006051D02*
X005347Y005587D01*
X005233Y005635D01*
X005043Y005635D01*
X004867Y005562D01*
X004733Y005428D01*
X004661Y005252D01*
X004661Y005062D01*
X004733Y004887D01*
X004774Y004846D01*
X004615Y004687D01*
X004615Y004752D01*
X004542Y004928D01*
X004408Y005062D01*
X004233Y005135D01*
X004043Y005135D01*
X003967Y005103D01*
X003967Y005232D01*
X004031Y005211D01*
X004102Y005200D01*
X004129Y005200D01*
X004129Y005649D01*
X004146Y005649D01*
X004146Y005200D01*
X004174Y005200D01*
X004245Y005211D01*
X004313Y005234D01*
X004377Y005266D01*
X004436Y005309D01*
X004486Y005360D01*
X004529Y005418D01*
X004561Y005482D01*
X004584Y005550D01*
X004595Y005621D01*
X004595Y005649D01*
X004147Y005649D01*
X004147Y005666D01*
X004595Y005666D01*
X004595Y005693D01*
X004587Y005743D01*
X004761Y005671D01*
X004958Y005671D01*
X005140Y005747D01*
X005279Y005886D01*
X005347Y006051D01*
X005347Y005939D02*
X005301Y005939D01*
X005347Y005781D02*
X005174Y005781D01*
X005262Y005622D02*
X005347Y005622D01*
X005013Y005622D02*
X004595Y005622D01*
X004552Y005464D02*
X004769Y005464D01*
X004683Y005305D02*
X004431Y005305D01*
X004482Y004988D02*
X004691Y004988D01*
X004661Y005147D02*
X003967Y005147D01*
X004129Y005305D02*
X004146Y005305D01*
X004129Y005464D02*
X004146Y005464D01*
X004129Y005622D02*
X004146Y005622D01*
X004129Y005781D02*
X004146Y005781D01*
X004129Y005939D02*
X004146Y005939D01*
X004129Y006098D02*
X004146Y006098D01*
X004261Y006098D02*
X004364Y006098D01*
X004364Y006256D02*
X003967Y006256D01*
X003967Y006098D02*
X004014Y006098D01*
X003967Y006415D02*
X004426Y006415D01*
X004565Y006574D02*
X003967Y006574D01*
X004136Y008318D02*
X004154Y008318D01*
X004154Y008476D02*
X004136Y008476D01*
X004136Y008635D02*
X004154Y008635D01*
X004424Y009903D02*
X004940Y009903D01*
X005330Y009903D02*
X005347Y009903D01*
X005293Y007683D02*
X005347Y007683D01*
X004757Y004830D02*
X004583Y004830D01*
X004151Y003221D02*
X004114Y003221D01*
X004114Y002886D01*
X004139Y002886D01*
X004139Y002438D01*
X004156Y002438D01*
X004156Y002843D01*
X004151Y002843D01*
X004151Y003221D01*
X004151Y003086D02*
X004114Y003086D01*
X004114Y002927D02*
X004151Y002927D01*
X004139Y002769D02*
X004156Y002769D01*
X004139Y002610D02*
X004156Y002610D01*
X004139Y002451D02*
X004156Y002451D01*
X004157Y002438D02*
X004605Y002438D01*
X004605Y002465D01*
X004597Y002515D01*
X004771Y002443D01*
X004968Y002443D01*
X005150Y002519D01*
X005289Y002658D01*
X005347Y002798D01*
X005347Y002363D01*
X005243Y002406D01*
X005053Y002406D01*
X004878Y002334D01*
X004743Y002199D01*
X004671Y002024D01*
X004671Y001834D01*
X004743Y001659D01*
X004878Y001525D01*
X005053Y001452D01*
X005243Y001452D01*
X005346Y001495D01*
X005253Y001402D01*
X005243Y001406D01*
X005053Y001406D01*
X004878Y001334D01*
X004743Y001199D01*
X004687Y001063D01*
X004456Y001063D01*
X004552Y001159D01*
X004625Y001334D01*
X004625Y001524D01*
X004552Y001699D01*
X004418Y001834D01*
X004243Y001906D01*
X004053Y001906D01*
X003967Y001871D01*
X003967Y002008D01*
X003972Y002005D01*
X004041Y001983D01*
X004112Y001972D01*
X004139Y001972D01*
X004139Y002420D01*
X004156Y002420D01*
X004156Y001972D01*
X004184Y001972D01*
X004255Y001983D01*
X004323Y002005D01*
X004387Y002038D01*
X004446Y002080D01*
X004497Y002131D01*
X004539Y002189D01*
X004571Y002254D01*
X004594Y002322D01*
X004605Y002393D01*
X004605Y002420D01*
X004157Y002420D01*
X004157Y002438D01*
X004156Y002293D02*
X004139Y002293D01*
X004139Y002134D02*
X004156Y002134D01*
X004139Y001976D02*
X004156Y001976D01*
X004208Y001976D02*
X004671Y001976D01*
X004678Y001817D02*
X004434Y001817D01*
X004499Y002134D02*
X004716Y002134D01*
X004751Y002451D02*
X004605Y002451D01*
X004584Y002293D02*
X004837Y002293D01*
X004988Y002451D02*
X005347Y002451D01*
X005347Y002610D02*
X005241Y002610D01*
X005335Y002769D02*
X005347Y002769D01*
X004936Y001500D02*
X004625Y001500D01*
X004625Y001342D02*
X004897Y001342D01*
X004743Y001659D02*
X004569Y001659D01*
X004562Y001183D02*
X004737Y001183D01*
X004087Y001976D02*
X003967Y001976D01*
X004612Y017989D02*
X004641Y017989D01*
X005102Y020208D02*
X005159Y020208D01*
X005159Y020367D02*
X005102Y020367D01*
X005102Y020525D02*
X005159Y020525D01*
X005255Y020525D02*
X005589Y020525D01*
X005589Y020367D02*
X005513Y020367D01*
X005589Y020684D02*
X005369Y020684D01*
X005502Y020842D02*
X005589Y020842D01*
X005589Y021001D02*
X005547Y021001D01*
X005530Y021160D02*
X005589Y021160D01*
X003893Y020684D02*
X003727Y020684D01*
X003727Y020842D02*
X003760Y020842D01*
X003727Y020525D02*
X003943Y020525D01*
D19*
X004992Y019253D02*
X004387Y018649D01*
X004387Y018142D01*
X004161Y017916D01*
X004161Y016916D02*
X004161Y016906D01*
X003707Y016452D01*
X003707Y013932D01*
X004107Y013932D01*
X004152Y013887D01*
X004152Y014887D02*
X004151Y014887D01*
X004151Y015593D01*
X004151Y016262D02*
X004388Y016262D01*
X004657Y016532D01*
X004657Y016912D01*
X005161Y017416D01*
X005161Y016416D02*
X005565Y016012D01*
X005607Y016012D01*
X005607Y013432D01*
X005196Y013432D01*
X005152Y013387D01*
X005607Y013432D02*
X005607Y010322D01*
X005152Y010322D01*
X005135Y010339D01*
X004637Y011092D02*
X004884Y011339D01*
X005135Y011339D01*
X005607Y010322D02*
X005607Y007202D01*
X005171Y007202D01*
X005145Y007228D01*
X005607Y007202D02*
X005607Y004102D01*
X005193Y004102D01*
X005138Y004157D01*
X004647Y004352D02*
X005138Y004842D01*
X005138Y005157D01*
X005607Y004102D02*
X005607Y001388D01*
X005148Y000929D01*
X005148Y000663D01*
X004543Y000663D01*
X004148Y001429D02*
X003874Y001429D01*
X003860Y001429D01*
X003707Y001582D01*
X003707Y004652D01*
X004132Y004652D01*
X004138Y004657D01*
X004575Y004352D02*
X004132Y003909D01*
X003707Y004652D02*
X003707Y007782D01*
X004091Y007782D01*
X004145Y007728D01*
X004145Y008728D02*
X004145Y009332D01*
X004027Y009450D01*
X004027Y010120D02*
X004027Y010180D01*
X004089Y010242D01*
X004527Y010242D01*
X004637Y010352D01*
X004637Y011092D01*
X004135Y010839D02*
X004108Y010812D01*
X003707Y010812D01*
X003707Y013932D01*
X003707Y010812D02*
X003707Y007782D01*
X004575Y004352D02*
X004647Y004352D01*
X003874Y001429D02*
X003874Y000663D01*
D20*
X004323Y019253D02*
X004323Y019843D01*
X004131Y020035D01*
X004992Y019896D02*
X004992Y019253D01*
X004992Y019896D02*
X005131Y020035D01*
M02*
