%
M48
M72
T01C0.0354
T02C0.0433
T03C0.0591
%
T01
X4138Y4657
X4138Y5657
X4145Y7728
X4145Y8728
X4135Y10839
X4135Y11839
X4152Y13887
X4152Y14887
X4161Y16916
X4161Y17916
X5161Y17416
X5161Y16416
X5152Y14387
X5152Y13387
X5135Y11339
X5135Y10339
X5145Y8228
X5145Y7228
X5138Y5157
X5138Y4157
X5148Y1929
X5148Y929
X4148Y1429
X4148Y2429
T02
X4131Y20035
X4131Y21035
X5131Y21035
X5131Y20035
T03
X4882Y18425
X4873Y15397
X4856Y12348
X4866Y9238
X4859Y6167
X4869Y2938
M30
