G75*
G70*
%OFA0B0*%
%FSLAX24Y24*%
%IPPOS*%
%LPD*%
%AMOC8*
5,1,8,0,0,1.08239X$1,22.5*
%
%ADD10C,0.0050*%
%ADD11C,0.0100*%
D10*
X003703Y000317D02*
X003703Y003041D01*
X004148Y003041D01*
X004148Y002729D01*
X004156Y002729D02*
X005148Y002729D01*
X005148Y003041D01*
X005593Y003041D01*
X005593Y000317D01*
X003703Y000317D01*
X003860Y000632D02*
X003860Y002726D01*
X005435Y002726D01*
X005435Y000632D01*
X003860Y000632D01*
X003693Y003545D02*
X003693Y006270D01*
X004138Y006270D01*
X004138Y005957D01*
X004146Y005957D02*
X005138Y005957D01*
X005138Y006270D01*
X005583Y006270D01*
X005583Y003545D01*
X003693Y003545D01*
X003850Y003860D02*
X003850Y005955D01*
X005425Y005955D01*
X005425Y003860D01*
X003850Y003860D01*
X003700Y006616D02*
X003700Y009340D01*
X004145Y009340D01*
X004145Y009028D01*
X004153Y009028D02*
X005145Y009028D01*
X005145Y009340D01*
X005590Y009340D01*
X005590Y006616D01*
X003700Y006616D01*
X003858Y006931D02*
X003858Y009026D01*
X005432Y009026D01*
X005432Y006931D01*
X003858Y006931D01*
X003690Y009726D02*
X003690Y012451D01*
X004135Y012451D01*
X004135Y012139D01*
X004143Y012139D02*
X005135Y012139D01*
X005135Y012451D01*
X005580Y012451D01*
X005580Y009726D01*
X003690Y009726D01*
X003848Y010041D02*
X003848Y012136D01*
X005422Y012136D01*
X005422Y010041D01*
X003848Y010041D01*
X003707Y012775D02*
X003707Y015500D01*
X004152Y015500D01*
X004152Y015187D01*
X004159Y015187D02*
X005152Y015187D01*
X005152Y015500D01*
X005597Y015500D01*
X005597Y012775D01*
X003707Y012775D01*
X003864Y013090D02*
X003864Y015185D01*
X005439Y015185D01*
X005439Y013090D01*
X003864Y013090D01*
X003716Y015803D02*
X003716Y018528D01*
X004161Y018528D01*
X004161Y018216D01*
X004169Y018216D02*
X005161Y018216D01*
X005161Y018528D01*
X005606Y018528D01*
X005606Y015803D01*
X003716Y015803D01*
X003873Y016118D02*
X003873Y018213D01*
X005448Y018213D01*
X005448Y016118D01*
X003873Y016118D01*
D11*
X003536Y018814D02*
X003536Y021255D01*
X005725Y021255D01*
X005725Y018814D01*
X003536Y018814D01*
M02*
