G75*
G70*
%OFA0B0*%
%FSLAX25Y25*%
%IPPOS*%
%LPD*%
%AMOC8*
5,1,8,0,0,1.08239X$1,22.5*
%
%ADD10C,0.01000*%
%ADD11C,0.05543*%
%ADD12C,0.00000*%
%ADD13C,0.06496*%
%ADD14C,0.01200*%
%ADD15C,0.01600*%
D10*
X0034772Y0002318D02*
X0058394Y0002318D01*
X0058394Y0214917D01*
X0034772Y0214917D01*
X0034772Y0002318D01*
D11*
X0041479Y0014291D03*
X0041479Y0024291D03*
X0041378Y0046574D03*
X0041378Y0056574D03*
X0041450Y0077283D03*
X0041450Y0087283D03*
X0041350Y0108385D03*
X0041350Y0118385D03*
X0041517Y0138873D03*
X0041517Y0148873D03*
X0041608Y0169157D03*
X0041608Y0179157D03*
X0051608Y0174157D03*
X0051608Y0164157D03*
X0051517Y0143873D03*
X0051517Y0133873D03*
X0051350Y0113385D03*
X0051350Y0103385D03*
X0051450Y0082283D03*
X0051450Y0072283D03*
X0051378Y0051574D03*
X0051378Y0041574D03*
X0051479Y0019291D03*
X0051479Y0009291D03*
D12*
X0045738Y0029384D02*
X0045742Y0029529D01*
X0045752Y0029673D01*
X0045770Y0029817D01*
X0045795Y0029960D01*
X0045826Y0030102D01*
X0045865Y0030241D01*
X0045911Y0030379D01*
X0045963Y0030514D01*
X0046022Y0030647D01*
X0046087Y0030776D01*
X0046158Y0030902D01*
X0046236Y0031025D01*
X0046319Y0031143D01*
X0046408Y0031257D01*
X0046503Y0031367D01*
X0046603Y0031472D01*
X0046708Y0031572D01*
X0046818Y0031667D01*
X0046932Y0031756D01*
X0047050Y0031839D01*
X0047173Y0031917D01*
X0047299Y0031988D01*
X0047428Y0032053D01*
X0047561Y0032112D01*
X0047696Y0032164D01*
X0047834Y0032210D01*
X0047973Y0032249D01*
X0048115Y0032280D01*
X0048258Y0032305D01*
X0048402Y0032323D01*
X0048546Y0032333D01*
X0048691Y0032337D01*
X0048836Y0032333D01*
X0048980Y0032323D01*
X0049124Y0032305D01*
X0049267Y0032280D01*
X0049409Y0032249D01*
X0049548Y0032210D01*
X0049686Y0032164D01*
X0049821Y0032112D01*
X0049954Y0032053D01*
X0050083Y0031988D01*
X0050209Y0031917D01*
X0050332Y0031839D01*
X0050450Y0031756D01*
X0050564Y0031667D01*
X0050674Y0031572D01*
X0050779Y0031472D01*
X0050879Y0031367D01*
X0050974Y0031257D01*
X0051063Y0031143D01*
X0051146Y0031025D01*
X0051224Y0030902D01*
X0051295Y0030776D01*
X0051360Y0030647D01*
X0051419Y0030514D01*
X0051471Y0030379D01*
X0051517Y0030241D01*
X0051556Y0030102D01*
X0051587Y0029960D01*
X0051612Y0029817D01*
X0051630Y0029673D01*
X0051640Y0029529D01*
X0051644Y0029384D01*
X0051640Y0029239D01*
X0051630Y0029095D01*
X0051612Y0028951D01*
X0051587Y0028808D01*
X0051556Y0028666D01*
X0051517Y0028527D01*
X0051471Y0028389D01*
X0051419Y0028254D01*
X0051360Y0028121D01*
X0051295Y0027992D01*
X0051224Y0027866D01*
X0051146Y0027743D01*
X0051063Y0027625D01*
X0050974Y0027511D01*
X0050879Y0027401D01*
X0050779Y0027296D01*
X0050674Y0027196D01*
X0050564Y0027101D01*
X0050450Y0027012D01*
X0050332Y0026929D01*
X0050209Y0026851D01*
X0050083Y0026780D01*
X0049954Y0026715D01*
X0049821Y0026656D01*
X0049686Y0026604D01*
X0049548Y0026558D01*
X0049409Y0026519D01*
X0049267Y0026488D01*
X0049124Y0026463D01*
X0048980Y0026445D01*
X0048836Y0026435D01*
X0048691Y0026431D01*
X0048546Y0026435D01*
X0048402Y0026445D01*
X0048258Y0026463D01*
X0048115Y0026488D01*
X0047973Y0026519D01*
X0047834Y0026558D01*
X0047696Y0026604D01*
X0047561Y0026656D01*
X0047428Y0026715D01*
X0047299Y0026780D01*
X0047173Y0026851D01*
X0047050Y0026929D01*
X0046932Y0027012D01*
X0046818Y0027101D01*
X0046708Y0027196D01*
X0046603Y0027296D01*
X0046503Y0027401D01*
X0046408Y0027511D01*
X0046319Y0027625D01*
X0046236Y0027743D01*
X0046158Y0027866D01*
X0046087Y0027992D01*
X0046022Y0028121D01*
X0045963Y0028254D01*
X0045911Y0028389D01*
X0045865Y0028527D01*
X0045826Y0028666D01*
X0045795Y0028808D01*
X0045770Y0028951D01*
X0045752Y0029095D01*
X0045742Y0029239D01*
X0045738Y0029384D01*
X0045638Y0061668D02*
X0045642Y0061813D01*
X0045652Y0061957D01*
X0045670Y0062101D01*
X0045695Y0062244D01*
X0045726Y0062386D01*
X0045765Y0062525D01*
X0045811Y0062663D01*
X0045863Y0062798D01*
X0045922Y0062931D01*
X0045987Y0063060D01*
X0046058Y0063186D01*
X0046136Y0063309D01*
X0046219Y0063427D01*
X0046308Y0063541D01*
X0046403Y0063651D01*
X0046503Y0063756D01*
X0046608Y0063856D01*
X0046718Y0063951D01*
X0046832Y0064040D01*
X0046950Y0064123D01*
X0047073Y0064201D01*
X0047199Y0064272D01*
X0047328Y0064337D01*
X0047461Y0064396D01*
X0047596Y0064448D01*
X0047734Y0064494D01*
X0047873Y0064533D01*
X0048015Y0064564D01*
X0048158Y0064589D01*
X0048302Y0064607D01*
X0048446Y0064617D01*
X0048591Y0064621D01*
X0048736Y0064617D01*
X0048880Y0064607D01*
X0049024Y0064589D01*
X0049167Y0064564D01*
X0049309Y0064533D01*
X0049448Y0064494D01*
X0049586Y0064448D01*
X0049721Y0064396D01*
X0049854Y0064337D01*
X0049983Y0064272D01*
X0050109Y0064201D01*
X0050232Y0064123D01*
X0050350Y0064040D01*
X0050464Y0063951D01*
X0050574Y0063856D01*
X0050679Y0063756D01*
X0050779Y0063651D01*
X0050874Y0063541D01*
X0050963Y0063427D01*
X0051046Y0063309D01*
X0051124Y0063186D01*
X0051195Y0063060D01*
X0051260Y0062931D01*
X0051319Y0062798D01*
X0051371Y0062663D01*
X0051417Y0062525D01*
X0051456Y0062386D01*
X0051487Y0062244D01*
X0051512Y0062101D01*
X0051530Y0061957D01*
X0051540Y0061813D01*
X0051544Y0061668D01*
X0051540Y0061523D01*
X0051530Y0061379D01*
X0051512Y0061235D01*
X0051487Y0061092D01*
X0051456Y0060950D01*
X0051417Y0060811D01*
X0051371Y0060673D01*
X0051319Y0060538D01*
X0051260Y0060405D01*
X0051195Y0060276D01*
X0051124Y0060150D01*
X0051046Y0060027D01*
X0050963Y0059909D01*
X0050874Y0059795D01*
X0050779Y0059685D01*
X0050679Y0059580D01*
X0050574Y0059480D01*
X0050464Y0059385D01*
X0050350Y0059296D01*
X0050232Y0059213D01*
X0050109Y0059135D01*
X0049983Y0059064D01*
X0049854Y0058999D01*
X0049721Y0058940D01*
X0049586Y0058888D01*
X0049448Y0058842D01*
X0049309Y0058803D01*
X0049167Y0058772D01*
X0049024Y0058747D01*
X0048880Y0058729D01*
X0048736Y0058719D01*
X0048591Y0058715D01*
X0048446Y0058719D01*
X0048302Y0058729D01*
X0048158Y0058747D01*
X0048015Y0058772D01*
X0047873Y0058803D01*
X0047734Y0058842D01*
X0047596Y0058888D01*
X0047461Y0058940D01*
X0047328Y0058999D01*
X0047199Y0059064D01*
X0047073Y0059135D01*
X0046950Y0059213D01*
X0046832Y0059296D01*
X0046718Y0059385D01*
X0046608Y0059480D01*
X0046503Y0059580D01*
X0046403Y0059685D01*
X0046308Y0059795D01*
X0046219Y0059909D01*
X0046136Y0060027D01*
X0046058Y0060150D01*
X0045987Y0060276D01*
X0045922Y0060405D01*
X0045863Y0060538D01*
X0045811Y0060673D01*
X0045765Y0060811D01*
X0045726Y0060950D01*
X0045695Y0061092D01*
X0045670Y0061235D01*
X0045652Y0061379D01*
X0045642Y0061523D01*
X0045638Y0061668D01*
X0045710Y0092376D02*
X0045714Y0092521D01*
X0045724Y0092665D01*
X0045742Y0092809D01*
X0045767Y0092952D01*
X0045798Y0093094D01*
X0045837Y0093233D01*
X0045883Y0093371D01*
X0045935Y0093506D01*
X0045994Y0093639D01*
X0046059Y0093768D01*
X0046130Y0093894D01*
X0046208Y0094017D01*
X0046291Y0094135D01*
X0046380Y0094249D01*
X0046475Y0094359D01*
X0046575Y0094464D01*
X0046680Y0094564D01*
X0046790Y0094659D01*
X0046904Y0094748D01*
X0047022Y0094831D01*
X0047145Y0094909D01*
X0047271Y0094980D01*
X0047400Y0095045D01*
X0047533Y0095104D01*
X0047668Y0095156D01*
X0047806Y0095202D01*
X0047945Y0095241D01*
X0048087Y0095272D01*
X0048230Y0095297D01*
X0048374Y0095315D01*
X0048518Y0095325D01*
X0048663Y0095329D01*
X0048808Y0095325D01*
X0048952Y0095315D01*
X0049096Y0095297D01*
X0049239Y0095272D01*
X0049381Y0095241D01*
X0049520Y0095202D01*
X0049658Y0095156D01*
X0049793Y0095104D01*
X0049926Y0095045D01*
X0050055Y0094980D01*
X0050181Y0094909D01*
X0050304Y0094831D01*
X0050422Y0094748D01*
X0050536Y0094659D01*
X0050646Y0094564D01*
X0050751Y0094464D01*
X0050851Y0094359D01*
X0050946Y0094249D01*
X0051035Y0094135D01*
X0051118Y0094017D01*
X0051196Y0093894D01*
X0051267Y0093768D01*
X0051332Y0093639D01*
X0051391Y0093506D01*
X0051443Y0093371D01*
X0051489Y0093233D01*
X0051528Y0093094D01*
X0051559Y0092952D01*
X0051584Y0092809D01*
X0051602Y0092665D01*
X0051612Y0092521D01*
X0051616Y0092376D01*
X0051612Y0092231D01*
X0051602Y0092087D01*
X0051584Y0091943D01*
X0051559Y0091800D01*
X0051528Y0091658D01*
X0051489Y0091519D01*
X0051443Y0091381D01*
X0051391Y0091246D01*
X0051332Y0091113D01*
X0051267Y0090984D01*
X0051196Y0090858D01*
X0051118Y0090735D01*
X0051035Y0090617D01*
X0050946Y0090503D01*
X0050851Y0090393D01*
X0050751Y0090288D01*
X0050646Y0090188D01*
X0050536Y0090093D01*
X0050422Y0090004D01*
X0050304Y0089921D01*
X0050181Y0089843D01*
X0050055Y0089772D01*
X0049926Y0089707D01*
X0049793Y0089648D01*
X0049658Y0089596D01*
X0049520Y0089550D01*
X0049381Y0089511D01*
X0049239Y0089480D01*
X0049096Y0089455D01*
X0048952Y0089437D01*
X0048808Y0089427D01*
X0048663Y0089423D01*
X0048518Y0089427D01*
X0048374Y0089437D01*
X0048230Y0089455D01*
X0048087Y0089480D01*
X0047945Y0089511D01*
X0047806Y0089550D01*
X0047668Y0089596D01*
X0047533Y0089648D01*
X0047400Y0089707D01*
X0047271Y0089772D01*
X0047145Y0089843D01*
X0047022Y0089921D01*
X0046904Y0090004D01*
X0046790Y0090093D01*
X0046680Y0090188D01*
X0046575Y0090288D01*
X0046475Y0090393D01*
X0046380Y0090503D01*
X0046291Y0090617D01*
X0046208Y0090735D01*
X0046130Y0090858D01*
X0046059Y0090984D01*
X0045994Y0091113D01*
X0045935Y0091246D01*
X0045883Y0091381D01*
X0045837Y0091519D01*
X0045798Y0091658D01*
X0045767Y0091800D01*
X0045742Y0091943D01*
X0045724Y0092087D01*
X0045714Y0092231D01*
X0045710Y0092376D01*
X0045609Y0123479D02*
X0045613Y0123624D01*
X0045623Y0123768D01*
X0045641Y0123912D01*
X0045666Y0124055D01*
X0045697Y0124197D01*
X0045736Y0124336D01*
X0045782Y0124474D01*
X0045834Y0124609D01*
X0045893Y0124742D01*
X0045958Y0124871D01*
X0046029Y0124997D01*
X0046107Y0125120D01*
X0046190Y0125238D01*
X0046279Y0125352D01*
X0046374Y0125462D01*
X0046474Y0125567D01*
X0046579Y0125667D01*
X0046689Y0125762D01*
X0046803Y0125851D01*
X0046921Y0125934D01*
X0047044Y0126012D01*
X0047170Y0126083D01*
X0047299Y0126148D01*
X0047432Y0126207D01*
X0047567Y0126259D01*
X0047705Y0126305D01*
X0047844Y0126344D01*
X0047986Y0126375D01*
X0048129Y0126400D01*
X0048273Y0126418D01*
X0048417Y0126428D01*
X0048562Y0126432D01*
X0048707Y0126428D01*
X0048851Y0126418D01*
X0048995Y0126400D01*
X0049138Y0126375D01*
X0049280Y0126344D01*
X0049419Y0126305D01*
X0049557Y0126259D01*
X0049692Y0126207D01*
X0049825Y0126148D01*
X0049954Y0126083D01*
X0050080Y0126012D01*
X0050203Y0125934D01*
X0050321Y0125851D01*
X0050435Y0125762D01*
X0050545Y0125667D01*
X0050650Y0125567D01*
X0050750Y0125462D01*
X0050845Y0125352D01*
X0050934Y0125238D01*
X0051017Y0125120D01*
X0051095Y0124997D01*
X0051166Y0124871D01*
X0051231Y0124742D01*
X0051290Y0124609D01*
X0051342Y0124474D01*
X0051388Y0124336D01*
X0051427Y0124197D01*
X0051458Y0124055D01*
X0051483Y0123912D01*
X0051501Y0123768D01*
X0051511Y0123624D01*
X0051515Y0123479D01*
X0051511Y0123334D01*
X0051501Y0123190D01*
X0051483Y0123046D01*
X0051458Y0122903D01*
X0051427Y0122761D01*
X0051388Y0122622D01*
X0051342Y0122484D01*
X0051290Y0122349D01*
X0051231Y0122216D01*
X0051166Y0122087D01*
X0051095Y0121961D01*
X0051017Y0121838D01*
X0050934Y0121720D01*
X0050845Y0121606D01*
X0050750Y0121496D01*
X0050650Y0121391D01*
X0050545Y0121291D01*
X0050435Y0121196D01*
X0050321Y0121107D01*
X0050203Y0121024D01*
X0050080Y0120946D01*
X0049954Y0120875D01*
X0049825Y0120810D01*
X0049692Y0120751D01*
X0049557Y0120699D01*
X0049419Y0120653D01*
X0049280Y0120614D01*
X0049138Y0120583D01*
X0048995Y0120558D01*
X0048851Y0120540D01*
X0048707Y0120530D01*
X0048562Y0120526D01*
X0048417Y0120530D01*
X0048273Y0120540D01*
X0048129Y0120558D01*
X0047986Y0120583D01*
X0047844Y0120614D01*
X0047705Y0120653D01*
X0047567Y0120699D01*
X0047432Y0120751D01*
X0047299Y0120810D01*
X0047170Y0120875D01*
X0047044Y0120946D01*
X0046921Y0121024D01*
X0046803Y0121107D01*
X0046689Y0121196D01*
X0046579Y0121291D01*
X0046474Y0121391D01*
X0046374Y0121496D01*
X0046279Y0121606D01*
X0046190Y0121720D01*
X0046107Y0121838D01*
X0046029Y0121961D01*
X0045958Y0122087D01*
X0045893Y0122216D01*
X0045834Y0122349D01*
X0045782Y0122484D01*
X0045736Y0122622D01*
X0045697Y0122761D01*
X0045666Y0122903D01*
X0045641Y0123046D01*
X0045623Y0123190D01*
X0045613Y0123334D01*
X0045609Y0123479D01*
X0045776Y0153967D02*
X0045780Y0154112D01*
X0045790Y0154256D01*
X0045808Y0154400D01*
X0045833Y0154543D01*
X0045864Y0154685D01*
X0045903Y0154824D01*
X0045949Y0154962D01*
X0046001Y0155097D01*
X0046060Y0155230D01*
X0046125Y0155359D01*
X0046196Y0155485D01*
X0046274Y0155608D01*
X0046357Y0155726D01*
X0046446Y0155840D01*
X0046541Y0155950D01*
X0046641Y0156055D01*
X0046746Y0156155D01*
X0046856Y0156250D01*
X0046970Y0156339D01*
X0047088Y0156422D01*
X0047211Y0156500D01*
X0047337Y0156571D01*
X0047466Y0156636D01*
X0047599Y0156695D01*
X0047734Y0156747D01*
X0047872Y0156793D01*
X0048011Y0156832D01*
X0048153Y0156863D01*
X0048296Y0156888D01*
X0048440Y0156906D01*
X0048584Y0156916D01*
X0048729Y0156920D01*
X0048874Y0156916D01*
X0049018Y0156906D01*
X0049162Y0156888D01*
X0049305Y0156863D01*
X0049447Y0156832D01*
X0049586Y0156793D01*
X0049724Y0156747D01*
X0049859Y0156695D01*
X0049992Y0156636D01*
X0050121Y0156571D01*
X0050247Y0156500D01*
X0050370Y0156422D01*
X0050488Y0156339D01*
X0050602Y0156250D01*
X0050712Y0156155D01*
X0050817Y0156055D01*
X0050917Y0155950D01*
X0051012Y0155840D01*
X0051101Y0155726D01*
X0051184Y0155608D01*
X0051262Y0155485D01*
X0051333Y0155359D01*
X0051398Y0155230D01*
X0051457Y0155097D01*
X0051509Y0154962D01*
X0051555Y0154824D01*
X0051594Y0154685D01*
X0051625Y0154543D01*
X0051650Y0154400D01*
X0051668Y0154256D01*
X0051678Y0154112D01*
X0051682Y0153967D01*
X0051678Y0153822D01*
X0051668Y0153678D01*
X0051650Y0153534D01*
X0051625Y0153391D01*
X0051594Y0153249D01*
X0051555Y0153110D01*
X0051509Y0152972D01*
X0051457Y0152837D01*
X0051398Y0152704D01*
X0051333Y0152575D01*
X0051262Y0152449D01*
X0051184Y0152326D01*
X0051101Y0152208D01*
X0051012Y0152094D01*
X0050917Y0151984D01*
X0050817Y0151879D01*
X0050712Y0151779D01*
X0050602Y0151684D01*
X0050488Y0151595D01*
X0050370Y0151512D01*
X0050247Y0151434D01*
X0050121Y0151363D01*
X0049992Y0151298D01*
X0049859Y0151239D01*
X0049724Y0151187D01*
X0049586Y0151141D01*
X0049447Y0151102D01*
X0049305Y0151071D01*
X0049162Y0151046D01*
X0049018Y0151028D01*
X0048874Y0151018D01*
X0048729Y0151014D01*
X0048584Y0151018D01*
X0048440Y0151028D01*
X0048296Y0151046D01*
X0048153Y0151071D01*
X0048011Y0151102D01*
X0047872Y0151141D01*
X0047734Y0151187D01*
X0047599Y0151239D01*
X0047466Y0151298D01*
X0047337Y0151363D01*
X0047211Y0151434D01*
X0047088Y0151512D01*
X0046970Y0151595D01*
X0046856Y0151684D01*
X0046746Y0151779D01*
X0046641Y0151879D01*
X0046541Y0151984D01*
X0046446Y0152094D01*
X0046357Y0152208D01*
X0046274Y0152326D01*
X0046196Y0152449D01*
X0046125Y0152575D01*
X0046060Y0152704D01*
X0046001Y0152837D01*
X0045949Y0152972D01*
X0045903Y0153110D01*
X0045864Y0153249D01*
X0045833Y0153391D01*
X0045808Y0153534D01*
X0045790Y0153678D01*
X0045780Y0153822D01*
X0045776Y0153967D01*
X0045867Y0184250D02*
X0045871Y0184395D01*
X0045881Y0184539D01*
X0045899Y0184683D01*
X0045924Y0184826D01*
X0045955Y0184968D01*
X0045994Y0185107D01*
X0046040Y0185245D01*
X0046092Y0185380D01*
X0046151Y0185513D01*
X0046216Y0185642D01*
X0046287Y0185768D01*
X0046365Y0185891D01*
X0046448Y0186009D01*
X0046537Y0186123D01*
X0046632Y0186233D01*
X0046732Y0186338D01*
X0046837Y0186438D01*
X0046947Y0186533D01*
X0047061Y0186622D01*
X0047179Y0186705D01*
X0047302Y0186783D01*
X0047428Y0186854D01*
X0047557Y0186919D01*
X0047690Y0186978D01*
X0047825Y0187030D01*
X0047963Y0187076D01*
X0048102Y0187115D01*
X0048244Y0187146D01*
X0048387Y0187171D01*
X0048531Y0187189D01*
X0048675Y0187199D01*
X0048820Y0187203D01*
X0048965Y0187199D01*
X0049109Y0187189D01*
X0049253Y0187171D01*
X0049396Y0187146D01*
X0049538Y0187115D01*
X0049677Y0187076D01*
X0049815Y0187030D01*
X0049950Y0186978D01*
X0050083Y0186919D01*
X0050212Y0186854D01*
X0050338Y0186783D01*
X0050461Y0186705D01*
X0050579Y0186622D01*
X0050693Y0186533D01*
X0050803Y0186438D01*
X0050908Y0186338D01*
X0051008Y0186233D01*
X0051103Y0186123D01*
X0051192Y0186009D01*
X0051275Y0185891D01*
X0051353Y0185768D01*
X0051424Y0185642D01*
X0051489Y0185513D01*
X0051548Y0185380D01*
X0051600Y0185245D01*
X0051646Y0185107D01*
X0051685Y0184968D01*
X0051716Y0184826D01*
X0051741Y0184683D01*
X0051759Y0184539D01*
X0051769Y0184395D01*
X0051773Y0184250D01*
X0051769Y0184105D01*
X0051759Y0183961D01*
X0051741Y0183817D01*
X0051716Y0183674D01*
X0051685Y0183532D01*
X0051646Y0183393D01*
X0051600Y0183255D01*
X0051548Y0183120D01*
X0051489Y0182987D01*
X0051424Y0182858D01*
X0051353Y0182732D01*
X0051275Y0182609D01*
X0051192Y0182491D01*
X0051103Y0182377D01*
X0051008Y0182267D01*
X0050908Y0182162D01*
X0050803Y0182062D01*
X0050693Y0181967D01*
X0050579Y0181878D01*
X0050461Y0181795D01*
X0050338Y0181717D01*
X0050212Y0181646D01*
X0050083Y0181581D01*
X0049950Y0181522D01*
X0049815Y0181470D01*
X0049677Y0181424D01*
X0049538Y0181385D01*
X0049396Y0181354D01*
X0049253Y0181329D01*
X0049109Y0181311D01*
X0048965Y0181301D01*
X0048820Y0181297D01*
X0048675Y0181301D01*
X0048531Y0181311D01*
X0048387Y0181329D01*
X0048244Y0181354D01*
X0048102Y0181385D01*
X0047963Y0181424D01*
X0047825Y0181470D01*
X0047690Y0181522D01*
X0047557Y0181581D01*
X0047428Y0181646D01*
X0047302Y0181717D01*
X0047179Y0181795D01*
X0047061Y0181878D01*
X0046947Y0181967D01*
X0046837Y0182062D01*
X0046732Y0182162D01*
X0046632Y0182267D01*
X0046537Y0182377D01*
X0046448Y0182491D01*
X0046365Y0182609D01*
X0046287Y0182732D01*
X0046216Y0182858D01*
X0046151Y0182987D01*
X0046092Y0183120D01*
X0046040Y0183255D01*
X0045994Y0183393D01*
X0045955Y0183532D01*
X0045924Y0183674D01*
X0045899Y0183817D01*
X0045881Y0183961D01*
X0045871Y0184105D01*
X0045867Y0184250D01*
X0039142Y0210350D02*
X0039145Y0210456D01*
X0039152Y0210562D01*
X0039165Y0210668D01*
X0039184Y0210772D01*
X0039207Y0210876D01*
X0039235Y0210978D01*
X0039269Y0211079D01*
X0039307Y0211179D01*
X0039350Y0211276D01*
X0039398Y0211371D01*
X0039450Y0211463D01*
X0039507Y0211553D01*
X0039568Y0211640D01*
X0039633Y0211723D01*
X0039703Y0211804D01*
X0039776Y0211881D01*
X0039853Y0211954D01*
X0039934Y0212024D01*
X0040017Y0212089D01*
X0040104Y0212150D01*
X0040194Y0212207D01*
X0040286Y0212259D01*
X0040381Y0212307D01*
X0040478Y0212350D01*
X0040578Y0212388D01*
X0040679Y0212422D01*
X0040781Y0212450D01*
X0040885Y0212473D01*
X0040989Y0212492D01*
X0041095Y0212505D01*
X0041201Y0212512D01*
X0041307Y0212515D01*
X0041413Y0212512D01*
X0041519Y0212505D01*
X0041625Y0212492D01*
X0041729Y0212473D01*
X0041833Y0212450D01*
X0041935Y0212422D01*
X0042036Y0212388D01*
X0042136Y0212350D01*
X0042233Y0212307D01*
X0042328Y0212259D01*
X0042420Y0212207D01*
X0042510Y0212150D01*
X0042597Y0212089D01*
X0042680Y0212024D01*
X0042761Y0211954D01*
X0042838Y0211881D01*
X0042911Y0211804D01*
X0042981Y0211723D01*
X0043046Y0211640D01*
X0043107Y0211553D01*
X0043164Y0211463D01*
X0043216Y0211371D01*
X0043264Y0211276D01*
X0043307Y0211179D01*
X0043345Y0211079D01*
X0043379Y0210978D01*
X0043407Y0210876D01*
X0043430Y0210772D01*
X0043449Y0210668D01*
X0043462Y0210562D01*
X0043469Y0210456D01*
X0043472Y0210350D01*
X0043469Y0210244D01*
X0043462Y0210138D01*
X0043449Y0210032D01*
X0043430Y0209928D01*
X0043407Y0209824D01*
X0043379Y0209722D01*
X0043345Y0209621D01*
X0043307Y0209521D01*
X0043264Y0209424D01*
X0043216Y0209329D01*
X0043164Y0209237D01*
X0043107Y0209147D01*
X0043046Y0209060D01*
X0042981Y0208977D01*
X0042911Y0208896D01*
X0042838Y0208819D01*
X0042761Y0208746D01*
X0042680Y0208676D01*
X0042597Y0208611D01*
X0042510Y0208550D01*
X0042420Y0208493D01*
X0042328Y0208441D01*
X0042233Y0208393D01*
X0042136Y0208350D01*
X0042036Y0208312D01*
X0041935Y0208278D01*
X0041833Y0208250D01*
X0041729Y0208227D01*
X0041625Y0208208D01*
X0041519Y0208195D01*
X0041413Y0208188D01*
X0041307Y0208185D01*
X0041201Y0208188D01*
X0041095Y0208195D01*
X0040989Y0208208D01*
X0040885Y0208227D01*
X0040781Y0208250D01*
X0040679Y0208278D01*
X0040578Y0208312D01*
X0040478Y0208350D01*
X0040381Y0208393D01*
X0040286Y0208441D01*
X0040194Y0208493D01*
X0040104Y0208550D01*
X0040017Y0208611D01*
X0039934Y0208676D01*
X0039853Y0208746D01*
X0039776Y0208819D01*
X0039703Y0208896D01*
X0039633Y0208977D01*
X0039568Y0209060D01*
X0039507Y0209147D01*
X0039450Y0209237D01*
X0039398Y0209329D01*
X0039350Y0209424D01*
X0039307Y0209521D01*
X0039269Y0209621D01*
X0039235Y0209722D01*
X0039207Y0209824D01*
X0039184Y0209928D01*
X0039165Y0210032D01*
X0039152Y0210138D01*
X0039145Y0210244D01*
X0039142Y0210350D01*
X0049142Y0210350D02*
X0049145Y0210456D01*
X0049152Y0210562D01*
X0049165Y0210668D01*
X0049184Y0210772D01*
X0049207Y0210876D01*
X0049235Y0210978D01*
X0049269Y0211079D01*
X0049307Y0211179D01*
X0049350Y0211276D01*
X0049398Y0211371D01*
X0049450Y0211463D01*
X0049507Y0211553D01*
X0049568Y0211640D01*
X0049633Y0211723D01*
X0049703Y0211804D01*
X0049776Y0211881D01*
X0049853Y0211954D01*
X0049934Y0212024D01*
X0050017Y0212089D01*
X0050104Y0212150D01*
X0050194Y0212207D01*
X0050286Y0212259D01*
X0050381Y0212307D01*
X0050478Y0212350D01*
X0050578Y0212388D01*
X0050679Y0212422D01*
X0050781Y0212450D01*
X0050885Y0212473D01*
X0050989Y0212492D01*
X0051095Y0212505D01*
X0051201Y0212512D01*
X0051307Y0212515D01*
X0051413Y0212512D01*
X0051519Y0212505D01*
X0051625Y0212492D01*
X0051729Y0212473D01*
X0051833Y0212450D01*
X0051935Y0212422D01*
X0052036Y0212388D01*
X0052136Y0212350D01*
X0052233Y0212307D01*
X0052328Y0212259D01*
X0052420Y0212207D01*
X0052510Y0212150D01*
X0052597Y0212089D01*
X0052680Y0212024D01*
X0052761Y0211954D01*
X0052838Y0211881D01*
X0052911Y0211804D01*
X0052981Y0211723D01*
X0053046Y0211640D01*
X0053107Y0211553D01*
X0053164Y0211463D01*
X0053216Y0211371D01*
X0053264Y0211276D01*
X0053307Y0211179D01*
X0053345Y0211079D01*
X0053379Y0210978D01*
X0053407Y0210876D01*
X0053430Y0210772D01*
X0053449Y0210668D01*
X0053462Y0210562D01*
X0053469Y0210456D01*
X0053472Y0210350D01*
X0053469Y0210244D01*
X0053462Y0210138D01*
X0053449Y0210032D01*
X0053430Y0209928D01*
X0053407Y0209824D01*
X0053379Y0209722D01*
X0053345Y0209621D01*
X0053307Y0209521D01*
X0053264Y0209424D01*
X0053216Y0209329D01*
X0053164Y0209237D01*
X0053107Y0209147D01*
X0053046Y0209060D01*
X0052981Y0208977D01*
X0052911Y0208896D01*
X0052838Y0208819D01*
X0052761Y0208746D01*
X0052680Y0208676D01*
X0052597Y0208611D01*
X0052510Y0208550D01*
X0052420Y0208493D01*
X0052328Y0208441D01*
X0052233Y0208393D01*
X0052136Y0208350D01*
X0052036Y0208312D01*
X0051935Y0208278D01*
X0051833Y0208250D01*
X0051729Y0208227D01*
X0051625Y0208208D01*
X0051519Y0208195D01*
X0051413Y0208188D01*
X0051307Y0208185D01*
X0051201Y0208188D01*
X0051095Y0208195D01*
X0050989Y0208208D01*
X0050885Y0208227D01*
X0050781Y0208250D01*
X0050679Y0208278D01*
X0050578Y0208312D01*
X0050478Y0208350D01*
X0050381Y0208393D01*
X0050286Y0208441D01*
X0050194Y0208493D01*
X0050104Y0208550D01*
X0050017Y0208611D01*
X0049934Y0208676D01*
X0049853Y0208746D01*
X0049776Y0208819D01*
X0049703Y0208896D01*
X0049633Y0208977D01*
X0049568Y0209060D01*
X0049507Y0209147D01*
X0049450Y0209237D01*
X0049398Y0209329D01*
X0049350Y0209424D01*
X0049307Y0209521D01*
X0049269Y0209621D01*
X0049235Y0209722D01*
X0049207Y0209824D01*
X0049184Y0209928D01*
X0049165Y0210032D01*
X0049152Y0210138D01*
X0049145Y0210244D01*
X0049142Y0210350D01*
D13*
X0051307Y0200350D03*
X0041307Y0200350D03*
D14*
X0041792Y0200058D02*
X0046259Y0200058D01*
X0046139Y0199866D02*
X0041792Y0199866D01*
X0041792Y0200832D01*
X0046139Y0200832D01*
X0046035Y0201485D01*
X0045800Y0202211D01*
X0045453Y0202890D01*
X0045005Y0203507D01*
X0044465Y0204047D01*
X0043848Y0204496D01*
X0043168Y0204842D01*
X0042442Y0205078D01*
X0041790Y0205181D01*
X0041790Y0200835D01*
X0040824Y0200835D01*
X0040824Y0205181D01*
X0040172Y0205078D01*
X0039446Y0204842D01*
X0038766Y0204496D01*
X0038149Y0204047D01*
X0037609Y0203507D01*
X0037161Y0202890D01*
X0037071Y0202714D01*
X0037071Y0212617D01*
X0037967Y0212617D01*
X0037945Y0212596D01*
X0037342Y0211138D01*
X0037342Y0209561D01*
X0037945Y0208103D01*
X0039061Y0206988D01*
X0040518Y0206384D01*
X0042096Y0206384D01*
X0043553Y0206988D01*
X0044669Y0208103D01*
X0045272Y0209561D01*
X0045272Y0211138D01*
X0044669Y0212596D01*
X0044647Y0212617D01*
X0047967Y0212617D01*
X0047945Y0212596D01*
X0047342Y0211138D01*
X0047342Y0209561D01*
X0047945Y0208103D01*
X0049061Y0206988D01*
X0050518Y0206384D01*
X0052096Y0206384D01*
X0053553Y0206988D01*
X0054669Y0208103D01*
X0055272Y0209561D01*
X0055272Y0211138D01*
X0054669Y0212596D01*
X0054647Y0212617D01*
X0056094Y0212617D01*
X0056094Y0201983D01*
X0055586Y0203209D01*
X0054167Y0204629D01*
X0052311Y0205397D01*
X0050303Y0205397D01*
X0048447Y0204629D01*
X0047028Y0203209D01*
X0046259Y0201354D01*
X0046259Y0199345D01*
X0047028Y0197490D01*
X0048447Y0196070D01*
X0050303Y0195302D01*
X0052311Y0195302D01*
X0054167Y0196070D01*
X0055586Y0197490D01*
X0056094Y0198716D01*
X0056094Y0165271D01*
X0055483Y0166746D01*
X0054197Y0168032D01*
X0052517Y0168728D01*
X0050698Y0168728D01*
X0049018Y0168032D01*
X0047732Y0166746D01*
X0047036Y0165066D01*
X0047036Y0163247D01*
X0047732Y0161567D01*
X0049018Y0160281D01*
X0050698Y0159585D01*
X0052517Y0159585D01*
X0054197Y0160281D01*
X0055483Y0161567D01*
X0056094Y0163042D01*
X0056094Y0004618D01*
X0037071Y0004618D01*
X0037071Y0012985D01*
X0037603Y0011701D01*
X0038889Y0010415D01*
X0040569Y0009719D01*
X0042388Y0009719D01*
X0044068Y0010415D01*
X0045354Y0011701D01*
X0046050Y0013381D01*
X0046050Y0015200D01*
X0045354Y0016880D01*
X0044068Y0018166D01*
X0042388Y0018862D01*
X0040569Y0018862D01*
X0038889Y0018166D01*
X0037603Y0016880D01*
X0037071Y0015595D01*
X0037071Y0022985D01*
X0037603Y0021701D01*
X0038889Y0020415D01*
X0040569Y0019719D01*
X0042388Y0019719D01*
X0044068Y0020415D01*
X0045354Y0021701D01*
X0046050Y0023381D01*
X0046050Y0025200D01*
X0045976Y0025378D01*
X0045999Y0025355D01*
X0047746Y0024631D01*
X0049637Y0024631D01*
X0051383Y0025355D01*
X0052720Y0026692D01*
X0053444Y0028439D01*
X0053444Y0030330D01*
X0052720Y0032076D01*
X0051383Y0033413D01*
X0049637Y0034137D01*
X0047746Y0034137D01*
X0045999Y0033413D01*
X0044662Y0032076D01*
X0043939Y0030330D01*
X0043939Y0028439D01*
X0044048Y0028174D01*
X0042388Y0028862D01*
X0040922Y0028862D01*
X0039471Y0030312D01*
X0039471Y0042416D01*
X0040468Y0042002D01*
X0042287Y0042002D01*
X0043967Y0042698D01*
X0045253Y0043984D01*
X0045949Y0045664D01*
X0045949Y0047483D01*
X0045253Y0049163D01*
X0043967Y0050449D01*
X0042287Y0051145D01*
X0040468Y0051145D01*
X0039471Y0050732D01*
X0039471Y0051273D01*
X0040279Y0052081D01*
X0040468Y0052002D01*
X0042287Y0052002D01*
X0043967Y0052698D01*
X0045253Y0053984D01*
X0045949Y0055664D01*
X0045949Y0057483D01*
X0045875Y0057662D01*
X0045898Y0057639D01*
X0047645Y0056915D01*
X0049536Y0056915D01*
X0051283Y0057639D01*
X0052619Y0058975D01*
X0053343Y0060722D01*
X0053343Y0062613D01*
X0052619Y0064360D01*
X0051283Y0065696D01*
X0049536Y0066420D01*
X0047645Y0066420D01*
X0045898Y0065696D01*
X0044561Y0064360D01*
X0043838Y0062613D01*
X0043838Y0060722D01*
X0043948Y0060457D01*
X0042287Y0061145D01*
X0040468Y0061145D01*
X0038788Y0060449D01*
X0037502Y0059163D01*
X0037071Y0058122D01*
X0037071Y0075909D01*
X0037575Y0074693D01*
X0038861Y0073407D01*
X0040541Y0072711D01*
X0042360Y0072711D01*
X0044040Y0073407D01*
X0045326Y0074693D01*
X0046022Y0076373D01*
X0046022Y0078192D01*
X0045326Y0079872D01*
X0044040Y0081158D01*
X0042360Y0081854D01*
X0040541Y0081854D01*
X0038861Y0081158D01*
X0037575Y0079872D01*
X0037071Y0078656D01*
X0037071Y0085909D01*
X0037575Y0084693D01*
X0038861Y0083407D01*
X0040541Y0082711D01*
X0042360Y0082711D01*
X0044040Y0083407D01*
X0045326Y0084693D01*
X0046022Y0086373D01*
X0046022Y0088192D01*
X0045948Y0088370D01*
X0045970Y0088347D01*
X0047717Y0087624D01*
X0049608Y0087624D01*
X0051355Y0088347D01*
X0052692Y0089684D01*
X0053415Y0091431D01*
X0053415Y0093322D01*
X0052692Y0095069D01*
X0051355Y0096405D01*
X0049608Y0097129D01*
X0047717Y0097129D01*
X0045970Y0096405D01*
X0044634Y0095069D01*
X0043910Y0093322D01*
X0043910Y0091431D01*
X0044020Y0091166D01*
X0042360Y0091854D01*
X0040830Y0091854D01*
X0039471Y0093212D01*
X0039471Y0104215D01*
X0040440Y0103813D01*
X0042259Y0103813D01*
X0043939Y0104509D01*
X0045225Y0105795D01*
X0045921Y0107475D01*
X0045921Y0109294D01*
X0045225Y0110974D01*
X0043939Y0112260D01*
X0042259Y0112956D01*
X0040440Y0112956D01*
X0039471Y0112555D01*
X0039471Y0113113D01*
X0040250Y0113892D01*
X0040440Y0113813D01*
X0042259Y0113813D01*
X0043939Y0114509D01*
X0045225Y0115795D01*
X0045921Y0117475D01*
X0045921Y0119294D01*
X0045847Y0119473D01*
X0045870Y0119450D01*
X0047617Y0118726D01*
X0049507Y0118726D01*
X0051254Y0119450D01*
X0052591Y0120786D01*
X0053315Y0122533D01*
X0053315Y0124424D01*
X0052591Y0126171D01*
X0051254Y0127507D01*
X0049507Y0128231D01*
X0047617Y0128231D01*
X0045870Y0127507D01*
X0044533Y0126171D01*
X0043809Y0124424D01*
X0043809Y0122533D01*
X0043919Y0122268D01*
X0042259Y0122956D01*
X0040440Y0122956D01*
X0038760Y0122260D01*
X0037474Y0120974D01*
X0037071Y0120002D01*
X0037071Y0137659D01*
X0037641Y0136283D01*
X0038927Y0134998D01*
X0040607Y0134302D01*
X0042426Y0134302D01*
X0044106Y0134998D01*
X0045392Y0136283D01*
X0046088Y0137963D01*
X0046088Y0139783D01*
X0045392Y0141463D01*
X0044106Y0142748D01*
X0042426Y0143444D01*
X0040607Y0143444D01*
X0038927Y0142748D01*
X0037641Y0141463D01*
X0037071Y0140087D01*
X0037071Y0147659D01*
X0037641Y0146283D01*
X0038927Y0144998D01*
X0040607Y0144302D01*
X0042426Y0144302D01*
X0044106Y0144998D01*
X0045392Y0146283D01*
X0046088Y0147963D01*
X0046088Y0149783D01*
X0046014Y0149961D01*
X0046037Y0149938D01*
X0047783Y0149214D01*
X0049674Y0149214D01*
X0051421Y0149938D01*
X0052758Y0151274D01*
X0053481Y0153021D01*
X0053481Y0154912D01*
X0052758Y0156659D01*
X0051421Y0157996D01*
X0049674Y0158719D01*
X0047783Y0158719D01*
X0046037Y0157996D01*
X0044700Y0156659D01*
X0043976Y0154912D01*
X0043976Y0153021D01*
X0044086Y0152756D01*
X0042426Y0153444D01*
X0040607Y0153444D01*
X0040385Y0153352D01*
X0039671Y0153987D01*
X0039671Y0165011D01*
X0040698Y0164585D01*
X0042517Y0164585D01*
X0044197Y0165281D01*
X0045483Y0166567D01*
X0046179Y0168247D01*
X0046179Y0170066D01*
X0045483Y0171746D01*
X0044197Y0173032D01*
X0042546Y0173716D01*
X0043812Y0174981D01*
X0043881Y0175150D01*
X0044197Y0175281D01*
X0045483Y0176567D01*
X0046179Y0178247D01*
X0046179Y0180066D01*
X0046105Y0180244D01*
X0046128Y0180221D01*
X0047875Y0179498D01*
X0049766Y0179498D01*
X0051513Y0180221D01*
X0052849Y0181558D01*
X0053573Y0183305D01*
X0053573Y0185196D01*
X0052849Y0186943D01*
X0051513Y0188279D01*
X0049766Y0189003D01*
X0047875Y0189003D01*
X0046128Y0188279D01*
X0044791Y0186943D01*
X0044068Y0185196D01*
X0044068Y0183305D01*
X0044178Y0183040D01*
X0042517Y0183728D01*
X0040698Y0183728D01*
X0039018Y0183032D01*
X0037732Y0181746D01*
X0037071Y0180150D01*
X0037071Y0197985D01*
X0037161Y0197809D01*
X0037609Y0197191D01*
X0038149Y0196652D01*
X0038766Y0196203D01*
X0039446Y0195857D01*
X0040172Y0195621D01*
X0040824Y0195517D01*
X0040824Y0199864D01*
X0041790Y0199864D01*
X0041790Y0195517D01*
X0042442Y0195621D01*
X0043168Y0195857D01*
X0043848Y0196203D01*
X0044465Y0196652D01*
X0045005Y0197191D01*
X0045453Y0197809D01*
X0045800Y0198488D01*
X0046035Y0199214D01*
X0046139Y0199866D01*
X0045920Y0198860D02*
X0046460Y0198860D01*
X0046956Y0197661D02*
X0045346Y0197661D01*
X0044205Y0196463D02*
X0048054Y0196463D01*
X0046259Y0201257D02*
X0046072Y0201257D01*
X0045675Y0202455D02*
X0046715Y0202455D01*
X0047472Y0203654D02*
X0044859Y0203654D01*
X0043814Y0207249D02*
X0048800Y0207249D01*
X0048986Y0204852D02*
X0043138Y0204852D01*
X0041790Y0204852D02*
X0040824Y0204852D01*
X0040824Y0203654D02*
X0041790Y0203654D01*
X0041790Y0202455D02*
X0040824Y0202455D01*
X0040824Y0201257D02*
X0041790Y0201257D01*
X0041790Y0198860D02*
X0040824Y0198860D01*
X0040824Y0197661D02*
X0041790Y0197661D01*
X0041790Y0196463D02*
X0040824Y0196463D01*
X0038408Y0196463D02*
X0037071Y0196463D01*
X0037071Y0195265D02*
X0056094Y0195265D01*
X0056094Y0196463D02*
X0054559Y0196463D01*
X0055657Y0197661D02*
X0056094Y0197661D01*
X0056094Y0194066D02*
X0037071Y0194066D01*
X0037071Y0192868D02*
X0056094Y0192868D01*
X0056094Y0191669D02*
X0037071Y0191669D01*
X0037071Y0190471D02*
X0056094Y0190471D01*
X0056094Y0189272D02*
X0037071Y0189272D01*
X0037071Y0188074D02*
X0045923Y0188074D01*
X0044764Y0186876D02*
X0037071Y0186876D01*
X0037071Y0185677D02*
X0044267Y0185677D01*
X0044068Y0184479D02*
X0037071Y0184479D01*
X0037071Y0183280D02*
X0039618Y0183280D01*
X0038068Y0182082D02*
X0037071Y0182082D01*
X0037071Y0180883D02*
X0037375Y0180883D01*
X0039671Y0164106D02*
X0047036Y0164106D01*
X0047135Y0165304D02*
X0044220Y0165304D01*
X0045419Y0166502D02*
X0047631Y0166502D01*
X0048687Y0167701D02*
X0045953Y0167701D01*
X0046179Y0168899D02*
X0056094Y0168899D01*
X0056094Y0167701D02*
X0054528Y0167701D01*
X0055584Y0166502D02*
X0056094Y0166502D01*
X0056080Y0165304D02*
X0056094Y0165304D01*
X0056038Y0162907D02*
X0056094Y0162907D01*
X0056094Y0161709D02*
X0055542Y0161709D01*
X0056094Y0160510D02*
X0054426Y0160510D01*
X0053148Y0155717D02*
X0056094Y0155717D01*
X0056094Y0156915D02*
X0052502Y0156915D01*
X0051137Y0158113D02*
X0056094Y0158113D01*
X0056094Y0159312D02*
X0039671Y0159312D01*
X0039671Y0160510D02*
X0048789Y0160510D01*
X0047673Y0161709D02*
X0039671Y0161709D01*
X0039671Y0162907D02*
X0047177Y0162907D01*
X0046321Y0158113D02*
X0039671Y0158113D01*
X0039671Y0156915D02*
X0044956Y0156915D01*
X0044310Y0155717D02*
X0039671Y0155717D01*
X0039671Y0154518D02*
X0043976Y0154518D01*
X0043976Y0153320D02*
X0042727Y0153320D01*
X0045237Y0146129D02*
X0047760Y0146129D01*
X0047778Y0146164D02*
X0047465Y0145551D01*
X0047252Y0144897D01*
X0047145Y0144217D01*
X0047145Y0144159D01*
X0051228Y0144159D01*
X0051228Y0143587D01*
X0047145Y0143587D01*
X0047145Y0143529D01*
X0047252Y0142849D01*
X0047465Y0142195D01*
X0047778Y0141582D01*
X0048182Y0141025D01*
X0048669Y0140539D01*
X0049225Y0140134D01*
X0049838Y0139822D01*
X0050493Y0139609D01*
X0051172Y0139502D01*
X0051230Y0139502D01*
X0051230Y0143585D01*
X0051802Y0143585D01*
X0051802Y0139502D01*
X0051861Y0139502D01*
X0052540Y0139609D01*
X0053194Y0139822D01*
X0053807Y0140134D01*
X0054364Y0140539D01*
X0054851Y0141025D01*
X0055255Y0141582D01*
X0055568Y0142195D01*
X0055780Y0142849D01*
X0055888Y0143529D01*
X0055888Y0143587D01*
X0051805Y0143587D01*
X0051805Y0144159D01*
X0055888Y0144159D01*
X0055888Y0144217D01*
X0055780Y0144897D01*
X0055568Y0145551D01*
X0055255Y0146164D01*
X0054851Y0146721D01*
X0054364Y0147207D01*
X0053807Y0147612D01*
X0053194Y0147924D01*
X0052540Y0148137D01*
X0051861Y0148244D01*
X0051802Y0148244D01*
X0051802Y0144161D01*
X0051230Y0144161D01*
X0051230Y0148244D01*
X0051172Y0148244D01*
X0050493Y0148137D01*
X0049838Y0147924D01*
X0049225Y0147612D01*
X0048669Y0147207D01*
X0048182Y0146721D01*
X0047778Y0146164D01*
X0047263Y0144931D02*
X0043944Y0144931D01*
X0044320Y0142534D02*
X0047355Y0142534D01*
X0047956Y0141335D02*
X0045444Y0141335D01*
X0045941Y0140137D02*
X0049221Y0140137D01*
X0050607Y0138444D02*
X0048927Y0137748D01*
X0047641Y0136463D01*
X0046945Y0134783D01*
X0046945Y0132963D01*
X0047641Y0131283D01*
X0048927Y0129998D01*
X0050607Y0129302D01*
X0052426Y0129302D01*
X0054106Y0129998D01*
X0055392Y0131283D01*
X0056088Y0132963D01*
X0056088Y0134783D01*
X0055392Y0136463D01*
X0054106Y0137748D01*
X0052426Y0138444D01*
X0050607Y0138444D01*
X0051230Y0140137D02*
X0051802Y0140137D01*
X0051802Y0141335D02*
X0051230Y0141335D01*
X0051230Y0142534D02*
X0051802Y0142534D01*
X0051805Y0143732D02*
X0056094Y0143732D01*
X0056094Y0142534D02*
X0055678Y0142534D01*
X0056094Y0141335D02*
X0055076Y0141335D01*
X0055770Y0144931D02*
X0056094Y0144931D01*
X0056094Y0146129D02*
X0055273Y0146129D01*
X0056094Y0147328D02*
X0054199Y0147328D01*
X0056094Y0148526D02*
X0046088Y0148526D01*
X0046088Y0149724D02*
X0046552Y0149724D01*
X0045824Y0147328D02*
X0048834Y0147328D01*
X0051230Y0147328D02*
X0051802Y0147328D01*
X0051802Y0146129D02*
X0051230Y0146129D01*
X0051230Y0144931D02*
X0051802Y0144931D01*
X0051228Y0143732D02*
X0037071Y0143732D01*
X0037071Y0142534D02*
X0038712Y0142534D01*
X0037589Y0141335D02*
X0037071Y0141335D01*
X0037071Y0140137D02*
X0037092Y0140137D01*
X0037071Y0136542D02*
X0037534Y0136542D01*
X0037071Y0135343D02*
X0038581Y0135343D01*
X0037071Y0134145D02*
X0046945Y0134145D01*
X0046952Y0132946D02*
X0037071Y0132946D01*
X0037071Y0131748D02*
X0047448Y0131748D01*
X0048375Y0130550D02*
X0037071Y0130550D01*
X0037071Y0129351D02*
X0050487Y0129351D01*
X0049697Y0128153D02*
X0056094Y0128153D01*
X0056094Y0129351D02*
X0052546Y0129351D01*
X0051807Y0126954D02*
X0056094Y0126954D01*
X0056094Y0125756D02*
X0052763Y0125756D01*
X0053259Y0124557D02*
X0056094Y0124557D01*
X0056094Y0123359D02*
X0053315Y0123359D01*
X0053160Y0122161D02*
X0056094Y0122161D01*
X0056094Y0120962D02*
X0052664Y0120962D01*
X0051569Y0119764D02*
X0056094Y0119764D01*
X0056094Y0118565D02*
X0045921Y0118565D01*
X0045876Y0117367D02*
X0049535Y0117367D01*
X0049671Y0117436D02*
X0049058Y0117124D01*
X0048502Y0116719D01*
X0048015Y0116233D01*
X0047611Y0115676D01*
X0047298Y0115063D01*
X0047085Y0114409D01*
X0046978Y0113729D01*
X0046978Y0113671D01*
X0051061Y0113671D01*
X0051061Y0113098D01*
X0046978Y0113098D01*
X0046978Y0113041D01*
X0047085Y0112361D01*
X0047298Y0111707D01*
X0047611Y0111094D01*
X0048015Y0110537D01*
X0048502Y0110050D01*
X0049058Y0109646D01*
X0049671Y0109333D01*
X0050326Y0109121D01*
X0051005Y0109013D01*
X0051063Y0109013D01*
X0051063Y0113096D01*
X0051635Y0113096D01*
X0051635Y0109013D01*
X0051694Y0109013D01*
X0052373Y0109121D01*
X0053028Y0109333D01*
X0053641Y0109646D01*
X0054197Y0110050D01*
X0054684Y0110537D01*
X0055088Y0111094D01*
X0055401Y0111707D01*
X0055613Y0112361D01*
X0055721Y0113041D01*
X0055721Y0113098D01*
X0051638Y0113098D01*
X0051638Y0113671D01*
X0055721Y0113671D01*
X0055721Y0113729D01*
X0055613Y0114409D01*
X0055401Y0115063D01*
X0055088Y0115676D01*
X0054684Y0116233D01*
X0054197Y0116719D01*
X0053641Y0117124D01*
X0053028Y0117436D01*
X0052373Y0117649D01*
X0051694Y0117756D01*
X0051635Y0117756D01*
X0051635Y0113673D01*
X0051063Y0113673D01*
X0051063Y0117756D01*
X0051005Y0117756D01*
X0050326Y0117649D01*
X0049671Y0117436D01*
X0051063Y0117367D02*
X0051635Y0117367D01*
X0051635Y0116169D02*
X0051063Y0116169D01*
X0051063Y0114970D02*
X0051635Y0114970D01*
X0051635Y0113772D02*
X0051063Y0113772D01*
X0051063Y0112573D02*
X0051635Y0112573D01*
X0051635Y0111375D02*
X0051063Y0111375D01*
X0051063Y0110176D02*
X0051635Y0110176D01*
X0052259Y0107956D02*
X0050440Y0107956D01*
X0048760Y0107260D01*
X0047474Y0105974D01*
X0046778Y0104294D01*
X0046778Y0102475D01*
X0047474Y0100795D01*
X0048760Y0099509D01*
X0050440Y0098813D01*
X0052259Y0098813D01*
X0053939Y0099509D01*
X0055225Y0100795D01*
X0055921Y0102475D01*
X0055921Y0104294D01*
X0055225Y0105974D01*
X0053939Y0107260D01*
X0052259Y0107956D01*
X0052686Y0107780D02*
X0056094Y0107780D01*
X0056094Y0108978D02*
X0045921Y0108978D01*
X0045921Y0107780D02*
X0050013Y0107780D01*
X0048081Y0106581D02*
X0045550Y0106581D01*
X0044812Y0105383D02*
X0047229Y0105383D01*
X0046778Y0104184D02*
X0043154Y0104184D01*
X0044824Y0111375D02*
X0047467Y0111375D01*
X0047052Y0112573D02*
X0043184Y0112573D01*
X0044400Y0114970D02*
X0047268Y0114970D01*
X0046985Y0113772D02*
X0040130Y0113772D01*
X0039516Y0112573D02*
X0039471Y0112573D01*
X0037072Y0114107D02*
X0037072Y0092218D01*
X0041450Y0087839D01*
X0041450Y0087283D01*
X0040483Y0092200D02*
X0043910Y0092200D01*
X0043942Y0093398D02*
X0039471Y0093398D01*
X0039471Y0094597D02*
X0044439Y0094597D01*
X0045361Y0095795D02*
X0039471Y0095795D01*
X0039471Y0096994D02*
X0047391Y0096994D01*
X0047680Y0100589D02*
X0039471Y0100589D01*
X0039471Y0099391D02*
X0049046Y0099391D01*
X0049935Y0096994D02*
X0056094Y0096994D01*
X0056094Y0098192D02*
X0039471Y0098192D01*
X0039471Y0101787D02*
X0047063Y0101787D01*
X0046778Y0102986D02*
X0039471Y0102986D01*
X0039471Y0104184D02*
X0039545Y0104184D01*
X0037072Y0114107D02*
X0041350Y0118385D01*
X0038660Y0122161D02*
X0037071Y0122161D01*
X0037071Y0123359D02*
X0043809Y0123359D01*
X0043865Y0124557D02*
X0037071Y0124557D01*
X0037071Y0125756D02*
X0044361Y0125756D01*
X0045317Y0126954D02*
X0037071Y0126954D01*
X0037071Y0128153D02*
X0047428Y0128153D01*
X0047178Y0135343D02*
X0044452Y0135343D01*
X0045498Y0136542D02*
X0047720Y0136542D01*
X0048919Y0137740D02*
X0045995Y0137740D01*
X0046088Y0138939D02*
X0056094Y0138939D01*
X0056094Y0140137D02*
X0053811Y0140137D01*
X0054114Y0137740D02*
X0056094Y0137740D01*
X0056094Y0136542D02*
X0055313Y0136542D01*
X0055856Y0135343D02*
X0056094Y0135343D01*
X0056088Y0134145D02*
X0056094Y0134145D01*
X0056081Y0132946D02*
X0056094Y0132946D01*
X0056094Y0131748D02*
X0055584Y0131748D01*
X0056094Y0130550D02*
X0054658Y0130550D01*
X0056094Y0117367D02*
X0053164Y0117367D01*
X0054731Y0116169D02*
X0056094Y0116169D01*
X0056094Y0114970D02*
X0055431Y0114970D01*
X0055714Y0113772D02*
X0056094Y0113772D01*
X0056094Y0112573D02*
X0055647Y0112573D01*
X0055231Y0111375D02*
X0056094Y0111375D01*
X0056094Y0110176D02*
X0054323Y0110176D01*
X0054618Y0106581D02*
X0056094Y0106581D01*
X0056094Y0105383D02*
X0055470Y0105383D01*
X0055921Y0104184D02*
X0056094Y0104184D01*
X0056094Y0102986D02*
X0055921Y0102986D01*
X0056094Y0101787D02*
X0055636Y0101787D01*
X0056094Y0100589D02*
X0055019Y0100589D01*
X0056094Y0099391D02*
X0053652Y0099391D01*
X0052887Y0094597D02*
X0056094Y0094597D01*
X0056094Y0095795D02*
X0051965Y0095795D01*
X0053237Y0091002D02*
X0056094Y0091002D01*
X0056094Y0092200D02*
X0053415Y0092200D01*
X0053384Y0093398D02*
X0056094Y0093398D01*
X0056094Y0089803D02*
X0052741Y0089803D01*
X0051613Y0088605D02*
X0056094Y0088605D01*
X0056094Y0087406D02*
X0046022Y0087406D01*
X0045953Y0086208D02*
X0049525Y0086208D01*
X0049772Y0086334D02*
X0049159Y0086021D01*
X0048602Y0085617D01*
X0048116Y0085130D01*
X0047711Y0084574D01*
X0047399Y0083961D01*
X0047186Y0083306D01*
X0047079Y0082627D01*
X0047079Y0082569D01*
X0051162Y0082569D01*
X0051162Y0081996D01*
X0047079Y0081996D01*
X0047079Y0081938D01*
X0047186Y0081259D01*
X0047399Y0080604D01*
X0047711Y0079991D01*
X0048116Y0079435D01*
X0048602Y0078948D01*
X0049159Y0078544D01*
X0049772Y0078231D01*
X0050426Y0078019D01*
X0051106Y0077911D01*
X0051164Y0077911D01*
X0051164Y0081994D01*
X0051736Y0081994D01*
X0051736Y0077911D01*
X0051794Y0077911D01*
X0052474Y0078019D01*
X0053128Y0078231D01*
X0053741Y0078544D01*
X0054298Y0078948D01*
X0054785Y0079435D01*
X0055189Y0079991D01*
X0055502Y0080604D01*
X0055714Y0081259D01*
X0055822Y0081938D01*
X0055822Y0081996D01*
X0051739Y0081996D01*
X0051739Y0082569D01*
X0055822Y0082569D01*
X0055822Y0082627D01*
X0055714Y0083306D01*
X0055502Y0083961D01*
X0055189Y0084574D01*
X0054785Y0085130D01*
X0054298Y0085617D01*
X0053741Y0086021D01*
X0053128Y0086334D01*
X0052474Y0086546D01*
X0051794Y0086654D01*
X0051736Y0086654D01*
X0051736Y0082571D01*
X0051164Y0082571D01*
X0051164Y0086654D01*
X0051106Y0086654D01*
X0050426Y0086546D01*
X0049772Y0086334D01*
X0051164Y0086208D02*
X0051736Y0086208D01*
X0051736Y0085009D02*
X0051164Y0085009D01*
X0051164Y0083811D02*
X0051736Y0083811D01*
X0051736Y0082613D02*
X0051164Y0082613D01*
X0051164Y0081414D02*
X0051736Y0081414D01*
X0051736Y0080216D02*
X0051164Y0080216D01*
X0051164Y0079017D02*
X0051736Y0079017D01*
X0052360Y0076854D02*
X0050541Y0076854D01*
X0048861Y0076158D01*
X0047575Y0074872D01*
X0046879Y0073192D01*
X0046879Y0071373D01*
X0047575Y0069693D01*
X0048861Y0068407D01*
X0050541Y0067711D01*
X0052360Y0067711D01*
X0054040Y0068407D01*
X0055326Y0069693D01*
X0056022Y0071373D01*
X0056022Y0073192D01*
X0055326Y0074872D01*
X0054040Y0076158D01*
X0052360Y0076854D01*
X0052924Y0076620D02*
X0056094Y0076620D01*
X0056094Y0075422D02*
X0054776Y0075422D01*
X0055594Y0074224D02*
X0056094Y0074224D01*
X0056094Y0073025D02*
X0056022Y0073025D01*
X0056022Y0071827D02*
X0056094Y0071827D01*
X0056094Y0070628D02*
X0055713Y0070628D01*
X0056094Y0069430D02*
X0055063Y0069430D01*
X0056094Y0068231D02*
X0053616Y0068231D01*
X0052343Y0064636D02*
X0056094Y0064636D01*
X0056094Y0063438D02*
X0053002Y0063438D01*
X0053343Y0062239D02*
X0056094Y0062239D01*
X0056094Y0061041D02*
X0053343Y0061041D01*
X0052978Y0059843D02*
X0056094Y0059843D01*
X0056094Y0058644D02*
X0052288Y0058644D01*
X0051722Y0055945D02*
X0051664Y0055945D01*
X0051664Y0051862D01*
X0051091Y0051862D01*
X0051091Y0055945D01*
X0051033Y0055945D01*
X0050354Y0055838D01*
X0049700Y0055625D01*
X0049087Y0055313D01*
X0048530Y0054908D01*
X0048043Y0054422D01*
X0047639Y0053865D01*
X0047326Y0053252D01*
X0047114Y0052598D01*
X0047006Y0051918D01*
X0047006Y0051860D01*
X0051089Y0051860D01*
X0051089Y0051287D01*
X0047006Y0051287D01*
X0047006Y0051230D01*
X0047114Y0050550D01*
X0047326Y0049896D01*
X0047639Y0049283D01*
X0048043Y0048726D01*
X0048530Y0048239D01*
X0049087Y0047835D01*
X0049700Y0047522D01*
X0050354Y0047310D01*
X0051033Y0047202D01*
X0051091Y0047202D01*
X0051091Y0051285D01*
X0051664Y0051285D01*
X0051664Y0047202D01*
X0051722Y0047202D01*
X0052402Y0047310D01*
X0053056Y0047522D01*
X0053669Y0047835D01*
X0054226Y0048239D01*
X0054712Y0048726D01*
X0055117Y0049283D01*
X0055429Y0049896D01*
X0055642Y0050550D01*
X0055749Y0051230D01*
X0055749Y0051287D01*
X0051666Y0051287D01*
X0051666Y0051860D01*
X0055749Y0051860D01*
X0055749Y0051918D01*
X0055642Y0052598D01*
X0055429Y0053252D01*
X0055117Y0053865D01*
X0054712Y0054422D01*
X0054226Y0054908D01*
X0053669Y0055313D01*
X0053056Y0055625D01*
X0052402Y0055838D01*
X0051722Y0055945D01*
X0051664Y0055049D02*
X0051091Y0055049D01*
X0051091Y0053850D02*
X0051664Y0053850D01*
X0051664Y0052652D02*
X0051091Y0052652D01*
X0051089Y0051454D02*
X0039651Y0051454D01*
X0037072Y0052268D02*
X0041378Y0056574D01*
X0040217Y0061041D02*
X0037071Y0061041D01*
X0037071Y0062239D02*
X0043838Y0062239D01*
X0043838Y0061041D02*
X0042539Y0061041D01*
X0044180Y0063438D02*
X0037071Y0063438D01*
X0037071Y0064636D02*
X0044838Y0064636D01*
X0046232Y0065835D02*
X0037071Y0065835D01*
X0037071Y0067033D02*
X0056094Y0067033D01*
X0056094Y0065835D02*
X0050949Y0065835D01*
X0049284Y0068231D02*
X0037071Y0068231D01*
X0037071Y0069430D02*
X0047838Y0069430D01*
X0047187Y0070628D02*
X0037071Y0070628D01*
X0037071Y0071827D02*
X0046879Y0071827D01*
X0046879Y0073025D02*
X0043118Y0073025D01*
X0044856Y0074224D02*
X0047306Y0074224D01*
X0048125Y0075422D02*
X0045628Y0075422D01*
X0046022Y0076620D02*
X0049977Y0076620D01*
X0048533Y0079017D02*
X0045680Y0079017D01*
X0046022Y0077819D02*
X0056094Y0077819D01*
X0056094Y0079017D02*
X0054367Y0079017D01*
X0055303Y0080216D02*
X0056094Y0080216D01*
X0056094Y0081414D02*
X0055739Y0081414D01*
X0055822Y0082613D02*
X0056094Y0082613D01*
X0056094Y0083811D02*
X0055550Y0083811D01*
X0056094Y0085009D02*
X0054872Y0085009D01*
X0056094Y0086208D02*
X0053376Y0086208D01*
X0048028Y0085009D02*
X0045457Y0085009D01*
X0044444Y0083811D02*
X0047350Y0083811D01*
X0047079Y0082613D02*
X0037071Y0082613D01*
X0037071Y0083811D02*
X0038457Y0083811D01*
X0037444Y0085009D02*
X0037071Y0085009D01*
X0037071Y0081414D02*
X0039480Y0081414D01*
X0037919Y0080216D02*
X0037071Y0080216D01*
X0037071Y0079017D02*
X0037221Y0079017D01*
X0037273Y0075422D02*
X0037071Y0075422D01*
X0037071Y0074224D02*
X0038044Y0074224D01*
X0037071Y0073025D02*
X0039782Y0073025D01*
X0043421Y0081414D02*
X0047161Y0081414D01*
X0047597Y0080216D02*
X0044982Y0080216D01*
X0038181Y0059843D02*
X0037071Y0059843D01*
X0037071Y0058644D02*
X0037287Y0058644D01*
X0037072Y0052268D02*
X0037072Y0029318D01*
X0041479Y0024911D01*
X0041479Y0024291D01*
X0042819Y0028683D02*
X0043939Y0028683D01*
X0043939Y0029882D02*
X0039902Y0029882D01*
X0039471Y0031080D02*
X0044250Y0031080D01*
X0044865Y0032279D02*
X0039471Y0032279D01*
X0039471Y0033477D02*
X0046154Y0033477D01*
X0048788Y0037698D02*
X0047502Y0038984D01*
X0046806Y0040664D01*
X0046806Y0042483D01*
X0047502Y0044163D01*
X0048788Y0045449D01*
X0050468Y0046145D01*
X0052287Y0046145D01*
X0053967Y0045449D01*
X0055253Y0044163D01*
X0055949Y0042483D01*
X0055949Y0040664D01*
X0055253Y0038984D01*
X0053967Y0037698D01*
X0052287Y0037002D01*
X0050468Y0037002D01*
X0048788Y0037698D01*
X0048216Y0038271D02*
X0039471Y0038271D01*
X0039471Y0039469D02*
X0047301Y0039469D01*
X0046806Y0040668D02*
X0039471Y0040668D01*
X0039471Y0041866D02*
X0046806Y0041866D01*
X0047047Y0043065D02*
X0044333Y0043065D01*
X0045369Y0044263D02*
X0047602Y0044263D01*
X0048818Y0045461D02*
X0045865Y0045461D01*
X0045949Y0046660D02*
X0056094Y0046660D01*
X0056094Y0045461D02*
X0053938Y0045461D01*
X0053701Y0047858D02*
X0056094Y0047858D01*
X0056094Y0049057D02*
X0054952Y0049057D01*
X0055546Y0050255D02*
X0056094Y0050255D01*
X0056094Y0051454D02*
X0051666Y0051454D01*
X0051664Y0050255D02*
X0051091Y0050255D01*
X0051091Y0049057D02*
X0051664Y0049057D01*
X0051664Y0047858D02*
X0051091Y0047858D01*
X0049054Y0047858D02*
X0045794Y0047858D01*
X0045298Y0049057D02*
X0047803Y0049057D01*
X0047209Y0050255D02*
X0044161Y0050255D01*
X0043855Y0052652D02*
X0047131Y0052652D01*
X0047632Y0053850D02*
X0045119Y0053850D01*
X0045694Y0055049D02*
X0048724Y0055049D01*
X0050817Y0057446D02*
X0056094Y0057446D01*
X0056094Y0056247D02*
X0045949Y0056247D01*
X0045949Y0057446D02*
X0046363Y0057446D01*
X0050299Y0037072D02*
X0039471Y0037072D01*
X0039471Y0035874D02*
X0056094Y0035874D01*
X0056094Y0037072D02*
X0052456Y0037072D01*
X0051229Y0033477D02*
X0056094Y0033477D01*
X0056094Y0032279D02*
X0052518Y0032279D01*
X0053133Y0031080D02*
X0056094Y0031080D01*
X0056094Y0029882D02*
X0053444Y0029882D01*
X0053444Y0028683D02*
X0056094Y0028683D01*
X0056094Y0027485D02*
X0053048Y0027485D01*
X0052315Y0026287D02*
X0056094Y0026287D01*
X0056094Y0025088D02*
X0050739Y0025088D01*
X0051134Y0023662D02*
X0050455Y0023554D01*
X0049800Y0023342D01*
X0049187Y0023029D01*
X0048631Y0022625D01*
X0048144Y0022138D01*
X0047740Y0021581D01*
X0047427Y0020969D01*
X0047215Y0020314D01*
X0047107Y0019635D01*
X0047107Y0019576D01*
X0051190Y0019576D01*
X0051190Y0019004D01*
X0047107Y0019004D01*
X0047107Y0018946D01*
X0047215Y0018267D01*
X0047427Y0017612D01*
X0047740Y0016999D01*
X0048144Y0016443D01*
X0048631Y0015956D01*
X0049187Y0015552D01*
X0049800Y0015239D01*
X0050455Y0015026D01*
X0051134Y0014919D01*
X0051192Y0014919D01*
X0051192Y0019002D01*
X0051765Y0019002D01*
X0051765Y0014919D01*
X0051823Y0014919D01*
X0052502Y0015026D01*
X0053157Y0015239D01*
X0053770Y0015552D01*
X0054326Y0015956D01*
X0054813Y0016443D01*
X0055217Y0016999D01*
X0055530Y0017612D01*
X0055743Y0018267D01*
X0055850Y0018946D01*
X0055850Y0019004D01*
X0051767Y0019004D01*
X0051767Y0019576D01*
X0055850Y0019576D01*
X0055850Y0019635D01*
X0055743Y0020314D01*
X0055530Y0020969D01*
X0055217Y0021581D01*
X0054813Y0022138D01*
X0054326Y0022625D01*
X0053770Y0023029D01*
X0053157Y0023342D01*
X0052502Y0023554D01*
X0051823Y0023662D01*
X0051765Y0023662D01*
X0051765Y0019579D01*
X0051192Y0019579D01*
X0051192Y0023662D01*
X0051134Y0023662D01*
X0051192Y0022691D02*
X0051765Y0022691D01*
X0051765Y0021493D02*
X0051192Y0021493D01*
X0051192Y0020294D02*
X0051765Y0020294D01*
X0051767Y0019096D02*
X0056094Y0019096D01*
X0056094Y0017898D02*
X0055622Y0017898D01*
X0056094Y0016699D02*
X0054999Y0016699D01*
X0056094Y0015501D02*
X0053670Y0015501D01*
X0052388Y0013862D02*
X0054068Y0013166D01*
X0055354Y0011880D01*
X0056050Y0010200D01*
X0056050Y0008381D01*
X0055354Y0006701D01*
X0054068Y0005415D01*
X0052388Y0004719D01*
X0050569Y0004719D01*
X0048889Y0005415D01*
X0047603Y0006701D01*
X0046907Y0008381D01*
X0046907Y0010200D01*
X0047603Y0011880D01*
X0048889Y0013166D01*
X0050569Y0013862D01*
X0052388Y0013862D01*
X0051765Y0015501D02*
X0051192Y0015501D01*
X0051192Y0016699D02*
X0051765Y0016699D01*
X0051765Y0017898D02*
X0051192Y0017898D01*
X0051190Y0019096D02*
X0037071Y0019096D01*
X0037071Y0017898D02*
X0038621Y0017898D01*
X0037528Y0016699D02*
X0037071Y0016699D01*
X0037071Y0020294D02*
X0039180Y0020294D01*
X0037811Y0021493D02*
X0037071Y0021493D01*
X0037071Y0022691D02*
X0037193Y0022691D01*
X0037071Y0011906D02*
X0037518Y0011906D01*
X0037071Y0010707D02*
X0038597Y0010707D01*
X0037071Y0009509D02*
X0046907Y0009509D01*
X0046936Y0008310D02*
X0037071Y0008310D01*
X0037071Y0007112D02*
X0047433Y0007112D01*
X0048391Y0005913D02*
X0037071Y0005913D01*
X0037071Y0004715D02*
X0056094Y0004715D01*
X0056094Y0005913D02*
X0054567Y0005913D01*
X0055524Y0007112D02*
X0056094Y0007112D01*
X0056094Y0008310D02*
X0056020Y0008310D01*
X0056050Y0009509D02*
X0056094Y0009509D01*
X0056094Y0010707D02*
X0055840Y0010707D01*
X0056094Y0011906D02*
X0055328Y0011906D01*
X0056094Y0013104D02*
X0054130Y0013104D01*
X0056094Y0014302D02*
X0046050Y0014302D01*
X0045935Y0013104D02*
X0048827Y0013104D01*
X0049287Y0015501D02*
X0045926Y0015501D01*
X0045429Y0016699D02*
X0047957Y0016699D01*
X0047334Y0017898D02*
X0044336Y0017898D01*
X0043777Y0020294D02*
X0047212Y0020294D01*
X0047695Y0021493D02*
X0045146Y0021493D01*
X0045764Y0022691D02*
X0048722Y0022691D01*
X0046643Y0025088D02*
X0046050Y0025088D01*
X0046050Y0023890D02*
X0056094Y0023890D01*
X0056094Y0022691D02*
X0054235Y0022691D01*
X0055263Y0021493D02*
X0056094Y0021493D01*
X0056094Y0020294D02*
X0055746Y0020294D01*
X0056094Y0034676D02*
X0039471Y0034676D01*
X0045439Y0011906D02*
X0047629Y0011906D01*
X0047117Y0010707D02*
X0044360Y0010707D01*
X0054540Y0038271D02*
X0056094Y0038271D01*
X0056094Y0039469D02*
X0055454Y0039469D01*
X0055949Y0040668D02*
X0056094Y0040668D01*
X0056094Y0041866D02*
X0055949Y0041866D01*
X0056094Y0043065D02*
X0055709Y0043065D01*
X0056094Y0044263D02*
X0055154Y0044263D01*
X0055624Y0052652D02*
X0056094Y0052652D01*
X0056094Y0053850D02*
X0055124Y0053850D01*
X0056094Y0055049D02*
X0054032Y0055049D01*
X0048376Y0110176D02*
X0045556Y0110176D01*
X0045379Y0116169D02*
X0047969Y0116169D01*
X0039088Y0144931D02*
X0037071Y0144931D01*
X0037071Y0146129D02*
X0037795Y0146129D01*
X0037209Y0147328D02*
X0037071Y0147328D01*
X0037071Y0120962D02*
X0037469Y0120962D01*
X0050906Y0149724D02*
X0056094Y0149724D01*
X0056094Y0150923D02*
X0052406Y0150923D01*
X0053109Y0152121D02*
X0056094Y0152121D01*
X0056094Y0153320D02*
X0053481Y0153320D01*
X0053481Y0154518D02*
X0056094Y0154518D01*
X0052631Y0169893D02*
X0053286Y0170105D01*
X0053899Y0170418D01*
X0054456Y0170822D01*
X0054942Y0171309D01*
X0055346Y0171865D01*
X0055659Y0172478D01*
X0055872Y0173133D01*
X0055979Y0173812D01*
X0055979Y0173870D01*
X0051896Y0173870D01*
X0051896Y0174443D01*
X0055979Y0174443D01*
X0055979Y0174501D01*
X0055872Y0175180D01*
X0055659Y0175835D01*
X0055346Y0176448D01*
X0054942Y0177004D01*
X0054456Y0177491D01*
X0053899Y0177895D01*
X0053286Y0178208D01*
X0052631Y0178420D01*
X0051952Y0178528D01*
X0051894Y0178528D01*
X0051894Y0174445D01*
X0051321Y0174445D01*
X0051321Y0178528D01*
X0051263Y0178528D01*
X0050584Y0178420D01*
X0049930Y0178208D01*
X0049317Y0177895D01*
X0048760Y0177491D01*
X0048273Y0177004D01*
X0047869Y0176448D01*
X0047556Y0175835D01*
X0047344Y0175180D01*
X0047236Y0174501D01*
X0047236Y0174443D01*
X0051319Y0174443D01*
X0051319Y0173870D01*
X0047236Y0173870D01*
X0047236Y0173812D01*
X0047344Y0173133D01*
X0047556Y0172478D01*
X0047869Y0171865D01*
X0048273Y0171309D01*
X0048760Y0170822D01*
X0049317Y0170418D01*
X0049930Y0170105D01*
X0050584Y0169893D01*
X0051263Y0169785D01*
X0051321Y0169785D01*
X0051321Y0173868D01*
X0051894Y0173868D01*
X0051894Y0169785D01*
X0051952Y0169785D01*
X0052631Y0169893D01*
X0053263Y0170098D02*
X0056094Y0170098D01*
X0056094Y0171296D02*
X0054930Y0171296D01*
X0055664Y0172494D02*
X0056094Y0172494D01*
X0056094Y0173693D02*
X0055960Y0173693D01*
X0055918Y0174891D02*
X0056094Y0174891D01*
X0056094Y0176090D02*
X0055529Y0176090D01*
X0056094Y0177288D02*
X0054658Y0177288D01*
X0056094Y0178487D02*
X0052213Y0178487D01*
X0051894Y0178487D02*
X0051321Y0178487D01*
X0051002Y0178487D02*
X0046179Y0178487D01*
X0046179Y0179685D02*
X0047422Y0179685D01*
X0048557Y0177288D02*
X0045782Y0177288D01*
X0045006Y0176090D02*
X0047687Y0176090D01*
X0047298Y0174891D02*
X0043722Y0174891D01*
X0044735Y0172494D02*
X0047551Y0172494D01*
X0047255Y0173693D02*
X0042602Y0173693D01*
X0043597Y0183280D02*
X0044078Y0183280D01*
X0045670Y0171296D02*
X0048286Y0171296D01*
X0049952Y0170098D02*
X0046166Y0170098D01*
X0050218Y0179685D02*
X0056094Y0179685D01*
X0056094Y0180883D02*
X0052175Y0180883D01*
X0053066Y0182082D02*
X0056094Y0182082D01*
X0056094Y0183280D02*
X0053563Y0183280D01*
X0053573Y0184479D02*
X0056094Y0184479D01*
X0056094Y0185677D02*
X0053374Y0185677D01*
X0052877Y0186876D02*
X0056094Y0186876D01*
X0056094Y0188074D02*
X0051718Y0188074D01*
X0051894Y0177288D02*
X0051321Y0177288D01*
X0051321Y0176090D02*
X0051894Y0176090D01*
X0051894Y0174891D02*
X0051321Y0174891D01*
X0051321Y0173693D02*
X0051894Y0173693D01*
X0051894Y0172494D02*
X0051321Y0172494D01*
X0051321Y0171296D02*
X0051894Y0171296D01*
X0051894Y0170098D02*
X0051321Y0170098D01*
X0055898Y0202455D02*
X0056094Y0202455D01*
X0056094Y0203654D02*
X0055142Y0203654D01*
X0056094Y0204852D02*
X0053628Y0204852D01*
X0053814Y0207249D02*
X0056094Y0207249D01*
X0056094Y0206050D02*
X0037071Y0206050D01*
X0037071Y0204852D02*
X0039476Y0204852D01*
X0038800Y0207249D02*
X0037071Y0207249D01*
X0037071Y0208447D02*
X0037803Y0208447D01*
X0037342Y0209646D02*
X0037071Y0209646D01*
X0037071Y0210844D02*
X0037342Y0210844D01*
X0037071Y0212043D02*
X0037717Y0212043D01*
X0037755Y0203654D02*
X0037071Y0203654D01*
X0037071Y0197661D02*
X0037267Y0197661D01*
X0044811Y0208447D02*
X0047803Y0208447D01*
X0047342Y0209646D02*
X0045272Y0209646D01*
X0045272Y0210844D02*
X0047342Y0210844D01*
X0047717Y0212043D02*
X0044898Y0212043D01*
X0054898Y0212043D02*
X0056094Y0212043D01*
X0056094Y0210844D02*
X0055272Y0210844D01*
X0055272Y0209646D02*
X0056094Y0209646D01*
X0056094Y0208447D02*
X0054811Y0208447D01*
D15*
X0041608Y0179157D02*
X0041608Y0176454D01*
X0037072Y0171918D01*
X0037072Y0152818D01*
X0041517Y0148873D01*
M02*
