G75*
G70*
%OFA0B0*%
%FSLAX24Y24*%
%IPPOS*%
%LPD*%
%AMOC8*
5,1,8,0,0,1.08239X$1,22.5*
%
%ADD10C,0.0780*%
%ADD11R,0.0740X0.0740*%
%ADD12C,0.0730*%
%ADD13C,0.1504*%
D10*
X003558Y005721D03*
X004558Y005721D03*
X005558Y005721D03*
X006558Y005721D03*
X007558Y005721D03*
X008558Y005721D03*
X009558Y005721D03*
X010558Y005721D03*
X011558Y005721D03*
X012558Y005721D03*
X013558Y005721D03*
X014558Y005721D03*
X015558Y005721D03*
X016558Y005721D03*
X017558Y005721D03*
X018558Y005721D03*
X019558Y005721D03*
X020558Y005721D03*
X021558Y005721D03*
X022558Y005721D03*
X023558Y005721D03*
X023558Y006921D03*
X022558Y006921D03*
X021558Y006921D03*
X020558Y006921D03*
X019558Y006921D03*
X018558Y006921D03*
X017558Y006921D03*
X016558Y006921D03*
X015558Y006921D03*
X014558Y006921D03*
X013558Y006921D03*
X012558Y006921D03*
X011558Y006921D03*
X010558Y006921D03*
X009558Y006921D03*
X008558Y006921D03*
X013708Y009671D03*
X014708Y009671D03*
X015708Y009671D03*
X016708Y009671D03*
X017708Y009671D03*
X018708Y009671D03*
X019708Y009671D03*
X019708Y010671D03*
X020708Y010671D03*
X018708Y010671D03*
X017708Y010671D03*
X016708Y010671D03*
X015708Y010671D03*
X014708Y010671D03*
X013708Y010671D03*
D11*
X020708Y009671D03*
D12*
X007142Y007318D03*
X006158Y007318D03*
X005174Y007318D03*
X005174Y013027D03*
X007142Y013027D03*
D13*
X008402Y010271D03*
X003914Y010271D03*
M02*
