%
M48
M72
T01C0.0157
T02C0.0394
T03C0.0433
T04C0.1024
%
T01
X10006Y7871
X5156Y8471
X3756Y10971
X7656Y12071
X7856Y11271
T02
X2506Y5721
X3506Y5721
X4506Y5721
X5506Y5721
X6506Y5721
X7506Y5721
X8506Y5721
X9506Y5721
X10506Y5721
X11506Y5721
X12506Y5721
X13506Y5721
X14506Y5721
X15506Y5721
X16506Y5721
X17506Y5721
X18506Y5721
X19506Y5721
X20506Y5721
X21506Y5721
X22506Y5721
X17506Y6921
X16506Y6921
X15506Y6921
X14506Y6921
X13506Y6921
X12506Y6921
X11506Y6921
X10506Y6921
X9506Y6921
X8506Y6921
X7506Y6921
X6506Y6921
X5506Y6921
X4506Y6921
X3506Y6921
X2506Y6921
X5356Y9671
X6356Y9671
X7356Y9671
X8356Y9671
X9356Y9671
X10356Y9671
X11356Y9671
X12356Y9671
X12356Y10671
X11356Y10671
X10356Y10671
X9356Y10671
X8356Y10671
X7356Y10671
X6356Y10671
X5356Y10671
T03
X18921Y13027
X20890Y13027
X20890Y7318
X19906Y7318
X18921Y7318
T04
X17662Y10271
X22150Y10271
M30
