G75*
G70*
%OFA0B0*%
%FSLAX24Y24*%
%IPPOS*%
%LPD*%
%AMOC8*
5,1,8,0,0,1.08239X$1,22.5*
%
%ADD10C,0.0100*%
%ADD11C,0.0300*%
%ADD12C,0.0571*%
%ADD13R,0.0571X0.0571*%
%ADD14R,0.0512X0.0472*%
%ADD15C,0.0712*%
%ADD16C,0.0160*%
%ADD17R,0.0712X0.0712*%
%ADD18R,0.0472X0.0512*%
%ADD19C,0.0665*%
%ADD20C,0.0000*%
%ADD21C,0.0472*%
%ADD22C,0.0660*%
%ADD23C,0.0792*%
%ADD24R,0.0792X0.0792*%
%ADD25C,0.1200*%
%ADD26C,0.2039*%
%ADD27O,0.1232X0.0672*%
%ADD28C,0.0840*%
%ADD29C,0.0425*%
%ADD30O,0.0720X0.1320*%
%ADD31C,0.0475*%
%ADD32C,0.0480*%
%ADD33C,0.0528*%
D10*
X016948Y005417D02*
X016948Y016709D01*
X029871Y016709D01*
X029871Y005417D01*
X016948Y005417D01*
X016948Y017147D02*
X016948Y028439D01*
X029871Y028439D01*
X029871Y017147D01*
X016948Y017147D01*
X016948Y028757D02*
X016948Y041649D01*
X029871Y041649D01*
X029871Y028757D01*
X016948Y028757D01*
X016948Y041917D02*
X029871Y041917D01*
X029871Y063609D01*
X016948Y063609D01*
X016948Y041917D01*
X030081Y032142D02*
X030081Y063612D01*
X043043Y063612D01*
X043053Y032142D01*
X030081Y032142D01*
X030181Y031902D02*
X043073Y031902D01*
X043063Y009982D01*
X030171Y009982D01*
X030181Y031902D01*
X043251Y032142D02*
X043251Y063612D01*
X056213Y063612D01*
X056213Y032142D01*
X043251Y032142D01*
X043281Y031902D02*
X056163Y031902D01*
X056163Y009982D01*
X043271Y009982D01*
X043281Y031902D01*
X042305Y008887D02*
X031145Y008887D01*
X031145Y001407D01*
X042305Y001407D01*
X042305Y008887D01*
X043268Y008679D02*
X056201Y008679D01*
X056201Y002152D01*
X043268Y002152D01*
X043268Y008679D01*
D11*
X013185Y050897D02*
X013185Y052098D01*
X013786Y052098D01*
X013986Y051897D01*
X013986Y051497D01*
X013786Y051297D01*
X013185Y051297D01*
X012605Y051497D02*
X012605Y051897D01*
X012404Y052098D01*
X012004Y052098D01*
X011804Y051897D01*
X011804Y051497D01*
X012004Y051297D01*
X012404Y051297D01*
X012605Y051497D01*
X011284Y051297D02*
X011083Y051497D01*
X011083Y052298D01*
X010883Y052098D02*
X011284Y052098D01*
X010303Y052098D02*
X009702Y052098D01*
X009502Y051897D01*
X009702Y051697D01*
X010103Y051697D01*
X010303Y051497D01*
X010103Y051297D01*
X009502Y051297D01*
X008922Y051097D02*
X008121Y051097D01*
X007540Y051297D02*
X007540Y051897D01*
X007340Y052098D01*
X007140Y051897D01*
X007140Y051297D01*
X006740Y051297D02*
X006740Y052098D01*
X006940Y052098D01*
X007140Y051897D01*
X006159Y051897D02*
X006159Y051497D01*
X005959Y051297D01*
X005559Y051297D01*
X005359Y051497D01*
X005359Y051897D01*
X005559Y052098D01*
X005959Y052098D01*
X006159Y051897D01*
X004838Y052098D02*
X004438Y052098D01*
X004638Y052298D02*
X004638Y051497D01*
X004838Y051297D01*
X003917Y051297D02*
X003717Y051497D01*
X003717Y052298D01*
X003517Y052098D02*
X003917Y052098D01*
X002937Y051897D02*
X002937Y051497D01*
X002736Y051297D01*
X002336Y051297D01*
X002136Y051497D01*
X002136Y051897D01*
X002336Y052098D01*
X002736Y052098D01*
X002937Y051897D01*
X001556Y051897D02*
X001556Y051497D01*
X001355Y051297D01*
X000755Y051297D01*
X000755Y052498D01*
X000755Y052098D02*
X001355Y052098D01*
X001556Y051897D01*
D12*
X017955Y036737D03*
X018455Y037237D03*
X018955Y036737D03*
X019455Y037237D03*
X019955Y036737D03*
X019600Y024061D03*
X019100Y023561D03*
X018600Y024061D03*
X018100Y023561D03*
X020100Y023561D03*
X019600Y012331D03*
X019100Y011831D03*
X018600Y012331D03*
X018100Y011831D03*
X020100Y011831D03*
X019700Y057431D03*
X019200Y057931D03*
X018700Y057431D03*
X020200Y057931D03*
X020700Y057431D03*
D13*
X021200Y057931D03*
X020455Y037237D03*
X020600Y024061D03*
X020600Y012331D03*
D14*
X028472Y012071D03*
X029142Y012071D03*
X029142Y023801D03*
X028472Y023801D03*
X028472Y036971D03*
X029142Y036971D03*
X028992Y058871D03*
X028322Y058871D03*
X054802Y003651D03*
X055472Y003651D03*
D15*
X028655Y006197D03*
X027655Y006197D03*
X026655Y006197D03*
X025655Y006197D03*
X024655Y006197D03*
X023655Y006197D03*
X022655Y006197D03*
X021655Y006197D03*
X020655Y006197D03*
X019655Y006197D03*
X018655Y006197D03*
X017655Y006197D03*
X024655Y008397D03*
X024655Y009397D03*
X025655Y009397D03*
X026655Y009397D03*
X025655Y008397D03*
X025655Y017927D03*
X026655Y017927D03*
X027655Y017927D03*
X028655Y017927D03*
X025655Y020127D03*
X025655Y021127D03*
X026655Y021127D03*
X024655Y021127D03*
X024655Y020127D03*
X024655Y017927D03*
X023655Y017927D03*
X022655Y017927D03*
X021655Y017927D03*
X020655Y017927D03*
X019655Y017927D03*
X018655Y017927D03*
X017655Y017927D03*
X030805Y032827D03*
X030805Y033827D03*
X030805Y034827D03*
X030805Y035827D03*
X030805Y036827D03*
X030805Y037827D03*
X030805Y038827D03*
X030805Y039827D03*
X030805Y040827D03*
X030805Y041827D03*
X028955Y042597D03*
X028955Y043597D03*
X028955Y044597D03*
X028955Y045597D03*
X028955Y046597D03*
X028955Y047597D03*
X028955Y048597D03*
X028955Y049597D03*
X028955Y050597D03*
X028955Y051597D03*
X027955Y051597D03*
X027955Y050597D03*
X026955Y050597D03*
X026955Y051597D03*
X025955Y051597D03*
X025955Y050597D03*
X024955Y050597D03*
X024955Y051597D03*
X023955Y051597D03*
X023955Y050597D03*
X022955Y050597D03*
X022955Y051597D03*
X021955Y051597D03*
X021955Y050597D03*
X020955Y050597D03*
X020955Y051597D03*
X019955Y051597D03*
X019955Y050597D03*
X018955Y050597D03*
X018955Y051597D03*
X017955Y051597D03*
X017955Y050597D03*
X017955Y049597D03*
X017955Y048597D03*
X018955Y048597D03*
X019955Y048597D03*
X019955Y049597D03*
X018955Y049597D03*
X020955Y049597D03*
X021955Y049597D03*
X021955Y048597D03*
X020955Y048597D03*
X020955Y047597D03*
X021955Y047597D03*
X021955Y046597D03*
X020955Y046597D03*
X020955Y045597D03*
X021955Y045597D03*
X021955Y044597D03*
X020955Y044597D03*
X020955Y043597D03*
X021955Y043597D03*
X021955Y042597D03*
X020955Y042597D03*
X019955Y042597D03*
X019955Y043597D03*
X018955Y043597D03*
X018955Y042597D03*
X017955Y042597D03*
X017955Y043597D03*
X017955Y044597D03*
X017955Y045597D03*
X018955Y045597D03*
X019955Y045597D03*
X019955Y044597D03*
X018955Y044597D03*
X018955Y046597D03*
X019955Y046597D03*
X019955Y047597D03*
X018955Y047597D03*
X017955Y047597D03*
X017955Y046597D03*
X022955Y046597D03*
X023955Y046597D03*
X023955Y047597D03*
X022955Y047597D03*
X022955Y048597D03*
X023955Y048597D03*
X023955Y049597D03*
X022955Y049597D03*
X024955Y049597D03*
X025955Y049597D03*
X025955Y048597D03*
X024955Y048597D03*
X024955Y047597D03*
X025955Y047597D03*
X025955Y046597D03*
X024955Y046597D03*
X024955Y045597D03*
X025955Y045597D03*
X025955Y044597D03*
X024955Y044597D03*
X024955Y043597D03*
X025955Y043597D03*
X025955Y042597D03*
X024955Y042597D03*
X023955Y042597D03*
X023955Y043597D03*
X022955Y043597D03*
X022955Y042597D03*
X022955Y044597D03*
X023955Y044597D03*
X023955Y045597D03*
X022955Y045597D03*
X026955Y045597D03*
X027955Y045597D03*
X027955Y044597D03*
X026955Y044597D03*
X026955Y043597D03*
X027955Y043597D03*
X027955Y042597D03*
X026955Y042597D03*
X026955Y046597D03*
X027955Y046597D03*
X027955Y047597D03*
X026955Y047597D03*
X026955Y048597D03*
X027955Y048597D03*
X027955Y049597D03*
X026955Y049597D03*
X026815Y054347D03*
X027815Y054347D03*
X027815Y055347D03*
X026815Y055347D03*
X026815Y056347D03*
X042305Y041827D03*
X042305Y040827D03*
X042305Y039827D03*
X042305Y038827D03*
X042305Y037827D03*
X042305Y036827D03*
X042305Y035827D03*
X042305Y034827D03*
X042305Y033827D03*
X042305Y032827D03*
X043995Y032827D03*
X043995Y033827D03*
X043995Y034827D03*
X043995Y035827D03*
X043995Y036827D03*
X043995Y037827D03*
X043995Y038827D03*
X043995Y039827D03*
X043995Y040827D03*
X043995Y041827D03*
X055495Y041827D03*
X055495Y040827D03*
X055495Y039827D03*
X055495Y038827D03*
X055495Y037827D03*
X055495Y036827D03*
X055495Y035827D03*
X055495Y034827D03*
X055495Y033827D03*
X055495Y032827D03*
D16*
X055245Y032827D02*
X054745Y032827D01*
X054745Y033827D02*
X055245Y033827D01*
X055245Y034827D02*
X054745Y034827D01*
X054745Y035827D02*
X055245Y035827D01*
X055245Y036827D02*
X054745Y036827D01*
X054745Y037827D02*
X055245Y037827D01*
X055245Y038827D02*
X054745Y038827D01*
X054745Y039827D02*
X055245Y039827D01*
X055245Y040827D02*
X054745Y040827D01*
X054745Y041827D02*
X055245Y041827D01*
X043745Y041827D02*
X043245Y041827D01*
X043245Y040827D02*
X043745Y040827D01*
X043745Y039827D02*
X043245Y039827D01*
X043245Y038827D02*
X043745Y038827D01*
X043745Y037827D02*
X043245Y037827D01*
X043245Y036827D02*
X043745Y036827D01*
X043745Y035827D02*
X043245Y035827D01*
X043245Y034827D02*
X043745Y034827D01*
X043745Y033827D02*
X043245Y033827D01*
X043245Y032827D02*
X043745Y032827D01*
X042055Y032827D02*
X041555Y032827D01*
X041555Y033827D02*
X042055Y033827D01*
X042055Y034827D02*
X041555Y034827D01*
X041555Y035827D02*
X042055Y035827D01*
X042055Y036827D02*
X041555Y036827D01*
X041555Y037827D02*
X042055Y037827D01*
X042055Y038827D02*
X041555Y038827D01*
X041555Y039827D02*
X042055Y039827D01*
X042055Y040827D02*
X041555Y040827D01*
X041555Y041827D02*
X042055Y041827D01*
X030555Y041827D02*
X030055Y041827D01*
X030055Y040827D02*
X030555Y040827D01*
X030555Y039827D02*
X030055Y039827D01*
X030055Y038827D02*
X030555Y038827D01*
X030555Y037827D02*
X030055Y037827D01*
X030055Y036827D02*
X030555Y036827D01*
X030555Y035827D02*
X030055Y035827D01*
X030055Y034827D02*
X030555Y034827D01*
X030555Y033827D02*
X030055Y033827D01*
X030055Y032827D02*
X030555Y032827D01*
X028955Y042847D02*
X028955Y043347D01*
X028955Y043847D02*
X028955Y044347D01*
X028955Y044847D02*
X028955Y045347D01*
X028955Y045847D02*
X028955Y046347D01*
X028955Y046847D02*
X028955Y047347D01*
X028955Y047847D02*
X028955Y048347D01*
X028955Y048847D02*
X028955Y049347D01*
X028955Y049847D02*
X028955Y050347D01*
X028955Y050847D02*
X028955Y051347D01*
X027955Y051347D02*
X027955Y050847D01*
X027955Y050347D02*
X027955Y049847D01*
X027955Y049347D02*
X027955Y048847D01*
X027955Y048347D02*
X027955Y047847D01*
X027955Y047347D02*
X027955Y046847D01*
X027955Y046347D02*
X027955Y045847D01*
X027955Y045347D02*
X027955Y044847D01*
X027955Y044347D02*
X027955Y043847D01*
X027955Y043347D02*
X027955Y042847D01*
X026955Y042847D02*
X026955Y043347D01*
X026955Y043847D02*
X026955Y044347D01*
X026955Y044847D02*
X026955Y045347D01*
X026955Y045847D02*
X026955Y046347D01*
X026955Y046847D02*
X026955Y047347D01*
X026955Y047847D02*
X026955Y048347D01*
X026955Y048847D02*
X026955Y049347D01*
X026955Y049847D02*
X026955Y050347D01*
X026955Y050847D02*
X026955Y051347D01*
X025955Y051347D02*
X025955Y050847D01*
X025955Y050347D02*
X025955Y049847D01*
X025955Y049347D02*
X025955Y048847D01*
X025955Y048347D02*
X025955Y047847D01*
X025955Y047347D02*
X025955Y046847D01*
X025955Y046347D02*
X025955Y045847D01*
X025955Y045347D02*
X025955Y044847D01*
X025955Y044347D02*
X025955Y043847D01*
X025955Y043347D02*
X025955Y042847D01*
X024955Y042847D02*
X024955Y043347D01*
X024955Y043847D02*
X024955Y044347D01*
X024955Y044847D02*
X024955Y045347D01*
X024955Y045847D02*
X024955Y046347D01*
X024955Y046847D02*
X024955Y047347D01*
X024955Y047847D02*
X024955Y048347D01*
X024955Y048847D02*
X024955Y049347D01*
X024955Y049847D02*
X024955Y050347D01*
X024955Y050847D02*
X024955Y051347D01*
X023955Y051347D02*
X023955Y050847D01*
X023955Y050347D02*
X023955Y049847D01*
X023955Y049347D02*
X023955Y048847D01*
X023955Y048347D02*
X023955Y047847D01*
X023955Y047347D02*
X023955Y046847D01*
X023955Y046347D02*
X023955Y045847D01*
X023955Y045347D02*
X023955Y044847D01*
X023955Y044347D02*
X023955Y043847D01*
X023955Y043347D02*
X023955Y042847D01*
X022955Y042847D02*
X022955Y043347D01*
X022955Y043847D02*
X022955Y044347D01*
X022955Y044847D02*
X022955Y045347D01*
X022955Y045847D02*
X022955Y046347D01*
X022955Y046847D02*
X022955Y047347D01*
X022955Y047847D02*
X022955Y048347D01*
X022955Y048847D02*
X022955Y049347D01*
X022955Y049847D02*
X022955Y050347D01*
X022955Y050847D02*
X022955Y051347D01*
X021955Y051347D02*
X021955Y050847D01*
X021955Y050347D02*
X021955Y049847D01*
X021955Y049347D02*
X021955Y048847D01*
X021955Y048347D02*
X021955Y047847D01*
X021955Y047347D02*
X021955Y046847D01*
X021955Y046347D02*
X021955Y045847D01*
X021955Y045347D02*
X021955Y044847D01*
X021955Y044347D02*
X021955Y043847D01*
X021955Y043347D02*
X021955Y042847D01*
X020955Y042847D02*
X020955Y043347D01*
X020955Y043847D02*
X020955Y044347D01*
X020955Y044847D02*
X020955Y045347D01*
X020955Y045847D02*
X020955Y046347D01*
X020955Y046847D02*
X020955Y047347D01*
X020955Y047847D02*
X020955Y048347D01*
X020955Y048847D02*
X020955Y049347D01*
X020955Y049847D02*
X020955Y050347D01*
X020955Y050847D02*
X020955Y051347D01*
X019955Y051347D02*
X019955Y050847D01*
X019955Y050347D02*
X019955Y049847D01*
X019955Y049347D02*
X019955Y048847D01*
X019955Y048347D02*
X019955Y047847D01*
X019955Y047347D02*
X019955Y046847D01*
X019955Y046347D02*
X019955Y045847D01*
X019955Y045347D02*
X019955Y044847D01*
X019955Y044347D02*
X019955Y043847D01*
X019955Y043347D02*
X019955Y042847D01*
X018955Y042847D02*
X018955Y043347D01*
X018955Y043847D02*
X018955Y044347D01*
X018955Y044847D02*
X018955Y045347D01*
X018955Y045847D02*
X018955Y046347D01*
X018955Y046847D02*
X018955Y047347D01*
X018955Y047847D02*
X018955Y048347D01*
X018955Y048847D02*
X018955Y049347D01*
X018955Y049847D02*
X018955Y050347D01*
X018955Y050847D02*
X018955Y051347D01*
X017955Y051347D02*
X017955Y050847D01*
X017955Y050347D02*
X017955Y049847D01*
X017955Y049347D02*
X017955Y048847D01*
X017955Y048347D02*
X017955Y047847D01*
X017955Y047347D02*
X017955Y046847D01*
X017955Y046347D02*
X017955Y045847D01*
X017955Y045347D02*
X017955Y044847D01*
X017955Y044347D02*
X017955Y043847D01*
X017955Y043347D02*
X017955Y042847D01*
D17*
X027815Y056347D03*
X026655Y020127D03*
X026655Y008397D03*
D18*
X028470Y014147D03*
X029139Y014147D03*
X029139Y025877D03*
X028470Y025877D03*
X028700Y039127D03*
X029369Y039127D03*
X028939Y060947D03*
X028270Y060947D03*
X054890Y006037D03*
X055559Y006037D03*
D19*
X055575Y007087D03*
X054575Y007087D03*
X055075Y008087D03*
X054075Y008087D03*
X029255Y015147D03*
X028255Y015147D03*
X028755Y016147D03*
X027755Y016147D03*
X028255Y026877D03*
X029255Y026877D03*
X028755Y027877D03*
X027755Y027877D03*
X028245Y040057D03*
X029245Y040057D03*
X028745Y041057D03*
X027745Y041057D03*
X028255Y062047D03*
X029255Y062047D03*
X028755Y063047D03*
X027755Y063047D03*
D20*
X027108Y062247D02*
X027110Y062275D01*
X027116Y062303D01*
X027126Y062329D01*
X027139Y062354D01*
X027156Y062376D01*
X027176Y062396D01*
X027198Y062413D01*
X027223Y062426D01*
X027249Y062436D01*
X027277Y062442D01*
X027305Y062444D01*
X027333Y062442D01*
X027361Y062436D01*
X027387Y062426D01*
X027412Y062413D01*
X027434Y062396D01*
X027454Y062376D01*
X027471Y062354D01*
X027484Y062329D01*
X027494Y062303D01*
X027500Y062275D01*
X027502Y062247D01*
X027500Y062219D01*
X027494Y062191D01*
X027484Y062165D01*
X027471Y062140D01*
X027454Y062118D01*
X027434Y062098D01*
X027412Y062081D01*
X027387Y062068D01*
X027361Y062058D01*
X027333Y062052D01*
X027305Y062050D01*
X027277Y062052D01*
X027249Y062058D01*
X027223Y062068D01*
X027198Y062081D01*
X027176Y062098D01*
X027156Y062118D01*
X027139Y062140D01*
X027126Y062165D01*
X027116Y062191D01*
X027110Y062219D01*
X027108Y062247D01*
X027098Y040257D02*
X027100Y040285D01*
X027106Y040313D01*
X027116Y040339D01*
X027129Y040364D01*
X027146Y040386D01*
X027166Y040406D01*
X027188Y040423D01*
X027213Y040436D01*
X027239Y040446D01*
X027267Y040452D01*
X027295Y040454D01*
X027323Y040452D01*
X027351Y040446D01*
X027377Y040436D01*
X027402Y040423D01*
X027424Y040406D01*
X027444Y040386D01*
X027461Y040364D01*
X027474Y040339D01*
X027484Y040313D01*
X027490Y040285D01*
X027492Y040257D01*
X027490Y040229D01*
X027484Y040201D01*
X027474Y040175D01*
X027461Y040150D01*
X027444Y040128D01*
X027424Y040108D01*
X027402Y040091D01*
X027377Y040078D01*
X027351Y040068D01*
X027323Y040062D01*
X027295Y040060D01*
X027267Y040062D01*
X027239Y040068D01*
X027213Y040078D01*
X027188Y040091D01*
X027166Y040108D01*
X027146Y040128D01*
X027129Y040150D01*
X027116Y040175D01*
X027106Y040201D01*
X027100Y040229D01*
X027098Y040257D01*
X027108Y027077D02*
X027110Y027105D01*
X027116Y027133D01*
X027126Y027159D01*
X027139Y027184D01*
X027156Y027206D01*
X027176Y027226D01*
X027198Y027243D01*
X027223Y027256D01*
X027249Y027266D01*
X027277Y027272D01*
X027305Y027274D01*
X027333Y027272D01*
X027361Y027266D01*
X027387Y027256D01*
X027412Y027243D01*
X027434Y027226D01*
X027454Y027206D01*
X027471Y027184D01*
X027484Y027159D01*
X027494Y027133D01*
X027500Y027105D01*
X027502Y027077D01*
X027500Y027049D01*
X027494Y027021D01*
X027484Y026995D01*
X027471Y026970D01*
X027454Y026948D01*
X027434Y026928D01*
X027412Y026911D01*
X027387Y026898D01*
X027361Y026888D01*
X027333Y026882D01*
X027305Y026880D01*
X027277Y026882D01*
X027249Y026888D01*
X027223Y026898D01*
X027198Y026911D01*
X027176Y026928D01*
X027156Y026948D01*
X027139Y026970D01*
X027126Y026995D01*
X027116Y027021D01*
X027110Y027049D01*
X027108Y027077D01*
X027108Y015347D02*
X027110Y015375D01*
X027116Y015403D01*
X027126Y015429D01*
X027139Y015454D01*
X027156Y015476D01*
X027176Y015496D01*
X027198Y015513D01*
X027223Y015526D01*
X027249Y015536D01*
X027277Y015542D01*
X027305Y015544D01*
X027333Y015542D01*
X027361Y015536D01*
X027387Y015526D01*
X027412Y015513D01*
X027434Y015496D01*
X027454Y015476D01*
X027471Y015454D01*
X027484Y015429D01*
X027494Y015403D01*
X027500Y015375D01*
X027502Y015347D01*
X027500Y015319D01*
X027494Y015291D01*
X027484Y015265D01*
X027471Y015240D01*
X027454Y015218D01*
X027434Y015198D01*
X027412Y015181D01*
X027387Y015168D01*
X027361Y015158D01*
X027333Y015152D01*
X027305Y015150D01*
X027277Y015152D01*
X027249Y015158D01*
X027223Y015168D01*
X027198Y015181D01*
X027176Y015198D01*
X027156Y015218D01*
X027139Y015240D01*
X027126Y015265D01*
X027116Y015291D01*
X027110Y015319D01*
X027108Y015347D01*
X032963Y006493D02*
X032965Y006520D01*
X032971Y006546D01*
X032981Y006572D01*
X032995Y006595D01*
X033012Y006616D01*
X033033Y006634D01*
X033055Y006648D01*
X033080Y006660D01*
X033106Y006667D01*
X033133Y006670D01*
X033160Y006669D01*
X033187Y006664D01*
X033212Y006655D01*
X033236Y006642D01*
X033258Y006625D01*
X033277Y006606D01*
X033292Y006583D01*
X033304Y006559D01*
X033312Y006533D01*
X033316Y006507D01*
X033316Y006479D01*
X033312Y006453D01*
X033304Y006427D01*
X033292Y006403D01*
X033277Y006380D01*
X033258Y006361D01*
X033236Y006344D01*
X033212Y006331D01*
X033187Y006322D01*
X033160Y006317D01*
X033133Y006316D01*
X033106Y006319D01*
X033080Y006326D01*
X033055Y006338D01*
X033033Y006352D01*
X033012Y006370D01*
X032995Y006391D01*
X032981Y006414D01*
X032971Y006440D01*
X032965Y006466D01*
X032963Y006493D01*
X032963Y004761D02*
X032965Y004788D01*
X032971Y004814D01*
X032981Y004840D01*
X032995Y004863D01*
X033012Y004884D01*
X033033Y004902D01*
X033055Y004916D01*
X033080Y004928D01*
X033106Y004935D01*
X033133Y004938D01*
X033160Y004937D01*
X033187Y004932D01*
X033212Y004923D01*
X033236Y004910D01*
X033258Y004893D01*
X033277Y004874D01*
X033292Y004851D01*
X033304Y004827D01*
X033312Y004801D01*
X033316Y004775D01*
X033316Y004747D01*
X033312Y004721D01*
X033304Y004695D01*
X033292Y004671D01*
X033277Y004648D01*
X033258Y004629D01*
X033236Y004612D01*
X033212Y004599D01*
X033187Y004590D01*
X033160Y004585D01*
X033133Y004584D01*
X033106Y004587D01*
X033080Y004594D01*
X033055Y004606D01*
X033033Y004620D01*
X033012Y004638D01*
X032995Y004659D01*
X032981Y004682D01*
X032971Y004708D01*
X032965Y004734D01*
X032963Y004761D01*
X053428Y007287D02*
X053430Y007315D01*
X053436Y007343D01*
X053446Y007369D01*
X053459Y007394D01*
X053476Y007416D01*
X053496Y007436D01*
X053518Y007453D01*
X053543Y007466D01*
X053569Y007476D01*
X053597Y007482D01*
X053625Y007484D01*
X053653Y007482D01*
X053681Y007476D01*
X053707Y007466D01*
X053732Y007453D01*
X053754Y007436D01*
X053774Y007416D01*
X053791Y007394D01*
X053804Y007369D01*
X053814Y007343D01*
X053820Y007315D01*
X053822Y007287D01*
X053820Y007259D01*
X053814Y007231D01*
X053804Y007205D01*
X053791Y007180D01*
X053774Y007158D01*
X053754Y007138D01*
X053732Y007121D01*
X053707Y007108D01*
X053681Y007098D01*
X053653Y007092D01*
X053625Y007090D01*
X053597Y007092D01*
X053569Y007098D01*
X053543Y007108D01*
X053518Y007121D01*
X053496Y007138D01*
X053476Y007158D01*
X053459Y007180D01*
X053446Y007205D01*
X053436Y007231D01*
X053430Y007259D01*
X053428Y007287D01*
D21*
X053625Y007287D03*
X027305Y015347D03*
X027305Y027077D03*
X027295Y040257D03*
X027305Y062247D03*
D22*
X041735Y052447D03*
X041735Y050547D03*
X054925Y050547D03*
X054925Y052447D03*
X054905Y021827D03*
X054905Y019927D03*
X041805Y019927D03*
X041805Y021827D03*
D23*
X038675Y025117D03*
X037675Y025117D03*
X037275Y027017D03*
X037775Y028017D03*
X036775Y028017D03*
X036275Y027017D03*
X035275Y027017D03*
X035775Y028017D03*
X034775Y028017D03*
X034375Y025117D03*
X035375Y025117D03*
X047475Y025117D03*
X048475Y025117D03*
X048375Y027017D03*
X049375Y027017D03*
X049875Y028017D03*
X048875Y028017D03*
X047875Y028017D03*
X050375Y027017D03*
X050875Y028017D03*
X050775Y025117D03*
X051775Y025117D03*
X051645Y057127D03*
X050645Y057127D03*
X050245Y059027D03*
X049245Y059027D03*
X048245Y059027D03*
X048745Y060027D03*
X047745Y060027D03*
X049745Y060027D03*
X050745Y060027D03*
X048345Y057127D03*
X047345Y057127D03*
X038455Y057127D03*
X037455Y057127D03*
X037055Y059027D03*
X036055Y059027D03*
X035055Y059027D03*
X035555Y060027D03*
X034555Y060027D03*
X036555Y060027D03*
X037555Y060027D03*
X035155Y057127D03*
X034155Y057127D03*
D24*
X038055Y059027D03*
X051245Y059027D03*
X029155Y030487D03*
X019655Y030487D03*
X038275Y027017D03*
X051375Y027017D03*
X047435Y003787D03*
D25*
X046525Y029317D03*
X052725Y029317D03*
X039625Y029317D03*
X033425Y029317D03*
X033205Y061327D03*
X039405Y061327D03*
X046395Y061327D03*
X052595Y061327D03*
D26*
X051745Y062527D03*
X047245Y062527D03*
X038555Y062527D03*
X034055Y062527D03*
X034275Y030517D03*
X038775Y030517D03*
X047375Y030517D03*
X051875Y030517D03*
D27*
X045615Y038637D03*
X045615Y039637D03*
X045615Y040637D03*
X045615Y041637D03*
X032425Y041637D03*
X032425Y040637D03*
X032425Y039637D03*
X032425Y038637D03*
D28*
X028155Y030487D03*
X028155Y029487D03*
X029155Y029487D03*
X027155Y029487D03*
X026155Y029487D03*
X026155Y030487D03*
X027155Y030487D03*
X025155Y030487D03*
X024155Y030487D03*
X024155Y029487D03*
X025155Y029487D03*
X023155Y029487D03*
X022155Y029487D03*
X022155Y030487D03*
X023155Y030487D03*
X019655Y029487D03*
X018655Y029487D03*
X017655Y029487D03*
X017655Y030487D03*
X018655Y030487D03*
X041345Y007507D03*
X041345Y006507D03*
X041345Y005507D03*
X041345Y004507D03*
X041345Y003507D03*
X041345Y002507D03*
X044435Y002787D03*
X045435Y002787D03*
X045435Y003787D03*
X044435Y003787D03*
X046435Y003787D03*
X046435Y002787D03*
X047435Y002787D03*
D29*
X033140Y004761D03*
X033140Y006493D03*
D30*
X033260Y011708D03*
X034244Y011708D03*
X035228Y011708D03*
X036213Y011708D03*
X037197Y011708D03*
X038181Y011708D03*
X039165Y011708D03*
X040150Y011708D03*
X041134Y011708D03*
X045376Y011708D03*
X046360Y011708D03*
X047344Y011708D03*
X048328Y011708D03*
X049313Y011708D03*
X050297Y011708D03*
X051281Y011708D03*
X052265Y011708D03*
X053250Y011708D03*
X054234Y011708D03*
X032276Y011708D03*
D31*
X029235Y012917D03*
X025285Y015095D03*
X023565Y013597D03*
X021435Y014527D03*
X021225Y015037D03*
X020245Y013637D03*
X018915Y014367D03*
X018525Y014747D03*
X017735Y015247D03*
X019245Y016277D03*
X018185Y019097D03*
X019795Y021417D03*
X019415Y021797D03*
X018915Y021537D03*
X020335Y021777D03*
X020945Y021767D03*
X020875Y020607D03*
X020905Y019927D03*
X020245Y025367D03*
X021435Y026257D03*
X021225Y026767D03*
X019245Y028007D03*
X018525Y026477D03*
X018915Y026097D03*
X017735Y026977D03*
X021155Y029987D03*
X021105Y031697D03*
X021455Y032437D03*
X020985Y033257D03*
X020605Y032897D03*
X020305Y034087D03*
X019805Y034087D03*
X019255Y034137D03*
X019155Y033637D03*
X019555Y034587D03*
X020055Y034587D03*
X020355Y035037D03*
X020855Y035037D03*
X020835Y034297D03*
X022255Y035087D03*
X022855Y035307D03*
X022855Y034787D03*
X022205Y033187D03*
X023305Y032237D03*
X023655Y031737D03*
X024505Y032837D03*
X025605Y031557D03*
X026155Y031687D03*
X026655Y031687D03*
X027155Y031687D03*
X027655Y031707D03*
X027805Y032257D03*
X028555Y031887D03*
X029505Y032097D03*
X028775Y035337D03*
X027205Y036307D03*
X028505Y037777D03*
X029285Y037767D03*
X025235Y040035D03*
X023565Y038587D03*
X023555Y036687D03*
X025065Y035087D03*
X020245Y038577D03*
X019245Y039627D03*
X019395Y041217D03*
X021275Y040317D03*
X017425Y040497D03*
X018075Y036097D03*
X017595Y033307D03*
X017605Y032787D03*
X019205Y031487D03*
X023565Y025327D03*
X025285Y026825D03*
X029235Y024647D03*
X020945Y010037D03*
X020335Y010047D03*
X019795Y009687D03*
X019415Y010067D03*
X018915Y009807D03*
X020875Y008877D03*
X020905Y008197D03*
X018185Y007367D03*
X044015Y007187D03*
X044855Y006837D03*
X045365Y006457D03*
X046575Y005767D03*
X047765Y006717D03*
X047555Y007257D03*
X046375Y008307D03*
X051565Y007105D03*
X055575Y004267D03*
X018895Y053017D03*
X020265Y055347D03*
X020805Y055247D03*
X021285Y055487D03*
X021885Y055537D03*
X021935Y056817D03*
X022475Y056847D03*
X020245Y059687D03*
X021125Y061277D03*
X021695Y063227D03*
X019065Y062157D03*
X017735Y060497D03*
X023565Y060497D03*
X025285Y061995D03*
X028255Y059727D03*
X029135Y059717D03*
D32*
X031645Y057387D03*
X034205Y059397D03*
X034655Y058397D03*
X038065Y058237D03*
X039165Y060337D03*
X040555Y055947D03*
X041445Y055147D03*
X042125Y055947D03*
X041065Y053777D03*
X040215Y053157D03*
X040255Y051757D03*
X038475Y049077D03*
X037665Y048207D03*
X037275Y047347D03*
X036685Y047277D03*
X037645Y046627D03*
X038945Y047027D03*
X040815Y048597D03*
X044545Y046287D03*
X045895Y047177D03*
X045915Y048237D03*
X046695Y050037D03*
X048175Y047897D03*
X049875Y047277D03*
X050465Y047347D03*
X050835Y046627D03*
X052135Y047027D03*
X050855Y048207D03*
X051665Y049077D03*
X054005Y048597D03*
X053445Y051757D03*
X053405Y053157D03*
X054255Y053777D03*
X054635Y055147D03*
X055315Y055947D03*
X053745Y055947D03*
X052375Y055617D03*
X051155Y055657D03*
X049955Y053087D03*
X047685Y054627D03*
X047075Y053017D03*
X046485Y052867D03*
X045205Y053667D03*
X044835Y057387D03*
X047395Y059397D03*
X047845Y058397D03*
X051255Y058237D03*
X052355Y060337D03*
X039185Y055617D03*
X037965Y055657D03*
X036765Y053087D03*
X034495Y054627D03*
X033885Y053017D03*
X033295Y052867D03*
X032015Y053667D03*
X033505Y050037D03*
X032725Y048237D03*
X032705Y047177D03*
X031355Y046287D03*
X030735Y044517D03*
X032635Y044527D03*
X033305Y044017D03*
X032665Y043167D03*
X034505Y043497D03*
X036215Y044927D03*
X036705Y043757D03*
X037195Y044007D03*
X037255Y043357D03*
X037235Y041907D03*
X036375Y041547D03*
X036215Y039747D03*
X035795Y039357D03*
X035295Y039637D03*
X034285Y040827D03*
X037405Y039707D03*
X039315Y041017D03*
X040505Y041167D03*
X039375Y043037D03*
X038905Y043437D03*
X039375Y044277D03*
X038765Y044367D03*
X042075Y043177D03*
X042545Y043997D03*
X043925Y044517D03*
X045825Y044527D03*
X046495Y044017D03*
X045855Y043167D03*
X047695Y043497D03*
X049405Y044927D03*
X049895Y043757D03*
X050385Y044007D03*
X050445Y043357D03*
X050425Y041907D03*
X049565Y041547D03*
X049405Y039747D03*
X048985Y039357D03*
X048485Y039637D03*
X047475Y040827D03*
X050595Y039707D03*
X052505Y041017D03*
X053695Y041167D03*
X052565Y043037D03*
X052095Y043437D03*
X052565Y044277D03*
X051955Y044367D03*
X055265Y043177D03*
X055735Y043997D03*
X052685Y038587D03*
X050615Y037147D03*
X050655Y036327D03*
X049975Y035537D03*
X050605Y034347D03*
X052065Y035657D03*
X052385Y033327D03*
X048575Y035007D03*
X048165Y034097D03*
X045675Y035507D03*
X046665Y036857D03*
X039495Y038587D03*
X037425Y037147D03*
X037465Y036327D03*
X036785Y035537D03*
X037415Y034347D03*
X038875Y035657D03*
X039195Y033327D03*
X035385Y035007D03*
X034975Y034097D03*
X032485Y035507D03*
X033475Y036857D03*
X035035Y045517D03*
X034985Y047897D03*
X022255Y053497D03*
X048225Y045517D03*
X028505Y024577D03*
X028505Y012847D03*
X049885Y005727D03*
X054805Y004247D03*
D33*
X049395Y013007D03*
X048815Y012877D03*
X047285Y013337D03*
X047165Y013907D03*
X047565Y014347D03*
X047275Y015057D03*
X047505Y015927D03*
X045985Y016657D03*
X046045Y017427D03*
X044535Y017457D03*
X043735Y017927D03*
X044145Y019037D03*
X045305Y019867D03*
X046675Y019917D03*
X047425Y021427D03*
X047995Y020967D03*
X047475Y022297D03*
X047345Y023087D03*
X050005Y023517D03*
X050735Y023427D03*
X050415Y022137D03*
X049975Y020297D03*
X051745Y019437D03*
X051695Y018597D03*
X051745Y017947D03*
X051615Y016447D03*
X051725Y015197D03*
X054605Y013777D03*
X055725Y017017D03*
X053745Y018907D03*
X053755Y021827D03*
X053985Y023247D03*
X053385Y023757D03*
X052585Y023807D03*
X055555Y024397D03*
X053935Y028017D03*
X052015Y028417D03*
X052005Y027017D03*
X055735Y028997D03*
X047165Y028047D03*
X043945Y024717D03*
X042455Y024397D03*
X040885Y023247D03*
X040285Y023757D03*
X039485Y023807D03*
X037635Y023427D03*
X036905Y023517D03*
X037315Y022137D03*
X036875Y020297D03*
X038645Y019437D03*
X038595Y018597D03*
X038645Y017947D03*
X038515Y016447D03*
X038625Y015197D03*
X036295Y013007D03*
X035715Y012877D03*
X034185Y013337D03*
X034065Y013907D03*
X034465Y014347D03*
X034175Y015057D03*
X034405Y015927D03*
X032885Y016657D03*
X032945Y017427D03*
X031435Y017457D03*
X030635Y017927D03*
X031045Y019037D03*
X032205Y019867D03*
X033575Y019917D03*
X034325Y021427D03*
X034895Y020967D03*
X034375Y022297D03*
X034245Y023087D03*
X030845Y024717D03*
X034065Y028047D03*
X038915Y028417D03*
X038905Y027017D03*
X040835Y028017D03*
X042635Y028997D03*
X040655Y021827D03*
X040645Y018907D03*
X042625Y017017D03*
X045465Y014817D03*
X041505Y013777D03*
X032365Y014817D03*
M02*
