G75*
G70*
%OFA0B0*%
%FSLAX24Y24*%
%IPPOS*%
%LPD*%
%AMOC8*
5,1,8,0,0,1.08239X$1,22.5*
%
%ADD10C,0.0100*%
%ADD11C,0.0300*%
%ADD12R,0.0283X0.0913*%
%ADD13R,0.0187X0.0622*%
%ADD14C,0.0571*%
%ADD15R,0.0571X0.0571*%
%ADD16R,0.0472X0.0512*%
%ADD17R,0.0709X0.2087*%
%ADD18R,0.0576X0.0976*%
%ADD19R,0.1591X0.1039*%
%ADD20C,0.0712*%
%ADD21R,0.0236X0.0630*%
%ADD22R,0.0630X0.0236*%
%ADD23R,0.0712X0.0712*%
%ADD24R,0.0512X0.0472*%
%ADD25C,0.0665*%
%ADD26C,0.0000*%
%ADD27C,0.0472*%
%ADD28R,0.0913X0.0283*%
%ADD29C,0.0660*%
%ADD30R,0.0852X0.0312*%
%ADD31C,0.0792*%
%ADD32R,0.0792X0.0792*%
%ADD33C,0.1200*%
%ADD34C,0.2039*%
%ADD35R,0.0576X0.0976*%
%ADD36R,0.0560X0.0360*%
%ADD37O,0.1232X0.0672*%
%ADD38R,0.0472X0.0630*%
%ADD39C,0.0840*%
%ADD40R,0.0240X0.0440*%
%ADD41R,0.0630X0.0472*%
%ADD42R,0.0283X0.0283*%
%ADD43R,0.0425X0.0465*%
%ADD44R,0.0425X0.0504*%
%ADD45R,0.0142X0.0614*%
%ADD46R,0.0925X0.0236*%
%ADD47C,0.0425*%
%ADD48R,0.1736X0.0969*%
%ADD49R,0.1539X0.0969*%
%ADD50O,0.0720X0.1320*%
%ADD51C,0.0475*%
%ADD52C,0.0480*%
%ADD53C,0.0528*%
D10*
X008897Y002152D02*
X008897Y008679D01*
X021830Y008679D01*
X021830Y002152D01*
X008897Y002152D01*
X008936Y009982D02*
X008936Y031902D01*
X021818Y031902D01*
X021828Y009982D01*
X008936Y009982D01*
X022036Y009982D02*
X022026Y031902D01*
X034918Y031902D01*
X034928Y009982D01*
X022036Y009982D01*
X022794Y008887D02*
X033954Y008887D01*
X033954Y001407D01*
X022794Y001407D01*
X022794Y008887D01*
X035227Y005417D02*
X035227Y016709D01*
X048150Y016709D01*
X048150Y005417D01*
X035227Y005417D01*
X035227Y017147D02*
X035227Y028439D01*
X048150Y028439D01*
X048150Y017147D01*
X035227Y017147D01*
X035227Y028757D02*
X035227Y041649D01*
X048150Y041649D01*
X048150Y028757D01*
X035227Y028757D01*
X035018Y032142D02*
X035018Y063612D01*
X022056Y063612D01*
X022046Y032142D01*
X035018Y032142D01*
X035227Y041917D02*
X035227Y063609D01*
X048150Y063609D01*
X048150Y041917D01*
X035227Y041917D01*
X021848Y032142D02*
X021848Y063612D01*
X008886Y063612D01*
X008886Y032142D01*
X021848Y032142D01*
D11*
X051944Y054598D02*
X052344Y054598D01*
X052144Y054798D02*
X052144Y053997D01*
X052344Y053797D01*
X052864Y053997D02*
X053065Y053797D01*
X053465Y053797D01*
X053665Y053997D01*
X053665Y054397D01*
X053465Y054598D01*
X053065Y054598D01*
X052864Y054397D01*
X052864Y053997D01*
X054246Y053797D02*
X054846Y053797D01*
X055046Y053997D01*
X055046Y054397D01*
X054846Y054598D01*
X054246Y054598D01*
X054246Y053397D01*
X055627Y053597D02*
X056427Y053597D01*
X057008Y053797D02*
X057608Y053797D01*
X057809Y053997D01*
X057608Y054197D01*
X057208Y054197D01*
X057008Y054397D01*
X057208Y054598D01*
X057809Y054598D01*
X058389Y054598D02*
X058789Y054598D01*
X058589Y054798D02*
X058589Y053997D01*
X058789Y053797D01*
X059310Y053997D02*
X059510Y053797D01*
X059910Y053797D01*
X060110Y053997D01*
X060110Y054397D01*
X059910Y054598D01*
X059510Y054598D01*
X059310Y054397D01*
X059310Y053997D01*
X060691Y053797D02*
X061291Y053797D01*
X061492Y053997D01*
X061492Y054397D01*
X061291Y054598D01*
X060691Y054598D01*
X060691Y053397D01*
D12*
X037231Y058855D03*
X036731Y058855D03*
X036231Y058855D03*
X035731Y058855D03*
X035731Y060855D03*
X036231Y060855D03*
X036731Y060855D03*
X037231Y060855D03*
X037081Y038955D03*
X036581Y038955D03*
X036081Y038955D03*
X035581Y038955D03*
X035581Y036955D03*
X036081Y036955D03*
X036581Y036955D03*
X037081Y036955D03*
X037081Y025785D03*
X036581Y025785D03*
X036081Y025785D03*
X035581Y025785D03*
X035581Y023785D03*
X036081Y023785D03*
X036581Y023785D03*
X037081Y023785D03*
X037081Y014055D03*
X036581Y014055D03*
X036081Y014055D03*
X035581Y014055D03*
X035581Y012055D03*
X036081Y012055D03*
X036581Y012055D03*
X037081Y012055D03*
X010751Y005475D03*
X010251Y005475D03*
X009751Y005475D03*
X009251Y005475D03*
X009251Y003475D03*
X009751Y003475D03*
X010251Y003475D03*
X010751Y003475D03*
D13*
X018063Y005117D03*
X018319Y005117D03*
X018575Y005117D03*
X018831Y005117D03*
X019087Y005117D03*
X019342Y005117D03*
X019598Y005117D03*
X019854Y005117D03*
X020110Y005117D03*
X020366Y005117D03*
X020366Y007459D03*
X020110Y007459D03*
X019854Y007459D03*
X019598Y007459D03*
X019342Y007459D03*
X019087Y007459D03*
X018831Y007459D03*
X018575Y007459D03*
X018319Y007459D03*
X018063Y007459D03*
X044393Y013027D03*
X044649Y013027D03*
X044905Y013027D03*
X045161Y013027D03*
X045417Y013027D03*
X045672Y013027D03*
X045928Y013027D03*
X046184Y013027D03*
X046440Y013027D03*
X046696Y013027D03*
X046696Y015369D03*
X046440Y015369D03*
X046184Y015369D03*
X045928Y015369D03*
X045672Y015369D03*
X045417Y015369D03*
X045161Y015369D03*
X044905Y015369D03*
X044649Y015369D03*
X044393Y015369D03*
X044393Y024757D03*
X044649Y024757D03*
X044905Y024757D03*
X045161Y024757D03*
X045417Y024757D03*
X045672Y024757D03*
X045928Y024757D03*
X046184Y024757D03*
X046440Y024757D03*
X046696Y024757D03*
X046696Y027099D03*
X046440Y027099D03*
X046184Y027099D03*
X045928Y027099D03*
X045672Y027099D03*
X045417Y027099D03*
X045161Y027099D03*
X044905Y027099D03*
X044649Y027099D03*
X044393Y027099D03*
X044393Y037967D03*
X044649Y037967D03*
X044905Y037967D03*
X045161Y037967D03*
X045417Y037967D03*
X045672Y037967D03*
X045928Y037967D03*
X046184Y037967D03*
X046440Y037967D03*
X046696Y037967D03*
X046696Y040309D03*
X046440Y040309D03*
X046184Y040309D03*
X045928Y040309D03*
X045672Y040309D03*
X045417Y040309D03*
X045161Y040309D03*
X044905Y040309D03*
X044649Y040309D03*
X044393Y040309D03*
X044393Y059077D03*
X044649Y059077D03*
X044905Y059077D03*
X045161Y059077D03*
X045417Y059077D03*
X045672Y059077D03*
X045928Y059077D03*
X046184Y059077D03*
X046440Y059077D03*
X046696Y059077D03*
X046696Y061419D03*
X046440Y061419D03*
X046184Y061419D03*
X045928Y061419D03*
X045672Y061419D03*
X045417Y061419D03*
X045161Y061419D03*
X044905Y061419D03*
X044649Y061419D03*
X044393Y061419D03*
D14*
X044899Y057931D03*
X045399Y057431D03*
X045899Y057931D03*
X046399Y057431D03*
X044399Y057431D03*
X045644Y037237D03*
X046144Y036737D03*
X046644Y037237D03*
X047144Y036737D03*
X045144Y036737D03*
X045499Y024061D03*
X045999Y023561D03*
X046499Y024061D03*
X046999Y023561D03*
X044999Y023561D03*
X045499Y012331D03*
X045999Y011831D03*
X046499Y012331D03*
X046999Y011831D03*
X044999Y011831D03*
D15*
X044499Y012331D03*
X044499Y024061D03*
X044644Y037237D03*
X043899Y057931D03*
D16*
X041283Y055138D03*
X041283Y054469D03*
X037278Y052647D03*
X036609Y052647D03*
X031258Y053797D03*
X030589Y053797D03*
X029198Y055577D03*
X028529Y055577D03*
X030539Y052327D03*
X031208Y052327D03*
X031268Y051267D03*
X030599Y051267D03*
X030349Y050047D03*
X031018Y050047D03*
X030744Y048792D03*
X030744Y048122D03*
X031039Y046357D03*
X031708Y046357D03*
X026204Y046412D03*
X026204Y045742D03*
X025694Y042482D03*
X025694Y041812D03*
X027569Y040567D03*
X028238Y040567D03*
X031854Y035902D03*
X031854Y035232D03*
X035659Y032687D03*
X036328Y032687D03*
X034238Y030477D03*
X033569Y030477D03*
X033569Y028707D03*
X034238Y028707D03*
X034038Y027377D03*
X033369Y027377D03*
X032688Y023637D03*
X032019Y023637D03*
X029748Y023617D03*
X029079Y023617D03*
X030309Y019917D03*
X030978Y019917D03*
X031088Y018957D03*
X030419Y018957D03*
X030729Y017977D03*
X031398Y017977D03*
X031438Y016937D03*
X030769Y016937D03*
X025474Y014892D03*
X025474Y014222D03*
X018338Y016937D03*
X017669Y016937D03*
X017629Y017977D03*
X018298Y017977D03*
X017988Y018957D03*
X017319Y018957D03*
X017209Y019917D03*
X017878Y019917D03*
X018919Y023637D03*
X019588Y023637D03*
X016648Y023617D03*
X015979Y023617D03*
X020269Y027377D03*
X020938Y027377D03*
X021138Y028707D03*
X020469Y028707D03*
X020469Y030477D03*
X021138Y030477D03*
X022909Y030937D03*
X023578Y030937D03*
X023588Y029697D03*
X022919Y029697D03*
X022909Y028317D03*
X023578Y028317D03*
X023608Y026857D03*
X022939Y026857D03*
X018664Y035232D03*
X018664Y035902D03*
X015048Y040567D03*
X014379Y040567D03*
X012504Y041812D03*
X012504Y042482D03*
X013014Y045742D03*
X013014Y046412D03*
X017554Y048122D03*
X017554Y048792D03*
X017828Y050047D03*
X017159Y050047D03*
X017409Y051267D03*
X018078Y051267D03*
X018018Y052327D03*
X017349Y052327D03*
X017399Y053797D03*
X018068Y053797D03*
X016008Y055577D03*
X015339Y055577D03*
X010698Y059117D03*
X010029Y059117D03*
X009919Y060387D03*
X010588Y060387D03*
X010588Y061547D03*
X009919Y061547D03*
X009879Y062637D03*
X010548Y062637D03*
X020529Y062467D03*
X021198Y062467D03*
X021188Y061397D03*
X020519Y061397D03*
X020359Y059867D03*
X021028Y059867D03*
X023109Y060387D03*
X023778Y060387D03*
X023778Y061547D03*
X023109Y061547D03*
X023069Y062637D03*
X023738Y062637D03*
X023888Y059117D03*
X023219Y059117D03*
X033549Y059867D03*
X034218Y059867D03*
X034378Y061397D03*
X033709Y061397D03*
X033719Y062467D03*
X034388Y062467D03*
X038394Y062562D03*
X038394Y063232D03*
X039194Y063232D03*
X039194Y062562D03*
X041094Y062562D03*
X041094Y063232D03*
X043947Y063078D03*
X043947Y062408D03*
X044978Y062408D03*
X044978Y063078D03*
X047361Y059968D03*
X047361Y059298D03*
X046389Y054988D03*
X046389Y054319D03*
X041044Y041272D03*
X041044Y040602D03*
X039144Y040602D03*
X039144Y041272D03*
X038344Y041272D03*
X038344Y040602D03*
X042843Y034548D03*
X042843Y033879D03*
X044444Y030572D03*
X044444Y029902D03*
X041094Y028062D03*
X041094Y027392D03*
X039144Y027392D03*
X039144Y028062D03*
X038344Y028062D03*
X038344Y027392D03*
X038609Y032887D03*
X039278Y032887D03*
X047344Y026462D03*
X047344Y025792D03*
X047109Y024157D03*
X047778Y024157D03*
X047759Y021268D03*
X047759Y020599D03*
X042643Y020699D03*
X042643Y021368D03*
X041094Y016332D03*
X041094Y015662D03*
X039144Y015662D03*
X039144Y016332D03*
X038344Y016332D03*
X038344Y015662D03*
X042643Y009638D03*
X042643Y008969D03*
X047109Y012427D03*
X047778Y012427D03*
X047344Y014062D03*
X047344Y014732D03*
X047759Y009538D03*
X047759Y008869D03*
X029474Y003342D03*
X028834Y003342D03*
X028834Y002672D03*
X029474Y002672D03*
X021081Y005948D03*
X021081Y006618D03*
X014764Y007632D03*
X014764Y008302D03*
X012864Y008302D03*
X012864Y007632D03*
X012064Y007632D03*
X012064Y008302D03*
X012374Y014222D03*
X012374Y014892D03*
X010508Y026857D03*
X009839Y026857D03*
X009809Y028317D03*
X010478Y028317D03*
X010488Y029697D03*
X009819Y029697D03*
X009809Y030937D03*
X010478Y030937D03*
X017849Y046357D03*
X018518Y046357D03*
X047644Y039522D03*
X047644Y038852D03*
X047549Y034498D03*
X047549Y033829D03*
D17*
X042344Y037164D03*
X042344Y040510D03*
X042370Y027253D03*
X042370Y023906D03*
X042370Y015523D03*
X042370Y012176D03*
X024844Y035044D03*
X024844Y038390D03*
X011654Y038390D03*
X011654Y035044D03*
X016040Y007243D03*
X016040Y003896D03*
X042370Y059076D03*
X042370Y062423D03*
D18*
X040755Y058816D03*
X039845Y058816D03*
X038935Y058816D03*
X025084Y044797D03*
X024174Y044797D03*
X023264Y044797D03*
X011894Y044797D03*
X010984Y044797D03*
X010074Y044797D03*
X038935Y036856D03*
X039845Y036856D03*
X040755Y036856D03*
X040755Y023646D03*
X039845Y023646D03*
X038935Y023646D03*
X038935Y011916D03*
X039845Y011916D03*
X040755Y011916D03*
X014444Y003907D03*
X013534Y003907D03*
X012624Y003907D03*
D19*
X013534Y006347D03*
X010464Y017037D03*
X023564Y017037D03*
X039845Y014356D03*
X039845Y026086D03*
X039845Y039296D03*
X033114Y052837D03*
X024174Y047237D03*
X019924Y052837D03*
X010984Y047237D03*
X039845Y061256D03*
D20*
X038284Y056347D03*
X038284Y055347D03*
X037284Y055347D03*
X037284Y054347D03*
X038284Y054347D03*
X038144Y051597D03*
X038144Y050597D03*
X037144Y050597D03*
X037144Y051597D03*
X036144Y051597D03*
X036144Y050597D03*
X036144Y049597D03*
X036144Y048597D03*
X037144Y048597D03*
X038144Y048597D03*
X038144Y049597D03*
X037144Y049597D03*
X039144Y049597D03*
X040144Y049597D03*
X040144Y048597D03*
X039144Y048597D03*
X039144Y047597D03*
X040144Y047597D03*
X040144Y046597D03*
X039144Y046597D03*
X039144Y045597D03*
X040144Y045597D03*
X040144Y044597D03*
X039144Y044597D03*
X039144Y043597D03*
X040144Y043597D03*
X040144Y042597D03*
X039144Y042597D03*
X038144Y042597D03*
X038144Y043597D03*
X037144Y043597D03*
X037144Y042597D03*
X036144Y042597D03*
X036144Y043597D03*
X036144Y044597D03*
X036144Y045597D03*
X037144Y045597D03*
X038144Y045597D03*
X038144Y044597D03*
X037144Y044597D03*
X037144Y046597D03*
X038144Y046597D03*
X038144Y047597D03*
X037144Y047597D03*
X036144Y047597D03*
X036144Y046597D03*
X039144Y050597D03*
X040144Y050597D03*
X040144Y051597D03*
X039144Y051597D03*
X041144Y051597D03*
X042144Y051597D03*
X042144Y050597D03*
X041144Y050597D03*
X041144Y049597D03*
X042144Y049597D03*
X042144Y048597D03*
X041144Y048597D03*
X041144Y047597D03*
X042144Y047597D03*
X042144Y046597D03*
X041144Y046597D03*
X041144Y045597D03*
X042144Y045597D03*
X042144Y044597D03*
X041144Y044597D03*
X041144Y043597D03*
X042144Y043597D03*
X042144Y042597D03*
X041144Y042597D03*
X043144Y042597D03*
X044144Y042597D03*
X044144Y043597D03*
X043144Y043597D03*
X043144Y044597D03*
X044144Y044597D03*
X044144Y045597D03*
X043144Y045597D03*
X043144Y046597D03*
X044144Y046597D03*
X044144Y047597D03*
X043144Y047597D03*
X043144Y048597D03*
X044144Y048597D03*
X044144Y049597D03*
X043144Y049597D03*
X043144Y050597D03*
X044144Y050597D03*
X044144Y051597D03*
X043144Y051597D03*
X045144Y051597D03*
X046144Y051597D03*
X046144Y050597D03*
X045144Y050597D03*
X045144Y049597D03*
X046144Y049597D03*
X046144Y048597D03*
X045144Y048597D03*
X045144Y047597D03*
X046144Y047597D03*
X046144Y046597D03*
X045144Y046597D03*
X045144Y045597D03*
X046144Y045597D03*
X046144Y044597D03*
X045144Y044597D03*
X045144Y043597D03*
X046144Y043597D03*
X046144Y042597D03*
X045144Y042597D03*
X047144Y042597D03*
X047144Y043597D03*
X047144Y044597D03*
X047144Y045597D03*
X047144Y046597D03*
X047144Y047597D03*
X047144Y048597D03*
X047144Y049597D03*
X047144Y050597D03*
X047144Y051597D03*
X034294Y041827D03*
X034294Y040827D03*
X034294Y039827D03*
X034294Y038827D03*
X034294Y037827D03*
X034294Y036827D03*
X034294Y035827D03*
X034294Y034827D03*
X034294Y033827D03*
X034294Y032827D03*
X022794Y032827D03*
X022794Y033827D03*
X022794Y034827D03*
X022794Y035827D03*
X022794Y036827D03*
X022794Y037827D03*
X022794Y038827D03*
X022794Y039827D03*
X022794Y040827D03*
X022794Y041827D03*
X021104Y041827D03*
X021104Y040827D03*
X021104Y039827D03*
X021104Y038827D03*
X021104Y037827D03*
X021104Y036827D03*
X021104Y035827D03*
X021104Y034827D03*
X021104Y033827D03*
X021104Y032827D03*
X009604Y032827D03*
X009604Y033827D03*
X009604Y034827D03*
X009604Y035827D03*
X009604Y036827D03*
X009604Y037827D03*
X009604Y038827D03*
X009604Y039827D03*
X009604Y040827D03*
X009604Y041827D03*
X036444Y017927D03*
X037444Y017927D03*
X038444Y017927D03*
X039444Y017927D03*
X040444Y017927D03*
X041444Y017927D03*
X042444Y017927D03*
X043444Y017927D03*
X044444Y017927D03*
X045444Y017927D03*
X046444Y017927D03*
X047444Y017927D03*
X040444Y020127D03*
X040444Y021127D03*
X039444Y021127D03*
X038444Y021127D03*
X039444Y020127D03*
X039444Y009397D03*
X039444Y008397D03*
X038444Y009397D03*
X040444Y009397D03*
X040444Y008397D03*
X040444Y006197D03*
X041444Y006197D03*
X042444Y006197D03*
X043444Y006197D03*
X044444Y006197D03*
X045444Y006197D03*
X046444Y006197D03*
X047444Y006197D03*
X039444Y006197D03*
X038444Y006197D03*
X037444Y006197D03*
X036444Y006197D03*
D21*
X044036Y007337D03*
X044351Y007337D03*
X044666Y007337D03*
X044981Y007337D03*
X045296Y007337D03*
X045610Y007337D03*
X045925Y007337D03*
X046240Y007337D03*
X046240Y010684D03*
X045925Y010684D03*
X045610Y010684D03*
X045296Y010684D03*
X044981Y010684D03*
X044666Y010684D03*
X044351Y010684D03*
X044036Y010684D03*
X044036Y019067D03*
X044351Y019067D03*
X044666Y019067D03*
X044981Y019067D03*
X045296Y019067D03*
X045610Y019067D03*
X045925Y019067D03*
X046240Y019067D03*
X046240Y022414D03*
X045925Y022414D03*
X045610Y022414D03*
X045296Y022414D03*
X044981Y022414D03*
X044666Y022414D03*
X044351Y022414D03*
X044036Y022414D03*
X044086Y032297D03*
X044401Y032297D03*
X044716Y032297D03*
X045031Y032297D03*
X045346Y032297D03*
X045660Y032297D03*
X045975Y032297D03*
X046290Y032297D03*
X046290Y035644D03*
X045975Y035644D03*
X045660Y035644D03*
X045346Y035644D03*
X045031Y035644D03*
X044716Y035644D03*
X044401Y035644D03*
X044086Y035644D03*
X043986Y052837D03*
X044300Y052837D03*
X044615Y052837D03*
X044930Y052837D03*
X043671Y052837D03*
X043356Y052837D03*
X043041Y052837D03*
X042726Y052837D03*
X042726Y056184D03*
X043041Y056184D03*
X043356Y056184D03*
X043671Y056184D03*
X043986Y056184D03*
X044300Y056184D03*
X044615Y056184D03*
X044930Y056184D03*
D22*
X045501Y055613D03*
X045501Y055298D03*
X045501Y054983D03*
X045501Y054668D03*
X045501Y054353D03*
X045501Y054038D03*
X045501Y053723D03*
X045501Y053408D03*
X042155Y053408D03*
X042155Y053723D03*
X042155Y054038D03*
X042155Y054353D03*
X042155Y054668D03*
X042155Y054983D03*
X042155Y055298D03*
X042155Y055613D03*
X043515Y035073D03*
X043515Y034758D03*
X043515Y034443D03*
X043515Y034128D03*
X043515Y033813D03*
X043515Y033498D03*
X043515Y033183D03*
X043515Y032868D03*
X046861Y032868D03*
X046861Y033183D03*
X046861Y033498D03*
X046861Y033813D03*
X046861Y034128D03*
X046861Y034443D03*
X046861Y034758D03*
X046861Y035073D03*
X046811Y021843D03*
X046811Y021528D03*
X046811Y021213D03*
X046811Y020898D03*
X046811Y020583D03*
X046811Y020268D03*
X046811Y019953D03*
X046811Y019638D03*
X043465Y019638D03*
X043465Y019953D03*
X043465Y020268D03*
X043465Y020583D03*
X043465Y020898D03*
X043465Y021213D03*
X043465Y021528D03*
X043465Y021843D03*
X043465Y010113D03*
X043465Y009798D03*
X043465Y009483D03*
X043465Y009168D03*
X043465Y008853D03*
X043465Y008538D03*
X043465Y008223D03*
X043465Y007908D03*
X046811Y007908D03*
X046811Y008223D03*
X046811Y008538D03*
X046811Y008853D03*
X046811Y009168D03*
X046811Y009483D03*
X046811Y009798D03*
X046811Y010113D03*
D23*
X038444Y008397D03*
X038444Y020127D03*
X037284Y056347D03*
D24*
X034218Y058357D03*
X033549Y058357D03*
X038559Y052647D03*
X039228Y052647D03*
X034288Y049087D03*
X033619Y049087D03*
X032818Y048897D03*
X032149Y048897D03*
X032489Y046267D03*
X033158Y046267D03*
X029608Y046797D03*
X028939Y046797D03*
X027918Y045207D03*
X027249Y045207D03*
X024188Y043537D03*
X023519Y043537D03*
X026249Y040587D03*
X026918Y040587D03*
X025428Y040257D03*
X024759Y040257D03*
X019968Y046267D03*
X019299Y046267D03*
X019628Y048897D03*
X018959Y048897D03*
X020429Y049087D03*
X021098Y049087D03*
X023019Y048567D03*
X023688Y048567D03*
X023598Y054457D03*
X022929Y054457D03*
X022699Y057397D03*
X023368Y057397D03*
X021028Y058357D03*
X020359Y058357D03*
X010498Y048567D03*
X009829Y048567D03*
X014059Y045207D03*
X014728Y045207D03*
X015749Y046797D03*
X016418Y046797D03*
X010998Y043537D03*
X010329Y043537D03*
X011569Y040257D03*
X012238Y040257D03*
X013059Y040587D03*
X013728Y040587D03*
X012148Y033307D03*
X011479Y033307D03*
X010388Y025217D03*
X009719Y025217D03*
X009849Y023807D03*
X010518Y023807D03*
X010799Y018047D03*
X011468Y018047D03*
X010048Y018057D03*
X009379Y018057D03*
X014159Y014837D03*
X014828Y014837D03*
X015709Y014837D03*
X016378Y014837D03*
X019739Y016657D03*
X020408Y016657D03*
X022479Y018057D03*
X023148Y018057D03*
X023899Y018047D03*
X024568Y018047D03*
X027259Y014837D03*
X027928Y014837D03*
X028809Y014837D03*
X029478Y014837D03*
X032839Y016657D03*
X033508Y016657D03*
X033609Y023697D03*
X034278Y023697D03*
X034058Y025997D03*
X033389Y025997D03*
X037409Y032887D03*
X038078Y032887D03*
X038028Y034237D03*
X037359Y034237D03*
X039459Y034287D03*
X040128Y034287D03*
X044609Y028027D03*
X045278Y028027D03*
X046409Y028027D03*
X047078Y028027D03*
X047059Y031387D03*
X047728Y031387D03*
X047728Y032187D03*
X047059Y032187D03*
X047474Y037422D03*
X047474Y038092D03*
X046928Y041237D03*
X046259Y041237D03*
X045178Y041237D03*
X044509Y041237D03*
X047394Y055812D03*
X047394Y056482D03*
X025338Y033307D03*
X024669Y033307D03*
X020958Y025997D03*
X020289Y025997D03*
X020509Y023697D03*
X021178Y023697D03*
X022949Y023807D03*
X023618Y023807D03*
X023488Y025217D03*
X022819Y025217D03*
X019948Y008327D03*
X019279Y008327D03*
X018188Y008327D03*
X017519Y008327D03*
X026659Y003087D03*
X027328Y003087D03*
X027739Y008167D03*
X028408Y008167D03*
X044609Y016297D03*
X045278Y016297D03*
X046409Y016297D03*
X047078Y016297D03*
X010408Y054457D03*
X009739Y054457D03*
X009549Y057397D03*
X010218Y057397D03*
D25*
X035844Y062047D03*
X036844Y062047D03*
X037344Y063047D03*
X036344Y063047D03*
X036354Y041057D03*
X037354Y041057D03*
X036854Y040057D03*
X035854Y040057D03*
X036344Y027877D03*
X037344Y027877D03*
X036844Y026877D03*
X035844Y026877D03*
X036344Y016147D03*
X037344Y016147D03*
X036844Y015147D03*
X035844Y015147D03*
X011024Y008087D03*
X010024Y008087D03*
X010524Y007087D03*
X009524Y007087D03*
D26*
X011277Y007287D02*
X011279Y007315D01*
X011285Y007343D01*
X011295Y007369D01*
X011308Y007394D01*
X011325Y007416D01*
X011345Y007436D01*
X011367Y007453D01*
X011392Y007466D01*
X011418Y007476D01*
X011446Y007482D01*
X011474Y007484D01*
X011502Y007482D01*
X011530Y007476D01*
X011556Y007466D01*
X011581Y007453D01*
X011603Y007436D01*
X011623Y007416D01*
X011640Y007394D01*
X011653Y007369D01*
X011663Y007343D01*
X011669Y007315D01*
X011671Y007287D01*
X011669Y007259D01*
X011663Y007231D01*
X011653Y007205D01*
X011640Y007180D01*
X011623Y007158D01*
X011603Y007138D01*
X011581Y007121D01*
X011556Y007108D01*
X011530Y007098D01*
X011502Y007092D01*
X011474Y007090D01*
X011446Y007092D01*
X011418Y007098D01*
X011392Y007108D01*
X011367Y007121D01*
X011345Y007138D01*
X011325Y007158D01*
X011308Y007180D01*
X011295Y007205D01*
X011285Y007231D01*
X011279Y007259D01*
X011277Y007287D01*
X031781Y006493D02*
X031783Y006520D01*
X031789Y006546D01*
X031799Y006572D01*
X031813Y006595D01*
X031830Y006616D01*
X031851Y006634D01*
X031873Y006648D01*
X031898Y006660D01*
X031924Y006667D01*
X031951Y006670D01*
X031978Y006669D01*
X032005Y006664D01*
X032030Y006655D01*
X032054Y006642D01*
X032076Y006625D01*
X032095Y006606D01*
X032110Y006583D01*
X032122Y006559D01*
X032130Y006533D01*
X032134Y006507D01*
X032134Y006479D01*
X032130Y006453D01*
X032122Y006427D01*
X032110Y006403D01*
X032095Y006380D01*
X032076Y006361D01*
X032054Y006344D01*
X032030Y006331D01*
X032005Y006322D01*
X031978Y006317D01*
X031951Y006316D01*
X031924Y006319D01*
X031898Y006326D01*
X031873Y006338D01*
X031851Y006352D01*
X031830Y006370D01*
X031813Y006391D01*
X031799Y006414D01*
X031789Y006440D01*
X031783Y006466D01*
X031781Y006493D01*
X031781Y004761D02*
X031783Y004788D01*
X031789Y004814D01*
X031799Y004840D01*
X031813Y004863D01*
X031830Y004884D01*
X031851Y004902D01*
X031873Y004916D01*
X031898Y004928D01*
X031924Y004935D01*
X031951Y004938D01*
X031978Y004937D01*
X032005Y004932D01*
X032030Y004923D01*
X032054Y004910D01*
X032076Y004893D01*
X032095Y004874D01*
X032110Y004851D01*
X032122Y004827D01*
X032130Y004801D01*
X032134Y004775D01*
X032134Y004747D01*
X032130Y004721D01*
X032122Y004695D01*
X032110Y004671D01*
X032095Y004648D01*
X032076Y004629D01*
X032054Y004612D01*
X032030Y004599D01*
X032005Y004590D01*
X031978Y004585D01*
X031951Y004584D01*
X031924Y004587D01*
X031898Y004594D01*
X031873Y004606D01*
X031851Y004620D01*
X031830Y004638D01*
X031813Y004659D01*
X031799Y004682D01*
X031789Y004708D01*
X031783Y004734D01*
X031781Y004761D01*
X037597Y015347D02*
X037599Y015375D01*
X037605Y015403D01*
X037615Y015429D01*
X037628Y015454D01*
X037645Y015476D01*
X037665Y015496D01*
X037687Y015513D01*
X037712Y015526D01*
X037738Y015536D01*
X037766Y015542D01*
X037794Y015544D01*
X037822Y015542D01*
X037850Y015536D01*
X037876Y015526D01*
X037901Y015513D01*
X037923Y015496D01*
X037943Y015476D01*
X037960Y015454D01*
X037973Y015429D01*
X037983Y015403D01*
X037989Y015375D01*
X037991Y015347D01*
X037989Y015319D01*
X037983Y015291D01*
X037973Y015265D01*
X037960Y015240D01*
X037943Y015218D01*
X037923Y015198D01*
X037901Y015181D01*
X037876Y015168D01*
X037850Y015158D01*
X037822Y015152D01*
X037794Y015150D01*
X037766Y015152D01*
X037738Y015158D01*
X037712Y015168D01*
X037687Y015181D01*
X037665Y015198D01*
X037645Y015218D01*
X037628Y015240D01*
X037615Y015265D01*
X037605Y015291D01*
X037599Y015319D01*
X037597Y015347D01*
X037597Y027077D02*
X037599Y027105D01*
X037605Y027133D01*
X037615Y027159D01*
X037628Y027184D01*
X037645Y027206D01*
X037665Y027226D01*
X037687Y027243D01*
X037712Y027256D01*
X037738Y027266D01*
X037766Y027272D01*
X037794Y027274D01*
X037822Y027272D01*
X037850Y027266D01*
X037876Y027256D01*
X037901Y027243D01*
X037923Y027226D01*
X037943Y027206D01*
X037960Y027184D01*
X037973Y027159D01*
X037983Y027133D01*
X037989Y027105D01*
X037991Y027077D01*
X037989Y027049D01*
X037983Y027021D01*
X037973Y026995D01*
X037960Y026970D01*
X037943Y026948D01*
X037923Y026928D01*
X037901Y026911D01*
X037876Y026898D01*
X037850Y026888D01*
X037822Y026882D01*
X037794Y026880D01*
X037766Y026882D01*
X037738Y026888D01*
X037712Y026898D01*
X037687Y026911D01*
X037665Y026928D01*
X037645Y026948D01*
X037628Y026970D01*
X037615Y026995D01*
X037605Y027021D01*
X037599Y027049D01*
X037597Y027077D01*
X037607Y040257D02*
X037609Y040285D01*
X037615Y040313D01*
X037625Y040339D01*
X037638Y040364D01*
X037655Y040386D01*
X037675Y040406D01*
X037697Y040423D01*
X037722Y040436D01*
X037748Y040446D01*
X037776Y040452D01*
X037804Y040454D01*
X037832Y040452D01*
X037860Y040446D01*
X037886Y040436D01*
X037911Y040423D01*
X037933Y040406D01*
X037953Y040386D01*
X037970Y040364D01*
X037983Y040339D01*
X037993Y040313D01*
X037999Y040285D01*
X038001Y040257D01*
X037999Y040229D01*
X037993Y040201D01*
X037983Y040175D01*
X037970Y040150D01*
X037953Y040128D01*
X037933Y040108D01*
X037911Y040091D01*
X037886Y040078D01*
X037860Y040068D01*
X037832Y040062D01*
X037804Y040060D01*
X037776Y040062D01*
X037748Y040068D01*
X037722Y040078D01*
X037697Y040091D01*
X037675Y040108D01*
X037655Y040128D01*
X037638Y040150D01*
X037625Y040175D01*
X037615Y040201D01*
X037609Y040229D01*
X037607Y040257D01*
X037597Y062247D02*
X037599Y062275D01*
X037605Y062303D01*
X037615Y062329D01*
X037628Y062354D01*
X037645Y062376D01*
X037665Y062396D01*
X037687Y062413D01*
X037712Y062426D01*
X037738Y062436D01*
X037766Y062442D01*
X037794Y062444D01*
X037822Y062442D01*
X037850Y062436D01*
X037876Y062426D01*
X037901Y062413D01*
X037923Y062396D01*
X037943Y062376D01*
X037960Y062354D01*
X037973Y062329D01*
X037983Y062303D01*
X037989Y062275D01*
X037991Y062247D01*
X037989Y062219D01*
X037983Y062191D01*
X037973Y062165D01*
X037960Y062140D01*
X037943Y062118D01*
X037923Y062098D01*
X037901Y062081D01*
X037876Y062068D01*
X037850Y062058D01*
X037822Y062052D01*
X037794Y062050D01*
X037766Y062052D01*
X037738Y062058D01*
X037712Y062068D01*
X037687Y062081D01*
X037665Y062098D01*
X037645Y062118D01*
X037628Y062140D01*
X037615Y062165D01*
X037605Y062191D01*
X037599Y062219D01*
X037597Y062247D01*
D27*
X037794Y062247D03*
X037804Y040257D03*
X037794Y027077D03*
X037794Y015347D03*
X011474Y007287D03*
D28*
X012533Y015947D03*
X012533Y016447D03*
X012533Y016947D03*
X012533Y017447D03*
X012533Y017947D03*
X012533Y018447D03*
X012533Y018947D03*
X012533Y019447D03*
X012533Y019947D03*
X012533Y020447D03*
X012533Y020947D03*
X012533Y021447D03*
X012533Y021947D03*
X012533Y022447D03*
X016155Y022447D03*
X016155Y021947D03*
X016155Y021447D03*
X016155Y020947D03*
X016155Y020447D03*
X016155Y019947D03*
X016155Y019447D03*
X016155Y018947D03*
X016155Y018447D03*
X016155Y017947D03*
X016155Y017447D03*
X016155Y016947D03*
X016155Y016447D03*
X016155Y015947D03*
X018523Y020717D03*
X018523Y021217D03*
X018523Y021717D03*
X018523Y022217D03*
X021145Y022217D03*
X021145Y021717D03*
X021145Y021217D03*
X021145Y020717D03*
X025633Y020947D03*
X025633Y021447D03*
X025633Y021947D03*
X025633Y022447D03*
X025633Y020447D03*
X025633Y019947D03*
X025633Y019447D03*
X025633Y018947D03*
X025633Y018447D03*
X025633Y017947D03*
X025633Y017447D03*
X025633Y016947D03*
X025633Y016447D03*
X025633Y015947D03*
X029255Y015947D03*
X029255Y016447D03*
X029255Y016947D03*
X029255Y017447D03*
X029255Y017947D03*
X029255Y018447D03*
X029255Y018947D03*
X029255Y019447D03*
X029255Y019947D03*
X029255Y020447D03*
X029255Y020947D03*
X029255Y021447D03*
X029255Y021947D03*
X029255Y022447D03*
X031623Y022217D03*
X031623Y021717D03*
X031623Y021217D03*
X031623Y020717D03*
X034245Y020717D03*
X034245Y021217D03*
X034245Y021717D03*
X034245Y022217D03*
X033465Y044007D03*
X033465Y044507D03*
X033465Y045007D03*
X033465Y045507D03*
X030843Y045507D03*
X030843Y045007D03*
X030843Y044507D03*
X030843Y044007D03*
X029285Y048077D03*
X029285Y048577D03*
X029285Y049077D03*
X029285Y049577D03*
X029285Y050077D03*
X029285Y050577D03*
X029285Y051077D03*
X029285Y051577D03*
X029285Y052077D03*
X029285Y052577D03*
X029285Y053077D03*
X029285Y053577D03*
X029285Y054077D03*
X029285Y054577D03*
X025663Y054577D03*
X025663Y054077D03*
X025663Y053577D03*
X025663Y053077D03*
X025663Y052577D03*
X025663Y052077D03*
X025663Y051577D03*
X025663Y051077D03*
X025663Y050577D03*
X025663Y050077D03*
X025663Y049577D03*
X025663Y049077D03*
X025663Y048577D03*
X025663Y048077D03*
X020275Y045507D03*
X020275Y045007D03*
X020275Y044507D03*
X020275Y044007D03*
X017653Y044007D03*
X017653Y044507D03*
X017653Y045007D03*
X017653Y045507D03*
X016095Y048077D03*
X016095Y048577D03*
X016095Y049077D03*
X016095Y049577D03*
X016095Y050077D03*
X016095Y050577D03*
X016095Y051077D03*
X016095Y051577D03*
X016095Y052077D03*
X016095Y052577D03*
X016095Y053077D03*
X016095Y053577D03*
X016095Y054077D03*
X016095Y054577D03*
X012473Y054577D03*
X012473Y054077D03*
X012473Y053577D03*
X012473Y053077D03*
X012473Y052577D03*
X012473Y052077D03*
X012473Y051577D03*
X012473Y051077D03*
X012473Y050577D03*
X012473Y050077D03*
X012473Y049577D03*
X012473Y049077D03*
X012473Y048577D03*
X012473Y048077D03*
D29*
X010174Y050547D03*
X010174Y052447D03*
X023364Y052447D03*
X023364Y050547D03*
X023294Y021827D03*
X023294Y019927D03*
X010194Y019927D03*
X010194Y021827D03*
D30*
X018684Y015837D03*
X018684Y015337D03*
X018684Y014837D03*
X018684Y014337D03*
X018684Y013837D03*
X018684Y013337D03*
X018684Y012837D03*
X021104Y012837D03*
X021104Y013337D03*
X021104Y013837D03*
X021104Y014337D03*
X021104Y014837D03*
X021104Y015337D03*
X021104Y015837D03*
X031784Y015837D03*
X031784Y015337D03*
X031784Y014837D03*
X031784Y014337D03*
X031784Y013837D03*
X031784Y013337D03*
X031784Y012837D03*
X034204Y012837D03*
X034204Y013337D03*
X034204Y013837D03*
X034204Y014337D03*
X034204Y014837D03*
X034204Y015337D03*
X034204Y015837D03*
X029484Y041417D03*
X029484Y041917D03*
X029484Y042417D03*
X029484Y042917D03*
X029484Y043417D03*
X029484Y043917D03*
X029484Y044417D03*
X027064Y044417D03*
X027064Y043917D03*
X027064Y043417D03*
X027064Y042917D03*
X027064Y042417D03*
X027064Y041917D03*
X027064Y041417D03*
X016294Y041417D03*
X016294Y041917D03*
X016294Y042417D03*
X016294Y042917D03*
X016294Y043417D03*
X016294Y043917D03*
X016294Y044417D03*
X013874Y044417D03*
X013874Y043917D03*
X013874Y043417D03*
X013874Y042917D03*
X013874Y042417D03*
X013874Y041917D03*
X013874Y041417D03*
D31*
X014224Y028017D03*
X014724Y027017D03*
X015224Y028017D03*
X016224Y028017D03*
X016724Y027017D03*
X015724Y027017D03*
X017224Y028017D03*
X017624Y025117D03*
X016624Y025117D03*
X014324Y025117D03*
X013324Y025117D03*
X026424Y025117D03*
X027424Y025117D03*
X027824Y027017D03*
X028324Y028017D03*
X028824Y027017D03*
X029824Y027017D03*
X030324Y028017D03*
X029324Y028017D03*
X027324Y028017D03*
X029724Y025117D03*
X030724Y025117D03*
X030944Y057127D03*
X029944Y057127D03*
X030044Y059027D03*
X029044Y059027D03*
X028044Y059027D03*
X028544Y060027D03*
X027544Y060027D03*
X029544Y060027D03*
X030544Y060027D03*
X027644Y057127D03*
X026644Y057127D03*
X017754Y057127D03*
X016754Y057127D03*
X016854Y059027D03*
X015854Y059027D03*
X014854Y059027D03*
X015354Y060027D03*
X014354Y060027D03*
X016354Y060027D03*
X017354Y060027D03*
X014454Y057127D03*
X013454Y057127D03*
D32*
X013854Y059027D03*
X027044Y059027D03*
X035944Y030487D03*
X045444Y030487D03*
X026824Y027017D03*
X013724Y027017D03*
X017664Y003787D03*
D33*
X018574Y029317D03*
X012374Y029317D03*
X025474Y029317D03*
X031674Y029317D03*
X031894Y061327D03*
X025694Y061327D03*
X018704Y061327D03*
X012504Y061327D03*
D34*
X013354Y062527D03*
X017854Y062527D03*
X026544Y062527D03*
X031044Y062527D03*
X030824Y030517D03*
X026324Y030517D03*
X017724Y030517D03*
X013224Y030517D03*
D35*
X011374Y014597D03*
X010464Y014597D03*
X009554Y014597D03*
X022654Y014597D03*
X023564Y014597D03*
X024474Y014597D03*
X020834Y050397D03*
X019924Y050397D03*
X019014Y050397D03*
X032204Y050397D03*
X033114Y050397D03*
X034024Y050397D03*
D36*
X030974Y039827D03*
X030974Y039327D03*
X030974Y038827D03*
X030974Y038327D03*
X030974Y037827D03*
X030974Y037327D03*
X030974Y036827D03*
X030974Y036327D03*
X030974Y035827D03*
X030974Y035327D03*
X030974Y034827D03*
X030974Y034327D03*
X030974Y033827D03*
X030974Y033327D03*
X026924Y033327D03*
X026924Y033827D03*
X026924Y034327D03*
X026924Y034827D03*
X026924Y035327D03*
X026924Y035827D03*
X026924Y036327D03*
X026924Y036827D03*
X026924Y037327D03*
X026924Y037827D03*
X026924Y038327D03*
X026924Y038827D03*
X026924Y039327D03*
X026924Y039827D03*
X017784Y039827D03*
X017784Y039327D03*
X017784Y038827D03*
X017784Y038327D03*
X017784Y037827D03*
X017784Y037327D03*
X017784Y036827D03*
X017784Y036327D03*
X017784Y035827D03*
X017784Y035327D03*
X017784Y034827D03*
X017784Y034327D03*
X017784Y033827D03*
X017784Y033327D03*
X013734Y033327D03*
X013734Y033827D03*
X013734Y034327D03*
X013734Y034827D03*
X013734Y035327D03*
X013734Y035827D03*
X013734Y036327D03*
X013734Y036827D03*
X013734Y037327D03*
X013734Y037827D03*
X013734Y038327D03*
X013734Y038827D03*
X013734Y039327D03*
X013734Y039827D03*
D37*
X019484Y039637D03*
X019484Y038637D03*
X019484Y040637D03*
X019484Y041637D03*
X032674Y041637D03*
X032674Y040637D03*
X032674Y039637D03*
X032674Y038637D03*
D38*
X024638Y042004D03*
X023890Y042004D03*
X024264Y042870D03*
X011448Y042004D03*
X010700Y042004D03*
X011074Y042870D03*
D39*
X035944Y029487D03*
X036944Y029487D03*
X037944Y029487D03*
X038944Y029487D03*
X039944Y029487D03*
X040944Y029487D03*
X041944Y029487D03*
X042944Y029487D03*
X042944Y030487D03*
X041944Y030487D03*
X040944Y030487D03*
X039944Y030487D03*
X038944Y030487D03*
X037944Y030487D03*
X036944Y030487D03*
X045444Y029487D03*
X046444Y029487D03*
X047444Y029487D03*
X047444Y030487D03*
X046444Y030487D03*
X023754Y007507D03*
X023754Y006507D03*
X023754Y005507D03*
X023754Y004507D03*
X023754Y003507D03*
X023754Y002507D03*
X020664Y002787D03*
X020664Y003787D03*
X019664Y003787D03*
X019664Y002787D03*
X018664Y002787D03*
X018664Y003787D03*
X017664Y002787D03*
D40*
X036084Y033537D03*
X036394Y033537D03*
X036704Y033537D03*
D41*
X040761Y034987D03*
X041627Y035361D03*
X041627Y034613D03*
D42*
X039427Y035137D03*
X038561Y035137D03*
X038177Y035137D03*
X037311Y035137D03*
D43*
X036817Y035103D03*
X036817Y034434D03*
D44*
X035675Y034768D03*
D45*
X029177Y007074D03*
X028921Y007074D03*
X028665Y007074D03*
X028409Y007074D03*
X028153Y007074D03*
X027898Y007074D03*
X027642Y007074D03*
X027386Y007074D03*
X027130Y007074D03*
X026874Y007074D03*
X026618Y007074D03*
X026362Y007074D03*
X026106Y007074D03*
X025850Y007074D03*
X025850Y004220D03*
X026106Y004220D03*
X026362Y004220D03*
X026618Y004220D03*
X026874Y004220D03*
X027130Y004220D03*
X027386Y004220D03*
X027642Y004220D03*
X027898Y004220D03*
X028153Y004220D03*
X028409Y004220D03*
X028665Y004220D03*
X028921Y004220D03*
X029177Y004220D03*
D46*
X031013Y004997D03*
X031013Y005312D03*
X031013Y005627D03*
X031013Y005942D03*
X031013Y006257D03*
D47*
X031958Y006493D03*
X031958Y004761D03*
D48*
X032706Y003698D03*
X032706Y007556D03*
D49*
X031013Y007556D03*
X031013Y003698D03*
D50*
X030854Y011708D03*
X031839Y011708D03*
X032823Y011708D03*
X029870Y011708D03*
X028886Y011708D03*
X027902Y011708D03*
X026917Y011708D03*
X025933Y011708D03*
X024949Y011708D03*
X023965Y011708D03*
X019723Y011708D03*
X018739Y011708D03*
X017754Y011708D03*
X016770Y011708D03*
X015786Y011708D03*
X014802Y011708D03*
X013817Y011708D03*
X012833Y011708D03*
X011849Y011708D03*
X010865Y011708D03*
D51*
X013534Y007105D03*
X017334Y006717D03*
X017544Y007257D03*
X018724Y008307D03*
X019734Y006457D03*
X020244Y006837D03*
X021084Y007187D03*
X018524Y005767D03*
X009524Y004267D03*
X035864Y012917D03*
X039814Y015095D03*
X041534Y013597D03*
X043664Y014527D03*
X043874Y015037D03*
X044854Y013637D03*
X046184Y014367D03*
X046574Y014747D03*
X047364Y015247D03*
X045854Y016277D03*
X046914Y019097D03*
X045304Y021417D03*
X045684Y021797D03*
X046184Y021537D03*
X044764Y021777D03*
X044154Y021767D03*
X044224Y020607D03*
X044194Y019927D03*
X044854Y025367D03*
X043664Y026257D03*
X043874Y026767D03*
X045854Y028007D03*
X046574Y026477D03*
X046184Y026097D03*
X047364Y026977D03*
X043944Y029987D03*
X043994Y031697D03*
X043644Y032437D03*
X044114Y033257D03*
X044494Y032897D03*
X044794Y034087D03*
X045294Y034087D03*
X045844Y034137D03*
X045944Y033637D03*
X045544Y034587D03*
X045044Y034587D03*
X044744Y035037D03*
X044244Y035037D03*
X044264Y034297D03*
X042844Y035087D03*
X042244Y035307D03*
X042244Y034787D03*
X042894Y033187D03*
X041794Y032237D03*
X041444Y031737D03*
X040594Y032837D03*
X039494Y031557D03*
X038944Y031687D03*
X038444Y031687D03*
X037944Y031687D03*
X037444Y031707D03*
X037294Y032257D03*
X036544Y031887D03*
X035594Y032097D03*
X036324Y035337D03*
X037894Y036307D03*
X036594Y037777D03*
X035814Y037767D03*
X039864Y040035D03*
X041534Y038587D03*
X041544Y036687D03*
X040034Y035087D03*
X044854Y038577D03*
X045854Y039627D03*
X045704Y041217D03*
X043824Y040317D03*
X047674Y040497D03*
X047024Y036097D03*
X047504Y033307D03*
X047494Y032787D03*
X045894Y031487D03*
X041534Y025327D03*
X039814Y026825D03*
X035864Y024647D03*
X044154Y010037D03*
X044764Y010047D03*
X045304Y009687D03*
X045684Y010067D03*
X046184Y009807D03*
X044224Y008877D03*
X044194Y008197D03*
X046914Y007367D03*
X046204Y053017D03*
X044834Y055347D03*
X044294Y055247D03*
X043814Y055487D03*
X043214Y055537D03*
X043164Y056817D03*
X042624Y056847D03*
X044854Y059687D03*
X043974Y061277D03*
X043404Y063227D03*
X046034Y062157D03*
X047364Y060497D03*
X041534Y060497D03*
X039814Y061995D03*
X036844Y059727D03*
X035964Y059717D03*
D52*
X033454Y057387D03*
X030894Y059397D03*
X030444Y058397D03*
X027034Y058237D03*
X025934Y060337D03*
X024544Y055947D03*
X023654Y055147D03*
X022974Y055947D03*
X024034Y053777D03*
X024884Y053157D03*
X024844Y051757D03*
X026624Y049077D03*
X027434Y048207D03*
X027824Y047347D03*
X028414Y047277D03*
X027454Y046627D03*
X026154Y047027D03*
X024284Y048597D03*
X020554Y046287D03*
X019204Y047177D03*
X019184Y048237D03*
X018404Y050037D03*
X016924Y047897D03*
X015224Y047277D03*
X014634Y047347D03*
X014264Y046627D03*
X012964Y047027D03*
X014244Y048207D03*
X013434Y049077D03*
X011094Y048597D03*
X011654Y051757D03*
X011694Y053157D03*
X010844Y053777D03*
X010464Y055147D03*
X009784Y055947D03*
X011354Y055947D03*
X012724Y055617D03*
X013944Y055657D03*
X015144Y053087D03*
X017414Y054627D03*
X018024Y053017D03*
X018614Y052867D03*
X019894Y053667D03*
X020264Y057387D03*
X017704Y059397D03*
X017254Y058397D03*
X013844Y058237D03*
X012744Y060337D03*
X025914Y055617D03*
X027134Y055657D03*
X028334Y053087D03*
X030604Y054627D03*
X031214Y053017D03*
X031804Y052867D03*
X033084Y053667D03*
X031594Y050037D03*
X032374Y048237D03*
X032394Y047177D03*
X033744Y046287D03*
X034364Y044517D03*
X032464Y044527D03*
X031794Y044017D03*
X032434Y043167D03*
X030594Y043497D03*
X028884Y044927D03*
X028394Y043757D03*
X027904Y044007D03*
X027844Y043357D03*
X027864Y041907D03*
X028724Y041547D03*
X028884Y039747D03*
X029304Y039357D03*
X029804Y039637D03*
X030814Y040827D03*
X027694Y039707D03*
X025784Y041017D03*
X024594Y041167D03*
X025724Y043037D03*
X026194Y043437D03*
X025724Y044277D03*
X026334Y044367D03*
X023024Y043177D03*
X022554Y043997D03*
X021174Y044517D03*
X019274Y044527D03*
X018604Y044017D03*
X019244Y043167D03*
X017404Y043497D03*
X015694Y044927D03*
X015204Y043757D03*
X014714Y044007D03*
X014654Y043357D03*
X014674Y041907D03*
X015534Y041547D03*
X015694Y039747D03*
X016114Y039357D03*
X016614Y039637D03*
X017624Y040827D03*
X014504Y039707D03*
X012594Y041017D03*
X011404Y041167D03*
X012534Y043037D03*
X013004Y043437D03*
X012534Y044277D03*
X013144Y044367D03*
X009834Y043177D03*
X009364Y043997D03*
X012414Y038587D03*
X014484Y037147D03*
X014444Y036327D03*
X015124Y035537D03*
X014494Y034347D03*
X013034Y035657D03*
X012714Y033327D03*
X016524Y035007D03*
X016934Y034097D03*
X019424Y035507D03*
X018434Y036857D03*
X025604Y038587D03*
X027674Y037147D03*
X027634Y036327D03*
X028314Y035537D03*
X027684Y034347D03*
X026224Y035657D03*
X025904Y033327D03*
X029714Y035007D03*
X030124Y034097D03*
X032614Y035507D03*
X031624Y036857D03*
X030064Y045517D03*
X030114Y047897D03*
X042844Y053497D03*
X016874Y045517D03*
X036594Y024577D03*
X036594Y012847D03*
X015214Y005727D03*
X010294Y004247D03*
D53*
X015704Y013007D03*
X016284Y012877D03*
X017814Y013337D03*
X017934Y013907D03*
X017534Y014347D03*
X017824Y015057D03*
X017594Y015927D03*
X019114Y016657D03*
X019054Y017427D03*
X020564Y017457D03*
X021364Y017927D03*
X020954Y019037D03*
X019794Y019867D03*
X018424Y019917D03*
X017674Y021427D03*
X017104Y020967D03*
X017624Y022297D03*
X017754Y023087D03*
X015094Y023517D03*
X014364Y023427D03*
X014684Y022137D03*
X015124Y020297D03*
X013354Y019437D03*
X013404Y018597D03*
X013354Y017947D03*
X013484Y016447D03*
X013374Y015197D03*
X010494Y013777D03*
X009374Y017017D03*
X011354Y018907D03*
X011344Y021827D03*
X011114Y023247D03*
X011714Y023757D03*
X012514Y023807D03*
X009544Y024397D03*
X011164Y028017D03*
X013084Y028417D03*
X013094Y027017D03*
X009364Y028997D03*
X017934Y028047D03*
X021154Y024717D03*
X022644Y024397D03*
X024214Y023247D03*
X024814Y023757D03*
X025614Y023807D03*
X027464Y023427D03*
X028194Y023517D03*
X027784Y022137D03*
X028224Y020297D03*
X026454Y019437D03*
X026504Y018597D03*
X026454Y017947D03*
X026584Y016447D03*
X026474Y015197D03*
X028804Y013007D03*
X029384Y012877D03*
X030914Y013337D03*
X031034Y013907D03*
X030634Y014347D03*
X030924Y015057D03*
X030694Y015927D03*
X032214Y016657D03*
X032154Y017427D03*
X033664Y017457D03*
X034464Y017927D03*
X034054Y019037D03*
X032894Y019867D03*
X031524Y019917D03*
X030774Y021427D03*
X030204Y020967D03*
X030724Y022297D03*
X030854Y023087D03*
X034254Y024717D03*
X031034Y028047D03*
X026184Y028417D03*
X026194Y027017D03*
X024264Y028017D03*
X022464Y028997D03*
X024444Y021827D03*
X024454Y018907D03*
X022474Y017017D03*
X019634Y014817D03*
X023594Y013777D03*
X032734Y014817D03*
M02*
