%
M48
M72
T01C0.0236
T02C0.0240
T03C0.0276
T04C0.0280
T05C0.0350
T06C0.0354
T07C0.0360
T08C0.0394
T09C0.0400
T10C0.0591
T11C0.1299
%
T01
X9524Y4267
X13534Y7105
X17334Y6717
X17544Y7257
X18724Y8307
X19734Y6457
X20244Y6837
X21084Y7187
X18524Y5767
X35864Y12917
X39814Y15095
X41534Y13597
X43664Y14527
X43874Y15037
X44854Y13637
X46184Y14367
X46574Y14747
X47364Y15247
X45854Y16277
X46914Y19097
X45304Y21417
X45684Y21797
X46184Y21537
X44764Y21777
X44154Y21767
X44224Y20607
X44194Y19927
X44854Y25367
X43664Y26257
X43874Y26767
X45854Y28007
X46574Y26477
X46184Y26097
X47364Y26977
X43944Y29987
X43994Y31697
X43644Y32437
X44114Y33257
X44494Y32897
X44794Y34087
X45294Y34087
X45844Y34137
X45944Y33637
X45544Y34587
X45044Y34587
X44744Y35037
X44244Y35037
X44264Y34297
X42844Y35087
X42244Y35307
X42244Y34787
X42894Y33187
X41794Y32237
X41444Y31737
X40594Y32837
X39494Y31557
X38944Y31687
X38444Y31687
X37944Y31687
X37444Y31707
X37294Y32257
X36544Y31887
X35594Y32097
X36324Y35337
X37894Y36307
X36594Y37777
X35814Y37767
X39864Y40035
X41534Y38587
X41544Y36687
X40034Y35087
X44854Y38577
X45854Y39627
X45704Y41217
X43824Y40317
X47674Y40497
X47024Y36097
X47504Y33307
X47494Y32787
X45894Y31487
X41534Y25327
X39814Y26825
X35864Y24647
X44154Y10037
X44764Y10047
X45304Y9687
X45684Y10067
X46184Y9807
X44224Y8877
X44194Y8197
X46914Y7367
X46204Y53017
X44834Y55347
X44294Y55247
X43814Y55487
X43214Y55537
X43164Y56817
X42624Y56847
X44854Y59687
X43974Y61277
X43404Y63227
X46034Y62157
X47364Y60497
X41534Y60497
X39814Y61995
X36844Y59727
X35964Y59717
T02
X33454Y57387
X30894Y59397
X30444Y58397
X27034Y58237
X25934Y60337
X24544Y55947
X23654Y55147
X22974Y55947
X24034Y53777
X24884Y53157
X24844Y51757
X26624Y49077
X27434Y48207
X27824Y47347
X28414Y47277
X27454Y46627
X26154Y47027
X24284Y48597
X20554Y46287
X19204Y47177
X19184Y48237
X18404Y50037
X16924Y47897
X15224Y47277
X14634Y47347
X14264Y46627
X12964Y47027
X14244Y48207
X13434Y49077
X11094Y48597
X11654Y51757
X11694Y53157
X10844Y53777
X10464Y55147
X9784Y55947
X11354Y55947
X12724Y55617
X13944Y55657
X15144Y53087
X17414Y54627
X18024Y53017
X18614Y52867
X19894Y53667
X20264Y57387
X17704Y59397
X17254Y58397
X13844Y58237
X12744Y60337
X25914Y55617
X27134Y55657
X28334Y53087
X30604Y54627
X31214Y53017
X31804Y52867
X33084Y53667
X31594Y50037
X32374Y48237
X32394Y47177
X33744Y46287
X34364Y44517
X32464Y44527
X31794Y44017
X32434Y43167
X30594Y43497
X28884Y44927
X28394Y43757
X27904Y44007
X27844Y43357
X27864Y41907
X28724Y41547
X28884Y39747
X29304Y39357
X29804Y39637
X30814Y40827
X27694Y39707
X25784Y41017
X24594Y41167
X25724Y43037
X26194Y43437
X25724Y44277
X26334Y44367
X23024Y43177
X22554Y43997
X21174Y44517
X19274Y44527
X18604Y44017
X19244Y43167
X17404Y43497
X15694Y44927
X15204Y43757
X14714Y44007
X14654Y43357
X14674Y41907
X15534Y41547
X15694Y39747
X16114Y39357
X16614Y39637
X17624Y40827
X14504Y39707
X12594Y41017
X11404Y41167
X12534Y43037
X13004Y43437
X12534Y44277
X13144Y44367
X9834Y43177
X9364Y43997
X12414Y38587
X14484Y37147
X14444Y36327
X15124Y35537
X14494Y34347
X13034Y35657
X12714Y33327
X16524Y35007
X16934Y34097
X19424Y35507
X18434Y36857
X25604Y38587
X27674Y37147
X27634Y36327
X28314Y35537
X27684Y34347
X26224Y35657
X25904Y33327
X29714Y35007
X30124Y34097
X32614Y35507
X31624Y36857
X30064Y45517
X30114Y47897
X42844Y53497
X16874Y45517
X36594Y24577
X36594Y12847
X15214Y5727
X10294Y4247
T03
X44499Y12331
X44999Y11831
X45499Y12331
X45999Y11831
X46499Y12331
X46999Y11831
X46999Y23561
X46499Y24061
X45999Y23561
X45499Y24061
X44999Y23561
X44499Y24061
X45144Y36737
X45644Y37237
X46144Y36737
X46644Y37237
X47144Y36737
X44644Y37237
X44399Y57431
X44899Y57931
X45399Y57431
X45899Y57931
X46399Y57431
X43899Y57931
T04
X22464Y28997
X24264Y28017
X26184Y28417
X26194Y27017
X25614Y23807
X24814Y23757
X24214Y23247
X24444Y21827
X24454Y18907
X26454Y19437
X26504Y18597
X26454Y17947
X26584Y16447
X26474Y15197
X28804Y13007
X29384Y12877
X30914Y13337
X31034Y13907
X30634Y14347
X30924Y15057
X30694Y15927
X32214Y16657
X32154Y17427
X33664Y17457
X34464Y17927
X34054Y19037
X32894Y19867
X31524Y19917
X30774Y21427
X30204Y20967
X30724Y22297
X30854Y23087
X28194Y23517
X27464Y23427
X27784Y22137
X28224Y20297
X32734Y14817
X23594Y13777
X22474Y17017
X21364Y17927
X20564Y17457
X19054Y17427
X19114Y16657
X17594Y15927
X17824Y15057
X17534Y14347
X17934Y13907
X17814Y13337
X16284Y12877
X15704Y13007
X13374Y15197
X13484Y16447
X13354Y17947
X13404Y18597
X13354Y19437
X15124Y20297
X14684Y22137
X14364Y23427
X15094Y23517
X17104Y20967
X17674Y21427
X17624Y22297
X17754Y23087
X18424Y19917
X19794Y19867
X20954Y19037
X19634Y14817
X11354Y18907
X9374Y17017
X10494Y13777
X11344Y21827
X11114Y23247
X11714Y23757
X12514Y23807
X9544Y24397
X11164Y28017
X13084Y28417
X13094Y27017
X9364Y28997
X17934Y28047
X21154Y24717
X22644Y24397
X31034Y28047
X34254Y24717
T05
X23294Y21827
X23294Y19927
X10194Y19927
X10194Y21827
X10174Y50547
X10174Y52447
X23364Y52447
X23364Y50547
T06
X36354Y41057
X37354Y41057
X36854Y40057
X35854Y40057
X36344Y27877
X37344Y27877
X36844Y26877
X35844Y26877
X36344Y16147
X37344Y16147
X36844Y15147
X35844Y15147
X31958Y6493
X31958Y4761
X11024Y8087
X10024Y8087
X10524Y7087
X9524Y7087
X35844Y62047
X36844Y62047
X37344Y63047
X36344Y63047
T07
X32674Y41637
X32674Y40637
X32674Y39637
X32674Y38637
X19484Y38637
X19484Y39637
X19484Y40637
X19484Y41637
T08
X21104Y41827
X21104Y40827
X21104Y39827
X21104Y38827
X21104Y37827
X21104Y36827
X21104Y35827
X21104Y34827
X21104Y33827
X21104Y32827
X22794Y32827
X22794Y33827
X22794Y34827
X22794Y35827
X22794Y36827
X22794Y37827
X22794Y38827
X22794Y39827
X22794Y40827
X22794Y41827
X34294Y41827
X34294Y40827
X34294Y39827
X34294Y38827
X34294Y37827
X34294Y36827
X34294Y35827
X34294Y34827
X34294Y33827
X34294Y32827
X35944Y30487
X36944Y30487
X37944Y30487
X38944Y30487
X39944Y30487
X40944Y30487
X41944Y30487
X42944Y30487
X42944Y29487
X41944Y29487
X40944Y29487
X39944Y29487
X38944Y29487
X37944Y29487
X36944Y29487
X35944Y29487
X37794Y27077
X38444Y21127
X39444Y21127
X40444Y21127
X40444Y20127
X39444Y20127
X38444Y20127
X38444Y17927
X39444Y17927
X40444Y17927
X41444Y17927
X42444Y17927
X43444Y17927
X44444Y17927
X45444Y17927
X46444Y17927
X47444Y17927
X40444Y9397
X40444Y8397
X39444Y8397
X39444Y9397
X38444Y9397
X38444Y8397
X38444Y6197
X39444Y6197
X40444Y6197
X41444Y6197
X42444Y6197
X43444Y6197
X44444Y6197
X45444Y6197
X46444Y6197
X47444Y6197
X37794Y15347
X37444Y17927
X36444Y17927
X36444Y6197
X37444Y6197
X23754Y6507
X23754Y5507
X23754Y4507
X23754Y3507
X23754Y2507
X20664Y2787
X20664Y3787
X19664Y3787
X19664Y2787
X18664Y2787
X18664Y3787
X17664Y3787
X17664Y2787
X23754Y7507
X11474Y7287
X9604Y32827
X9604Y33827
X9604Y34827
X9604Y35827
X9604Y36827
X9604Y37827
X9604Y38827
X9604Y39827
X9604Y40827
X9604Y41827
X36144Y42597
X36144Y43597
X37144Y43597
X38144Y43597
X38144Y42597
X37144Y42597
X39144Y42597
X40144Y42597
X40144Y43597
X39144Y43597
X39144Y44597
X40144Y44597
X40144Y45597
X39144Y45597
X39144Y46597
X40144Y46597
X40144Y47597
X39144Y47597
X39144Y48597
X40144Y48597
X40144Y49597
X39144Y49597
X39144Y50597
X40144Y50597
X40144Y51597
X39144Y51597
X38144Y51597
X38144Y50597
X37144Y50597
X37144Y51597
X36144Y51597
X36144Y50597
X36144Y49597
X36144Y48597
X37144Y48597
X38144Y48597
X38144Y49597
X37144Y49597
X37144Y47597
X38144Y47597
X38144Y46597
X37144Y46597
X37144Y45597
X38144Y45597
X38144Y44597
X37144Y44597
X36144Y44597
X36144Y45597
X36144Y46597
X36144Y47597
X41144Y47597
X42144Y47597
X42144Y46597
X41144Y46597
X41144Y45597
X42144Y45597
X42144Y44597
X41144Y44597
X41144Y43597
X42144Y43597
X42144Y42597
X41144Y42597
X43144Y42597
X44144Y42597
X44144Y43597
X43144Y43597
X43144Y44597
X44144Y44597
X44144Y45597
X43144Y45597
X43144Y46597
X44144Y46597
X44144Y47597
X43144Y47597
X43144Y48597
X44144Y48597
X44144Y49597
X43144Y49597
X43144Y50597
X44144Y50597
X44144Y51597
X43144Y51597
X42144Y51597
X42144Y50597
X41144Y50597
X41144Y51597
X41144Y49597
X42144Y49597
X42144Y48597
X41144Y48597
X45144Y48597
X46144Y48597
X46144Y49597
X45144Y49597
X45144Y50597
X46144Y50597
X46144Y51597
X45144Y51597
X47144Y51597
X47144Y50597
X47144Y49597
X47144Y48597
X47144Y47597
X47144Y46597
X47144Y45597
X47144Y44597
X47144Y43597
X47144Y42597
X46144Y42597
X46144Y43597
X45144Y43597
X45144Y42597
X45144Y44597
X46144Y44597
X46144Y45597
X45144Y45597
X45144Y46597
X46144Y46597
X46144Y47597
X45144Y47597
X38284Y54347
X37284Y54347
X37284Y55347
X38284Y55347
X38284Y56347
X37284Y56347
X37794Y62247
X37804Y40257
X45444Y30487
X46444Y30487
X47444Y30487
X47444Y29487
X46444Y29487
X45444Y29487
T09
X30724Y25117
X29724Y25117
X29824Y27017
X28824Y27017
X29324Y28017
X30324Y28017
X28324Y28017
X27824Y27017
X26824Y27017
X27324Y28017
X27424Y25117
X26424Y25117
X17624Y25117
X16624Y25117
X16724Y27017
X15724Y27017
X16224Y28017
X15224Y28017
X14724Y27017
X13724Y27017
X14224Y28017
X14324Y25117
X13324Y25117
X17224Y28017
X16770Y11708
X15786Y11708
X14802Y11708
X13817Y11708
X12833Y11708
X11849Y11708
X10865Y11708
X17754Y11708
X18739Y11708
X19723Y11708
X23965Y11708
X24949Y11708
X25933Y11708
X26917Y11708
X27902Y11708
X28886Y11708
X29870Y11708
X30854Y11708
X31839Y11708
X32823Y11708
X30944Y57127
X29944Y57127
X30044Y59027
X29044Y59027
X28044Y59027
X27044Y59027
X27544Y60027
X28544Y60027
X29544Y60027
X30544Y60027
X27644Y57127
X26644Y57127
X17754Y57127
X16754Y57127
X16854Y59027
X15854Y59027
X14854Y59027
X13854Y59027
X14354Y60027
X15354Y60027
X16354Y60027
X17354Y60027
X14454Y57127
X13454Y57127
T10
X12504Y61327
X18704Y61327
X25694Y61327
X31894Y61327
X31674Y29317
X25474Y29317
X18574Y29317
X12374Y29317
T11
X13224Y30517
X17724Y30517
X26324Y30517
X30824Y30517
X31044Y62527
X26544Y62527
X17854Y62527
X13354Y62527
M30
