G75*
G70*
%OFA0B0*%
%FSLAX24Y24*%
%IPPOS*%
%LPD*%
%AMOC8*
5,1,8,0,0,1.08239X$1,22.5*
%
%ADD10C,0.0100*%
%ADD11C,0.0300*%
%ADD12R,0.0283X0.0913*%
%ADD13R,0.0187X0.0622*%
%ADD14C,0.0571*%
%ADD15R,0.0571X0.0571*%
%ADD16R,0.0472X0.0512*%
%ADD17R,0.0709X0.2087*%
%ADD18R,0.0512X0.0472*%
%ADD19R,0.0576X0.0976*%
%ADD20R,0.1591X0.1039*%
%ADD21R,0.0630X0.0236*%
%ADD22R,0.0236X0.0630*%
%ADD23R,0.0478X0.0468*%
%ADD24C,0.0665*%
%ADD25C,0.0000*%
%ADD26C,0.0472*%
%ADD27R,0.0882X0.0567*%
%ADD28C,0.0520*%
%ADD29C,0.0992*%
%ADD30R,0.0614X0.0142*%
%ADD31R,0.0468X0.0478*%
%ADD32O,0.1220X0.0665*%
%ADD33R,0.1094X0.0661*%
%ADD34C,0.1559*%
%ADD35C,0.0712*%
%ADD36R,0.0712X0.0712*%
%ADD37R,0.0142X0.0614*%
%ADD38C,0.0840*%
%ADD39R,0.0925X0.0236*%
%ADD40C,0.0425*%
%ADD41R,0.1736X0.0969*%
%ADD42R,0.1539X0.0969*%
%ADD43R,0.0792X0.0792*%
%ADD44R,0.0240X0.0440*%
%ADD45R,0.0630X0.0472*%
%ADD46R,0.0283X0.0283*%
%ADD47R,0.0425X0.0465*%
%ADD48R,0.0425X0.0504*%
%ADD49R,0.0614X0.0693*%
%ADD50R,0.1701X0.0756*%
%ADD51C,0.0780*%
%ADD52R,0.0752X0.0312*%
%ADD53R,0.0665X0.0665*%
%ADD54C,0.1063*%
%ADD55R,0.0976X0.0576*%
%ADD56R,0.1039X0.1591*%
%ADD57R,0.0472X0.0630*%
%ADD58R,0.0440X0.0240*%
%ADD59O,0.1306X0.0712*%
%ADD60C,0.0475*%
%ADD61C,0.0480*%
D10*
X001890Y001627D02*
X001890Y014369D01*
X001890Y014352D01*
X001890Y014369D02*
X001890Y026319D01*
X001890Y026227D01*
X001890Y026319D02*
X001890Y039719D01*
X001890Y039727D02*
X001890Y063869D01*
X014823Y063869D01*
X014823Y039727D01*
X014823Y039719D02*
X014823Y026219D01*
X014823Y014369D01*
X014823Y001627D01*
X001890Y001627D01*
X015040Y003327D02*
X015040Y017669D01*
X027973Y017669D01*
X027973Y003327D01*
X015040Y003327D01*
X014823Y014352D02*
X014823Y014369D01*
X015040Y017977D02*
X015040Y030869D01*
X027973Y030869D01*
X027973Y017977D01*
X015040Y017977D01*
X014823Y026219D02*
X014823Y026227D01*
X015040Y031127D02*
X015040Y044019D01*
X027973Y044019D01*
X027973Y031127D01*
X015040Y031127D01*
X016690Y044327D02*
X016690Y050669D01*
X041123Y050669D01*
X041123Y044327D01*
X016690Y044327D01*
X016690Y050927D02*
X016690Y057269D01*
X041123Y057269D01*
X041123Y050927D01*
X016690Y050927D01*
X016690Y057527D02*
X016690Y063869D01*
X041123Y063869D01*
X041123Y057527D01*
X016690Y057527D01*
X028190Y044019D02*
X028190Y024627D01*
X041123Y024627D01*
X041123Y044019D01*
X028190Y044019D01*
X028170Y024319D02*
X028170Y013027D01*
X041103Y013027D01*
X041103Y024319D01*
X028170Y024319D01*
X029437Y012687D02*
X040597Y012687D01*
X040597Y005207D01*
X029437Y005207D01*
X029437Y012687D01*
D11*
X050126Y049590D02*
X050126Y051291D01*
X050977Y051291D01*
X051260Y051008D01*
X051260Y050441D01*
X050977Y050157D01*
X050126Y050157D01*
X049419Y050441D02*
X049419Y051008D01*
X049135Y051291D01*
X048568Y051291D01*
X048284Y051008D01*
X048284Y050441D01*
X048568Y050157D01*
X049135Y050157D01*
X049419Y050441D01*
X047624Y050157D02*
X047340Y050441D01*
X047340Y051575D01*
X047057Y051291D02*
X047624Y051291D01*
X051968Y051008D02*
X053102Y051008D01*
X053809Y051008D02*
X054093Y051291D01*
X054943Y051291D01*
X054660Y050724D02*
X054093Y050724D01*
X053809Y051008D01*
X053809Y050157D02*
X054660Y050157D01*
X054943Y050441D01*
X054660Y050724D01*
X055651Y051291D02*
X056218Y051291D01*
X055934Y051575D02*
X055934Y050441D01*
X056218Y050157D01*
X056878Y050441D02*
X056878Y051008D01*
X057162Y051291D01*
X057729Y051291D01*
X058013Y051008D01*
X058013Y050441D01*
X057729Y050157D01*
X057162Y050157D01*
X056878Y050441D01*
X058720Y050157D02*
X059571Y050157D01*
X059854Y050441D01*
X059854Y051008D01*
X059571Y051291D01*
X058720Y051291D01*
X058720Y049590D01*
D12*
X030044Y041325D03*
X029544Y041325D03*
X029044Y041325D03*
X028544Y041325D03*
X028544Y039325D03*
X029044Y039325D03*
X029544Y039325D03*
X030044Y039325D03*
X018544Y045875D03*
X018044Y045875D03*
X017544Y045875D03*
X017044Y045875D03*
X017044Y047875D03*
X017544Y047875D03*
X018044Y047875D03*
X018544Y047875D03*
X018544Y052475D03*
X018044Y052475D03*
X017544Y052475D03*
X017044Y052475D03*
X017044Y054475D03*
X017544Y054475D03*
X018044Y054475D03*
X018544Y054475D03*
X018544Y059075D03*
X018044Y059075D03*
X017544Y059075D03*
X017044Y059075D03*
X017044Y061075D03*
X017544Y061075D03*
X018044Y061075D03*
X018544Y061075D03*
X003744Y061175D03*
X003244Y061175D03*
X002744Y061175D03*
X002244Y061175D03*
X002244Y059175D03*
X002744Y059175D03*
X003244Y059175D03*
X003744Y059175D03*
X015394Y041325D03*
X015894Y041325D03*
X016394Y041325D03*
X016894Y041325D03*
X016894Y039325D03*
X016394Y039325D03*
X015894Y039325D03*
X015394Y039325D03*
X015394Y028175D03*
X015894Y028175D03*
X016394Y028175D03*
X016894Y028175D03*
X016894Y026175D03*
X016394Y026175D03*
X015894Y026175D03*
X015394Y026175D03*
X015444Y014965D03*
X015944Y014965D03*
X016444Y014965D03*
X016944Y014965D03*
X016944Y012965D03*
X016444Y012965D03*
X015944Y012965D03*
X015444Y012965D03*
X003744Y011075D03*
X003244Y011075D03*
X002744Y011075D03*
X002244Y011075D03*
X002244Y009075D03*
X002744Y009075D03*
X003244Y009075D03*
X003744Y009075D03*
X003744Y020925D03*
X003244Y020925D03*
X002744Y020925D03*
X002244Y020925D03*
X002244Y022925D03*
X002744Y022925D03*
X003244Y022925D03*
X003744Y022925D03*
X003744Y034425D03*
X003244Y034425D03*
X002744Y034425D03*
X002244Y034425D03*
X002244Y036425D03*
X002744Y036425D03*
X003244Y036425D03*
X003744Y036425D03*
X028524Y021665D03*
X029024Y021665D03*
X029524Y021665D03*
X030024Y021665D03*
X030024Y019665D03*
X029524Y019665D03*
X029024Y019665D03*
X028524Y019665D03*
D13*
X026509Y016480D03*
X026253Y016480D03*
X025997Y016480D03*
X025741Y016480D03*
X025486Y016480D03*
X025230Y016480D03*
X024974Y016480D03*
X024718Y016480D03*
X024462Y016480D03*
X024206Y016480D03*
X024206Y014137D03*
X024462Y014137D03*
X024718Y014137D03*
X024974Y014137D03*
X025230Y014137D03*
X025486Y014137D03*
X025741Y014137D03*
X025997Y014137D03*
X026253Y014137D03*
X026509Y014137D03*
X037336Y020637D03*
X037592Y020637D03*
X037848Y020637D03*
X038104Y020637D03*
X038360Y020637D03*
X038616Y020637D03*
X038871Y020637D03*
X039127Y020637D03*
X039383Y020637D03*
X039639Y020637D03*
X039639Y022980D03*
X039383Y022980D03*
X039127Y022980D03*
X038871Y022980D03*
X038616Y022980D03*
X038360Y022980D03*
X038104Y022980D03*
X037848Y022980D03*
X037592Y022980D03*
X037336Y022980D03*
X026509Y027187D03*
X026253Y027187D03*
X025997Y027187D03*
X025741Y027187D03*
X025486Y027187D03*
X025230Y027187D03*
X024974Y027187D03*
X024718Y027187D03*
X024462Y027187D03*
X024206Y027187D03*
X024206Y029530D03*
X024462Y029530D03*
X024718Y029530D03*
X024974Y029530D03*
X025230Y029530D03*
X025486Y029530D03*
X025741Y029530D03*
X025997Y029530D03*
X026253Y029530D03*
X026509Y029530D03*
X026509Y040337D03*
X026253Y040337D03*
X025997Y040337D03*
X025741Y040337D03*
X025486Y040337D03*
X025230Y040337D03*
X024974Y040337D03*
X024718Y040337D03*
X024462Y040337D03*
X024206Y040337D03*
X024206Y042680D03*
X024462Y042680D03*
X024718Y042680D03*
X024974Y042680D03*
X025230Y042680D03*
X025486Y042680D03*
X025741Y042680D03*
X025997Y042680D03*
X026253Y042680D03*
X026509Y042680D03*
X026624Y046887D03*
X026880Y046887D03*
X027136Y046887D03*
X027391Y046887D03*
X027647Y046887D03*
X027903Y046887D03*
X028159Y046887D03*
X026368Y046887D03*
X026112Y046887D03*
X025856Y046887D03*
X025856Y049230D03*
X026112Y049230D03*
X026368Y049230D03*
X026624Y049230D03*
X026880Y049230D03*
X027136Y049230D03*
X027391Y049230D03*
X027647Y049230D03*
X027903Y049230D03*
X028159Y049230D03*
X028159Y053487D03*
X027903Y053487D03*
X027647Y053487D03*
X027391Y053487D03*
X027136Y053487D03*
X026880Y053487D03*
X026624Y053487D03*
X026368Y053487D03*
X026112Y053487D03*
X025856Y053487D03*
X025856Y055830D03*
X026112Y055830D03*
X026368Y055830D03*
X026624Y055830D03*
X026880Y055830D03*
X027136Y055830D03*
X027391Y055830D03*
X027647Y055830D03*
X027903Y055830D03*
X028159Y055830D03*
X028159Y060087D03*
X027903Y060087D03*
X027647Y060087D03*
X027391Y060087D03*
X027136Y060087D03*
X026880Y060087D03*
X026624Y060087D03*
X026368Y060087D03*
X026112Y060087D03*
X025856Y060087D03*
X025856Y062430D03*
X026112Y062430D03*
X026368Y062430D03*
X026624Y062430D03*
X026880Y062430D03*
X027136Y062430D03*
X027391Y062430D03*
X027647Y062430D03*
X027903Y062430D03*
X028159Y062430D03*
X013359Y062530D03*
X013103Y062530D03*
X012847Y062530D03*
X012591Y062530D03*
X012336Y062530D03*
X012080Y062530D03*
X011824Y062530D03*
X011568Y062530D03*
X011312Y062530D03*
X011056Y062530D03*
X011056Y060187D03*
X011312Y060187D03*
X011568Y060187D03*
X011824Y060187D03*
X012080Y060187D03*
X012336Y060187D03*
X012591Y060187D03*
X012847Y060187D03*
X013103Y060187D03*
X013359Y060187D03*
X013359Y037780D03*
X013103Y037780D03*
X012847Y037780D03*
X012591Y037780D03*
X012336Y037780D03*
X012080Y037780D03*
X011824Y037780D03*
X011568Y037780D03*
X011312Y037780D03*
X011056Y037780D03*
X011056Y035437D03*
X011312Y035437D03*
X011568Y035437D03*
X011824Y035437D03*
X012080Y035437D03*
X012336Y035437D03*
X012591Y035437D03*
X012847Y035437D03*
X013103Y035437D03*
X013359Y035437D03*
X013359Y024280D03*
X013103Y024280D03*
X012847Y024280D03*
X012591Y024280D03*
X012336Y024280D03*
X012080Y024280D03*
X011824Y024280D03*
X011568Y024280D03*
X011312Y024280D03*
X011056Y024280D03*
X011056Y021937D03*
X011312Y021937D03*
X011568Y021937D03*
X011824Y021937D03*
X012080Y021937D03*
X012336Y021937D03*
X012591Y021937D03*
X012847Y021937D03*
X013103Y021937D03*
X013359Y021937D03*
X013359Y012430D03*
X013103Y012430D03*
X012847Y012430D03*
X012591Y012430D03*
X012336Y012430D03*
X012080Y012430D03*
X011824Y012430D03*
X011568Y012430D03*
X011312Y012430D03*
X011056Y012430D03*
X011056Y010087D03*
X011312Y010087D03*
X011568Y010087D03*
X011824Y010087D03*
X012080Y010087D03*
X012336Y010087D03*
X012591Y010087D03*
X012847Y010087D03*
X013103Y010087D03*
X013359Y010087D03*
X037356Y040337D03*
X037612Y040337D03*
X037868Y040337D03*
X038124Y040337D03*
X038380Y040337D03*
X038636Y040337D03*
X038891Y040337D03*
X039147Y040337D03*
X039403Y040337D03*
X039659Y040337D03*
X039659Y042680D03*
X039403Y042680D03*
X039147Y042680D03*
X038891Y042680D03*
X038636Y042680D03*
X038380Y042680D03*
X038124Y042680D03*
X037868Y042680D03*
X037612Y042680D03*
X037356Y042680D03*
D14*
X038607Y039607D03*
X039107Y039107D03*
X039607Y039607D03*
X040107Y039107D03*
X038107Y039107D03*
X028607Y045657D03*
X028107Y046157D03*
X027607Y045657D03*
X027107Y046157D03*
X026607Y045657D03*
X026457Y039607D03*
X026957Y039107D03*
X025957Y039107D03*
X025457Y039607D03*
X024957Y039107D03*
X013807Y034207D03*
X013307Y034707D03*
X012807Y034207D03*
X012307Y034707D03*
X011807Y034207D03*
X012307Y021207D03*
X012807Y020707D03*
X013307Y021207D03*
X013807Y020707D03*
X011807Y020707D03*
X015557Y010957D03*
X013807Y008857D03*
X013307Y009357D03*
X012807Y008857D03*
X012307Y009357D03*
X011807Y008857D03*
X018557Y010957D03*
X024862Y012941D03*
X025362Y013441D03*
X025862Y012941D03*
X026362Y013441D03*
X026862Y012941D03*
X037942Y019441D03*
X038442Y019941D03*
X038942Y019441D03*
X039442Y019941D03*
X039942Y019441D03*
X026957Y025957D03*
X026457Y026457D03*
X025957Y025957D03*
X025457Y026457D03*
X024957Y025957D03*
X026607Y052257D03*
X027107Y052757D03*
X027607Y052257D03*
X028107Y052757D03*
X028607Y052257D03*
X028607Y058857D03*
X028107Y059357D03*
X027607Y058857D03*
X027107Y059357D03*
X026607Y058857D03*
X013807Y058957D03*
X013307Y059457D03*
X012807Y058957D03*
X012307Y059457D03*
X011807Y058957D03*
D15*
X011307Y059457D03*
X026107Y059357D03*
X026107Y052757D03*
X026107Y046157D03*
X024457Y039607D03*
X024457Y026457D03*
X024362Y013441D03*
X037442Y019941D03*
X037607Y039607D03*
X011307Y034707D03*
X011307Y021207D03*
X011307Y009357D03*
D16*
X009506Y006718D03*
X009506Y006049D03*
X014162Y005899D03*
X014162Y006568D03*
X014307Y010972D03*
X014307Y011642D03*
X018207Y016622D03*
X018207Y017292D03*
X019007Y017292D03*
X019007Y016622D03*
X020907Y016622D03*
X020907Y017292D03*
X024257Y019122D03*
X024257Y019792D03*
X022656Y023099D03*
X022656Y023768D03*
X027362Y023718D03*
X027362Y023049D03*
X031287Y023272D03*
X031287Y023942D03*
X032087Y023942D03*
X032087Y023272D03*
X034037Y023272D03*
X034037Y023942D03*
X040287Y022342D03*
X040287Y021672D03*
X040702Y017148D03*
X040702Y016479D03*
X035586Y016579D03*
X035586Y017248D03*
X027407Y015992D03*
X027407Y015322D03*
X027312Y010648D03*
X027312Y009979D03*
X022356Y010379D03*
X022356Y011048D03*
X014162Y017749D03*
X014162Y018418D03*
X014307Y022822D03*
X014307Y023492D03*
X011107Y027372D03*
X011107Y028042D03*
X009506Y031349D03*
X009506Y032018D03*
X014212Y031968D03*
X014212Y031299D03*
X018157Y030492D03*
X018157Y029822D03*
X018957Y029822D03*
X018957Y030492D03*
X020857Y030492D03*
X020857Y029822D03*
X024257Y032272D03*
X024257Y032942D03*
X022656Y036249D03*
X022656Y036918D03*
X027362Y036868D03*
X027362Y036199D03*
X027457Y041222D03*
X027457Y041892D03*
X031307Y042972D03*
X031307Y043642D03*
X032107Y043642D03*
X032107Y042972D03*
X034007Y042972D03*
X034007Y043642D03*
X029107Y047772D03*
X029107Y048442D03*
X029107Y054372D03*
X029107Y055042D03*
X029107Y060972D03*
X029107Y061642D03*
X022507Y062722D03*
X022507Y063392D03*
X020607Y063392D03*
X020607Y062722D03*
X019807Y062722D03*
X019807Y063392D03*
X014307Y061742D03*
X014307Y061072D03*
X014162Y056668D03*
X014162Y055999D03*
X009506Y056149D03*
X009506Y056818D03*
X005957Y053542D03*
X005957Y052872D03*
X003557Y045792D03*
X003557Y045122D03*
X005007Y038742D03*
X005007Y038072D03*
X005807Y038072D03*
X005807Y038742D03*
X007707Y038742D03*
X007707Y038072D03*
X014307Y036992D03*
X014307Y036322D03*
X018157Y042972D03*
X018157Y043642D03*
X018957Y043642D03*
X018957Y042972D03*
X020857Y042972D03*
X020857Y043642D03*
X020607Y049522D03*
X020607Y050192D03*
X019807Y050192D03*
X019807Y049522D03*
X022507Y049522D03*
X022507Y050192D03*
X022507Y056122D03*
X022507Y056792D03*
X020607Y056792D03*
X020607Y056122D03*
X019807Y056122D03*
X019807Y056792D03*
X007707Y062822D03*
X007707Y063492D03*
X005807Y063492D03*
X005807Y062822D03*
X005007Y062822D03*
X005007Y063492D03*
X035806Y036968D03*
X035806Y036299D03*
X040462Y036149D03*
X040462Y036818D03*
X040607Y041222D03*
X040607Y041892D03*
X027457Y028742D03*
X027457Y028072D03*
X040407Y028292D03*
X040407Y027622D03*
X036117Y007142D03*
X035477Y007142D03*
X035477Y006472D03*
X036117Y006472D03*
X009506Y018099D03*
X009506Y018768D03*
X003957Y017842D03*
X003957Y017172D03*
X005007Y013392D03*
X005007Y012722D03*
X005807Y012722D03*
X005807Y013392D03*
X007707Y013392D03*
X007707Y012722D03*
X007707Y024572D03*
X007707Y025242D03*
X005807Y025242D03*
X005807Y024572D03*
X005007Y024572D03*
X005007Y025242D03*
D17*
X009007Y024480D03*
X009007Y021134D03*
X009007Y012630D03*
X009007Y009284D03*
X022157Y013184D03*
X022157Y016530D03*
X022157Y026384D03*
X022157Y029730D03*
X022157Y039534D03*
X022157Y042880D03*
X023807Y046084D03*
X023807Y049430D03*
X023807Y052684D03*
X023807Y056030D03*
X023807Y059284D03*
X023807Y062630D03*
X013657Y051980D03*
X013657Y048634D03*
X009007Y037980D03*
X009007Y034634D03*
X009007Y059384D03*
X009007Y062730D03*
X033857Y036830D03*
X035307Y039534D03*
X035307Y042880D03*
X033857Y033484D03*
X035314Y023133D03*
X035314Y019787D03*
D18*
X037552Y023907D03*
X038221Y023907D03*
X039352Y023907D03*
X040021Y023907D03*
X033991Y030507D03*
X033322Y030507D03*
X033322Y032157D03*
X033991Y032157D03*
X032091Y037257D03*
X031422Y037257D03*
X027541Y034557D03*
X026872Y034557D03*
X026872Y033757D03*
X027541Y033757D03*
X026741Y030457D03*
X026072Y030457D03*
X024991Y030457D03*
X024322Y030457D03*
X028972Y026107D03*
X029641Y026107D03*
X029641Y025307D03*
X028972Y025307D03*
X027541Y021407D03*
X026872Y021407D03*
X026872Y020607D03*
X027541Y020607D03*
X026741Y017307D03*
X026072Y017307D03*
X024941Y017307D03*
X024272Y017307D03*
X019941Y023507D03*
X019272Y023507D03*
X017841Y023457D03*
X017172Y023457D03*
X017222Y022107D03*
X017891Y022107D03*
X013591Y025207D03*
X012922Y025207D03*
X011841Y025207D03*
X011172Y025207D03*
X013722Y028857D03*
X014391Y028857D03*
X014391Y029657D03*
X013722Y029657D03*
X017222Y035257D03*
X017891Y035257D03*
X017841Y036607D03*
X017172Y036607D03*
X019272Y036657D03*
X019941Y036657D03*
X013591Y038707D03*
X012922Y038707D03*
X011841Y038707D03*
X011172Y038707D03*
X013672Y044457D03*
X014341Y044457D03*
X013691Y047057D03*
X013022Y047057D03*
X012291Y047057D03*
X011622Y047057D03*
X011622Y048907D03*
X012291Y048907D03*
X012291Y049707D03*
X011622Y049707D03*
X011622Y052057D03*
X012291Y052057D03*
X012291Y053557D03*
X011622Y053557D03*
X013022Y053557D03*
X013691Y053557D03*
X007891Y055157D03*
X007222Y055157D03*
X007222Y056107D03*
X007891Y056107D03*
X007891Y057007D03*
X007222Y057007D03*
X011172Y063457D03*
X011841Y063457D03*
X012922Y063457D03*
X013591Y063457D03*
X025922Y063357D03*
X026591Y063357D03*
X027672Y063357D03*
X028341Y063357D03*
X031346Y063212D03*
X032015Y063212D03*
X034472Y063257D03*
X035141Y063257D03*
X036922Y063257D03*
X037591Y063257D03*
X037822Y058207D03*
X038491Y058207D03*
X037591Y056657D03*
X036922Y056657D03*
X035141Y056657D03*
X034472Y056657D03*
X034091Y058407D03*
X033422Y058407D03*
X031865Y058406D03*
X031196Y058406D03*
X031346Y056612D03*
X032015Y056612D03*
X028341Y056757D03*
X027672Y056757D03*
X026591Y056757D03*
X025922Y056757D03*
X031196Y051806D03*
X031865Y051806D03*
X033422Y051807D03*
X034091Y051807D03*
X034472Y050057D03*
X035141Y050057D03*
X036922Y050057D03*
X037591Y050057D03*
X037822Y051607D03*
X038491Y051607D03*
X034091Y045207D03*
X033422Y045207D03*
X031865Y045206D03*
X031196Y045206D03*
X026741Y043607D03*
X026072Y043607D03*
X024991Y043607D03*
X024322Y043607D03*
X025922Y050157D03*
X026591Y050157D03*
X027672Y050157D03*
X028341Y050157D03*
X031346Y050012D03*
X032015Y050012D03*
X037822Y045007D03*
X038491Y045007D03*
X038141Y043607D03*
X037472Y043607D03*
X039222Y043607D03*
X039891Y043607D03*
X013591Y013357D03*
X012922Y013357D03*
X011841Y013357D03*
X011172Y013357D03*
X005491Y018257D03*
X004822Y018257D03*
X004741Y030357D03*
X004072Y030357D03*
X004022Y031707D03*
X004691Y031707D03*
X006122Y031757D03*
X006791Y031757D03*
X003091Y047907D03*
X002422Y047907D03*
X034382Y011967D03*
X035051Y011967D03*
X033971Y006887D03*
X033302Y006887D03*
D19*
X033698Y019526D03*
X032788Y019526D03*
X031878Y019526D03*
X020568Y026076D03*
X019658Y026076D03*
X018748Y026076D03*
X007418Y020826D03*
X006508Y020826D03*
X005598Y020826D03*
X005598Y008976D03*
X006508Y008976D03*
X007418Y008976D03*
X018798Y012876D03*
X019708Y012876D03*
X020618Y012876D03*
X007418Y034326D03*
X006508Y034326D03*
X005598Y034326D03*
X018748Y039226D03*
X019658Y039226D03*
X020568Y039226D03*
X020398Y045776D03*
X021308Y045776D03*
X022218Y045776D03*
X022218Y052376D03*
X021308Y052376D03*
X020398Y052376D03*
X020398Y058976D03*
X021308Y058976D03*
X022218Y058976D03*
X007418Y059076D03*
X006508Y059076D03*
X005598Y059076D03*
X031898Y039226D03*
X032808Y039226D03*
X033718Y039226D03*
D20*
X032808Y041666D03*
X021308Y048216D03*
X021308Y054816D03*
X021308Y061416D03*
X006508Y061516D03*
X019658Y041666D03*
X019658Y028516D03*
X019708Y015316D03*
X006508Y011416D03*
X006508Y023266D03*
X006508Y036766D03*
X032788Y021966D03*
D21*
X036408Y017723D03*
X036408Y017408D03*
X036408Y017093D03*
X036408Y016778D03*
X036408Y016463D03*
X036408Y016148D03*
X036408Y015833D03*
X036408Y015519D03*
X039754Y015519D03*
X039754Y015833D03*
X039754Y016148D03*
X039754Y016463D03*
X039754Y016778D03*
X039754Y017093D03*
X039754Y017408D03*
X039754Y017723D03*
X026674Y022089D03*
X026674Y022403D03*
X026674Y022718D03*
X026674Y023033D03*
X026674Y023348D03*
X026674Y023663D03*
X026674Y023978D03*
X026674Y024293D03*
X023328Y024293D03*
X023328Y023978D03*
X023328Y023663D03*
X023328Y023348D03*
X023328Y023033D03*
X023328Y022718D03*
X023328Y022403D03*
X023328Y022089D03*
X013524Y019043D03*
X013524Y018728D03*
X013524Y018413D03*
X013524Y018098D03*
X013524Y017783D03*
X013524Y017468D03*
X013524Y017153D03*
X013524Y016839D03*
X010178Y016839D03*
X010178Y017153D03*
X010178Y017468D03*
X010178Y017783D03*
X010178Y018098D03*
X010178Y018413D03*
X010178Y018728D03*
X010178Y019043D03*
X010178Y030339D03*
X010178Y030653D03*
X010178Y030968D03*
X010178Y031283D03*
X010178Y031598D03*
X010178Y031913D03*
X010178Y032228D03*
X010178Y032543D03*
X013524Y032543D03*
X013524Y032228D03*
X013524Y031913D03*
X013524Y031598D03*
X013524Y031283D03*
X013524Y030968D03*
X013524Y030653D03*
X013524Y030339D03*
X023328Y035239D03*
X023328Y035553D03*
X023328Y035868D03*
X023328Y036183D03*
X023328Y036498D03*
X023328Y036813D03*
X023328Y037128D03*
X023328Y037443D03*
X026674Y037443D03*
X026674Y037128D03*
X026674Y036813D03*
X026674Y036498D03*
X026674Y036183D03*
X026674Y035868D03*
X026674Y035553D03*
X026674Y035239D03*
X036478Y035239D03*
X036478Y035553D03*
X036478Y035868D03*
X036478Y036183D03*
X036478Y036498D03*
X036478Y036813D03*
X036478Y037128D03*
X036478Y037443D03*
X039824Y037443D03*
X039824Y037128D03*
X039824Y036813D03*
X039824Y036498D03*
X039824Y036183D03*
X039824Y035868D03*
X039824Y035553D03*
X039824Y035239D03*
X033496Y046599D03*
X033496Y046914D03*
X033496Y047229D03*
X033496Y047544D03*
X033496Y047859D03*
X033496Y048174D03*
X033496Y048489D03*
X033496Y048804D03*
X030150Y048804D03*
X030150Y048489D03*
X030150Y048174D03*
X030150Y047859D03*
X030150Y047544D03*
X030150Y047229D03*
X030150Y046914D03*
X030150Y046599D03*
X030150Y053199D03*
X030150Y053514D03*
X030150Y053829D03*
X030150Y054144D03*
X030150Y054459D03*
X030150Y054774D03*
X030150Y055089D03*
X030150Y055404D03*
X033496Y055404D03*
X033496Y055089D03*
X033496Y054774D03*
X033496Y054459D03*
X033496Y054144D03*
X033496Y053829D03*
X033496Y053514D03*
X033496Y053199D03*
X033496Y059799D03*
X033496Y060114D03*
X033496Y060429D03*
X033496Y060744D03*
X033496Y061059D03*
X033496Y061374D03*
X033496Y061689D03*
X033496Y062004D03*
X030150Y062004D03*
X030150Y061689D03*
X030150Y061374D03*
X030150Y061059D03*
X030150Y060744D03*
X030150Y060429D03*
X030150Y060114D03*
X030150Y059799D03*
X013524Y057293D03*
X013524Y056978D03*
X013524Y056663D03*
X013524Y056348D03*
X013524Y056033D03*
X013524Y055718D03*
X013524Y055403D03*
X013524Y055089D03*
X010178Y055089D03*
X010178Y055403D03*
X010178Y055718D03*
X010178Y056033D03*
X010178Y056348D03*
X010178Y056663D03*
X010178Y056978D03*
X010178Y057293D03*
X023278Y011273D03*
X023278Y010958D03*
X023278Y010643D03*
X023278Y010328D03*
X023278Y010013D03*
X023278Y009698D03*
X023278Y009383D03*
X023278Y009069D03*
X026624Y009069D03*
X026624Y009383D03*
X026624Y009698D03*
X026624Y010013D03*
X026624Y010328D03*
X026624Y010643D03*
X026624Y010958D03*
X026624Y011273D03*
X013524Y007193D03*
X013524Y006878D03*
X013524Y006563D03*
X013524Y006248D03*
X013524Y005933D03*
X013524Y005618D03*
X013524Y005303D03*
X013524Y004989D03*
X010178Y004989D03*
X010178Y005303D03*
X010178Y005618D03*
X010178Y005933D03*
X010178Y006248D03*
X010178Y006563D03*
X010178Y006878D03*
X010178Y007193D03*
D22*
X010749Y007764D03*
X011064Y007764D03*
X011379Y007764D03*
X011694Y007764D03*
X012009Y007764D03*
X012324Y007764D03*
X012639Y007764D03*
X012953Y007764D03*
X012953Y004418D03*
X012639Y004418D03*
X012324Y004418D03*
X012009Y004418D03*
X011694Y004418D03*
X011379Y004418D03*
X011064Y004418D03*
X010749Y004418D03*
X010749Y016268D03*
X011064Y016268D03*
X011379Y016268D03*
X011694Y016268D03*
X012009Y016268D03*
X012324Y016268D03*
X012639Y016268D03*
X012953Y016268D03*
X012953Y019614D03*
X012639Y019614D03*
X012324Y019614D03*
X012009Y019614D03*
X011694Y019614D03*
X011379Y019614D03*
X011064Y019614D03*
X010749Y019614D03*
X010749Y029768D03*
X011064Y029768D03*
X011379Y029768D03*
X011694Y029768D03*
X012009Y029768D03*
X012324Y029768D03*
X012639Y029768D03*
X012953Y029768D03*
X012953Y033114D03*
X012639Y033114D03*
X012324Y033114D03*
X012009Y033114D03*
X011694Y033114D03*
X011379Y033114D03*
X011064Y033114D03*
X010749Y033114D03*
X023899Y034668D03*
X024214Y034668D03*
X024529Y034668D03*
X024844Y034668D03*
X025159Y034668D03*
X025474Y034668D03*
X025789Y034668D03*
X026103Y034668D03*
X026103Y038014D03*
X025789Y038014D03*
X025474Y038014D03*
X025159Y038014D03*
X024844Y038014D03*
X024529Y038014D03*
X024214Y038014D03*
X023899Y038014D03*
X030721Y046028D03*
X031036Y046028D03*
X031351Y046028D03*
X031666Y046028D03*
X031980Y046028D03*
X032295Y046028D03*
X032610Y046028D03*
X032925Y046028D03*
X032925Y049375D03*
X032610Y049375D03*
X032295Y049375D03*
X031980Y049375D03*
X031666Y049375D03*
X031351Y049375D03*
X031036Y049375D03*
X030721Y049375D03*
X030721Y052628D03*
X031036Y052628D03*
X031351Y052628D03*
X031666Y052628D03*
X031980Y052628D03*
X032295Y052628D03*
X032610Y052628D03*
X032925Y052628D03*
X032925Y055975D03*
X032610Y055975D03*
X032295Y055975D03*
X031980Y055975D03*
X031666Y055975D03*
X031351Y055975D03*
X031036Y055975D03*
X030721Y055975D03*
X030721Y059228D03*
X031036Y059228D03*
X031351Y059228D03*
X031666Y059228D03*
X031980Y059228D03*
X032295Y059228D03*
X032610Y059228D03*
X032925Y059228D03*
X032925Y062575D03*
X032610Y062575D03*
X032295Y062575D03*
X031980Y062575D03*
X031666Y062575D03*
X031351Y062575D03*
X031036Y062575D03*
X030721Y062575D03*
X012953Y057864D03*
X012639Y057864D03*
X012324Y057864D03*
X012009Y057864D03*
X011694Y057864D03*
X011379Y057864D03*
X011064Y057864D03*
X010749Y057864D03*
X010749Y054518D03*
X011064Y054518D03*
X011379Y054518D03*
X011694Y054518D03*
X012009Y054518D03*
X012324Y054518D03*
X012639Y054518D03*
X012953Y054518D03*
X037049Y038014D03*
X037364Y038014D03*
X037679Y038014D03*
X037994Y038014D03*
X038309Y038014D03*
X038624Y038014D03*
X038939Y038014D03*
X039253Y038014D03*
X039253Y034668D03*
X038939Y034668D03*
X038624Y034668D03*
X038309Y034668D03*
X037994Y034668D03*
X037679Y034668D03*
X037364Y034668D03*
X037049Y034668D03*
X026103Y024864D03*
X025789Y024864D03*
X025474Y024864D03*
X025159Y024864D03*
X024844Y024864D03*
X024529Y024864D03*
X024214Y024864D03*
X023899Y024864D03*
X023899Y021518D03*
X024214Y021518D03*
X024529Y021518D03*
X024844Y021518D03*
X025159Y021518D03*
X025474Y021518D03*
X025789Y021518D03*
X026103Y021518D03*
X026053Y011844D03*
X025739Y011844D03*
X025424Y011844D03*
X025109Y011844D03*
X024794Y011844D03*
X024479Y011844D03*
X024164Y011844D03*
X023849Y011844D03*
X023849Y008498D03*
X024164Y008498D03*
X024479Y008498D03*
X024794Y008498D03*
X025109Y008498D03*
X025424Y008498D03*
X025739Y008498D03*
X026053Y008498D03*
X036979Y014948D03*
X037294Y014948D03*
X037609Y014948D03*
X037924Y014948D03*
X038239Y014948D03*
X038554Y014948D03*
X038869Y014948D03*
X039183Y014948D03*
X039183Y018294D03*
X038869Y018294D03*
X038554Y018294D03*
X038239Y018294D03*
X037924Y018294D03*
X037609Y018294D03*
X037294Y018294D03*
X036979Y018294D03*
D23*
X040407Y028872D03*
X040407Y029542D03*
X040437Y039792D03*
X040437Y040462D03*
X028937Y046342D03*
X028937Y047012D03*
X028937Y052942D03*
X028937Y053612D03*
X028937Y059542D03*
X028937Y060212D03*
X014137Y060312D03*
X014137Y059642D03*
X005957Y051742D03*
X005957Y051072D03*
X005957Y050392D03*
X005957Y049722D03*
X005957Y049042D03*
X005957Y048372D03*
X005957Y047692D03*
X005957Y047022D03*
X004707Y045792D03*
X004707Y045122D03*
X004707Y044392D03*
X004707Y043722D03*
X003557Y043722D03*
X003557Y044392D03*
X004707Y041792D03*
X004707Y041122D03*
X012507Y041122D03*
X012507Y041792D03*
X014137Y035562D03*
X014137Y034892D03*
X014137Y022062D03*
X014137Y021392D03*
X014137Y010212D03*
X014137Y009542D03*
X009207Y005042D03*
X009207Y004372D03*
X007757Y004322D03*
X007757Y004992D03*
X027207Y013622D03*
X027207Y014292D03*
X027287Y026642D03*
X027287Y027312D03*
X027287Y039792D03*
X027287Y040462D03*
D24*
X028817Y042427D03*
X029817Y042427D03*
X030317Y043427D03*
X029317Y043427D03*
X018817Y049977D03*
X017817Y049977D03*
X018317Y048977D03*
X017317Y048977D03*
X017167Y043427D03*
X016167Y043427D03*
X016667Y042427D03*
X015667Y042427D03*
X010357Y045407D03*
X009357Y045407D03*
X008357Y045407D03*
X007357Y045407D03*
X007857Y044407D03*
X008857Y044407D03*
X009857Y044407D03*
X004017Y038527D03*
X003017Y038527D03*
X003517Y037527D03*
X002517Y037527D03*
X003017Y025027D03*
X004017Y025027D03*
X003517Y024027D03*
X002517Y024027D03*
X003017Y013177D03*
X003517Y012177D03*
X004017Y013177D03*
X002517Y012177D03*
X015657Y016107D03*
X016657Y016107D03*
X017157Y017107D03*
X016157Y017107D03*
X015667Y029277D03*
X016167Y030277D03*
X017167Y030277D03*
X016667Y029277D03*
X028787Y022757D03*
X029787Y022757D03*
X030287Y023757D03*
X029287Y023757D03*
X036357Y028807D03*
X037357Y028807D03*
X037857Y029807D03*
X036857Y029807D03*
X018317Y055577D03*
X017317Y055577D03*
X017817Y056577D03*
X018817Y056577D03*
X018317Y062177D03*
X017317Y062177D03*
X017817Y063177D03*
X018817Y063177D03*
X004017Y063277D03*
X003517Y062277D03*
X003017Y063277D03*
X002517Y062277D03*
D25*
X004270Y062477D02*
X004272Y062505D01*
X004278Y062533D01*
X004288Y062559D01*
X004301Y062584D01*
X004318Y062606D01*
X004338Y062626D01*
X004360Y062643D01*
X004385Y062656D01*
X004411Y062666D01*
X004439Y062672D01*
X004467Y062674D01*
X004495Y062672D01*
X004523Y062666D01*
X004549Y062656D01*
X004574Y062643D01*
X004596Y062626D01*
X004616Y062606D01*
X004633Y062584D01*
X004646Y062559D01*
X004656Y062533D01*
X004662Y062505D01*
X004664Y062477D01*
X004662Y062449D01*
X004656Y062421D01*
X004646Y062395D01*
X004633Y062370D01*
X004616Y062348D01*
X004596Y062328D01*
X004574Y062311D01*
X004549Y062298D01*
X004523Y062288D01*
X004495Y062282D01*
X004467Y062280D01*
X004439Y062282D01*
X004411Y062288D01*
X004385Y062298D01*
X004360Y062311D01*
X004338Y062328D01*
X004318Y062348D01*
X004301Y062370D01*
X004288Y062395D01*
X004278Y062421D01*
X004272Y062449D01*
X004270Y062477D01*
X019070Y062377D02*
X019072Y062405D01*
X019078Y062433D01*
X019088Y062459D01*
X019101Y062484D01*
X019118Y062506D01*
X019138Y062526D01*
X019160Y062543D01*
X019185Y062556D01*
X019211Y062566D01*
X019239Y062572D01*
X019267Y062574D01*
X019295Y062572D01*
X019323Y062566D01*
X019349Y062556D01*
X019374Y062543D01*
X019396Y062526D01*
X019416Y062506D01*
X019433Y062484D01*
X019446Y062459D01*
X019456Y062433D01*
X019462Y062405D01*
X019464Y062377D01*
X019462Y062349D01*
X019456Y062321D01*
X019446Y062295D01*
X019433Y062270D01*
X019416Y062248D01*
X019396Y062228D01*
X019374Y062211D01*
X019349Y062198D01*
X019323Y062188D01*
X019295Y062182D01*
X019267Y062180D01*
X019239Y062182D01*
X019211Y062188D01*
X019185Y062198D01*
X019160Y062211D01*
X019138Y062228D01*
X019118Y062248D01*
X019101Y062270D01*
X019088Y062295D01*
X019078Y062321D01*
X019072Y062349D01*
X019070Y062377D01*
X019070Y055777D02*
X019072Y055805D01*
X019078Y055833D01*
X019088Y055859D01*
X019101Y055884D01*
X019118Y055906D01*
X019138Y055926D01*
X019160Y055943D01*
X019185Y055956D01*
X019211Y055966D01*
X019239Y055972D01*
X019267Y055974D01*
X019295Y055972D01*
X019323Y055966D01*
X019349Y055956D01*
X019374Y055943D01*
X019396Y055926D01*
X019416Y055906D01*
X019433Y055884D01*
X019446Y055859D01*
X019456Y055833D01*
X019462Y055805D01*
X019464Y055777D01*
X019462Y055749D01*
X019456Y055721D01*
X019446Y055695D01*
X019433Y055670D01*
X019416Y055648D01*
X019396Y055628D01*
X019374Y055611D01*
X019349Y055598D01*
X019323Y055588D01*
X019295Y055582D01*
X019267Y055580D01*
X019239Y055582D01*
X019211Y055588D01*
X019185Y055598D01*
X019160Y055611D01*
X019138Y055628D01*
X019118Y055648D01*
X019101Y055670D01*
X019088Y055695D01*
X019078Y055721D01*
X019072Y055749D01*
X019070Y055777D01*
X019070Y049177D02*
X019072Y049205D01*
X019078Y049233D01*
X019088Y049259D01*
X019101Y049284D01*
X019118Y049306D01*
X019138Y049326D01*
X019160Y049343D01*
X019185Y049356D01*
X019211Y049366D01*
X019239Y049372D01*
X019267Y049374D01*
X019295Y049372D01*
X019323Y049366D01*
X019349Y049356D01*
X019374Y049343D01*
X019396Y049326D01*
X019416Y049306D01*
X019433Y049284D01*
X019446Y049259D01*
X019456Y049233D01*
X019462Y049205D01*
X019464Y049177D01*
X019462Y049149D01*
X019456Y049121D01*
X019446Y049095D01*
X019433Y049070D01*
X019416Y049048D01*
X019396Y049028D01*
X019374Y049011D01*
X019349Y048998D01*
X019323Y048988D01*
X019295Y048982D01*
X019267Y048980D01*
X019239Y048982D01*
X019211Y048988D01*
X019185Y048998D01*
X019160Y049011D01*
X019138Y049028D01*
X019118Y049048D01*
X019101Y049070D01*
X019088Y049095D01*
X019078Y049121D01*
X019072Y049149D01*
X019070Y049177D01*
X017420Y042627D02*
X017422Y042655D01*
X017428Y042683D01*
X017438Y042709D01*
X017451Y042734D01*
X017468Y042756D01*
X017488Y042776D01*
X017510Y042793D01*
X017535Y042806D01*
X017561Y042816D01*
X017589Y042822D01*
X017617Y042824D01*
X017645Y042822D01*
X017673Y042816D01*
X017699Y042806D01*
X017724Y042793D01*
X017746Y042776D01*
X017766Y042756D01*
X017783Y042734D01*
X017796Y042709D01*
X017806Y042683D01*
X017812Y042655D01*
X017814Y042627D01*
X017812Y042599D01*
X017806Y042571D01*
X017796Y042545D01*
X017783Y042520D01*
X017766Y042498D01*
X017746Y042478D01*
X017724Y042461D01*
X017699Y042448D01*
X017673Y042438D01*
X017645Y042432D01*
X017617Y042430D01*
X017589Y042432D01*
X017561Y042438D01*
X017535Y042448D01*
X017510Y042461D01*
X017488Y042478D01*
X017468Y042498D01*
X017451Y042520D01*
X017438Y042545D01*
X017428Y042571D01*
X017422Y042599D01*
X017420Y042627D01*
X010207Y041907D02*
X010210Y041966D01*
X010218Y042025D01*
X010231Y042082D01*
X010250Y042139D01*
X010273Y042193D01*
X010302Y042245D01*
X010335Y042294D01*
X010372Y042340D01*
X010413Y042382D01*
X010458Y042420D01*
X010507Y042455D01*
X010558Y042484D01*
X010612Y042509D01*
X010667Y042529D01*
X010725Y042543D01*
X010783Y042553D01*
X010842Y042557D01*
X010901Y042555D01*
X010960Y042549D01*
X011018Y042537D01*
X011075Y042519D01*
X011129Y042497D01*
X011182Y042470D01*
X011232Y042438D01*
X011279Y042402D01*
X011322Y042361D01*
X011361Y042317D01*
X011396Y042270D01*
X011427Y042219D01*
X011453Y042166D01*
X011474Y042111D01*
X011490Y042054D01*
X011501Y041996D01*
X011506Y041937D01*
X011506Y041877D01*
X011501Y041818D01*
X011490Y041760D01*
X011474Y041703D01*
X011453Y041648D01*
X011427Y041595D01*
X011396Y041544D01*
X011361Y041497D01*
X011322Y041453D01*
X011279Y041412D01*
X011232Y041376D01*
X011182Y041344D01*
X011129Y041317D01*
X011075Y041295D01*
X011018Y041277D01*
X010960Y041265D01*
X010901Y041259D01*
X010842Y041257D01*
X010783Y041261D01*
X010725Y041271D01*
X010667Y041285D01*
X010612Y041305D01*
X010558Y041330D01*
X010507Y041359D01*
X010458Y041394D01*
X010413Y041432D01*
X010372Y041474D01*
X010335Y041520D01*
X010302Y041569D01*
X010273Y041621D01*
X010250Y041675D01*
X010231Y041732D01*
X010218Y041789D01*
X010210Y041848D01*
X010207Y041907D01*
X005707Y041907D02*
X005710Y041966D01*
X005718Y042025D01*
X005731Y042082D01*
X005750Y042139D01*
X005773Y042193D01*
X005802Y042245D01*
X005835Y042294D01*
X005872Y042340D01*
X005913Y042382D01*
X005958Y042420D01*
X006007Y042455D01*
X006058Y042484D01*
X006112Y042509D01*
X006167Y042529D01*
X006225Y042543D01*
X006283Y042553D01*
X006342Y042557D01*
X006401Y042555D01*
X006460Y042549D01*
X006518Y042537D01*
X006575Y042519D01*
X006629Y042497D01*
X006682Y042470D01*
X006732Y042438D01*
X006779Y042402D01*
X006822Y042361D01*
X006861Y042317D01*
X006896Y042270D01*
X006927Y042219D01*
X006953Y042166D01*
X006974Y042111D01*
X006990Y042054D01*
X007001Y041996D01*
X007006Y041937D01*
X007006Y041877D01*
X007001Y041818D01*
X006990Y041760D01*
X006974Y041703D01*
X006953Y041648D01*
X006927Y041595D01*
X006896Y041544D01*
X006861Y041497D01*
X006822Y041453D01*
X006779Y041412D01*
X006732Y041376D01*
X006682Y041344D01*
X006629Y041317D01*
X006575Y041295D01*
X006518Y041277D01*
X006460Y041265D01*
X006401Y041259D01*
X006342Y041257D01*
X006283Y041261D01*
X006225Y041271D01*
X006167Y041285D01*
X006112Y041305D01*
X006058Y041330D01*
X006007Y041359D01*
X005958Y041394D01*
X005913Y041432D01*
X005872Y041474D01*
X005835Y041520D01*
X005802Y041569D01*
X005773Y041621D01*
X005750Y041675D01*
X005731Y041732D01*
X005718Y041789D01*
X005710Y041848D01*
X005707Y041907D01*
X004270Y037727D02*
X004272Y037755D01*
X004278Y037783D01*
X004288Y037809D01*
X004301Y037834D01*
X004318Y037856D01*
X004338Y037876D01*
X004360Y037893D01*
X004385Y037906D01*
X004411Y037916D01*
X004439Y037922D01*
X004467Y037924D01*
X004495Y037922D01*
X004523Y037916D01*
X004549Y037906D01*
X004574Y037893D01*
X004596Y037876D01*
X004616Y037856D01*
X004633Y037834D01*
X004646Y037809D01*
X004656Y037783D01*
X004662Y037755D01*
X004664Y037727D01*
X004662Y037699D01*
X004656Y037671D01*
X004646Y037645D01*
X004633Y037620D01*
X004616Y037598D01*
X004596Y037578D01*
X004574Y037561D01*
X004549Y037548D01*
X004523Y037538D01*
X004495Y037532D01*
X004467Y037530D01*
X004439Y037532D01*
X004411Y037538D01*
X004385Y037548D01*
X004360Y037561D01*
X004338Y037578D01*
X004318Y037598D01*
X004301Y037620D01*
X004288Y037645D01*
X004278Y037671D01*
X004272Y037699D01*
X004270Y037727D01*
X004270Y024227D02*
X004272Y024255D01*
X004278Y024283D01*
X004288Y024309D01*
X004301Y024334D01*
X004318Y024356D01*
X004338Y024376D01*
X004360Y024393D01*
X004385Y024406D01*
X004411Y024416D01*
X004439Y024422D01*
X004467Y024424D01*
X004495Y024422D01*
X004523Y024416D01*
X004549Y024406D01*
X004574Y024393D01*
X004596Y024376D01*
X004616Y024356D01*
X004633Y024334D01*
X004646Y024309D01*
X004656Y024283D01*
X004662Y024255D01*
X004664Y024227D01*
X004662Y024199D01*
X004656Y024171D01*
X004646Y024145D01*
X004633Y024120D01*
X004616Y024098D01*
X004596Y024078D01*
X004574Y024061D01*
X004549Y024048D01*
X004523Y024038D01*
X004495Y024032D01*
X004467Y024030D01*
X004439Y024032D01*
X004411Y024038D01*
X004385Y024048D01*
X004360Y024061D01*
X004338Y024078D01*
X004318Y024098D01*
X004301Y024120D01*
X004288Y024145D01*
X004278Y024171D01*
X004272Y024199D01*
X004270Y024227D01*
X004270Y012377D02*
X004272Y012405D01*
X004278Y012433D01*
X004288Y012459D01*
X004301Y012484D01*
X004318Y012506D01*
X004338Y012526D01*
X004360Y012543D01*
X004385Y012556D01*
X004411Y012566D01*
X004439Y012572D01*
X004467Y012574D01*
X004495Y012572D01*
X004523Y012566D01*
X004549Y012556D01*
X004574Y012543D01*
X004596Y012526D01*
X004616Y012506D01*
X004633Y012484D01*
X004646Y012459D01*
X004656Y012433D01*
X004662Y012405D01*
X004664Y012377D01*
X004662Y012349D01*
X004656Y012321D01*
X004646Y012295D01*
X004633Y012270D01*
X004616Y012248D01*
X004596Y012228D01*
X004574Y012211D01*
X004549Y012198D01*
X004523Y012188D01*
X004495Y012182D01*
X004467Y012180D01*
X004439Y012182D01*
X004411Y012188D01*
X004385Y012198D01*
X004360Y012211D01*
X004338Y012228D01*
X004318Y012248D01*
X004301Y012270D01*
X004288Y012295D01*
X004278Y012321D01*
X004272Y012349D01*
X004270Y012377D01*
X017410Y016307D02*
X017412Y016335D01*
X017418Y016363D01*
X017428Y016389D01*
X017441Y016414D01*
X017458Y016436D01*
X017478Y016456D01*
X017500Y016473D01*
X017525Y016486D01*
X017551Y016496D01*
X017579Y016502D01*
X017607Y016504D01*
X017635Y016502D01*
X017663Y016496D01*
X017689Y016486D01*
X017714Y016473D01*
X017736Y016456D01*
X017756Y016436D01*
X017773Y016414D01*
X017786Y016389D01*
X017796Y016363D01*
X017802Y016335D01*
X017804Y016307D01*
X017802Y016279D01*
X017796Y016251D01*
X017786Y016225D01*
X017773Y016200D01*
X017756Y016178D01*
X017736Y016158D01*
X017714Y016141D01*
X017689Y016128D01*
X017663Y016118D01*
X017635Y016112D01*
X017607Y016110D01*
X017579Y016112D01*
X017551Y016118D01*
X017525Y016128D01*
X017500Y016141D01*
X017478Y016158D01*
X017458Y016178D01*
X017441Y016200D01*
X017428Y016225D01*
X017418Y016251D01*
X017412Y016279D01*
X017410Y016307D01*
X019540Y003757D02*
X019542Y003787D01*
X019548Y003816D01*
X019558Y003843D01*
X019572Y003870D01*
X019589Y003894D01*
X019609Y003916D01*
X019632Y003934D01*
X019657Y003950D01*
X019684Y003961D01*
X019713Y003969D01*
X019742Y003973D01*
X019772Y003973D01*
X019801Y003969D01*
X019830Y003961D01*
X019857Y003950D01*
X019882Y003934D01*
X019905Y003916D01*
X019925Y003894D01*
X019942Y003870D01*
X019956Y003843D01*
X019966Y003816D01*
X019972Y003787D01*
X019974Y003757D01*
X019972Y003727D01*
X019966Y003698D01*
X019956Y003671D01*
X019942Y003644D01*
X019925Y003620D01*
X019905Y003598D01*
X019882Y003580D01*
X019857Y003564D01*
X019830Y003553D01*
X019801Y003545D01*
X019772Y003541D01*
X019742Y003541D01*
X019713Y003545D01*
X019684Y003553D01*
X019657Y003564D01*
X019632Y003580D01*
X019609Y003598D01*
X019589Y003620D01*
X019572Y003644D01*
X019558Y003671D01*
X019548Y003698D01*
X019542Y003727D01*
X019540Y003757D01*
X020540Y003757D02*
X020542Y003787D01*
X020548Y003816D01*
X020558Y003843D01*
X020572Y003870D01*
X020589Y003894D01*
X020609Y003916D01*
X020632Y003934D01*
X020657Y003950D01*
X020684Y003961D01*
X020713Y003969D01*
X020742Y003973D01*
X020772Y003973D01*
X020801Y003969D01*
X020830Y003961D01*
X020857Y003950D01*
X020882Y003934D01*
X020905Y003916D01*
X020925Y003894D01*
X020942Y003870D01*
X020956Y003843D01*
X020966Y003816D01*
X020972Y003787D01*
X020974Y003757D01*
X020972Y003727D01*
X020966Y003698D01*
X020956Y003671D01*
X020942Y003644D01*
X020925Y003620D01*
X020905Y003598D01*
X020882Y003580D01*
X020857Y003564D01*
X020830Y003553D01*
X020801Y003545D01*
X020772Y003541D01*
X020742Y003541D01*
X020713Y003545D01*
X020684Y003553D01*
X020657Y003564D01*
X020632Y003580D01*
X020609Y003598D01*
X020589Y003620D01*
X020572Y003644D01*
X020558Y003671D01*
X020548Y003698D01*
X020542Y003727D01*
X020540Y003757D01*
X021540Y003757D02*
X021542Y003787D01*
X021548Y003816D01*
X021558Y003843D01*
X021572Y003870D01*
X021589Y003894D01*
X021609Y003916D01*
X021632Y003934D01*
X021657Y003950D01*
X021684Y003961D01*
X021713Y003969D01*
X021742Y003973D01*
X021772Y003973D01*
X021801Y003969D01*
X021830Y003961D01*
X021857Y003950D01*
X021882Y003934D01*
X021905Y003916D01*
X021925Y003894D01*
X021942Y003870D01*
X021956Y003843D01*
X021966Y003816D01*
X021972Y003787D01*
X021974Y003757D01*
X021972Y003727D01*
X021966Y003698D01*
X021956Y003671D01*
X021942Y003644D01*
X021925Y003620D01*
X021905Y003598D01*
X021882Y003580D01*
X021857Y003564D01*
X021830Y003553D01*
X021801Y003545D01*
X021772Y003541D01*
X021742Y003541D01*
X021713Y003545D01*
X021684Y003553D01*
X021657Y003564D01*
X021632Y003580D01*
X021609Y003598D01*
X021589Y003620D01*
X021572Y003644D01*
X021558Y003671D01*
X021548Y003698D01*
X021542Y003727D01*
X021540Y003757D01*
X022840Y003757D02*
X022842Y003787D01*
X022848Y003816D01*
X022858Y003843D01*
X022872Y003870D01*
X022889Y003894D01*
X022909Y003916D01*
X022932Y003934D01*
X022957Y003950D01*
X022984Y003961D01*
X023013Y003969D01*
X023042Y003973D01*
X023072Y003973D01*
X023101Y003969D01*
X023130Y003961D01*
X023157Y003950D01*
X023182Y003934D01*
X023205Y003916D01*
X023225Y003894D01*
X023242Y003870D01*
X023256Y003843D01*
X023266Y003816D01*
X023272Y003787D01*
X023274Y003757D01*
X023272Y003727D01*
X023266Y003698D01*
X023256Y003671D01*
X023242Y003644D01*
X023225Y003620D01*
X023205Y003598D01*
X023182Y003580D01*
X023157Y003564D01*
X023130Y003553D01*
X023101Y003545D01*
X023072Y003541D01*
X023042Y003541D01*
X023013Y003545D01*
X022984Y003553D01*
X022957Y003564D01*
X022932Y003580D01*
X022909Y003598D01*
X022889Y003620D01*
X022872Y003644D01*
X022858Y003671D01*
X022848Y003698D01*
X022842Y003727D01*
X022840Y003757D01*
X023840Y003757D02*
X023842Y003787D01*
X023848Y003816D01*
X023858Y003843D01*
X023872Y003870D01*
X023889Y003894D01*
X023909Y003916D01*
X023932Y003934D01*
X023957Y003950D01*
X023984Y003961D01*
X024013Y003969D01*
X024042Y003973D01*
X024072Y003973D01*
X024101Y003969D01*
X024130Y003961D01*
X024157Y003950D01*
X024182Y003934D01*
X024205Y003916D01*
X024225Y003894D01*
X024242Y003870D01*
X024256Y003843D01*
X024266Y003816D01*
X024272Y003787D01*
X024274Y003757D01*
X024272Y003727D01*
X024266Y003698D01*
X024256Y003671D01*
X024242Y003644D01*
X024225Y003620D01*
X024205Y003598D01*
X024182Y003580D01*
X024157Y003564D01*
X024130Y003553D01*
X024101Y003545D01*
X024072Y003541D01*
X024042Y003541D01*
X024013Y003545D01*
X023984Y003553D01*
X023957Y003564D01*
X023932Y003580D01*
X023909Y003598D01*
X023889Y003620D01*
X023872Y003644D01*
X023858Y003671D01*
X023848Y003698D01*
X023842Y003727D01*
X023840Y003757D01*
X025140Y003757D02*
X025142Y003787D01*
X025148Y003816D01*
X025158Y003843D01*
X025172Y003870D01*
X025189Y003894D01*
X025209Y003916D01*
X025232Y003934D01*
X025257Y003950D01*
X025284Y003961D01*
X025313Y003969D01*
X025342Y003973D01*
X025372Y003973D01*
X025401Y003969D01*
X025430Y003961D01*
X025457Y003950D01*
X025482Y003934D01*
X025505Y003916D01*
X025525Y003894D01*
X025542Y003870D01*
X025556Y003843D01*
X025566Y003816D01*
X025572Y003787D01*
X025574Y003757D01*
X025572Y003727D01*
X025566Y003698D01*
X025556Y003671D01*
X025542Y003644D01*
X025525Y003620D01*
X025505Y003598D01*
X025482Y003580D01*
X025457Y003564D01*
X025430Y003553D01*
X025401Y003545D01*
X025372Y003541D01*
X025342Y003541D01*
X025313Y003545D01*
X025284Y003553D01*
X025257Y003564D01*
X025232Y003580D01*
X025209Y003598D01*
X025189Y003620D01*
X025172Y003644D01*
X025158Y003671D01*
X025148Y003698D01*
X025142Y003727D01*
X025140Y003757D01*
X026140Y003757D02*
X026142Y003787D01*
X026148Y003816D01*
X026158Y003843D01*
X026172Y003870D01*
X026189Y003894D01*
X026209Y003916D01*
X026232Y003934D01*
X026257Y003950D01*
X026284Y003961D01*
X026313Y003969D01*
X026342Y003973D01*
X026372Y003973D01*
X026401Y003969D01*
X026430Y003961D01*
X026457Y003950D01*
X026482Y003934D01*
X026505Y003916D01*
X026525Y003894D01*
X026542Y003870D01*
X026556Y003843D01*
X026566Y003816D01*
X026572Y003787D01*
X026574Y003757D01*
X026572Y003727D01*
X026566Y003698D01*
X026556Y003671D01*
X026542Y003644D01*
X026525Y003620D01*
X026505Y003598D01*
X026482Y003580D01*
X026457Y003564D01*
X026430Y003553D01*
X026401Y003545D01*
X026372Y003541D01*
X026342Y003541D01*
X026313Y003545D01*
X026284Y003553D01*
X026257Y003564D01*
X026232Y003580D01*
X026209Y003598D01*
X026189Y003620D01*
X026172Y003644D01*
X026158Y003671D01*
X026148Y003698D01*
X026142Y003727D01*
X026140Y003757D01*
X027140Y003757D02*
X027142Y003787D01*
X027148Y003816D01*
X027158Y003843D01*
X027172Y003870D01*
X027189Y003894D01*
X027209Y003916D01*
X027232Y003934D01*
X027257Y003950D01*
X027284Y003961D01*
X027313Y003969D01*
X027342Y003973D01*
X027372Y003973D01*
X027401Y003969D01*
X027430Y003961D01*
X027457Y003950D01*
X027482Y003934D01*
X027505Y003916D01*
X027525Y003894D01*
X027542Y003870D01*
X027556Y003843D01*
X027566Y003816D01*
X027572Y003787D01*
X027574Y003757D01*
X027572Y003727D01*
X027566Y003698D01*
X027556Y003671D01*
X027542Y003644D01*
X027525Y003620D01*
X027505Y003598D01*
X027482Y003580D01*
X027457Y003564D01*
X027430Y003553D01*
X027401Y003545D01*
X027372Y003541D01*
X027342Y003541D01*
X027313Y003545D01*
X027284Y003553D01*
X027257Y003564D01*
X027232Y003580D01*
X027209Y003598D01*
X027189Y003620D01*
X027172Y003644D01*
X027158Y003671D01*
X027148Y003698D01*
X027142Y003727D01*
X027140Y003757D01*
X038424Y008561D02*
X038426Y008588D01*
X038432Y008614D01*
X038442Y008640D01*
X038456Y008663D01*
X038473Y008684D01*
X038494Y008702D01*
X038516Y008716D01*
X038541Y008728D01*
X038567Y008735D01*
X038594Y008738D01*
X038621Y008737D01*
X038648Y008732D01*
X038673Y008723D01*
X038697Y008710D01*
X038719Y008693D01*
X038738Y008674D01*
X038753Y008651D01*
X038765Y008627D01*
X038773Y008601D01*
X038777Y008575D01*
X038777Y008547D01*
X038773Y008521D01*
X038765Y008495D01*
X038753Y008471D01*
X038738Y008448D01*
X038719Y008429D01*
X038697Y008412D01*
X038673Y008399D01*
X038648Y008390D01*
X038621Y008385D01*
X038594Y008384D01*
X038567Y008387D01*
X038541Y008394D01*
X038516Y008406D01*
X038494Y008420D01*
X038473Y008438D01*
X038456Y008459D01*
X038442Y008482D01*
X038432Y008508D01*
X038426Y008534D01*
X038424Y008561D01*
X038424Y010293D02*
X038426Y010320D01*
X038432Y010346D01*
X038442Y010372D01*
X038456Y010395D01*
X038473Y010416D01*
X038494Y010434D01*
X038516Y010448D01*
X038541Y010460D01*
X038567Y010467D01*
X038594Y010470D01*
X038621Y010469D01*
X038648Y010464D01*
X038673Y010455D01*
X038697Y010442D01*
X038719Y010425D01*
X038738Y010406D01*
X038753Y010383D01*
X038765Y010359D01*
X038773Y010333D01*
X038777Y010307D01*
X038777Y010279D01*
X038773Y010253D01*
X038765Y010227D01*
X038753Y010203D01*
X038738Y010180D01*
X038719Y010161D01*
X038697Y010144D01*
X038673Y010131D01*
X038648Y010122D01*
X038621Y010117D01*
X038594Y010116D01*
X038567Y010119D01*
X038541Y010126D01*
X038516Y010138D01*
X038494Y010152D01*
X038473Y010170D01*
X038456Y010191D01*
X038442Y010214D01*
X038432Y010240D01*
X038426Y010266D01*
X038424Y010293D01*
X030540Y022957D02*
X030542Y022985D01*
X030548Y023013D01*
X030558Y023039D01*
X030571Y023064D01*
X030588Y023086D01*
X030608Y023106D01*
X030630Y023123D01*
X030655Y023136D01*
X030681Y023146D01*
X030709Y023152D01*
X030737Y023154D01*
X030765Y023152D01*
X030793Y023146D01*
X030819Y023136D01*
X030844Y023123D01*
X030866Y023106D01*
X030886Y023086D01*
X030903Y023064D01*
X030916Y023039D01*
X030926Y023013D01*
X030932Y022985D01*
X030934Y022957D01*
X030932Y022929D01*
X030926Y022901D01*
X030916Y022875D01*
X030903Y022850D01*
X030886Y022828D01*
X030866Y022808D01*
X030844Y022791D01*
X030819Y022778D01*
X030793Y022768D01*
X030765Y022762D01*
X030737Y022760D01*
X030709Y022762D01*
X030681Y022768D01*
X030655Y022778D01*
X030630Y022791D01*
X030608Y022808D01*
X030588Y022828D01*
X030571Y022850D01*
X030558Y022875D01*
X030548Y022901D01*
X030542Y022929D01*
X030540Y022957D01*
X034957Y026307D02*
X034960Y026366D01*
X034968Y026425D01*
X034981Y026482D01*
X035000Y026539D01*
X035023Y026593D01*
X035052Y026645D01*
X035085Y026694D01*
X035122Y026740D01*
X035163Y026782D01*
X035208Y026820D01*
X035257Y026855D01*
X035308Y026884D01*
X035362Y026909D01*
X035417Y026929D01*
X035475Y026943D01*
X035533Y026953D01*
X035592Y026957D01*
X035651Y026955D01*
X035710Y026949D01*
X035768Y026937D01*
X035825Y026919D01*
X035879Y026897D01*
X035932Y026870D01*
X035982Y026838D01*
X036029Y026802D01*
X036072Y026761D01*
X036111Y026717D01*
X036146Y026670D01*
X036177Y026619D01*
X036203Y026566D01*
X036224Y026511D01*
X036240Y026454D01*
X036251Y026396D01*
X036256Y026337D01*
X036256Y026277D01*
X036251Y026218D01*
X036240Y026160D01*
X036224Y026103D01*
X036203Y026048D01*
X036177Y025995D01*
X036146Y025944D01*
X036111Y025897D01*
X036072Y025853D01*
X036029Y025812D01*
X035982Y025776D01*
X035932Y025744D01*
X035879Y025717D01*
X035825Y025695D01*
X035768Y025677D01*
X035710Y025665D01*
X035651Y025659D01*
X035592Y025657D01*
X035533Y025661D01*
X035475Y025671D01*
X035417Y025685D01*
X035362Y025705D01*
X035308Y025730D01*
X035257Y025759D01*
X035208Y025794D01*
X035163Y025832D01*
X035122Y025874D01*
X035085Y025920D01*
X035052Y025969D01*
X035023Y026021D01*
X035000Y026075D01*
X034981Y026132D01*
X034968Y026189D01*
X034960Y026248D01*
X034957Y026307D01*
X037957Y026307D02*
X037960Y026366D01*
X037968Y026425D01*
X037981Y026482D01*
X038000Y026539D01*
X038023Y026593D01*
X038052Y026645D01*
X038085Y026694D01*
X038122Y026740D01*
X038163Y026782D01*
X038208Y026820D01*
X038257Y026855D01*
X038308Y026884D01*
X038362Y026909D01*
X038417Y026929D01*
X038475Y026943D01*
X038533Y026953D01*
X038592Y026957D01*
X038651Y026955D01*
X038710Y026949D01*
X038768Y026937D01*
X038825Y026919D01*
X038879Y026897D01*
X038932Y026870D01*
X038982Y026838D01*
X039029Y026802D01*
X039072Y026761D01*
X039111Y026717D01*
X039146Y026670D01*
X039177Y026619D01*
X039203Y026566D01*
X039224Y026511D01*
X039240Y026454D01*
X039251Y026396D01*
X039256Y026337D01*
X039256Y026277D01*
X039251Y026218D01*
X039240Y026160D01*
X039224Y026103D01*
X039203Y026048D01*
X039177Y025995D01*
X039146Y025944D01*
X039111Y025897D01*
X039072Y025853D01*
X039029Y025812D01*
X038982Y025776D01*
X038932Y025744D01*
X038879Y025717D01*
X038825Y025695D01*
X038768Y025677D01*
X038710Y025665D01*
X038651Y025659D01*
X038592Y025657D01*
X038533Y025661D01*
X038475Y025671D01*
X038417Y025685D01*
X038362Y025705D01*
X038308Y025730D01*
X038257Y025759D01*
X038208Y025794D01*
X038163Y025832D01*
X038122Y025874D01*
X038085Y025920D01*
X038052Y025969D01*
X038023Y026021D01*
X038000Y026075D01*
X037981Y026132D01*
X037968Y026189D01*
X037960Y026248D01*
X037957Y026307D01*
X030570Y042627D02*
X030572Y042655D01*
X030578Y042683D01*
X030588Y042709D01*
X030601Y042734D01*
X030618Y042756D01*
X030638Y042776D01*
X030660Y042793D01*
X030685Y042806D01*
X030711Y042816D01*
X030739Y042822D01*
X030767Y042824D01*
X030795Y042822D01*
X030823Y042816D01*
X030849Y042806D01*
X030874Y042793D01*
X030896Y042776D01*
X030916Y042756D01*
X030933Y042734D01*
X030946Y042709D01*
X030956Y042683D01*
X030962Y042655D01*
X030964Y042627D01*
X030962Y042599D01*
X030956Y042571D01*
X030946Y042545D01*
X030933Y042520D01*
X030916Y042498D01*
X030896Y042478D01*
X030874Y042461D01*
X030849Y042448D01*
X030823Y042438D01*
X030795Y042432D01*
X030767Y042430D01*
X030739Y042432D01*
X030711Y042438D01*
X030685Y042448D01*
X030660Y042461D01*
X030638Y042478D01*
X030618Y042498D01*
X030601Y042520D01*
X030588Y042545D01*
X030578Y042571D01*
X030572Y042599D01*
X030570Y042627D01*
X039624Y045341D02*
X039626Y045382D01*
X039632Y045423D01*
X039642Y045463D01*
X039656Y045501D01*
X039674Y045539D01*
X039696Y045574D01*
X039721Y045606D01*
X039749Y045637D01*
X039779Y045664D01*
X039813Y045688D01*
X039849Y045709D01*
X039886Y045725D01*
X039925Y045739D01*
X039965Y045748D01*
X040006Y045753D01*
X040047Y045754D01*
X040088Y045751D01*
X040129Y045744D01*
X040169Y045732D01*
X040207Y045717D01*
X040244Y045699D01*
X040278Y045676D01*
X040310Y045651D01*
X040340Y045622D01*
X040366Y045590D01*
X040389Y045556D01*
X040409Y045520D01*
X040425Y045482D01*
X040437Y045443D01*
X040445Y045403D01*
X040449Y045362D01*
X040449Y045320D01*
X040445Y045279D01*
X040437Y045239D01*
X040425Y045200D01*
X040409Y045162D01*
X040389Y045126D01*
X040366Y045092D01*
X040340Y045060D01*
X040310Y045031D01*
X040278Y045006D01*
X040243Y044983D01*
X040207Y044965D01*
X040169Y044950D01*
X040129Y044938D01*
X040088Y044931D01*
X040047Y044928D01*
X040006Y044929D01*
X039965Y044934D01*
X039925Y044943D01*
X039886Y044957D01*
X039849Y044973D01*
X039813Y044994D01*
X039779Y045018D01*
X039749Y045045D01*
X039721Y045076D01*
X039696Y045108D01*
X039674Y045143D01*
X039656Y045181D01*
X039642Y045219D01*
X039632Y045259D01*
X039626Y045300D01*
X039624Y045341D01*
X039820Y046699D02*
X039822Y046729D01*
X039828Y046758D01*
X039838Y046785D01*
X039852Y046812D01*
X039869Y046836D01*
X039889Y046858D01*
X039912Y046876D01*
X039937Y046892D01*
X039964Y046903D01*
X039993Y046911D01*
X040022Y046915D01*
X040052Y046915D01*
X040081Y046911D01*
X040110Y046903D01*
X040137Y046892D01*
X040162Y046876D01*
X040185Y046858D01*
X040205Y046836D01*
X040222Y046812D01*
X040236Y046785D01*
X040246Y046758D01*
X040252Y046729D01*
X040254Y046699D01*
X040252Y046669D01*
X040246Y046640D01*
X040236Y046613D01*
X040222Y046586D01*
X040205Y046562D01*
X040185Y046540D01*
X040162Y046522D01*
X040137Y046506D01*
X040110Y046495D01*
X040081Y046487D01*
X040052Y046483D01*
X040022Y046483D01*
X039993Y046487D01*
X039964Y046495D01*
X039937Y046506D01*
X039912Y046522D01*
X039889Y046540D01*
X039869Y046562D01*
X039852Y046586D01*
X039838Y046613D01*
X039828Y046640D01*
X039822Y046669D01*
X039820Y046699D01*
X039820Y048471D02*
X039822Y048501D01*
X039828Y048530D01*
X039838Y048557D01*
X039852Y048584D01*
X039869Y048608D01*
X039889Y048630D01*
X039912Y048648D01*
X039937Y048664D01*
X039964Y048675D01*
X039993Y048683D01*
X040022Y048687D01*
X040052Y048687D01*
X040081Y048683D01*
X040110Y048675D01*
X040137Y048664D01*
X040162Y048648D01*
X040185Y048630D01*
X040205Y048608D01*
X040222Y048584D01*
X040236Y048557D01*
X040246Y048530D01*
X040252Y048501D01*
X040254Y048471D01*
X040252Y048441D01*
X040246Y048412D01*
X040236Y048385D01*
X040222Y048358D01*
X040205Y048334D01*
X040185Y048312D01*
X040162Y048294D01*
X040137Y048278D01*
X040110Y048267D01*
X040081Y048259D01*
X040052Y048255D01*
X040022Y048255D01*
X039993Y048259D01*
X039964Y048267D01*
X039937Y048278D01*
X039912Y048294D01*
X039889Y048312D01*
X039869Y048334D01*
X039852Y048358D01*
X039838Y048385D01*
X039828Y048412D01*
X039822Y048441D01*
X039820Y048471D01*
X039624Y049829D02*
X039626Y049870D01*
X039632Y049911D01*
X039642Y049951D01*
X039656Y049989D01*
X039674Y050027D01*
X039696Y050062D01*
X039721Y050094D01*
X039749Y050125D01*
X039779Y050152D01*
X039813Y050176D01*
X039849Y050197D01*
X039886Y050213D01*
X039925Y050227D01*
X039965Y050236D01*
X040006Y050241D01*
X040047Y050242D01*
X040088Y050239D01*
X040129Y050232D01*
X040169Y050220D01*
X040207Y050205D01*
X040244Y050187D01*
X040278Y050164D01*
X040310Y050139D01*
X040340Y050110D01*
X040366Y050078D01*
X040389Y050044D01*
X040409Y050008D01*
X040425Y049970D01*
X040437Y049931D01*
X040445Y049891D01*
X040449Y049850D01*
X040449Y049808D01*
X040445Y049767D01*
X040437Y049727D01*
X040425Y049688D01*
X040409Y049650D01*
X040389Y049614D01*
X040366Y049580D01*
X040340Y049548D01*
X040310Y049519D01*
X040278Y049494D01*
X040243Y049471D01*
X040207Y049453D01*
X040169Y049438D01*
X040129Y049426D01*
X040088Y049419D01*
X040047Y049416D01*
X040006Y049417D01*
X039965Y049422D01*
X039925Y049431D01*
X039886Y049445D01*
X039849Y049461D01*
X039813Y049482D01*
X039779Y049506D01*
X039749Y049533D01*
X039721Y049564D01*
X039696Y049596D01*
X039674Y049631D01*
X039656Y049669D01*
X039642Y049707D01*
X039632Y049747D01*
X039626Y049788D01*
X039624Y049829D01*
X039624Y051941D02*
X039626Y051982D01*
X039632Y052023D01*
X039642Y052063D01*
X039656Y052101D01*
X039674Y052139D01*
X039696Y052174D01*
X039721Y052206D01*
X039749Y052237D01*
X039779Y052264D01*
X039813Y052288D01*
X039849Y052309D01*
X039886Y052325D01*
X039925Y052339D01*
X039965Y052348D01*
X040006Y052353D01*
X040047Y052354D01*
X040088Y052351D01*
X040129Y052344D01*
X040169Y052332D01*
X040207Y052317D01*
X040244Y052299D01*
X040278Y052276D01*
X040310Y052251D01*
X040340Y052222D01*
X040366Y052190D01*
X040389Y052156D01*
X040409Y052120D01*
X040425Y052082D01*
X040437Y052043D01*
X040445Y052003D01*
X040449Y051962D01*
X040449Y051920D01*
X040445Y051879D01*
X040437Y051839D01*
X040425Y051800D01*
X040409Y051762D01*
X040389Y051726D01*
X040366Y051692D01*
X040340Y051660D01*
X040310Y051631D01*
X040278Y051606D01*
X040243Y051583D01*
X040207Y051565D01*
X040169Y051550D01*
X040129Y051538D01*
X040088Y051531D01*
X040047Y051528D01*
X040006Y051529D01*
X039965Y051534D01*
X039925Y051543D01*
X039886Y051557D01*
X039849Y051573D01*
X039813Y051594D01*
X039779Y051618D01*
X039749Y051645D01*
X039721Y051676D01*
X039696Y051708D01*
X039674Y051743D01*
X039656Y051781D01*
X039642Y051819D01*
X039632Y051859D01*
X039626Y051900D01*
X039624Y051941D01*
X039820Y053299D02*
X039822Y053329D01*
X039828Y053358D01*
X039838Y053385D01*
X039852Y053412D01*
X039869Y053436D01*
X039889Y053458D01*
X039912Y053476D01*
X039937Y053492D01*
X039964Y053503D01*
X039993Y053511D01*
X040022Y053515D01*
X040052Y053515D01*
X040081Y053511D01*
X040110Y053503D01*
X040137Y053492D01*
X040162Y053476D01*
X040185Y053458D01*
X040205Y053436D01*
X040222Y053412D01*
X040236Y053385D01*
X040246Y053358D01*
X040252Y053329D01*
X040254Y053299D01*
X040252Y053269D01*
X040246Y053240D01*
X040236Y053213D01*
X040222Y053186D01*
X040205Y053162D01*
X040185Y053140D01*
X040162Y053122D01*
X040137Y053106D01*
X040110Y053095D01*
X040081Y053087D01*
X040052Y053083D01*
X040022Y053083D01*
X039993Y053087D01*
X039964Y053095D01*
X039937Y053106D01*
X039912Y053122D01*
X039889Y053140D01*
X039869Y053162D01*
X039852Y053186D01*
X039838Y053213D01*
X039828Y053240D01*
X039822Y053269D01*
X039820Y053299D01*
X039820Y055071D02*
X039822Y055101D01*
X039828Y055130D01*
X039838Y055157D01*
X039852Y055184D01*
X039869Y055208D01*
X039889Y055230D01*
X039912Y055248D01*
X039937Y055264D01*
X039964Y055275D01*
X039993Y055283D01*
X040022Y055287D01*
X040052Y055287D01*
X040081Y055283D01*
X040110Y055275D01*
X040137Y055264D01*
X040162Y055248D01*
X040185Y055230D01*
X040205Y055208D01*
X040222Y055184D01*
X040236Y055157D01*
X040246Y055130D01*
X040252Y055101D01*
X040254Y055071D01*
X040252Y055041D01*
X040246Y055012D01*
X040236Y054985D01*
X040222Y054958D01*
X040205Y054934D01*
X040185Y054912D01*
X040162Y054894D01*
X040137Y054878D01*
X040110Y054867D01*
X040081Y054859D01*
X040052Y054855D01*
X040022Y054855D01*
X039993Y054859D01*
X039964Y054867D01*
X039937Y054878D01*
X039912Y054894D01*
X039889Y054912D01*
X039869Y054934D01*
X039852Y054958D01*
X039838Y054985D01*
X039828Y055012D01*
X039822Y055041D01*
X039820Y055071D01*
X039624Y056429D02*
X039626Y056470D01*
X039632Y056511D01*
X039642Y056551D01*
X039656Y056589D01*
X039674Y056627D01*
X039696Y056662D01*
X039721Y056694D01*
X039749Y056725D01*
X039779Y056752D01*
X039813Y056776D01*
X039849Y056797D01*
X039886Y056813D01*
X039925Y056827D01*
X039965Y056836D01*
X040006Y056841D01*
X040047Y056842D01*
X040088Y056839D01*
X040129Y056832D01*
X040169Y056820D01*
X040207Y056805D01*
X040244Y056787D01*
X040278Y056764D01*
X040310Y056739D01*
X040340Y056710D01*
X040366Y056678D01*
X040389Y056644D01*
X040409Y056608D01*
X040425Y056570D01*
X040437Y056531D01*
X040445Y056491D01*
X040449Y056450D01*
X040449Y056408D01*
X040445Y056367D01*
X040437Y056327D01*
X040425Y056288D01*
X040409Y056250D01*
X040389Y056214D01*
X040366Y056180D01*
X040340Y056148D01*
X040310Y056119D01*
X040278Y056094D01*
X040243Y056071D01*
X040207Y056053D01*
X040169Y056038D01*
X040129Y056026D01*
X040088Y056019D01*
X040047Y056016D01*
X040006Y056017D01*
X039965Y056022D01*
X039925Y056031D01*
X039886Y056045D01*
X039849Y056061D01*
X039813Y056082D01*
X039779Y056106D01*
X039749Y056133D01*
X039721Y056164D01*
X039696Y056196D01*
X039674Y056231D01*
X039656Y056269D01*
X039642Y056307D01*
X039632Y056347D01*
X039626Y056388D01*
X039624Y056429D01*
X039624Y058541D02*
X039626Y058582D01*
X039632Y058623D01*
X039642Y058663D01*
X039656Y058701D01*
X039674Y058739D01*
X039696Y058774D01*
X039721Y058806D01*
X039749Y058837D01*
X039779Y058864D01*
X039813Y058888D01*
X039849Y058909D01*
X039886Y058925D01*
X039925Y058939D01*
X039965Y058948D01*
X040006Y058953D01*
X040047Y058954D01*
X040088Y058951D01*
X040129Y058944D01*
X040169Y058932D01*
X040207Y058917D01*
X040244Y058899D01*
X040278Y058876D01*
X040310Y058851D01*
X040340Y058822D01*
X040366Y058790D01*
X040389Y058756D01*
X040409Y058720D01*
X040425Y058682D01*
X040437Y058643D01*
X040445Y058603D01*
X040449Y058562D01*
X040449Y058520D01*
X040445Y058479D01*
X040437Y058439D01*
X040425Y058400D01*
X040409Y058362D01*
X040389Y058326D01*
X040366Y058292D01*
X040340Y058260D01*
X040310Y058231D01*
X040278Y058206D01*
X040243Y058183D01*
X040207Y058165D01*
X040169Y058150D01*
X040129Y058138D01*
X040088Y058131D01*
X040047Y058128D01*
X040006Y058129D01*
X039965Y058134D01*
X039925Y058143D01*
X039886Y058157D01*
X039849Y058173D01*
X039813Y058194D01*
X039779Y058218D01*
X039749Y058245D01*
X039721Y058276D01*
X039696Y058308D01*
X039674Y058343D01*
X039656Y058381D01*
X039642Y058419D01*
X039632Y058459D01*
X039626Y058500D01*
X039624Y058541D01*
X039820Y059899D02*
X039822Y059929D01*
X039828Y059958D01*
X039838Y059985D01*
X039852Y060012D01*
X039869Y060036D01*
X039889Y060058D01*
X039912Y060076D01*
X039937Y060092D01*
X039964Y060103D01*
X039993Y060111D01*
X040022Y060115D01*
X040052Y060115D01*
X040081Y060111D01*
X040110Y060103D01*
X040137Y060092D01*
X040162Y060076D01*
X040185Y060058D01*
X040205Y060036D01*
X040222Y060012D01*
X040236Y059985D01*
X040246Y059958D01*
X040252Y059929D01*
X040254Y059899D01*
X040252Y059869D01*
X040246Y059840D01*
X040236Y059813D01*
X040222Y059786D01*
X040205Y059762D01*
X040185Y059740D01*
X040162Y059722D01*
X040137Y059706D01*
X040110Y059695D01*
X040081Y059687D01*
X040052Y059683D01*
X040022Y059683D01*
X039993Y059687D01*
X039964Y059695D01*
X039937Y059706D01*
X039912Y059722D01*
X039889Y059740D01*
X039869Y059762D01*
X039852Y059786D01*
X039838Y059813D01*
X039828Y059840D01*
X039822Y059869D01*
X039820Y059899D01*
X039820Y061671D02*
X039822Y061701D01*
X039828Y061730D01*
X039838Y061757D01*
X039852Y061784D01*
X039869Y061808D01*
X039889Y061830D01*
X039912Y061848D01*
X039937Y061864D01*
X039964Y061875D01*
X039993Y061883D01*
X040022Y061887D01*
X040052Y061887D01*
X040081Y061883D01*
X040110Y061875D01*
X040137Y061864D01*
X040162Y061848D01*
X040185Y061830D01*
X040205Y061808D01*
X040222Y061784D01*
X040236Y061757D01*
X040246Y061730D01*
X040252Y061701D01*
X040254Y061671D01*
X040252Y061641D01*
X040246Y061612D01*
X040236Y061585D01*
X040222Y061558D01*
X040205Y061534D01*
X040185Y061512D01*
X040162Y061494D01*
X040137Y061478D01*
X040110Y061467D01*
X040081Y061459D01*
X040052Y061455D01*
X040022Y061455D01*
X039993Y061459D01*
X039964Y061467D01*
X039937Y061478D01*
X039912Y061494D01*
X039889Y061512D01*
X039869Y061534D01*
X039852Y061558D01*
X039838Y061585D01*
X039828Y061612D01*
X039822Y061641D01*
X039820Y061671D01*
X039624Y063029D02*
X039626Y063070D01*
X039632Y063111D01*
X039642Y063151D01*
X039656Y063189D01*
X039674Y063227D01*
X039696Y063262D01*
X039721Y063294D01*
X039749Y063325D01*
X039779Y063352D01*
X039813Y063376D01*
X039849Y063397D01*
X039886Y063413D01*
X039925Y063427D01*
X039965Y063436D01*
X040006Y063441D01*
X040047Y063442D01*
X040088Y063439D01*
X040129Y063432D01*
X040169Y063420D01*
X040207Y063405D01*
X040244Y063387D01*
X040278Y063364D01*
X040310Y063339D01*
X040340Y063310D01*
X040366Y063278D01*
X040389Y063244D01*
X040409Y063208D01*
X040425Y063170D01*
X040437Y063131D01*
X040445Y063091D01*
X040449Y063050D01*
X040449Y063008D01*
X040445Y062967D01*
X040437Y062927D01*
X040425Y062888D01*
X040409Y062850D01*
X040389Y062814D01*
X040366Y062780D01*
X040340Y062748D01*
X040310Y062719D01*
X040278Y062694D01*
X040243Y062671D01*
X040207Y062653D01*
X040169Y062638D01*
X040129Y062626D01*
X040088Y062619D01*
X040047Y062616D01*
X040006Y062617D01*
X039965Y062622D01*
X039925Y062631D01*
X039886Y062645D01*
X039849Y062661D01*
X039813Y062682D01*
X039779Y062706D01*
X039749Y062733D01*
X039721Y062764D01*
X039696Y062796D01*
X039674Y062831D01*
X039656Y062869D01*
X039642Y062907D01*
X039632Y062947D01*
X039626Y062988D01*
X039624Y063029D01*
X017420Y029477D02*
X017422Y029505D01*
X017428Y029533D01*
X017438Y029559D01*
X017451Y029584D01*
X017468Y029606D01*
X017488Y029626D01*
X017510Y029643D01*
X017535Y029656D01*
X017561Y029666D01*
X017589Y029672D01*
X017617Y029674D01*
X017645Y029672D01*
X017673Y029666D01*
X017699Y029656D01*
X017724Y029643D01*
X017746Y029626D01*
X017766Y029606D01*
X017783Y029584D01*
X017796Y029559D01*
X017806Y029533D01*
X017812Y029505D01*
X017814Y029477D01*
X017812Y029449D01*
X017806Y029421D01*
X017796Y029395D01*
X017783Y029370D01*
X017766Y029348D01*
X017746Y029328D01*
X017724Y029311D01*
X017699Y029298D01*
X017673Y029288D01*
X017645Y029282D01*
X017617Y029280D01*
X017589Y029282D01*
X017561Y029288D01*
X017535Y029298D01*
X017510Y029311D01*
X017488Y029328D01*
X017468Y029348D01*
X017451Y029370D01*
X017438Y029395D01*
X017428Y029421D01*
X017422Y029449D01*
X017420Y029477D01*
D26*
X017617Y029477D03*
X017607Y016307D03*
X004467Y012377D03*
X004467Y024227D03*
X004467Y037727D03*
X017617Y042627D03*
X019267Y049177D03*
X019267Y055777D03*
X019267Y062377D03*
X004467Y062477D03*
X030767Y042627D03*
X030737Y022957D03*
D27*
X039013Y046207D03*
X039013Y047191D03*
X039013Y047979D03*
X039013Y048963D03*
X039013Y052807D03*
X039013Y053791D03*
X039013Y054579D03*
X039013Y055563D03*
X039013Y059407D03*
X039013Y060391D03*
X039013Y061179D03*
X039013Y062163D03*
D28*
X040037Y061671D03*
X040037Y059899D03*
X040037Y055071D03*
X040037Y053299D03*
X040037Y048471D03*
X040037Y046699D03*
X027357Y003757D03*
X026357Y003757D03*
X025357Y003757D03*
X024057Y003757D03*
X023057Y003757D03*
X021757Y003757D03*
X020757Y003757D03*
X019757Y003757D03*
D29*
X040037Y045341D03*
X040037Y049829D03*
X040037Y051941D03*
X040037Y056429D03*
X040037Y058541D03*
X040037Y063029D03*
D30*
X037584Y062470D03*
X037584Y062215D03*
X037584Y061959D03*
X037584Y061703D03*
X037584Y061447D03*
X037584Y061191D03*
X037584Y060935D03*
X037584Y060679D03*
X037584Y060423D03*
X037584Y060167D03*
X037584Y059911D03*
X037584Y059656D03*
X037584Y059400D03*
X037584Y059144D03*
X034730Y059144D03*
X034730Y059400D03*
X034730Y059656D03*
X034730Y059911D03*
X034730Y060167D03*
X034730Y060423D03*
X034730Y060679D03*
X034730Y060935D03*
X034730Y061191D03*
X034730Y061447D03*
X034730Y061703D03*
X034730Y061959D03*
X034730Y062215D03*
X034730Y062470D03*
X034730Y055870D03*
X034730Y055615D03*
X034730Y055359D03*
X034730Y055103D03*
X034730Y054847D03*
X034730Y054591D03*
X034730Y054335D03*
X034730Y054079D03*
X034730Y053823D03*
X034730Y053567D03*
X034730Y053311D03*
X034730Y053056D03*
X034730Y052800D03*
X034730Y052544D03*
X034730Y049270D03*
X034730Y049015D03*
X034730Y048759D03*
X034730Y048503D03*
X034730Y048247D03*
X034730Y047991D03*
X034730Y047735D03*
X034730Y047479D03*
X034730Y047223D03*
X034730Y046967D03*
X034730Y046711D03*
X034730Y046456D03*
X034730Y046200D03*
X034730Y045944D03*
X037584Y045944D03*
X037584Y046200D03*
X037584Y046456D03*
X037584Y046711D03*
X037584Y046967D03*
X037584Y047223D03*
X037584Y047479D03*
X037584Y047735D03*
X037584Y047991D03*
X037584Y048247D03*
X037584Y048503D03*
X037584Y048759D03*
X037584Y049015D03*
X037584Y049270D03*
X037584Y052544D03*
X037584Y052800D03*
X037584Y053056D03*
X037584Y053311D03*
X037584Y053567D03*
X037584Y053823D03*
X037584Y054079D03*
X037584Y054335D03*
X037584Y054591D03*
X037584Y054847D03*
X037584Y055103D03*
X037584Y055359D03*
X037584Y055615D03*
X037584Y055870D03*
D31*
X038272Y056657D03*
X038941Y056657D03*
X036641Y058207D03*
X035972Y058207D03*
X038272Y063257D03*
X038941Y063257D03*
X036641Y051607D03*
X035972Y051607D03*
X038272Y050057D03*
X038941Y050057D03*
X036641Y045007D03*
X035972Y045007D03*
X033991Y029357D03*
X033322Y029357D03*
X033322Y028207D03*
X033991Y028207D03*
X029641Y026907D03*
X028972Y026907D03*
X019091Y022107D03*
X018422Y022107D03*
X016141Y021907D03*
X015472Y021907D03*
X008741Y017557D03*
X008072Y017557D03*
X007772Y007307D03*
X008441Y007307D03*
X002991Y030157D03*
X002322Y030157D03*
X005272Y030357D03*
X005941Y030357D03*
X015472Y035057D03*
X016141Y035057D03*
X018422Y035257D03*
X019091Y035257D03*
X013041Y044457D03*
X012372Y044457D03*
X012372Y045607D03*
X013041Y045607D03*
X003091Y048707D03*
X002422Y048707D03*
X040052Y020037D03*
X040721Y020037D03*
D32*
X032207Y028057D03*
X032207Y029057D03*
X032207Y030057D03*
X032207Y031057D03*
X032207Y032057D03*
X032207Y033057D03*
X032207Y034057D03*
X032207Y035057D03*
X032207Y036057D03*
X029207Y036057D03*
X029207Y035057D03*
X029207Y034057D03*
X029207Y033057D03*
X029207Y032057D03*
X029207Y031057D03*
X029207Y030057D03*
X029207Y029057D03*
X029207Y028057D03*
D33*
X035707Y031307D03*
X035707Y032307D03*
X035707Y033307D03*
X040457Y033307D03*
X040457Y032307D03*
X040457Y031307D03*
D34*
X038607Y026307D03*
X035607Y026307D03*
X010857Y041907D03*
X006357Y041907D03*
D35*
X005997Y040307D03*
X006997Y040307D03*
X010217Y040307D03*
X011217Y040307D03*
X003907Y050707D03*
X003907Y051707D03*
X003907Y052707D03*
X002907Y051707D03*
X002907Y050707D03*
X031387Y017007D03*
X032387Y017007D03*
X033387Y017007D03*
X033387Y016007D03*
X032387Y016007D03*
X032387Y013807D03*
X031387Y013807D03*
X030387Y013807D03*
X029387Y013807D03*
X033387Y013807D03*
X034387Y013807D03*
X035387Y013807D03*
X036387Y013807D03*
X037387Y013807D03*
X038387Y013807D03*
X039387Y013807D03*
X040387Y013807D03*
X018557Y004957D03*
X015557Y003957D03*
X015557Y006957D03*
D36*
X031387Y016007D03*
X002907Y052707D03*
D37*
X032493Y010874D03*
X032749Y010874D03*
X033005Y010874D03*
X033261Y010874D03*
X033517Y010874D03*
X033773Y010874D03*
X034029Y010874D03*
X034285Y010874D03*
X034541Y010874D03*
X034797Y010874D03*
X035052Y010874D03*
X035308Y010874D03*
X035564Y010874D03*
X035820Y010874D03*
X035820Y008020D03*
X035564Y008020D03*
X035308Y008020D03*
X035052Y008020D03*
X034797Y008020D03*
X034541Y008020D03*
X034285Y008020D03*
X034029Y008020D03*
X033773Y008020D03*
X033517Y008020D03*
X033261Y008020D03*
X033005Y008020D03*
X032749Y008020D03*
X032493Y008020D03*
D38*
X030397Y008307D03*
X030397Y009307D03*
X030397Y010307D03*
X030397Y011307D03*
X030397Y007307D03*
X030397Y006307D03*
X027257Y018707D03*
X026257Y018707D03*
X026257Y019707D03*
X027257Y019707D03*
X025257Y018707D03*
X022757Y018707D03*
X021757Y018707D03*
X021757Y019707D03*
X022757Y019707D03*
X020757Y019707D03*
X019757Y019707D03*
X019757Y018707D03*
X020757Y018707D03*
X018757Y018707D03*
X018757Y019707D03*
X017757Y019707D03*
X016757Y019707D03*
X016757Y018707D03*
X017757Y018707D03*
X015757Y018707D03*
X014193Y015162D03*
X013193Y015162D03*
X012193Y015162D03*
X010987Y015152D03*
X009987Y015152D03*
X008987Y015152D03*
X007756Y015154D03*
X006756Y015154D03*
X005756Y015154D03*
X004526Y015154D03*
X003526Y015154D03*
X002526Y015154D03*
X002557Y007107D03*
X002557Y006107D03*
X002507Y004257D03*
X003507Y004257D03*
X004507Y004257D03*
X003507Y003257D03*
X002507Y003257D03*
X012007Y002507D03*
X013007Y002507D03*
X014007Y002507D03*
X014107Y026957D03*
X014107Y027957D03*
X013107Y027957D03*
X013107Y026957D03*
X012107Y026957D03*
X009607Y026957D03*
X009607Y027957D03*
X008607Y027957D03*
X008607Y026957D03*
X007607Y026957D03*
X006607Y026957D03*
X006607Y027957D03*
X007607Y027957D03*
X005607Y027957D03*
X004607Y027957D03*
X004607Y026957D03*
X005607Y026957D03*
X003607Y026957D03*
X002607Y026957D03*
X003607Y027957D03*
X015757Y031857D03*
X016757Y031857D03*
X017757Y031857D03*
X017757Y032857D03*
X016757Y032857D03*
X018757Y032857D03*
X018757Y031857D03*
X019757Y031857D03*
X020757Y031857D03*
X020757Y032857D03*
X019757Y032857D03*
X021757Y032857D03*
X022757Y032857D03*
X022757Y031857D03*
X021757Y031857D03*
X025257Y031857D03*
X026257Y031857D03*
X027257Y031857D03*
X027257Y032857D03*
X026257Y032857D03*
D39*
X037656Y010057D03*
X037656Y009742D03*
X037656Y009427D03*
X037656Y009112D03*
X037656Y008797D03*
D40*
X038601Y008561D03*
X038601Y010293D03*
D41*
X039349Y011356D03*
X039349Y007498D03*
D42*
X037656Y007498D03*
X037656Y011356D03*
D43*
X025257Y019707D03*
X015757Y019707D03*
X012107Y027957D03*
X015757Y032857D03*
X025257Y032857D03*
X002607Y027957D03*
X004507Y003257D03*
D44*
X004447Y016707D03*
X004757Y016707D03*
X005067Y016707D03*
X006147Y016707D03*
X006457Y016707D03*
X006767Y016707D03*
X008397Y016707D03*
X008707Y016707D03*
X009017Y016707D03*
X015897Y022757D03*
X016207Y022757D03*
X016517Y022757D03*
X016517Y035907D03*
X016207Y035907D03*
X015897Y035907D03*
X003367Y031007D03*
X003057Y031007D03*
X002747Y031007D03*
D45*
X007424Y032457D03*
X008290Y032083D03*
X008290Y032831D03*
X020574Y037357D03*
X021440Y036983D03*
X021440Y037731D03*
X021440Y024581D03*
X021440Y023833D03*
X020574Y024207D03*
X007140Y018881D03*
X007140Y018133D03*
X006274Y018507D03*
X023424Y007257D03*
X024290Y006883D03*
X024290Y007631D03*
X026024Y007257D03*
X026890Y006883D03*
X026890Y007631D03*
D46*
X019240Y024357D03*
X018374Y024357D03*
X017990Y024357D03*
X017124Y024357D03*
X006090Y032607D03*
X005224Y032607D03*
X004840Y032607D03*
X003974Y032607D03*
X017124Y037507D03*
X017990Y037507D03*
X018374Y037507D03*
X019240Y037507D03*
D47*
X016630Y037473D03*
X016630Y036804D03*
X016630Y024323D03*
X016630Y023654D03*
X003480Y031904D03*
X003480Y032573D03*
D48*
X002338Y032239D03*
X015488Y037139D03*
X015488Y023989D03*
D49*
X020572Y010557D03*
X021241Y010557D03*
D50*
X022108Y008357D03*
X019706Y008357D03*
X006658Y006757D03*
X004256Y006757D03*
D51*
X019757Y004757D03*
X020757Y004757D03*
X021757Y004757D03*
X023057Y004757D03*
X024057Y004757D03*
X025357Y004757D03*
X026357Y004757D03*
X027357Y004757D03*
D52*
X010787Y047057D03*
X010787Y047557D03*
X010787Y048057D03*
X010787Y048557D03*
X010787Y049057D03*
X010787Y049557D03*
X010787Y050057D03*
X010787Y050557D03*
X010787Y051057D03*
X010787Y051557D03*
X010787Y052057D03*
X010787Y052557D03*
X010787Y053057D03*
X010787Y053557D03*
X006927Y053557D03*
X006927Y053057D03*
X006927Y052557D03*
X006927Y052057D03*
X006927Y051557D03*
X006927Y051057D03*
X006927Y050557D03*
X006927Y050057D03*
X006927Y049557D03*
X006927Y049057D03*
X006927Y048557D03*
X006927Y048057D03*
X006927Y047557D03*
X006927Y047057D03*
D53*
X006857Y044407D03*
D54*
X005557Y043107D03*
X011657Y043107D03*
D55*
X005777Y055147D03*
X005777Y056057D03*
X005777Y056967D03*
D56*
X003337Y056057D03*
D57*
X008157Y019240D03*
X008531Y018374D03*
X007783Y018374D03*
X006231Y004090D03*
X005483Y004090D03*
X005857Y003224D03*
X006983Y003690D03*
X007357Y002824D03*
X007731Y003690D03*
X008433Y003590D03*
X009181Y003590D03*
X008807Y002724D03*
X010383Y003640D03*
X011131Y003640D03*
X010757Y002774D03*
D58*
X004157Y018597D03*
X004157Y018907D03*
X004157Y019217D03*
D59*
X002757Y019207D03*
X002757Y018207D03*
X002757Y017207D03*
D60*
X003957Y016657D03*
X005657Y016607D03*
X007257Y016607D03*
X009507Y016607D03*
X011607Y015657D03*
X012367Y013337D03*
X012517Y011747D03*
X011517Y010697D03*
X010487Y012437D03*
X008197Y010657D03*
X006527Y012155D03*
X003257Y009897D03*
X002477Y009887D03*
X006157Y007407D03*
X007407Y005457D03*
X008747Y005737D03*
X008937Y007277D03*
X011047Y007147D03*
X011707Y006957D03*
X012427Y007157D03*
X012927Y006957D03*
X012927Y005957D03*
X014167Y005377D03*
X013977Y004627D03*
X012927Y003497D03*
X010787Y005237D03*
X006207Y004707D03*
X014337Y012617D03*
X015627Y013927D03*
X016607Y013937D03*
X017757Y012707D03*
X019407Y011007D03*
X020207Y007507D03*
X024095Y011202D03*
X024607Y011107D03*
X025757Y011207D03*
X027277Y009077D03*
X024667Y014747D03*
X025797Y015767D03*
X025517Y017307D03*
X027377Y016507D03*
X023637Y016487D03*
X023757Y019207D03*
X023807Y020917D03*
X023457Y021657D03*
X023927Y022477D03*
X024307Y022117D03*
X024607Y023307D03*
X025107Y023307D03*
X025657Y023357D03*
X025757Y022857D03*
X025357Y023807D03*
X024857Y023807D03*
X024557Y024257D03*
X024057Y024257D03*
X024077Y023517D03*
X022657Y024307D03*
X022057Y024527D03*
X022057Y024007D03*
X022707Y022407D03*
X021607Y021457D03*
X021257Y020957D03*
X020407Y022057D03*
X019307Y020777D03*
X018757Y020907D03*
X018257Y020907D03*
X017757Y020907D03*
X017257Y020927D03*
X017107Y021477D03*
X016357Y021107D03*
X015407Y021317D03*
X012855Y018946D03*
X012284Y018946D03*
X011693Y018985D03*
X011047Y018997D03*
X008817Y019127D03*
X005657Y018957D03*
X004807Y019257D03*
X004207Y020557D03*
X003257Y021747D03*
X002477Y021737D03*
X006527Y024005D03*
X008197Y022507D03*
X010487Y024287D03*
X011517Y022547D03*
X012517Y023597D03*
X012367Y025187D03*
X014337Y024467D03*
X016137Y024557D03*
X017707Y025527D03*
X016407Y026997D03*
X015627Y026987D03*
X014157Y030257D03*
X014167Y030777D03*
X012607Y031107D03*
X012507Y031607D03*
X012207Y032057D03*
X011707Y032057D03*
X011407Y032507D03*
X010907Y032507D03*
X010927Y031767D03*
X011457Y031557D03*
X011957Y031557D03*
X011157Y030367D03*
X010777Y030727D03*
X010307Y029907D03*
X010657Y029167D03*
X009557Y030657D03*
X008457Y029707D03*
X008107Y029207D03*
X007257Y030307D03*
X006157Y029027D03*
X005607Y029157D03*
X005107Y029157D03*
X004607Y029157D03*
X004107Y029177D03*
X003957Y029727D03*
X003207Y029357D03*
X002257Y029567D03*
X002987Y032807D03*
X004557Y033777D03*
X003257Y035247D03*
X002477Y035237D03*
X006527Y037505D03*
X008197Y036057D03*
X008207Y034157D03*
X008907Y032777D03*
X008907Y032257D03*
X009507Y032557D03*
X006697Y032557D03*
X011517Y036047D03*
X012517Y037097D03*
X012367Y038687D03*
X010487Y037787D03*
X014337Y037967D03*
X016137Y037707D03*
X017707Y038677D03*
X016407Y040147D03*
X015627Y040137D03*
X012507Y042357D03*
X009957Y047557D03*
X009407Y048057D03*
X009807Y048807D03*
X009757Y049657D03*
X011657Y050657D03*
X011657Y052557D03*
X009557Y053457D03*
X007957Y053107D03*
X007657Y052207D03*
X005957Y052307D03*
X006457Y054307D03*
X008967Y056157D03*
X010857Y057257D03*
X011397Y057147D03*
X013557Y054357D03*
X014177Y054977D03*
X014167Y055477D03*
X017277Y053287D03*
X018057Y053297D03*
X021327Y055555D03*
X022997Y054057D03*
X025287Y055837D03*
X026317Y054097D03*
X027317Y055147D03*
X027117Y056737D03*
X029137Y056017D03*
X030207Y056307D03*
X030907Y055307D03*
X030807Y053607D03*
X032407Y051967D03*
X033807Y052657D03*
X034107Y054457D03*
X033707Y055807D03*
X033407Y056257D03*
X032537Y056767D03*
X032407Y058567D03*
X033807Y059257D03*
X034107Y061057D03*
X033707Y062407D03*
X033407Y062857D03*
X032537Y063367D03*
X032657Y061357D03*
X030907Y061907D03*
X030207Y062907D03*
X029137Y062617D03*
X027317Y061747D03*
X026317Y060697D03*
X025287Y062437D03*
X027117Y063337D03*
X030807Y060207D03*
X032657Y054757D03*
X032537Y050167D03*
X033407Y049657D03*
X033707Y049207D03*
X032657Y048157D03*
X034107Y047857D03*
X033807Y046057D03*
X032407Y045367D03*
X030807Y047007D03*
X030907Y048707D03*
X030207Y049707D03*
X029137Y049417D03*
X027317Y048547D03*
X026317Y047497D03*
X025287Y049237D03*
X027117Y050137D03*
X022997Y047457D03*
X021327Y048955D03*
X018057Y046697D03*
X017277Y046687D03*
X019677Y042405D03*
X021347Y040957D03*
X021357Y039057D03*
X022057Y037677D03*
X022057Y037157D03*
X022657Y037457D03*
X024057Y037407D03*
X024557Y037407D03*
X024857Y036957D03*
X025357Y036957D03*
X025657Y036507D03*
X025757Y036007D03*
X025107Y036457D03*
X024607Y036457D03*
X024077Y036667D03*
X023927Y035627D03*
X024307Y035267D03*
X023457Y034807D03*
X023807Y034067D03*
X022707Y035557D03*
X021607Y034607D03*
X021257Y034107D03*
X020407Y035207D03*
X019307Y033927D03*
X018757Y034057D03*
X018257Y034057D03*
X017757Y034057D03*
X017257Y034077D03*
X017107Y034627D03*
X016357Y034257D03*
X015407Y034467D03*
X013687Y033567D03*
X012557Y028957D03*
X010607Y027457D03*
X019677Y029255D03*
X021347Y027807D03*
X021357Y025907D03*
X019847Y024307D03*
X024667Y027797D03*
X025667Y028847D03*
X025517Y030437D03*
X023637Y029537D03*
X023757Y032357D03*
X025707Y033857D03*
X027307Y035157D03*
X027317Y035677D03*
X026837Y038467D03*
X028777Y040137D03*
X029557Y040147D03*
X027487Y042867D03*
X025667Y041997D03*
X024667Y040947D03*
X023637Y042687D03*
X025517Y043587D03*
X019847Y037457D03*
X027487Y029717D03*
X026837Y025317D03*
X027317Y022527D03*
X027307Y022007D03*
X025707Y020707D03*
X028807Y020527D03*
X032757Y022705D03*
X034477Y021207D03*
X036607Y022137D03*
X036817Y022647D03*
X037797Y021247D03*
X039127Y021977D03*
X039517Y022357D03*
X040307Y022857D03*
X038797Y023887D03*
X038627Y017677D03*
X038247Y017297D03*
X037707Y017657D03*
X037097Y017647D03*
X037167Y016487D03*
X037137Y015807D03*
X039127Y017417D03*
X039857Y014977D03*
X039507Y030857D03*
X040427Y035077D03*
X040467Y035627D03*
X037347Y037397D03*
X035267Y036307D03*
X033157Y036607D03*
X034497Y040907D03*
X032827Y042405D03*
X036787Y042687D03*
X037817Y040947D03*
X038817Y041997D03*
X038667Y043587D03*
X039157Y045457D03*
X040637Y042867D03*
X039157Y052057D03*
X039157Y058657D03*
X022997Y060657D03*
X021327Y062155D03*
X018057Y059897D03*
X017277Y059887D03*
X014337Y062717D03*
X012517Y061847D03*
X011517Y060797D03*
X010487Y062537D03*
X012367Y063437D03*
X008197Y060757D03*
X006527Y062255D03*
X003257Y059997D03*
X004357Y058807D03*
X004357Y057007D03*
X002477Y059987D03*
X004907Y050357D03*
X004657Y042407D03*
X014167Y017227D03*
X014177Y016727D03*
X019577Y016055D03*
X021397Y014807D03*
D61*
X021807Y011107D03*
X025457Y009707D03*
X025457Y007807D03*
X029537Y020457D03*
M02*
