%
M48
M72
T01C0.0236
T02C0.0240
T03C0.0276
T04C0.0354
T05C0.0394
T06C0.0433
T07C0.0591
T08C0.0827
T09C0.1299
%
T01
X6207Y4707
X7407Y5457
X8747Y5737
X8937Y7277
X11047Y7147
X11707Y6957
X12427Y7157
X12927Y6957
X12927Y5957
X14167Y5377
X13977Y4627
X12927Y3497
X10787Y5237
X6157Y7407
X3257Y9897
X2477Y9887
X6527Y12155
X8197Y10657
X10487Y12437
X11517Y10697
X12517Y11747
X12367Y13337
X14337Y12617
X15627Y13927
X16607Y13937
X17757Y12707
X19407Y11007
X20207Y7507
X24095Y11202
X24607Y11107
X25757Y11207
X27277Y9077
X24667Y14747
X25797Y15767
X25517Y17307
X27377Y16507
X23637Y16487
X23757Y19207
X23807Y20917
X23457Y21657
X23927Y22477
X24307Y22117
X24607Y23307
X25107Y23307
X25657Y23357
X25757Y22857
X25357Y23807
X24857Y23807
X24557Y24257
X24057Y24257
X24077Y23517
X22657Y24307
X22057Y24527
X22057Y24007
X22707Y22407
X21607Y21457
X21257Y20957
X20407Y22057
X19307Y20777
X18757Y20907
X18257Y20907
X17757Y20907
X17257Y20927
X17107Y21477
X16357Y21107
X15407Y21317
X12855Y18946
X12284Y18946
X11693Y18985
X11047Y18997
X8817Y19127
X9507Y16607
X7257Y16607
X5657Y16607
X3957Y16657
X4807Y19257
X5657Y18957
X4207Y20557
X3257Y21747
X2477Y21737
X6527Y24005
X8197Y22507
X10487Y24287
X11517Y22547
X12517Y23597
X12367Y25187
X14337Y24467
X16137Y24557
X17707Y25527
X16407Y26997
X15627Y26987
X14157Y30257
X14167Y30777
X12607Y31107
X12507Y31607
X12207Y32057
X11707Y32057
X11407Y32507
X10907Y32507
X10927Y31767
X11457Y31557
X11957Y31557
X11157Y30367
X10777Y30727
X10307Y29907
X10657Y29167
X9557Y30657
X8457Y29707
X8107Y29207
X7257Y30307
X6157Y29027
X5607Y29157
X5107Y29157
X4607Y29157
X4107Y29177
X3957Y29727
X3207Y29357
X2257Y29567
X2987Y32807
X4557Y33777
X3257Y35247
X2477Y35237
X6527Y37505
X8197Y36057
X8207Y34157
X8907Y32777
X8907Y32257
X9507Y32557
X6697Y32557
X11517Y36047
X12517Y37097
X12367Y38687
X10487Y37787
X14337Y37967
X16137Y37707
X17707Y38677
X16407Y40147
X15627Y40137
X12507Y42357
X9957Y47557
X9407Y48057
X9807Y48807
X9757Y49657
X11657Y50657
X11657Y52557
X9557Y53457
X7957Y53107
X7657Y52207
X5957Y52307
X6457Y54307
X8967Y56157
X10857Y57257
X11397Y57147
X13557Y54357
X14177Y54977
X14167Y55477
X17277Y53287
X18057Y53297
X21327Y55555
X22997Y54057
X25287Y55837
X26317Y54097
X27317Y55147
X27117Y56737
X29137Y56017
X30207Y56307
X30907Y55307
X30807Y53607
X32407Y51967
X33807Y52657
X34107Y54457
X33707Y55807
X33407Y56257
X32537Y56767
X32407Y58567
X33807Y59257
X34107Y61057
X33707Y62407
X33407Y62857
X32537Y63367
X32657Y61357
X30907Y61907
X30207Y62907
X29137Y62617
X27317Y61747
X26317Y60697
X25287Y62437
X27117Y63337
X30807Y60207
X32657Y54757
X32537Y50167
X33407Y49657
X33707Y49207
X32657Y48157
X34107Y47857
X33807Y46057
X32407Y45367
X30807Y47007
X30907Y48707
X30207Y49707
X29137Y49417
X27317Y48547
X26317Y47497
X25287Y49237
X27117Y50137
X22997Y47457
X21327Y48955
X18057Y46697
X17277Y46687
X19677Y42405
X21347Y40957
X21357Y39057
X22057Y37677
X22057Y37157
X22657Y37457
X24057Y37407
X24557Y37407
X24857Y36957
X25357Y36957
X25657Y36507
X25757Y36007
X25107Y36457
X24607Y36457
X24077Y36667
X23927Y35627
X24307Y35267
X23457Y34807
X23807Y34067
X22707Y35557
X21607Y34607
X21257Y34107
X20407Y35207
X19307Y33927
X18757Y34057
X18257Y34057
X17757Y34057
X17257Y34077
X17107Y34627
X16357Y34257
X15407Y34467
X13687Y33567
X12557Y28957
X10607Y27457
X19677Y29255
X21347Y27807
X21357Y25907
X19847Y24307
X24667Y27797
X25667Y28847
X25517Y30437
X23637Y29537
X23757Y32357
X25707Y33857
X27307Y35157
X27317Y35677
X26837Y38467
X28777Y40137
X29557Y40147
X27487Y42867
X25667Y41997
X24667Y40947
X23637Y42687
X25517Y43587
X19847Y37457
X27487Y29717
X26837Y25317
X27317Y22527
X27307Y22007
X25707Y20707
X28807Y20527
X32757Y22705
X34477Y21207
X36607Y22137
X36817Y22647
X37797Y21247
X39127Y21977
X39517Y22357
X40307Y22857
X38797Y23887
X38627Y17677
X38247Y17297
X37707Y17657
X37097Y17647
X37167Y16487
X37137Y15807
X39127Y17417
X39857Y14977
X39507Y30857
X40427Y35077
X40467Y35627
X37347Y37397
X35267Y36307
X33157Y36607
X34497Y40907
X32827Y42405
X36787Y42687
X37817Y40947
X38817Y41997
X38667Y43587
X39157Y45457
X40637Y42867
X39157Y52057
X39157Y58657
X22997Y60657
X21327Y62155
X18057Y59897
X17277Y59887
X14337Y62717
X12517Y61847
X11517Y60797
X10487Y62537
X12367Y63437
X8197Y60757
X6527Y62255
X3257Y59997
X4357Y58807
X4357Y57007
X2477Y59987
X4907Y50357
X4657Y42407
X14167Y17227
X14177Y16727
X11607Y15657
X19577Y16055
X21397Y14807
T02
X21807Y11107
X25457Y9707
X25457Y7807
X29537Y20457
T03
X26957Y25957
X26457Y26457
X25957Y25957
X25457Y26457
X24957Y25957
X24457Y26457
X13807Y20707
X13307Y21207
X12807Y20707
X12307Y21207
X11807Y20707
X11307Y21207
X15557Y10957
X13807Y8857
X13307Y9357
X12807Y8857
X12307Y9357
X11807Y8857
X11307Y9357
X18557Y10957
X24362Y13441
X24862Y12941
X25362Y13441
X25862Y12941
X26362Y13441
X26862Y12941
X37442Y19941
X37942Y19441
X38442Y19941
X38942Y19441
X39442Y19941
X39942Y19441
X40107Y39107
X39607Y39607
X39107Y39107
X38607Y39607
X38107Y39107
X37607Y39607
X28607Y45657
X28107Y46157
X27607Y45657
X27107Y46157
X26607Y45657
X26107Y46157
X26607Y52257
X27107Y52757
X27607Y52257
X28107Y52757
X28607Y52257
X26107Y52757
X26607Y58857
X27107Y59357
X27607Y58857
X28107Y59357
X28607Y58857
X26107Y59357
X13807Y58957
X13307Y59457
X12807Y58957
X12307Y59457
X11807Y58957
X11307Y59457
X24457Y39607
X24957Y39107
X25457Y39607
X25957Y39107
X26457Y39607
X26957Y39107
X13807Y34207
X13307Y34707
X12807Y34207
X12307Y34707
X11807Y34207
X11307Y34707
T04
X16167Y30277
X17167Y30277
X16667Y29277
X15667Y29277
X16157Y17107
X17157Y17107
X16657Y16107
X15657Y16107
X4017Y13177
X3517Y12177
X3017Y13177
X2517Y12177
X2517Y24027
X3517Y24027
X4017Y25027
X3017Y25027
X3517Y37527
X2517Y37527
X3017Y38527
X4017Y38527
X6857Y44407
X7857Y44407
X8857Y44407
X9857Y44407
X10357Y45407
X9357Y45407
X8357Y45407
X7357Y45407
X15667Y42427
X16667Y42427
X17167Y43427
X16167Y43427
X17317Y48977
X18317Y48977
X18817Y49977
X17817Y49977
X18317Y55577
X17317Y55577
X17817Y56577
X18817Y56577
X18317Y62177
X17317Y62177
X17817Y63177
X18817Y63177
X4017Y63277
X3517Y62277
X3017Y63277
X2517Y62277
X28817Y42427
X29817Y42427
X30317Y43427
X29317Y43427
X29207Y36057
X29207Y35057
X29207Y34057
X29207Y33057
X29207Y32057
X29207Y31057
X29207Y30057
X29207Y29057
X29207Y28057
X32207Y28057
X32207Y29057
X32207Y30057
X32207Y31057
X32207Y32057
X32207Y33057
X32207Y34057
X32207Y35057
X32207Y36057
X36857Y29807
X37857Y29807
X37357Y28807
X36357Y28807
X30287Y23757
X29287Y23757
X29787Y22757
X28787Y22757
X38601Y10293
X38601Y8561
T05
X2507Y3257
X3507Y3257
X4507Y3257
X4507Y4257
X3507Y4257
X2507Y4257
X2557Y6107
X2557Y7107
X4467Y12377
X4526Y15154
X3526Y15154
X2526Y15154
X2757Y17207
X2757Y18207
X2757Y19207
X5756Y15154
X6756Y15154
X7756Y15154
X8987Y15152
X9987Y15152
X10987Y15152
X12193Y15162
X13193Y15162
X14193Y15162
X17607Y16307
X17757Y18707
X16757Y18707
X16757Y19707
X17757Y19707
X18757Y19707
X19757Y19707
X20757Y19707
X21757Y19707
X22757Y19707
X22757Y18707
X21757Y18707
X20757Y18707
X19757Y18707
X18757Y18707
X15757Y18707
X15757Y19707
X14107Y26957
X14107Y27957
X13107Y27957
X12107Y27957
X12107Y26957
X13107Y26957
X9607Y26957
X9607Y27957
X8607Y27957
X8607Y26957
X7607Y26957
X6607Y26957
X6607Y27957
X7607Y27957
X5607Y27957
X4607Y27957
X4607Y26957
X5607Y26957
X3607Y26957
X2607Y26957
X2607Y27957
X3607Y27957
X4467Y24227
X15757Y31857
X15757Y32857
X16757Y32857
X17757Y32857
X17757Y31857
X16757Y31857
X18757Y31857
X18757Y32857
X19757Y32857
X20757Y32857
X20757Y31857
X19757Y31857
X21757Y31857
X22757Y31857
X22757Y32857
X21757Y32857
X25257Y32857
X25257Y31857
X26257Y31857
X27257Y31857
X27257Y32857
X26257Y32857
X17617Y29477
X25257Y19707
X26257Y19707
X27257Y19707
X27257Y18707
X26257Y18707
X25257Y18707
X29387Y13807
X30387Y13807
X31387Y13807
X32387Y13807
X33387Y13807
X34387Y13807
X35387Y13807
X36387Y13807
X37387Y13807
X38387Y13807
X39387Y13807
X40387Y13807
X33387Y16007
X33387Y17007
X32387Y17007
X31387Y17007
X31387Y16007
X32387Y16007
X30397Y11307
X30397Y10307
X30397Y9307
X30397Y8307
X30397Y7307
X30397Y6307
X18557Y4957
X15557Y3957
X14007Y2507
X13007Y2507
X12007Y2507
X15557Y6957
X30737Y22957
X30767Y42627
X19267Y49177
X17617Y42627
X11217Y40307
X10217Y40307
X6997Y40307
X5997Y40307
X4467Y37727
X3907Y50707
X3907Y51707
X3907Y52707
X2907Y52707
X2907Y51707
X2907Y50707
X4467Y62477
X19267Y62377
X19267Y55777
T06
X40037Y55071
X40037Y53299
X40037Y48471
X40037Y46699
X40037Y59899
X40037Y61671
X27357Y4757
X26357Y4757
X26357Y3757
X27357Y3757
X25357Y3757
X25357Y4757
X24057Y4757
X23057Y4757
X23057Y3757
X24057Y3757
X21757Y3757
X21757Y4757
X20757Y4757
X19757Y4757
X19757Y3757
X20757Y3757
T07
X11657Y43107
X5557Y43107
T08
X40037Y45341
X40037Y49829
X40037Y51941
X40037Y56429
X40037Y58541
X40037Y63029
T09
X10857Y41907
X6357Y41907
X35607Y26307
X38607Y26307
M30
