G75*
G70*
%OFA0B0*%
%FSLAX24Y24*%
%IPPOS*%
%LPD*%
%AMOC8*
5,1,8,0,0,1.08239X$1,22.5*
%
%ADD10C,0.0100*%
%ADD11C,0.0300*%
%ADD12C,0.0571*%
%ADD13R,0.0571X0.0571*%
%ADD14R,0.0512X0.0472*%
%ADD15R,0.0468X0.0478*%
%ADD16C,0.0665*%
%ADD17C,0.0000*%
%ADD18C,0.0472*%
%ADD19C,0.0520*%
%ADD20C,0.0992*%
%ADD21O,0.1220X0.0665*%
%ADD22C,0.1559*%
%ADD23C,0.0712*%
%ADD24R,0.0712X0.0712*%
%ADD25C,0.0840*%
%ADD26C,0.0425*%
%ADD27R,0.0792X0.0792*%
%ADD28R,0.0630X0.0472*%
%ADD29C,0.0780*%
%ADD30R,0.0665X0.0665*%
%ADD31C,0.1063*%
%ADD32O,0.1306X0.0712*%
%ADD33C,0.0475*%
%ADD34C,0.0480*%
D10*
X022584Y013027D02*
X022584Y024319D01*
X035517Y024319D01*
X035517Y013027D01*
X022584Y013027D01*
X023091Y012687D02*
X034251Y012687D01*
X034251Y005207D01*
X023091Y005207D01*
X023091Y012687D01*
X022564Y024627D02*
X022564Y044019D01*
X035497Y044019D01*
X035497Y024627D01*
X022564Y024627D01*
X035714Y030869D02*
X035714Y017977D01*
X048647Y017977D01*
X048647Y030869D01*
X035714Y030869D01*
X035714Y031127D02*
X035714Y044019D01*
X048647Y044019D01*
X048647Y031127D01*
X035714Y031127D01*
X046997Y044327D02*
X046997Y050669D01*
X022564Y050669D01*
X022564Y044327D01*
X046997Y044327D01*
X048864Y039727D02*
X048864Y063869D01*
X061797Y063869D01*
X061797Y039727D01*
X061797Y039719D02*
X061797Y026319D01*
X061797Y014369D01*
X061797Y001627D01*
X048864Y001627D01*
X048864Y014369D01*
X048864Y026219D01*
X048864Y039719D01*
X046997Y050927D02*
X046997Y057269D01*
X022564Y057269D01*
X022564Y050927D01*
X046997Y050927D01*
X046997Y057527D02*
X046997Y063869D01*
X022564Y063869D01*
X022564Y057527D01*
X046997Y057527D01*
X061797Y026319D02*
X061797Y026227D01*
X061797Y014369D02*
X061797Y014352D01*
X048864Y014352D02*
X048864Y014369D01*
X048647Y017669D02*
X048647Y003327D01*
X035714Y003327D01*
X035714Y017669D01*
X048647Y017669D01*
X048864Y026219D02*
X048864Y026227D01*
D11*
X018639Y047241D02*
X018355Y046957D01*
X017505Y046957D01*
X017505Y046390D02*
X017505Y048091D01*
X018355Y048091D01*
X018639Y047808D01*
X018639Y047241D01*
X016797Y047241D02*
X016797Y047808D01*
X016514Y048091D01*
X015947Y048091D01*
X015663Y047808D01*
X015663Y047241D01*
X015947Y046957D01*
X016514Y046957D01*
X016797Y047241D01*
X015002Y046957D02*
X014719Y047241D01*
X014719Y048375D01*
X015002Y048091D02*
X014435Y048091D01*
X013728Y048091D02*
X012877Y048091D01*
X012594Y047808D01*
X012877Y047524D01*
X013444Y047524D01*
X013728Y047241D01*
X013444Y046957D01*
X012594Y046957D01*
X011887Y047808D02*
X010752Y047808D01*
X010045Y047808D02*
X010045Y046957D01*
X009478Y046957D02*
X009478Y047808D01*
X009761Y048091D01*
X010045Y047808D01*
X009478Y047808D02*
X009194Y048091D01*
X008911Y048091D01*
X008911Y046957D01*
X008203Y047241D02*
X008203Y047808D01*
X007920Y048091D01*
X007353Y048091D01*
X007069Y047808D01*
X007069Y047241D01*
X007353Y046957D01*
X007920Y046957D01*
X008203Y047241D01*
X006409Y046957D02*
X006125Y047241D01*
X006125Y048375D01*
X005841Y048091D02*
X006409Y048091D01*
X005181Y048091D02*
X004614Y048091D01*
X004897Y048375D02*
X004897Y047241D01*
X005181Y046957D01*
X003907Y047241D02*
X003907Y047808D01*
X003623Y048091D01*
X003056Y048091D01*
X002772Y047808D01*
X002772Y047241D01*
X003056Y046957D01*
X003623Y046957D01*
X003907Y047241D01*
X002065Y047241D02*
X002065Y047808D01*
X001781Y048091D01*
X000931Y048091D01*
X000931Y048659D02*
X000931Y046957D01*
X001781Y046957D01*
X002065Y047241D01*
D12*
X023581Y039107D03*
X024081Y039607D03*
X024581Y039107D03*
X025081Y039607D03*
X025581Y039107D03*
X035081Y045657D03*
X035581Y046157D03*
X036081Y045657D03*
X036581Y046157D03*
X037081Y045657D03*
X037231Y039607D03*
X037731Y039107D03*
X038231Y039607D03*
X038731Y039107D03*
X036731Y039107D03*
X037231Y026457D03*
X037731Y025957D03*
X038231Y026457D03*
X038731Y025957D03*
X036731Y025957D03*
X025746Y019441D03*
X025246Y019941D03*
X024746Y019441D03*
X024246Y019941D03*
X023746Y019441D03*
X036826Y012941D03*
X037326Y013441D03*
X037826Y012941D03*
X038326Y013441D03*
X038826Y012941D03*
X045131Y010957D03*
X048131Y010957D03*
X049881Y008857D03*
X050381Y009357D03*
X050881Y008857D03*
X051381Y009357D03*
X051881Y008857D03*
X051881Y020707D03*
X051381Y021207D03*
X050881Y020707D03*
X050381Y021207D03*
X049881Y020707D03*
X049881Y034207D03*
X050381Y034707D03*
X050881Y034207D03*
X051381Y034707D03*
X051881Y034207D03*
X037081Y052257D03*
X036581Y052757D03*
X036081Y052257D03*
X035581Y052757D03*
X035081Y052257D03*
X035081Y058857D03*
X035581Y059357D03*
X036081Y058857D03*
X036581Y059357D03*
X037081Y058857D03*
X049881Y058957D03*
X050381Y059457D03*
X050881Y058957D03*
X051381Y059457D03*
X051881Y058957D03*
D13*
X052381Y059457D03*
X037581Y059357D03*
X037581Y052757D03*
X037581Y046157D03*
X039231Y039607D03*
X039231Y026457D03*
X039326Y013441D03*
X026246Y019941D03*
X026081Y039607D03*
X052381Y034707D03*
X052381Y021207D03*
X052381Y009357D03*
D14*
X047867Y013031D03*
X047198Y013031D03*
X047248Y026191D03*
X047917Y026191D03*
X060398Y020941D03*
X061067Y020941D03*
X061067Y009091D03*
X060398Y009091D03*
X060398Y034441D03*
X061067Y034441D03*
X047917Y039341D03*
X047248Y039341D03*
X046267Y045891D03*
X045598Y045891D03*
X045598Y052491D03*
X046267Y052491D03*
X046267Y059091D03*
X045598Y059091D03*
X060398Y059191D03*
X061067Y059191D03*
X034767Y039341D03*
X034098Y039341D03*
X034118Y019681D03*
X034787Y019681D03*
D15*
X034785Y021757D03*
X034116Y021757D03*
X047396Y015257D03*
X048065Y015257D03*
X048145Y028347D03*
X047476Y028347D03*
X047476Y041497D03*
X048145Y041497D03*
X046495Y048047D03*
X045826Y048047D03*
X045826Y054647D03*
X046495Y054647D03*
X046495Y061247D03*
X045826Y061247D03*
X060626Y061347D03*
X061295Y061347D03*
X061295Y036597D03*
X060626Y036597D03*
X060626Y023097D03*
X061295Y023097D03*
X061295Y011247D03*
X060626Y011247D03*
X034995Y041497D03*
X034326Y041497D03*
D16*
X033871Y042427D03*
X034871Y042427D03*
X034371Y043427D03*
X033371Y043427D03*
X044871Y049977D03*
X045871Y049977D03*
X046371Y048977D03*
X045371Y048977D03*
X046521Y043427D03*
X047521Y043427D03*
X048021Y042427D03*
X047021Y042427D03*
X053331Y045407D03*
X054331Y045407D03*
X055331Y045407D03*
X056331Y045407D03*
X055831Y044407D03*
X054831Y044407D03*
X053831Y044407D03*
X059671Y038527D03*
X060671Y038527D03*
X061171Y037527D03*
X060171Y037527D03*
X060671Y025027D03*
X059671Y025027D03*
X060171Y024027D03*
X061171Y024027D03*
X060671Y013177D03*
X061171Y012177D03*
X060171Y012177D03*
X059671Y013177D03*
X048031Y016107D03*
X047031Y016107D03*
X047531Y017107D03*
X046531Y017107D03*
X047021Y029277D03*
X047521Y030277D03*
X046521Y030277D03*
X048021Y029277D03*
X034901Y022757D03*
X033901Y022757D03*
X034401Y023757D03*
X033401Y023757D03*
X027331Y028807D03*
X026331Y028807D03*
X026831Y029807D03*
X025831Y029807D03*
X045371Y055577D03*
X046371Y055577D03*
X045871Y056577D03*
X044871Y056577D03*
X045371Y062177D03*
X046371Y062177D03*
X045871Y063177D03*
X044871Y063177D03*
X059671Y063277D03*
X060171Y062277D03*
X060671Y063277D03*
X061171Y062277D03*
D17*
X059024Y062477D02*
X059026Y062505D01*
X059032Y062533D01*
X059042Y062559D01*
X059055Y062584D01*
X059072Y062606D01*
X059092Y062626D01*
X059114Y062643D01*
X059139Y062656D01*
X059165Y062666D01*
X059193Y062672D01*
X059221Y062674D01*
X059249Y062672D01*
X059277Y062666D01*
X059303Y062656D01*
X059328Y062643D01*
X059350Y062626D01*
X059370Y062606D01*
X059387Y062584D01*
X059400Y062559D01*
X059410Y062533D01*
X059416Y062505D01*
X059418Y062477D01*
X059416Y062449D01*
X059410Y062421D01*
X059400Y062395D01*
X059387Y062370D01*
X059370Y062348D01*
X059350Y062328D01*
X059328Y062311D01*
X059303Y062298D01*
X059277Y062288D01*
X059249Y062282D01*
X059221Y062280D01*
X059193Y062282D01*
X059165Y062288D01*
X059139Y062298D01*
X059114Y062311D01*
X059092Y062328D01*
X059072Y062348D01*
X059055Y062370D01*
X059042Y062395D01*
X059032Y062421D01*
X059026Y062449D01*
X059024Y062477D01*
X044224Y062377D02*
X044226Y062405D01*
X044232Y062433D01*
X044242Y062459D01*
X044255Y062484D01*
X044272Y062506D01*
X044292Y062526D01*
X044314Y062543D01*
X044339Y062556D01*
X044365Y062566D01*
X044393Y062572D01*
X044421Y062574D01*
X044449Y062572D01*
X044477Y062566D01*
X044503Y062556D01*
X044528Y062543D01*
X044550Y062526D01*
X044570Y062506D01*
X044587Y062484D01*
X044600Y062459D01*
X044610Y062433D01*
X044616Y062405D01*
X044618Y062377D01*
X044616Y062349D01*
X044610Y062321D01*
X044600Y062295D01*
X044587Y062270D01*
X044570Y062248D01*
X044550Y062228D01*
X044528Y062211D01*
X044503Y062198D01*
X044477Y062188D01*
X044449Y062182D01*
X044421Y062180D01*
X044393Y062182D01*
X044365Y062188D01*
X044339Y062198D01*
X044314Y062211D01*
X044292Y062228D01*
X044272Y062248D01*
X044255Y062270D01*
X044242Y062295D01*
X044232Y062321D01*
X044226Y062349D01*
X044224Y062377D01*
X044224Y055777D02*
X044226Y055805D01*
X044232Y055833D01*
X044242Y055859D01*
X044255Y055884D01*
X044272Y055906D01*
X044292Y055926D01*
X044314Y055943D01*
X044339Y055956D01*
X044365Y055966D01*
X044393Y055972D01*
X044421Y055974D01*
X044449Y055972D01*
X044477Y055966D01*
X044503Y055956D01*
X044528Y055943D01*
X044550Y055926D01*
X044570Y055906D01*
X044587Y055884D01*
X044600Y055859D01*
X044610Y055833D01*
X044616Y055805D01*
X044618Y055777D01*
X044616Y055749D01*
X044610Y055721D01*
X044600Y055695D01*
X044587Y055670D01*
X044570Y055648D01*
X044550Y055628D01*
X044528Y055611D01*
X044503Y055598D01*
X044477Y055588D01*
X044449Y055582D01*
X044421Y055580D01*
X044393Y055582D01*
X044365Y055588D01*
X044339Y055598D01*
X044314Y055611D01*
X044292Y055628D01*
X044272Y055648D01*
X044255Y055670D01*
X044242Y055695D01*
X044232Y055721D01*
X044226Y055749D01*
X044224Y055777D01*
X044224Y049177D02*
X044226Y049205D01*
X044232Y049233D01*
X044242Y049259D01*
X044255Y049284D01*
X044272Y049306D01*
X044292Y049326D01*
X044314Y049343D01*
X044339Y049356D01*
X044365Y049366D01*
X044393Y049372D01*
X044421Y049374D01*
X044449Y049372D01*
X044477Y049366D01*
X044503Y049356D01*
X044528Y049343D01*
X044550Y049326D01*
X044570Y049306D01*
X044587Y049284D01*
X044600Y049259D01*
X044610Y049233D01*
X044616Y049205D01*
X044618Y049177D01*
X044616Y049149D01*
X044610Y049121D01*
X044600Y049095D01*
X044587Y049070D01*
X044570Y049048D01*
X044550Y049028D01*
X044528Y049011D01*
X044503Y048998D01*
X044477Y048988D01*
X044449Y048982D01*
X044421Y048980D01*
X044393Y048982D01*
X044365Y048988D01*
X044339Y048998D01*
X044314Y049011D01*
X044292Y049028D01*
X044272Y049048D01*
X044255Y049070D01*
X044242Y049095D01*
X044232Y049121D01*
X044226Y049149D01*
X044224Y049177D01*
X045874Y042627D02*
X045876Y042655D01*
X045882Y042683D01*
X045892Y042709D01*
X045905Y042734D01*
X045922Y042756D01*
X045942Y042776D01*
X045964Y042793D01*
X045989Y042806D01*
X046015Y042816D01*
X046043Y042822D01*
X046071Y042824D01*
X046099Y042822D01*
X046127Y042816D01*
X046153Y042806D01*
X046178Y042793D01*
X046200Y042776D01*
X046220Y042756D01*
X046237Y042734D01*
X046250Y042709D01*
X046260Y042683D01*
X046266Y042655D01*
X046268Y042627D01*
X046266Y042599D01*
X046260Y042571D01*
X046250Y042545D01*
X046237Y042520D01*
X046220Y042498D01*
X046200Y042478D01*
X046178Y042461D01*
X046153Y042448D01*
X046127Y042438D01*
X046099Y042432D01*
X046071Y042430D01*
X046043Y042432D01*
X046015Y042438D01*
X045989Y042448D01*
X045964Y042461D01*
X045942Y042478D01*
X045922Y042498D01*
X045905Y042520D01*
X045892Y042545D01*
X045882Y042571D01*
X045876Y042599D01*
X045874Y042627D01*
X052181Y041907D02*
X052184Y041966D01*
X052192Y042025D01*
X052205Y042082D01*
X052224Y042139D01*
X052247Y042193D01*
X052276Y042245D01*
X052309Y042294D01*
X052346Y042340D01*
X052387Y042382D01*
X052432Y042420D01*
X052481Y042455D01*
X052532Y042484D01*
X052586Y042509D01*
X052641Y042529D01*
X052699Y042543D01*
X052757Y042553D01*
X052816Y042557D01*
X052875Y042555D01*
X052934Y042549D01*
X052992Y042537D01*
X053049Y042519D01*
X053103Y042497D01*
X053156Y042470D01*
X053206Y042438D01*
X053253Y042402D01*
X053296Y042361D01*
X053335Y042317D01*
X053370Y042270D01*
X053401Y042219D01*
X053427Y042166D01*
X053448Y042111D01*
X053464Y042054D01*
X053475Y041996D01*
X053480Y041937D01*
X053480Y041877D01*
X053475Y041818D01*
X053464Y041760D01*
X053448Y041703D01*
X053427Y041648D01*
X053401Y041595D01*
X053370Y041544D01*
X053335Y041497D01*
X053296Y041453D01*
X053253Y041412D01*
X053206Y041376D01*
X053156Y041344D01*
X053103Y041317D01*
X053049Y041295D01*
X052992Y041277D01*
X052934Y041265D01*
X052875Y041259D01*
X052816Y041257D01*
X052757Y041261D01*
X052699Y041271D01*
X052641Y041285D01*
X052586Y041305D01*
X052532Y041330D01*
X052481Y041359D01*
X052432Y041394D01*
X052387Y041432D01*
X052346Y041474D01*
X052309Y041520D01*
X052276Y041569D01*
X052247Y041621D01*
X052224Y041675D01*
X052205Y041732D01*
X052192Y041789D01*
X052184Y041848D01*
X052181Y041907D01*
X056681Y041907D02*
X056684Y041966D01*
X056692Y042025D01*
X056705Y042082D01*
X056724Y042139D01*
X056747Y042193D01*
X056776Y042245D01*
X056809Y042294D01*
X056846Y042340D01*
X056887Y042382D01*
X056932Y042420D01*
X056981Y042455D01*
X057032Y042484D01*
X057086Y042509D01*
X057141Y042529D01*
X057199Y042543D01*
X057257Y042553D01*
X057316Y042557D01*
X057375Y042555D01*
X057434Y042549D01*
X057492Y042537D01*
X057549Y042519D01*
X057603Y042497D01*
X057656Y042470D01*
X057706Y042438D01*
X057753Y042402D01*
X057796Y042361D01*
X057835Y042317D01*
X057870Y042270D01*
X057901Y042219D01*
X057927Y042166D01*
X057948Y042111D01*
X057964Y042054D01*
X057975Y041996D01*
X057980Y041937D01*
X057980Y041877D01*
X057975Y041818D01*
X057964Y041760D01*
X057948Y041703D01*
X057927Y041648D01*
X057901Y041595D01*
X057870Y041544D01*
X057835Y041497D01*
X057796Y041453D01*
X057753Y041412D01*
X057706Y041376D01*
X057656Y041344D01*
X057603Y041317D01*
X057549Y041295D01*
X057492Y041277D01*
X057434Y041265D01*
X057375Y041259D01*
X057316Y041257D01*
X057257Y041261D01*
X057199Y041271D01*
X057141Y041285D01*
X057086Y041305D01*
X057032Y041330D01*
X056981Y041359D01*
X056932Y041394D01*
X056887Y041432D01*
X056846Y041474D01*
X056809Y041520D01*
X056776Y041569D01*
X056747Y041621D01*
X056724Y041675D01*
X056705Y041732D01*
X056692Y041789D01*
X056684Y041848D01*
X056681Y041907D01*
X059024Y037727D02*
X059026Y037755D01*
X059032Y037783D01*
X059042Y037809D01*
X059055Y037834D01*
X059072Y037856D01*
X059092Y037876D01*
X059114Y037893D01*
X059139Y037906D01*
X059165Y037916D01*
X059193Y037922D01*
X059221Y037924D01*
X059249Y037922D01*
X059277Y037916D01*
X059303Y037906D01*
X059328Y037893D01*
X059350Y037876D01*
X059370Y037856D01*
X059387Y037834D01*
X059400Y037809D01*
X059410Y037783D01*
X059416Y037755D01*
X059418Y037727D01*
X059416Y037699D01*
X059410Y037671D01*
X059400Y037645D01*
X059387Y037620D01*
X059370Y037598D01*
X059350Y037578D01*
X059328Y037561D01*
X059303Y037548D01*
X059277Y037538D01*
X059249Y037532D01*
X059221Y037530D01*
X059193Y037532D01*
X059165Y037538D01*
X059139Y037548D01*
X059114Y037561D01*
X059092Y037578D01*
X059072Y037598D01*
X059055Y037620D01*
X059042Y037645D01*
X059032Y037671D01*
X059026Y037699D01*
X059024Y037727D01*
X059024Y024227D02*
X059026Y024255D01*
X059032Y024283D01*
X059042Y024309D01*
X059055Y024334D01*
X059072Y024356D01*
X059092Y024376D01*
X059114Y024393D01*
X059139Y024406D01*
X059165Y024416D01*
X059193Y024422D01*
X059221Y024424D01*
X059249Y024422D01*
X059277Y024416D01*
X059303Y024406D01*
X059328Y024393D01*
X059350Y024376D01*
X059370Y024356D01*
X059387Y024334D01*
X059400Y024309D01*
X059410Y024283D01*
X059416Y024255D01*
X059418Y024227D01*
X059416Y024199D01*
X059410Y024171D01*
X059400Y024145D01*
X059387Y024120D01*
X059370Y024098D01*
X059350Y024078D01*
X059328Y024061D01*
X059303Y024048D01*
X059277Y024038D01*
X059249Y024032D01*
X059221Y024030D01*
X059193Y024032D01*
X059165Y024038D01*
X059139Y024048D01*
X059114Y024061D01*
X059092Y024078D01*
X059072Y024098D01*
X059055Y024120D01*
X059042Y024145D01*
X059032Y024171D01*
X059026Y024199D01*
X059024Y024227D01*
X059024Y012377D02*
X059026Y012405D01*
X059032Y012433D01*
X059042Y012459D01*
X059055Y012484D01*
X059072Y012506D01*
X059092Y012526D01*
X059114Y012543D01*
X059139Y012556D01*
X059165Y012566D01*
X059193Y012572D01*
X059221Y012574D01*
X059249Y012572D01*
X059277Y012566D01*
X059303Y012556D01*
X059328Y012543D01*
X059350Y012526D01*
X059370Y012506D01*
X059387Y012484D01*
X059400Y012459D01*
X059410Y012433D01*
X059416Y012405D01*
X059418Y012377D01*
X059416Y012349D01*
X059410Y012321D01*
X059400Y012295D01*
X059387Y012270D01*
X059370Y012248D01*
X059350Y012228D01*
X059328Y012211D01*
X059303Y012198D01*
X059277Y012188D01*
X059249Y012182D01*
X059221Y012180D01*
X059193Y012182D01*
X059165Y012188D01*
X059139Y012198D01*
X059114Y012211D01*
X059092Y012228D01*
X059072Y012248D01*
X059055Y012270D01*
X059042Y012295D01*
X059032Y012321D01*
X059026Y012349D01*
X059024Y012377D01*
X045884Y016307D02*
X045886Y016335D01*
X045892Y016363D01*
X045902Y016389D01*
X045915Y016414D01*
X045932Y016436D01*
X045952Y016456D01*
X045974Y016473D01*
X045999Y016486D01*
X046025Y016496D01*
X046053Y016502D01*
X046081Y016504D01*
X046109Y016502D01*
X046137Y016496D01*
X046163Y016486D01*
X046188Y016473D01*
X046210Y016456D01*
X046230Y016436D01*
X046247Y016414D01*
X046260Y016389D01*
X046270Y016363D01*
X046276Y016335D01*
X046278Y016307D01*
X046276Y016279D01*
X046270Y016251D01*
X046260Y016225D01*
X046247Y016200D01*
X046230Y016178D01*
X046210Y016158D01*
X046188Y016141D01*
X046163Y016128D01*
X046137Y016118D01*
X046109Y016112D01*
X046081Y016110D01*
X046053Y016112D01*
X046025Y016118D01*
X045999Y016128D01*
X045974Y016141D01*
X045952Y016158D01*
X045932Y016178D01*
X045915Y016200D01*
X045902Y016225D01*
X045892Y016251D01*
X045886Y016279D01*
X045884Y016307D01*
X043714Y003757D02*
X043716Y003787D01*
X043722Y003816D01*
X043732Y003843D01*
X043746Y003870D01*
X043763Y003894D01*
X043783Y003916D01*
X043806Y003934D01*
X043831Y003950D01*
X043858Y003961D01*
X043887Y003969D01*
X043916Y003973D01*
X043946Y003973D01*
X043975Y003969D01*
X044004Y003961D01*
X044031Y003950D01*
X044056Y003934D01*
X044079Y003916D01*
X044099Y003894D01*
X044116Y003870D01*
X044130Y003843D01*
X044140Y003816D01*
X044146Y003787D01*
X044148Y003757D01*
X044146Y003727D01*
X044140Y003698D01*
X044130Y003671D01*
X044116Y003644D01*
X044099Y003620D01*
X044079Y003598D01*
X044056Y003580D01*
X044031Y003564D01*
X044004Y003553D01*
X043975Y003545D01*
X043946Y003541D01*
X043916Y003541D01*
X043887Y003545D01*
X043858Y003553D01*
X043831Y003564D01*
X043806Y003580D01*
X043783Y003598D01*
X043763Y003620D01*
X043746Y003644D01*
X043732Y003671D01*
X043722Y003698D01*
X043716Y003727D01*
X043714Y003757D01*
X042714Y003757D02*
X042716Y003787D01*
X042722Y003816D01*
X042732Y003843D01*
X042746Y003870D01*
X042763Y003894D01*
X042783Y003916D01*
X042806Y003934D01*
X042831Y003950D01*
X042858Y003961D01*
X042887Y003969D01*
X042916Y003973D01*
X042946Y003973D01*
X042975Y003969D01*
X043004Y003961D01*
X043031Y003950D01*
X043056Y003934D01*
X043079Y003916D01*
X043099Y003894D01*
X043116Y003870D01*
X043130Y003843D01*
X043140Y003816D01*
X043146Y003787D01*
X043148Y003757D01*
X043146Y003727D01*
X043140Y003698D01*
X043130Y003671D01*
X043116Y003644D01*
X043099Y003620D01*
X043079Y003598D01*
X043056Y003580D01*
X043031Y003564D01*
X043004Y003553D01*
X042975Y003545D01*
X042946Y003541D01*
X042916Y003541D01*
X042887Y003545D01*
X042858Y003553D01*
X042831Y003564D01*
X042806Y003580D01*
X042783Y003598D01*
X042763Y003620D01*
X042746Y003644D01*
X042732Y003671D01*
X042722Y003698D01*
X042716Y003727D01*
X042714Y003757D01*
X041714Y003757D02*
X041716Y003787D01*
X041722Y003816D01*
X041732Y003843D01*
X041746Y003870D01*
X041763Y003894D01*
X041783Y003916D01*
X041806Y003934D01*
X041831Y003950D01*
X041858Y003961D01*
X041887Y003969D01*
X041916Y003973D01*
X041946Y003973D01*
X041975Y003969D01*
X042004Y003961D01*
X042031Y003950D01*
X042056Y003934D01*
X042079Y003916D01*
X042099Y003894D01*
X042116Y003870D01*
X042130Y003843D01*
X042140Y003816D01*
X042146Y003787D01*
X042148Y003757D01*
X042146Y003727D01*
X042140Y003698D01*
X042130Y003671D01*
X042116Y003644D01*
X042099Y003620D01*
X042079Y003598D01*
X042056Y003580D01*
X042031Y003564D01*
X042004Y003553D01*
X041975Y003545D01*
X041946Y003541D01*
X041916Y003541D01*
X041887Y003545D01*
X041858Y003553D01*
X041831Y003564D01*
X041806Y003580D01*
X041783Y003598D01*
X041763Y003620D01*
X041746Y003644D01*
X041732Y003671D01*
X041722Y003698D01*
X041716Y003727D01*
X041714Y003757D01*
X040414Y003757D02*
X040416Y003787D01*
X040422Y003816D01*
X040432Y003843D01*
X040446Y003870D01*
X040463Y003894D01*
X040483Y003916D01*
X040506Y003934D01*
X040531Y003950D01*
X040558Y003961D01*
X040587Y003969D01*
X040616Y003973D01*
X040646Y003973D01*
X040675Y003969D01*
X040704Y003961D01*
X040731Y003950D01*
X040756Y003934D01*
X040779Y003916D01*
X040799Y003894D01*
X040816Y003870D01*
X040830Y003843D01*
X040840Y003816D01*
X040846Y003787D01*
X040848Y003757D01*
X040846Y003727D01*
X040840Y003698D01*
X040830Y003671D01*
X040816Y003644D01*
X040799Y003620D01*
X040779Y003598D01*
X040756Y003580D01*
X040731Y003564D01*
X040704Y003553D01*
X040675Y003545D01*
X040646Y003541D01*
X040616Y003541D01*
X040587Y003545D01*
X040558Y003553D01*
X040531Y003564D01*
X040506Y003580D01*
X040483Y003598D01*
X040463Y003620D01*
X040446Y003644D01*
X040432Y003671D01*
X040422Y003698D01*
X040416Y003727D01*
X040414Y003757D01*
X039414Y003757D02*
X039416Y003787D01*
X039422Y003816D01*
X039432Y003843D01*
X039446Y003870D01*
X039463Y003894D01*
X039483Y003916D01*
X039506Y003934D01*
X039531Y003950D01*
X039558Y003961D01*
X039587Y003969D01*
X039616Y003973D01*
X039646Y003973D01*
X039675Y003969D01*
X039704Y003961D01*
X039731Y003950D01*
X039756Y003934D01*
X039779Y003916D01*
X039799Y003894D01*
X039816Y003870D01*
X039830Y003843D01*
X039840Y003816D01*
X039846Y003787D01*
X039848Y003757D01*
X039846Y003727D01*
X039840Y003698D01*
X039830Y003671D01*
X039816Y003644D01*
X039799Y003620D01*
X039779Y003598D01*
X039756Y003580D01*
X039731Y003564D01*
X039704Y003553D01*
X039675Y003545D01*
X039646Y003541D01*
X039616Y003541D01*
X039587Y003545D01*
X039558Y003553D01*
X039531Y003564D01*
X039506Y003580D01*
X039483Y003598D01*
X039463Y003620D01*
X039446Y003644D01*
X039432Y003671D01*
X039422Y003698D01*
X039416Y003727D01*
X039414Y003757D01*
X038114Y003757D02*
X038116Y003787D01*
X038122Y003816D01*
X038132Y003843D01*
X038146Y003870D01*
X038163Y003894D01*
X038183Y003916D01*
X038206Y003934D01*
X038231Y003950D01*
X038258Y003961D01*
X038287Y003969D01*
X038316Y003973D01*
X038346Y003973D01*
X038375Y003969D01*
X038404Y003961D01*
X038431Y003950D01*
X038456Y003934D01*
X038479Y003916D01*
X038499Y003894D01*
X038516Y003870D01*
X038530Y003843D01*
X038540Y003816D01*
X038546Y003787D01*
X038548Y003757D01*
X038546Y003727D01*
X038540Y003698D01*
X038530Y003671D01*
X038516Y003644D01*
X038499Y003620D01*
X038479Y003598D01*
X038456Y003580D01*
X038431Y003564D01*
X038404Y003553D01*
X038375Y003545D01*
X038346Y003541D01*
X038316Y003541D01*
X038287Y003545D01*
X038258Y003553D01*
X038231Y003564D01*
X038206Y003580D01*
X038183Y003598D01*
X038163Y003620D01*
X038146Y003644D01*
X038132Y003671D01*
X038122Y003698D01*
X038116Y003727D01*
X038114Y003757D01*
X037114Y003757D02*
X037116Y003787D01*
X037122Y003816D01*
X037132Y003843D01*
X037146Y003870D01*
X037163Y003894D01*
X037183Y003916D01*
X037206Y003934D01*
X037231Y003950D01*
X037258Y003961D01*
X037287Y003969D01*
X037316Y003973D01*
X037346Y003973D01*
X037375Y003969D01*
X037404Y003961D01*
X037431Y003950D01*
X037456Y003934D01*
X037479Y003916D01*
X037499Y003894D01*
X037516Y003870D01*
X037530Y003843D01*
X037540Y003816D01*
X037546Y003787D01*
X037548Y003757D01*
X037546Y003727D01*
X037540Y003698D01*
X037530Y003671D01*
X037516Y003644D01*
X037499Y003620D01*
X037479Y003598D01*
X037456Y003580D01*
X037431Y003564D01*
X037404Y003553D01*
X037375Y003545D01*
X037346Y003541D01*
X037316Y003541D01*
X037287Y003545D01*
X037258Y003553D01*
X037231Y003564D01*
X037206Y003580D01*
X037183Y003598D01*
X037163Y003620D01*
X037146Y003644D01*
X037132Y003671D01*
X037122Y003698D01*
X037116Y003727D01*
X037114Y003757D01*
X036114Y003757D02*
X036116Y003787D01*
X036122Y003816D01*
X036132Y003843D01*
X036146Y003870D01*
X036163Y003894D01*
X036183Y003916D01*
X036206Y003934D01*
X036231Y003950D01*
X036258Y003961D01*
X036287Y003969D01*
X036316Y003973D01*
X036346Y003973D01*
X036375Y003969D01*
X036404Y003961D01*
X036431Y003950D01*
X036456Y003934D01*
X036479Y003916D01*
X036499Y003894D01*
X036516Y003870D01*
X036530Y003843D01*
X036540Y003816D01*
X036546Y003787D01*
X036548Y003757D01*
X036546Y003727D01*
X036540Y003698D01*
X036530Y003671D01*
X036516Y003644D01*
X036499Y003620D01*
X036479Y003598D01*
X036456Y003580D01*
X036431Y003564D01*
X036404Y003553D01*
X036375Y003545D01*
X036346Y003541D01*
X036316Y003541D01*
X036287Y003545D01*
X036258Y003553D01*
X036231Y003564D01*
X036206Y003580D01*
X036183Y003598D01*
X036163Y003620D01*
X036146Y003644D01*
X036132Y003671D01*
X036122Y003698D01*
X036116Y003727D01*
X036114Y003757D01*
X024909Y008561D02*
X024911Y008588D01*
X024917Y008614D01*
X024927Y008640D01*
X024941Y008663D01*
X024958Y008684D01*
X024979Y008702D01*
X025001Y008716D01*
X025026Y008728D01*
X025052Y008735D01*
X025079Y008738D01*
X025106Y008737D01*
X025133Y008732D01*
X025158Y008723D01*
X025182Y008710D01*
X025204Y008693D01*
X025223Y008674D01*
X025238Y008651D01*
X025250Y008627D01*
X025258Y008601D01*
X025262Y008575D01*
X025262Y008547D01*
X025258Y008521D01*
X025250Y008495D01*
X025238Y008471D01*
X025223Y008448D01*
X025204Y008429D01*
X025182Y008412D01*
X025158Y008399D01*
X025133Y008390D01*
X025106Y008385D01*
X025079Y008384D01*
X025052Y008387D01*
X025026Y008394D01*
X025001Y008406D01*
X024979Y008420D01*
X024958Y008438D01*
X024941Y008459D01*
X024927Y008482D01*
X024917Y008508D01*
X024911Y008534D01*
X024909Y008561D01*
X024909Y010293D02*
X024911Y010320D01*
X024917Y010346D01*
X024927Y010372D01*
X024941Y010395D01*
X024958Y010416D01*
X024979Y010434D01*
X025001Y010448D01*
X025026Y010460D01*
X025052Y010467D01*
X025079Y010470D01*
X025106Y010469D01*
X025133Y010464D01*
X025158Y010455D01*
X025182Y010442D01*
X025204Y010425D01*
X025223Y010406D01*
X025238Y010383D01*
X025250Y010359D01*
X025258Y010333D01*
X025262Y010307D01*
X025262Y010279D01*
X025258Y010253D01*
X025250Y010227D01*
X025238Y010203D01*
X025223Y010180D01*
X025204Y010161D01*
X025182Y010144D01*
X025158Y010131D01*
X025133Y010122D01*
X025106Y010117D01*
X025079Y010116D01*
X025052Y010119D01*
X025026Y010126D01*
X025001Y010138D01*
X024979Y010152D01*
X024958Y010170D01*
X024941Y010191D01*
X024927Y010214D01*
X024917Y010240D01*
X024911Y010266D01*
X024909Y010293D01*
X032754Y022957D02*
X032756Y022985D01*
X032762Y023013D01*
X032772Y023039D01*
X032785Y023064D01*
X032802Y023086D01*
X032822Y023106D01*
X032844Y023123D01*
X032869Y023136D01*
X032895Y023146D01*
X032923Y023152D01*
X032951Y023154D01*
X032979Y023152D01*
X033007Y023146D01*
X033033Y023136D01*
X033058Y023123D01*
X033080Y023106D01*
X033100Y023086D01*
X033117Y023064D01*
X033130Y023039D01*
X033140Y023013D01*
X033146Y022985D01*
X033148Y022957D01*
X033146Y022929D01*
X033140Y022901D01*
X033130Y022875D01*
X033117Y022850D01*
X033100Y022828D01*
X033080Y022808D01*
X033058Y022791D01*
X033033Y022778D01*
X033007Y022768D01*
X032979Y022762D01*
X032951Y022760D01*
X032923Y022762D01*
X032895Y022768D01*
X032869Y022778D01*
X032844Y022791D01*
X032822Y022808D01*
X032802Y022828D01*
X032785Y022850D01*
X032772Y022875D01*
X032762Y022901D01*
X032756Y022929D01*
X032754Y022957D01*
X027431Y026307D02*
X027434Y026366D01*
X027442Y026425D01*
X027455Y026482D01*
X027474Y026539D01*
X027497Y026593D01*
X027526Y026645D01*
X027559Y026694D01*
X027596Y026740D01*
X027637Y026782D01*
X027682Y026820D01*
X027731Y026855D01*
X027782Y026884D01*
X027836Y026909D01*
X027891Y026929D01*
X027949Y026943D01*
X028007Y026953D01*
X028066Y026957D01*
X028125Y026955D01*
X028184Y026949D01*
X028242Y026937D01*
X028299Y026919D01*
X028353Y026897D01*
X028406Y026870D01*
X028456Y026838D01*
X028503Y026802D01*
X028546Y026761D01*
X028585Y026717D01*
X028620Y026670D01*
X028651Y026619D01*
X028677Y026566D01*
X028698Y026511D01*
X028714Y026454D01*
X028725Y026396D01*
X028730Y026337D01*
X028730Y026277D01*
X028725Y026218D01*
X028714Y026160D01*
X028698Y026103D01*
X028677Y026048D01*
X028651Y025995D01*
X028620Y025944D01*
X028585Y025897D01*
X028546Y025853D01*
X028503Y025812D01*
X028456Y025776D01*
X028406Y025744D01*
X028353Y025717D01*
X028299Y025695D01*
X028242Y025677D01*
X028184Y025665D01*
X028125Y025659D01*
X028066Y025657D01*
X028007Y025661D01*
X027949Y025671D01*
X027891Y025685D01*
X027836Y025705D01*
X027782Y025730D01*
X027731Y025759D01*
X027682Y025794D01*
X027637Y025832D01*
X027596Y025874D01*
X027559Y025920D01*
X027526Y025969D01*
X027497Y026021D01*
X027474Y026075D01*
X027455Y026132D01*
X027442Y026189D01*
X027434Y026248D01*
X027431Y026307D01*
X024431Y026307D02*
X024434Y026366D01*
X024442Y026425D01*
X024455Y026482D01*
X024474Y026539D01*
X024497Y026593D01*
X024526Y026645D01*
X024559Y026694D01*
X024596Y026740D01*
X024637Y026782D01*
X024682Y026820D01*
X024731Y026855D01*
X024782Y026884D01*
X024836Y026909D01*
X024891Y026929D01*
X024949Y026943D01*
X025007Y026953D01*
X025066Y026957D01*
X025125Y026955D01*
X025184Y026949D01*
X025242Y026937D01*
X025299Y026919D01*
X025353Y026897D01*
X025406Y026870D01*
X025456Y026838D01*
X025503Y026802D01*
X025546Y026761D01*
X025585Y026717D01*
X025620Y026670D01*
X025651Y026619D01*
X025677Y026566D01*
X025698Y026511D01*
X025714Y026454D01*
X025725Y026396D01*
X025730Y026337D01*
X025730Y026277D01*
X025725Y026218D01*
X025714Y026160D01*
X025698Y026103D01*
X025677Y026048D01*
X025651Y025995D01*
X025620Y025944D01*
X025585Y025897D01*
X025546Y025853D01*
X025503Y025812D01*
X025456Y025776D01*
X025406Y025744D01*
X025353Y025717D01*
X025299Y025695D01*
X025242Y025677D01*
X025184Y025665D01*
X025125Y025659D01*
X025066Y025657D01*
X025007Y025661D01*
X024949Y025671D01*
X024891Y025685D01*
X024836Y025705D01*
X024782Y025730D01*
X024731Y025759D01*
X024682Y025794D01*
X024637Y025832D01*
X024596Y025874D01*
X024559Y025920D01*
X024526Y025969D01*
X024497Y026021D01*
X024474Y026075D01*
X024455Y026132D01*
X024442Y026189D01*
X024434Y026248D01*
X024431Y026307D01*
X032724Y042627D02*
X032726Y042655D01*
X032732Y042683D01*
X032742Y042709D01*
X032755Y042734D01*
X032772Y042756D01*
X032792Y042776D01*
X032814Y042793D01*
X032839Y042806D01*
X032865Y042816D01*
X032893Y042822D01*
X032921Y042824D01*
X032949Y042822D01*
X032977Y042816D01*
X033003Y042806D01*
X033028Y042793D01*
X033050Y042776D01*
X033070Y042756D01*
X033087Y042734D01*
X033100Y042709D01*
X033110Y042683D01*
X033116Y042655D01*
X033118Y042627D01*
X033116Y042599D01*
X033110Y042571D01*
X033100Y042545D01*
X033087Y042520D01*
X033070Y042498D01*
X033050Y042478D01*
X033028Y042461D01*
X033003Y042448D01*
X032977Y042438D01*
X032949Y042432D01*
X032921Y042430D01*
X032893Y042432D01*
X032865Y042438D01*
X032839Y042448D01*
X032814Y042461D01*
X032792Y042478D01*
X032772Y042498D01*
X032755Y042520D01*
X032742Y042545D01*
X032732Y042571D01*
X032726Y042599D01*
X032724Y042627D01*
X023238Y045341D02*
X023240Y045382D01*
X023246Y045423D01*
X023256Y045463D01*
X023270Y045501D01*
X023288Y045539D01*
X023310Y045574D01*
X023335Y045606D01*
X023363Y045637D01*
X023393Y045664D01*
X023427Y045688D01*
X023463Y045709D01*
X023500Y045725D01*
X023539Y045739D01*
X023579Y045748D01*
X023620Y045753D01*
X023661Y045754D01*
X023702Y045751D01*
X023743Y045744D01*
X023783Y045732D01*
X023821Y045717D01*
X023858Y045699D01*
X023892Y045676D01*
X023924Y045651D01*
X023954Y045622D01*
X023980Y045590D01*
X024003Y045556D01*
X024023Y045520D01*
X024039Y045482D01*
X024051Y045443D01*
X024059Y045403D01*
X024063Y045362D01*
X024063Y045320D01*
X024059Y045279D01*
X024051Y045239D01*
X024039Y045200D01*
X024023Y045162D01*
X024003Y045126D01*
X023980Y045092D01*
X023954Y045060D01*
X023924Y045031D01*
X023892Y045006D01*
X023857Y044983D01*
X023821Y044965D01*
X023783Y044950D01*
X023743Y044938D01*
X023702Y044931D01*
X023661Y044928D01*
X023620Y044929D01*
X023579Y044934D01*
X023539Y044943D01*
X023500Y044957D01*
X023463Y044973D01*
X023427Y044994D01*
X023393Y045018D01*
X023363Y045045D01*
X023335Y045076D01*
X023310Y045108D01*
X023288Y045143D01*
X023270Y045181D01*
X023256Y045219D01*
X023246Y045259D01*
X023240Y045300D01*
X023238Y045341D01*
X023434Y046699D02*
X023436Y046729D01*
X023442Y046758D01*
X023452Y046785D01*
X023466Y046812D01*
X023483Y046836D01*
X023503Y046858D01*
X023526Y046876D01*
X023551Y046892D01*
X023578Y046903D01*
X023607Y046911D01*
X023636Y046915D01*
X023666Y046915D01*
X023695Y046911D01*
X023724Y046903D01*
X023751Y046892D01*
X023776Y046876D01*
X023799Y046858D01*
X023819Y046836D01*
X023836Y046812D01*
X023850Y046785D01*
X023860Y046758D01*
X023866Y046729D01*
X023868Y046699D01*
X023866Y046669D01*
X023860Y046640D01*
X023850Y046613D01*
X023836Y046586D01*
X023819Y046562D01*
X023799Y046540D01*
X023776Y046522D01*
X023751Y046506D01*
X023724Y046495D01*
X023695Y046487D01*
X023666Y046483D01*
X023636Y046483D01*
X023607Y046487D01*
X023578Y046495D01*
X023551Y046506D01*
X023526Y046522D01*
X023503Y046540D01*
X023483Y046562D01*
X023466Y046586D01*
X023452Y046613D01*
X023442Y046640D01*
X023436Y046669D01*
X023434Y046699D01*
X023434Y048471D02*
X023436Y048501D01*
X023442Y048530D01*
X023452Y048557D01*
X023466Y048584D01*
X023483Y048608D01*
X023503Y048630D01*
X023526Y048648D01*
X023551Y048664D01*
X023578Y048675D01*
X023607Y048683D01*
X023636Y048687D01*
X023666Y048687D01*
X023695Y048683D01*
X023724Y048675D01*
X023751Y048664D01*
X023776Y048648D01*
X023799Y048630D01*
X023819Y048608D01*
X023836Y048584D01*
X023850Y048557D01*
X023860Y048530D01*
X023866Y048501D01*
X023868Y048471D01*
X023866Y048441D01*
X023860Y048412D01*
X023850Y048385D01*
X023836Y048358D01*
X023819Y048334D01*
X023799Y048312D01*
X023776Y048294D01*
X023751Y048278D01*
X023724Y048267D01*
X023695Y048259D01*
X023666Y048255D01*
X023636Y048255D01*
X023607Y048259D01*
X023578Y048267D01*
X023551Y048278D01*
X023526Y048294D01*
X023503Y048312D01*
X023483Y048334D01*
X023466Y048358D01*
X023452Y048385D01*
X023442Y048412D01*
X023436Y048441D01*
X023434Y048471D01*
X023238Y049829D02*
X023240Y049870D01*
X023246Y049911D01*
X023256Y049951D01*
X023270Y049989D01*
X023288Y050027D01*
X023310Y050062D01*
X023335Y050094D01*
X023363Y050125D01*
X023393Y050152D01*
X023427Y050176D01*
X023463Y050197D01*
X023500Y050213D01*
X023539Y050227D01*
X023579Y050236D01*
X023620Y050241D01*
X023661Y050242D01*
X023702Y050239D01*
X023743Y050232D01*
X023783Y050220D01*
X023821Y050205D01*
X023858Y050187D01*
X023892Y050164D01*
X023924Y050139D01*
X023954Y050110D01*
X023980Y050078D01*
X024003Y050044D01*
X024023Y050008D01*
X024039Y049970D01*
X024051Y049931D01*
X024059Y049891D01*
X024063Y049850D01*
X024063Y049808D01*
X024059Y049767D01*
X024051Y049727D01*
X024039Y049688D01*
X024023Y049650D01*
X024003Y049614D01*
X023980Y049580D01*
X023954Y049548D01*
X023924Y049519D01*
X023892Y049494D01*
X023857Y049471D01*
X023821Y049453D01*
X023783Y049438D01*
X023743Y049426D01*
X023702Y049419D01*
X023661Y049416D01*
X023620Y049417D01*
X023579Y049422D01*
X023539Y049431D01*
X023500Y049445D01*
X023463Y049461D01*
X023427Y049482D01*
X023393Y049506D01*
X023363Y049533D01*
X023335Y049564D01*
X023310Y049596D01*
X023288Y049631D01*
X023270Y049669D01*
X023256Y049707D01*
X023246Y049747D01*
X023240Y049788D01*
X023238Y049829D01*
X023238Y051941D02*
X023240Y051982D01*
X023246Y052023D01*
X023256Y052063D01*
X023270Y052101D01*
X023288Y052139D01*
X023310Y052174D01*
X023335Y052206D01*
X023363Y052237D01*
X023393Y052264D01*
X023427Y052288D01*
X023463Y052309D01*
X023500Y052325D01*
X023539Y052339D01*
X023579Y052348D01*
X023620Y052353D01*
X023661Y052354D01*
X023702Y052351D01*
X023743Y052344D01*
X023783Y052332D01*
X023821Y052317D01*
X023858Y052299D01*
X023892Y052276D01*
X023924Y052251D01*
X023954Y052222D01*
X023980Y052190D01*
X024003Y052156D01*
X024023Y052120D01*
X024039Y052082D01*
X024051Y052043D01*
X024059Y052003D01*
X024063Y051962D01*
X024063Y051920D01*
X024059Y051879D01*
X024051Y051839D01*
X024039Y051800D01*
X024023Y051762D01*
X024003Y051726D01*
X023980Y051692D01*
X023954Y051660D01*
X023924Y051631D01*
X023892Y051606D01*
X023857Y051583D01*
X023821Y051565D01*
X023783Y051550D01*
X023743Y051538D01*
X023702Y051531D01*
X023661Y051528D01*
X023620Y051529D01*
X023579Y051534D01*
X023539Y051543D01*
X023500Y051557D01*
X023463Y051573D01*
X023427Y051594D01*
X023393Y051618D01*
X023363Y051645D01*
X023335Y051676D01*
X023310Y051708D01*
X023288Y051743D01*
X023270Y051781D01*
X023256Y051819D01*
X023246Y051859D01*
X023240Y051900D01*
X023238Y051941D01*
X023434Y053299D02*
X023436Y053329D01*
X023442Y053358D01*
X023452Y053385D01*
X023466Y053412D01*
X023483Y053436D01*
X023503Y053458D01*
X023526Y053476D01*
X023551Y053492D01*
X023578Y053503D01*
X023607Y053511D01*
X023636Y053515D01*
X023666Y053515D01*
X023695Y053511D01*
X023724Y053503D01*
X023751Y053492D01*
X023776Y053476D01*
X023799Y053458D01*
X023819Y053436D01*
X023836Y053412D01*
X023850Y053385D01*
X023860Y053358D01*
X023866Y053329D01*
X023868Y053299D01*
X023866Y053269D01*
X023860Y053240D01*
X023850Y053213D01*
X023836Y053186D01*
X023819Y053162D01*
X023799Y053140D01*
X023776Y053122D01*
X023751Y053106D01*
X023724Y053095D01*
X023695Y053087D01*
X023666Y053083D01*
X023636Y053083D01*
X023607Y053087D01*
X023578Y053095D01*
X023551Y053106D01*
X023526Y053122D01*
X023503Y053140D01*
X023483Y053162D01*
X023466Y053186D01*
X023452Y053213D01*
X023442Y053240D01*
X023436Y053269D01*
X023434Y053299D01*
X023434Y055071D02*
X023436Y055101D01*
X023442Y055130D01*
X023452Y055157D01*
X023466Y055184D01*
X023483Y055208D01*
X023503Y055230D01*
X023526Y055248D01*
X023551Y055264D01*
X023578Y055275D01*
X023607Y055283D01*
X023636Y055287D01*
X023666Y055287D01*
X023695Y055283D01*
X023724Y055275D01*
X023751Y055264D01*
X023776Y055248D01*
X023799Y055230D01*
X023819Y055208D01*
X023836Y055184D01*
X023850Y055157D01*
X023860Y055130D01*
X023866Y055101D01*
X023868Y055071D01*
X023866Y055041D01*
X023860Y055012D01*
X023850Y054985D01*
X023836Y054958D01*
X023819Y054934D01*
X023799Y054912D01*
X023776Y054894D01*
X023751Y054878D01*
X023724Y054867D01*
X023695Y054859D01*
X023666Y054855D01*
X023636Y054855D01*
X023607Y054859D01*
X023578Y054867D01*
X023551Y054878D01*
X023526Y054894D01*
X023503Y054912D01*
X023483Y054934D01*
X023466Y054958D01*
X023452Y054985D01*
X023442Y055012D01*
X023436Y055041D01*
X023434Y055071D01*
X023238Y056429D02*
X023240Y056470D01*
X023246Y056511D01*
X023256Y056551D01*
X023270Y056589D01*
X023288Y056627D01*
X023310Y056662D01*
X023335Y056694D01*
X023363Y056725D01*
X023393Y056752D01*
X023427Y056776D01*
X023463Y056797D01*
X023500Y056813D01*
X023539Y056827D01*
X023579Y056836D01*
X023620Y056841D01*
X023661Y056842D01*
X023702Y056839D01*
X023743Y056832D01*
X023783Y056820D01*
X023821Y056805D01*
X023858Y056787D01*
X023892Y056764D01*
X023924Y056739D01*
X023954Y056710D01*
X023980Y056678D01*
X024003Y056644D01*
X024023Y056608D01*
X024039Y056570D01*
X024051Y056531D01*
X024059Y056491D01*
X024063Y056450D01*
X024063Y056408D01*
X024059Y056367D01*
X024051Y056327D01*
X024039Y056288D01*
X024023Y056250D01*
X024003Y056214D01*
X023980Y056180D01*
X023954Y056148D01*
X023924Y056119D01*
X023892Y056094D01*
X023857Y056071D01*
X023821Y056053D01*
X023783Y056038D01*
X023743Y056026D01*
X023702Y056019D01*
X023661Y056016D01*
X023620Y056017D01*
X023579Y056022D01*
X023539Y056031D01*
X023500Y056045D01*
X023463Y056061D01*
X023427Y056082D01*
X023393Y056106D01*
X023363Y056133D01*
X023335Y056164D01*
X023310Y056196D01*
X023288Y056231D01*
X023270Y056269D01*
X023256Y056307D01*
X023246Y056347D01*
X023240Y056388D01*
X023238Y056429D01*
X023238Y058541D02*
X023240Y058582D01*
X023246Y058623D01*
X023256Y058663D01*
X023270Y058701D01*
X023288Y058739D01*
X023310Y058774D01*
X023335Y058806D01*
X023363Y058837D01*
X023393Y058864D01*
X023427Y058888D01*
X023463Y058909D01*
X023500Y058925D01*
X023539Y058939D01*
X023579Y058948D01*
X023620Y058953D01*
X023661Y058954D01*
X023702Y058951D01*
X023743Y058944D01*
X023783Y058932D01*
X023821Y058917D01*
X023858Y058899D01*
X023892Y058876D01*
X023924Y058851D01*
X023954Y058822D01*
X023980Y058790D01*
X024003Y058756D01*
X024023Y058720D01*
X024039Y058682D01*
X024051Y058643D01*
X024059Y058603D01*
X024063Y058562D01*
X024063Y058520D01*
X024059Y058479D01*
X024051Y058439D01*
X024039Y058400D01*
X024023Y058362D01*
X024003Y058326D01*
X023980Y058292D01*
X023954Y058260D01*
X023924Y058231D01*
X023892Y058206D01*
X023857Y058183D01*
X023821Y058165D01*
X023783Y058150D01*
X023743Y058138D01*
X023702Y058131D01*
X023661Y058128D01*
X023620Y058129D01*
X023579Y058134D01*
X023539Y058143D01*
X023500Y058157D01*
X023463Y058173D01*
X023427Y058194D01*
X023393Y058218D01*
X023363Y058245D01*
X023335Y058276D01*
X023310Y058308D01*
X023288Y058343D01*
X023270Y058381D01*
X023256Y058419D01*
X023246Y058459D01*
X023240Y058500D01*
X023238Y058541D01*
X023434Y059899D02*
X023436Y059929D01*
X023442Y059958D01*
X023452Y059985D01*
X023466Y060012D01*
X023483Y060036D01*
X023503Y060058D01*
X023526Y060076D01*
X023551Y060092D01*
X023578Y060103D01*
X023607Y060111D01*
X023636Y060115D01*
X023666Y060115D01*
X023695Y060111D01*
X023724Y060103D01*
X023751Y060092D01*
X023776Y060076D01*
X023799Y060058D01*
X023819Y060036D01*
X023836Y060012D01*
X023850Y059985D01*
X023860Y059958D01*
X023866Y059929D01*
X023868Y059899D01*
X023866Y059869D01*
X023860Y059840D01*
X023850Y059813D01*
X023836Y059786D01*
X023819Y059762D01*
X023799Y059740D01*
X023776Y059722D01*
X023751Y059706D01*
X023724Y059695D01*
X023695Y059687D01*
X023666Y059683D01*
X023636Y059683D01*
X023607Y059687D01*
X023578Y059695D01*
X023551Y059706D01*
X023526Y059722D01*
X023503Y059740D01*
X023483Y059762D01*
X023466Y059786D01*
X023452Y059813D01*
X023442Y059840D01*
X023436Y059869D01*
X023434Y059899D01*
X023434Y061671D02*
X023436Y061701D01*
X023442Y061730D01*
X023452Y061757D01*
X023466Y061784D01*
X023483Y061808D01*
X023503Y061830D01*
X023526Y061848D01*
X023551Y061864D01*
X023578Y061875D01*
X023607Y061883D01*
X023636Y061887D01*
X023666Y061887D01*
X023695Y061883D01*
X023724Y061875D01*
X023751Y061864D01*
X023776Y061848D01*
X023799Y061830D01*
X023819Y061808D01*
X023836Y061784D01*
X023850Y061757D01*
X023860Y061730D01*
X023866Y061701D01*
X023868Y061671D01*
X023866Y061641D01*
X023860Y061612D01*
X023850Y061585D01*
X023836Y061558D01*
X023819Y061534D01*
X023799Y061512D01*
X023776Y061494D01*
X023751Y061478D01*
X023724Y061467D01*
X023695Y061459D01*
X023666Y061455D01*
X023636Y061455D01*
X023607Y061459D01*
X023578Y061467D01*
X023551Y061478D01*
X023526Y061494D01*
X023503Y061512D01*
X023483Y061534D01*
X023466Y061558D01*
X023452Y061585D01*
X023442Y061612D01*
X023436Y061641D01*
X023434Y061671D01*
X023238Y063029D02*
X023240Y063070D01*
X023246Y063111D01*
X023256Y063151D01*
X023270Y063189D01*
X023288Y063227D01*
X023310Y063262D01*
X023335Y063294D01*
X023363Y063325D01*
X023393Y063352D01*
X023427Y063376D01*
X023463Y063397D01*
X023500Y063413D01*
X023539Y063427D01*
X023579Y063436D01*
X023620Y063441D01*
X023661Y063442D01*
X023702Y063439D01*
X023743Y063432D01*
X023783Y063420D01*
X023821Y063405D01*
X023858Y063387D01*
X023892Y063364D01*
X023924Y063339D01*
X023954Y063310D01*
X023980Y063278D01*
X024003Y063244D01*
X024023Y063208D01*
X024039Y063170D01*
X024051Y063131D01*
X024059Y063091D01*
X024063Y063050D01*
X024063Y063008D01*
X024059Y062967D01*
X024051Y062927D01*
X024039Y062888D01*
X024023Y062850D01*
X024003Y062814D01*
X023980Y062780D01*
X023954Y062748D01*
X023924Y062719D01*
X023892Y062694D01*
X023857Y062671D01*
X023821Y062653D01*
X023783Y062638D01*
X023743Y062626D01*
X023702Y062619D01*
X023661Y062616D01*
X023620Y062617D01*
X023579Y062622D01*
X023539Y062631D01*
X023500Y062645D01*
X023463Y062661D01*
X023427Y062682D01*
X023393Y062706D01*
X023363Y062733D01*
X023335Y062764D01*
X023310Y062796D01*
X023288Y062831D01*
X023270Y062869D01*
X023256Y062907D01*
X023246Y062947D01*
X023240Y062988D01*
X023238Y063029D01*
X045874Y029477D02*
X045876Y029505D01*
X045882Y029533D01*
X045892Y029559D01*
X045905Y029584D01*
X045922Y029606D01*
X045942Y029626D01*
X045964Y029643D01*
X045989Y029656D01*
X046015Y029666D01*
X046043Y029672D01*
X046071Y029674D01*
X046099Y029672D01*
X046127Y029666D01*
X046153Y029656D01*
X046178Y029643D01*
X046200Y029626D01*
X046220Y029606D01*
X046237Y029584D01*
X046250Y029559D01*
X046260Y029533D01*
X046266Y029505D01*
X046268Y029477D01*
X046266Y029449D01*
X046260Y029421D01*
X046250Y029395D01*
X046237Y029370D01*
X046220Y029348D01*
X046200Y029328D01*
X046178Y029311D01*
X046153Y029298D01*
X046127Y029288D01*
X046099Y029282D01*
X046071Y029280D01*
X046043Y029282D01*
X046015Y029288D01*
X045989Y029298D01*
X045964Y029311D01*
X045942Y029328D01*
X045922Y029348D01*
X045905Y029370D01*
X045892Y029395D01*
X045882Y029421D01*
X045876Y029449D01*
X045874Y029477D01*
D18*
X046071Y029477D03*
X046081Y016307D03*
X059221Y012377D03*
X059221Y024227D03*
X059221Y037727D03*
X046071Y042627D03*
X044421Y049177D03*
X044421Y055777D03*
X044421Y062377D03*
X059221Y062477D03*
X032921Y042627D03*
X032951Y022957D03*
D19*
X036331Y003757D03*
X037331Y003757D03*
X038331Y003757D03*
X039631Y003757D03*
X040631Y003757D03*
X041931Y003757D03*
X042931Y003757D03*
X043931Y003757D03*
X023651Y046699D03*
X023651Y048471D03*
X023651Y053299D03*
X023651Y055071D03*
X023651Y059899D03*
X023651Y061671D03*
D20*
X023651Y063029D03*
X023651Y058541D03*
X023651Y056429D03*
X023651Y051941D03*
X023651Y049829D03*
X023651Y045341D03*
D21*
X031481Y036057D03*
X031481Y035057D03*
X031481Y034057D03*
X031481Y033057D03*
X031481Y032057D03*
X031481Y031057D03*
X031481Y030057D03*
X031481Y029057D03*
X031481Y028057D03*
X034481Y028057D03*
X034481Y029057D03*
X034481Y030057D03*
X034481Y031057D03*
X034481Y032057D03*
X034481Y033057D03*
X034481Y034057D03*
X034481Y035057D03*
X034481Y036057D03*
D22*
X028081Y026307D03*
X025081Y026307D03*
X052831Y041907D03*
X057331Y041907D03*
D23*
X057691Y040307D03*
X056691Y040307D03*
X053471Y040307D03*
X052471Y040307D03*
X059781Y050707D03*
X059781Y051707D03*
X060781Y051707D03*
X060781Y050707D03*
X059781Y052707D03*
X032301Y017007D03*
X031301Y017007D03*
X031301Y016007D03*
X030301Y016007D03*
X030301Y017007D03*
X030301Y013807D03*
X029301Y013807D03*
X028301Y013807D03*
X027301Y013807D03*
X026301Y013807D03*
X025301Y013807D03*
X024301Y013807D03*
X023301Y013807D03*
X031301Y013807D03*
X032301Y013807D03*
X033301Y013807D03*
X034301Y013807D03*
X045131Y004957D03*
X048131Y003957D03*
X048131Y006957D03*
D24*
X032301Y016007D03*
X060781Y052707D03*
D25*
X046931Y032857D03*
X046931Y031857D03*
X045931Y031857D03*
X045931Y032857D03*
X044931Y032857D03*
X044931Y031857D03*
X043931Y031857D03*
X043931Y032857D03*
X042931Y032857D03*
X042931Y031857D03*
X041931Y031857D03*
X041931Y032857D03*
X040931Y032857D03*
X040931Y031857D03*
X038431Y031857D03*
X037431Y031857D03*
X037431Y032857D03*
X036431Y032857D03*
X036431Y031857D03*
X047931Y031857D03*
X049581Y027957D03*
X050581Y027957D03*
X050581Y026957D03*
X051581Y026957D03*
X049581Y026957D03*
X054081Y026957D03*
X055081Y026957D03*
X056081Y026957D03*
X057081Y026957D03*
X058081Y026957D03*
X059081Y026957D03*
X060081Y026957D03*
X061081Y026957D03*
X060081Y027957D03*
X059081Y027957D03*
X058081Y027957D03*
X057081Y027957D03*
X056081Y027957D03*
X055081Y027957D03*
X054081Y027957D03*
X046931Y019707D03*
X045931Y019707D03*
X045931Y018707D03*
X046931Y018707D03*
X047931Y018707D03*
X044931Y018707D03*
X044931Y019707D03*
X043931Y019707D03*
X042931Y019707D03*
X042931Y018707D03*
X043931Y018707D03*
X041931Y018707D03*
X040931Y018707D03*
X040931Y019707D03*
X041931Y019707D03*
X038431Y018707D03*
X037431Y018707D03*
X036431Y018707D03*
X036431Y019707D03*
X037431Y019707D03*
X033291Y011307D03*
X033291Y010307D03*
X033291Y009307D03*
X033291Y008307D03*
X033291Y007307D03*
X033291Y006307D03*
X049494Y015162D03*
X050494Y015162D03*
X051494Y015162D03*
X052700Y015152D03*
X053700Y015152D03*
X054700Y015152D03*
X055932Y015154D03*
X056932Y015154D03*
X057932Y015154D03*
X059162Y015154D03*
X060162Y015154D03*
X061162Y015154D03*
X061131Y007107D03*
X061131Y006107D03*
X061181Y004257D03*
X061181Y003257D03*
X060181Y003257D03*
X060181Y004257D03*
X059181Y004257D03*
X051681Y002507D03*
X050681Y002507D03*
X049681Y002507D03*
D26*
X025086Y008561D03*
X025086Y010293D03*
D27*
X038431Y019707D03*
X047931Y019707D03*
X051581Y027957D03*
X047931Y032857D03*
X038431Y032857D03*
X061081Y027957D03*
X059181Y003257D03*
D28*
X046864Y010507D03*
X045998Y010133D03*
X045998Y010881D03*
D29*
X043931Y004757D03*
X042931Y004757D03*
X041931Y004757D03*
X040631Y004757D03*
X039631Y004757D03*
X038331Y004757D03*
X037331Y004757D03*
X036331Y004757D03*
D30*
X056831Y044407D03*
D31*
X058131Y043107D03*
X052031Y043107D03*
D32*
X060931Y019207D03*
X060931Y018207D03*
X060931Y017207D03*
D33*
X059731Y016657D03*
X058031Y016607D03*
X056431Y016607D03*
X054181Y016607D03*
X052081Y015657D03*
X051321Y013337D03*
X051171Y011747D03*
X052171Y010697D03*
X053201Y012437D03*
X055491Y010657D03*
X057161Y012155D03*
X060431Y009897D03*
X061211Y009887D03*
X057531Y007407D03*
X056281Y005457D03*
X054941Y005737D03*
X054751Y007277D03*
X052641Y007147D03*
X051981Y006957D03*
X051261Y007157D03*
X050761Y006957D03*
X050761Y005957D03*
X049521Y005377D03*
X049711Y004627D03*
X050761Y003497D03*
X052901Y005237D03*
X057481Y004707D03*
X049351Y012617D03*
X048061Y013927D03*
X047081Y013937D03*
X045931Y012707D03*
X044281Y011007D03*
X043481Y007507D03*
X039592Y011202D03*
X039081Y011107D03*
X037931Y011207D03*
X036411Y009077D03*
X039021Y014747D03*
X037891Y015767D03*
X038171Y017307D03*
X036311Y016507D03*
X040051Y016487D03*
X039931Y019207D03*
X039881Y020917D03*
X040231Y021657D03*
X039761Y022477D03*
X039381Y022117D03*
X039081Y023307D03*
X038581Y023307D03*
X038031Y023357D03*
X037931Y022857D03*
X038331Y023807D03*
X038831Y023807D03*
X039131Y024257D03*
X039631Y024257D03*
X039611Y023517D03*
X041031Y024307D03*
X041631Y024527D03*
X041631Y024007D03*
X040981Y022407D03*
X042081Y021457D03*
X042431Y020957D03*
X043281Y022057D03*
X044381Y020777D03*
X044931Y020907D03*
X045431Y020907D03*
X045931Y020907D03*
X046431Y020927D03*
X046581Y021477D03*
X047331Y021107D03*
X048281Y021317D03*
X050833Y018946D03*
X051404Y018946D03*
X051994Y018985D03*
X052641Y018997D03*
X054871Y019127D03*
X058031Y018957D03*
X058881Y019257D03*
X059481Y020557D03*
X060431Y021747D03*
X061211Y021737D03*
X057161Y024005D03*
X055491Y022507D03*
X053201Y024287D03*
X052171Y022547D03*
X051171Y023597D03*
X051321Y025187D03*
X049351Y024467D03*
X047551Y024557D03*
X045981Y025527D03*
X047281Y026997D03*
X048061Y026987D03*
X049531Y030257D03*
X049521Y030777D03*
X051081Y031107D03*
X051181Y031607D03*
X051481Y032057D03*
X051981Y032057D03*
X052281Y032507D03*
X052781Y032507D03*
X052761Y031767D03*
X052231Y031557D03*
X051731Y031557D03*
X052531Y030367D03*
X052911Y030727D03*
X053381Y029907D03*
X053031Y029167D03*
X054131Y030657D03*
X055231Y029707D03*
X055581Y029207D03*
X056431Y030307D03*
X057531Y029027D03*
X058081Y029157D03*
X058581Y029157D03*
X059081Y029157D03*
X059581Y029177D03*
X059731Y029727D03*
X060481Y029357D03*
X061431Y029567D03*
X060701Y032807D03*
X059131Y033777D03*
X060431Y035247D03*
X061211Y035237D03*
X057161Y037505D03*
X055491Y036057D03*
X055481Y034157D03*
X054781Y032777D03*
X054781Y032257D03*
X054181Y032557D03*
X056991Y032557D03*
X052171Y036047D03*
X051171Y037097D03*
X051321Y038687D03*
X053201Y037787D03*
X049351Y037967D03*
X047551Y037707D03*
X045981Y038677D03*
X047281Y040147D03*
X048061Y040137D03*
X051181Y042357D03*
X053731Y047557D03*
X054281Y048057D03*
X053881Y048807D03*
X053931Y049657D03*
X052031Y050657D03*
X052031Y052557D03*
X054131Y053457D03*
X055731Y053107D03*
X056031Y052207D03*
X057731Y052307D03*
X057231Y054307D03*
X054721Y056157D03*
X052831Y057257D03*
X052291Y057147D03*
X050131Y054357D03*
X049511Y054977D03*
X049521Y055477D03*
X046411Y053287D03*
X045631Y053297D03*
X042361Y055555D03*
X040691Y054057D03*
X038401Y055837D03*
X037371Y054097D03*
X036371Y055147D03*
X036571Y056737D03*
X034551Y056017D03*
X033481Y056307D03*
X032781Y055307D03*
X032881Y053607D03*
X031281Y051967D03*
X029881Y052657D03*
X029581Y054457D03*
X029981Y055807D03*
X030281Y056257D03*
X031151Y056767D03*
X031281Y058567D03*
X029881Y059257D03*
X029581Y061057D03*
X029981Y062407D03*
X030281Y062857D03*
X031151Y063367D03*
X031031Y061357D03*
X032781Y061907D03*
X033481Y062907D03*
X034551Y062617D03*
X036371Y061747D03*
X037371Y060697D03*
X038401Y062437D03*
X036571Y063337D03*
X032881Y060207D03*
X031031Y054757D03*
X031151Y050167D03*
X030281Y049657D03*
X029981Y049207D03*
X031031Y048157D03*
X029581Y047857D03*
X029881Y046057D03*
X031281Y045367D03*
X032881Y047007D03*
X032781Y048707D03*
X033481Y049707D03*
X034551Y049417D03*
X036371Y048547D03*
X037371Y047497D03*
X038401Y049237D03*
X036571Y050137D03*
X040691Y047457D03*
X042361Y048955D03*
X045631Y046697D03*
X046411Y046687D03*
X044011Y042405D03*
X042341Y040957D03*
X042331Y039057D03*
X041631Y037677D03*
X041631Y037157D03*
X041031Y037457D03*
X039631Y037407D03*
X039131Y037407D03*
X038831Y036957D03*
X038331Y036957D03*
X038031Y036507D03*
X037931Y036007D03*
X038581Y036457D03*
X039081Y036457D03*
X039611Y036667D03*
X039761Y035627D03*
X039381Y035267D03*
X040231Y034807D03*
X039881Y034067D03*
X040981Y035557D03*
X042081Y034607D03*
X042431Y034107D03*
X043281Y035207D03*
X044381Y033927D03*
X044931Y034057D03*
X045431Y034057D03*
X045931Y034057D03*
X046431Y034077D03*
X046581Y034627D03*
X047331Y034257D03*
X048281Y034467D03*
X050001Y033567D03*
X051131Y028957D03*
X053081Y027457D03*
X044011Y029255D03*
X042341Y027807D03*
X042331Y025907D03*
X043841Y024307D03*
X039021Y027797D03*
X038021Y028847D03*
X038171Y030437D03*
X040051Y029537D03*
X039931Y032357D03*
X037981Y033857D03*
X036381Y035157D03*
X036371Y035677D03*
X036851Y038467D03*
X034911Y040137D03*
X034131Y040147D03*
X036201Y042867D03*
X038021Y041997D03*
X039021Y040947D03*
X040051Y042687D03*
X038171Y043587D03*
X043841Y037457D03*
X036201Y029717D03*
X036851Y025317D03*
X036371Y022527D03*
X036381Y022007D03*
X037981Y020707D03*
X034881Y020527D03*
X030931Y022705D03*
X029211Y021207D03*
X027081Y022137D03*
X026871Y022647D03*
X025891Y021247D03*
X024561Y021977D03*
X024171Y022357D03*
X023381Y022857D03*
X024891Y023887D03*
X025061Y017677D03*
X025441Y017297D03*
X025981Y017657D03*
X026591Y017647D03*
X026521Y016487D03*
X026551Y015807D03*
X024561Y017417D03*
X023831Y014977D03*
X024181Y030857D03*
X023261Y035077D03*
X023221Y035627D03*
X026341Y037397D03*
X028421Y036307D03*
X030531Y036607D03*
X029191Y040907D03*
X030861Y042405D03*
X026901Y042687D03*
X025871Y040947D03*
X024871Y041997D03*
X025021Y043587D03*
X024531Y045457D03*
X023051Y042867D03*
X024531Y052057D03*
X024531Y058657D03*
X040691Y060657D03*
X042361Y062155D03*
X045631Y059897D03*
X046411Y059887D03*
X049351Y062717D03*
X051171Y061847D03*
X052171Y060797D03*
X053201Y062537D03*
X051321Y063437D03*
X055491Y060757D03*
X057161Y062255D03*
X060431Y059997D03*
X059331Y058807D03*
X059331Y057007D03*
X061211Y059987D03*
X058781Y050357D03*
X059031Y042407D03*
X049521Y017227D03*
X049511Y016727D03*
X044111Y016055D03*
X042291Y014807D03*
D34*
X041881Y011107D03*
X038231Y009707D03*
X038231Y007807D03*
X034151Y020457D03*
M02*
