%
M48
M72
T01C0.0157
T02C0.0320
T03C0.0394
T04C0.1063
%
T01
X7006Y6221
X7106Y6921
X7656Y6921
X8506Y7721
X10006Y6271
X3906Y7571
X15456Y11271
X16906Y10071
X17406Y7721
X16956Y7171
T02
X13056Y7671
X7056Y7671
T03
X2506Y5721
X3506Y5721
X4506Y5721
X5506Y5721
X6506Y5721
X7506Y5721
X8506Y5721
X9506Y5721
X10506Y5721
X11506Y5721
X12506Y5721
X13506Y5721
X14506Y5721
X15506Y5721
X16506Y5721
X17506Y5721
X18506Y5721
X19506Y5721
X20506Y5721
X21506Y5721
X22506Y5721
X13506Y8971
X12506Y8971
X11506Y8971
X10506Y8971
X9506Y8971
X8506Y8971
X7506Y8971
X6506Y8971
X5506Y8971
X4506Y8971
X4506Y9971
X5506Y9971
X6506Y9971
X7506Y9971
X8506Y9971
X9506Y9971
X10506Y9971
X11506Y9971
X12506Y9971
X13506Y9971
T04
X21906Y11121
X3106Y11121
M30
