G75*
G70*
%OFA0B0*%
%FSLAX24Y24*%
%IPPOS*%
%LPD*%
%AMOC8*
5,1,8,0,0,1.08239X$1,22.5*
%
%ADD10C,0.1143*%
%ADD11C,0.0674*%
%ADD12R,0.0740X0.0740*%
%ADD13C,0.0780*%
%ADD14R,0.0474X0.0631*%
%ADD15OC8,0.0600*%
%ADD16R,0.0434X0.0474*%
%ADD17R,0.0434X0.0513*%
%ADD18R,0.0316X0.0946*%
%ADD19R,0.0470X0.0480*%
%ADD20R,0.0474X0.0474*%
%ADD21R,0.0280X0.0480*%
%ADD22R,0.0100X0.0200*%
D10*
X003106Y011121D03*
X021906Y011121D03*
D11*
X002506Y005721D03*
X003506Y005721D03*
X004506Y005721D03*
X005506Y005721D03*
X006506Y005721D03*
X007506Y005721D03*
X008506Y005721D03*
X009506Y005721D03*
X010506Y005721D03*
X011506Y005721D03*
X012506Y005721D03*
X013506Y005721D03*
X014506Y005721D03*
X015506Y005721D03*
X016506Y005721D03*
X017506Y005721D03*
X018506Y005721D03*
X019506Y005721D03*
X020506Y005721D03*
X021506Y005721D03*
X022506Y005721D03*
D12*
X004506Y008971D03*
D13*
X005506Y008971D03*
X006506Y008971D03*
X007506Y008971D03*
X008506Y008971D03*
X009506Y008971D03*
X010506Y008971D03*
X011506Y008971D03*
X012506Y008971D03*
X013506Y008971D03*
X013506Y009971D03*
X012506Y009971D03*
X011506Y009971D03*
X010506Y009971D03*
X009506Y009971D03*
X008506Y009971D03*
X007506Y009971D03*
X006506Y009971D03*
X005506Y009971D03*
X004506Y009971D03*
D14*
X006206Y007654D03*
X006580Y006788D03*
X005832Y006788D03*
D15*
X007056Y007671D03*
X013056Y007671D03*
D16*
X012479Y011218D03*
X012479Y011887D03*
D17*
X011337Y011552D03*
D18*
X015906Y011094D03*
X016406Y011094D03*
X016906Y011094D03*
X017406Y011094D03*
X017406Y008497D03*
X016906Y008497D03*
X016406Y008497D03*
X015906Y008497D03*
D19*
X018271Y009471D03*
X018940Y009471D03*
X018390Y006871D03*
X017721Y006871D03*
D20*
X015390Y010721D03*
X014721Y010721D03*
X003090Y006871D03*
X002421Y006871D03*
D21*
X003596Y006821D03*
X003906Y006821D03*
X004216Y006821D03*
D22*
X003756Y006821D03*
M02*
