G75*
G70*
%OFA0B0*%
%FSLAX24Y24*%
%IPPOS*%
%LPD*%
%AMOC8*
5,1,8,0,0,1.08239X$1,22.5*
%
%ADD10C,0.1143*%
%ADD11C,0.0674*%
%ADD12R,0.0740X0.0740*%
%ADD13C,0.0780*%
%ADD14OC8,0.0600*%
D10*
X004158Y011121D03*
X022958Y011121D03*
D11*
X003558Y005721D03*
X004558Y005721D03*
X005558Y005721D03*
X006558Y005721D03*
X007558Y005721D03*
X008558Y005721D03*
X009558Y005721D03*
X010558Y005721D03*
X011558Y005721D03*
X012558Y005721D03*
X013558Y005721D03*
X014558Y005721D03*
X015558Y005721D03*
X016558Y005721D03*
X017558Y005721D03*
X018558Y005721D03*
X019558Y005721D03*
X020558Y005721D03*
X021558Y005721D03*
X022558Y005721D03*
X023558Y005721D03*
D12*
X021558Y008971D03*
D13*
X020558Y008971D03*
X019558Y008971D03*
X018558Y008971D03*
X017558Y008971D03*
X016558Y008971D03*
X015558Y008971D03*
X014558Y008971D03*
X013558Y008971D03*
X012558Y008971D03*
X012558Y009971D03*
X013558Y009971D03*
X014558Y009971D03*
X015558Y009971D03*
X016558Y009971D03*
X017558Y009971D03*
X018558Y009971D03*
X019558Y009971D03*
X020558Y009971D03*
X021558Y009971D03*
D14*
X019008Y007671D03*
X013008Y007671D03*
M02*
