G75*
G70*
%OFA0B0*%
%FSLAX24Y24*%
%IPPOS*%
%LPD*%
%AMOC8*
5,1,8,0,0,1.08239X$1,22.5*
%
%ADD10C,0.0070*%
%ADD11R,0.0551X0.0551*%
%ADD12C,0.0551*%
%ADD13C,0.0394*%
%ADD14R,0.0394X0.0394*%
%ADD15C,0.0080*%
%ADD16C,0.0218*%
%ADD17C,0.0354*%
%ADD18C,0.0100*%
%ADD19C,0.0050*%
D10*
X002739Y003728D02*
X002949Y003728D01*
X003054Y003833D01*
X003278Y003833D02*
X003383Y003728D01*
X003594Y003728D01*
X003699Y003833D01*
X003699Y004044D01*
X003594Y004149D01*
X003383Y004149D01*
X003278Y004044D01*
X003278Y003833D01*
X003054Y004254D02*
X002949Y004359D01*
X002739Y004359D01*
X002634Y004254D01*
X002634Y003833D01*
X002739Y003728D01*
X003923Y003728D02*
X004238Y003728D01*
X004343Y003833D01*
X004343Y004044D01*
X004238Y004149D01*
X003923Y004149D01*
X003923Y003518D01*
X004567Y003518D02*
X004567Y004149D01*
X004883Y004149D01*
X004988Y004044D01*
X004988Y003833D01*
X004883Y003728D01*
X004567Y003728D01*
X005212Y003833D02*
X005212Y004044D01*
X005317Y004149D01*
X005527Y004149D01*
X005632Y004044D01*
X005632Y003938D01*
X005212Y003938D01*
X005212Y003833D02*
X005317Y003728D01*
X005527Y003728D01*
X005856Y003728D02*
X005856Y004149D01*
X005856Y003938D02*
X006067Y004149D01*
X006172Y004149D01*
X006499Y003833D02*
X006499Y003728D01*
X006604Y003728D01*
X006604Y003833D01*
X006499Y003833D01*
X006604Y003728D02*
X006394Y003518D01*
X007468Y003728D02*
X007783Y003728D01*
X007888Y003833D01*
X007888Y004044D01*
X007783Y004149D01*
X007468Y004149D01*
X007468Y004359D02*
X007468Y003728D01*
X008112Y003833D02*
X008217Y003728D01*
X008428Y003728D01*
X008533Y003833D01*
X008533Y004044D01*
X008428Y004149D01*
X008217Y004149D01*
X008112Y004044D01*
X008112Y003833D01*
X008757Y004149D02*
X008967Y004149D01*
X008862Y004254D02*
X008862Y003833D01*
X008967Y003728D01*
X009292Y003833D02*
X009397Y003728D01*
X009292Y003833D02*
X009292Y004254D01*
X009397Y004149D02*
X009186Y004149D01*
X009616Y004044D02*
X009616Y003833D01*
X009721Y003728D01*
X009931Y003728D01*
X010037Y003833D01*
X010037Y004044D01*
X009931Y004149D01*
X009721Y004149D01*
X009616Y004044D01*
X010261Y004149D02*
X010261Y003728D01*
X010471Y003728D02*
X010471Y004044D01*
X010576Y004149D01*
X010681Y004044D01*
X010681Y003728D01*
X010471Y004044D02*
X010366Y004149D01*
X010261Y004149D01*
X011550Y004044D02*
X011655Y003938D01*
X011865Y003938D01*
X011970Y003833D01*
X011865Y003728D01*
X011550Y003728D01*
X011550Y004044D02*
X011655Y004149D01*
X011970Y004149D01*
X012194Y004149D02*
X012299Y004149D01*
X012299Y003728D01*
X012194Y003728D02*
X012404Y003728D01*
X012624Y003833D02*
X012624Y004044D01*
X012729Y004149D01*
X013044Y004149D01*
X013044Y004359D02*
X013044Y003728D01*
X012729Y003728D01*
X012624Y003833D01*
X012299Y004359D02*
X012299Y004464D01*
X013269Y004044D02*
X013269Y003833D01*
X013374Y003728D01*
X013584Y003728D01*
X013689Y003938D02*
X013269Y003938D01*
X013269Y004044D02*
X013374Y004149D01*
X013584Y004149D01*
X013689Y004044D01*
X013689Y003938D01*
D11*
X010329Y013408D03*
D12*
X010329Y012408D03*
X010329Y011408D03*
X011329Y011408D03*
X011329Y012408D03*
X011329Y013408D03*
X005329Y013408D03*
X005329Y012408D03*
X004329Y012408D03*
X004329Y013408D03*
D13*
X004179Y014725D03*
X004679Y014725D03*
X008179Y014725D03*
X008679Y014725D03*
X009179Y014725D03*
X009679Y014725D03*
X010179Y014725D03*
X010679Y014725D03*
X011179Y014725D03*
X011679Y014725D03*
X010679Y009241D03*
X010179Y009241D03*
X009679Y009241D03*
X009179Y009241D03*
X008679Y009241D03*
X008179Y009241D03*
X007679Y009241D03*
X007179Y009241D03*
X006679Y009241D03*
X006179Y009241D03*
X005179Y009241D03*
X004179Y009241D03*
X003179Y009241D03*
D14*
X003179Y009405D03*
X004179Y009405D03*
X005179Y009405D03*
X006179Y009405D03*
X006679Y009405D03*
X007179Y009405D03*
X007679Y009405D03*
X008179Y009405D03*
X008679Y009405D03*
X009179Y009405D03*
X009679Y009405D03*
X010179Y009405D03*
X010679Y009405D03*
X010679Y014561D03*
X011179Y014561D03*
X011679Y014561D03*
X010179Y014561D03*
X009679Y014561D03*
X009179Y014561D03*
X008679Y014561D03*
X008179Y014561D03*
X004679Y014561D03*
X004179Y014561D03*
D15*
X003882Y014568D02*
X001749Y014568D01*
X001749Y014638D02*
X001749Y009328D01*
X002853Y009328D01*
X002855Y009340D01*
X002880Y009401D01*
X002882Y009403D01*
X002882Y009643D01*
X002941Y009702D01*
X003373Y009702D01*
X003329Y009746D01*
X002826Y010249D01*
X002742Y010249D01*
X002620Y010372D01*
X002620Y010545D01*
X002742Y010667D01*
X002915Y010667D01*
X003038Y010545D01*
X003038Y010461D01*
X003541Y009958D01*
X004117Y009958D01*
X004241Y009958D01*
X004367Y009958D01*
X005042Y010633D01*
X004976Y010699D01*
X004892Y010699D01*
X004770Y010822D01*
X004770Y010995D01*
X004892Y011117D01*
X005065Y011117D01*
X005188Y010995D01*
X005188Y010911D01*
X005291Y010808D01*
X005341Y010808D01*
X005879Y010808D01*
X005879Y012813D01*
X005820Y012872D01*
X005820Y013045D01*
X005942Y013167D01*
X006104Y013167D01*
X006104Y014006D01*
X005911Y014199D01*
X005792Y014199D01*
X005670Y014322D01*
X005670Y014495D01*
X005792Y014617D01*
X005965Y014617D01*
X006088Y014495D01*
X006088Y014376D01*
X006354Y014110D01*
X006354Y014006D01*
X006354Y012910D01*
X006720Y012544D01*
X006720Y012545D01*
X006842Y012667D01*
X007015Y012667D01*
X007049Y012633D01*
X007127Y012633D01*
X007954Y013460D01*
X007954Y013910D01*
X008027Y013983D01*
X008204Y014160D01*
X008204Y014265D01*
X007941Y014265D01*
X007882Y014323D01*
X007882Y014638D01*
X004976Y014638D01*
X004976Y014323D01*
X004917Y014265D01*
X004654Y014265D01*
X004654Y013960D01*
X005005Y013609D01*
X005010Y013621D01*
X005116Y013727D01*
X005254Y013784D01*
X005404Y013784D01*
X005542Y013727D01*
X005647Y013621D01*
X005704Y013483D01*
X005704Y013334D01*
X005647Y013196D01*
X005542Y013090D01*
X005404Y013033D01*
X005254Y013033D01*
X005116Y013090D01*
X005010Y013196D01*
X004972Y013288D01*
X004653Y013608D01*
X004704Y013483D01*
X004704Y013334D01*
X004647Y013196D01*
X004542Y013090D01*
X004404Y013033D01*
X004254Y013033D01*
X004116Y013090D01*
X004010Y013196D01*
X003953Y013334D01*
X003953Y013483D01*
X004010Y013621D01*
X004116Y013727D01*
X004254Y013784D01*
X004304Y013784D01*
X004304Y014206D01*
X004246Y014265D01*
X003941Y014265D01*
X003882Y014323D01*
X003882Y014638D01*
X001749Y014638D01*
X001749Y014489D02*
X003882Y014489D01*
X003882Y014411D02*
X001749Y014411D01*
X001749Y014332D02*
X003882Y014332D01*
X004257Y014254D02*
X001749Y014254D01*
X001749Y014175D02*
X004304Y014175D01*
X004304Y014096D02*
X001749Y014096D01*
X001749Y014018D02*
X004304Y014018D01*
X004304Y013939D02*
X001749Y013939D01*
X001749Y013861D02*
X004304Y013861D01*
X004250Y013782D02*
X001749Y013782D01*
X001749Y013704D02*
X004093Y013704D01*
X004015Y013625D02*
X001749Y013625D01*
X001749Y013547D02*
X003980Y013547D01*
X003953Y013468D02*
X001749Y013468D01*
X001749Y013390D02*
X003953Y013390D01*
X003963Y013311D02*
X001749Y013311D01*
X001749Y013232D02*
X003995Y013232D01*
X004052Y013154D02*
X001749Y013154D01*
X001749Y013075D02*
X004151Y013075D01*
X004231Y012814D02*
X004289Y012823D01*
X004289Y012448D01*
X003914Y012448D01*
X003924Y012506D01*
X003944Y012568D01*
X003973Y012626D01*
X004012Y012679D01*
X004058Y012725D01*
X004111Y012764D01*
X004169Y012793D01*
X004231Y012814D01*
X004289Y012761D02*
X004369Y012761D01*
X004369Y012823D02*
X004426Y012814D01*
X004488Y012793D01*
X004547Y012764D01*
X004600Y012725D01*
X004646Y012679D01*
X004684Y012626D01*
X004714Y012568D01*
X004734Y012506D01*
X004743Y012448D01*
X004369Y012448D01*
X004369Y012368D01*
X004289Y012368D01*
X004289Y011994D01*
X004231Y012003D01*
X004169Y012023D01*
X004111Y012053D01*
X004058Y012091D01*
X004012Y012138D01*
X003973Y012190D01*
X003944Y012249D01*
X003924Y012311D01*
X003914Y012368D01*
X004289Y012368D01*
X004289Y012448D01*
X004369Y012448D01*
X004369Y012823D01*
X004369Y012683D02*
X004289Y012683D01*
X004289Y012604D02*
X004369Y012604D01*
X004369Y012526D02*
X004289Y012526D01*
X004289Y012447D02*
X001749Y012447D01*
X001749Y012369D02*
X004289Y012369D01*
X004289Y012290D02*
X004369Y012290D01*
X004369Y012368D02*
X004369Y011994D01*
X004426Y012003D01*
X004488Y012023D01*
X004547Y012053D01*
X004600Y012091D01*
X004646Y012138D01*
X004684Y012190D01*
X004714Y012249D01*
X004734Y012311D01*
X004743Y012368D01*
X004369Y012368D01*
X004369Y012369D02*
X004953Y012369D01*
X004953Y012334D02*
X004983Y012261D01*
X004740Y012017D01*
X004642Y012017D01*
X004520Y011895D01*
X004520Y011722D01*
X004642Y011599D01*
X004815Y011599D01*
X004938Y011722D01*
X004938Y011819D01*
X005181Y012063D01*
X005254Y012033D01*
X005404Y012033D01*
X005542Y012090D01*
X005647Y012196D01*
X005704Y012334D01*
X005704Y012483D01*
X005647Y012621D01*
X005542Y012727D01*
X005404Y012784D01*
X005254Y012784D01*
X005116Y012727D01*
X005010Y012621D01*
X004953Y012483D01*
X004953Y012334D01*
X004971Y012290D02*
X004727Y012290D01*
X004695Y012211D02*
X004934Y012211D01*
X004855Y012133D02*
X004641Y012133D01*
X004549Y012054D02*
X004777Y012054D01*
X004601Y011976D02*
X001749Y011976D01*
X001749Y012054D02*
X004109Y012054D01*
X004016Y012133D02*
X001749Y012133D01*
X001749Y012211D02*
X003963Y012211D01*
X003930Y012290D02*
X001749Y012290D01*
X001749Y012526D02*
X003930Y012526D01*
X003962Y012604D02*
X001749Y012604D01*
X001749Y012683D02*
X004016Y012683D01*
X004108Y012761D02*
X001749Y012761D01*
X001749Y012840D02*
X005852Y012840D01*
X005879Y012761D02*
X005458Y012761D01*
X005586Y012683D02*
X005879Y012683D01*
X005879Y012604D02*
X005654Y012604D01*
X005687Y012526D02*
X005879Y012526D01*
X005879Y012447D02*
X005704Y012447D01*
X005704Y012369D02*
X005879Y012369D01*
X005879Y012290D02*
X005686Y012290D01*
X005654Y012211D02*
X005879Y012211D01*
X005879Y012133D02*
X005585Y012133D01*
X005456Y012054D02*
X005879Y012054D01*
X005879Y011976D02*
X005094Y011976D01*
X005016Y011897D02*
X005879Y011897D01*
X005879Y011819D02*
X004938Y011819D01*
X004938Y011740D02*
X005879Y011740D01*
X005879Y011662D02*
X004878Y011662D01*
X004729Y011808D02*
X005329Y012408D01*
X005072Y012683D02*
X004642Y012683D01*
X004695Y012604D02*
X005003Y012604D01*
X004971Y012526D02*
X004728Y012526D01*
X004953Y012447D02*
X004369Y012447D01*
X004369Y012211D02*
X004289Y012211D01*
X004289Y012133D02*
X004369Y012133D01*
X004369Y012054D02*
X004289Y012054D01*
X004522Y011897D02*
X001749Y011897D01*
X001749Y011819D02*
X004520Y011819D01*
X004520Y011740D02*
X001749Y011740D01*
X001749Y011662D02*
X004580Y011662D01*
X004887Y011112D02*
X001749Y011112D01*
X001749Y011190D02*
X005879Y011190D01*
X005879Y011112D02*
X005071Y011112D01*
X005149Y011033D02*
X005879Y011033D01*
X005879Y010955D02*
X005188Y010955D01*
X005223Y010876D02*
X005879Y010876D01*
X006179Y010876D02*
X006565Y010876D01*
X006568Y010874D02*
X006520Y010922D01*
X006520Y011095D01*
X006633Y011208D01*
X006520Y011322D01*
X006520Y011399D01*
X006442Y011399D01*
X006320Y011522D01*
X006320Y011695D01*
X006442Y011817D01*
X006615Y011817D01*
X006699Y011733D01*
X006777Y011733D01*
X006881Y011733D01*
X007081Y011533D01*
X007154Y011460D01*
X007154Y010910D01*
X007154Y010806D01*
X006654Y010306D01*
X006654Y009860D01*
X006681Y009833D01*
X006820Y009833D01*
X006820Y009995D01*
X006833Y010008D01*
X006720Y010122D01*
X006720Y010295D01*
X006842Y010417D01*
X007015Y010417D01*
X007099Y010333D01*
X008177Y010333D01*
X009277Y011433D01*
X009131Y011433D01*
X009027Y011433D01*
X008577Y011883D01*
X007131Y011883D01*
X007027Y011883D01*
X006849Y011883D01*
X006815Y011849D01*
X006642Y011849D01*
X006520Y011972D01*
X006520Y012145D01*
X006642Y012267D01*
X006643Y012267D01*
X006179Y012732D01*
X006179Y010867D01*
X006215Y010867D01*
X006338Y010745D01*
X006338Y010644D01*
X006568Y010874D01*
X006520Y010955D02*
X006179Y010955D01*
X006179Y011033D02*
X006520Y011033D01*
X006537Y011112D02*
X006179Y011112D01*
X006179Y011190D02*
X006615Y011190D01*
X006573Y011269D02*
X006179Y011269D01*
X006179Y011347D02*
X006520Y011347D01*
X006415Y011426D02*
X006179Y011426D01*
X006179Y011505D02*
X006337Y011505D01*
X006320Y011583D02*
X006179Y011583D01*
X006179Y011662D02*
X006320Y011662D01*
X006365Y011740D02*
X006179Y011740D01*
X006179Y011819D02*
X008642Y011819D01*
X008720Y011740D02*
X006693Y011740D01*
X006594Y011897D02*
X006179Y011897D01*
X006179Y011976D02*
X006520Y011976D01*
X006520Y012054D02*
X006179Y012054D01*
X006179Y012133D02*
X006520Y012133D01*
X006586Y012211D02*
X006179Y012211D01*
X006179Y012290D02*
X006620Y012290D01*
X006542Y012369D02*
X006179Y012369D01*
X006179Y012447D02*
X006463Y012447D01*
X006385Y012526D02*
X006179Y012526D01*
X006179Y012604D02*
X006306Y012604D01*
X006228Y012683D02*
X006179Y012683D01*
X006354Y012918D02*
X006523Y012918D01*
X006520Y012922D02*
X006520Y013095D01*
X006604Y013179D01*
X006604Y013988D01*
X006520Y014072D01*
X006520Y014245D01*
X006642Y014367D01*
X006815Y014367D01*
X006938Y014245D01*
X006938Y014072D01*
X006854Y013988D01*
X006854Y013179D01*
X006938Y013095D01*
X006938Y012922D01*
X006815Y012799D01*
X006642Y012799D01*
X006520Y012922D01*
X006520Y012997D02*
X006354Y012997D01*
X006354Y013075D02*
X006520Y013075D01*
X006579Y013154D02*
X006354Y013154D01*
X006354Y013232D02*
X006604Y013232D01*
X006604Y013311D02*
X006354Y013311D01*
X006354Y013390D02*
X006604Y013390D01*
X006604Y013468D02*
X006354Y013468D01*
X006354Y013547D02*
X006604Y013547D01*
X006604Y013625D02*
X006354Y013625D01*
X006354Y013704D02*
X006604Y013704D01*
X006604Y013782D02*
X006354Y013782D01*
X006354Y013861D02*
X006604Y013861D01*
X006604Y013939D02*
X006354Y013939D01*
X006354Y014018D02*
X006574Y014018D01*
X006520Y014096D02*
X006354Y014096D01*
X006289Y014175D02*
X006520Y014175D01*
X006529Y014254D02*
X006210Y014254D01*
X006132Y014332D02*
X006607Y014332D01*
X006851Y014332D02*
X007882Y014332D01*
X007882Y014411D02*
X006088Y014411D01*
X006088Y014489D02*
X007882Y014489D01*
X007882Y014568D02*
X006015Y014568D01*
X005743Y014568D02*
X004976Y014568D01*
X004976Y014489D02*
X005670Y014489D01*
X005670Y014411D02*
X004976Y014411D01*
X004976Y014332D02*
X005670Y014332D01*
X005738Y014254D02*
X004654Y014254D01*
X004654Y014175D02*
X005935Y014175D01*
X006014Y014096D02*
X004654Y014096D01*
X004654Y014018D02*
X006092Y014018D01*
X006104Y013939D02*
X004674Y013939D01*
X004753Y013861D02*
X006104Y013861D01*
X006104Y013782D02*
X005407Y013782D01*
X005250Y013782D02*
X004832Y013782D01*
X004910Y013704D02*
X005093Y013704D01*
X005015Y013625D02*
X004989Y013625D01*
X004792Y013468D02*
X004704Y013468D01*
X004704Y013390D02*
X004871Y013390D01*
X004949Y013311D02*
X004695Y013311D01*
X004663Y013232D02*
X004995Y013232D01*
X005052Y013154D02*
X004606Y013154D01*
X004507Y013075D02*
X005151Y013075D01*
X005200Y012761D02*
X004550Y012761D01*
X004678Y013547D02*
X004714Y013547D01*
X005507Y013075D02*
X005850Y013075D01*
X005820Y012997D02*
X001749Y012997D01*
X001749Y012918D02*
X005820Y012918D01*
X005929Y013154D02*
X005606Y013154D01*
X005663Y013232D02*
X006104Y013232D01*
X006104Y013311D02*
X005695Y013311D01*
X005704Y013390D02*
X006104Y013390D01*
X006104Y013468D02*
X005704Y013468D01*
X005678Y013547D02*
X006104Y013547D01*
X006104Y013625D02*
X005643Y013625D01*
X005564Y013704D02*
X006104Y013704D01*
X006424Y012840D02*
X006602Y012840D01*
X006503Y012761D02*
X007255Y012761D01*
X007177Y012683D02*
X006581Y012683D01*
X006660Y012604D02*
X006779Y012604D01*
X006856Y012840D02*
X007334Y012840D01*
X007412Y012918D02*
X006935Y012918D01*
X006938Y012997D02*
X007491Y012997D01*
X007569Y013075D02*
X006938Y013075D01*
X006879Y013154D02*
X007648Y013154D01*
X007726Y013232D02*
X006854Y013232D01*
X006854Y013311D02*
X007805Y013311D01*
X007883Y013390D02*
X006854Y013390D01*
X006854Y013468D02*
X007954Y013468D01*
X007954Y013547D02*
X006854Y013547D01*
X006854Y013625D02*
X007954Y013625D01*
X007954Y013704D02*
X006854Y013704D01*
X006854Y013782D02*
X007954Y013782D01*
X007954Y013861D02*
X006854Y013861D01*
X006854Y013939D02*
X007983Y013939D01*
X008062Y014018D02*
X006884Y014018D01*
X006938Y014096D02*
X008140Y014096D01*
X008204Y014175D02*
X006938Y014175D01*
X006929Y014254D02*
X008204Y014254D01*
X008915Y013468D02*
X009953Y013468D01*
X009953Y013390D02*
X009443Y013390D01*
X009488Y013345D02*
X009488Y013226D01*
X009854Y012860D01*
X009854Y012756D01*
X009854Y012710D01*
X010004Y012860D01*
X010077Y012933D01*
X010458Y012933D01*
X010542Y013017D01*
X010715Y013017D01*
X010799Y012933D01*
X010981Y012933D01*
X011054Y012860D01*
X011166Y012747D01*
X011254Y012784D01*
X011404Y012784D01*
X011542Y012727D01*
X011647Y012621D01*
X011704Y012483D01*
X011704Y012334D01*
X011647Y012196D01*
X011542Y012090D01*
X011404Y012033D01*
X011254Y012033D01*
X011116Y012090D01*
X011010Y012196D01*
X010953Y012334D01*
X010953Y012483D01*
X010990Y012571D01*
X010877Y012683D01*
X010799Y012683D01*
X010878Y012683D01*
X010799Y012683D02*
X010715Y012599D01*
X010656Y012599D01*
X010704Y012483D01*
X010704Y012334D01*
X010647Y012196D01*
X010542Y012090D01*
X010472Y012061D01*
X010488Y012045D01*
X010488Y011872D01*
X010400Y011784D01*
X010404Y011784D01*
X010520Y011736D01*
X010520Y011795D01*
X010642Y011917D01*
X010815Y011917D01*
X010938Y011795D01*
X010938Y011622D01*
X010815Y011499D01*
X010698Y011499D01*
X010704Y011483D01*
X010704Y011334D01*
X010647Y011196D01*
X010542Y011090D01*
X010404Y011033D01*
X010254Y011033D01*
X010116Y011090D01*
X010010Y011196D01*
X009961Y011314D01*
X009531Y010883D01*
X009354Y010706D01*
X009354Y010579D01*
X009438Y010495D01*
X009438Y010322D01*
X009315Y010199D01*
X009142Y010199D01*
X009020Y010322D01*
X009020Y010495D01*
X009104Y010579D01*
X009104Y010607D01*
X008381Y009883D01*
X008277Y009883D01*
X007588Y009883D01*
X007588Y009833D01*
X009077Y009833D01*
X009370Y010126D01*
X009370Y010245D01*
X009492Y010367D01*
X009665Y010367D01*
X009788Y010245D01*
X009788Y010072D01*
X009665Y009949D01*
X009547Y009949D01*
X009299Y009702D01*
X009417Y009702D01*
X009429Y009690D01*
X009441Y009702D01*
X009917Y009702D01*
X009929Y009690D01*
X009941Y009702D01*
X010417Y009702D01*
X010429Y009690D01*
X010441Y009702D01*
X010917Y009702D01*
X010976Y009643D01*
X010976Y009328D01*
X012359Y009328D01*
X012359Y014638D01*
X011976Y014638D01*
X011976Y014323D01*
X011917Y014265D01*
X011662Y014265D01*
X011531Y014133D01*
X011427Y014133D01*
X011181Y014133D01*
X011081Y014033D01*
X010977Y014033D01*
X010731Y014033D01*
X010631Y013933D01*
X010527Y013933D01*
X010281Y013933D01*
X010181Y013833D01*
X010077Y013833D01*
X009831Y013833D01*
X009731Y013733D01*
X009627Y013733D01*
X009381Y013733D01*
X009281Y013633D01*
X009177Y013633D01*
X009081Y013633D01*
X008904Y013456D01*
X008904Y012360D01*
X008947Y012317D01*
X009065Y012317D01*
X009141Y012241D01*
X009167Y012267D01*
X009340Y012267D01*
X009463Y012145D01*
X009463Y012026D01*
X009504Y011985D01*
X009504Y012406D01*
X009477Y012433D01*
X009449Y012433D01*
X009365Y012349D01*
X009192Y012349D01*
X009070Y012472D01*
X009070Y012645D01*
X009192Y012767D01*
X009365Y012767D01*
X009449Y012683D01*
X009581Y012683D01*
X009604Y012683D01*
X009604Y012660D02*
X009604Y012756D01*
X009311Y013049D01*
X009192Y013049D01*
X009070Y013172D01*
X009070Y013345D01*
X009192Y013467D01*
X009365Y013467D01*
X009488Y013345D01*
X009488Y013311D02*
X009953Y013311D01*
X009953Y013232D02*
X009488Y013232D01*
X009560Y013154D02*
X009953Y013154D01*
X009953Y013091D02*
X010012Y013033D01*
X010646Y013033D01*
X010704Y013091D01*
X010704Y013725D01*
X010646Y013784D01*
X010012Y013784D01*
X009953Y013725D01*
X009953Y013091D01*
X009969Y013075D02*
X009638Y013075D01*
X009717Y012997D02*
X010522Y012997D01*
X010689Y013075D02*
X011151Y013075D01*
X011116Y013090D02*
X011010Y013196D01*
X010953Y013334D01*
X010953Y013483D01*
X010981Y013549D01*
X010942Y013549D01*
X010820Y013672D01*
X010820Y013845D01*
X010942Y013967D01*
X011115Y013967D01*
X011238Y013845D01*
X011238Y013777D01*
X011254Y013784D01*
X011404Y013784D01*
X011542Y013727D01*
X011647Y013621D01*
X011704Y013483D01*
X011704Y013334D01*
X011647Y013196D01*
X011542Y013090D01*
X011404Y013033D01*
X011254Y013033D01*
X011116Y013090D01*
X011052Y013154D02*
X010704Y013154D01*
X010704Y013232D02*
X010995Y013232D01*
X010963Y013311D02*
X010704Y013311D01*
X010704Y013390D02*
X010953Y013390D01*
X010953Y013468D02*
X010704Y013468D01*
X010704Y013547D02*
X010980Y013547D01*
X010866Y013625D02*
X010704Y013625D01*
X010704Y013704D02*
X010820Y013704D01*
X010820Y013782D02*
X010647Y013782D01*
X010637Y013939D02*
X010914Y013939D01*
X010836Y013861D02*
X010208Y013861D01*
X010010Y013782D02*
X009780Y013782D01*
X009953Y013704D02*
X009351Y013704D01*
X009073Y013625D02*
X009953Y013625D01*
X009953Y013547D02*
X008994Y013547D01*
X008904Y013390D02*
X009115Y013390D01*
X009070Y013311D02*
X008904Y013311D01*
X008904Y013232D02*
X009070Y013232D01*
X009088Y013154D02*
X008904Y013154D01*
X008904Y013075D02*
X009166Y013075D01*
X009363Y012997D02*
X008904Y012997D01*
X008904Y012918D02*
X009442Y012918D01*
X009521Y012840D02*
X008904Y012840D01*
X008904Y012761D02*
X009186Y012761D01*
X009108Y012683D02*
X008904Y012683D01*
X008904Y012604D02*
X009070Y012604D01*
X009070Y012526D02*
X008904Y012526D01*
X008904Y012447D02*
X009094Y012447D01*
X009173Y012369D02*
X008904Y012369D01*
X009093Y012290D02*
X009504Y012290D01*
X009504Y012369D02*
X009385Y012369D01*
X009396Y012211D02*
X009504Y012211D01*
X009504Y012133D02*
X009463Y012133D01*
X009463Y012054D02*
X009504Y012054D01*
X009604Y012660D02*
X009581Y012683D01*
X009599Y012761D02*
X009371Y012761D01*
X009796Y012918D02*
X010062Y012918D01*
X009984Y012840D02*
X009854Y012840D01*
X009854Y012761D02*
X009905Y012761D01*
X010478Y012054D02*
X011202Y012054D01*
X011073Y012133D02*
X010585Y012133D01*
X010654Y012211D02*
X011004Y012211D01*
X010971Y012290D02*
X010686Y012290D01*
X010704Y012369D02*
X010953Y012369D01*
X010953Y012447D02*
X010704Y012447D01*
X010687Y012526D02*
X010971Y012526D01*
X010956Y012604D02*
X010720Y012604D01*
X010996Y012918D02*
X012359Y012918D01*
X012359Y012840D02*
X011074Y012840D01*
X011153Y012761D02*
X011200Y012761D01*
X011458Y012761D02*
X012359Y012761D01*
X012359Y012683D02*
X011586Y012683D01*
X011654Y012604D02*
X012359Y012604D01*
X012359Y012526D02*
X011687Y012526D01*
X011704Y012447D02*
X012359Y012447D01*
X012359Y012369D02*
X011704Y012369D01*
X011686Y012290D02*
X012359Y012290D01*
X012359Y012211D02*
X011654Y012211D01*
X011585Y012133D02*
X012359Y012133D01*
X012359Y012054D02*
X011456Y012054D01*
X011426Y011814D02*
X011488Y011793D01*
X011547Y011764D01*
X011600Y011725D01*
X011646Y011679D01*
X011684Y011626D01*
X011714Y011568D01*
X011734Y011506D01*
X011743Y011448D01*
X011369Y011448D01*
X011369Y011368D01*
X011289Y011368D01*
X011289Y010994D01*
X011231Y011003D01*
X011169Y011023D01*
X011111Y011053D01*
X011058Y011091D01*
X011012Y011138D01*
X010973Y011190D01*
X010974Y011190D02*
X010642Y011190D01*
X010678Y011269D02*
X010937Y011269D01*
X010944Y011249D02*
X010924Y011311D01*
X010914Y011368D01*
X011289Y011368D01*
X011289Y011448D01*
X010914Y011448D01*
X010924Y011506D01*
X010944Y011568D01*
X010973Y011626D01*
X011012Y011679D01*
X011058Y011725D01*
X011111Y011764D01*
X011169Y011793D01*
X011231Y011814D01*
X011289Y011823D01*
X011289Y011448D01*
X011369Y011448D01*
X011369Y011823D01*
X011426Y011814D01*
X011394Y011819D02*
X012359Y011819D01*
X012359Y011897D02*
X010835Y011897D01*
X010914Y011819D02*
X011264Y011819D01*
X011289Y011819D02*
X011369Y011819D01*
X011369Y011740D02*
X011289Y011740D01*
X011289Y011662D02*
X011369Y011662D01*
X011369Y011583D02*
X011289Y011583D01*
X011289Y011505D02*
X011369Y011505D01*
X011369Y011426D02*
X012359Y011426D01*
X012359Y011347D02*
X011740Y011347D01*
X011743Y011368D02*
X011734Y011311D01*
X011714Y011249D01*
X011684Y011190D01*
X012359Y011190D01*
X012359Y011112D02*
X011620Y011112D01*
X011600Y011091D02*
X011547Y011053D01*
X011488Y011023D01*
X011426Y011003D01*
X011369Y010994D01*
X011369Y011368D01*
X011743Y011368D01*
X011721Y011269D02*
X012359Y011269D01*
X012359Y011033D02*
X011508Y011033D01*
X011600Y011091D02*
X011646Y011138D01*
X011684Y011190D01*
X011734Y011505D02*
X012359Y011505D01*
X012359Y011583D02*
X011706Y011583D01*
X011658Y011662D02*
X012359Y011662D01*
X012359Y011740D02*
X011579Y011740D01*
X011289Y011426D02*
X010704Y011426D01*
X010704Y011347D02*
X010918Y011347D01*
X010944Y011249D02*
X010973Y011190D01*
X011038Y011112D02*
X010564Y011112D01*
X010405Y011033D02*
X011149Y011033D01*
X011289Y011033D02*
X011369Y011033D01*
X011369Y011112D02*
X011289Y011112D01*
X011289Y011190D02*
X011369Y011190D01*
X011369Y011269D02*
X011289Y011269D01*
X011289Y011347D02*
X011369Y011347D01*
X010999Y011662D02*
X010938Y011662D01*
X010938Y011740D02*
X011079Y011740D01*
X010951Y011583D02*
X010899Y011583D01*
X010923Y011505D02*
X010821Y011505D01*
X010544Y011819D02*
X010435Y011819D01*
X010488Y011897D02*
X010622Y011897D01*
X010488Y011976D02*
X012359Y011976D01*
X012359Y012997D02*
X010736Y012997D01*
X011507Y013075D02*
X012359Y013075D01*
X012359Y013154D02*
X011606Y013154D01*
X011663Y013232D02*
X012359Y013232D01*
X012359Y013311D02*
X011695Y013311D01*
X011704Y013390D02*
X012359Y013390D01*
X012359Y013468D02*
X011704Y013468D01*
X011678Y013547D02*
X012359Y013547D01*
X012359Y013625D02*
X011643Y013625D01*
X011564Y013704D02*
X012359Y013704D01*
X012359Y013782D02*
X011407Y013782D01*
X011250Y013782D02*
X011238Y013782D01*
X011222Y013861D02*
X012359Y013861D01*
X012359Y013939D02*
X011143Y013939D01*
X011144Y014096D02*
X012359Y014096D01*
X012359Y014018D02*
X010715Y014018D01*
X011572Y014175D02*
X012359Y014175D01*
X012359Y014254D02*
X011651Y014254D01*
X011976Y014332D02*
X012359Y014332D01*
X012359Y014411D02*
X011976Y014411D01*
X011976Y014489D02*
X012359Y014489D01*
X012359Y014568D02*
X011976Y014568D01*
X010520Y011740D02*
X010509Y011740D01*
X009980Y011269D02*
X009916Y011269D01*
X009838Y011190D02*
X010016Y011190D01*
X010094Y011112D02*
X009759Y011112D01*
X009681Y011033D02*
X010253Y011033D01*
X009602Y010955D02*
X012359Y010955D01*
X012359Y010876D02*
X009524Y010876D01*
X009445Y010798D02*
X012359Y010798D01*
X012359Y010719D02*
X009366Y010719D01*
X009354Y010641D02*
X012359Y010641D01*
X012359Y010562D02*
X009371Y010562D01*
X009438Y010483D02*
X012359Y010483D01*
X012359Y010405D02*
X009438Y010405D01*
X009438Y010326D02*
X009451Y010326D01*
X009373Y010248D02*
X009364Y010248D01*
X009370Y010169D02*
X008667Y010169D01*
X008745Y010248D02*
X009094Y010248D01*
X009020Y010326D02*
X008824Y010326D01*
X008902Y010405D02*
X009020Y010405D01*
X009020Y010483D02*
X008981Y010483D01*
X009059Y010562D02*
X009087Y010562D01*
X008720Y010876D02*
X007154Y010876D01*
X007154Y010955D02*
X008799Y010955D01*
X008877Y011033D02*
X007154Y011033D01*
X007154Y011112D02*
X008956Y011112D01*
X009034Y011190D02*
X007154Y011190D01*
X007154Y011269D02*
X009113Y011269D01*
X009191Y011347D02*
X007154Y011347D01*
X007154Y011426D02*
X009270Y011426D01*
X008956Y011505D02*
X007109Y011505D01*
X007031Y011583D02*
X008877Y011583D01*
X008799Y011662D02*
X006952Y011662D01*
X007145Y010798D02*
X008641Y010798D01*
X008563Y010719D02*
X007066Y010719D01*
X006988Y010641D02*
X008484Y010641D01*
X008406Y010562D02*
X006909Y010562D01*
X006831Y010483D02*
X008327Y010483D01*
X008249Y010405D02*
X007028Y010405D01*
X006830Y010405D02*
X006752Y010405D01*
X006751Y010326D02*
X006674Y010326D01*
X006654Y010248D02*
X006720Y010248D01*
X006720Y010169D02*
X006654Y010169D01*
X006654Y010091D02*
X006751Y010091D01*
X006829Y010012D02*
X006654Y010012D01*
X006654Y009934D02*
X006820Y009934D01*
X006820Y009855D02*
X006659Y009855D01*
X006204Y009855D02*
X004688Y009855D01*
X004766Y009934D02*
X006204Y009934D01*
X006204Y010012D02*
X004845Y010012D01*
X004923Y010091D02*
X006204Y010091D01*
X006204Y010169D02*
X005002Y010169D01*
X005081Y010248D02*
X006204Y010248D01*
X006204Y010326D02*
X005159Y010326D01*
X005238Y010405D02*
X006204Y010405D01*
X006204Y010449D02*
X006042Y010449D01*
X005983Y010508D01*
X005967Y010508D01*
X005341Y010508D01*
X004491Y009658D01*
X004461Y009658D01*
X004476Y009643D01*
X004476Y009328D01*
X004882Y009328D01*
X004882Y009643D01*
X004941Y009702D01*
X005417Y009702D01*
X005476Y009643D01*
X005476Y009328D01*
X005882Y009328D01*
X005882Y009643D01*
X005941Y009702D01*
X006196Y009702D01*
X006204Y009710D01*
X006204Y010449D01*
X006008Y010483D02*
X005316Y010483D01*
X005341Y010508D02*
X005341Y010508D01*
X005034Y010641D02*
X002942Y010641D01*
X003021Y010562D02*
X004970Y010562D01*
X004892Y010483D02*
X003038Y010483D01*
X003094Y010405D02*
X004813Y010405D01*
X004735Y010326D02*
X003173Y010326D01*
X003251Y010248D02*
X004656Y010248D01*
X004578Y010169D02*
X003330Y010169D01*
X003408Y010091D02*
X004499Y010091D01*
X004421Y010012D02*
X003487Y010012D01*
X003298Y009777D02*
X001749Y009777D01*
X001749Y009855D02*
X003220Y009855D01*
X003141Y009934D02*
X001749Y009934D01*
X001749Y010012D02*
X003063Y010012D01*
X002984Y010091D02*
X001749Y010091D01*
X001749Y010169D02*
X002906Y010169D01*
X002827Y010248D02*
X001749Y010248D01*
X001749Y010326D02*
X002665Y010326D01*
X002620Y010405D02*
X001749Y010405D01*
X001749Y010483D02*
X002620Y010483D01*
X002637Y010562D02*
X001749Y010562D01*
X001749Y010641D02*
X002716Y010641D01*
X002937Y009698D02*
X001749Y009698D01*
X001749Y009619D02*
X002882Y009619D01*
X002882Y009541D02*
X001749Y009541D01*
X001749Y009462D02*
X002882Y009462D01*
X002873Y009384D02*
X001749Y009384D01*
X001749Y010719D02*
X004872Y010719D01*
X004794Y010798D02*
X001749Y010798D01*
X001749Y010876D02*
X004770Y010876D01*
X004770Y010955D02*
X001749Y010955D01*
X001749Y011033D02*
X004808Y011033D01*
X005173Y012054D02*
X005202Y012054D01*
X005879Y011583D02*
X001749Y011583D01*
X001749Y011505D02*
X005879Y011505D01*
X005879Y011426D02*
X001749Y011426D01*
X001749Y011347D02*
X005879Y011347D01*
X005879Y011269D02*
X001749Y011269D01*
X003329Y009746D02*
X003329Y009746D01*
X004476Y009619D02*
X004882Y009619D01*
X004882Y009541D02*
X004476Y009541D01*
X004476Y009462D02*
X004882Y009462D01*
X004882Y009384D02*
X004476Y009384D01*
X004531Y009698D02*
X004937Y009698D01*
X004609Y009777D02*
X006204Y009777D01*
X005937Y009698D02*
X005421Y009698D01*
X005476Y009619D02*
X005882Y009619D01*
X005882Y009541D02*
X005476Y009541D01*
X005476Y009462D02*
X005882Y009462D01*
X005882Y009384D02*
X005476Y009384D01*
X006338Y010719D02*
X006413Y010719D01*
X006491Y010798D02*
X006285Y010798D01*
X007588Y009855D02*
X009099Y009855D01*
X009177Y009934D02*
X008431Y009934D01*
X008510Y010012D02*
X009256Y010012D01*
X009335Y010091D02*
X008588Y010091D01*
X009374Y009777D02*
X012359Y009777D01*
X012359Y009855D02*
X009452Y009855D01*
X009531Y009934D02*
X012359Y009934D01*
X012359Y010012D02*
X009728Y010012D01*
X009788Y010091D02*
X012359Y010091D01*
X012359Y010169D02*
X009788Y010169D01*
X009785Y010248D02*
X012359Y010248D01*
X012359Y010326D02*
X009706Y010326D01*
X009921Y009698D02*
X009937Y009698D01*
X009437Y009698D02*
X009421Y009698D01*
X010421Y009698D02*
X010437Y009698D01*
X010921Y009698D02*
X012359Y009698D01*
X012359Y009619D02*
X010976Y009619D01*
X010976Y009541D02*
X012359Y009541D01*
X012359Y009462D02*
X010976Y009462D01*
X010976Y009384D02*
X012359Y009384D01*
D16*
X011769Y010548D03*
X010729Y011708D03*
X010279Y011958D03*
X010229Y012558D03*
X010629Y012808D03*
X010179Y013408D03*
X009279Y013258D03*
X008979Y012908D03*
X009279Y012558D03*
X008979Y012108D03*
X009254Y012058D03*
X009254Y011758D03*
X009779Y010908D03*
X009229Y010408D03*
X009579Y010158D03*
X008379Y012308D03*
X008179Y012508D03*
X007979Y012308D03*
X007779Y012508D03*
X007579Y012308D03*
X007179Y012308D03*
X006929Y012458D03*
X006729Y012058D03*
X006529Y011608D03*
X006279Y011758D03*
X006729Y011408D03*
X006729Y011008D03*
X006129Y010658D03*
X006729Y009958D03*
X006929Y010208D03*
X007029Y009908D03*
X007379Y009908D03*
X005679Y009458D03*
X004979Y010908D03*
X004729Y011808D03*
X003979Y011408D03*
X004079Y010258D03*
X002829Y010458D03*
X002279Y010308D03*
X001979Y010308D03*
X003529Y013608D03*
X003829Y013608D03*
X005879Y014408D03*
X006479Y013758D03*
X006729Y014158D03*
X006479Y013158D03*
X006729Y013008D03*
X006029Y012958D03*
X008579Y012508D03*
X011029Y013758D03*
D17*
X008129Y011358D03*
X008129Y010858D03*
X007629Y010858D03*
X007629Y011358D03*
D18*
X006129Y010658D02*
X006029Y010658D01*
X006029Y012958D01*
X004979Y010908D02*
X005229Y010658D01*
X005279Y010658D01*
X006129Y010658D01*
X005279Y010658D02*
X004429Y009808D01*
X004179Y009808D01*
X004179Y009241D01*
X004179Y009808D02*
X003479Y009808D01*
X002829Y010458D01*
X003179Y009758D02*
X003179Y009458D01*
X002779Y009458D01*
D19*
X006179Y009508D02*
X006179Y009241D01*
X006179Y009508D02*
X006329Y009658D01*
X006329Y010458D01*
X006729Y010858D01*
X006729Y011008D01*
X006929Y010908D02*
X006429Y010408D01*
X006429Y009708D01*
X006529Y009608D01*
X006529Y009358D01*
X006679Y009241D01*
X006629Y009708D02*
X006929Y009708D01*
X007179Y009458D01*
X007429Y009708D01*
X009129Y009708D01*
X009579Y010158D01*
X009229Y010408D02*
X009229Y010758D01*
X009479Y011008D01*
X009929Y011458D01*
X009929Y011608D01*
X010279Y011958D01*
X010329Y012408D02*
X010329Y012458D01*
X010229Y012558D01*
X010129Y012808D02*
X010629Y012808D01*
X010929Y012808D01*
X011329Y012408D01*
X010729Y011708D02*
X010429Y011408D01*
X010329Y011408D01*
X009829Y011508D02*
X009829Y012508D01*
X010129Y012808D01*
X009729Y012808D02*
X009279Y013258D01*
X009729Y012808D02*
X009729Y011558D01*
X008279Y010108D01*
X007229Y010108D01*
X007029Y009908D01*
X006929Y010208D02*
X008229Y010208D01*
X009629Y011608D01*
X009629Y012458D01*
X009529Y012558D01*
X009279Y012558D01*
X008979Y012108D02*
X008779Y012308D01*
X008779Y013508D01*
X009029Y013758D01*
X009229Y013758D01*
X009329Y013858D01*
X009679Y013858D01*
X009779Y013958D01*
X010129Y013958D01*
X010229Y014058D01*
X010579Y014058D01*
X010679Y014158D01*
X011029Y014158D01*
X011129Y014258D01*
X011479Y014258D01*
X011679Y014458D01*
X011679Y014708D01*
X011679Y014725D01*
X011179Y014725D02*
X011179Y014708D01*
X011179Y014458D01*
X010979Y014258D01*
X010629Y014258D01*
X010529Y014158D01*
X010179Y014158D01*
X010079Y014058D01*
X009729Y014058D01*
X009629Y013958D01*
X009279Y013958D01*
X009179Y013858D01*
X008979Y013858D01*
X008679Y013558D01*
X008679Y012608D01*
X008579Y012508D01*
X008379Y012608D02*
X008579Y012808D01*
X008579Y013608D01*
X008929Y013958D01*
X009129Y013958D01*
X009229Y014058D01*
X009579Y014058D01*
X009679Y014158D01*
X010029Y014158D01*
X010129Y014258D01*
X010479Y014258D01*
X010679Y014458D01*
X010679Y014708D01*
X010679Y014725D01*
X010179Y014708D02*
X010179Y014725D01*
X010179Y014708D02*
X010179Y014458D01*
X009979Y014258D01*
X009629Y014258D01*
X009529Y014158D01*
X009179Y014158D01*
X009079Y014058D01*
X008879Y014058D01*
X008479Y013658D01*
X008479Y012858D01*
X008179Y012558D01*
X008179Y012508D01*
X008379Y012608D02*
X008379Y012308D01*
X008679Y012108D02*
X008079Y012108D01*
X007979Y012208D01*
X007979Y012308D01*
X007879Y012508D02*
X007779Y012508D01*
X007879Y012508D02*
X008379Y013008D01*
X008379Y013708D01*
X008829Y014158D01*
X009029Y014158D01*
X009129Y014258D01*
X009479Y014258D01*
X009679Y014458D01*
X009679Y014725D01*
X009179Y014708D02*
X009179Y014725D01*
X009179Y014708D02*
X009179Y014458D01*
X008979Y014258D01*
X008779Y014258D01*
X008279Y013758D01*
X008279Y013308D01*
X007579Y012608D01*
X007579Y012308D01*
X007179Y012308D02*
X007179Y012358D01*
X008179Y013358D01*
X008179Y013808D01*
X008679Y014308D01*
X008679Y014708D01*
X008679Y014725D01*
X008329Y014708D02*
X008179Y014725D01*
X008179Y014708D01*
X008329Y014708D02*
X008329Y014108D01*
X008079Y013858D01*
X008079Y013408D01*
X007179Y012508D01*
X006979Y012508D01*
X006929Y012458D01*
X006729Y012058D02*
X006779Y012008D01*
X007079Y012008D01*
X006229Y012858D01*
X006229Y014058D01*
X005879Y014408D01*
X006729Y014158D02*
X006729Y013008D01*
X007079Y012008D02*
X008629Y012008D01*
X009079Y011558D01*
X009329Y011558D01*
X009454Y011683D01*
X009454Y011858D01*
X009254Y012058D01*
X009254Y011758D02*
X009029Y011758D01*
X008679Y012108D01*
X009829Y011508D02*
X008329Y010008D01*
X007529Y010008D01*
X007429Y009908D01*
X007379Y009908D01*
X007179Y009458D02*
X007179Y009241D01*
X006629Y009708D02*
X006529Y009808D01*
X006529Y010358D01*
X007029Y010858D01*
X007029Y011408D01*
X006829Y011608D01*
X006529Y011608D01*
X006729Y011408D02*
X006779Y011408D01*
X006929Y011258D01*
X006929Y010908D01*
X005329Y013408D02*
X005029Y013408D01*
X004529Y013908D01*
X004529Y014508D01*
X004679Y014658D01*
X004679Y014708D01*
X004679Y014725D01*
X004179Y014725D02*
X004179Y014708D01*
X004179Y014508D01*
X004429Y014258D01*
X004429Y013458D01*
X004329Y013408D01*
X010179Y013408D02*
X010329Y013408D01*
X011029Y013758D02*
X011329Y013458D01*
X011329Y013408D01*
M02*
