G75*
G70*
%OFA0B0*%
%FSLAX24Y24*%
%IPPOS*%
%LPD*%
%AMOC8*
5,1,8,0,0,1.08239X$1,22.5*
%
%ADD10C,0.0100*%
%ADD11C,0.0000*%
%ADD12C,0.0060*%
%ADD13C,0.0700*%
%ADD14R,0.0880X0.0480*%
%ADD15R,0.0866X0.1417*%
%ADD16R,0.0710X0.0630*%
%ADD17R,0.1496X0.1102*%
%ADD18C,0.0650*%
%ADD19R,0.0394X0.0394*%
%ADD20R,0.0390X0.0400*%
%ADD21R,0.0551X0.1063*%
%ADD22R,0.0472X0.0138*%
%ADD23R,0.1102X0.1496*%
%ADD24C,0.0120*%
%ADD25C,0.0436*%
%ADD26C,0.0240*%
%ADD27C,0.0320*%
%ADD28C,0.0476*%
D10*
X002006Y005221D02*
X002404Y005221D01*
X002798Y005221D02*
X003197Y005221D01*
X003590Y005221D02*
X003989Y005221D01*
X004383Y005221D02*
X004781Y005221D01*
X005175Y005221D02*
X005574Y005221D01*
X005967Y005221D02*
X006366Y005221D01*
X006760Y005221D02*
X007158Y005221D01*
X007552Y005221D02*
X007951Y005221D01*
X008344Y005221D02*
X008743Y005221D01*
X009137Y005221D02*
X009535Y005221D01*
X009929Y005221D02*
X010328Y005221D01*
X010721Y005221D02*
X011120Y005221D01*
X011514Y005221D02*
X011912Y005221D01*
X012306Y005221D02*
X012704Y005221D01*
X013098Y005221D02*
X013497Y005221D01*
X013891Y005221D02*
X014289Y005221D01*
X014683Y005221D02*
X015081Y005221D01*
X015475Y005221D02*
X015874Y005221D01*
X016267Y005221D02*
X016666Y005221D01*
X017060Y005221D02*
X017458Y005221D01*
X017852Y005221D02*
X018251Y005221D01*
X018644Y005221D02*
X019043Y005221D01*
X019437Y005221D02*
X019835Y005221D01*
X020229Y005221D02*
X020628Y005221D01*
X021021Y005221D02*
X021420Y005221D01*
X021814Y005221D02*
X022212Y005221D01*
X022606Y005221D02*
X023005Y005221D01*
X023006Y005221D02*
X023006Y005629D01*
X023006Y006023D02*
X023006Y006431D01*
X023006Y006825D02*
X023006Y007233D01*
X023006Y007627D02*
X023006Y008035D01*
X023006Y008429D02*
X023006Y008837D01*
X023006Y009231D02*
X023006Y009639D01*
X023006Y010033D02*
X023006Y010441D01*
X023006Y010835D02*
X023006Y011243D01*
X023006Y011637D02*
X023006Y012045D01*
X023006Y012439D02*
X023006Y012847D01*
X023006Y013240D02*
X023006Y013649D01*
X023006Y014042D02*
X023006Y014451D01*
X023006Y014844D02*
X023006Y015253D01*
X023006Y015646D02*
X023006Y016055D01*
X023006Y016448D02*
X023006Y016857D01*
X023006Y017250D02*
X023006Y017659D01*
X023006Y018052D02*
X023006Y018461D01*
X022607Y018461D01*
X022213Y018461D02*
X021815Y018461D01*
X021421Y018461D02*
X021022Y018461D01*
X020629Y018461D02*
X020230Y018461D01*
X019836Y018461D02*
X019438Y018461D01*
X019044Y018461D02*
X018645Y018461D01*
X018252Y018461D02*
X017853Y018461D01*
X017459Y018461D02*
X017061Y018461D01*
X016667Y018461D02*
X016268Y018461D01*
X015875Y018461D02*
X015476Y018461D01*
X015082Y018461D02*
X014684Y018461D01*
X014290Y018461D02*
X013891Y018461D01*
X013498Y018461D02*
X013099Y018461D01*
X012705Y018461D02*
X012307Y018461D01*
X011913Y018461D02*
X011515Y018461D01*
X011121Y018461D02*
X010722Y018461D01*
X010329Y018461D02*
X009930Y018461D01*
X009536Y018461D02*
X009138Y018461D01*
X008744Y018461D02*
X008345Y018461D01*
X007952Y018461D02*
X007553Y018461D01*
X007159Y018461D02*
X006761Y018461D01*
X006367Y018461D02*
X005968Y018461D01*
X005575Y018461D02*
X005176Y018461D01*
X004782Y018461D02*
X004384Y018461D01*
X003990Y018461D02*
X003591Y018461D01*
X003198Y018461D02*
X002799Y018461D01*
X002405Y018461D02*
X002007Y018461D01*
X002006Y018461D02*
X002006Y018053D01*
X002006Y017659D02*
X002006Y017251D01*
X002006Y016857D02*
X002006Y016449D01*
X002006Y016055D02*
X002006Y015647D01*
X002006Y015253D02*
X002006Y014845D01*
X002006Y014451D02*
X002006Y014043D01*
X002006Y013649D02*
X002006Y013241D01*
X002006Y012847D02*
X002006Y012439D01*
X002006Y012045D02*
X002006Y011637D01*
X002006Y011243D02*
X002006Y010835D01*
X002006Y010441D02*
X002006Y010033D01*
X002006Y009639D02*
X002006Y009231D01*
X002006Y008837D02*
X002006Y008429D01*
X002006Y008035D02*
X002006Y007627D01*
X002006Y007233D02*
X002006Y006825D01*
X002006Y006431D02*
X002006Y006023D01*
X002006Y005629D02*
X002006Y005221D01*
D11*
X002239Y007921D02*
X002241Y007951D01*
X002247Y007980D01*
X002257Y008007D01*
X002271Y008034D01*
X002288Y008058D01*
X002308Y008080D01*
X002331Y008098D01*
X002356Y008114D01*
X002383Y008125D01*
X002412Y008133D01*
X002441Y008137D01*
X002471Y008137D01*
X002500Y008133D01*
X002529Y008125D01*
X002556Y008114D01*
X002581Y008098D01*
X002604Y008080D01*
X002624Y008058D01*
X002641Y008034D01*
X002655Y008007D01*
X002665Y007980D01*
X002671Y007951D01*
X002673Y007921D01*
X002671Y007891D01*
X002665Y007862D01*
X002655Y007835D01*
X002641Y007808D01*
X002624Y007784D01*
X002604Y007762D01*
X002581Y007744D01*
X002556Y007728D01*
X002529Y007717D01*
X002500Y007709D01*
X002471Y007705D01*
X002441Y007705D01*
X002412Y007709D01*
X002383Y007717D01*
X002356Y007728D01*
X002331Y007744D01*
X002308Y007762D01*
X002288Y007784D01*
X002271Y007808D01*
X002257Y007835D01*
X002247Y007862D01*
X002241Y007891D01*
X002239Y007921D01*
X002239Y008921D02*
X002241Y008951D01*
X002247Y008980D01*
X002257Y009007D01*
X002271Y009034D01*
X002288Y009058D01*
X002308Y009080D01*
X002331Y009098D01*
X002356Y009114D01*
X002383Y009125D01*
X002412Y009133D01*
X002441Y009137D01*
X002471Y009137D01*
X002500Y009133D01*
X002529Y009125D01*
X002556Y009114D01*
X002581Y009098D01*
X002604Y009080D01*
X002624Y009058D01*
X002641Y009034D01*
X002655Y009007D01*
X002665Y008980D01*
X002671Y008951D01*
X002673Y008921D01*
X002671Y008891D01*
X002665Y008862D01*
X002655Y008835D01*
X002641Y008808D01*
X002624Y008784D01*
X002604Y008762D01*
X002581Y008744D01*
X002556Y008728D01*
X002529Y008717D01*
X002500Y008709D01*
X002471Y008705D01*
X002441Y008705D01*
X002412Y008709D01*
X002383Y008717D01*
X002356Y008728D01*
X002331Y008744D01*
X002308Y008762D01*
X002288Y008784D01*
X002271Y008808D01*
X002257Y008835D01*
X002247Y008862D01*
X002241Y008891D01*
X002239Y008921D01*
X002575Y011121D02*
X002577Y011169D01*
X002584Y011217D01*
X002595Y011264D01*
X002610Y011310D01*
X002629Y011354D01*
X002652Y011397D01*
X002679Y011437D01*
X002710Y011475D01*
X002744Y011509D01*
X002780Y011540D01*
X002820Y011568D01*
X002862Y011592D01*
X002906Y011613D01*
X002951Y011629D01*
X002998Y011641D01*
X003046Y011649D01*
X003094Y011652D01*
X003142Y011651D01*
X003190Y011645D01*
X003238Y011635D01*
X003284Y011621D01*
X003329Y011603D01*
X003371Y011581D01*
X003412Y011555D01*
X003450Y011525D01*
X003486Y011492D01*
X003518Y011456D01*
X003547Y011417D01*
X003572Y011376D01*
X003593Y011333D01*
X003610Y011287D01*
X003623Y011241D01*
X003632Y011193D01*
X003636Y011145D01*
X003636Y011097D01*
X003632Y011049D01*
X003623Y011001D01*
X003610Y010955D01*
X003593Y010909D01*
X003572Y010866D01*
X003547Y010825D01*
X003518Y010786D01*
X003486Y010750D01*
X003450Y010717D01*
X003412Y010687D01*
X003372Y010661D01*
X003329Y010639D01*
X003284Y010621D01*
X003238Y010607D01*
X003190Y010597D01*
X003142Y010591D01*
X003094Y010590D01*
X003046Y010593D01*
X002998Y010601D01*
X002951Y010613D01*
X002906Y010629D01*
X002862Y010650D01*
X002820Y010674D01*
X002780Y010702D01*
X002744Y010733D01*
X002710Y010767D01*
X002679Y010805D01*
X002652Y010845D01*
X002629Y010888D01*
X002610Y010932D01*
X002595Y010978D01*
X002584Y011025D01*
X002577Y011073D01*
X002575Y011121D01*
X005539Y017971D02*
X005541Y018001D01*
X005547Y018030D01*
X005557Y018057D01*
X005571Y018084D01*
X005588Y018108D01*
X005608Y018130D01*
X005631Y018148D01*
X005656Y018164D01*
X005683Y018175D01*
X005712Y018183D01*
X005741Y018187D01*
X005771Y018187D01*
X005800Y018183D01*
X005829Y018175D01*
X005856Y018164D01*
X005881Y018148D01*
X005904Y018130D01*
X005924Y018108D01*
X005941Y018084D01*
X005955Y018057D01*
X005965Y018030D01*
X005971Y018001D01*
X005973Y017971D01*
X005971Y017941D01*
X005965Y017912D01*
X005955Y017885D01*
X005941Y017858D01*
X005924Y017834D01*
X005904Y017812D01*
X005881Y017794D01*
X005856Y017778D01*
X005829Y017767D01*
X005800Y017759D01*
X005771Y017755D01*
X005741Y017755D01*
X005712Y017759D01*
X005683Y017767D01*
X005656Y017778D01*
X005631Y017794D01*
X005608Y017812D01*
X005588Y017834D01*
X005571Y017858D01*
X005557Y017885D01*
X005547Y017912D01*
X005541Y017941D01*
X005539Y017971D01*
X006539Y017971D02*
X006541Y018001D01*
X006547Y018030D01*
X006557Y018057D01*
X006571Y018084D01*
X006588Y018108D01*
X006608Y018130D01*
X006631Y018148D01*
X006656Y018164D01*
X006683Y018175D01*
X006712Y018183D01*
X006741Y018187D01*
X006771Y018187D01*
X006800Y018183D01*
X006829Y018175D01*
X006856Y018164D01*
X006881Y018148D01*
X006904Y018130D01*
X006924Y018108D01*
X006941Y018084D01*
X006955Y018057D01*
X006965Y018030D01*
X006971Y018001D01*
X006973Y017971D01*
X006971Y017941D01*
X006965Y017912D01*
X006955Y017885D01*
X006941Y017858D01*
X006924Y017834D01*
X006904Y017812D01*
X006881Y017794D01*
X006856Y017778D01*
X006829Y017767D01*
X006800Y017759D01*
X006771Y017755D01*
X006741Y017755D01*
X006712Y017759D01*
X006683Y017767D01*
X006656Y017778D01*
X006631Y017794D01*
X006608Y017812D01*
X006588Y017834D01*
X006571Y017858D01*
X006557Y017885D01*
X006547Y017912D01*
X006541Y017941D01*
X006539Y017971D01*
X010789Y017971D02*
X010791Y018001D01*
X010797Y018030D01*
X010807Y018057D01*
X010821Y018084D01*
X010838Y018108D01*
X010858Y018130D01*
X010881Y018148D01*
X010906Y018164D01*
X010933Y018175D01*
X010962Y018183D01*
X010991Y018187D01*
X011021Y018187D01*
X011050Y018183D01*
X011079Y018175D01*
X011106Y018164D01*
X011131Y018148D01*
X011154Y018130D01*
X011174Y018108D01*
X011191Y018084D01*
X011205Y018057D01*
X011215Y018030D01*
X011221Y018001D01*
X011223Y017971D01*
X011221Y017941D01*
X011215Y017912D01*
X011205Y017885D01*
X011191Y017858D01*
X011174Y017834D01*
X011154Y017812D01*
X011131Y017794D01*
X011106Y017778D01*
X011079Y017767D01*
X011050Y017759D01*
X011021Y017755D01*
X010991Y017755D01*
X010962Y017759D01*
X010933Y017767D01*
X010906Y017778D01*
X010881Y017794D01*
X010858Y017812D01*
X010838Y017834D01*
X010821Y017858D01*
X010807Y017885D01*
X010797Y017912D01*
X010791Y017941D01*
X010789Y017971D01*
X011789Y017971D02*
X011791Y018001D01*
X011797Y018030D01*
X011807Y018057D01*
X011821Y018084D01*
X011838Y018108D01*
X011858Y018130D01*
X011881Y018148D01*
X011906Y018164D01*
X011933Y018175D01*
X011962Y018183D01*
X011991Y018187D01*
X012021Y018187D01*
X012050Y018183D01*
X012079Y018175D01*
X012106Y018164D01*
X012131Y018148D01*
X012154Y018130D01*
X012174Y018108D01*
X012191Y018084D01*
X012205Y018057D01*
X012215Y018030D01*
X012221Y018001D01*
X012223Y017971D01*
X012221Y017941D01*
X012215Y017912D01*
X012205Y017885D01*
X012191Y017858D01*
X012174Y017834D01*
X012154Y017812D01*
X012131Y017794D01*
X012106Y017778D01*
X012079Y017767D01*
X012050Y017759D01*
X012021Y017755D01*
X011991Y017755D01*
X011962Y017759D01*
X011933Y017767D01*
X011906Y017778D01*
X011881Y017794D01*
X011858Y017812D01*
X011838Y017834D01*
X011821Y017858D01*
X011807Y017885D01*
X011797Y017912D01*
X011791Y017941D01*
X011789Y017971D01*
X015939Y017971D02*
X015941Y018001D01*
X015947Y018030D01*
X015957Y018057D01*
X015971Y018084D01*
X015988Y018108D01*
X016008Y018130D01*
X016031Y018148D01*
X016056Y018164D01*
X016083Y018175D01*
X016112Y018183D01*
X016141Y018187D01*
X016171Y018187D01*
X016200Y018183D01*
X016229Y018175D01*
X016256Y018164D01*
X016281Y018148D01*
X016304Y018130D01*
X016324Y018108D01*
X016341Y018084D01*
X016355Y018057D01*
X016365Y018030D01*
X016371Y018001D01*
X016373Y017971D01*
X016371Y017941D01*
X016365Y017912D01*
X016355Y017885D01*
X016341Y017858D01*
X016324Y017834D01*
X016304Y017812D01*
X016281Y017794D01*
X016256Y017778D01*
X016229Y017767D01*
X016200Y017759D01*
X016171Y017755D01*
X016141Y017755D01*
X016112Y017759D01*
X016083Y017767D01*
X016056Y017778D01*
X016031Y017794D01*
X016008Y017812D01*
X015988Y017834D01*
X015971Y017858D01*
X015957Y017885D01*
X015947Y017912D01*
X015941Y017941D01*
X015939Y017971D01*
X016939Y017971D02*
X016941Y018001D01*
X016947Y018030D01*
X016957Y018057D01*
X016971Y018084D01*
X016988Y018108D01*
X017008Y018130D01*
X017031Y018148D01*
X017056Y018164D01*
X017083Y018175D01*
X017112Y018183D01*
X017141Y018187D01*
X017171Y018187D01*
X017200Y018183D01*
X017229Y018175D01*
X017256Y018164D01*
X017281Y018148D01*
X017304Y018130D01*
X017324Y018108D01*
X017341Y018084D01*
X017355Y018057D01*
X017365Y018030D01*
X017371Y018001D01*
X017373Y017971D01*
X017371Y017941D01*
X017365Y017912D01*
X017355Y017885D01*
X017341Y017858D01*
X017324Y017834D01*
X017304Y017812D01*
X017281Y017794D01*
X017256Y017778D01*
X017229Y017767D01*
X017200Y017759D01*
X017171Y017755D01*
X017141Y017755D01*
X017112Y017759D01*
X017083Y017767D01*
X017056Y017778D01*
X017031Y017794D01*
X017008Y017812D01*
X016988Y017834D01*
X016971Y017858D01*
X016957Y017885D01*
X016947Y017912D01*
X016941Y017941D01*
X016939Y017971D01*
X021089Y017971D02*
X021091Y018001D01*
X021097Y018030D01*
X021107Y018057D01*
X021121Y018084D01*
X021138Y018108D01*
X021158Y018130D01*
X021181Y018148D01*
X021206Y018164D01*
X021233Y018175D01*
X021262Y018183D01*
X021291Y018187D01*
X021321Y018187D01*
X021350Y018183D01*
X021379Y018175D01*
X021406Y018164D01*
X021431Y018148D01*
X021454Y018130D01*
X021474Y018108D01*
X021491Y018084D01*
X021505Y018057D01*
X021515Y018030D01*
X021521Y018001D01*
X021523Y017971D01*
X021521Y017941D01*
X021515Y017912D01*
X021505Y017885D01*
X021491Y017858D01*
X021474Y017834D01*
X021454Y017812D01*
X021431Y017794D01*
X021406Y017778D01*
X021379Y017767D01*
X021350Y017759D01*
X021321Y017755D01*
X021291Y017755D01*
X021262Y017759D01*
X021233Y017767D01*
X021206Y017778D01*
X021181Y017794D01*
X021158Y017812D01*
X021138Y017834D01*
X021121Y017858D01*
X021107Y017885D01*
X021097Y017912D01*
X021091Y017941D01*
X021089Y017971D01*
X022089Y017971D02*
X022091Y018001D01*
X022097Y018030D01*
X022107Y018057D01*
X022121Y018084D01*
X022138Y018108D01*
X022158Y018130D01*
X022181Y018148D01*
X022206Y018164D01*
X022233Y018175D01*
X022262Y018183D01*
X022291Y018187D01*
X022321Y018187D01*
X022350Y018183D01*
X022379Y018175D01*
X022406Y018164D01*
X022431Y018148D01*
X022454Y018130D01*
X022474Y018108D01*
X022491Y018084D01*
X022505Y018057D01*
X022515Y018030D01*
X022521Y018001D01*
X022523Y017971D01*
X022521Y017941D01*
X022515Y017912D01*
X022505Y017885D01*
X022491Y017858D01*
X022474Y017834D01*
X022454Y017812D01*
X022431Y017794D01*
X022406Y017778D01*
X022379Y017767D01*
X022350Y017759D01*
X022321Y017755D01*
X022291Y017755D01*
X022262Y017759D01*
X022233Y017767D01*
X022206Y017778D01*
X022181Y017794D01*
X022158Y017812D01*
X022138Y017834D01*
X022121Y017858D01*
X022107Y017885D01*
X022097Y017912D01*
X022091Y017941D01*
X022089Y017971D01*
X021375Y011121D02*
X021377Y011169D01*
X021384Y011217D01*
X021395Y011264D01*
X021410Y011310D01*
X021429Y011354D01*
X021452Y011397D01*
X021479Y011437D01*
X021510Y011475D01*
X021544Y011509D01*
X021580Y011540D01*
X021620Y011568D01*
X021662Y011592D01*
X021706Y011613D01*
X021751Y011629D01*
X021798Y011641D01*
X021846Y011649D01*
X021894Y011652D01*
X021942Y011651D01*
X021990Y011645D01*
X022038Y011635D01*
X022084Y011621D01*
X022129Y011603D01*
X022171Y011581D01*
X022212Y011555D01*
X022250Y011525D01*
X022286Y011492D01*
X022318Y011456D01*
X022347Y011417D01*
X022372Y011376D01*
X022393Y011333D01*
X022410Y011287D01*
X022423Y011241D01*
X022432Y011193D01*
X022436Y011145D01*
X022436Y011097D01*
X022432Y011049D01*
X022423Y011001D01*
X022410Y010955D01*
X022393Y010909D01*
X022372Y010866D01*
X022347Y010825D01*
X022318Y010786D01*
X022286Y010750D01*
X022250Y010717D01*
X022212Y010687D01*
X022172Y010661D01*
X022129Y010639D01*
X022084Y010621D01*
X022038Y010607D01*
X021990Y010597D01*
X021942Y010591D01*
X021894Y010590D01*
X021846Y010593D01*
X021798Y010601D01*
X021751Y010613D01*
X021706Y010629D01*
X021662Y010650D01*
X021620Y010674D01*
X021580Y010702D01*
X021544Y010733D01*
X021510Y010767D01*
X021479Y010805D01*
X021452Y010845D01*
X021429Y010888D01*
X021410Y010932D01*
X021395Y010978D01*
X021384Y011025D01*
X021377Y011073D01*
X021375Y011121D01*
D12*
X023966Y008668D02*
X024179Y008668D01*
X024072Y008775D02*
X024072Y008348D01*
X024179Y008241D01*
X024395Y008348D02*
X024395Y008561D01*
X024502Y008668D01*
X024716Y008668D01*
X024822Y008561D01*
X024822Y008348D01*
X024716Y008241D01*
X024502Y008241D01*
X024395Y008348D01*
X025040Y008241D02*
X025360Y008241D01*
X025467Y008348D01*
X025467Y008561D01*
X025360Y008668D01*
X025040Y008668D01*
X025040Y008027D01*
D13*
X022506Y005721D03*
X021506Y005721D03*
X020506Y005721D03*
X019506Y005721D03*
X018506Y005721D03*
X017506Y005721D03*
X016506Y005721D03*
X015506Y005721D03*
X014506Y005721D03*
X013506Y005721D03*
X012506Y005721D03*
X011506Y005721D03*
X010506Y005721D03*
X009506Y005721D03*
X008506Y005721D03*
X007506Y005721D03*
X006506Y005721D03*
X005506Y005721D03*
X004506Y005721D03*
X003506Y005721D03*
X002506Y005721D03*
D14*
X005876Y011711D03*
X005876Y012621D03*
X005876Y013531D03*
X010876Y013381D03*
X010876Y012471D03*
X010876Y011561D03*
X016026Y011561D03*
X016026Y012471D03*
X016026Y013381D03*
X020976Y013731D03*
X020976Y012821D03*
X020976Y011911D03*
D15*
X018536Y012821D03*
X013586Y012471D03*
X008436Y012471D03*
X003436Y012621D03*
D16*
X006856Y012631D03*
X006856Y011511D03*
X011856Y011361D03*
X011856Y012481D03*
X017006Y012531D03*
X017006Y011411D03*
X022156Y012311D03*
X022156Y013431D03*
D17*
X019256Y014814D03*
X019256Y017727D03*
X014106Y017727D03*
X014106Y014814D03*
X008906Y014814D03*
X008906Y017727D03*
X003656Y017727D03*
X003656Y014814D03*
D18*
X005756Y016971D03*
X006756Y016971D03*
X011006Y016971D03*
X012006Y016971D03*
X016156Y016971D03*
X017156Y016971D03*
X021306Y016971D03*
X022306Y016971D03*
X003456Y008921D03*
X003456Y007921D03*
D19*
X006771Y010421D03*
X007440Y010421D03*
X011771Y010471D03*
X012440Y010471D03*
X016821Y010521D03*
X017490Y010521D03*
X020771Y009821D03*
X021440Y009821D03*
X020990Y007471D03*
X020321Y007471D03*
X013490Y007021D03*
X012821Y007021D03*
D20*
X011190Y007321D03*
X010521Y007321D03*
X010521Y008121D03*
X011190Y008121D03*
X011190Y009021D03*
X010521Y009021D03*
X010521Y009821D03*
X011190Y009821D03*
X009590Y010721D03*
X008921Y010721D03*
X007390Y013271D03*
X006721Y013271D03*
X004940Y010721D03*
X004271Y010721D03*
X011721Y013121D03*
X012390Y013121D03*
X013421Y010671D03*
X014090Y010671D03*
X015971Y009471D03*
X016640Y009471D03*
X016390Y008871D03*
X015721Y008871D03*
X015721Y008271D03*
X016390Y008271D03*
X016640Y007671D03*
X015971Y007671D03*
X020771Y009121D03*
X021440Y009121D03*
X021671Y007471D03*
X022340Y007471D03*
X022340Y006721D03*
X021671Y006721D03*
X020090Y011021D03*
X019421Y011021D03*
X017490Y013221D03*
X016821Y013221D03*
D21*
X017246Y015021D03*
X016104Y015021D03*
X012096Y015021D03*
X010954Y015021D03*
X006846Y015021D03*
X005704Y015021D03*
X021254Y015021D03*
X022396Y015021D03*
D22*
X014447Y009309D03*
X014447Y009053D03*
X014447Y008797D03*
X014447Y008541D03*
X014447Y008285D03*
X014447Y008029D03*
X014447Y007774D03*
X012164Y007774D03*
X012164Y008029D03*
X012164Y008285D03*
X012164Y008541D03*
X012164Y008797D03*
X012164Y009053D03*
X012164Y009309D03*
D23*
X008362Y008271D03*
X005449Y008271D03*
D24*
X006180Y008303D02*
X007093Y008303D01*
X007211Y008184D02*
X006180Y008184D01*
X006180Y008066D02*
X007631Y008066D01*
X007631Y008081D02*
X007631Y007448D01*
X007737Y007343D01*
X008988Y007343D01*
X009094Y007448D01*
X009094Y009093D01*
X008988Y009199D01*
X007737Y009199D01*
X007631Y009093D01*
X007631Y008761D01*
X007596Y008761D01*
X006596Y009762D01*
X006396Y009961D01*
X004725Y009961D01*
X004585Y010019D01*
X004426Y010019D01*
X004286Y009961D01*
X002896Y009961D01*
X002646Y010212D01*
X002646Y010575D01*
X002703Y010518D01*
X002964Y010409D01*
X003247Y010409D01*
X003509Y010518D01*
X003709Y010718D01*
X003817Y010979D01*
X003817Y011262D01*
X003709Y011524D01*
X003509Y011724D01*
X003489Y011732D01*
X003943Y011732D01*
X004049Y011838D01*
X004049Y012281D01*
X005281Y012281D01*
X005361Y012201D01*
X006361Y012201D01*
X006426Y012136D01*
X007166Y012136D01*
X007166Y011986D01*
X006916Y011986D01*
X006916Y011571D01*
X006796Y011571D01*
X006796Y011986D01*
X006496Y011986D01*
X006496Y012025D01*
X006390Y012131D01*
X005361Y012131D01*
X005256Y012025D01*
X005256Y011911D01*
X005056Y011911D01*
X005014Y011869D01*
X004876Y011869D01*
X004730Y011808D01*
X004618Y011696D01*
X004558Y011550D01*
X004558Y011392D01*
X004618Y011245D01*
X004716Y011148D01*
X004716Y011101D01*
X004671Y011101D01*
X004591Y011021D01*
X004532Y011081D01*
X004309Y011081D01*
X004309Y010759D01*
X004233Y010759D01*
X004233Y011081D01*
X004010Y011081D01*
X003916Y010987D01*
X003916Y010758D01*
X004233Y010758D01*
X004233Y010683D01*
X003916Y010683D01*
X003916Y010454D01*
X004010Y010361D01*
X004233Y010361D01*
X004233Y010683D01*
X004309Y010683D01*
X004309Y010361D01*
X004532Y010361D01*
X004591Y010420D01*
X004671Y010341D01*
X005210Y010341D01*
X005315Y010446D01*
X005315Y010995D01*
X005210Y011101D01*
X005196Y011101D01*
X005196Y011148D01*
X006341Y011148D01*
X006341Y011130D02*
X006434Y011036D01*
X006796Y011036D01*
X006796Y011451D01*
X006916Y011451D01*
X006916Y011036D01*
X007166Y011036D01*
X007166Y010794D01*
X007091Y010720D01*
X007034Y010778D01*
X006809Y010778D01*
X006809Y010459D01*
X006733Y010459D01*
X006733Y010778D01*
X006508Y010778D01*
X006414Y010684D01*
X006414Y010459D01*
X006732Y010459D01*
X006732Y010382D01*
X006414Y010382D01*
X006414Y010158D01*
X006508Y010064D01*
X006733Y010064D01*
X006733Y010382D01*
X006809Y010382D01*
X006809Y010064D01*
X007034Y010064D01*
X007091Y010121D01*
X007169Y010044D01*
X007712Y010044D01*
X007799Y010131D01*
X007856Y010131D01*
X008466Y009521D01*
X008606Y009381D01*
X009056Y009381D01*
X010106Y008331D01*
X010166Y008331D01*
X010166Y008158D01*
X010483Y008158D01*
X010483Y008083D01*
X010166Y008083D01*
X010166Y007854D01*
X010260Y007761D01*
X010366Y007761D01*
X010366Y007701D01*
X010251Y007701D01*
X010146Y007595D01*
X010146Y007046D01*
X010251Y006941D01*
X010791Y006941D01*
X010856Y007006D01*
X010921Y006941D01*
X011460Y006941D01*
X011565Y007046D01*
X011565Y007181D01*
X011705Y007181D01*
X012049Y007525D01*
X012475Y007525D01*
X012481Y007531D01*
X012533Y007531D01*
X012580Y007483D01*
X012726Y007423D01*
X012885Y007423D01*
X013031Y007483D01*
X013143Y007595D01*
X013204Y007742D01*
X013204Y007900D01*
X013143Y008046D01*
X013031Y008158D01*
X012885Y008219D01*
X012726Y008219D01*
X012580Y008158D01*
X012580Y008173D01*
X012580Y008429D01*
X012560Y008449D01*
X012560Y008541D01*
X012164Y008541D01*
X012164Y008541D01*
X012560Y008541D01*
X012560Y008557D01*
X012581Y008557D01*
X012705Y008681D01*
X012846Y008821D01*
X012846Y009471D01*
X012846Y009670D01*
X012646Y009870D01*
X012646Y010094D01*
X012712Y010094D01*
X012817Y010199D01*
X012817Y010742D01*
X012712Y010848D01*
X012646Y010848D01*
X012646Y012741D01*
X012660Y012741D01*
X012765Y012846D01*
X012765Y013395D01*
X012660Y013501D01*
X012121Y013501D01*
X012056Y013436D01*
X011991Y013501D01*
X011606Y013501D01*
X011496Y013612D01*
X011496Y013695D01*
X011390Y013801D01*
X010361Y013801D01*
X010256Y013695D01*
X010256Y013066D01*
X010361Y012961D01*
X011185Y012961D01*
X011255Y012891D01*
X010361Y012891D01*
X010281Y012811D01*
X009049Y012811D01*
X009049Y013254D01*
X008996Y013306D01*
X009142Y013367D01*
X009260Y013484D01*
X009323Y013638D01*
X009323Y013804D01*
X009260Y013957D01*
X009246Y013972D01*
X009246Y014083D01*
X009728Y014083D01*
X009834Y014188D01*
X009834Y015440D01*
X009728Y015545D01*
X008083Y015545D01*
X007978Y015440D01*
X007978Y014188D01*
X008083Y014083D01*
X008566Y014083D01*
X008566Y013972D01*
X008551Y013957D01*
X008488Y013804D01*
X008488Y013784D01*
X008116Y013412D01*
X008116Y013359D01*
X007928Y013359D01*
X007823Y013254D01*
X007823Y011688D01*
X007928Y011582D01*
X008943Y011582D01*
X009049Y011688D01*
X009049Y012131D01*
X010281Y012131D01*
X010361Y012051D01*
X011361Y012051D01*
X011426Y011986D01*
X012166Y011986D01*
X012166Y011836D01*
X011916Y011836D01*
X011916Y011421D01*
X011796Y011421D01*
X011796Y011836D01*
X011496Y011836D01*
X011496Y011875D01*
X011390Y011981D01*
X010361Y011981D01*
X010256Y011875D01*
X010256Y011360D01*
X010164Y011269D01*
X010026Y011269D01*
X009880Y011208D01*
X009783Y011111D01*
X009656Y011111D01*
X009646Y011101D01*
X009321Y011101D01*
X009241Y011021D01*
X009182Y011081D01*
X008959Y011081D01*
X008959Y010759D01*
X008883Y010759D01*
X008883Y011081D01*
X008660Y011081D01*
X008566Y010987D01*
X008566Y010758D01*
X008883Y010758D01*
X008883Y010683D01*
X008566Y010683D01*
X008566Y010454D01*
X008660Y010361D01*
X008883Y010361D01*
X008883Y010683D01*
X008959Y010683D01*
X008959Y010361D01*
X009182Y010361D01*
X009241Y010420D01*
X009321Y010341D01*
X009860Y010341D01*
X009965Y010446D01*
X009965Y010498D01*
X010026Y010473D01*
X010185Y010473D01*
X010331Y010533D01*
X010443Y010645D01*
X010504Y010792D01*
X011473Y010792D01*
X011508Y010828D02*
X011414Y010734D01*
X011414Y010509D01*
X011732Y010509D01*
X011732Y010432D01*
X011414Y010432D01*
X011414Y010208D01*
X011421Y010201D01*
X010921Y010201D01*
X010856Y010136D01*
X010791Y010201D01*
X010251Y010201D01*
X010146Y010095D01*
X010146Y009546D01*
X010251Y009441D01*
X010266Y009441D01*
X010266Y009381D01*
X010260Y009381D01*
X010166Y009287D01*
X010166Y009058D01*
X010483Y009058D01*
X010483Y008983D01*
X010166Y008983D01*
X010166Y008950D01*
X009255Y009861D01*
X009056Y009861D01*
X008805Y009861D01*
X008055Y010611D01*
X007856Y010611D01*
X007817Y010611D01*
X007817Y010692D01*
X007712Y010798D01*
X007646Y010798D01*
X007646Y012721D01*
X007646Y012891D01*
X007660Y012891D01*
X007765Y012996D01*
X007765Y013545D01*
X007660Y013651D01*
X007121Y013651D01*
X007056Y013586D01*
X006991Y013651D01*
X006706Y013651D01*
X006496Y013861D01*
X006480Y013861D01*
X006390Y013951D01*
X005361Y013951D01*
X005256Y013845D01*
X005256Y013216D01*
X005361Y013111D01*
X006285Y013111D01*
X006346Y013050D01*
X006346Y013045D01*
X006341Y013041D01*
X005361Y013041D01*
X005281Y012961D01*
X004226Y012961D01*
X004369Y013103D01*
X004389Y013103D01*
X004542Y013167D01*
X004660Y013284D01*
X004723Y013438D01*
X004723Y013604D01*
X004660Y013757D01*
X004542Y013875D01*
X004389Y013939D01*
X004369Y013939D01*
X004224Y014083D01*
X004478Y014083D01*
X004584Y014188D01*
X004584Y015440D01*
X004478Y015545D01*
X002833Y015545D01*
X002728Y015440D01*
X002728Y014188D01*
X002833Y014083D01*
X003316Y014083D01*
X003316Y014030D01*
X003825Y013521D01*
X003814Y013509D01*
X002928Y013509D01*
X002823Y013404D01*
X002823Y011838D01*
X002868Y011792D01*
X002703Y011724D01*
X002646Y011667D01*
X002646Y015891D01*
X005416Y015891D01*
X005416Y015732D01*
X005354Y015732D01*
X005249Y015627D01*
X005249Y014415D01*
X005354Y014309D01*
X006055Y014309D01*
X006160Y014415D01*
X006160Y015627D01*
X006096Y015691D01*
X006096Y015891D01*
X006416Y015891D01*
X006416Y015652D01*
X006391Y015627D01*
X006391Y014415D01*
X006466Y014340D01*
X006466Y014330D01*
X006738Y014058D01*
X006738Y014038D01*
X006801Y013884D01*
X006919Y013767D01*
X007073Y013703D01*
X007239Y013703D01*
X007392Y013767D01*
X007510Y013884D01*
X007573Y014038D01*
X007573Y014204D01*
X007510Y014357D01*
X007392Y014475D01*
X007302Y014512D01*
X007302Y015627D01*
X007196Y015732D01*
X007096Y015732D01*
X007096Y015891D01*
X010666Y015891D01*
X010666Y015732D01*
X010604Y015732D01*
X010499Y015627D01*
X010499Y014415D01*
X010604Y014309D01*
X011305Y014309D01*
X011410Y014415D01*
X011410Y015627D01*
X011346Y015691D01*
X011346Y015891D01*
X011666Y015891D01*
X011666Y015652D01*
X011641Y015627D01*
X011641Y014415D01*
X011746Y014309D01*
X011756Y014309D01*
X011756Y014239D01*
X011938Y014058D01*
X011938Y014038D01*
X012001Y013884D01*
X012119Y013767D01*
X012273Y013703D01*
X012439Y013703D01*
X012592Y013767D01*
X012710Y013884D01*
X012773Y014038D01*
X012773Y014204D01*
X012710Y014357D01*
X012592Y014475D01*
X012552Y014492D01*
X012552Y015627D01*
X012446Y015732D01*
X012346Y015732D01*
X012346Y015891D01*
X015816Y015891D01*
X015816Y015732D01*
X015754Y015732D01*
X015649Y015627D01*
X015649Y014415D01*
X015754Y014309D01*
X016455Y014309D01*
X016560Y014415D01*
X016560Y015627D01*
X016496Y015691D01*
X016496Y015891D01*
X016816Y015891D01*
X016816Y015652D01*
X016791Y015627D01*
X016791Y014415D01*
X016866Y014340D01*
X016866Y014230D01*
X015034Y014230D01*
X015034Y014188D02*
X015034Y015440D01*
X014928Y015545D01*
X013283Y015545D01*
X013178Y015440D01*
X013178Y014188D01*
X013283Y014083D01*
X013721Y014083D01*
X013688Y014004D01*
X013688Y013984D01*
X013316Y013612D01*
X013316Y013359D01*
X013078Y013359D01*
X012973Y013254D01*
X012973Y011688D01*
X013078Y011582D01*
X014093Y011582D01*
X014199Y011688D01*
X014199Y012131D01*
X015431Y012131D01*
X015511Y012051D01*
X016540Y012051D01*
X016551Y012061D01*
X016576Y012036D01*
X017366Y012036D01*
X017366Y011886D01*
X017066Y011886D01*
X017066Y011471D01*
X016946Y011471D01*
X016946Y011886D01*
X016635Y011886D01*
X016540Y011981D01*
X015511Y011981D01*
X015406Y011875D01*
X015406Y011660D01*
X014791Y011046D01*
X014735Y011069D01*
X014576Y011069D01*
X014430Y011008D01*
X014416Y010994D01*
X014360Y011051D01*
X013821Y011051D01*
X013741Y010971D01*
X013682Y011031D01*
X013459Y011031D01*
X013459Y010709D01*
X013383Y010709D01*
X013383Y011031D01*
X013160Y011031D01*
X013066Y010937D01*
X013066Y010708D01*
X013383Y010708D01*
X013383Y010633D01*
X013066Y010633D01*
X013066Y010404D01*
X013160Y010311D01*
X013383Y010311D01*
X013383Y010633D01*
X013459Y010633D01*
X013459Y010311D01*
X013682Y010311D01*
X013741Y010370D01*
X013821Y010291D01*
X014360Y010291D01*
X014416Y010347D01*
X014430Y010333D01*
X014576Y010273D01*
X014735Y010273D01*
X014881Y010333D01*
X014993Y010445D01*
X015054Y010592D01*
X015054Y010629D01*
X015565Y011141D01*
X016491Y011141D01*
X016491Y011030D01*
X016584Y010936D01*
X016946Y010936D01*
X016946Y011351D01*
X017066Y011351D01*
X017066Y010936D01*
X017366Y010936D01*
X017366Y010898D01*
X017219Y010898D01*
X017141Y010820D01*
X017084Y010878D01*
X016859Y010878D01*
X016859Y010559D01*
X016783Y010559D01*
X016783Y010878D01*
X016558Y010878D01*
X016464Y010784D01*
X016464Y010559D01*
X016782Y010559D01*
X016782Y010482D01*
X016464Y010482D01*
X016464Y010361D01*
X015256Y010361D01*
X015116Y010220D01*
X014756Y009861D01*
X013956Y009861D01*
X013816Y009720D01*
X013666Y009570D01*
X013666Y009371D01*
X013666Y008781D01*
X013556Y008781D01*
X013416Y008641D01*
X013416Y007398D01*
X013219Y007398D01*
X013141Y007320D01*
X013084Y007378D01*
X012859Y007378D01*
X012859Y007059D01*
X012783Y007059D01*
X012783Y007378D01*
X012558Y007378D01*
X012464Y007284D01*
X012464Y007059D01*
X012782Y007059D01*
X012782Y006982D01*
X012464Y006982D01*
X012464Y006861D01*
X011806Y006861D01*
X011666Y006720D01*
X011506Y006561D01*
X003656Y006561D01*
X003516Y006420D01*
X003308Y006213D01*
X003205Y006170D01*
X003056Y006021D01*
X002995Y005872D01*
X002938Y006010D01*
X002795Y006153D01*
X002607Y006231D01*
X002544Y006231D01*
X002544Y005759D01*
X002467Y005759D01*
X002467Y006231D01*
X002404Y006231D01*
X002236Y006161D01*
X002236Y007583D01*
X002377Y007524D01*
X002535Y007524D01*
X002680Y007585D01*
X002792Y007696D01*
X002852Y007842D01*
X002852Y008000D01*
X002792Y008145D01*
X002680Y008257D01*
X002535Y008317D01*
X002377Y008317D01*
X002236Y008259D01*
X002236Y008583D01*
X002377Y008524D01*
X002535Y008524D01*
X002680Y008585D01*
X002792Y008696D01*
X002852Y008842D01*
X002852Y009000D01*
X002792Y009145D01*
X002680Y009257D01*
X002623Y009281D01*
X002896Y009281D01*
X003102Y009281D01*
X003028Y009207D01*
X002951Y009021D01*
X002951Y008820D01*
X003028Y008635D01*
X003170Y008493D01*
X003355Y008416D01*
X003556Y008416D01*
X003679Y008467D01*
X003916Y008230D01*
X004115Y008031D01*
X004718Y008031D01*
X004718Y007448D01*
X004823Y007343D01*
X006075Y007343D01*
X006180Y007448D01*
X006180Y009093D01*
X006075Y009199D01*
X004823Y009199D01*
X004718Y009093D01*
X004718Y008711D01*
X004396Y008711D01*
X003846Y009261D01*
X003830Y009261D01*
X003809Y009281D01*
X004286Y009281D01*
X004426Y009223D01*
X004585Y009223D01*
X004725Y009281D01*
X006115Y009281D01*
X007315Y008081D01*
X007596Y008081D01*
X007631Y008081D01*
X007631Y007947D02*
X006180Y007947D01*
X006180Y007829D02*
X007631Y007829D01*
X007631Y007710D02*
X006180Y007710D01*
X006180Y007592D02*
X007631Y007592D01*
X007631Y007473D02*
X006180Y007473D01*
X006086Y007355D02*
X007725Y007355D01*
X009000Y007355D02*
X010146Y007355D01*
X010146Y007473D02*
X009094Y007473D01*
X009094Y007592D02*
X010146Y007592D01*
X010192Y007829D02*
X009094Y007829D01*
X009094Y007947D02*
X010166Y007947D01*
X010166Y008066D02*
X009094Y008066D01*
X009094Y008184D02*
X010166Y008184D01*
X010166Y008303D02*
X009094Y008303D01*
X009094Y008421D02*
X010016Y008421D01*
X009897Y008540D02*
X009094Y008540D01*
X009094Y008659D02*
X009779Y008659D01*
X009660Y008777D02*
X009094Y008777D01*
X009094Y008896D02*
X009541Y008896D01*
X009423Y009014D02*
X009094Y009014D01*
X009054Y009133D02*
X009304Y009133D01*
X009186Y009251D02*
X007106Y009251D01*
X007224Y009133D02*
X007671Y009133D01*
X007631Y009014D02*
X007343Y009014D01*
X007462Y008896D02*
X007631Y008896D01*
X007631Y008777D02*
X007580Y008777D01*
X006974Y008421D02*
X006180Y008421D01*
X006180Y008540D02*
X006856Y008540D01*
X006737Y008659D02*
X006180Y008659D01*
X006180Y008777D02*
X006619Y008777D01*
X006500Y008896D02*
X006180Y008896D01*
X006180Y009014D02*
X006381Y009014D01*
X006263Y009133D02*
X006141Y009133D01*
X006144Y009251D02*
X004654Y009251D01*
X004757Y009133D02*
X003974Y009133D01*
X003856Y009251D02*
X004357Y009251D01*
X004093Y009014D02*
X004718Y009014D01*
X004718Y008896D02*
X004212Y008896D01*
X004330Y008777D02*
X004718Y008777D01*
X004080Y008066D02*
X003920Y008066D01*
X003940Y008017D02*
X003867Y008195D01*
X003730Y008332D01*
X003552Y008406D01*
X003504Y008406D01*
X003504Y007969D01*
X003940Y007969D01*
X003940Y008017D01*
X003940Y007872D02*
X003504Y007872D01*
X003504Y007436D01*
X003552Y007436D01*
X003730Y007510D01*
X003867Y007646D01*
X003940Y007824D01*
X003940Y007872D01*
X003940Y007829D02*
X004718Y007829D01*
X004718Y007947D02*
X003504Y007947D01*
X003504Y007969D02*
X003504Y007872D01*
X003407Y007872D01*
X003407Y007436D01*
X003359Y007436D01*
X003181Y007510D01*
X003045Y007646D01*
X002971Y007824D01*
X002971Y007872D01*
X003407Y007872D01*
X003407Y007969D01*
X002971Y007969D01*
X002971Y008017D01*
X003045Y008195D01*
X003181Y008332D01*
X003359Y008406D01*
X003407Y008406D01*
X003407Y007969D01*
X003504Y007969D01*
X003504Y008066D02*
X003407Y008066D01*
X003407Y008184D02*
X003504Y008184D01*
X003504Y008303D02*
X003407Y008303D01*
X003342Y008421D02*
X002236Y008421D01*
X002236Y008303D02*
X002342Y008303D01*
X002569Y008303D02*
X003152Y008303D01*
X003040Y008184D02*
X002753Y008184D01*
X002825Y008066D02*
X002991Y008066D01*
X002852Y007947D02*
X003407Y007947D01*
X003407Y007829D02*
X003504Y007829D01*
X003504Y007710D02*
X003407Y007710D01*
X003407Y007592D02*
X003504Y007592D01*
X003504Y007473D02*
X003407Y007473D01*
X003270Y007473D02*
X002236Y007473D01*
X002236Y007355D02*
X004811Y007355D01*
X004718Y007473D02*
X003642Y007473D01*
X003812Y007592D02*
X004718Y007592D01*
X004718Y007710D02*
X003893Y007710D01*
X003871Y008184D02*
X003961Y008184D01*
X003843Y008303D02*
X003759Y008303D01*
X003724Y008421D02*
X003569Y008421D01*
X003123Y008540D02*
X002573Y008540D01*
X002754Y008659D02*
X003018Y008659D01*
X002969Y008777D02*
X002825Y008777D01*
X002852Y008896D02*
X002951Y008896D01*
X002951Y009014D02*
X002846Y009014D01*
X002797Y009133D02*
X002997Y009133D01*
X003072Y009251D02*
X002686Y009251D01*
X002895Y009963D02*
X004290Y009963D01*
X004721Y009963D02*
X008025Y009963D01*
X007906Y010081D02*
X007749Y010081D01*
X007956Y010371D02*
X007456Y010371D01*
X007440Y010386D01*
X007440Y010421D01*
X007440Y010436D01*
X007406Y010371D01*
X007406Y010421D01*
X007406Y012821D01*
X007390Y012836D01*
X007390Y013271D01*
X007765Y013282D02*
X007850Y013282D01*
X007823Y013163D02*
X007765Y013163D01*
X007765Y013045D02*
X007823Y013045D01*
X007823Y012926D02*
X007695Y012926D01*
X007646Y012808D02*
X007823Y012808D01*
X007823Y012689D02*
X007646Y012689D01*
X007646Y012570D02*
X007823Y012570D01*
X007823Y012452D02*
X007646Y012452D01*
X007646Y012333D02*
X007823Y012333D01*
X007823Y012215D02*
X007646Y012215D01*
X007646Y012096D02*
X007823Y012096D01*
X007823Y011978D02*
X007646Y011978D01*
X007646Y011859D02*
X007823Y011859D01*
X007823Y011741D02*
X007646Y011741D01*
X007646Y011622D02*
X007888Y011622D01*
X007646Y011504D02*
X010256Y011504D01*
X010256Y011622D02*
X008983Y011622D01*
X009049Y011741D02*
X010256Y011741D01*
X010256Y011859D02*
X009049Y011859D01*
X009049Y011978D02*
X010358Y011978D01*
X010316Y012096D02*
X009049Y012096D01*
X010256Y011385D02*
X007646Y011385D01*
X007646Y011266D02*
X010021Y011266D01*
X009820Y011148D02*
X007646Y011148D01*
X007646Y011029D02*
X008608Y011029D01*
X008566Y010911D02*
X007646Y010911D01*
X007717Y010792D02*
X008566Y010792D01*
X008566Y010674D02*
X007817Y010674D01*
X008111Y010555D02*
X008566Y010555D01*
X008584Y010437D02*
X008229Y010437D01*
X008348Y010318D02*
X011414Y010318D01*
X011414Y010555D02*
X010353Y010555D01*
X010455Y010674D02*
X011414Y010674D01*
X011508Y010828D02*
X011733Y010828D01*
X011733Y010509D01*
X011809Y010509D01*
X011809Y010828D01*
X012034Y010828D01*
X012091Y010770D01*
X012166Y010844D01*
X012166Y010886D01*
X011916Y010886D01*
X011916Y011301D01*
X011796Y011301D01*
X011796Y010886D01*
X011434Y010886D01*
X011341Y010980D01*
X011341Y011141D01*
X010715Y011141D01*
X010504Y010930D01*
X010504Y010792D01*
X010504Y010911D02*
X011410Y010911D01*
X011341Y011029D02*
X010604Y011029D01*
X010106Y010871D02*
X010806Y011571D01*
X010816Y011561D01*
X010876Y011561D01*
X011393Y011978D02*
X012166Y011978D01*
X012166Y011859D02*
X011496Y011859D01*
X011796Y011741D02*
X011916Y011741D01*
X011916Y011622D02*
X011796Y011622D01*
X011796Y011504D02*
X011916Y011504D01*
X011856Y011361D02*
X011756Y011221D01*
X011806Y011271D01*
X011796Y011266D02*
X011916Y011266D01*
X011916Y011148D02*
X011796Y011148D01*
X011796Y011029D02*
X011916Y011029D01*
X011916Y010911D02*
X011796Y010911D01*
X011809Y010792D02*
X011733Y010792D01*
X011733Y010674D02*
X011809Y010674D01*
X011809Y010555D02*
X011733Y010555D01*
X011732Y010437D02*
X009956Y010437D01*
X010250Y010200D02*
X008466Y010200D01*
X008585Y010081D02*
X010146Y010081D01*
X010146Y009963D02*
X008703Y009963D01*
X008706Y009621D02*
X009156Y009621D01*
X010206Y008571D01*
X011456Y008571D01*
X011741Y008285D01*
X012164Y008285D01*
X012164Y008029D02*
X011814Y008029D01*
X011506Y007721D01*
X011206Y007721D01*
X011206Y008105D01*
X011190Y008121D01*
X011206Y007721D02*
X010606Y007721D01*
X010606Y007321D01*
X010521Y007305D01*
X010521Y007321D01*
X010146Y007236D02*
X002236Y007236D01*
X002236Y007117D02*
X010146Y007117D01*
X010193Y006999D02*
X002236Y006999D01*
X002236Y006880D02*
X012464Y006880D01*
X012464Y007117D02*
X011565Y007117D01*
X011518Y006999D02*
X012782Y006999D01*
X012783Y007117D02*
X012859Y007117D01*
X012859Y007236D02*
X012783Y007236D01*
X012783Y007355D02*
X012859Y007355D01*
X013007Y007473D02*
X013416Y007473D01*
X013416Y007592D02*
X013140Y007592D01*
X013191Y007710D02*
X013416Y007710D01*
X013416Y007829D02*
X013204Y007829D01*
X013184Y007947D02*
X013416Y007947D01*
X013416Y008066D02*
X013124Y008066D01*
X012968Y008184D02*
X013416Y008184D01*
X013416Y008303D02*
X012580Y008303D01*
X012580Y008421D02*
X013416Y008421D01*
X013416Y008540D02*
X012560Y008540D01*
X012683Y008659D02*
X013434Y008659D01*
X013552Y008777D02*
X012801Y008777D01*
X012846Y008896D02*
X013666Y008896D01*
X013666Y009014D02*
X012846Y009014D01*
X012846Y009133D02*
X013666Y009133D01*
X013666Y009251D02*
X012846Y009251D01*
X012846Y009370D02*
X013666Y009370D01*
X013666Y009488D02*
X012846Y009488D01*
X012846Y009607D02*
X013702Y009607D01*
X013821Y009725D02*
X012790Y009725D01*
X012672Y009844D02*
X013939Y009844D01*
X014056Y009621D02*
X014856Y009621D01*
X015356Y010121D01*
X017256Y010121D01*
X017856Y009521D01*
X020456Y009521D01*
X020706Y009271D01*
X020706Y009171D01*
X020721Y009171D01*
X020771Y009121D01*
X020396Y009133D02*
X017846Y009133D01*
X017846Y009251D02*
X020386Y009251D01*
X020396Y009241D02*
X020396Y008846D01*
X020501Y008741D01*
X021041Y008741D01*
X021106Y008806D01*
X021171Y008741D01*
X021710Y008741D01*
X021815Y008846D01*
X021815Y008981D01*
X021905Y008981D01*
X022776Y009851D01*
X022776Y006183D01*
X022611Y006251D01*
X022400Y006251D01*
X022205Y006170D01*
X022056Y006021D01*
X022006Y005899D01*
X021955Y006021D01*
X021806Y006170D01*
X021746Y006195D01*
X021746Y006341D01*
X021941Y006341D01*
X022020Y006420D01*
X022079Y006361D01*
X022303Y006361D01*
X022303Y006683D01*
X022378Y006683D01*
X022378Y006361D01*
X022602Y006361D01*
X022695Y006454D01*
X022695Y006683D01*
X022378Y006683D01*
X022378Y006758D01*
X022695Y006758D01*
X022695Y006987D01*
X022602Y007081D01*
X022378Y007081D01*
X022378Y006759D01*
X022303Y006759D01*
X022303Y007081D01*
X022079Y007081D01*
X022020Y007021D01*
X021946Y007096D01*
X022006Y007156D01*
X022071Y007091D01*
X022610Y007091D01*
X022715Y007196D01*
X022715Y007745D01*
X022610Y007851D01*
X022596Y007851D01*
X022596Y007870D01*
X022454Y008012D01*
X022454Y008150D01*
X022393Y008296D01*
X022281Y008408D01*
X022135Y008469D01*
X021976Y008469D01*
X021830Y008408D01*
X021718Y008296D01*
X021658Y008150D01*
X021658Y007992D01*
X021716Y007851D01*
X021401Y007851D01*
X021330Y007779D01*
X021262Y007848D01*
X020719Y007848D01*
X020641Y007770D01*
X020584Y007828D01*
X020359Y007828D01*
X020359Y007509D01*
X020283Y007509D01*
X020283Y007828D01*
X020058Y007828D01*
X019964Y007734D01*
X019964Y007509D01*
X020282Y007509D01*
X020282Y007432D01*
X019964Y007432D01*
X019964Y007208D01*
X020058Y007114D01*
X020283Y007114D01*
X020283Y007432D01*
X020359Y007432D01*
X020359Y007114D01*
X020584Y007114D01*
X020641Y007171D01*
X020719Y007094D01*
X021262Y007094D01*
X021330Y007162D01*
X021396Y007096D01*
X021296Y006995D01*
X021296Y006685D01*
X021266Y006655D01*
X021266Y006195D01*
X021205Y006170D01*
X021056Y006021D01*
X021006Y005899D01*
X020955Y006021D01*
X020806Y006170D01*
X020611Y006251D01*
X020400Y006251D01*
X020340Y006226D01*
X020055Y006511D01*
X019856Y006511D01*
X019055Y006511D01*
X017846Y007720D01*
X017846Y009281D01*
X020356Y009281D01*
X020396Y009241D01*
X020396Y009014D02*
X017846Y009014D01*
X017846Y008896D02*
X020396Y008896D01*
X020465Y008777D02*
X017846Y008777D01*
X017846Y008659D02*
X022776Y008659D01*
X022776Y008777D02*
X021746Y008777D01*
X021815Y008896D02*
X022776Y008896D01*
X022776Y009014D02*
X021938Y009014D01*
X022057Y009133D02*
X022776Y009133D01*
X022776Y009251D02*
X022175Y009251D01*
X022294Y009370D02*
X022776Y009370D01*
X022776Y009488D02*
X022413Y009488D01*
X022531Y009607D02*
X022776Y009607D01*
X022776Y009725D02*
X022650Y009725D01*
X022768Y009844D02*
X022776Y009844D01*
X022806Y010221D02*
X022806Y013071D01*
X022456Y013421D01*
X022156Y013421D01*
X022156Y013431D01*
X021621Y013375D02*
X021621Y013041D01*
X021726Y012936D01*
X022566Y012936D01*
X022566Y012786D01*
X022216Y012786D01*
X022216Y012371D01*
X022096Y012371D01*
X022096Y012786D01*
X021734Y012786D01*
X021641Y012692D01*
X021641Y012371D01*
X022096Y012371D01*
X022096Y012251D01*
X022216Y012251D01*
X022216Y011836D01*
X022566Y011836D01*
X022566Y011386D01*
X022509Y011524D01*
X022309Y011724D01*
X022047Y011832D01*
X021764Y011832D01*
X021596Y011762D01*
X021596Y012225D01*
X021490Y012331D01*
X020461Y012331D01*
X020356Y012225D01*
X020356Y011660D01*
X020096Y011401D01*
X019821Y011401D01*
X019741Y011321D01*
X019682Y011381D01*
X019459Y011381D01*
X019459Y011059D01*
X019383Y011059D01*
X019383Y011381D01*
X019160Y011381D01*
X019066Y011287D01*
X019066Y011058D01*
X019383Y011058D01*
X019383Y010983D01*
X019066Y010983D01*
X019066Y010754D01*
X019160Y010661D01*
X019183Y010661D01*
X019118Y010596D01*
X019058Y010450D01*
X019058Y010292D01*
X019118Y010145D01*
X019230Y010033D01*
X019376Y009973D01*
X019535Y009973D01*
X019681Y010033D01*
X019793Y010145D01*
X019854Y010292D01*
X019854Y010429D01*
X020065Y010641D01*
X020360Y010641D01*
X020465Y010746D01*
X020465Y011091D01*
X020865Y011491D01*
X021289Y011491D01*
X021194Y011262D01*
X021194Y010979D01*
X021302Y010718D01*
X021503Y010518D01*
X021764Y010409D01*
X022047Y010409D01*
X022309Y010518D01*
X022509Y010718D01*
X022566Y010855D01*
X022566Y010320D01*
X021728Y009483D01*
X021725Y009486D01*
X021797Y009558D01*
X021797Y009782D01*
X021479Y009782D01*
X021479Y009859D01*
X021797Y009859D01*
X021797Y010084D01*
X021703Y010178D01*
X021479Y010178D01*
X021479Y009859D01*
X021402Y009859D01*
X021402Y010178D01*
X021177Y010178D01*
X021120Y010120D01*
X021042Y010198D01*
X020500Y010198D01*
X020394Y010092D01*
X020394Y009794D01*
X020360Y009761D01*
X020356Y009761D01*
X017955Y009761D01*
X017572Y010144D01*
X017762Y010144D01*
X017867Y010249D01*
X017867Y010608D01*
X018111Y010852D01*
X018130Y010833D01*
X018276Y010773D01*
X018435Y010773D01*
X018581Y010833D01*
X018693Y010945D01*
X018754Y011092D01*
X018754Y011250D01*
X018693Y011396D01*
X018581Y011508D01*
X018435Y011569D01*
X018276Y011569D01*
X018130Y011508D01*
X018033Y011411D01*
X017991Y011411D01*
X017850Y011270D01*
X017846Y011265D01*
X017846Y012927D01*
X017865Y012946D01*
X017865Y013495D01*
X017760Y013601D01*
X017221Y013601D01*
X017156Y013536D01*
X017091Y013601D01*
X016956Y013601D01*
X016896Y013661D01*
X016646Y013661D01*
X016646Y013695D01*
X016540Y013801D01*
X015511Y013801D01*
X015406Y013695D01*
X015406Y013066D01*
X015511Y012961D01*
X016446Y012961D01*
X016446Y012946D01*
X016466Y012927D01*
X016466Y012891D01*
X015511Y012891D01*
X015431Y012811D01*
X014199Y012811D01*
X014199Y013254D01*
X014093Y013359D01*
X014025Y013359D01*
X014169Y013503D01*
X014189Y013503D01*
X014342Y013567D01*
X014460Y013684D01*
X014523Y013838D01*
X014523Y014004D01*
X014491Y014083D01*
X014928Y014083D01*
X015034Y014188D01*
X014957Y014112D02*
X016984Y014112D01*
X017038Y014058D02*
X016866Y014230D01*
X016857Y014349D02*
X016494Y014349D01*
X016560Y014467D02*
X016791Y014467D01*
X016791Y014586D02*
X016560Y014586D01*
X016560Y014704D02*
X016791Y014704D01*
X016791Y014823D02*
X016560Y014823D01*
X016560Y014941D02*
X016791Y014941D01*
X016791Y015060D02*
X016560Y015060D01*
X016560Y015178D02*
X016791Y015178D01*
X016791Y015297D02*
X016560Y015297D01*
X016560Y015416D02*
X016791Y015416D01*
X016791Y015534D02*
X016560Y015534D01*
X016534Y015653D02*
X016816Y015653D01*
X016816Y015771D02*
X016496Y015771D01*
X016496Y015890D02*
X016816Y015890D01*
X016816Y016131D02*
X012346Y016131D01*
X012346Y016597D01*
X012434Y016685D01*
X012510Y016870D01*
X012510Y017071D01*
X012434Y017257D01*
X012292Y017399D01*
X012106Y017476D01*
X011905Y017476D01*
X011720Y017399D01*
X011578Y017257D01*
X011501Y017071D01*
X011501Y016870D01*
X011578Y016685D01*
X011666Y016597D01*
X011666Y016131D01*
X007096Y016131D01*
X007096Y016597D01*
X007184Y016685D01*
X007260Y016870D01*
X007260Y017071D01*
X007184Y017257D01*
X007042Y017399D01*
X006856Y017476D01*
X006655Y017476D01*
X006470Y017399D01*
X006328Y017257D01*
X006251Y017071D01*
X006251Y016870D01*
X006328Y016685D01*
X006416Y016597D01*
X006416Y016131D01*
X002236Y016131D01*
X002236Y018231D01*
X002748Y018231D01*
X002748Y017787D01*
X003596Y017787D01*
X003596Y017668D01*
X002236Y017668D01*
X002236Y017786D02*
X003596Y017786D01*
X003596Y017668D02*
X002748Y017668D01*
X002748Y017110D01*
X002841Y017016D01*
X003596Y017016D01*
X003596Y017667D01*
X003716Y017667D01*
X003716Y017668D02*
X003716Y017787D01*
X004564Y017787D01*
X004564Y018231D01*
X005455Y018231D01*
X005419Y018195D01*
X005359Y018050D01*
X005359Y017892D01*
X005419Y017746D01*
X005531Y017635D01*
X005677Y017574D01*
X005835Y017574D01*
X005980Y017635D01*
X006092Y017746D01*
X006152Y017892D01*
X006152Y018050D01*
X006092Y018195D01*
X006056Y018231D01*
X006455Y018231D01*
X006419Y018195D01*
X006359Y018050D01*
X006359Y017892D01*
X006419Y017746D01*
X006531Y017635D01*
X006677Y017574D01*
X006835Y017574D01*
X006980Y017635D01*
X007092Y017746D01*
X007152Y017892D01*
X007152Y018050D01*
X007092Y018195D01*
X007056Y018231D01*
X007998Y018231D01*
X007998Y017787D01*
X008846Y017787D01*
X008846Y017668D01*
X007014Y017668D01*
X007108Y017786D02*
X008846Y017786D01*
X008846Y017668D02*
X007998Y017668D01*
X007998Y017110D01*
X008091Y017016D01*
X008846Y017016D01*
X008846Y017667D01*
X008966Y017667D01*
X008966Y017668D02*
X008966Y017787D01*
X009814Y017787D01*
X009814Y018231D01*
X010705Y018231D01*
X010669Y018195D01*
X010609Y018050D01*
X010609Y017892D01*
X010669Y017746D01*
X010781Y017635D01*
X010927Y017574D01*
X011085Y017574D01*
X011230Y017635D01*
X011342Y017746D01*
X011402Y017892D01*
X011402Y018050D01*
X011342Y018195D01*
X011306Y018231D01*
X011705Y018231D01*
X011669Y018195D01*
X011609Y018050D01*
X011609Y017892D01*
X011669Y017746D01*
X011781Y017635D01*
X011927Y017574D01*
X012085Y017574D01*
X012230Y017635D01*
X012342Y017746D01*
X012402Y017892D01*
X012402Y018050D01*
X012342Y018195D01*
X012306Y018231D01*
X013198Y018231D01*
X013198Y017787D01*
X014046Y017787D01*
X014046Y017668D01*
X012264Y017668D01*
X012358Y017786D02*
X014046Y017786D01*
X014046Y017668D02*
X013198Y017668D01*
X013198Y017110D01*
X013291Y017016D01*
X014046Y017016D01*
X014046Y017667D01*
X014166Y017667D01*
X014166Y017668D02*
X014166Y017787D01*
X015014Y017787D01*
X015014Y018231D01*
X015855Y018231D01*
X015819Y018195D01*
X015759Y018050D01*
X015759Y017892D01*
X015819Y017746D01*
X015931Y017635D01*
X016077Y017574D01*
X016235Y017574D01*
X016380Y017635D01*
X016492Y017746D01*
X016552Y017892D01*
X016552Y018050D01*
X016492Y018195D01*
X016456Y018231D01*
X016855Y018231D01*
X016819Y018195D01*
X016759Y018050D01*
X016759Y017892D01*
X016819Y017746D01*
X016931Y017635D01*
X017077Y017574D01*
X017235Y017574D01*
X017380Y017635D01*
X017492Y017746D01*
X017552Y017892D01*
X017552Y018050D01*
X017492Y018195D01*
X017456Y018231D01*
X018348Y018231D01*
X018348Y017787D01*
X019196Y017787D01*
X019196Y017668D01*
X017414Y017668D01*
X017508Y017786D02*
X019196Y017786D01*
X019196Y017668D02*
X018348Y017668D01*
X018348Y017110D01*
X018441Y017016D01*
X019196Y017016D01*
X019196Y017667D01*
X019316Y017667D01*
X019316Y017668D02*
X019316Y017787D01*
X020164Y017787D01*
X020164Y018231D01*
X021005Y018231D01*
X020969Y018195D01*
X020909Y018050D01*
X020909Y017892D01*
X020969Y017746D01*
X021081Y017635D01*
X021227Y017574D01*
X021385Y017574D01*
X021530Y017635D01*
X021642Y017746D01*
X021702Y017892D01*
X021702Y018050D01*
X021642Y018195D01*
X021606Y018231D01*
X022005Y018231D01*
X021969Y018195D01*
X021909Y018050D01*
X021909Y017892D01*
X021969Y017746D01*
X022081Y017635D01*
X022227Y017574D01*
X022385Y017574D01*
X022530Y017635D01*
X022642Y017746D01*
X022702Y017892D01*
X022702Y018050D01*
X022642Y018195D01*
X022606Y018231D01*
X022776Y018231D01*
X022776Y017155D01*
X022734Y017257D01*
X022592Y017399D01*
X022406Y017476D01*
X022205Y017476D01*
X022020Y017399D01*
X021878Y017257D01*
X021801Y017071D01*
X021801Y016870D01*
X021878Y016685D01*
X021966Y016597D01*
X021966Y016131D01*
X017496Y016131D01*
X017496Y016597D01*
X017584Y016685D01*
X017660Y016870D01*
X017660Y017071D01*
X017584Y017257D01*
X017442Y017399D01*
X017256Y017476D01*
X017055Y017476D01*
X016870Y017399D01*
X016728Y017257D01*
X016651Y017071D01*
X016651Y016870D01*
X016728Y016685D01*
X016816Y016597D01*
X016816Y016131D01*
X016816Y016245D02*
X012346Y016245D01*
X012346Y016364D02*
X016816Y016364D01*
X016816Y016482D02*
X012346Y016482D01*
X012350Y016601D02*
X015840Y016601D01*
X015881Y016560D02*
X016059Y016486D01*
X016107Y016486D01*
X016107Y016922D01*
X016204Y016922D01*
X016204Y016486D01*
X016252Y016486D01*
X016430Y016560D01*
X016567Y016696D01*
X016640Y016874D01*
X016640Y016922D01*
X016204Y016922D01*
X016204Y017019D01*
X016640Y017019D01*
X016640Y017067D01*
X016567Y017245D01*
X016430Y017382D01*
X016252Y017456D01*
X016204Y017456D01*
X016204Y017019D01*
X016107Y017019D01*
X016107Y016922D01*
X015671Y016922D01*
X015671Y016874D01*
X015745Y016696D01*
X015881Y016560D01*
X015735Y016719D02*
X012448Y016719D01*
X012497Y016838D02*
X015686Y016838D01*
X015671Y017019D02*
X016107Y017019D01*
X016107Y017456D01*
X016059Y017456D01*
X015881Y017382D01*
X015745Y017245D01*
X015671Y017067D01*
X015671Y017019D01*
X015674Y017075D02*
X014979Y017075D01*
X015014Y017110D02*
X015014Y017668D01*
X014166Y017668D01*
X015898Y017668D01*
X015803Y017786D02*
X014166Y017786D01*
X014166Y017667D02*
X014166Y017016D01*
X014920Y017016D01*
X015014Y017110D01*
X015014Y017194D02*
X015723Y017194D01*
X015811Y017312D02*
X015014Y017312D01*
X015014Y017431D02*
X015999Y017431D01*
X016107Y017431D02*
X016204Y017431D01*
X016312Y017431D02*
X016947Y017431D01*
X016783Y017312D02*
X016500Y017312D01*
X016588Y017194D02*
X016702Y017194D01*
X016653Y017075D02*
X016637Y017075D01*
X016651Y016957D02*
X016204Y016957D01*
X016107Y016957D02*
X012510Y016957D01*
X012509Y017075D02*
X013233Y017075D01*
X013198Y017194D02*
X012460Y017194D01*
X012378Y017312D02*
X013198Y017312D01*
X013198Y017431D02*
X012214Y017431D01*
X011797Y017431D02*
X011162Y017431D01*
X011102Y017456D02*
X011054Y017456D01*
X011054Y017019D01*
X011490Y017019D01*
X011490Y017067D01*
X011417Y017245D01*
X011280Y017382D01*
X011102Y017456D01*
X011054Y017431D02*
X010957Y017431D01*
X010957Y017456D02*
X010909Y017456D01*
X010731Y017382D01*
X010595Y017245D01*
X010521Y017067D01*
X010521Y017019D01*
X010957Y017019D01*
X010957Y016922D01*
X011054Y016922D01*
X011054Y016486D01*
X011102Y016486D01*
X011280Y016560D01*
X011417Y016696D01*
X011490Y016874D01*
X011490Y016922D01*
X011054Y016922D01*
X011054Y017019D01*
X010957Y017019D01*
X010957Y017456D01*
X010849Y017431D02*
X009814Y017431D01*
X009814Y017549D02*
X013198Y017549D01*
X013198Y017905D02*
X012402Y017905D01*
X012402Y018023D02*
X013198Y018023D01*
X013198Y018142D02*
X012364Y018142D01*
X011647Y018142D02*
X011364Y018142D01*
X011402Y018023D02*
X011609Y018023D01*
X011609Y017905D02*
X011402Y017905D01*
X011358Y017786D02*
X011653Y017786D01*
X011748Y017668D02*
X011264Y017668D01*
X011350Y017312D02*
X011633Y017312D01*
X011552Y017194D02*
X011438Y017194D01*
X011487Y017075D02*
X011503Y017075D01*
X011501Y016957D02*
X011054Y016957D01*
X010957Y016957D02*
X007260Y016957D01*
X007259Y017075D02*
X008033Y017075D01*
X007998Y017194D02*
X007210Y017194D01*
X007128Y017312D02*
X007998Y017312D01*
X007998Y017431D02*
X006964Y017431D01*
X006547Y017431D02*
X005912Y017431D01*
X005852Y017456D02*
X005804Y017456D01*
X005804Y017019D01*
X006240Y017019D01*
X006240Y017067D01*
X006167Y017245D01*
X006030Y017382D01*
X005852Y017456D01*
X005804Y017431D02*
X005707Y017431D01*
X005707Y017456D02*
X005659Y017456D01*
X005481Y017382D01*
X005345Y017245D01*
X005271Y017067D01*
X005271Y017019D01*
X005707Y017019D01*
X005707Y016922D01*
X005804Y016922D01*
X005804Y016486D01*
X005852Y016486D01*
X006030Y016560D01*
X006167Y016696D01*
X006240Y016874D01*
X006240Y016922D01*
X005804Y016922D01*
X005804Y017019D01*
X005707Y017019D01*
X005707Y017456D01*
X005599Y017431D02*
X004564Y017431D01*
X004564Y017549D02*
X007998Y017549D01*
X007998Y017905D02*
X007152Y017905D01*
X007152Y018023D02*
X007998Y018023D01*
X007998Y018142D02*
X007114Y018142D01*
X006397Y018142D02*
X006114Y018142D01*
X006152Y018023D02*
X006359Y018023D01*
X006359Y017905D02*
X006152Y017905D01*
X006108Y017786D02*
X006403Y017786D01*
X006498Y017668D02*
X006014Y017668D01*
X006100Y017312D02*
X006383Y017312D01*
X006302Y017194D02*
X006188Y017194D01*
X006237Y017075D02*
X006253Y017075D01*
X006251Y016957D02*
X005804Y016957D01*
X005707Y016957D02*
X002236Y016957D01*
X002236Y017075D02*
X002783Y017075D01*
X002748Y017194D02*
X002236Y017194D01*
X002236Y017312D02*
X002748Y017312D01*
X002748Y017431D02*
X002236Y017431D01*
X002236Y017549D02*
X002748Y017549D01*
X002748Y017905D02*
X002236Y017905D01*
X002236Y018023D02*
X002748Y018023D01*
X002748Y018142D02*
X002236Y018142D01*
X003596Y017549D02*
X003716Y017549D01*
X003716Y017431D02*
X003596Y017431D01*
X003596Y017312D02*
X003716Y017312D01*
X003716Y017194D02*
X003596Y017194D01*
X003596Y017075D02*
X003716Y017075D01*
X003716Y017016D02*
X004470Y017016D01*
X004564Y017110D01*
X004564Y017668D01*
X003716Y017668D01*
X005498Y017668D01*
X005403Y017786D02*
X003716Y017786D01*
X003716Y017667D02*
X003716Y017016D01*
X004529Y017075D02*
X005274Y017075D01*
X005323Y017194D02*
X004564Y017194D01*
X004564Y017312D02*
X005411Y017312D01*
X005707Y017312D02*
X005804Y017312D01*
X005804Y017194D02*
X005707Y017194D01*
X005707Y017075D02*
X005804Y017075D01*
X005707Y016922D02*
X005271Y016922D01*
X005271Y016874D01*
X005345Y016696D01*
X005481Y016560D01*
X005659Y016486D01*
X005707Y016486D01*
X005707Y016922D01*
X005707Y016838D02*
X005804Y016838D01*
X005804Y016719D02*
X005707Y016719D01*
X005707Y016601D02*
X005804Y016601D01*
X006071Y016601D02*
X006412Y016601D01*
X006416Y016482D02*
X002236Y016482D01*
X002236Y016364D02*
X006416Y016364D01*
X006416Y016245D02*
X002236Y016245D01*
X002646Y015890D02*
X005416Y015890D01*
X005416Y015771D02*
X002646Y015771D01*
X002646Y015653D02*
X005275Y015653D01*
X005249Y015534D02*
X004489Y015534D01*
X004584Y015416D02*
X005249Y015416D01*
X005249Y015297D02*
X004584Y015297D01*
X004584Y015178D02*
X005249Y015178D01*
X005249Y015060D02*
X004584Y015060D01*
X004584Y014941D02*
X005249Y014941D01*
X005249Y014823D02*
X004584Y014823D01*
X004584Y014704D02*
X005249Y014704D01*
X005249Y014586D02*
X004584Y014586D01*
X004584Y014467D02*
X005249Y014467D01*
X005315Y014349D02*
X004584Y014349D01*
X004584Y014230D02*
X006566Y014230D01*
X006457Y014349D02*
X006094Y014349D01*
X006160Y014467D02*
X006391Y014467D01*
X006391Y014586D02*
X006160Y014586D01*
X006160Y014704D02*
X006391Y014704D01*
X006391Y014823D02*
X006160Y014823D01*
X006160Y014941D02*
X006391Y014941D01*
X006391Y015060D02*
X006160Y015060D01*
X006160Y015178D02*
X006391Y015178D01*
X006391Y015297D02*
X006160Y015297D01*
X006160Y015416D02*
X006391Y015416D01*
X006391Y015534D02*
X006160Y015534D01*
X006134Y015653D02*
X006416Y015653D01*
X006416Y015771D02*
X006096Y015771D01*
X006096Y015890D02*
X006416Y015890D01*
X007096Y015890D02*
X010666Y015890D01*
X010666Y015771D02*
X007096Y015771D01*
X007276Y015653D02*
X010525Y015653D01*
X010499Y015534D02*
X009739Y015534D01*
X009834Y015416D02*
X010499Y015416D01*
X010499Y015297D02*
X009834Y015297D01*
X009834Y015178D02*
X010499Y015178D01*
X010499Y015060D02*
X009834Y015060D01*
X009834Y014941D02*
X010499Y014941D01*
X010499Y014823D02*
X009834Y014823D01*
X009834Y014704D02*
X010499Y014704D01*
X010499Y014586D02*
X009834Y014586D01*
X009834Y014467D02*
X010499Y014467D01*
X010565Y014349D02*
X009834Y014349D01*
X009834Y014230D02*
X011766Y014230D01*
X011707Y014349D02*
X011344Y014349D01*
X011410Y014467D02*
X011641Y014467D01*
X011641Y014586D02*
X011410Y014586D01*
X011410Y014704D02*
X011641Y014704D01*
X011641Y014823D02*
X011410Y014823D01*
X011410Y014941D02*
X011641Y014941D01*
X011641Y015060D02*
X011410Y015060D01*
X011410Y015178D02*
X011641Y015178D01*
X011641Y015297D02*
X011410Y015297D01*
X011410Y015416D02*
X011641Y015416D01*
X011641Y015534D02*
X011410Y015534D01*
X011384Y015653D02*
X011666Y015653D01*
X011666Y015771D02*
X011346Y015771D01*
X011346Y015890D02*
X011666Y015890D01*
X011666Y016245D02*
X007096Y016245D01*
X007096Y016364D02*
X011666Y016364D01*
X011666Y016482D02*
X007096Y016482D01*
X007100Y016601D02*
X010690Y016601D01*
X010731Y016560D02*
X010909Y016486D01*
X010957Y016486D01*
X010957Y016922D01*
X010521Y016922D01*
X010521Y016874D01*
X010595Y016696D01*
X010731Y016560D01*
X010585Y016719D02*
X007198Y016719D01*
X007247Y016838D02*
X010536Y016838D01*
X010524Y017075D02*
X009779Y017075D01*
X009814Y017110D02*
X009814Y017668D01*
X008966Y017668D01*
X010748Y017668D01*
X010653Y017786D02*
X008966Y017786D01*
X008966Y017667D02*
X008966Y017016D01*
X009720Y017016D01*
X009814Y017110D01*
X009814Y017194D02*
X010573Y017194D01*
X010661Y017312D02*
X009814Y017312D01*
X009814Y017905D02*
X010609Y017905D01*
X010609Y018023D02*
X009814Y018023D01*
X009814Y018142D02*
X010647Y018142D01*
X010957Y017312D02*
X011054Y017312D01*
X011054Y017194D02*
X010957Y017194D01*
X010957Y017075D02*
X011054Y017075D01*
X011054Y016838D02*
X010957Y016838D01*
X010957Y016719D02*
X011054Y016719D01*
X011054Y016601D02*
X010957Y016601D01*
X011321Y016601D02*
X011662Y016601D01*
X011563Y016719D02*
X011426Y016719D01*
X011475Y016838D02*
X011514Y016838D01*
X012346Y015890D02*
X015816Y015890D01*
X015816Y015771D02*
X012346Y015771D01*
X012526Y015653D02*
X015675Y015653D01*
X015649Y015534D02*
X014939Y015534D01*
X015034Y015416D02*
X015649Y015416D01*
X015649Y015297D02*
X015034Y015297D01*
X015034Y015178D02*
X015649Y015178D01*
X015649Y015060D02*
X015034Y015060D01*
X015034Y014941D02*
X015649Y014941D01*
X015649Y014823D02*
X015034Y014823D01*
X015034Y014704D02*
X015649Y014704D01*
X015649Y014586D02*
X015034Y014586D01*
X015034Y014467D02*
X015649Y014467D01*
X015715Y014349D02*
X015034Y014349D01*
X014523Y013993D02*
X017056Y013993D01*
X017038Y014038D02*
X017101Y013884D01*
X017219Y013767D01*
X017373Y013703D01*
X017539Y013703D01*
X017692Y013767D01*
X017810Y013884D01*
X017873Y014038D01*
X017873Y014204D01*
X017810Y014357D01*
X017702Y014465D01*
X017702Y015627D01*
X017596Y015732D01*
X017496Y015732D01*
X017496Y015891D01*
X020966Y015891D01*
X020966Y015732D01*
X020904Y015732D01*
X020799Y015627D01*
X020799Y014415D01*
X020904Y014309D01*
X021605Y014309D01*
X021710Y014415D01*
X021710Y015627D01*
X021646Y015691D01*
X021646Y015891D01*
X021966Y015891D01*
X021966Y015652D01*
X021941Y015627D01*
X021941Y014415D01*
X022000Y014355D01*
X021938Y014204D01*
X021938Y014038D01*
X021951Y014006D01*
X021896Y014061D01*
X021580Y014061D01*
X021490Y014151D01*
X020461Y014151D01*
X020356Y014045D01*
X020356Y013416D01*
X020461Y013311D01*
X021490Y013311D01*
X021560Y013381D01*
X021615Y013381D01*
X021621Y013375D01*
X021621Y013282D02*
X019149Y013282D01*
X019149Y013333D02*
X019149Y013161D01*
X020381Y013161D01*
X020461Y013241D01*
X021490Y013241D01*
X021596Y013135D01*
X021596Y012506D01*
X021490Y012401D01*
X020461Y012401D01*
X020381Y012481D01*
X019149Y012481D01*
X019149Y012038D01*
X019043Y011932D01*
X018028Y011932D01*
X017923Y012038D01*
X017923Y013604D01*
X018028Y013709D01*
X018564Y013709D01*
X018838Y013984D01*
X018838Y014004D01*
X018871Y014083D01*
X018433Y014083D01*
X018328Y014188D01*
X018328Y015440D01*
X018433Y015545D01*
X020078Y015545D01*
X020184Y015440D01*
X020184Y014188D01*
X020078Y014083D01*
X019641Y014083D01*
X019673Y014004D01*
X019673Y013838D01*
X019610Y013684D01*
X019492Y013567D01*
X019339Y013503D01*
X019319Y013503D01*
X019149Y013333D01*
X019216Y013400D02*
X020372Y013400D01*
X020356Y013519D02*
X019377Y013519D01*
X019563Y013637D02*
X020356Y013637D01*
X020356Y013756D02*
X019640Y013756D01*
X019673Y013874D02*
X020356Y013874D01*
X020356Y013993D02*
X019673Y013993D01*
X020107Y014112D02*
X020422Y014112D01*
X020184Y014230D02*
X021949Y014230D01*
X021938Y014112D02*
X021529Y014112D01*
X021644Y014349D02*
X021998Y014349D01*
X021941Y014467D02*
X021710Y014467D01*
X021710Y014586D02*
X021941Y014586D01*
X021941Y014704D02*
X021710Y014704D01*
X021710Y014823D02*
X021941Y014823D01*
X021941Y014941D02*
X021710Y014941D01*
X021710Y015060D02*
X021941Y015060D01*
X021941Y015178D02*
X021710Y015178D01*
X021710Y015297D02*
X021941Y015297D01*
X021941Y015416D02*
X021710Y015416D01*
X021710Y015534D02*
X021941Y015534D01*
X021966Y015653D02*
X021684Y015653D01*
X021646Y015771D02*
X021966Y015771D01*
X021966Y015890D02*
X021646Y015890D01*
X021966Y016245D02*
X017496Y016245D01*
X017496Y016364D02*
X021966Y016364D01*
X021966Y016482D02*
X017496Y016482D01*
X017500Y016601D02*
X020990Y016601D01*
X021031Y016560D02*
X021209Y016486D01*
X021257Y016486D01*
X021257Y016922D01*
X021354Y016922D01*
X021354Y016486D01*
X021402Y016486D01*
X021580Y016560D01*
X021717Y016696D01*
X021790Y016874D01*
X021790Y016922D01*
X021354Y016922D01*
X021354Y017019D01*
X021790Y017019D01*
X021790Y017067D01*
X021717Y017245D01*
X021580Y017382D01*
X021402Y017456D01*
X021354Y017456D01*
X021354Y017019D01*
X021257Y017019D01*
X021257Y016922D01*
X020821Y016922D01*
X020821Y016874D01*
X020895Y016696D01*
X021031Y016560D01*
X020885Y016719D02*
X017598Y016719D01*
X017647Y016838D02*
X020836Y016838D01*
X020821Y017019D02*
X021257Y017019D01*
X021257Y017456D01*
X021209Y017456D01*
X021031Y017382D01*
X020895Y017245D01*
X020821Y017067D01*
X020821Y017019D01*
X020824Y017075D02*
X020129Y017075D01*
X020164Y017110D02*
X020164Y017668D01*
X019316Y017668D01*
X021048Y017668D01*
X020953Y017786D02*
X019316Y017786D01*
X019316Y017667D02*
X019316Y017016D01*
X020070Y017016D01*
X020164Y017110D01*
X020164Y017194D02*
X020873Y017194D01*
X020961Y017312D02*
X020164Y017312D01*
X020164Y017431D02*
X021149Y017431D01*
X021257Y017431D02*
X021354Y017431D01*
X021462Y017431D02*
X022097Y017431D01*
X021933Y017312D02*
X021650Y017312D01*
X021738Y017194D02*
X021852Y017194D01*
X021803Y017075D02*
X021787Y017075D01*
X021801Y016957D02*
X021354Y016957D01*
X021257Y016957D02*
X017660Y016957D01*
X017659Y017075D02*
X018383Y017075D01*
X018348Y017194D02*
X017610Y017194D01*
X017528Y017312D02*
X018348Y017312D01*
X018348Y017431D02*
X017364Y017431D01*
X016898Y017668D02*
X016414Y017668D01*
X016508Y017786D02*
X016803Y017786D01*
X016759Y017905D02*
X016552Y017905D01*
X016552Y018023D02*
X016759Y018023D01*
X016797Y018142D02*
X016514Y018142D01*
X015797Y018142D02*
X015014Y018142D01*
X015014Y018023D02*
X015759Y018023D01*
X015759Y017905D02*
X015014Y017905D01*
X015014Y017549D02*
X018348Y017549D01*
X018348Y017905D02*
X017552Y017905D01*
X017552Y018023D02*
X018348Y018023D01*
X018348Y018142D02*
X017514Y018142D01*
X016204Y017312D02*
X016107Y017312D01*
X016107Y017194D02*
X016204Y017194D01*
X016204Y017075D02*
X016107Y017075D01*
X016107Y016838D02*
X016204Y016838D01*
X016204Y016719D02*
X016107Y016719D01*
X016107Y016601D02*
X016204Y016601D01*
X016471Y016601D02*
X016812Y016601D01*
X016713Y016719D02*
X016576Y016719D01*
X016625Y016838D02*
X016664Y016838D01*
X017496Y015890D02*
X020966Y015890D01*
X020966Y015771D02*
X017496Y015771D01*
X017676Y015653D02*
X020825Y015653D01*
X020799Y015534D02*
X020089Y015534D01*
X020184Y015416D02*
X020799Y015416D01*
X020799Y015297D02*
X020184Y015297D01*
X020184Y015178D02*
X020799Y015178D01*
X020799Y015060D02*
X020184Y015060D01*
X020184Y014941D02*
X020799Y014941D01*
X020799Y014823D02*
X020184Y014823D01*
X020184Y014704D02*
X020799Y014704D01*
X020799Y014586D02*
X020184Y014586D01*
X020184Y014467D02*
X020799Y014467D01*
X020865Y014349D02*
X020184Y014349D01*
X018838Y013993D02*
X017855Y013993D01*
X017873Y014112D02*
X018404Y014112D01*
X018328Y014230D02*
X017863Y014230D01*
X017814Y014349D02*
X018328Y014349D01*
X018328Y014467D02*
X017702Y014467D01*
X017702Y014586D02*
X018328Y014586D01*
X018328Y014704D02*
X017702Y014704D01*
X017702Y014823D02*
X018328Y014823D01*
X018328Y014941D02*
X017702Y014941D01*
X017702Y015060D02*
X018328Y015060D01*
X018328Y015178D02*
X017702Y015178D01*
X017702Y015297D02*
X018328Y015297D01*
X018328Y015416D02*
X017702Y015416D01*
X017702Y015534D02*
X018422Y015534D01*
X019196Y017075D02*
X019316Y017075D01*
X019316Y017194D02*
X019196Y017194D01*
X019196Y017312D02*
X019316Y017312D01*
X019316Y017431D02*
X019196Y017431D01*
X019196Y017549D02*
X019316Y017549D01*
X020164Y017549D02*
X022776Y017549D01*
X022776Y017431D02*
X022514Y017431D01*
X022678Y017312D02*
X022776Y017312D01*
X022776Y017194D02*
X022760Y017194D01*
X022776Y017668D02*
X022564Y017668D01*
X022658Y017786D02*
X022776Y017786D01*
X022776Y017905D02*
X022702Y017905D01*
X022702Y018023D02*
X022776Y018023D01*
X022776Y018142D02*
X022664Y018142D01*
X021947Y018142D02*
X021664Y018142D01*
X021702Y018023D02*
X021909Y018023D01*
X021909Y017905D02*
X021702Y017905D01*
X021658Y017786D02*
X021953Y017786D01*
X022048Y017668D02*
X021564Y017668D01*
X021354Y017312D02*
X021257Y017312D01*
X021257Y017194D02*
X021354Y017194D01*
X021354Y017075D02*
X021257Y017075D01*
X021257Y016838D02*
X021354Y016838D01*
X021354Y016719D02*
X021257Y016719D01*
X021257Y016601D02*
X021354Y016601D01*
X021621Y016601D02*
X021962Y016601D01*
X021863Y016719D02*
X021726Y016719D01*
X021775Y016838D02*
X021814Y016838D01*
X020909Y017905D02*
X020164Y017905D01*
X020164Y018023D02*
X020909Y018023D01*
X020947Y018142D02*
X020164Y018142D01*
X014166Y017549D02*
X014046Y017549D01*
X014046Y017431D02*
X014166Y017431D01*
X014166Y017312D02*
X014046Y017312D01*
X014046Y017194D02*
X014166Y017194D01*
X014166Y017075D02*
X014046Y017075D01*
X013272Y015534D02*
X012552Y015534D01*
X012552Y015416D02*
X013178Y015416D01*
X013178Y015297D02*
X012552Y015297D01*
X012552Y015178D02*
X013178Y015178D01*
X013178Y015060D02*
X012552Y015060D01*
X012552Y014941D02*
X013178Y014941D01*
X013178Y014823D02*
X012552Y014823D01*
X012552Y014704D02*
X013178Y014704D01*
X013178Y014586D02*
X012552Y014586D01*
X012600Y014467D02*
X013178Y014467D01*
X013178Y014349D02*
X012714Y014349D01*
X012763Y014230D02*
X013178Y014230D01*
X013254Y014112D02*
X012773Y014112D01*
X012755Y013993D02*
X013688Y013993D01*
X013579Y013874D02*
X012700Y013874D01*
X012567Y013756D02*
X013460Y013756D01*
X013341Y013637D02*
X011496Y013637D01*
X011435Y013756D02*
X012145Y013756D01*
X012011Y013874D02*
X009294Y013874D01*
X009323Y013756D02*
X010316Y013756D01*
X010256Y013637D02*
X009323Y013637D01*
X009274Y013519D02*
X010256Y013519D01*
X010256Y013400D02*
X009176Y013400D01*
X009021Y013282D02*
X010256Y013282D01*
X010256Y013163D02*
X009049Y013163D01*
X009049Y013045D02*
X010277Y013045D01*
X011220Y012926D02*
X009049Y012926D01*
X008341Y013637D02*
X007673Y013637D01*
X007765Y013519D02*
X008223Y013519D01*
X008116Y013400D02*
X007765Y013400D01*
X007367Y013756D02*
X008460Y013756D01*
X008517Y013874D02*
X007500Y013874D01*
X007555Y013993D02*
X008566Y013993D01*
X008054Y014112D02*
X007573Y014112D01*
X007563Y014230D02*
X007978Y014230D01*
X007978Y014349D02*
X007514Y014349D01*
X007400Y014467D02*
X007978Y014467D01*
X007978Y014586D02*
X007302Y014586D01*
X007302Y014704D02*
X007978Y014704D01*
X007978Y014823D02*
X007302Y014823D01*
X007302Y014941D02*
X007978Y014941D01*
X007978Y015060D02*
X007302Y015060D01*
X007302Y015178D02*
X007978Y015178D01*
X007978Y015297D02*
X007302Y015297D01*
X007302Y015416D02*
X007978Y015416D01*
X008072Y015534D02*
X007302Y015534D01*
X006313Y016719D02*
X006176Y016719D01*
X006225Y016838D02*
X006264Y016838D01*
X005440Y016601D02*
X002236Y016601D01*
X002236Y016719D02*
X005335Y016719D01*
X005286Y016838D02*
X002236Y016838D01*
X002646Y015534D02*
X002822Y015534D01*
X002728Y015416D02*
X002646Y015416D01*
X002646Y015297D02*
X002728Y015297D01*
X002728Y015178D02*
X002646Y015178D01*
X002646Y015060D02*
X002728Y015060D01*
X002728Y014941D02*
X002646Y014941D01*
X002646Y014823D02*
X002728Y014823D01*
X002728Y014704D02*
X002646Y014704D01*
X002646Y014586D02*
X002728Y014586D01*
X002728Y014467D02*
X002646Y014467D01*
X002646Y014349D02*
X002728Y014349D01*
X002728Y014230D02*
X002646Y014230D01*
X002646Y014112D02*
X002804Y014112D01*
X002646Y013993D02*
X003353Y013993D01*
X003471Y013874D02*
X002646Y013874D01*
X002646Y013756D02*
X003590Y013756D01*
X003708Y013637D02*
X002646Y013637D01*
X002646Y013519D02*
X003823Y013519D01*
X004314Y013993D02*
X006756Y013993D01*
X006811Y013874D02*
X006466Y013874D01*
X006601Y013756D02*
X006945Y013756D01*
X007004Y013637D02*
X007107Y013637D01*
X006684Y014112D02*
X004507Y014112D01*
X004543Y013874D02*
X005285Y013874D01*
X005256Y013756D02*
X004661Y013756D01*
X004710Y013637D02*
X005256Y013637D01*
X005256Y013519D02*
X004723Y013519D01*
X004708Y013400D02*
X005256Y013400D01*
X005256Y013282D02*
X004657Y013282D01*
X004534Y013163D02*
X005309Y013163D01*
X004310Y013045D02*
X006345Y013045D01*
X005347Y012215D02*
X004049Y012215D01*
X004049Y012096D02*
X005327Y012096D01*
X005256Y011978D02*
X004049Y011978D01*
X004049Y011859D02*
X004853Y011859D01*
X004663Y011741D02*
X003952Y011741D01*
X003717Y011504D02*
X004558Y011504D01*
X004560Y011385D02*
X003766Y011385D01*
X003815Y011266D02*
X004609Y011266D01*
X004715Y011148D02*
X003817Y011148D01*
X003817Y011029D02*
X003958Y011029D01*
X003916Y010911D02*
X003789Y010911D01*
X003740Y010792D02*
X003916Y010792D01*
X003916Y010674D02*
X003665Y010674D01*
X003546Y010555D02*
X003916Y010555D01*
X003934Y010437D02*
X003313Y010437D01*
X002898Y010437D02*
X002646Y010437D01*
X002646Y010555D02*
X002665Y010555D01*
X002646Y010318D02*
X006414Y010318D01*
X006414Y010200D02*
X002658Y010200D01*
X002776Y010081D02*
X006491Y010081D01*
X006513Y009844D02*
X008143Y009844D01*
X008262Y009725D02*
X006632Y009725D01*
X006750Y009607D02*
X008380Y009607D01*
X008499Y009488D02*
X006869Y009488D01*
X006987Y009370D02*
X009067Y009370D01*
X009627Y009488D02*
X010204Y009488D01*
X010249Y009370D02*
X009746Y009370D01*
X009865Y009251D02*
X010166Y009251D01*
X010166Y009133D02*
X009983Y009133D01*
X010102Y009014D02*
X010483Y009014D01*
X010506Y009421D02*
X011206Y009421D01*
X011206Y009036D01*
X011190Y009021D01*
X011206Y009421D02*
X011456Y009421D01*
X011823Y009053D01*
X012164Y009053D01*
X012164Y009309D02*
X012014Y009313D01*
X011706Y009621D01*
X011956Y009871D01*
X011956Y009921D01*
X011706Y009621D02*
X011506Y009821D01*
X011190Y009821D01*
X010920Y010200D02*
X010792Y010200D01*
X010521Y009821D02*
X010506Y009821D01*
X010506Y009421D01*
X010146Y009607D02*
X009509Y009607D01*
X009390Y009725D02*
X010146Y009725D01*
X010146Y009844D02*
X009272Y009844D01*
X008706Y009621D02*
X007956Y010371D01*
X007440Y010436D02*
X007406Y010421D01*
X007132Y010081D02*
X007051Y010081D01*
X006809Y010081D02*
X006733Y010081D01*
X006733Y010200D02*
X006809Y010200D01*
X006809Y010318D02*
X006733Y010318D01*
X006732Y010437D02*
X005306Y010437D01*
X005315Y010555D02*
X006414Y010555D01*
X006414Y010674D02*
X005315Y010674D01*
X005315Y010792D02*
X007164Y010792D01*
X007166Y010911D02*
X005315Y010911D01*
X005281Y011029D02*
X007166Y011029D01*
X006916Y011148D02*
X006796Y011148D01*
X006796Y011266D02*
X006916Y011266D01*
X006916Y011385D02*
X006796Y011385D01*
X006796Y011622D02*
X006916Y011622D01*
X006916Y011741D02*
X006796Y011741D01*
X006796Y011859D02*
X006916Y011859D01*
X006916Y011978D02*
X006796Y011978D01*
X007166Y012096D02*
X006425Y012096D01*
X005906Y011721D02*
X005896Y011711D01*
X005856Y011671D01*
X005156Y011671D01*
X004956Y011471D01*
X004956Y010721D01*
X004940Y010721D01*
X004599Y011029D02*
X004584Y011029D01*
X004309Y011029D02*
X004233Y011029D01*
X004233Y010911D02*
X004309Y010911D01*
X004309Y010792D02*
X004233Y010792D01*
X004233Y010674D02*
X004309Y010674D01*
X004309Y010555D02*
X004233Y010555D01*
X004233Y010437D02*
X004309Y010437D01*
X005196Y011148D02*
X005293Y011245D01*
X005326Y011326D01*
X005361Y011291D01*
X006341Y011291D01*
X006341Y011130D01*
X006341Y011266D02*
X005302Y011266D01*
X005876Y011711D02*
X005896Y011711D01*
X005876Y011711D02*
X005756Y011841D01*
X004587Y011622D02*
X003610Y011622D01*
X002823Y011859D02*
X002646Y011859D01*
X002646Y011741D02*
X002743Y011741D01*
X002823Y011978D02*
X002646Y011978D01*
X002646Y012096D02*
X002823Y012096D01*
X002823Y012215D02*
X002646Y012215D01*
X002646Y012333D02*
X002823Y012333D01*
X002823Y012452D02*
X002646Y012452D01*
X002646Y012570D02*
X002823Y012570D01*
X002823Y012689D02*
X002646Y012689D01*
X002646Y012808D02*
X002823Y012808D01*
X002823Y012926D02*
X002646Y012926D01*
X002646Y013045D02*
X002823Y013045D01*
X002823Y013163D02*
X002646Y013163D01*
X002646Y013282D02*
X002823Y013282D01*
X002823Y013400D02*
X002646Y013400D01*
X006733Y010674D02*
X006809Y010674D01*
X006809Y010555D02*
X006733Y010555D01*
X008883Y010555D02*
X008959Y010555D01*
X008959Y010437D02*
X008883Y010437D01*
X008883Y010674D02*
X008959Y010674D01*
X008959Y010792D02*
X008883Y010792D01*
X008883Y010911D02*
X008959Y010911D01*
X008959Y011029D02*
X008883Y011029D01*
X009234Y011029D02*
X009249Y011029D01*
X009590Y010721D02*
X009606Y010721D01*
X009756Y010871D01*
X010106Y010871D01*
X012069Y010792D02*
X012114Y010792D01*
X012406Y010521D02*
X012406Y009771D01*
X012606Y009571D01*
X012606Y008921D01*
X012482Y008797D01*
X012164Y008797D01*
X012580Y008184D02*
X012643Y008184D01*
X012580Y008158D02*
X012580Y008158D01*
X012806Y007821D02*
X012756Y007771D01*
X012206Y007771D01*
X012203Y007774D01*
X012164Y007774D01*
X011958Y007774D01*
X011606Y007421D01*
X011256Y007421D01*
X011206Y007271D01*
X011190Y007321D01*
X010863Y006999D02*
X010849Y006999D01*
X011589Y006643D02*
X002236Y006643D01*
X002236Y006525D02*
X003620Y006525D01*
X003502Y006406D02*
X002236Y006406D01*
X002236Y006288D02*
X003383Y006288D01*
X003204Y006169D02*
X002756Y006169D01*
X002897Y006051D02*
X003086Y006051D01*
X003020Y005932D02*
X002970Y005932D01*
X002544Y005932D02*
X002467Y005932D01*
X002467Y005814D02*
X002544Y005814D01*
X002544Y006051D02*
X002467Y006051D01*
X002467Y006169D02*
X002544Y006169D01*
X002256Y006169D02*
X002236Y006169D01*
X002236Y006762D02*
X011707Y006762D01*
X011906Y006621D02*
X013106Y006621D01*
X013656Y007171D01*
X013556Y007071D01*
X013490Y007021D01*
X013656Y007171D02*
X013656Y008541D01*
X014447Y008541D01*
X014447Y008285D02*
X014820Y008285D01*
X015106Y008571D01*
X015573Y009053D02*
X015706Y008921D01*
X015706Y009205D01*
X015971Y009471D01*
X015573Y009053D02*
X014447Y009053D01*
X014447Y009309D02*
X014944Y009309D01*
X015506Y009871D01*
X016606Y009871D01*
X016606Y009555D01*
X016640Y009471D01*
X017015Y009488D02*
X017099Y009488D01*
X017015Y009572D02*
X017366Y009221D01*
X017366Y007720D01*
X017366Y007521D01*
X017376Y007511D01*
X017015Y007511D01*
X017015Y007945D01*
X016910Y008051D01*
X016745Y008051D01*
X016745Y008233D01*
X016428Y008233D01*
X016428Y008308D01*
X016745Y008308D01*
X016745Y008537D01*
X016712Y008571D01*
X016745Y008604D01*
X016745Y008833D01*
X016428Y008833D01*
X016428Y008511D01*
X016428Y008309D01*
X016353Y008309D01*
X016353Y008511D01*
X016353Y008833D01*
X016428Y008833D01*
X016428Y008908D01*
X016745Y008908D01*
X016745Y009091D01*
X016910Y009091D01*
X017015Y009196D01*
X017015Y009572D01*
X017015Y009370D02*
X017217Y009370D01*
X017336Y009251D02*
X017015Y009251D01*
X016952Y009133D02*
X017366Y009133D01*
X017366Y009014D02*
X016745Y009014D01*
X016428Y008896D02*
X017366Y008896D01*
X017366Y008777D02*
X016745Y008777D01*
X016745Y008659D02*
X017366Y008659D01*
X017366Y008540D02*
X016742Y008540D01*
X016745Y008421D02*
X017366Y008421D01*
X017366Y008303D02*
X016428Y008303D01*
X016428Y008421D02*
X016353Y008421D01*
X016353Y008540D02*
X016428Y008540D01*
X016428Y008659D02*
X016353Y008659D01*
X016353Y008777D02*
X016428Y008777D01*
X015721Y008871D02*
X015706Y008921D01*
X015606Y009021D01*
X015706Y008971D02*
X015721Y008955D01*
X015721Y008871D01*
X015721Y008271D02*
X015706Y008171D01*
X015706Y007921D01*
X015956Y007671D01*
X015971Y007671D01*
X015706Y007271D02*
X015203Y007774D01*
X014447Y007774D01*
X014137Y007525D02*
X014758Y007525D01*
X014767Y007534D01*
X015104Y007534D01*
X015606Y007031D01*
X015805Y007031D01*
X016506Y007031D01*
X016705Y007031D01*
X017062Y007031D01*
X017008Y006900D01*
X017008Y006742D01*
X017010Y006736D01*
X016898Y006611D01*
X013435Y006611D01*
X013468Y006644D01*
X013762Y006644D01*
X013867Y006749D01*
X013867Y007043D01*
X013896Y007071D01*
X013896Y007270D01*
X013896Y008301D01*
X014031Y008301D01*
X014031Y008142D01*
X014031Y007886D01*
X014031Y007630D01*
X014137Y007525D01*
X014070Y007592D02*
X013896Y007592D01*
X013896Y007710D02*
X014031Y007710D01*
X014031Y007829D02*
X013896Y007829D01*
X013896Y007947D02*
X014031Y007947D01*
X014031Y008066D02*
X013896Y008066D01*
X013896Y008184D02*
X014031Y008184D01*
X014447Y008029D02*
X015564Y008029D01*
X015706Y008171D01*
X015164Y007473D02*
X013896Y007473D01*
X013896Y007355D02*
X015282Y007355D01*
X015401Y007236D02*
X013896Y007236D01*
X013896Y007117D02*
X015520Y007117D01*
X015706Y007271D02*
X016606Y007271D01*
X016606Y007536D01*
X016640Y007671D01*
X017015Y007710D02*
X017366Y007710D01*
X017366Y007592D02*
X017015Y007592D01*
X017015Y007829D02*
X017366Y007829D01*
X017366Y007947D02*
X017013Y007947D01*
X016745Y008066D02*
X017366Y008066D01*
X017366Y008184D02*
X016745Y008184D01*
X017606Y007621D02*
X018956Y006271D01*
X019956Y006271D01*
X020506Y005721D01*
X020992Y005932D02*
X021020Y005932D01*
X021086Y006051D02*
X020925Y006051D01*
X020807Y006169D02*
X021204Y006169D01*
X021266Y006288D02*
X020278Y006288D01*
X020160Y006406D02*
X021266Y006406D01*
X021266Y006525D02*
X019041Y006525D01*
X018922Y006643D02*
X021266Y006643D01*
X021296Y006762D02*
X018804Y006762D01*
X018685Y006880D02*
X021296Y006880D01*
X021300Y006999D02*
X018567Y006999D01*
X018448Y007117D02*
X020054Y007117D01*
X019964Y007236D02*
X018330Y007236D01*
X018211Y007355D02*
X019964Y007355D01*
X019964Y007592D02*
X017974Y007592D01*
X017856Y007710D02*
X019964Y007710D01*
X020283Y007710D02*
X020359Y007710D01*
X020359Y007592D02*
X020283Y007592D01*
X020282Y007473D02*
X018093Y007473D01*
X017846Y007829D02*
X020700Y007829D01*
X020990Y007471D02*
X021040Y007421D01*
X021656Y007421D01*
X021656Y006721D01*
X021671Y006721D01*
X021506Y006555D01*
X021506Y005721D01*
X021992Y005932D02*
X022020Y005932D01*
X022086Y006051D02*
X021925Y006051D01*
X021807Y006169D02*
X022204Y006169D01*
X022303Y006406D02*
X022378Y006406D01*
X022378Y006525D02*
X022303Y006525D01*
X022303Y006643D02*
X022378Y006643D01*
X022378Y006762D02*
X022303Y006762D01*
X022303Y006880D02*
X022378Y006880D01*
X022378Y006999D02*
X022303Y006999D01*
X022044Y007117D02*
X021967Y007117D01*
X021656Y007421D02*
X021656Y007455D01*
X021671Y007471D01*
X021379Y007829D02*
X021281Y007829D01*
X021676Y007947D02*
X017846Y007947D01*
X017846Y008066D02*
X021658Y008066D01*
X021672Y008184D02*
X017846Y008184D01*
X017846Y008303D02*
X021725Y008303D01*
X021862Y008421D02*
X017846Y008421D01*
X017846Y008540D02*
X022776Y008540D01*
X022776Y008421D02*
X022249Y008421D01*
X022386Y008303D02*
X022776Y008303D01*
X022776Y008184D02*
X022440Y008184D01*
X022454Y008066D02*
X022776Y008066D01*
X022776Y007947D02*
X022519Y007947D01*
X022632Y007829D02*
X022776Y007829D01*
X022776Y007710D02*
X022715Y007710D01*
X022715Y007592D02*
X022776Y007592D01*
X022776Y007473D02*
X022715Y007473D01*
X022715Y007355D02*
X022776Y007355D01*
X022776Y007236D02*
X022715Y007236D01*
X022776Y007117D02*
X022637Y007117D01*
X022683Y006999D02*
X022776Y006999D01*
X022776Y006880D02*
X022695Y006880D01*
X022695Y006762D02*
X022776Y006762D01*
X022776Y006643D02*
X022695Y006643D01*
X022695Y006525D02*
X022776Y006525D01*
X022776Y006406D02*
X022647Y006406D01*
X022776Y006288D02*
X021746Y006288D01*
X022006Y006406D02*
X022034Y006406D01*
X021375Y007117D02*
X021285Y007117D01*
X020695Y007117D02*
X020588Y007117D01*
X020359Y007117D02*
X020283Y007117D01*
X020283Y007236D02*
X020359Y007236D01*
X020359Y007355D02*
X020283Y007355D01*
X022056Y008071D02*
X022356Y007771D01*
X022356Y007471D01*
X022340Y007471D01*
X021134Y008777D02*
X021077Y008777D01*
X021440Y009121D02*
X021490Y009171D01*
X021506Y009171D01*
X021556Y009221D01*
X021806Y009221D01*
X022806Y010221D01*
X022564Y010318D02*
X019854Y010318D01*
X019861Y010437D02*
X021698Y010437D01*
X021465Y010555D02*
X019979Y010555D01*
X019816Y010200D02*
X022445Y010200D01*
X022327Y010081D02*
X021797Y010081D01*
X021797Y009963D02*
X022208Y009963D01*
X022089Y009844D02*
X021479Y009844D01*
X021479Y009963D02*
X021402Y009963D01*
X021402Y010081D02*
X021479Y010081D01*
X021797Y009725D02*
X021971Y009725D01*
X021852Y009607D02*
X021797Y009607D01*
X021734Y009488D02*
X021728Y009488D01*
X020771Y009821D02*
X020456Y009521D01*
X020394Y009844D02*
X017872Y009844D01*
X017753Y009963D02*
X020394Y009963D01*
X020394Y010081D02*
X019729Y010081D01*
X019456Y010371D02*
X020056Y010971D01*
X020090Y011021D01*
X020056Y011021D01*
X020946Y011911D01*
X020976Y011911D01*
X020759Y011385D02*
X021245Y011385D01*
X021196Y011266D02*
X020641Y011266D01*
X020522Y011148D02*
X021194Y011148D01*
X021194Y011029D02*
X020465Y011029D01*
X020465Y010911D02*
X021222Y010911D01*
X021272Y010792D02*
X020465Y010792D01*
X020393Y010674D02*
X021346Y010674D01*
X022113Y010437D02*
X022566Y010437D01*
X022566Y010555D02*
X022346Y010555D01*
X022465Y010674D02*
X022566Y010674D01*
X022566Y010792D02*
X022540Y010792D01*
X022517Y011504D02*
X022566Y011504D01*
X022566Y011622D02*
X022410Y011622D01*
X022268Y011741D02*
X022566Y011741D01*
X022216Y011859D02*
X022096Y011859D01*
X022096Y011836D02*
X022096Y012251D01*
X021641Y012251D01*
X021641Y011930D01*
X021734Y011836D01*
X022096Y011836D01*
X022096Y011978D02*
X022216Y011978D01*
X022216Y012096D02*
X022096Y012096D01*
X022096Y012215D02*
X022216Y012215D01*
X022096Y012333D02*
X019149Y012333D01*
X019149Y012215D02*
X020356Y012215D01*
X020356Y012096D02*
X019149Y012096D01*
X019089Y011978D02*
X020356Y011978D01*
X020356Y011859D02*
X017846Y011859D01*
X017846Y011741D02*
X020356Y011741D01*
X020318Y011622D02*
X017846Y011622D01*
X017846Y011504D02*
X018126Y011504D01*
X017965Y011385D02*
X017846Y011385D01*
X017846Y011266D02*
X017847Y011266D01*
X018090Y011171D02*
X018356Y011171D01*
X018090Y011171D02*
X017606Y010686D01*
X017606Y013071D01*
X017490Y013221D01*
X017540Y013136D01*
X017606Y013071D01*
X017865Y013045D02*
X017923Y013045D01*
X017923Y013163D02*
X017865Y013163D01*
X017865Y013282D02*
X017923Y013282D01*
X017923Y013400D02*
X017865Y013400D01*
X017842Y013519D02*
X017923Y013519D01*
X017956Y013637D02*
X016920Y013637D01*
X017111Y013874D02*
X014523Y013874D01*
X014490Y013756D02*
X015466Y013756D01*
X015406Y013637D02*
X014413Y013637D01*
X014227Y013519D02*
X015406Y013519D01*
X015406Y013400D02*
X014066Y013400D01*
X014171Y013282D02*
X015406Y013282D01*
X015406Y013163D02*
X014199Y013163D01*
X014199Y013045D02*
X015427Y013045D01*
X016466Y012926D02*
X014199Y012926D01*
X013316Y013400D02*
X012760Y013400D01*
X012765Y013282D02*
X013000Y013282D01*
X012973Y013163D02*
X012765Y013163D01*
X012765Y013045D02*
X012973Y013045D01*
X012973Y012926D02*
X012765Y012926D01*
X012727Y012808D02*
X012973Y012808D01*
X012973Y012689D02*
X012646Y012689D01*
X012646Y012570D02*
X012973Y012570D01*
X012973Y012452D02*
X012646Y012452D01*
X012646Y012333D02*
X012973Y012333D01*
X012973Y012215D02*
X012646Y012215D01*
X012646Y012096D02*
X012973Y012096D01*
X012973Y011978D02*
X012646Y011978D01*
X012646Y011859D02*
X012973Y011859D01*
X012973Y011741D02*
X012646Y011741D01*
X012646Y011622D02*
X013038Y011622D01*
X012646Y011504D02*
X015249Y011504D01*
X015368Y011622D02*
X014133Y011622D01*
X014199Y011741D02*
X015406Y011741D01*
X015406Y011859D02*
X014199Y011859D01*
X014199Y011978D02*
X015508Y011978D01*
X015466Y012096D02*
X014199Y012096D01*
X015131Y011385D02*
X012646Y011385D01*
X012646Y011266D02*
X015012Y011266D01*
X014894Y011148D02*
X012646Y011148D01*
X012646Y011029D02*
X013158Y011029D01*
X013066Y010911D02*
X012646Y010911D01*
X012767Y010792D02*
X013066Y010792D01*
X012817Y010674D02*
X013383Y010674D01*
X013383Y010792D02*
X013459Y010792D01*
X013459Y010911D02*
X013383Y010911D01*
X013383Y011029D02*
X013459Y011029D01*
X013684Y011029D02*
X013799Y011029D01*
X014090Y010671D02*
X014656Y010671D01*
X014756Y010671D01*
X015656Y011571D01*
X016006Y011571D01*
X016016Y011561D01*
X016026Y011561D01*
X016543Y011978D02*
X017366Y011978D01*
X017066Y011859D02*
X016946Y011859D01*
X016946Y011741D02*
X017066Y011741D01*
X017066Y011622D02*
X016946Y011622D01*
X016946Y011504D02*
X017066Y011504D01*
X017066Y011266D02*
X016946Y011266D01*
X016946Y011148D02*
X017066Y011148D01*
X017066Y011029D02*
X016946Y011029D01*
X016859Y010792D02*
X016783Y010792D01*
X016783Y010674D02*
X016859Y010674D01*
X016782Y010555D02*
X015039Y010555D01*
X014985Y010437D02*
X016464Y010437D01*
X016464Y010674D02*
X015098Y010674D01*
X015217Y010792D02*
X016473Y010792D01*
X016491Y011029D02*
X015454Y011029D01*
X015335Y010911D02*
X017366Y010911D01*
X017606Y010686D02*
X017490Y010521D01*
X017867Y010555D02*
X019101Y010555D01*
X019058Y010437D02*
X017867Y010437D01*
X017867Y010318D02*
X019058Y010318D01*
X019096Y010200D02*
X017817Y010200D01*
X017635Y010081D02*
X019182Y010081D01*
X019147Y010674D02*
X017933Y010674D01*
X018051Y010792D02*
X018229Y010792D01*
X018482Y010792D02*
X019066Y010792D01*
X019066Y010911D02*
X018659Y010911D01*
X018728Y011029D02*
X019383Y011029D01*
X019383Y011148D02*
X019459Y011148D01*
X019459Y011266D02*
X019383Y011266D01*
X019066Y011266D02*
X018747Y011266D01*
X018754Y011148D02*
X019066Y011148D01*
X018698Y011385D02*
X019805Y011385D01*
X020199Y011504D02*
X018586Y011504D01*
X017982Y011978D02*
X017846Y011978D01*
X017846Y012096D02*
X017923Y012096D01*
X017923Y012215D02*
X017846Y012215D01*
X017846Y012333D02*
X017923Y012333D01*
X017923Y012452D02*
X017846Y012452D01*
X017846Y012570D02*
X017923Y012570D01*
X017923Y012689D02*
X017846Y012689D01*
X017846Y012808D02*
X017923Y012808D01*
X017923Y012926D02*
X017846Y012926D01*
X017667Y013756D02*
X018610Y013756D01*
X018729Y013874D02*
X017800Y013874D01*
X017245Y013756D02*
X016585Y013756D01*
X017038Y014038D02*
X017038Y014058D01*
X019149Y013163D02*
X020384Y013163D01*
X020410Y012452D02*
X019149Y012452D01*
X021541Y012452D02*
X021641Y012452D01*
X021641Y012570D02*
X021596Y012570D01*
X021596Y012689D02*
X021641Y012689D01*
X021596Y012808D02*
X022566Y012808D01*
X022566Y012926D02*
X021596Y012926D01*
X021596Y013045D02*
X021621Y013045D01*
X021621Y013163D02*
X021568Y013163D01*
X022096Y012689D02*
X022216Y012689D01*
X022216Y012570D02*
X022096Y012570D01*
X022096Y012452D02*
X022216Y012452D01*
X021641Y012215D02*
X021596Y012215D01*
X021596Y012096D02*
X021641Y012096D01*
X021641Y011978D02*
X021596Y011978D01*
X021596Y011859D02*
X021711Y011859D01*
X017606Y009321D02*
X017606Y007621D01*
X017556Y007271D02*
X018556Y006271D01*
X018556Y005771D01*
X018506Y005721D01*
X017406Y006821D02*
X017006Y006371D01*
X012006Y006371D01*
X011506Y005871D01*
X011506Y005721D01*
X011606Y006321D02*
X011906Y006621D01*
X011606Y006321D02*
X003756Y006321D01*
X003506Y006071D01*
X003506Y005721D01*
X003099Y007592D02*
X002687Y007592D01*
X002798Y007710D02*
X003018Y007710D01*
X002971Y007829D02*
X002847Y007829D01*
X002339Y008540D02*
X002236Y008540D01*
X009094Y007710D02*
X010366Y007710D01*
X011760Y007236D02*
X012464Y007236D01*
X012535Y007355D02*
X011879Y007355D01*
X011997Y007473D02*
X012605Y007473D01*
X013107Y007355D02*
X013176Y007355D01*
X013867Y006999D02*
X017049Y006999D01*
X017008Y006880D02*
X013867Y006880D01*
X013867Y006762D02*
X017008Y006762D01*
X016927Y006643D02*
X013468Y006643D01*
X016606Y007271D02*
X017556Y007271D01*
X017606Y009321D02*
X017056Y009871D01*
X016606Y009871D01*
X015214Y010318D02*
X014845Y010318D01*
X014977Y010081D02*
X012646Y010081D01*
X012646Y009963D02*
X014858Y009963D01*
X015095Y010200D02*
X012817Y010200D01*
X012817Y010318D02*
X013152Y010318D01*
X013066Y010437D02*
X012817Y010437D01*
X012817Y010555D02*
X013066Y010555D01*
X013383Y010555D02*
X013459Y010555D01*
X013459Y010437D02*
X013383Y010437D01*
X013383Y010318D02*
X013459Y010318D01*
X013690Y010318D02*
X013793Y010318D01*
X014387Y010318D02*
X014467Y010318D01*
X014056Y009621D02*
X013906Y009471D01*
X013906Y008871D01*
X013979Y008797D01*
X014447Y008797D01*
X012440Y010471D02*
X012406Y010521D01*
X012406Y012921D01*
X012390Y012936D01*
X012390Y013121D01*
X011588Y013519D02*
X013316Y013519D01*
X011956Y013993D02*
X009246Y013993D01*
X009757Y014112D02*
X011884Y014112D01*
X008966Y017075D02*
X008846Y017075D01*
X008846Y017194D02*
X008966Y017194D01*
X008966Y017312D02*
X008846Y017312D01*
X008846Y017431D02*
X008966Y017431D01*
X008966Y017549D02*
X008846Y017549D01*
X005397Y018142D02*
X004564Y018142D01*
X004564Y018023D02*
X005359Y018023D01*
X005359Y017905D02*
X004564Y017905D01*
X014381Y011029D02*
X014481Y011029D01*
D25*
X014656Y010671D03*
X016256Y010871D03*
X018356Y011171D03*
X019456Y010371D03*
X021406Y010371D03*
X020106Y012221D03*
X020106Y013421D03*
X017006Y008521D03*
X015106Y008571D03*
X012806Y007821D03*
X014706Y006921D03*
X017406Y006821D03*
X019856Y008121D03*
X022056Y008071D03*
X011956Y009921D03*
X011056Y010921D03*
X010106Y010871D03*
X006306Y010921D03*
X004956Y011471D03*
X004506Y009621D03*
D26*
X002306Y010471D02*
X002256Y010521D01*
X002256Y011671D01*
X002306Y011721D01*
X003436Y012621D02*
X003486Y012591D01*
X003506Y012721D01*
X005696Y013481D02*
X005706Y013471D01*
X006356Y013521D01*
X006606Y013271D02*
X006721Y013271D01*
X006756Y013271D01*
X006756Y012631D01*
X006856Y012631D01*
X005876Y013531D02*
X005696Y013481D01*
X005704Y015021D02*
X005656Y015121D01*
X005756Y015221D01*
X006756Y015171D02*
X006806Y015121D01*
X006846Y015021D01*
X008436Y012471D02*
X008506Y012471D01*
X006856Y011511D02*
X006806Y011461D01*
X006806Y010371D01*
X006756Y010371D01*
X006806Y011121D02*
X006806Y011461D01*
X010876Y013381D02*
X010896Y013381D01*
X010906Y013371D01*
X011256Y013371D01*
X011721Y013121D02*
X011756Y012921D01*
X011756Y012381D01*
X011856Y012481D01*
X013586Y012471D02*
X013706Y012471D01*
X011756Y011221D02*
X011756Y010721D01*
X016026Y013381D02*
X016096Y013381D01*
X016106Y013371D01*
X016806Y012581D02*
X017006Y012531D01*
X017006Y011411D02*
X016466Y010871D01*
X016256Y010871D01*
X018536Y012821D02*
X018606Y012821D01*
X018606Y012871D01*
X017246Y015021D02*
X017206Y015171D01*
X017156Y015221D01*
X016156Y015271D02*
X016104Y015220D01*
X016104Y015021D01*
X012106Y015221D02*
X012096Y015021D01*
X012106Y015221D02*
X012006Y015321D01*
X011006Y015271D02*
X010956Y015221D01*
X010954Y015021D01*
X003656Y017471D02*
X003506Y017471D01*
X003656Y017471D02*
X003656Y017727D01*
X021236Y015091D02*
X021254Y015021D01*
X021256Y015071D02*
X021306Y015121D01*
X021256Y015071D02*
X021236Y015091D01*
X022306Y015121D02*
X022356Y014971D01*
X022376Y015091D01*
X022396Y015021D01*
D27*
X022356Y014971D02*
X022356Y014121D01*
X021956Y013521D02*
X021756Y013721D01*
X020986Y013721D01*
X020976Y013731D01*
X021956Y013521D02*
X022066Y013521D01*
X022156Y013431D01*
X020976Y012821D02*
X018606Y012821D01*
X018606Y012871D02*
X018656Y013171D01*
X018656Y013321D01*
X019256Y013921D01*
X019256Y014814D01*
X017456Y014121D02*
X017206Y014371D01*
X017206Y015171D01*
X017156Y015221D02*
X017156Y016971D01*
X016156Y016971D02*
X016156Y015271D01*
X014106Y014814D02*
X014106Y013921D01*
X013656Y013471D01*
X013656Y012521D01*
X013706Y012471D01*
X016026Y012471D01*
X016806Y012581D02*
X016806Y013205D01*
X016821Y013221D02*
X016756Y013286D01*
X016756Y013321D01*
X016356Y013321D01*
X016306Y013371D01*
X016106Y013371D01*
X012356Y014121D02*
X012096Y014380D01*
X012096Y015021D01*
X012006Y015321D02*
X012006Y016971D01*
X011006Y016971D02*
X011006Y015271D01*
X008906Y014814D02*
X008906Y013721D01*
X008456Y013271D01*
X008456Y012521D01*
X008506Y012471D01*
X010876Y012471D01*
X011506Y013121D02*
X011721Y013121D01*
X011506Y013121D02*
X011256Y013371D01*
X007156Y014121D02*
X006806Y014471D01*
X006806Y015121D01*
X006756Y015171D02*
X006756Y016971D01*
X005756Y016971D02*
X005756Y015221D01*
X003656Y014814D02*
X003656Y014171D01*
X004306Y013521D01*
X003506Y012721D01*
X003436Y012621D02*
X005876Y012621D01*
X006606Y013271D02*
X006356Y013521D01*
X002306Y011721D02*
X002306Y016271D01*
X003506Y017471D01*
X002306Y010471D02*
X002306Y010071D01*
X002756Y009621D01*
X004506Y009621D01*
X006256Y009621D01*
X007456Y008421D01*
X008306Y008421D01*
X008306Y008427D01*
X008362Y008271D01*
X005449Y008271D02*
X005356Y008364D01*
X005356Y008371D01*
X004256Y008371D01*
X003706Y008921D01*
X003456Y008921D01*
X021306Y015121D02*
X021306Y016971D01*
X022306Y016971D02*
X022306Y015121D01*
D28*
X022356Y014121D03*
X019256Y013921D03*
X017456Y014121D03*
X014106Y013921D03*
X012356Y014121D03*
X008906Y013721D03*
X007156Y014121D03*
X004306Y013521D03*
M02*
