G75*
G70*
%OFA0B0*%
%FSLAX24Y24*%
%IPPOS*%
%LPD*%
%AMOC8*
5,1,8,0,0,1.08239X$1,22.5*
%
%ADD10C,0.1143*%
%ADD11C,0.0060*%
%ADD12C,0.0780*%
%ADD13C,0.0252*%
%ADD14C,0.0730*%
%ADD15C,0.0513*%
%ADD16R,0.0710X0.0540*%
%ADD17R,0.0720X0.0060*%
%ADD18R,0.0480X0.0470*%
%ADD19C,0.0516*%
%ADD20C,0.0556*%
D10*
X009258Y011121D03*
X028058Y011121D03*
D11*
X003598Y009421D02*
X003598Y009101D01*
X003384Y009101D02*
X003384Y009421D01*
X003491Y009528D01*
X003598Y009421D01*
X003384Y009421D02*
X003277Y009528D01*
X003171Y009528D01*
X003171Y009101D01*
X002953Y009208D02*
X002953Y009421D01*
X002846Y009528D01*
X002633Y009528D01*
X002526Y009421D01*
X002526Y009208D01*
X002633Y009101D01*
X002846Y009101D01*
X002953Y009208D01*
X002310Y009101D02*
X002203Y009208D01*
X002203Y009635D01*
X002096Y009528D02*
X002310Y009528D01*
X001880Y009528D02*
X001667Y009528D01*
X001774Y009635D02*
X001774Y009208D01*
X001880Y009101D01*
X001449Y009208D02*
X001449Y009421D01*
X001343Y009528D01*
X001129Y009528D01*
X001022Y009421D01*
X001022Y009208D01*
X001129Y009101D01*
X001343Y009101D01*
X001449Y009208D01*
X000805Y009208D02*
X000698Y009101D01*
X000378Y009101D01*
X000378Y009741D01*
X000378Y009528D02*
X000698Y009528D01*
X000805Y009421D01*
X000805Y009208D01*
D12*
X008658Y005721D03*
X009658Y005721D03*
X010658Y005721D03*
X011658Y005721D03*
X012658Y005721D03*
X013658Y005721D03*
X014658Y005721D03*
X015658Y005721D03*
X016658Y005721D03*
X017658Y005721D03*
X018658Y005721D03*
X019658Y005721D03*
X020658Y005721D03*
X021658Y005721D03*
X022658Y005721D03*
X023658Y005721D03*
X024658Y005721D03*
X025658Y005721D03*
X026658Y005721D03*
X027658Y005721D03*
X028658Y005721D03*
D13*
X024933Y012434D02*
X025645Y013146D01*
X024933Y012434D02*
X024221Y013146D01*
X024933Y013858D01*
X025645Y013146D01*
X025184Y012685D02*
X024682Y012685D01*
X024431Y012936D02*
X025435Y012936D01*
X025604Y013187D02*
X024262Y013187D01*
X024513Y013438D02*
X025353Y013438D01*
X025102Y013689D02*
X024764Y013689D01*
X023095Y015846D02*
X022383Y015134D01*
X021671Y015846D01*
X022383Y016558D01*
X023095Y015846D01*
X022634Y015385D02*
X022132Y015385D01*
X021881Y015636D02*
X022885Y015636D01*
X023054Y015887D02*
X021712Y015887D01*
X021963Y016138D02*
X022803Y016138D01*
X022552Y016389D02*
X022214Y016389D01*
X020395Y013146D02*
X019683Y012434D01*
X018971Y013146D01*
X019683Y013858D01*
X020395Y013146D01*
X019934Y012685D02*
X019432Y012685D01*
X019181Y012936D02*
X020185Y012936D01*
X020354Y013187D02*
X019012Y013187D01*
X019263Y013438D02*
X020103Y013438D01*
X019852Y013689D02*
X019514Y013689D01*
X017895Y015846D02*
X017183Y015134D01*
X016471Y015846D01*
X017183Y016558D01*
X017895Y015846D01*
X017434Y015385D02*
X016932Y015385D01*
X016681Y015636D02*
X017685Y015636D01*
X017854Y015887D02*
X016512Y015887D01*
X016763Y016138D02*
X017603Y016138D01*
X017352Y016389D02*
X017014Y016389D01*
X012995Y015846D02*
X012283Y015134D01*
X011571Y015846D01*
X012283Y016558D01*
X012995Y015846D01*
X012534Y015385D02*
X012032Y015385D01*
X011781Y015636D02*
X012785Y015636D01*
X012954Y015887D02*
X011612Y015887D01*
X011863Y016138D02*
X012703Y016138D01*
X012452Y016389D02*
X012114Y016389D01*
X015195Y013146D02*
X014483Y012434D01*
X013771Y013146D01*
X014483Y013858D01*
X015195Y013146D01*
X014734Y012685D02*
X014232Y012685D01*
X013981Y012936D02*
X014985Y012936D01*
X015154Y013187D02*
X013812Y013187D01*
X014063Y013438D02*
X014903Y013438D01*
X014652Y013689D02*
X014314Y013689D01*
X010295Y013146D02*
X009583Y012434D01*
X008871Y013146D01*
X009583Y013858D01*
X010295Y013146D01*
X009834Y012685D02*
X009332Y012685D01*
X009081Y012936D02*
X010085Y012936D01*
X010254Y013187D02*
X008912Y013187D01*
X009163Y013438D02*
X010003Y013438D01*
X009752Y013689D02*
X009414Y013689D01*
X027633Y015134D02*
X028345Y015846D01*
X027633Y015134D02*
X026921Y015846D01*
X027633Y016558D01*
X028345Y015846D01*
X027884Y015385D02*
X027382Y015385D01*
X027131Y015636D02*
X028135Y015636D01*
X028304Y015887D02*
X026962Y015887D01*
X027213Y016138D02*
X028053Y016138D01*
X027802Y016389D02*
X027464Y016389D01*
D14*
X025408Y016971D03*
X024408Y016971D03*
X020158Y016971D03*
X019158Y016971D03*
X015008Y016971D03*
X014008Y016971D03*
X009858Y016971D03*
X008858Y016971D03*
X027708Y008921D03*
X027708Y007921D03*
D15*
X028708Y007921D03*
X028708Y008921D03*
X025408Y017971D03*
X024408Y017971D03*
X020158Y017971D03*
X019158Y017971D03*
X015008Y017971D03*
X014008Y017971D03*
X009858Y017971D03*
X008858Y017971D03*
D16*
X025658Y008671D03*
X025658Y008071D03*
D17*
X025658Y008371D03*
D18*
X024658Y008255D03*
X024658Y007586D03*
X023058Y007586D03*
X023058Y008255D03*
X020658Y008255D03*
X020658Y007586D03*
X012758Y007586D03*
X012758Y008255D03*
D19*
X011308Y008121D03*
X009108Y008071D03*
X009758Y010371D03*
X011708Y010371D03*
X012808Y011171D03*
X011058Y012221D03*
X011058Y013421D03*
X014908Y010871D03*
X016508Y010671D03*
X019208Y009921D03*
X020108Y010921D03*
X021058Y010871D03*
X024858Y010921D03*
X026208Y011471D03*
X026658Y009621D03*
X018358Y007821D03*
X016458Y006921D03*
X016058Y008571D03*
X014158Y008521D03*
X013758Y006821D03*
D20*
X022258Y013721D03*
X024008Y014121D03*
X026858Y013521D03*
X018808Y014121D03*
X017058Y013921D03*
X013708Y014121D03*
X011908Y013921D03*
X008808Y014121D03*
M02*
