G75*
G70*
%OFA0B0*%
%FSLAX24Y24*%
%IPPOS*%
%LPD*%
%AMOC8*
5,1,8,0,0,1.08239X$1,22.5*
%
%ADD10C,0.1143*%
%ADD11C,0.0060*%
%ADD12C,0.0780*%
%ADD13R,0.0960X0.0560*%
%ADD14R,0.0946X0.1497*%
%ADD15R,0.0790X0.0710*%
%ADD16R,0.1576X0.1182*%
%ADD17C,0.0730*%
%ADD18C,0.0513*%
%ADD19R,0.0474X0.0474*%
%ADD20R,0.0470X0.0480*%
%ADD21R,0.0631X0.1143*%
%ADD22R,0.0552X0.0218*%
%ADD23R,0.1182X0.1576*%
%ADD24C,0.0516*%
%ADD25C,0.0556*%
D10*
X003106Y011121D03*
X021906Y011121D03*
D11*
X025906Y008648D02*
X026119Y008648D01*
X026012Y008755D02*
X026012Y008328D01*
X026119Y008221D01*
X026335Y008328D02*
X026442Y008221D01*
X026656Y008221D01*
X026762Y008328D01*
X026762Y008541D01*
X026656Y008648D01*
X026442Y008648D01*
X026335Y008541D01*
X026335Y008328D01*
X026980Y008221D02*
X027300Y008221D01*
X027407Y008328D01*
X027407Y008541D01*
X027300Y008648D01*
X026980Y008648D01*
X026980Y008007D01*
D12*
X002506Y005721D03*
X003506Y005721D03*
X004506Y005721D03*
X005506Y005721D03*
X006506Y005721D03*
X007506Y005721D03*
X008506Y005721D03*
X009506Y005721D03*
X010506Y005721D03*
X011506Y005721D03*
X012506Y005721D03*
X013506Y005721D03*
X014506Y005721D03*
X015506Y005721D03*
X016506Y005721D03*
X017506Y005721D03*
X018506Y005721D03*
X019506Y005721D03*
X020506Y005721D03*
X021506Y005721D03*
X022506Y005721D03*
D13*
X016026Y011561D03*
X016026Y012471D03*
X016026Y013381D03*
X020976Y013731D03*
X020976Y012821D03*
X020976Y011911D03*
X010876Y011561D03*
X010876Y012471D03*
X010876Y013381D03*
X005876Y013531D03*
X005876Y012621D03*
X005876Y011711D03*
D14*
X003436Y012621D03*
X008436Y012471D03*
X013586Y012471D03*
X018536Y012821D03*
D15*
X017006Y012531D03*
X017006Y011411D03*
X011856Y011361D03*
X011856Y012481D03*
X006856Y012631D03*
X006856Y011511D03*
X022156Y012311D03*
X022156Y013431D03*
D16*
X019256Y014814D03*
X019256Y017727D03*
X014106Y017727D03*
X014106Y014814D03*
X008906Y014814D03*
X008906Y017727D03*
X003656Y017727D03*
X003656Y014814D03*
D17*
X005756Y016971D03*
X006756Y016971D03*
X011006Y016971D03*
X012006Y016971D03*
X016156Y016971D03*
X017156Y016971D03*
X021306Y016971D03*
X022306Y016971D03*
X003456Y008921D03*
X003456Y007921D03*
D18*
X002456Y007921D03*
X002456Y008921D03*
X005756Y017971D03*
X006756Y017971D03*
X011006Y017971D03*
X012006Y017971D03*
X016156Y017971D03*
X017156Y017971D03*
X021306Y017971D03*
X022306Y017971D03*
D19*
X017490Y010521D03*
X016821Y010521D03*
X020771Y009821D03*
X021440Y009821D03*
X020990Y007471D03*
X020321Y007471D03*
X013490Y007021D03*
X012821Y007021D03*
X012440Y010471D03*
X011771Y010471D03*
X007440Y010421D03*
X006771Y010421D03*
D20*
X004940Y010721D03*
X004271Y010721D03*
X006721Y013271D03*
X007390Y013271D03*
X008921Y010721D03*
X009590Y010721D03*
X010521Y009821D03*
X011190Y009821D03*
X011190Y009021D03*
X010521Y009021D03*
X010521Y008121D03*
X011190Y008121D03*
X011190Y007321D03*
X010521Y007321D03*
X013421Y010671D03*
X014090Y010671D03*
X015971Y009471D03*
X016640Y009471D03*
X016390Y008871D03*
X015721Y008871D03*
X015721Y008271D03*
X016390Y008271D03*
X016640Y007671D03*
X015971Y007671D03*
X020771Y009121D03*
X021440Y009121D03*
X021671Y007471D03*
X022340Y007471D03*
X022340Y006721D03*
X021671Y006721D03*
X020090Y011021D03*
X019421Y011021D03*
X017490Y013221D03*
X016821Y013221D03*
X012390Y013121D03*
X011721Y013121D03*
D21*
X012096Y015021D03*
X010954Y015021D03*
X006846Y015021D03*
X005704Y015021D03*
X016104Y015021D03*
X017246Y015021D03*
X021254Y015021D03*
X022396Y015021D03*
D22*
X014447Y009309D03*
X014447Y009053D03*
X014447Y008797D03*
X014447Y008541D03*
X014447Y008285D03*
X014447Y008029D03*
X014447Y007774D03*
X012164Y007774D03*
X012164Y008029D03*
X012164Y008285D03*
X012164Y008541D03*
X012164Y008797D03*
X012164Y009053D03*
X012164Y009309D03*
D23*
X008362Y008271D03*
X005449Y008271D03*
D24*
X004506Y009621D03*
X006306Y010921D03*
X004956Y011471D03*
X010106Y010871D03*
X011056Y010921D03*
X011956Y009921D03*
X014656Y010671D03*
X016256Y010871D03*
X018356Y011171D03*
X019456Y010371D03*
X021406Y010371D03*
X020106Y012221D03*
X020106Y013421D03*
X017006Y008521D03*
X015106Y008571D03*
X012806Y007821D03*
X014706Y006921D03*
X017406Y006821D03*
X019856Y008121D03*
X022056Y008071D03*
D25*
X019256Y013921D03*
X017456Y014121D03*
X014106Y013921D03*
X012356Y014121D03*
X008906Y013721D03*
X007156Y014121D03*
X004306Y013521D03*
X022356Y014121D03*
M02*
