%
M48
M72
T01C0.0236
T02C0.0276
T03C0.0394
T04C0.0433
T05C0.1063
%
T01
X12806Y7821
X14706Y6921
X15106Y8571
X17006Y8521
X17406Y6821
X19856Y8121
X22056Y8071
X21406Y10371
X19456Y10371
X18356Y11171
X20106Y12221
X20106Y13421
X16256Y10871
X14656Y10671
X11956Y9921
X11056Y10921
X10106Y10871
X6306Y10921
X4956Y11471
X4506Y9621
T02
X4306Y13521
X7156Y14121
X8906Y13721
X12356Y14121
X14106Y13921
X17456Y14121
X19256Y13921
X22356Y14121
T03
X2506Y5721
X3506Y5721
X4506Y5721
X5506Y5721
X6506Y5721
X7506Y5721
X8506Y5721
X9506Y5721
X10506Y5721
X11506Y5721
X12506Y5721
X13506Y5721
X14506Y5721
X15506Y5721
X16506Y5721
X17506Y5721
X18506Y5721
X19506Y5721
X20506Y5721
X21506Y5721
X22506Y5721
T04
X22306Y16971
X21306Y16971
X21306Y17971
X22306Y17971
X17156Y17971
X16156Y17971
X16156Y16971
X17156Y16971
X12006Y16971
X11006Y16971
X11006Y17971
X12006Y17971
X6756Y17971
X5756Y17971
X5756Y16971
X6756Y16971
X3456Y8921
X2456Y8921
X2456Y7921
X3456Y7921
T05
X3106Y11121
X21906Y11121
M30
