G75*
G70*
%OFA0B0*%
%FSLAX24Y24*%
%IPPOS*%
%LPD*%
%AMOC8*
5,1,8,0,0,1.08239X$1,22.5*
%
%ADD10C,0.0100*%
%ADD11C,0.0000*%
%ADD12C,0.0060*%
%ADD13C,0.0700*%
%ADD14C,0.0236*%
%ADD15C,0.0650*%
%ADD16R,0.0630X0.0460*%
%ADD17R,0.0400X0.0390*%
%ADD18C,0.0120*%
%ADD19C,0.0436*%
%ADD20C,0.0160*%
%ADD21C,0.0476*%
%ADD22C,0.0240*%
%ADD23C,0.0320*%
D10*
X008158Y005221D02*
X008158Y005629D01*
X008158Y006023D02*
X008158Y006431D01*
X008158Y006825D02*
X008158Y007233D01*
X008158Y007627D02*
X008158Y008035D01*
X008158Y008429D02*
X008158Y008837D01*
X008158Y009231D02*
X008158Y009639D01*
X008158Y010033D02*
X008158Y010441D01*
X008158Y010835D02*
X008158Y011243D01*
X008158Y011637D02*
X008158Y012045D01*
X008158Y012439D02*
X008158Y012847D01*
X008158Y013240D02*
X008158Y013649D01*
X008158Y014042D02*
X008158Y014451D01*
X008158Y014844D02*
X008158Y015253D01*
X008158Y015646D02*
X008158Y016055D01*
X008158Y016448D02*
X008158Y016857D01*
X008158Y017250D02*
X008158Y017659D01*
X008158Y018052D02*
X008158Y018461D01*
X008556Y018461D01*
X008950Y018461D02*
X009349Y018461D01*
X009742Y018461D02*
X010141Y018461D01*
X010535Y018461D02*
X010933Y018461D01*
X011327Y018461D02*
X011726Y018461D01*
X012119Y018461D02*
X012518Y018461D01*
X012912Y018461D02*
X013310Y018461D01*
X013704Y018461D02*
X014103Y018461D01*
X014496Y018461D02*
X014895Y018461D01*
X015289Y018461D02*
X015687Y018461D01*
X016081Y018461D02*
X016480Y018461D01*
X016873Y018461D02*
X017272Y018461D01*
X017666Y018461D02*
X018064Y018461D01*
X018458Y018461D02*
X018857Y018461D01*
X019250Y018461D02*
X019649Y018461D01*
X020043Y018461D02*
X020441Y018461D01*
X020835Y018461D02*
X021234Y018461D01*
X021627Y018461D02*
X022026Y018461D01*
X022420Y018461D02*
X022818Y018461D01*
X023212Y018461D02*
X023611Y018461D01*
X024004Y018461D02*
X024403Y018461D01*
X024797Y018461D02*
X025195Y018461D01*
X025589Y018461D02*
X025987Y018461D01*
X026381Y018461D02*
X026780Y018461D01*
X027174Y018461D02*
X027572Y018461D01*
X027966Y018461D02*
X028364Y018461D01*
X028758Y018461D02*
X029157Y018461D01*
X029158Y018461D02*
X029158Y018053D01*
X029158Y017659D02*
X029158Y017251D01*
X029158Y016857D02*
X029158Y016449D01*
X029158Y016055D02*
X029158Y015647D01*
X029158Y015253D02*
X029158Y014845D01*
X029158Y014451D02*
X029158Y014043D01*
X029158Y013649D02*
X029158Y013241D01*
X029158Y012847D02*
X029158Y012439D01*
X029158Y012045D02*
X029158Y011637D01*
X029158Y011243D02*
X029158Y010835D01*
X029158Y010441D02*
X029158Y010033D01*
X029158Y009639D02*
X029158Y009231D01*
X029158Y008837D02*
X029158Y008429D01*
X029158Y008035D02*
X029158Y007627D01*
X029158Y007233D02*
X029158Y006825D01*
X029158Y006431D02*
X029158Y006023D01*
X029158Y005629D02*
X029158Y005221D01*
X028759Y005221D01*
X028365Y005221D02*
X027967Y005221D01*
X027573Y005221D02*
X027174Y005221D01*
X026781Y005221D02*
X026382Y005221D01*
X025988Y005221D02*
X025590Y005221D01*
X025196Y005221D02*
X024798Y005221D01*
X024404Y005221D02*
X024005Y005221D01*
X023611Y005221D02*
X023213Y005221D01*
X022819Y005221D02*
X022421Y005221D01*
X022027Y005221D02*
X021628Y005221D01*
X021235Y005221D02*
X020836Y005221D01*
X020442Y005221D02*
X020044Y005221D01*
X019650Y005221D02*
X019251Y005221D01*
X018858Y005221D02*
X018459Y005221D01*
X018065Y005221D02*
X017667Y005221D01*
X017273Y005221D02*
X016874Y005221D01*
X016481Y005221D02*
X016082Y005221D01*
X015688Y005221D02*
X015290Y005221D01*
X014896Y005221D02*
X014497Y005221D01*
X014104Y005221D02*
X013705Y005221D01*
X013311Y005221D02*
X012913Y005221D01*
X012519Y005221D02*
X012120Y005221D01*
X011727Y005221D02*
X011328Y005221D01*
X010934Y005221D02*
X010536Y005221D01*
X010142Y005221D02*
X009743Y005221D01*
X009350Y005221D02*
X008951Y005221D01*
X008557Y005221D02*
X008159Y005221D01*
X011957Y007371D02*
X011957Y007571D01*
X012024Y007638D01*
X012158Y007638D01*
X012224Y007571D01*
X012224Y007371D01*
X012224Y007504D02*
X012358Y007638D01*
X012358Y007831D02*
X012091Y008098D01*
X012024Y008098D01*
X011957Y008031D01*
X011957Y007898D01*
X012024Y007831D01*
X012358Y007831D02*
X012358Y008098D01*
X012291Y008291D02*
X012358Y008358D01*
X012358Y008492D01*
X012291Y008558D01*
X012224Y008558D01*
X012158Y008492D01*
X012158Y008291D01*
X012291Y008291D01*
X012158Y008291D02*
X012024Y008425D01*
X011957Y008558D01*
X011957Y007371D02*
X012358Y007371D01*
X019857Y007371D02*
X019857Y007571D01*
X019924Y007638D01*
X020058Y007638D01*
X020124Y007571D01*
X020124Y007371D01*
X020124Y007504D02*
X020258Y007638D01*
X020258Y007831D02*
X019991Y008098D01*
X019924Y008098D01*
X019857Y008031D01*
X019857Y007898D01*
X019924Y007831D01*
X020258Y007831D02*
X020258Y008098D01*
X020191Y008291D02*
X020258Y008358D01*
X020258Y008492D01*
X020191Y008558D01*
X020058Y008558D01*
X019991Y008492D01*
X019991Y008425D01*
X020058Y008291D01*
X019857Y008291D01*
X019857Y008558D01*
X019857Y007371D02*
X020258Y007371D01*
X022257Y007371D02*
X022257Y007571D01*
X022324Y007638D01*
X022458Y007638D01*
X022524Y007571D01*
X022524Y007371D01*
X022524Y007504D02*
X022658Y007638D01*
X022658Y007831D02*
X022391Y008098D01*
X022324Y008098D01*
X022257Y008031D01*
X022257Y007898D01*
X022324Y007831D01*
X022658Y007831D02*
X022658Y008098D01*
X022458Y008291D02*
X022458Y008558D01*
X022658Y008492D02*
X022257Y008492D01*
X022458Y008291D01*
X023857Y008358D02*
X023857Y008492D01*
X023924Y008558D01*
X023991Y008558D01*
X024058Y008492D01*
X024124Y008558D01*
X024191Y008558D01*
X024258Y008492D01*
X024258Y008358D01*
X024191Y008291D01*
X024058Y008425D02*
X024058Y008492D01*
X023924Y008291D02*
X023857Y008358D01*
X023924Y008098D02*
X023857Y008031D01*
X023857Y007898D01*
X023924Y007831D01*
X023924Y007638D02*
X024058Y007638D01*
X024124Y007571D01*
X024124Y007371D01*
X024124Y007504D02*
X024258Y007638D01*
X024258Y007831D02*
X023991Y008098D01*
X023924Y008098D01*
X024258Y008098D02*
X024258Y007831D01*
X023924Y007638D02*
X023857Y007571D01*
X023857Y007371D01*
X024258Y007371D01*
X022658Y007371D02*
X022257Y007371D01*
X025907Y007298D02*
X025907Y007165D01*
X025907Y007231D02*
X026241Y007231D01*
X026308Y007165D01*
X026308Y007098D01*
X026241Y007031D01*
X026241Y006838D02*
X026308Y006771D01*
X026308Y006637D01*
X026241Y006571D01*
X026108Y006637D02*
X026108Y006771D01*
X026174Y006838D01*
X026241Y006838D01*
X026108Y006637D02*
X026041Y006571D01*
X025974Y006571D01*
X025907Y006637D01*
X025907Y006771D01*
X025974Y006838D01*
X026041Y007491D02*
X025907Y007625D01*
X026308Y007625D01*
X026308Y007758D02*
X026308Y007491D01*
X026368Y014821D02*
X026635Y014821D01*
X026502Y014821D02*
X026502Y015221D01*
X026368Y015088D01*
X025908Y015221D02*
X025908Y014821D01*
X026175Y014821D01*
X021385Y014821D02*
X021118Y014821D01*
X021385Y015088D01*
X021385Y015154D01*
X021318Y015221D01*
X021185Y015221D01*
X021118Y015154D01*
X020658Y015221D02*
X020658Y014821D01*
X020925Y014821D01*
X016235Y014887D02*
X016168Y014821D01*
X016035Y014821D01*
X015968Y014887D01*
X016102Y015021D02*
X016168Y015021D01*
X016235Y014954D01*
X016235Y014887D01*
X016168Y015021D02*
X016235Y015088D01*
X016235Y015154D01*
X016168Y015221D01*
X016035Y015221D01*
X015968Y015154D01*
X015775Y014821D02*
X015508Y014821D01*
X015508Y015221D01*
X011285Y015021D02*
X011018Y015021D01*
X011218Y015221D01*
X011218Y014821D01*
X010825Y014821D02*
X010558Y014821D01*
X010558Y015221D01*
D11*
X009641Y017971D02*
X009643Y018001D01*
X009649Y018030D01*
X009659Y018057D01*
X009673Y018084D01*
X009690Y018108D01*
X009710Y018130D01*
X009733Y018148D01*
X009758Y018164D01*
X009785Y018175D01*
X009814Y018183D01*
X009843Y018187D01*
X009873Y018187D01*
X009902Y018183D01*
X009931Y018175D01*
X009958Y018164D01*
X009983Y018148D01*
X010006Y018130D01*
X010026Y018108D01*
X010043Y018084D01*
X010057Y018057D01*
X010067Y018030D01*
X010073Y018001D01*
X010075Y017971D01*
X010073Y017941D01*
X010067Y017912D01*
X010057Y017885D01*
X010043Y017858D01*
X010026Y017834D01*
X010006Y017812D01*
X009983Y017794D01*
X009958Y017778D01*
X009931Y017767D01*
X009902Y017759D01*
X009873Y017755D01*
X009843Y017755D01*
X009814Y017759D01*
X009785Y017767D01*
X009758Y017778D01*
X009733Y017794D01*
X009710Y017812D01*
X009690Y017834D01*
X009673Y017858D01*
X009659Y017885D01*
X009649Y017912D01*
X009643Y017941D01*
X009641Y017971D01*
X008641Y017971D02*
X008643Y018001D01*
X008649Y018030D01*
X008659Y018057D01*
X008673Y018084D01*
X008690Y018108D01*
X008710Y018130D01*
X008733Y018148D01*
X008758Y018164D01*
X008785Y018175D01*
X008814Y018183D01*
X008843Y018187D01*
X008873Y018187D01*
X008902Y018183D01*
X008931Y018175D01*
X008958Y018164D01*
X008983Y018148D01*
X009006Y018130D01*
X009026Y018108D01*
X009043Y018084D01*
X009057Y018057D01*
X009067Y018030D01*
X009073Y018001D01*
X009075Y017971D01*
X009073Y017941D01*
X009067Y017912D01*
X009057Y017885D01*
X009043Y017858D01*
X009026Y017834D01*
X009006Y017812D01*
X008983Y017794D01*
X008958Y017778D01*
X008931Y017767D01*
X008902Y017759D01*
X008873Y017755D01*
X008843Y017755D01*
X008814Y017759D01*
X008785Y017767D01*
X008758Y017778D01*
X008733Y017794D01*
X008710Y017812D01*
X008690Y017834D01*
X008673Y017858D01*
X008659Y017885D01*
X008649Y017912D01*
X008643Y017941D01*
X008641Y017971D01*
X013791Y017971D02*
X013793Y018001D01*
X013799Y018030D01*
X013809Y018057D01*
X013823Y018084D01*
X013840Y018108D01*
X013860Y018130D01*
X013883Y018148D01*
X013908Y018164D01*
X013935Y018175D01*
X013964Y018183D01*
X013993Y018187D01*
X014023Y018187D01*
X014052Y018183D01*
X014081Y018175D01*
X014108Y018164D01*
X014133Y018148D01*
X014156Y018130D01*
X014176Y018108D01*
X014193Y018084D01*
X014207Y018057D01*
X014217Y018030D01*
X014223Y018001D01*
X014225Y017971D01*
X014223Y017941D01*
X014217Y017912D01*
X014207Y017885D01*
X014193Y017858D01*
X014176Y017834D01*
X014156Y017812D01*
X014133Y017794D01*
X014108Y017778D01*
X014081Y017767D01*
X014052Y017759D01*
X014023Y017755D01*
X013993Y017755D01*
X013964Y017759D01*
X013935Y017767D01*
X013908Y017778D01*
X013883Y017794D01*
X013860Y017812D01*
X013840Y017834D01*
X013823Y017858D01*
X013809Y017885D01*
X013799Y017912D01*
X013793Y017941D01*
X013791Y017971D01*
X014791Y017971D02*
X014793Y018001D01*
X014799Y018030D01*
X014809Y018057D01*
X014823Y018084D01*
X014840Y018108D01*
X014860Y018130D01*
X014883Y018148D01*
X014908Y018164D01*
X014935Y018175D01*
X014964Y018183D01*
X014993Y018187D01*
X015023Y018187D01*
X015052Y018183D01*
X015081Y018175D01*
X015108Y018164D01*
X015133Y018148D01*
X015156Y018130D01*
X015176Y018108D01*
X015193Y018084D01*
X015207Y018057D01*
X015217Y018030D01*
X015223Y018001D01*
X015225Y017971D01*
X015223Y017941D01*
X015217Y017912D01*
X015207Y017885D01*
X015193Y017858D01*
X015176Y017834D01*
X015156Y017812D01*
X015133Y017794D01*
X015108Y017778D01*
X015081Y017767D01*
X015052Y017759D01*
X015023Y017755D01*
X014993Y017755D01*
X014964Y017759D01*
X014935Y017767D01*
X014908Y017778D01*
X014883Y017794D01*
X014860Y017812D01*
X014840Y017834D01*
X014823Y017858D01*
X014809Y017885D01*
X014799Y017912D01*
X014793Y017941D01*
X014791Y017971D01*
X018941Y017971D02*
X018943Y018001D01*
X018949Y018030D01*
X018959Y018057D01*
X018973Y018084D01*
X018990Y018108D01*
X019010Y018130D01*
X019033Y018148D01*
X019058Y018164D01*
X019085Y018175D01*
X019114Y018183D01*
X019143Y018187D01*
X019173Y018187D01*
X019202Y018183D01*
X019231Y018175D01*
X019258Y018164D01*
X019283Y018148D01*
X019306Y018130D01*
X019326Y018108D01*
X019343Y018084D01*
X019357Y018057D01*
X019367Y018030D01*
X019373Y018001D01*
X019375Y017971D01*
X019373Y017941D01*
X019367Y017912D01*
X019357Y017885D01*
X019343Y017858D01*
X019326Y017834D01*
X019306Y017812D01*
X019283Y017794D01*
X019258Y017778D01*
X019231Y017767D01*
X019202Y017759D01*
X019173Y017755D01*
X019143Y017755D01*
X019114Y017759D01*
X019085Y017767D01*
X019058Y017778D01*
X019033Y017794D01*
X019010Y017812D01*
X018990Y017834D01*
X018973Y017858D01*
X018959Y017885D01*
X018949Y017912D01*
X018943Y017941D01*
X018941Y017971D01*
X019941Y017971D02*
X019943Y018001D01*
X019949Y018030D01*
X019959Y018057D01*
X019973Y018084D01*
X019990Y018108D01*
X020010Y018130D01*
X020033Y018148D01*
X020058Y018164D01*
X020085Y018175D01*
X020114Y018183D01*
X020143Y018187D01*
X020173Y018187D01*
X020202Y018183D01*
X020231Y018175D01*
X020258Y018164D01*
X020283Y018148D01*
X020306Y018130D01*
X020326Y018108D01*
X020343Y018084D01*
X020357Y018057D01*
X020367Y018030D01*
X020373Y018001D01*
X020375Y017971D01*
X020373Y017941D01*
X020367Y017912D01*
X020357Y017885D01*
X020343Y017858D01*
X020326Y017834D01*
X020306Y017812D01*
X020283Y017794D01*
X020258Y017778D01*
X020231Y017767D01*
X020202Y017759D01*
X020173Y017755D01*
X020143Y017755D01*
X020114Y017759D01*
X020085Y017767D01*
X020058Y017778D01*
X020033Y017794D01*
X020010Y017812D01*
X019990Y017834D01*
X019973Y017858D01*
X019959Y017885D01*
X019949Y017912D01*
X019943Y017941D01*
X019941Y017971D01*
X024191Y017971D02*
X024193Y018001D01*
X024199Y018030D01*
X024209Y018057D01*
X024223Y018084D01*
X024240Y018108D01*
X024260Y018130D01*
X024283Y018148D01*
X024308Y018164D01*
X024335Y018175D01*
X024364Y018183D01*
X024393Y018187D01*
X024423Y018187D01*
X024452Y018183D01*
X024481Y018175D01*
X024508Y018164D01*
X024533Y018148D01*
X024556Y018130D01*
X024576Y018108D01*
X024593Y018084D01*
X024607Y018057D01*
X024617Y018030D01*
X024623Y018001D01*
X024625Y017971D01*
X024623Y017941D01*
X024617Y017912D01*
X024607Y017885D01*
X024593Y017858D01*
X024576Y017834D01*
X024556Y017812D01*
X024533Y017794D01*
X024508Y017778D01*
X024481Y017767D01*
X024452Y017759D01*
X024423Y017755D01*
X024393Y017755D01*
X024364Y017759D01*
X024335Y017767D01*
X024308Y017778D01*
X024283Y017794D01*
X024260Y017812D01*
X024240Y017834D01*
X024223Y017858D01*
X024209Y017885D01*
X024199Y017912D01*
X024193Y017941D01*
X024191Y017971D01*
X025191Y017971D02*
X025193Y018001D01*
X025199Y018030D01*
X025209Y018057D01*
X025223Y018084D01*
X025240Y018108D01*
X025260Y018130D01*
X025283Y018148D01*
X025308Y018164D01*
X025335Y018175D01*
X025364Y018183D01*
X025393Y018187D01*
X025423Y018187D01*
X025452Y018183D01*
X025481Y018175D01*
X025508Y018164D01*
X025533Y018148D01*
X025556Y018130D01*
X025576Y018108D01*
X025593Y018084D01*
X025607Y018057D01*
X025617Y018030D01*
X025623Y018001D01*
X025625Y017971D01*
X025623Y017941D01*
X025617Y017912D01*
X025607Y017885D01*
X025593Y017858D01*
X025576Y017834D01*
X025556Y017812D01*
X025533Y017794D01*
X025508Y017778D01*
X025481Y017767D01*
X025452Y017759D01*
X025423Y017755D01*
X025393Y017755D01*
X025364Y017759D01*
X025335Y017767D01*
X025308Y017778D01*
X025283Y017794D01*
X025260Y017812D01*
X025240Y017834D01*
X025223Y017858D01*
X025209Y017885D01*
X025199Y017912D01*
X025193Y017941D01*
X025191Y017971D01*
X027527Y011121D02*
X027529Y011169D01*
X027536Y011217D01*
X027547Y011264D01*
X027562Y011310D01*
X027581Y011354D01*
X027604Y011397D01*
X027631Y011437D01*
X027662Y011475D01*
X027696Y011509D01*
X027732Y011540D01*
X027772Y011568D01*
X027814Y011592D01*
X027858Y011613D01*
X027903Y011629D01*
X027950Y011641D01*
X027998Y011649D01*
X028046Y011652D01*
X028094Y011651D01*
X028142Y011645D01*
X028190Y011635D01*
X028236Y011621D01*
X028281Y011603D01*
X028323Y011581D01*
X028364Y011555D01*
X028402Y011525D01*
X028438Y011492D01*
X028470Y011456D01*
X028499Y011417D01*
X028524Y011376D01*
X028545Y011333D01*
X028562Y011287D01*
X028575Y011241D01*
X028584Y011193D01*
X028588Y011145D01*
X028588Y011097D01*
X028584Y011049D01*
X028575Y011001D01*
X028562Y010955D01*
X028545Y010909D01*
X028524Y010866D01*
X028499Y010825D01*
X028470Y010786D01*
X028438Y010750D01*
X028402Y010717D01*
X028364Y010687D01*
X028324Y010661D01*
X028281Y010639D01*
X028236Y010621D01*
X028190Y010607D01*
X028142Y010597D01*
X028094Y010591D01*
X028046Y010590D01*
X027998Y010593D01*
X027950Y010601D01*
X027903Y010613D01*
X027858Y010629D01*
X027814Y010650D01*
X027772Y010674D01*
X027732Y010702D01*
X027696Y010733D01*
X027662Y010767D01*
X027631Y010805D01*
X027604Y010845D01*
X027581Y010888D01*
X027562Y010932D01*
X027547Y010978D01*
X027536Y011025D01*
X027529Y011073D01*
X027527Y011121D01*
X028491Y008921D02*
X028493Y008951D01*
X028499Y008980D01*
X028509Y009007D01*
X028523Y009034D01*
X028540Y009058D01*
X028560Y009080D01*
X028583Y009098D01*
X028608Y009114D01*
X028635Y009125D01*
X028664Y009133D01*
X028693Y009137D01*
X028723Y009137D01*
X028752Y009133D01*
X028781Y009125D01*
X028808Y009114D01*
X028833Y009098D01*
X028856Y009080D01*
X028876Y009058D01*
X028893Y009034D01*
X028907Y009007D01*
X028917Y008980D01*
X028923Y008951D01*
X028925Y008921D01*
X028923Y008891D01*
X028917Y008862D01*
X028907Y008835D01*
X028893Y008808D01*
X028876Y008784D01*
X028856Y008762D01*
X028833Y008744D01*
X028808Y008728D01*
X028781Y008717D01*
X028752Y008709D01*
X028723Y008705D01*
X028693Y008705D01*
X028664Y008709D01*
X028635Y008717D01*
X028608Y008728D01*
X028583Y008744D01*
X028560Y008762D01*
X028540Y008784D01*
X028523Y008808D01*
X028509Y008835D01*
X028499Y008862D01*
X028493Y008891D01*
X028491Y008921D01*
X028491Y007921D02*
X028493Y007951D01*
X028499Y007980D01*
X028509Y008007D01*
X028523Y008034D01*
X028540Y008058D01*
X028560Y008080D01*
X028583Y008098D01*
X028608Y008114D01*
X028635Y008125D01*
X028664Y008133D01*
X028693Y008137D01*
X028723Y008137D01*
X028752Y008133D01*
X028781Y008125D01*
X028808Y008114D01*
X028833Y008098D01*
X028856Y008080D01*
X028876Y008058D01*
X028893Y008034D01*
X028907Y008007D01*
X028917Y007980D01*
X028923Y007951D01*
X028925Y007921D01*
X028923Y007891D01*
X028917Y007862D01*
X028907Y007835D01*
X028893Y007808D01*
X028876Y007784D01*
X028856Y007762D01*
X028833Y007744D01*
X028808Y007728D01*
X028781Y007717D01*
X028752Y007709D01*
X028723Y007705D01*
X028693Y007705D01*
X028664Y007709D01*
X028635Y007717D01*
X028608Y007728D01*
X028583Y007744D01*
X028560Y007762D01*
X028540Y007784D01*
X028523Y007808D01*
X028509Y007835D01*
X028499Y007862D01*
X028493Y007891D01*
X028491Y007921D01*
X008727Y011121D02*
X008729Y011169D01*
X008736Y011217D01*
X008747Y011264D01*
X008762Y011310D01*
X008781Y011354D01*
X008804Y011397D01*
X008831Y011437D01*
X008862Y011475D01*
X008896Y011509D01*
X008932Y011540D01*
X008972Y011568D01*
X009014Y011592D01*
X009058Y011613D01*
X009103Y011629D01*
X009150Y011641D01*
X009198Y011649D01*
X009246Y011652D01*
X009294Y011651D01*
X009342Y011645D01*
X009390Y011635D01*
X009436Y011621D01*
X009481Y011603D01*
X009523Y011581D01*
X009564Y011555D01*
X009602Y011525D01*
X009638Y011492D01*
X009670Y011456D01*
X009699Y011417D01*
X009724Y011376D01*
X009745Y011333D01*
X009762Y011287D01*
X009775Y011241D01*
X009784Y011193D01*
X009788Y011145D01*
X009788Y011097D01*
X009784Y011049D01*
X009775Y011001D01*
X009762Y010955D01*
X009745Y010909D01*
X009724Y010866D01*
X009699Y010825D01*
X009670Y010786D01*
X009638Y010750D01*
X009602Y010717D01*
X009564Y010687D01*
X009524Y010661D01*
X009481Y010639D01*
X009436Y010621D01*
X009390Y010607D01*
X009342Y010597D01*
X009294Y010591D01*
X009246Y010590D01*
X009198Y010593D01*
X009150Y010601D01*
X009103Y010613D01*
X009058Y010629D01*
X009014Y010650D01*
X008972Y010674D01*
X008932Y010702D01*
X008896Y010733D01*
X008862Y010767D01*
X008831Y010805D01*
X008804Y010845D01*
X008781Y010888D01*
X008762Y010932D01*
X008747Y010978D01*
X008736Y011025D01*
X008729Y011073D01*
X008727Y011121D01*
D12*
X007151Y009528D02*
X007258Y009421D01*
X007258Y009101D01*
X007044Y009101D02*
X007044Y009421D01*
X007151Y009528D01*
X007044Y009421D02*
X006937Y009528D01*
X006831Y009528D01*
X006831Y009101D01*
X006613Y009208D02*
X006613Y009421D01*
X006506Y009528D01*
X006293Y009528D01*
X006186Y009421D01*
X006186Y009208D01*
X006293Y009101D01*
X006506Y009101D01*
X006613Y009208D01*
X005970Y009101D02*
X005863Y009208D01*
X005863Y009635D01*
X005756Y009528D02*
X005970Y009528D01*
X005540Y009528D02*
X005327Y009528D01*
X005434Y009635D02*
X005434Y009208D01*
X005540Y009101D01*
X005109Y009208D02*
X005109Y009421D01*
X005003Y009528D01*
X004789Y009528D01*
X004682Y009421D01*
X004682Y009208D01*
X004789Y009101D01*
X005003Y009101D01*
X005109Y009208D01*
X004465Y009208D02*
X004465Y009421D01*
X004358Y009528D01*
X004038Y009528D01*
X004038Y009741D02*
X004038Y009101D01*
X004358Y009101D01*
X004465Y009208D01*
D13*
X008658Y005721D03*
X009658Y005721D03*
X010658Y005721D03*
X011658Y005721D03*
X012658Y005721D03*
X013658Y005721D03*
X014658Y005721D03*
X015658Y005721D03*
X016658Y005721D03*
X017658Y005721D03*
X018658Y005721D03*
X019658Y005721D03*
X020658Y005721D03*
X021658Y005721D03*
X022658Y005721D03*
X023658Y005721D03*
X024658Y005721D03*
X025658Y005721D03*
X026658Y005721D03*
X027658Y005721D03*
X028658Y005721D03*
D14*
X024933Y012479D02*
X025600Y013146D01*
X024933Y012479D02*
X024266Y013146D01*
X024933Y013813D01*
X025600Y013146D01*
X025168Y012714D02*
X024698Y012714D01*
X024463Y012949D02*
X025403Y012949D01*
X025562Y013184D02*
X024304Y013184D01*
X024539Y013419D02*
X025327Y013419D01*
X025092Y013654D02*
X024774Y013654D01*
X023050Y015846D02*
X022383Y015179D01*
X021716Y015846D01*
X022383Y016513D01*
X023050Y015846D01*
X022618Y015414D02*
X022148Y015414D01*
X021913Y015649D02*
X022853Y015649D01*
X023012Y015884D02*
X021754Y015884D01*
X021989Y016119D02*
X022777Y016119D01*
X022542Y016354D02*
X022224Y016354D01*
X020350Y013146D02*
X019683Y012479D01*
X019016Y013146D01*
X019683Y013813D01*
X020350Y013146D01*
X019918Y012714D02*
X019448Y012714D01*
X019213Y012949D02*
X020153Y012949D01*
X020312Y013184D02*
X019054Y013184D01*
X019289Y013419D02*
X020077Y013419D01*
X019842Y013654D02*
X019524Y013654D01*
X017850Y015846D02*
X017183Y015179D01*
X016516Y015846D01*
X017183Y016513D01*
X017850Y015846D01*
X017418Y015414D02*
X016948Y015414D01*
X016713Y015649D02*
X017653Y015649D01*
X017812Y015884D02*
X016554Y015884D01*
X016789Y016119D02*
X017577Y016119D01*
X017342Y016354D02*
X017024Y016354D01*
X012950Y015846D02*
X012283Y015179D01*
X011616Y015846D01*
X012283Y016513D01*
X012950Y015846D01*
X012518Y015414D02*
X012048Y015414D01*
X011813Y015649D02*
X012753Y015649D01*
X012912Y015884D02*
X011654Y015884D01*
X011889Y016119D02*
X012677Y016119D01*
X012442Y016354D02*
X012124Y016354D01*
X015150Y013146D02*
X014483Y012479D01*
X013816Y013146D01*
X014483Y013813D01*
X015150Y013146D01*
X014718Y012714D02*
X014248Y012714D01*
X014013Y012949D02*
X014953Y012949D01*
X015112Y013184D02*
X013854Y013184D01*
X014089Y013419D02*
X014877Y013419D01*
X014642Y013654D02*
X014324Y013654D01*
X010250Y013146D02*
X009583Y012479D01*
X008916Y013146D01*
X009583Y013813D01*
X010250Y013146D01*
X009818Y012714D02*
X009348Y012714D01*
X009113Y012949D02*
X010053Y012949D01*
X010212Y013184D02*
X008954Y013184D01*
X009189Y013419D02*
X009977Y013419D01*
X009742Y013654D02*
X009424Y013654D01*
X027633Y015179D02*
X028300Y015846D01*
X027633Y015179D02*
X026966Y015846D01*
X027633Y016513D01*
X028300Y015846D01*
X027868Y015414D02*
X027398Y015414D01*
X027163Y015649D02*
X028103Y015649D01*
X028262Y015884D02*
X027004Y015884D01*
X027239Y016119D02*
X028027Y016119D01*
X027792Y016354D02*
X027474Y016354D01*
D15*
X025408Y016971D03*
X024408Y016971D03*
X020158Y016971D03*
X019158Y016971D03*
X015008Y016971D03*
X014008Y016971D03*
X009858Y016971D03*
X008858Y016971D03*
X027708Y008921D03*
X027708Y007921D03*
D16*
X025658Y008071D03*
X025658Y008671D03*
D17*
X024658Y008255D03*
X024658Y007586D03*
X023058Y007586D03*
X023058Y008255D03*
X020658Y008255D03*
X020658Y007586D03*
X012758Y007586D03*
X012758Y008255D03*
D18*
X012758Y009321D01*
X011708Y010371D01*
X011434Y010081D02*
X008598Y010081D01*
X008598Y009963D02*
X011777Y009963D01*
X011766Y009973D02*
X011629Y009973D01*
X011482Y010033D01*
X011370Y010145D01*
X011310Y010292D01*
X011310Y010450D01*
X011370Y010596D01*
X011482Y010708D01*
X011629Y010769D01*
X011787Y010769D01*
X011933Y010708D01*
X012045Y010596D01*
X012106Y010450D01*
X012106Y010312D01*
X012998Y009420D01*
X012998Y009221D01*
X012998Y008630D01*
X013032Y008630D01*
X013138Y008525D01*
X013138Y007986D01*
X013073Y007921D01*
X013138Y007856D01*
X013138Y007530D01*
X013521Y007147D01*
X013532Y007158D01*
X013679Y007219D01*
X013837Y007219D01*
X013983Y007158D01*
X014095Y007046D01*
X014156Y006900D01*
X014156Y006742D01*
X014095Y006595D01*
X013983Y006483D01*
X013837Y006423D01*
X013679Y006423D01*
X013532Y006483D01*
X013435Y006581D01*
X013408Y006581D01*
X013268Y006721D01*
X013268Y006721D01*
X012778Y007211D01*
X012523Y007211D01*
X012453Y007141D01*
X012320Y007141D01*
X012129Y007141D01*
X012053Y007141D01*
X011862Y007141D01*
X011727Y007276D01*
X011727Y007476D01*
X011727Y007666D01*
X011794Y007733D01*
X011796Y007734D01*
X011795Y007735D01*
X011727Y007803D01*
X011727Y007993D01*
X011727Y008127D01*
X011862Y008261D01*
X011862Y008261D01*
X011835Y008289D01*
X011794Y008330D01*
X011794Y008371D01*
X011727Y008504D01*
X011727Y008654D01*
X011862Y008788D01*
X012053Y008788D01*
X012091Y008750D01*
X012129Y008788D01*
X012320Y008788D01*
X012386Y008788D01*
X012518Y008657D01*
X012518Y009221D01*
X011766Y009973D01*
X011895Y009844D02*
X008598Y009844D01*
X008598Y009725D02*
X012014Y009725D01*
X012132Y009607D02*
X008598Y009607D01*
X008598Y009570D02*
X009348Y008820D01*
X009348Y008621D01*
X009348Y008394D01*
X009445Y008296D01*
X009506Y008150D01*
X009506Y007992D01*
X009445Y007845D01*
X009333Y007733D01*
X009187Y007673D01*
X009029Y007673D01*
X008882Y007733D01*
X008770Y007845D01*
X008710Y007992D01*
X008710Y008150D01*
X008770Y008296D01*
X008868Y008394D01*
X008868Y008621D01*
X008388Y009101D01*
X008388Y006183D01*
X008552Y006251D01*
X008763Y006251D01*
X008958Y006170D01*
X009107Y006021D01*
X009158Y005899D01*
X009208Y006021D01*
X009358Y006170D01*
X009552Y006251D01*
X009763Y006251D01*
X009958Y006170D01*
X010107Y006021D01*
X010158Y005899D01*
X010208Y006021D01*
X010358Y006170D01*
X010552Y006251D01*
X010763Y006251D01*
X010958Y006170D01*
X011107Y006021D01*
X011158Y005899D01*
X011208Y006021D01*
X011358Y006170D01*
X011552Y006251D01*
X011763Y006251D01*
X011958Y006170D01*
X012107Y006021D01*
X012158Y005899D01*
X012208Y006021D01*
X012358Y006170D01*
X012552Y006251D01*
X012763Y006251D01*
X012958Y006170D01*
X013107Y006021D01*
X013158Y005899D01*
X013208Y006021D01*
X013358Y006170D01*
X013552Y006251D01*
X013763Y006251D01*
X013948Y006174D01*
X014168Y006414D01*
X014168Y006420D01*
X014234Y006487D01*
X014308Y006561D01*
X014507Y006561D01*
X014758Y006561D01*
X016068Y007870D01*
X016208Y008011D01*
X016958Y008011D01*
X018810Y009862D01*
X018810Y010000D01*
X018870Y010146D01*
X018982Y010258D01*
X019129Y010319D01*
X019287Y010319D01*
X019433Y010258D01*
X019545Y010146D01*
X019606Y010000D01*
X019606Y009842D01*
X019545Y009695D01*
X019433Y009583D01*
X019287Y009523D01*
X019149Y009523D01*
X017387Y007761D01*
X017958Y007761D01*
X017960Y007762D01*
X017960Y007900D01*
X018020Y008046D01*
X018132Y008158D01*
X018279Y008219D01*
X018437Y008219D01*
X018583Y008158D01*
X018695Y008046D01*
X018756Y007900D01*
X018756Y007742D01*
X018695Y007595D01*
X018583Y007483D01*
X018437Y007423D01*
X018299Y007423D01*
X018157Y007281D01*
X017958Y007281D01*
X016557Y007281D01*
X015509Y006233D01*
X015552Y006251D01*
X015763Y006251D01*
X015958Y006170D01*
X016107Y006021D01*
X016158Y005899D01*
X016208Y006021D01*
X016358Y006170D01*
X016552Y006251D01*
X016763Y006251D01*
X016958Y006170D01*
X017107Y006021D01*
X017158Y005899D01*
X017208Y006021D01*
X017358Y006170D01*
X017552Y006251D01*
X017763Y006251D01*
X017958Y006170D01*
X018107Y006021D01*
X018158Y005899D01*
X018208Y006021D01*
X018358Y006170D01*
X018552Y006251D01*
X018763Y006251D01*
X018958Y006170D01*
X019107Y006021D01*
X019158Y005899D01*
X019208Y006021D01*
X019358Y006170D01*
X019552Y006251D01*
X019763Y006251D01*
X019958Y006170D01*
X020107Y006021D01*
X020158Y005899D01*
X020208Y006021D01*
X020358Y006170D01*
X020418Y006195D01*
X020418Y007206D01*
X020353Y007141D01*
X020220Y007141D01*
X020029Y007141D01*
X019953Y007141D01*
X019762Y007141D01*
X019627Y007276D01*
X019627Y007476D01*
X019627Y007666D01*
X019694Y007733D01*
X019696Y007734D01*
X019695Y007735D01*
X019627Y007803D01*
X019627Y007993D01*
X019627Y008127D01*
X019662Y008161D01*
X019627Y008196D01*
X019627Y008387D01*
X019627Y008654D01*
X019762Y008788D01*
X019953Y008788D01*
X019958Y008784D01*
X019962Y008788D01*
X020096Y008788D01*
X020286Y008788D01*
X020354Y008721D01*
X020357Y008718D01*
X020418Y008657D01*
X020418Y009671D01*
X019658Y010431D01*
X016831Y010431D01*
X016733Y010333D01*
X016587Y010273D01*
X016429Y010273D01*
X016282Y010333D01*
X016170Y010445D01*
X016110Y010592D01*
X016110Y010750D01*
X016170Y010896D01*
X016282Y011008D01*
X016429Y011069D01*
X016587Y011069D01*
X016733Y011008D01*
X016831Y010911D01*
X019857Y010911D01*
X019998Y010770D01*
X020898Y009870D01*
X020898Y009671D01*
X020898Y008630D01*
X020932Y008630D01*
X021038Y008525D01*
X021038Y007986D01*
X020973Y007921D01*
X021038Y007856D01*
X021038Y007317D01*
X020932Y007211D01*
X020898Y007211D01*
X020898Y006195D01*
X020958Y006170D01*
X021107Y006021D01*
X021158Y005899D01*
X021208Y006021D01*
X021358Y006170D01*
X021552Y006251D01*
X021763Y006251D01*
X021958Y006170D01*
X022107Y006021D01*
X022158Y005899D01*
X022208Y006021D01*
X022358Y006170D01*
X022552Y006251D01*
X022763Y006251D01*
X022818Y006228D01*
X022818Y007206D01*
X022753Y007141D01*
X022620Y007141D01*
X022429Y007141D01*
X022353Y007141D01*
X022162Y007141D01*
X022027Y007276D01*
X022027Y007476D01*
X022027Y007666D01*
X022094Y007733D01*
X022096Y007734D01*
X022095Y007735D01*
X022027Y007803D01*
X022027Y007993D01*
X022027Y008127D01*
X022162Y008261D01*
X022162Y008261D01*
X022162Y008261D01*
X022027Y008396D01*
X022027Y008587D01*
X022162Y008722D01*
X022296Y008722D01*
X022362Y008788D01*
X022553Y008788D01*
X022620Y008722D01*
X022753Y008722D01*
X022844Y008630D01*
X022959Y008630D01*
X021116Y010473D01*
X020979Y010473D01*
X020832Y010533D01*
X020720Y010645D01*
X020660Y010792D01*
X019976Y010792D01*
X020094Y010674D02*
X020709Y010674D01*
X020660Y010792D02*
X020660Y010950D01*
X020720Y011096D01*
X020832Y011208D01*
X020979Y011269D01*
X021137Y011269D01*
X021283Y011208D01*
X021395Y011096D01*
X021456Y010950D01*
X021456Y010812D01*
X023448Y008820D01*
X023448Y008621D01*
X023448Y008470D01*
X023448Y008271D01*
X023438Y008261D01*
X023438Y007986D01*
X023373Y007921D01*
X023438Y007856D01*
X023438Y007317D01*
X023332Y007211D01*
X023298Y007211D01*
X023298Y006420D01*
X023492Y006226D01*
X023552Y006251D01*
X023763Y006251D01*
X023958Y006170D01*
X024107Y006021D01*
X024158Y005899D01*
X024208Y006021D01*
X024358Y006170D01*
X024418Y006195D01*
X024418Y007206D01*
X024353Y007141D01*
X024220Y007141D01*
X024029Y007141D01*
X023953Y007141D01*
X023762Y007141D01*
X023627Y007276D01*
X023627Y007476D01*
X023627Y007666D01*
X023694Y007733D01*
X023696Y007734D01*
X023695Y007735D01*
X023627Y007803D01*
X023627Y007993D01*
X023627Y008127D01*
X023696Y008195D01*
X023696Y008195D01*
X023695Y008196D01*
X023666Y008224D01*
X023627Y008263D01*
X023627Y008396D01*
X023627Y008587D01*
X023694Y008654D01*
X023829Y008788D01*
X023896Y008788D01*
X024029Y008788D01*
X024096Y008788D01*
X024286Y008788D01*
X024354Y008721D01*
X024357Y008718D01*
X024418Y008657D01*
X024418Y009071D01*
X024418Y009270D01*
X025968Y010820D01*
X025968Y011148D01*
X025870Y011245D01*
X025810Y011392D01*
X025810Y011550D01*
X025870Y011696D01*
X025982Y011808D01*
X026129Y011869D01*
X026287Y011869D01*
X026433Y011808D01*
X026545Y011696D01*
X026606Y011550D01*
X026606Y011392D01*
X026545Y011245D01*
X026448Y011148D01*
X027346Y011148D01*
X027346Y011262D02*
X027346Y010979D01*
X027455Y010718D01*
X027655Y010518D01*
X027916Y010409D01*
X028199Y010409D01*
X028461Y010518D01*
X028661Y010718D01*
X028769Y010979D01*
X028769Y011262D01*
X028661Y011524D01*
X028461Y011724D01*
X028199Y011832D01*
X027916Y011832D01*
X027655Y011724D01*
X027455Y011524D01*
X027346Y011262D01*
X027348Y011266D02*
X026554Y011266D01*
X026603Y011385D02*
X027397Y011385D01*
X027446Y011504D02*
X026606Y011504D01*
X026576Y011622D02*
X027553Y011622D01*
X027695Y011741D02*
X026501Y011741D01*
X026310Y011859D02*
X028928Y011859D01*
X028928Y011741D02*
X028420Y011741D01*
X028563Y011622D02*
X028928Y011622D01*
X028928Y011504D02*
X028669Y011504D01*
X028718Y011385D02*
X028928Y011385D01*
X028928Y011266D02*
X028768Y011266D01*
X028769Y011148D02*
X028928Y011148D01*
X028928Y011029D02*
X028769Y011029D01*
X028741Y010911D02*
X028928Y010911D01*
X028928Y010792D02*
X028692Y010792D01*
X028617Y010674D02*
X028928Y010674D01*
X028928Y010555D02*
X028498Y010555D01*
X028266Y010437D02*
X028928Y010437D01*
X028928Y010318D02*
X026145Y010318D01*
X026263Y010437D02*
X027850Y010437D01*
X027617Y010555D02*
X026382Y010555D01*
X026448Y010621D02*
X024898Y009071D01*
X024898Y008630D01*
X024932Y008630D01*
X025038Y008525D01*
X025038Y007986D01*
X024973Y007921D01*
X025038Y007856D01*
X025038Y007317D01*
X024932Y007211D01*
X024898Y007211D01*
X024898Y006195D01*
X024958Y006170D01*
X025107Y006021D01*
X025158Y005899D01*
X025208Y006021D01*
X025358Y006170D01*
X025552Y006251D01*
X025763Y006251D01*
X025958Y006170D01*
X026107Y006021D01*
X026158Y005899D01*
X026208Y006021D01*
X026358Y006170D01*
X026398Y006187D01*
X026398Y006402D01*
X026336Y006341D01*
X026146Y006341D01*
X026141Y006346D01*
X026136Y006341D01*
X025946Y006341D01*
X025879Y006341D01*
X025812Y006407D01*
X025746Y006473D01*
X025745Y006475D01*
X025677Y006542D01*
X025677Y006733D01*
X025677Y006866D01*
X025779Y006968D01*
X025677Y007069D01*
X025677Y007393D01*
X025746Y007461D01*
X025677Y007530D01*
X025677Y007661D01*
X025268Y007661D01*
X025163Y007766D01*
X025163Y008375D01*
X025163Y008975D01*
X025268Y009081D01*
X025750Y009081D01*
X026260Y009590D01*
X026260Y009700D01*
X026320Y009846D01*
X026432Y009958D01*
X026579Y010019D01*
X026737Y010019D01*
X026883Y009958D01*
X026995Y009846D01*
X027056Y009700D01*
X027056Y009542D01*
X026995Y009395D01*
X026883Y009283D01*
X026737Y009223D01*
X026627Y009223D01*
X026153Y008748D01*
X026153Y008375D01*
X026153Y008331D01*
X026250Y008331D01*
X026465Y008331D01*
X026918Y007878D01*
X026918Y007663D01*
X026918Y006187D01*
X026958Y006170D01*
X027107Y006021D01*
X027158Y005899D01*
X027208Y006021D01*
X027358Y006170D01*
X027552Y006251D01*
X027763Y006251D01*
X027958Y006170D01*
X028107Y006021D01*
X028169Y005872D01*
X028225Y006010D01*
X028369Y006153D01*
X028556Y006231D01*
X028619Y006231D01*
X028619Y005759D01*
X028696Y005759D01*
X028696Y006231D01*
X028759Y006231D01*
X028928Y006161D01*
X028928Y007583D01*
X028787Y007524D01*
X028629Y007524D01*
X028483Y007585D01*
X028372Y007696D01*
X028311Y007842D01*
X028311Y008000D01*
X028372Y008145D01*
X028483Y008257D01*
X028629Y008317D01*
X028787Y008317D01*
X028928Y008259D01*
X028928Y008583D01*
X028787Y008524D01*
X028629Y008524D01*
X028483Y008585D01*
X028372Y008696D01*
X028311Y008842D01*
X028311Y009000D01*
X028372Y009145D01*
X028483Y009257D01*
X028629Y009317D01*
X028787Y009317D01*
X028928Y009259D01*
X028928Y018231D01*
X025709Y018231D01*
X025744Y018195D01*
X025804Y018050D01*
X025804Y017892D01*
X025744Y017746D01*
X025632Y017635D01*
X025487Y017574D01*
X025329Y017574D01*
X025183Y017635D01*
X025072Y017746D01*
X025011Y017892D01*
X025011Y018050D01*
X025072Y018195D01*
X025107Y018231D01*
X024709Y018231D01*
X024744Y018195D01*
X024804Y018050D01*
X024804Y017892D01*
X024744Y017746D01*
X024632Y017635D01*
X024487Y017574D01*
X024329Y017574D01*
X024183Y017635D01*
X024072Y017746D01*
X024011Y017892D01*
X024011Y018050D01*
X024072Y018195D01*
X024107Y018231D01*
X020459Y018231D01*
X020494Y018195D01*
X020554Y018050D01*
X020554Y017892D01*
X020494Y017746D01*
X020382Y017635D01*
X020237Y017574D01*
X020079Y017574D01*
X019933Y017635D01*
X019822Y017746D01*
X019761Y017892D01*
X019761Y018050D01*
X019822Y018195D01*
X019857Y018231D01*
X019459Y018231D01*
X019494Y018195D01*
X019554Y018050D01*
X019554Y017892D01*
X019494Y017746D01*
X019382Y017635D01*
X019237Y017574D01*
X019079Y017574D01*
X018933Y017635D01*
X018822Y017746D01*
X018761Y017892D01*
X018761Y018050D01*
X018822Y018195D01*
X018857Y018231D01*
X015309Y018231D01*
X015344Y018195D01*
X015404Y018050D01*
X015404Y017892D01*
X015344Y017746D01*
X015232Y017635D01*
X015087Y017574D01*
X014929Y017574D01*
X014783Y017635D01*
X014672Y017746D01*
X014611Y017892D01*
X014611Y018050D01*
X014672Y018195D01*
X014707Y018231D01*
X014309Y018231D01*
X014344Y018195D01*
X014404Y018050D01*
X014404Y017892D01*
X014344Y017746D01*
X014232Y017635D01*
X014087Y017574D01*
X013929Y017574D01*
X013783Y017635D01*
X013672Y017746D01*
X013611Y017892D01*
X013611Y018050D01*
X013672Y018195D01*
X013707Y018231D01*
X010159Y018231D01*
X010194Y018195D01*
X010254Y018050D01*
X010254Y017892D01*
X010194Y017746D01*
X010082Y017635D01*
X009937Y017574D01*
X009779Y017574D01*
X009633Y017635D01*
X009522Y017746D01*
X009461Y017892D01*
X009461Y018050D01*
X009522Y018195D01*
X009557Y018231D01*
X009159Y018231D01*
X009194Y018195D01*
X009254Y018050D01*
X009254Y017892D01*
X009194Y017746D01*
X009082Y017635D01*
X008937Y017574D01*
X008779Y017574D01*
X008633Y017635D01*
X008522Y017746D01*
X008461Y017892D01*
X008461Y018050D01*
X008522Y018195D01*
X008557Y018231D01*
X008388Y018231D01*
X008388Y017155D01*
X008430Y017257D01*
X008572Y017399D01*
X008757Y017476D01*
X008958Y017476D01*
X009144Y017399D01*
X009286Y017257D01*
X009358Y017083D01*
X009430Y017257D01*
X009572Y017399D01*
X009757Y017476D01*
X009958Y017476D01*
X010144Y017399D01*
X010286Y017257D01*
X010363Y017071D01*
X010363Y016870D01*
X010286Y016685D01*
X010144Y016543D01*
X010098Y016524D01*
X010098Y016521D01*
X009957Y016381D01*
X008598Y015021D01*
X008598Y014486D01*
X008725Y014539D01*
X008891Y014539D01*
X009044Y014475D01*
X009162Y014357D01*
X009226Y014204D01*
X009226Y014184D01*
X009378Y014031D01*
X009508Y014161D01*
X009657Y014161D01*
X010598Y013220D01*
X010598Y013071D01*
X009657Y012131D01*
X009508Y012131D01*
X008598Y013041D01*
X008598Y011386D01*
X008655Y011524D01*
X008855Y011724D01*
X009116Y011832D01*
X009399Y011832D01*
X009661Y011724D01*
X009861Y011524D01*
X009969Y011262D01*
X009969Y010979D01*
X009861Y010718D01*
X009661Y010518D01*
X009399Y010409D01*
X009116Y010409D01*
X008855Y010518D01*
X008655Y010718D01*
X008598Y010855D01*
X008598Y009570D01*
X008680Y009488D02*
X012251Y009488D01*
X012369Y009370D02*
X008798Y009370D01*
X008917Y009251D02*
X012488Y009251D01*
X012518Y009133D02*
X009035Y009133D01*
X009154Y009014D02*
X012518Y009014D01*
X012518Y008896D02*
X009272Y008896D01*
X009348Y008777D02*
X011851Y008777D01*
X011732Y008659D02*
X009348Y008659D01*
X009348Y008540D02*
X011727Y008540D01*
X011769Y008421D02*
X009348Y008421D01*
X009439Y008303D02*
X011821Y008303D01*
X011785Y008184D02*
X009492Y008184D01*
X009506Y008066D02*
X011727Y008066D01*
X011727Y007947D02*
X009488Y007947D01*
X009429Y007829D02*
X011727Y007829D01*
X011771Y007710D02*
X009278Y007710D01*
X008938Y007710D02*
X008388Y007710D01*
X008388Y007592D02*
X011727Y007592D01*
X011727Y007473D02*
X008388Y007473D01*
X008388Y007355D02*
X011727Y007355D01*
X011767Y007236D02*
X008388Y007236D01*
X008388Y007117D02*
X012872Y007117D01*
X012990Y006999D02*
X008388Y006999D01*
X008388Y006880D02*
X013109Y006880D01*
X013227Y006762D02*
X008388Y006762D01*
X008388Y006643D02*
X013346Y006643D01*
X013491Y006525D02*
X008388Y006525D01*
X008388Y006406D02*
X014161Y006406D01*
X014234Y006487D02*
X014234Y006487D01*
X014272Y006525D02*
X014025Y006525D01*
X014115Y006643D02*
X014841Y006643D01*
X014959Y006762D02*
X014156Y006762D01*
X014156Y006880D02*
X015078Y006880D01*
X015197Y006999D02*
X014115Y006999D01*
X014024Y007117D02*
X015315Y007117D01*
X015434Y007236D02*
X013432Y007236D01*
X013313Y007355D02*
X015552Y007355D01*
X015671Y007473D02*
X013195Y007473D01*
X013138Y007592D02*
X015789Y007592D01*
X015908Y007710D02*
X013138Y007710D01*
X013138Y007829D02*
X016026Y007829D01*
X016145Y007947D02*
X013099Y007947D01*
X013138Y008066D02*
X017013Y008066D01*
X017132Y008184D02*
X016165Y008184D01*
X016137Y008173D02*
X015979Y008173D01*
X015832Y008233D01*
X015735Y008331D01*
X015507Y008331D01*
X015308Y008331D01*
X012866Y010773D01*
X012729Y010773D01*
X012582Y010833D01*
X012470Y010945D01*
X012410Y011092D01*
X012410Y011250D01*
X012470Y011396D01*
X012582Y011508D01*
X012729Y011569D01*
X012887Y011569D01*
X013033Y011508D01*
X013145Y011396D01*
X013206Y011250D01*
X013206Y011112D01*
X015507Y008811D01*
X015735Y008811D01*
X015832Y008908D01*
X015979Y008969D01*
X016137Y008969D01*
X016283Y008908D01*
X016395Y008796D01*
X016456Y008650D01*
X016456Y008492D01*
X016395Y008345D01*
X016283Y008233D01*
X016137Y008173D01*
X015950Y008184D02*
X013138Y008184D01*
X013138Y008303D02*
X015763Y008303D01*
X016058Y008571D02*
X015408Y008571D01*
X012808Y011171D01*
X013206Y011148D02*
X020772Y011148D01*
X020693Y011029D02*
X016682Y011029D01*
X016831Y010911D02*
X020660Y010911D01*
X021058Y010871D02*
X023208Y008721D01*
X023208Y008371D01*
X023108Y008271D01*
X023058Y008255D01*
X023438Y008184D02*
X023685Y008184D01*
X023627Y008066D02*
X023438Y008066D01*
X023399Y007947D02*
X023627Y007947D01*
X023627Y007829D02*
X023438Y007829D01*
X023438Y007710D02*
X023671Y007710D01*
X023627Y007592D02*
X023438Y007592D01*
X023438Y007473D02*
X023627Y007473D01*
X023627Y007355D02*
X023438Y007355D01*
X023357Y007236D02*
X023667Y007236D01*
X023298Y007117D02*
X024418Y007117D01*
X024418Y006999D02*
X023298Y006999D01*
X023298Y006880D02*
X024418Y006880D01*
X024418Y006762D02*
X023298Y006762D01*
X023298Y006643D02*
X024418Y006643D01*
X024418Y006525D02*
X023298Y006525D01*
X023312Y006406D02*
X024418Y006406D01*
X024418Y006288D02*
X023430Y006288D01*
X023959Y006169D02*
X024357Y006169D01*
X024238Y006051D02*
X024077Y006051D01*
X024144Y005932D02*
X024172Y005932D01*
X024658Y005721D02*
X024658Y007586D01*
X025038Y007592D02*
X025677Y007592D01*
X025734Y007473D02*
X025038Y007473D01*
X025038Y007355D02*
X025677Y007355D01*
X025677Y007236D02*
X024957Y007236D01*
X024898Y007117D02*
X025677Y007117D01*
X025748Y006999D02*
X024898Y006999D01*
X024898Y006880D02*
X025692Y006880D01*
X025677Y006762D02*
X024898Y006762D01*
X024898Y006643D02*
X025677Y006643D01*
X025695Y006525D02*
X024898Y006525D01*
X024898Y006406D02*
X025814Y006406D01*
X025812Y006407D02*
X025812Y006407D01*
X025959Y006169D02*
X026357Y006169D01*
X026398Y006288D02*
X024898Y006288D01*
X024959Y006169D02*
X025357Y006169D01*
X025238Y006051D02*
X025077Y006051D01*
X025144Y005932D02*
X025172Y005932D01*
X026077Y006051D02*
X026238Y006051D01*
X026172Y005932D02*
X026144Y005932D01*
X026136Y006341D02*
X026136Y006341D01*
X026918Y006288D02*
X028928Y006288D01*
X028928Y006406D02*
X026918Y006406D01*
X026918Y006525D02*
X028928Y006525D01*
X028928Y006643D02*
X026918Y006643D01*
X026918Y006762D02*
X028928Y006762D01*
X028928Y006880D02*
X026918Y006880D01*
X026918Y006999D02*
X028928Y006999D01*
X028928Y007117D02*
X026918Y007117D01*
X026918Y007236D02*
X028928Y007236D01*
X028928Y007355D02*
X026918Y007355D01*
X026918Y007473D02*
X027522Y007473D01*
X027433Y007510D02*
X027297Y007646D01*
X027223Y007824D01*
X027223Y007872D01*
X027659Y007872D01*
X027659Y007969D01*
X027223Y007969D01*
X027223Y008017D01*
X027297Y008195D01*
X027433Y008332D01*
X027611Y008406D01*
X027659Y008406D01*
X027659Y007969D01*
X027756Y007969D01*
X027756Y008406D01*
X027804Y008406D01*
X027982Y008332D01*
X028119Y008195D01*
X028193Y008017D01*
X028193Y007969D01*
X027756Y007969D01*
X027756Y007872D01*
X027659Y007872D01*
X027659Y007436D01*
X027611Y007436D01*
X027433Y007510D01*
X027351Y007592D02*
X026918Y007592D01*
X026918Y007710D02*
X027270Y007710D01*
X027223Y007829D02*
X026918Y007829D01*
X026849Y007947D02*
X027659Y007947D01*
X027756Y007947D02*
X028311Y007947D01*
X028317Y007829D02*
X028193Y007829D01*
X028193Y007824D02*
X028119Y007646D01*
X027982Y007510D01*
X027804Y007436D01*
X027756Y007436D01*
X027756Y007872D01*
X028193Y007872D01*
X028193Y007824D01*
X028145Y007710D02*
X028366Y007710D01*
X028476Y007592D02*
X028064Y007592D01*
X027894Y007473D02*
X028928Y007473D01*
X028339Y008066D02*
X028172Y008066D01*
X028123Y008184D02*
X028411Y008184D01*
X028594Y008303D02*
X028011Y008303D01*
X027994Y008493D02*
X027808Y008416D01*
X027607Y008416D01*
X027422Y008493D01*
X027280Y008635D01*
X027203Y008820D01*
X027203Y009021D01*
X027280Y009207D01*
X027422Y009349D01*
X027607Y009426D01*
X027808Y009426D01*
X027994Y009349D01*
X028136Y009207D01*
X028213Y009021D01*
X028213Y008820D01*
X028136Y008635D01*
X027994Y008493D01*
X028041Y008540D02*
X028591Y008540D01*
X028409Y008659D02*
X028146Y008659D01*
X028195Y008777D02*
X028338Y008777D01*
X028311Y008896D02*
X028213Y008896D01*
X028213Y009014D02*
X028317Y009014D01*
X028366Y009133D02*
X028166Y009133D01*
X028091Y009251D02*
X028477Y009251D01*
X028928Y009370D02*
X027943Y009370D01*
X027473Y009370D02*
X026970Y009370D01*
X027034Y009488D02*
X028928Y009488D01*
X028928Y009607D02*
X027056Y009607D01*
X027045Y009725D02*
X028928Y009725D01*
X028928Y009844D02*
X026996Y009844D01*
X026873Y009963D02*
X028928Y009963D01*
X028928Y010081D02*
X025907Y010081D01*
X025789Y009963D02*
X026443Y009963D01*
X026319Y009844D02*
X025670Y009844D01*
X025552Y009725D02*
X026270Y009725D01*
X026260Y009607D02*
X025433Y009607D01*
X025315Y009488D02*
X026158Y009488D01*
X026039Y009370D02*
X025196Y009370D01*
X025078Y009251D02*
X025921Y009251D01*
X025802Y009133D02*
X024959Y009133D01*
X024898Y009014D02*
X025202Y009014D01*
X025163Y008896D02*
X024898Y008896D01*
X024898Y008777D02*
X025163Y008777D01*
X025163Y008659D02*
X024898Y008659D01*
X025023Y008540D02*
X025163Y008540D01*
X025163Y008421D02*
X025038Y008421D01*
X025038Y008303D02*
X025163Y008303D01*
X025163Y008184D02*
X025038Y008184D01*
X025038Y008066D02*
X025163Y008066D01*
X025163Y007947D02*
X024999Y007947D01*
X025038Y007829D02*
X025163Y007829D01*
X025219Y007710D02*
X025038Y007710D01*
X024658Y008255D02*
X024658Y009171D01*
X026208Y010721D01*
X026208Y011471D01*
X025915Y011741D02*
X009620Y011741D01*
X009763Y011622D02*
X025840Y011622D01*
X025810Y011504D02*
X013038Y011504D01*
X013150Y011385D02*
X025812Y011385D01*
X025861Y011266D02*
X021143Y011266D01*
X020973Y011266D02*
X013199Y011266D01*
X013289Y011029D02*
X016333Y011029D01*
X016185Y010911D02*
X013407Y010911D01*
X013526Y010792D02*
X016127Y010792D01*
X016110Y010674D02*
X013644Y010674D01*
X013763Y010555D02*
X016125Y010555D01*
X016179Y010437D02*
X013881Y010437D01*
X014000Y010318D02*
X016319Y010318D01*
X016697Y010318D02*
X019127Y010318D01*
X019289Y010318D02*
X019771Y010318D01*
X019890Y010200D02*
X019492Y010200D01*
X019572Y010081D02*
X020008Y010081D01*
X020127Y009963D02*
X019606Y009963D01*
X019606Y009844D02*
X020245Y009844D01*
X020364Y009725D02*
X019558Y009725D01*
X019457Y009607D02*
X020418Y009607D01*
X020418Y009488D02*
X019115Y009488D01*
X018996Y009370D02*
X020418Y009370D01*
X020418Y009251D02*
X018878Y009251D01*
X018759Y009133D02*
X020418Y009133D01*
X020418Y009014D02*
X018641Y009014D01*
X018522Y008896D02*
X020418Y008896D01*
X020418Y008777D02*
X020298Y008777D01*
X020416Y008659D02*
X020418Y008659D01*
X020658Y008255D02*
X020658Y009771D01*
X019758Y010671D01*
X016508Y010671D01*
X014711Y009607D02*
X018555Y009607D01*
X018673Y009725D02*
X014592Y009725D01*
X014474Y009844D02*
X018792Y009844D01*
X018810Y009963D02*
X014355Y009963D01*
X014237Y010081D02*
X018843Y010081D01*
X018924Y010200D02*
X014118Y010200D01*
X013795Y009844D02*
X012574Y009844D01*
X012692Y009725D02*
X013914Y009725D01*
X014032Y009607D02*
X012811Y009607D01*
X012930Y009488D02*
X014151Y009488D01*
X014269Y009370D02*
X012998Y009370D01*
X012998Y009251D02*
X014388Y009251D01*
X014506Y009133D02*
X012998Y009133D01*
X012998Y009014D02*
X014625Y009014D01*
X014744Y008896D02*
X012998Y008896D01*
X012998Y008777D02*
X014862Y008777D01*
X014981Y008659D02*
X012998Y008659D01*
X013123Y008540D02*
X015099Y008540D01*
X015218Y008421D02*
X013138Y008421D01*
X012518Y008659D02*
X012516Y008659D01*
X012518Y008777D02*
X012398Y008777D01*
X012118Y008777D02*
X012064Y008777D01*
X012455Y009963D02*
X013677Y009963D01*
X013558Y010081D02*
X012337Y010081D01*
X012218Y010200D02*
X013440Y010200D01*
X013321Y010318D02*
X012106Y010318D01*
X012106Y010437D02*
X013202Y010437D01*
X013084Y010555D02*
X012062Y010555D01*
X011968Y010674D02*
X012965Y010674D01*
X012681Y010792D02*
X009892Y010792D01*
X009941Y010911D02*
X012505Y010911D01*
X012435Y011029D02*
X009969Y011029D01*
X009969Y011148D02*
X012410Y011148D01*
X012416Y011266D02*
X009968Y011266D01*
X009918Y011385D02*
X012466Y011385D01*
X012578Y011504D02*
X009869Y011504D01*
X008895Y011741D02*
X008598Y011741D01*
X008598Y011859D02*
X026105Y011859D01*
X025329Y012452D02*
X028928Y012452D01*
X028928Y012570D02*
X025447Y012570D01*
X025566Y012689D02*
X028928Y012689D01*
X028928Y012808D02*
X025684Y012808D01*
X025803Y012926D02*
X028928Y012926D01*
X028928Y013045D02*
X025921Y013045D01*
X025948Y013071D02*
X025007Y012131D01*
X024858Y012131D01*
X023918Y013071D01*
X023918Y013220D01*
X024173Y013475D01*
X023945Y013703D01*
X023925Y013703D01*
X023771Y013767D01*
X023654Y013884D01*
X023590Y014038D01*
X023590Y014204D01*
X023654Y014357D01*
X023771Y014475D01*
X023925Y014539D01*
X024091Y014539D01*
X024244Y014475D01*
X024362Y014357D01*
X024426Y014204D01*
X024426Y014184D01*
X024653Y013956D01*
X024858Y014161D01*
X025007Y014161D01*
X025948Y013220D01*
X025948Y013071D01*
X025948Y013163D02*
X026629Y013163D01*
X026621Y013167D02*
X026504Y013284D01*
X026440Y013438D01*
X026440Y013604D01*
X026504Y013757D01*
X026621Y013875D01*
X026775Y013939D01*
X026795Y013939D01*
X027168Y014312D01*
X027168Y015222D01*
X026618Y015772D01*
X026618Y015921D01*
X027559Y016861D01*
X027708Y016861D01*
X028648Y015921D01*
X028648Y015772D01*
X027848Y014971D01*
X027848Y014030D01*
X027649Y013831D01*
X027276Y013458D01*
X027276Y013438D01*
X027212Y013284D01*
X027094Y013167D01*
X026941Y013103D01*
X026775Y013103D01*
X026621Y013167D01*
X026506Y013282D02*
X025887Y013282D01*
X025768Y013400D02*
X026455Y013400D01*
X026440Y013519D02*
X025650Y013519D01*
X025531Y013637D02*
X026454Y013637D01*
X026503Y013756D02*
X025413Y013756D01*
X025294Y013874D02*
X026621Y013874D01*
X026849Y013993D02*
X025175Y013993D01*
X025057Y014112D02*
X026968Y014112D01*
X027086Y014230D02*
X024415Y014230D01*
X024366Y014349D02*
X027168Y014349D01*
X027168Y014467D02*
X024252Y014467D01*
X024498Y014112D02*
X024809Y014112D01*
X024690Y013993D02*
X024616Y013993D01*
X024129Y013519D02*
X022626Y013519D01*
X022612Y013484D02*
X022676Y013638D01*
X022676Y013804D01*
X022612Y013957D01*
X022598Y013972D01*
X022598Y014971D01*
X023398Y015772D01*
X023398Y015921D01*
X022458Y016861D01*
X022309Y016861D01*
X021368Y015921D01*
X021368Y015772D01*
X021918Y015222D01*
X021918Y013972D01*
X021904Y013957D01*
X021840Y013804D01*
X021840Y013638D01*
X021904Y013484D01*
X022021Y013367D01*
X022175Y013303D01*
X022341Y013303D01*
X022494Y013367D01*
X022612Y013484D01*
X022528Y013400D02*
X024098Y013400D01*
X023979Y013282D02*
X020637Y013282D01*
X020698Y013220D02*
X020698Y013071D01*
X019757Y012131D01*
X019608Y012131D01*
X018668Y013071D01*
X018668Y013220D01*
X018948Y013500D01*
X018745Y013703D01*
X018725Y013703D01*
X018571Y013767D01*
X018454Y013884D01*
X018390Y014038D01*
X018390Y014204D01*
X018454Y014357D01*
X018571Y014475D01*
X018725Y014539D01*
X018891Y014539D01*
X019044Y014475D01*
X019162Y014357D01*
X019226Y014204D01*
X019226Y014184D01*
X019428Y013981D01*
X019608Y014161D01*
X019757Y014161D01*
X020698Y013220D01*
X020698Y013163D02*
X023918Y013163D01*
X023944Y013045D02*
X020671Y013045D01*
X020553Y012926D02*
X024063Y012926D01*
X024182Y012808D02*
X020434Y012808D01*
X020316Y012689D02*
X024300Y012689D01*
X024419Y012570D02*
X020197Y012570D01*
X020079Y012452D02*
X024537Y012452D01*
X024656Y012333D02*
X019960Y012333D01*
X019841Y012215D02*
X024774Y012215D01*
X025091Y012215D02*
X028928Y012215D01*
X028928Y012333D02*
X025210Y012333D01*
X025968Y011148D02*
X021344Y011148D01*
X021423Y011029D02*
X025968Y011029D01*
X025968Y010911D02*
X021456Y010911D01*
X021476Y010792D02*
X025940Y010792D01*
X025821Y010674D02*
X021594Y010674D01*
X021713Y010555D02*
X025703Y010555D01*
X025584Y010437D02*
X021831Y010437D01*
X021950Y010318D02*
X025466Y010318D01*
X025347Y010200D02*
X022068Y010200D01*
X022187Y010081D02*
X025229Y010081D01*
X025110Y009963D02*
X022305Y009963D01*
X022424Y009844D02*
X024992Y009844D01*
X024873Y009725D02*
X022542Y009725D01*
X022661Y009607D02*
X024755Y009607D01*
X024636Y009488D02*
X022780Y009488D01*
X022898Y009370D02*
X024517Y009370D01*
X024418Y009251D02*
X023017Y009251D01*
X023135Y009133D02*
X024418Y009133D01*
X024418Y009014D02*
X023254Y009014D01*
X023372Y008896D02*
X024418Y008896D01*
X024418Y008777D02*
X024298Y008777D01*
X024416Y008659D02*
X024418Y008659D01*
X023818Y008777D02*
X023448Y008777D01*
X023448Y008659D02*
X023699Y008659D01*
X023627Y008540D02*
X023448Y008540D01*
X023448Y008421D02*
X023627Y008421D01*
X023627Y008303D02*
X023448Y008303D01*
X022931Y008659D02*
X022816Y008659D01*
X022812Y008777D02*
X022564Y008777D01*
X022694Y008896D02*
X020898Y008896D01*
X020898Y009014D02*
X022575Y009014D01*
X022456Y009133D02*
X020898Y009133D01*
X020898Y009251D02*
X022338Y009251D01*
X022219Y009370D02*
X020898Y009370D01*
X020898Y009488D02*
X022101Y009488D01*
X021982Y009607D02*
X020898Y009607D01*
X020898Y009725D02*
X021864Y009725D01*
X021745Y009844D02*
X020898Y009844D01*
X020805Y009963D02*
X021627Y009963D01*
X021508Y010081D02*
X020687Y010081D01*
X020568Y010200D02*
X021390Y010200D01*
X021271Y010318D02*
X020450Y010318D01*
X020331Y010437D02*
X021153Y010437D01*
X020810Y010555D02*
X020213Y010555D01*
X019208Y009921D02*
X017058Y007771D01*
X016308Y007771D01*
X014858Y006321D01*
X014408Y006321D01*
X013858Y005721D01*
X013658Y005721D01*
X013172Y005932D02*
X013144Y005932D01*
X013077Y006051D02*
X013238Y006051D01*
X013357Y006169D02*
X012959Y006169D01*
X012357Y006169D02*
X011959Y006169D01*
X012077Y006051D02*
X012238Y006051D01*
X012172Y005932D02*
X012144Y005932D01*
X011357Y006169D02*
X010959Y006169D01*
X011077Y006051D02*
X011238Y006051D01*
X011172Y005932D02*
X011144Y005932D01*
X010357Y006169D02*
X009959Y006169D01*
X010077Y006051D02*
X010238Y006051D01*
X010172Y005932D02*
X010144Y005932D01*
X009357Y006169D02*
X008959Y006169D01*
X009077Y006051D02*
X009238Y006051D01*
X009172Y005932D02*
X009144Y005932D01*
X008388Y006288D02*
X014052Y006288D01*
X013758Y006821D02*
X013508Y006821D01*
X012758Y007571D01*
X012758Y007586D01*
X015185Y009133D02*
X018080Y009133D01*
X017962Y009014D02*
X015304Y009014D01*
X015422Y008896D02*
X015820Y008896D01*
X016296Y008896D02*
X017843Y008896D01*
X017725Y008777D02*
X016403Y008777D01*
X016452Y008659D02*
X017606Y008659D01*
X017488Y008540D02*
X016456Y008540D01*
X016427Y008421D02*
X017369Y008421D01*
X017251Y008303D02*
X016353Y008303D01*
X016458Y007521D02*
X018058Y007521D01*
X018358Y007821D01*
X017960Y007829D02*
X017455Y007829D01*
X017574Y007947D02*
X017979Y007947D01*
X018040Y008066D02*
X017692Y008066D01*
X017811Y008184D02*
X018195Y008184D01*
X017929Y008303D02*
X019627Y008303D01*
X019627Y008421D02*
X018048Y008421D01*
X018166Y008540D02*
X019627Y008540D01*
X019632Y008659D02*
X018285Y008659D01*
X018403Y008777D02*
X019751Y008777D01*
X019639Y008184D02*
X018520Y008184D01*
X018676Y008066D02*
X019627Y008066D01*
X019627Y007947D02*
X018736Y007947D01*
X018756Y007829D02*
X019627Y007829D01*
X019671Y007710D02*
X018743Y007710D01*
X018692Y007592D02*
X019627Y007592D01*
X019627Y007473D02*
X018559Y007473D01*
X018231Y007355D02*
X019627Y007355D01*
X019667Y007236D02*
X016512Y007236D01*
X016394Y007117D02*
X020418Y007117D01*
X020418Y006999D02*
X016275Y006999D01*
X016157Y006880D02*
X020418Y006880D01*
X020418Y006762D02*
X016038Y006762D01*
X015920Y006643D02*
X020418Y006643D01*
X020418Y006525D02*
X015801Y006525D01*
X015683Y006406D02*
X020418Y006406D01*
X020418Y006288D02*
X015564Y006288D01*
X015959Y006169D02*
X016357Y006169D01*
X016238Y006051D02*
X016077Y006051D01*
X016144Y005932D02*
X016172Y005932D01*
X016959Y006169D02*
X017357Y006169D01*
X017238Y006051D02*
X017077Y006051D01*
X017144Y005932D02*
X017172Y005932D01*
X017959Y006169D02*
X018357Y006169D01*
X018238Y006051D02*
X018077Y006051D01*
X018144Y005932D02*
X018172Y005932D01*
X018959Y006169D02*
X019357Y006169D01*
X019238Y006051D02*
X019077Y006051D01*
X019144Y005932D02*
X019172Y005932D01*
X019658Y005721D02*
X019658Y005671D01*
X020144Y005932D02*
X020172Y005932D01*
X020238Y006051D02*
X020077Y006051D01*
X019959Y006169D02*
X020357Y006169D01*
X020658Y005721D02*
X020658Y007586D01*
X021038Y007592D02*
X022027Y007592D01*
X022027Y007473D02*
X021038Y007473D01*
X021038Y007355D02*
X022027Y007355D01*
X022067Y007236D02*
X020957Y007236D01*
X020898Y007117D02*
X022818Y007117D01*
X022818Y006999D02*
X020898Y006999D01*
X020898Y006880D02*
X022818Y006880D01*
X022818Y006762D02*
X020898Y006762D01*
X020898Y006643D02*
X022818Y006643D01*
X022818Y006525D02*
X020898Y006525D01*
X020898Y006406D02*
X022818Y006406D01*
X022818Y006288D02*
X020898Y006288D01*
X020959Y006169D02*
X021357Y006169D01*
X021238Y006051D02*
X021077Y006051D01*
X021144Y005932D02*
X021172Y005932D01*
X021959Y006169D02*
X022357Y006169D01*
X022238Y006051D02*
X022077Y006051D01*
X022144Y005932D02*
X022172Y005932D01*
X023058Y006321D02*
X023058Y007586D01*
X022071Y007710D02*
X021038Y007710D01*
X021038Y007829D02*
X022027Y007829D01*
X022027Y007947D02*
X020999Y007947D01*
X021038Y008066D02*
X022027Y008066D01*
X022085Y008184D02*
X021038Y008184D01*
X021038Y008303D02*
X022121Y008303D01*
X022027Y008421D02*
X021038Y008421D01*
X021023Y008540D02*
X022027Y008540D01*
X022099Y008659D02*
X020898Y008659D01*
X020898Y008777D02*
X022351Y008777D01*
X023058Y006321D02*
X023658Y005721D01*
X026959Y006169D02*
X027357Y006169D01*
X027238Y006051D02*
X027077Y006051D01*
X027144Y005932D02*
X027172Y005932D01*
X027959Y006169D02*
X028408Y006169D01*
X028266Y006051D02*
X028077Y006051D01*
X028144Y005932D02*
X028193Y005932D01*
X028619Y005932D02*
X028696Y005932D01*
X028696Y005814D02*
X028619Y005814D01*
X028619Y006051D02*
X028696Y006051D01*
X028696Y006169D02*
X028619Y006169D01*
X028908Y006169D02*
X028928Y006169D01*
X027756Y007473D02*
X027659Y007473D01*
X027659Y007592D02*
X027756Y007592D01*
X027756Y007710D02*
X027659Y007710D01*
X027659Y007829D02*
X027756Y007829D01*
X027756Y008066D02*
X027659Y008066D01*
X027659Y008184D02*
X027756Y008184D01*
X027756Y008303D02*
X027659Y008303D01*
X027594Y008421D02*
X026153Y008421D01*
X026153Y008540D02*
X027375Y008540D01*
X027270Y008659D02*
X026153Y008659D01*
X026182Y008777D02*
X027221Y008777D01*
X027203Y008896D02*
X026300Y008896D01*
X026419Y009014D02*
X027203Y009014D01*
X027249Y009133D02*
X026537Y009133D01*
X026806Y009251D02*
X027324Y009251D01*
X027821Y008421D02*
X028928Y008421D01*
X028928Y008303D02*
X028821Y008303D01*
X028825Y008540D02*
X028928Y008540D01*
X027404Y008303D02*
X026493Y008303D01*
X026612Y008184D02*
X027292Y008184D01*
X027243Y008066D02*
X026730Y008066D01*
X026026Y010200D02*
X028928Y010200D01*
X027499Y010674D02*
X026448Y010674D01*
X026448Y010621D02*
X026448Y010820D01*
X026448Y011148D01*
X026448Y011029D02*
X027346Y011029D01*
X027375Y010911D02*
X026448Y010911D01*
X026448Y010792D02*
X027424Y010792D01*
X028928Y011978D02*
X008598Y011978D01*
X008598Y012096D02*
X028928Y012096D01*
X028928Y013163D02*
X027086Y013163D01*
X027210Y013282D02*
X028928Y013282D01*
X028928Y013400D02*
X027260Y013400D01*
X027337Y013519D02*
X028928Y013519D01*
X028928Y013637D02*
X027455Y013637D01*
X027574Y013756D02*
X028928Y013756D01*
X028928Y013874D02*
X027692Y013874D01*
X027811Y013993D02*
X028928Y013993D01*
X028928Y014112D02*
X027848Y014112D01*
X027848Y014230D02*
X028928Y014230D01*
X028928Y014349D02*
X027848Y014349D01*
X027848Y014467D02*
X028928Y014467D01*
X028928Y014586D02*
X027848Y014586D01*
X027848Y014704D02*
X028928Y014704D01*
X028928Y014823D02*
X027848Y014823D01*
X027848Y014941D02*
X028928Y014941D01*
X028928Y015060D02*
X027937Y015060D01*
X028055Y015178D02*
X028928Y015178D01*
X028928Y015297D02*
X028174Y015297D01*
X028292Y015416D02*
X028928Y015416D01*
X028928Y015534D02*
X028411Y015534D01*
X028529Y015653D02*
X028928Y015653D01*
X028928Y015771D02*
X028648Y015771D01*
X028648Y015890D02*
X028928Y015890D01*
X028928Y016008D02*
X028561Y016008D01*
X028442Y016127D02*
X028928Y016127D01*
X028928Y016245D02*
X028324Y016245D01*
X028205Y016364D02*
X028928Y016364D01*
X028928Y016482D02*
X028087Y016482D01*
X027968Y016601D02*
X028928Y016601D01*
X028928Y016719D02*
X027850Y016719D01*
X027731Y016838D02*
X028928Y016838D01*
X028928Y016957D02*
X025913Y016957D01*
X025913Y016870D02*
X025836Y016685D01*
X025694Y016543D01*
X025508Y016466D01*
X025307Y016466D01*
X025122Y016543D01*
X024980Y016685D01*
X024908Y016859D01*
X024836Y016685D01*
X024694Y016543D01*
X024508Y016466D01*
X024307Y016466D01*
X024122Y016543D01*
X023980Y016685D01*
X023903Y016870D01*
X023903Y017071D01*
X023980Y017257D01*
X024122Y017399D01*
X024307Y017476D01*
X024508Y017476D01*
X024694Y017399D01*
X024836Y017257D01*
X024908Y017083D01*
X024980Y017257D01*
X025122Y017399D01*
X025307Y017476D01*
X025508Y017476D01*
X025694Y017399D01*
X025836Y017257D01*
X025913Y017071D01*
X025913Y016870D01*
X025899Y016838D02*
X027535Y016838D01*
X027417Y016719D02*
X025850Y016719D01*
X025752Y016601D02*
X027298Y016601D01*
X027180Y016482D02*
X025548Y016482D01*
X025268Y016482D02*
X024548Y016482D01*
X024752Y016601D02*
X025064Y016601D01*
X024966Y016719D02*
X024850Y016719D01*
X024899Y016838D02*
X024916Y016838D01*
X024954Y017194D02*
X024862Y017194D01*
X024780Y017312D02*
X025035Y017312D01*
X025199Y017431D02*
X024616Y017431D01*
X024666Y017668D02*
X025150Y017668D01*
X025055Y017786D02*
X024761Y017786D01*
X024804Y017905D02*
X025011Y017905D01*
X025011Y018023D02*
X024804Y018023D01*
X024766Y018142D02*
X025049Y018142D01*
X025766Y018142D02*
X028928Y018142D01*
X028928Y018023D02*
X025804Y018023D01*
X025804Y017905D02*
X028928Y017905D01*
X028928Y017786D02*
X025761Y017786D01*
X025666Y017668D02*
X028928Y017668D01*
X028928Y017549D02*
X008388Y017549D01*
X008388Y017431D02*
X008649Y017431D01*
X008485Y017312D02*
X008388Y017312D01*
X008388Y017194D02*
X008404Y017194D01*
X008388Y017668D02*
X008600Y017668D01*
X008505Y017786D02*
X008388Y017786D01*
X008388Y017905D02*
X008461Y017905D01*
X008461Y018023D02*
X008388Y018023D01*
X008388Y018142D02*
X008499Y018142D01*
X009216Y018142D02*
X009499Y018142D01*
X009461Y018023D02*
X009254Y018023D01*
X009254Y017905D02*
X009461Y017905D01*
X009505Y017786D02*
X009211Y017786D01*
X009116Y017668D02*
X009600Y017668D01*
X009649Y017431D02*
X009066Y017431D01*
X009230Y017312D02*
X009485Y017312D01*
X009404Y017194D02*
X009312Y017194D01*
X009858Y016971D02*
X009858Y016621D01*
X008358Y015121D01*
X008358Y009471D01*
X009108Y008721D01*
X009108Y008071D01*
X008728Y007947D02*
X008388Y007947D01*
X008388Y007829D02*
X008787Y007829D01*
X008710Y008066D02*
X008388Y008066D01*
X008388Y008184D02*
X008724Y008184D01*
X008777Y008303D02*
X008388Y008303D01*
X008388Y008421D02*
X008868Y008421D01*
X008868Y008540D02*
X008388Y008540D01*
X008388Y008659D02*
X008831Y008659D01*
X008712Y008777D02*
X008388Y008777D01*
X008388Y008896D02*
X008594Y008896D01*
X008475Y009014D02*
X008388Y009014D01*
X008598Y010200D02*
X011348Y010200D01*
X011310Y010318D02*
X008598Y010318D01*
X008598Y010437D02*
X009050Y010437D01*
X008817Y010555D02*
X008598Y010555D01*
X008598Y010674D02*
X008699Y010674D01*
X008624Y010792D02*
X008598Y010792D01*
X008598Y011504D02*
X008646Y011504D01*
X008598Y011622D02*
X008753Y011622D01*
X008598Y012215D02*
X009424Y012215D01*
X009306Y012333D02*
X008598Y012333D01*
X008598Y012452D02*
X009187Y012452D01*
X009069Y012570D02*
X008598Y012570D01*
X008598Y012689D02*
X008950Y012689D01*
X008832Y012808D02*
X008598Y012808D01*
X008598Y012926D02*
X008713Y012926D01*
X009741Y012215D02*
X014324Y012215D01*
X014408Y012131D02*
X013468Y013071D01*
X013468Y013220D01*
X013798Y013550D01*
X013645Y013703D01*
X013625Y013703D01*
X013471Y013767D01*
X013354Y013884D01*
X013290Y014038D01*
X013290Y014204D01*
X013354Y014357D01*
X013471Y014475D01*
X013625Y014539D01*
X013791Y014539D01*
X013944Y014475D01*
X014062Y014357D01*
X014126Y014204D01*
X014126Y014184D01*
X014278Y014031D01*
X014408Y014161D01*
X014557Y014161D01*
X015498Y013220D01*
X015498Y013071D01*
X014557Y012131D01*
X014408Y012131D01*
X014641Y012215D02*
X019524Y012215D01*
X019406Y012333D02*
X014760Y012333D01*
X014879Y012452D02*
X019287Y012452D01*
X019169Y012570D02*
X014997Y012570D01*
X015116Y012689D02*
X019050Y012689D01*
X018932Y012808D02*
X015234Y012808D01*
X015353Y012926D02*
X018813Y012926D01*
X018694Y013045D02*
X015471Y013045D01*
X015498Y013163D02*
X018668Y013163D01*
X018729Y013282D02*
X015437Y013282D01*
X015318Y013400D02*
X018848Y013400D01*
X018929Y013519D02*
X017179Y013519D01*
X017141Y013503D02*
X017294Y013567D01*
X017412Y013684D01*
X017476Y013838D01*
X017476Y014004D01*
X017412Y014157D01*
X017398Y014172D01*
X017398Y014971D01*
X018198Y015772D01*
X018198Y015921D01*
X017258Y016861D01*
X017109Y016861D01*
X016168Y015921D01*
X016168Y015772D01*
X016718Y015222D01*
X016718Y014172D01*
X016704Y014157D01*
X016640Y014004D01*
X016640Y013838D01*
X016704Y013684D01*
X016821Y013567D01*
X016975Y013503D01*
X017141Y013503D01*
X016936Y013519D02*
X015200Y013519D01*
X015081Y013637D02*
X016750Y013637D01*
X016674Y013756D02*
X014963Y013756D01*
X014844Y013874D02*
X016640Y013874D01*
X016640Y013993D02*
X014725Y013993D01*
X014607Y014112D02*
X016685Y014112D01*
X016718Y014230D02*
X014115Y014230D01*
X014066Y014349D02*
X016718Y014349D01*
X016718Y014467D02*
X013952Y014467D01*
X014198Y014112D02*
X014359Y014112D01*
X013710Y013637D02*
X012215Y013637D01*
X012262Y013684D02*
X012144Y013567D01*
X011991Y013503D01*
X011825Y013503D01*
X011671Y013567D01*
X011554Y013684D01*
X011490Y013838D01*
X011490Y014004D01*
X011554Y014157D01*
X011568Y014172D01*
X011568Y015472D01*
X011268Y015772D01*
X011268Y015921D01*
X012209Y016861D01*
X012358Y016861D01*
X013298Y015921D01*
X013298Y015772D01*
X012358Y014831D01*
X012248Y014831D01*
X012248Y014172D01*
X012262Y014157D01*
X012326Y014004D01*
X012326Y013838D01*
X012262Y013684D01*
X012292Y013756D02*
X013497Y013756D01*
X013363Y013874D02*
X012326Y013874D01*
X012326Y013993D02*
X013309Y013993D01*
X013290Y014112D02*
X012281Y014112D01*
X012248Y014230D02*
X013301Y014230D01*
X013350Y014349D02*
X012248Y014349D01*
X012248Y014467D02*
X013463Y014467D01*
X012587Y015060D02*
X015278Y015060D01*
X015278Y015178D02*
X012705Y015178D01*
X012824Y015297D02*
X015278Y015297D01*
X015278Y015316D02*
X015278Y014916D01*
X015278Y014726D01*
X015413Y014591D01*
X015870Y014591D01*
X015905Y014626D01*
X015940Y014591D01*
X016130Y014591D01*
X016264Y014591D01*
X016330Y014657D01*
X016330Y014657D01*
X016396Y014723D01*
X016398Y014725D01*
X016465Y014792D01*
X016465Y014983D01*
X016465Y015049D01*
X016465Y015183D01*
X016465Y015250D01*
X016330Y015384D01*
X016264Y015451D01*
X016073Y015451D01*
X015940Y015451D01*
X015805Y015316D01*
X015805Y015316D01*
X015738Y015250D01*
X015738Y015059D01*
X015747Y015051D01*
X015738Y015051D01*
X015738Y015316D01*
X015603Y015451D01*
X015413Y015451D01*
X015278Y015316D01*
X015377Y015416D02*
X012942Y015416D01*
X013061Y015534D02*
X016406Y015534D01*
X016299Y015416D02*
X016524Y015416D01*
X016418Y015297D02*
X016643Y015297D01*
X016718Y015178D02*
X016465Y015178D01*
X016465Y015060D02*
X016718Y015060D01*
X016718Y014941D02*
X016465Y014941D01*
X016465Y014823D02*
X016718Y014823D01*
X016718Y014704D02*
X016377Y014704D01*
X016718Y014586D02*
X012248Y014586D01*
X012248Y014704D02*
X015299Y014704D01*
X015278Y014823D02*
X012248Y014823D01*
X012468Y014941D02*
X015278Y014941D01*
X015738Y015060D02*
X015738Y015060D01*
X015738Y015178D02*
X015738Y015178D01*
X015738Y015297D02*
X015786Y015297D01*
X015904Y015416D02*
X015639Y015416D01*
X016169Y015771D02*
X013298Y015771D01*
X013298Y015890D02*
X016168Y015890D01*
X016256Y016008D02*
X013211Y016008D01*
X013092Y016127D02*
X016374Y016127D01*
X016493Y016245D02*
X012974Y016245D01*
X012855Y016364D02*
X016611Y016364D01*
X016730Y016482D02*
X015148Y016482D01*
X015108Y016466D02*
X014907Y016466D01*
X014722Y016543D01*
X014580Y016685D01*
X014508Y016859D01*
X014436Y016685D01*
X014294Y016543D01*
X014108Y016466D01*
X013907Y016466D01*
X013722Y016543D01*
X013580Y016685D01*
X013503Y016870D01*
X013503Y017071D01*
X013580Y017257D01*
X013722Y017399D01*
X013907Y017476D01*
X014108Y017476D01*
X014294Y017399D01*
X014436Y017257D01*
X014508Y017083D01*
X014580Y017257D01*
X014722Y017399D01*
X014907Y017476D01*
X015108Y017476D01*
X015294Y017399D01*
X015436Y017257D01*
X015513Y017071D01*
X015513Y016870D01*
X015436Y016685D01*
X015294Y016543D01*
X015108Y016466D01*
X014868Y016482D02*
X014148Y016482D01*
X014352Y016601D02*
X014664Y016601D01*
X014566Y016719D02*
X014450Y016719D01*
X014499Y016838D02*
X014516Y016838D01*
X014554Y017194D02*
X014462Y017194D01*
X014380Y017312D02*
X014635Y017312D01*
X014799Y017431D02*
X014216Y017431D01*
X014266Y017668D02*
X014750Y017668D01*
X014655Y017786D02*
X014361Y017786D01*
X014404Y017905D02*
X014611Y017905D01*
X014611Y018023D02*
X014404Y018023D01*
X014366Y018142D02*
X014649Y018142D01*
X015366Y018142D02*
X018799Y018142D01*
X018761Y018023D02*
X015404Y018023D01*
X015404Y017905D02*
X018761Y017905D01*
X018805Y017786D02*
X015361Y017786D01*
X015266Y017668D02*
X018900Y017668D01*
X018949Y017431D02*
X015216Y017431D01*
X015380Y017312D02*
X018785Y017312D01*
X018730Y017257D02*
X018872Y017399D01*
X019057Y017476D01*
X019258Y017476D01*
X019444Y017399D01*
X019586Y017257D01*
X019658Y017083D01*
X019730Y017257D01*
X019872Y017399D01*
X020057Y017476D01*
X020258Y017476D01*
X020444Y017399D01*
X020586Y017257D01*
X020663Y017071D01*
X020663Y016870D01*
X020586Y016685D01*
X020444Y016543D01*
X020258Y016466D01*
X020057Y016466D01*
X019872Y016543D01*
X019730Y016685D01*
X019658Y016859D01*
X019586Y016685D01*
X019444Y016543D01*
X019258Y016466D01*
X019057Y016466D01*
X018872Y016543D01*
X018730Y016685D01*
X018653Y016870D01*
X018653Y017071D01*
X018730Y017257D01*
X018704Y017194D02*
X015462Y017194D01*
X015511Y017075D02*
X018655Y017075D01*
X018653Y016957D02*
X015513Y016957D01*
X015499Y016838D02*
X017085Y016838D01*
X016967Y016719D02*
X015450Y016719D01*
X015352Y016601D02*
X016848Y016601D01*
X017281Y016838D02*
X018666Y016838D01*
X018716Y016719D02*
X017400Y016719D01*
X017518Y016601D02*
X018814Y016601D01*
X019018Y016482D02*
X017637Y016482D01*
X017755Y016364D02*
X021811Y016364D01*
X021693Y016245D02*
X017874Y016245D01*
X017992Y016127D02*
X021574Y016127D01*
X021456Y016008D02*
X018111Y016008D01*
X018198Y015890D02*
X021368Y015890D01*
X021369Y015771D02*
X018198Y015771D01*
X018079Y015653D02*
X021487Y015653D01*
X021606Y015534D02*
X017961Y015534D01*
X017842Y015416D02*
X020527Y015416D01*
X020563Y015451D02*
X020753Y015451D01*
X020888Y015316D01*
X020888Y015051D01*
X020897Y015051D01*
X020888Y015059D01*
X020888Y015250D01*
X020955Y015316D01*
X020955Y015316D01*
X021090Y015451D01*
X021414Y015451D01*
X021548Y015316D01*
X021615Y015250D01*
X021615Y015059D01*
X021615Y014992D01*
X021577Y014954D01*
X021615Y014916D01*
X021615Y014726D01*
X021480Y014591D01*
X021213Y014591D01*
X021023Y014591D01*
X021021Y014592D01*
X021020Y014591D01*
X020563Y014591D01*
X020428Y014726D01*
X020428Y014916D01*
X020428Y015316D01*
X020563Y015451D01*
X020428Y015297D02*
X017724Y015297D01*
X017605Y015178D02*
X020428Y015178D01*
X020428Y015060D02*
X017487Y015060D01*
X017398Y014941D02*
X020428Y014941D01*
X020428Y014823D02*
X017398Y014823D01*
X017398Y014704D02*
X020449Y014704D01*
X020888Y015060D02*
X020888Y015060D01*
X020888Y015178D02*
X020888Y015178D01*
X020888Y015297D02*
X020936Y015297D01*
X021054Y015416D02*
X020789Y015416D01*
X021449Y015416D02*
X021724Y015416D01*
X021843Y015297D02*
X021568Y015297D01*
X021615Y015178D02*
X021918Y015178D01*
X021918Y015060D02*
X021615Y015060D01*
X021590Y014941D02*
X021918Y014941D01*
X021918Y014823D02*
X021615Y014823D01*
X021594Y014704D02*
X021918Y014704D01*
X021918Y014586D02*
X017398Y014586D01*
X017398Y014467D02*
X018563Y014467D01*
X018450Y014349D02*
X017398Y014349D01*
X017398Y014230D02*
X018401Y014230D01*
X018390Y014112D02*
X017431Y014112D01*
X017476Y013993D02*
X018409Y013993D01*
X018463Y013874D02*
X017476Y013874D01*
X017442Y013756D02*
X018597Y013756D01*
X018810Y013637D02*
X017365Y013637D01*
X019052Y014467D02*
X021918Y014467D01*
X021918Y014349D02*
X019166Y014349D01*
X019215Y014230D02*
X021918Y014230D01*
X021918Y014112D02*
X019807Y014112D01*
X019925Y013993D02*
X021918Y013993D01*
X021869Y013874D02*
X020044Y013874D01*
X020163Y013756D02*
X021840Y013756D01*
X021840Y013637D02*
X020281Y013637D01*
X020400Y013519D02*
X021889Y013519D01*
X021987Y013400D02*
X020518Y013400D01*
X019440Y013993D02*
X019416Y013993D01*
X019298Y014112D02*
X019559Y014112D01*
X022598Y014112D02*
X023590Y014112D01*
X023601Y014230D02*
X022598Y014230D01*
X022598Y014349D02*
X023650Y014349D01*
X023763Y014467D02*
X022598Y014467D01*
X022598Y014586D02*
X027168Y014586D01*
X027168Y014704D02*
X026844Y014704D01*
X026865Y014726D02*
X026730Y014591D01*
X026273Y014591D01*
X026271Y014592D01*
X026270Y014591D01*
X025813Y014591D01*
X025678Y014726D01*
X025678Y014916D01*
X025678Y015316D01*
X025813Y015451D01*
X026003Y015451D01*
X026138Y015316D01*
X026138Y015051D01*
X026138Y015183D01*
X026272Y015316D01*
X026406Y015451D01*
X026597Y015451D01*
X026732Y015316D01*
X026732Y015049D01*
X026865Y014916D01*
X026865Y014726D01*
X026865Y014823D02*
X027168Y014823D01*
X027168Y014941D02*
X026840Y014941D01*
X026732Y015060D02*
X027168Y015060D01*
X027168Y015178D02*
X026732Y015178D01*
X026732Y015297D02*
X027093Y015297D01*
X026974Y015416D02*
X026632Y015416D01*
X026856Y015534D02*
X023161Y015534D01*
X023279Y015653D02*
X026737Y015653D01*
X026619Y015771D02*
X023398Y015771D01*
X023398Y015890D02*
X026618Y015890D01*
X026706Y016008D02*
X023311Y016008D01*
X023192Y016127D02*
X026824Y016127D01*
X026943Y016245D02*
X023074Y016245D01*
X022955Y016364D02*
X027061Y016364D01*
X025911Y017075D02*
X028928Y017075D01*
X028928Y017194D02*
X025862Y017194D01*
X025780Y017312D02*
X028928Y017312D01*
X028928Y017431D02*
X025616Y017431D01*
X024199Y017431D02*
X020366Y017431D01*
X020530Y017312D02*
X024035Y017312D01*
X023954Y017194D02*
X020612Y017194D01*
X020661Y017075D02*
X023905Y017075D01*
X023903Y016957D02*
X020663Y016957D01*
X020649Y016838D02*
X022285Y016838D01*
X022167Y016719D02*
X020600Y016719D01*
X020502Y016601D02*
X022048Y016601D01*
X021930Y016482D02*
X020298Y016482D01*
X020018Y016482D02*
X019298Y016482D01*
X019502Y016601D02*
X019814Y016601D01*
X019716Y016719D02*
X019600Y016719D01*
X019649Y016838D02*
X019666Y016838D01*
X019704Y017194D02*
X019612Y017194D01*
X019530Y017312D02*
X019785Y017312D01*
X019949Y017431D02*
X019366Y017431D01*
X019416Y017668D02*
X019900Y017668D01*
X019805Y017786D02*
X019511Y017786D01*
X019554Y017905D02*
X019761Y017905D01*
X019761Y018023D02*
X019554Y018023D01*
X019516Y018142D02*
X019799Y018142D01*
X020516Y018142D02*
X024049Y018142D01*
X024011Y018023D02*
X020554Y018023D01*
X020554Y017905D02*
X024011Y017905D01*
X024055Y017786D02*
X020511Y017786D01*
X020416Y017668D02*
X024150Y017668D01*
X023916Y016838D02*
X022481Y016838D01*
X022600Y016719D02*
X023966Y016719D01*
X024064Y016601D02*
X022718Y016601D01*
X022837Y016482D02*
X024268Y016482D01*
X023042Y015416D02*
X025777Y015416D01*
X025678Y015297D02*
X022924Y015297D01*
X022805Y015178D02*
X025678Y015178D01*
X025678Y015060D02*
X022687Y015060D01*
X022598Y014941D02*
X025678Y014941D01*
X025678Y014823D02*
X022598Y014823D01*
X022598Y014704D02*
X025699Y014704D01*
X026138Y015051D02*
X026138Y015051D01*
X026138Y015060D02*
X026138Y015060D01*
X026138Y015178D02*
X026138Y015178D01*
X026138Y015297D02*
X026252Y015297D01*
X026371Y015416D02*
X026039Y015416D01*
X023797Y013756D02*
X022676Y013756D01*
X022675Y013637D02*
X024010Y013637D01*
X023663Y013874D02*
X022646Y013874D01*
X022598Y013993D02*
X023609Y013993D01*
X018436Y009488D02*
X014830Y009488D01*
X014948Y009370D02*
X018317Y009370D01*
X018199Y009251D02*
X015067Y009251D01*
X016458Y007521D02*
X014658Y005721D01*
X011310Y010437D02*
X009466Y010437D01*
X009698Y010555D02*
X011353Y010555D01*
X011448Y010674D02*
X009817Y010674D01*
X009860Y012333D02*
X014206Y012333D01*
X014087Y012452D02*
X009979Y012452D01*
X010097Y012570D02*
X013969Y012570D01*
X013850Y012689D02*
X010216Y012689D01*
X010334Y012808D02*
X013732Y012808D01*
X013613Y012926D02*
X010453Y012926D01*
X010571Y013045D02*
X013494Y013045D01*
X013468Y013163D02*
X010598Y013163D01*
X010537Y013282D02*
X013529Y013282D01*
X013648Y013400D02*
X010418Y013400D01*
X010300Y013519D02*
X011786Y013519D01*
X011600Y013637D02*
X010181Y013637D01*
X010063Y013756D02*
X011524Y013756D01*
X011490Y013874D02*
X009944Y013874D01*
X009825Y013993D02*
X011490Y013993D01*
X011535Y014112D02*
X009707Y014112D01*
X009459Y014112D02*
X009298Y014112D01*
X009215Y014230D02*
X011568Y014230D01*
X011568Y014349D02*
X009166Y014349D01*
X009052Y014467D02*
X011568Y014467D01*
X011568Y014586D02*
X008598Y014586D01*
X008598Y014704D02*
X010349Y014704D01*
X010328Y014726D02*
X010328Y014916D01*
X010328Y015316D01*
X010463Y015451D01*
X010653Y015451D01*
X010788Y015316D01*
X010788Y015051D01*
X010788Y015116D01*
X010923Y015251D01*
X011123Y015451D01*
X011314Y015451D01*
X011448Y015316D01*
X011448Y015183D01*
X011515Y015116D01*
X011515Y014926D01*
X011448Y014859D01*
X011448Y014726D01*
X011314Y014591D01*
X011123Y014591D01*
X011021Y014692D01*
X010920Y014591D01*
X010463Y014591D01*
X010328Y014726D01*
X010328Y014823D02*
X008598Y014823D01*
X008598Y014941D02*
X010328Y014941D01*
X010328Y015060D02*
X008636Y015060D01*
X008755Y015178D02*
X010328Y015178D01*
X010328Y015297D02*
X008873Y015297D01*
X008992Y015416D02*
X010427Y015416D01*
X010689Y015416D02*
X011087Y015416D01*
X010969Y015297D02*
X010788Y015297D01*
X010788Y015178D02*
X010850Y015178D01*
X010788Y015060D02*
X010788Y015060D01*
X010788Y015051D02*
X010788Y015051D01*
X011349Y015416D02*
X011568Y015416D01*
X011568Y015297D02*
X011448Y015297D01*
X011453Y015178D02*
X011568Y015178D01*
X011568Y015060D02*
X011515Y015060D01*
X011515Y014941D02*
X011568Y014941D01*
X011568Y014823D02*
X011448Y014823D01*
X011427Y014704D02*
X011568Y014704D01*
X011506Y015534D02*
X009110Y015534D01*
X009229Y015653D02*
X011387Y015653D01*
X011269Y015771D02*
X009348Y015771D01*
X009466Y015890D02*
X011268Y015890D01*
X011356Y016008D02*
X009585Y016008D01*
X009703Y016127D02*
X011474Y016127D01*
X011593Y016245D02*
X009822Y016245D01*
X009940Y016364D02*
X011711Y016364D01*
X011830Y016482D02*
X010059Y016482D01*
X010202Y016601D02*
X011948Y016601D01*
X012067Y016719D02*
X010300Y016719D01*
X010349Y016838D02*
X012185Y016838D01*
X012381Y016838D02*
X013516Y016838D01*
X013503Y016957D02*
X010363Y016957D01*
X010361Y017075D02*
X013505Y017075D01*
X013554Y017194D02*
X010312Y017194D01*
X010230Y017312D02*
X013635Y017312D01*
X013799Y017431D02*
X010066Y017431D01*
X010116Y017668D02*
X013750Y017668D01*
X013655Y017786D02*
X010211Y017786D01*
X010254Y017905D02*
X013611Y017905D01*
X013611Y018023D02*
X010254Y018023D01*
X010216Y018142D02*
X013649Y018142D01*
X013566Y016719D02*
X012500Y016719D01*
X012618Y016601D02*
X013664Y016601D01*
X013868Y016482D02*
X012737Y016482D01*
X013179Y015653D02*
X016287Y015653D01*
X013766Y013519D02*
X012029Y013519D01*
D19*
X011058Y013421D03*
X011058Y012221D03*
X012808Y011171D03*
X011708Y010371D03*
X009758Y010371D03*
X009108Y008071D03*
X011308Y008121D03*
X013758Y006821D03*
X016458Y006921D03*
X018358Y007821D03*
X016058Y008571D03*
X014158Y008521D03*
X016508Y010671D03*
X014908Y010871D03*
X019208Y009921D03*
X020108Y010921D03*
X021058Y010871D03*
X024858Y010921D03*
X026208Y011471D03*
X026658Y009621D03*
D20*
X025708Y008671D01*
X025658Y008671D01*
X025658Y008071D02*
X026358Y008071D01*
X026658Y007771D01*
X026658Y005721D01*
D21*
X026858Y013521D03*
X024008Y014121D03*
X022258Y013721D03*
X018808Y014121D03*
X017058Y013921D03*
X013708Y014121D03*
X011908Y013921D03*
X008808Y014121D03*
D22*
X009308Y013221D02*
X009308Y012771D01*
X009583Y013146D01*
X009308Y012771D02*
X009308Y012771D01*
X011908Y015371D02*
X011958Y015371D01*
X012283Y015846D01*
X014483Y013146D02*
X014508Y012721D01*
X014558Y012821D01*
X014508Y012721D02*
X014508Y012671D01*
X014483Y012996D02*
X014483Y013146D01*
X017208Y015421D02*
X017183Y015846D01*
X017108Y015771D01*
X017058Y015771D01*
X019683Y013146D02*
X019658Y013071D01*
X019608Y013021D01*
X019608Y013071D01*
X019683Y013146D02*
X019708Y012771D01*
X022258Y015671D02*
X022358Y015721D01*
X022383Y015846D01*
X024933Y013146D02*
X024958Y012771D01*
X024958Y012821D01*
X027508Y015721D02*
X027633Y015846D01*
D23*
X027508Y015721D02*
X027508Y014171D01*
X026858Y013521D01*
X024908Y013271D02*
X024958Y012821D01*
X024908Y013271D02*
X024858Y013271D01*
X024008Y014121D01*
X022258Y013721D02*
X022258Y015671D01*
X019708Y013221D02*
X018808Y014121D01*
X019708Y013221D02*
X019708Y012771D01*
X017058Y013921D02*
X017058Y015771D01*
X014558Y013271D02*
X013708Y014121D01*
X014558Y013271D02*
X014558Y012821D01*
X011908Y013921D02*
X011908Y015371D01*
X009408Y013521D02*
X008808Y014121D01*
X009408Y013521D02*
X009408Y013221D01*
X009308Y013221D01*
M02*
