%
M48
M72
T01C0.0197
T02C0.0236
T03C0.0315
T04C0.0354
T05C0.0394
T06C0.0591
%
T01
X7465Y2264
X8465Y2114
X11515Y3314
X8915Y3914
X6715Y3964
X7465Y4664
X7465Y5164
X7465Y5664
X7465Y6164
X6765Y6564
X9615Y7664
X11265Y6814
X13065Y6764
X14865Y6814
X17865Y6064
X23765Y7114
X22965Y8264
X22265Y8264
X23165Y8864
X23865Y8764
X24865Y8914
X24115Y9164
X25065Y9464
X25915Y9364
X25865Y10014
X23415Y10564
X26415Y11314
X26915Y11464
X28015Y11564
X30415Y11364
X29565Y10264
X30215Y8164
X29465Y7814
X28465Y7814
X27965Y8164
X30115Y6764
X28415Y6014
X26715Y5664
X26715Y5164
X26715Y4664
X26715Y4164
X25915Y3864
X28315Y4164
X28665Y3614
X31415Y3714
X34365Y3714
X35215Y4164
X35215Y4664
X34365Y4714
X35215Y5164
X35215Y5664
X34365Y6464
X37465Y6514
X36965Y7814
X34165Y8164
X40215Y10514
X40815Y11364
X43615Y10614
X46815Y11414
X47565Y11464
X46215Y11814
X47515Y10964
X47365Y10264
X47065Y9514
X47715Y7914
X46465Y7814
X47465Y7114
X47365Y6314
X46815Y6064
X47315Y5464
X44715Y5664
X44715Y5164
X43815Y4814
X44715Y4664
X44715Y4164
X43915Y3764
X41915Y3364
X39265Y3214
X36715Y3664
X39315Y4814
X43865Y6414
X41915Y7314
X46265Y4214
X47065Y4114
X33665Y2114
X32665Y2264
X27265Y2764
X21815Y3614
X20065Y2264
X21065Y2114
X28415Y4914
X16365Y8614
X14915Y8164
X13515Y7714
X12815Y8164
X13315Y9414
X15315Y9664
X15815Y9664
X16315Y9664
X16815Y9664
X17315Y9664
X19352Y9914
X17815Y10764
X18765Y11464
X14315Y12214
X10715Y12914
X7465Y12914
X5465Y12714
X2515Y12914
X2215Y12164
X2265Y11614
X3715Y11464
X2515Y11064
X2515Y10314
X3215Y9264
X2215Y7964
X3365Y7614
X2265Y7214
X2665Y6664
X2215Y5514
X2615Y5064
X2865Y4514
X2215Y4014
X2265Y3414
X4365Y3214
X10815Y4664
X10815Y9964
X18065Y12764
X20065Y12964
X21065Y13114
X30665Y12714
X31665Y12914
X33665Y13114
X38065Y12214
X48115Y12964
T02
X19485Y8154
X18485Y8154
X18485Y7154
X19485Y7154
X19485Y6154
X18485Y6154
T03
X18565Y2799
X17565Y2799
X16565Y2799
X15565Y2799
X19565Y2799
X20565Y2799
X21565Y2799
X22565Y2799
X28164Y2799
X29164Y2799
X30164Y2799
X31164Y2799
X32164Y2799
X33164Y2799
X34164Y2799
X35164Y2799
X40762Y2799
X41762Y2799
X42762Y2799
X43762Y2799
X44762Y2799
X45762Y2799
X46762Y2799
X47762Y2799
X47762Y12247
X46762Y12247
X45762Y12247
X44762Y12247
X43762Y12247
X42762Y12247
X41762Y12247
X40762Y12247
X35164Y12247
X34164Y12247
X33164Y12247
X32164Y12247
X31164Y12247
X30164Y12247
X29164Y12247
X28164Y12247
X22565Y12247
X21565Y12247
X20565Y12247
X19565Y12247
X18565Y12247
X17565Y12247
X16565Y12247
X15565Y12247
X9967Y12247
X8967Y12247
X7967Y12247
X6967Y12247
X5967Y12247
X4967Y12247
X3967Y12247
X2967Y12247
X2967Y2799
X3967Y2799
X4967Y2799
X5967Y2799
X6967Y2799
X7967Y2799
X8967Y2799
X9967Y2799
T04
X6865Y8864
X5865Y8864
X6365Y9864
X7365Y9864
T05
X7865Y11264
X8865Y11264
X9865Y11264
T06
X5355Y9585
M30
