G75*
G70*
%OFA0B0*%
%FSLAX24Y24*%
%IPPOS*%
%LPD*%
%AMOC8*
5,1,8,0,0,1.08239X$1,22.5*
%
%ADD10C,0.0000*%
%ADD11C,0.0436*%
%ADD12C,0.0554*%
%ADD13R,0.0515X0.0515*%
%ADD14C,0.0515*%
%ADD15C,0.0700*%
%ADD16C,0.0120*%
%ADD17C,0.0397*%
%ADD18C,0.0070*%
D10*
X000615Y001764D02*
X000615Y013492D01*
X049846Y013492D01*
X049846Y001764D01*
X000615Y001764D01*
X005060Y009585D02*
X005062Y009619D01*
X005068Y009653D01*
X005078Y009686D01*
X005091Y009717D01*
X005109Y009747D01*
X005129Y009775D01*
X005153Y009800D01*
X005179Y009822D01*
X005207Y009840D01*
X005238Y009856D01*
X005270Y009868D01*
X005304Y009876D01*
X005338Y009880D01*
X005372Y009880D01*
X005406Y009876D01*
X005440Y009868D01*
X005472Y009856D01*
X005502Y009840D01*
X005531Y009822D01*
X005557Y009800D01*
X005581Y009775D01*
X005601Y009747D01*
X005619Y009717D01*
X005632Y009686D01*
X005642Y009653D01*
X005648Y009619D01*
X005650Y009585D01*
X005648Y009551D01*
X005642Y009517D01*
X005632Y009484D01*
X005619Y009453D01*
X005601Y009423D01*
X005581Y009395D01*
X005557Y009370D01*
X005531Y009348D01*
X005503Y009330D01*
X005472Y009314D01*
X005440Y009302D01*
X005406Y009294D01*
X005372Y009290D01*
X005338Y009290D01*
X005304Y009294D01*
X005270Y009302D01*
X005238Y009314D01*
X005207Y009330D01*
X005179Y009348D01*
X005153Y009370D01*
X005129Y009395D01*
X005109Y009423D01*
X005091Y009453D01*
X005078Y009484D01*
X005068Y009517D01*
X005062Y009551D01*
X005060Y009585D01*
D11*
X018485Y008154D03*
X019485Y008154D03*
X019485Y007154D03*
X018485Y007154D03*
X018485Y006154D03*
X019485Y006154D03*
D12*
X007365Y009864D03*
X006365Y009864D03*
X006865Y008864D03*
X005865Y008864D03*
D13*
X009967Y002799D03*
X022565Y002799D03*
X035164Y002799D03*
X047762Y002799D03*
D14*
X046762Y002799D03*
X045762Y002799D03*
X044762Y002799D03*
X043762Y002799D03*
X042762Y002799D03*
X041762Y002799D03*
X040762Y002799D03*
X034164Y002799D03*
X033164Y002799D03*
X032164Y002799D03*
X031164Y002799D03*
X030164Y002799D03*
X029164Y002799D03*
X028164Y002799D03*
X021565Y002799D03*
X020565Y002799D03*
X019565Y002799D03*
X018565Y002799D03*
X017565Y002799D03*
X016565Y002799D03*
X015565Y002799D03*
X008967Y002799D03*
X007967Y002799D03*
X006967Y002799D03*
X005967Y002799D03*
X004967Y002799D03*
X003967Y002799D03*
X002967Y002799D03*
X002967Y012247D03*
X003967Y012247D03*
X004967Y012247D03*
X005967Y012247D03*
X006967Y012247D03*
X007967Y012247D03*
X008967Y012247D03*
X009967Y012247D03*
X015565Y012247D03*
X016565Y012247D03*
X017565Y012247D03*
X018565Y012247D03*
X019565Y012247D03*
X020565Y012247D03*
X021565Y012247D03*
X022565Y012247D03*
X028164Y012247D03*
X029164Y012247D03*
X030164Y012247D03*
X031164Y012247D03*
X032164Y012247D03*
X033164Y012247D03*
X034164Y012247D03*
X035164Y012247D03*
X040762Y012247D03*
X041762Y012247D03*
X042762Y012247D03*
X043762Y012247D03*
X044762Y012247D03*
X045762Y012247D03*
X046762Y012247D03*
X047762Y012247D03*
D15*
X009865Y011264D03*
X008865Y011264D03*
X007865Y011264D03*
D16*
X008377Y011412D02*
X008314Y011564D01*
X008165Y011713D01*
X007970Y011794D01*
X007817Y011794D01*
X007847Y011824D01*
X007880Y011810D01*
X008054Y011810D01*
X008215Y011877D01*
X008338Y012000D01*
X008404Y012160D01*
X008404Y012334D01*
X008338Y012495D01*
X008215Y012618D01*
X008054Y012685D01*
X007880Y012685D01*
X007719Y012618D01*
X007596Y012495D01*
X007529Y012334D01*
X007529Y012160D01*
X007543Y012128D01*
X007344Y011929D01*
X007267Y011929D01*
X007338Y012000D01*
X007404Y012160D01*
X007404Y012334D01*
X007341Y012486D01*
X007390Y012535D01*
X007540Y012535D01*
X007679Y012593D01*
X007786Y012699D01*
X007843Y012838D01*
X007843Y012989D01*
X007786Y013128D01*
X007679Y013235D01*
X007540Y013292D01*
X007389Y013292D01*
X007250Y013235D01*
X007144Y013128D01*
X007086Y012989D01*
X007086Y012839D01*
X006932Y012685D01*
X006880Y012685D01*
X006719Y012618D01*
X006596Y012495D01*
X006529Y012334D01*
X006529Y012160D01*
X006596Y012000D01*
X006667Y011929D01*
X006267Y011929D01*
X006338Y012000D01*
X006404Y012160D01*
X006404Y012334D01*
X006338Y012495D01*
X006215Y012618D01*
X006054Y012685D01*
X005880Y012685D01*
X005843Y012670D01*
X005843Y012670D01*
X005843Y012789D01*
X005786Y012928D01*
X005679Y013035D01*
X005540Y013092D01*
X005389Y013092D01*
X005250Y013035D01*
X005144Y012928D01*
X005086Y012789D01*
X005086Y012671D01*
X005054Y012685D01*
X004880Y012685D01*
X004719Y012618D01*
X004596Y012495D01*
X004529Y012334D01*
X004529Y012160D01*
X004596Y012000D01*
X004667Y011929D01*
X004267Y011929D01*
X004338Y012000D01*
X004404Y012160D01*
X004404Y012334D01*
X004338Y012495D01*
X004215Y012618D01*
X004054Y012685D01*
X003880Y012685D01*
X003719Y012618D01*
X003596Y012495D01*
X003529Y012334D01*
X003529Y012160D01*
X003596Y012000D01*
X003719Y011877D01*
X003793Y011846D01*
X003789Y011842D01*
X003639Y011842D01*
X003500Y011785D01*
X003394Y011678D01*
X003336Y011539D01*
X003336Y011388D01*
X003366Y011316D01*
X002868Y011815D01*
X002880Y011810D01*
X003054Y011810D01*
X003215Y011877D01*
X003338Y012000D01*
X003404Y012160D01*
X003404Y012334D01*
X003338Y012495D01*
X003215Y012618D01*
X003054Y012685D01*
X002880Y012685D01*
X002719Y012618D01*
X002596Y012495D01*
X002541Y012364D01*
X002536Y012378D01*
X002429Y012485D01*
X002290Y012542D01*
X002139Y012542D01*
X002000Y012485D01*
X001894Y012378D01*
X001836Y012239D01*
X001836Y012088D01*
X001894Y011949D01*
X001980Y011864D01*
X001944Y011828D01*
X001886Y011689D01*
X001886Y011538D01*
X001944Y011399D01*
X002050Y011293D01*
X002178Y011240D01*
X002136Y011139D01*
X002136Y010988D01*
X002194Y010849D01*
X002300Y010743D01*
X002431Y010689D01*
X002300Y010635D01*
X002194Y010528D01*
X002136Y010389D01*
X002136Y010238D01*
X002194Y010099D01*
X002300Y009993D01*
X002439Y009935D01*
X002590Y009935D01*
X002729Y009993D01*
X002835Y010099D01*
X005967Y010099D01*
X005908Y009955D01*
X005908Y009773D01*
X005977Y009605D01*
X006106Y009476D01*
X006274Y009407D01*
X006456Y009407D01*
X006624Y009476D01*
X006752Y009605D01*
X006822Y009773D01*
X006822Y009955D01*
X006762Y010099D01*
X006967Y010099D01*
X006908Y009955D01*
X006908Y009773D01*
X006977Y009605D01*
X007106Y009476D01*
X007274Y009407D01*
X007456Y009407D01*
X007624Y009476D01*
X007752Y009605D01*
X007822Y009773D01*
X007822Y009955D01*
X007762Y010099D01*
X014796Y010099D01*
X013926Y009229D01*
X011454Y009229D01*
X011276Y009229D01*
X010726Y008679D01*
X007283Y008679D01*
X007322Y008773D01*
X007322Y008955D01*
X007252Y009123D01*
X007124Y009251D01*
X006956Y009321D01*
X006774Y009321D01*
X006606Y009251D01*
X006477Y009123D01*
X006408Y008955D01*
X006408Y008773D01*
X006447Y008679D01*
X006261Y008679D01*
X006270Y008696D01*
X006291Y008761D01*
X006302Y008829D01*
X006302Y008835D01*
X005894Y008835D01*
X005894Y008892D01*
X006302Y008892D01*
X006302Y008898D01*
X006291Y008966D01*
X006270Y009032D01*
X006239Y009093D01*
X006198Y009149D01*
X006150Y009197D01*
X006094Y009238D01*
X006033Y009269D01*
X005967Y009290D01*
X005899Y009301D01*
X005893Y009301D01*
X005893Y008893D01*
X005836Y008893D01*
X005836Y009301D01*
X005830Y009301D01*
X005762Y009290D01*
X005718Y009276D01*
X005758Y009316D01*
X005831Y009490D01*
X005831Y009680D01*
X005758Y009854D01*
X005625Y009988D01*
X005450Y010060D01*
X005261Y010060D01*
X005086Y009988D01*
X004953Y009854D01*
X004880Y009680D01*
X004880Y009490D01*
X004953Y009316D01*
X005086Y009182D01*
X005261Y009110D01*
X005450Y009110D01*
X005526Y009141D01*
X005491Y009093D01*
X005460Y009032D01*
X005438Y008966D01*
X005428Y008898D01*
X005428Y008892D01*
X005836Y008892D01*
X005836Y008835D01*
X005428Y008835D01*
X005428Y008829D01*
X005438Y008761D01*
X005460Y008696D01*
X005468Y008679D01*
X004104Y008679D01*
X003593Y009189D01*
X003593Y009339D01*
X003536Y009478D01*
X003429Y009585D01*
X003290Y009642D01*
X003139Y009642D01*
X003000Y009585D01*
X002894Y009478D01*
X002836Y009339D01*
X002836Y009188D01*
X002894Y009049D01*
X003000Y008943D01*
X003139Y008885D01*
X003289Y008885D01*
X003646Y008529D01*
X003154Y008529D01*
X002976Y008529D01*
X002626Y008179D01*
X002535Y008179D01*
X002429Y008285D01*
X002290Y008342D01*
X002139Y008342D01*
X002000Y008285D01*
X001894Y008178D01*
X001836Y008039D01*
X001836Y007888D01*
X001894Y007749D01*
X002000Y007643D01*
X002139Y007585D01*
X002173Y007585D01*
X002050Y007535D01*
X001944Y007428D01*
X001886Y007289D01*
X001886Y007138D01*
X001944Y006999D01*
X002050Y006893D01*
X002189Y006835D01*
X002326Y006835D01*
X002286Y006739D01*
X002286Y006588D01*
X002344Y006449D01*
X002450Y006343D01*
X002589Y006285D01*
X002740Y006285D01*
X002879Y006343D01*
X002986Y006449D01*
X003043Y006588D01*
X003043Y006739D01*
X002986Y006878D01*
X002880Y006984D01*
X002880Y007425D01*
X002989Y007533D01*
X003044Y007399D01*
X003150Y007293D01*
X003289Y007235D01*
X003440Y007235D01*
X003579Y007293D01*
X003686Y007399D01*
X003743Y007538D01*
X003743Y007599D01*
X006550Y007599D01*
X006550Y006884D01*
X006444Y006778D01*
X006386Y006639D01*
X006386Y006488D01*
X006444Y006349D01*
X006550Y006243D01*
X006689Y006185D01*
X006840Y006185D01*
X006979Y006243D01*
X007086Y006349D01*
X007143Y006488D01*
X007143Y006639D01*
X007086Y006778D01*
X006980Y006884D01*
X006980Y007599D01*
X009236Y007599D01*
X009236Y007588D01*
X009294Y007449D01*
X009400Y007343D01*
X009539Y007285D01*
X009690Y007285D01*
X009829Y007343D01*
X009936Y007449D01*
X009956Y007499D01*
X013195Y007499D01*
X013300Y007393D01*
X013439Y007335D01*
X013590Y007335D01*
X013729Y007393D01*
X013835Y007499D01*
X018278Y007499D01*
X018259Y007491D01*
X018147Y007379D01*
X018087Y007233D01*
X018087Y007075D01*
X018147Y006928D01*
X018259Y006816D01*
X018406Y006756D01*
X018564Y006756D01*
X018710Y006816D01*
X018822Y006928D01*
X018883Y007075D01*
X018883Y007233D01*
X018822Y007379D01*
X018710Y007491D01*
X018692Y007499D01*
X019278Y007499D01*
X019259Y007491D01*
X019147Y007379D01*
X019087Y007233D01*
X019087Y007075D01*
X019147Y006928D01*
X019259Y006816D01*
X019406Y006756D01*
X019564Y006756D01*
X019710Y006816D01*
X019822Y006928D01*
X019883Y007075D01*
X019883Y007233D01*
X019822Y007379D01*
X019710Y007491D01*
X019692Y007499D01*
X028245Y007499D01*
X028250Y007493D01*
X028389Y007435D01*
X028540Y007435D01*
X028679Y007493D01*
X028785Y007599D01*
X029145Y007599D01*
X029250Y007493D01*
X029389Y007435D01*
X029540Y007435D01*
X029679Y007493D01*
X029785Y007599D01*
X036645Y007599D01*
X036750Y007493D01*
X036889Y007435D01*
X037040Y007435D01*
X037179Y007493D01*
X037285Y007599D01*
X046050Y007599D01*
X046050Y004534D01*
X045944Y004428D01*
X045886Y004289D01*
X045886Y004138D01*
X045944Y003999D01*
X046050Y003893D01*
X046189Y003835D01*
X046340Y003835D01*
X046479Y003893D01*
X046586Y003999D01*
X046643Y004138D01*
X046643Y004289D01*
X046586Y004428D01*
X046480Y004534D01*
X046480Y007435D01*
X046540Y007435D01*
X046679Y007493D01*
X046750Y007564D01*
X046750Y006803D01*
X046750Y006625D01*
X046986Y006388D01*
X046986Y006238D01*
X047044Y006099D01*
X047150Y005993D01*
X047289Y005935D01*
X047440Y005935D01*
X047579Y005993D01*
X047686Y006099D01*
X047743Y006238D01*
X047743Y006389D01*
X047686Y006528D01*
X047579Y006635D01*
X047440Y006692D01*
X047290Y006692D01*
X047180Y006803D01*
X047180Y006864D01*
X047250Y006793D01*
X047389Y006735D01*
X047540Y006735D01*
X047679Y006793D01*
X047786Y006899D01*
X047843Y007038D01*
X047843Y007189D01*
X047786Y007328D01*
X047679Y007435D01*
X047540Y007492D01*
X047390Y007492D01*
X047330Y007553D01*
X047330Y007699D01*
X047395Y007699D01*
X047500Y007593D01*
X047639Y007535D01*
X047790Y007535D01*
X047929Y007593D01*
X048036Y007699D01*
X048093Y007838D01*
X048093Y007989D01*
X048036Y008128D01*
X047929Y008235D01*
X047790Y008292D01*
X047639Y008292D01*
X047500Y008235D01*
X047395Y008129D01*
X047304Y008129D01*
X046644Y008789D01*
X046990Y009135D01*
X047140Y009135D01*
X047279Y009193D01*
X047386Y009299D01*
X047443Y009438D01*
X047443Y009589D01*
X047386Y009728D01*
X047279Y009835D01*
X047140Y009892D01*
X047097Y009892D01*
X047149Y009944D01*
X047150Y009943D01*
X047148Y009943D01*
X047150Y009943D02*
X047289Y009885D01*
X047440Y009885D01*
X047579Y009943D01*
X047686Y010049D01*
X047743Y010188D01*
X047743Y010339D01*
X047686Y010478D01*
X047579Y010585D01*
X047577Y010585D01*
X047590Y010585D01*
X047729Y010643D01*
X047836Y010749D01*
X047893Y010888D01*
X047893Y011039D01*
X047836Y011178D01*
X047825Y011189D01*
X047886Y011249D01*
X047943Y011388D01*
X047943Y011539D01*
X047886Y011678D01*
X047779Y011785D01*
X047718Y011810D01*
X047849Y011810D01*
X048010Y011877D01*
X048133Y012000D01*
X048199Y012160D01*
X048199Y012334D01*
X048133Y012495D01*
X048010Y012618D01*
X047849Y012685D01*
X047848Y012685D01*
X047780Y012753D01*
X047654Y012879D01*
X035554Y012879D01*
X035376Y012879D01*
X035182Y012685D01*
X035077Y012685D01*
X034916Y012618D01*
X034793Y012495D01*
X034726Y012334D01*
X034726Y012160D01*
X034735Y012138D01*
X034526Y011929D01*
X034464Y011929D01*
X034534Y012000D01*
X034601Y012160D01*
X034601Y012334D01*
X034534Y012495D01*
X034411Y012618D01*
X034251Y012685D01*
X034077Y012685D01*
X034044Y012671D01*
X033901Y012814D01*
X033986Y012899D01*
X034043Y013038D01*
X034043Y013189D01*
X033992Y013312D01*
X049666Y013312D01*
X049666Y001944D01*
X034004Y001944D01*
X034043Y002038D01*
X034043Y002189D01*
X033986Y002328D01*
X033879Y002435D01*
X033740Y002492D01*
X033590Y002492D01*
X033533Y002549D01*
X033534Y002551D01*
X033601Y002712D01*
X033726Y002712D01*
X033793Y002551D01*
X033916Y002428D01*
X034077Y002361D01*
X034251Y002361D01*
X034411Y002428D01*
X034534Y002551D01*
X034601Y002712D01*
X034726Y002712D01*
X034726Y002594D02*
X034552Y002594D01*
X034601Y002712D02*
X034601Y002886D01*
X034534Y003046D01*
X034411Y003169D01*
X034251Y003236D01*
X034077Y003236D01*
X034044Y003222D01*
X033837Y003429D01*
X033659Y003429D01*
X031954Y003429D01*
X031779Y003604D01*
X031793Y003638D01*
X031793Y003789D01*
X031736Y003928D01*
X031715Y003949D01*
X034895Y003949D01*
X035000Y003843D01*
X035139Y003785D01*
X035290Y003785D01*
X035429Y003843D01*
X035536Y003949D01*
X035593Y004088D01*
X035593Y004239D01*
X035536Y004378D01*
X035500Y004414D01*
X035536Y004449D01*
X035593Y004588D01*
X035593Y004738D01*
X036004Y005149D01*
X043926Y005149D01*
X044336Y004738D01*
X044336Y004588D01*
X044394Y004449D01*
X044430Y004414D01*
X044395Y004379D01*
X037304Y004379D01*
X037126Y004379D01*
X036789Y004042D01*
X036639Y004042D01*
X036500Y003985D01*
X036394Y003878D01*
X036336Y003739D01*
X036336Y003588D01*
X036394Y003449D01*
X036500Y003343D01*
X036639Y003285D01*
X036790Y003285D01*
X036929Y003343D01*
X037036Y003449D01*
X037093Y003588D01*
X037093Y003738D01*
X037304Y003949D01*
X044395Y003949D01*
X044500Y003843D01*
X044639Y003785D01*
X044790Y003785D01*
X044929Y003843D01*
X045036Y003949D01*
X045093Y004088D01*
X045093Y004239D01*
X045036Y004378D01*
X045000Y004414D01*
X045036Y004449D01*
X045093Y004588D01*
X045093Y004739D01*
X045036Y004878D01*
X045000Y004914D01*
X045036Y004949D01*
X045093Y005088D01*
X045093Y005239D01*
X045036Y005378D01*
X045000Y005414D01*
X045036Y005449D01*
X045093Y005588D01*
X045093Y005739D01*
X045036Y005878D01*
X044929Y005985D01*
X044790Y006042D01*
X044639Y006042D01*
X044500Y005985D01*
X044395Y005879D01*
X035535Y005879D01*
X035429Y005985D01*
X035290Y006042D01*
X035139Y006042D01*
X035000Y005985D01*
X034895Y005879D01*
X027035Y005879D01*
X026929Y005985D01*
X026790Y006042D01*
X026639Y006042D01*
X026500Y005985D01*
X026395Y005879D01*
X019773Y005879D01*
X019822Y005928D01*
X019883Y006075D01*
X019883Y006233D01*
X019822Y006379D01*
X019710Y006491D01*
X019564Y006552D01*
X019406Y006552D01*
X019259Y006491D01*
X019147Y006379D01*
X019087Y006233D01*
X019087Y006075D01*
X019147Y005928D01*
X019197Y005879D01*
X018773Y005879D01*
X018822Y005928D01*
X018883Y006075D01*
X018883Y006233D01*
X018822Y006379D01*
X018710Y006491D01*
X018564Y006552D01*
X018406Y006552D01*
X018259Y006491D01*
X018147Y006379D01*
X018129Y006335D01*
X018079Y006385D01*
X017940Y006442D01*
X017789Y006442D01*
X017650Y006385D01*
X017544Y006278D01*
X017486Y006139D01*
X017486Y006029D01*
X007904Y006029D01*
X007843Y006089D01*
X007843Y006239D01*
X007786Y006378D01*
X007679Y006485D01*
X007540Y006542D01*
X007389Y006542D01*
X007250Y006485D01*
X007144Y006378D01*
X007086Y006239D01*
X007086Y006089D01*
X006326Y005329D01*
X006176Y005329D01*
X005276Y004429D01*
X003254Y004429D01*
X003243Y004439D01*
X003243Y004589D01*
X003186Y004728D01*
X003079Y004835D01*
X002940Y004892D01*
X002789Y004892D01*
X002650Y004835D01*
X002544Y004728D01*
X002532Y004700D01*
X002430Y004803D01*
X002430Y005194D01*
X002536Y005299D01*
X002593Y005438D01*
X002593Y005589D01*
X002536Y005728D01*
X002429Y005835D01*
X002290Y005892D01*
X002139Y005892D01*
X002000Y005835D01*
X001894Y005728D01*
X001836Y005589D01*
X001836Y005438D01*
X001894Y005299D01*
X002000Y005194D01*
X002000Y004625D01*
X002126Y004499D01*
X002232Y004392D01*
X002139Y004392D01*
X002000Y004335D01*
X001894Y004228D01*
X001836Y004089D01*
X001836Y003938D01*
X001894Y003799D01*
X002000Y003693D01*
X002006Y003691D01*
X001944Y003628D01*
X001886Y003489D01*
X001886Y003338D01*
X001944Y003199D01*
X002050Y003093D01*
X002189Y003035D01*
X002340Y003035D01*
X002479Y003093D01*
X002586Y003199D01*
X002643Y003338D01*
X002643Y003489D01*
X002629Y003524D01*
X002654Y003549D01*
X004185Y003549D01*
X004150Y003535D01*
X004044Y003428D01*
X003986Y003289D01*
X003986Y003236D01*
X003880Y003236D01*
X003719Y003169D01*
X003596Y003046D01*
X003529Y002886D01*
X003529Y002712D01*
X003404Y002712D01*
X003338Y002551D01*
X003215Y002428D01*
X003054Y002361D01*
X002880Y002361D01*
X002719Y002428D01*
X002596Y002551D01*
X002529Y002712D01*
X000795Y002712D01*
X000795Y002594D02*
X002578Y002594D01*
X002529Y002712D02*
X002529Y002886D01*
X002596Y003046D01*
X002719Y003169D01*
X002880Y003236D01*
X003054Y003236D01*
X003215Y003169D01*
X003338Y003046D01*
X003404Y002886D01*
X003404Y002712D01*
X003404Y002831D02*
X003529Y002831D01*
X003529Y002712D02*
X003596Y002551D01*
X003719Y002428D01*
X003880Y002361D01*
X004054Y002361D01*
X004215Y002428D01*
X004338Y002551D01*
X004404Y002712D01*
X004529Y002712D01*
X004596Y002551D01*
X004719Y002428D01*
X004880Y002361D01*
X005054Y002361D01*
X005215Y002428D01*
X005338Y002551D01*
X005404Y002712D01*
X005529Y002712D01*
X005596Y002551D01*
X005719Y002428D01*
X005880Y002361D01*
X006054Y002361D01*
X006215Y002428D01*
X006338Y002551D01*
X006404Y002712D01*
X006529Y002712D01*
X006596Y002551D01*
X006719Y002428D01*
X006880Y002361D01*
X007054Y002361D01*
X007061Y002364D01*
X007086Y002338D01*
X007086Y002188D01*
X007144Y002049D01*
X007250Y001944D01*
X000795Y001944D01*
X000795Y013312D01*
X019917Y013312D01*
X019850Y013285D01*
X019744Y013178D01*
X019686Y013039D01*
X019686Y012889D01*
X019526Y012729D01*
X019482Y012685D01*
X019478Y012685D01*
X019317Y012618D01*
X019194Y012495D01*
X019128Y012334D01*
X019128Y012160D01*
X019194Y012000D01*
X019317Y011877D01*
X019478Y011810D01*
X019652Y011810D01*
X019813Y011877D01*
X019936Y012000D01*
X020003Y012160D01*
X020003Y012334D01*
X019936Y012495D01*
X019918Y012513D01*
X019990Y012585D01*
X020140Y012585D01*
X020279Y012643D01*
X020386Y012749D01*
X020443Y012888D01*
X020443Y013039D01*
X020386Y013178D01*
X020279Y013285D01*
X020213Y013312D01*
X020737Y013312D01*
X020686Y013189D01*
X020686Y013038D01*
X020744Y012899D01*
X020850Y012794D01*
X020850Y012659D01*
X021141Y012367D01*
X021128Y012334D01*
X021128Y012160D01*
X021194Y012000D01*
X021317Y011877D01*
X021478Y011810D01*
X021652Y011810D01*
X021685Y011824D01*
X022210Y011299D01*
X022388Y011299D01*
X026036Y011299D01*
X026036Y011238D01*
X026061Y011179D01*
X019015Y011179D01*
X019085Y011249D01*
X019776Y011249D01*
X019954Y011249D01*
X020515Y011810D01*
X020652Y011810D01*
X020813Y011877D01*
X020936Y012000D01*
X021003Y012160D01*
X021003Y012334D01*
X020936Y012495D01*
X020813Y012618D01*
X020652Y012685D01*
X020478Y012685D01*
X020317Y012618D01*
X020194Y012495D01*
X020128Y012334D01*
X020128Y012160D01*
X020166Y012069D01*
X019776Y011679D01*
X019085Y011679D01*
X018979Y011785D01*
X018840Y011842D01*
X018730Y011842D01*
X018813Y011877D01*
X018936Y012000D01*
X019003Y012160D01*
X019003Y012334D01*
X018936Y012495D01*
X018813Y012618D01*
X018652Y012685D01*
X018478Y012685D01*
X018434Y012667D01*
X018443Y012688D01*
X018443Y012839D01*
X018386Y012978D01*
X018279Y013085D01*
X018140Y013142D01*
X017989Y013142D01*
X017850Y013085D01*
X017744Y012978D01*
X017686Y012839D01*
X017686Y012689D01*
X017673Y012676D01*
X017652Y012685D01*
X017478Y012685D01*
X017317Y012618D01*
X017194Y012495D01*
X017128Y012334D01*
X017128Y012160D01*
X017162Y012079D01*
X016969Y012079D01*
X017003Y012160D01*
X017003Y012334D01*
X016936Y012495D01*
X016813Y012618D01*
X016652Y012685D01*
X016478Y012685D01*
X016317Y012618D01*
X016194Y012495D01*
X016128Y012334D01*
X016128Y012160D01*
X016162Y012079D01*
X015969Y012079D01*
X016003Y012160D01*
X016003Y012334D01*
X015936Y012495D01*
X015813Y012618D01*
X015652Y012685D01*
X015478Y012685D01*
X015317Y012618D01*
X015194Y012495D01*
X015128Y012334D01*
X015128Y012160D01*
X015162Y012079D01*
X010454Y012079D01*
X010395Y012138D01*
X010404Y012160D01*
X010404Y012334D01*
X010338Y012495D01*
X010284Y012549D01*
X010476Y012549D01*
X010607Y012549D01*
X010639Y012535D01*
X010790Y012535D01*
X010929Y012593D01*
X011036Y012699D01*
X011093Y012838D01*
X011093Y012989D01*
X011036Y013128D01*
X010929Y013235D01*
X010790Y013292D01*
X010639Y013292D01*
X010500Y013235D01*
X010394Y013128D01*
X010336Y012989D01*
X010336Y012979D01*
X009826Y012979D01*
X009700Y012853D01*
X009339Y012492D01*
X009338Y012495D01*
X009215Y012618D01*
X009054Y012685D01*
X008880Y012685D01*
X008719Y012618D01*
X008596Y012495D01*
X008529Y012334D01*
X008529Y012160D01*
X008596Y012000D01*
X008719Y011877D01*
X008880Y011810D01*
X009054Y011810D01*
X009215Y011877D01*
X009338Y012000D01*
X009351Y012032D01*
X009487Y012032D01*
X009555Y012099D01*
X009596Y012000D01*
X009719Y011877D01*
X009880Y011810D01*
X010054Y011810D01*
X010097Y011828D01*
X010150Y011775D01*
X010276Y011649D01*
X017776Y011649D01*
X018550Y010875D01*
X018676Y010749D01*
X026626Y010749D01*
X026804Y010749D01*
X027004Y010949D01*
X030026Y010949D01*
X030176Y010799D01*
X030354Y010799D01*
X030654Y010799D01*
X030780Y010925D01*
X030980Y011125D01*
X030980Y011303D01*
X030980Y011375D01*
X031104Y011499D01*
X034704Y011499D01*
X034830Y011625D01*
X035033Y011828D01*
X035077Y011810D01*
X035251Y011810D01*
X035411Y011877D01*
X035534Y012000D01*
X035601Y012160D01*
X035601Y012334D01*
X035554Y012449D01*
X040372Y012449D01*
X040325Y012334D01*
X040325Y012160D01*
X040391Y012000D01*
X040514Y011877D01*
X040675Y011810D01*
X040849Y011810D01*
X040863Y011816D01*
X040789Y011742D01*
X040739Y011742D01*
X040600Y011685D01*
X040494Y011578D01*
X040436Y011439D01*
X040436Y011288D01*
X040494Y011149D01*
X040600Y011043D01*
X040739Y010985D01*
X040890Y010985D01*
X041029Y011043D01*
X041136Y011149D01*
X041193Y011288D01*
X041193Y011439D01*
X041164Y011509D01*
X041254Y011599D01*
X045426Y011599D01*
X045604Y011599D01*
X045815Y011810D01*
X045849Y011810D01*
X046010Y011877D01*
X046133Y012000D01*
X046199Y012160D01*
X046199Y012334D01*
X046152Y012449D01*
X046372Y012449D01*
X046325Y012334D01*
X046325Y012160D01*
X046391Y012000D01*
X046514Y011877D01*
X046675Y011810D01*
X046849Y011810D01*
X047010Y011877D01*
X047133Y012000D01*
X047199Y012160D01*
X047199Y012334D01*
X047152Y012449D01*
X047372Y012449D01*
X047325Y012334D01*
X047325Y012160D01*
X047391Y012000D01*
X047514Y011877D01*
X047597Y011842D01*
X047489Y011842D01*
X047350Y011785D01*
X047244Y011678D01*
X047186Y011539D01*
X047186Y011505D01*
X047136Y011628D01*
X047029Y011735D01*
X046890Y011792D01*
X046739Y011792D01*
X046600Y011735D01*
X046494Y011628D01*
X046436Y011489D01*
X046436Y011339D01*
X044876Y009779D01*
X026404Y009779D01*
X026243Y009939D01*
X026243Y010089D01*
X026186Y010228D01*
X026079Y010335D01*
X025940Y010392D01*
X025789Y010392D01*
X025650Y010335D01*
X025544Y010228D01*
X025524Y010179D01*
X022904Y010179D01*
X022726Y010179D01*
X022476Y009929D01*
X019731Y009929D01*
X019731Y009989D01*
X019673Y010128D01*
X019567Y010235D01*
X019428Y010292D01*
X019277Y010292D01*
X019145Y010238D01*
X018180Y011203D01*
X018054Y011329D01*
X017754Y011329D01*
X017576Y011329D01*
X017226Y010979D01*
X010320Y010979D01*
X010395Y011158D01*
X010395Y011369D01*
X010314Y011564D01*
X010165Y011713D01*
X009970Y011794D01*
X009759Y011794D01*
X009565Y011713D01*
X009415Y011564D01*
X009353Y011412D01*
X009337Y011460D01*
X009301Y011531D01*
X009254Y011596D01*
X009197Y011653D01*
X009132Y011700D01*
X009061Y011736D01*
X008984Y011761D01*
X008905Y011774D01*
X008903Y011774D01*
X008903Y011302D01*
X008826Y011302D01*
X008826Y011774D01*
X008825Y011774D01*
X008745Y011761D01*
X008669Y011736D01*
X008597Y011700D01*
X008533Y011653D01*
X008476Y011596D01*
X008429Y011531D01*
X008392Y011460D01*
X008377Y011412D01*
X008405Y011484D02*
X008347Y011484D01*
X008275Y011603D02*
X008483Y011603D01*
X008640Y011721D02*
X008145Y011721D01*
X008126Y011840D02*
X008807Y011840D01*
X008826Y011721D02*
X008903Y011721D01*
X008903Y011603D02*
X008826Y011603D01*
X008826Y011484D02*
X008903Y011484D01*
X008903Y011366D02*
X008826Y011366D01*
X009325Y011484D02*
X009383Y011484D01*
X009454Y011603D02*
X009247Y011603D01*
X009090Y011721D02*
X009585Y011721D01*
X009637Y011959D02*
X009297Y011959D01*
X009126Y011840D02*
X009807Y011840D01*
X010145Y011721D02*
X010203Y011721D01*
X010275Y011603D02*
X017822Y011603D01*
X017940Y011484D02*
X010347Y011484D01*
X010395Y011366D02*
X018059Y011366D01*
X018135Y011247D02*
X018177Y011247D01*
X018254Y011129D02*
X018296Y011129D01*
X018372Y011010D02*
X018414Y011010D01*
X018491Y010892D02*
X018533Y010892D01*
X018610Y010773D02*
X018651Y010773D01*
X018728Y010655D02*
X045752Y010655D01*
X045870Y010773D02*
X026828Y010773D01*
X026947Y010892D02*
X030083Y010892D01*
X030747Y010892D02*
X045989Y010892D01*
X046107Y011010D02*
X040950Y011010D01*
X041115Y011129D02*
X046226Y011129D01*
X046344Y011247D02*
X041176Y011247D01*
X041193Y011366D02*
X046436Y011366D01*
X046436Y011484D02*
X041174Y011484D01*
X040689Y011721D02*
X034926Y011721D01*
X034808Y011603D02*
X040519Y011603D01*
X040455Y011484D02*
X031089Y011484D01*
X030980Y011366D02*
X040436Y011366D01*
X040453Y011247D02*
X030980Y011247D01*
X030980Y011129D02*
X040515Y011129D01*
X040680Y011010D02*
X030865Y011010D01*
X030036Y011379D02*
X027289Y011379D01*
X027293Y011388D01*
X027293Y011539D01*
X027236Y011678D01*
X027129Y011785D01*
X026990Y011842D01*
X026840Y011842D01*
X026804Y011879D01*
X026626Y011879D01*
X023254Y011879D01*
X022994Y012139D01*
X023003Y012160D01*
X023003Y012334D01*
X022936Y012495D01*
X022813Y012618D01*
X022652Y012685D01*
X022478Y012685D01*
X022317Y012618D01*
X022194Y012495D01*
X022128Y012334D01*
X022128Y012160D01*
X022194Y012000D01*
X022317Y011877D01*
X022478Y011810D01*
X022652Y011810D01*
X022696Y011828D01*
X022796Y011729D01*
X022388Y011729D01*
X021989Y012128D01*
X022003Y012160D01*
X022003Y012334D01*
X021936Y012495D01*
X021813Y012618D01*
X021652Y012685D01*
X021478Y012685D01*
X021445Y012671D01*
X021301Y012815D01*
X021386Y012899D01*
X021443Y013038D01*
X021443Y013189D01*
X021392Y013312D01*
X033337Y013312D01*
X033286Y013189D01*
X033286Y013038D01*
X033344Y012899D01*
X033450Y012794D01*
X033450Y012657D01*
X033740Y012367D01*
X033726Y012334D01*
X033726Y012160D01*
X033793Y012000D01*
X033864Y011929D01*
X033464Y011929D01*
X033534Y012000D01*
X033601Y012160D01*
X033601Y012334D01*
X033534Y012495D01*
X033411Y012618D01*
X033251Y012685D01*
X033077Y012685D01*
X032916Y012618D01*
X032793Y012495D01*
X032726Y012334D01*
X032726Y012160D01*
X032760Y012079D01*
X032567Y012079D01*
X032601Y012160D01*
X032601Y012334D01*
X032534Y012495D01*
X032411Y012618D01*
X032251Y012685D01*
X032077Y012685D01*
X031950Y012632D01*
X031934Y012648D01*
X031986Y012699D01*
X032043Y012838D01*
X032043Y012989D01*
X031986Y013128D01*
X031879Y013235D01*
X031740Y013292D01*
X031589Y013292D01*
X031450Y013235D01*
X031344Y013128D01*
X031286Y012989D01*
X031286Y012838D01*
X031344Y012699D01*
X031450Y012594D01*
X031450Y012580D01*
X031411Y012618D01*
X031251Y012685D01*
X031077Y012685D01*
X031043Y012671D01*
X031043Y012789D01*
X030986Y012928D01*
X030879Y013035D01*
X030740Y013092D01*
X030589Y013092D01*
X030450Y013035D01*
X030344Y012928D01*
X030286Y012789D01*
X030286Y012670D01*
X030251Y012685D01*
X030077Y012685D01*
X029916Y012618D01*
X029793Y012495D01*
X029726Y012334D01*
X029726Y012160D01*
X029793Y012000D01*
X029916Y011877D01*
X030077Y011810D01*
X030251Y011810D01*
X030411Y011877D01*
X030534Y012000D01*
X030601Y012160D01*
X030601Y012334D01*
X030601Y012335D01*
X030727Y012335D01*
X030726Y012334D01*
X030726Y012160D01*
X030779Y012032D01*
X030700Y011953D01*
X030489Y011742D01*
X030339Y011742D01*
X030200Y011685D01*
X030094Y011578D01*
X030036Y011439D01*
X030036Y011379D01*
X030055Y011484D02*
X027293Y011484D01*
X027267Y011603D02*
X030119Y011603D01*
X030289Y011721D02*
X027192Y011721D01*
X026995Y011840D02*
X028004Y011840D01*
X028077Y011810D02*
X028251Y011810D01*
X028411Y011877D01*
X028534Y012000D01*
X028601Y012160D01*
X028601Y012334D01*
X028534Y012495D01*
X028411Y012618D01*
X028251Y012685D01*
X028077Y012685D01*
X027916Y012618D01*
X027793Y012495D01*
X027726Y012334D01*
X027726Y012160D01*
X027793Y012000D01*
X027916Y011877D01*
X028077Y011810D01*
X028323Y011840D02*
X029004Y011840D01*
X029077Y011810D02*
X029251Y011810D01*
X029411Y011877D01*
X029534Y012000D01*
X029601Y012160D01*
X029601Y012334D01*
X029534Y012495D01*
X029411Y012618D01*
X029251Y012685D01*
X029077Y012685D01*
X028916Y012618D01*
X028793Y012495D01*
X028726Y012334D01*
X028726Y012160D01*
X028793Y012000D01*
X028916Y011877D01*
X029077Y011810D01*
X029323Y011840D02*
X030004Y011840D01*
X029834Y011959D02*
X029493Y011959D01*
X029567Y012077D02*
X029761Y012077D01*
X029726Y012196D02*
X029601Y012196D01*
X029601Y012314D02*
X029726Y012314D01*
X029767Y012433D02*
X029560Y012433D01*
X029478Y012551D02*
X029849Y012551D01*
X030040Y012670D02*
X029287Y012670D01*
X029040Y012670D02*
X028287Y012670D01*
X028478Y012551D02*
X028849Y012551D01*
X028767Y012433D02*
X028560Y012433D01*
X028601Y012314D02*
X028726Y012314D01*
X028726Y012196D02*
X028601Y012196D01*
X028567Y012077D02*
X028761Y012077D01*
X028834Y011959D02*
X028493Y011959D01*
X027834Y011959D02*
X023174Y011959D01*
X023056Y012077D02*
X027761Y012077D01*
X027726Y012196D02*
X023003Y012196D01*
X023003Y012314D02*
X027726Y012314D01*
X027767Y012433D02*
X022962Y012433D01*
X022880Y012551D02*
X027849Y012551D01*
X028040Y012670D02*
X022689Y012670D01*
X022442Y012670D02*
X021689Y012670D01*
X021880Y012551D02*
X022250Y012551D01*
X022168Y012433D02*
X021962Y012433D01*
X022003Y012314D02*
X022128Y012314D01*
X022128Y012196D02*
X022003Y012196D01*
X022040Y012077D02*
X022162Y012077D01*
X022158Y011959D02*
X022235Y011959D01*
X022277Y011840D02*
X022406Y011840D01*
X021906Y011603D02*
X020308Y011603D01*
X020426Y011721D02*
X021787Y011721D01*
X021406Y011840D02*
X020725Y011840D01*
X020895Y011959D02*
X021235Y011959D01*
X021162Y012077D02*
X020968Y012077D01*
X021003Y012196D02*
X021128Y012196D01*
X021128Y012314D02*
X021003Y012314D01*
X020962Y012433D02*
X021076Y012433D01*
X020957Y012551D02*
X020880Y012551D01*
X020850Y012670D02*
X020689Y012670D01*
X020850Y012788D02*
X020402Y012788D01*
X020442Y012670D02*
X020306Y012670D01*
X020250Y012551D02*
X019956Y012551D01*
X019962Y012433D02*
X020168Y012433D01*
X020128Y012314D02*
X020003Y012314D01*
X020003Y012196D02*
X020128Y012196D01*
X020162Y012077D02*
X019968Y012077D01*
X019895Y011959D02*
X020056Y011959D01*
X019937Y011840D02*
X019725Y011840D01*
X019818Y011721D02*
X019042Y011721D01*
X018845Y011840D02*
X019406Y011840D01*
X019235Y011959D02*
X018895Y011959D01*
X018968Y012077D02*
X019162Y012077D01*
X019128Y012196D02*
X019003Y012196D01*
X019003Y012314D02*
X019128Y012314D01*
X019168Y012433D02*
X018962Y012433D01*
X018880Y012551D02*
X019250Y012551D01*
X019442Y012670D02*
X018689Y012670D01*
X018442Y012670D02*
X018435Y012670D01*
X018443Y012788D02*
X019585Y012788D01*
X019686Y012907D02*
X018415Y012907D01*
X018338Y013025D02*
X019686Y013025D01*
X019730Y013144D02*
X011020Y013144D01*
X011078Y013025D02*
X017791Y013025D01*
X017714Y012907D02*
X011093Y012907D01*
X011072Y012788D02*
X017686Y012788D01*
X017442Y012670D02*
X016689Y012670D01*
X016880Y012551D02*
X017250Y012551D01*
X017168Y012433D02*
X016962Y012433D01*
X017003Y012314D02*
X017128Y012314D01*
X017128Y012196D02*
X017003Y012196D01*
X016250Y012551D02*
X015880Y012551D01*
X015962Y012433D02*
X016168Y012433D01*
X016128Y012314D02*
X016003Y012314D01*
X016003Y012196D02*
X016128Y012196D01*
X015250Y012551D02*
X010828Y012551D01*
X011006Y012670D02*
X015442Y012670D01*
X015689Y012670D02*
X016442Y012670D01*
X015168Y012433D02*
X010364Y012433D01*
X010404Y012314D02*
X015128Y012314D01*
X015128Y012196D02*
X010404Y012196D01*
X009564Y012077D02*
X009532Y012077D01*
X008637Y011959D02*
X008297Y011959D01*
X008370Y012077D02*
X008564Y012077D01*
X008529Y012196D02*
X008404Y012196D01*
X008404Y012314D02*
X008529Y012314D01*
X008570Y012433D02*
X008364Y012433D01*
X008282Y012551D02*
X008652Y012551D01*
X008843Y012670D02*
X008090Y012670D01*
X007843Y012670D02*
X007756Y012670D01*
X007822Y012788D02*
X009635Y012788D01*
X009517Y012670D02*
X009090Y012670D01*
X009282Y012551D02*
X009398Y012551D01*
X009754Y012907D02*
X007843Y012907D01*
X007828Y013025D02*
X010351Y013025D01*
X010410Y013144D02*
X007770Y013144D01*
X007612Y013262D02*
X010568Y013262D01*
X010862Y013262D02*
X019828Y013262D01*
X020301Y013262D02*
X020717Y013262D01*
X020686Y013144D02*
X020400Y013144D01*
X020443Y013025D02*
X020692Y013025D01*
X020741Y012907D02*
X020443Y012907D01*
X021328Y012788D02*
X030286Y012788D01*
X030335Y012907D02*
X021389Y012907D01*
X021438Y013025D02*
X030441Y013025D01*
X030888Y013025D02*
X031301Y013025D01*
X031286Y012907D02*
X030994Y012907D01*
X031043Y012788D02*
X031307Y012788D01*
X031287Y012670D02*
X031374Y012670D01*
X031956Y012670D02*
X032040Y012670D01*
X032022Y012788D02*
X033450Y012788D01*
X033450Y012670D02*
X033287Y012670D01*
X033478Y012551D02*
X033556Y012551D01*
X033560Y012433D02*
X033674Y012433D01*
X033726Y012314D02*
X033601Y012314D01*
X033601Y012196D02*
X033726Y012196D01*
X033761Y012077D02*
X033567Y012077D01*
X033493Y011959D02*
X033834Y011959D01*
X034493Y011959D02*
X034555Y011959D01*
X034567Y012077D02*
X034674Y012077D01*
X034726Y012196D02*
X034601Y012196D01*
X034601Y012314D02*
X034726Y012314D01*
X034767Y012433D02*
X034560Y012433D01*
X034478Y012551D02*
X034849Y012551D01*
X035040Y012670D02*
X034287Y012670D01*
X033927Y012788D02*
X035285Y012788D01*
X034038Y013025D02*
X049666Y013025D01*
X049666Y012907D02*
X033989Y012907D01*
X034043Y013144D02*
X049666Y013144D01*
X049666Y013262D02*
X034013Y013262D01*
X033317Y013262D02*
X031812Y013262D01*
X031970Y013144D02*
X033286Y013144D01*
X033292Y013025D02*
X032028Y013025D01*
X032043Y012907D02*
X033341Y012907D01*
X033040Y012670D02*
X032287Y012670D01*
X032478Y012551D02*
X032849Y012551D01*
X032767Y012433D02*
X032560Y012433D01*
X032601Y012314D02*
X032726Y012314D01*
X032726Y012196D02*
X032601Y012196D01*
X030761Y012077D02*
X030567Y012077D01*
X030601Y012196D02*
X030726Y012196D01*
X030726Y012314D02*
X030601Y012314D01*
X030706Y011959D02*
X030493Y011959D01*
X030587Y011840D02*
X030323Y011840D01*
X026036Y011247D02*
X019083Y011247D01*
X020071Y011366D02*
X022143Y011366D01*
X022024Y011484D02*
X020189Y011484D01*
X017494Y011247D02*
X010395Y011247D01*
X010382Y011129D02*
X017376Y011129D01*
X017257Y011010D02*
X010333Y011010D01*
X007374Y011959D02*
X007296Y011959D01*
X007370Y012077D02*
X007492Y012077D01*
X007529Y012196D02*
X007404Y012196D01*
X007404Y012314D02*
X007529Y012314D01*
X007570Y012433D02*
X007364Y012433D01*
X007578Y012551D02*
X007652Y012551D01*
X007035Y012788D02*
X005843Y012788D01*
X005794Y012907D02*
X007086Y012907D01*
X007101Y013025D02*
X005688Y013025D01*
X005241Y013025D02*
X000795Y013025D01*
X000795Y012907D02*
X005135Y012907D01*
X005086Y012788D02*
X000795Y012788D01*
X000795Y012670D02*
X002843Y012670D01*
X002652Y012551D02*
X000795Y012551D01*
X000795Y012433D02*
X001949Y012433D01*
X001867Y012314D02*
X000795Y012314D01*
X000795Y012196D02*
X001836Y012196D01*
X001841Y012077D02*
X000795Y012077D01*
X000795Y011959D02*
X001890Y011959D01*
X001956Y011840D02*
X000795Y011840D01*
X000795Y011721D02*
X001900Y011721D01*
X001886Y011603D02*
X000795Y011603D01*
X000795Y011484D02*
X001909Y011484D01*
X001978Y011366D02*
X000795Y011366D01*
X000795Y011247D02*
X002161Y011247D01*
X002136Y011129D02*
X000795Y011129D01*
X000795Y011010D02*
X002136Y011010D01*
X002176Y010892D02*
X000795Y010892D01*
X000795Y010773D02*
X002270Y010773D01*
X002349Y010655D02*
X000795Y010655D01*
X000795Y010536D02*
X002202Y010536D01*
X002148Y010417D02*
X000795Y010417D01*
X000795Y010299D02*
X002136Y010299D01*
X002160Y010180D02*
X000795Y010180D01*
X000795Y010062D02*
X002232Y010062D01*
X002420Y009943D02*
X000795Y009943D01*
X000795Y009825D02*
X004940Y009825D01*
X004891Y009706D02*
X000795Y009706D01*
X000795Y009588D02*
X003008Y009588D01*
X002890Y009469D02*
X000795Y009469D01*
X000795Y009351D02*
X002841Y009351D01*
X002836Y009232D02*
X000795Y009232D01*
X000795Y009113D02*
X002867Y009113D01*
X002948Y008995D02*
X000795Y008995D01*
X000795Y008876D02*
X003298Y008876D01*
X003417Y008758D02*
X000795Y008758D01*
X000795Y008639D02*
X003535Y008639D01*
X003906Y008876D02*
X005836Y008876D01*
X005894Y008876D02*
X006408Y008876D01*
X006414Y008758D02*
X006290Y008758D01*
X006282Y008995D02*
X006424Y008995D01*
X006473Y009113D02*
X006224Y009113D01*
X006102Y009232D02*
X006587Y009232D01*
X006607Y009469D02*
X007123Y009469D01*
X006994Y009588D02*
X006735Y009588D01*
X006794Y009706D02*
X006935Y009706D01*
X006908Y009825D02*
X006822Y009825D01*
X006822Y009943D02*
X006908Y009943D01*
X006952Y010062D02*
X006778Y010062D01*
X005952Y010062D02*
X002798Y010062D01*
X002609Y009943D02*
X005042Y009943D01*
X005669Y009943D02*
X005908Y009943D01*
X005908Y009825D02*
X005771Y009825D01*
X005820Y009706D02*
X005935Y009706D01*
X005994Y009588D02*
X005831Y009588D01*
X005822Y009469D02*
X006123Y009469D01*
X005893Y009232D02*
X005836Y009232D01*
X005836Y009113D02*
X005893Y009113D01*
X005893Y008995D02*
X005836Y008995D01*
X005506Y009113D02*
X005459Y009113D01*
X005448Y008995D02*
X003788Y008995D01*
X003669Y009113D02*
X005252Y009113D01*
X005036Y009232D02*
X003593Y009232D01*
X003588Y009351D02*
X004938Y009351D01*
X004889Y009469D02*
X003539Y009469D01*
X003422Y009588D02*
X004880Y009588D01*
X005773Y009351D02*
X014048Y009351D01*
X014166Y009469D02*
X007607Y009469D01*
X007735Y009588D02*
X014285Y009588D01*
X014403Y009706D02*
X007794Y009706D01*
X007822Y009825D02*
X014522Y009825D01*
X014640Y009943D02*
X007822Y009943D01*
X007778Y010062D02*
X014759Y010062D01*
X013929Y009232D02*
X007143Y009232D01*
X007256Y009113D02*
X011160Y009113D01*
X011042Y008995D02*
X007305Y008995D01*
X007322Y008876D02*
X010923Y008876D01*
X010805Y008758D02*
X007316Y008758D01*
X005440Y008758D02*
X004025Y008758D01*
X002968Y008521D02*
X000795Y008521D01*
X000795Y008402D02*
X002849Y008402D01*
X002731Y008284D02*
X002430Y008284D01*
X002000Y008284D02*
X000795Y008284D01*
X000795Y008165D02*
X001889Y008165D01*
X001840Y008047D02*
X000795Y008047D01*
X000795Y007928D02*
X001836Y007928D01*
X001869Y007809D02*
X000795Y007809D01*
X000795Y007691D02*
X001952Y007691D01*
X002142Y007572D02*
X000795Y007572D01*
X000795Y007454D02*
X001970Y007454D01*
X001906Y007335D02*
X000795Y007335D01*
X000795Y007217D02*
X001886Y007217D01*
X001903Y007098D02*
X000795Y007098D01*
X000795Y006980D02*
X001964Y006980D01*
X002127Y006861D02*
X000795Y006861D01*
X000795Y006743D02*
X002288Y006743D01*
X002286Y006624D02*
X000795Y006624D01*
X000795Y006506D02*
X002321Y006506D01*
X002406Y006387D02*
X000795Y006387D01*
X000795Y006268D02*
X006525Y006268D01*
X006428Y006387D02*
X002923Y006387D01*
X003009Y006506D02*
X006386Y006506D01*
X006386Y006624D02*
X003043Y006624D01*
X003042Y006743D02*
X006429Y006743D01*
X006527Y006861D02*
X002993Y006861D01*
X002884Y006980D02*
X006550Y006980D01*
X006550Y007098D02*
X002880Y007098D01*
X002880Y007217D02*
X006550Y007217D01*
X006550Y007335D02*
X003621Y007335D01*
X003708Y007454D02*
X006550Y007454D01*
X006550Y007572D02*
X003743Y007572D01*
X003108Y007335D02*
X002880Y007335D01*
X002909Y007454D02*
X003021Y007454D01*
X006980Y007454D02*
X009292Y007454D01*
X009243Y007572D02*
X006980Y007572D01*
X006980Y007335D02*
X009419Y007335D01*
X009811Y007335D02*
X018129Y007335D01*
X018087Y007217D02*
X006980Y007217D01*
X006980Y007098D02*
X018087Y007098D01*
X018126Y006980D02*
X006980Y006980D01*
X007003Y006861D02*
X018214Y006861D01*
X018755Y006861D02*
X019214Y006861D01*
X019126Y006980D02*
X018844Y006980D01*
X018883Y007098D02*
X019087Y007098D01*
X019087Y007217D02*
X018883Y007217D01*
X018841Y007335D02*
X019129Y007335D01*
X019222Y007454D02*
X018748Y007454D01*
X018222Y007454D02*
X013790Y007454D01*
X013240Y007454D02*
X009937Y007454D01*
X011184Y007929D02*
X011604Y008349D01*
X016095Y008349D01*
X016150Y008293D01*
X016289Y008235D01*
X016440Y008235D01*
X016579Y008293D01*
X016686Y008399D01*
X016706Y008449D01*
X018217Y008449D01*
X018147Y008379D01*
X018087Y008233D01*
X018087Y008075D01*
X018147Y007929D01*
X013835Y007929D01*
X013729Y008035D01*
X013590Y008092D01*
X013439Y008092D01*
X013300Y008035D01*
X013195Y007929D01*
X011184Y007929D01*
X011302Y008047D02*
X013329Y008047D01*
X013700Y008047D02*
X018098Y008047D01*
X018087Y008165D02*
X011420Y008165D01*
X011539Y008284D02*
X016173Y008284D01*
X016557Y008284D02*
X018108Y008284D01*
X018170Y008402D02*
X016687Y008402D01*
X019753Y008449D02*
X022632Y008449D01*
X022586Y008339D01*
X022586Y008188D01*
X022644Y008049D01*
X022750Y007943D01*
X022785Y007929D01*
X019822Y007929D01*
X019883Y008075D01*
X019883Y008233D01*
X019822Y008379D01*
X019753Y008449D01*
X019799Y008402D02*
X022613Y008402D01*
X022586Y008284D02*
X019862Y008284D01*
X019883Y008165D02*
X022596Y008165D01*
X022647Y008047D02*
X019871Y008047D01*
X019748Y007454D02*
X028345Y007454D01*
X028585Y007454D02*
X029345Y007454D01*
X029171Y007572D02*
X028759Y007572D01*
X028103Y007929D02*
X027534Y007929D01*
X027904Y008299D01*
X046126Y008299D01*
X046278Y008146D01*
X046250Y008135D01*
X046145Y008029D01*
X037285Y008029D01*
X037179Y008135D01*
X037040Y008192D01*
X036889Y008192D01*
X036750Y008135D01*
X036645Y008029D01*
X029785Y008029D01*
X029679Y008135D01*
X029540Y008192D01*
X029389Y008192D01*
X029250Y008135D01*
X029145Y008029D01*
X028785Y008029D01*
X028679Y008135D01*
X028540Y008192D01*
X028389Y008192D01*
X028250Y008135D01*
X028144Y008028D01*
X028103Y007929D01*
X028162Y008047D02*
X027652Y008047D01*
X027770Y008165D02*
X028324Y008165D01*
X028605Y008165D02*
X029324Y008165D01*
X029162Y008047D02*
X028767Y008047D01*
X029605Y008165D02*
X036824Y008165D01*
X036662Y008047D02*
X029767Y008047D01*
X029759Y007572D02*
X036671Y007572D01*
X036845Y007454D02*
X029585Y007454D01*
X027889Y008284D02*
X046141Y008284D01*
X046259Y008165D02*
X037105Y008165D01*
X037267Y008047D02*
X046162Y008047D01*
X047030Y008402D02*
X049666Y008402D01*
X049666Y008284D02*
X047811Y008284D01*
X047619Y008284D02*
X047149Y008284D01*
X047267Y008165D02*
X047431Y008165D01*
X047999Y008165D02*
X049666Y008165D01*
X049666Y008047D02*
X048069Y008047D01*
X048093Y007928D02*
X049666Y007928D01*
X049666Y007809D02*
X048081Y007809D01*
X048027Y007691D02*
X049666Y007691D01*
X049666Y007572D02*
X047879Y007572D01*
X047633Y007454D02*
X049666Y007454D01*
X049666Y007335D02*
X047778Y007335D01*
X047832Y007217D02*
X049666Y007217D01*
X049666Y007098D02*
X047843Y007098D01*
X047819Y006980D02*
X049666Y006980D01*
X049666Y006861D02*
X047747Y006861D01*
X047558Y006743D02*
X049666Y006743D01*
X049666Y006624D02*
X047590Y006624D01*
X047695Y006506D02*
X049666Y006506D01*
X049666Y006387D02*
X047743Y006387D01*
X047743Y006268D02*
X049666Y006268D01*
X049666Y006150D02*
X047706Y006150D01*
X047618Y006031D02*
X049666Y006031D01*
X049666Y005913D02*
X046480Y005913D01*
X046480Y006031D02*
X047112Y006031D01*
X047023Y006150D02*
X046480Y006150D01*
X046480Y006268D02*
X046986Y006268D01*
X046986Y006387D02*
X046480Y006387D01*
X046480Y006506D02*
X046869Y006506D01*
X046750Y006624D02*
X046480Y006624D01*
X046480Y006743D02*
X046750Y006743D01*
X046750Y006861D02*
X046480Y006861D01*
X046480Y006980D02*
X046750Y006980D01*
X046750Y007098D02*
X046480Y007098D01*
X046480Y007217D02*
X046750Y007217D01*
X046750Y007335D02*
X046480Y007335D01*
X046585Y007454D02*
X046750Y007454D01*
X047330Y007572D02*
X047550Y007572D01*
X047402Y007691D02*
X047330Y007691D01*
X046050Y007572D02*
X037259Y007572D01*
X037085Y007454D02*
X046050Y007454D01*
X046050Y007335D02*
X019841Y007335D01*
X019883Y007217D02*
X046050Y007217D01*
X046050Y007098D02*
X019883Y007098D01*
X019844Y006980D02*
X046050Y006980D01*
X046050Y006861D02*
X019755Y006861D01*
X019676Y006506D02*
X046050Y006506D01*
X046050Y006624D02*
X007143Y006624D01*
X007143Y006506D02*
X007301Y006506D01*
X007153Y006387D02*
X007101Y006387D01*
X007099Y006268D02*
X007005Y006268D01*
X007086Y006150D02*
X000795Y006150D01*
X000795Y006031D02*
X007028Y006031D01*
X006910Y005913D02*
X000795Y005913D01*
X000795Y005794D02*
X001960Y005794D01*
X001872Y005676D02*
X000795Y005676D01*
X000795Y005557D02*
X001836Y005557D01*
X001836Y005439D02*
X000795Y005439D01*
X000795Y005320D02*
X001885Y005320D01*
X001992Y005202D02*
X000795Y005202D01*
X000795Y005083D02*
X002000Y005083D01*
X002000Y004964D02*
X000795Y004964D01*
X000795Y004846D02*
X002000Y004846D01*
X002000Y004727D02*
X000795Y004727D01*
X000795Y004609D02*
X002016Y004609D01*
X002134Y004490D02*
X000795Y004490D01*
X000795Y004372D02*
X002090Y004372D01*
X001919Y004253D02*
X000795Y004253D01*
X000795Y004135D02*
X001855Y004135D01*
X001836Y004016D02*
X000795Y004016D01*
X000795Y003898D02*
X001853Y003898D01*
X001914Y003779D02*
X000795Y003779D01*
X000795Y003660D02*
X001976Y003660D01*
X001908Y003542D02*
X000795Y003542D01*
X000795Y003423D02*
X001886Y003423D01*
X001900Y003305D02*
X000795Y003305D01*
X000795Y003186D02*
X001957Y003186D01*
X002111Y003068D02*
X000795Y003068D01*
X000795Y002949D02*
X002556Y002949D01*
X002529Y002831D02*
X000795Y002831D01*
X000795Y002475D02*
X002672Y002475D01*
X003262Y002475D02*
X003672Y002475D01*
X003578Y002594D02*
X003355Y002594D01*
X003378Y002949D02*
X003556Y002949D01*
X003617Y003068D02*
X003316Y003068D01*
X003174Y003186D02*
X003760Y003186D01*
X003993Y003305D02*
X002629Y003305D01*
X002643Y003423D02*
X004042Y003423D01*
X004168Y003542D02*
X002647Y003542D01*
X002572Y003186D02*
X002760Y003186D01*
X002617Y003068D02*
X002418Y003068D01*
X004262Y002475D02*
X004672Y002475D01*
X004578Y002594D02*
X004355Y002594D01*
X004404Y002712D02*
X004404Y002835D01*
X004440Y002835D01*
X004529Y002872D01*
X004529Y002712D01*
X004529Y002831D02*
X004404Y002831D01*
X005357Y002999D02*
X005404Y002886D01*
X005404Y002712D01*
X005404Y002831D02*
X005529Y002831D01*
X005529Y002886D02*
X005529Y002712D01*
X005578Y002594D02*
X005355Y002594D01*
X005262Y002475D02*
X005672Y002475D01*
X006262Y002475D02*
X006672Y002475D01*
X006578Y002594D02*
X006355Y002594D01*
X006404Y002712D02*
X006404Y002886D01*
X006357Y002999D01*
X006576Y002999D01*
X006529Y002886D01*
X006529Y002712D01*
X006529Y002831D02*
X006404Y002831D01*
X006378Y002949D02*
X006556Y002949D01*
X005576Y002999D02*
X005529Y002886D01*
X005556Y002949D02*
X005378Y002949D01*
X005357Y002999D02*
X005576Y002999D01*
X005604Y003549D02*
X004545Y003549D01*
X004579Y003535D01*
X004685Y003429D01*
X008462Y003429D01*
X008641Y003429D01*
X008847Y003222D01*
X008880Y003236D01*
X009054Y003236D01*
X009215Y003169D01*
X009338Y003046D01*
X009404Y002886D01*
X009404Y002712D01*
X009529Y002712D01*
X009529Y002594D02*
X009355Y002594D01*
X009338Y002551D02*
X009404Y002712D01*
X009404Y002831D02*
X009529Y002831D01*
X009529Y002949D02*
X009378Y002949D01*
X009316Y003068D02*
X009529Y003068D01*
X009529Y003131D02*
X009635Y003236D01*
X010299Y003236D01*
X010404Y003131D01*
X010404Y002467D01*
X010299Y002361D01*
X009635Y002361D01*
X009529Y002467D01*
X009529Y003131D01*
X009585Y003186D02*
X009174Y003186D01*
X008765Y003305D02*
X021552Y003305D01*
X021570Y003323D02*
X021483Y003236D01*
X021478Y003236D01*
X021317Y003169D01*
X021194Y003046D01*
X021128Y002886D01*
X021128Y002712D01*
X021003Y002712D01*
X021003Y002886D01*
X020936Y003046D01*
X020813Y003169D01*
X020652Y003236D01*
X020478Y003236D01*
X020317Y003169D01*
X020194Y003046D01*
X020128Y002886D01*
X020128Y002712D01*
X020003Y002712D01*
X020003Y002886D01*
X019936Y003046D01*
X019813Y003169D01*
X019652Y003236D01*
X019478Y003236D01*
X019317Y003169D01*
X019194Y003046D01*
X019128Y002886D01*
X019128Y002712D01*
X019003Y002712D01*
X018936Y002551D01*
X018813Y002428D01*
X018652Y002361D01*
X018478Y002361D01*
X018317Y002428D01*
X018194Y002551D01*
X018128Y002712D01*
X018003Y002712D01*
X017936Y002551D01*
X017813Y002428D01*
X017652Y002361D01*
X017478Y002361D01*
X017317Y002428D01*
X017194Y002551D01*
X017128Y002712D01*
X017003Y002712D01*
X016936Y002551D01*
X016813Y002428D01*
X016652Y002361D01*
X016478Y002361D01*
X016317Y002428D01*
X016194Y002551D01*
X016128Y002712D01*
X016003Y002712D01*
X015936Y002551D01*
X015813Y002428D01*
X015652Y002361D01*
X015478Y002361D01*
X015317Y002428D01*
X015194Y002551D01*
X015128Y002712D01*
X010404Y002712D01*
X010404Y002594D02*
X015177Y002594D01*
X015128Y002712D02*
X015128Y002886D01*
X015194Y003046D01*
X015317Y003169D01*
X015478Y003236D01*
X015652Y003236D01*
X015813Y003169D01*
X015936Y003046D01*
X016003Y002886D01*
X016003Y002712D01*
X016003Y002831D02*
X016128Y002831D01*
X016128Y002886D02*
X016128Y002712D01*
X016177Y002594D02*
X015954Y002594D01*
X015860Y002475D02*
X016270Y002475D01*
X016860Y002475D02*
X017270Y002475D01*
X017177Y002594D02*
X016954Y002594D01*
X017003Y002712D02*
X017003Y002886D01*
X016936Y003046D01*
X016813Y003169D01*
X016652Y003236D01*
X016478Y003236D01*
X016317Y003169D01*
X016194Y003046D01*
X016128Y002886D01*
X016154Y002949D02*
X015976Y002949D01*
X015915Y003068D02*
X016216Y003068D01*
X016358Y003186D02*
X015772Y003186D01*
X015358Y003186D02*
X010349Y003186D01*
X010404Y003068D02*
X015216Y003068D01*
X015154Y002949D02*
X010404Y002949D01*
X010404Y002831D02*
X015128Y002831D01*
X015270Y002475D02*
X010404Y002475D01*
X009529Y002475D02*
X009262Y002475D01*
X009215Y002428D02*
X009338Y002551D01*
X009215Y002428D02*
X009054Y002361D01*
X008880Y002361D01*
X008719Y002428D01*
X008596Y002551D01*
X008529Y002712D01*
X008404Y002712D01*
X008404Y002886D01*
X008357Y002999D01*
X008462Y002999D01*
X008543Y002918D01*
X008529Y002886D01*
X008529Y002712D01*
X008529Y002831D02*
X008404Y002831D01*
X008404Y002712D02*
X008338Y002551D01*
X008335Y002548D01*
X008390Y002492D01*
X008540Y002492D01*
X008679Y002435D01*
X008786Y002328D01*
X008843Y002189D01*
X008843Y002038D01*
X008804Y001944D01*
X019850Y001944D01*
X019744Y002049D01*
X019686Y002188D01*
X019686Y002338D01*
X019660Y002364D01*
X019652Y002361D01*
X019478Y002361D01*
X019317Y002428D01*
X019194Y002551D01*
X019128Y002712D01*
X019128Y002831D02*
X019003Y002831D01*
X019003Y002886D02*
X018936Y003046D01*
X018813Y003169D01*
X018652Y003236D01*
X018478Y003236D01*
X018317Y003169D01*
X018194Y003046D01*
X018128Y002886D01*
X018128Y002712D01*
X018128Y002831D02*
X018003Y002831D01*
X018003Y002886D02*
X017936Y003046D01*
X017813Y003169D01*
X017652Y003236D01*
X017478Y003236D01*
X017317Y003169D01*
X017194Y003046D01*
X017128Y002886D01*
X017128Y002712D01*
X017128Y002831D02*
X017003Y002831D01*
X016976Y002949D02*
X017154Y002949D01*
X017216Y003068D02*
X016915Y003068D01*
X016772Y003186D02*
X017358Y003186D01*
X017772Y003186D02*
X018358Y003186D01*
X018216Y003068D02*
X017915Y003068D01*
X017976Y002949D02*
X018154Y002949D01*
X018003Y002886D02*
X018003Y002712D01*
X017954Y002594D02*
X018177Y002594D01*
X018270Y002475D02*
X017860Y002475D01*
X018860Y002475D02*
X019270Y002475D01*
X019177Y002594D02*
X018954Y002594D01*
X019003Y002712D02*
X019003Y002886D01*
X018976Y002949D02*
X019154Y002949D01*
X019216Y003068D02*
X018915Y003068D01*
X018772Y003186D02*
X019358Y003186D01*
X019772Y003186D02*
X020358Y003186D01*
X020216Y003068D02*
X019915Y003068D01*
X019976Y002949D02*
X020154Y002949D01*
X020128Y002831D02*
X020003Y002831D01*
X020003Y002712D02*
X019979Y002654D01*
X019990Y002642D01*
X020140Y002642D01*
X020160Y002634D01*
X020128Y002712D01*
X020934Y002549D02*
X020990Y002492D01*
X021140Y002492D01*
X021279Y002435D01*
X021386Y002328D01*
X021443Y002189D01*
X021443Y002038D01*
X021404Y001944D01*
X027781Y001944D01*
X027339Y002385D01*
X027189Y002385D01*
X027050Y002443D01*
X026944Y002549D01*
X026886Y002688D01*
X026886Y002839D01*
X026944Y002978D01*
X027050Y003085D01*
X027189Y003142D01*
X027340Y003142D01*
X027479Y003085D01*
X027586Y002978D01*
X027643Y002839D01*
X027643Y002689D01*
X028004Y002329D01*
X028696Y002329D01*
X028504Y002520D01*
X028411Y002428D01*
X028251Y002361D01*
X028077Y002361D01*
X027916Y002428D01*
X027793Y002551D01*
X027726Y002712D01*
X027643Y002712D01*
X027726Y002712D02*
X027726Y002886D01*
X027793Y003046D01*
X027916Y003169D01*
X028077Y003236D01*
X028251Y003236D01*
X028411Y003169D01*
X028450Y003131D01*
X028450Y003294D01*
X028344Y003399D01*
X028286Y003538D01*
X028286Y003689D01*
X028326Y003785D01*
X028239Y003785D01*
X028100Y003843D01*
X027994Y003949D01*
X027936Y004088D01*
X027936Y004239D01*
X027994Y004378D01*
X028100Y004485D01*
X028239Y004542D01*
X028390Y004542D01*
X028529Y004485D01*
X028635Y004379D01*
X034895Y004379D01*
X034930Y004414D01*
X034894Y004449D01*
X034836Y004588D01*
X034836Y004738D01*
X034426Y005149D01*
X027504Y005149D01*
X027093Y004738D01*
X027093Y004588D01*
X027036Y004449D01*
X027000Y004414D01*
X027036Y004378D01*
X027093Y004239D01*
X027093Y004088D01*
X027036Y003949D01*
X026929Y003843D01*
X026790Y003785D01*
X026639Y003785D01*
X026500Y003843D01*
X026394Y003949D01*
X026336Y004088D01*
X026336Y004238D01*
X025576Y004999D01*
X009604Y004999D01*
X009330Y004725D01*
X009330Y004203D01*
X009330Y004025D01*
X009293Y003988D01*
X009293Y003838D01*
X009236Y003699D01*
X009129Y003593D01*
X008990Y003535D01*
X008839Y003535D01*
X008700Y003593D01*
X008594Y003699D01*
X008536Y003838D01*
X008536Y003989D01*
X008594Y004128D01*
X008700Y004235D01*
X008839Y004292D01*
X008900Y004292D01*
X008900Y004903D01*
X009026Y005029D01*
X009146Y005149D01*
X008254Y005149D01*
X007843Y004738D01*
X007843Y004588D01*
X007786Y004449D01*
X007679Y004343D01*
X007540Y004285D01*
X007389Y004285D01*
X007250Y004343D01*
X007145Y004449D01*
X006504Y004449D01*
X005730Y003675D01*
X005604Y003549D01*
X005716Y003660D02*
X008633Y003660D01*
X008561Y003779D02*
X005834Y003779D01*
X005953Y003898D02*
X008536Y003898D01*
X008548Y004016D02*
X006071Y004016D01*
X006190Y004135D02*
X008601Y004135D01*
X008745Y004253D02*
X006308Y004253D01*
X006427Y004372D02*
X007222Y004372D01*
X007708Y004372D02*
X008900Y004372D01*
X008900Y004490D02*
X007802Y004490D01*
X007843Y004609D02*
X008900Y004609D01*
X008900Y004727D02*
X007843Y004727D01*
X007951Y004846D02*
X008900Y004846D01*
X008961Y004964D02*
X008070Y004964D01*
X008188Y005083D02*
X009080Y005083D01*
X009570Y004964D02*
X025610Y004964D01*
X025729Y004846D02*
X009451Y004846D01*
X009332Y004727D02*
X025847Y004727D01*
X025966Y004609D02*
X009330Y004609D01*
X009330Y004490D02*
X026084Y004490D01*
X026203Y004372D02*
X009330Y004372D01*
X009330Y004253D02*
X026321Y004253D01*
X026336Y004135D02*
X009330Y004135D01*
X009321Y004016D02*
X026366Y004016D01*
X026446Y003898D02*
X022066Y003898D01*
X022029Y003935D02*
X021890Y003992D01*
X021739Y003992D01*
X021600Y003935D01*
X021494Y003828D01*
X021436Y003689D01*
X021436Y003538D01*
X021494Y003399D01*
X021570Y003323D01*
X021484Y003423D02*
X008646Y003423D01*
X008824Y003542D02*
X004561Y003542D01*
X005337Y004490D02*
X003243Y004490D01*
X003235Y004609D02*
X005456Y004609D01*
X005574Y004727D02*
X003186Y004727D01*
X003052Y004846D02*
X005693Y004846D01*
X005811Y004964D02*
X002430Y004964D01*
X002430Y004846D02*
X002678Y004846D01*
X002544Y004727D02*
X002505Y004727D01*
X002430Y005083D02*
X005930Y005083D01*
X006049Y005202D02*
X002438Y005202D01*
X002544Y005320D02*
X006167Y005320D01*
X006436Y005439D02*
X002593Y005439D01*
X002593Y005557D02*
X006554Y005557D01*
X006673Y005676D02*
X002557Y005676D01*
X002469Y005794D02*
X006791Y005794D01*
X007843Y006150D02*
X017491Y006150D01*
X017486Y006031D02*
X007901Y006031D01*
X007831Y006268D02*
X017540Y006268D01*
X017656Y006387D02*
X007777Y006387D01*
X007629Y006506D02*
X018294Y006506D01*
X018155Y006387D02*
X018073Y006387D01*
X018676Y006506D02*
X019294Y006506D01*
X019155Y006387D02*
X018815Y006387D01*
X018868Y006268D02*
X019101Y006268D01*
X019087Y006150D02*
X018883Y006150D01*
X018865Y006031D02*
X019105Y006031D01*
X019163Y005913D02*
X018807Y005913D01*
X019807Y005913D02*
X026429Y005913D01*
X026613Y006031D02*
X019865Y006031D01*
X019883Y006150D02*
X046050Y006150D01*
X046050Y006268D02*
X019868Y006268D01*
X019815Y006387D02*
X046050Y006387D01*
X046050Y006743D02*
X007100Y006743D01*
X009293Y003898D02*
X021563Y003898D01*
X021474Y003779D02*
X009269Y003779D01*
X009197Y003660D02*
X021436Y003660D01*
X021436Y003542D02*
X009006Y003542D01*
X008512Y002949D02*
X008378Y002949D01*
X008355Y002594D02*
X008578Y002594D01*
X008581Y002475D02*
X008672Y002475D01*
X008757Y002356D02*
X019668Y002356D01*
X019686Y002238D02*
X008823Y002238D01*
X008843Y002119D02*
X019715Y002119D01*
X019793Y002001D02*
X008828Y002001D01*
X007193Y002001D02*
X000795Y002001D01*
X000795Y002119D02*
X007115Y002119D01*
X007086Y002238D02*
X000795Y002238D01*
X000795Y002356D02*
X007068Y002356D01*
X020772Y003186D02*
X021358Y003186D01*
X021216Y003068D02*
X020915Y003068D01*
X020976Y002949D02*
X021154Y002949D01*
X021128Y002831D02*
X021003Y002831D01*
X021003Y002712D02*
X020936Y002551D01*
X020934Y002549D01*
X020954Y002594D02*
X021177Y002594D01*
X021194Y002551D02*
X021317Y002428D01*
X021478Y002361D01*
X021652Y002361D01*
X021813Y002428D01*
X021936Y002551D01*
X022003Y002712D01*
X022128Y002712D01*
X022128Y002594D02*
X021954Y002594D01*
X022003Y002712D02*
X022003Y002886D01*
X021936Y003046D01*
X021919Y003064D01*
X022030Y003175D01*
X022030Y003294D01*
X022136Y003399D01*
X022193Y003538D01*
X022193Y003689D01*
X022136Y003828D01*
X022029Y003935D01*
X022156Y003779D02*
X028324Y003779D01*
X028286Y003660D02*
X022193Y003660D01*
X022193Y003542D02*
X028286Y003542D01*
X028334Y003423D02*
X022146Y003423D01*
X022041Y003305D02*
X028439Y003305D01*
X028450Y003186D02*
X028371Y003186D01*
X027957Y003186D02*
X022947Y003186D01*
X022897Y003236D02*
X022233Y003236D01*
X022128Y003131D01*
X022128Y002467D01*
X022233Y002361D01*
X022897Y002361D01*
X023003Y002467D01*
X023003Y003131D01*
X022897Y003236D01*
X023003Y003068D02*
X027034Y003068D01*
X026932Y002949D02*
X023003Y002949D01*
X023003Y002831D02*
X026886Y002831D01*
X026886Y002712D02*
X023003Y002712D01*
X023003Y002594D02*
X026926Y002594D01*
X027018Y002475D02*
X023003Y002475D01*
X022128Y002475D02*
X021860Y002475D01*
X021423Y002238D02*
X027487Y002238D01*
X027605Y002119D02*
X021443Y002119D01*
X021428Y002001D02*
X027724Y002001D01*
X027976Y002356D02*
X028668Y002356D01*
X028549Y002475D02*
X028459Y002475D01*
X027868Y002475D02*
X027858Y002475D01*
X027775Y002594D02*
X027739Y002594D01*
X027726Y002831D02*
X027643Y002831D01*
X027598Y002949D02*
X027753Y002949D01*
X027814Y003068D02*
X027496Y003068D01*
X027368Y002356D02*
X021357Y002356D01*
X021270Y002475D02*
X021181Y002475D01*
X021194Y002551D02*
X021128Y002712D01*
X021923Y003068D02*
X022128Y003068D01*
X022128Y002949D02*
X021976Y002949D01*
X022003Y002831D02*
X022128Y002831D01*
X022183Y003186D02*
X022030Y003186D01*
X026984Y003898D02*
X028046Y003898D01*
X027966Y004016D02*
X027063Y004016D01*
X027093Y004135D02*
X027936Y004135D01*
X027942Y004253D02*
X027087Y004253D01*
X027038Y004372D02*
X027991Y004372D01*
X028114Y004490D02*
X027052Y004490D01*
X027093Y004609D02*
X034836Y004609D01*
X034836Y004727D02*
X027093Y004727D01*
X027201Y004846D02*
X034729Y004846D01*
X034610Y004964D02*
X027320Y004964D01*
X027438Y005083D02*
X034491Y005083D01*
X035593Y004727D02*
X044336Y004727D01*
X044336Y004609D02*
X035593Y004609D01*
X035552Y004490D02*
X044377Y004490D01*
X045038Y004372D02*
X045921Y004372D01*
X045886Y004253D02*
X045087Y004253D01*
X045093Y004135D02*
X045888Y004135D01*
X045937Y004016D02*
X045063Y004016D01*
X044984Y003898D02*
X046046Y003898D01*
X046484Y003898D02*
X049666Y003898D01*
X049666Y004016D02*
X046592Y004016D01*
X046642Y004135D02*
X049666Y004135D01*
X049666Y004253D02*
X046643Y004253D01*
X046609Y004372D02*
X049666Y004372D01*
X049666Y004490D02*
X046523Y004490D01*
X046480Y004609D02*
X049666Y004609D01*
X049666Y004727D02*
X046480Y004727D01*
X046480Y004846D02*
X049666Y004846D01*
X049666Y004964D02*
X046480Y004964D01*
X046480Y005083D02*
X049666Y005083D01*
X049666Y005202D02*
X046480Y005202D01*
X046480Y005320D02*
X049666Y005320D01*
X049666Y005439D02*
X046480Y005439D01*
X046480Y005557D02*
X049666Y005557D01*
X049666Y005676D02*
X046480Y005676D01*
X046480Y005794D02*
X049666Y005794D01*
X047372Y006743D02*
X047240Y006743D01*
X047182Y006861D02*
X047180Y006861D01*
X046050Y006031D02*
X044816Y006031D01*
X044613Y006031D02*
X035316Y006031D01*
X035113Y006031D02*
X026816Y006031D01*
X027001Y005913D02*
X034929Y005913D01*
X035501Y005913D02*
X044429Y005913D01*
X045001Y005913D02*
X046050Y005913D01*
X046050Y005794D02*
X045070Y005794D01*
X045093Y005676D02*
X046050Y005676D01*
X046050Y005557D02*
X045080Y005557D01*
X045025Y005439D02*
X046050Y005439D01*
X046050Y005320D02*
X045060Y005320D01*
X045093Y005202D02*
X046050Y005202D01*
X046050Y005083D02*
X045091Y005083D01*
X045042Y004964D02*
X046050Y004964D01*
X046050Y004846D02*
X045049Y004846D01*
X045093Y004727D02*
X046050Y004727D01*
X046050Y004609D02*
X045093Y004609D01*
X045052Y004490D02*
X046006Y004490D01*
X044229Y004846D02*
X035701Y004846D01*
X035820Y004964D02*
X044110Y004964D01*
X043992Y005083D02*
X035938Y005083D01*
X034877Y004490D02*
X028515Y004490D01*
X031748Y003898D02*
X034946Y003898D01*
X035484Y003898D02*
X036413Y003898D01*
X036353Y003779D02*
X031793Y003779D01*
X031793Y003660D02*
X036336Y003660D01*
X036356Y003542D02*
X031841Y003542D01*
X033554Y002999D02*
X033601Y002886D01*
X033601Y002712D01*
X033601Y002831D02*
X033726Y002831D01*
X033726Y002886D02*
X033726Y002712D01*
X033775Y002594D02*
X033552Y002594D01*
X033781Y002475D02*
X033868Y002475D01*
X033957Y002356D02*
X049666Y002356D01*
X049666Y002238D02*
X034023Y002238D01*
X034043Y002119D02*
X049666Y002119D01*
X049666Y002001D02*
X034028Y002001D01*
X034726Y002467D02*
X034832Y002361D01*
X035496Y002361D01*
X035601Y002467D01*
X035601Y003131D01*
X035496Y003236D01*
X034832Y003236D01*
X034726Y003131D01*
X034726Y002467D01*
X034726Y002475D02*
X034459Y002475D01*
X034601Y002831D02*
X034726Y002831D01*
X034726Y002949D02*
X034575Y002949D01*
X034513Y003068D02*
X034726Y003068D01*
X034782Y003186D02*
X034371Y003186D01*
X033961Y003305D02*
X036592Y003305D01*
X036420Y003423D02*
X033843Y003423D01*
X033659Y002999D02*
X033740Y002918D01*
X033726Y002886D01*
X033709Y002949D02*
X033575Y002949D01*
X033554Y002999D02*
X033659Y002999D01*
X035545Y003186D02*
X040555Y003186D01*
X040514Y003169D02*
X040391Y003046D01*
X040325Y002886D01*
X040325Y002712D01*
X035601Y002712D01*
X035601Y002594D02*
X040373Y002594D01*
X040391Y002551D02*
X040514Y002428D01*
X040675Y002361D01*
X040849Y002361D01*
X041010Y002428D01*
X041133Y002551D01*
X041199Y002712D01*
X041325Y002712D01*
X041391Y002551D01*
X041514Y002428D01*
X041675Y002361D01*
X041849Y002361D01*
X042010Y002428D01*
X042133Y002551D01*
X042199Y002712D01*
X042325Y002712D01*
X042391Y002551D01*
X042514Y002428D01*
X042675Y002361D01*
X042849Y002361D01*
X043010Y002428D01*
X043133Y002551D01*
X043199Y002712D01*
X043325Y002712D01*
X043391Y002551D01*
X043514Y002428D01*
X043675Y002361D01*
X043849Y002361D01*
X044010Y002428D01*
X044133Y002551D01*
X044199Y002712D01*
X044325Y002712D01*
X044391Y002551D01*
X044514Y002428D01*
X044675Y002361D01*
X044849Y002361D01*
X045010Y002428D01*
X045133Y002551D01*
X045199Y002712D01*
X045325Y002712D01*
X045391Y002551D01*
X045514Y002428D01*
X045675Y002361D01*
X045849Y002361D01*
X046010Y002428D01*
X046133Y002551D01*
X046199Y002712D01*
X046325Y002712D01*
X046391Y002551D01*
X046514Y002428D01*
X046675Y002361D01*
X046849Y002361D01*
X047010Y002428D01*
X047133Y002551D01*
X047199Y002712D01*
X047325Y002712D01*
X047325Y002594D02*
X047151Y002594D01*
X047199Y002712D02*
X047199Y002886D01*
X047133Y003046D01*
X047010Y003169D01*
X046849Y003236D01*
X046847Y003236D01*
X046504Y003579D01*
X046326Y003579D01*
X042235Y003579D01*
X042129Y003685D01*
X041990Y003742D01*
X041839Y003742D01*
X041700Y003685D01*
X041594Y003578D01*
X041536Y003439D01*
X041536Y003288D01*
X041575Y003195D01*
X041514Y003169D01*
X041391Y003046D01*
X041325Y002886D01*
X041325Y002712D01*
X041325Y002831D02*
X041199Y002831D01*
X041199Y002886D02*
X041133Y003046D01*
X041010Y003169D01*
X040849Y003236D01*
X040675Y003236D01*
X040514Y003169D01*
X040413Y003068D02*
X035601Y003068D01*
X035601Y002949D02*
X040351Y002949D01*
X040325Y002831D02*
X035601Y002831D01*
X035601Y002475D02*
X040467Y002475D01*
X040391Y002551D02*
X040325Y002712D01*
X041057Y002475D02*
X041467Y002475D01*
X041373Y002594D02*
X041151Y002594D01*
X041199Y002712D02*
X041199Y002886D01*
X041173Y002949D02*
X041351Y002949D01*
X041413Y003068D02*
X041111Y003068D01*
X040969Y003186D02*
X041555Y003186D01*
X041536Y003305D02*
X036837Y003305D01*
X037010Y003423D02*
X041536Y003423D01*
X041579Y003542D02*
X037074Y003542D01*
X037093Y003660D02*
X041676Y003660D01*
X042153Y003660D02*
X049666Y003660D01*
X049666Y003542D02*
X046541Y003542D01*
X046659Y003423D02*
X049666Y003423D01*
X049666Y003305D02*
X046778Y003305D01*
X046969Y003186D02*
X047380Y003186D01*
X047430Y003236D02*
X047325Y003131D01*
X047325Y002467D01*
X047430Y002361D01*
X048094Y002361D01*
X048199Y002467D01*
X048199Y003131D01*
X048094Y003236D01*
X047430Y003236D01*
X047325Y003068D02*
X047111Y003068D01*
X047173Y002949D02*
X047325Y002949D01*
X047325Y002831D02*
X047199Y002831D01*
X046410Y003065D02*
X046391Y003046D01*
X046325Y002886D01*
X046325Y002712D01*
X046325Y002831D02*
X046199Y002831D01*
X046199Y002886D02*
X046133Y003046D01*
X046030Y003149D01*
X046326Y003149D01*
X046410Y003065D01*
X046407Y003068D02*
X046111Y003068D01*
X046173Y002949D02*
X046351Y002949D01*
X046199Y002886D02*
X046199Y002712D01*
X046151Y002594D02*
X046373Y002594D01*
X046467Y002475D02*
X046057Y002475D01*
X045467Y002475D02*
X045057Y002475D01*
X045151Y002594D02*
X045373Y002594D01*
X045325Y002712D02*
X045325Y002886D01*
X045391Y003046D01*
X045494Y003149D01*
X045030Y003149D01*
X045133Y003046D01*
X045199Y002886D01*
X045199Y002712D01*
X045199Y002831D02*
X045325Y002831D01*
X045351Y002949D02*
X045173Y002949D01*
X045111Y003068D02*
X045413Y003068D01*
X044494Y003149D02*
X044391Y003046D01*
X044325Y002886D01*
X044325Y002712D01*
X044325Y002831D02*
X044199Y002831D01*
X044199Y002886D02*
X044133Y003046D01*
X044030Y003149D01*
X044494Y003149D01*
X044413Y003068D02*
X044111Y003068D01*
X044173Y002949D02*
X044351Y002949D01*
X044199Y002886D02*
X044199Y002712D01*
X044151Y002594D02*
X044373Y002594D01*
X044467Y002475D02*
X044057Y002475D01*
X043467Y002475D02*
X043057Y002475D01*
X043151Y002594D02*
X043373Y002594D01*
X043325Y002712D02*
X043325Y002886D01*
X043391Y003046D01*
X043494Y003149D01*
X043030Y003149D01*
X043133Y003046D01*
X043199Y002886D01*
X043199Y002712D01*
X043199Y002831D02*
X043325Y002831D01*
X043351Y002949D02*
X043173Y002949D01*
X043111Y003068D02*
X043413Y003068D01*
X042494Y003149D02*
X042391Y003046D01*
X042325Y002886D01*
X042325Y002712D01*
X042325Y002831D02*
X042199Y002831D01*
X042199Y002886D02*
X042133Y003046D01*
X042133Y003047D01*
X042235Y003149D01*
X042494Y003149D01*
X042413Y003068D02*
X042154Y003068D01*
X042173Y002949D02*
X042351Y002949D01*
X042199Y002886D02*
X042199Y002712D01*
X042151Y002594D02*
X042373Y002594D01*
X042467Y002475D02*
X042057Y002475D01*
X037134Y003779D02*
X049666Y003779D01*
X049666Y003186D02*
X048144Y003186D01*
X048199Y003068D02*
X049666Y003068D01*
X049666Y002949D02*
X048199Y002949D01*
X048199Y002831D02*
X049666Y002831D01*
X049666Y002712D02*
X048199Y002712D01*
X048199Y002594D02*
X049666Y002594D01*
X049666Y002475D02*
X048199Y002475D01*
X047325Y002475D02*
X047057Y002475D01*
X044446Y003898D02*
X037253Y003898D01*
X036882Y004135D02*
X035593Y004135D01*
X035587Y004253D02*
X037000Y004253D01*
X037119Y004372D02*
X035538Y004372D01*
X035563Y004016D02*
X036577Y004016D01*
X046912Y008521D02*
X049666Y008521D01*
X049666Y008639D02*
X046793Y008639D01*
X046675Y008758D02*
X049666Y008758D01*
X049666Y008876D02*
X046731Y008876D01*
X046850Y008995D02*
X049666Y008995D01*
X049666Y009113D02*
X046969Y009113D01*
X047318Y009232D02*
X049666Y009232D01*
X049666Y009351D02*
X047407Y009351D01*
X047443Y009469D02*
X049666Y009469D01*
X049666Y009588D02*
X047443Y009588D01*
X047395Y009706D02*
X049666Y009706D01*
X049666Y009825D02*
X047289Y009825D01*
X047579Y009943D02*
X049666Y009943D01*
X049666Y010062D02*
X047691Y010062D01*
X047740Y010180D02*
X049666Y010180D01*
X049666Y010299D02*
X047743Y010299D01*
X047711Y010417D02*
X049666Y010417D01*
X049666Y010536D02*
X047628Y010536D01*
X047741Y010655D02*
X049666Y010655D01*
X049666Y010773D02*
X047845Y010773D01*
X047893Y010892D02*
X049666Y010892D01*
X049666Y011010D02*
X047893Y011010D01*
X047856Y011129D02*
X049666Y011129D01*
X049666Y011247D02*
X047883Y011247D01*
X047934Y011366D02*
X049666Y011366D01*
X049666Y011484D02*
X047943Y011484D01*
X047917Y011603D02*
X049666Y011603D01*
X049666Y011721D02*
X047842Y011721D01*
X047922Y011840D02*
X049666Y011840D01*
X049666Y011959D02*
X048092Y011959D01*
X048165Y012077D02*
X049666Y012077D01*
X049666Y012196D02*
X048199Y012196D01*
X048199Y012314D02*
X049666Y012314D01*
X049666Y012433D02*
X048159Y012433D01*
X048077Y012551D02*
X049666Y012551D01*
X049666Y012670D02*
X047885Y012670D01*
X047780Y012753D02*
X047780Y012753D01*
X047744Y012788D02*
X049666Y012788D01*
X047365Y012433D02*
X047159Y012433D01*
X047199Y012314D02*
X047325Y012314D01*
X047325Y012196D02*
X047199Y012196D01*
X047165Y012077D02*
X047359Y012077D01*
X047432Y011959D02*
X047092Y011959D01*
X046922Y011840D02*
X047484Y011840D01*
X047287Y011721D02*
X047042Y011721D01*
X047146Y011603D02*
X047213Y011603D01*
X046587Y011721D02*
X045726Y011721D01*
X045608Y011603D02*
X046484Y011603D01*
X046602Y011840D02*
X045922Y011840D01*
X046092Y011959D02*
X046432Y011959D01*
X046359Y012077D02*
X046165Y012077D01*
X046199Y012196D02*
X046325Y012196D01*
X046325Y012314D02*
X046199Y012314D01*
X046159Y012433D02*
X046365Y012433D01*
X045633Y010536D02*
X018847Y010536D01*
X018965Y010417D02*
X045514Y010417D01*
X045396Y010299D02*
X026115Y010299D01*
X026205Y010180D02*
X045277Y010180D01*
X045159Y010062D02*
X026243Y010062D01*
X026243Y009943D02*
X045040Y009943D01*
X044922Y009825D02*
X026358Y009825D01*
X025524Y010180D02*
X019621Y010180D01*
X019701Y010062D02*
X022609Y010062D01*
X022490Y009943D02*
X019731Y009943D01*
X019084Y010299D02*
X025615Y010299D01*
X021443Y013144D02*
X031360Y013144D01*
X031518Y013262D02*
X021413Y013262D01*
X035323Y011840D02*
X040602Y011840D01*
X040432Y011959D02*
X035493Y011959D01*
X035567Y012077D02*
X040359Y012077D01*
X040325Y012196D02*
X035601Y012196D01*
X035601Y012314D02*
X040325Y012314D01*
X040365Y012433D02*
X035560Y012433D01*
X035554Y012449D02*
X035554Y012449D01*
X007318Y013262D02*
X000795Y013262D01*
X000795Y013144D02*
X007160Y013144D01*
X006843Y012670D02*
X006090Y012670D01*
X006282Y012551D02*
X006652Y012551D01*
X006570Y012433D02*
X006364Y012433D01*
X006404Y012314D02*
X006529Y012314D01*
X006529Y012196D02*
X006404Y012196D01*
X006370Y012077D02*
X006564Y012077D01*
X006637Y011959D02*
X006296Y011959D01*
X004637Y011959D02*
X004296Y011959D01*
X004370Y012077D02*
X004564Y012077D01*
X004529Y012196D02*
X004404Y012196D01*
X004404Y012314D02*
X004529Y012314D01*
X004570Y012433D02*
X004364Y012433D01*
X004282Y012551D02*
X004652Y012551D01*
X004843Y012670D02*
X004090Y012670D01*
X003843Y012670D02*
X003090Y012670D01*
X003282Y012551D02*
X003652Y012551D01*
X003570Y012433D02*
X003364Y012433D01*
X003404Y012314D02*
X003529Y012314D01*
X003529Y012196D02*
X003404Y012196D01*
X003370Y012077D02*
X003564Y012077D01*
X003637Y011959D02*
X003297Y011959D01*
X003126Y011840D02*
X003634Y011840D01*
X003437Y011721D02*
X002961Y011721D01*
X003080Y011603D02*
X003363Y011603D01*
X003336Y011484D02*
X003198Y011484D01*
X003317Y011366D02*
X003346Y011366D01*
X002570Y012433D02*
X002481Y012433D01*
D17*
X002215Y012164D03*
X002265Y011614D03*
X003715Y011464D03*
X002515Y011064D03*
X002515Y010314D03*
X003215Y009264D03*
X002215Y007964D03*
X003365Y007614D03*
X002265Y007214D03*
X002665Y006664D03*
X002215Y005514D03*
X002615Y005064D03*
X002865Y004514D03*
X002215Y004014D03*
X002265Y003414D03*
X004365Y003214D03*
X006715Y003964D03*
X008915Y003914D03*
X007465Y004664D03*
X007465Y005164D03*
X007465Y005664D03*
X007465Y006164D03*
X006765Y006564D03*
X009615Y007664D03*
X011265Y006814D03*
X013065Y006764D03*
X014865Y006814D03*
X017865Y006064D03*
X023765Y007114D03*
X022965Y008264D03*
X022265Y008264D03*
X023165Y008864D03*
X023865Y008764D03*
X024865Y008914D03*
X024115Y009164D03*
X025065Y009464D03*
X025915Y009364D03*
X025865Y010014D03*
X023415Y010564D03*
X026415Y011314D03*
X026915Y011464D03*
X028015Y011564D03*
X030415Y011364D03*
X029565Y010264D03*
X030215Y008164D03*
X029465Y007814D03*
X028465Y007814D03*
X027965Y008164D03*
X030115Y006764D03*
X028415Y006014D03*
X026715Y005664D03*
X026715Y005164D03*
X026715Y004664D03*
X026715Y004164D03*
X025915Y003864D03*
X028315Y004164D03*
X028665Y003614D03*
X031415Y003714D03*
X034365Y003714D03*
X035215Y004164D03*
X035215Y004664D03*
X034365Y004714D03*
X035215Y005164D03*
X035215Y005664D03*
X034365Y006464D03*
X037465Y006514D03*
X036965Y007814D03*
X034165Y008164D03*
X040215Y010514D03*
X040815Y011364D03*
X043615Y010614D03*
X046815Y011414D03*
X047565Y011464D03*
X046215Y011814D03*
X047515Y010964D03*
X047365Y010264D03*
X047065Y009514D03*
X047715Y007914D03*
X046465Y007814D03*
X047465Y007114D03*
X047365Y006314D03*
X046815Y006064D03*
X047315Y005464D03*
X044715Y005664D03*
X044715Y005164D03*
X043815Y004814D03*
X044715Y004664D03*
X044715Y004164D03*
X043915Y003764D03*
X041915Y003364D03*
X039265Y003214D03*
X036715Y003664D03*
X039315Y004814D03*
X043865Y006414D03*
X041915Y007314D03*
X046265Y004214D03*
X047065Y004114D03*
X033665Y002114D03*
X032665Y002264D03*
X027265Y002764D03*
X021815Y003614D03*
X020065Y002264D03*
X021065Y002114D03*
X028415Y004914D03*
X016365Y008614D03*
X014915Y008164D03*
X013515Y007714D03*
X012815Y008164D03*
X013315Y009414D03*
X015315Y009664D03*
X015815Y009664D03*
X016315Y009664D03*
X016815Y009664D03*
X017315Y009664D03*
X019352Y009914D03*
X017815Y010764D03*
X018765Y011464D03*
X014315Y012214D03*
X010715Y012914D03*
X007465Y012914D03*
X005465Y012714D03*
X002515Y012914D03*
X010815Y009964D03*
X018065Y012764D03*
X020065Y012964D03*
X021065Y013114D03*
X030665Y012714D03*
X031665Y012914D03*
X033665Y013114D03*
X038065Y012214D03*
X048115Y012964D03*
X011515Y003314D03*
X008465Y002114D03*
X007465Y002264D03*
X010815Y004664D03*
D18*
X009515Y005214D02*
X009115Y004814D01*
X009115Y004114D01*
X008915Y003914D01*
X008552Y003214D02*
X008967Y002799D01*
X008465Y002114D02*
X008015Y002564D01*
X008030Y002699D01*
X007967Y002799D01*
X007465Y002264D02*
X007015Y002714D01*
X006967Y002766D01*
X006967Y002799D01*
X008552Y003214D02*
X004365Y003214D01*
X005515Y003764D02*
X002565Y003764D01*
X002265Y003464D01*
X002265Y003414D01*
X002315Y003914D02*
X002215Y004014D01*
X002315Y003914D02*
X005465Y003914D01*
X006365Y004814D01*
X007115Y004814D01*
X007465Y005164D01*
X007815Y005514D01*
X026365Y005514D01*
X026715Y005164D01*
X027065Y005514D01*
X034865Y005514D01*
X035215Y005164D01*
X035565Y005514D01*
X044365Y005514D01*
X044715Y005164D01*
X044715Y004664D02*
X044015Y005364D01*
X035915Y005364D01*
X035215Y004664D01*
X034515Y005364D01*
X027415Y005364D01*
X026715Y004664D01*
X026015Y005364D01*
X008165Y005364D01*
X007465Y004664D01*
X006415Y004664D01*
X005515Y003764D01*
X005415Y004064D02*
X002865Y004064D01*
X002215Y004714D01*
X002215Y005514D01*
X002865Y004514D02*
X003165Y004214D01*
X005365Y004214D01*
X006265Y005114D01*
X006415Y005114D01*
X007465Y006164D01*
X007815Y005814D01*
X017615Y005814D01*
X017865Y006064D01*
X013515Y007714D02*
X009665Y007714D01*
X009615Y007664D01*
X009465Y007814D01*
X006765Y007814D01*
X006765Y006564D01*
X007465Y005664D02*
X006765Y004964D01*
X006315Y004964D01*
X005415Y004064D01*
X009515Y005214D02*
X025665Y005214D01*
X026715Y004164D01*
X028315Y004164D02*
X035215Y004164D01*
X036715Y003664D02*
X037215Y004164D01*
X044715Y004164D01*
X046265Y004214D02*
X046265Y007814D01*
X046465Y007814D01*
X046265Y007814D02*
X036965Y007814D01*
X029465Y007814D01*
X028465Y007814D01*
X028365Y007814D01*
X028265Y007714D01*
X013515Y007714D01*
X011515Y008564D02*
X010965Y008014D01*
X003165Y008014D01*
X002665Y007514D01*
X002665Y006664D01*
X002265Y007214D02*
X002265Y007314D01*
X003115Y008164D01*
X010915Y008164D01*
X011465Y008714D01*
X014115Y008714D01*
X014915Y009514D01*
X015315Y009514D01*
X015765Y009064D01*
X016365Y009064D01*
X016615Y008814D01*
X023115Y008814D01*
X023165Y008864D01*
X023165Y008664D01*
X023565Y008264D01*
X027365Y008264D01*
X027765Y008664D01*
X046265Y008664D01*
X047115Y007814D01*
X047115Y007464D01*
X047465Y007114D01*
X046965Y006714D02*
X047365Y006314D01*
X046965Y006714D02*
X046965Y007764D01*
X046215Y008514D01*
X027815Y008514D01*
X027415Y008114D01*
X023265Y008114D01*
X023115Y008264D01*
X022965Y008264D01*
X022965Y008514D01*
X022815Y008664D01*
X016415Y008664D01*
X016365Y008614D01*
X016315Y008564D01*
X011515Y008564D01*
X011415Y008864D02*
X010865Y008314D01*
X003065Y008314D01*
X002715Y007964D01*
X002215Y007964D01*
X003365Y007614D02*
X003565Y007814D01*
X006765Y007814D01*
X004015Y008464D02*
X003215Y009264D01*
X004015Y008464D02*
X010815Y008464D01*
X011365Y009014D01*
X014015Y009014D01*
X015165Y010164D01*
X015765Y010164D01*
X016265Y009664D01*
X016315Y009664D01*
X016315Y009564D01*
X016765Y009114D01*
X022765Y009114D01*
X023015Y009364D01*
X023915Y009364D01*
X024115Y009164D01*
X024715Y008564D01*
X027265Y008564D01*
X027665Y008964D01*
X046515Y008964D01*
X047065Y009514D01*
X045815Y009264D02*
X047515Y010964D01*
X047565Y011464D02*
X045515Y009414D01*
X025965Y009414D01*
X025915Y009364D01*
X025465Y009814D01*
X022865Y009814D01*
X022615Y009564D01*
X018615Y009564D01*
X017815Y010364D01*
X017815Y010764D01*
X017665Y010614D01*
X003465Y010614D01*
X002515Y011564D01*
X002315Y011564D01*
X002265Y011614D01*
X003715Y011464D02*
X003965Y011714D01*
X007433Y011714D01*
X007967Y012247D01*
X007465Y012914D02*
X006967Y012416D01*
X006967Y012247D01*
X005465Y012714D02*
X005017Y012266D01*
X004967Y012247D01*
X003615Y010764D02*
X002215Y012164D01*
X002515Y011064D02*
X003115Y010464D01*
X016465Y010464D01*
X017265Y009664D01*
X017315Y009664D01*
X017565Y009414D01*
X022665Y009414D01*
X022915Y009664D01*
X024865Y009664D01*
X025065Y009464D01*
X025515Y009014D01*
X027315Y009014D01*
X027565Y009264D01*
X045815Y009264D01*
X046015Y009114D02*
X047165Y010264D01*
X047365Y010264D01*
X046815Y011414D02*
X044965Y009564D01*
X026315Y009564D01*
X025865Y010014D01*
X025815Y009964D01*
X022815Y009964D01*
X022565Y009714D01*
X019615Y009714D01*
X019415Y009914D01*
X019352Y009914D01*
X019165Y009914D01*
X017965Y011114D01*
X017665Y011114D01*
X017315Y010764D01*
X003615Y010764D01*
X002515Y010314D02*
X016165Y010314D01*
X016815Y009664D01*
X017215Y009264D01*
X022715Y009264D01*
X022965Y009514D01*
X024265Y009514D01*
X024865Y008914D01*
X024915Y008864D01*
X027365Y008864D01*
X027615Y009114D01*
X046015Y009114D01*
X046315Y008814D02*
X047215Y007914D01*
X047715Y007914D01*
X046315Y008814D02*
X027715Y008814D01*
X027315Y008414D01*
X024115Y008414D01*
X023865Y008664D01*
X023865Y008764D01*
X023415Y009214D01*
X023065Y009214D01*
X022815Y008964D01*
X016665Y008964D01*
X016415Y009214D01*
X016165Y009214D01*
X015815Y009564D01*
X015815Y009664D01*
X015465Y010014D01*
X015215Y010014D01*
X014065Y008864D01*
X011415Y008864D01*
X015315Y009514D02*
X015315Y009664D01*
X017865Y011864D02*
X018765Y010964D01*
X026715Y010964D01*
X026915Y011164D01*
X026915Y011464D01*
X026715Y011664D01*
X023165Y011664D01*
X022581Y012247D01*
X022565Y012247D01*
X022299Y011514D02*
X021565Y012247D01*
X021065Y012748D01*
X021065Y013114D01*
X020065Y012964D02*
X019615Y012514D01*
X019615Y012297D01*
X019565Y012247D01*
X019865Y011464D02*
X020565Y012164D01*
X020565Y012247D01*
X020565Y012247D01*
X019865Y011464D02*
X018765Y011464D01*
X017865Y011864D02*
X010365Y011864D01*
X010115Y012114D01*
X010100Y012114D01*
X009967Y012247D01*
X009915Y012764D02*
X009398Y012247D01*
X008967Y012247D01*
X009915Y012764D02*
X010565Y012764D01*
X010715Y012914D01*
X017565Y012264D02*
X018065Y012764D01*
X017565Y012264D02*
X017565Y012247D01*
X022299Y011514D02*
X026315Y011514D01*
X026415Y011414D01*
X026415Y011314D01*
X026915Y011164D02*
X030115Y011164D01*
X030265Y011014D01*
X030565Y011014D01*
X030765Y011214D01*
X030765Y011464D01*
X031015Y011714D01*
X034615Y011714D01*
X035165Y012264D01*
X035165Y012361D01*
X035164Y012363D01*
X035164Y012247D01*
X035164Y012363D02*
X035465Y012664D01*
X047565Y012664D01*
X047765Y012464D01*
X047762Y012461D01*
X047762Y012247D01*
X045765Y012245D02*
X045765Y012064D01*
X045515Y011814D01*
X041165Y011814D01*
X040815Y011464D01*
X040815Y011364D01*
X045762Y012247D02*
X045765Y012245D01*
X034164Y012247D02*
X033665Y012746D01*
X033665Y013114D01*
X032031Y012247D02*
X031665Y012614D01*
X031665Y012914D01*
X030665Y012714D02*
X030214Y012263D01*
X030164Y012247D01*
X030915Y011864D02*
X032865Y011864D01*
X033065Y012064D01*
X033165Y012246D01*
X033164Y012247D01*
X032164Y012247D02*
X032031Y012247D01*
X030915Y011864D02*
X030415Y011364D01*
X026715Y005664D02*
X007465Y005664D01*
X019565Y002799D02*
X019565Y002763D01*
X020065Y002264D01*
X020565Y002613D02*
X021065Y002114D01*
X020565Y002613D02*
X020565Y002799D01*
X021565Y002799D02*
X021565Y003014D01*
X021815Y003264D01*
X021815Y003614D01*
X021565Y002799D02*
X021565Y002799D01*
X027265Y002764D02*
X027915Y002114D01*
X032315Y002114D01*
X032515Y001914D01*
X032815Y001914D01*
X033015Y002114D01*
X033665Y002114D01*
X033164Y002615D01*
X033164Y002799D01*
X033748Y003214D02*
X034164Y002799D01*
X033748Y003214D02*
X031865Y003214D01*
X031415Y003664D01*
X031415Y003714D01*
X028665Y003614D02*
X028665Y002664D01*
X028915Y002414D01*
X031815Y002414D01*
X032165Y002764D01*
X032164Y002765D01*
X032164Y002799D01*
X032165Y002764D02*
X032665Y002264D01*
X041915Y003364D02*
X046415Y003364D01*
X046765Y003014D01*
X046765Y002801D01*
X046762Y002799D01*
X044715Y005664D02*
X035215Y005664D01*
X026715Y005664D01*
M02*
