G75*
G70*
%OFA0B0*%
%FSLAX24Y24*%
%IPPOS*%
%LPD*%
%AMOC8*
5,1,8,0,0,1.08239X$1,22.5*
%
%ADD10R,0.0474X0.0552*%
%ADD11C,0.0516*%
%ADD12R,0.0480X0.0470*%
%ADD13C,0.0634*%
%ADD14C,0.0671*%
%ADD15R,0.0595X0.0595*%
%ADD16C,0.0595*%
%ADD17R,0.0395X0.0206*%
%ADD18R,0.1261X0.0552*%
%ADD19R,0.0316X0.0710*%
%ADD20R,0.0880X0.0340*%
%ADD21R,0.0474X0.0474*%
%ADD22R,0.0671X0.0592*%
%ADD23C,0.0780*%
%ADD24R,0.0540X0.0710*%
%ADD25C,0.0477*%
D10*
X012335Y004931D03*
X012835Y004931D03*
X016335Y004931D03*
X016835Y004931D03*
X017335Y004931D03*
X017835Y004931D03*
X018335Y004931D03*
X018835Y004931D03*
X019335Y004931D03*
X019835Y004931D03*
X018835Y010231D03*
X018335Y010231D03*
X017835Y010231D03*
X017335Y010231D03*
X016835Y010231D03*
X016335Y010231D03*
X015835Y010231D03*
X015335Y010231D03*
X014835Y010231D03*
X014335Y010231D03*
X013335Y010231D03*
X012335Y010231D03*
X011335Y010231D03*
D11*
X018485Y008154D03*
X019485Y008154D03*
X019485Y007154D03*
X018485Y007154D03*
X018485Y006154D03*
X019485Y006154D03*
D12*
X008615Y009029D03*
X008615Y009698D03*
D13*
X007365Y009864D03*
X006365Y009864D03*
X006865Y008864D03*
X005865Y008864D03*
D14*
X005355Y009585D03*
D15*
X009967Y002799D03*
X022565Y002799D03*
X035164Y002799D03*
X047762Y002799D03*
D16*
X046762Y002799D03*
X045762Y002799D03*
X044762Y002799D03*
X043762Y002799D03*
X042762Y002799D03*
X041762Y002799D03*
X040762Y002799D03*
X034164Y002799D03*
X033164Y002799D03*
X032164Y002799D03*
X031164Y002799D03*
X030164Y002799D03*
X029164Y002799D03*
X028164Y002799D03*
X021565Y002799D03*
X020565Y002799D03*
X019565Y002799D03*
X018565Y002799D03*
X017565Y002799D03*
X016565Y002799D03*
X015565Y002799D03*
X008967Y002799D03*
X007967Y002799D03*
X006967Y002799D03*
X005967Y002799D03*
X004967Y002799D03*
X003967Y002799D03*
X002967Y002799D03*
X002967Y012247D03*
X003967Y012247D03*
X004967Y012247D03*
X005967Y012247D03*
X006967Y012247D03*
X007967Y012247D03*
X008967Y012247D03*
X009967Y012247D03*
X015565Y012247D03*
X016565Y012247D03*
X017565Y012247D03*
X018565Y012247D03*
X019565Y012247D03*
X020565Y012247D03*
X021565Y012247D03*
X022565Y012247D03*
X028164Y012247D03*
X029164Y012247D03*
X030164Y012247D03*
X031164Y012247D03*
X032164Y012247D03*
X033164Y012247D03*
X034164Y012247D03*
X035164Y012247D03*
X040762Y012247D03*
X041762Y012247D03*
X042762Y012247D03*
X043762Y012247D03*
X044762Y012247D03*
X045762Y012247D03*
X046762Y012247D03*
X047762Y012247D03*
D17*
X041859Y006348D03*
X041859Y006151D03*
X041859Y005954D03*
X041268Y005954D03*
X041268Y006151D03*
X041268Y006348D03*
X041268Y005757D03*
X041268Y005561D03*
X041268Y005364D03*
X041859Y005364D03*
X041859Y005561D03*
X041859Y005757D03*
X041859Y005167D03*
X041859Y004970D03*
X041268Y004970D03*
X041268Y005167D03*
X032359Y005167D03*
X032359Y004970D03*
X031768Y004970D03*
X031768Y005167D03*
X031768Y005364D03*
X031768Y005561D03*
X031768Y005757D03*
X032359Y005757D03*
X032359Y005561D03*
X032359Y005364D03*
X032359Y005954D03*
X032359Y006151D03*
X032359Y006348D03*
X031768Y006348D03*
X031768Y006151D03*
X031768Y005954D03*
X023859Y005954D03*
X023859Y006151D03*
X023859Y006348D03*
X023268Y006348D03*
X023268Y006151D03*
X023268Y005954D03*
X023268Y005757D03*
X023268Y005561D03*
X023268Y005364D03*
X023859Y005364D03*
X023859Y005561D03*
X023859Y005757D03*
X023859Y005167D03*
X023859Y004970D03*
X023268Y004970D03*
X023268Y005167D03*
X004609Y005167D03*
X004609Y004970D03*
X004018Y004970D03*
X004018Y005167D03*
X004018Y005364D03*
X004018Y005561D03*
X004018Y005757D03*
X004018Y005954D03*
X004018Y006151D03*
X004018Y006348D03*
X004609Y006348D03*
X004609Y006151D03*
X004609Y005954D03*
X004609Y005757D03*
X004609Y005561D03*
X004609Y005364D03*
D18*
X001305Y005554D03*
X001305Y004767D03*
X001305Y003980D03*
X001305Y003192D03*
X001305Y002405D03*
X001305Y006342D03*
X001305Y007129D03*
X001305Y007917D03*
X001305Y008704D03*
X001305Y009491D03*
X001305Y010279D03*
X001305Y011066D03*
X001305Y011854D03*
X001305Y012641D03*
X049140Y012641D03*
X049140Y011854D03*
X049140Y011066D03*
X049140Y010279D03*
X049140Y009491D03*
X049140Y008704D03*
X049140Y007917D03*
X049140Y007129D03*
X049140Y006342D03*
X049140Y005554D03*
X049140Y004767D03*
X049140Y003980D03*
X049140Y003192D03*
X049140Y002405D03*
D19*
X027415Y008114D03*
X026915Y008114D03*
X026415Y008114D03*
X025915Y008114D03*
X025415Y008114D03*
X024915Y008114D03*
X024415Y008114D03*
X023915Y008114D03*
X023415Y008114D03*
X023415Y012114D03*
X023915Y012114D03*
X024415Y012114D03*
X024915Y012114D03*
X025415Y012114D03*
X025915Y012114D03*
X026415Y012114D03*
X026915Y012114D03*
X027415Y012114D03*
D20*
X027425Y007164D03*
X027425Y006664D03*
X027425Y006164D03*
X027425Y005664D03*
X027425Y005164D03*
X027425Y004664D03*
X027425Y004164D03*
X027425Y003664D03*
X025005Y003664D03*
X025005Y004164D03*
X025005Y004664D03*
X025005Y005164D03*
X025005Y005664D03*
X025005Y006164D03*
X025005Y006664D03*
X025005Y007164D03*
X033505Y007164D03*
X033505Y006664D03*
X033505Y006164D03*
X033505Y005664D03*
X033505Y005164D03*
X033505Y004664D03*
X033505Y004164D03*
X033505Y003664D03*
X035925Y003664D03*
X035925Y004164D03*
X035925Y004664D03*
X035925Y005164D03*
X035925Y005664D03*
X035925Y006164D03*
X035925Y006664D03*
X035925Y007164D03*
X043005Y007164D03*
X043005Y006664D03*
X043005Y006164D03*
X043005Y005664D03*
X043005Y005164D03*
X043005Y004664D03*
X043005Y004164D03*
X043005Y003664D03*
X045425Y003664D03*
X045425Y004164D03*
X045425Y004664D03*
X045425Y005164D03*
X045425Y005664D03*
X045425Y006164D03*
X045425Y006664D03*
X045425Y007164D03*
X008175Y007164D03*
X008175Y006664D03*
X008175Y006164D03*
X008175Y005664D03*
X008175Y005164D03*
X008175Y004664D03*
X008175Y004164D03*
X008175Y003664D03*
X005755Y003664D03*
X005755Y004164D03*
X005755Y004664D03*
X005755Y005164D03*
X005755Y005664D03*
X005755Y006164D03*
X005755Y006664D03*
X005755Y007164D03*
D21*
X009215Y007198D03*
X009215Y006529D03*
X028465Y006529D03*
X028465Y007198D03*
X036965Y007198D03*
X036965Y006529D03*
X046465Y006529D03*
X046465Y007198D03*
D22*
X013715Y011529D03*
X012815Y011529D03*
X012815Y012198D03*
X013715Y012198D03*
D23*
X009865Y011264D03*
X008865Y011264D03*
X007865Y011264D03*
D24*
X010715Y011414D03*
X011315Y011414D03*
X011915Y011414D03*
D25*
X007465Y002264D03*
X008465Y002114D03*
X011515Y003314D03*
X008915Y003914D03*
X006715Y003964D03*
X007465Y004664D03*
X007465Y005164D03*
X007465Y005664D03*
X007465Y006164D03*
X006765Y006564D03*
X009615Y007664D03*
X011265Y006814D03*
X013065Y006764D03*
X014865Y006814D03*
X017865Y006064D03*
X023765Y007114D03*
X022965Y008264D03*
X022265Y008264D03*
X023165Y008864D03*
X023865Y008764D03*
X024865Y008914D03*
X024115Y009164D03*
X025065Y009464D03*
X025915Y009364D03*
X025865Y010014D03*
X023415Y010564D03*
X026415Y011314D03*
X026915Y011464D03*
X028015Y011564D03*
X030415Y011364D03*
X029565Y010264D03*
X030215Y008164D03*
X029465Y007814D03*
X028465Y007814D03*
X027965Y008164D03*
X030115Y006764D03*
X028415Y006014D03*
X026715Y005664D03*
X026715Y005164D03*
X026715Y004664D03*
X026715Y004164D03*
X025915Y003864D03*
X028315Y004164D03*
X028665Y003614D03*
X031415Y003714D03*
X034365Y003714D03*
X035215Y004164D03*
X035215Y004664D03*
X034365Y004714D03*
X035215Y005164D03*
X035215Y005664D03*
X034365Y006464D03*
X037465Y006514D03*
X036965Y007814D03*
X034165Y008164D03*
X040215Y010514D03*
X040815Y011364D03*
X043615Y010614D03*
X046815Y011414D03*
X047565Y011464D03*
X046215Y011814D03*
X047515Y010964D03*
X047365Y010264D03*
X047065Y009514D03*
X047715Y007914D03*
X046465Y007814D03*
X047465Y007114D03*
X047365Y006314D03*
X046815Y006064D03*
X047315Y005464D03*
X044715Y005664D03*
X044715Y005164D03*
X043815Y004814D03*
X044715Y004664D03*
X044715Y004164D03*
X043915Y003764D03*
X041915Y003364D03*
X039265Y003214D03*
X036715Y003664D03*
X039315Y004814D03*
X043865Y006414D03*
X041915Y007314D03*
X046265Y004214D03*
X047065Y004114D03*
X033665Y002114D03*
X032665Y002264D03*
X027265Y002764D03*
X021815Y003614D03*
X020065Y002264D03*
X021065Y002114D03*
X028415Y004914D03*
X016365Y008614D03*
X014915Y008164D03*
X013515Y007714D03*
X012815Y008164D03*
X013315Y009414D03*
X015315Y009664D03*
X015815Y009664D03*
X016315Y009664D03*
X016815Y009664D03*
X017315Y009664D03*
X019352Y009914D03*
X017815Y010764D03*
X018765Y011464D03*
X014315Y012214D03*
X010715Y012914D03*
X007465Y012914D03*
X005465Y012714D03*
X002515Y012914D03*
X002215Y012164D03*
X002265Y011614D03*
X003715Y011464D03*
X002515Y011064D03*
X002515Y010314D03*
X003215Y009264D03*
X002215Y007964D03*
X003365Y007614D03*
X002265Y007214D03*
X002665Y006664D03*
X002215Y005514D03*
X002615Y005064D03*
X002865Y004514D03*
X002215Y004014D03*
X002265Y003414D03*
X004365Y003214D03*
X010815Y004664D03*
X010815Y009964D03*
X018065Y012764D03*
X020065Y012964D03*
X021065Y013114D03*
X030665Y012714D03*
X031665Y012914D03*
X033665Y013114D03*
X038065Y012214D03*
X048115Y012964D03*
M02*
