G75*
G70*
%OFA0B0*%
%FSLAX24Y24*%
%IPPOS*%
%LPD*%
%AMOC8*
5,1,8,0,0,1.08239X$1,22.5*
%
%ADD10C,0.0000*%
%ADD11C,0.0070*%
%ADD12R,0.0394X0.0472*%
%ADD13C,0.0436*%
%ADD14R,0.0400X0.0390*%
%ADD15C,0.0554*%
%ADD16R,0.0515X0.0515*%
%ADD17C,0.0515*%
%ADD18R,0.0315X0.0126*%
%ADD19R,0.1181X0.0472*%
%ADD20R,0.0236X0.0630*%
%ADD21R,0.0800X0.0260*%
%ADD22R,0.0394X0.0394*%
%ADD23R,0.0591X0.0512*%
%ADD24C,0.0700*%
%ADD25R,0.0460X0.0630*%
%ADD26C,0.0120*%
%ADD27C,0.0397*%
%ADD28C,0.0140*%
D10*
X000615Y001764D02*
X000615Y013492D01*
X049846Y013492D01*
X049846Y001764D01*
X000615Y001764D01*
X005060Y009585D02*
X005062Y009619D01*
X005068Y009653D01*
X005078Y009686D01*
X005091Y009717D01*
X005109Y009747D01*
X005129Y009775D01*
X005153Y009800D01*
X005179Y009822D01*
X005207Y009840D01*
X005238Y009856D01*
X005270Y009868D01*
X005304Y009876D01*
X005338Y009880D01*
X005372Y009880D01*
X005406Y009876D01*
X005440Y009868D01*
X005472Y009856D01*
X005502Y009840D01*
X005531Y009822D01*
X005557Y009800D01*
X005581Y009775D01*
X005601Y009747D01*
X005619Y009717D01*
X005632Y009686D01*
X005642Y009653D01*
X005648Y009619D01*
X005650Y009585D01*
X005648Y009551D01*
X005642Y009517D01*
X005632Y009484D01*
X005619Y009453D01*
X005601Y009423D01*
X005581Y009395D01*
X005557Y009370D01*
X005531Y009348D01*
X005503Y009330D01*
X005472Y009314D01*
X005440Y009302D01*
X005406Y009294D01*
X005372Y009290D01*
X005338Y009290D01*
X005304Y009294D01*
X005270Y009302D01*
X005238Y009314D01*
X005207Y009330D01*
X005179Y009348D01*
X005153Y009370D01*
X005129Y009395D01*
X005109Y009423D01*
X005091Y009453D01*
X005078Y009484D01*
X005068Y009517D01*
X005062Y009551D01*
X005060Y009585D01*
D11*
X006365Y009864D02*
X006365Y010114D01*
X006565Y010314D01*
X007865Y010314D01*
X007865Y011264D01*
X009865Y011264D02*
X009965Y011364D01*
X010515Y011364D01*
X010565Y011414D01*
X010715Y011414D01*
X011315Y011414D02*
X011365Y011464D01*
X011365Y011664D01*
X011565Y011864D01*
X012365Y011864D01*
X012699Y011529D01*
X012749Y011529D01*
X012815Y011529D01*
X012765Y011514D02*
X013715Y011514D01*
X013765Y011514D01*
X013765Y008314D01*
X013515Y008064D01*
X013515Y007714D01*
X012465Y007614D02*
X012465Y005564D01*
X012815Y005214D01*
X012815Y004951D01*
X012835Y004931D01*
X012335Y004931D02*
X012315Y004951D01*
X012315Y007514D01*
X010865Y008964D01*
X008715Y008964D01*
X008649Y009029D01*
X008615Y009029D01*
X008530Y009114D01*
X007165Y009114D01*
X006915Y008864D01*
X006865Y008864D01*
X008630Y009698D02*
X008715Y009614D01*
X010465Y009614D01*
X012465Y007614D01*
X009615Y007664D02*
X009215Y007264D01*
X009215Y007198D01*
X008175Y006664D02*
X007215Y006664D01*
X006465Y007414D01*
X005215Y007414D01*
X005065Y007264D01*
X005065Y006764D01*
X004915Y006614D01*
X004915Y006414D01*
X004865Y006364D01*
X004624Y006364D01*
X004609Y006348D01*
X004621Y006164D02*
X004965Y006164D01*
X005065Y006264D01*
X005065Y006514D01*
X005215Y006664D01*
X005215Y006914D01*
X005465Y007164D01*
X005755Y007164D01*
X005755Y006664D02*
X005465Y006664D01*
X005215Y006414D01*
X005215Y006114D01*
X005065Y005964D01*
X004618Y005964D01*
X004609Y005954D01*
X004609Y006151D02*
X004621Y006164D01*
X004115Y006364D02*
X004115Y006414D01*
X004165Y006464D01*
X004165Y011614D01*
X003965Y011814D01*
X003315Y011814D01*
X002967Y012162D01*
X002967Y012247D01*
X002965Y012245D01*
X002215Y012164D02*
X001737Y012641D01*
X001305Y012641D01*
X001865Y011864D02*
X001765Y011764D01*
X001675Y011854D01*
X001305Y011854D01*
X001865Y011864D02*
X002015Y011864D01*
X002265Y011614D01*
X003715Y011464D02*
X004015Y011164D01*
X004015Y006764D01*
X003715Y006464D01*
X003715Y006264D01*
X003827Y006151D01*
X004018Y006151D01*
X004009Y005964D02*
X004018Y005954D01*
X004009Y005964D02*
X003715Y005964D01*
X003415Y005664D01*
X003415Y003264D01*
X002967Y002816D01*
X002967Y002799D01*
X002615Y003314D02*
X001865Y002564D01*
X001815Y002564D01*
X001656Y002405D01*
X001305Y002405D01*
X001305Y003192D02*
X001793Y003192D01*
X001815Y003214D01*
X002065Y003214D01*
X002265Y003414D01*
X002615Y003314D02*
X002615Y004264D01*
X002865Y004514D01*
X003565Y004814D02*
X003565Y005114D01*
X003815Y005364D01*
X004018Y005364D01*
X004018Y005561D02*
X004112Y005561D01*
X004115Y005564D01*
X004265Y005564D01*
X004315Y005514D01*
X004315Y003914D01*
X004865Y003364D01*
X009565Y003364D01*
X009915Y003014D01*
X009915Y002851D01*
X009967Y002799D01*
X008815Y002414D02*
X017565Y002414D01*
X017565Y002414D01*
X017565Y002799D01*
X017565Y002414D02*
X019715Y002414D01*
X019915Y002614D01*
X020215Y002614D01*
X020415Y002414D01*
X020715Y002414D01*
X020915Y002614D01*
X021215Y002614D01*
X021415Y002414D01*
X027715Y002414D01*
X027715Y002914D01*
X028015Y003214D01*
X028715Y003214D01*
X029115Y003614D01*
X029115Y008114D01*
X025465Y011764D01*
X025465Y011864D01*
X025415Y011914D01*
X025415Y012114D01*
X025915Y012114D02*
X025915Y012514D01*
X026015Y012614D01*
X028465Y012614D01*
X028665Y012414D01*
X028665Y012114D01*
X028915Y011864D01*
X029780Y011864D01*
X030164Y012247D01*
X030565Y012364D02*
X030765Y012364D01*
X031065Y012664D01*
X031265Y012664D01*
X031515Y012414D01*
X031815Y012414D01*
X032065Y012664D01*
X033265Y012664D01*
X033465Y012464D01*
X033865Y012464D01*
X034065Y012664D01*
X041515Y012664D01*
X041762Y012417D01*
X041762Y012247D01*
X041315Y011514D02*
X040765Y012064D01*
X040765Y012245D01*
X040762Y012247D01*
X041565Y011514D02*
X041865Y011814D01*
X043565Y011814D01*
X043765Y012014D01*
X043765Y012245D01*
X043762Y012247D01*
X044215Y012964D02*
X044762Y012417D01*
X044762Y012247D01*
X046265Y013114D02*
X046762Y012617D01*
X046762Y012247D01*
X047215Y011814D02*
X047915Y011814D01*
X048565Y012464D01*
X048665Y012464D01*
X048842Y012641D01*
X049140Y012641D01*
X046265Y013114D02*
X033665Y013114D01*
X033515Y013264D01*
X022465Y013264D01*
X022315Y013114D01*
X021065Y013114D01*
X020865Y013314D01*
X011965Y013314D01*
X011365Y012714D01*
X010915Y012714D01*
X010715Y012914D01*
X010615Y012564D02*
X010215Y012964D01*
X007515Y012964D01*
X007465Y012914D01*
X007415Y012914D01*
X007115Y012814D02*
X007365Y012564D01*
X007565Y012564D01*
X007815Y012814D01*
X010165Y012814D01*
X010565Y012414D01*
X011465Y012414D01*
X011965Y012914D01*
X017915Y012914D01*
X018065Y012764D01*
X018115Y012814D01*
X019765Y012814D01*
X019965Y012614D01*
X020165Y012614D01*
X020365Y012814D01*
X020715Y012814D01*
X020915Y012614D01*
X021215Y012614D01*
X021415Y012814D01*
X022415Y012814D01*
X022515Y012914D01*
X030465Y012914D01*
X030665Y012714D01*
X030765Y012814D01*
X031315Y012814D01*
X031565Y012564D01*
X031765Y012564D01*
X032015Y012814D01*
X033315Y012814D01*
X033515Y012614D01*
X033815Y012614D01*
X034015Y012814D01*
X042465Y012814D01*
X042762Y012517D01*
X042762Y012247D01*
X041565Y011514D02*
X041565Y005814D01*
X041515Y005764D01*
X041365Y005764D01*
X041359Y005757D01*
X041268Y005757D01*
X041268Y005561D02*
X041362Y005561D01*
X041365Y005564D01*
X041515Y005564D01*
X041565Y005514D01*
X041565Y004364D01*
X042565Y003364D01*
X047415Y003364D01*
X047765Y003014D01*
X047765Y002801D01*
X047762Y002799D01*
X048415Y002914D02*
X048415Y002664D01*
X048674Y002405D01*
X049140Y002405D01*
X048415Y002914D02*
X047665Y003664D01*
X045425Y003664D01*
X045425Y004164D02*
X046215Y004164D01*
X046265Y004214D01*
X045425Y004664D02*
X044715Y004664D01*
X044365Y004514D02*
X044715Y004164D01*
X044365Y004514D02*
X044365Y005814D01*
X044715Y006164D01*
X045425Y006164D01*
X045425Y006664D02*
X044515Y006664D01*
X043765Y007414D01*
X042515Y007414D01*
X042315Y007214D01*
X042315Y006864D01*
X042065Y006614D01*
X042065Y006464D01*
X041965Y006364D01*
X041874Y006364D01*
X041859Y006348D01*
X041871Y006164D02*
X042065Y006164D01*
X042215Y006314D01*
X042215Y006514D01*
X042465Y006764D01*
X042465Y006914D01*
X042715Y007164D01*
X043005Y007164D01*
X043005Y006664D02*
X042665Y006664D01*
X042365Y006364D01*
X042365Y006164D01*
X042165Y005964D01*
X041868Y005964D01*
X041859Y005954D01*
X041859Y006151D02*
X041871Y006164D01*
X041315Y006364D02*
X041315Y011514D01*
X040965Y011214D02*
X040815Y011364D01*
X040965Y011214D02*
X040965Y006264D01*
X041065Y006164D01*
X041165Y006164D01*
X041177Y006151D01*
X041268Y006151D01*
X041268Y005954D02*
X041174Y005954D01*
X041165Y005964D01*
X041065Y005964D01*
X040965Y005864D01*
X040965Y005514D01*
X040665Y005214D01*
X040665Y004764D01*
X040965Y004464D01*
X040965Y003214D01*
X040765Y003014D01*
X040765Y002801D01*
X040762Y002799D01*
X041565Y003214D02*
X041765Y003014D01*
X041765Y002801D01*
X041762Y002799D01*
X042415Y002414D02*
X042762Y002761D01*
X042762Y002799D01*
X042415Y002414D02*
X034015Y002414D01*
X033815Y002614D01*
X033515Y002614D01*
X033315Y002414D01*
X033015Y002414D01*
X032815Y002614D01*
X032515Y002614D01*
X032315Y002414D01*
X030165Y002414D01*
X030164Y002415D01*
X030164Y002799D01*
X030165Y002414D02*
X027715Y002414D01*
X027365Y002764D02*
X028815Y004214D01*
X028815Y008014D01*
X025415Y011414D01*
X024415Y011414D01*
X023915Y011914D01*
X023915Y012114D01*
X024415Y012114D02*
X024415Y011914D01*
X024765Y011564D01*
X025465Y011564D01*
X028965Y008064D01*
X028965Y003914D01*
X028665Y003614D01*
X029115Y003414D02*
X028515Y002814D01*
X028215Y002814D01*
X028165Y002800D01*
X028164Y002799D01*
X027365Y002764D02*
X027265Y002764D01*
X029164Y002799D02*
X029165Y002800D01*
X029165Y003014D01*
X029415Y003264D01*
X030465Y003264D01*
X031315Y004114D01*
X031315Y005114D01*
X031565Y005364D01*
X031768Y005364D01*
X031768Y005561D02*
X031862Y005561D01*
X031865Y005564D01*
X032015Y005564D01*
X032065Y005514D01*
X032065Y003914D01*
X032765Y003214D01*
X034965Y003214D01*
X035165Y003014D01*
X035165Y002800D01*
X035164Y002799D01*
X033965Y002264D02*
X044465Y002264D01*
X044765Y002564D01*
X044762Y002567D01*
X044762Y002799D01*
X045365Y002114D02*
X045765Y002514D01*
X045765Y002564D01*
X045762Y002567D01*
X045762Y002799D01*
X045365Y002114D02*
X033665Y002114D01*
X033015Y002114D01*
X032815Y001914D01*
X032515Y001914D01*
X032315Y002114D01*
X021065Y002114D01*
X020415Y002114D01*
X020215Y001914D01*
X019915Y001914D01*
X019715Y002114D01*
X008465Y002114D01*
X008765Y002264D02*
X020065Y002264D01*
X020765Y002264D01*
X020965Y002464D01*
X021165Y002464D01*
X021365Y002264D01*
X032665Y002264D01*
X033365Y002264D01*
X033565Y002464D01*
X033765Y002464D01*
X033965Y002264D01*
X031765Y003564D02*
X031165Y002964D01*
X031165Y002800D01*
X031164Y002799D01*
X030415Y003414D02*
X029115Y003414D01*
X030415Y003414D02*
X031165Y004164D01*
X031165Y005564D01*
X031565Y005964D01*
X031665Y005964D01*
X031674Y005954D01*
X031768Y005954D01*
X031768Y006151D02*
X031677Y006151D01*
X031665Y006164D01*
X031565Y006164D01*
X031465Y006264D01*
X031465Y006464D01*
X031565Y006564D01*
X031565Y010514D01*
X030715Y011364D01*
X030415Y011364D01*
X031165Y011314D02*
X031165Y012246D01*
X031164Y012247D01*
X030565Y012364D02*
X030165Y012764D01*
X029165Y012764D01*
X029164Y012763D01*
X029164Y012247D01*
X028715Y011714D02*
X028315Y012114D01*
X028297Y012114D01*
X028164Y012247D01*
X027415Y012114D02*
X027415Y011514D01*
X026815Y010914D01*
X026815Y010614D01*
X029465Y007964D01*
X029465Y007814D01*
X028465Y007814D02*
X028465Y007198D01*
X028015Y007164D02*
X028015Y004364D01*
X027815Y004164D01*
X027425Y004164D01*
X027815Y003664D02*
X028315Y004164D01*
X027425Y004664D02*
X026715Y004664D01*
X026365Y004514D02*
X026715Y004164D01*
X026365Y004514D02*
X026365Y005764D01*
X026765Y006164D01*
X027425Y006164D01*
X027425Y006664D02*
X026515Y006664D01*
X025715Y007464D01*
X024565Y007464D01*
X024465Y007364D01*
X024465Y007114D01*
X024315Y006964D01*
X024315Y006764D01*
X023915Y006364D01*
X023874Y006364D01*
X023859Y006348D01*
X023871Y006164D02*
X023859Y006151D01*
X023871Y006164D02*
X024215Y006164D01*
X024315Y006264D01*
X024315Y006464D01*
X024465Y006614D01*
X024465Y006864D01*
X024765Y007164D01*
X025005Y007164D01*
X023265Y007664D02*
X026765Y007664D01*
X026865Y007764D01*
X026865Y007864D01*
X026915Y007914D01*
X026915Y008114D01*
X026415Y008114D02*
X026415Y009464D01*
X025865Y010014D01*
X025915Y009364D02*
X025915Y008114D01*
X025415Y008114D02*
X025365Y008164D01*
X025365Y009164D01*
X025065Y009464D01*
X024365Y008914D02*
X024115Y009164D01*
X024365Y008914D02*
X024365Y008164D01*
X024415Y008114D01*
X024865Y008164D02*
X024865Y008914D01*
X023865Y008764D02*
X023865Y008164D01*
X023915Y008114D01*
X023415Y008114D02*
X023415Y008614D01*
X023165Y008864D01*
X021465Y008564D02*
X021465Y009414D01*
X018765Y012114D01*
X018699Y012114D01*
X018565Y012247D01*
X018165Y012414D02*
X018415Y012664D01*
X019715Y012664D01*
X019915Y012464D01*
X020215Y012464D01*
X020415Y012664D01*
X020665Y012664D01*
X020865Y012464D01*
X021265Y012464D01*
X021465Y012664D01*
X024865Y012664D01*
X024865Y012164D01*
X024915Y012114D01*
X026415Y012114D02*
X026415Y011314D01*
X026915Y011464D02*
X026915Y012114D01*
X027415Y012114D02*
X027415Y012064D01*
X028715Y011714D02*
X030565Y011714D01*
X031715Y010564D01*
X031715Y006364D01*
X031731Y006348D01*
X031768Y006348D01*
X032065Y006464D02*
X031865Y006664D01*
X031865Y010614D01*
X031165Y011314D01*
X033390Y010919D02*
X033390Y010603D01*
X033495Y010498D01*
X033600Y010603D01*
X033705Y010498D01*
X033810Y010603D01*
X033810Y010919D01*
X034034Y010919D02*
X034034Y010603D01*
X034139Y010498D01*
X034244Y010603D01*
X034350Y010498D01*
X034455Y010603D01*
X034455Y010919D01*
X034679Y010919D02*
X034679Y010603D01*
X034784Y010498D01*
X034889Y010603D01*
X034994Y010498D01*
X035099Y010603D01*
X035099Y010919D01*
X035646Y010603D02*
X035751Y010708D01*
X036066Y010708D01*
X036066Y010813D02*
X036066Y010498D01*
X035751Y010498D01*
X035646Y010603D01*
X035428Y010603D02*
X035428Y010498D01*
X035323Y010498D01*
X035323Y010603D01*
X035428Y010603D01*
X035751Y010919D02*
X035961Y010919D01*
X036066Y010813D01*
X036290Y010919D02*
X036290Y010603D01*
X036395Y010498D01*
X036711Y010498D01*
X036711Y010919D01*
X036935Y010919D02*
X037040Y010919D01*
X037145Y010813D01*
X037250Y010919D01*
X037355Y010813D01*
X037355Y010498D01*
X037145Y010498D02*
X037145Y010813D01*
X036935Y010919D02*
X036935Y010498D01*
X037579Y010498D02*
X037789Y010498D01*
X037684Y010498D02*
X037684Y011129D01*
X037579Y011129D01*
X038331Y010813D02*
X038436Y010919D01*
X038751Y010919D01*
X038646Y010708D02*
X038436Y010708D01*
X038331Y010813D01*
X038114Y010603D02*
X038009Y010603D01*
X038009Y010498D01*
X038114Y010498D01*
X038114Y010603D01*
X038331Y010498D02*
X038646Y010498D01*
X038751Y010603D01*
X038646Y010708D01*
X038976Y010708D02*
X039396Y010708D01*
X039396Y010813D01*
X039291Y010919D01*
X039081Y010919D01*
X038976Y010813D01*
X038976Y010603D01*
X039081Y010498D01*
X039291Y010498D01*
X039754Y009929D02*
X039754Y009299D01*
X039544Y009299D02*
X039965Y009299D01*
X039320Y009719D02*
X039110Y009299D01*
X038900Y009719D01*
X039544Y009719D02*
X039754Y009929D01*
X038224Y009719D02*
X037804Y009299D01*
X037585Y009299D02*
X037374Y009299D01*
X037479Y009299D02*
X037479Y009719D01*
X037374Y009719D01*
X037153Y009719D02*
X037047Y009719D01*
X036837Y009509D01*
X036837Y009299D02*
X036837Y009719D01*
X036618Y009719D02*
X036408Y009719D01*
X036513Y009824D02*
X036513Y009404D01*
X036618Y009299D01*
X036183Y009299D02*
X035868Y009299D01*
X035763Y009404D01*
X035868Y009509D01*
X036183Y009509D01*
X036183Y009614D02*
X036183Y009299D01*
X035539Y009299D02*
X035539Y009929D01*
X035329Y009719D01*
X035119Y009929D01*
X035119Y009299D01*
X034899Y009299D02*
X034794Y009404D01*
X034794Y009824D01*
X034689Y009719D02*
X034899Y009719D01*
X034465Y009614D02*
X034360Y009719D01*
X034149Y009719D01*
X034044Y009614D01*
X034044Y009404D01*
X034149Y009299D01*
X034360Y009299D01*
X034465Y009404D01*
X034465Y009614D01*
X033820Y009404D02*
X033820Y009824D01*
X033715Y009929D01*
X033400Y009929D01*
X033400Y009299D01*
X033715Y009299D01*
X033820Y009404D01*
X035868Y009719D02*
X036078Y009719D01*
X036183Y009614D01*
X037479Y009929D02*
X037479Y010034D01*
X037804Y009719D02*
X038224Y009299D01*
X036965Y007814D02*
X036965Y007198D01*
X036565Y007164D02*
X036515Y007114D01*
X036515Y004264D01*
X036415Y004164D01*
X035925Y004164D01*
X035215Y004164D02*
X034865Y004514D01*
X034865Y005764D01*
X035265Y006164D01*
X035925Y006164D01*
X035925Y006664D02*
X035115Y006664D01*
X034365Y007414D01*
X033015Y007414D01*
X032815Y007214D01*
X032815Y006864D01*
X032665Y006714D01*
X032665Y006464D01*
X032565Y006364D01*
X032374Y006364D01*
X032359Y006348D01*
X032371Y006164D02*
X032665Y006164D01*
X032815Y006314D01*
X032815Y006564D01*
X032965Y006714D01*
X032965Y006964D01*
X033165Y007164D01*
X033505Y007164D01*
X033505Y006664D02*
X033215Y006664D01*
X032965Y006414D01*
X032965Y006114D01*
X032815Y005964D01*
X032368Y005964D01*
X032359Y005954D01*
X032359Y006151D02*
X032371Y006164D01*
X032065Y006464D02*
X032065Y005814D01*
X032015Y005764D01*
X031865Y005764D01*
X031859Y005757D01*
X031768Y005757D01*
X032359Y005757D02*
X032365Y005764D01*
X032865Y005764D01*
X033265Y006164D01*
X033505Y006164D01*
X033505Y005664D02*
X033265Y005664D01*
X033165Y005564D01*
X032362Y005564D01*
X032359Y005561D01*
X032359Y005364D02*
X032965Y005364D01*
X033165Y005164D01*
X033505Y005164D01*
X033165Y004664D02*
X032665Y005164D01*
X032362Y005164D01*
X032359Y005167D01*
X032359Y004970D02*
X032365Y004964D01*
X032515Y004964D01*
X032965Y004514D01*
X032965Y004364D01*
X033165Y004164D01*
X033505Y004164D01*
X033505Y004664D02*
X033165Y004664D01*
X031768Y004970D02*
X031721Y004970D01*
X031665Y004964D01*
X031615Y004914D01*
X031615Y003964D01*
X031765Y003814D01*
X031765Y003564D01*
X031465Y003764D02*
X031415Y003714D01*
X031465Y003764D02*
X031465Y005064D01*
X031565Y005164D01*
X031665Y005164D01*
X031668Y005167D01*
X031768Y005167D01*
X035215Y005164D02*
X035925Y005164D01*
X035925Y004664D02*
X035215Y004664D01*
X035215Y005664D02*
X035925Y005664D01*
X040815Y005164D02*
X040815Y004814D01*
X041115Y004514D01*
X041115Y004214D01*
X041565Y003764D01*
X041565Y003214D01*
X041915Y003364D02*
X041915Y003614D01*
X041265Y004264D01*
X041265Y004564D01*
X040965Y004864D01*
X040965Y005114D01*
X041015Y005164D01*
X041165Y005164D01*
X041168Y005167D01*
X041268Y005167D01*
X041268Y004970D02*
X041359Y004970D01*
X041415Y004914D01*
X041415Y004314D01*
X042515Y003214D01*
X043565Y003214D01*
X043765Y003014D01*
X043765Y002801D01*
X043762Y002799D01*
X047615Y004664D02*
X048365Y003914D01*
X048365Y003314D01*
X048515Y003164D01*
X048815Y003164D01*
X048843Y003192D01*
X049140Y003192D01*
X049140Y003980D02*
X048849Y003980D01*
X048715Y004114D01*
X048615Y004114D01*
X047665Y005064D01*
X046565Y005064D01*
X046465Y005164D01*
X045425Y005164D01*
X044715Y005164D01*
X045425Y004664D02*
X047615Y004664D01*
X048415Y005614D02*
X048915Y005614D01*
X048974Y005554D01*
X049140Y005554D01*
X048415Y005614D02*
X048215Y005814D01*
X047165Y005814D01*
X047015Y005664D01*
X045425Y005664D01*
X044715Y005664D01*
X043005Y005664D02*
X042715Y005664D01*
X042615Y005564D01*
X041862Y005564D01*
X041859Y005561D01*
X041859Y005757D02*
X041865Y005764D01*
X042415Y005764D01*
X042815Y006164D01*
X043005Y006164D01*
X041315Y006364D02*
X041299Y006348D01*
X041268Y006348D01*
X041268Y005364D02*
X041015Y005364D01*
X040815Y005164D01*
X041859Y005167D02*
X041862Y005164D01*
X042265Y005164D01*
X042765Y004664D01*
X043005Y004664D01*
X042465Y004664D02*
X042465Y004414D01*
X042715Y004164D01*
X043005Y004164D01*
X042465Y004664D02*
X042165Y004964D01*
X041865Y004964D01*
X041859Y004970D01*
X042465Y005364D02*
X042665Y005164D01*
X043005Y005164D01*
X042465Y005364D02*
X041859Y005364D01*
X047365Y006314D02*
X048665Y006314D01*
X048693Y006342D01*
X049140Y006342D01*
X048815Y007114D02*
X047465Y007114D01*
X046465Y007164D02*
X046465Y007814D01*
X046465Y008064D01*
X047115Y008714D01*
X049130Y008714D01*
X049140Y008704D01*
X049140Y007917D02*
X048918Y007917D01*
X048915Y007914D01*
X047715Y007914D01*
X048815Y007114D02*
X048830Y007129D01*
X049140Y007129D01*
X049140Y009491D02*
X048887Y009491D01*
X048865Y009514D01*
X047065Y009514D01*
X047365Y010264D02*
X048765Y010264D01*
X048780Y010279D01*
X049140Y010279D01*
X047565Y011014D02*
X047515Y010964D01*
X047565Y011014D02*
X048715Y011014D01*
X048767Y011066D01*
X049140Y011066D01*
X047765Y011664D02*
X047565Y011464D01*
X047765Y011664D02*
X048565Y011664D01*
X048755Y011854D01*
X049140Y011854D01*
X047215Y011814D02*
X046815Y011414D01*
X044215Y012964D02*
X033965Y012964D01*
X033765Y012764D01*
X033565Y012764D01*
X033365Y012964D01*
X031715Y012964D01*
X031665Y012914D01*
X031515Y013064D01*
X022465Y013064D01*
X022365Y012964D01*
X021365Y012964D01*
X021165Y012764D01*
X020965Y012764D01*
X020765Y012964D01*
X020065Y012964D01*
X019915Y013114D01*
X011965Y013114D01*
X011415Y012564D01*
X010615Y012564D01*
X010515Y012264D02*
X010115Y012664D01*
X007865Y012664D01*
X007615Y012414D01*
X007315Y012414D01*
X007065Y012664D01*
X005865Y012664D01*
X005565Y012364D01*
X005365Y012364D01*
X005065Y012664D01*
X004365Y012664D01*
X003965Y012249D01*
X003967Y012247D01*
X004515Y011814D02*
X005665Y011814D01*
X005967Y012116D01*
X005967Y012247D01*
X005465Y012714D02*
X005415Y012714D01*
X005465Y012714D02*
X005565Y012814D01*
X007115Y012814D01*
X010515Y012264D02*
X011515Y012264D01*
X011915Y012664D01*
X016565Y012664D01*
X016565Y012663D01*
X016565Y012247D01*
X016015Y011814D02*
X015581Y012247D01*
X015565Y012247D01*
X016015Y011814D02*
X018865Y011814D01*
X021315Y009364D01*
X021315Y008414D01*
X023365Y006364D01*
X023165Y006364D01*
X023181Y006348D01*
X023268Y006348D01*
X023268Y006151D02*
X023177Y006151D01*
X023165Y006164D01*
X023065Y006164D01*
X021165Y008064D01*
X021165Y009314D01*
X019015Y011464D01*
X018765Y011464D01*
X018265Y010814D02*
X017965Y011114D01*
X017665Y011114D01*
X017165Y010614D01*
X014115Y010614D01*
X013965Y010464D01*
X013965Y005364D01*
X013115Y004514D01*
X012065Y004514D01*
X010915Y005664D01*
X008175Y005664D01*
X007465Y005664D01*
X007465Y006164D02*
X008175Y006164D01*
X007115Y006214D02*
X006765Y006564D01*
X007115Y006214D02*
X007115Y004514D01*
X007465Y004164D01*
X008175Y004164D01*
X008665Y003664D02*
X008915Y003914D01*
X008665Y003664D02*
X008175Y003664D01*
X009315Y004714D02*
X009965Y004064D01*
X019065Y004064D01*
X019835Y004834D01*
X019835Y004931D01*
X019335Y004931D02*
X019315Y004911D01*
X019315Y004564D01*
X018965Y004214D01*
X010015Y004214D01*
X009065Y005164D01*
X008175Y005164D01*
X007465Y005164D01*
X007465Y004664D02*
X008175Y004664D01*
X008225Y004714D01*
X009315Y004714D01*
X005755Y004664D02*
X005465Y004664D01*
X005215Y004914D01*
X005215Y005114D01*
X005165Y005164D01*
X004612Y005164D01*
X004609Y005167D01*
X004609Y004970D02*
X004615Y004964D01*
X004915Y004964D01*
X005215Y004664D01*
X005215Y004414D01*
X005465Y004164D01*
X005755Y004164D01*
X004815Y003214D02*
X004115Y003914D01*
X004115Y004970D01*
X004018Y004970D01*
X004018Y005167D02*
X003918Y005167D01*
X003915Y005164D01*
X003815Y005164D01*
X003715Y005064D01*
X003715Y004864D01*
X003965Y004614D01*
X003965Y003614D01*
X004365Y003214D01*
X004815Y003214D02*
X005552Y003214D01*
X005967Y002799D01*
X005315Y002414D02*
X004965Y002764D01*
X004967Y002766D01*
X004967Y002799D01*
X005315Y002414D02*
X007115Y002414D01*
X007315Y002614D01*
X007615Y002614D01*
X007815Y002414D01*
X008115Y002414D01*
X008315Y002614D01*
X008615Y002614D01*
X008815Y002414D01*
X008765Y002264D02*
X008565Y002464D01*
X008365Y002464D01*
X008165Y002264D01*
X007465Y002264D01*
X003967Y002799D02*
X003967Y002912D01*
X003915Y002964D01*
X003915Y003464D01*
X003815Y003564D01*
X003815Y004564D01*
X003565Y004814D01*
X005265Y005364D02*
X005465Y005164D01*
X005755Y005164D01*
X005265Y005364D02*
X004609Y005364D01*
X004609Y005561D02*
X004612Y005564D01*
X005365Y005564D01*
X005465Y005664D01*
X005755Y005664D01*
X005515Y006164D02*
X005115Y005764D01*
X004615Y005764D01*
X004609Y005757D01*
X004315Y005814D02*
X004315Y011614D01*
X004515Y011814D01*
X002515Y011064D02*
X001815Y011064D01*
X001812Y011066D01*
X001305Y011066D01*
X001305Y010279D02*
X001580Y010279D01*
X001615Y010314D01*
X002515Y010314D01*
X002965Y009514D02*
X001715Y009514D01*
X001693Y009491D01*
X001305Y009491D01*
X002965Y009514D02*
X003215Y009264D01*
X002265Y008714D02*
X001315Y008714D01*
X001305Y008704D01*
X002265Y008714D02*
X003365Y007614D01*
X002215Y007964D02*
X001365Y007964D01*
X001315Y007914D01*
X001312Y007917D01*
X001305Y007917D01*
X001305Y007129D02*
X001680Y007129D01*
X001765Y007214D01*
X002265Y007214D01*
X002665Y006664D02*
X002365Y006364D01*
X001865Y006364D01*
X001843Y006342D01*
X001305Y006342D01*
X001305Y005554D02*
X001706Y005554D01*
X001715Y005564D01*
X002165Y005564D01*
X002215Y005514D01*
X004018Y005757D02*
X004109Y005757D01*
X004115Y005764D01*
X004265Y005764D01*
X004315Y005814D01*
X005515Y006164D02*
X005755Y006164D01*
X004115Y006364D02*
X004099Y006348D01*
X004018Y006348D01*
X002215Y004014D02*
X001615Y004014D01*
X001581Y003980D01*
X001305Y003980D01*
X015565Y003014D02*
X015565Y002799D01*
X015565Y002799D01*
X015565Y003014D02*
X016065Y003514D01*
X021015Y003514D01*
X021615Y004114D01*
X022365Y004114D01*
X022665Y004414D01*
X022665Y005564D01*
X023065Y005964D01*
X023165Y005964D01*
X023174Y005954D01*
X023268Y005954D01*
X023515Y005764D02*
X023565Y005814D01*
X023565Y006464D01*
X021465Y008564D01*
X022965Y008264D02*
X022965Y007914D01*
X023265Y007664D01*
X024865Y008164D02*
X024915Y008114D01*
X025005Y006664D02*
X024765Y006664D01*
X024465Y006364D01*
X024465Y006114D01*
X024315Y005964D01*
X023868Y005964D01*
X023859Y005954D01*
X024365Y005764D02*
X024765Y006164D01*
X025005Y006164D01*
X025005Y005664D02*
X024865Y005664D01*
X024765Y005564D01*
X023862Y005564D01*
X023859Y005561D01*
X023859Y005757D02*
X023865Y005764D01*
X024365Y005764D01*
X023565Y005514D02*
X023565Y004014D01*
X022565Y003014D01*
X022565Y002799D01*
X022565Y002799D01*
X022515Y003214D02*
X018765Y003214D01*
X018565Y003014D01*
X018565Y002799D01*
X018565Y002799D01*
X016915Y003364D02*
X016565Y003014D01*
X016565Y002799D01*
X016565Y002799D01*
X016915Y003364D02*
X021115Y003364D01*
X021715Y003964D01*
X022465Y003964D01*
X022815Y004314D01*
X022815Y005164D01*
X023015Y005364D01*
X023268Y005364D01*
X023268Y005561D02*
X023362Y005561D01*
X023365Y005564D01*
X023515Y005564D01*
X023565Y005514D01*
X023515Y005764D02*
X023365Y005764D01*
X023359Y005757D01*
X023268Y005757D01*
X023859Y005364D02*
X024565Y005364D01*
X024765Y005164D01*
X025005Y005164D01*
X024465Y005064D02*
X024465Y004864D01*
X024665Y004664D01*
X025005Y004664D01*
X024715Y004164D02*
X024315Y004564D01*
X024315Y004864D01*
X024215Y004964D01*
X023865Y004964D01*
X023859Y004970D01*
X023862Y005164D02*
X023859Y005167D01*
X023862Y005164D02*
X024365Y005164D01*
X024465Y005064D01*
X023268Y004970D02*
X023171Y004970D01*
X023165Y004964D01*
X023165Y003864D01*
X022515Y003214D01*
X022415Y003664D02*
X021865Y003664D01*
X021815Y003614D01*
X022415Y003664D02*
X022965Y004214D01*
X022965Y005064D01*
X023065Y005164D01*
X023165Y005164D01*
X023168Y005167D01*
X023268Y005167D01*
X024715Y004164D02*
X025005Y004164D01*
X027425Y003664D02*
X027815Y003664D01*
X027425Y005164D02*
X026715Y005164D01*
X026715Y005664D02*
X027425Y005664D01*
X035925Y003664D02*
X036715Y003664D01*
X018835Y004931D02*
X018835Y004994D01*
X018715Y005114D01*
X018715Y005214D01*
X017865Y006064D01*
X016365Y004961D02*
X016335Y004931D01*
X016365Y004961D02*
X016365Y008614D01*
X016315Y009664D02*
X016265Y009714D01*
X016265Y010014D01*
X016335Y010084D01*
X016335Y010231D01*
X016835Y010231D02*
X016835Y010034D01*
X016815Y010014D01*
X016815Y009664D01*
X017315Y009664D02*
X017315Y010014D01*
X017335Y010034D01*
X017335Y010231D01*
X017835Y010231D02*
X017835Y010444D01*
X017815Y010464D01*
X017815Y010764D01*
X018265Y010814D02*
X018265Y010414D01*
X018335Y010344D01*
X018335Y010231D01*
X018835Y010231D02*
X018835Y010194D01*
X018965Y010064D01*
X019202Y010064D01*
X019352Y009914D01*
X015835Y010034D02*
X015835Y010231D01*
X015335Y010231D02*
X015335Y010034D01*
X015315Y010014D01*
X015315Y009664D01*
X015815Y009664D02*
X015815Y010014D01*
X015835Y010034D01*
X013335Y010184D02*
X013215Y010064D01*
X013165Y010064D01*
X012615Y009514D01*
X010765Y009514D01*
X010215Y010064D01*
X008165Y010064D01*
X007915Y010314D01*
X007865Y010314D01*
X007365Y009864D02*
X007465Y009764D01*
X008549Y009764D01*
X008615Y009698D01*
X008630Y009698D01*
X012215Y010414D02*
X012335Y010294D01*
X012335Y010231D01*
X012215Y010414D02*
X012215Y011064D01*
X012065Y011214D01*
X012065Y011264D01*
X011915Y011414D01*
X012749Y011529D02*
X012765Y011514D01*
X013715Y011514D02*
X013715Y011529D01*
X013335Y010231D02*
X013335Y010184D01*
X019615Y012064D02*
X019615Y012198D01*
X019565Y012247D01*
X019615Y012064D02*
X019815Y011864D01*
X022815Y011864D01*
X023065Y012114D01*
X023415Y012114D01*
X024865Y012664D02*
X024965Y012764D01*
X029165Y012764D01*
X018165Y012414D02*
X017965Y012414D01*
X017715Y012664D01*
X016565Y012664D01*
D12*
X016335Y010231D03*
X016835Y010231D03*
X017335Y010231D03*
X017835Y010231D03*
X018335Y010231D03*
X018835Y010231D03*
X015835Y010231D03*
X015335Y010231D03*
X014835Y010231D03*
X014335Y010231D03*
X013335Y010231D03*
X012335Y010231D03*
X011335Y010231D03*
X012335Y004931D03*
X012835Y004931D03*
X016335Y004931D03*
X016835Y004931D03*
X017335Y004931D03*
X017835Y004931D03*
X018335Y004931D03*
X018835Y004931D03*
X019335Y004931D03*
X019835Y004931D03*
D13*
X019485Y006154D03*
X018485Y006154D03*
X018485Y007154D03*
X019485Y007154D03*
X019485Y008154D03*
X018485Y008154D03*
D14*
X008615Y009029D03*
X008615Y009698D03*
D15*
X007365Y009864D03*
X006365Y009864D03*
X006865Y008864D03*
X005865Y008864D03*
D16*
X009967Y002799D03*
X022565Y002799D03*
X035164Y002799D03*
X047762Y002799D03*
D17*
X046762Y002799D03*
X045762Y002799D03*
X044762Y002799D03*
X043762Y002799D03*
X042762Y002799D03*
X041762Y002799D03*
X040762Y002799D03*
X034164Y002799D03*
X033164Y002799D03*
X032164Y002799D03*
X031164Y002799D03*
X030164Y002799D03*
X029164Y002799D03*
X028164Y002799D03*
X021565Y002799D03*
X020565Y002799D03*
X019565Y002799D03*
X018565Y002799D03*
X017565Y002799D03*
X016565Y002799D03*
X015565Y002799D03*
X008967Y002799D03*
X007967Y002799D03*
X006967Y002799D03*
X005967Y002799D03*
X004967Y002799D03*
X003967Y002799D03*
X002967Y002799D03*
X002967Y012247D03*
X003967Y012247D03*
X004967Y012247D03*
X005967Y012247D03*
X006967Y012247D03*
X007967Y012247D03*
X008967Y012247D03*
X009967Y012247D03*
X015565Y012247D03*
X016565Y012247D03*
X017565Y012247D03*
X018565Y012247D03*
X019565Y012247D03*
X020565Y012247D03*
X021565Y012247D03*
X022565Y012247D03*
X028164Y012247D03*
X029164Y012247D03*
X030164Y012247D03*
X031164Y012247D03*
X032164Y012247D03*
X033164Y012247D03*
X034164Y012247D03*
X035164Y012247D03*
X040762Y012247D03*
X041762Y012247D03*
X042762Y012247D03*
X043762Y012247D03*
X044762Y012247D03*
X045762Y012247D03*
X046762Y012247D03*
X047762Y012247D03*
D18*
X041859Y006348D03*
X041859Y006151D03*
X041859Y005954D03*
X041268Y005954D03*
X041268Y006151D03*
X041268Y006348D03*
X041268Y005757D03*
X041268Y005561D03*
X041268Y005364D03*
X041859Y005364D03*
X041859Y005561D03*
X041859Y005757D03*
X041859Y005167D03*
X041859Y004970D03*
X041268Y004970D03*
X041268Y005167D03*
X032359Y005167D03*
X032359Y004970D03*
X031768Y004970D03*
X031768Y005167D03*
X031768Y005364D03*
X031768Y005561D03*
X031768Y005757D03*
X032359Y005757D03*
X032359Y005561D03*
X032359Y005364D03*
X032359Y005954D03*
X032359Y006151D03*
X032359Y006348D03*
X031768Y006348D03*
X031768Y006151D03*
X031768Y005954D03*
X023859Y005954D03*
X023859Y006151D03*
X023859Y006348D03*
X023268Y006348D03*
X023268Y006151D03*
X023268Y005954D03*
X023268Y005757D03*
X023268Y005561D03*
X023268Y005364D03*
X023859Y005364D03*
X023859Y005561D03*
X023859Y005757D03*
X023859Y005167D03*
X023859Y004970D03*
X023268Y004970D03*
X023268Y005167D03*
X004609Y005167D03*
X004609Y004970D03*
X004018Y004970D03*
X004018Y005167D03*
X004018Y005364D03*
X004018Y005561D03*
X004018Y005757D03*
X004018Y005954D03*
X004018Y006151D03*
X004018Y006348D03*
X004609Y006348D03*
X004609Y006151D03*
X004609Y005954D03*
X004609Y005757D03*
X004609Y005561D03*
X004609Y005364D03*
D19*
X001305Y005554D03*
X001305Y004767D03*
X001305Y003980D03*
X001305Y003192D03*
X001305Y002405D03*
X001305Y006342D03*
X001305Y007129D03*
X001305Y007917D03*
X001305Y008704D03*
X001305Y009491D03*
X001305Y010279D03*
X001305Y011066D03*
X001305Y011854D03*
X001305Y012641D03*
X049140Y012641D03*
X049140Y011854D03*
X049140Y011066D03*
X049140Y010279D03*
X049140Y009491D03*
X049140Y008704D03*
X049140Y007917D03*
X049140Y007129D03*
X049140Y006342D03*
X049140Y005554D03*
X049140Y004767D03*
X049140Y003980D03*
X049140Y003192D03*
X049140Y002405D03*
D20*
X027415Y008114D03*
X026915Y008114D03*
X026415Y008114D03*
X025915Y008114D03*
X025415Y008114D03*
X024915Y008114D03*
X024415Y008114D03*
X023915Y008114D03*
X023415Y008114D03*
X023415Y012114D03*
X023915Y012114D03*
X024415Y012114D03*
X024915Y012114D03*
X025415Y012114D03*
X025915Y012114D03*
X026415Y012114D03*
X026915Y012114D03*
X027415Y012114D03*
D21*
X027425Y007164D03*
X027425Y006664D03*
X027425Y006164D03*
X027425Y005664D03*
X027425Y005164D03*
X027425Y004664D03*
X027425Y004164D03*
X027425Y003664D03*
X025005Y003664D03*
X025005Y004164D03*
X025005Y004664D03*
X025005Y005164D03*
X025005Y005664D03*
X025005Y006164D03*
X025005Y006664D03*
X025005Y007164D03*
X033505Y007164D03*
X033505Y006664D03*
X033505Y006164D03*
X033505Y005664D03*
X033505Y005164D03*
X033505Y004664D03*
X033505Y004164D03*
X033505Y003664D03*
X035925Y003664D03*
X035925Y004164D03*
X035925Y004664D03*
X035925Y005164D03*
X035925Y005664D03*
X035925Y006164D03*
X035925Y006664D03*
X035925Y007164D03*
X043005Y007164D03*
X043005Y006664D03*
X043005Y006164D03*
X043005Y005664D03*
X043005Y005164D03*
X043005Y004664D03*
X043005Y004164D03*
X043005Y003664D03*
X045425Y003664D03*
X045425Y004164D03*
X045425Y004664D03*
X045425Y005164D03*
X045425Y005664D03*
X045425Y006164D03*
X045425Y006664D03*
X045425Y007164D03*
X008175Y007164D03*
X008175Y006664D03*
X008175Y006164D03*
X008175Y005664D03*
X008175Y005164D03*
X008175Y004664D03*
X008175Y004164D03*
X008175Y003664D03*
X005755Y003664D03*
X005755Y004164D03*
X005755Y004664D03*
X005755Y005164D03*
X005755Y005664D03*
X005755Y006164D03*
X005755Y006664D03*
X005755Y007164D03*
D22*
X009215Y007198D03*
X009215Y006529D03*
X028465Y006529D03*
X028465Y007198D03*
X036965Y007198D03*
X036965Y006529D03*
X046465Y006529D03*
X046465Y007198D03*
D23*
X013715Y011529D03*
X012815Y011529D03*
X012815Y012198D03*
X013715Y012198D03*
D24*
X009865Y011264D03*
X008865Y011264D03*
X007865Y011264D03*
D25*
X010715Y011414D03*
X011315Y011414D03*
X011915Y011414D03*
D26*
X012430Y011108D02*
X012445Y011093D01*
X013185Y011093D01*
X013265Y011173D01*
X013345Y011093D01*
X013550Y011093D01*
X013550Y010647D01*
X013063Y010647D01*
X012958Y010542D01*
X012958Y010161D01*
X012526Y009729D01*
X010854Y009729D01*
X010430Y010153D01*
X010304Y010279D01*
X008254Y010279D01*
X008130Y010403D01*
X008080Y010453D01*
X008080Y010779D01*
X008165Y010814D01*
X008314Y010964D01*
X008377Y011115D01*
X008392Y011068D01*
X008429Y010996D01*
X008476Y010932D01*
X008533Y010875D01*
X008597Y010828D01*
X008669Y010791D01*
X008745Y010766D01*
X008825Y010754D01*
X008826Y010754D01*
X008826Y011225D01*
X008903Y011225D01*
X008903Y010754D01*
X008905Y010754D01*
X008984Y010766D01*
X009061Y010791D01*
X009132Y010828D01*
X009197Y010875D01*
X009254Y010932D01*
X009301Y010996D01*
X009337Y011068D01*
X009353Y011115D01*
X009415Y010964D01*
X009565Y010814D01*
X009759Y010734D01*
X009970Y010734D01*
X010165Y010814D01*
X010314Y010964D01*
X010329Y011000D01*
X010410Y010919D01*
X011019Y010919D01*
X011619Y010919D01*
X012000Y010919D01*
X012000Y010584D01*
X011958Y010542D01*
X011958Y009920D01*
X012063Y009815D01*
X012606Y009815D01*
X012712Y009920D01*
X012712Y010542D01*
X012606Y010647D01*
X012430Y010647D01*
X012430Y011108D01*
X012430Y011010D02*
X013550Y011010D01*
X013550Y010892D02*
X012430Y010892D01*
X012430Y010773D02*
X013550Y010773D01*
X013550Y010655D02*
X012430Y010655D01*
X012712Y010536D02*
X012958Y010536D01*
X012958Y010417D02*
X012712Y010417D01*
X012712Y010299D02*
X012958Y010299D01*
X012958Y010180D02*
X012712Y010180D01*
X012712Y010062D02*
X012859Y010062D01*
X012740Y009943D02*
X012712Y009943D01*
X012622Y009825D02*
X012616Y009825D01*
X013111Y009706D02*
X013550Y009706D01*
X013550Y009815D02*
X013550Y008403D01*
X013300Y008153D01*
X013300Y008034D01*
X013194Y007928D01*
X012455Y007928D01*
X012554Y007829D02*
X011084Y009299D01*
X012704Y009299D01*
X012830Y009425D01*
X013220Y009815D01*
X013550Y009815D01*
X014180Y009815D02*
X014606Y009815D01*
X014968Y009815D01*
X014936Y009739D01*
X014936Y009588D01*
X014994Y009449D01*
X015100Y009343D01*
X015239Y009285D01*
X015390Y009285D01*
X015529Y009343D01*
X015565Y009379D01*
X015600Y009343D01*
X015739Y009285D01*
X015890Y009285D01*
X016029Y009343D01*
X016065Y009379D01*
X016100Y009343D01*
X016239Y009285D01*
X016390Y009285D01*
X016529Y009343D01*
X016565Y009379D01*
X016600Y009343D01*
X016739Y009285D01*
X016890Y009285D01*
X017029Y009343D01*
X017065Y009379D01*
X017100Y009343D01*
X017239Y009285D01*
X017390Y009285D01*
X017529Y009343D01*
X017636Y009449D01*
X017693Y009588D01*
X019151Y009588D01*
X019138Y009593D02*
X019277Y009535D01*
X019428Y009535D01*
X019567Y009593D01*
X019673Y009699D01*
X019731Y009838D01*
X019731Y009989D01*
X019673Y010128D01*
X019567Y010235D01*
X019428Y010292D01*
X019277Y010292D01*
X019245Y010279D01*
X019212Y010279D01*
X019212Y010542D01*
X019106Y010647D01*
X018606Y010647D01*
X018480Y010647D01*
X018480Y010725D01*
X018480Y010903D01*
X018180Y011203D01*
X018054Y011329D01*
X017576Y011329D01*
X017450Y011203D01*
X017076Y010829D01*
X014204Y010829D01*
X014026Y010829D01*
X013980Y010783D01*
X013980Y011093D01*
X014085Y011093D01*
X014190Y011199D01*
X014190Y011860D01*
X014161Y011888D01*
X014170Y011921D01*
X014170Y012138D01*
X013775Y012138D01*
X013775Y012258D01*
X014170Y012258D01*
X014170Y012449D01*
X015175Y012449D01*
X015128Y012334D01*
X015128Y012160D01*
X015194Y012000D01*
X015317Y011877D01*
X015478Y011810D01*
X015652Y011810D01*
X015696Y011828D01*
X015926Y011599D01*
X016104Y011599D01*
X018411Y011599D01*
X018386Y011539D01*
X018386Y011388D01*
X018444Y011249D01*
X018550Y011143D01*
X018689Y011085D01*
X018840Y011085D01*
X018979Y011143D01*
X019005Y011169D01*
X020950Y009225D01*
X020950Y007975D01*
X021076Y007849D01*
X022861Y006064D01*
X022576Y005779D01*
X022450Y005653D01*
X022450Y004503D01*
X022276Y004329D01*
X021704Y004329D01*
X021526Y004329D01*
X020926Y003729D01*
X016154Y003729D01*
X015976Y003729D01*
X015483Y003236D01*
X015478Y003236D01*
X015317Y003169D01*
X015194Y003046D01*
X015128Y002886D01*
X015128Y002712D01*
X010404Y002712D01*
X010404Y002629D02*
X010404Y003131D01*
X010299Y003236D01*
X009997Y003236D01*
X009654Y003579D01*
X009476Y003579D01*
X009095Y003579D01*
X009129Y003593D01*
X009236Y003699D01*
X009293Y003838D01*
X009293Y003989D01*
X009236Y004128D01*
X009129Y004235D01*
X008990Y004292D01*
X008839Y004292D01*
X008755Y004257D01*
X008755Y004368D01*
X008709Y004414D01*
X008755Y004459D01*
X008755Y004499D01*
X009226Y004499D01*
X009876Y003849D01*
X010054Y003849D01*
X019154Y003849D01*
X019280Y003975D01*
X019820Y004515D01*
X020106Y004515D01*
X020212Y004620D01*
X020212Y005242D01*
X020106Y005347D01*
X019606Y005347D01*
X019106Y005347D01*
X018885Y005347D01*
X018477Y005756D01*
X018564Y005756D01*
X018710Y005816D01*
X018822Y005928D01*
X018883Y006075D01*
X018883Y006233D01*
X018822Y006379D01*
X018710Y006491D01*
X018564Y006552D01*
X018406Y006552D01*
X018259Y006491D01*
X018147Y006379D01*
X018129Y006335D01*
X018079Y006385D01*
X017940Y006442D01*
X017789Y006442D01*
X017650Y006385D01*
X017544Y006278D01*
X017486Y006139D01*
X017486Y005988D01*
X017544Y005849D01*
X017650Y005743D01*
X017789Y005685D01*
X017939Y005685D01*
X018277Y005347D01*
X018106Y005347D01*
X017606Y005347D01*
X017106Y005347D01*
X016606Y005347D01*
X016580Y005347D01*
X016580Y008294D01*
X016686Y008399D01*
X016743Y008538D01*
X016743Y008689D01*
X016686Y008828D01*
X016579Y008935D01*
X016440Y008992D01*
X016289Y008992D01*
X016150Y008935D01*
X016044Y008828D01*
X015986Y008689D01*
X015986Y008538D01*
X016044Y008399D01*
X016150Y008294D01*
X016150Y005347D01*
X016063Y005347D01*
X015958Y005242D01*
X015958Y004620D01*
X016063Y004515D01*
X016606Y004515D01*
X017106Y004515D01*
X017606Y004515D01*
X018106Y004515D01*
X018606Y004515D01*
X018962Y004515D01*
X018876Y004429D01*
X013334Y004429D01*
X014054Y005149D01*
X014180Y005275D01*
X014180Y009815D01*
X014180Y009706D02*
X014936Y009706D01*
X014937Y009588D02*
X014180Y009588D01*
X014180Y009469D02*
X014986Y009469D01*
X015093Y009351D02*
X014180Y009351D01*
X014180Y009232D02*
X020942Y009232D01*
X020950Y009113D02*
X014180Y009113D01*
X014180Y008995D02*
X020950Y008995D01*
X020950Y008876D02*
X016637Y008876D01*
X016715Y008758D02*
X020950Y008758D01*
X020950Y008639D02*
X016743Y008639D01*
X016736Y008521D02*
X018331Y008521D01*
X018259Y008491D02*
X018406Y008552D01*
X018564Y008552D01*
X018710Y008491D01*
X018822Y008379D01*
X018883Y008233D01*
X018883Y008075D01*
X018822Y007928D01*
X019148Y007928D01*
X019147Y007928D02*
X019259Y007816D01*
X019406Y007756D01*
X019564Y007756D01*
X019710Y007816D01*
X019822Y007928D01*
X020996Y007928D01*
X020950Y008047D02*
X019871Y008047D01*
X019883Y008075D02*
X019822Y007928D01*
X019883Y008075D02*
X019883Y008233D01*
X019822Y008379D01*
X019710Y008491D01*
X019564Y008552D01*
X019406Y008552D01*
X019259Y008491D01*
X019147Y008379D01*
X019087Y008233D01*
X019087Y008075D01*
X019147Y007928D01*
X019098Y008047D02*
X018871Y008047D01*
X018883Y008165D02*
X019087Y008165D01*
X019108Y008284D02*
X018862Y008284D01*
X018799Y008402D02*
X019170Y008402D01*
X019331Y008521D02*
X018639Y008521D01*
X018259Y008491D02*
X018147Y008379D01*
X018087Y008233D01*
X018087Y008075D01*
X018147Y007928D01*
X018259Y007816D01*
X018406Y007756D01*
X018564Y007756D01*
X018710Y007816D01*
X018822Y007928D01*
X018694Y007809D02*
X019276Y007809D01*
X019694Y007809D02*
X021115Y007809D01*
X021234Y007691D02*
X016580Y007691D01*
X016580Y007809D02*
X018276Y007809D01*
X018148Y007928D02*
X016580Y007928D01*
X016580Y008047D02*
X018098Y008047D01*
X018087Y008165D02*
X016580Y008165D01*
X016580Y008284D02*
X018108Y008284D01*
X018170Y008402D02*
X016687Y008402D01*
X016150Y008284D02*
X014180Y008284D01*
X014180Y008402D02*
X016043Y008402D01*
X015994Y008521D02*
X014180Y008521D01*
X014180Y008639D02*
X015986Y008639D01*
X016015Y008758D02*
X014180Y008758D01*
X014180Y008876D02*
X016092Y008876D01*
X016093Y009351D02*
X016037Y009351D01*
X015593Y009351D02*
X015537Y009351D01*
X016537Y009351D02*
X016593Y009351D01*
X017037Y009351D02*
X017093Y009351D01*
X017537Y009351D02*
X020824Y009351D01*
X020705Y009469D02*
X017644Y009469D01*
X017693Y009588D02*
X017693Y009739D01*
X017662Y009815D01*
X018106Y009815D01*
X018606Y009815D01*
X018984Y009815D01*
X019031Y009699D01*
X019138Y009593D01*
X019029Y009706D02*
X017693Y009706D01*
X019212Y010299D02*
X019876Y010299D01*
X019994Y010180D02*
X019621Y010180D01*
X019701Y010062D02*
X020113Y010062D01*
X020231Y009943D02*
X019731Y009943D01*
X019725Y009825D02*
X020350Y009825D01*
X020468Y009706D02*
X019676Y009706D01*
X019554Y009588D02*
X020587Y009588D01*
X021358Y009825D02*
X024947Y009825D01*
X024989Y009842D02*
X024850Y009785D01*
X024744Y009678D01*
X024686Y009539D01*
X024686Y009388D01*
X024736Y009270D01*
X024650Y009235D01*
X024544Y009128D01*
X024518Y009065D01*
X024493Y009089D01*
X024493Y009239D01*
X024436Y009378D01*
X024329Y009485D01*
X024190Y009542D01*
X024039Y009542D01*
X023900Y009485D01*
X023794Y009378D01*
X023736Y009239D01*
X023736Y009120D01*
X023650Y009085D01*
X023544Y008978D01*
X023536Y008958D01*
X023486Y009078D01*
X023379Y009185D01*
X023240Y009242D01*
X023089Y009242D01*
X022950Y009185D01*
X022844Y009078D01*
X022786Y008939D01*
X022786Y008788D01*
X022844Y008649D01*
X022862Y008631D01*
X022750Y008585D01*
X022644Y008478D01*
X022586Y008339D01*
X022586Y008188D01*
X022644Y008049D01*
X022746Y007948D01*
X022750Y007904D01*
X022750Y007825D01*
X022758Y007817D01*
X022759Y007806D01*
X022820Y007755D01*
X022876Y007699D01*
X022887Y007699D01*
X023120Y007505D01*
X023176Y007449D01*
X023187Y007449D01*
X023196Y007442D01*
X023274Y007449D01*
X024250Y007449D01*
X024250Y007275D01*
X024250Y007203D01*
X024100Y007053D01*
X024100Y006875D01*
X024100Y006853D01*
X023838Y006591D01*
X023742Y006591D01*
X021680Y008653D01*
X021680Y009325D01*
X021680Y009503D01*
X019003Y012180D01*
X019003Y012334D01*
X018955Y012449D01*
X019175Y012449D01*
X019128Y012334D01*
X019128Y012160D01*
X019194Y012000D01*
X019317Y011877D01*
X019478Y011810D01*
X019565Y011810D01*
X019726Y011649D01*
X019904Y011649D01*
X022904Y011649D01*
X023030Y011775D01*
X023117Y011862D01*
X023117Y011724D01*
X023222Y011619D01*
X023607Y011619D01*
X023665Y011676D01*
X023722Y011619D01*
X023906Y011619D01*
X024200Y011325D01*
X024326Y011199D01*
X025326Y011199D01*
X028349Y008175D01*
X028250Y008135D01*
X028144Y008028D01*
X028086Y007889D01*
X028086Y007738D01*
X028144Y007599D01*
X028181Y007563D01*
X028088Y007470D01*
X028088Y007414D01*
X027965Y007414D01*
X027959Y007414D01*
X027899Y007474D01*
X026950Y007474D01*
X026845Y007368D01*
X026845Y006959D01*
X026890Y006914D01*
X026855Y006879D01*
X026604Y006879D01*
X026034Y007449D01*
X026854Y007449D01*
X026980Y007575D01*
X027024Y007619D01*
X027107Y007619D01*
X027179Y007690D01*
X027198Y007671D01*
X027235Y007650D01*
X027276Y007639D01*
X027415Y007639D01*
X027554Y007639D01*
X027595Y007650D01*
X027631Y007671D01*
X027661Y007701D01*
X027682Y007737D01*
X027693Y007778D01*
X027693Y008114D01*
X027693Y008450D01*
X027682Y008490D01*
X027661Y008527D01*
X027631Y008557D01*
X027595Y008578D01*
X027554Y008589D01*
X027415Y008589D01*
X027415Y008114D01*
X027415Y008114D01*
X027693Y008114D01*
X027415Y008114D01*
X027415Y008114D01*
X027415Y008589D01*
X027276Y008589D01*
X027235Y008578D01*
X027198Y008557D01*
X027179Y008537D01*
X027107Y008609D01*
X026722Y008609D01*
X026665Y008551D01*
X026630Y008586D01*
X026630Y009553D01*
X026504Y009679D01*
X026243Y009939D01*
X026243Y010089D01*
X026186Y010228D01*
X026079Y010335D01*
X025940Y010392D01*
X025789Y010392D01*
X025650Y010335D01*
X025544Y010228D01*
X025486Y010089D01*
X025486Y009938D01*
X025544Y009799D01*
X025650Y009693D01*
X025692Y009676D01*
X025594Y009578D01*
X025536Y009439D01*
X025536Y009296D01*
X025454Y009379D01*
X025443Y009389D01*
X025443Y009539D01*
X025386Y009678D01*
X025279Y009785D01*
X025140Y009842D01*
X024989Y009842D01*
X025182Y009825D02*
X025533Y009825D01*
X025486Y009943D02*
X021239Y009943D01*
X021121Y010062D02*
X025486Y010062D01*
X025524Y010180D02*
X021002Y010180D01*
X020884Y010299D02*
X025615Y010299D01*
X026115Y010299D02*
X026226Y010299D01*
X026205Y010180D02*
X026344Y010180D01*
X026243Y010062D02*
X026463Y010062D01*
X026581Y009943D02*
X026243Y009943D01*
X026358Y009825D02*
X026700Y009825D01*
X026818Y009706D02*
X026476Y009706D01*
X026595Y009588D02*
X026937Y009588D01*
X027055Y009469D02*
X026630Y009469D01*
X026630Y009351D02*
X027174Y009351D01*
X027292Y009232D02*
X026630Y009232D01*
X026630Y009113D02*
X027411Y009113D01*
X027530Y008995D02*
X026630Y008995D01*
X026630Y008876D02*
X027648Y008876D01*
X027767Y008758D02*
X026630Y008758D01*
X026630Y008639D02*
X027885Y008639D01*
X028004Y008521D02*
X027665Y008521D01*
X027693Y008402D02*
X028122Y008402D01*
X028241Y008284D02*
X027693Y008284D01*
X027693Y008165D02*
X028324Y008165D01*
X028162Y008047D02*
X027693Y008047D01*
X027693Y007928D02*
X028103Y007928D01*
X028086Y007809D02*
X027693Y007809D01*
X027651Y007691D02*
X028106Y007691D01*
X028171Y007572D02*
X026977Y007572D01*
X026930Y007454D02*
X026859Y007454D01*
X026845Y007335D02*
X026147Y007335D01*
X026266Y007217D02*
X026845Y007217D01*
X026845Y007098D02*
X026384Y007098D01*
X026503Y006980D02*
X026845Y006980D01*
X026013Y006861D02*
X025585Y006861D01*
X025585Y006868D02*
X025539Y006914D01*
X025585Y006959D01*
X025585Y007249D01*
X025626Y007249D01*
X026300Y006575D01*
X026426Y006449D01*
X026855Y006449D01*
X026890Y006414D01*
X026855Y006379D01*
X026854Y006379D01*
X026676Y006379D01*
X026276Y005979D01*
X026150Y005853D01*
X026150Y004603D01*
X026150Y004425D01*
X026336Y004238D01*
X026336Y004088D01*
X026394Y003949D01*
X026500Y003843D01*
X026639Y003785D01*
X026790Y003785D01*
X026845Y003808D01*
X026845Y003459D01*
X026950Y003354D01*
X027651Y003354D01*
X027410Y003113D01*
X027340Y003142D01*
X027189Y003142D01*
X027050Y003085D01*
X026944Y002978D01*
X026886Y002839D01*
X026886Y002688D01*
X026911Y002629D01*
X023003Y002629D01*
X023003Y003131D01*
X022994Y003139D01*
X023780Y003925D01*
X023780Y004103D01*
X023780Y004727D01*
X024091Y004727D01*
X024100Y004727D01*
X024100Y004736D02*
X024100Y004653D01*
X024100Y004475D01*
X024425Y004150D01*
X024425Y003959D01*
X024484Y003900D01*
X024477Y003892D01*
X024456Y003856D01*
X024445Y003815D01*
X024445Y003669D01*
X025000Y003669D01*
X025000Y003659D01*
X025010Y003659D01*
X025010Y003669D01*
X025565Y003669D01*
X025565Y003815D01*
X025554Y003856D01*
X025533Y003892D01*
X025525Y003900D01*
X025585Y003959D01*
X025585Y004368D01*
X025539Y004414D01*
X025585Y004459D01*
X025585Y004868D01*
X025539Y004914D01*
X025585Y004959D01*
X025585Y005368D01*
X025539Y005414D01*
X025585Y005459D01*
X025585Y005868D01*
X025539Y005914D01*
X025585Y005959D01*
X025585Y006368D01*
X025539Y006414D01*
X025585Y006459D01*
X025585Y006868D01*
X025585Y006980D02*
X025895Y006980D01*
X025776Y007098D02*
X025585Y007098D01*
X025585Y007217D02*
X025658Y007217D01*
X025585Y006743D02*
X026132Y006743D01*
X026250Y006624D02*
X025585Y006624D01*
X025585Y006506D02*
X026369Y006506D01*
X026565Y006268D02*
X025585Y006268D01*
X025585Y006150D02*
X026447Y006150D01*
X026328Y006031D02*
X025585Y006031D01*
X025540Y005913D02*
X026210Y005913D01*
X026150Y005794D02*
X025585Y005794D01*
X025585Y005676D02*
X026150Y005676D01*
X026150Y005557D02*
X025585Y005557D01*
X025564Y005439D02*
X026150Y005439D01*
X026150Y005320D02*
X025585Y005320D01*
X025585Y005202D02*
X026150Y005202D01*
X026150Y005083D02*
X025585Y005083D01*
X025585Y004964D02*
X026150Y004964D01*
X026150Y004846D02*
X025585Y004846D01*
X025585Y004727D02*
X026150Y004727D01*
X026150Y004609D02*
X025585Y004609D01*
X025585Y004490D02*
X026150Y004490D01*
X026203Y004372D02*
X025581Y004372D01*
X025585Y004253D02*
X026321Y004253D01*
X026336Y004135D02*
X025585Y004135D01*
X025585Y004016D02*
X026366Y004016D01*
X026446Y003898D02*
X025527Y003898D01*
X025565Y003779D02*
X026845Y003779D01*
X026845Y003660D02*
X025010Y003660D01*
X025010Y003659D02*
X025565Y003659D01*
X025565Y003513D01*
X025554Y003472D01*
X025533Y003436D01*
X025503Y003406D01*
X025467Y003385D01*
X025426Y003374D01*
X025010Y003374D01*
X025010Y003659D01*
X025000Y003659D02*
X025000Y003374D01*
X024584Y003374D01*
X024543Y003385D01*
X024507Y003406D01*
X024477Y003436D01*
X024456Y003472D01*
X024445Y003513D01*
X024445Y003659D01*
X025000Y003659D01*
X025000Y003660D02*
X023516Y003660D01*
X023397Y003542D02*
X024445Y003542D01*
X024489Y003423D02*
X023278Y003423D01*
X023160Y003305D02*
X027602Y003305D01*
X027483Y003186D02*
X023041Y003186D01*
X023003Y003068D02*
X027034Y003068D01*
X026932Y002949D02*
X023003Y002949D01*
X023003Y002831D02*
X026886Y002831D01*
X026886Y002712D02*
X023003Y002712D01*
X025000Y003423D02*
X025010Y003423D01*
X025000Y003542D02*
X025010Y003542D01*
X025521Y003423D02*
X026881Y003423D01*
X026845Y003542D02*
X025565Y003542D01*
X024445Y003779D02*
X023634Y003779D01*
X023753Y003898D02*
X024482Y003898D01*
X024425Y004016D02*
X023780Y004016D01*
X023780Y004135D02*
X024425Y004135D01*
X024321Y004253D02*
X023780Y004253D01*
X023780Y004372D02*
X024203Y004372D01*
X024100Y004490D02*
X023780Y004490D01*
X023780Y004609D02*
X024100Y004609D01*
X024091Y004727D02*
X024100Y004736D01*
X022450Y004727D02*
X020212Y004727D01*
X020200Y004609D02*
X022450Y004609D01*
X022437Y004490D02*
X019795Y004490D01*
X019677Y004372D02*
X022319Y004372D01*
X021450Y004253D02*
X019558Y004253D01*
X019440Y004135D02*
X021332Y004135D01*
X021213Y004016D02*
X019321Y004016D01*
X019203Y003898D02*
X021095Y003898D01*
X020976Y003779D02*
X009269Y003779D01*
X009293Y003898D02*
X009827Y003898D01*
X009708Y004016D02*
X009282Y004016D01*
X009229Y004135D02*
X009590Y004135D01*
X009471Y004253D02*
X009084Y004253D01*
X009353Y004372D02*
X008751Y004372D01*
X008755Y004490D02*
X009234Y004490D01*
X009805Y004727D02*
X011547Y004727D01*
X011666Y004609D02*
X009924Y004609D01*
X010042Y004490D02*
X011784Y004490D01*
X011846Y004429D02*
X010104Y004429D01*
X009280Y005253D01*
X009154Y005379D01*
X008744Y005379D01*
X008709Y005414D01*
X008744Y005449D01*
X010826Y005449D01*
X011846Y004429D01*
X011429Y004846D02*
X009687Y004846D01*
X009568Y004964D02*
X011310Y004964D01*
X011191Y005083D02*
X009450Y005083D01*
X009331Y005202D02*
X011073Y005202D01*
X010954Y005320D02*
X009213Y005320D01*
X008734Y005439D02*
X010836Y005439D01*
X011325Y005557D02*
X012100Y005557D01*
X012100Y005439D02*
X011444Y005439D01*
X011563Y005320D02*
X012036Y005320D01*
X012063Y005347D02*
X011958Y005242D01*
X011958Y004925D01*
X011004Y005879D01*
X010826Y005879D01*
X008744Y005879D01*
X008709Y005914D01*
X008755Y005959D01*
X008755Y006368D01*
X008709Y006414D01*
X008755Y006459D01*
X008755Y006868D01*
X008709Y006914D01*
X008851Y006914D01*
X008915Y006850D01*
X008890Y006824D01*
X008869Y006788D01*
X008858Y006747D01*
X008858Y006568D01*
X009176Y006568D01*
X009176Y006491D01*
X008858Y006491D01*
X008858Y006311D01*
X008869Y006271D01*
X008890Y006234D01*
X008920Y006204D01*
X008956Y006183D01*
X008997Y006172D01*
X009176Y006172D01*
X009176Y006490D01*
X009253Y006490D01*
X009253Y006172D01*
X009433Y006172D01*
X009473Y006183D01*
X009510Y006204D01*
X009540Y006234D01*
X009561Y006271D01*
X009572Y006311D01*
X009572Y006491D01*
X009253Y006491D01*
X009253Y006568D01*
X009572Y006568D01*
X009572Y006747D01*
X009561Y006788D01*
X009540Y006824D01*
X009514Y006850D01*
X009592Y006927D01*
X009592Y007285D01*
X009690Y007285D01*
X009829Y007343D01*
X009936Y007449D01*
X009993Y007588D01*
X009993Y007739D01*
X009936Y007878D01*
X009829Y007985D01*
X009690Y008042D01*
X009539Y008042D01*
X009400Y007985D01*
X009294Y007878D01*
X009236Y007739D01*
X009236Y007589D01*
X009222Y007575D01*
X008943Y007575D01*
X008838Y007470D01*
X008838Y007414D01*
X008709Y007414D01*
X008649Y007474D01*
X007700Y007474D01*
X007595Y007368D01*
X007595Y006959D01*
X007640Y006914D01*
X007605Y006879D01*
X007304Y006879D01*
X006554Y007629D01*
X006376Y007629D01*
X005126Y007629D01*
X005000Y007503D01*
X004850Y007353D01*
X004850Y007175D01*
X004850Y006853D01*
X004700Y006703D01*
X004700Y006591D01*
X004530Y006591D01*
X004530Y011525D01*
X004604Y011599D01*
X005576Y011599D01*
X005754Y011599D01*
X005965Y011810D01*
X006054Y011810D01*
X006215Y011877D01*
X006338Y012000D01*
X006404Y012160D01*
X006404Y012334D01*
X006357Y012449D01*
X006577Y012449D01*
X006529Y012334D01*
X006529Y012160D01*
X006596Y012000D01*
X006719Y011877D01*
X006880Y011810D01*
X007054Y011810D01*
X007215Y011877D01*
X007338Y012000D01*
X007404Y012160D01*
X007404Y012199D01*
X007526Y012199D01*
X007529Y012199D01*
X007529Y012160D01*
X007596Y012000D01*
X007719Y011877D01*
X007880Y011810D01*
X008054Y011810D01*
X008215Y011877D01*
X008338Y012000D01*
X008404Y012160D01*
X008404Y012334D01*
X008357Y012449D01*
X008577Y012449D01*
X008529Y012334D01*
X008529Y012160D01*
X008596Y012000D01*
X008719Y011877D01*
X008880Y011810D01*
X009054Y011810D01*
X009215Y011877D01*
X009338Y012000D01*
X009404Y012160D01*
X009404Y012334D01*
X009357Y012449D01*
X009577Y012449D01*
X009529Y012334D01*
X009529Y012160D01*
X009596Y012000D01*
X009719Y011877D01*
X009880Y011810D01*
X010054Y011810D01*
X010215Y011877D01*
X010338Y012000D01*
X010378Y012097D01*
X010426Y012049D01*
X011426Y012049D01*
X011446Y012049D01*
X011350Y011953D01*
X011306Y011909D01*
X011019Y011909D01*
X010410Y011909D01*
X010305Y011803D01*
X010305Y011579D01*
X010299Y011579D01*
X010165Y011713D01*
X009970Y011794D01*
X009759Y011794D01*
X009565Y011713D01*
X009415Y011564D01*
X009353Y011412D01*
X009337Y011460D01*
X009301Y011531D01*
X009254Y011596D01*
X009197Y011653D01*
X009132Y011700D01*
X009061Y011736D01*
X008984Y011761D01*
X008905Y011774D01*
X008903Y011774D01*
X008903Y011302D01*
X008826Y011302D01*
X008826Y011774D01*
X008825Y011774D01*
X008745Y011761D01*
X008669Y011736D01*
X008597Y011700D01*
X008533Y011653D01*
X008476Y011596D01*
X008429Y011531D01*
X008392Y011460D01*
X008377Y011412D01*
X008314Y011564D01*
X008165Y011713D01*
X007970Y011794D01*
X007759Y011794D01*
X007565Y011713D01*
X007415Y011564D01*
X007335Y011369D01*
X007335Y011158D01*
X007415Y010964D01*
X007565Y010814D01*
X007650Y010779D01*
X007650Y010529D01*
X006476Y010529D01*
X006350Y010403D01*
X006350Y010403D01*
X006276Y010329D01*
X006264Y010317D01*
X006106Y010251D01*
X005977Y010123D01*
X005908Y009955D01*
X005908Y009773D01*
X005977Y009605D01*
X006106Y009476D01*
X006274Y009407D01*
X006456Y009407D01*
X006624Y009476D01*
X006752Y009605D01*
X006822Y009773D01*
X006822Y009955D01*
X006762Y010099D01*
X006967Y010099D01*
X006908Y009955D01*
X006908Y009773D01*
X006977Y009605D01*
X007106Y009476D01*
X007274Y009407D01*
X007456Y009407D01*
X007624Y009476D01*
X007696Y009549D01*
X008235Y009549D01*
X008235Y009429D01*
X008300Y009364D01*
X008265Y009329D01*
X007076Y009329D01*
X007035Y009288D01*
X006956Y009321D01*
X006774Y009321D01*
X006606Y009251D01*
X006477Y009123D01*
X006408Y008955D01*
X006408Y008773D01*
X006477Y008605D01*
X006606Y008476D01*
X006774Y008407D01*
X006956Y008407D01*
X007124Y008476D01*
X007252Y008605D01*
X007322Y008773D01*
X007322Y008899D01*
X008235Y008899D01*
X008235Y008760D01*
X008340Y008654D01*
X008889Y008654D01*
X008984Y008749D01*
X010776Y008749D01*
X012100Y007425D01*
X012100Y005347D01*
X012063Y005347D01*
X011958Y005202D02*
X011681Y005202D01*
X011800Y005083D02*
X011958Y005083D01*
X011958Y004964D02*
X011918Y004964D01*
X013134Y005320D02*
X013617Y005320D01*
X013499Y005202D02*
X013212Y005202D01*
X013212Y005242D02*
X013106Y005347D01*
X012985Y005347D01*
X012904Y005429D01*
X012680Y005653D01*
X012680Y007703D01*
X012554Y007829D01*
X012554Y007829D01*
X012573Y007809D02*
X013145Y007809D01*
X013136Y007789D02*
X013136Y007638D01*
X013194Y007499D01*
X013300Y007393D01*
X013439Y007335D01*
X013590Y007335D01*
X013729Y007393D01*
X013750Y007414D01*
X013750Y005453D01*
X013212Y004915D01*
X013212Y005242D01*
X013212Y005083D02*
X013380Y005083D01*
X013261Y004964D02*
X013212Y004964D01*
X013751Y004846D02*
X015958Y004846D01*
X015958Y004964D02*
X013869Y004964D01*
X013988Y005083D02*
X015958Y005083D01*
X015958Y005202D02*
X014107Y005202D01*
X014180Y005320D02*
X016036Y005320D01*
X016150Y005439D02*
X014180Y005439D01*
X014180Y005557D02*
X016150Y005557D01*
X016150Y005676D02*
X014180Y005676D01*
X014180Y005794D02*
X016150Y005794D01*
X016150Y005913D02*
X014180Y005913D01*
X014180Y006031D02*
X016150Y006031D01*
X016150Y006150D02*
X014180Y006150D01*
X014180Y006268D02*
X016150Y006268D01*
X016150Y006387D02*
X014180Y006387D01*
X014180Y006506D02*
X016150Y006506D01*
X016150Y006624D02*
X014180Y006624D01*
X014180Y006743D02*
X016150Y006743D01*
X016150Y006861D02*
X014180Y006861D01*
X014180Y006980D02*
X016150Y006980D01*
X016150Y007098D02*
X014180Y007098D01*
X014180Y007217D02*
X016150Y007217D01*
X016150Y007335D02*
X014180Y007335D01*
X014180Y007454D02*
X016150Y007454D01*
X016150Y007572D02*
X014180Y007572D01*
X014180Y007691D02*
X016150Y007691D01*
X016150Y007809D02*
X014180Y007809D01*
X014180Y007928D02*
X016150Y007928D01*
X016150Y008047D02*
X014180Y008047D01*
X014180Y008165D02*
X016150Y008165D01*
X016580Y007572D02*
X021352Y007572D01*
X021471Y007454D02*
X019748Y007454D01*
X019710Y007491D02*
X019564Y007552D01*
X019406Y007552D01*
X019259Y007491D01*
X019147Y007379D01*
X019087Y007233D01*
X019087Y007075D01*
X019147Y006928D01*
X019259Y006816D01*
X019406Y006756D01*
X019564Y006756D01*
X019710Y006816D01*
X019822Y006928D01*
X019883Y007075D01*
X019883Y007233D01*
X019822Y007379D01*
X019710Y007491D01*
X019841Y007335D02*
X021589Y007335D01*
X021708Y007217D02*
X019883Y007217D01*
X019883Y007098D02*
X021826Y007098D01*
X021945Y006980D02*
X019844Y006980D01*
X019755Y006861D02*
X022063Y006861D01*
X022182Y006743D02*
X016580Y006743D01*
X016580Y006861D02*
X018214Y006861D01*
X018259Y006816D02*
X018147Y006928D01*
X018087Y007075D01*
X018087Y007233D01*
X018147Y007379D01*
X018259Y007491D01*
X018406Y007552D01*
X018564Y007552D01*
X018710Y007491D01*
X018822Y007379D01*
X018883Y007233D01*
X018883Y007075D01*
X018822Y006928D01*
X018710Y006816D01*
X018564Y006756D01*
X018406Y006756D01*
X018259Y006816D01*
X018755Y006861D02*
X019214Y006861D01*
X019126Y006980D02*
X018844Y006980D01*
X018883Y007098D02*
X019087Y007098D01*
X019087Y007217D02*
X018883Y007217D01*
X018841Y007335D02*
X019129Y007335D01*
X019222Y007454D02*
X018748Y007454D01*
X018222Y007454D02*
X016580Y007454D01*
X016580Y007335D02*
X018129Y007335D01*
X018087Y007217D02*
X016580Y007217D01*
X016580Y007098D02*
X018087Y007098D01*
X018126Y006980D02*
X016580Y006980D01*
X016580Y006624D02*
X022300Y006624D01*
X022419Y006506D02*
X019676Y006506D01*
X019710Y006491D02*
X019564Y006552D01*
X019406Y006552D01*
X019259Y006491D01*
X019147Y006379D01*
X019087Y006233D01*
X019087Y006075D01*
X019147Y005928D01*
X019259Y005816D01*
X019406Y005756D01*
X019564Y005756D01*
X019710Y005816D01*
X019822Y005928D01*
X019883Y006075D01*
X019883Y006233D01*
X019822Y006379D01*
X019710Y006491D01*
X019815Y006387D02*
X022538Y006387D01*
X022656Y006268D02*
X019868Y006268D01*
X019883Y006150D02*
X022775Y006150D01*
X022828Y006031D02*
X019865Y006031D01*
X019807Y005913D02*
X022710Y005913D01*
X022591Y005794D02*
X019657Y005794D01*
X019312Y005794D02*
X018657Y005794D01*
X018557Y005676D02*
X022473Y005676D01*
X022450Y005557D02*
X018675Y005557D01*
X018794Y005439D02*
X022450Y005439D01*
X022450Y005320D02*
X020134Y005320D01*
X020212Y005202D02*
X022450Y005202D01*
X022450Y005083D02*
X020212Y005083D01*
X020212Y004964D02*
X022450Y004964D01*
X022450Y004846D02*
X020212Y004846D01*
X018937Y004490D02*
X013395Y004490D01*
X013514Y004609D02*
X015970Y004609D01*
X015958Y004727D02*
X013632Y004727D01*
X013736Y005439D02*
X012894Y005439D01*
X012775Y005557D02*
X013750Y005557D01*
X013750Y005676D02*
X012680Y005676D01*
X012680Y005794D02*
X013750Y005794D01*
X013750Y005913D02*
X012680Y005913D01*
X012680Y006031D02*
X013750Y006031D01*
X013750Y006150D02*
X012680Y006150D01*
X012680Y006268D02*
X013750Y006268D01*
X013750Y006387D02*
X012680Y006387D01*
X012680Y006506D02*
X013750Y006506D01*
X013750Y006624D02*
X012680Y006624D01*
X012680Y006743D02*
X013750Y006743D01*
X013750Y006861D02*
X012680Y006861D01*
X012680Y006980D02*
X013750Y006980D01*
X013750Y007098D02*
X012680Y007098D01*
X012680Y007217D02*
X013750Y007217D01*
X013750Y007335D02*
X012680Y007335D01*
X012680Y007454D02*
X013240Y007454D01*
X013164Y007572D02*
X012680Y007572D01*
X012680Y007691D02*
X013136Y007691D01*
X013136Y007789D02*
X013194Y007928D01*
X013300Y008047D02*
X012336Y008047D01*
X012217Y008165D02*
X013312Y008165D01*
X013431Y008284D02*
X012099Y008284D01*
X011980Y008402D02*
X013549Y008402D01*
X013550Y008521D02*
X011862Y008521D01*
X011743Y008639D02*
X013550Y008639D01*
X013550Y008758D02*
X011625Y008758D01*
X011506Y008876D02*
X013550Y008876D01*
X013550Y008995D02*
X011388Y008995D01*
X011269Y009113D02*
X013550Y009113D01*
X013550Y009232D02*
X011151Y009232D01*
X011117Y009835D02*
X011296Y009835D01*
X011296Y010193D01*
X010978Y010193D01*
X010978Y009974D01*
X010989Y009933D01*
X011010Y009897D01*
X011040Y009867D01*
X011076Y009846D01*
X011117Y009835D01*
X010986Y009943D02*
X010639Y009943D01*
X010521Y010062D02*
X010978Y010062D01*
X010978Y010180D02*
X010402Y010180D01*
X010978Y010270D02*
X011296Y010270D01*
X011296Y010193D01*
X011373Y010193D01*
X011373Y009835D01*
X011553Y009835D01*
X011593Y009846D01*
X011630Y009867D01*
X011660Y009897D01*
X011681Y009933D01*
X011692Y009974D01*
X011692Y010193D01*
X011373Y010193D01*
X011373Y010270D01*
X011296Y010270D01*
X011296Y010627D01*
X011117Y010627D01*
X011076Y010617D01*
X011040Y010595D01*
X011010Y010566D01*
X010989Y010529D01*
X010978Y010489D01*
X010978Y010270D01*
X010978Y010299D02*
X008234Y010299D01*
X008115Y010417D02*
X010978Y010417D01*
X010993Y010536D02*
X008080Y010536D01*
X008080Y010655D02*
X012000Y010655D01*
X012000Y010773D02*
X010065Y010773D01*
X010242Y010892D02*
X012000Y010892D01*
X011958Y010536D02*
X011677Y010536D01*
X011681Y010529D02*
X011660Y010566D01*
X011630Y010595D01*
X011593Y010617D01*
X011553Y010627D01*
X011373Y010627D01*
X011373Y010270D01*
X011692Y010270D01*
X011692Y010489D01*
X011681Y010529D01*
X011692Y010417D02*
X011958Y010417D01*
X011958Y010299D02*
X011692Y010299D01*
X011692Y010180D02*
X011958Y010180D01*
X011958Y010062D02*
X011692Y010062D01*
X011683Y009943D02*
X011958Y009943D01*
X012054Y009825D02*
X010758Y009825D01*
X011296Y009943D02*
X011373Y009943D01*
X011373Y010062D02*
X011296Y010062D01*
X011296Y010180D02*
X011373Y010180D01*
X011373Y010299D02*
X011296Y010299D01*
X011296Y010417D02*
X011373Y010417D01*
X011373Y010536D02*
X011296Y010536D01*
X009664Y010773D02*
X009005Y010773D01*
X008903Y010773D02*
X008826Y010773D01*
X008725Y010773D02*
X008080Y010773D01*
X008242Y010892D02*
X008516Y010892D01*
X008422Y011010D02*
X008333Y011010D01*
X008826Y011010D02*
X008903Y011010D01*
X008903Y010892D02*
X008826Y010892D01*
X009214Y010892D02*
X009487Y010892D01*
X009396Y011010D02*
X009308Y011010D01*
X008903Y011129D02*
X008826Y011129D01*
X008826Y011366D02*
X008903Y011366D01*
X008903Y011484D02*
X008826Y011484D01*
X008826Y011603D02*
X008903Y011603D01*
X008903Y011721D02*
X008826Y011721D01*
X008807Y011840D02*
X008126Y011840D01*
X008145Y011721D02*
X008640Y011721D01*
X008483Y011603D02*
X008275Y011603D01*
X008347Y011484D02*
X008405Y011484D01*
X007807Y011840D02*
X007126Y011840D01*
X007297Y011959D02*
X007637Y011959D01*
X007564Y012077D02*
X007370Y012077D01*
X007404Y012196D02*
X007529Y012196D01*
X008297Y011959D02*
X008637Y011959D01*
X008564Y012077D02*
X008370Y012077D01*
X008404Y012196D02*
X008529Y012196D01*
X008529Y012314D02*
X008404Y012314D01*
X008364Y012433D02*
X008570Y012433D01*
X009364Y012433D02*
X009570Y012433D01*
X009529Y012314D02*
X009404Y012314D01*
X009404Y012196D02*
X009529Y012196D01*
X009564Y012077D02*
X009370Y012077D01*
X009297Y011959D02*
X009637Y011959D01*
X009807Y011840D02*
X009126Y011840D01*
X009090Y011721D02*
X009585Y011721D01*
X009454Y011603D02*
X009247Y011603D01*
X009325Y011484D02*
X009383Y011484D01*
X010145Y011721D02*
X010305Y011721D01*
X010305Y011603D02*
X010275Y011603D01*
X010341Y011840D02*
X010126Y011840D01*
X010297Y011959D02*
X011356Y011959D01*
X011634Y012079D02*
X012004Y012449D01*
X012360Y012449D01*
X012360Y012258D01*
X012755Y012258D01*
X012755Y012138D01*
X012360Y012138D01*
X012360Y012079D01*
X012276Y012079D01*
X011634Y012079D01*
X011751Y012196D02*
X012755Y012196D01*
X012875Y012196D02*
X013655Y012196D01*
X013655Y012138D02*
X013655Y012258D01*
X013260Y012258D01*
X012875Y012258D01*
X012875Y012138D01*
X013260Y012138D01*
X013655Y012138D01*
X013775Y012196D02*
X015128Y012196D01*
X015128Y012314D02*
X014170Y012314D01*
X014170Y012433D02*
X015168Y012433D01*
X015162Y012077D02*
X014170Y012077D01*
X014170Y011959D02*
X015235Y011959D01*
X015406Y011840D02*
X014190Y011840D01*
X014190Y011721D02*
X015803Y011721D01*
X015922Y011603D02*
X014190Y011603D01*
X014190Y011484D02*
X018386Y011484D01*
X018396Y011366D02*
X014190Y011366D01*
X014190Y011247D02*
X017494Y011247D01*
X017376Y011129D02*
X014120Y011129D01*
X013980Y011010D02*
X017257Y011010D01*
X017139Y010892D02*
X013980Y010892D01*
X013309Y011129D02*
X013220Y011129D01*
X010397Y012077D02*
X010370Y012077D01*
X011869Y012314D02*
X012360Y012314D01*
X012360Y012433D02*
X011988Y012433D01*
X011372Y013025D02*
X011078Y013025D01*
X011093Y012989D02*
X011036Y013128D01*
X010929Y013235D01*
X010790Y013292D01*
X010639Y013292D01*
X010500Y013235D01*
X010394Y013128D01*
X010382Y013100D01*
X010304Y013179D01*
X010126Y013179D01*
X007735Y013179D01*
X007679Y013235D01*
X007540Y013292D01*
X007389Y013292D01*
X007250Y013235D01*
X007144Y013128D01*
X007103Y013029D01*
X007026Y013029D01*
X005685Y013029D01*
X005679Y013035D01*
X005540Y013092D01*
X005389Y013092D01*
X005250Y013035D01*
X005144Y012928D01*
X005124Y012879D01*
X004452Y012879D01*
X004450Y012880D01*
X004363Y012879D01*
X004276Y012879D01*
X004274Y012877D01*
X004272Y012877D01*
X004212Y012815D01*
X004150Y012753D01*
X004150Y012751D01*
X004077Y012675D01*
X004054Y012685D01*
X003880Y012685D01*
X003719Y012618D01*
X003596Y012495D01*
X003529Y012334D01*
X003529Y012160D01*
X003584Y012029D01*
X003404Y012029D01*
X003366Y012067D01*
X003404Y012160D01*
X003404Y012334D01*
X003338Y012495D01*
X003215Y012618D01*
X003054Y012685D01*
X002880Y012685D01*
X002719Y012618D01*
X002596Y012495D01*
X002541Y012364D01*
X002536Y012378D01*
X002429Y012485D01*
X002290Y012542D01*
X002140Y012542D01*
X002076Y012607D01*
X002076Y012952D01*
X001970Y013057D01*
X000795Y013057D01*
X000795Y013312D01*
X011659Y013312D01*
X011276Y012929D01*
X011093Y012929D01*
X011093Y012989D01*
X011020Y013144D02*
X011491Y013144D01*
X011609Y013262D02*
X010862Y013262D01*
X010568Y013262D02*
X007612Y013262D01*
X007318Y013262D02*
X000795Y013262D01*
X000795Y013144D02*
X007160Y013144D01*
X005241Y013025D02*
X002002Y013025D01*
X002076Y012907D02*
X005135Y012907D01*
X004185Y012788D02*
X002076Y012788D01*
X002076Y012670D02*
X002843Y012670D01*
X002652Y012551D02*
X002131Y012551D01*
X002481Y012433D02*
X002570Y012433D01*
X003282Y012551D02*
X003652Y012551D01*
X003570Y012433D02*
X003364Y012433D01*
X003404Y012314D02*
X003529Y012314D01*
X003529Y012196D02*
X003404Y012196D01*
X003370Y012077D02*
X003564Y012077D01*
X003103Y011721D02*
X002630Y011721D01*
X002643Y011689D02*
X002586Y011828D01*
X002500Y011914D01*
X002536Y011949D01*
X002576Y012047D01*
X002596Y012000D01*
X002719Y011877D01*
X002880Y011810D01*
X003015Y011810D01*
X003226Y011599D01*
X003361Y011599D01*
X003336Y011539D01*
X003336Y011388D01*
X003394Y011249D01*
X003500Y011143D01*
X003639Y011085D01*
X003789Y011085D01*
X003800Y011075D01*
X003800Y006853D01*
X003500Y006553D01*
X003500Y006375D01*
X003500Y006175D01*
X003561Y006114D01*
X003500Y006053D01*
X003200Y005753D01*
X003200Y005575D01*
X003200Y004694D01*
X003186Y004728D01*
X003079Y004835D01*
X002940Y004892D01*
X002789Y004892D01*
X002650Y004835D01*
X002544Y004728D01*
X002486Y004589D01*
X002486Y004439D01*
X002400Y004353D01*
X002400Y004347D01*
X002290Y004392D01*
X002139Y004392D01*
X002023Y004344D01*
X001975Y004392D01*
X001994Y004403D01*
X002024Y004433D01*
X002045Y004469D01*
X002056Y004510D01*
X002056Y004709D01*
X001364Y004709D01*
X001364Y004825D01*
X002056Y004825D01*
X002056Y005024D01*
X002045Y005065D01*
X002024Y005102D01*
X001994Y005131D01*
X001975Y005143D01*
X002018Y005186D01*
X002139Y005135D01*
X002290Y005135D01*
X002429Y005193D01*
X002536Y005299D01*
X002593Y005438D01*
X002593Y005589D01*
X002536Y005728D01*
X002429Y005835D01*
X002290Y005892D01*
X002139Y005892D01*
X002075Y005866D01*
X001993Y005948D01*
X002076Y006031D01*
X002076Y006149D01*
X002454Y006149D01*
X002580Y006275D01*
X002590Y006285D01*
X002740Y006285D01*
X002879Y006343D01*
X002986Y006449D01*
X003043Y006588D01*
X003043Y006739D01*
X002986Y006878D01*
X002879Y006985D01*
X002740Y007042D01*
X002603Y007042D01*
X002643Y007138D01*
X002643Y007289D01*
X002586Y007428D01*
X002479Y007535D01*
X002340Y007592D01*
X002306Y007592D01*
X002429Y007643D01*
X002536Y007749D01*
X002593Y007888D01*
X002593Y008039D01*
X002563Y008111D01*
X002986Y007688D01*
X002986Y007538D01*
X003044Y007399D01*
X003150Y007293D01*
X003289Y007235D01*
X003440Y007235D01*
X003579Y007293D01*
X003686Y007399D01*
X003743Y007538D01*
X003743Y007689D01*
X003686Y007828D01*
X003579Y007935D01*
X003440Y007992D01*
X003290Y007992D01*
X002480Y008803D01*
X002354Y008929D01*
X002076Y008929D01*
X002076Y009015D01*
X001993Y009098D01*
X002076Y009181D01*
X002076Y009299D01*
X002836Y009299D01*
X002836Y009188D01*
X002894Y009049D01*
X003000Y008943D01*
X003139Y008885D01*
X003290Y008885D01*
X003429Y008943D01*
X003536Y009049D01*
X003593Y009188D01*
X003593Y009339D01*
X003536Y009478D01*
X003429Y009585D01*
X003290Y009642D01*
X003140Y009642D01*
X003054Y009729D01*
X002076Y009729D01*
X002076Y009802D01*
X001993Y009885D01*
X002076Y009968D01*
X002076Y010099D01*
X002195Y010099D01*
X002300Y009993D01*
X002439Y009935D01*
X002590Y009935D01*
X002729Y009993D01*
X002836Y010099D01*
X002893Y010238D01*
X002893Y010389D01*
X002836Y010528D01*
X002729Y010635D01*
X002598Y010689D01*
X002729Y010743D01*
X002836Y010849D01*
X002893Y010988D01*
X002893Y011139D01*
X002836Y011278D01*
X002729Y011385D01*
X002601Y011437D01*
X002643Y011538D01*
X002643Y011689D01*
X002643Y011603D02*
X003222Y011603D01*
X003336Y011484D02*
X002621Y011484D01*
X002748Y011366D02*
X003346Y011366D01*
X003396Y011247D02*
X002848Y011247D01*
X002893Y011129D02*
X003535Y011129D01*
X003800Y011010D02*
X002893Y011010D01*
X002853Y010892D02*
X003800Y010892D01*
X003800Y010773D02*
X002759Y010773D01*
X002681Y010655D02*
X003800Y010655D01*
X003800Y010536D02*
X002828Y010536D01*
X002881Y010417D02*
X003800Y010417D01*
X003800Y010299D02*
X002893Y010299D01*
X002869Y010180D02*
X003800Y010180D01*
X003800Y010062D02*
X002798Y010062D01*
X002609Y009943D02*
X003800Y009943D01*
X003800Y009825D02*
X002053Y009825D01*
X002051Y009943D02*
X002420Y009943D01*
X002232Y010062D02*
X002076Y010062D01*
X003076Y009706D02*
X003800Y009706D01*
X003800Y009588D02*
X003422Y009588D01*
X003539Y009469D02*
X003800Y009469D01*
X003800Y009351D02*
X003588Y009351D01*
X003593Y009232D02*
X003800Y009232D01*
X003800Y009113D02*
X003562Y009113D01*
X003481Y008995D02*
X003800Y008995D01*
X003800Y008876D02*
X002406Y008876D01*
X002525Y008758D02*
X003800Y008758D01*
X003800Y008639D02*
X002643Y008639D01*
X002762Y008521D02*
X003800Y008521D01*
X003800Y008402D02*
X002880Y008402D01*
X002999Y008284D02*
X003800Y008284D01*
X003800Y008165D02*
X003117Y008165D01*
X003236Y008047D02*
X003800Y008047D01*
X003800Y007928D02*
X003586Y007928D01*
X003693Y007809D02*
X003800Y007809D01*
X003800Y007691D02*
X003742Y007691D01*
X003743Y007572D02*
X003800Y007572D01*
X003800Y007454D02*
X003708Y007454D01*
X003621Y007335D02*
X003800Y007335D01*
X003800Y007217D02*
X002643Y007217D01*
X002624Y007335D02*
X003108Y007335D01*
X003021Y007454D02*
X002560Y007454D01*
X002388Y007572D02*
X002986Y007572D01*
X002984Y007691D02*
X002477Y007691D01*
X002560Y007809D02*
X002865Y007809D01*
X002746Y007928D02*
X002593Y007928D01*
X002590Y008047D02*
X002628Y008047D01*
X004530Y008047D02*
X011478Y008047D01*
X011359Y008165D02*
X004530Y008165D01*
X004530Y008284D02*
X011241Y008284D01*
X011122Y008402D02*
X004530Y008402D01*
X004530Y008521D02*
X005593Y008521D01*
X005580Y008530D02*
X005636Y008490D01*
X005697Y008459D01*
X005762Y008437D01*
X005830Y008427D01*
X005836Y008427D01*
X005836Y008835D01*
X005428Y008835D01*
X005428Y008829D01*
X005438Y008761D01*
X005460Y008696D01*
X005491Y008635D01*
X005531Y008579D01*
X005580Y008530D01*
X005489Y008639D02*
X004530Y008639D01*
X004530Y008758D02*
X005440Y008758D01*
X005428Y008892D02*
X005836Y008892D01*
X005836Y008835D01*
X005893Y008835D01*
X005893Y008427D01*
X005899Y008427D01*
X005967Y008437D01*
X006033Y008459D01*
X006094Y008490D01*
X006150Y008530D01*
X006198Y008579D01*
X006239Y008635D01*
X006270Y008696D01*
X006291Y008761D01*
X006302Y008829D01*
X006302Y008835D01*
X005894Y008835D01*
X005894Y008892D01*
X006302Y008892D01*
X006302Y008898D01*
X006291Y008966D01*
X006270Y009032D01*
X006239Y009093D01*
X006198Y009149D01*
X006150Y009197D01*
X006094Y009238D01*
X006033Y009269D01*
X005967Y009290D01*
X005899Y009301D01*
X005893Y009301D01*
X005893Y008893D01*
X005836Y008893D01*
X005836Y009301D01*
X005830Y009301D01*
X005762Y009290D01*
X005718Y009276D01*
X005758Y009316D01*
X005831Y009490D01*
X005831Y009680D01*
X005758Y009854D01*
X005625Y009988D01*
X005450Y010060D01*
X005261Y010060D01*
X005086Y009988D01*
X004953Y009854D01*
X004880Y009680D01*
X004880Y009490D01*
X004953Y009316D01*
X005086Y009182D01*
X005261Y009110D01*
X005450Y009110D01*
X005526Y009141D01*
X005491Y009093D01*
X005460Y009032D01*
X005438Y008966D01*
X005428Y008898D01*
X005428Y008892D01*
X005448Y008995D02*
X004530Y008995D01*
X004530Y009113D02*
X005252Y009113D01*
X005459Y009113D02*
X005506Y009113D01*
X005836Y009113D02*
X005893Y009113D01*
X005893Y008995D02*
X005836Y008995D01*
X005836Y008876D02*
X004530Y008876D01*
X004530Y009232D02*
X005036Y009232D01*
X004938Y009351D02*
X004530Y009351D01*
X004530Y009469D02*
X004889Y009469D01*
X004880Y009588D02*
X004530Y009588D01*
X004530Y009706D02*
X004891Y009706D01*
X004940Y009825D02*
X004530Y009825D01*
X004530Y009943D02*
X005042Y009943D01*
X004530Y010062D02*
X005952Y010062D01*
X005908Y009943D02*
X005669Y009943D01*
X005771Y009825D02*
X005908Y009825D01*
X005935Y009706D02*
X005820Y009706D01*
X005831Y009588D02*
X005994Y009588D01*
X006123Y009469D02*
X005822Y009469D01*
X005773Y009351D02*
X008287Y009351D01*
X008235Y009469D02*
X007607Y009469D01*
X007123Y009469D02*
X006607Y009469D01*
X006735Y009588D02*
X006994Y009588D01*
X006935Y009706D02*
X006794Y009706D01*
X006822Y009825D02*
X006908Y009825D01*
X006908Y009943D02*
X006822Y009943D01*
X006778Y010062D02*
X006952Y010062D01*
X006276Y010329D02*
X006276Y010329D01*
X006221Y010299D02*
X004530Y010299D01*
X004530Y010417D02*
X006364Y010417D01*
X006035Y010180D02*
X004530Y010180D01*
X004530Y010536D02*
X007650Y010536D01*
X007650Y010655D02*
X004530Y010655D01*
X004530Y010773D02*
X007650Y010773D01*
X007487Y010892D02*
X004530Y010892D01*
X004530Y011010D02*
X007396Y011010D01*
X007347Y011129D02*
X004530Y011129D01*
X004530Y011247D02*
X007335Y011247D01*
X007335Y011366D02*
X004530Y011366D01*
X004530Y011484D02*
X007383Y011484D01*
X007454Y011603D02*
X005758Y011603D01*
X005876Y011721D02*
X007585Y011721D01*
X006807Y011840D02*
X006126Y011840D01*
X006297Y011959D02*
X006637Y011959D01*
X006564Y012077D02*
X006370Y012077D01*
X006404Y012196D02*
X006529Y012196D01*
X006529Y012314D02*
X006404Y012314D01*
X006364Y012433D02*
X006570Y012433D01*
X003843Y012670D02*
X003090Y012670D01*
X002637Y011959D02*
X002539Y011959D01*
X002574Y011840D02*
X002807Y011840D01*
X010339Y013144D02*
X010410Y013144D01*
X018135Y011247D02*
X018446Y011247D01*
X018585Y011129D02*
X018254Y011129D01*
X018180Y011203D02*
X018180Y011203D01*
X018372Y011010D02*
X019164Y011010D01*
X019046Y011129D02*
X018945Y011129D01*
X019283Y010892D02*
X018480Y010892D01*
X018480Y010773D02*
X019401Y010773D01*
X019520Y010655D02*
X018480Y010655D01*
X019212Y010536D02*
X019639Y010536D01*
X019757Y010417D02*
X019212Y010417D01*
X020291Y010892D02*
X025633Y010892D01*
X025514Y011010D02*
X020172Y011010D01*
X020054Y011129D02*
X025396Y011129D01*
X025751Y010773D02*
X020410Y010773D01*
X020528Y010655D02*
X025870Y010655D01*
X025989Y010536D02*
X020647Y010536D01*
X020765Y010417D02*
X026107Y010417D01*
X027030Y010703D02*
X027030Y010825D01*
X027504Y011299D01*
X027630Y011425D01*
X027630Y011641D01*
X027713Y011724D01*
X027713Y012399D01*
X027753Y012399D01*
X027726Y012334D01*
X027726Y012160D01*
X027793Y012000D01*
X027916Y011877D01*
X028077Y011810D01*
X028251Y011810D01*
X028296Y011829D01*
X028626Y011499D01*
X028804Y011499D01*
X030061Y011499D01*
X030036Y011439D01*
X030036Y011288D01*
X030094Y011149D01*
X030200Y011043D01*
X030339Y010985D01*
X030490Y010985D01*
X030629Y011043D01*
X030680Y011094D01*
X031350Y010425D01*
X031350Y006653D01*
X031250Y006553D01*
X031250Y006375D01*
X031250Y006175D01*
X031361Y006064D01*
X031076Y005779D01*
X030950Y005653D01*
X030950Y004253D01*
X030326Y003629D01*
X029330Y003629D01*
X029330Y003703D01*
X029330Y007460D01*
X029389Y007435D01*
X029540Y007435D01*
X029679Y007493D01*
X029786Y007599D01*
X029843Y007738D01*
X029843Y007889D01*
X029786Y008028D01*
X029679Y008135D01*
X029541Y008192D01*
X027030Y010703D01*
X027078Y010655D02*
X031120Y010655D01*
X031001Y010773D02*
X027030Y010773D01*
X027097Y010892D02*
X030883Y010892D01*
X030764Y011010D02*
X030550Y011010D01*
X030280Y011010D02*
X027215Y011010D01*
X027334Y011129D02*
X030115Y011129D01*
X030053Y011247D02*
X027452Y011247D01*
X027571Y011366D02*
X030036Y011366D01*
X030055Y011484D02*
X027630Y011484D01*
X027630Y011603D02*
X028522Y011603D01*
X028403Y011721D02*
X027710Y011721D01*
X027713Y011840D02*
X028004Y011840D01*
X027834Y011959D02*
X027713Y011959D01*
X027713Y012077D02*
X027761Y012077D01*
X027726Y012196D02*
X027713Y012196D01*
X027713Y012314D02*
X027726Y012314D01*
X031380Y011863D02*
X031380Y011403D01*
X031954Y010829D01*
X031954Y010829D01*
X032080Y010703D01*
X032080Y006753D01*
X032242Y006591D01*
X032450Y006591D01*
X032450Y006625D01*
X032450Y006803D01*
X032600Y006953D01*
X032600Y007125D01*
X032600Y007303D01*
X032800Y007503D01*
X032926Y007629D01*
X034276Y007629D01*
X034454Y007629D01*
X035204Y006879D01*
X035355Y006879D01*
X035390Y006914D01*
X035345Y006959D01*
X035345Y007368D01*
X035450Y007474D01*
X036399Y007474D01*
X036459Y007414D01*
X036515Y007414D01*
X036588Y007414D01*
X036588Y007470D01*
X036681Y007563D01*
X036644Y007599D01*
X036586Y007738D01*
X036586Y007889D01*
X036644Y008028D01*
X036750Y008135D01*
X036889Y008192D01*
X037040Y008192D01*
X037179Y008135D01*
X037286Y008028D01*
X037343Y007889D01*
X037343Y007738D01*
X037286Y007599D01*
X037249Y007563D01*
X037342Y007470D01*
X037342Y006927D01*
X037264Y006850D01*
X037290Y006824D01*
X037311Y006788D01*
X037322Y006747D01*
X037322Y006568D01*
X037003Y006568D01*
X037003Y006491D01*
X037322Y006491D01*
X037322Y006311D01*
X037311Y006271D01*
X037290Y006234D01*
X037260Y006204D01*
X037223Y006183D01*
X037183Y006172D01*
X037003Y006172D01*
X037003Y006490D01*
X036926Y006490D01*
X036926Y006172D01*
X036747Y006172D01*
X036730Y006177D01*
X036730Y004175D01*
X036604Y004049D01*
X036567Y004012D01*
X036639Y004042D01*
X036790Y004042D01*
X036929Y003985D01*
X037036Y003878D01*
X037093Y003739D01*
X037093Y003588D01*
X037036Y003449D01*
X036929Y003343D01*
X036790Y003285D01*
X036639Y003285D01*
X036500Y003343D01*
X036444Y003399D01*
X036399Y003354D01*
X035450Y003354D01*
X035345Y003459D01*
X035345Y003808D01*
X035290Y003785D01*
X035139Y003785D01*
X035000Y003843D01*
X034894Y003949D01*
X034836Y004088D01*
X034836Y004238D01*
X034650Y004425D01*
X034650Y004603D01*
X034650Y005853D01*
X034776Y005979D01*
X035176Y006379D01*
X035354Y006379D01*
X035355Y006379D01*
X035390Y006414D01*
X035355Y006449D01*
X035026Y006449D01*
X034900Y006575D01*
X034276Y007199D01*
X034085Y007199D01*
X034085Y006959D01*
X034039Y006914D01*
X034085Y006868D01*
X034085Y006459D01*
X034039Y006414D01*
X034085Y006368D01*
X034085Y005959D01*
X034039Y005914D01*
X034085Y005868D01*
X034085Y005459D01*
X034039Y005414D01*
X034085Y005368D01*
X034085Y004959D01*
X034039Y004914D01*
X034085Y004868D01*
X034085Y004459D01*
X034039Y004414D01*
X034085Y004368D01*
X034085Y003959D01*
X034025Y003900D01*
X034033Y003892D01*
X034054Y003856D01*
X034065Y003815D01*
X034065Y003669D01*
X033510Y003669D01*
X033510Y003659D01*
X034065Y003659D01*
X034065Y003513D01*
X034054Y003472D01*
X034033Y003436D01*
X034026Y003429D01*
X034876Y003429D01*
X035054Y003429D01*
X035247Y003236D01*
X035496Y003236D01*
X035601Y003131D01*
X035601Y002629D01*
X040359Y002629D01*
X040325Y002712D01*
X035601Y002712D01*
X035601Y002831D02*
X040325Y002831D01*
X040325Y002886D02*
X040325Y002712D01*
X040325Y002886D02*
X040391Y003046D01*
X040514Y003169D01*
X040675Y003236D01*
X040683Y003236D01*
X040750Y003303D01*
X040750Y004375D01*
X040450Y004675D01*
X040450Y004853D01*
X040450Y005303D01*
X040576Y005429D01*
X040750Y005603D01*
X040750Y005953D01*
X040861Y006064D01*
X040750Y006175D01*
X040750Y010985D01*
X040739Y010985D01*
X040600Y011043D01*
X040494Y011149D01*
X040436Y011288D01*
X040436Y011439D01*
X040494Y011578D01*
X040600Y011685D01*
X040739Y011742D01*
X040782Y011742D01*
X040715Y011810D01*
X040675Y011810D01*
X040514Y011877D01*
X040391Y012000D01*
X040325Y012160D01*
X040325Y012334D01*
X040372Y012449D01*
X035554Y012449D01*
X035601Y012334D01*
X035601Y012160D01*
X035534Y012000D01*
X035411Y011877D01*
X035251Y011810D01*
X035077Y011810D01*
X034916Y011877D01*
X034793Y012000D01*
X034726Y012160D01*
X034726Y012334D01*
X034774Y012449D01*
X034554Y012449D01*
X034601Y012334D01*
X034601Y012160D01*
X034534Y012000D01*
X034411Y011877D01*
X034251Y011810D01*
X034077Y011810D01*
X033916Y011877D01*
X033793Y012000D01*
X033726Y012160D01*
X033726Y012249D01*
X033601Y012249D01*
X033601Y012160D01*
X033534Y012000D01*
X033411Y011877D01*
X033251Y011810D01*
X033077Y011810D01*
X032916Y011877D01*
X032793Y012000D01*
X032726Y012160D01*
X032726Y012334D01*
X032774Y012449D01*
X032554Y012449D01*
X032601Y012334D01*
X032601Y012160D01*
X032534Y012000D01*
X032411Y011877D01*
X032251Y011810D01*
X032077Y011810D01*
X031916Y011877D01*
X031793Y012000D01*
X031726Y012160D01*
X031726Y012199D01*
X031726Y012199D01*
X031601Y012199D01*
X031601Y012160D01*
X031534Y012000D01*
X031411Y011877D01*
X031380Y011863D01*
X031380Y011840D02*
X032004Y011840D01*
X031834Y011959D02*
X031493Y011959D01*
X031567Y012077D02*
X031761Y012077D01*
X031726Y012196D02*
X031601Y012196D01*
X032493Y011959D02*
X032834Y011959D01*
X032761Y012077D02*
X032567Y012077D01*
X032601Y012196D02*
X032726Y012196D01*
X032726Y012314D02*
X032601Y012314D01*
X032560Y012433D02*
X032767Y012433D01*
X033601Y012196D02*
X033726Y012196D01*
X033761Y012077D02*
X033567Y012077D01*
X033493Y011959D02*
X033834Y011959D01*
X034004Y011840D02*
X033323Y011840D01*
X033004Y011840D02*
X032323Y011840D01*
X031380Y011721D02*
X040689Y011721D01*
X040602Y011840D02*
X035323Y011840D01*
X035493Y011959D02*
X040432Y011959D01*
X040359Y012077D02*
X035567Y012077D01*
X035601Y012196D02*
X040325Y012196D01*
X040325Y012314D02*
X035601Y012314D01*
X035560Y012433D02*
X040365Y012433D01*
X040519Y011603D02*
X031380Y011603D01*
X031380Y011484D02*
X040455Y011484D01*
X040436Y011366D02*
X031417Y011366D01*
X031535Y011247D02*
X037394Y011247D01*
X037364Y011218D02*
X037364Y011108D01*
X037339Y011133D01*
X037161Y011133D01*
X037161Y011133D01*
X037145Y011117D01*
X037129Y011133D01*
X036951Y011133D01*
X036846Y011133D01*
X036823Y011110D01*
X036800Y011133D01*
X036621Y011133D01*
X036500Y011012D01*
X036379Y011133D01*
X036201Y011133D01*
X036125Y011058D01*
X036050Y011133D01*
X035872Y011133D01*
X035662Y011133D01*
X035536Y011008D01*
X035536Y010829D01*
X035552Y010813D01*
X035537Y010799D01*
X035518Y010818D01*
X035339Y010818D01*
X035314Y010818D01*
X035314Y011008D01*
X035188Y011133D01*
X035010Y011133D01*
X034889Y011012D01*
X034768Y011133D01*
X034590Y011133D01*
X034567Y011110D01*
X034544Y011133D01*
X034366Y011133D01*
X034244Y011012D01*
X034123Y011133D01*
X033945Y011133D01*
X033922Y011110D01*
X033899Y011133D01*
X033721Y011133D01*
X033600Y011012D01*
X033479Y011133D01*
X033301Y011133D01*
X033175Y011008D01*
X033175Y010692D01*
X033175Y010514D01*
X033280Y010409D01*
X033406Y010283D01*
X033584Y010283D01*
X033600Y010299D01*
X033616Y010283D01*
X033794Y010283D01*
X033870Y010359D01*
X033899Y010388D01*
X033922Y010411D01*
X033924Y010409D01*
X034050Y010283D01*
X034228Y010283D01*
X034244Y010299D01*
X034245Y010299D01*
X034244Y010299D02*
X034260Y010283D01*
X034439Y010283D01*
X034514Y010359D01*
X034544Y010388D01*
X034567Y010411D01*
X034569Y010409D01*
X034695Y010283D01*
X034873Y010283D01*
X034889Y010299D01*
X034905Y010283D01*
X035083Y010283D01*
X035159Y010359D01*
X035234Y010283D01*
X035518Y010283D01*
X035590Y010355D01*
X035662Y010283D01*
X035840Y010283D01*
X036155Y010283D01*
X036231Y010359D01*
X036306Y010283D01*
X036621Y010283D01*
X036800Y010283D01*
X036823Y010306D01*
X036846Y010283D01*
X037024Y010283D01*
X037040Y010299D01*
X037039Y010299D01*
X037040Y010299D02*
X037056Y010283D01*
X037234Y010283D01*
X037250Y010299D01*
X037250Y010299D01*
X037266Y010283D01*
X037444Y010283D01*
X037467Y010306D01*
X037490Y010283D01*
X037878Y010283D01*
X037899Y010304D01*
X037920Y010283D01*
X038203Y010283D01*
X038223Y010303D01*
X038242Y010283D01*
X038557Y010283D01*
X038735Y010283D01*
X038735Y010283D01*
X038811Y010359D01*
X038841Y010388D01*
X038864Y010411D01*
X038887Y010388D01*
X038992Y010283D01*
X039170Y010283D01*
X039380Y010283D01*
X039506Y010409D01*
X039506Y010514D01*
X039611Y010619D01*
X039611Y010797D01*
X039611Y010902D01*
X039485Y011028D01*
X039380Y011133D01*
X039202Y011133D01*
X038992Y011133D01*
X038916Y011058D01*
X038841Y011133D01*
X038347Y011133D01*
X038271Y011058D01*
X038221Y011008D01*
X038221Y011008D01*
X038192Y010978D01*
X038116Y010902D01*
X038116Y010818D01*
X038025Y010818D01*
X037920Y010818D01*
X037899Y010798D01*
X037899Y011218D01*
X037773Y011344D01*
X037595Y011344D01*
X037490Y011344D01*
X037364Y011218D01*
X037364Y011129D02*
X037344Y011129D01*
X037156Y011129D02*
X037134Y011129D01*
X036841Y011129D02*
X036804Y011129D01*
X036617Y011129D02*
X036384Y011129D01*
X036196Y011129D02*
X036055Y011129D01*
X035657Y011129D02*
X035193Y011129D01*
X035312Y011010D02*
X035538Y011010D01*
X035536Y010892D02*
X035314Y010892D01*
X035005Y011129D02*
X034773Y011129D01*
X034585Y011129D02*
X034549Y011129D01*
X034361Y011129D02*
X034128Y011129D01*
X033940Y011129D02*
X033904Y011129D01*
X033716Y011129D02*
X033484Y011129D01*
X033296Y011129D02*
X031654Y011129D01*
X031772Y011010D02*
X033177Y011010D01*
X033175Y010892D02*
X031891Y010892D01*
X032010Y010773D02*
X033175Y010773D01*
X033175Y010655D02*
X032080Y010655D01*
X032080Y010536D02*
X033175Y010536D01*
X033271Y010417D02*
X032080Y010417D01*
X032080Y010299D02*
X033390Y010299D01*
X033311Y010144D02*
X033185Y010018D01*
X033185Y009840D01*
X033185Y009388D01*
X033185Y009210D01*
X033311Y009084D01*
X033626Y009084D01*
X033804Y009084D01*
X033880Y009160D01*
X033909Y009189D01*
X033909Y009189D01*
X033932Y009212D01*
X033934Y009210D01*
X034060Y009084D01*
X034449Y009084D01*
X034554Y009189D01*
X034604Y009239D01*
X034629Y009264D01*
X034810Y009084D01*
X034988Y009084D01*
X035009Y009104D01*
X035029Y009084D01*
X035208Y009084D01*
X035329Y009205D01*
X035450Y009084D01*
X035628Y009084D01*
X035704Y009159D01*
X035779Y009084D01*
X035957Y009084D01*
X036272Y009084D01*
X036398Y009210D01*
X036398Y009214D01*
X036529Y009084D01*
X036707Y009084D01*
X036727Y009104D01*
X036748Y009084D01*
X036926Y009084D01*
X037052Y009210D01*
X037052Y009420D01*
X037136Y009504D01*
X037242Y009504D01*
X037263Y009526D01*
X037264Y009525D01*
X037264Y009493D01*
X037159Y009388D01*
X037159Y009210D01*
X037285Y009084D01*
X037674Y009084D01*
X037694Y009104D01*
X037715Y009084D01*
X037893Y009084D01*
X038014Y009205D01*
X038135Y009084D01*
X038313Y009084D01*
X038439Y009210D01*
X038439Y009388D01*
X038318Y009509D01*
X038439Y009630D01*
X038439Y009808D01*
X038313Y009934D01*
X038135Y009934D01*
X038014Y009813D01*
X037893Y009934D01*
X037715Y009934D01*
X037694Y009914D01*
X037694Y010123D01*
X037569Y010249D01*
X037390Y010249D01*
X037264Y010123D01*
X037264Y009913D01*
X037263Y009912D01*
X037242Y009934D01*
X036958Y009934D01*
X036942Y009918D01*
X036926Y009934D01*
X036748Y009934D01*
X036727Y009913D01*
X036707Y009934D01*
X036602Y010039D01*
X036424Y010039D01*
X036319Y009934D01*
X036243Y009859D01*
X036167Y009934D01*
X035989Y009934D01*
X035779Y009934D01*
X035754Y009909D01*
X035754Y010018D01*
X035628Y010144D01*
X035450Y010144D01*
X035329Y010023D01*
X035208Y010144D01*
X035029Y010144D01*
X034904Y010018D01*
X034883Y010039D01*
X034705Y010039D01*
X034600Y009934D01*
X034524Y009859D01*
X034449Y009934D01*
X034238Y009934D01*
X034060Y009934D01*
X034035Y009909D01*
X034035Y009913D01*
X033957Y009991D01*
X033909Y010039D01*
X033882Y010066D01*
X033804Y010144D01*
X033311Y010144D01*
X033228Y010062D02*
X032080Y010062D01*
X032080Y010180D02*
X037321Y010180D01*
X037264Y010062D02*
X035710Y010062D01*
X035754Y009943D02*
X036328Y009943D01*
X036698Y009943D02*
X037264Y009943D01*
X037694Y009943D02*
X038867Y009943D01*
X038883Y009951D02*
X038724Y009872D01*
X038668Y009703D01*
X038911Y009216D01*
X038934Y009146D01*
X038950Y009139D01*
X038957Y009123D01*
X039027Y009100D01*
X039093Y009067D01*
X039110Y009072D01*
X039126Y009067D01*
X039192Y009100D01*
X039262Y009123D01*
X039270Y009139D01*
X039286Y009146D01*
X039309Y009216D01*
X039329Y009257D01*
X039329Y009210D01*
X039455Y009084D01*
X040054Y009084D01*
X040180Y009210D01*
X040180Y009388D01*
X040054Y009514D01*
X039969Y009514D01*
X039969Y009840D01*
X039969Y010018D01*
X039844Y010144D01*
X039665Y010144D01*
X039427Y009906D01*
X039337Y009951D01*
X039168Y009895D01*
X039110Y009779D01*
X039052Y009895D01*
X038883Y009951D01*
X038907Y009943D02*
X039313Y009943D01*
X039353Y009943D02*
X039464Y009943D01*
X039583Y010062D02*
X037694Y010062D01*
X037637Y010180D02*
X040750Y010180D01*
X040750Y010062D02*
X039926Y010062D01*
X039969Y009943D02*
X040750Y009943D01*
X040750Y009825D02*
X039969Y009825D01*
X039969Y009706D02*
X040750Y009706D01*
X040750Y009588D02*
X039969Y009588D01*
X040098Y009469D02*
X040750Y009469D01*
X040750Y009351D02*
X040180Y009351D01*
X040180Y009232D02*
X040750Y009232D01*
X040750Y009113D02*
X040083Y009113D01*
X039426Y009113D02*
X039234Y009113D01*
X039317Y009232D02*
X039329Y009232D01*
X038986Y009113D02*
X038343Y009113D01*
X038439Y009232D02*
X038903Y009232D01*
X038844Y009351D02*
X038439Y009351D01*
X038358Y009469D02*
X038784Y009469D01*
X038725Y009588D02*
X038397Y009588D01*
X038439Y009706D02*
X038669Y009706D01*
X038708Y009825D02*
X038423Y009825D01*
X038026Y009825D02*
X038002Y009825D01*
X039087Y009825D02*
X039133Y009825D01*
X038976Y010299D02*
X038751Y010299D01*
X038841Y010388D02*
X038841Y010388D01*
X039396Y010299D02*
X040750Y010299D01*
X040750Y010417D02*
X039506Y010417D01*
X039528Y010536D02*
X040750Y010536D01*
X040750Y010655D02*
X039611Y010655D01*
X039611Y010773D02*
X040750Y010773D01*
X040750Y010892D02*
X039611Y010892D01*
X039503Y011010D02*
X040680Y011010D01*
X040515Y011129D02*
X039385Y011129D01*
X038992Y011133D02*
X038992Y011133D01*
X038987Y011129D02*
X038845Y011129D01*
X038347Y011133D02*
X038347Y011133D01*
X038342Y011129D02*
X037899Y011129D01*
X037899Y011010D02*
X038224Y011010D01*
X038116Y010902D02*
X038116Y010902D01*
X038116Y010892D02*
X037899Y010892D01*
X037870Y011247D02*
X040453Y011247D01*
X041780Y011247D02*
X046474Y011247D01*
X046494Y011199D02*
X046600Y011093D01*
X046739Y011035D01*
X046890Y011035D01*
X047029Y011093D01*
X047136Y011199D01*
X047193Y011338D01*
X047193Y011372D01*
X047244Y011249D01*
X047255Y011239D01*
X047194Y011178D01*
X047136Y011039D01*
X047136Y010888D01*
X047194Y010749D01*
X047300Y010643D01*
X047302Y010642D01*
X047289Y010642D01*
X047150Y010585D01*
X047044Y010478D01*
X046986Y010339D01*
X046986Y010188D01*
X047044Y010049D01*
X047150Y009943D01*
X041780Y009943D01*
X041780Y009825D02*
X046841Y009825D01*
X046850Y009835D02*
X046744Y009728D01*
X046686Y009589D01*
X046686Y009438D01*
X046744Y009299D01*
X046850Y009193D01*
X046989Y009135D01*
X047140Y009135D01*
X047279Y009193D01*
X047385Y009299D01*
X048369Y009299D01*
X048369Y009181D01*
X048452Y009098D01*
X048369Y009015D01*
X048369Y008929D01*
X047026Y008929D01*
X046900Y008803D01*
X046250Y008153D01*
X046250Y008134D01*
X046144Y008028D01*
X046086Y007889D01*
X046086Y007738D01*
X046144Y007599D01*
X046181Y007563D01*
X046088Y007470D01*
X046088Y007414D01*
X045959Y007414D01*
X045899Y007474D01*
X044950Y007474D01*
X044845Y007368D01*
X044845Y006959D01*
X044890Y006914D01*
X044855Y006879D01*
X044604Y006879D01*
X043854Y007629D01*
X043676Y007629D01*
X042426Y007629D01*
X042300Y007503D01*
X042100Y007303D01*
X042100Y007125D01*
X042100Y006953D01*
X041976Y006829D01*
X041850Y006703D01*
X041850Y006591D01*
X041780Y006591D01*
X041780Y011425D01*
X041954Y011599D01*
X043476Y011599D01*
X043654Y011599D01*
X043854Y011799D01*
X043876Y011821D01*
X044010Y011877D01*
X044133Y012000D01*
X044199Y012160D01*
X044199Y012334D01*
X044133Y012495D01*
X044010Y012618D01*
X043849Y012685D01*
X043675Y012685D01*
X043514Y012618D01*
X043391Y012495D01*
X043325Y012334D01*
X043325Y012160D01*
X043379Y012029D01*
X043145Y012029D01*
X043199Y012160D01*
X043199Y012334D01*
X043133Y012495D01*
X043010Y012618D01*
X042932Y012650D01*
X042851Y012731D01*
X042834Y012749D01*
X044126Y012749D01*
X044388Y012487D01*
X044325Y012334D01*
X044325Y012160D01*
X044391Y012000D01*
X044514Y011877D01*
X044675Y011810D01*
X044849Y011810D01*
X045010Y011877D01*
X045133Y012000D01*
X045199Y012160D01*
X045199Y012334D01*
X045133Y012495D01*
X045010Y012618D01*
X044849Y012685D01*
X044798Y012685D01*
X044584Y012899D01*
X046176Y012899D01*
X046485Y012589D01*
X046391Y012495D01*
X046325Y012334D01*
X046325Y012160D01*
X046391Y012000D01*
X046514Y011877D01*
X046675Y011810D01*
X046849Y011810D01*
X046948Y011851D01*
X046889Y011792D01*
X046739Y011792D01*
X046600Y011735D01*
X046494Y011628D01*
X046436Y011489D01*
X046436Y011338D01*
X046494Y011199D01*
X046565Y011129D02*
X041780Y011129D01*
X041780Y011010D02*
X047136Y011010D01*
X047136Y010892D02*
X041780Y010892D01*
X041780Y010773D02*
X047184Y010773D01*
X047289Y010655D02*
X041780Y010655D01*
X041780Y010536D02*
X047102Y010536D01*
X047019Y010417D02*
X041780Y010417D01*
X041780Y010299D02*
X046986Y010299D01*
X046990Y010180D02*
X041780Y010180D01*
X041780Y010062D02*
X047039Y010062D01*
X047150Y009943D02*
X047289Y009885D01*
X047440Y009885D01*
X047579Y009943D01*
X047685Y010049D01*
X048369Y010049D01*
X048369Y009968D01*
X048452Y009885D01*
X048369Y009802D01*
X048369Y009729D01*
X047385Y009729D01*
X047279Y009835D01*
X047140Y009892D01*
X046989Y009892D01*
X046850Y009835D01*
X046735Y009706D02*
X041780Y009706D01*
X041780Y009588D02*
X046686Y009588D01*
X046686Y009469D02*
X041780Y009469D01*
X041780Y009351D02*
X046723Y009351D01*
X046811Y009232D02*
X041780Y009232D01*
X041780Y009113D02*
X048437Y009113D01*
X048369Y008995D02*
X041780Y008995D01*
X041780Y008876D02*
X046973Y008876D01*
X046855Y008758D02*
X041780Y008758D01*
X041780Y008639D02*
X046736Y008639D01*
X046618Y008521D02*
X041780Y008521D01*
X041780Y008402D02*
X046499Y008402D01*
X046381Y008284D02*
X041780Y008284D01*
X041780Y008165D02*
X046262Y008165D01*
X046162Y008047D02*
X041780Y008047D01*
X041780Y007928D02*
X046103Y007928D01*
X046086Y007809D02*
X041780Y007809D01*
X041780Y007691D02*
X046106Y007691D01*
X046171Y007572D02*
X043910Y007572D01*
X044029Y007454D02*
X044930Y007454D01*
X044845Y007335D02*
X044147Y007335D01*
X044266Y007217D02*
X044845Y007217D01*
X044845Y007098D02*
X044384Y007098D01*
X044503Y006980D02*
X044845Y006980D01*
X044300Y006575D02*
X043676Y007199D01*
X043585Y007199D01*
X043585Y006959D01*
X043539Y006914D01*
X043585Y006868D01*
X043585Y006459D01*
X043539Y006414D01*
X043585Y006368D01*
X043585Y005959D01*
X043539Y005914D01*
X043585Y005868D01*
X043585Y005459D01*
X043539Y005414D01*
X043585Y005368D01*
X043585Y004959D01*
X043539Y004914D01*
X043585Y004868D01*
X043585Y004459D01*
X043539Y004414D01*
X043585Y004368D01*
X043585Y003959D01*
X043525Y003900D01*
X043533Y003892D01*
X043554Y003856D01*
X043565Y003815D01*
X043565Y003669D01*
X043010Y003669D01*
X043010Y003659D01*
X043565Y003659D01*
X043565Y003579D01*
X044845Y003579D01*
X044845Y003808D01*
X044790Y003785D01*
X044639Y003785D01*
X044500Y003843D01*
X044394Y003949D01*
X044336Y004088D01*
X044336Y004238D01*
X044150Y004425D01*
X044150Y004603D01*
X044150Y005903D01*
X044276Y006029D01*
X044626Y006379D01*
X044804Y006379D01*
X044855Y006379D01*
X044890Y006414D01*
X044855Y006449D01*
X044426Y006449D01*
X044300Y006575D01*
X044250Y006624D02*
X043585Y006624D01*
X043585Y006506D02*
X044369Y006506D01*
X044515Y006268D02*
X043585Y006268D01*
X043585Y006150D02*
X044397Y006150D01*
X044278Y006031D02*
X043585Y006031D01*
X043540Y005913D02*
X044160Y005913D01*
X044150Y005794D02*
X043585Y005794D01*
X043585Y005676D02*
X044150Y005676D01*
X044150Y005557D02*
X043585Y005557D01*
X043564Y005439D02*
X044150Y005439D01*
X044150Y005320D02*
X043585Y005320D01*
X043585Y005202D02*
X044150Y005202D01*
X044150Y005083D02*
X043585Y005083D01*
X043585Y004964D02*
X044150Y004964D01*
X044150Y004846D02*
X043585Y004846D01*
X043585Y004727D02*
X044150Y004727D01*
X044150Y004609D02*
X043585Y004609D01*
X043585Y004490D02*
X044150Y004490D01*
X044203Y004372D02*
X043581Y004372D01*
X043585Y004253D02*
X044321Y004253D01*
X044336Y004135D02*
X043585Y004135D01*
X043585Y004016D02*
X044366Y004016D01*
X044446Y003898D02*
X043527Y003898D01*
X043565Y003779D02*
X044845Y003779D01*
X044845Y003660D02*
X043010Y003660D01*
X040750Y003660D02*
X037093Y003660D01*
X037074Y003542D02*
X040750Y003542D01*
X040750Y003423D02*
X037010Y003423D01*
X036837Y003305D02*
X040750Y003305D01*
X040555Y003186D02*
X035545Y003186D01*
X035601Y003068D02*
X040413Y003068D01*
X040351Y002949D02*
X035601Y002949D01*
X035178Y003305D02*
X036592Y003305D01*
X037077Y003779D02*
X040750Y003779D01*
X040750Y003898D02*
X037016Y003898D01*
X036853Y004016D02*
X040750Y004016D01*
X040750Y004135D02*
X036690Y004135D01*
X036730Y004253D02*
X040750Y004253D01*
X040750Y004372D02*
X036730Y004372D01*
X036730Y004490D02*
X040634Y004490D01*
X040516Y004609D02*
X036730Y004609D01*
X036730Y004727D02*
X040450Y004727D01*
X040450Y004846D02*
X036730Y004846D01*
X036730Y004964D02*
X040450Y004964D01*
X040450Y005083D02*
X036730Y005083D01*
X036730Y005202D02*
X040450Y005202D01*
X040467Y005320D02*
X036730Y005320D01*
X036730Y005439D02*
X040586Y005439D01*
X040704Y005557D02*
X036730Y005557D01*
X036730Y005676D02*
X040750Y005676D01*
X040750Y005794D02*
X036730Y005794D01*
X036730Y005913D02*
X040750Y005913D01*
X040828Y006031D02*
X036730Y006031D01*
X036730Y006150D02*
X040775Y006150D01*
X040750Y006268D02*
X037309Y006268D01*
X037322Y006387D02*
X040750Y006387D01*
X040750Y006506D02*
X037003Y006506D01*
X037003Y006387D02*
X036926Y006387D01*
X036926Y006268D02*
X037003Y006268D01*
X037322Y006624D02*
X040750Y006624D01*
X040750Y006743D02*
X037322Y006743D01*
X037276Y006861D02*
X040750Y006861D01*
X040750Y006980D02*
X037342Y006980D01*
X037342Y007098D02*
X040750Y007098D01*
X040750Y007217D02*
X037342Y007217D01*
X037342Y007335D02*
X040750Y007335D01*
X040750Y007454D02*
X037342Y007454D01*
X037259Y007572D02*
X040750Y007572D01*
X040750Y007691D02*
X037324Y007691D01*
X037343Y007809D02*
X040750Y007809D01*
X040750Y007928D02*
X037327Y007928D01*
X037267Y008047D02*
X040750Y008047D01*
X040750Y008165D02*
X037105Y008165D01*
X036824Y008165D02*
X032080Y008165D01*
X032080Y008047D02*
X036662Y008047D01*
X036603Y007928D02*
X032080Y007928D01*
X032080Y007809D02*
X036586Y007809D01*
X036606Y007691D02*
X032080Y007691D01*
X032080Y007572D02*
X032869Y007572D01*
X032751Y007454D02*
X032080Y007454D01*
X032080Y007335D02*
X032632Y007335D01*
X032600Y007217D02*
X032080Y007217D01*
X032080Y007098D02*
X032600Y007098D01*
X032600Y006980D02*
X032080Y006980D01*
X032080Y006861D02*
X032508Y006861D01*
X032450Y006743D02*
X032090Y006743D01*
X032209Y006624D02*
X032450Y006624D01*
X031350Y006743D02*
X029330Y006743D01*
X029330Y006861D02*
X031350Y006861D01*
X031350Y006980D02*
X029330Y006980D01*
X029330Y007098D02*
X031350Y007098D01*
X031350Y007217D02*
X029330Y007217D01*
X029330Y007335D02*
X031350Y007335D01*
X031350Y007454D02*
X029585Y007454D01*
X029759Y007572D02*
X031350Y007572D01*
X031350Y007691D02*
X029824Y007691D01*
X029843Y007809D02*
X031350Y007809D01*
X031350Y007928D02*
X029827Y007928D01*
X029767Y008047D02*
X031350Y008047D01*
X031350Y008165D02*
X029605Y008165D01*
X029449Y008284D02*
X031350Y008284D01*
X031350Y008402D02*
X029330Y008402D01*
X029212Y008521D02*
X031350Y008521D01*
X031350Y008639D02*
X029093Y008639D01*
X028975Y008758D02*
X031350Y008758D01*
X031350Y008876D02*
X028856Y008876D01*
X028738Y008995D02*
X031350Y008995D01*
X031350Y009113D02*
X028619Y009113D01*
X028501Y009232D02*
X031350Y009232D01*
X031350Y009351D02*
X028382Y009351D01*
X028264Y009469D02*
X031350Y009469D01*
X031350Y009588D02*
X028145Y009588D01*
X028026Y009706D02*
X031350Y009706D01*
X031350Y009825D02*
X027908Y009825D01*
X027789Y009943D02*
X031350Y009943D01*
X031350Y010062D02*
X027671Y010062D01*
X027552Y010180D02*
X031350Y010180D01*
X031350Y010299D02*
X027434Y010299D01*
X027315Y010417D02*
X031350Y010417D01*
X031239Y010536D02*
X027197Y010536D01*
X025637Y009706D02*
X025358Y009706D01*
X025423Y009588D02*
X025604Y009588D01*
X025549Y009469D02*
X025443Y009469D01*
X025454Y009379D02*
X025454Y009379D01*
X025482Y009351D02*
X025536Y009351D01*
X024702Y009351D02*
X024447Y009351D01*
X024493Y009232D02*
X024648Y009232D01*
X024538Y009113D02*
X024493Y009113D01*
X024345Y009469D02*
X024686Y009469D01*
X024707Y009588D02*
X021595Y009588D01*
X021680Y009469D02*
X023885Y009469D01*
X023783Y009351D02*
X021680Y009351D01*
X021680Y009232D02*
X023065Y009232D01*
X023265Y009232D02*
X023736Y009232D01*
X023720Y009113D02*
X023450Y009113D01*
X023520Y008995D02*
X023561Y008995D01*
X022879Y009113D02*
X021680Y009113D01*
X021680Y008995D02*
X022810Y008995D01*
X022786Y008876D02*
X021680Y008876D01*
X021680Y008758D02*
X022799Y008758D01*
X022854Y008639D02*
X021693Y008639D01*
X021812Y008521D02*
X022687Y008521D01*
X022613Y008402D02*
X021930Y008402D01*
X022049Y008284D02*
X022586Y008284D01*
X022596Y008165D02*
X022167Y008165D01*
X022286Y008047D02*
X022647Y008047D01*
X022748Y007928D02*
X022405Y007928D01*
X022523Y007809D02*
X022758Y007809D01*
X022642Y007691D02*
X022896Y007691D01*
X022760Y007572D02*
X023039Y007572D01*
X023171Y007454D02*
X022879Y007454D01*
X022997Y007335D02*
X024250Y007335D01*
X024250Y007217D02*
X023116Y007217D01*
X023234Y007098D02*
X024145Y007098D01*
X024100Y006980D02*
X023353Y006980D01*
X023471Y006861D02*
X024100Y006861D01*
X023990Y006743D02*
X023590Y006743D01*
X023709Y006624D02*
X023871Y006624D01*
X025566Y006387D02*
X026864Y006387D01*
X028230Y006177D02*
X028230Y004538D01*
X028239Y004542D01*
X028390Y004542D01*
X028529Y004485D01*
X028600Y004414D01*
X028600Y006172D01*
X028503Y006172D01*
X028503Y006490D01*
X028426Y006490D01*
X028426Y006172D01*
X028247Y006172D01*
X028230Y006177D01*
X028230Y006150D02*
X028600Y006150D01*
X028600Y006031D02*
X028230Y006031D01*
X028230Y005913D02*
X028600Y005913D01*
X028600Y005794D02*
X028230Y005794D01*
X028230Y005676D02*
X028600Y005676D01*
X028600Y005557D02*
X028230Y005557D01*
X028230Y005439D02*
X028600Y005439D01*
X028600Y005320D02*
X028230Y005320D01*
X028230Y005202D02*
X028600Y005202D01*
X028600Y005083D02*
X028230Y005083D01*
X028230Y004964D02*
X028600Y004964D01*
X028600Y004846D02*
X028230Y004846D01*
X028230Y004727D02*
X028600Y004727D01*
X028600Y004609D02*
X028230Y004609D01*
X028515Y004490D02*
X028600Y004490D01*
X029330Y004490D02*
X030950Y004490D01*
X030950Y004372D02*
X029330Y004372D01*
X029330Y004253D02*
X030950Y004253D01*
X030832Y004135D02*
X029330Y004135D01*
X029330Y004016D02*
X030713Y004016D01*
X030595Y003898D02*
X029330Y003898D01*
X029330Y003779D02*
X030476Y003779D01*
X030357Y003660D02*
X029330Y003660D01*
X032280Y004003D02*
X032280Y004727D01*
X032447Y004727D01*
X032750Y004425D01*
X032750Y004275D01*
X032925Y004100D01*
X032925Y003959D01*
X032984Y003900D01*
X032977Y003892D01*
X032956Y003856D01*
X032945Y003815D01*
X032945Y003669D01*
X033500Y003669D01*
X033500Y003659D01*
X032945Y003659D01*
X032945Y003513D01*
X032956Y003472D01*
X032977Y003436D01*
X032984Y003429D01*
X032854Y003429D01*
X032280Y004003D01*
X032280Y004016D02*
X032925Y004016D01*
X032890Y004135D02*
X032280Y004135D01*
X032280Y004253D02*
X032771Y004253D01*
X032750Y004372D02*
X032280Y004372D01*
X032280Y004490D02*
X032684Y004490D01*
X032566Y004609D02*
X032280Y004609D01*
X030950Y004609D02*
X029330Y004609D01*
X029330Y004727D02*
X030950Y004727D01*
X030950Y004846D02*
X029330Y004846D01*
X029330Y004964D02*
X030950Y004964D01*
X030950Y005083D02*
X029330Y005083D01*
X029330Y005202D02*
X030950Y005202D01*
X030950Y005320D02*
X029330Y005320D01*
X029330Y005439D02*
X030950Y005439D01*
X030950Y005557D02*
X029330Y005557D01*
X029330Y005676D02*
X030973Y005676D01*
X031091Y005794D02*
X029330Y005794D01*
X029330Y005913D02*
X031210Y005913D01*
X031328Y006031D02*
X029330Y006031D01*
X029330Y006150D02*
X031275Y006150D01*
X031250Y006268D02*
X029330Y006268D01*
X029330Y006387D02*
X031250Y006387D01*
X031250Y006506D02*
X029330Y006506D01*
X029330Y006624D02*
X031321Y006624D01*
X028503Y006387D02*
X028426Y006387D01*
X028426Y006268D02*
X028503Y006268D01*
X028088Y007454D02*
X027919Y007454D01*
X027415Y007639D02*
X027415Y008113D01*
X027415Y008113D01*
X027415Y007639D01*
X027415Y007691D02*
X027415Y007691D01*
X027415Y007809D02*
X027415Y007809D01*
X027415Y007928D02*
X027415Y007928D01*
X027415Y008047D02*
X027415Y008047D01*
X027415Y008165D02*
X027415Y008165D01*
X027415Y008284D02*
X027415Y008284D01*
X027415Y008402D02*
X027415Y008402D01*
X027415Y008521D02*
X027415Y008521D01*
X029330Y007454D02*
X029345Y007454D01*
X032080Y008284D02*
X040750Y008284D01*
X040750Y008402D02*
X032080Y008402D01*
X032080Y008521D02*
X040750Y008521D01*
X040750Y008639D02*
X032080Y008639D01*
X032080Y008758D02*
X040750Y008758D01*
X040750Y008876D02*
X032080Y008876D01*
X032080Y008995D02*
X040750Y008995D01*
X038106Y009113D02*
X037923Y009113D01*
X037256Y009113D02*
X036956Y009113D01*
X037052Y009232D02*
X037159Y009232D01*
X037159Y009351D02*
X037052Y009351D01*
X037101Y009469D02*
X037241Y009469D01*
X036499Y009113D02*
X036302Y009113D01*
X035749Y009113D02*
X035658Y009113D01*
X035420Y009113D02*
X035237Y009113D01*
X034780Y009113D02*
X034478Y009113D01*
X034554Y009189D02*
X034554Y009189D01*
X034597Y009232D02*
X034662Y009232D01*
X034031Y009113D02*
X033834Y009113D01*
X033804Y009084D02*
X033804Y009084D01*
X033934Y009210D02*
X033934Y009210D01*
X033281Y009113D02*
X032080Y009113D01*
X032080Y009232D02*
X033185Y009232D01*
X033185Y009351D02*
X032080Y009351D01*
X032080Y009469D02*
X033185Y009469D01*
X033185Y009588D02*
X032080Y009588D01*
X032080Y009706D02*
X033185Y009706D01*
X033185Y009825D02*
X032080Y009825D01*
X032080Y009943D02*
X033185Y009943D01*
X033887Y010062D02*
X034947Y010062D01*
X035290Y010062D02*
X035367Y010062D01*
X034609Y009943D02*
X034005Y009943D01*
X033909Y010039D02*
X033909Y010039D01*
X033794Y010283D02*
X033794Y010283D01*
X033810Y010299D02*
X034035Y010299D01*
X033899Y010388D02*
X033899Y010388D01*
X033600Y010299D02*
X033600Y010299D01*
X034439Y010283D02*
X034439Y010283D01*
X034454Y010299D02*
X034679Y010299D01*
X034544Y010388D02*
X034544Y010388D01*
X034889Y010299D02*
X034889Y010299D01*
X035083Y010283D02*
X035083Y010283D01*
X035099Y010299D02*
X035219Y010299D01*
X035533Y010299D02*
X035646Y010299D01*
X036171Y010299D02*
X036290Y010299D01*
X036815Y010299D02*
X036830Y010299D01*
X037460Y010299D02*
X037474Y010299D01*
X037894Y010299D02*
X037904Y010299D01*
X038219Y010299D02*
X038226Y010299D01*
X041780Y011366D02*
X046436Y011366D01*
X046436Y011484D02*
X041839Y011484D01*
X043165Y012077D02*
X043359Y012077D01*
X043325Y012196D02*
X043199Y012196D01*
X043199Y012314D02*
X043325Y012314D01*
X043365Y012433D02*
X043159Y012433D01*
X043077Y012551D02*
X043447Y012551D01*
X043639Y012670D02*
X042913Y012670D01*
X043885Y012670D02*
X044205Y012670D01*
X044323Y012551D02*
X044077Y012551D01*
X044159Y012433D02*
X044365Y012433D01*
X044325Y012314D02*
X044199Y012314D01*
X044199Y012196D02*
X044325Y012196D01*
X044359Y012077D02*
X044165Y012077D01*
X044092Y011959D02*
X044432Y011959D01*
X044602Y011840D02*
X043921Y011840D01*
X043776Y011721D02*
X046587Y011721D01*
X046602Y011840D02*
X045922Y011840D01*
X045849Y011810D02*
X046010Y011877D01*
X046133Y012000D01*
X046199Y012160D01*
X046199Y012334D01*
X046133Y012495D01*
X046010Y012618D01*
X045849Y012685D01*
X045675Y012685D01*
X045514Y012618D01*
X045391Y012495D01*
X045325Y012334D01*
X045325Y012160D01*
X045391Y012000D01*
X045514Y011877D01*
X045675Y011810D01*
X045849Y011810D01*
X045602Y011840D02*
X044922Y011840D01*
X045092Y011959D02*
X045432Y011959D01*
X045359Y012077D02*
X045165Y012077D01*
X045199Y012196D02*
X045325Y012196D01*
X045325Y012314D02*
X045199Y012314D01*
X045159Y012433D02*
X045365Y012433D01*
X045447Y012551D02*
X045077Y012551D01*
X044885Y012670D02*
X045639Y012670D01*
X045885Y012670D02*
X046405Y012670D01*
X046447Y012551D02*
X046077Y012551D01*
X046159Y012433D02*
X046365Y012433D01*
X046325Y012314D02*
X046199Y012314D01*
X046199Y012196D02*
X046325Y012196D01*
X046359Y012077D02*
X046165Y012077D01*
X046092Y011959D02*
X046432Y011959D01*
X046922Y011840D02*
X046937Y011840D01*
X046484Y011603D02*
X043658Y011603D01*
X047065Y011129D02*
X047174Y011129D01*
X047155Y011247D02*
X047246Y011247D01*
X047196Y011366D02*
X047193Y011366D01*
X047145Y012029D02*
X047199Y012160D01*
X047199Y012334D01*
X047133Y012495D01*
X047010Y012618D01*
X046977Y012632D01*
X046977Y012706D01*
X046851Y012831D01*
X046480Y013203D01*
X046480Y013203D01*
X046371Y013312D01*
X049666Y013312D01*
X049666Y013057D01*
X048475Y013057D01*
X048369Y012952D01*
X048369Y012572D01*
X048350Y012553D01*
X048180Y012383D01*
X048133Y012495D01*
X048010Y012618D01*
X047849Y012685D01*
X047675Y012685D01*
X047514Y012618D01*
X047391Y012495D01*
X047325Y012334D01*
X047325Y012160D01*
X047379Y012029D01*
X047145Y012029D01*
X047165Y012077D02*
X047359Y012077D01*
X047325Y012196D02*
X047199Y012196D01*
X047199Y012314D02*
X047325Y012314D01*
X047365Y012433D02*
X047159Y012433D01*
X047077Y012551D02*
X047447Y012551D01*
X047639Y012670D02*
X046977Y012670D01*
X046894Y012788D02*
X048369Y012788D01*
X048369Y012670D02*
X047885Y012670D01*
X048077Y012551D02*
X048348Y012551D01*
X048230Y012433D02*
X048159Y012433D01*
X046851Y012831D02*
X046851Y012831D01*
X046776Y012907D02*
X048369Y012907D01*
X048443Y013025D02*
X046657Y013025D01*
X046539Y013144D02*
X049666Y013144D01*
X049666Y013262D02*
X046420Y013262D01*
X046286Y012788D02*
X044694Y012788D01*
X047579Y009943D02*
X048394Y009943D01*
X048392Y009825D02*
X047289Y009825D01*
X047318Y009232D02*
X048369Y009232D01*
X048369Y008499D02*
X047204Y008499D01*
X046759Y008054D01*
X046786Y008028D01*
X046843Y007889D01*
X046843Y007738D01*
X046786Y007599D01*
X046749Y007563D01*
X046842Y007470D01*
X046842Y006927D01*
X046764Y006850D01*
X046790Y006824D01*
X046811Y006788D01*
X046822Y006747D01*
X046822Y006568D01*
X046503Y006568D01*
X046503Y006491D01*
X046822Y006491D01*
X046822Y006311D01*
X046811Y006271D01*
X046790Y006234D01*
X046760Y006204D01*
X046723Y006183D01*
X046683Y006172D01*
X046503Y006172D01*
X046503Y006490D01*
X046426Y006490D01*
X046426Y006172D01*
X046247Y006172D01*
X046206Y006183D01*
X046170Y006204D01*
X046140Y006234D01*
X046119Y006271D01*
X046108Y006311D01*
X046108Y006491D01*
X046426Y006491D01*
X046426Y006568D01*
X046108Y006568D01*
X046108Y006747D01*
X046119Y006788D01*
X046140Y006824D01*
X046165Y006850D01*
X046101Y006914D01*
X045959Y006914D01*
X045959Y006914D01*
X046005Y006868D01*
X046005Y006459D01*
X045959Y006414D01*
X046005Y006368D01*
X046005Y005959D01*
X045959Y005914D01*
X045994Y005879D01*
X046926Y005879D01*
X046950Y005903D01*
X047076Y006029D01*
X047115Y006029D01*
X047044Y006099D01*
X046986Y006238D01*
X046986Y006389D01*
X047044Y006528D01*
X047150Y006635D01*
X047289Y006692D01*
X047440Y006692D01*
X047579Y006635D01*
X047685Y006529D01*
X048369Y006529D01*
X048369Y006653D01*
X048452Y006736D01*
X048369Y006819D01*
X048369Y006899D01*
X047785Y006899D01*
X047679Y006793D01*
X047540Y006735D01*
X047389Y006735D01*
X047250Y006793D01*
X047144Y006899D01*
X047086Y007038D01*
X047086Y007189D01*
X047144Y007328D01*
X047250Y007435D01*
X047389Y007492D01*
X047540Y007492D01*
X047679Y007435D01*
X047785Y007329D01*
X048369Y007329D01*
X048369Y007440D01*
X048452Y007523D01*
X048369Y007606D01*
X048369Y007699D01*
X048035Y007699D01*
X047929Y007593D01*
X047790Y007535D01*
X047639Y007535D01*
X047500Y007593D01*
X047394Y007699D01*
X047336Y007838D01*
X047336Y007989D01*
X047394Y008128D01*
X047500Y008235D01*
X047639Y008292D01*
X047790Y008292D01*
X047929Y008235D01*
X048035Y008129D01*
X048369Y008129D01*
X048369Y008227D01*
X048452Y008310D01*
X048369Y008393D01*
X048369Y008499D01*
X048369Y008402D02*
X047107Y008402D01*
X046989Y008284D02*
X047619Y008284D01*
X047811Y008284D02*
X048426Y008284D01*
X048369Y008165D02*
X047999Y008165D01*
X047431Y008165D02*
X046870Y008165D01*
X046767Y008047D02*
X047360Y008047D01*
X047336Y007928D02*
X046827Y007928D01*
X046843Y007809D02*
X047348Y007809D01*
X047402Y007691D02*
X046824Y007691D01*
X046759Y007572D02*
X047550Y007572D01*
X047633Y007454D02*
X048383Y007454D01*
X048369Y007335D02*
X047778Y007335D01*
X047297Y007454D02*
X046842Y007454D01*
X046842Y007335D02*
X047151Y007335D01*
X047098Y007217D02*
X046842Y007217D01*
X046842Y007098D02*
X047086Y007098D01*
X047111Y006980D02*
X046842Y006980D01*
X046776Y006861D02*
X047182Y006861D01*
X047372Y006743D02*
X046822Y006743D01*
X046822Y006624D02*
X047140Y006624D01*
X047035Y006506D02*
X046503Y006506D01*
X046426Y006506D02*
X046005Y006506D01*
X046005Y006624D02*
X046108Y006624D01*
X046108Y006743D02*
X046005Y006743D01*
X046005Y006861D02*
X046154Y006861D01*
X046108Y006387D02*
X045986Y006387D01*
X046005Y006268D02*
X046120Y006268D01*
X046005Y006150D02*
X047023Y006150D01*
X046986Y006268D02*
X046809Y006268D01*
X046822Y006387D02*
X046986Y006387D01*
X046503Y006387D02*
X046426Y006387D01*
X046426Y006268D02*
X046503Y006268D01*
X046005Y006031D02*
X047112Y006031D01*
X046960Y005913D02*
X045960Y005913D01*
X045994Y005449D02*
X047104Y005449D01*
X047230Y005575D01*
X047254Y005599D01*
X048126Y005599D01*
X048200Y005525D01*
X048326Y005399D01*
X048369Y005399D01*
X048369Y005244D01*
X048471Y005143D01*
X048451Y005131D01*
X048421Y005102D01*
X048400Y005065D01*
X048389Y005024D01*
X048389Y004825D01*
X049082Y004825D01*
X049082Y004709D01*
X048389Y004709D01*
X048389Y004643D01*
X047880Y005153D01*
X047754Y005279D01*
X046654Y005279D01*
X046554Y005379D01*
X046376Y005379D01*
X045994Y005379D01*
X045959Y005414D01*
X045994Y005449D01*
X045984Y005439D02*
X048286Y005439D01*
X048369Y005320D02*
X046613Y005320D01*
X047212Y005557D02*
X048167Y005557D01*
X047230Y005575D02*
X047230Y005575D01*
X047831Y005202D02*
X048412Y005202D01*
X048411Y005083D02*
X047950Y005083D01*
X047880Y005153D02*
X047880Y005153D01*
X048068Y004964D02*
X048389Y004964D01*
X048389Y004846D02*
X048187Y004846D01*
X048305Y004727D02*
X049082Y004727D01*
X048150Y003825D02*
X047526Y004449D01*
X046565Y004449D01*
X046586Y004428D01*
X046643Y004289D01*
X046643Y004138D01*
X046586Y003999D01*
X046479Y003893D01*
X046445Y003879D01*
X047576Y003879D01*
X047754Y003879D01*
X048150Y003483D01*
X048150Y003825D01*
X048150Y003779D02*
X047854Y003779D01*
X047972Y003660D02*
X048150Y003660D01*
X048150Y003542D02*
X048091Y003542D01*
X048077Y003898D02*
X046484Y003898D01*
X046592Y004016D02*
X047958Y004016D01*
X047840Y004135D02*
X046642Y004135D01*
X046643Y004253D02*
X047721Y004253D01*
X047603Y004372D02*
X046609Y004372D01*
X044863Y006387D02*
X043566Y006387D01*
X043585Y006743D02*
X044132Y006743D01*
X044013Y006861D02*
X043585Y006861D01*
X043585Y006980D02*
X043895Y006980D01*
X043776Y007098D02*
X043585Y007098D01*
X042251Y007454D02*
X041780Y007454D01*
X041780Y007572D02*
X042369Y007572D01*
X042132Y007335D02*
X041780Y007335D01*
X041780Y007217D02*
X042100Y007217D01*
X042100Y007098D02*
X041780Y007098D01*
X041780Y006980D02*
X042100Y006980D01*
X042008Y006861D02*
X041780Y006861D01*
X041780Y006743D02*
X041890Y006743D01*
X041976Y006829D02*
X041976Y006829D01*
X041850Y006624D02*
X041780Y006624D01*
X045919Y007454D02*
X046088Y007454D01*
X047747Y006861D02*
X048369Y006861D01*
X048445Y006743D02*
X047558Y006743D01*
X047590Y006624D02*
X048369Y006624D01*
X048403Y007572D02*
X047879Y007572D01*
X048027Y007691D02*
X048369Y007691D01*
X036671Y007572D02*
X034510Y007572D01*
X034629Y007454D02*
X035430Y007454D01*
X035345Y007335D02*
X034747Y007335D01*
X034866Y007217D02*
X035345Y007217D01*
X035345Y007098D02*
X034984Y007098D01*
X035103Y006980D02*
X035345Y006980D01*
X034613Y006861D02*
X034085Y006861D01*
X034085Y006743D02*
X034732Y006743D01*
X034850Y006624D02*
X034085Y006624D01*
X034085Y006506D02*
X034969Y006506D01*
X035065Y006268D02*
X034085Y006268D01*
X034085Y006150D02*
X034947Y006150D01*
X034828Y006031D02*
X034085Y006031D01*
X034040Y005913D02*
X034710Y005913D01*
X034650Y005794D02*
X034085Y005794D01*
X034085Y005676D02*
X034650Y005676D01*
X034650Y005557D02*
X034085Y005557D01*
X034064Y005439D02*
X034650Y005439D01*
X034650Y005320D02*
X034085Y005320D01*
X034085Y005202D02*
X034650Y005202D01*
X034650Y005083D02*
X034085Y005083D01*
X034085Y004964D02*
X034650Y004964D01*
X034650Y004846D02*
X034085Y004846D01*
X034085Y004727D02*
X034650Y004727D01*
X034650Y004609D02*
X034085Y004609D01*
X034085Y004490D02*
X034650Y004490D01*
X034703Y004372D02*
X034081Y004372D01*
X034085Y004253D02*
X034821Y004253D01*
X034836Y004135D02*
X034085Y004135D01*
X034085Y004016D02*
X034866Y004016D01*
X034946Y003898D02*
X034027Y003898D01*
X034065Y003779D02*
X035345Y003779D01*
X035345Y003660D02*
X033510Y003660D01*
X033500Y003660D02*
X032622Y003660D01*
X032741Y003542D02*
X032945Y003542D01*
X032945Y003779D02*
X032504Y003779D01*
X032385Y003898D02*
X032982Y003898D01*
X034065Y003542D02*
X035345Y003542D01*
X035381Y003423D02*
X035059Y003423D01*
X036571Y004016D02*
X036577Y004016D01*
X035363Y006387D02*
X034066Y006387D01*
X034085Y006980D02*
X034495Y006980D01*
X034376Y007098D02*
X034085Y007098D01*
X036419Y007454D02*
X036588Y007454D01*
X024772Y009706D02*
X021476Y009706D01*
X020950Y008521D02*
X019639Y008521D01*
X019799Y008402D02*
X020950Y008402D01*
X020950Y008284D02*
X019862Y008284D01*
X019883Y008165D02*
X020950Y008165D01*
X019294Y006506D02*
X018676Y006506D01*
X018815Y006387D02*
X019155Y006387D01*
X019101Y006268D02*
X018868Y006268D01*
X018883Y006150D02*
X019087Y006150D01*
X019105Y006031D02*
X018865Y006031D01*
X018807Y005913D02*
X019163Y005913D01*
X018067Y005557D02*
X016580Y005557D01*
X016580Y005439D02*
X018186Y005439D01*
X017949Y005676D02*
X016580Y005676D01*
X016580Y005794D02*
X017599Y005794D01*
X017518Y005913D02*
X016580Y005913D01*
X016580Y006031D02*
X017486Y006031D01*
X017491Y006150D02*
X016580Y006150D01*
X016580Y006268D02*
X017540Y006268D01*
X017656Y006387D02*
X016580Y006387D01*
X016580Y006506D02*
X018294Y006506D01*
X018155Y006387D02*
X018073Y006387D01*
X012100Y006387D02*
X009572Y006387D01*
X009559Y006268D02*
X012100Y006268D01*
X012100Y006150D02*
X008755Y006150D01*
X008755Y006268D02*
X008870Y006268D01*
X008858Y006387D02*
X008736Y006387D01*
X008755Y006506D02*
X009176Y006506D01*
X009253Y006506D02*
X012100Y006506D01*
X012100Y006624D02*
X009572Y006624D01*
X009572Y006743D02*
X012100Y006743D01*
X012100Y006861D02*
X009526Y006861D01*
X009592Y006980D02*
X012100Y006980D01*
X012100Y007098D02*
X009592Y007098D01*
X009592Y007217D02*
X012100Y007217D01*
X012100Y007335D02*
X009811Y007335D01*
X009937Y007454D02*
X012071Y007454D01*
X011952Y007572D02*
X009987Y007572D01*
X009993Y007691D02*
X011834Y007691D01*
X011715Y007809D02*
X009964Y007809D01*
X009886Y007928D02*
X011596Y007928D01*
X011004Y008521D02*
X007168Y008521D01*
X007267Y008639D02*
X010885Y008639D01*
X009344Y007928D02*
X004530Y007928D01*
X004530Y007809D02*
X009266Y007809D01*
X009236Y007691D02*
X004530Y007691D01*
X004530Y007572D02*
X005069Y007572D01*
X004951Y007454D02*
X004530Y007454D01*
X004530Y007335D02*
X004850Y007335D01*
X004850Y007217D02*
X004530Y007217D01*
X004530Y007098D02*
X004850Y007098D01*
X004850Y006980D02*
X004530Y006980D01*
X004530Y006861D02*
X004850Y006861D01*
X004740Y006743D02*
X004530Y006743D01*
X004530Y006624D02*
X004700Y006624D01*
X003800Y006861D02*
X002993Y006861D01*
X003042Y006743D02*
X003690Y006743D01*
X003571Y006624D02*
X003043Y006624D01*
X003009Y006506D02*
X003500Y006506D01*
X003500Y006387D02*
X002923Y006387D01*
X002574Y006268D02*
X003500Y006268D01*
X003525Y006150D02*
X002455Y006150D01*
X002076Y006031D02*
X003478Y006031D01*
X003360Y005913D02*
X002028Y005913D01*
X002469Y005794D02*
X003241Y005794D01*
X003200Y005676D02*
X002557Y005676D01*
X002593Y005557D02*
X003200Y005557D01*
X003200Y005439D02*
X002593Y005439D01*
X002544Y005320D02*
X003200Y005320D01*
X003200Y005202D02*
X002438Y005202D01*
X002035Y005083D02*
X003200Y005083D01*
X003200Y004964D02*
X002056Y004964D01*
X002056Y004846D02*
X002678Y004846D01*
X002544Y004727D02*
X001364Y004727D01*
X002056Y004609D02*
X002495Y004609D01*
X002486Y004490D02*
X002051Y004490D01*
X002090Y004372D02*
X001995Y004372D01*
X002339Y004372D02*
X002419Y004372D01*
X003186Y004727D02*
X003200Y004727D01*
X003200Y004846D02*
X003052Y004846D01*
X004530Y004727D02*
X004841Y004727D01*
X004847Y004727D01*
X004844Y004731D02*
X005000Y004575D01*
X005000Y004503D01*
X005000Y004325D01*
X005175Y004150D01*
X005175Y003959D01*
X005234Y003900D01*
X005227Y003892D01*
X005206Y003856D01*
X005195Y003815D01*
X005195Y003669D01*
X005750Y003669D01*
X005750Y003659D01*
X005195Y003659D01*
X005195Y003579D01*
X004954Y003579D01*
X004530Y004003D01*
X004530Y004727D01*
X004530Y004609D02*
X004966Y004609D01*
X005000Y004490D02*
X004530Y004490D01*
X004530Y004372D02*
X005000Y004372D01*
X005071Y004253D02*
X004530Y004253D01*
X004530Y004135D02*
X005175Y004135D01*
X005175Y004016D02*
X004530Y004016D01*
X004635Y003898D02*
X005232Y003898D01*
X005195Y003779D02*
X004754Y003779D01*
X004872Y003660D02*
X005750Y003660D01*
X005760Y003660D02*
X007595Y003660D01*
X007595Y003579D02*
X006315Y003579D01*
X006315Y003659D01*
X005760Y003659D01*
X005760Y003669D01*
X006315Y003669D01*
X006315Y003815D01*
X006304Y003856D01*
X006283Y003892D01*
X006275Y003900D01*
X006335Y003959D01*
X006335Y004368D01*
X006289Y004414D01*
X006335Y004459D01*
X006335Y004868D01*
X006289Y004914D01*
X006335Y004959D01*
X006335Y005368D01*
X006289Y005414D01*
X006335Y005459D01*
X006335Y005868D01*
X006289Y005914D01*
X006335Y005959D01*
X006335Y006368D01*
X006289Y006414D01*
X006335Y006459D01*
X006335Y006868D01*
X006289Y006914D01*
X006335Y006959D01*
X006335Y007199D01*
X006376Y007199D01*
X006649Y006925D01*
X006550Y006885D01*
X006444Y006778D01*
X006386Y006639D01*
X006386Y006488D01*
X006444Y006349D01*
X006550Y006243D01*
X006689Y006185D01*
X006839Y006185D01*
X006900Y006125D01*
X006900Y004425D01*
X007026Y004299D01*
X007376Y003949D01*
X007554Y003949D01*
X007605Y003949D01*
X007640Y003914D01*
X007595Y003868D01*
X007595Y003579D01*
X007595Y003779D02*
X006315Y003779D01*
X006277Y003898D02*
X007624Y003898D01*
X007308Y004016D02*
X006335Y004016D01*
X006335Y004135D02*
X007190Y004135D01*
X007071Y004253D02*
X006335Y004253D01*
X006331Y004372D02*
X006953Y004372D01*
X006900Y004490D02*
X006335Y004490D01*
X006335Y004609D02*
X006900Y004609D01*
X006900Y004727D02*
X006335Y004727D01*
X006335Y004846D02*
X006900Y004846D01*
X006900Y004964D02*
X006335Y004964D01*
X006335Y005083D02*
X006900Y005083D01*
X006900Y005202D02*
X006335Y005202D01*
X006335Y005320D02*
X006900Y005320D01*
X006900Y005439D02*
X006314Y005439D01*
X006335Y005557D02*
X006900Y005557D01*
X006900Y005676D02*
X006335Y005676D01*
X006335Y005794D02*
X006900Y005794D01*
X006900Y005913D02*
X006290Y005913D01*
X006335Y006031D02*
X006900Y006031D01*
X006875Y006150D02*
X006335Y006150D01*
X006335Y006268D02*
X006525Y006268D01*
X006428Y006387D02*
X006316Y006387D01*
X006335Y006506D02*
X006386Y006506D01*
X006386Y006624D02*
X006335Y006624D01*
X006335Y006743D02*
X006429Y006743D01*
X006335Y006861D02*
X006527Y006861D01*
X006595Y006980D02*
X006335Y006980D01*
X006335Y007098D02*
X006476Y007098D01*
X006966Y007217D02*
X007595Y007217D01*
X007595Y007335D02*
X006847Y007335D01*
X006729Y007454D02*
X007680Y007454D01*
X008669Y007454D02*
X008838Y007454D01*
X008941Y007572D02*
X006610Y007572D01*
X007084Y007098D02*
X007595Y007098D01*
X007595Y006980D02*
X007203Y006980D01*
X008755Y006861D02*
X008904Y006861D01*
X008858Y006743D02*
X008755Y006743D01*
X008755Y006624D02*
X008858Y006624D01*
X009176Y006387D02*
X009253Y006387D01*
X009253Y006268D02*
X009176Y006268D01*
X008755Y006031D02*
X012100Y006031D01*
X012100Y005913D02*
X008710Y005913D01*
X011088Y005794D02*
X012100Y005794D01*
X012100Y005676D02*
X011207Y005676D01*
X004844Y004731D02*
X004841Y004727D01*
X009197Y003660D02*
X015907Y003660D01*
X015789Y003542D02*
X009691Y003542D01*
X009809Y003423D02*
X015670Y003423D01*
X015552Y003305D02*
X009928Y003305D01*
X010349Y003186D02*
X015358Y003186D01*
X015216Y003068D02*
X010404Y003068D01*
X010404Y002949D02*
X015154Y002949D01*
X015128Y002831D02*
X010404Y002831D01*
X010404Y002629D02*
X015162Y002629D01*
X015128Y002712D01*
X003800Y006980D02*
X002884Y006980D01*
X002626Y007098D02*
X003800Y007098D01*
X005836Y008521D02*
X005893Y008521D01*
X005893Y008639D02*
X005836Y008639D01*
X005836Y008758D02*
X005893Y008758D01*
X005894Y008876D02*
X006408Y008876D01*
X006414Y008758D02*
X006290Y008758D01*
X006241Y008639D02*
X006463Y008639D01*
X006561Y008521D02*
X006136Y008521D01*
X007316Y008758D02*
X008237Y008758D01*
X008235Y008876D02*
X007322Y008876D01*
X006473Y009113D02*
X006224Y009113D01*
X006282Y008995D02*
X006424Y008995D01*
X006587Y009232D02*
X006102Y009232D01*
X005893Y009232D02*
X005836Y009232D01*
X002948Y008995D02*
X002076Y008995D01*
X002009Y009113D02*
X002867Y009113D01*
X002836Y009232D02*
X002076Y009232D01*
X012756Y009351D02*
X013550Y009351D01*
X013550Y009469D02*
X012874Y009469D01*
X012993Y009588D02*
X013550Y009588D01*
X019698Y011484D02*
X024040Y011484D01*
X024159Y011366D02*
X019817Y011366D01*
X019935Y011247D02*
X024277Y011247D01*
X023922Y011603D02*
X019580Y011603D01*
X019653Y011721D02*
X019461Y011721D01*
X019406Y011840D02*
X019343Y011840D01*
X019235Y011959D02*
X019224Y011959D01*
X019162Y012077D02*
X019106Y012077D01*
X019128Y012196D02*
X019003Y012196D01*
X019003Y012314D02*
X019128Y012314D01*
X019168Y012433D02*
X018962Y012433D01*
X022976Y011721D02*
X023120Y011721D01*
X023117Y011840D02*
X023095Y011840D01*
X034323Y011840D02*
X035004Y011840D01*
X034834Y011959D02*
X034493Y011959D01*
X034567Y012077D02*
X034761Y012077D01*
X034726Y012196D02*
X034601Y012196D01*
X034601Y012314D02*
X034726Y012314D01*
X034767Y012433D02*
X034560Y012433D01*
D27*
X033665Y013114D03*
X031665Y012914D03*
X030665Y012714D03*
X028015Y011564D03*
X026915Y011464D03*
X026415Y011314D03*
X023415Y010564D03*
X025865Y010014D03*
X025915Y009364D03*
X025065Y009464D03*
X024115Y009164D03*
X024865Y008914D03*
X023865Y008764D03*
X023165Y008864D03*
X022965Y008264D03*
X022265Y008264D03*
X023765Y007114D03*
X026715Y005664D03*
X028415Y006014D03*
X030115Y006764D03*
X029465Y007814D03*
X028465Y007814D03*
X027965Y008164D03*
X030215Y008164D03*
X034165Y008164D03*
X036965Y007814D03*
X037465Y006514D03*
X035215Y005664D03*
X035215Y005164D03*
X035215Y004664D03*
X034365Y004714D03*
X035215Y004164D03*
X034365Y003714D03*
X036715Y003664D03*
X039265Y003214D03*
X041915Y003364D03*
X043915Y003764D03*
X044715Y004164D03*
X044715Y004664D03*
X043815Y004814D03*
X044715Y005164D03*
X044715Y005664D03*
X046815Y006064D03*
X047365Y006314D03*
X047465Y007114D03*
X046465Y007814D03*
X047715Y007914D03*
X043865Y006414D03*
X041915Y007314D03*
X047315Y005464D03*
X046265Y004214D03*
X047065Y004114D03*
X039315Y004814D03*
X034365Y006464D03*
X028415Y004914D03*
X026715Y005164D03*
X026715Y004664D03*
X026715Y004164D03*
X025915Y003864D03*
X028315Y004164D03*
X028665Y003614D03*
X031415Y003714D03*
X027265Y002764D03*
X032665Y002264D03*
X033665Y002114D03*
X021815Y003614D03*
X020065Y002264D03*
X021065Y002114D03*
X011515Y003314D03*
X008915Y003914D03*
X006715Y003964D03*
X007465Y004664D03*
X007465Y005164D03*
X007465Y005664D03*
X007465Y006164D03*
X006765Y006564D03*
X009615Y007664D03*
X011265Y006814D03*
X013065Y006764D03*
X014865Y006814D03*
X017865Y006064D03*
X013515Y007714D03*
X012815Y008164D03*
X014915Y008164D03*
X016365Y008614D03*
X013315Y009414D03*
X015315Y009664D03*
X015815Y009664D03*
X016315Y009664D03*
X016815Y009664D03*
X017315Y009664D03*
X019352Y009914D03*
X017815Y010764D03*
X018765Y011464D03*
X014315Y012214D03*
X010715Y012914D03*
X007465Y012914D03*
X005465Y012714D03*
X002515Y012914D03*
X002215Y012164D03*
X002265Y011614D03*
X003715Y011464D03*
X002515Y011064D03*
X002515Y010314D03*
X003215Y009264D03*
X002215Y007964D03*
X003365Y007614D03*
X002265Y007214D03*
X002665Y006664D03*
X002215Y005514D03*
X002615Y005064D03*
X002865Y004514D03*
X002215Y004014D03*
X002265Y003414D03*
X004365Y003214D03*
X007465Y002264D03*
X008465Y002114D03*
X010815Y004664D03*
X010815Y009964D03*
X018065Y012764D03*
X020065Y012964D03*
X021065Y013114D03*
X030415Y011364D03*
X029565Y010264D03*
X038065Y012214D03*
X040815Y011364D03*
X043615Y010614D03*
X040215Y010514D03*
X046215Y011814D03*
X046815Y011414D03*
X047565Y011464D03*
X047515Y010964D03*
X047365Y010264D03*
X047065Y009514D03*
X048115Y012964D03*
D28*
X046465Y007198D02*
X046465Y007164D01*
X045425Y007164D01*
X036965Y007198D02*
X036965Y007164D01*
X036565Y007164D01*
X035925Y007164D01*
X028465Y007198D02*
X028465Y007164D01*
X028015Y007164D01*
X027425Y007164D01*
X009215Y007198D02*
X009215Y007164D01*
X008175Y007164D01*
M02*
