%
M48
M72
T01C0.0120
T02C0.0157
T03C0.0236
T04C0.0320
T05C0.0354
T06C0.0394
T07C0.0400
T08C0.0433
T09C0.0472
T10C0.0591
T11C0.1063
T12C0.1260
%
T01
X11148Y11811
X3348Y5661
X3598Y5411
X3848Y5111
X4498Y4561
X4148Y4861
X5798Y2711
X5798Y2361
X6148Y2061
X6548Y2061
X5798Y4611
X10898Y8511
X10898Y8161
X10898Y7861
X13648Y8711
X13798Y7661
X20198Y4961
X20198Y4161
X20648Y4611
X20848Y4961
X20848Y4161
X14048Y6261
X14198Y5861
X14498Y4511
X17048Y7961
X13448Y3461
X8748Y411
X8698Y6161
X6098Y7961
X6098Y8461
X4948Y7111
X6098Y7261
X11548Y8161
X11348Y6361
X11598Y6361
X11898Y6361
X6598Y7161
X13148Y3511
X13348Y3711
X10798Y3111
X11248Y3111
X11698Y3111
X12248Y3111
X12648Y3011
X8998Y2611
X9948Y2661
X10298Y2661
X8748Y711
X9948Y761
X10148Y1061
X10148Y1361
X10148Y1661
X14348Y5411
X13198Y4611
X6848Y5861
X6498Y5211
X8048Y4861
X8148Y3811
X7598Y2311
X8648Y4261
X10248Y12111
X10898Y12161
X8448Y5561
X7798Y3461
X7948Y2011
X17548Y6111
X16998Y6661
X5948Y5511
X5748Y7561
X9498Y7761
X9498Y8411
X11848Y7711
X4089Y10622
X4098Y10361
X4298Y10161
X2248Y10011
X1648Y10861
X1648Y9411
X11798Y4561
X9548Y3661
X9148Y4011
X7348Y3311
X5048Y2811
X5548Y5511
X8221Y10370
X8048Y10161
X7848Y10011
X15198Y10711
X15448Y10561
X15448Y10861
X19048Y10661
X18748Y10761
X18748Y10461
X16648Y3911
X10148Y5311
X21148Y10261
X21698Y10811
X21648Y9511
X13948Y711
X19948Y561
X19548Y2161
X18848Y5861
X19248Y5511
X16298Y1261
X10298Y10111
X10548Y9661
X10648Y10611
X11298Y5861
X10948Y6261
X10248Y5711
X16048Y3661
X12998Y10311
X12598Y10861
X12548Y9461
X17898Y3411
X16498Y5761
X10398Y3911
X14398Y2511
X11148Y28307
X3348Y22157
X3598Y21907
X3848Y21607
X4498Y21057
X4148Y21357
X5798Y19207
X5798Y18857
X6148Y18557
X6548Y18557
X5798Y21107
X10898Y25007
X10898Y24657
X10898Y24357
X13648Y25207
X13798Y24157
X20198Y21457
X20198Y20657
X20648Y21107
X20848Y21457
X20848Y20657
X14048Y22757
X14198Y22357
X14498Y21007
X17048Y24457
X13448Y19957
X8748Y16907
X8698Y22657
X6098Y24457
X6098Y24957
X4948Y23607
X6098Y23757
X11548Y24657
X11348Y22857
X11598Y22857
X11898Y22857
X6598Y23657
X13148Y20007
X13348Y20207
X10798Y19607
X11248Y19607
X11698Y19607
X12248Y19607
X12648Y19507
X8998Y19107
X9948Y19157
X10298Y19157
X8748Y17207
X9948Y17257
X10148Y17557
X10148Y17857
X10148Y18157
X14348Y21907
X13198Y21107
X6848Y22357
X6498Y21707
X8048Y21357
X8148Y20307
X7598Y18807
X8648Y20757
X10248Y28607
X10898Y28657
X8448Y22057
X7798Y19957
X7948Y18507
X17548Y22607
X16998Y23157
X5948Y22007
X5748Y24057
X9498Y24257
X9498Y24907
X11848Y24207
X4089Y27118
X4098Y26857
X4298Y26657
X2248Y26507
X1648Y27357
X1648Y25907
X11798Y21057
X9548Y20157
X9148Y20507
X7348Y19807
X5048Y19307
X5548Y22007
X8221Y26866
X8048Y26657
X7848Y26507
X15198Y27207
X15448Y27057
X15448Y27357
X19048Y27157
X18748Y27257
X18748Y26957
X16648Y20407
X10148Y21807
X21148Y26757
X21698Y27307
X21648Y26007
X13948Y17207
X19948Y17057
X19548Y18657
X18848Y22357
X19248Y22007
X16298Y17757
X10298Y26607
X10548Y26157
X10648Y27107
X11298Y22357
X10948Y22757
X10248Y22207
X16048Y20157
X12998Y26807
X12598Y27357
X12548Y25957
X17898Y19907
X16498Y22257
X10398Y20407
X14398Y19007
X38581Y22287
X35201Y22787
X27087Y29173
X29055Y23425
X34055Y26181
X37598Y27913
X38819Y29803
X35079Y29291
X37621Y24607
X37621Y25727
X37241Y25447
X37241Y24607
X36142Y27520
X32283Y26969
X30906Y26969
X32911Y31247
X29711Y29297
X28640Y24169
X37841Y22727
X31081Y23367
X31561Y23487
X36066Y29287
X37105Y29268
X32244Y27441
X26850Y26102
X26850Y24370
X26850Y23740
X39041Y29227
X36981Y28087
X32514Y28167
X26581Y27615
X38441Y29247
X36561Y28107
X33113Y28167
X26581Y26807
X38721Y28147
X33321Y23007
X34461Y23347
X38661Y27747
T02
X37240Y7740
X36370Y7740
X35290Y10830
X34840Y10800
X34390Y10800
X33940Y10800
X33490Y10800
X33040Y10800
X32500Y10800
X32530Y7400
T03
X6378Y2751
X7378Y2751
X6378Y3751
X7378Y3751
X7378Y4751
X6378Y4751
X6378Y19247
X7378Y19247
X6378Y20247
X7378Y20247
X7378Y21247
X6378Y21247
X29430Y25181
X30430Y25181
X29430Y26181
X30430Y26181
X30430Y27181
X29430Y27181
X33190Y8170
X33190Y9170
X34190Y8170
X34190Y9170
X35190Y9170
X35190Y8170
T04
X4198Y1361
X4198Y3361
X4198Y17857
X4198Y19857
T05
X21048Y3061
X22048Y2561
X21048Y2061
X22048Y1561
X21048Y19557
X22048Y19057
X21048Y18557
X22048Y18057
X26073Y28584
X26573Y29584
X27073Y28584
X27573Y29584
X36930Y20410
X36430Y19410
X35930Y20410
X35430Y19410
X28411Y2202
X29411Y1702
X28411Y1202
X29411Y702
X28401Y5431
X29401Y4931
X28401Y4431
X29401Y3931
X28409Y8502
X29409Y8002
X28409Y7502
X29409Y7002
X28398Y11612
X29398Y11112
X28398Y10612
X29398Y10112
X28415Y14661
X29415Y14161
X28415Y13661
X29415Y13161
X28424Y17689
X29424Y17189
X28424Y16689
X29424Y16189
X24868Y2202
X25868Y1702
X24868Y1202
X25868Y702
X24858Y5431
X25858Y4931
X24858Y4431
X25858Y3931
X24865Y8502
X25865Y8002
X24865Y7502
X25865Y7002
X24855Y11612
X25855Y11112
X24855Y10612
X25855Y10112
X24872Y14661
X25872Y14161
X24872Y13661
X25872Y13161
X24881Y17689
X25881Y17189
X24881Y16689
X25881Y16189
X32220Y6450
X33220Y6450
X34220Y6450
X36220Y6450
X37220Y6450
X35220Y450
X36220Y450
X37220Y450
X35220Y1450
X36220Y1450
X37220Y1450
X35220Y2450
X36220Y2450
X37220Y2450
X32220Y3450
X33220Y3450
X34220Y3450
X35220Y3450
X36220Y3450
X37220Y3450
X32220Y4450
X33220Y4450
X34220Y4450
X35220Y4450
X36220Y4450
X37220Y4450
X32220Y5450
X33220Y5450
X34220Y5450
X35220Y5450
X36220Y5450
X37220Y5450
X35220Y6450
T06
X38870Y6500
X38870Y5500
X38870Y4500
X38870Y3500
X38870Y7500
X38870Y8500
X38870Y9500
X38870Y10500
X38870Y2500
X38870Y1500
X38870Y11500
X38870Y500
X38870Y12500
X38870Y13500
X38870Y14500
X38870Y15500
X38870Y16500
X38870Y17500
X38870Y18500
X38870Y19500
X38870Y20500
T07
X10498Y13811
X11498Y13811
X12498Y13811
X10498Y30307
X11498Y30307
X12498Y30307
X24411Y22747
X24411Y23747
X24411Y24747
X24411Y25747
X24411Y26747
X24411Y27747
X24411Y28747
X24411Y29747
X34411Y30747
X35411Y30747
X36411Y30747
X37411Y30747
X38411Y30747
X33411Y30747
X32411Y30747
X31411Y30747
X30411Y30747
X29411Y30747
X28411Y30747
X27411Y30747
X26411Y30747
T08
X1798Y1961
X1798Y961
X798Y961
X798Y1961
X5398Y13061
X4398Y13061
X4398Y14061
X5398Y14061
X7798Y13061
X6798Y13061
X6798Y14061
X7798Y14061
X16398Y13061
X15398Y13061
X15398Y14061
X16398Y14061
X18848Y13061
X17848Y13061
X17848Y14061
X18848Y14061
X1798Y18457
X1798Y17457
X798Y17457
X798Y18457
X5398Y29557
X4398Y29557
X4398Y30557
X5398Y30557
X7798Y29557
X6798Y29557
X6798Y30557
X7798Y30557
X16398Y29557
X15398Y29557
X15398Y30557
X16398Y30557
X18848Y29557
X17848Y29557
X17848Y30557
X18848Y30557
X29394Y19808
X28394Y19808
X28394Y20808
X29394Y20808
X25851Y19808
X24851Y19808
X24851Y20808
X25851Y20808
T09
X33190Y14170
X33190Y15170
X34190Y15170
X34190Y14170
T10
X21770Y3570
X21770Y20066
X25563Y29306
X37440Y19689
X29133Y2712
X29123Y5940
X29130Y9011
X29120Y12121
X29136Y15170
X29146Y18198
X25589Y2712
X25579Y5940
X25586Y9011
X25576Y12121
X25593Y15170
X25602Y18198
T11
X33470Y19900
X33470Y1100
T12
X1022Y13948
X21809Y13948
X1022Y30444
X21809Y30444
M30
