G75*
G70*
%OFA0B0*%
%FSLAX24Y24*%
%IPPOS*%
%LPD*%
%AMOC8*
5,1,8,0,0,1.08239X$1,22.5*
%
%ADD10C,0.1191*%
%ADD11C,0.0100*%
%ADD12R,0.0538X0.0938*%
%ADD13R,0.1521X0.0970*%
%ADD14C,0.0665*%
%ADD15R,0.0665X0.0665*%
%ADD16R,0.0447X0.0437*%
%ADD17C,0.0621*%
%ADD18C,0.0661*%
%ADD19R,0.0598X0.0441*%
%ADD20R,0.0441X0.0441*%
D10*
X003105Y007902D03*
X021905Y007902D03*
D11*
X019665Y007752D02*
X019667Y007765D01*
X019673Y007777D01*
X019683Y007785D01*
X019695Y007791D01*
X019708Y007792D01*
X019721Y007789D01*
X019732Y007781D01*
X019740Y007771D01*
X019744Y007759D01*
X019744Y007745D01*
X019740Y007733D01*
X019732Y007723D01*
X019721Y007715D01*
X019708Y007712D01*
X019695Y007713D01*
X019683Y007719D01*
X019673Y007727D01*
X019667Y007739D01*
X019665Y007752D01*
X019665Y008302D02*
X019667Y008315D01*
X019673Y008327D01*
X019683Y008335D01*
X019695Y008341D01*
X019708Y008342D01*
X019721Y008339D01*
X019732Y008331D01*
X019740Y008321D01*
X019744Y008309D01*
X019744Y008295D01*
X019740Y008283D01*
X019732Y008273D01*
X019721Y008265D01*
X019708Y008262D01*
X019695Y008263D01*
X019683Y008269D01*
X019673Y008277D01*
X019667Y008289D01*
X019665Y008302D01*
X019015Y008452D02*
X019017Y008465D01*
X019023Y008477D01*
X019033Y008485D01*
X019045Y008491D01*
X019058Y008492D01*
X019071Y008489D01*
X019082Y008481D01*
X019090Y008471D01*
X019094Y008459D01*
X019094Y008445D01*
X019090Y008433D01*
X019082Y008423D01*
X019071Y008415D01*
X019058Y008412D01*
X019045Y008413D01*
X019033Y008419D01*
X019023Y008427D01*
X019017Y008439D01*
X019015Y008452D01*
X018565Y007252D02*
X018567Y007265D01*
X018573Y007277D01*
X018583Y007285D01*
X018595Y007291D01*
X018608Y007292D01*
X018621Y007289D01*
X018632Y007281D01*
X018640Y007271D01*
X018644Y007259D01*
X018644Y007245D01*
X018640Y007233D01*
X018632Y007223D01*
X018621Y007215D01*
X018608Y007212D01*
X018595Y007213D01*
X018583Y007219D01*
X018573Y007227D01*
X018567Y007239D01*
X018565Y007252D01*
X017265Y007152D02*
X017267Y007165D01*
X017273Y007177D01*
X017283Y007185D01*
X017295Y007191D01*
X017308Y007192D01*
X017321Y007189D01*
X017332Y007181D01*
X017340Y007171D01*
X017344Y007159D01*
X017344Y007145D01*
X017340Y007133D01*
X017332Y007123D01*
X017321Y007115D01*
X017308Y007112D01*
X017295Y007113D01*
X017283Y007119D01*
X017273Y007127D01*
X017267Y007139D01*
X017265Y007152D01*
X015965Y007552D02*
X015967Y007565D01*
X015973Y007577D01*
X015983Y007585D01*
X015995Y007591D01*
X016008Y007592D01*
X016021Y007589D01*
X016032Y007581D01*
X016040Y007571D01*
X016044Y007559D01*
X016044Y007545D01*
X016040Y007533D01*
X016032Y007523D01*
X016021Y007515D01*
X016008Y007512D01*
X015995Y007513D01*
X015983Y007519D01*
X015973Y007527D01*
X015967Y007539D01*
X015965Y007552D01*
X013965Y007752D02*
X013967Y007765D01*
X013973Y007777D01*
X013983Y007785D01*
X013995Y007791D01*
X014008Y007792D01*
X014021Y007789D01*
X014032Y007781D01*
X014040Y007771D01*
X014044Y007759D01*
X014044Y007745D01*
X014040Y007733D01*
X014032Y007723D01*
X014021Y007715D01*
X014008Y007712D01*
X013995Y007713D01*
X013983Y007719D01*
X013973Y007727D01*
X013967Y007739D01*
X013965Y007752D01*
X012615Y007752D02*
X012617Y007765D01*
X012623Y007777D01*
X012633Y007785D01*
X012645Y007791D01*
X012658Y007792D01*
X012671Y007789D01*
X012682Y007781D01*
X012690Y007771D01*
X012694Y007759D01*
X012694Y007745D01*
X012690Y007733D01*
X012682Y007723D01*
X012671Y007715D01*
X012658Y007712D01*
X012645Y007713D01*
X012633Y007719D01*
X012623Y007727D01*
X012617Y007739D01*
X012615Y007752D01*
X011365Y007702D02*
X011367Y007715D01*
X011373Y007727D01*
X011383Y007735D01*
X011395Y007741D01*
X011408Y007742D01*
X011421Y007739D01*
X011432Y007731D01*
X011440Y007721D01*
X011444Y007709D01*
X011444Y007695D01*
X011440Y007683D01*
X011432Y007673D01*
X011421Y007665D01*
X011408Y007662D01*
X011395Y007663D01*
X011383Y007669D01*
X011373Y007677D01*
X011367Y007689D01*
X011365Y007702D01*
X011365Y006952D02*
X011367Y006965D01*
X011373Y006977D01*
X011383Y006985D01*
X011395Y006991D01*
X011408Y006992D01*
X011421Y006989D01*
X011432Y006981D01*
X011440Y006971D01*
X011444Y006959D01*
X011444Y006945D01*
X011440Y006933D01*
X011432Y006923D01*
X011421Y006915D01*
X011408Y006912D01*
X011395Y006913D01*
X011383Y006919D01*
X011373Y006927D01*
X011367Y006939D01*
X011365Y006952D01*
X010365Y006902D02*
X010367Y006915D01*
X010373Y006927D01*
X010383Y006935D01*
X010395Y006941D01*
X010408Y006942D01*
X010421Y006939D01*
X010432Y006931D01*
X010440Y006921D01*
X010444Y006909D01*
X010444Y006895D01*
X010440Y006883D01*
X010432Y006873D01*
X010421Y006865D01*
X010408Y006862D01*
X010395Y006863D01*
X010383Y006869D01*
X010373Y006877D01*
X010367Y006889D01*
X010365Y006902D01*
X009265Y006652D02*
X009267Y006665D01*
X009273Y006677D01*
X009283Y006685D01*
X009295Y006691D01*
X009308Y006692D01*
X009321Y006689D01*
X009332Y006681D01*
X009340Y006671D01*
X009344Y006659D01*
X009344Y006645D01*
X009340Y006633D01*
X009332Y006623D01*
X009321Y006615D01*
X009308Y006612D01*
X009295Y006613D01*
X009283Y006619D01*
X009273Y006627D01*
X009267Y006639D01*
X009265Y006652D01*
X007665Y007502D02*
X007667Y007515D01*
X007673Y007527D01*
X007683Y007535D01*
X007695Y007541D01*
X007708Y007542D01*
X007721Y007539D01*
X007732Y007531D01*
X007740Y007521D01*
X007744Y007509D01*
X007744Y007495D01*
X007740Y007483D01*
X007732Y007473D01*
X007721Y007465D01*
X007708Y007462D01*
X007695Y007463D01*
X007683Y007469D01*
X007673Y007477D01*
X007667Y007489D01*
X007665Y007502D01*
X007665Y008002D02*
X007667Y008015D01*
X007673Y008027D01*
X007683Y008035D01*
X007695Y008041D01*
X007708Y008042D01*
X007721Y008039D01*
X007732Y008031D01*
X007740Y008021D01*
X007744Y008009D01*
X007744Y007995D01*
X007740Y007983D01*
X007732Y007973D01*
X007721Y007965D01*
X007708Y007962D01*
X007695Y007963D01*
X007683Y007969D01*
X007673Y007977D01*
X007667Y007989D01*
X007665Y008002D01*
X007715Y008552D02*
X007717Y008565D01*
X007723Y008577D01*
X007733Y008585D01*
X007745Y008591D01*
X007758Y008592D01*
X007771Y008589D01*
X007782Y008581D01*
X007790Y008571D01*
X007794Y008559D01*
X007794Y008545D01*
X007790Y008533D01*
X007782Y008523D01*
X007771Y008515D01*
X007758Y008512D01*
X007745Y008513D01*
X007733Y008519D01*
X007723Y008527D01*
X007717Y008539D01*
X007715Y008552D01*
X008115Y008552D02*
X008117Y008565D01*
X008123Y008577D01*
X008133Y008585D01*
X008145Y008591D01*
X008158Y008592D01*
X008171Y008589D01*
X008182Y008581D01*
X008190Y008571D01*
X008194Y008559D01*
X008194Y008545D01*
X008190Y008533D01*
X008182Y008523D01*
X008171Y008515D01*
X008158Y008512D01*
X008145Y008513D01*
X008133Y008519D01*
X008123Y008527D01*
X008117Y008539D01*
X008115Y008552D01*
X006065Y007802D02*
X006067Y007815D01*
X006073Y007827D01*
X006083Y007835D01*
X006095Y007841D01*
X006108Y007842D01*
X006121Y007839D01*
X006132Y007831D01*
X006140Y007821D01*
X006144Y007809D01*
X006144Y007795D01*
X006140Y007783D01*
X006132Y007773D01*
X006121Y007765D01*
X006108Y007762D01*
X006095Y007763D01*
X006083Y007769D01*
X006073Y007777D01*
X006067Y007789D01*
X006065Y007802D01*
X003765Y005502D02*
X003767Y005515D01*
X003773Y005527D01*
X003783Y005535D01*
X003795Y005541D01*
X003808Y005542D01*
X003821Y005539D01*
X003832Y005531D01*
X003840Y005521D01*
X003844Y005509D01*
X003844Y005495D01*
X003840Y005483D01*
X003832Y005473D01*
X003821Y005465D01*
X003808Y005462D01*
X003795Y005463D01*
X003783Y005469D01*
X003773Y005477D01*
X003767Y005489D01*
X003765Y005502D01*
X003265Y005502D02*
X003267Y005515D01*
X003273Y005527D01*
X003283Y005535D01*
X003295Y005541D01*
X003308Y005542D01*
X003321Y005539D01*
X003332Y005531D01*
X003340Y005521D01*
X003344Y005509D01*
X003344Y005495D01*
X003340Y005483D01*
X003332Y005473D01*
X003321Y005465D01*
X003308Y005462D01*
X003295Y005463D01*
X003283Y005469D01*
X003273Y005477D01*
X003267Y005489D01*
X003265Y005502D01*
X005215Y005152D02*
X005217Y005165D01*
X005223Y005177D01*
X005233Y005185D01*
X005245Y005191D01*
X005258Y005192D01*
X005271Y005189D01*
X005282Y005181D01*
X005290Y005171D01*
X005294Y005159D01*
X005294Y005145D01*
X005290Y005133D01*
X005282Y005123D01*
X005271Y005115D01*
X005258Y005112D01*
X005245Y005113D01*
X005233Y005119D01*
X005223Y005127D01*
X005217Y005139D01*
X005215Y005152D01*
X005765Y005002D02*
X005767Y005015D01*
X005773Y005027D01*
X005783Y005035D01*
X005795Y005041D01*
X005808Y005042D01*
X005821Y005039D01*
X005832Y005031D01*
X005840Y005021D01*
X005844Y005009D01*
X005844Y004995D01*
X005840Y004983D01*
X005832Y004973D01*
X005821Y004965D01*
X005808Y004962D01*
X005795Y004963D01*
X005783Y004969D01*
X005773Y004977D01*
X005767Y004989D01*
X005765Y005002D01*
X005865Y004002D02*
X005867Y004015D01*
X005873Y004027D01*
X005883Y004035D01*
X005895Y004041D01*
X005908Y004042D01*
X005921Y004039D01*
X005932Y004031D01*
X005940Y004021D01*
X005944Y004009D01*
X005944Y003995D01*
X005940Y003983D01*
X005932Y003973D01*
X005921Y003965D01*
X005908Y003962D01*
X005895Y003963D01*
X005883Y003969D01*
X005873Y003977D01*
X005867Y003989D01*
X005865Y004002D01*
X012465Y004402D02*
X012467Y004415D01*
X012473Y004427D01*
X012483Y004435D01*
X012495Y004441D01*
X012508Y004442D01*
X012521Y004439D01*
X012532Y004431D01*
X012540Y004421D01*
X012544Y004409D01*
X012544Y004395D01*
X012540Y004383D01*
X012532Y004373D01*
X012521Y004365D01*
X012508Y004362D01*
X012495Y004363D01*
X012483Y004369D01*
X012473Y004377D01*
X012467Y004389D01*
X012465Y004402D01*
X012915Y004402D02*
X012917Y004415D01*
X012923Y004427D01*
X012933Y004435D01*
X012945Y004441D01*
X012958Y004442D01*
X012971Y004439D01*
X012982Y004431D01*
X012990Y004421D01*
X012994Y004409D01*
X012994Y004395D01*
X012990Y004383D01*
X012982Y004373D01*
X012971Y004365D01*
X012958Y004362D01*
X012945Y004363D01*
X012933Y004369D01*
X012923Y004377D01*
X012917Y004389D01*
X012915Y004402D01*
X013365Y004402D02*
X013367Y004415D01*
X013373Y004427D01*
X013383Y004435D01*
X013395Y004441D01*
X013408Y004442D01*
X013421Y004439D01*
X013432Y004431D01*
X013440Y004421D01*
X013444Y004409D01*
X013444Y004395D01*
X013440Y004383D01*
X013432Y004373D01*
X013421Y004365D01*
X013408Y004362D01*
X013395Y004363D01*
X013383Y004369D01*
X013373Y004377D01*
X013367Y004389D01*
X013365Y004402D01*
X014865Y003952D02*
X014867Y003965D01*
X014873Y003977D01*
X014883Y003985D01*
X014895Y003991D01*
X014908Y003992D01*
X014921Y003989D01*
X014932Y003981D01*
X014940Y003971D01*
X014944Y003959D01*
X014944Y003945D01*
X014940Y003933D01*
X014932Y003923D01*
X014921Y003915D01*
X014908Y003912D01*
X014895Y003913D01*
X014883Y003919D01*
X014873Y003927D01*
X014867Y003939D01*
X014865Y003952D01*
X015415Y005402D02*
X015417Y005415D01*
X015423Y005427D01*
X015433Y005435D01*
X015445Y005441D01*
X015458Y005442D01*
X015471Y005439D01*
X015482Y005431D01*
X015490Y005421D01*
X015494Y005409D01*
X015494Y005395D01*
X015490Y005383D01*
X015482Y005373D01*
X015471Y005365D01*
X015458Y005362D01*
X015445Y005363D01*
X015433Y005369D01*
X015423Y005377D01*
X015417Y005389D01*
X015415Y005402D01*
X015915Y005402D02*
X015917Y005415D01*
X015923Y005427D01*
X015933Y005435D01*
X015945Y005441D01*
X015958Y005442D01*
X015971Y005439D01*
X015982Y005431D01*
X015990Y005421D01*
X015994Y005409D01*
X015994Y005395D01*
X015990Y005383D01*
X015982Y005373D01*
X015971Y005365D01*
X015958Y005362D01*
X015945Y005363D01*
X015933Y005369D01*
X015923Y005377D01*
X015917Y005389D01*
X015915Y005402D01*
X014165Y005952D02*
X014167Y005965D01*
X014173Y005977D01*
X014183Y005985D01*
X014195Y005991D01*
X014208Y005992D01*
X014221Y005989D01*
X014232Y005981D01*
X014240Y005971D01*
X014244Y005959D01*
X014244Y005945D01*
X014240Y005933D01*
X014232Y005923D01*
X014221Y005915D01*
X014208Y005912D01*
X014195Y005913D01*
X014183Y005919D01*
X014173Y005927D01*
X014167Y005939D01*
X014165Y005952D01*
X013165Y006252D02*
X013167Y006265D01*
X013173Y006277D01*
X013183Y006285D01*
X013195Y006291D01*
X013208Y006292D01*
X013221Y006289D01*
X013232Y006281D01*
X013240Y006271D01*
X013244Y006259D01*
X013244Y006245D01*
X013240Y006233D01*
X013232Y006223D01*
X013221Y006215D01*
X013208Y006212D01*
X013195Y006213D01*
X013183Y006219D01*
X013173Y006227D01*
X013167Y006239D01*
X013165Y006252D01*
X012715Y006252D02*
X012717Y006265D01*
X012723Y006277D01*
X012733Y006285D01*
X012745Y006291D01*
X012758Y006292D01*
X012771Y006289D01*
X012782Y006281D01*
X012790Y006271D01*
X012794Y006259D01*
X012794Y006245D01*
X012790Y006233D01*
X012782Y006223D01*
X012771Y006215D01*
X012758Y006212D01*
X012745Y006213D01*
X012733Y006219D01*
X012723Y006227D01*
X012717Y006239D01*
X012715Y006252D01*
X012515Y006602D02*
X012517Y006615D01*
X012523Y006627D01*
X012533Y006635D01*
X012545Y006641D01*
X012558Y006642D01*
X012571Y006639D01*
X012582Y006631D01*
X012590Y006621D01*
X012594Y006609D01*
X012594Y006595D01*
X012590Y006583D01*
X012582Y006573D01*
X012571Y006565D01*
X012558Y006562D01*
X012545Y006563D01*
X012533Y006569D01*
X012523Y006577D01*
X012517Y006589D01*
X012515Y006602D01*
X012965Y006602D02*
X012967Y006615D01*
X012973Y006627D01*
X012983Y006635D01*
X012995Y006641D01*
X013008Y006642D01*
X013021Y006639D01*
X013032Y006631D01*
X013040Y006621D01*
X013044Y006609D01*
X013044Y006595D01*
X013040Y006583D01*
X013032Y006573D01*
X013021Y006565D01*
X013008Y006562D01*
X012995Y006563D01*
X012983Y006569D01*
X012973Y006577D01*
X012967Y006589D01*
X012965Y006602D01*
X013415Y006602D02*
X013417Y006615D01*
X013423Y006627D01*
X013433Y006635D01*
X013445Y006641D01*
X013458Y006642D01*
X013471Y006639D01*
X013482Y006631D01*
X013490Y006621D01*
X013494Y006609D01*
X013494Y006595D01*
X013490Y006583D01*
X013482Y006573D01*
X013471Y006565D01*
X013458Y006562D01*
X013445Y006563D01*
X013433Y006569D01*
X013423Y006577D01*
X013417Y006589D01*
X013415Y006602D01*
X013165Y005352D02*
X013167Y005365D01*
X013173Y005377D01*
X013183Y005385D01*
X013195Y005391D01*
X013208Y005392D01*
X013221Y005389D01*
X013232Y005381D01*
X013240Y005371D01*
X013244Y005359D01*
X013244Y005345D01*
X013240Y005333D01*
X013232Y005323D01*
X013221Y005315D01*
X013208Y005312D01*
X013195Y005313D01*
X013183Y005319D01*
X013173Y005327D01*
X013167Y005339D01*
X013165Y005352D01*
X013865Y005402D02*
X013867Y005415D01*
X013873Y005427D01*
X013883Y005435D01*
X013895Y005441D01*
X013908Y005442D01*
X013921Y005439D01*
X013932Y005431D01*
X013940Y005421D01*
X013944Y005409D01*
X013944Y005395D01*
X013940Y005383D01*
X013932Y005373D01*
X013921Y005365D01*
X013908Y005362D01*
X013895Y005363D01*
X013883Y005369D01*
X013873Y005377D01*
X013867Y005389D01*
X013865Y005402D01*
X017015Y006352D02*
X017017Y006365D01*
X017023Y006377D01*
X017033Y006385D01*
X017045Y006391D01*
X017058Y006392D01*
X017071Y006389D01*
X017082Y006381D01*
X017090Y006371D01*
X017094Y006359D01*
X017094Y006345D01*
X017090Y006333D01*
X017082Y006323D01*
X017071Y006315D01*
X017058Y006312D01*
X017045Y006313D01*
X017033Y006319D01*
X017023Y006327D01*
X017017Y006339D01*
X017015Y006352D01*
X018565Y006402D02*
X018567Y006415D01*
X018573Y006427D01*
X018583Y006435D01*
X018595Y006441D01*
X018608Y006442D01*
X018621Y006439D01*
X018632Y006431D01*
X018640Y006421D01*
X018644Y006409D01*
X018644Y006395D01*
X018640Y006383D01*
X018632Y006373D01*
X018621Y006365D01*
X018608Y006362D01*
X018595Y006363D01*
X018583Y006369D01*
X018573Y006377D01*
X018567Y006389D01*
X018565Y006402D01*
X019365Y006302D02*
X019367Y006315D01*
X019373Y006327D01*
X019383Y006335D01*
X019395Y006341D01*
X019408Y006342D01*
X019421Y006339D01*
X019432Y006331D01*
X019440Y006321D01*
X019444Y006309D01*
X019444Y006295D01*
X019440Y006283D01*
X019432Y006273D01*
X019421Y006265D01*
X019408Y006262D01*
X019395Y006263D01*
X019383Y006269D01*
X019373Y006277D01*
X019367Y006289D01*
X019365Y006302D01*
X018215Y005002D02*
X018217Y005015D01*
X018223Y005027D01*
X018233Y005035D01*
X018245Y005041D01*
X018258Y005042D01*
X018271Y005039D01*
X018282Y005031D01*
X018290Y005021D01*
X018294Y005009D01*
X018294Y004995D01*
X018290Y004983D01*
X018282Y004973D01*
X018271Y004965D01*
X018258Y004962D01*
X018245Y004963D01*
X018233Y004969D01*
X018223Y004977D01*
X018217Y004989D01*
X018215Y005002D01*
D12*
X004867Y003821D03*
X003957Y003821D03*
X003047Y003821D03*
D13*
X003957Y006261D03*
D14*
X002505Y002502D03*
X003505Y002502D03*
X004505Y002502D03*
X005505Y002502D03*
X006505Y002502D03*
X007505Y002502D03*
X008505Y002502D03*
X009505Y002502D03*
X010505Y002502D03*
X011505Y002502D03*
X012505Y002502D03*
X013505Y002502D03*
X014505Y002502D03*
X015505Y002502D03*
X016505Y002502D03*
X017505Y002502D03*
X018505Y002502D03*
X019505Y002502D03*
X020505Y002502D03*
X021505Y002502D03*
X022505Y002502D03*
X022405Y003952D03*
X021405Y003952D03*
X021405Y004952D03*
X022405Y004952D03*
X021405Y005952D03*
D15*
X022405Y005952D03*
D16*
X008305Y007218D03*
X008305Y007887D03*
D17*
X008855Y005602D03*
X007855Y005102D03*
X008855Y004602D03*
X007855Y004102D03*
D18*
X008134Y006112D03*
D19*
X017422Y004526D03*
X018288Y004152D03*
X017422Y003778D03*
D20*
X016140Y006002D03*
X015471Y006002D03*
M02*
