%
M48
M72
T01C0.0138
T02C0.0354
T03C0.0394
T04C0.0591
T05C0.1063
%
T01
X10100Y3952
X11600Y4402
X12050Y4402
X12500Y4402
X11800Y5352
X11100Y5402
X10800Y5952
X11800Y6252
X12250Y6252
X12450Y6602
X12000Y6602
X11550Y6602
X13600Y6952
X14600Y6902
X15700Y6652
X17300Y7502
X17300Y8002
X17250Y8552
X16850Y8552
X18900Y7802
X13600Y7702
X12350Y7752
X11000Y7752
X9000Y7552
X7700Y7152
X6400Y7252
X5300Y7752
X5300Y8302
X5950Y8452
X6400Y6402
X5600Y6302
X7950Y6352
X9050Y5402
X9550Y5402
X6750Y5002
X19100Y4002
X19200Y5002
X19750Y5152
X21200Y5502
X21700Y5502
T02
X17150Y5102
X16150Y4602
X17150Y4102
X16150Y5602
T03
X2500Y2502
X3500Y2502
X4500Y2502
X5500Y2502
X6500Y2502
X7500Y2502
X8500Y2502
X9500Y2502
X10500Y2502
X11500Y2502
X12500Y2502
X13500Y2502
X14500Y2502
X15500Y2502
X16500Y2502
X17500Y2502
X18500Y2502
X19500Y2502
X20500Y2502
X21500Y2502
X22500Y2502
X3600Y3952
X2600Y3952
X2600Y4952
X3600Y4952
X3600Y5952
X2600Y5952
T04
X16871Y6112
T05
X21900Y7902
X3100Y7902
M30
