G75*
G70*
%OFA0B0*%
%FSLAX24Y24*%
%IPPOS*%
%LPD*%
%AMOC8*
5,1,8,0,0,1.08239X$1,22.5*
%
%ADD10C,0.1191*%
%ADD11C,0.0100*%
%ADD12R,0.0737X0.0265*%
%ADD13R,0.0531X0.0175*%
%ADD14R,0.0529X0.0163*%
%ADD15R,0.0441X0.0441*%
%ADD16R,0.0220X0.0614*%
%ADD17R,0.0614X0.0220*%
%ADD18R,0.0437X0.0447*%
%ADD19C,0.0665*%
%ADD20R,0.0665X0.0665*%
%ADD21C,0.0621*%
%ADD22C,0.0661*%
%ADD23R,0.0775X0.0617*%
%ADD24R,0.1409X0.0661*%
%ADD25R,0.0617X0.1129*%
%ADD26R,0.1270X0.1120*%
%ADD27R,0.0448X0.0548*%
D10*
X003100Y007902D03*
X021900Y007902D03*
D11*
X018860Y007802D02*
X018862Y007815D01*
X018868Y007827D01*
X018878Y007835D01*
X018890Y007841D01*
X018903Y007842D01*
X018916Y007839D01*
X018927Y007831D01*
X018935Y007821D01*
X018939Y007809D01*
X018939Y007795D01*
X018935Y007783D01*
X018927Y007773D01*
X018916Y007765D01*
X018903Y007762D01*
X018890Y007763D01*
X018878Y007769D01*
X018868Y007777D01*
X018862Y007789D01*
X018860Y007802D01*
X017260Y008002D02*
X017262Y008015D01*
X017268Y008027D01*
X017278Y008035D01*
X017290Y008041D01*
X017303Y008042D01*
X017316Y008039D01*
X017327Y008031D01*
X017335Y008021D01*
X017339Y008009D01*
X017339Y007995D01*
X017335Y007983D01*
X017327Y007973D01*
X017316Y007965D01*
X017303Y007962D01*
X017290Y007963D01*
X017278Y007969D01*
X017268Y007977D01*
X017262Y007989D01*
X017260Y008002D01*
X017260Y007502D02*
X017262Y007515D01*
X017268Y007527D01*
X017278Y007535D01*
X017290Y007541D01*
X017303Y007542D01*
X017316Y007539D01*
X017327Y007531D01*
X017335Y007521D01*
X017339Y007509D01*
X017339Y007495D01*
X017335Y007483D01*
X017327Y007473D01*
X017316Y007465D01*
X017303Y007462D01*
X017290Y007463D01*
X017278Y007469D01*
X017268Y007477D01*
X017262Y007489D01*
X017260Y007502D01*
X015660Y006652D02*
X015662Y006665D01*
X015668Y006677D01*
X015678Y006685D01*
X015690Y006691D01*
X015703Y006692D01*
X015716Y006689D01*
X015727Y006681D01*
X015735Y006671D01*
X015739Y006659D01*
X015739Y006645D01*
X015735Y006633D01*
X015727Y006623D01*
X015716Y006615D01*
X015703Y006612D01*
X015690Y006613D01*
X015678Y006619D01*
X015668Y006627D01*
X015662Y006639D01*
X015660Y006652D01*
X014560Y006902D02*
X014562Y006915D01*
X014568Y006927D01*
X014578Y006935D01*
X014590Y006941D01*
X014603Y006942D01*
X014616Y006939D01*
X014627Y006931D01*
X014635Y006921D01*
X014639Y006909D01*
X014639Y006895D01*
X014635Y006883D01*
X014627Y006873D01*
X014616Y006865D01*
X014603Y006862D01*
X014590Y006863D01*
X014578Y006869D01*
X014568Y006877D01*
X014562Y006889D01*
X014560Y006902D01*
X013560Y006952D02*
X013562Y006965D01*
X013568Y006977D01*
X013578Y006985D01*
X013590Y006991D01*
X013603Y006992D01*
X013616Y006989D01*
X013627Y006981D01*
X013635Y006971D01*
X013639Y006959D01*
X013639Y006945D01*
X013635Y006933D01*
X013627Y006923D01*
X013616Y006915D01*
X013603Y006912D01*
X013590Y006913D01*
X013578Y006919D01*
X013568Y006927D01*
X013562Y006939D01*
X013560Y006952D01*
X012410Y006602D02*
X012412Y006615D01*
X012418Y006627D01*
X012428Y006635D01*
X012440Y006641D01*
X012453Y006642D01*
X012466Y006639D01*
X012477Y006631D01*
X012485Y006621D01*
X012489Y006609D01*
X012489Y006595D01*
X012485Y006583D01*
X012477Y006573D01*
X012466Y006565D01*
X012453Y006562D01*
X012440Y006563D01*
X012428Y006569D01*
X012418Y006577D01*
X012412Y006589D01*
X012410Y006602D01*
X011960Y006602D02*
X011962Y006615D01*
X011968Y006627D01*
X011978Y006635D01*
X011990Y006641D01*
X012003Y006642D01*
X012016Y006639D01*
X012027Y006631D01*
X012035Y006621D01*
X012039Y006609D01*
X012039Y006595D01*
X012035Y006583D01*
X012027Y006573D01*
X012016Y006565D01*
X012003Y006562D01*
X011990Y006563D01*
X011978Y006569D01*
X011968Y006577D01*
X011962Y006589D01*
X011960Y006602D01*
X011510Y006602D02*
X011512Y006615D01*
X011518Y006627D01*
X011528Y006635D01*
X011540Y006641D01*
X011553Y006642D01*
X011566Y006639D01*
X011577Y006631D01*
X011585Y006621D01*
X011589Y006609D01*
X011589Y006595D01*
X011585Y006583D01*
X011577Y006573D01*
X011566Y006565D01*
X011553Y006562D01*
X011540Y006563D01*
X011528Y006569D01*
X011518Y006577D01*
X011512Y006589D01*
X011510Y006602D01*
X011760Y006252D02*
X011762Y006265D01*
X011768Y006277D01*
X011778Y006285D01*
X011790Y006291D01*
X011803Y006292D01*
X011816Y006289D01*
X011827Y006281D01*
X011835Y006271D01*
X011839Y006259D01*
X011839Y006245D01*
X011835Y006233D01*
X011827Y006223D01*
X011816Y006215D01*
X011803Y006212D01*
X011790Y006213D01*
X011778Y006219D01*
X011768Y006227D01*
X011762Y006239D01*
X011760Y006252D01*
X012210Y006252D02*
X012212Y006265D01*
X012218Y006277D01*
X012228Y006285D01*
X012240Y006291D01*
X012253Y006292D01*
X012266Y006289D01*
X012277Y006281D01*
X012285Y006271D01*
X012289Y006259D01*
X012289Y006245D01*
X012285Y006233D01*
X012277Y006223D01*
X012266Y006215D01*
X012253Y006212D01*
X012240Y006213D01*
X012228Y006219D01*
X012218Y006227D01*
X012212Y006239D01*
X012210Y006252D01*
X010760Y005952D02*
X010762Y005965D01*
X010768Y005977D01*
X010778Y005985D01*
X010790Y005991D01*
X010803Y005992D01*
X010816Y005989D01*
X010827Y005981D01*
X010835Y005971D01*
X010839Y005959D01*
X010839Y005945D01*
X010835Y005933D01*
X010827Y005923D01*
X010816Y005915D01*
X010803Y005912D01*
X010790Y005913D01*
X010778Y005919D01*
X010768Y005927D01*
X010762Y005939D01*
X010760Y005952D01*
X011060Y005402D02*
X011062Y005415D01*
X011068Y005427D01*
X011078Y005435D01*
X011090Y005441D01*
X011103Y005442D01*
X011116Y005439D01*
X011127Y005431D01*
X011135Y005421D01*
X011139Y005409D01*
X011139Y005395D01*
X011135Y005383D01*
X011127Y005373D01*
X011116Y005365D01*
X011103Y005362D01*
X011090Y005363D01*
X011078Y005369D01*
X011068Y005377D01*
X011062Y005389D01*
X011060Y005402D01*
X011760Y005352D02*
X011762Y005365D01*
X011768Y005377D01*
X011778Y005385D01*
X011790Y005391D01*
X011803Y005392D01*
X011816Y005389D01*
X011827Y005381D01*
X011835Y005371D01*
X011839Y005359D01*
X011839Y005345D01*
X011835Y005333D01*
X011827Y005323D01*
X011816Y005315D01*
X011803Y005312D01*
X011790Y005313D01*
X011778Y005319D01*
X011768Y005327D01*
X011762Y005339D01*
X011760Y005352D01*
X009510Y005402D02*
X009512Y005415D01*
X009518Y005427D01*
X009528Y005435D01*
X009540Y005441D01*
X009553Y005442D01*
X009566Y005439D01*
X009577Y005431D01*
X009585Y005421D01*
X009589Y005409D01*
X009589Y005395D01*
X009585Y005383D01*
X009577Y005373D01*
X009566Y005365D01*
X009553Y005362D01*
X009540Y005363D01*
X009528Y005369D01*
X009518Y005377D01*
X009512Y005389D01*
X009510Y005402D01*
X009010Y005402D02*
X009012Y005415D01*
X009018Y005427D01*
X009028Y005435D01*
X009040Y005441D01*
X009053Y005442D01*
X009066Y005439D01*
X009077Y005431D01*
X009085Y005421D01*
X009089Y005409D01*
X009089Y005395D01*
X009085Y005383D01*
X009077Y005373D01*
X009066Y005365D01*
X009053Y005362D01*
X009040Y005363D01*
X009028Y005369D01*
X009018Y005377D01*
X009012Y005389D01*
X009010Y005402D01*
X007910Y006352D02*
X007912Y006365D01*
X007918Y006377D01*
X007928Y006385D01*
X007940Y006391D01*
X007953Y006392D01*
X007966Y006389D01*
X007977Y006381D01*
X007985Y006371D01*
X007989Y006359D01*
X007989Y006345D01*
X007985Y006333D01*
X007977Y006323D01*
X007966Y006315D01*
X007953Y006312D01*
X007940Y006313D01*
X007928Y006319D01*
X007918Y006327D01*
X007912Y006339D01*
X007910Y006352D01*
X006360Y006402D02*
X006362Y006415D01*
X006368Y006427D01*
X006378Y006435D01*
X006390Y006441D01*
X006403Y006442D01*
X006416Y006439D01*
X006427Y006431D01*
X006435Y006421D01*
X006439Y006409D01*
X006439Y006395D01*
X006435Y006383D01*
X006427Y006373D01*
X006416Y006365D01*
X006403Y006362D01*
X006390Y006363D01*
X006378Y006369D01*
X006368Y006377D01*
X006362Y006389D01*
X006360Y006402D01*
X005560Y006302D02*
X005562Y006315D01*
X005568Y006327D01*
X005578Y006335D01*
X005590Y006341D01*
X005603Y006342D01*
X005616Y006339D01*
X005627Y006331D01*
X005635Y006321D01*
X005639Y006309D01*
X005639Y006295D01*
X005635Y006283D01*
X005627Y006273D01*
X005616Y006265D01*
X005603Y006262D01*
X005590Y006263D01*
X005578Y006269D01*
X005568Y006277D01*
X005562Y006289D01*
X005560Y006302D01*
X007660Y007152D02*
X007662Y007165D01*
X007668Y007177D01*
X007678Y007185D01*
X007690Y007191D01*
X007703Y007192D01*
X007716Y007189D01*
X007727Y007181D01*
X007735Y007171D01*
X007739Y007159D01*
X007739Y007145D01*
X007735Y007133D01*
X007727Y007123D01*
X007716Y007115D01*
X007703Y007112D01*
X007690Y007113D01*
X007678Y007119D01*
X007668Y007127D01*
X007662Y007139D01*
X007660Y007152D01*
X006360Y007252D02*
X006362Y007265D01*
X006368Y007277D01*
X006378Y007285D01*
X006390Y007291D01*
X006403Y007292D01*
X006416Y007289D01*
X006427Y007281D01*
X006435Y007271D01*
X006439Y007259D01*
X006439Y007245D01*
X006435Y007233D01*
X006427Y007223D01*
X006416Y007215D01*
X006403Y007212D01*
X006390Y007213D01*
X006378Y007219D01*
X006368Y007227D01*
X006362Y007239D01*
X006360Y007252D01*
X005260Y007752D02*
X005262Y007765D01*
X005268Y007777D01*
X005278Y007785D01*
X005290Y007791D01*
X005303Y007792D01*
X005316Y007789D01*
X005327Y007781D01*
X005335Y007771D01*
X005339Y007759D01*
X005339Y007745D01*
X005335Y007733D01*
X005327Y007723D01*
X005316Y007715D01*
X005303Y007712D01*
X005290Y007713D01*
X005278Y007719D01*
X005268Y007727D01*
X005262Y007739D01*
X005260Y007752D01*
X005260Y008302D02*
X005262Y008315D01*
X005268Y008327D01*
X005278Y008335D01*
X005290Y008341D01*
X005303Y008342D01*
X005316Y008339D01*
X005327Y008331D01*
X005335Y008321D01*
X005339Y008309D01*
X005339Y008295D01*
X005335Y008283D01*
X005327Y008273D01*
X005316Y008265D01*
X005303Y008262D01*
X005290Y008263D01*
X005278Y008269D01*
X005268Y008277D01*
X005262Y008289D01*
X005260Y008302D01*
X005910Y008452D02*
X005912Y008465D01*
X005918Y008477D01*
X005928Y008485D01*
X005940Y008491D01*
X005953Y008492D01*
X005966Y008489D01*
X005977Y008481D01*
X005985Y008471D01*
X005989Y008459D01*
X005989Y008445D01*
X005985Y008433D01*
X005977Y008423D01*
X005966Y008415D01*
X005953Y008412D01*
X005940Y008413D01*
X005928Y008419D01*
X005918Y008427D01*
X005912Y008439D01*
X005910Y008452D01*
X008960Y007552D02*
X008962Y007565D01*
X008968Y007577D01*
X008978Y007585D01*
X008990Y007591D01*
X009003Y007592D01*
X009016Y007589D01*
X009027Y007581D01*
X009035Y007571D01*
X009039Y007559D01*
X009039Y007545D01*
X009035Y007533D01*
X009027Y007523D01*
X009016Y007515D01*
X009003Y007512D01*
X008990Y007513D01*
X008978Y007519D01*
X008968Y007527D01*
X008962Y007539D01*
X008960Y007552D01*
X010960Y007752D02*
X010962Y007765D01*
X010968Y007777D01*
X010978Y007785D01*
X010990Y007791D01*
X011003Y007792D01*
X011016Y007789D01*
X011027Y007781D01*
X011035Y007771D01*
X011039Y007759D01*
X011039Y007745D01*
X011035Y007733D01*
X011027Y007723D01*
X011016Y007715D01*
X011003Y007712D01*
X010990Y007713D01*
X010978Y007719D01*
X010968Y007727D01*
X010962Y007739D01*
X010960Y007752D01*
X012310Y007752D02*
X012312Y007765D01*
X012318Y007777D01*
X012328Y007785D01*
X012340Y007791D01*
X012353Y007792D01*
X012366Y007789D01*
X012377Y007781D01*
X012385Y007771D01*
X012389Y007759D01*
X012389Y007745D01*
X012385Y007733D01*
X012377Y007723D01*
X012366Y007715D01*
X012353Y007712D01*
X012340Y007713D01*
X012328Y007719D01*
X012318Y007727D01*
X012312Y007739D01*
X012310Y007752D01*
X013560Y007702D02*
X013562Y007715D01*
X013568Y007727D01*
X013578Y007735D01*
X013590Y007741D01*
X013603Y007742D01*
X013616Y007739D01*
X013627Y007731D01*
X013635Y007721D01*
X013639Y007709D01*
X013639Y007695D01*
X013635Y007683D01*
X013627Y007673D01*
X013616Y007665D01*
X013603Y007662D01*
X013590Y007663D01*
X013578Y007669D01*
X013568Y007677D01*
X013562Y007689D01*
X013560Y007702D01*
X016810Y008552D02*
X016812Y008565D01*
X016818Y008577D01*
X016828Y008585D01*
X016840Y008591D01*
X016853Y008592D01*
X016866Y008589D01*
X016877Y008581D01*
X016885Y008571D01*
X016889Y008559D01*
X016889Y008545D01*
X016885Y008533D01*
X016877Y008523D01*
X016866Y008515D01*
X016853Y008512D01*
X016840Y008513D01*
X016828Y008519D01*
X016818Y008527D01*
X016812Y008539D01*
X016810Y008552D01*
X017210Y008552D02*
X017212Y008565D01*
X017218Y008577D01*
X017228Y008585D01*
X017240Y008591D01*
X017253Y008592D01*
X017266Y008589D01*
X017277Y008581D01*
X017285Y008571D01*
X017289Y008559D01*
X017289Y008545D01*
X017285Y008533D01*
X017277Y008523D01*
X017266Y008515D01*
X017253Y008512D01*
X017240Y008513D01*
X017228Y008519D01*
X017218Y008527D01*
X017212Y008539D01*
X017210Y008552D01*
X021160Y005502D02*
X021162Y005515D01*
X021168Y005527D01*
X021178Y005535D01*
X021190Y005541D01*
X021203Y005542D01*
X021216Y005539D01*
X021227Y005531D01*
X021235Y005521D01*
X021239Y005509D01*
X021239Y005495D01*
X021235Y005483D01*
X021227Y005473D01*
X021216Y005465D01*
X021203Y005462D01*
X021190Y005463D01*
X021178Y005469D01*
X021168Y005477D01*
X021162Y005489D01*
X021160Y005502D01*
X021660Y005502D02*
X021662Y005515D01*
X021668Y005527D01*
X021678Y005535D01*
X021690Y005541D01*
X021703Y005542D01*
X021716Y005539D01*
X021727Y005531D01*
X021735Y005521D01*
X021739Y005509D01*
X021739Y005495D01*
X021735Y005483D01*
X021727Y005473D01*
X021716Y005465D01*
X021703Y005462D01*
X021690Y005463D01*
X021678Y005469D01*
X021668Y005477D01*
X021662Y005489D01*
X021660Y005502D01*
X019710Y005152D02*
X019712Y005165D01*
X019718Y005177D01*
X019728Y005185D01*
X019740Y005191D01*
X019753Y005192D01*
X019766Y005189D01*
X019777Y005181D01*
X019785Y005171D01*
X019789Y005159D01*
X019789Y005145D01*
X019785Y005133D01*
X019777Y005123D01*
X019766Y005115D01*
X019753Y005112D01*
X019740Y005113D01*
X019728Y005119D01*
X019718Y005127D01*
X019712Y005139D01*
X019710Y005152D01*
X019160Y005002D02*
X019162Y005015D01*
X019168Y005027D01*
X019178Y005035D01*
X019190Y005041D01*
X019203Y005042D01*
X019216Y005039D01*
X019227Y005031D01*
X019235Y005021D01*
X019239Y005009D01*
X019239Y004995D01*
X019235Y004983D01*
X019227Y004973D01*
X019216Y004965D01*
X019203Y004962D01*
X019190Y004963D01*
X019178Y004969D01*
X019168Y004977D01*
X019162Y004989D01*
X019160Y005002D01*
X019060Y004002D02*
X019062Y004015D01*
X019068Y004027D01*
X019078Y004035D01*
X019090Y004041D01*
X019103Y004042D01*
X019116Y004039D01*
X019127Y004031D01*
X019135Y004021D01*
X019139Y004009D01*
X019139Y003995D01*
X019135Y003983D01*
X019127Y003973D01*
X019116Y003965D01*
X019103Y003962D01*
X019090Y003963D01*
X019078Y003969D01*
X019068Y003977D01*
X019062Y003989D01*
X019060Y004002D01*
X012460Y004402D02*
X012462Y004415D01*
X012468Y004427D01*
X012478Y004435D01*
X012490Y004441D01*
X012503Y004442D01*
X012516Y004439D01*
X012527Y004431D01*
X012535Y004421D01*
X012539Y004409D01*
X012539Y004395D01*
X012535Y004383D01*
X012527Y004373D01*
X012516Y004365D01*
X012503Y004362D01*
X012490Y004363D01*
X012478Y004369D01*
X012468Y004377D01*
X012462Y004389D01*
X012460Y004402D01*
X012010Y004402D02*
X012012Y004415D01*
X012018Y004427D01*
X012028Y004435D01*
X012040Y004441D01*
X012053Y004442D01*
X012066Y004439D01*
X012077Y004431D01*
X012085Y004421D01*
X012089Y004409D01*
X012089Y004395D01*
X012085Y004383D01*
X012077Y004373D01*
X012066Y004365D01*
X012053Y004362D01*
X012040Y004363D01*
X012028Y004369D01*
X012018Y004377D01*
X012012Y004389D01*
X012010Y004402D01*
X011560Y004402D02*
X011562Y004415D01*
X011568Y004427D01*
X011578Y004435D01*
X011590Y004441D01*
X011603Y004442D01*
X011616Y004439D01*
X011627Y004431D01*
X011635Y004421D01*
X011639Y004409D01*
X011639Y004395D01*
X011635Y004383D01*
X011627Y004373D01*
X011616Y004365D01*
X011603Y004362D01*
X011590Y004363D01*
X011578Y004369D01*
X011568Y004377D01*
X011562Y004389D01*
X011560Y004402D01*
X010060Y003952D02*
X010062Y003965D01*
X010068Y003977D01*
X010078Y003985D01*
X010090Y003991D01*
X010103Y003992D01*
X010116Y003989D01*
X010127Y003981D01*
X010135Y003971D01*
X010139Y003959D01*
X010139Y003945D01*
X010135Y003933D01*
X010127Y003923D01*
X010116Y003915D01*
X010103Y003912D01*
X010090Y003913D01*
X010078Y003919D01*
X010068Y003927D01*
X010062Y003939D01*
X010060Y003952D01*
X006710Y005002D02*
X006712Y005015D01*
X006718Y005027D01*
X006728Y005035D01*
X006740Y005041D01*
X006753Y005042D01*
X006766Y005039D01*
X006777Y005031D01*
X006785Y005021D01*
X006789Y005009D01*
X006789Y004995D01*
X006785Y004983D01*
X006777Y004973D01*
X006766Y004965D01*
X006753Y004962D01*
X006740Y004963D01*
X006728Y004969D01*
X006718Y004977D01*
X006712Y004989D01*
X006710Y005002D01*
D12*
X015989Y007052D03*
X015989Y007552D03*
X015989Y008052D03*
X015989Y008552D03*
X017911Y008552D03*
X017911Y008052D03*
X017911Y007552D03*
X017911Y007052D03*
X018589Y006652D03*
X018589Y006152D03*
X018589Y005652D03*
X018589Y005152D03*
X020511Y005152D03*
X020511Y005652D03*
X020511Y006152D03*
X020511Y006652D03*
D13*
X006981Y006557D03*
X006981Y006302D03*
X006981Y006813D03*
X006981Y007069D03*
X006981Y007325D03*
X006981Y007581D03*
X006981Y007837D03*
X006981Y008093D03*
X006981Y008349D03*
X004717Y008349D03*
X004717Y008605D03*
X004717Y008093D03*
X004717Y007837D03*
X004717Y007581D03*
X004717Y007325D03*
X004717Y007069D03*
X004717Y006813D03*
X004717Y006557D03*
X004717Y006302D03*
D14*
X006981Y008605D03*
D15*
X007615Y008502D03*
X008285Y008502D03*
X009665Y007602D03*
X010335Y007602D03*
X009535Y006002D03*
X008865Y006002D03*
X004750Y005737D03*
X004750Y005068D03*
X004750Y004387D03*
X004750Y003718D03*
X014615Y005002D03*
X015285Y005002D03*
X015285Y005902D03*
X014615Y005902D03*
X014515Y007602D03*
X015185Y007602D03*
X018815Y007352D03*
X019485Y007352D03*
X020400Y004287D03*
X020400Y003618D03*
D16*
X013002Y003838D03*
X012687Y003838D03*
X012372Y003838D03*
X012057Y003838D03*
X011743Y003838D03*
X011428Y003838D03*
X011113Y003838D03*
X010798Y003838D03*
X010798Y007185D03*
X011113Y007185D03*
X011428Y007185D03*
X011743Y007185D03*
X012057Y007185D03*
X012372Y007185D03*
X012687Y007185D03*
X013002Y007185D03*
D17*
X013573Y006614D03*
X013573Y006299D03*
X013573Y005984D03*
X013573Y005669D03*
X013573Y005354D03*
X013573Y005039D03*
X013573Y004724D03*
X013573Y004409D03*
X010227Y004409D03*
X010227Y004724D03*
X010227Y005039D03*
X010227Y005354D03*
X010227Y005669D03*
X010227Y005984D03*
X010227Y006299D03*
X010227Y006614D03*
D18*
X010415Y008502D03*
X011085Y008502D03*
X011715Y008502D03*
X012385Y008502D03*
X013215Y008502D03*
X013885Y008502D03*
X014515Y008502D03*
X015185Y008502D03*
X009585Y008502D03*
X008915Y008502D03*
X014615Y004102D03*
X015285Y004102D03*
D19*
X002500Y002502D03*
X003500Y002502D03*
X004500Y002502D03*
X005500Y002502D03*
X006500Y002502D03*
X007500Y002502D03*
X008500Y002502D03*
X009500Y002502D03*
X010500Y002502D03*
X011500Y002502D03*
X012500Y002502D03*
X013500Y002502D03*
X014500Y002502D03*
X015500Y002502D03*
X016500Y002502D03*
X017500Y002502D03*
X018500Y002502D03*
X019500Y002502D03*
X020500Y002502D03*
X021500Y002502D03*
X022500Y002502D03*
X003600Y003952D03*
X002600Y003952D03*
X002600Y004952D03*
X003600Y004952D03*
X003600Y005952D03*
D20*
X002600Y005952D03*
D21*
X016150Y005602D03*
X017150Y005102D03*
X016150Y004602D03*
X017150Y004102D03*
D22*
X016871Y006112D03*
D23*
X008260Y005254D03*
X008260Y004250D03*
X005740Y004250D03*
X005740Y005254D03*
D24*
X022000Y004876D03*
X022000Y006529D03*
D25*
X019651Y004002D03*
X018509Y004002D03*
X021259Y003752D03*
X022401Y003752D03*
D26*
X019950Y008302D03*
D27*
X018950Y008302D03*
M02*
