G75*
G70*
%OFA0B0*%
%FSLAX24Y24*%
%IPPOS*%
%LPD*%
%AMOC8*
5,1,8,0,0,1.08239X$1,22.5*
%
%ADD10R,0.0709X0.0236*%
%ADD11R,0.0512X0.0156*%
%ADD12R,0.0512X0.0145*%
%ADD13R,0.0394X0.0394*%
%ADD14R,0.0197X0.0591*%
%ADD15R,0.0591X0.0197*%
%ADD16R,0.0390X0.0400*%
%ADD17C,0.0594*%
%ADD18R,0.0594X0.0594*%
%ADD19C,0.0554*%
%ADD20R,0.0709X0.0551*%
%ADD21R,0.1339X0.0591*%
%ADD22R,0.0551X0.1063*%
%ADD23R,0.1150X0.1000*%
%ADD24R,0.0400X0.0500*%
%ADD25C,0.0080*%
%ADD26C,0.0298*%
%ADD27C,0.0100*%
%ADD28C,0.0120*%
%ADD29C,0.0160*%
%ADD30C,0.0400*%
%ADD31C,0.0260*%
%ADD32C,0.0300*%
%ADD33C,0.0320*%
%ADD34C,0.0200*%
%ADD35C,0.0240*%
D10*
X015989Y007052D03*
X015989Y007552D03*
X015989Y008052D03*
X015989Y008552D03*
X017911Y008552D03*
X017911Y008052D03*
X017911Y007552D03*
X017911Y007052D03*
X018589Y006652D03*
X018589Y006152D03*
X018589Y005652D03*
X018589Y005152D03*
X020511Y005152D03*
X020511Y005652D03*
X020511Y006152D03*
X020511Y006652D03*
D11*
X006981Y006557D03*
X006981Y006302D03*
X006981Y006813D03*
X006981Y007069D03*
X006981Y007325D03*
X006981Y007581D03*
X006981Y007837D03*
X006981Y008093D03*
X006981Y008349D03*
X004717Y008349D03*
X004717Y008605D03*
X004717Y008093D03*
X004717Y007837D03*
X004717Y007581D03*
X004717Y007325D03*
X004717Y007069D03*
X004717Y006813D03*
X004717Y006557D03*
X004717Y006302D03*
D12*
X006981Y008605D03*
D13*
X007615Y008502D03*
X008285Y008502D03*
X009665Y007602D03*
X010335Y007602D03*
X009535Y006002D03*
X008865Y006002D03*
X004750Y005737D03*
X004750Y005068D03*
X004750Y004387D03*
X004750Y003718D03*
X014615Y005002D03*
X015285Y005002D03*
X015285Y005902D03*
X014615Y005902D03*
X014515Y007602D03*
X015185Y007602D03*
X018815Y007352D03*
X019485Y007352D03*
X020400Y004287D03*
X020400Y003618D03*
D14*
X013002Y003838D03*
X012687Y003838D03*
X012372Y003838D03*
X012057Y003838D03*
X011743Y003838D03*
X011428Y003838D03*
X011113Y003838D03*
X010798Y003838D03*
X010798Y007185D03*
X011113Y007185D03*
X011428Y007185D03*
X011743Y007185D03*
X012057Y007185D03*
X012372Y007185D03*
X012687Y007185D03*
X013002Y007185D03*
D15*
X013573Y006614D03*
X013573Y006299D03*
X013573Y005984D03*
X013573Y005669D03*
X013573Y005354D03*
X013573Y005039D03*
X013573Y004724D03*
X013573Y004409D03*
X010227Y004409D03*
X010227Y004724D03*
X010227Y005039D03*
X010227Y005354D03*
X010227Y005669D03*
X010227Y005984D03*
X010227Y006299D03*
X010227Y006614D03*
D16*
X010415Y008502D03*
X011085Y008502D03*
X011715Y008502D03*
X012385Y008502D03*
X013215Y008502D03*
X013885Y008502D03*
X014515Y008502D03*
X015185Y008502D03*
X009585Y008502D03*
X008915Y008502D03*
X014615Y004102D03*
X015285Y004102D03*
D17*
X002500Y002502D03*
X003500Y002502D03*
X004500Y002502D03*
X005500Y002502D03*
X006500Y002502D03*
X007500Y002502D03*
X008500Y002502D03*
X009500Y002502D03*
X010500Y002502D03*
X011500Y002502D03*
X012500Y002502D03*
X013500Y002502D03*
X014500Y002502D03*
X015500Y002502D03*
X016500Y002502D03*
X017500Y002502D03*
X018500Y002502D03*
X019500Y002502D03*
X020500Y002502D03*
X021500Y002502D03*
X022500Y002502D03*
X003600Y003952D03*
X002600Y003952D03*
X002600Y004952D03*
X003600Y004952D03*
X003600Y005952D03*
D18*
X002600Y005952D03*
D19*
X016150Y005602D03*
X017150Y005102D03*
X016150Y004602D03*
X017150Y004102D03*
D20*
X008260Y004250D03*
X008260Y005254D03*
X005740Y005254D03*
X005740Y004250D03*
D21*
X022000Y004876D03*
X022000Y006529D03*
D22*
X019651Y004002D03*
X018509Y004002D03*
X021259Y003752D03*
X022401Y003752D03*
D23*
X019950Y008302D03*
D24*
X018950Y008302D03*
D25*
X018910Y008316D02*
X018450Y008316D01*
X018450Y008238D02*
X018610Y008238D01*
X018610Y008262D02*
X018610Y007994D01*
X018692Y007912D01*
X018910Y007912D01*
X018910Y008262D01*
X018990Y008262D01*
X018990Y007912D01*
X019208Y007912D01*
X019255Y007959D01*
X019255Y007753D01*
X019325Y007682D01*
X019350Y007682D01*
X019350Y007669D01*
X019238Y007669D01*
X019168Y007599D01*
X019168Y007106D01*
X019238Y007036D01*
X019350Y007036D01*
X019350Y006585D01*
X019350Y006420D01*
X019467Y006302D01*
X019524Y006302D01*
X019490Y006269D01*
X019490Y006136D01*
X019490Y005227D01*
X019481Y005206D01*
X019481Y005099D01*
X019490Y005077D01*
X019490Y004654D01*
X019326Y004654D01*
X019256Y004584D01*
X019256Y003421D01*
X019326Y003351D01*
X019470Y003351D01*
X019470Y003272D01*
X018050Y003272D01*
X018050Y004664D01*
X017962Y004752D01*
X017838Y004752D01*
X017750Y004664D01*
X017750Y003272D01*
X015391Y003272D01*
X014871Y003793D01*
X014930Y003853D01*
X014930Y004352D01*
X014860Y004422D01*
X014371Y004422D01*
X014300Y004352D01*
X014300Y003853D01*
X014330Y003823D01*
X014330Y003711D01*
X015080Y002961D01*
X015209Y002832D01*
X015241Y002832D01*
X015147Y002738D01*
X015083Y002585D01*
X015083Y002452D01*
X014917Y002452D01*
X014917Y002585D01*
X014853Y002738D01*
X014736Y002856D01*
X014583Y002919D01*
X014417Y002919D01*
X014264Y002856D01*
X014147Y002738D01*
X014083Y002585D01*
X014083Y002452D01*
X013917Y002452D01*
X013917Y002585D01*
X013853Y002738D01*
X013736Y002856D01*
X013583Y002919D01*
X013417Y002919D01*
X013264Y002856D01*
X013147Y002738D01*
X013083Y002585D01*
X013083Y002452D01*
X012917Y002452D01*
X012917Y002585D01*
X012853Y002738D01*
X012815Y002777D01*
X014220Y004182D01*
X014220Y004323D01*
X014220Y004673D01*
X014120Y004772D01*
X014020Y004872D01*
X013998Y004872D01*
X014008Y004883D01*
X014008Y005030D01*
X013583Y005030D01*
X013583Y005048D01*
X014008Y005048D01*
X014008Y005195D01*
X013988Y005215D01*
X013988Y005492D01*
X014008Y005512D01*
X014008Y005660D01*
X013583Y005660D01*
X013583Y005678D01*
X014008Y005678D01*
X014008Y005802D01*
X014299Y005802D01*
X014299Y005656D01*
X014369Y005586D01*
X014862Y005586D01*
X014932Y005656D01*
X014932Y006052D01*
X014948Y006067D01*
X014948Y005942D01*
X015244Y005942D01*
X015244Y005862D01*
X014948Y005862D01*
X014948Y005647D01*
X015030Y005566D01*
X015245Y005566D01*
X015245Y005862D01*
X015325Y005862D01*
X015325Y005942D01*
X015621Y005942D01*
X015621Y006157D01*
X015539Y006239D01*
X015325Y006239D01*
X015325Y005942D01*
X015245Y005942D01*
X015245Y006239D01*
X015120Y006239D01*
X015283Y006402D01*
X015400Y006520D01*
X015400Y007286D01*
X015431Y007286D01*
X015498Y007352D01*
X015547Y007352D01*
X015585Y007314D01*
X016393Y007314D01*
X016399Y007320D01*
X017600Y006120D01*
X017600Y005570D01*
X017717Y005452D01*
X018115Y005055D01*
X018115Y004985D01*
X018185Y004914D01*
X018945Y004914D01*
X018972Y004850D01*
X019048Y004774D01*
X019146Y004733D01*
X019253Y004733D01*
X019352Y004774D01*
X019428Y004850D01*
X019469Y004949D01*
X019469Y005056D01*
X019428Y005155D01*
X019352Y005230D01*
X019253Y005271D01*
X019214Y005271D01*
X019133Y005352D01*
X019031Y005352D01*
X018993Y005390D01*
X018345Y005390D01*
X018321Y005414D01*
X018993Y005414D01*
X019064Y005485D01*
X019064Y005820D01*
X018993Y005890D01*
X018300Y005890D01*
X018300Y005914D01*
X018993Y005914D01*
X019064Y005985D01*
X019064Y006320D01*
X018993Y006390D01*
X018300Y006390D01*
X018300Y006414D01*
X018631Y006414D01*
X018634Y006412D01*
X018866Y006412D01*
X018868Y006414D01*
X018993Y006414D01*
X019064Y006485D01*
X019064Y006820D01*
X019030Y006854D01*
X019030Y007036D01*
X019062Y007036D01*
X019132Y007106D01*
X019132Y007599D01*
X019062Y007669D01*
X018569Y007669D01*
X018499Y007599D01*
X018499Y007431D01*
X018470Y007403D01*
X018470Y006890D01*
X018450Y006890D01*
X018450Y006914D01*
X018450Y008862D01*
X019265Y008862D01*
X019255Y008852D01*
X019255Y008645D01*
X019208Y008692D01*
X018990Y008692D01*
X018990Y008342D01*
X018910Y008342D01*
X018910Y008262D01*
X018610Y008262D01*
X018610Y008342D02*
X018910Y008342D01*
X018910Y008692D01*
X018692Y008692D01*
X018610Y008610D01*
X018610Y008342D01*
X018610Y008395D02*
X018450Y008395D01*
X018450Y008473D02*
X018610Y008473D01*
X018610Y008552D02*
X018450Y008552D01*
X018450Y008631D02*
X018630Y008631D01*
X018450Y008709D02*
X019255Y008709D01*
X019255Y008788D02*
X018450Y008788D01*
X018150Y008810D02*
X018150Y008862D01*
X004250Y008862D01*
X004250Y007702D01*
X004238Y007554D01*
X004204Y007409D01*
X004146Y007271D01*
X004069Y007144D01*
X003972Y007031D01*
X003858Y006934D01*
X003731Y006856D01*
X003594Y006799D01*
X003449Y006764D01*
X003300Y006752D01*
X002140Y006752D01*
X002140Y002722D01*
X002147Y002738D01*
X002264Y002856D01*
X002417Y002919D01*
X002583Y002919D01*
X002649Y002892D01*
X003280Y003522D01*
X003420Y003522D01*
X003497Y003522D01*
X003353Y003582D01*
X003230Y003705D01*
X003163Y003865D01*
X003163Y003912D01*
X003560Y003912D01*
X003560Y003992D01*
X003163Y003992D01*
X003163Y004039D01*
X003230Y004200D01*
X003353Y004323D01*
X003513Y004389D01*
X003560Y004389D01*
X003560Y003993D01*
X003640Y003993D01*
X003640Y004389D01*
X003687Y004389D01*
X003847Y004323D01*
X003970Y004200D01*
X004037Y004039D01*
X004037Y003992D01*
X003640Y003992D01*
X003640Y003912D01*
X004037Y003912D01*
X004037Y003865D01*
X003970Y003705D01*
X003847Y003582D01*
X003703Y003522D01*
X004413Y003522D01*
X004413Y003678D01*
X004710Y003678D01*
X004710Y003758D01*
X004710Y004055D01*
X004495Y004055D01*
X004413Y003973D01*
X004413Y003758D01*
X004710Y003758D01*
X004790Y003758D01*
X004790Y004055D01*
X004857Y004055D01*
X004842Y004070D01*
X004503Y004070D01*
X004433Y004140D01*
X004433Y004479D01*
X004017Y004895D01*
X004017Y004869D01*
X003953Y004716D01*
X003836Y004599D01*
X003683Y004536D01*
X003517Y004536D01*
X003364Y004599D01*
X003247Y004716D01*
X003183Y004869D01*
X003183Y005035D01*
X003247Y005188D01*
X003364Y005306D01*
X003517Y005369D01*
X003683Y005369D01*
X003836Y005306D01*
X003930Y005212D01*
X003930Y005693D01*
X003836Y005599D01*
X003683Y005536D01*
X003517Y005536D01*
X003364Y005599D01*
X003247Y005716D01*
X003183Y005869D01*
X003183Y006035D01*
X003247Y006188D01*
X003364Y006306D01*
X003517Y006369D01*
X003683Y006369D01*
X003836Y006306D01*
X003930Y006212D01*
X003930Y006623D01*
X004030Y006722D01*
X004180Y006873D01*
X004280Y006972D01*
X004341Y006972D01*
X004341Y007197D01*
X004341Y007197D01*
X004341Y007198D01*
X004341Y007453D01*
X004341Y007453D01*
X004341Y007453D01*
X004341Y007709D01*
X004341Y007709D01*
X004341Y007709D01*
X004341Y007965D01*
X004341Y007965D01*
X004341Y008221D01*
X004341Y008221D01*
X004341Y008476D01*
X004341Y008477D01*
X004341Y008477D01*
X004341Y008732D01*
X004411Y008803D01*
X005023Y008803D01*
X005053Y008772D01*
X005730Y008772D01*
X005870Y008772D01*
X005921Y008721D01*
X006003Y008721D01*
X006102Y008680D01*
X006178Y008605D01*
X006219Y008506D01*
X006219Y008399D01*
X006178Y008300D01*
X006102Y008224D01*
X006003Y008183D01*
X005896Y008183D01*
X005798Y008224D01*
X005722Y008300D01*
X005681Y008399D01*
X005681Y008432D01*
X005537Y008432D01*
X005569Y008356D01*
X005569Y008249D01*
X005528Y008150D01*
X005452Y008074D01*
X005353Y008033D01*
X005309Y008033D01*
X005321Y008021D01*
X005353Y008021D01*
X005452Y007980D01*
X005528Y007905D01*
X005569Y007806D01*
X005569Y007699D01*
X005528Y007600D01*
X005452Y007524D01*
X005353Y007483D01*
X005246Y007483D01*
X005148Y007524D01*
X005093Y007579D01*
X005093Y007453D01*
X005092Y007453D01*
X005093Y007453D01*
X005093Y007198D01*
X005092Y007197D01*
X005093Y007197D01*
X005093Y006942D01*
X005092Y006941D01*
X005093Y006941D01*
X005093Y006686D01*
X005092Y006685D01*
X005093Y006685D01*
X005093Y006458D01*
X005113Y006438D01*
X005113Y006302D01*
X004717Y006302D01*
X004717Y006301D01*
X004717Y006084D01*
X005031Y006084D01*
X005113Y006166D01*
X005113Y006301D01*
X004717Y006301D01*
X004717Y006301D01*
X004717Y006084D01*
X004470Y006084D01*
X004470Y006049D01*
X004495Y006074D01*
X004710Y006074D01*
X004710Y005777D01*
X004790Y005777D01*
X004790Y006074D01*
X005005Y006074D01*
X005087Y005992D01*
X005087Y005777D01*
X004790Y005777D01*
X004790Y005697D01*
X005087Y005697D01*
X005087Y005482D01*
X005005Y005400D01*
X004790Y005400D01*
X004790Y005697D01*
X004710Y005697D01*
X004710Y005400D01*
X004495Y005400D01*
X004470Y005425D01*
X004470Y005351D01*
X004503Y005385D01*
X004997Y005385D01*
X005067Y005314D01*
X005067Y005076D01*
X005498Y004645D01*
X006144Y004645D01*
X006214Y004575D01*
X006214Y003972D01*
X006480Y003972D01*
X007786Y005278D01*
X007786Y005579D01*
X007856Y005649D01*
X008664Y005649D01*
X008734Y005579D01*
X008734Y004928D01*
X008664Y004858D01*
X007856Y004858D01*
X007851Y004863D01*
X006720Y003732D01*
X006720Y003732D01*
X006620Y003632D01*
X005280Y003632D01*
X005180Y003732D01*
X005087Y003825D01*
X005087Y003758D01*
X004790Y003758D01*
X004790Y003678D01*
X005087Y003678D01*
X005087Y003522D01*
X006730Y003522D01*
X007130Y003922D01*
X007270Y003922D01*
X007766Y003922D01*
X007766Y004210D01*
X008220Y004210D01*
X008220Y004289D01*
X007766Y004289D01*
X007766Y004583D01*
X007847Y004665D01*
X008220Y004665D01*
X008220Y004290D01*
X008300Y004290D01*
X008300Y004665D01*
X008672Y004665D01*
X008754Y004583D01*
X008754Y004289D01*
X008300Y004289D01*
X008300Y004210D01*
X008754Y004210D01*
X008754Y003922D01*
X009180Y003922D01*
X009180Y003923D01*
X009180Y005173D01*
X009280Y005272D01*
X009303Y005296D01*
X009281Y005349D01*
X009281Y005456D01*
X009322Y005555D01*
X009398Y005630D01*
X009496Y005671D01*
X009603Y005671D01*
X009656Y005649D01*
X009693Y005686D01*
X009288Y005686D01*
X009218Y005756D01*
X009218Y006202D01*
X009202Y006202D01*
X009202Y006042D01*
X008905Y006042D01*
X008905Y005962D01*
X008905Y005666D01*
X009120Y005666D01*
X009202Y005747D01*
X009202Y005962D01*
X008905Y005962D01*
X008825Y005962D01*
X008825Y005666D01*
X008610Y005666D01*
X008529Y005747D01*
X008529Y005962D01*
X008825Y005962D01*
X008825Y006042D01*
X008529Y006042D01*
X008529Y006148D01*
X008300Y005920D01*
X008300Y005920D01*
X008183Y005802D01*
X006950Y005802D01*
X006950Y005183D01*
X006978Y005155D01*
X007019Y005056D01*
X007019Y004949D01*
X006978Y004850D01*
X006902Y004774D01*
X006803Y004733D01*
X006696Y004733D01*
X006598Y004774D01*
X006522Y004850D01*
X006481Y004949D01*
X006481Y005056D01*
X006522Y005155D01*
X006550Y005183D01*
X006550Y005802D01*
X006167Y005802D01*
X006050Y005920D01*
X005967Y006002D01*
X005867Y006102D01*
X005780Y006102D01*
X005752Y006074D01*
X005653Y006033D01*
X005546Y006033D01*
X005448Y006074D01*
X005372Y006150D01*
X005331Y006249D01*
X005331Y006356D01*
X005372Y006455D01*
X005448Y006530D01*
X005546Y006571D01*
X005653Y006571D01*
X005752Y006530D01*
X005780Y006502D01*
X005850Y006502D01*
X005850Y007785D01*
X005967Y007902D01*
X005995Y007902D01*
X006520Y008427D01*
X006605Y008512D01*
X006605Y008727D01*
X006675Y008797D01*
X007286Y008797D01*
X007301Y008782D01*
X007332Y008782D01*
X007369Y008819D01*
X007862Y008819D01*
X007932Y008749D01*
X007932Y008425D01*
X007948Y008409D01*
X007948Y008462D01*
X008244Y008462D01*
X008244Y008542D01*
X007948Y008542D01*
X007948Y008757D01*
X008030Y008839D01*
X008245Y008839D01*
X008245Y008542D01*
X008325Y008542D01*
X008325Y008839D01*
X008539Y008839D01*
X008613Y008765D01*
X008671Y008822D01*
X009160Y008822D01*
X009230Y008752D01*
X009230Y008423D01*
X009270Y008462D01*
X009270Y008752D01*
X009340Y008822D01*
X009829Y008822D01*
X009900Y008752D01*
X009900Y008253D01*
X009829Y008182D01*
X009470Y008182D01*
X009170Y007882D01*
X009170Y007763D01*
X009228Y007705D01*
X009269Y007606D01*
X009269Y007499D01*
X009228Y007400D01*
X009152Y007324D01*
X009053Y007283D01*
X008946Y007283D01*
X008848Y007324D01*
X008772Y007400D01*
X008731Y007499D01*
X008731Y007606D01*
X008772Y007705D01*
X008830Y007763D01*
X008830Y007782D01*
X007730Y007782D01*
X007630Y007882D01*
X007589Y007923D01*
X007470Y007923D01*
X007770Y007622D01*
X007780Y007622D01*
X007920Y007622D01*
X008320Y007222D01*
X010579Y007222D01*
X010579Y007286D01*
X010088Y007286D01*
X010018Y007356D01*
X010018Y007849D01*
X010088Y007919D01*
X010581Y007919D01*
X010651Y007849D01*
X010651Y007822D01*
X010738Y007822D01*
X010772Y007905D01*
X010830Y007963D01*
X010830Y008192D01*
X010770Y008253D01*
X010770Y008752D01*
X010840Y008822D01*
X011329Y008822D01*
X011400Y008752D01*
X011400Y008682D01*
X011400Y008752D01*
X011471Y008822D01*
X011960Y008822D01*
X012030Y008752D01*
X012030Y008253D01*
X011960Y008182D01*
X011471Y008182D01*
X011400Y008253D01*
X011400Y008322D01*
X011400Y008322D01*
X011400Y008253D01*
X011329Y008182D01*
X011170Y008182D01*
X011170Y007963D01*
X011228Y007905D01*
X011269Y007806D01*
X011269Y007699D01*
X011228Y007600D01*
X011228Y007600D01*
X011261Y007600D01*
X011270Y007591D01*
X011279Y007600D01*
X011307Y007600D01*
X011430Y007723D01*
X011530Y007822D01*
X012088Y007822D01*
X012122Y007905D01*
X012198Y007980D01*
X012296Y008021D01*
X012403Y008021D01*
X012502Y007980D01*
X012578Y007905D01*
X012619Y007806D01*
X012619Y007699D01*
X012578Y007600D01*
X012578Y007600D01*
X012836Y007600D01*
X012845Y007591D01*
X012854Y007600D01*
X013150Y007600D01*
X013221Y007530D01*
X013221Y006840D01*
X013170Y006789D01*
X013170Y006782D01*
X013120Y006732D01*
X013120Y006423D01*
X013120Y006282D01*
X012740Y005902D01*
X012850Y005902D01*
X012850Y005935D01*
X013000Y006085D01*
X013117Y006202D01*
X013158Y006202D01*
X013158Y006447D01*
X013167Y006456D01*
X013158Y006466D01*
X013158Y006762D01*
X013228Y006832D01*
X013359Y006832D01*
X013331Y006899D01*
X013331Y007006D01*
X013372Y007105D01*
X013448Y007180D01*
X013546Y007221D01*
X013653Y007221D01*
X013671Y007214D01*
X013730Y007273D01*
X013730Y007465D01*
X013653Y007433D01*
X013546Y007433D01*
X013448Y007474D01*
X013372Y007550D01*
X013344Y007618D01*
X012980Y007982D01*
X012770Y007982D01*
X012630Y007982D01*
X012430Y008182D01*
X012140Y008182D01*
X012070Y008253D01*
X012070Y008752D01*
X012140Y008822D01*
X012629Y008822D01*
X012700Y008752D01*
X012700Y008393D01*
X012770Y008322D01*
X012900Y008322D01*
X012900Y008752D01*
X012971Y008822D01*
X013460Y008822D01*
X013530Y008752D01*
X013530Y008253D01*
X013510Y008233D01*
X013570Y008172D01*
X013820Y008172D01*
X013920Y008073D01*
X014070Y007923D01*
X014070Y007782D01*
X014070Y007273D01*
X014070Y007132D01*
X013869Y006931D01*
X013869Y006899D01*
X013841Y006832D01*
X013918Y006832D01*
X013988Y006762D01*
X013988Y006531D01*
X014331Y006874D01*
X014331Y006956D01*
X014372Y007055D01*
X014448Y007130D01*
X014546Y007171D01*
X014653Y007171D01*
X014752Y007130D01*
X014828Y007055D01*
X014869Y006956D01*
X014869Y006849D01*
X014828Y006750D01*
X014752Y006674D01*
X014653Y006633D01*
X014571Y006633D01*
X014170Y006232D01*
X014140Y006202D01*
X014352Y006202D01*
X014369Y006219D01*
X014534Y006219D01*
X015000Y006685D01*
X015000Y007286D01*
X014938Y007286D01*
X014868Y007356D01*
X014868Y007849D01*
X014938Y007919D01*
X014970Y007919D01*
X014970Y008182D01*
X014940Y008182D01*
X014870Y008253D01*
X014870Y008752D01*
X014940Y008822D01*
X015429Y008822D01*
X015500Y008752D01*
X015500Y008253D01*
X015429Y008182D01*
X015330Y008182D01*
X015330Y007919D01*
X015431Y007919D01*
X015501Y007849D01*
X015501Y007752D01*
X015547Y007752D01*
X015585Y007790D01*
X016393Y007790D01*
X016431Y007752D01*
X016533Y007752D01*
X018000Y006285D01*
X018000Y006120D01*
X018000Y005735D01*
X018000Y005735D01*
X018000Y006814D01*
X017507Y006814D01*
X017436Y006885D01*
X017436Y007220D01*
X017507Y007290D01*
X018150Y007290D01*
X018150Y007314D01*
X017507Y007314D01*
X017499Y007321D01*
X017452Y007274D01*
X017353Y007233D01*
X017246Y007233D01*
X017148Y007274D01*
X017072Y007350D01*
X017031Y007449D01*
X017031Y007556D01*
X017072Y007655D01*
X017148Y007730D01*
X017201Y007752D01*
X017148Y007774D01*
X017072Y007850D01*
X017031Y007949D01*
X017031Y008056D01*
X017072Y008155D01*
X017148Y008230D01*
X017246Y008271D01*
X017353Y008271D01*
X017448Y008232D01*
X017507Y008290D01*
X018150Y008290D01*
X018150Y008294D01*
X017930Y008294D01*
X017930Y008533D01*
X017891Y008533D01*
X017416Y008533D01*
X017416Y008376D01*
X017498Y008294D01*
X017891Y008294D01*
X017891Y008533D01*
X017891Y008571D01*
X017416Y008571D01*
X017416Y008728D01*
X017498Y008810D01*
X017891Y008810D01*
X017891Y008572D01*
X017930Y008572D01*
X017930Y008810D01*
X018150Y008810D01*
X017930Y008788D02*
X017891Y008788D01*
X017891Y008709D02*
X017930Y008709D01*
X017930Y008631D02*
X017891Y008631D01*
X017891Y008552D02*
X017119Y008552D01*
X017119Y008499D02*
X017119Y008606D01*
X017078Y008705D01*
X017002Y008780D01*
X016903Y008821D01*
X016796Y008821D01*
X016698Y008780D01*
X016690Y008772D01*
X016411Y008772D01*
X016393Y008790D01*
X015585Y008790D01*
X015515Y008720D01*
X015515Y008385D01*
X015585Y008314D01*
X016393Y008314D01*
X016464Y008385D01*
X016464Y008432D01*
X016609Y008432D01*
X016622Y008400D01*
X016698Y008324D01*
X016796Y008283D01*
X016903Y008283D01*
X017002Y008324D01*
X017078Y008400D01*
X017119Y008499D01*
X017108Y008473D02*
X017416Y008473D01*
X017416Y008395D02*
X017073Y008395D01*
X016983Y008316D02*
X017476Y008316D01*
X017454Y008238D02*
X017434Y008238D01*
X017166Y008238D02*
X016474Y008238D01*
X016484Y008228D02*
X016402Y008310D01*
X016008Y008310D01*
X016008Y008072D01*
X015970Y008072D01*
X015970Y008310D01*
X015577Y008310D01*
X015495Y008228D01*
X015495Y008071D01*
X015970Y008071D01*
X015970Y008033D01*
X015495Y008033D01*
X015495Y007876D01*
X015577Y007794D01*
X015970Y007794D01*
X015970Y008033D01*
X016008Y008033D01*
X016008Y007794D01*
X016402Y007794D01*
X016484Y007876D01*
X016484Y008033D01*
X016009Y008033D01*
X016009Y008071D01*
X016484Y008071D01*
X016484Y008228D01*
X016484Y008159D02*
X017077Y008159D01*
X017041Y008081D02*
X016484Y008081D01*
X016484Y008002D02*
X017031Y008002D01*
X017042Y007924D02*
X016484Y007924D01*
X016453Y007845D02*
X017077Y007845D01*
X017167Y007767D02*
X016417Y007767D01*
X016597Y007688D02*
X017105Y007688D01*
X017053Y007609D02*
X016676Y007609D01*
X016754Y007531D02*
X017031Y007531D01*
X017031Y007452D02*
X016833Y007452D01*
X016911Y007374D02*
X017062Y007374D01*
X017127Y007295D02*
X016990Y007295D01*
X017068Y007217D02*
X017436Y007217D01*
X017436Y007138D02*
X017147Y007138D01*
X017225Y007060D02*
X017436Y007060D01*
X017436Y006981D02*
X017304Y006981D01*
X017383Y006903D02*
X017436Y006903D01*
X017461Y006824D02*
X017497Y006824D01*
X017540Y006745D02*
X018000Y006745D01*
X018000Y006667D02*
X017618Y006667D01*
X017697Y006588D02*
X018000Y006588D01*
X018000Y006510D02*
X017775Y006510D01*
X017854Y006431D02*
X018000Y006431D01*
X018000Y006353D02*
X017932Y006353D01*
X018000Y006274D02*
X018000Y006274D01*
X018000Y006196D02*
X018000Y006196D01*
X018000Y006117D02*
X018000Y006117D01*
X018000Y006039D02*
X018000Y006039D01*
X018000Y005960D02*
X018000Y005960D01*
X018000Y005881D02*
X018000Y005881D01*
X018000Y005803D02*
X018000Y005803D01*
X017600Y005803D02*
X017178Y005803D01*
X017118Y005743D02*
X017240Y005865D01*
X017306Y006025D01*
X017306Y006198D01*
X017240Y006358D01*
X017118Y006481D01*
X016958Y006547D01*
X016785Y006547D01*
X016625Y006481D01*
X016502Y006358D01*
X016436Y006198D01*
X016436Y006025D01*
X016502Y005865D01*
X016625Y005743D01*
X016785Y005676D01*
X016958Y005676D01*
X017118Y005743D01*
X017074Y005724D02*
X017600Y005724D01*
X017600Y005646D02*
X016567Y005646D01*
X016567Y005642D02*
X016567Y005685D01*
X016504Y005839D01*
X016386Y005956D01*
X016233Y006019D01*
X016190Y006019D01*
X016190Y005643D01*
X016110Y005643D01*
X016110Y006019D01*
X016067Y006019D01*
X015914Y005956D01*
X015796Y005839D01*
X015733Y005685D01*
X015733Y005642D01*
X016110Y005642D01*
X016110Y005562D01*
X015733Y005562D01*
X015733Y005519D01*
X015796Y005366D01*
X015860Y005302D01*
X015548Y005302D01*
X015531Y005319D01*
X015038Y005319D01*
X014968Y005249D01*
X014968Y004756D01*
X014980Y004744D01*
X014980Y004362D01*
X014970Y004352D01*
X014970Y003853D01*
X015040Y003782D01*
X015529Y003782D01*
X015600Y003853D01*
X015600Y004352D01*
X015529Y004422D01*
X015420Y004422D01*
X015420Y004686D01*
X015531Y004686D01*
X015601Y004756D01*
X015601Y004902D01*
X015888Y004902D01*
X015813Y004827D01*
X015753Y004681D01*
X015753Y004523D01*
X015813Y004377D01*
X015925Y004266D01*
X016071Y004205D01*
X016229Y004205D01*
X016375Y004266D01*
X016487Y004377D01*
X016547Y004523D01*
X016547Y004681D01*
X016487Y004827D01*
X016412Y004902D01*
X016803Y004902D01*
X016813Y004877D01*
X016925Y004766D01*
X017071Y004705D01*
X017229Y004705D01*
X017375Y004766D01*
X017487Y004877D01*
X017547Y005023D01*
X017547Y005181D01*
X017487Y005327D01*
X017375Y005439D01*
X017229Y005499D01*
X017071Y005499D01*
X016925Y005439D01*
X016813Y005327D01*
X016803Y005302D01*
X016440Y005302D01*
X016504Y005366D01*
X016567Y005519D01*
X016567Y005562D01*
X016190Y005562D01*
X016190Y005642D01*
X016567Y005642D01*
X016551Y005724D02*
X016669Y005724D01*
X016564Y005803D02*
X016518Y005803D01*
X016495Y005881D02*
X016461Y005881D01*
X016463Y005960D02*
X016377Y005960D01*
X016436Y006039D02*
X015621Y006039D01*
X015621Y006117D02*
X016436Y006117D01*
X016436Y006196D02*
X015583Y006196D01*
X015325Y006196D02*
X015245Y006196D01*
X015245Y006117D02*
X015325Y006117D01*
X015325Y006039D02*
X015245Y006039D01*
X015245Y005960D02*
X015325Y005960D01*
X015325Y005881D02*
X015839Y005881D01*
X015782Y005803D02*
X015621Y005803D01*
X015621Y005862D02*
X015325Y005862D01*
X015325Y005566D01*
X015539Y005566D01*
X015621Y005647D01*
X015621Y005862D01*
X015621Y005960D02*
X015923Y005960D01*
X016110Y005960D02*
X016190Y005960D01*
X016190Y005881D02*
X016110Y005881D01*
X016110Y005803D02*
X016190Y005803D01*
X016190Y005724D02*
X016110Y005724D01*
X016110Y005646D02*
X016190Y005646D01*
X016190Y005567D02*
X017602Y005567D01*
X017681Y005489D02*
X017255Y005489D01*
X017404Y005410D02*
X017759Y005410D01*
X017838Y005332D02*
X017482Y005332D01*
X017517Y005253D02*
X017916Y005253D01*
X017995Y005175D02*
X017547Y005175D01*
X017547Y005096D02*
X018073Y005096D01*
X018115Y005018D02*
X017545Y005018D01*
X017512Y004939D02*
X018161Y004939D01*
X018176Y004674D02*
X018094Y004592D01*
X018094Y004042D01*
X018469Y004042D01*
X018469Y003962D01*
X018094Y003962D01*
X018094Y003413D01*
X018176Y003331D01*
X018469Y003331D01*
X018469Y003962D01*
X018549Y003962D01*
X018549Y003331D01*
X018843Y003331D01*
X018925Y003413D01*
X018925Y003962D01*
X018550Y003962D01*
X018550Y004042D01*
X018925Y004042D01*
X018925Y004592D01*
X018843Y004674D01*
X018549Y004674D01*
X018549Y004042D01*
X018469Y004042D01*
X018469Y004674D01*
X018176Y004674D01*
X018127Y004625D02*
X018050Y004625D01*
X018050Y004546D02*
X018094Y004546D01*
X018094Y004468D02*
X018050Y004468D01*
X018050Y004389D02*
X018094Y004389D01*
X018094Y004311D02*
X018050Y004311D01*
X018050Y004232D02*
X018094Y004232D01*
X018094Y004154D02*
X018050Y004154D01*
X018050Y004075D02*
X018094Y004075D01*
X018050Y003996D02*
X018469Y003996D01*
X018469Y003918D02*
X018549Y003918D01*
X018550Y003996D02*
X019256Y003996D01*
X019256Y003918D02*
X018925Y003918D01*
X018925Y003839D02*
X019256Y003839D01*
X019256Y003761D02*
X018925Y003761D01*
X018925Y003682D02*
X019256Y003682D01*
X019256Y003604D02*
X018925Y003604D01*
X018925Y003525D02*
X019256Y003525D01*
X019256Y003447D02*
X018925Y003447D01*
X018880Y003368D02*
X019309Y003368D01*
X019470Y003290D02*
X018050Y003290D01*
X018050Y003368D02*
X018139Y003368D01*
X018094Y003447D02*
X018050Y003447D01*
X018050Y003525D02*
X018094Y003525D01*
X018094Y003604D02*
X018050Y003604D01*
X018050Y003682D02*
X018094Y003682D01*
X018094Y003761D02*
X018050Y003761D01*
X018050Y003839D02*
X018094Y003839D01*
X018094Y003918D02*
X018050Y003918D01*
X018469Y003839D02*
X018549Y003839D01*
X018549Y003761D02*
X018469Y003761D01*
X018469Y003682D02*
X018549Y003682D01*
X018549Y003604D02*
X018469Y003604D01*
X018469Y003525D02*
X018549Y003525D01*
X018549Y003447D02*
X018469Y003447D01*
X018469Y003368D02*
X018549Y003368D01*
X017750Y003368D02*
X015295Y003368D01*
X015217Y003447D02*
X017750Y003447D01*
X017750Y003525D02*
X015138Y003525D01*
X015060Y003604D02*
X017750Y003604D01*
X017750Y003682D02*
X014981Y003682D01*
X014903Y003761D02*
X016937Y003761D01*
X016925Y003766D02*
X017071Y003705D01*
X017229Y003705D01*
X017375Y003766D01*
X017487Y003877D01*
X017547Y004023D01*
X017547Y004181D01*
X017487Y004327D01*
X017375Y004439D01*
X017229Y004499D01*
X017071Y004499D01*
X016925Y004439D01*
X016813Y004327D01*
X016753Y004181D01*
X016753Y004023D01*
X016813Y003877D01*
X016925Y003766D01*
X016851Y003839D02*
X015586Y003839D01*
X015600Y003918D02*
X016796Y003918D01*
X016764Y003996D02*
X015600Y003996D01*
X015600Y004075D02*
X016753Y004075D01*
X016753Y004154D02*
X015600Y004154D01*
X015600Y004232D02*
X016006Y004232D01*
X015880Y004311D02*
X015600Y004311D01*
X015562Y004389D02*
X015808Y004389D01*
X015776Y004468D02*
X015420Y004468D01*
X015420Y004546D02*
X015753Y004546D01*
X015753Y004625D02*
X015420Y004625D01*
X015549Y004703D02*
X015762Y004703D01*
X015794Y004782D02*
X015601Y004782D01*
X015601Y004860D02*
X015846Y004860D01*
X016454Y004860D02*
X016830Y004860D01*
X016909Y004782D02*
X016506Y004782D01*
X016538Y004703D02*
X017789Y004703D01*
X017750Y004625D02*
X016547Y004625D01*
X016547Y004546D02*
X017750Y004546D01*
X017750Y004468D02*
X017306Y004468D01*
X017425Y004389D02*
X017750Y004389D01*
X017750Y004311D02*
X017494Y004311D01*
X017526Y004232D02*
X017750Y004232D01*
X017750Y004154D02*
X017547Y004154D01*
X017547Y004075D02*
X017750Y004075D01*
X017750Y003996D02*
X017536Y003996D01*
X017503Y003918D02*
X017750Y003918D01*
X017750Y003839D02*
X017449Y003839D01*
X017363Y003761D02*
X017750Y003761D01*
X018469Y004075D02*
X018549Y004075D01*
X018549Y004154D02*
X018469Y004154D01*
X018469Y004232D02*
X018549Y004232D01*
X018549Y004311D02*
X018469Y004311D01*
X018469Y004389D02*
X018549Y004389D01*
X018549Y004468D02*
X018469Y004468D01*
X018469Y004546D02*
X018549Y004546D01*
X018549Y004625D02*
X018469Y004625D01*
X018011Y004703D02*
X019490Y004703D01*
X019490Y004782D02*
X019360Y004782D01*
X019432Y004860D02*
X019490Y004860D01*
X019490Y004939D02*
X019465Y004939D01*
X019469Y005018D02*
X019490Y005018D01*
X019482Y005096D02*
X019452Y005096D01*
X019481Y005175D02*
X019408Y005175D01*
X019490Y005253D02*
X019297Y005253D01*
X019153Y005332D02*
X019490Y005332D01*
X019490Y005410D02*
X018325Y005410D01*
X019064Y005489D02*
X019490Y005489D01*
X019490Y005567D02*
X019064Y005567D01*
X019064Y005646D02*
X019490Y005646D01*
X019490Y005724D02*
X019064Y005724D01*
X019064Y005803D02*
X019490Y005803D01*
X019490Y005881D02*
X019002Y005881D01*
X019039Y005960D02*
X019490Y005960D01*
X019490Y006039D02*
X019064Y006039D01*
X019064Y006117D02*
X019490Y006117D01*
X019490Y006196D02*
X019064Y006196D01*
X019064Y006274D02*
X019496Y006274D01*
X019417Y006353D02*
X019031Y006353D01*
X019010Y006431D02*
X019350Y006431D01*
X019350Y006510D02*
X019064Y006510D01*
X019064Y006588D02*
X019350Y006588D01*
X019350Y006667D02*
X019064Y006667D01*
X019064Y006745D02*
X019350Y006745D01*
X019350Y006824D02*
X019060Y006824D01*
X019030Y006903D02*
X019350Y006903D01*
X019350Y006981D02*
X019030Y006981D01*
X019086Y007060D02*
X019214Y007060D01*
X019168Y007138D02*
X019132Y007138D01*
X019132Y007217D02*
X019168Y007217D01*
X019168Y007295D02*
X019132Y007295D01*
X019132Y007374D02*
X019168Y007374D01*
X019168Y007452D02*
X019132Y007452D01*
X019132Y007531D02*
X019168Y007531D01*
X019178Y007609D02*
X019122Y007609D01*
X019320Y007688D02*
X018450Y007688D01*
X018450Y007609D02*
X018509Y007609D01*
X018499Y007531D02*
X018450Y007531D01*
X018450Y007452D02*
X018499Y007452D01*
X018470Y007374D02*
X018450Y007374D01*
X018450Y007295D02*
X018470Y007295D01*
X018470Y007217D02*
X018450Y007217D01*
X018450Y007138D02*
X018470Y007138D01*
X018470Y007060D02*
X018450Y007060D01*
X018450Y006981D02*
X018470Y006981D01*
X018470Y006903D02*
X018450Y006903D01*
X018150Y007295D02*
X017473Y007295D01*
X016738Y006981D02*
X016464Y006981D01*
X016464Y006903D02*
X016817Y006903D01*
X016896Y006824D02*
X016403Y006824D01*
X016393Y006814D02*
X016464Y006885D01*
X016464Y007220D01*
X016393Y007290D01*
X015585Y007290D01*
X015515Y007220D01*
X015515Y006885D01*
X015530Y006870D01*
X015530Y006863D01*
X015472Y006805D01*
X015431Y006706D01*
X015431Y006599D01*
X015472Y006500D01*
X015548Y006424D01*
X015646Y006383D01*
X015753Y006383D01*
X015852Y006424D01*
X015928Y006500D01*
X015969Y006599D01*
X015969Y006706D01*
X015928Y006805D01*
X015918Y006814D01*
X016393Y006814D01*
X016464Y007060D02*
X016660Y007060D01*
X016581Y007138D02*
X016464Y007138D01*
X016464Y007217D02*
X016503Y007217D01*
X016424Y007295D02*
X015441Y007295D01*
X015400Y007217D02*
X015515Y007217D01*
X015515Y007138D02*
X015400Y007138D01*
X015400Y007060D02*
X015515Y007060D01*
X015515Y006981D02*
X015400Y006981D01*
X015400Y006903D02*
X015515Y006903D01*
X015491Y006824D02*
X015400Y006824D01*
X015400Y006745D02*
X015448Y006745D01*
X015431Y006667D02*
X015400Y006667D01*
X015400Y006588D02*
X015435Y006588D01*
X015468Y006510D02*
X015390Y006510D01*
X015312Y006431D02*
X015541Y006431D01*
X015859Y006431D02*
X016575Y006431D01*
X016500Y006353D02*
X015233Y006353D01*
X015155Y006274D02*
X016467Y006274D01*
X016695Y006510D02*
X015932Y006510D01*
X015964Y006588D02*
X017131Y006588D01*
X017210Y006510D02*
X017047Y006510D01*
X017167Y006431D02*
X017288Y006431D01*
X017243Y006353D02*
X017367Y006353D01*
X017445Y006274D02*
X017275Y006274D01*
X017306Y006196D02*
X017524Y006196D01*
X017600Y006117D02*
X017306Y006117D01*
X017306Y006039D02*
X017600Y006039D01*
X017600Y005960D02*
X017280Y005960D01*
X017247Y005881D02*
X017600Y005881D01*
X017045Y005489D02*
X016554Y005489D01*
X016522Y005410D02*
X016896Y005410D01*
X016818Y005332D02*
X016469Y005332D01*
X016110Y005567D02*
X015541Y005567D01*
X015620Y005646D02*
X015733Y005646D01*
X015749Y005724D02*
X015621Y005724D01*
X015325Y005724D02*
X015245Y005724D01*
X015245Y005646D02*
X015325Y005646D01*
X015325Y005567D02*
X015245Y005567D01*
X015028Y005567D02*
X014008Y005567D01*
X014008Y005646D02*
X014308Y005646D01*
X014299Y005724D02*
X014008Y005724D01*
X013988Y005489D02*
X015745Y005489D01*
X015778Y005410D02*
X013988Y005410D01*
X013988Y005332D02*
X014353Y005332D01*
X014360Y005339D02*
X014279Y005257D01*
X014279Y005042D01*
X014575Y005042D01*
X014575Y004962D01*
X014655Y004962D01*
X014655Y004666D01*
X014870Y004666D01*
X014952Y004747D01*
X014952Y004962D01*
X014655Y004962D01*
X014655Y005042D01*
X014952Y005042D01*
X014952Y005257D01*
X014870Y005339D01*
X014655Y005339D01*
X014655Y005042D01*
X014575Y005042D01*
X014575Y005339D01*
X014360Y005339D01*
X014279Y005253D02*
X013988Y005253D01*
X014008Y005175D02*
X014279Y005175D01*
X014279Y005096D02*
X014008Y005096D01*
X014008Y005018D02*
X014575Y005018D01*
X014575Y004962D02*
X014279Y004962D01*
X014279Y004747D01*
X014360Y004666D01*
X014575Y004666D01*
X014575Y004962D01*
X014575Y004939D02*
X014655Y004939D01*
X014655Y005018D02*
X014968Y005018D01*
X014968Y005096D02*
X014952Y005096D01*
X014952Y005175D02*
X014968Y005175D01*
X014972Y005253D02*
X014952Y005253D01*
X014878Y005332D02*
X015831Y005332D01*
X015325Y005803D02*
X015245Y005803D01*
X015244Y005881D02*
X014932Y005881D01*
X014932Y005803D02*
X014948Y005803D01*
X014948Y005724D02*
X014932Y005724D01*
X014922Y005646D02*
X014949Y005646D01*
X014932Y005960D02*
X014948Y005960D01*
X014948Y006039D02*
X014932Y006039D01*
X014589Y006274D02*
X014212Y006274D01*
X014291Y006353D02*
X014668Y006353D01*
X014746Y006431D02*
X014369Y006431D01*
X014448Y006510D02*
X014825Y006510D01*
X014903Y006588D02*
X014526Y006588D01*
X014734Y006667D02*
X014982Y006667D01*
X015000Y006745D02*
X014823Y006745D01*
X014859Y006824D02*
X015000Y006824D01*
X015000Y006903D02*
X014869Y006903D01*
X014858Y006981D02*
X015000Y006981D01*
X015000Y007060D02*
X014823Y007060D01*
X014733Y007138D02*
X015000Y007138D01*
X015000Y007217D02*
X014070Y007217D01*
X014070Y007295D02*
X014231Y007295D01*
X014260Y007266D02*
X014179Y007347D01*
X014179Y007562D01*
X014475Y007562D01*
X014555Y007562D01*
X014555Y007266D01*
X014770Y007266D01*
X014852Y007347D01*
X014852Y007562D01*
X014555Y007562D01*
X014555Y007642D01*
X014852Y007642D01*
X014852Y007857D01*
X014770Y007939D01*
X014555Y007939D01*
X014555Y007642D01*
X014475Y007642D01*
X014475Y007562D01*
X014475Y007266D01*
X014260Y007266D01*
X014179Y007374D02*
X014070Y007374D01*
X014070Y007452D02*
X014179Y007452D01*
X014179Y007531D02*
X014070Y007531D01*
X014070Y007609D02*
X014475Y007609D01*
X014475Y007642D02*
X014179Y007642D01*
X014179Y007857D01*
X014260Y007939D01*
X014475Y007939D01*
X014475Y007642D01*
X014475Y007688D02*
X014555Y007688D01*
X014555Y007767D02*
X014475Y007767D01*
X014475Y007845D02*
X014555Y007845D01*
X014555Y007924D02*
X014475Y007924D01*
X014245Y007924D02*
X014069Y007924D01*
X014070Y007845D02*
X014179Y007845D01*
X014179Y007767D02*
X014070Y007767D01*
X014070Y007688D02*
X014179Y007688D01*
X014475Y007531D02*
X014555Y007531D01*
X014555Y007609D02*
X014868Y007609D01*
X014868Y007531D02*
X014852Y007531D01*
X014852Y007452D02*
X014868Y007452D01*
X014868Y007374D02*
X014852Y007374D01*
X014800Y007295D02*
X014928Y007295D01*
X014555Y007295D02*
X014475Y007295D01*
X014475Y007374D02*
X014555Y007374D01*
X014555Y007452D02*
X014475Y007452D01*
X014852Y007688D02*
X014868Y007688D01*
X014868Y007767D02*
X014852Y007767D01*
X014852Y007845D02*
X014868Y007845D01*
X014786Y007924D02*
X014970Y007924D01*
X014970Y008002D02*
X013991Y008002D01*
X013912Y008081D02*
X014970Y008081D01*
X014970Y008159D02*
X013833Y008159D01*
X013640Y008182D02*
X013570Y008253D01*
X013570Y008752D01*
X013640Y008822D01*
X014129Y008822D01*
X014200Y008752D01*
X014200Y008672D01*
X014200Y008752D01*
X014271Y008822D01*
X014760Y008822D01*
X014830Y008752D01*
X014830Y008253D01*
X014760Y008182D01*
X014271Y008182D01*
X014200Y008253D01*
X014200Y008332D01*
X014200Y008332D01*
X014200Y008253D01*
X014129Y008182D01*
X013640Y008182D01*
X013584Y008238D02*
X013515Y008238D01*
X013530Y008316D02*
X013570Y008316D01*
X013570Y008395D02*
X013530Y008395D01*
X013530Y008473D02*
X013570Y008473D01*
X013570Y008552D02*
X013530Y008552D01*
X013530Y008631D02*
X013570Y008631D01*
X013570Y008709D02*
X013530Y008709D01*
X013495Y008788D02*
X013605Y008788D01*
X014164Y008788D02*
X014236Y008788D01*
X014200Y008709D02*
X014200Y008709D01*
X014200Y008672D02*
X014200Y008672D01*
X014200Y008316D02*
X014200Y008316D01*
X014185Y008238D02*
X014215Y008238D01*
X014815Y008238D02*
X014884Y008238D01*
X014870Y008316D02*
X014830Y008316D01*
X014830Y008395D02*
X014870Y008395D01*
X014870Y008473D02*
X014830Y008473D01*
X014830Y008552D02*
X014870Y008552D01*
X014870Y008631D02*
X014830Y008631D01*
X014830Y008709D02*
X014870Y008709D01*
X014905Y008788D02*
X014795Y008788D01*
X015464Y008788D02*
X015582Y008788D01*
X015515Y008709D02*
X015500Y008709D01*
X015500Y008631D02*
X015515Y008631D01*
X015515Y008552D02*
X015500Y008552D01*
X015500Y008473D02*
X015515Y008473D01*
X015515Y008395D02*
X015500Y008395D01*
X015500Y008316D02*
X015583Y008316D01*
X015504Y008238D02*
X015485Y008238D01*
X015495Y008159D02*
X015330Y008159D01*
X015330Y008081D02*
X015495Y008081D01*
X015495Y008002D02*
X015330Y008002D01*
X015330Y007924D02*
X015495Y007924D01*
X015501Y007845D02*
X015526Y007845D01*
X015501Y007767D02*
X015561Y007767D01*
X015970Y007845D02*
X016008Y007845D01*
X016008Y007924D02*
X015970Y007924D01*
X015970Y008002D02*
X016008Y008002D01*
X016008Y008081D02*
X015970Y008081D01*
X015970Y008159D02*
X016008Y008159D01*
X016008Y008238D02*
X015970Y008238D01*
X016395Y008316D02*
X016717Y008316D01*
X016627Y008395D02*
X016464Y008395D01*
X017074Y008709D02*
X017416Y008709D01*
X017416Y008631D02*
X017109Y008631D01*
X016985Y008788D02*
X017475Y008788D01*
X017891Y008473D02*
X017930Y008473D01*
X017930Y008395D02*
X017891Y008395D01*
X017891Y008316D02*
X017930Y008316D01*
X018450Y008159D02*
X018610Y008159D01*
X018610Y008081D02*
X018450Y008081D01*
X018450Y008002D02*
X018610Y008002D01*
X018681Y007924D02*
X018450Y007924D01*
X018450Y007845D02*
X019255Y007845D01*
X019255Y007767D02*
X018450Y007767D01*
X018910Y007924D02*
X018990Y007924D01*
X018990Y008002D02*
X018910Y008002D01*
X018910Y008081D02*
X018990Y008081D01*
X018990Y008159D02*
X018910Y008159D01*
X018910Y008238D02*
X018990Y008238D01*
X018990Y008395D02*
X018910Y008395D01*
X018910Y008473D02*
X018990Y008473D01*
X018990Y008552D02*
X018910Y008552D01*
X018910Y008631D02*
X018990Y008631D01*
X019219Y007924D02*
X019255Y007924D01*
X016715Y008788D02*
X016396Y008788D01*
X013391Y007531D02*
X013219Y007531D01*
X013221Y007452D02*
X013501Y007452D01*
X013699Y007452D02*
X013730Y007452D01*
X013730Y007374D02*
X013221Y007374D01*
X013221Y007295D02*
X013730Y007295D01*
X013674Y007217D02*
X013664Y007217D01*
X013536Y007217D02*
X013221Y007217D01*
X013221Y007138D02*
X013406Y007138D01*
X013353Y007060D02*
X013221Y007060D01*
X013221Y006981D02*
X013331Y006981D01*
X013331Y006903D02*
X013221Y006903D01*
X013220Y006824D02*
X013205Y006824D01*
X013158Y006745D02*
X013134Y006745D01*
X013120Y006667D02*
X013158Y006667D01*
X013158Y006588D02*
X013120Y006588D01*
X013120Y006510D02*
X013158Y006510D01*
X013158Y006431D02*
X013120Y006431D01*
X013120Y006353D02*
X013158Y006353D01*
X013158Y006274D02*
X013112Y006274D01*
X013111Y006196D02*
X013034Y006196D01*
X013032Y006117D02*
X012955Y006117D01*
X012953Y006039D02*
X012877Y006039D01*
X012875Y005960D02*
X012798Y005960D01*
X012850Y005502D02*
X011767Y005502D01*
X011650Y005620D01*
X011167Y006102D01*
X011029Y006102D01*
X011069Y006006D01*
X011069Y005899D01*
X011028Y005800D01*
X010952Y005724D01*
X011545Y005724D01*
X011624Y005646D02*
X011215Y005646D01*
X011252Y005630D02*
X011153Y005671D01*
X011046Y005671D01*
X010948Y005630D01*
X010872Y005555D01*
X010831Y005456D01*
X010831Y005349D01*
X010872Y005250D01*
X010930Y005192D01*
X010930Y004253D01*
X010649Y004253D01*
X010579Y004183D01*
X010579Y003772D01*
X010300Y003772D01*
X010328Y003800D01*
X010369Y003899D01*
X010369Y004006D01*
X010328Y004105D01*
X010260Y004173D01*
X010260Y004191D01*
X010572Y004191D01*
X010642Y004261D01*
X010642Y004557D01*
X010633Y004567D01*
X010642Y004576D01*
X010642Y004872D01*
X010633Y004881D01*
X010642Y004891D01*
X010642Y005178D01*
X010662Y005197D01*
X010662Y005345D01*
X010236Y005345D01*
X010236Y005363D01*
X010662Y005363D01*
X010662Y005510D01*
X010642Y005530D01*
X010642Y005730D01*
X010648Y005724D01*
X010642Y005724D01*
X010648Y005724D02*
X010746Y005683D01*
X010853Y005683D01*
X010952Y005724D01*
X010985Y005646D02*
X010642Y005646D01*
X010642Y005567D02*
X010885Y005567D01*
X010845Y005489D02*
X010662Y005489D01*
X010662Y005410D02*
X010831Y005410D01*
X010838Y005332D02*
X010662Y005332D01*
X010662Y005253D02*
X010871Y005253D01*
X010930Y005175D02*
X010642Y005175D01*
X010642Y005096D02*
X010930Y005096D01*
X010930Y005018D02*
X010642Y005018D01*
X010642Y004939D02*
X010930Y004939D01*
X010930Y004860D02*
X010642Y004860D01*
X010642Y004782D02*
X010930Y004782D01*
X010930Y004703D02*
X010642Y004703D01*
X010642Y004625D02*
X010930Y004625D01*
X010930Y004546D02*
X010642Y004546D01*
X010642Y004468D02*
X010930Y004468D01*
X010930Y004389D02*
X010642Y004389D01*
X010642Y004311D02*
X010930Y004311D01*
X010628Y004232D02*
X010613Y004232D01*
X010579Y004154D02*
X010279Y004154D01*
X010340Y004075D02*
X010579Y004075D01*
X010579Y003996D02*
X010369Y003996D01*
X010369Y003918D02*
X010579Y003918D01*
X010579Y003839D02*
X010344Y003839D01*
X010100Y003952D02*
X010100Y004352D01*
X010243Y004409D01*
X010227Y004409D01*
X009180Y004389D02*
X008754Y004389D01*
X008754Y004311D02*
X009180Y004311D01*
X009180Y004232D02*
X008300Y004232D01*
X008300Y004311D02*
X008220Y004311D01*
X008220Y004389D02*
X008300Y004389D01*
X008300Y004468D02*
X008220Y004468D01*
X008220Y004546D02*
X008300Y004546D01*
X008300Y004625D02*
X008220Y004625D01*
X007807Y004625D02*
X007613Y004625D01*
X007691Y004703D02*
X009180Y004703D01*
X009180Y004625D02*
X008713Y004625D01*
X008754Y004546D02*
X009180Y004546D01*
X009180Y004468D02*
X008754Y004468D01*
X008754Y004154D02*
X009180Y004154D01*
X009180Y004075D02*
X008754Y004075D01*
X008754Y003996D02*
X009180Y003996D01*
X008220Y004232D02*
X007220Y004232D01*
X007142Y004154D02*
X007766Y004154D01*
X007766Y004075D02*
X007063Y004075D01*
X006984Y003996D02*
X007766Y003996D01*
X007125Y003918D02*
X006906Y003918D01*
X006827Y003839D02*
X007047Y003839D01*
X006968Y003761D02*
X006749Y003761D01*
X006670Y003682D02*
X006890Y003682D01*
X006811Y003604D02*
X005087Y003604D01*
X005087Y003525D02*
X006732Y003525D01*
X006504Y003996D02*
X006214Y003996D01*
X006214Y004075D02*
X006582Y004075D01*
X006661Y004154D02*
X006214Y004154D01*
X006214Y004232D02*
X006739Y004232D01*
X006818Y004311D02*
X006214Y004311D01*
X006214Y004389D02*
X006896Y004389D01*
X006975Y004468D02*
X006214Y004468D01*
X006214Y004546D02*
X007054Y004546D01*
X007132Y004625D02*
X006165Y004625D01*
X006152Y004838D02*
X005780Y004838D01*
X005780Y005213D01*
X005700Y005213D01*
X005700Y004838D01*
X005328Y004838D01*
X005246Y004920D01*
X005246Y005214D01*
X005700Y005214D01*
X005700Y005293D01*
X005246Y005293D01*
X005246Y005587D01*
X005328Y005669D01*
X005700Y005669D01*
X005700Y005294D01*
X005780Y005294D01*
X005780Y005669D01*
X006152Y005669D01*
X006234Y005587D01*
X006234Y005293D01*
X005780Y005293D01*
X005780Y005214D01*
X006234Y005214D01*
X006234Y004920D01*
X006152Y004838D01*
X006175Y004860D02*
X006518Y004860D01*
X006485Y004939D02*
X006234Y004939D01*
X006234Y005018D02*
X006481Y005018D01*
X006498Y005096D02*
X006234Y005096D01*
X006234Y005175D02*
X006542Y005175D01*
X006550Y005253D02*
X005780Y005253D01*
X005780Y005175D02*
X005700Y005175D01*
X005700Y005253D02*
X005067Y005253D01*
X005067Y005175D02*
X005246Y005175D01*
X005246Y005096D02*
X005067Y005096D01*
X005125Y005018D02*
X005246Y005018D01*
X005246Y004939D02*
X005204Y004939D01*
X005282Y004860D02*
X005305Y004860D01*
X005361Y004782D02*
X006590Y004782D01*
X006910Y004782D02*
X007289Y004782D01*
X007211Y004703D02*
X005439Y004703D01*
X005700Y004860D02*
X005780Y004860D01*
X005780Y004939D02*
X005700Y004939D01*
X005700Y005018D02*
X005780Y005018D01*
X005780Y005096D02*
X005700Y005096D01*
X005700Y005332D02*
X005780Y005332D01*
X005780Y005410D02*
X005700Y005410D01*
X005700Y005489D02*
X005780Y005489D01*
X005780Y005567D02*
X005700Y005567D01*
X005700Y005646D02*
X005780Y005646D01*
X006176Y005646D02*
X006550Y005646D01*
X006550Y005724D02*
X004790Y005724D01*
X004790Y005646D02*
X004710Y005646D01*
X004710Y005567D02*
X004790Y005567D01*
X004790Y005489D02*
X004710Y005489D01*
X004710Y005410D02*
X004790Y005410D01*
X005015Y005410D02*
X005246Y005410D01*
X005246Y005332D02*
X005049Y005332D01*
X005087Y005489D02*
X005246Y005489D01*
X005246Y005567D02*
X005087Y005567D01*
X005087Y005646D02*
X005305Y005646D01*
X005087Y005803D02*
X006167Y005803D01*
X006088Y005881D02*
X005087Y005881D01*
X005087Y005960D02*
X006009Y005960D01*
X005931Y006039D02*
X005666Y006039D01*
X005534Y006039D02*
X005040Y006039D01*
X005064Y006117D02*
X005405Y006117D01*
X005353Y006196D02*
X005113Y006196D01*
X005113Y006274D02*
X005331Y006274D01*
X005331Y006353D02*
X005113Y006353D01*
X005113Y006431D02*
X005362Y006431D01*
X005427Y006510D02*
X005093Y006510D01*
X005093Y006588D02*
X005850Y006588D01*
X005850Y006510D02*
X005773Y006510D01*
X005850Y006667D02*
X005093Y006667D01*
X005093Y006745D02*
X005850Y006745D01*
X005850Y006824D02*
X005093Y006824D01*
X005093Y006903D02*
X005850Y006903D01*
X005850Y006981D02*
X005093Y006981D01*
X005093Y007060D02*
X005850Y007060D01*
X005850Y007138D02*
X005093Y007138D01*
X005093Y007217D02*
X005850Y007217D01*
X005850Y007295D02*
X005093Y007295D01*
X005093Y007374D02*
X005850Y007374D01*
X005850Y007452D02*
X005093Y007452D01*
X005093Y007531D02*
X005141Y007531D01*
X005459Y007531D02*
X005850Y007531D01*
X005850Y007609D02*
X005532Y007609D01*
X005564Y007688D02*
X005850Y007688D01*
X005850Y007767D02*
X005569Y007767D01*
X005553Y007845D02*
X005910Y007845D01*
X006017Y007924D02*
X005509Y007924D01*
X005399Y008002D02*
X006095Y008002D01*
X006174Y008081D02*
X005459Y008081D01*
X005532Y008159D02*
X006252Y008159D01*
X006331Y008238D02*
X006116Y008238D01*
X006185Y008316D02*
X006409Y008316D01*
X006488Y008395D02*
X006217Y008395D01*
X006219Y008473D02*
X006567Y008473D01*
X006605Y008552D02*
X006200Y008552D01*
X006152Y008631D02*
X006605Y008631D01*
X006605Y008709D02*
X006033Y008709D01*
X006665Y008788D02*
X005038Y008788D01*
X004396Y008788D02*
X004250Y008788D01*
X004250Y008709D02*
X004341Y008709D01*
X004341Y008631D02*
X004250Y008631D01*
X004250Y008552D02*
X004341Y008552D01*
X004341Y008473D02*
X004250Y008473D01*
X004250Y008395D02*
X004341Y008395D01*
X004341Y008316D02*
X004250Y008316D01*
X004250Y008238D02*
X004341Y008238D01*
X004341Y008221D02*
X004341Y008221D01*
X004341Y008159D02*
X004250Y008159D01*
X004250Y008081D02*
X004341Y008081D01*
X004341Y008002D02*
X004250Y008002D01*
X004250Y007924D02*
X004341Y007924D01*
X004341Y007965D02*
X004341Y007965D01*
X004341Y007845D02*
X004250Y007845D01*
X004250Y007767D02*
X004341Y007767D01*
X004341Y007688D02*
X004249Y007688D01*
X004243Y007609D02*
X004341Y007609D01*
X004341Y007531D02*
X004233Y007531D01*
X004214Y007452D02*
X004341Y007452D01*
X004341Y007374D02*
X004189Y007374D01*
X004156Y007295D02*
X004341Y007295D01*
X004341Y007217D02*
X004113Y007217D01*
X004064Y007138D02*
X004341Y007138D01*
X004341Y007060D02*
X003996Y007060D01*
X003914Y006981D02*
X004341Y006981D01*
X004210Y006903D02*
X003807Y006903D01*
X003654Y006824D02*
X004131Y006824D01*
X004053Y006745D02*
X002140Y006745D01*
X002140Y006667D02*
X003974Y006667D01*
X003930Y006588D02*
X002140Y006588D01*
X002140Y006510D02*
X003930Y006510D01*
X003930Y006431D02*
X002140Y006431D01*
X002140Y006353D02*
X002237Y006353D01*
X002253Y006369D02*
X002183Y006299D01*
X002183Y005606D01*
X002253Y005536D01*
X002947Y005536D01*
X003017Y005606D01*
X003017Y006299D01*
X002947Y006369D01*
X002253Y006369D01*
X002183Y006274D02*
X002140Y006274D01*
X002140Y006196D02*
X002183Y006196D01*
X002183Y006117D02*
X002140Y006117D01*
X002140Y006039D02*
X002183Y006039D01*
X002183Y005960D02*
X002140Y005960D01*
X002140Y005881D02*
X002183Y005881D01*
X002183Y005803D02*
X002140Y005803D01*
X002140Y005724D02*
X002183Y005724D01*
X002183Y005646D02*
X002140Y005646D01*
X002140Y005567D02*
X002222Y005567D01*
X002140Y005489D02*
X003930Y005489D01*
X003930Y005567D02*
X003760Y005567D01*
X003883Y005646D02*
X003930Y005646D01*
X003930Y005410D02*
X002140Y005410D01*
X002140Y005332D02*
X002427Y005332D01*
X002364Y005306D02*
X002247Y005188D01*
X002183Y005035D01*
X002183Y004869D01*
X002247Y004716D01*
X002364Y004599D01*
X002517Y004536D01*
X002683Y004536D01*
X002836Y004599D01*
X002953Y004716D01*
X003017Y004869D01*
X003017Y005035D01*
X002953Y005188D01*
X002836Y005306D01*
X002683Y005369D01*
X002517Y005369D01*
X002364Y005306D01*
X002311Y005253D02*
X002140Y005253D01*
X002140Y005175D02*
X002241Y005175D01*
X002208Y005096D02*
X002140Y005096D01*
X002140Y005018D02*
X002183Y005018D01*
X002183Y004939D02*
X002140Y004939D01*
X002140Y004860D02*
X002187Y004860D01*
X002219Y004782D02*
X002140Y004782D01*
X002140Y004703D02*
X002259Y004703D01*
X002338Y004625D02*
X002140Y004625D01*
X002140Y004546D02*
X002491Y004546D01*
X002709Y004546D02*
X003491Y004546D01*
X003338Y004625D02*
X002862Y004625D01*
X002940Y004703D02*
X003259Y004703D01*
X003219Y004782D02*
X002981Y004782D01*
X003013Y004860D02*
X003187Y004860D01*
X003183Y004939D02*
X003017Y004939D01*
X003017Y005018D02*
X003183Y005018D01*
X003208Y005096D02*
X002992Y005096D01*
X002959Y005175D02*
X003241Y005175D01*
X003311Y005253D02*
X002889Y005253D01*
X002773Y005332D02*
X003427Y005332D01*
X003440Y005567D02*
X002978Y005567D01*
X003017Y005646D02*
X003317Y005646D01*
X003243Y005724D02*
X003017Y005724D01*
X003017Y005803D02*
X003211Y005803D01*
X003183Y005881D02*
X003017Y005881D01*
X003017Y005960D02*
X003183Y005960D01*
X003185Y006039D02*
X003017Y006039D01*
X003017Y006117D02*
X003217Y006117D01*
X003254Y006196D02*
X003017Y006196D01*
X003017Y006274D02*
X003332Y006274D01*
X003477Y006353D02*
X002963Y006353D01*
X003723Y006353D02*
X003930Y006353D01*
X003930Y006274D02*
X003868Y006274D01*
X004717Y006274D02*
X004717Y006274D01*
X004717Y006196D02*
X004717Y006196D01*
X004717Y006117D02*
X004717Y006117D01*
X004710Y006039D02*
X004790Y006039D01*
X004790Y005960D02*
X004710Y005960D01*
X004710Y005881D02*
X004790Y005881D01*
X004790Y005803D02*
X004710Y005803D01*
X004485Y005410D02*
X004470Y005410D01*
X003930Y005332D02*
X003773Y005332D01*
X003889Y005253D02*
X003930Y005253D01*
X004013Y004860D02*
X004052Y004860D01*
X003981Y004782D02*
X004130Y004782D01*
X004209Y004703D02*
X003940Y004703D01*
X003862Y004625D02*
X004287Y004625D01*
X004366Y004546D02*
X003709Y004546D01*
X003640Y004311D02*
X003560Y004311D01*
X003560Y004232D02*
X003640Y004232D01*
X003640Y004154D02*
X003560Y004154D01*
X003560Y004075D02*
X003640Y004075D01*
X003640Y003996D02*
X003560Y003996D01*
X003560Y003918D02*
X003017Y003918D01*
X003017Y003869D02*
X003017Y004035D01*
X002953Y004188D01*
X002836Y004306D01*
X002683Y004369D01*
X002517Y004369D01*
X002364Y004306D01*
X002247Y004188D01*
X002183Y004035D01*
X002183Y003869D01*
X002247Y003716D01*
X002364Y003599D01*
X002517Y003536D01*
X002683Y003536D01*
X002836Y003599D01*
X002953Y003716D01*
X003017Y003869D01*
X003004Y003839D02*
X003174Y003839D01*
X003206Y003761D02*
X002972Y003761D01*
X002919Y003682D02*
X003252Y003682D01*
X003331Y003604D02*
X002841Y003604D01*
X003204Y003447D02*
X002140Y003447D01*
X002140Y003525D02*
X003490Y003525D01*
X003710Y003525D02*
X004413Y003525D01*
X004413Y003604D02*
X003869Y003604D01*
X003948Y003682D02*
X004710Y003682D01*
X004710Y003761D02*
X004790Y003761D01*
X004790Y003839D02*
X004710Y003839D01*
X004710Y003918D02*
X004790Y003918D01*
X004790Y003996D02*
X004710Y003996D01*
X004499Y004075D02*
X004022Y004075D01*
X004037Y003996D02*
X004437Y003996D01*
X004413Y003918D02*
X003640Y003918D01*
X003993Y003761D02*
X004413Y003761D01*
X004413Y003839D02*
X004026Y003839D01*
X003989Y004154D02*
X004433Y004154D01*
X004433Y004232D02*
X003938Y004232D01*
X003859Y004311D02*
X004433Y004311D01*
X004433Y004389D02*
X002140Y004389D01*
X002140Y004311D02*
X002376Y004311D01*
X002290Y004232D02*
X002140Y004232D01*
X002140Y004154D02*
X002232Y004154D01*
X002200Y004075D02*
X002140Y004075D01*
X002140Y003996D02*
X002183Y003996D01*
X002183Y003918D02*
X002140Y003918D01*
X002140Y003839D02*
X002196Y003839D01*
X002228Y003761D02*
X002140Y003761D01*
X002140Y003682D02*
X002281Y003682D01*
X002359Y003604D02*
X002140Y003604D01*
X002140Y003368D02*
X003125Y003368D01*
X003047Y003290D02*
X002140Y003290D01*
X002140Y003211D02*
X002968Y003211D01*
X002890Y003132D02*
X002140Y003132D01*
X002140Y003054D02*
X002811Y003054D01*
X002733Y002975D02*
X002140Y002975D01*
X002140Y002897D02*
X002363Y002897D01*
X002226Y002818D02*
X002140Y002818D01*
X002140Y002740D02*
X002148Y002740D01*
X002637Y002897D02*
X002654Y002897D01*
X004790Y003682D02*
X005230Y003682D01*
X005151Y003761D02*
X005087Y003761D01*
X004433Y004468D02*
X002140Y004468D01*
X002824Y004311D02*
X003340Y004311D01*
X003262Y004232D02*
X002910Y004232D01*
X002968Y004154D02*
X003211Y004154D01*
X003178Y004075D02*
X003000Y004075D01*
X003017Y003996D02*
X003163Y003996D01*
X006234Y005332D02*
X006550Y005332D01*
X006550Y005410D02*
X006234Y005410D01*
X006234Y005489D02*
X006550Y005489D01*
X006550Y005567D02*
X006234Y005567D01*
X006950Y005567D02*
X007786Y005567D01*
X007786Y005489D02*
X006950Y005489D01*
X006950Y005410D02*
X007786Y005410D01*
X007786Y005332D02*
X006950Y005332D01*
X006950Y005253D02*
X007760Y005253D01*
X007682Y005175D02*
X006958Y005175D01*
X007002Y005096D02*
X007603Y005096D01*
X007525Y005018D02*
X007019Y005018D01*
X007015Y004939D02*
X007446Y004939D01*
X007368Y004860D02*
X006982Y004860D01*
X007534Y004546D02*
X007766Y004546D01*
X007766Y004468D02*
X007456Y004468D01*
X007377Y004389D02*
X007766Y004389D01*
X007766Y004311D02*
X007299Y004311D01*
X007770Y004782D02*
X009180Y004782D01*
X009180Y004860D02*
X008666Y004860D01*
X008734Y004939D02*
X009180Y004939D01*
X009180Y005018D02*
X008734Y005018D01*
X008734Y005096D02*
X009180Y005096D01*
X009182Y005175D02*
X008734Y005175D01*
X008734Y005253D02*
X009260Y005253D01*
X009288Y005332D02*
X008734Y005332D01*
X008734Y005410D02*
X009281Y005410D01*
X009295Y005489D02*
X008734Y005489D01*
X008734Y005567D02*
X009335Y005567D01*
X009435Y005646D02*
X008667Y005646D01*
X008552Y005724D02*
X006950Y005724D01*
X006950Y005646D02*
X007853Y005646D01*
X008183Y005803D02*
X008529Y005803D01*
X008529Y005881D02*
X008262Y005881D01*
X008340Y005960D02*
X008529Y005960D01*
X008419Y006039D02*
X008825Y006039D01*
X008825Y005960D02*
X008905Y005960D01*
X008905Y005881D02*
X008825Y005881D01*
X008825Y005803D02*
X008905Y005803D01*
X008905Y005724D02*
X008825Y005724D01*
X009179Y005724D02*
X009249Y005724D01*
X009218Y005803D02*
X009202Y005803D01*
X009202Y005881D02*
X009218Y005881D01*
X009218Y005960D02*
X009202Y005960D01*
X009218Y006039D02*
X008905Y006039D01*
X009202Y006117D02*
X009218Y006117D01*
X009218Y006196D02*
X009202Y006196D01*
X008529Y006117D02*
X008498Y006117D01*
X010200Y005702D02*
X010217Y005669D01*
X010227Y005669D01*
X011029Y005803D02*
X011467Y005803D01*
X011388Y005881D02*
X011062Y005881D01*
X011069Y005960D02*
X011309Y005960D01*
X011231Y006039D02*
X011055Y006039D01*
X011252Y005630D02*
X011328Y005555D01*
X011369Y005456D01*
X011369Y005349D01*
X011328Y005250D01*
X011270Y005192D01*
X011270Y004244D01*
X011270Y004244D01*
X011279Y004253D01*
X011371Y004253D01*
X011331Y004349D01*
X011331Y004456D01*
X011372Y004555D01*
X011448Y004630D01*
X011546Y004671D01*
X011653Y004671D01*
X011752Y004630D01*
X011825Y004558D01*
X011898Y004630D01*
X011996Y004671D01*
X012103Y004671D01*
X012202Y004630D01*
X012275Y004558D01*
X012348Y004630D01*
X012446Y004671D01*
X012553Y004671D01*
X012652Y004630D01*
X012660Y004622D01*
X013158Y004622D01*
X013158Y004863D01*
X013138Y004883D01*
X013138Y005030D01*
X013564Y005030D01*
X013564Y005048D01*
X013138Y005048D01*
X013138Y005152D01*
X013117Y005152D01*
X012850Y005420D01*
X012850Y005502D01*
X012850Y005489D02*
X011355Y005489D01*
X011369Y005410D02*
X012859Y005410D01*
X012938Y005332D02*
X011362Y005332D01*
X011329Y005253D02*
X013016Y005253D01*
X013095Y005175D02*
X011270Y005175D01*
X011270Y005096D02*
X013138Y005096D01*
X013138Y005018D02*
X011270Y005018D01*
X011270Y004939D02*
X013138Y004939D01*
X013158Y004860D02*
X011270Y004860D01*
X011270Y004782D02*
X013158Y004782D01*
X013158Y004703D02*
X011270Y004703D01*
X011270Y004625D02*
X011442Y004625D01*
X011369Y004546D02*
X011270Y004546D01*
X011270Y004468D02*
X011336Y004468D01*
X011331Y004389D02*
X011270Y004389D01*
X011270Y004311D02*
X011347Y004311D01*
X011758Y004625D02*
X011892Y004625D01*
X012208Y004625D02*
X012342Y004625D01*
X012658Y004625D02*
X013158Y004625D01*
X014032Y004860D02*
X014279Y004860D01*
X014279Y004782D02*
X014111Y004782D01*
X014189Y004703D02*
X014323Y004703D01*
X014220Y004625D02*
X014980Y004625D01*
X014980Y004703D02*
X014908Y004703D01*
X014952Y004782D02*
X014968Y004782D01*
X014968Y004860D02*
X014952Y004860D01*
X014952Y004939D02*
X014968Y004939D01*
X014655Y004860D02*
X014575Y004860D01*
X014575Y004782D02*
X014655Y004782D01*
X014655Y004703D02*
X014575Y004703D01*
X014220Y004546D02*
X014980Y004546D01*
X014980Y004468D02*
X014220Y004468D01*
X014220Y004389D02*
X014337Y004389D01*
X014300Y004311D02*
X014220Y004311D01*
X014220Y004232D02*
X014300Y004232D01*
X014300Y004154D02*
X014192Y004154D01*
X014113Y004075D02*
X014300Y004075D01*
X014300Y003996D02*
X014034Y003996D01*
X013956Y003918D02*
X014300Y003918D01*
X014314Y003839D02*
X013877Y003839D01*
X013799Y003761D02*
X014330Y003761D01*
X014359Y003682D02*
X013720Y003682D01*
X013642Y003604D02*
X014437Y003604D01*
X014516Y003525D02*
X013563Y003525D01*
X013485Y003447D02*
X014595Y003447D01*
X014673Y003368D02*
X013406Y003368D01*
X013328Y003290D02*
X014752Y003290D01*
X014830Y003211D02*
X013249Y003211D01*
X013170Y003132D02*
X014909Y003132D01*
X014987Y003054D02*
X013092Y003054D01*
X013013Y002975D02*
X015066Y002975D01*
X015144Y002897D02*
X014637Y002897D01*
X014774Y002818D02*
X015226Y002818D01*
X015148Y002740D02*
X014852Y002740D01*
X014885Y002661D02*
X015115Y002661D01*
X015083Y002583D02*
X014917Y002583D01*
X014917Y002504D02*
X015083Y002504D01*
X014363Y002897D02*
X013637Y002897D01*
X013774Y002818D02*
X014226Y002818D01*
X014148Y002740D02*
X013852Y002740D01*
X013885Y002661D02*
X014115Y002661D01*
X014083Y002583D02*
X013917Y002583D01*
X013917Y002504D02*
X014083Y002504D01*
X013363Y002897D02*
X012935Y002897D01*
X012856Y002818D02*
X013226Y002818D01*
X013148Y002740D02*
X012852Y002740D01*
X012885Y002661D02*
X013115Y002661D01*
X013083Y002583D02*
X012917Y002583D01*
X012917Y002504D02*
X013083Y002504D01*
X015374Y003290D02*
X017750Y003290D01*
X018925Y004075D02*
X019256Y004075D01*
X019256Y004154D02*
X018925Y004154D01*
X018925Y004232D02*
X019256Y004232D01*
X019256Y004311D02*
X018925Y004311D01*
X018925Y004389D02*
X019256Y004389D01*
X019256Y004468D02*
X018925Y004468D01*
X018925Y004546D02*
X019256Y004546D01*
X019297Y004625D02*
X018892Y004625D01*
X019040Y004782D02*
X017391Y004782D01*
X017470Y004860D02*
X018968Y004860D01*
X019650Y004860D02*
X019850Y004860D01*
X019850Y004782D02*
X019650Y004782D01*
X019650Y004703D02*
X019850Y004703D01*
X019850Y004625D02*
X019650Y004625D01*
X019650Y004546D02*
X019850Y004546D01*
X019850Y004468D02*
X019650Y004468D01*
X019650Y004389D02*
X019850Y004389D01*
X019850Y004311D02*
X019650Y004311D01*
X019650Y004232D02*
X019850Y004232D01*
X019850Y004154D02*
X019650Y004154D01*
X019650Y004075D02*
X019850Y004075D01*
X019850Y003996D02*
X019650Y003996D01*
X019650Y003918D02*
X019850Y003918D01*
X019850Y003839D02*
X019650Y003839D01*
X019650Y003761D02*
X019850Y003761D01*
X019850Y003682D02*
X019650Y003682D01*
X019650Y003604D02*
X019850Y003604D01*
X019850Y003525D02*
X019650Y003525D01*
X019650Y003447D02*
X019850Y003447D01*
X019850Y003368D02*
X019650Y003368D01*
X019650Y003302D02*
X019850Y003302D01*
X019850Y006102D01*
X020950Y006102D01*
X020950Y006202D01*
X019650Y006202D01*
X019650Y003302D01*
X020030Y003332D02*
X020030Y003404D01*
X020047Y003421D01*
X020047Y004584D01*
X020010Y004620D01*
X020010Y005077D01*
X020019Y005099D01*
X020019Y005206D01*
X020010Y005227D01*
X020010Y005942D01*
X020078Y005942D01*
X020107Y005914D01*
X020915Y005914D01*
X020943Y005942D01*
X021016Y005942D01*
X021110Y006036D01*
X021110Y006136D01*
X021110Y006269D01*
X021076Y006302D01*
X021211Y006302D01*
X021211Y006184D01*
X021281Y006114D01*
X022719Y006114D01*
X022789Y006184D01*
X022789Y006752D01*
X022860Y006752D01*
X022860Y002760D01*
X022747Y002873D01*
X022587Y002939D01*
X022540Y002939D01*
X022540Y002543D01*
X022460Y002543D01*
X022460Y002939D01*
X022413Y002939D01*
X022253Y002873D01*
X022130Y002750D01*
X022063Y002589D01*
X022063Y002542D01*
X022460Y002542D01*
X022460Y002462D01*
X022063Y002462D01*
X022063Y002452D01*
X021917Y002452D01*
X021917Y002537D01*
X022463Y003084D01*
X022534Y003084D01*
X022551Y003101D01*
X022726Y003101D01*
X022797Y003171D01*
X022797Y004334D01*
X022726Y004404D01*
X022670Y004404D01*
X022670Y004460D01*
X022719Y004460D01*
X022789Y004531D01*
X022789Y005221D01*
X022719Y005291D01*
X021281Y005291D01*
X021211Y005221D01*
X021211Y004531D01*
X021281Y004460D01*
X022030Y004460D01*
X022030Y004358D01*
X022006Y004334D01*
X022006Y003390D01*
X021535Y002919D01*
X021417Y002919D01*
X021264Y002856D01*
X021257Y002849D01*
X021026Y003081D01*
X021219Y003081D01*
X021219Y003712D01*
X020844Y003712D01*
X020844Y003263D01*
X020717Y003390D01*
X020717Y003864D01*
X020647Y003935D01*
X020153Y003935D01*
X020083Y003864D01*
X020083Y003371D01*
X020153Y003301D01*
X020297Y003301D01*
X021083Y002515D01*
X021083Y002452D01*
X020917Y002452D01*
X020917Y002585D01*
X020853Y002738D01*
X020736Y002856D01*
X020583Y002919D01*
X020479Y002919D01*
X020230Y003168D01*
X020066Y003332D01*
X020030Y003332D01*
X020030Y003368D02*
X020086Y003368D01*
X020083Y003447D02*
X020047Y003447D01*
X020047Y003525D02*
X020083Y003525D01*
X020083Y003604D02*
X020047Y003604D01*
X020047Y003682D02*
X020083Y003682D01*
X020083Y003761D02*
X020047Y003761D01*
X020047Y003839D02*
X020083Y003839D01*
X020047Y003918D02*
X020137Y003918D01*
X020145Y003950D02*
X020063Y004032D01*
X020063Y004247D01*
X020360Y004247D01*
X020360Y004327D01*
X020360Y004624D01*
X020145Y004624D01*
X020063Y004542D01*
X020063Y004327D01*
X020360Y004327D01*
X020440Y004327D01*
X020440Y004624D01*
X020655Y004624D01*
X020737Y004542D01*
X020737Y004327D01*
X020440Y004327D01*
X020440Y004247D01*
X020737Y004247D01*
X020737Y004032D01*
X020655Y003950D01*
X020440Y003950D01*
X020440Y004247D01*
X020360Y004247D01*
X020360Y003950D01*
X020145Y003950D01*
X020099Y003996D02*
X020047Y003996D01*
X020047Y004075D02*
X020063Y004075D01*
X020063Y004154D02*
X020047Y004154D01*
X020047Y004232D02*
X020063Y004232D01*
X020047Y004311D02*
X020360Y004311D01*
X020360Y004389D02*
X020440Y004389D01*
X020440Y004311D02*
X020844Y004311D01*
X020844Y004342D02*
X020844Y003792D01*
X021219Y003792D01*
X021219Y003712D01*
X021299Y003712D01*
X021299Y003081D01*
X021593Y003081D01*
X021675Y003163D01*
X021675Y003712D01*
X021300Y003712D01*
X021300Y003792D01*
X021675Y003792D01*
X021675Y004342D01*
X021593Y004424D01*
X021299Y004424D01*
X021299Y003792D01*
X021219Y003792D01*
X021219Y004424D01*
X020926Y004424D01*
X020844Y004342D01*
X020891Y004389D02*
X020737Y004389D01*
X020737Y004468D02*
X021274Y004468D01*
X021299Y004389D02*
X021219Y004389D01*
X021219Y004311D02*
X021299Y004311D01*
X021299Y004232D02*
X021219Y004232D01*
X021219Y004154D02*
X021299Y004154D01*
X021299Y004075D02*
X021219Y004075D01*
X021219Y003996D02*
X021299Y003996D01*
X021299Y003918D02*
X021219Y003918D01*
X021219Y003839D02*
X021299Y003839D01*
X021300Y003761D02*
X022006Y003761D01*
X022006Y003839D02*
X021675Y003839D01*
X021675Y003918D02*
X022006Y003918D01*
X022006Y003996D02*
X021675Y003996D01*
X021675Y004075D02*
X022006Y004075D01*
X022006Y004154D02*
X021675Y004154D01*
X021675Y004232D02*
X022006Y004232D01*
X022006Y004311D02*
X021675Y004311D01*
X021628Y004389D02*
X022030Y004389D01*
X022726Y004468D02*
X022860Y004468D01*
X022860Y004546D02*
X022789Y004546D01*
X022789Y004625D02*
X022860Y004625D01*
X022860Y004703D02*
X022789Y004703D01*
X022789Y004782D02*
X022860Y004782D01*
X022860Y004860D02*
X022789Y004860D01*
X022789Y004939D02*
X022860Y004939D01*
X022860Y005018D02*
X022789Y005018D01*
X022789Y005096D02*
X022860Y005096D01*
X022860Y005175D02*
X022789Y005175D01*
X022757Y005253D02*
X022860Y005253D01*
X022860Y005332D02*
X020973Y005332D01*
X020985Y005320D02*
X020915Y005390D01*
X020107Y005390D01*
X020036Y005320D01*
X020036Y004985D01*
X020107Y004914D01*
X020915Y004914D01*
X020985Y004985D01*
X020985Y005320D01*
X020985Y005253D02*
X021243Y005253D01*
X021211Y005175D02*
X020985Y005175D01*
X020985Y005096D02*
X021211Y005096D01*
X021211Y005018D02*
X020985Y005018D01*
X020939Y004939D02*
X021211Y004939D01*
X021211Y004860D02*
X020010Y004860D01*
X020010Y004782D02*
X021211Y004782D01*
X021211Y004703D02*
X020010Y004703D01*
X020010Y004625D02*
X021211Y004625D01*
X021211Y004546D02*
X020732Y004546D01*
X020440Y004546D02*
X020360Y004546D01*
X020360Y004468D02*
X020440Y004468D01*
X020063Y004468D02*
X020047Y004468D01*
X020047Y004546D02*
X020068Y004546D01*
X020063Y004389D02*
X020047Y004389D01*
X020360Y004232D02*
X020440Y004232D01*
X020440Y004154D02*
X020360Y004154D01*
X020360Y004075D02*
X020440Y004075D01*
X020440Y003996D02*
X020360Y003996D01*
X020663Y003918D02*
X020844Y003918D01*
X020844Y003996D02*
X020701Y003996D01*
X020737Y004075D02*
X020844Y004075D01*
X020844Y004154D02*
X020737Y004154D01*
X020737Y004232D02*
X020844Y004232D01*
X020844Y003839D02*
X020717Y003839D01*
X020717Y003761D02*
X021219Y003761D01*
X021219Y003682D02*
X021299Y003682D01*
X021299Y003604D02*
X021219Y003604D01*
X021219Y003525D02*
X021299Y003525D01*
X021299Y003447D02*
X021219Y003447D01*
X021219Y003368D02*
X021299Y003368D01*
X021299Y003290D02*
X021219Y003290D01*
X021219Y003211D02*
X021299Y003211D01*
X021299Y003132D02*
X021219Y003132D01*
X021053Y003054D02*
X021670Y003054D01*
X021645Y003132D02*
X021748Y003132D01*
X021675Y003211D02*
X021827Y003211D01*
X021905Y003290D02*
X021675Y003290D01*
X021675Y003368D02*
X021984Y003368D01*
X022006Y003447D02*
X021675Y003447D01*
X021675Y003525D02*
X022006Y003525D01*
X022006Y003604D02*
X021675Y003604D01*
X021675Y003682D02*
X022006Y003682D01*
X022797Y003682D02*
X022860Y003682D01*
X022860Y003604D02*
X022797Y003604D01*
X022797Y003525D02*
X022860Y003525D01*
X022860Y003447D02*
X022797Y003447D01*
X022797Y003368D02*
X022860Y003368D01*
X022860Y003290D02*
X022797Y003290D01*
X022797Y003211D02*
X022860Y003211D01*
X022860Y003132D02*
X022758Y003132D01*
X022860Y003054D02*
X022433Y003054D01*
X022355Y002975D02*
X022860Y002975D01*
X022860Y002897D02*
X022689Y002897D01*
X022802Y002818D02*
X022860Y002818D01*
X022540Y002818D02*
X022460Y002818D01*
X022460Y002740D02*
X022540Y002740D01*
X022540Y002661D02*
X022460Y002661D01*
X022460Y002583D02*
X022540Y002583D01*
X022460Y002504D02*
X021917Y002504D01*
X021962Y002583D02*
X022063Y002583D01*
X022041Y002661D02*
X022093Y002661D01*
X022119Y002740D02*
X022126Y002740D01*
X022198Y002818D02*
X022198Y002818D01*
X022276Y002897D02*
X022311Y002897D01*
X022460Y002897D02*
X022540Y002897D01*
X021591Y002975D02*
X021131Y002975D01*
X021210Y002897D02*
X021363Y002897D01*
X020937Y002661D02*
X020885Y002661D01*
X020858Y002740D02*
X020852Y002740D01*
X020779Y002818D02*
X020774Y002818D01*
X020701Y002897D02*
X020637Y002897D01*
X020622Y002975D02*
X020423Y002975D01*
X020344Y003054D02*
X020544Y003054D01*
X020465Y003132D02*
X020266Y003132D01*
X020187Y003211D02*
X020387Y003211D01*
X020308Y003290D02*
X020109Y003290D01*
X020717Y003447D02*
X020844Y003447D01*
X020844Y003525D02*
X020717Y003525D01*
X020717Y003604D02*
X020844Y003604D01*
X020844Y003682D02*
X020717Y003682D01*
X020739Y003368D02*
X020844Y003368D01*
X020844Y003290D02*
X020817Y003290D01*
X020917Y002583D02*
X021015Y002583D01*
X021083Y002504D02*
X020917Y002504D01*
X022797Y003761D02*
X022860Y003761D01*
X022860Y003839D02*
X022797Y003839D01*
X022797Y003918D02*
X022860Y003918D01*
X022860Y003996D02*
X022797Y003996D01*
X022797Y004075D02*
X022860Y004075D01*
X022860Y004154D02*
X022797Y004154D01*
X022797Y004232D02*
X022860Y004232D01*
X022860Y004311D02*
X022797Y004311D01*
X022741Y004389D02*
X022860Y004389D01*
X021005Y005476D02*
X020923Y005394D01*
X020530Y005394D01*
X020530Y005633D01*
X020530Y005671D01*
X021005Y005671D01*
X021005Y005828D01*
X020923Y005910D01*
X020530Y005910D01*
X020530Y005672D01*
X020491Y005672D01*
X020491Y005910D01*
X020098Y005910D01*
X020016Y005828D01*
X020016Y005671D01*
X020491Y005671D01*
X020491Y005633D01*
X020016Y005633D01*
X020016Y005476D01*
X020098Y005394D01*
X020491Y005394D01*
X020491Y005633D01*
X020530Y005633D01*
X021005Y005633D01*
X021005Y005476D01*
X021005Y005489D02*
X022860Y005489D01*
X022860Y005567D02*
X021005Y005567D01*
X020939Y005410D02*
X022860Y005410D01*
X022860Y005646D02*
X020530Y005646D01*
X020491Y005646D02*
X020010Y005646D01*
X020010Y005724D02*
X020016Y005724D01*
X020010Y005803D02*
X020016Y005803D01*
X020010Y005881D02*
X020069Y005881D01*
X019850Y005881D02*
X019650Y005881D01*
X019650Y005803D02*
X019850Y005803D01*
X019850Y005724D02*
X019650Y005724D01*
X019650Y005646D02*
X019850Y005646D01*
X019850Y005567D02*
X019650Y005567D01*
X019650Y005489D02*
X019850Y005489D01*
X019850Y005410D02*
X019650Y005410D01*
X019650Y005332D02*
X019850Y005332D01*
X019850Y005253D02*
X019650Y005253D01*
X019650Y005175D02*
X019850Y005175D01*
X019850Y005096D02*
X019650Y005096D01*
X019650Y005018D02*
X019850Y005018D01*
X019850Y004939D02*
X019650Y004939D01*
X020010Y004939D02*
X020082Y004939D01*
X020036Y005018D02*
X020010Y005018D01*
X020018Y005096D02*
X020036Y005096D01*
X020036Y005175D02*
X020019Y005175D01*
X020010Y005253D02*
X020036Y005253D01*
X020048Y005332D02*
X020010Y005332D01*
X020010Y005410D02*
X020082Y005410D01*
X020016Y005489D02*
X020010Y005489D01*
X020010Y005567D02*
X020016Y005567D01*
X020491Y005567D02*
X020530Y005567D01*
X020530Y005489D02*
X020491Y005489D01*
X020491Y005410D02*
X020530Y005410D01*
X020530Y005724D02*
X020491Y005724D01*
X020491Y005803D02*
X020530Y005803D01*
X020530Y005881D02*
X020491Y005881D01*
X020952Y005881D02*
X022860Y005881D01*
X022860Y005803D02*
X021005Y005803D01*
X021005Y005724D02*
X022860Y005724D01*
X022860Y005960D02*
X021034Y005960D01*
X021110Y006039D02*
X022860Y006039D01*
X022860Y006117D02*
X022722Y006117D01*
X022789Y006196D02*
X022860Y006196D01*
X022860Y006274D02*
X022789Y006274D01*
X022789Y006353D02*
X022860Y006353D01*
X022860Y006431D02*
X022789Y006431D01*
X022789Y006510D02*
X022860Y006510D01*
X022860Y006588D02*
X022789Y006588D01*
X022789Y006667D02*
X022860Y006667D01*
X022860Y006745D02*
X022789Y006745D01*
X021278Y006117D02*
X021110Y006117D01*
X021110Y006196D02*
X021211Y006196D01*
X021211Y006274D02*
X021104Y006274D01*
X020950Y006196D02*
X019650Y006196D01*
X019650Y006117D02*
X020950Y006117D01*
X019850Y006039D02*
X019650Y006039D01*
X019650Y005960D02*
X019850Y005960D01*
X017053Y006667D02*
X015969Y006667D01*
X015952Y006745D02*
X016974Y006745D01*
X014467Y007138D02*
X014070Y007138D01*
X013998Y007060D02*
X014377Y007060D01*
X014342Y006981D02*
X013919Y006981D01*
X013869Y006903D02*
X014331Y006903D01*
X014281Y006824D02*
X013926Y006824D01*
X013988Y006745D02*
X014203Y006745D01*
X014124Y006667D02*
X013988Y006667D01*
X013988Y006588D02*
X014046Y006588D01*
X013347Y007609D02*
X012582Y007609D01*
X012614Y007688D02*
X013274Y007688D01*
X013195Y007767D02*
X012619Y007767D01*
X012603Y007845D02*
X013117Y007845D01*
X013038Y007924D02*
X012559Y007924D01*
X012610Y008002D02*
X012449Y008002D01*
X012531Y008081D02*
X011170Y008081D01*
X011170Y008159D02*
X012453Y008159D01*
X012084Y008238D02*
X012015Y008238D01*
X012030Y008316D02*
X012070Y008316D01*
X012070Y008395D02*
X012030Y008395D01*
X012030Y008473D02*
X012070Y008473D01*
X012070Y008552D02*
X012030Y008552D01*
X012030Y008631D02*
X012070Y008631D01*
X012070Y008709D02*
X012030Y008709D01*
X011995Y008788D02*
X012105Y008788D01*
X012664Y008788D02*
X012936Y008788D01*
X012900Y008709D02*
X012700Y008709D01*
X012700Y008631D02*
X012900Y008631D01*
X012900Y008552D02*
X012700Y008552D01*
X012700Y008473D02*
X012900Y008473D01*
X012900Y008395D02*
X012700Y008395D01*
X012251Y008002D02*
X011170Y008002D01*
X011209Y007924D02*
X012141Y007924D01*
X012097Y007845D02*
X011253Y007845D01*
X011269Y007767D02*
X011474Y007767D01*
X011395Y007688D02*
X011264Y007688D01*
X011232Y007609D02*
X011317Y007609D01*
X010747Y007845D02*
X010651Y007845D01*
X010791Y007924D02*
X009936Y007924D01*
X009920Y007939D02*
X009705Y007939D01*
X009705Y007642D01*
X010002Y007642D01*
X010002Y007857D01*
X009920Y007939D01*
X010002Y007845D02*
X010018Y007845D01*
X010018Y007767D02*
X010002Y007767D01*
X010002Y007688D02*
X010018Y007688D01*
X010018Y007609D02*
X009705Y007609D01*
X009705Y007642D02*
X009705Y007562D01*
X009705Y007266D01*
X009920Y007266D01*
X010002Y007347D01*
X010002Y007562D01*
X009705Y007562D01*
X009625Y007562D01*
X009625Y007266D01*
X009410Y007266D01*
X009329Y007347D01*
X009329Y007562D01*
X009625Y007562D01*
X009625Y007642D01*
X009329Y007642D01*
X009329Y007857D01*
X009410Y007939D01*
X009625Y007939D01*
X009625Y007642D01*
X009705Y007642D01*
X009705Y007688D02*
X009625Y007688D01*
X009625Y007609D02*
X009267Y007609D01*
X009269Y007531D02*
X009329Y007531D01*
X009329Y007452D02*
X009250Y007452D01*
X009202Y007374D02*
X009329Y007374D01*
X009381Y007295D02*
X009082Y007295D01*
X008918Y007295D02*
X008247Y007295D01*
X008169Y007374D02*
X008798Y007374D01*
X008750Y007452D02*
X008090Y007452D01*
X008012Y007531D02*
X008731Y007531D01*
X008733Y007609D02*
X007933Y007609D01*
X007705Y007688D02*
X008765Y007688D01*
X008830Y007767D02*
X007626Y007767D01*
X007667Y007845D02*
X007548Y007845D01*
X007932Y008473D02*
X008244Y008473D01*
X008245Y008552D02*
X008325Y008552D01*
X008325Y008631D02*
X008245Y008631D01*
X008245Y008709D02*
X008325Y008709D01*
X008325Y008788D02*
X008245Y008788D01*
X007978Y008788D02*
X007893Y008788D01*
X007932Y008709D02*
X007948Y008709D01*
X007948Y008631D02*
X007932Y008631D01*
X007932Y008552D02*
X007948Y008552D01*
X007337Y008788D02*
X007296Y008788D01*
X008591Y008788D02*
X008636Y008788D01*
X009195Y008788D02*
X009305Y008788D01*
X009270Y008709D02*
X009230Y008709D01*
X009230Y008631D02*
X009270Y008631D01*
X009270Y008552D02*
X009230Y008552D01*
X009230Y008473D02*
X009270Y008473D01*
X009900Y008473D02*
X010375Y008473D01*
X010375Y008462D02*
X010080Y008462D01*
X010080Y008244D01*
X010162Y008162D01*
X010375Y008162D01*
X010375Y008462D01*
X010455Y008462D01*
X010455Y008162D01*
X010668Y008162D01*
X010750Y008244D01*
X010750Y008462D01*
X010455Y008462D01*
X010455Y008542D01*
X010750Y008542D01*
X010750Y008760D01*
X010668Y008842D01*
X010455Y008842D01*
X010455Y008542D01*
X010375Y008542D01*
X010375Y008462D01*
X010375Y008395D02*
X010455Y008395D01*
X010455Y008473D02*
X010770Y008473D01*
X010770Y008395D02*
X010750Y008395D01*
X010750Y008316D02*
X010770Y008316D01*
X010784Y008238D02*
X010744Y008238D01*
X010830Y008159D02*
X009447Y008159D01*
X009369Y008081D02*
X010830Y008081D01*
X010830Y008002D02*
X009290Y008002D01*
X009212Y007924D02*
X009395Y007924D01*
X009329Y007845D02*
X009170Y007845D01*
X009170Y007767D02*
X009329Y007767D01*
X009329Y007688D02*
X009235Y007688D01*
X009625Y007767D02*
X009705Y007767D01*
X009705Y007845D02*
X009625Y007845D01*
X009625Y007924D02*
X009705Y007924D01*
X009885Y008238D02*
X010087Y008238D01*
X010080Y008316D02*
X009900Y008316D01*
X009900Y008395D02*
X010080Y008395D01*
X010375Y008316D02*
X010455Y008316D01*
X010455Y008238D02*
X010375Y008238D01*
X010375Y008542D02*
X010080Y008542D01*
X010080Y008760D01*
X010162Y008842D01*
X010375Y008842D01*
X010375Y008542D01*
X010375Y008552D02*
X010455Y008552D01*
X010455Y008631D02*
X010375Y008631D01*
X010375Y008709D02*
X010455Y008709D01*
X010455Y008788D02*
X010375Y008788D01*
X010108Y008788D02*
X009864Y008788D01*
X009900Y008709D02*
X010080Y008709D01*
X010080Y008631D02*
X009900Y008631D01*
X009900Y008552D02*
X010080Y008552D01*
X010750Y008552D02*
X010770Y008552D01*
X010770Y008631D02*
X010750Y008631D01*
X010750Y008709D02*
X010770Y008709D01*
X010805Y008788D02*
X010723Y008788D01*
X011364Y008788D02*
X011436Y008788D01*
X011400Y008709D02*
X011400Y008709D01*
X011400Y008682D02*
X011400Y008682D01*
X011400Y008316D02*
X011400Y008316D01*
X011385Y008238D02*
X011415Y008238D01*
X010018Y007531D02*
X010002Y007531D01*
X010002Y007452D02*
X010018Y007452D01*
X010018Y007374D02*
X010002Y007374D01*
X009950Y007295D02*
X010078Y007295D01*
X009705Y007295D02*
X009625Y007295D01*
X009625Y007374D02*
X009705Y007374D01*
X009705Y007452D02*
X009625Y007452D01*
X009625Y007531D02*
X009705Y007531D01*
X010560Y006852D02*
X010660Y006752D01*
X011315Y005567D02*
X011702Y005567D01*
X014008Y004939D02*
X014279Y004939D01*
X014575Y005096D02*
X014655Y005096D01*
X014655Y005175D02*
X014575Y005175D01*
X014575Y005253D02*
X014655Y005253D01*
X014655Y005332D02*
X014575Y005332D01*
X016524Y004468D02*
X016994Y004468D01*
X016875Y004389D02*
X016492Y004389D01*
X016420Y004311D02*
X016806Y004311D01*
X016774Y004232D02*
X016294Y004232D01*
X014980Y004389D02*
X014893Y004389D01*
X014930Y004311D02*
X014970Y004311D01*
X014970Y004232D02*
X014930Y004232D01*
X014930Y004154D02*
X014970Y004154D01*
X014970Y004075D02*
X014930Y004075D01*
X014930Y003996D02*
X014970Y003996D01*
X014970Y003918D02*
X014930Y003918D01*
X014917Y003839D02*
X014983Y003839D01*
X007853Y004860D02*
X007848Y004860D01*
X005784Y008238D02*
X005564Y008238D01*
X005569Y008316D02*
X005715Y008316D01*
X005683Y008395D02*
X005553Y008395D01*
D26*
X005300Y008302D03*
X005950Y008452D03*
X005300Y007752D03*
X006400Y007252D03*
X007700Y007152D03*
X009000Y007552D03*
X011000Y007752D03*
X012350Y007752D03*
X013600Y007702D03*
X013600Y006952D03*
X014600Y006902D03*
X015700Y006652D03*
X017300Y007502D03*
X017300Y008002D03*
X017250Y008552D03*
X016850Y008552D03*
X018900Y007802D03*
X021200Y005502D03*
X021700Y005502D03*
X019750Y005152D03*
X019200Y005002D03*
X019100Y004002D03*
X012500Y004402D03*
X012050Y004402D03*
X011600Y004402D03*
X010100Y003952D03*
X009550Y005402D03*
X009050Y005402D03*
X010800Y005952D03*
X011800Y006252D03*
X012250Y006252D03*
X012450Y006602D03*
X012000Y006602D03*
X011550Y006602D03*
X011800Y005352D03*
X011100Y005402D03*
X007950Y006352D03*
X006400Y006402D03*
X005600Y006302D03*
X006750Y005002D03*
D27*
X006550Y003802D02*
X008001Y005254D01*
X008260Y005254D01*
X009350Y005102D02*
X009350Y003852D01*
X009250Y003752D01*
X007200Y003752D01*
X006800Y003352D01*
X003350Y003352D01*
X002500Y002502D01*
X003500Y002502D02*
X004150Y003152D01*
X006900Y003152D01*
X007300Y003552D01*
X009350Y003552D01*
X009550Y003752D01*
X009550Y004902D01*
X009687Y005039D01*
X010227Y005039D01*
X010150Y004752D02*
X009750Y004752D01*
X009750Y003652D01*
X009450Y003352D01*
X007400Y003352D01*
X007000Y002952D01*
X004950Y002952D01*
X004500Y002502D01*
X006500Y002502D02*
X006850Y002502D01*
X007500Y003152D01*
X009550Y003152D01*
X010000Y003602D01*
X010800Y003602D01*
X010798Y003750D01*
X010798Y003838D01*
X011100Y003851D02*
X011100Y005402D01*
X010200Y005702D02*
X009950Y005702D01*
X009600Y005352D01*
X009550Y005402D01*
X009600Y005352D02*
X009350Y005102D01*
X010150Y004752D02*
X010200Y004702D01*
X010222Y004724D01*
X010227Y004724D01*
X010227Y004409D02*
X010327Y004379D01*
X011100Y003851D02*
X011113Y003838D01*
X011400Y003811D02*
X011400Y003502D01*
X011300Y003402D01*
X010100Y003402D01*
X009650Y002952D01*
X007900Y002952D01*
X007500Y002552D01*
X007500Y002502D01*
X009500Y002502D02*
X010200Y003202D01*
X011400Y003202D01*
X011600Y003402D01*
X012250Y003402D01*
X012350Y003502D01*
X012350Y003802D01*
X012372Y003825D01*
X012372Y003838D01*
X012650Y003802D02*
X012650Y003502D01*
X012350Y003202D01*
X011700Y003202D01*
X011500Y003002D01*
X010950Y003002D01*
X010500Y002552D01*
X010500Y002502D01*
X011500Y002502D02*
X011500Y002702D01*
X011800Y003002D01*
X012450Y003002D01*
X013002Y003555D01*
X013002Y003838D01*
X012687Y003838D02*
X012652Y003802D01*
X012650Y003802D01*
X012057Y003838D02*
X012050Y003846D01*
X012050Y004402D01*
X012500Y004402D02*
X012550Y004452D01*
X013550Y004452D01*
X013573Y004429D01*
X013573Y004409D01*
X013650Y004702D02*
X013950Y004702D01*
X014050Y004602D01*
X014050Y004252D01*
X012500Y002702D01*
X012500Y002502D01*
X011743Y003838D02*
X011743Y003895D01*
X011750Y003902D01*
X011750Y004252D01*
X011600Y004402D01*
X011428Y003838D02*
X011400Y003811D01*
X013573Y004724D02*
X013628Y004724D01*
X013650Y004702D01*
X013573Y005352D02*
X013573Y005354D01*
X013502Y005354D02*
X013500Y005352D01*
X013500Y005952D02*
X013531Y005984D01*
X013573Y005984D01*
X013469Y005984D01*
X013450Y006002D01*
X013400Y005952D01*
X013573Y006299D02*
X013646Y006299D01*
X013650Y006302D02*
X014000Y006302D01*
X014600Y006902D01*
X013900Y007202D02*
X013650Y006952D01*
X013600Y006952D01*
X013650Y006952D02*
X013650Y006602D01*
X013639Y006614D02*
X013573Y006614D01*
X013000Y006852D02*
X012950Y006802D01*
X012950Y006352D01*
X012550Y005952D01*
X012100Y005952D01*
X011800Y006252D01*
X012250Y006252D02*
X012550Y006252D01*
X012750Y006452D01*
X012750Y006802D01*
X012700Y006852D01*
X012700Y007202D01*
X012687Y007190D01*
X012687Y007185D01*
X012372Y007175D02*
X012372Y007185D01*
X012372Y007175D02*
X012350Y007152D01*
X012350Y006702D01*
X012450Y006602D01*
X012050Y006652D02*
X012000Y006602D01*
X012050Y006652D02*
X012050Y007202D01*
X012057Y007195D01*
X012057Y007185D01*
X011750Y007152D02*
X011750Y006802D01*
X011550Y006602D01*
X011100Y006852D02*
X011100Y007152D01*
X011113Y007165D01*
X011113Y007185D01*
X011400Y007252D02*
X011400Y007452D01*
X011600Y007652D01*
X012250Y007652D01*
X012350Y007752D01*
X012700Y008152D02*
X012450Y008402D01*
X012400Y008487D01*
X012385Y008502D01*
X012700Y008152D02*
X013050Y008152D01*
X013500Y007702D01*
X013600Y007702D01*
X013900Y007852D02*
X013750Y008002D01*
X013500Y008002D01*
X013150Y008352D01*
X013250Y008402D01*
X013200Y008468D01*
X013215Y008502D01*
X013885Y008468D02*
X013885Y008502D01*
X013900Y008502D02*
X014515Y008502D01*
X014350Y008452D01*
X013900Y008502D02*
X013885Y008468D01*
X013900Y007852D02*
X013900Y007202D01*
X013002Y007185D02*
X013002Y007155D01*
X013000Y007152D01*
X013000Y006852D01*
X011750Y007152D02*
X011743Y007160D01*
X011743Y007185D01*
X011428Y007185D02*
X011428Y007225D01*
X011400Y007252D01*
X010798Y007185D02*
X010765Y007052D01*
X008250Y007052D01*
X007850Y007452D01*
X007700Y007452D01*
X007300Y007852D01*
X006996Y007852D01*
X006981Y007837D01*
X006915Y007837D01*
X006900Y007852D01*
X006650Y007852D01*
X006400Y007602D01*
X006400Y007202D01*
X006450Y007252D01*
X006400Y007252D01*
X006650Y007052D02*
X006964Y007052D01*
X006981Y007069D01*
X006983Y007069D01*
X007000Y007052D01*
X007350Y007052D01*
X007750Y006652D01*
X010100Y006652D01*
X010150Y006602D01*
X010215Y006602D01*
X010227Y006614D01*
X010560Y006852D02*
X008000Y006852D01*
X007700Y007152D01*
X007250Y007602D01*
X007002Y007602D01*
X006981Y007581D01*
X007659Y008093D02*
X007800Y007952D01*
X009000Y007952D01*
X009500Y008452D01*
X009585Y008418D01*
X009585Y008502D01*
X008915Y008468D02*
X008915Y008502D01*
X008915Y008468D02*
X008900Y008452D01*
X009000Y007952D02*
X009000Y007552D01*
X007659Y008093D02*
X006981Y008093D01*
X006981Y008349D02*
X007000Y008368D01*
X006981Y008349D02*
X006977Y008352D01*
X006983Y008602D02*
X006981Y008605D01*
X006983Y008602D02*
X007000Y008602D01*
X007600Y008602D02*
X007600Y008568D01*
X007615Y008502D01*
X007715Y008418D01*
X007700Y008402D01*
X005950Y008452D02*
X005800Y008602D01*
X004750Y008602D01*
X004748Y008605D01*
X004717Y008605D01*
X004750Y008352D02*
X005250Y008352D01*
X005300Y008302D01*
X005000Y008102D02*
X005300Y007802D01*
X005300Y007752D01*
X005000Y008102D02*
X004726Y008102D01*
X004717Y008093D01*
X004717Y008349D02*
X004746Y008349D01*
X004750Y008352D01*
X006400Y006802D02*
X006650Y007052D01*
X006981Y006813D02*
X006992Y006802D01*
X007300Y006802D01*
X007700Y006402D01*
X007900Y006402D01*
X007950Y006352D01*
X009450Y006002D02*
X009500Y006002D01*
X010227Y005984D02*
X010245Y006002D01*
X010750Y006002D01*
X010800Y005952D01*
X010250Y006302D02*
X010246Y006299D01*
X010227Y006299D01*
X010173Y006302D01*
X010660Y006752D02*
X011000Y006752D01*
X011100Y006852D01*
X010385Y007637D02*
X010335Y007602D01*
X010385Y007637D02*
X010400Y007652D01*
X010950Y007652D01*
X011000Y007702D01*
X011000Y007752D01*
X011000Y008302D01*
X011050Y008352D01*
X011050Y008468D01*
X011085Y008502D01*
X015150Y007652D02*
X015185Y007602D01*
X015200Y007602D01*
X015989Y007552D02*
X016039Y007552D01*
X015989Y007052D02*
X015700Y007102D01*
X015700Y006652D01*
X017300Y007502D02*
X017350Y007552D01*
X017911Y007552D01*
X017350Y008052D02*
X017300Y008002D01*
X017350Y008052D02*
X017911Y008052D01*
X016850Y008552D02*
X016800Y008602D01*
X016050Y008602D01*
X016000Y008613D01*
X015989Y008552D01*
X006400Y006802D02*
X006400Y006402D01*
X004717Y006557D02*
X004712Y006552D01*
X004400Y006552D01*
X004300Y006452D01*
X004300Y005202D01*
X004550Y004952D01*
X004750Y005068D01*
X004750Y005102D01*
X004850Y005052D01*
X005500Y004402D01*
X005603Y004350D01*
X005740Y004250D01*
X005350Y003802D02*
X004865Y004287D01*
X004750Y004387D01*
X004665Y004487D01*
X004100Y005052D01*
X004100Y006552D01*
X004350Y006802D01*
X004706Y006802D01*
X004717Y006813D01*
X004700Y004402D02*
X004750Y004387D01*
X005350Y003802D02*
X006550Y003802D01*
D28*
X009500Y006002D02*
X009650Y006202D01*
X009535Y006002D02*
X009500Y006002D01*
X013500Y005352D02*
X013572Y005352D01*
X013573Y005354D01*
X014500Y006002D02*
X014650Y005852D01*
X014650Y006052D01*
X014615Y005902D01*
X013592Y006002D02*
X013573Y005984D01*
X013550Y005961D01*
X013550Y006002D01*
X013646Y006299D02*
X013650Y006302D01*
X013650Y006602D02*
X013639Y006614D01*
X015150Y007652D02*
X015250Y007552D01*
X015185Y007602D02*
X015200Y007652D01*
X015150Y007652D02*
X015150Y008502D01*
X015185Y008502D01*
X011715Y008502D02*
X011085Y008502D01*
X008900Y008452D02*
X008900Y008302D01*
X008750Y008152D01*
X007950Y008152D01*
X007700Y008402D01*
X007600Y008602D02*
X006983Y008602D01*
X007000Y008602D02*
X007000Y008368D01*
X006977Y008352D02*
X006700Y008352D01*
X006050Y007702D01*
X018300Y005152D02*
X018589Y005152D01*
X020400Y003618D02*
X020400Y003452D01*
X021400Y002452D01*
X021500Y002452D01*
X021500Y002502D01*
D29*
X015285Y004102D02*
X015200Y004118D01*
X014615Y004102D02*
X014550Y004068D01*
X015200Y005002D02*
X015285Y005002D01*
X015285Y005102D01*
X017150Y005102D01*
X017800Y005652D02*
X018300Y005152D01*
X018589Y005152D02*
X019050Y005152D01*
X019200Y005002D01*
X017800Y005652D02*
X017800Y006202D01*
X016450Y007552D01*
X016039Y007552D01*
X015989Y007552D02*
X015250Y007552D01*
X015200Y007652D02*
X015200Y006602D01*
X014650Y006052D01*
X014500Y006002D02*
X013592Y006002D01*
X013550Y006002D02*
X013200Y006002D01*
X013050Y005852D01*
X013050Y005702D01*
X013050Y005502D01*
X013200Y005352D01*
X013500Y005352D01*
X013050Y005702D02*
X011850Y005702D01*
X011250Y006302D01*
X010250Y006302D01*
X010173Y006302D02*
X009650Y006302D01*
X009650Y006202D01*
X009650Y006302D02*
X009550Y006402D01*
X008500Y006402D01*
X008100Y006002D01*
X006750Y006002D01*
X006750Y005002D01*
X006750Y006002D02*
X006250Y006002D01*
X006050Y006202D01*
X006050Y006302D01*
X005600Y006302D01*
X006050Y006302D02*
X006050Y007702D01*
X018589Y006652D02*
X018750Y006692D01*
X019550Y006686D02*
X019976Y006686D01*
X019976Y006653D02*
X020510Y006653D01*
X020510Y006950D01*
X020082Y006950D01*
X019976Y006845D01*
X019976Y006653D01*
X019976Y006652D02*
X019976Y006502D01*
X019550Y006502D01*
X019550Y006976D01*
X019756Y006976D01*
X019861Y007081D01*
X019861Y007334D01*
X019550Y007334D01*
X019550Y007371D01*
X019861Y007371D01*
X019861Y007622D01*
X019870Y007622D01*
X019870Y008222D01*
X020030Y008222D01*
X020030Y007622D01*
X020600Y007622D01*
X020705Y007728D01*
X020705Y008222D01*
X020030Y008222D01*
X020030Y008382D01*
X020705Y008382D01*
X020705Y008822D01*
X020750Y008822D01*
X020750Y007702D01*
X020762Y007554D01*
X020796Y007409D01*
X020854Y007271D01*
X020931Y007144D01*
X021028Y007031D01*
X021142Y006934D01*
X021169Y006917D01*
X021151Y006899D01*
X021151Y006597D01*
X021932Y006597D01*
X021932Y006502D01*
X021045Y006502D01*
X021045Y006652D01*
X020511Y006652D01*
X020511Y006653D01*
X020510Y006653D01*
X020510Y006652D01*
X019976Y006652D01*
X019976Y006528D02*
X019550Y006528D01*
X020250Y006652D02*
X020800Y006652D01*
X020800Y006952D01*
X020939Y006950D02*
X021045Y006845D01*
X021045Y006653D01*
X020511Y006653D01*
X020511Y006950D01*
X020939Y006950D01*
X021060Y007003D02*
X019784Y007003D01*
X019976Y006845D02*
X019550Y006845D01*
X019861Y007162D02*
X020921Y007162D01*
X020833Y007320D02*
X019861Y007320D01*
X019861Y007479D02*
X020780Y007479D01*
X020755Y007637D02*
X020615Y007637D01*
X020705Y007796D02*
X020750Y007796D01*
X020700Y007902D02*
X020350Y007902D01*
X019950Y007902D01*
X019950Y008302D01*
X020030Y008272D02*
X020750Y008272D01*
X020750Y008113D02*
X020705Y008113D01*
X020705Y007954D02*
X020750Y007954D01*
X020030Y007954D02*
X019870Y007954D01*
X019870Y007796D02*
X020030Y007796D01*
X020030Y007637D02*
X019870Y007637D01*
X019870Y008113D02*
X020030Y008113D01*
X020705Y008430D02*
X020750Y008430D01*
X020750Y008589D02*
X020705Y008589D01*
X020705Y008747D02*
X020750Y008747D01*
X020511Y006845D02*
X020510Y006845D01*
X020510Y006686D02*
X020511Y006686D01*
X021045Y006686D02*
X021151Y006686D01*
X021150Y006752D02*
X022000Y006752D01*
X022000Y006552D01*
X021950Y006552D01*
X021950Y006502D01*
X022000Y006502D01*
X022000Y006552D01*
X021950Y006502D02*
X021900Y006502D01*
X021932Y006528D02*
X021045Y006528D01*
X021045Y006845D02*
X021151Y006845D01*
X021932Y006752D02*
X021932Y006597D01*
X022068Y006597D01*
X022068Y006752D01*
X021932Y006752D01*
X021932Y006686D02*
X022068Y006686D01*
D30*
X022000Y004876D02*
X022200Y004876D01*
X022200Y004852D01*
X022350Y004852D01*
X022350Y003752D01*
X022401Y003752D01*
X022401Y003404D01*
D31*
X021550Y002552D02*
X021500Y002502D01*
D32*
X021550Y002552D02*
X022401Y003404D01*
D33*
X020500Y002502D02*
X019950Y003052D01*
X019750Y003052D01*
X019750Y004001D01*
X019651Y004002D01*
X018750Y006692D02*
X018750Y007287D01*
X018815Y007352D01*
D34*
X015200Y005002D02*
X015200Y004118D01*
X014550Y004068D02*
X014550Y003802D01*
X015300Y003052D01*
X019750Y003052D01*
D35*
X020350Y007652D02*
X020350Y007902D01*
M02*
