G75*
G70*
%OFA0B0*%
%FSLAX24Y24*%
%IPPOS*%
%LPD*%
%AMOC8*
5,1,8,0,0,1.08239X$1,22.5*
%
%ADD10C,0.0100*%
%ADD11C,0.0000*%
%ADD12C,0.0060*%
%ADD13C,0.0594*%
%ADD14O,0.1200X0.0600*%
%ADD15R,0.0594X0.0594*%
%ADD16OC8,0.0600*%
%ADD17C,0.0160*%
%ADD18C,0.0436*%
%ADD19C,0.0760*%
D10*
X008007Y005221D02*
X008007Y005657D01*
X008008Y005221D02*
X008406Y005221D01*
X008800Y005221D02*
X009199Y005221D01*
X009592Y005221D02*
X009991Y005221D01*
X010385Y005221D02*
X010783Y005221D01*
X011177Y005221D02*
X011575Y005221D01*
X011969Y005221D02*
X012368Y005221D01*
X012761Y005221D02*
X013160Y005221D01*
X013554Y005221D02*
X013952Y005221D01*
X014346Y005221D02*
X014745Y005221D01*
X015138Y005221D02*
X015537Y005221D01*
X015931Y005221D02*
X016329Y005221D01*
X016723Y005221D02*
X017122Y005221D01*
X017515Y005221D02*
X017914Y005221D01*
X018308Y005221D02*
X018706Y005221D01*
X019100Y005221D02*
X019499Y005221D01*
X019892Y005221D02*
X020291Y005221D01*
X020685Y005221D02*
X021083Y005221D01*
X021477Y005221D02*
X021876Y005221D01*
X022269Y005221D02*
X022668Y005221D01*
X023062Y005221D02*
X023460Y005221D01*
X023854Y005221D02*
X024253Y005221D01*
X024646Y005221D02*
X025045Y005221D01*
X025439Y005221D02*
X025837Y005221D01*
X026231Y005221D02*
X026630Y005221D01*
X027023Y005221D02*
X027422Y005221D01*
X027816Y005221D02*
X028214Y005221D01*
X028608Y005221D02*
X029007Y005221D01*
X029007Y005657D01*
X029007Y006051D02*
X029007Y006486D01*
X029007Y006880D02*
X029007Y007316D01*
X029007Y007710D02*
X029007Y008146D01*
X029007Y008539D02*
X029007Y008975D01*
X029007Y009369D02*
X029007Y009805D01*
X029007Y010198D02*
X029007Y010634D01*
X029007Y011028D02*
X029007Y011464D01*
X029007Y011858D02*
X029007Y012293D01*
X029007Y012687D02*
X029007Y013123D01*
X029007Y013517D02*
X029007Y013953D01*
X029007Y014346D02*
X029007Y014782D01*
X029007Y015176D02*
X029007Y015612D01*
X029007Y016005D02*
X029007Y016441D01*
X029007Y016835D02*
X029007Y017271D01*
X029006Y017271D02*
X028607Y017271D01*
X028213Y017271D02*
X027815Y017271D01*
X027421Y017271D02*
X027022Y017271D01*
X026629Y017271D02*
X026230Y017271D01*
X025836Y017271D02*
X025438Y017271D01*
X025044Y017271D02*
X024645Y017271D01*
X024252Y017271D02*
X023853Y017271D01*
X023459Y017271D02*
X023061Y017271D01*
X022667Y017271D02*
X022268Y017271D01*
X021875Y017271D02*
X021476Y017271D01*
X021082Y017271D02*
X020684Y017271D01*
X020290Y017271D02*
X019891Y017271D01*
X019498Y017271D02*
X019099Y017271D01*
X018705Y017271D02*
X018307Y017271D01*
X017913Y017271D02*
X017514Y017271D01*
X017121Y017271D02*
X016722Y017271D01*
X016328Y017271D02*
X015930Y017271D01*
X015536Y017271D02*
X015137Y017271D01*
X014744Y017271D02*
X014345Y017271D01*
X013951Y017271D02*
X013553Y017271D01*
X013159Y017271D02*
X012761Y017271D01*
X012367Y017271D02*
X011968Y017271D01*
X011574Y017271D02*
X011176Y017271D01*
X010782Y017271D02*
X010384Y017271D01*
X009990Y017271D02*
X009591Y017271D01*
X009198Y017271D02*
X008799Y017271D01*
X008405Y017271D02*
X008007Y017271D01*
X008007Y016835D01*
X008007Y016441D02*
X008007Y016005D01*
X008007Y015611D02*
X008007Y015176D01*
X008007Y014782D02*
X008007Y014346D01*
X008007Y013952D02*
X008007Y013516D01*
X008007Y013123D02*
X008007Y012687D01*
X008007Y012293D02*
X008007Y011857D01*
X008007Y011464D02*
X008007Y011028D01*
X008007Y010634D02*
X008007Y010198D01*
X008007Y009804D02*
X008007Y009369D01*
X008007Y008975D02*
X008007Y008539D01*
X008007Y008145D02*
X008007Y007709D01*
X008007Y007316D02*
X008007Y006880D01*
X008007Y006486D02*
X008007Y006050D01*
D11*
X008576Y011121D02*
X008578Y011169D01*
X008585Y011217D01*
X008596Y011264D01*
X008611Y011310D01*
X008630Y011354D01*
X008653Y011397D01*
X008680Y011437D01*
X008711Y011475D01*
X008745Y011509D01*
X008781Y011540D01*
X008821Y011568D01*
X008863Y011592D01*
X008907Y011613D01*
X008952Y011629D01*
X008999Y011641D01*
X009047Y011649D01*
X009095Y011652D01*
X009143Y011651D01*
X009191Y011645D01*
X009239Y011635D01*
X009285Y011621D01*
X009330Y011603D01*
X009372Y011581D01*
X009413Y011555D01*
X009451Y011525D01*
X009487Y011492D01*
X009519Y011456D01*
X009548Y011417D01*
X009573Y011376D01*
X009594Y011333D01*
X009611Y011287D01*
X009624Y011241D01*
X009633Y011193D01*
X009637Y011145D01*
X009637Y011097D01*
X009633Y011049D01*
X009624Y011001D01*
X009611Y010955D01*
X009594Y010909D01*
X009573Y010866D01*
X009548Y010825D01*
X009519Y010786D01*
X009487Y010750D01*
X009451Y010717D01*
X009413Y010687D01*
X009373Y010661D01*
X009330Y010639D01*
X009285Y010621D01*
X009239Y010607D01*
X009191Y010597D01*
X009143Y010591D01*
X009095Y010590D01*
X009047Y010593D01*
X008999Y010601D01*
X008952Y010613D01*
X008907Y010629D01*
X008863Y010650D01*
X008821Y010674D01*
X008781Y010702D01*
X008745Y010733D01*
X008711Y010767D01*
X008680Y010805D01*
X008653Y010845D01*
X008630Y010888D01*
X008611Y010932D01*
X008596Y010978D01*
X008585Y011025D01*
X008578Y011073D01*
X008576Y011121D01*
X027376Y011121D02*
X027378Y011169D01*
X027385Y011217D01*
X027396Y011264D01*
X027411Y011310D01*
X027430Y011354D01*
X027453Y011397D01*
X027480Y011437D01*
X027511Y011475D01*
X027545Y011509D01*
X027581Y011540D01*
X027621Y011568D01*
X027663Y011592D01*
X027707Y011613D01*
X027752Y011629D01*
X027799Y011641D01*
X027847Y011649D01*
X027895Y011652D01*
X027943Y011651D01*
X027991Y011645D01*
X028039Y011635D01*
X028085Y011621D01*
X028130Y011603D01*
X028172Y011581D01*
X028213Y011555D01*
X028251Y011525D01*
X028287Y011492D01*
X028319Y011456D01*
X028348Y011417D01*
X028373Y011376D01*
X028394Y011333D01*
X028411Y011287D01*
X028424Y011241D01*
X028433Y011193D01*
X028437Y011145D01*
X028437Y011097D01*
X028433Y011049D01*
X028424Y011001D01*
X028411Y010955D01*
X028394Y010909D01*
X028373Y010866D01*
X028348Y010825D01*
X028319Y010786D01*
X028287Y010750D01*
X028251Y010717D01*
X028213Y010687D01*
X028173Y010661D01*
X028130Y010639D01*
X028085Y010621D01*
X028039Y010607D01*
X027991Y010597D01*
X027943Y010591D01*
X027895Y010590D01*
X027847Y010593D01*
X027799Y010601D01*
X027752Y010613D01*
X027707Y010629D01*
X027663Y010650D01*
X027621Y010674D01*
X027581Y010702D01*
X027545Y010733D01*
X027511Y010767D01*
X027480Y010805D01*
X027453Y010845D01*
X027430Y010888D01*
X027411Y010932D01*
X027396Y010978D01*
X027385Y011025D01*
X027378Y011073D01*
X027376Y011121D01*
D12*
X007257Y011651D02*
X007257Y011971D01*
X007150Y012078D01*
X007043Y011971D01*
X007043Y011651D01*
X006830Y011651D02*
X006830Y012078D01*
X006936Y012078D01*
X007043Y011971D01*
X006612Y011971D02*
X006612Y011758D01*
X006505Y011651D01*
X006292Y011651D01*
X006185Y011758D01*
X006185Y011971D01*
X006292Y012078D01*
X006505Y012078D01*
X006612Y011971D01*
X005969Y012078D02*
X005755Y012078D01*
X005862Y012185D02*
X005862Y011758D01*
X005969Y011651D01*
X005539Y011651D02*
X005432Y011758D01*
X005432Y012185D01*
X005326Y012078D02*
X005539Y012078D01*
X005108Y011971D02*
X005001Y012078D01*
X004788Y012078D01*
X004681Y011971D01*
X004681Y011758D01*
X004788Y011651D01*
X005001Y011651D01*
X005108Y011758D01*
X005108Y011971D01*
X004464Y011971D02*
X004464Y011758D01*
X004357Y011651D01*
X004037Y011651D01*
X004037Y012291D01*
X004037Y012078D02*
X004357Y012078D01*
X004464Y011971D01*
D13*
X008507Y005721D03*
X009507Y005721D03*
X010507Y005721D03*
X011507Y005721D03*
X012507Y005721D03*
X013507Y005721D03*
X014507Y005721D03*
X015507Y005721D03*
X016507Y005721D03*
X017507Y005721D03*
X018507Y005721D03*
X019507Y005721D03*
X020507Y005721D03*
X021507Y005721D03*
X022507Y005721D03*
X023507Y005721D03*
X024507Y005721D03*
X025507Y005721D03*
X026507Y005721D03*
X027507Y005721D03*
X028507Y005721D03*
X028307Y007321D03*
X027307Y007321D03*
X027307Y008321D03*
X028307Y008321D03*
X027307Y009321D03*
D14*
X020807Y015621D03*
X020807Y016621D03*
D15*
X028307Y009321D03*
D16*
X019507Y015571D03*
X018507Y015571D03*
X017507Y015571D03*
X016507Y015571D03*
X015507Y015571D03*
X014507Y015571D03*
X013507Y015571D03*
X012507Y015571D03*
X011507Y015571D03*
X011507Y016571D03*
X012507Y016571D03*
X013507Y016571D03*
X014507Y016571D03*
X015507Y016571D03*
X016507Y016571D03*
X017507Y016571D03*
X018507Y016571D03*
X019507Y016571D03*
D17*
X019745Y016011D02*
X020218Y016011D01*
X020027Y015820D01*
X020027Y015641D01*
X020786Y015641D01*
X020786Y015601D01*
X020027Y015601D01*
X020027Y015422D01*
X020308Y015141D01*
X020787Y015141D01*
X020787Y015601D01*
X020827Y015601D01*
X021587Y015601D01*
X021587Y015422D01*
X021305Y015141D01*
X020827Y015141D01*
X020827Y015601D01*
X020827Y015641D01*
X021587Y015641D01*
X021587Y015820D01*
X021395Y016011D01*
X025175Y016011D01*
X027289Y016011D01*
X027617Y016339D01*
X027617Y016803D01*
X027378Y017041D01*
X028777Y017041D01*
X028777Y012121D01*
X027657Y012121D01*
X027531Y012111D01*
X027409Y012082D01*
X027293Y012034D01*
X027186Y011968D01*
X027091Y011886D01*
X027009Y011791D01*
X026944Y011684D01*
X026896Y011568D01*
X026866Y011446D01*
X026857Y011321D01*
X026857Y010769D01*
X026736Y010819D01*
X026577Y010819D01*
X026431Y010758D01*
X026319Y010646D01*
X026259Y010500D01*
X026259Y010342D01*
X026319Y010195D01*
X026431Y010083D01*
X026577Y010023D01*
X026687Y010023D01*
X026999Y009711D01*
X027022Y009711D01*
X026902Y009591D01*
X026830Y009416D01*
X026830Y009226D01*
X026890Y009081D01*
X025614Y009081D01*
X025517Y009178D01*
X025517Y009613D01*
X025517Y009828D01*
X025505Y009840D01*
X025505Y009950D01*
X025444Y010096D01*
X025332Y010208D01*
X025186Y010269D01*
X025027Y010269D01*
X024881Y010208D01*
X024769Y010096D01*
X024709Y009950D01*
X024709Y009792D01*
X024769Y009645D01*
X024881Y009533D01*
X024997Y009485D01*
X024997Y008963D01*
X025149Y008811D01*
X025247Y008713D01*
X025379Y008581D01*
X024914Y008581D01*
X024867Y008628D01*
X024867Y009213D01*
X024867Y009428D01*
X024660Y009635D01*
X024705Y009742D01*
X024705Y009900D01*
X024644Y010046D01*
X024532Y010158D01*
X024386Y010219D01*
X024227Y010219D01*
X024081Y010158D01*
X024034Y010111D01*
X023617Y010528D01*
X023464Y010681D01*
X021592Y010681D01*
X021544Y010796D01*
X021432Y010908D01*
X021286Y010969D01*
X021127Y010969D01*
X020981Y010908D01*
X020869Y010796D01*
X020809Y010650D01*
X020809Y010492D01*
X020869Y010345D01*
X020981Y010233D01*
X021127Y010173D01*
X021286Y010173D01*
X021287Y010173D01*
X021299Y010161D01*
X021514Y010161D01*
X022784Y010161D01*
X022754Y010131D01*
X015464Y010131D01*
X015017Y010578D01*
X014864Y010731D01*
X014064Y010731D01*
X013849Y010731D01*
X013799Y010681D01*
X013114Y010681D01*
X012899Y010681D01*
X012537Y010319D01*
X012427Y010319D01*
X012281Y010258D01*
X012169Y010146D01*
X012109Y010000D01*
X012109Y009842D01*
X012169Y009695D01*
X012281Y009583D01*
X012427Y009523D01*
X012586Y009523D01*
X012732Y009583D01*
X012844Y009695D01*
X012905Y009842D01*
X012905Y009951D01*
X013114Y010161D01*
X013904Y010161D01*
X013859Y010050D01*
X013859Y009892D01*
X013919Y009745D01*
X014031Y009633D01*
X014177Y009573D01*
X014287Y009573D01*
X014649Y009211D01*
X014864Y009211D01*
X023204Y009211D01*
X023234Y009181D01*
X022064Y009181D01*
X021849Y009181D01*
X021249Y008581D01*
X021097Y008428D01*
X021097Y007724D01*
X021019Y007646D01*
X020959Y007500D01*
X020959Y007342D01*
X021019Y007195D01*
X021084Y007131D01*
X008514Y007131D01*
X008467Y007178D01*
X008467Y009511D01*
X010399Y009511D01*
X010614Y009511D01*
X010764Y009661D01*
X010917Y009813D01*
X010917Y011613D01*
X010917Y011828D01*
X010617Y012128D01*
X010617Y012328D01*
X009855Y013090D01*
X009855Y013200D01*
X009794Y013346D01*
X009682Y013458D01*
X009536Y013519D01*
X009377Y013519D01*
X009231Y013458D01*
X009119Y013346D01*
X009059Y013200D01*
X009059Y013042D01*
X009119Y012895D01*
X009231Y012783D01*
X009377Y012723D01*
X009487Y012723D01*
X010097Y012113D01*
X010097Y011931D01*
X010037Y012001D01*
X009947Y012078D01*
X009847Y012139D01*
X009738Y012184D01*
X009624Y012212D01*
X009507Y012221D01*
X008237Y012221D01*
X008237Y017041D01*
X011185Y017041D01*
X010947Y016803D01*
X010947Y016339D01*
X011271Y016014D01*
X011027Y015770D01*
X011027Y015372D01*
X011308Y015091D01*
X011705Y015091D01*
X011987Y015372D01*
X011987Y015770D01*
X011745Y016011D01*
X012268Y016011D01*
X012027Y015770D01*
X012027Y015372D01*
X012308Y015091D01*
X012705Y015091D01*
X012987Y015372D01*
X012987Y015770D01*
X012745Y016011D01*
X013268Y016011D01*
X013027Y015770D01*
X013027Y015372D01*
X013308Y015091D01*
X013705Y015091D01*
X013987Y015372D01*
X013987Y015770D01*
X013745Y016011D01*
X014268Y016011D01*
X014027Y015770D01*
X014027Y015372D01*
X014308Y015091D01*
X014705Y015091D01*
X014987Y015372D01*
X014987Y015770D01*
X014745Y016011D01*
X015268Y016011D01*
X015027Y015770D01*
X015027Y015372D01*
X015308Y015091D01*
X015705Y015091D01*
X015987Y015372D01*
X015987Y015770D01*
X015745Y016011D01*
X016268Y016011D01*
X016027Y015770D01*
X016027Y015372D01*
X016308Y015091D01*
X016705Y015091D01*
X016987Y015372D01*
X016987Y015770D01*
X016745Y016011D01*
X017268Y016011D01*
X017027Y015770D01*
X017027Y015372D01*
X017308Y015091D01*
X017705Y015091D01*
X017987Y015372D01*
X017987Y015770D01*
X017745Y016011D01*
X018268Y016011D01*
X018027Y015770D01*
X018027Y015372D01*
X018308Y015091D01*
X018705Y015091D01*
X018987Y015372D01*
X018987Y015770D01*
X018745Y016011D01*
X019268Y016011D01*
X019027Y015770D01*
X019027Y015372D01*
X019308Y015091D01*
X019705Y015091D01*
X019987Y015372D01*
X019987Y015770D01*
X019745Y016011D01*
X019754Y016002D02*
X020209Y016002D01*
X020050Y015843D02*
X019913Y015843D01*
X019987Y015685D02*
X020027Y015685D01*
X020027Y015526D02*
X019987Y015526D01*
X019982Y015368D02*
X020081Y015368D01*
X020240Y015209D02*
X019824Y015209D01*
X019190Y015209D02*
X018824Y015209D01*
X018982Y015368D02*
X019031Y015368D01*
X019027Y015526D02*
X018987Y015526D01*
X018987Y015685D02*
X019027Y015685D01*
X019100Y015843D02*
X018913Y015843D01*
X018754Y016002D02*
X019259Y016002D01*
X018259Y016002D02*
X017754Y016002D01*
X017913Y015843D02*
X018100Y015843D01*
X018027Y015685D02*
X017987Y015685D01*
X017987Y015526D02*
X018027Y015526D01*
X018031Y015368D02*
X017982Y015368D01*
X017824Y015209D02*
X018190Y015209D01*
X017190Y015209D02*
X016824Y015209D01*
X016982Y015368D02*
X017031Y015368D01*
X017027Y015526D02*
X016987Y015526D01*
X016987Y015685D02*
X017027Y015685D01*
X017100Y015843D02*
X016913Y015843D01*
X016754Y016002D02*
X017259Y016002D01*
X016259Y016002D02*
X015754Y016002D01*
X015913Y015843D02*
X016100Y015843D01*
X016027Y015685D02*
X015987Y015685D01*
X015987Y015526D02*
X016027Y015526D01*
X016031Y015368D02*
X015982Y015368D01*
X015824Y015209D02*
X016190Y015209D01*
X015190Y015209D02*
X014824Y015209D01*
X014982Y015368D02*
X015031Y015368D01*
X015027Y015526D02*
X014987Y015526D01*
X014987Y015685D02*
X015027Y015685D01*
X015100Y015843D02*
X014913Y015843D01*
X014754Y016002D02*
X015259Y016002D01*
X014259Y016002D02*
X013754Y016002D01*
X013913Y015843D02*
X014100Y015843D01*
X014027Y015685D02*
X013987Y015685D01*
X013987Y015526D02*
X014027Y015526D01*
X014031Y015368D02*
X013982Y015368D01*
X013824Y015209D02*
X014190Y015209D01*
X013190Y015209D02*
X012824Y015209D01*
X012982Y015368D02*
X013031Y015368D01*
X013027Y015526D02*
X012987Y015526D01*
X012987Y015685D02*
X013027Y015685D01*
X013100Y015843D02*
X012913Y015843D01*
X012754Y016002D02*
X013259Y016002D01*
X012259Y016002D02*
X011754Y016002D01*
X011913Y015843D02*
X012100Y015843D01*
X012027Y015685D02*
X011987Y015685D01*
X011987Y015526D02*
X012027Y015526D01*
X012031Y015368D02*
X011982Y015368D01*
X011824Y015209D02*
X012190Y015209D01*
X011190Y015209D02*
X008237Y015209D01*
X008237Y015050D02*
X028777Y015050D01*
X028777Y014892D02*
X008237Y014892D01*
X008237Y014733D02*
X028777Y014733D01*
X028777Y014575D02*
X008237Y014575D01*
X008237Y014416D02*
X028777Y014416D01*
X028777Y014258D02*
X008237Y014258D01*
X008237Y014099D02*
X028777Y014099D01*
X028777Y013941D02*
X008237Y013941D01*
X008237Y013782D02*
X028777Y013782D01*
X028777Y013624D02*
X008237Y013624D01*
X008237Y013465D02*
X009247Y013465D01*
X009103Y013306D02*
X008237Y013306D01*
X008237Y013148D02*
X009059Y013148D01*
X009080Y012989D02*
X008237Y012989D01*
X008237Y012831D02*
X009184Y012831D01*
X009537Y012672D02*
X008237Y012672D01*
X008237Y012514D02*
X009696Y012514D01*
X009854Y012355D02*
X008237Y012355D01*
X009457Y013121D02*
X010357Y012221D01*
X010357Y012021D01*
X010657Y011721D01*
X010657Y009921D01*
X010507Y009771D01*
X008257Y009771D01*
X008207Y009721D01*
X008207Y007071D01*
X008407Y006871D01*
X022257Y006871D01*
X022257Y006971D01*
X022757Y006571D02*
X023257Y007071D01*
X023257Y008121D01*
X023907Y008921D02*
X021957Y008921D01*
X021357Y008321D01*
X021357Y007421D01*
X020983Y007282D02*
X008467Y007282D01*
X008467Y007440D02*
X020959Y007440D01*
X020999Y007599D02*
X008467Y007599D01*
X008467Y007757D02*
X021097Y007757D01*
X021097Y007916D02*
X008467Y007916D01*
X008467Y008075D02*
X021097Y008075D01*
X021097Y008233D02*
X008467Y008233D01*
X008467Y008392D02*
X021097Y008392D01*
X021218Y008550D02*
X008467Y008550D01*
X008467Y008709D02*
X021377Y008709D01*
X021535Y008867D02*
X008467Y008867D01*
X008467Y009026D02*
X021694Y009026D01*
X021157Y008871D02*
X020957Y008871D01*
X022758Y010136D02*
X015459Y010136D01*
X015301Y010294D02*
X020920Y010294D01*
X020825Y010453D02*
X015142Y010453D01*
X014984Y010611D02*
X020809Y010611D01*
X020858Y010770D02*
X010917Y010770D01*
X010917Y010928D02*
X021030Y010928D01*
X021384Y010928D02*
X026857Y010928D01*
X026857Y010770D02*
X026854Y010770D01*
X026459Y010770D02*
X021555Y010770D01*
X021257Y010571D02*
X021407Y010421D01*
X023357Y010421D01*
X023907Y009871D01*
X023907Y009471D01*
X023957Y009421D01*
X024107Y009421D01*
X024307Y009221D01*
X024307Y005921D01*
X024507Y005721D01*
X024947Y005538D02*
X025066Y005538D01*
X025102Y005451D02*
X025030Y005626D01*
X025030Y005816D01*
X025102Y005991D01*
X025236Y006125D01*
X025412Y006198D01*
X025601Y006198D01*
X025777Y006125D01*
X025911Y005991D01*
X025983Y005816D01*
X025983Y005626D01*
X025911Y005451D01*
X026102Y005451D01*
X026030Y005626D01*
X026030Y005816D01*
X026102Y005991D01*
X026236Y006125D01*
X026412Y006198D01*
X026601Y006198D01*
X026777Y006125D01*
X026911Y005991D01*
X026983Y005816D01*
X026983Y005626D01*
X026911Y005451D01*
X027102Y005451D01*
X027030Y005626D01*
X027030Y005816D01*
X027102Y005991D01*
X027236Y006125D01*
X027412Y006198D01*
X027601Y006198D01*
X027777Y006125D01*
X027911Y005991D01*
X027983Y005816D01*
X027983Y005626D01*
X027911Y005451D01*
X028102Y005451D01*
X028030Y005626D01*
X028030Y005702D01*
X028488Y005702D01*
X028488Y005739D01*
X028030Y005739D01*
X028030Y005816D01*
X028102Y005991D01*
X028236Y006125D01*
X028412Y006198D01*
X028488Y006198D01*
X028488Y005739D01*
X028525Y005739D01*
X028525Y006198D01*
X028601Y006198D01*
X028777Y006125D01*
X028777Y007210D01*
X028711Y007051D01*
X028577Y006917D01*
X028401Y006844D01*
X028212Y006844D01*
X028036Y006917D01*
X027902Y007051D01*
X027830Y007226D01*
X027830Y007416D01*
X027890Y007561D01*
X027723Y007561D01*
X027783Y007416D01*
X027783Y007339D01*
X027325Y007339D01*
X027325Y007302D01*
X027288Y007302D01*
X027288Y006844D01*
X027212Y006844D01*
X027036Y006917D01*
X026902Y007051D01*
X026830Y007226D01*
X026830Y007302D01*
X027288Y007302D01*
X027288Y007339D01*
X026830Y007339D01*
X026830Y007416D01*
X026890Y007561D01*
X026814Y007561D01*
X026754Y007501D01*
X026755Y007500D01*
X026755Y007342D01*
X026694Y007195D01*
X026582Y007083D01*
X026436Y007023D01*
X026277Y007023D01*
X026131Y007083D01*
X026019Y007195D01*
X025959Y007342D01*
X025959Y007500D01*
X026019Y007646D01*
X026131Y007758D01*
X026277Y007819D01*
X026337Y007819D01*
X026579Y008061D01*
X024914Y008061D01*
X024699Y008061D01*
X024567Y008193D01*
X024567Y006198D01*
X024601Y006198D01*
X024777Y006125D01*
X024911Y005991D01*
X024983Y005816D01*
X024983Y005626D01*
X024911Y005451D01*
X025102Y005451D01*
X025030Y005696D02*
X024983Y005696D01*
X024967Y005855D02*
X025046Y005855D01*
X025125Y006014D02*
X024888Y006014D01*
X024663Y006172D02*
X025350Y006172D01*
X025663Y006172D02*
X026350Y006172D01*
X026125Y006014D02*
X025888Y006014D01*
X025967Y005855D02*
X026046Y005855D01*
X026030Y005696D02*
X025983Y005696D01*
X025947Y005538D02*
X026066Y005538D01*
X026947Y005538D02*
X027066Y005538D01*
X027030Y005696D02*
X026983Y005696D01*
X026967Y005855D02*
X027046Y005855D01*
X027125Y006014D02*
X026888Y006014D01*
X026663Y006172D02*
X027350Y006172D01*
X027663Y006172D02*
X028350Y006172D01*
X028488Y006172D02*
X028525Y006172D01*
X028663Y006172D02*
X028777Y006172D01*
X028777Y006331D02*
X024567Y006331D01*
X024567Y006489D02*
X028777Y006489D01*
X028777Y006648D02*
X024567Y006648D01*
X024567Y006806D02*
X028777Y006806D01*
X028777Y006965D02*
X028625Y006965D01*
X028741Y007123D02*
X028777Y007123D01*
X027988Y006965D02*
X027625Y006965D01*
X027577Y006917D02*
X027711Y007051D01*
X027783Y007226D01*
X027783Y007302D01*
X027325Y007302D01*
X027325Y006844D01*
X027401Y006844D01*
X027577Y006917D01*
X027325Y006965D02*
X027288Y006965D01*
X027288Y007123D02*
X027325Y007123D01*
X027325Y007282D02*
X027288Y007282D01*
X026988Y006965D02*
X024567Y006965D01*
X024567Y007123D02*
X026091Y007123D01*
X025983Y007282D02*
X024567Y007282D01*
X024567Y007440D02*
X025959Y007440D01*
X025999Y007599D02*
X024567Y007599D01*
X024567Y007757D02*
X026130Y007757D01*
X026434Y007916D02*
X024567Y007916D01*
X024567Y008075D02*
X024685Y008075D01*
X024807Y008321D02*
X024607Y008521D01*
X024607Y009321D01*
X024307Y009621D01*
X024307Y009821D01*
X024673Y009977D02*
X024720Y009977D01*
X024709Y009819D02*
X024705Y009819D01*
X024671Y009660D02*
X024763Y009660D01*
X024707Y009621D02*
X024707Y010471D01*
X025057Y010721D02*
X025057Y011421D01*
X026305Y010611D02*
X023534Y010611D01*
X023692Y010453D02*
X026259Y010453D01*
X026278Y010294D02*
X023851Y010294D01*
X024009Y010136D02*
X024058Y010136D01*
X024555Y010136D02*
X024808Y010136D01*
X025107Y009871D02*
X025257Y009721D01*
X025257Y009071D01*
X025507Y008821D01*
X027807Y008821D01*
X028307Y009321D01*
X028807Y009721D02*
X028557Y009971D01*
X027107Y009971D01*
X026657Y010421D01*
X026379Y010136D02*
X025405Y010136D01*
X025493Y009977D02*
X026733Y009977D01*
X026891Y009819D02*
X025517Y009819D01*
X025517Y009660D02*
X026971Y009660D01*
X026865Y009501D02*
X025517Y009501D01*
X025517Y009343D02*
X026830Y009343D01*
X026847Y009184D02*
X025517Y009184D01*
X024997Y009184D02*
X024867Y009184D01*
X024867Y009026D02*
X024997Y009026D01*
X025092Y008867D02*
X024867Y008867D01*
X024907Y008821D02*
X024907Y009421D01*
X024707Y009621D01*
X024794Y009501D02*
X024958Y009501D01*
X024997Y009343D02*
X024867Y009343D01*
X024907Y008821D02*
X025007Y008721D01*
X024867Y008709D02*
X025251Y008709D01*
X024807Y008321D02*
X027307Y008321D01*
X026707Y007821D02*
X026357Y007471D01*
X026357Y007421D01*
X026730Y007282D02*
X026830Y007282D01*
X026840Y007440D02*
X026755Y007440D01*
X026872Y007123D02*
X026622Y007123D01*
X026707Y007821D02*
X028607Y007821D01*
X028807Y008021D01*
X028807Y009721D01*
X026857Y011087D02*
X010917Y011087D01*
X010917Y011245D02*
X026857Y011245D01*
X026863Y011404D02*
X010917Y011404D01*
X010917Y011563D02*
X026894Y011563D01*
X026966Y011721D02*
X010917Y011721D01*
X010865Y011880D02*
X027085Y011880D01*
X027304Y012038D02*
X010707Y012038D01*
X010617Y012197D02*
X028777Y012197D01*
X028777Y012355D02*
X010590Y012355D01*
X010431Y012514D02*
X028777Y012514D01*
X028777Y012672D02*
X010273Y012672D01*
X010114Y012831D02*
X028777Y012831D01*
X028777Y012989D02*
X009956Y012989D01*
X009855Y013148D02*
X028777Y013148D01*
X028777Y013306D02*
X009811Y013306D01*
X009666Y013465D02*
X028777Y013465D01*
X028607Y013771D02*
X028607Y014071D01*
X028777Y015209D02*
X021374Y015209D01*
X021532Y015368D02*
X028777Y015368D01*
X028777Y015526D02*
X021587Y015526D01*
X021587Y015685D02*
X028777Y015685D01*
X028777Y015843D02*
X021563Y015843D01*
X021404Y016002D02*
X028777Y016002D01*
X028777Y016160D02*
X027438Y016160D01*
X027597Y016319D02*
X028777Y016319D01*
X028777Y016477D02*
X027617Y016477D01*
X027617Y016636D02*
X028777Y016636D01*
X028777Y016794D02*
X027617Y016794D01*
X027466Y016953D02*
X028777Y016953D01*
X020827Y015526D02*
X020787Y015526D01*
X020787Y015368D02*
X020827Y015368D01*
X020827Y015209D02*
X020787Y015209D01*
X017757Y012671D02*
X017757Y012571D01*
X019857Y011871D02*
X019907Y011921D01*
X019907Y012021D01*
X021207Y010571D02*
X021257Y010571D01*
X023057Y009871D02*
X015357Y009871D01*
X014757Y010471D01*
X013957Y010471D01*
X013907Y010421D01*
X013007Y010421D01*
X012507Y009921D01*
X012895Y009819D02*
X013889Y009819D01*
X013859Y009977D02*
X012931Y009977D01*
X013089Y010136D02*
X013894Y010136D01*
X014257Y009971D02*
X014757Y009471D01*
X023507Y009471D01*
X023230Y009184D02*
X008467Y009184D01*
X008467Y009343D02*
X014517Y009343D01*
X014358Y009501D02*
X008467Y009501D01*
X008807Y009121D02*
X008757Y009071D01*
X008757Y008871D01*
X010707Y008171D02*
X010707Y008121D01*
X010807Y008021D01*
X010764Y009660D02*
X012204Y009660D01*
X012118Y009819D02*
X010917Y009819D01*
X010917Y009977D02*
X012109Y009977D01*
X012165Y010136D02*
X010917Y010136D01*
X010917Y010294D02*
X012368Y010294D01*
X012671Y010453D02*
X010917Y010453D01*
X010917Y010611D02*
X012829Y010611D01*
X012809Y009660D02*
X014004Y009660D01*
X014607Y008321D02*
X014507Y008221D01*
X014607Y008321D02*
X014707Y008321D01*
X016357Y006571D02*
X022757Y006571D01*
X023407Y006271D02*
X017057Y006271D01*
X016507Y005721D01*
X016357Y006571D02*
X015507Y005721D01*
X017957Y008221D02*
X018057Y008221D01*
X023407Y006271D02*
X023557Y006421D01*
X027741Y007123D02*
X027872Y007123D01*
X027830Y007282D02*
X027783Y007282D01*
X027773Y007440D02*
X027840Y007440D01*
X027888Y006014D02*
X028125Y006014D01*
X028046Y005855D02*
X027967Y005855D01*
X027983Y005696D02*
X028030Y005696D01*
X028066Y005538D02*
X027947Y005538D01*
X028488Y005855D02*
X028525Y005855D01*
X028525Y006014D02*
X028488Y006014D01*
X012907Y011871D02*
X012807Y011771D01*
X012657Y011771D01*
X010957Y012321D02*
X010957Y012471D01*
X010957Y012321D02*
X010907Y012271D01*
X010097Y012038D02*
X009994Y012038D01*
X010013Y012197D02*
X009686Y012197D01*
X011031Y015368D02*
X008237Y015368D01*
X008237Y015526D02*
X011027Y015526D01*
X011027Y015685D02*
X008237Y015685D01*
X008237Y015843D02*
X011100Y015843D01*
X011259Y016002D02*
X008237Y016002D01*
X008237Y016160D02*
X011125Y016160D01*
X010967Y016319D02*
X008237Y016319D01*
X008237Y016477D02*
X010947Y016477D01*
X010947Y016636D02*
X008237Y016636D01*
X008237Y016794D02*
X010947Y016794D01*
X011097Y016953D02*
X008237Y016953D01*
X008807Y015771D02*
X008757Y015721D01*
X008757Y015521D01*
D18*
X008807Y015771D03*
X009457Y013121D03*
X010907Y012271D03*
X012907Y011871D03*
X012507Y009921D03*
X014257Y009971D03*
X014707Y008321D03*
X018057Y008221D03*
X021157Y008871D03*
X023057Y009871D03*
X023507Y009471D03*
X023907Y008921D03*
X025007Y008721D03*
X024307Y009821D03*
X025107Y009871D03*
X026657Y010421D03*
X025057Y011421D03*
X026457Y013421D03*
X026457Y013971D03*
X026457Y014521D03*
X028607Y013771D03*
X025407Y016571D03*
X022907Y014521D03*
X022907Y013971D03*
X022907Y013421D03*
X019857Y011871D03*
X021207Y010571D03*
X017757Y012571D03*
X023257Y008121D03*
X022257Y006971D03*
X021357Y007421D03*
X023557Y006421D03*
X026357Y007421D03*
X010807Y008021D03*
X008757Y008871D03*
D19*
X011507Y016571D02*
X025407Y016571D01*
X027057Y016571D01*
M02*
