G75*
G70*
%OFA0B0*%
%FSLAX24Y24*%
%IPPOS*%
%LPD*%
%AMOC8*
5,1,8,0,0,1.08239X$1,22.5*
%
%ADD10C,0.0100*%
%ADD11C,0.0000*%
%ADD12C,0.0160*%
%ADD13C,0.0050*%
%ADD14C,0.0060*%
%ADD15C,0.0010*%
D10*
X002006Y005221D02*
X002404Y005221D01*
X002006Y005221D02*
X002006Y005657D01*
X002006Y006051D02*
X002006Y006486D01*
X002006Y006880D02*
X002006Y007316D01*
X002006Y007710D02*
X002006Y008146D01*
X002156Y007921D02*
X002306Y007921D01*
X002306Y006921D01*
X004106Y006921D01*
X004106Y009721D01*
X002306Y009721D01*
X002306Y008721D01*
X002156Y008721D01*
X002156Y007921D01*
X002006Y008539D02*
X002006Y008975D01*
X002006Y009369D02*
X002006Y009805D01*
X002256Y010071D02*
X002523Y010471D01*
X002716Y010338D02*
X002849Y010471D01*
X002849Y010071D01*
X002716Y010071D02*
X002983Y010071D01*
X002523Y010071D02*
X002256Y010471D01*
X002006Y010634D02*
X002006Y010198D01*
X002006Y011028D02*
X002006Y011464D01*
X002285Y011587D02*
X002352Y011521D01*
X002485Y011521D01*
X002552Y011587D01*
X002745Y011587D02*
X002812Y011521D01*
X002945Y011521D01*
X003012Y011587D01*
X003012Y011654D01*
X002945Y011721D01*
X002745Y011721D01*
X002745Y011587D01*
X002745Y011721D02*
X002879Y011854D01*
X003012Y011921D01*
X002552Y011854D02*
X002485Y011921D01*
X002352Y011921D01*
X002285Y011854D01*
X002285Y011587D01*
X002006Y011858D02*
X002006Y012293D01*
X002006Y012687D02*
X002006Y013123D01*
X002006Y013517D02*
X002006Y013953D01*
X002006Y014346D02*
X002006Y014782D01*
X002006Y015176D02*
X002006Y015612D01*
X002006Y016005D02*
X002006Y016441D01*
X002202Y016470D02*
X002556Y016824D01*
X003423Y016824D01*
X003591Y017271D02*
X003990Y017271D01*
X004384Y017271D02*
X004782Y017271D01*
X005176Y017271D02*
X005575Y017271D01*
X005968Y017271D02*
X006367Y017271D01*
X006761Y017271D02*
X007159Y017271D01*
X007553Y017271D02*
X007952Y017271D01*
X008345Y017271D02*
X008744Y017271D01*
X009138Y017271D02*
X009536Y017271D01*
X009930Y017271D02*
X010329Y017271D01*
X010456Y017121D02*
X009956Y017121D01*
X009706Y016871D01*
X009706Y016371D01*
X009956Y016121D01*
X010456Y016121D01*
X010706Y015871D01*
X010706Y015371D01*
X010456Y015121D01*
X009956Y015121D01*
X009706Y015371D01*
X009706Y015871D01*
X009956Y016121D01*
X010456Y016121D02*
X010706Y016371D01*
X010706Y016871D01*
X010456Y017121D01*
X010722Y017271D02*
X011121Y017271D01*
X011256Y017071D02*
X011006Y016821D01*
X011006Y015321D01*
X011256Y015071D01*
X011756Y015071D01*
X012006Y015321D01*
X012256Y015071D01*
X012756Y015071D01*
X013006Y015321D01*
X013256Y015071D01*
X013756Y015071D01*
X014006Y015321D01*
X014256Y015071D01*
X014756Y015071D01*
X015006Y015321D01*
X015256Y015071D01*
X015756Y015071D01*
X016006Y015321D01*
X016256Y015071D01*
X016756Y015071D01*
X017006Y015321D01*
X017256Y015071D01*
X017756Y015071D01*
X018006Y015321D01*
X018256Y015071D01*
X018756Y015071D01*
X019006Y015321D01*
X019256Y015071D01*
X019756Y015071D01*
X020006Y015321D01*
X020006Y016821D01*
X019756Y017071D01*
X019256Y017071D01*
X019006Y016821D01*
X019006Y015321D01*
X018006Y015321D02*
X018006Y016821D01*
X018256Y017071D01*
X018756Y017071D01*
X019006Y016821D01*
X019044Y017271D02*
X018645Y017271D01*
X018252Y017271D02*
X017853Y017271D01*
X017756Y017071D02*
X017256Y017071D01*
X017006Y016821D01*
X017006Y015321D01*
X016006Y015321D02*
X016006Y016821D01*
X016256Y017071D01*
X016756Y017071D01*
X017006Y016821D01*
X017061Y017271D02*
X017459Y017271D01*
X017756Y017071D02*
X018006Y016821D01*
X019438Y017271D02*
X019836Y017271D01*
X020230Y017271D02*
X020629Y017271D01*
X021022Y017271D02*
X021421Y017271D01*
X021815Y017271D02*
X022213Y017271D01*
X022607Y017271D02*
X023006Y017271D01*
X023006Y016835D01*
X022433Y016471D02*
X022166Y016471D01*
X022299Y016471D02*
X022299Y016871D01*
X022166Y016738D01*
X021973Y016804D02*
X021973Y016537D01*
X021906Y016471D01*
X021706Y016471D01*
X021706Y016871D01*
X021906Y016871D01*
X021973Y016804D01*
X023006Y016441D02*
X023006Y016005D01*
X023006Y015611D02*
X023006Y015176D01*
X022783Y015287D02*
X022783Y015354D01*
X022716Y015421D01*
X022516Y015421D01*
X022516Y015287D01*
X022583Y015221D01*
X022716Y015221D01*
X022783Y015287D01*
X022649Y015554D02*
X022516Y015421D01*
X022649Y015554D02*
X022783Y015621D01*
X022323Y015554D02*
X022323Y015287D01*
X022256Y015221D01*
X022122Y015221D01*
X022056Y015287D01*
X022056Y015554D01*
X022122Y015621D01*
X022256Y015621D01*
X022323Y015554D01*
X022189Y015354D02*
X022323Y015221D01*
X023006Y014782D02*
X023006Y014346D01*
X023006Y013952D02*
X023006Y013516D01*
X022843Y013504D02*
X022777Y013571D01*
X022643Y013571D01*
X022576Y013504D01*
X022843Y013504D02*
X022843Y013438D01*
X022576Y013171D01*
X022843Y013171D01*
X023006Y013123D02*
X023006Y012687D01*
X023006Y012293D02*
X023006Y011857D01*
X023006Y011464D02*
X023006Y011028D01*
X023006Y010634D02*
X023006Y010198D01*
X023006Y009804D02*
X023006Y009369D01*
X023006Y008975D02*
X023006Y008539D01*
X023006Y008145D02*
X023006Y007709D01*
X023006Y007316D02*
X023006Y006880D01*
X023006Y006486D02*
X023006Y006050D01*
X022583Y006521D02*
X022316Y006521D01*
X022583Y006788D01*
X022583Y006854D01*
X022516Y006921D01*
X022383Y006921D01*
X022316Y006854D01*
X022123Y006854D02*
X022123Y006721D01*
X022056Y006654D01*
X021856Y006654D01*
X021989Y006654D02*
X022123Y006521D01*
X021856Y006521D02*
X021856Y006921D01*
X022056Y006921D01*
X022123Y006854D01*
X020962Y006571D02*
X020695Y006571D01*
X020829Y006571D02*
X020829Y006971D01*
X020695Y006838D01*
X020502Y006904D02*
X020502Y006771D01*
X020435Y006704D01*
X020235Y006704D01*
X020235Y006571D02*
X020235Y006971D01*
X020435Y006971D01*
X020502Y006904D01*
X020368Y006704D02*
X020502Y006571D01*
X020206Y007450D02*
X019805Y007450D01*
X019805Y007650D01*
X019872Y007717D01*
X020006Y007717D01*
X020072Y007650D01*
X020072Y007450D01*
X020072Y007583D02*
X020206Y007717D01*
X020139Y007910D02*
X020072Y007910D01*
X020006Y007977D01*
X020006Y008111D01*
X020072Y008177D01*
X020139Y008177D01*
X020206Y008111D01*
X020206Y007977D01*
X020139Y007910D01*
X020006Y007977D02*
X019939Y007910D01*
X019872Y007910D01*
X019805Y007977D01*
X019805Y008111D01*
X019872Y008177D01*
X019939Y008177D01*
X020006Y008111D01*
X018762Y007021D02*
X018495Y007021D01*
X018302Y006954D02*
X018302Y006821D01*
X018235Y006754D01*
X018035Y006754D01*
X018035Y006621D02*
X018035Y007021D01*
X018235Y007021D01*
X018302Y006954D01*
X018495Y006687D02*
X018762Y006954D01*
X018762Y007021D01*
X018495Y006687D02*
X018495Y006621D01*
X018302Y006621D02*
X018168Y006754D01*
X016456Y007700D02*
X016055Y007700D01*
X016055Y007900D01*
X016122Y007967D01*
X016256Y007967D01*
X016322Y007900D01*
X016322Y007700D01*
X016322Y007833D02*
X016456Y007967D01*
X016256Y008160D02*
X016256Y008427D01*
X016456Y008361D02*
X016055Y008361D01*
X016256Y008160D01*
X017306Y009087D02*
X017372Y009021D01*
X017506Y009021D01*
X017573Y009087D01*
X017573Y009354D01*
X017506Y009421D01*
X017372Y009421D01*
X017306Y009354D01*
X017306Y009087D01*
X017439Y009154D02*
X017573Y009021D01*
X017766Y009221D02*
X018033Y009221D01*
X017966Y009021D02*
X017966Y009421D01*
X017766Y009221D01*
X018835Y009321D02*
X018835Y009721D01*
X019035Y009721D01*
X019102Y009654D01*
X019102Y009387D01*
X019035Y009321D01*
X018835Y009321D01*
X019295Y009387D02*
X019362Y009321D01*
X019495Y009321D01*
X019562Y009387D01*
X019562Y009454D01*
X019495Y009521D01*
X019295Y009521D01*
X019295Y009387D01*
X019295Y009521D02*
X019429Y009654D01*
X019562Y009721D01*
X020106Y009771D02*
X020306Y009771D01*
X020373Y009704D01*
X020373Y009437D01*
X020306Y009371D01*
X020106Y009371D01*
X020106Y009771D01*
X020566Y009704D02*
X020566Y009638D01*
X020633Y009571D01*
X020833Y009571D01*
X020833Y009704D02*
X020766Y009771D01*
X020633Y009771D01*
X020566Y009704D01*
X020833Y009704D02*
X020833Y009437D01*
X020766Y009371D01*
X020633Y009371D01*
X020566Y009437D01*
X021856Y009404D02*
X021856Y009137D01*
X021922Y009071D01*
X022056Y009071D01*
X022123Y009137D01*
X022123Y009404D01*
X022056Y009471D01*
X021922Y009471D01*
X021856Y009404D01*
X021989Y009204D02*
X022123Y009071D01*
X022316Y009071D02*
X022583Y009071D01*
X022449Y009071D02*
X022449Y009471D01*
X022316Y009338D01*
X020456Y010440D02*
X020055Y010440D01*
X020055Y010640D01*
X020122Y010707D01*
X020256Y010707D01*
X020322Y010640D01*
X020322Y010440D01*
X020322Y010573D02*
X020456Y010707D01*
X020456Y010900D02*
X020456Y011167D01*
X020456Y011033D02*
X020055Y011033D01*
X020189Y010900D01*
X020122Y011360D02*
X020055Y011427D01*
X020055Y011561D01*
X020122Y011627D01*
X020389Y011360D01*
X020456Y011427D01*
X020456Y011561D01*
X020389Y011627D01*
X020122Y011627D01*
X020122Y011360D02*
X020389Y011360D01*
X019312Y010454D02*
X019245Y010521D01*
X019112Y010521D01*
X019045Y010454D01*
X019045Y010388D01*
X019112Y010321D01*
X019312Y010321D01*
X019312Y010454D02*
X019312Y010187D01*
X019245Y010121D01*
X019112Y010121D01*
X019045Y010187D01*
X018852Y010121D02*
X018718Y010254D01*
X018785Y010254D02*
X018585Y010254D01*
X018585Y010121D02*
X018585Y010521D01*
X018785Y010521D01*
X018852Y010454D01*
X018852Y010321D01*
X018785Y010254D01*
X018506Y010750D02*
X018105Y010750D01*
X018105Y010950D01*
X018172Y011017D01*
X018306Y011017D01*
X018372Y010950D01*
X018372Y010750D01*
X018372Y010883D02*
X018506Y011017D01*
X018439Y011210D02*
X018506Y011277D01*
X018506Y011411D01*
X018439Y011477D01*
X018372Y011477D01*
X018306Y011411D01*
X018306Y011210D01*
X018439Y011210D01*
X018306Y011210D02*
X018172Y011344D01*
X018105Y011477D01*
X016962Y010321D02*
X016695Y010321D01*
X016695Y010121D01*
X016829Y010188D01*
X016895Y010188D01*
X016962Y010121D01*
X016962Y009987D01*
X016895Y009921D01*
X016762Y009921D01*
X016695Y009987D01*
X016502Y009921D02*
X016368Y010054D01*
X016435Y010054D02*
X016235Y010054D01*
X016235Y009921D02*
X016235Y010321D01*
X016435Y010321D01*
X016502Y010254D01*
X016502Y010121D01*
X016435Y010054D01*
X015733Y009654D02*
X015666Y009721D01*
X015533Y009721D01*
X015466Y009654D01*
X015273Y009654D02*
X015273Y009387D01*
X015206Y009321D01*
X015072Y009321D01*
X015006Y009387D01*
X015006Y009654D01*
X015072Y009721D01*
X015206Y009721D01*
X015273Y009654D01*
X015139Y009454D02*
X015273Y009321D01*
X015466Y009321D02*
X015733Y009588D01*
X015733Y009654D01*
X015733Y009321D02*
X015466Y009321D01*
X013933Y009587D02*
X013866Y009521D01*
X013733Y009521D01*
X013666Y009587D01*
X013666Y009721D02*
X013799Y009788D01*
X013866Y009788D01*
X013933Y009721D01*
X013933Y009587D01*
X013666Y009721D02*
X013666Y009921D01*
X013933Y009921D01*
X013473Y009854D02*
X013406Y009921D01*
X013206Y009921D01*
X013206Y009521D01*
X013406Y009521D01*
X013473Y009587D01*
X013473Y009854D01*
X012512Y009854D02*
X012512Y009788D01*
X012445Y009721D01*
X012512Y009654D01*
X012512Y009587D01*
X012445Y009521D01*
X012312Y009521D01*
X012245Y009587D01*
X012379Y009721D02*
X012445Y009721D01*
X012512Y009854D02*
X012445Y009921D01*
X012312Y009921D01*
X012245Y009854D01*
X012052Y009854D02*
X012052Y009587D01*
X011985Y009521D01*
X011785Y009521D01*
X011785Y009921D01*
X011985Y009921D01*
X012052Y009854D01*
X012041Y010421D02*
X011908Y010554D01*
X011975Y010554D02*
X011775Y010554D01*
X011775Y010421D02*
X011775Y010821D01*
X011975Y010821D01*
X012041Y010754D01*
X012041Y010621D01*
X011975Y010554D01*
X012235Y010421D02*
X012502Y010421D01*
X012368Y010421D02*
X012368Y010821D01*
X012235Y010688D01*
X012695Y010821D02*
X012962Y010821D01*
X012962Y010754D01*
X012695Y010487D01*
X012695Y010421D01*
X013905Y010890D02*
X013905Y011090D01*
X013972Y011157D01*
X014106Y011157D01*
X014172Y011090D01*
X014172Y010890D01*
X014172Y011023D02*
X014306Y011157D01*
X014306Y011350D02*
X014306Y011617D01*
X014306Y011483D02*
X013905Y011483D01*
X014039Y011350D01*
X014039Y011810D02*
X013972Y011810D01*
X013905Y011877D01*
X013905Y012011D01*
X013972Y012077D01*
X014039Y012077D01*
X014106Y012011D01*
X014106Y011877D01*
X014039Y011810D01*
X014106Y011877D02*
X014172Y011810D01*
X014239Y011810D01*
X014306Y011877D01*
X014306Y012011D01*
X014239Y012077D01*
X014172Y012077D01*
X014106Y012011D01*
X013616Y012671D02*
X013683Y012737D01*
X013683Y013004D01*
X013616Y013071D01*
X013483Y013071D01*
X013416Y013004D01*
X013416Y012938D01*
X013483Y012871D01*
X013683Y012871D01*
X013616Y012671D02*
X013483Y012671D01*
X013416Y012737D01*
X013223Y012737D02*
X013156Y012671D01*
X013022Y012671D01*
X012956Y012737D01*
X012956Y013004D01*
X013022Y013071D01*
X013156Y013071D01*
X013223Y013004D01*
X013223Y012737D01*
X013223Y012671D02*
X013089Y012804D01*
X012083Y013221D02*
X011816Y013221D01*
X012016Y013421D01*
X012016Y013021D01*
X011623Y013087D02*
X011623Y013354D01*
X011556Y013421D01*
X011356Y013421D01*
X011356Y013021D01*
X011556Y013021D01*
X011623Y013087D01*
X010712Y013021D02*
X010445Y013021D01*
X010712Y013288D01*
X010712Y013354D01*
X010645Y013421D01*
X010512Y013421D01*
X010445Y013354D01*
X010252Y013354D02*
X010185Y013421D01*
X009985Y013421D01*
X009985Y013021D01*
X010185Y013021D01*
X010252Y013087D01*
X010252Y013354D01*
X010755Y013821D02*
X011156Y013821D01*
X011156Y014088D01*
X011156Y014281D02*
X010889Y014548D01*
X010822Y014548D01*
X010755Y014481D01*
X010755Y014348D01*
X010822Y014281D01*
X011156Y014281D02*
X011156Y014548D01*
X011755Y014481D02*
X011755Y014348D01*
X011822Y014281D01*
X011956Y014415D02*
X011956Y014481D01*
X012022Y014548D01*
X012089Y014548D01*
X012156Y014481D01*
X012156Y014348D01*
X012089Y014281D01*
X012156Y014088D02*
X012156Y013821D01*
X011755Y013821D01*
X011755Y014481D02*
X011822Y014548D01*
X011889Y014548D01*
X011956Y014481D01*
X012755Y014431D02*
X012956Y014231D01*
X012956Y014498D01*
X013156Y014431D02*
X012755Y014431D01*
X013156Y014038D02*
X013156Y013771D01*
X012755Y013771D01*
X013755Y013771D02*
X014156Y013771D01*
X014156Y014038D01*
X014089Y014231D02*
X014156Y014298D01*
X014156Y014431D01*
X014089Y014498D01*
X013956Y014498D01*
X013889Y014431D01*
X013889Y014365D01*
X013956Y014231D01*
X013755Y014231D01*
X013755Y014498D01*
X014755Y014548D02*
X014822Y014415D01*
X014956Y014281D01*
X014956Y014481D01*
X015022Y014548D01*
X015089Y014548D01*
X015156Y014481D01*
X015156Y014348D01*
X015089Y014281D01*
X014956Y014281D01*
X015156Y014088D02*
X015156Y013821D01*
X014755Y013821D01*
X015755Y013821D02*
X016156Y013821D01*
X016156Y014088D01*
X016156Y014281D02*
X016089Y014281D01*
X015822Y014548D01*
X015755Y014548D01*
X015755Y014281D01*
X016755Y014348D02*
X016755Y014481D01*
X016822Y014548D01*
X016889Y014548D01*
X016956Y014481D01*
X016956Y014348D01*
X016889Y014281D01*
X016822Y014281D01*
X016755Y014348D01*
X016956Y014348D02*
X017022Y014281D01*
X017089Y014281D01*
X017156Y014348D01*
X017156Y014481D01*
X017089Y014548D01*
X017022Y014548D01*
X016956Y014481D01*
X017156Y014088D02*
X017156Y013821D01*
X016755Y013821D01*
X016935Y013171D02*
X017135Y013171D01*
X017202Y013104D01*
X017202Y012837D01*
X017135Y012771D01*
X016935Y012771D01*
X016935Y013171D01*
X017395Y013171D02*
X017662Y013171D01*
X017662Y013104D01*
X017395Y012837D01*
X017395Y012771D01*
X018256Y012821D02*
X018456Y012821D01*
X018523Y012887D01*
X018523Y013154D01*
X018456Y013221D01*
X018256Y013221D01*
X018256Y012821D01*
X018716Y012887D02*
X018716Y012954D01*
X018783Y013021D01*
X018916Y013021D01*
X018983Y012954D01*
X018983Y012887D01*
X018916Y012821D01*
X018783Y012821D01*
X018716Y012887D01*
X018783Y013021D02*
X018716Y013088D01*
X018716Y013154D01*
X018783Y013221D01*
X018916Y013221D01*
X018983Y013154D01*
X018983Y013088D01*
X018916Y013021D01*
X018755Y013821D02*
X019156Y013821D01*
X019156Y014088D01*
X019156Y014281D02*
X019156Y014548D01*
X019156Y014415D02*
X018755Y014415D01*
X018889Y014281D01*
X018156Y014348D02*
X018156Y014481D01*
X018089Y014548D01*
X017822Y014548D01*
X017755Y014481D01*
X017755Y014348D01*
X017822Y014281D01*
X017889Y014281D01*
X017956Y014348D01*
X017956Y014548D01*
X018156Y014348D02*
X018089Y014281D01*
X018156Y014088D02*
X018156Y013821D01*
X017755Y013821D01*
X016183Y012704D02*
X016116Y012771D01*
X015983Y012771D01*
X015916Y012704D01*
X016049Y012571D02*
X016116Y012571D01*
X016183Y012504D01*
X016183Y012437D01*
X016116Y012371D01*
X015983Y012371D01*
X015916Y012437D01*
X015723Y012437D02*
X015656Y012371D01*
X015522Y012371D01*
X015456Y012437D01*
X015456Y012704D01*
X015522Y012771D01*
X015656Y012771D01*
X015723Y012704D01*
X015723Y012437D01*
X015723Y012371D02*
X015589Y012504D01*
X016116Y012571D02*
X016183Y012638D01*
X016183Y012704D01*
X014306Y010890D02*
X013905Y010890D01*
X011356Y010790D02*
X010955Y010790D01*
X010955Y010990D01*
X011022Y011057D01*
X011156Y011057D01*
X011222Y010990D01*
X011222Y010790D01*
X011222Y010923D02*
X011356Y011057D01*
X011356Y011250D02*
X011356Y011517D01*
X011356Y011383D02*
X010955Y011383D01*
X011089Y011250D01*
X011156Y011710D02*
X011156Y011977D01*
X011356Y011911D02*
X010955Y011911D01*
X011156Y011710D01*
X009912Y010754D02*
X009845Y010821D01*
X009712Y010821D01*
X009645Y010754D01*
X009779Y010621D02*
X009845Y010621D01*
X009912Y010554D01*
X009912Y010487D01*
X009845Y010421D01*
X009712Y010421D01*
X009645Y010487D01*
X009452Y010421D02*
X009185Y010421D01*
X009318Y010421D02*
X009318Y010821D01*
X009185Y010688D01*
X008991Y010754D02*
X008925Y010821D01*
X008725Y010821D01*
X008725Y010421D01*
X008725Y010554D02*
X008925Y010554D01*
X008991Y010621D01*
X008991Y010754D01*
X008858Y010554D02*
X008991Y010421D01*
X008406Y010471D02*
X008406Y010271D01*
X008406Y010471D02*
X008206Y010471D01*
X008012Y011321D02*
X007745Y011321D01*
X007879Y011321D02*
X007879Y011721D01*
X007745Y011588D01*
X007552Y011654D02*
X007485Y011721D01*
X007352Y011721D01*
X007285Y011654D01*
X007285Y011387D01*
X007352Y011321D01*
X007485Y011321D01*
X007552Y011387D01*
X007111Y011321D02*
X006978Y011321D01*
X007045Y011321D02*
X007045Y011721D01*
X007111Y011721D02*
X006978Y011721D01*
X005962Y012137D02*
X005962Y012404D01*
X005695Y012137D01*
X005762Y012071D01*
X005895Y012071D01*
X005962Y012137D01*
X005695Y012137D02*
X005695Y012404D01*
X005762Y012471D01*
X005895Y012471D01*
X005962Y012404D01*
X005502Y012404D02*
X005435Y012471D01*
X005302Y012471D01*
X005235Y012404D01*
X005041Y012404D02*
X005041Y012271D01*
X004975Y012204D01*
X004775Y012204D01*
X004908Y012204D02*
X005041Y012071D01*
X005235Y012071D02*
X005502Y012338D01*
X005502Y012404D01*
X005502Y012071D02*
X005235Y012071D01*
X005041Y012404D02*
X004975Y012471D01*
X004775Y012471D01*
X004775Y012071D01*
X004627Y012721D02*
X004693Y012787D01*
X004693Y013054D01*
X004627Y013121D01*
X004493Y013121D01*
X004426Y013054D01*
X004426Y012988D01*
X004493Y012921D01*
X004693Y012921D01*
X004627Y012721D02*
X004493Y012721D01*
X004426Y012787D01*
X004233Y012721D02*
X003966Y012721D01*
X004099Y012721D02*
X004099Y013121D01*
X003966Y012988D01*
X003773Y013054D02*
X003773Y012921D01*
X003706Y012854D01*
X003506Y012854D01*
X003639Y012854D02*
X003773Y012721D01*
X003506Y012721D02*
X003506Y013121D01*
X003706Y013121D01*
X003773Y013054D01*
X003423Y013517D02*
X002202Y013517D01*
X002202Y016470D01*
X002006Y016835D02*
X002006Y017271D01*
X002007Y017271D02*
X002405Y017271D01*
X002799Y017271D02*
X003198Y017271D01*
X004289Y016824D02*
X005155Y016824D01*
X005509Y016470D01*
X005509Y013517D01*
X004289Y013517D01*
X004924Y013321D02*
X004924Y013054D01*
X004991Y012987D01*
X005124Y012987D01*
X005191Y013054D01*
X005384Y013054D02*
X005451Y012987D01*
X005584Y012987D01*
X005651Y013054D01*
X005651Y013121D01*
X005584Y013187D01*
X005518Y013187D01*
X005584Y013187D02*
X005651Y013254D01*
X005651Y013321D01*
X005584Y013388D01*
X005451Y013388D01*
X005384Y013321D01*
X005191Y013321D02*
X005124Y013388D01*
X004991Y013388D01*
X004924Y013321D01*
X005752Y013517D02*
X005752Y016470D01*
X006106Y016824D01*
X006973Y016824D01*
X007839Y016824D02*
X008705Y016824D01*
X009059Y016470D01*
X009059Y013517D01*
X007839Y013517D01*
X008406Y013004D02*
X008472Y013071D01*
X008606Y013071D01*
X008673Y013004D01*
X008673Y012737D01*
X008606Y012671D01*
X008472Y012671D01*
X008406Y012737D01*
X008406Y013004D01*
X008539Y012804D02*
X008673Y012671D01*
X008866Y012671D02*
X008866Y012737D01*
X009133Y013004D01*
X009133Y013071D01*
X008866Y013071D01*
X006973Y013517D02*
X005752Y013517D01*
X005917Y013288D02*
X005917Y013021D01*
X005983Y012954D01*
X006117Y012954D01*
X006184Y013021D01*
X006377Y013021D02*
X006444Y012954D01*
X006577Y012954D01*
X006644Y013021D01*
X006644Y013154D01*
X006577Y013221D01*
X006510Y013221D01*
X006377Y013154D01*
X006377Y013355D01*
X006644Y013355D01*
X006184Y013288D02*
X006117Y013355D01*
X005983Y013355D01*
X005917Y013288D01*
X005029Y010621D02*
X005029Y010221D01*
X005162Y010221D02*
X004895Y010221D01*
X004702Y010287D02*
X004635Y010221D01*
X004502Y010221D01*
X004435Y010287D01*
X004435Y010554D01*
X004502Y010621D01*
X004635Y010621D01*
X004702Y010554D01*
X004895Y010488D02*
X005029Y010621D01*
X005506Y010471D02*
X005706Y010471D01*
X005506Y010471D02*
X005506Y010271D01*
X004656Y008331D02*
X004255Y008331D01*
X004456Y008131D01*
X004456Y008398D01*
X004589Y007938D02*
X004656Y007871D01*
X004656Y007737D01*
X004589Y007671D01*
X004322Y007671D01*
X004255Y007737D01*
X004255Y007871D01*
X004322Y007938D01*
X005556Y007771D02*
X005556Y007621D01*
X005706Y007621D01*
X008078Y007927D02*
X008080Y007942D01*
X008086Y007956D01*
X008095Y007969D01*
X008107Y007978D01*
X008122Y007984D01*
X008137Y007986D01*
X008152Y007984D01*
X008166Y007978D01*
X008179Y007969D01*
X008188Y007957D01*
X008194Y007942D01*
X008196Y007927D01*
X008194Y007912D01*
X008188Y007898D01*
X008179Y007885D01*
X008167Y007876D01*
X008152Y007870D01*
X008137Y007868D01*
X008122Y007870D01*
X008108Y007876D01*
X008095Y007885D01*
X008086Y007897D01*
X008080Y007912D01*
X008078Y007927D01*
X008356Y007771D02*
X008356Y007621D01*
X008206Y007621D01*
X010155Y008137D02*
X010155Y008271D01*
X010222Y008338D01*
X010489Y008338D01*
X010556Y008271D01*
X010556Y008137D01*
X010489Y008071D01*
X010222Y008071D01*
X010155Y008137D01*
X010422Y008204D02*
X010556Y008338D01*
X010489Y008531D02*
X010422Y008531D01*
X010356Y008598D01*
X010356Y008731D01*
X010422Y008798D01*
X010489Y008798D01*
X010556Y008731D01*
X010556Y008598D01*
X010489Y008531D01*
X010356Y008598D02*
X010289Y008531D01*
X010222Y008531D01*
X010155Y008598D01*
X010155Y008731D01*
X010222Y008798D01*
X010289Y008798D01*
X010356Y008731D01*
X009989Y009371D02*
X009722Y009371D01*
X009655Y009437D01*
X009655Y009571D01*
X009722Y009638D01*
X009655Y009831D02*
X009655Y010098D01*
X009722Y010098D01*
X009989Y009831D01*
X010056Y009831D01*
X009989Y009638D02*
X010056Y009571D01*
X010056Y009437D01*
X009989Y009371D01*
X009845Y010621D02*
X009912Y010688D01*
X009912Y010754D01*
X012755Y008327D02*
X012822Y008194D01*
X012956Y008060D01*
X012956Y008261D01*
X013022Y008327D01*
X013089Y008327D01*
X013156Y008261D01*
X013156Y008127D01*
X013089Y008060D01*
X012956Y008060D01*
X013156Y007867D02*
X013156Y007600D01*
X013156Y007733D02*
X012755Y007733D01*
X012889Y007600D01*
X012956Y007407D02*
X013022Y007340D01*
X013022Y007140D01*
X013022Y007273D02*
X013156Y007407D01*
X012956Y007407D02*
X012822Y007407D01*
X012755Y007340D01*
X012755Y007140D01*
X013156Y007140D01*
X014235Y007271D02*
X014235Y006871D01*
X014235Y007004D02*
X014435Y007004D01*
X014502Y007071D01*
X014502Y007204D01*
X014435Y007271D01*
X014235Y007271D01*
X014368Y007004D02*
X014502Y006871D01*
X014695Y006937D02*
X014762Y006871D01*
X014895Y006871D01*
X014962Y006937D01*
X014962Y007004D01*
X014895Y007071D01*
X014829Y007071D01*
X014895Y007071D02*
X014962Y007138D01*
X014962Y007204D01*
X014895Y007271D01*
X014762Y007271D01*
X014695Y007204D01*
X011812Y007221D02*
X011545Y007221D01*
X011545Y007021D01*
X011679Y007088D01*
X011745Y007088D01*
X011812Y007021D01*
X011812Y006887D01*
X011745Y006821D01*
X011612Y006821D01*
X011545Y006887D01*
X011352Y006821D02*
X011085Y006821D01*
X011218Y006821D02*
X011218Y007221D01*
X011085Y007088D01*
X010891Y007154D02*
X010891Y007021D01*
X010825Y006954D01*
X010625Y006954D01*
X010758Y006954D02*
X010891Y006821D01*
X010625Y006821D02*
X010625Y007221D01*
X010825Y007221D01*
X010891Y007154D01*
X010721Y005221D02*
X011120Y005221D01*
X011514Y005221D02*
X011912Y005221D01*
X012306Y005221D02*
X012704Y005221D01*
X013098Y005221D02*
X013497Y005221D01*
X013891Y005221D02*
X014289Y005221D01*
X014683Y005221D02*
X015081Y005221D01*
X015475Y005221D02*
X015874Y005221D01*
X016267Y005221D02*
X016666Y005221D01*
X017060Y005221D02*
X017458Y005221D01*
X017852Y005221D02*
X018251Y005221D01*
X018644Y005221D02*
X019043Y005221D01*
X019437Y005221D02*
X019835Y005221D01*
X020229Y005221D02*
X020628Y005221D01*
X021021Y005221D02*
X021420Y005221D01*
X021814Y005221D02*
X022212Y005221D01*
X022606Y005221D02*
X023005Y005221D01*
X023006Y005221D02*
X023006Y005657D01*
X020516Y012471D02*
X020383Y012471D01*
X020316Y012537D01*
X020316Y012671D02*
X020449Y012738D01*
X020516Y012738D01*
X020583Y012671D01*
X020583Y012537D01*
X020516Y012471D01*
X020316Y012671D02*
X020316Y012871D01*
X020583Y012871D01*
X020602Y013171D02*
X020335Y013171D01*
X020468Y013171D02*
X020468Y013571D01*
X020335Y013438D01*
X020141Y013504D02*
X020075Y013571D01*
X019875Y013571D01*
X019875Y013171D01*
X019875Y013304D02*
X020075Y013304D01*
X020141Y013371D01*
X020141Y013504D01*
X020008Y013304D02*
X020141Y013171D01*
X020056Y012871D02*
X020123Y012804D01*
X020123Y012537D01*
X020056Y012471D01*
X019922Y012471D01*
X019856Y012537D01*
X019856Y012804D01*
X019922Y012871D01*
X020056Y012871D01*
X019989Y012604D02*
X020123Y012471D01*
X020795Y013171D02*
X021062Y013171D01*
X020929Y013171D02*
X020929Y013571D01*
X020795Y013438D01*
X021656Y013571D02*
X021656Y013171D01*
X021656Y013304D02*
X021856Y013304D01*
X021923Y013371D01*
X021923Y013504D01*
X021856Y013571D01*
X021656Y013571D01*
X021789Y013304D02*
X021923Y013171D01*
X022116Y013171D02*
X022383Y013171D01*
X022249Y013171D02*
X022249Y013571D01*
X022116Y013438D01*
X016006Y016821D02*
X015756Y017071D01*
X015256Y017071D01*
X015006Y016821D01*
X015006Y015321D01*
X014006Y015321D02*
X014006Y016821D01*
X014256Y017071D01*
X014756Y017071D01*
X015006Y016821D01*
X015082Y017271D02*
X014684Y017271D01*
X014290Y017271D02*
X013891Y017271D01*
X013756Y017071D02*
X013256Y017071D01*
X013006Y016821D01*
X013006Y015321D01*
X012006Y015321D02*
X012006Y016821D01*
X012256Y017071D01*
X012756Y017071D01*
X013006Y016821D01*
X013099Y017271D02*
X013498Y017271D01*
X013756Y017071D02*
X014006Y016821D01*
X015476Y017271D02*
X015875Y017271D01*
X016268Y017271D02*
X016667Y017271D01*
X012705Y017271D02*
X012307Y017271D01*
X011913Y017271D02*
X011515Y017271D01*
X011756Y017071D02*
X011256Y017071D01*
X011756Y017071D02*
X012006Y016821D01*
X010328Y005221D02*
X009929Y005221D01*
X009535Y005221D02*
X009137Y005221D01*
X008743Y005221D02*
X008344Y005221D01*
X007951Y005221D02*
X007552Y005221D01*
X007158Y005221D02*
X006760Y005221D01*
X006366Y005221D02*
X005967Y005221D01*
X005574Y005221D02*
X005175Y005221D01*
X004781Y005221D02*
X004383Y005221D01*
X003989Y005221D02*
X003590Y005221D01*
X003197Y005221D02*
X002798Y005221D01*
D11*
X002575Y011121D02*
X002577Y011169D01*
X002584Y011217D01*
X002595Y011264D01*
X002610Y011310D01*
X002629Y011354D01*
X002652Y011397D01*
X002679Y011437D01*
X002710Y011475D01*
X002744Y011509D01*
X002780Y011540D01*
X002820Y011568D01*
X002862Y011592D01*
X002906Y011613D01*
X002951Y011629D01*
X002998Y011641D01*
X003046Y011649D01*
X003094Y011652D01*
X003142Y011651D01*
X003190Y011645D01*
X003238Y011635D01*
X003284Y011621D01*
X003329Y011603D01*
X003371Y011581D01*
X003412Y011555D01*
X003450Y011525D01*
X003486Y011492D01*
X003518Y011456D01*
X003547Y011417D01*
X003572Y011376D01*
X003593Y011333D01*
X003610Y011287D01*
X003623Y011241D01*
X003632Y011193D01*
X003636Y011145D01*
X003636Y011097D01*
X003632Y011049D01*
X003623Y011001D01*
X003610Y010955D01*
X003593Y010909D01*
X003572Y010866D01*
X003547Y010825D01*
X003518Y010786D01*
X003486Y010750D01*
X003450Y010717D01*
X003412Y010687D01*
X003372Y010661D01*
X003329Y010639D01*
X003284Y010621D01*
X003238Y010607D01*
X003190Y010597D01*
X003142Y010591D01*
X003094Y010590D01*
X003046Y010593D01*
X002998Y010601D01*
X002951Y010613D01*
X002906Y010629D01*
X002862Y010650D01*
X002820Y010674D01*
X002780Y010702D01*
X002744Y010733D01*
X002710Y010767D01*
X002679Y010805D01*
X002652Y010845D01*
X002629Y010888D01*
X002610Y010932D01*
X002595Y010978D01*
X002584Y011025D01*
X002577Y011073D01*
X002575Y011121D01*
X021375Y011121D02*
X021377Y011169D01*
X021384Y011217D01*
X021395Y011264D01*
X021410Y011310D01*
X021429Y011354D01*
X021452Y011397D01*
X021479Y011437D01*
X021510Y011475D01*
X021544Y011509D01*
X021580Y011540D01*
X021620Y011568D01*
X021662Y011592D01*
X021706Y011613D01*
X021751Y011629D01*
X021798Y011641D01*
X021846Y011649D01*
X021894Y011652D01*
X021942Y011651D01*
X021990Y011645D01*
X022038Y011635D01*
X022084Y011621D01*
X022129Y011603D01*
X022171Y011581D01*
X022212Y011555D01*
X022250Y011525D01*
X022286Y011492D01*
X022318Y011456D01*
X022347Y011417D01*
X022372Y011376D01*
X022393Y011333D01*
X022410Y011287D01*
X022423Y011241D01*
X022432Y011193D01*
X022436Y011145D01*
X022436Y011097D01*
X022432Y011049D01*
X022423Y011001D01*
X022410Y010955D01*
X022393Y010909D01*
X022372Y010866D01*
X022347Y010825D01*
X022318Y010786D01*
X022286Y010750D01*
X022250Y010717D01*
X022212Y010687D01*
X022172Y010661D01*
X022129Y010639D01*
X022084Y010621D01*
X022038Y010607D01*
X021990Y010597D01*
X021942Y010591D01*
X021894Y010590D01*
X021846Y010593D01*
X021798Y010601D01*
X021751Y010613D01*
X021706Y010629D01*
X021662Y010650D01*
X021620Y010674D01*
X021580Y010702D01*
X021544Y010733D01*
X021510Y010767D01*
X021479Y010805D01*
X021452Y010845D01*
X021429Y010888D01*
X021410Y010932D01*
X021395Y010978D01*
X021384Y011025D01*
X021377Y011073D01*
X021375Y011121D01*
D12*
X018606Y012321D02*
X018606Y012621D01*
X018506Y012621D02*
X018506Y012321D01*
X018606Y012321D01*
X017456Y012321D02*
X017456Y012621D01*
X017356Y012621D02*
X017356Y012321D01*
X017456Y012321D01*
X013556Y009371D02*
X013456Y009371D01*
X013456Y009071D01*
X013556Y009071D02*
X013556Y009371D01*
X012206Y009371D02*
X012206Y009071D01*
X012106Y009071D02*
X012106Y009371D01*
X012206Y009371D01*
X011656Y012521D02*
X011656Y012821D01*
X011556Y012821D02*
X011556Y012521D01*
X011656Y012521D01*
X010406Y012521D02*
X010406Y012821D01*
X010306Y012821D02*
X010306Y012521D01*
X010406Y012521D01*
X019206Y009171D02*
X019206Y008871D01*
X019306Y008871D02*
X019306Y009171D01*
X019206Y009171D01*
X020406Y009171D02*
X020406Y008871D01*
X020506Y008871D02*
X020506Y009171D01*
X020406Y009171D01*
X020856Y016471D02*
X020956Y016471D01*
X020956Y016721D01*
X020856Y016721D02*
X020856Y016471D01*
D13*
X020806Y016421D02*
X020806Y016721D01*
X020856Y016571D02*
X021006Y016721D01*
X021006Y016421D01*
X020856Y016571D01*
X018656Y012621D02*
X018506Y012471D01*
X018656Y012321D01*
X018656Y012621D01*
X018456Y012621D02*
X018456Y012321D01*
X017506Y012321D02*
X017506Y012621D01*
X017456Y012471D02*
X017306Y012321D01*
X017306Y012621D01*
X017456Y012471D01*
X013606Y009371D02*
X013456Y009221D01*
X013606Y009071D01*
X013606Y009371D01*
X013406Y009371D02*
X013406Y009071D01*
X012256Y009071D02*
X012256Y009371D01*
X012206Y009221D02*
X012056Y009071D01*
X012056Y009371D01*
X012206Y009221D01*
X008356Y010281D02*
X008356Y010431D01*
X008206Y010431D01*
X005706Y010431D02*
X005556Y010431D01*
X005556Y010281D01*
X004106Y009721D02*
X004106Y006921D01*
X002306Y006921D01*
X002306Y007921D01*
X002156Y007921D01*
X002156Y008721D01*
X002306Y008721D01*
X002306Y009721D01*
X004106Y009721D01*
X005556Y007781D02*
X005556Y007631D01*
X005706Y007631D01*
X008206Y007631D02*
X008356Y007631D01*
X008356Y007781D01*
X010256Y012521D02*
X010406Y012671D01*
X010256Y012821D01*
X010256Y012521D01*
X010456Y012521D02*
X010456Y012821D01*
X011506Y012821D02*
X011506Y012521D01*
X011556Y012671D02*
X011706Y012521D01*
X011706Y012821D01*
X011556Y012671D01*
X019156Y009171D02*
X019156Y008871D01*
X019306Y009021D01*
X019156Y009171D01*
X019356Y009171D02*
X019356Y008871D01*
X020356Y008871D02*
X020356Y009171D01*
X020406Y009021D02*
X020556Y009171D01*
X020556Y008871D01*
X020406Y009021D01*
D14*
X019756Y015071D02*
X019256Y015071D01*
X019006Y015321D01*
X019006Y016821D01*
X019256Y017071D01*
X019756Y017071D01*
X020006Y016821D01*
X020006Y015321D01*
X019756Y015071D01*
X019006Y015321D02*
X018756Y015071D01*
X018256Y015071D01*
X018006Y015321D01*
X018006Y016821D01*
X018256Y017071D01*
X018756Y017071D01*
X019006Y016821D01*
X018006Y016821D02*
X017756Y017071D01*
X017256Y017071D01*
X017006Y016821D01*
X017006Y015321D01*
X017256Y015071D01*
X017756Y015071D01*
X018006Y015321D01*
X017006Y015321D02*
X016756Y015071D01*
X016256Y015071D01*
X016006Y015321D01*
X016006Y016821D01*
X016256Y017071D01*
X016756Y017071D01*
X017006Y016821D01*
X016006Y016821D02*
X015756Y017071D01*
X015256Y017071D01*
X015006Y016821D01*
X015006Y015321D01*
X015256Y015071D01*
X015756Y015071D01*
X016006Y015321D01*
X015006Y015321D02*
X014756Y015071D01*
X014256Y015071D01*
X014006Y015321D01*
X014006Y016821D01*
X014256Y017071D01*
X014756Y017071D01*
X015006Y016821D01*
X014006Y016821D02*
X013756Y017071D01*
X013256Y017071D01*
X013006Y016821D01*
X013006Y015321D01*
X013256Y015071D01*
X013756Y015071D01*
X014006Y015321D01*
X013006Y015321D02*
X012756Y015071D01*
X012256Y015071D01*
X012006Y015321D01*
X012006Y016821D01*
X012256Y017071D01*
X012756Y017071D01*
X013006Y016821D01*
X012006Y016821D02*
X011756Y017071D01*
X011256Y017071D01*
X011006Y016821D01*
X011006Y015321D01*
X011256Y015071D01*
X011756Y015071D01*
X012006Y015321D01*
X010706Y015371D02*
X010706Y015871D01*
X010456Y016121D01*
X010706Y016371D01*
X010706Y016871D01*
X010456Y017121D01*
X009956Y017121D01*
X009706Y016871D01*
X009706Y016371D01*
X009956Y016121D01*
X010456Y016121D01*
X009956Y016121D02*
X009706Y015871D01*
X009706Y015371D01*
X009956Y015121D01*
X010456Y015121D01*
X010706Y015371D01*
D15*
X006976Y016689D02*
X007001Y016602D01*
X007000Y016603D02*
X006927Y016580D01*
X006855Y016553D01*
X006785Y016522D01*
X006716Y016488D01*
X006649Y016450D01*
X006584Y016409D01*
X006522Y016364D01*
X006461Y016316D01*
X006404Y016266D01*
X006349Y016212D01*
X006296Y016156D01*
X006247Y016097D01*
X006201Y016035D01*
X006158Y015972D01*
X006119Y015906D01*
X006082Y015838D01*
X006050Y015768D01*
X006021Y015697D01*
X005996Y015625D01*
X005974Y015551D01*
X005957Y015476D01*
X005943Y015401D01*
X005933Y015324D01*
X005927Y015248D01*
X005925Y015171D01*
X005927Y015094D01*
X005933Y015018D01*
X005943Y014941D01*
X005957Y014866D01*
X005974Y014791D01*
X005996Y014717D01*
X006021Y014645D01*
X006050Y014574D01*
X006082Y014504D01*
X006119Y014436D01*
X006158Y014370D01*
X006201Y014307D01*
X006247Y014245D01*
X006296Y014186D01*
X006349Y014130D01*
X006404Y014076D01*
X006461Y014026D01*
X006522Y013978D01*
X006584Y013933D01*
X006649Y013892D01*
X006716Y013854D01*
X006785Y013820D01*
X006855Y013789D01*
X006927Y013762D01*
X007000Y013739D01*
X006976Y013653D01*
X006899Y013677D01*
X006825Y013705D01*
X006751Y013737D01*
X006680Y013772D01*
X006610Y013811D01*
X006542Y013853D01*
X006477Y013899D01*
X006414Y013948D01*
X006353Y014000D01*
X006296Y014056D01*
X006241Y014114D01*
X006189Y014174D01*
X006140Y014238D01*
X006094Y014303D01*
X006052Y014371D01*
X006014Y014441D01*
X005979Y014513D01*
X005947Y014586D01*
X005920Y014661D01*
X005896Y014737D01*
X005876Y014815D01*
X005860Y014893D01*
X005848Y014972D01*
X005840Y015051D01*
X005836Y015131D01*
X005836Y015211D01*
X005840Y015291D01*
X005848Y015370D01*
X005860Y015449D01*
X005876Y015527D01*
X005896Y015605D01*
X005920Y015681D01*
X005947Y015756D01*
X005979Y015829D01*
X006014Y015901D01*
X006052Y015971D01*
X006094Y016039D01*
X006140Y016104D01*
X006189Y016168D01*
X006241Y016228D01*
X006296Y016286D01*
X006353Y016342D01*
X006414Y016394D01*
X006477Y016443D01*
X006542Y016489D01*
X006610Y016531D01*
X006680Y016570D01*
X006751Y016605D01*
X006825Y016637D01*
X006899Y016665D01*
X006976Y016689D01*
X006978Y016681D01*
X006902Y016657D01*
X006828Y016629D01*
X006755Y016597D01*
X006684Y016562D01*
X006615Y016523D01*
X006547Y016481D01*
X006482Y016436D01*
X006420Y016387D01*
X006359Y016335D01*
X006302Y016280D01*
X006247Y016222D01*
X006196Y016162D01*
X006147Y016099D01*
X006102Y016034D01*
X006060Y015966D01*
X006022Y015897D01*
X005987Y015826D01*
X005956Y015753D01*
X005928Y015678D01*
X005904Y015602D01*
X005884Y015525D01*
X005869Y015448D01*
X005857Y015369D01*
X005849Y015290D01*
X005845Y015211D01*
X005845Y015131D01*
X005849Y015052D01*
X005857Y014973D01*
X005869Y014894D01*
X005884Y014817D01*
X005904Y014740D01*
X005928Y014664D01*
X005956Y014589D01*
X005987Y014516D01*
X006022Y014445D01*
X006060Y014376D01*
X006102Y014308D01*
X006147Y014243D01*
X006196Y014180D01*
X006247Y014120D01*
X006302Y014062D01*
X006359Y014007D01*
X006420Y013955D01*
X006482Y013906D01*
X006547Y013861D01*
X006615Y013819D01*
X006684Y013780D01*
X006755Y013745D01*
X006828Y013713D01*
X006902Y013685D01*
X006978Y013661D01*
X006980Y013670D01*
X006905Y013694D01*
X006831Y013721D01*
X006759Y013753D01*
X006688Y013788D01*
X006619Y013826D01*
X006552Y013868D01*
X006488Y013914D01*
X006425Y013962D01*
X006365Y014014D01*
X006308Y014068D01*
X006254Y014126D01*
X006203Y014186D01*
X006155Y014248D01*
X006110Y014313D01*
X006068Y014380D01*
X006030Y014449D01*
X005995Y014520D01*
X005964Y014593D01*
X005937Y014667D01*
X005913Y014742D01*
X005893Y014819D01*
X005877Y014896D01*
X005865Y014974D01*
X005857Y015053D01*
X005853Y015132D01*
X005853Y015210D01*
X005857Y015289D01*
X005865Y015368D01*
X005877Y015446D01*
X005893Y015523D01*
X005913Y015600D01*
X005937Y015675D01*
X005964Y015749D01*
X005995Y015822D01*
X006030Y015893D01*
X006068Y015962D01*
X006110Y016029D01*
X006155Y016094D01*
X006203Y016156D01*
X006254Y016216D01*
X006308Y016274D01*
X006365Y016328D01*
X006425Y016380D01*
X006488Y016428D01*
X006552Y016474D01*
X006619Y016516D01*
X006688Y016554D01*
X006759Y016589D01*
X006831Y016621D01*
X006905Y016648D01*
X006980Y016672D01*
X006983Y016663D01*
X006908Y016640D01*
X006835Y016612D01*
X006763Y016581D01*
X006692Y016546D01*
X006624Y016508D01*
X006557Y016466D01*
X006493Y016421D01*
X006431Y016373D01*
X006371Y016322D01*
X006315Y016267D01*
X006261Y016210D01*
X006210Y016151D01*
X006162Y016088D01*
X006117Y016024D01*
X006076Y015957D01*
X006038Y015889D01*
X006003Y015818D01*
X005972Y015746D01*
X005945Y015672D01*
X005922Y015597D01*
X005902Y015521D01*
X005886Y015444D01*
X005874Y015367D01*
X005866Y015289D01*
X005862Y015210D01*
X005862Y015132D01*
X005866Y015053D01*
X005874Y014975D01*
X005886Y014898D01*
X005902Y014821D01*
X005922Y014745D01*
X005945Y014670D01*
X005972Y014596D01*
X006003Y014524D01*
X006038Y014453D01*
X006076Y014385D01*
X006117Y014318D01*
X006162Y014254D01*
X006210Y014191D01*
X006261Y014132D01*
X006315Y014075D01*
X006371Y014020D01*
X006431Y013969D01*
X006493Y013921D01*
X006557Y013876D01*
X006624Y013834D01*
X006692Y013796D01*
X006763Y013761D01*
X006835Y013730D01*
X006908Y013702D01*
X006983Y013679D01*
X006985Y013687D01*
X006911Y013711D01*
X006838Y013738D01*
X006766Y013769D01*
X006696Y013804D01*
X006628Y013842D01*
X006562Y013883D01*
X006498Y013928D01*
X006437Y013976D01*
X006377Y014027D01*
X006321Y014081D01*
X006267Y014138D01*
X006217Y014197D01*
X006169Y014259D01*
X006125Y014323D01*
X006083Y014389D01*
X006046Y014458D01*
X006011Y014528D01*
X005981Y014599D01*
X005954Y014673D01*
X005930Y014747D01*
X005911Y014823D01*
X005895Y014899D01*
X005883Y014976D01*
X005875Y015054D01*
X005871Y015132D01*
X005871Y015210D01*
X005875Y015288D01*
X005883Y015366D01*
X005895Y015443D01*
X005911Y015519D01*
X005930Y015595D01*
X005954Y015669D01*
X005981Y015743D01*
X006011Y015814D01*
X006046Y015884D01*
X006083Y015953D01*
X006125Y016019D01*
X006169Y016083D01*
X006217Y016145D01*
X006267Y016204D01*
X006321Y016261D01*
X006377Y016315D01*
X006437Y016366D01*
X006498Y016414D01*
X006562Y016459D01*
X006628Y016500D01*
X006696Y016538D01*
X006766Y016573D01*
X006838Y016604D01*
X006911Y016631D01*
X006985Y016655D01*
X006988Y016646D01*
X006914Y016623D01*
X006841Y016595D01*
X006770Y016565D01*
X006701Y016530D01*
X006633Y016492D01*
X006567Y016451D01*
X006504Y016407D01*
X006442Y016359D01*
X006384Y016308D01*
X006327Y016255D01*
X006274Y016198D01*
X006224Y016139D01*
X006176Y016078D01*
X006132Y016014D01*
X006091Y015948D01*
X006054Y015880D01*
X006019Y015811D01*
X005989Y015739D01*
X005962Y015666D01*
X005939Y015592D01*
X005920Y015517D01*
X005904Y015441D01*
X005892Y015364D01*
X005884Y015287D01*
X005880Y015210D01*
X005880Y015132D01*
X005884Y015055D01*
X005892Y014978D01*
X005904Y014901D01*
X005920Y014825D01*
X005939Y014750D01*
X005962Y014676D01*
X005989Y014603D01*
X006019Y014531D01*
X006054Y014462D01*
X006091Y014394D01*
X006132Y014328D01*
X006176Y014264D01*
X006224Y014203D01*
X006274Y014144D01*
X006327Y014087D01*
X006384Y014034D01*
X006442Y013983D01*
X006504Y013935D01*
X006567Y013891D01*
X006633Y013850D01*
X006701Y013812D01*
X006770Y013777D01*
X006841Y013747D01*
X006914Y013719D01*
X006988Y013696D01*
X006990Y013705D01*
X006917Y013728D01*
X006845Y013755D01*
X006774Y013786D01*
X006705Y013820D01*
X006637Y013857D01*
X006572Y013898D01*
X006509Y013943D01*
X006448Y013990D01*
X006390Y014040D01*
X006334Y014094D01*
X006281Y014150D01*
X006231Y014208D01*
X006184Y014269D01*
X006140Y014333D01*
X006099Y014398D01*
X006062Y014466D01*
X006028Y014535D01*
X005997Y014606D01*
X005971Y014678D01*
X005948Y014752D01*
X005928Y014827D01*
X005913Y014902D01*
X005901Y014979D01*
X005893Y015055D01*
X005889Y015132D01*
X005889Y015210D01*
X005893Y015287D01*
X005901Y015363D01*
X005913Y015440D01*
X005928Y015515D01*
X005948Y015590D01*
X005971Y015664D01*
X005997Y015736D01*
X006028Y015807D01*
X006062Y015876D01*
X006099Y015944D01*
X006140Y016009D01*
X006184Y016073D01*
X006231Y016134D01*
X006281Y016192D01*
X006334Y016248D01*
X006390Y016302D01*
X006448Y016352D01*
X006509Y016399D01*
X006572Y016444D01*
X006637Y016485D01*
X006705Y016522D01*
X006774Y016556D01*
X006845Y016587D01*
X006917Y016614D01*
X006990Y016637D01*
X006993Y016629D01*
X006920Y016606D01*
X006848Y016579D01*
X006778Y016548D01*
X006709Y016514D01*
X006642Y016477D01*
X006577Y016436D01*
X006514Y016392D01*
X006454Y016345D01*
X006396Y016295D01*
X006340Y016242D01*
X006287Y016186D01*
X006238Y016128D01*
X006191Y016067D01*
X006147Y016004D01*
X006107Y015939D01*
X006070Y015872D01*
X006036Y015803D01*
X006006Y015733D01*
X005979Y015661D01*
X005956Y015587D01*
X005937Y015513D01*
X005922Y015438D01*
X005910Y015362D01*
X005902Y015286D01*
X005898Y015209D01*
X005898Y015133D01*
X005902Y015056D01*
X005910Y014980D01*
X005922Y014904D01*
X005937Y014829D01*
X005956Y014755D01*
X005979Y014681D01*
X006006Y014609D01*
X006036Y014539D01*
X006070Y014470D01*
X006107Y014403D01*
X006147Y014338D01*
X006191Y014275D01*
X006238Y014214D01*
X006287Y014156D01*
X006340Y014100D01*
X006396Y014047D01*
X006454Y013997D01*
X006514Y013950D01*
X006577Y013906D01*
X006642Y013865D01*
X006709Y013828D01*
X006778Y013794D01*
X006848Y013763D01*
X006920Y013736D01*
X006993Y013713D01*
X006995Y013722D01*
X006923Y013745D01*
X006851Y013772D01*
X006781Y013802D01*
X006713Y013836D01*
X006647Y013873D01*
X006582Y013913D01*
X006520Y013957D01*
X006459Y014004D01*
X006402Y014054D01*
X006347Y014106D01*
X006294Y014162D01*
X006245Y014220D01*
X006198Y014280D01*
X006155Y014343D01*
X006114Y014408D01*
X006077Y014474D01*
X006044Y014543D01*
X006014Y014613D01*
X005988Y014684D01*
X005965Y014757D01*
X005946Y014831D01*
X005931Y014906D01*
X005919Y014981D01*
X005911Y015057D01*
X005907Y015133D01*
X005907Y015209D01*
X005911Y015285D01*
X005919Y015361D01*
X005931Y015436D01*
X005946Y015511D01*
X005965Y015585D01*
X005988Y015658D01*
X006014Y015729D01*
X006044Y015799D01*
X006077Y015868D01*
X006114Y015934D01*
X006155Y015999D01*
X006198Y016062D01*
X006245Y016122D01*
X006294Y016180D01*
X006347Y016236D01*
X006402Y016288D01*
X006459Y016338D01*
X006520Y016385D01*
X006582Y016429D01*
X006647Y016469D01*
X006713Y016506D01*
X006781Y016540D01*
X006851Y016570D01*
X006923Y016597D01*
X006995Y016620D01*
X006998Y016612D01*
X006924Y016588D01*
X006852Y016561D01*
X006781Y016530D01*
X006712Y016495D01*
X006645Y016457D01*
X006579Y016416D01*
X006516Y016371D01*
X006456Y016323D01*
X006398Y016272D01*
X006342Y016218D01*
X006290Y016162D01*
X006240Y016102D01*
X006194Y016041D01*
X006151Y015976D01*
X006111Y015910D01*
X006074Y015842D01*
X006042Y015772D01*
X006013Y015700D01*
X005987Y015627D01*
X005966Y015553D01*
X005948Y015478D01*
X005934Y015402D01*
X005924Y015325D01*
X005918Y015248D01*
X005916Y015171D01*
X005918Y015094D01*
X005924Y015017D01*
X005934Y014940D01*
X005948Y014864D01*
X005966Y014789D01*
X005987Y014715D01*
X006013Y014642D01*
X006042Y014570D01*
X006074Y014500D01*
X006111Y014432D01*
X006151Y014366D01*
X006194Y014301D01*
X006240Y014240D01*
X006290Y014180D01*
X006342Y014124D01*
X006398Y014070D01*
X006456Y014019D01*
X006516Y013971D01*
X006579Y013926D01*
X006645Y013885D01*
X006712Y013847D01*
X006781Y013812D01*
X006852Y013781D01*
X006924Y013754D01*
X006998Y013730D01*
X007836Y013653D02*
X007811Y013740D01*
X007812Y013739D02*
X007885Y013762D01*
X007957Y013789D01*
X008027Y013820D01*
X008096Y013854D01*
X008163Y013892D01*
X008228Y013933D01*
X008290Y013978D01*
X008351Y014026D01*
X008408Y014076D01*
X008463Y014130D01*
X008516Y014186D01*
X008565Y014245D01*
X008611Y014307D01*
X008654Y014370D01*
X008693Y014436D01*
X008730Y014504D01*
X008762Y014574D01*
X008791Y014645D01*
X008816Y014717D01*
X008838Y014791D01*
X008855Y014866D01*
X008869Y014941D01*
X008879Y015018D01*
X008885Y015094D01*
X008887Y015171D01*
X008885Y015248D01*
X008879Y015324D01*
X008869Y015401D01*
X008855Y015476D01*
X008838Y015551D01*
X008816Y015625D01*
X008791Y015697D01*
X008762Y015768D01*
X008730Y015838D01*
X008693Y015906D01*
X008654Y015972D01*
X008611Y016035D01*
X008565Y016097D01*
X008516Y016156D01*
X008463Y016212D01*
X008408Y016266D01*
X008351Y016316D01*
X008290Y016364D01*
X008228Y016409D01*
X008163Y016450D01*
X008096Y016488D01*
X008027Y016522D01*
X007957Y016553D01*
X007885Y016580D01*
X007812Y016603D01*
X007836Y016689D01*
X007913Y016665D01*
X007987Y016637D01*
X008061Y016605D01*
X008132Y016570D01*
X008202Y016531D01*
X008270Y016489D01*
X008335Y016443D01*
X008398Y016394D01*
X008459Y016342D01*
X008516Y016286D01*
X008571Y016228D01*
X008623Y016168D01*
X008672Y016104D01*
X008718Y016039D01*
X008760Y015971D01*
X008798Y015901D01*
X008833Y015829D01*
X008865Y015756D01*
X008892Y015681D01*
X008916Y015605D01*
X008936Y015527D01*
X008952Y015449D01*
X008964Y015370D01*
X008972Y015291D01*
X008976Y015211D01*
X008976Y015131D01*
X008972Y015051D01*
X008964Y014972D01*
X008952Y014893D01*
X008936Y014815D01*
X008916Y014737D01*
X008892Y014661D01*
X008865Y014586D01*
X008833Y014513D01*
X008798Y014441D01*
X008760Y014371D01*
X008718Y014303D01*
X008672Y014238D01*
X008623Y014174D01*
X008571Y014114D01*
X008516Y014056D01*
X008459Y014000D01*
X008398Y013948D01*
X008335Y013899D01*
X008270Y013853D01*
X008202Y013811D01*
X008132Y013772D01*
X008061Y013737D01*
X007987Y013705D01*
X007913Y013677D01*
X007836Y013653D01*
X007834Y013661D01*
X007910Y013685D01*
X007984Y013713D01*
X008057Y013745D01*
X008128Y013780D01*
X008197Y013819D01*
X008265Y013861D01*
X008330Y013906D01*
X008392Y013955D01*
X008453Y014007D01*
X008510Y014062D01*
X008565Y014120D01*
X008616Y014180D01*
X008665Y014243D01*
X008710Y014308D01*
X008752Y014376D01*
X008790Y014445D01*
X008825Y014516D01*
X008856Y014589D01*
X008884Y014664D01*
X008908Y014740D01*
X008928Y014817D01*
X008943Y014894D01*
X008955Y014973D01*
X008963Y015052D01*
X008967Y015131D01*
X008967Y015211D01*
X008963Y015290D01*
X008955Y015369D01*
X008943Y015448D01*
X008928Y015525D01*
X008908Y015602D01*
X008884Y015678D01*
X008856Y015753D01*
X008825Y015826D01*
X008790Y015897D01*
X008752Y015966D01*
X008710Y016034D01*
X008665Y016099D01*
X008616Y016162D01*
X008565Y016222D01*
X008510Y016280D01*
X008453Y016335D01*
X008392Y016387D01*
X008330Y016436D01*
X008265Y016481D01*
X008197Y016523D01*
X008128Y016562D01*
X008057Y016597D01*
X007984Y016629D01*
X007910Y016657D01*
X007834Y016681D01*
X007832Y016672D01*
X007907Y016648D01*
X007981Y016621D01*
X008053Y016589D01*
X008124Y016554D01*
X008193Y016516D01*
X008260Y016474D01*
X008324Y016428D01*
X008387Y016380D01*
X008447Y016328D01*
X008504Y016274D01*
X008558Y016216D01*
X008609Y016156D01*
X008657Y016094D01*
X008702Y016029D01*
X008744Y015962D01*
X008782Y015893D01*
X008817Y015822D01*
X008848Y015749D01*
X008875Y015675D01*
X008899Y015600D01*
X008919Y015523D01*
X008935Y015446D01*
X008947Y015368D01*
X008955Y015289D01*
X008959Y015210D01*
X008959Y015132D01*
X008955Y015053D01*
X008947Y014974D01*
X008935Y014896D01*
X008919Y014819D01*
X008899Y014742D01*
X008875Y014667D01*
X008848Y014593D01*
X008817Y014520D01*
X008782Y014449D01*
X008744Y014380D01*
X008702Y014313D01*
X008657Y014248D01*
X008609Y014186D01*
X008558Y014126D01*
X008504Y014068D01*
X008447Y014014D01*
X008387Y013962D01*
X008324Y013914D01*
X008260Y013868D01*
X008193Y013826D01*
X008124Y013788D01*
X008053Y013753D01*
X007981Y013721D01*
X007907Y013694D01*
X007832Y013670D01*
X007829Y013679D01*
X007904Y013702D01*
X007977Y013730D01*
X008049Y013761D01*
X008120Y013796D01*
X008188Y013834D01*
X008255Y013876D01*
X008319Y013921D01*
X008381Y013969D01*
X008441Y014020D01*
X008497Y014075D01*
X008551Y014132D01*
X008602Y014191D01*
X008650Y014254D01*
X008695Y014318D01*
X008736Y014385D01*
X008774Y014453D01*
X008809Y014524D01*
X008840Y014596D01*
X008867Y014670D01*
X008890Y014745D01*
X008910Y014821D01*
X008926Y014898D01*
X008938Y014975D01*
X008946Y015053D01*
X008950Y015132D01*
X008950Y015210D01*
X008946Y015289D01*
X008938Y015367D01*
X008926Y015444D01*
X008910Y015521D01*
X008890Y015597D01*
X008867Y015672D01*
X008840Y015746D01*
X008809Y015818D01*
X008774Y015889D01*
X008736Y015957D01*
X008695Y016024D01*
X008650Y016088D01*
X008602Y016151D01*
X008551Y016210D01*
X008497Y016267D01*
X008441Y016322D01*
X008381Y016373D01*
X008319Y016421D01*
X008255Y016466D01*
X008188Y016508D01*
X008120Y016546D01*
X008049Y016581D01*
X007977Y016612D01*
X007904Y016640D01*
X007829Y016663D01*
X007827Y016655D01*
X007901Y016631D01*
X007974Y016604D01*
X008046Y016573D01*
X008116Y016538D01*
X008184Y016500D01*
X008250Y016459D01*
X008314Y016414D01*
X008375Y016366D01*
X008435Y016315D01*
X008491Y016261D01*
X008545Y016204D01*
X008595Y016145D01*
X008643Y016083D01*
X008687Y016019D01*
X008729Y015953D01*
X008766Y015884D01*
X008801Y015814D01*
X008831Y015743D01*
X008858Y015669D01*
X008882Y015595D01*
X008901Y015519D01*
X008917Y015443D01*
X008929Y015366D01*
X008937Y015288D01*
X008941Y015210D01*
X008941Y015132D01*
X008937Y015054D01*
X008929Y014976D01*
X008917Y014899D01*
X008901Y014823D01*
X008882Y014747D01*
X008858Y014673D01*
X008831Y014599D01*
X008801Y014528D01*
X008766Y014458D01*
X008729Y014389D01*
X008687Y014323D01*
X008643Y014259D01*
X008595Y014197D01*
X008545Y014138D01*
X008491Y014081D01*
X008435Y014027D01*
X008375Y013976D01*
X008314Y013928D01*
X008250Y013883D01*
X008184Y013842D01*
X008116Y013804D01*
X008046Y013769D01*
X007974Y013738D01*
X007901Y013711D01*
X007827Y013687D01*
X007824Y013696D01*
X007898Y013719D01*
X007971Y013747D01*
X008042Y013777D01*
X008111Y013812D01*
X008179Y013850D01*
X008245Y013891D01*
X008308Y013935D01*
X008370Y013983D01*
X008428Y014034D01*
X008485Y014087D01*
X008538Y014144D01*
X008588Y014203D01*
X008636Y014264D01*
X008680Y014328D01*
X008721Y014394D01*
X008758Y014462D01*
X008793Y014531D01*
X008823Y014603D01*
X008850Y014676D01*
X008873Y014750D01*
X008892Y014825D01*
X008908Y014901D01*
X008920Y014978D01*
X008928Y015055D01*
X008932Y015132D01*
X008932Y015210D01*
X008928Y015287D01*
X008920Y015364D01*
X008908Y015441D01*
X008892Y015517D01*
X008873Y015592D01*
X008850Y015666D01*
X008823Y015739D01*
X008793Y015811D01*
X008758Y015880D01*
X008721Y015948D01*
X008680Y016014D01*
X008636Y016078D01*
X008588Y016139D01*
X008538Y016198D01*
X008485Y016255D01*
X008428Y016308D01*
X008370Y016359D01*
X008308Y016407D01*
X008245Y016451D01*
X008179Y016492D01*
X008111Y016530D01*
X008042Y016565D01*
X007971Y016595D01*
X007898Y016623D01*
X007824Y016646D01*
X007822Y016637D01*
X007895Y016614D01*
X007967Y016587D01*
X008038Y016556D01*
X008107Y016522D01*
X008175Y016485D01*
X008240Y016444D01*
X008303Y016399D01*
X008364Y016352D01*
X008422Y016302D01*
X008478Y016248D01*
X008531Y016192D01*
X008581Y016134D01*
X008628Y016073D01*
X008672Y016009D01*
X008713Y015944D01*
X008750Y015876D01*
X008784Y015807D01*
X008815Y015736D01*
X008841Y015664D01*
X008864Y015590D01*
X008884Y015515D01*
X008899Y015440D01*
X008911Y015363D01*
X008919Y015287D01*
X008923Y015210D01*
X008923Y015132D01*
X008919Y015055D01*
X008911Y014979D01*
X008899Y014902D01*
X008884Y014827D01*
X008864Y014752D01*
X008841Y014678D01*
X008815Y014606D01*
X008784Y014535D01*
X008750Y014466D01*
X008713Y014398D01*
X008672Y014333D01*
X008628Y014269D01*
X008581Y014208D01*
X008531Y014150D01*
X008478Y014094D01*
X008422Y014040D01*
X008364Y013990D01*
X008303Y013943D01*
X008240Y013898D01*
X008175Y013857D01*
X008107Y013820D01*
X008038Y013786D01*
X007967Y013755D01*
X007895Y013728D01*
X007822Y013705D01*
X007819Y013713D01*
X007892Y013736D01*
X007964Y013763D01*
X008034Y013794D01*
X008103Y013828D01*
X008170Y013865D01*
X008235Y013906D01*
X008298Y013950D01*
X008358Y013997D01*
X008416Y014047D01*
X008472Y014100D01*
X008525Y014156D01*
X008574Y014214D01*
X008621Y014275D01*
X008665Y014338D01*
X008705Y014403D01*
X008742Y014470D01*
X008776Y014539D01*
X008806Y014609D01*
X008833Y014681D01*
X008856Y014755D01*
X008875Y014829D01*
X008890Y014904D01*
X008902Y014980D01*
X008910Y015056D01*
X008914Y015133D01*
X008914Y015209D01*
X008910Y015286D01*
X008902Y015362D01*
X008890Y015438D01*
X008875Y015513D01*
X008856Y015587D01*
X008833Y015661D01*
X008806Y015733D01*
X008776Y015803D01*
X008742Y015872D01*
X008705Y015939D01*
X008665Y016004D01*
X008621Y016067D01*
X008574Y016128D01*
X008525Y016186D01*
X008472Y016242D01*
X008416Y016295D01*
X008358Y016345D01*
X008298Y016392D01*
X008235Y016436D01*
X008170Y016477D01*
X008103Y016514D01*
X008034Y016548D01*
X007964Y016579D01*
X007892Y016606D01*
X007819Y016629D01*
X007817Y016620D01*
X007889Y016597D01*
X007961Y016570D01*
X008031Y016540D01*
X008099Y016506D01*
X008165Y016469D01*
X008230Y016429D01*
X008292Y016385D01*
X008353Y016338D01*
X008410Y016288D01*
X008465Y016236D01*
X008518Y016180D01*
X008567Y016122D01*
X008614Y016062D01*
X008657Y015999D01*
X008698Y015934D01*
X008735Y015868D01*
X008768Y015799D01*
X008798Y015729D01*
X008824Y015658D01*
X008847Y015585D01*
X008866Y015511D01*
X008881Y015436D01*
X008893Y015361D01*
X008901Y015285D01*
X008905Y015209D01*
X008905Y015133D01*
X008901Y015057D01*
X008893Y014981D01*
X008881Y014906D01*
X008866Y014831D01*
X008847Y014757D01*
X008824Y014684D01*
X008798Y014613D01*
X008768Y014543D01*
X008735Y014474D01*
X008698Y014408D01*
X008657Y014343D01*
X008614Y014280D01*
X008567Y014220D01*
X008518Y014162D01*
X008465Y014106D01*
X008410Y014054D01*
X008353Y014004D01*
X008292Y013957D01*
X008230Y013913D01*
X008165Y013873D01*
X008099Y013836D01*
X008031Y013802D01*
X007961Y013772D01*
X007889Y013745D01*
X007817Y013722D01*
X007814Y013730D01*
X007888Y013754D01*
X007960Y013781D01*
X008031Y013812D01*
X008100Y013847D01*
X008167Y013885D01*
X008233Y013926D01*
X008296Y013971D01*
X008356Y014019D01*
X008414Y014070D01*
X008470Y014124D01*
X008522Y014180D01*
X008572Y014240D01*
X008618Y014301D01*
X008661Y014366D01*
X008701Y014432D01*
X008738Y014500D01*
X008770Y014570D01*
X008799Y014642D01*
X008825Y014715D01*
X008846Y014789D01*
X008864Y014864D01*
X008878Y014940D01*
X008888Y015017D01*
X008894Y015094D01*
X008896Y015171D01*
X008894Y015248D01*
X008888Y015325D01*
X008878Y015402D01*
X008864Y015478D01*
X008846Y015553D01*
X008825Y015627D01*
X008799Y015700D01*
X008770Y015772D01*
X008738Y015842D01*
X008701Y015910D01*
X008661Y015976D01*
X008618Y016041D01*
X008572Y016102D01*
X008522Y016162D01*
X008470Y016218D01*
X008414Y016272D01*
X008356Y016323D01*
X008296Y016371D01*
X008233Y016416D01*
X008167Y016457D01*
X008100Y016495D01*
X008031Y016530D01*
X007960Y016561D01*
X007888Y016588D01*
X007814Y016612D01*
X003426Y016689D02*
X003451Y016602D01*
X003450Y016603D02*
X003377Y016580D01*
X003305Y016553D01*
X003235Y016522D01*
X003166Y016488D01*
X003099Y016450D01*
X003034Y016409D01*
X002972Y016364D01*
X002911Y016316D01*
X002854Y016266D01*
X002799Y016212D01*
X002746Y016156D01*
X002697Y016097D01*
X002651Y016035D01*
X002608Y015972D01*
X002569Y015906D01*
X002532Y015838D01*
X002500Y015768D01*
X002471Y015697D01*
X002446Y015625D01*
X002424Y015551D01*
X002407Y015476D01*
X002393Y015401D01*
X002383Y015324D01*
X002377Y015248D01*
X002375Y015171D01*
X002377Y015094D01*
X002383Y015018D01*
X002393Y014941D01*
X002407Y014866D01*
X002424Y014791D01*
X002446Y014717D01*
X002471Y014645D01*
X002500Y014574D01*
X002532Y014504D01*
X002569Y014436D01*
X002608Y014370D01*
X002651Y014307D01*
X002697Y014245D01*
X002746Y014186D01*
X002799Y014130D01*
X002854Y014076D01*
X002911Y014026D01*
X002972Y013978D01*
X003034Y013933D01*
X003099Y013892D01*
X003166Y013854D01*
X003235Y013820D01*
X003305Y013789D01*
X003377Y013762D01*
X003450Y013739D01*
X003426Y013653D01*
X003349Y013677D01*
X003275Y013705D01*
X003201Y013737D01*
X003130Y013772D01*
X003060Y013811D01*
X002992Y013853D01*
X002927Y013899D01*
X002864Y013948D01*
X002803Y014000D01*
X002746Y014056D01*
X002691Y014114D01*
X002639Y014174D01*
X002590Y014238D01*
X002544Y014303D01*
X002502Y014371D01*
X002464Y014441D01*
X002429Y014513D01*
X002397Y014586D01*
X002370Y014661D01*
X002346Y014737D01*
X002326Y014815D01*
X002310Y014893D01*
X002298Y014972D01*
X002290Y015051D01*
X002286Y015131D01*
X002286Y015211D01*
X002290Y015291D01*
X002298Y015370D01*
X002310Y015449D01*
X002326Y015527D01*
X002346Y015605D01*
X002370Y015681D01*
X002397Y015756D01*
X002429Y015829D01*
X002464Y015901D01*
X002502Y015971D01*
X002544Y016039D01*
X002590Y016104D01*
X002639Y016168D01*
X002691Y016228D01*
X002746Y016286D01*
X002803Y016342D01*
X002864Y016394D01*
X002927Y016443D01*
X002992Y016489D01*
X003060Y016531D01*
X003130Y016570D01*
X003201Y016605D01*
X003275Y016637D01*
X003349Y016665D01*
X003426Y016689D01*
X003428Y016681D01*
X003352Y016657D01*
X003278Y016629D01*
X003205Y016597D01*
X003134Y016562D01*
X003065Y016523D01*
X002997Y016481D01*
X002932Y016436D01*
X002870Y016387D01*
X002809Y016335D01*
X002752Y016280D01*
X002697Y016222D01*
X002646Y016162D01*
X002597Y016099D01*
X002552Y016034D01*
X002510Y015966D01*
X002472Y015897D01*
X002437Y015826D01*
X002406Y015753D01*
X002378Y015678D01*
X002354Y015602D01*
X002334Y015525D01*
X002319Y015448D01*
X002307Y015369D01*
X002299Y015290D01*
X002295Y015211D01*
X002295Y015131D01*
X002299Y015052D01*
X002307Y014973D01*
X002319Y014894D01*
X002334Y014817D01*
X002354Y014740D01*
X002378Y014664D01*
X002406Y014589D01*
X002437Y014516D01*
X002472Y014445D01*
X002510Y014376D01*
X002552Y014308D01*
X002597Y014243D01*
X002646Y014180D01*
X002697Y014120D01*
X002752Y014062D01*
X002809Y014007D01*
X002870Y013955D01*
X002932Y013906D01*
X002997Y013861D01*
X003065Y013819D01*
X003134Y013780D01*
X003205Y013745D01*
X003278Y013713D01*
X003352Y013685D01*
X003428Y013661D01*
X003430Y013670D01*
X003355Y013694D01*
X003281Y013721D01*
X003209Y013753D01*
X003138Y013788D01*
X003069Y013826D01*
X003002Y013868D01*
X002938Y013914D01*
X002875Y013962D01*
X002815Y014014D01*
X002758Y014068D01*
X002704Y014126D01*
X002653Y014186D01*
X002605Y014248D01*
X002560Y014313D01*
X002518Y014380D01*
X002480Y014449D01*
X002445Y014520D01*
X002414Y014593D01*
X002387Y014667D01*
X002363Y014742D01*
X002343Y014819D01*
X002327Y014896D01*
X002315Y014974D01*
X002307Y015053D01*
X002303Y015132D01*
X002303Y015210D01*
X002307Y015289D01*
X002315Y015368D01*
X002327Y015446D01*
X002343Y015523D01*
X002363Y015600D01*
X002387Y015675D01*
X002414Y015749D01*
X002445Y015822D01*
X002480Y015893D01*
X002518Y015962D01*
X002560Y016029D01*
X002605Y016094D01*
X002653Y016156D01*
X002704Y016216D01*
X002758Y016274D01*
X002815Y016328D01*
X002875Y016380D01*
X002938Y016428D01*
X003002Y016474D01*
X003069Y016516D01*
X003138Y016554D01*
X003209Y016589D01*
X003281Y016621D01*
X003355Y016648D01*
X003430Y016672D01*
X003433Y016663D01*
X003358Y016640D01*
X003285Y016612D01*
X003213Y016581D01*
X003142Y016546D01*
X003074Y016508D01*
X003007Y016466D01*
X002943Y016421D01*
X002881Y016373D01*
X002821Y016322D01*
X002765Y016267D01*
X002711Y016210D01*
X002660Y016151D01*
X002612Y016088D01*
X002567Y016024D01*
X002526Y015957D01*
X002488Y015889D01*
X002453Y015818D01*
X002422Y015746D01*
X002395Y015672D01*
X002372Y015597D01*
X002352Y015521D01*
X002336Y015444D01*
X002324Y015367D01*
X002316Y015289D01*
X002312Y015210D01*
X002312Y015132D01*
X002316Y015053D01*
X002324Y014975D01*
X002336Y014898D01*
X002352Y014821D01*
X002372Y014745D01*
X002395Y014670D01*
X002422Y014596D01*
X002453Y014524D01*
X002488Y014453D01*
X002526Y014385D01*
X002567Y014318D01*
X002612Y014254D01*
X002660Y014191D01*
X002711Y014132D01*
X002765Y014075D01*
X002821Y014020D01*
X002881Y013969D01*
X002943Y013921D01*
X003007Y013876D01*
X003074Y013834D01*
X003142Y013796D01*
X003213Y013761D01*
X003285Y013730D01*
X003358Y013702D01*
X003433Y013679D01*
X003435Y013687D01*
X003361Y013711D01*
X003288Y013738D01*
X003216Y013769D01*
X003146Y013804D01*
X003078Y013842D01*
X003012Y013883D01*
X002948Y013928D01*
X002887Y013976D01*
X002827Y014027D01*
X002771Y014081D01*
X002717Y014138D01*
X002667Y014197D01*
X002619Y014259D01*
X002575Y014323D01*
X002533Y014389D01*
X002496Y014458D01*
X002461Y014528D01*
X002431Y014599D01*
X002404Y014673D01*
X002380Y014747D01*
X002361Y014823D01*
X002345Y014899D01*
X002333Y014976D01*
X002325Y015054D01*
X002321Y015132D01*
X002321Y015210D01*
X002325Y015288D01*
X002333Y015366D01*
X002345Y015443D01*
X002361Y015519D01*
X002380Y015595D01*
X002404Y015669D01*
X002431Y015743D01*
X002461Y015814D01*
X002496Y015884D01*
X002533Y015953D01*
X002575Y016019D01*
X002619Y016083D01*
X002667Y016145D01*
X002717Y016204D01*
X002771Y016261D01*
X002827Y016315D01*
X002887Y016366D01*
X002948Y016414D01*
X003012Y016459D01*
X003078Y016500D01*
X003146Y016538D01*
X003216Y016573D01*
X003288Y016604D01*
X003361Y016631D01*
X003435Y016655D01*
X003438Y016646D01*
X003364Y016623D01*
X003291Y016595D01*
X003220Y016565D01*
X003151Y016530D01*
X003083Y016492D01*
X003017Y016451D01*
X002954Y016407D01*
X002892Y016359D01*
X002834Y016308D01*
X002777Y016255D01*
X002724Y016198D01*
X002674Y016139D01*
X002626Y016078D01*
X002582Y016014D01*
X002541Y015948D01*
X002504Y015880D01*
X002469Y015811D01*
X002439Y015739D01*
X002412Y015666D01*
X002389Y015592D01*
X002370Y015517D01*
X002354Y015441D01*
X002342Y015364D01*
X002334Y015287D01*
X002330Y015210D01*
X002330Y015132D01*
X002334Y015055D01*
X002342Y014978D01*
X002354Y014901D01*
X002370Y014825D01*
X002389Y014750D01*
X002412Y014676D01*
X002439Y014603D01*
X002469Y014531D01*
X002504Y014462D01*
X002541Y014394D01*
X002582Y014328D01*
X002626Y014264D01*
X002674Y014203D01*
X002724Y014144D01*
X002777Y014087D01*
X002834Y014034D01*
X002892Y013983D01*
X002954Y013935D01*
X003017Y013891D01*
X003083Y013850D01*
X003151Y013812D01*
X003220Y013777D01*
X003291Y013747D01*
X003364Y013719D01*
X003438Y013696D01*
X003440Y013705D01*
X003367Y013728D01*
X003295Y013755D01*
X003224Y013786D01*
X003155Y013820D01*
X003087Y013857D01*
X003022Y013898D01*
X002959Y013943D01*
X002898Y013990D01*
X002840Y014040D01*
X002784Y014094D01*
X002731Y014150D01*
X002681Y014208D01*
X002634Y014269D01*
X002590Y014333D01*
X002549Y014398D01*
X002512Y014466D01*
X002478Y014535D01*
X002447Y014606D01*
X002421Y014678D01*
X002398Y014752D01*
X002378Y014827D01*
X002363Y014902D01*
X002351Y014979D01*
X002343Y015055D01*
X002339Y015132D01*
X002339Y015210D01*
X002343Y015287D01*
X002351Y015363D01*
X002363Y015440D01*
X002378Y015515D01*
X002398Y015590D01*
X002421Y015664D01*
X002447Y015736D01*
X002478Y015807D01*
X002512Y015876D01*
X002549Y015944D01*
X002590Y016009D01*
X002634Y016073D01*
X002681Y016134D01*
X002731Y016192D01*
X002784Y016248D01*
X002840Y016302D01*
X002898Y016352D01*
X002959Y016399D01*
X003022Y016444D01*
X003087Y016485D01*
X003155Y016522D01*
X003224Y016556D01*
X003295Y016587D01*
X003367Y016614D01*
X003440Y016637D01*
X003443Y016629D01*
X003370Y016606D01*
X003298Y016579D01*
X003228Y016548D01*
X003159Y016514D01*
X003092Y016477D01*
X003027Y016436D01*
X002964Y016392D01*
X002904Y016345D01*
X002846Y016295D01*
X002790Y016242D01*
X002737Y016186D01*
X002688Y016128D01*
X002641Y016067D01*
X002597Y016004D01*
X002557Y015939D01*
X002520Y015872D01*
X002486Y015803D01*
X002456Y015733D01*
X002429Y015661D01*
X002406Y015587D01*
X002387Y015513D01*
X002372Y015438D01*
X002360Y015362D01*
X002352Y015286D01*
X002348Y015209D01*
X002348Y015133D01*
X002352Y015056D01*
X002360Y014980D01*
X002372Y014904D01*
X002387Y014829D01*
X002406Y014755D01*
X002429Y014681D01*
X002456Y014609D01*
X002486Y014539D01*
X002520Y014470D01*
X002557Y014403D01*
X002597Y014338D01*
X002641Y014275D01*
X002688Y014214D01*
X002737Y014156D01*
X002790Y014100D01*
X002846Y014047D01*
X002904Y013997D01*
X002964Y013950D01*
X003027Y013906D01*
X003092Y013865D01*
X003159Y013828D01*
X003228Y013794D01*
X003298Y013763D01*
X003370Y013736D01*
X003443Y013713D01*
X003445Y013722D01*
X003373Y013745D01*
X003301Y013772D01*
X003231Y013802D01*
X003163Y013836D01*
X003097Y013873D01*
X003032Y013913D01*
X002970Y013957D01*
X002909Y014004D01*
X002852Y014054D01*
X002797Y014106D01*
X002744Y014162D01*
X002695Y014220D01*
X002648Y014280D01*
X002605Y014343D01*
X002564Y014408D01*
X002527Y014474D01*
X002494Y014543D01*
X002464Y014613D01*
X002438Y014684D01*
X002415Y014757D01*
X002396Y014831D01*
X002381Y014906D01*
X002369Y014981D01*
X002361Y015057D01*
X002357Y015133D01*
X002357Y015209D01*
X002361Y015285D01*
X002369Y015361D01*
X002381Y015436D01*
X002396Y015511D01*
X002415Y015585D01*
X002438Y015658D01*
X002464Y015729D01*
X002494Y015799D01*
X002527Y015868D01*
X002564Y015934D01*
X002605Y015999D01*
X002648Y016062D01*
X002695Y016122D01*
X002744Y016180D01*
X002797Y016236D01*
X002852Y016288D01*
X002909Y016338D01*
X002970Y016385D01*
X003032Y016429D01*
X003097Y016469D01*
X003163Y016506D01*
X003231Y016540D01*
X003301Y016570D01*
X003373Y016597D01*
X003445Y016620D01*
X003448Y016612D01*
X003374Y016588D01*
X003302Y016561D01*
X003231Y016530D01*
X003162Y016495D01*
X003095Y016457D01*
X003029Y016416D01*
X002966Y016371D01*
X002906Y016323D01*
X002848Y016272D01*
X002792Y016218D01*
X002740Y016162D01*
X002690Y016102D01*
X002644Y016041D01*
X002601Y015976D01*
X002561Y015910D01*
X002524Y015842D01*
X002492Y015772D01*
X002463Y015700D01*
X002437Y015627D01*
X002416Y015553D01*
X002398Y015478D01*
X002384Y015402D01*
X002374Y015325D01*
X002368Y015248D01*
X002366Y015171D01*
X002368Y015094D01*
X002374Y015017D01*
X002384Y014940D01*
X002398Y014864D01*
X002416Y014789D01*
X002437Y014715D01*
X002463Y014642D01*
X002492Y014570D01*
X002524Y014500D01*
X002561Y014432D01*
X002601Y014366D01*
X002644Y014301D01*
X002690Y014240D01*
X002740Y014180D01*
X002792Y014124D01*
X002848Y014070D01*
X002906Y014019D01*
X002966Y013971D01*
X003029Y013926D01*
X003095Y013885D01*
X003162Y013847D01*
X003231Y013812D01*
X003302Y013781D01*
X003374Y013754D01*
X003448Y013730D01*
X004286Y013653D02*
X004261Y013740D01*
X004262Y013739D02*
X004335Y013762D01*
X004407Y013789D01*
X004477Y013820D01*
X004546Y013854D01*
X004613Y013892D01*
X004678Y013933D01*
X004740Y013978D01*
X004801Y014026D01*
X004858Y014076D01*
X004913Y014130D01*
X004966Y014186D01*
X005015Y014245D01*
X005061Y014307D01*
X005104Y014370D01*
X005143Y014436D01*
X005180Y014504D01*
X005212Y014574D01*
X005241Y014645D01*
X005266Y014717D01*
X005288Y014791D01*
X005305Y014866D01*
X005319Y014941D01*
X005329Y015018D01*
X005335Y015094D01*
X005337Y015171D01*
X005335Y015248D01*
X005329Y015324D01*
X005319Y015401D01*
X005305Y015476D01*
X005288Y015551D01*
X005266Y015625D01*
X005241Y015697D01*
X005212Y015768D01*
X005180Y015838D01*
X005143Y015906D01*
X005104Y015972D01*
X005061Y016035D01*
X005015Y016097D01*
X004966Y016156D01*
X004913Y016212D01*
X004858Y016266D01*
X004801Y016316D01*
X004740Y016364D01*
X004678Y016409D01*
X004613Y016450D01*
X004546Y016488D01*
X004477Y016522D01*
X004407Y016553D01*
X004335Y016580D01*
X004262Y016603D01*
X004286Y016689D01*
X004363Y016665D01*
X004437Y016637D01*
X004511Y016605D01*
X004582Y016570D01*
X004652Y016531D01*
X004720Y016489D01*
X004785Y016443D01*
X004848Y016394D01*
X004909Y016342D01*
X004966Y016286D01*
X005021Y016228D01*
X005073Y016168D01*
X005122Y016104D01*
X005168Y016039D01*
X005210Y015971D01*
X005248Y015901D01*
X005283Y015829D01*
X005315Y015756D01*
X005342Y015681D01*
X005366Y015605D01*
X005386Y015527D01*
X005402Y015449D01*
X005414Y015370D01*
X005422Y015291D01*
X005426Y015211D01*
X005426Y015131D01*
X005422Y015051D01*
X005414Y014972D01*
X005402Y014893D01*
X005386Y014815D01*
X005366Y014737D01*
X005342Y014661D01*
X005315Y014586D01*
X005283Y014513D01*
X005248Y014441D01*
X005210Y014371D01*
X005168Y014303D01*
X005122Y014238D01*
X005073Y014174D01*
X005021Y014114D01*
X004966Y014056D01*
X004909Y014000D01*
X004848Y013948D01*
X004785Y013899D01*
X004720Y013853D01*
X004652Y013811D01*
X004582Y013772D01*
X004511Y013737D01*
X004437Y013705D01*
X004363Y013677D01*
X004286Y013653D01*
X004284Y013661D01*
X004360Y013685D01*
X004434Y013713D01*
X004507Y013745D01*
X004578Y013780D01*
X004647Y013819D01*
X004715Y013861D01*
X004780Y013906D01*
X004842Y013955D01*
X004903Y014007D01*
X004960Y014062D01*
X005015Y014120D01*
X005066Y014180D01*
X005115Y014243D01*
X005160Y014308D01*
X005202Y014376D01*
X005240Y014445D01*
X005275Y014516D01*
X005306Y014589D01*
X005334Y014664D01*
X005358Y014740D01*
X005378Y014817D01*
X005393Y014894D01*
X005405Y014973D01*
X005413Y015052D01*
X005417Y015131D01*
X005417Y015211D01*
X005413Y015290D01*
X005405Y015369D01*
X005393Y015448D01*
X005378Y015525D01*
X005358Y015602D01*
X005334Y015678D01*
X005306Y015753D01*
X005275Y015826D01*
X005240Y015897D01*
X005202Y015966D01*
X005160Y016034D01*
X005115Y016099D01*
X005066Y016162D01*
X005015Y016222D01*
X004960Y016280D01*
X004903Y016335D01*
X004842Y016387D01*
X004780Y016436D01*
X004715Y016481D01*
X004647Y016523D01*
X004578Y016562D01*
X004507Y016597D01*
X004434Y016629D01*
X004360Y016657D01*
X004284Y016681D01*
X004282Y016672D01*
X004357Y016648D01*
X004431Y016621D01*
X004503Y016589D01*
X004574Y016554D01*
X004643Y016516D01*
X004710Y016474D01*
X004774Y016428D01*
X004837Y016380D01*
X004897Y016328D01*
X004954Y016274D01*
X005008Y016216D01*
X005059Y016156D01*
X005107Y016094D01*
X005152Y016029D01*
X005194Y015962D01*
X005232Y015893D01*
X005267Y015822D01*
X005298Y015749D01*
X005325Y015675D01*
X005349Y015600D01*
X005369Y015523D01*
X005385Y015446D01*
X005397Y015368D01*
X005405Y015289D01*
X005409Y015210D01*
X005409Y015132D01*
X005405Y015053D01*
X005397Y014974D01*
X005385Y014896D01*
X005369Y014819D01*
X005349Y014742D01*
X005325Y014667D01*
X005298Y014593D01*
X005267Y014520D01*
X005232Y014449D01*
X005194Y014380D01*
X005152Y014313D01*
X005107Y014248D01*
X005059Y014186D01*
X005008Y014126D01*
X004954Y014068D01*
X004897Y014014D01*
X004837Y013962D01*
X004774Y013914D01*
X004710Y013868D01*
X004643Y013826D01*
X004574Y013788D01*
X004503Y013753D01*
X004431Y013721D01*
X004357Y013694D01*
X004282Y013670D01*
X004279Y013679D01*
X004354Y013702D01*
X004427Y013730D01*
X004499Y013761D01*
X004570Y013796D01*
X004638Y013834D01*
X004705Y013876D01*
X004769Y013921D01*
X004831Y013969D01*
X004891Y014020D01*
X004947Y014075D01*
X005001Y014132D01*
X005052Y014191D01*
X005100Y014254D01*
X005145Y014318D01*
X005186Y014385D01*
X005224Y014453D01*
X005259Y014524D01*
X005290Y014596D01*
X005317Y014670D01*
X005340Y014745D01*
X005360Y014821D01*
X005376Y014898D01*
X005388Y014975D01*
X005396Y015053D01*
X005400Y015132D01*
X005400Y015210D01*
X005396Y015289D01*
X005388Y015367D01*
X005376Y015444D01*
X005360Y015521D01*
X005340Y015597D01*
X005317Y015672D01*
X005290Y015746D01*
X005259Y015818D01*
X005224Y015889D01*
X005186Y015957D01*
X005145Y016024D01*
X005100Y016088D01*
X005052Y016151D01*
X005001Y016210D01*
X004947Y016267D01*
X004891Y016322D01*
X004831Y016373D01*
X004769Y016421D01*
X004705Y016466D01*
X004638Y016508D01*
X004570Y016546D01*
X004499Y016581D01*
X004427Y016612D01*
X004354Y016640D01*
X004279Y016663D01*
X004277Y016655D01*
X004351Y016631D01*
X004424Y016604D01*
X004496Y016573D01*
X004566Y016538D01*
X004634Y016500D01*
X004700Y016459D01*
X004764Y016414D01*
X004825Y016366D01*
X004885Y016315D01*
X004941Y016261D01*
X004995Y016204D01*
X005045Y016145D01*
X005093Y016083D01*
X005137Y016019D01*
X005179Y015953D01*
X005216Y015884D01*
X005251Y015814D01*
X005281Y015743D01*
X005308Y015669D01*
X005332Y015595D01*
X005351Y015519D01*
X005367Y015443D01*
X005379Y015366D01*
X005387Y015288D01*
X005391Y015210D01*
X005391Y015132D01*
X005387Y015054D01*
X005379Y014976D01*
X005367Y014899D01*
X005351Y014823D01*
X005332Y014747D01*
X005308Y014673D01*
X005281Y014599D01*
X005251Y014528D01*
X005216Y014458D01*
X005179Y014389D01*
X005137Y014323D01*
X005093Y014259D01*
X005045Y014197D01*
X004995Y014138D01*
X004941Y014081D01*
X004885Y014027D01*
X004825Y013976D01*
X004764Y013928D01*
X004700Y013883D01*
X004634Y013842D01*
X004566Y013804D01*
X004496Y013769D01*
X004424Y013738D01*
X004351Y013711D01*
X004277Y013687D01*
X004274Y013696D01*
X004348Y013719D01*
X004421Y013747D01*
X004492Y013777D01*
X004561Y013812D01*
X004629Y013850D01*
X004695Y013891D01*
X004758Y013935D01*
X004820Y013983D01*
X004878Y014034D01*
X004935Y014087D01*
X004988Y014144D01*
X005038Y014203D01*
X005086Y014264D01*
X005130Y014328D01*
X005171Y014394D01*
X005208Y014462D01*
X005243Y014531D01*
X005273Y014603D01*
X005300Y014676D01*
X005323Y014750D01*
X005342Y014825D01*
X005358Y014901D01*
X005370Y014978D01*
X005378Y015055D01*
X005382Y015132D01*
X005382Y015210D01*
X005378Y015287D01*
X005370Y015364D01*
X005358Y015441D01*
X005342Y015517D01*
X005323Y015592D01*
X005300Y015666D01*
X005273Y015739D01*
X005243Y015811D01*
X005208Y015880D01*
X005171Y015948D01*
X005130Y016014D01*
X005086Y016078D01*
X005038Y016139D01*
X004988Y016198D01*
X004935Y016255D01*
X004878Y016308D01*
X004820Y016359D01*
X004758Y016407D01*
X004695Y016451D01*
X004629Y016492D01*
X004561Y016530D01*
X004492Y016565D01*
X004421Y016595D01*
X004348Y016623D01*
X004274Y016646D01*
X004272Y016637D01*
X004345Y016614D01*
X004417Y016587D01*
X004488Y016556D01*
X004557Y016522D01*
X004625Y016485D01*
X004690Y016444D01*
X004753Y016399D01*
X004814Y016352D01*
X004872Y016302D01*
X004928Y016248D01*
X004981Y016192D01*
X005031Y016134D01*
X005078Y016073D01*
X005122Y016009D01*
X005163Y015944D01*
X005200Y015876D01*
X005234Y015807D01*
X005265Y015736D01*
X005291Y015664D01*
X005314Y015590D01*
X005334Y015515D01*
X005349Y015440D01*
X005361Y015363D01*
X005369Y015287D01*
X005373Y015210D01*
X005373Y015132D01*
X005369Y015055D01*
X005361Y014979D01*
X005349Y014902D01*
X005334Y014827D01*
X005314Y014752D01*
X005291Y014678D01*
X005265Y014606D01*
X005234Y014535D01*
X005200Y014466D01*
X005163Y014398D01*
X005122Y014333D01*
X005078Y014269D01*
X005031Y014208D01*
X004981Y014150D01*
X004928Y014094D01*
X004872Y014040D01*
X004814Y013990D01*
X004753Y013943D01*
X004690Y013898D01*
X004625Y013857D01*
X004557Y013820D01*
X004488Y013786D01*
X004417Y013755D01*
X004345Y013728D01*
X004272Y013705D01*
X004269Y013713D01*
X004342Y013736D01*
X004414Y013763D01*
X004484Y013794D01*
X004553Y013828D01*
X004620Y013865D01*
X004685Y013906D01*
X004748Y013950D01*
X004808Y013997D01*
X004866Y014047D01*
X004922Y014100D01*
X004975Y014156D01*
X005024Y014214D01*
X005071Y014275D01*
X005115Y014338D01*
X005155Y014403D01*
X005192Y014470D01*
X005226Y014539D01*
X005256Y014609D01*
X005283Y014681D01*
X005306Y014755D01*
X005325Y014829D01*
X005340Y014904D01*
X005352Y014980D01*
X005360Y015056D01*
X005364Y015133D01*
X005364Y015209D01*
X005360Y015286D01*
X005352Y015362D01*
X005340Y015438D01*
X005325Y015513D01*
X005306Y015587D01*
X005283Y015661D01*
X005256Y015733D01*
X005226Y015803D01*
X005192Y015872D01*
X005155Y015939D01*
X005115Y016004D01*
X005071Y016067D01*
X005024Y016128D01*
X004975Y016186D01*
X004922Y016242D01*
X004866Y016295D01*
X004808Y016345D01*
X004748Y016392D01*
X004685Y016436D01*
X004620Y016477D01*
X004553Y016514D01*
X004484Y016548D01*
X004414Y016579D01*
X004342Y016606D01*
X004269Y016629D01*
X004267Y016620D01*
X004339Y016597D01*
X004411Y016570D01*
X004481Y016540D01*
X004549Y016506D01*
X004615Y016469D01*
X004680Y016429D01*
X004742Y016385D01*
X004803Y016338D01*
X004860Y016288D01*
X004915Y016236D01*
X004968Y016180D01*
X005017Y016122D01*
X005064Y016062D01*
X005107Y015999D01*
X005148Y015934D01*
X005185Y015868D01*
X005218Y015799D01*
X005248Y015729D01*
X005274Y015658D01*
X005297Y015585D01*
X005316Y015511D01*
X005331Y015436D01*
X005343Y015361D01*
X005351Y015285D01*
X005355Y015209D01*
X005355Y015133D01*
X005351Y015057D01*
X005343Y014981D01*
X005331Y014906D01*
X005316Y014831D01*
X005297Y014757D01*
X005274Y014684D01*
X005248Y014613D01*
X005218Y014543D01*
X005185Y014474D01*
X005148Y014408D01*
X005107Y014343D01*
X005064Y014280D01*
X005017Y014220D01*
X004968Y014162D01*
X004915Y014106D01*
X004860Y014054D01*
X004803Y014004D01*
X004742Y013957D01*
X004680Y013913D01*
X004615Y013873D01*
X004549Y013836D01*
X004481Y013802D01*
X004411Y013772D01*
X004339Y013745D01*
X004267Y013722D01*
X004264Y013730D01*
X004338Y013754D01*
X004410Y013781D01*
X004481Y013812D01*
X004550Y013847D01*
X004617Y013885D01*
X004683Y013926D01*
X004746Y013971D01*
X004806Y014019D01*
X004864Y014070D01*
X004920Y014124D01*
X004972Y014180D01*
X005022Y014240D01*
X005068Y014301D01*
X005111Y014366D01*
X005151Y014432D01*
X005188Y014500D01*
X005220Y014570D01*
X005249Y014642D01*
X005275Y014715D01*
X005296Y014789D01*
X005314Y014864D01*
X005328Y014940D01*
X005338Y015017D01*
X005344Y015094D01*
X005346Y015171D01*
X005344Y015248D01*
X005338Y015325D01*
X005328Y015402D01*
X005314Y015478D01*
X005296Y015553D01*
X005275Y015627D01*
X005249Y015700D01*
X005220Y015772D01*
X005188Y015842D01*
X005151Y015910D01*
X005111Y015976D01*
X005068Y016041D01*
X005022Y016102D01*
X004972Y016162D01*
X004920Y016218D01*
X004864Y016272D01*
X004806Y016323D01*
X004746Y016371D01*
X004683Y016416D01*
X004617Y016457D01*
X004550Y016495D01*
X004481Y016530D01*
X004410Y016561D01*
X004338Y016588D01*
X004264Y016612D01*
M02*
