%
M48
M72
T01C0.0236
T02C0.0394
T03C0.0400
T04C0.1063
%
T01
X7456Y6421
X8756Y6971
X9656Y7421
X9856Y8871
X7956Y9871
X7506Y9471
X7106Y8921
X7756Y8121
X6006Y8721
X6706Y9821
X5906Y9871
X4356Y10421
X5956Y11421
X4556Y13421
X4556Y13971
X4556Y14521
X2406Y13771
X5606Y16571
X8106Y14521
X8106Y13971
X8106Y13421
X11156Y11871
X9806Y10571
X12956Y8221
X16306Y8321
X16756Y9971
X18506Y9921
X18106Y11871
X20106Y12271
X21556Y13121
X22206Y15771
X13256Y12571
X20206Y8021
X22256Y8871
X4656Y7421
T02
X2506Y5721
X3506Y5721
X4506Y5721
X5506Y5721
X6506Y5721
X7506Y5721
X8506Y5721
X9506Y5721
X10506Y5721
X11506Y5721
X12506Y5721
X13506Y5721
X14506Y5721
X15506Y5721
X16506Y5721
X17506Y5721
X18506Y5721
X19506Y5721
X20506Y5721
X21506Y5721
X22506Y5721
X3706Y7321
X2706Y7321
X2706Y8321
X3706Y8321
X3706Y9321
X2706Y9321
T03
X10206Y15621
X10206Y16621
X11506Y16571
X12506Y16571
X13506Y16571
X14506Y16571
X15506Y16571
X16506Y16571
X17506Y16571
X18506Y16571
X19506Y16571
X19506Y15571
X18506Y15571
X17506Y15571
X16506Y15571
X15506Y15571
X14506Y15571
X13506Y15571
X12506Y15571
X11506Y15571
T04
X3106Y11121
X21906Y11121
M30
