G75*
G70*
%OFA0B0*%
%FSLAX24Y24*%
%IPPOS*%
%LPD*%
%AMOC8*
5,1,8,0,0,1.08239X$1,22.5*
%
%ADD10C,0.1143*%
%ADD11C,0.0060*%
%ADD12C,0.0674*%
%ADD13R,0.0277X0.0671*%
%ADD14R,0.0671X0.0277*%
%ADD15R,0.0474X0.0631*%
%ADD16R,0.0470X0.0480*%
%ADD17R,0.0480X0.0470*%
%ADD18O,0.1280X0.0680*%
%ADD19R,0.0674X0.0674*%
%ADD20R,0.0474X0.0474*%
%ADD21R,0.0710X0.1655*%
%ADD22OC8,0.0680*%
%ADD23C,0.0516*%
D10*
X003106Y011121D03*
X021906Y011121D03*
D11*
X025756Y011198D02*
X025969Y011198D01*
X025862Y011305D02*
X025862Y010878D01*
X025969Y010771D01*
X026185Y010878D02*
X026292Y010771D01*
X026506Y010771D01*
X026612Y010878D01*
X026612Y011091D01*
X026506Y011198D01*
X026292Y011198D01*
X026185Y011091D01*
X026185Y010878D01*
X026830Y010771D02*
X027150Y010771D01*
X027257Y010878D01*
X027257Y011091D01*
X027150Y011198D01*
X026830Y011198D01*
X026830Y010557D01*
D12*
X002506Y005721D03*
X003506Y005721D03*
X004506Y005721D03*
X005506Y005721D03*
X006506Y005721D03*
X007506Y005721D03*
X008506Y005721D03*
X009506Y005721D03*
X010506Y005721D03*
X011506Y005721D03*
X012506Y005721D03*
X013506Y005721D03*
X014506Y005721D03*
X015506Y005721D03*
X016506Y005721D03*
X017506Y005721D03*
X018506Y005721D03*
X019506Y005721D03*
X020506Y005721D03*
X021506Y005721D03*
X022506Y005721D03*
X003706Y007321D03*
X002706Y007321D03*
X002706Y008321D03*
X003706Y008321D03*
X003706Y009321D03*
D13*
X005853Y010703D03*
X006168Y010703D03*
X006483Y010703D03*
X006798Y010703D03*
X007113Y010703D03*
X007428Y010703D03*
X007743Y010703D03*
X008058Y010703D03*
X008058Y007357D03*
X007743Y007357D03*
X007428Y007357D03*
X007113Y007357D03*
X006798Y007357D03*
X006483Y007357D03*
X006168Y007357D03*
X005853Y007357D03*
D14*
X005282Y007927D03*
X005282Y008242D03*
X005282Y008557D03*
X005282Y008872D03*
X005282Y009187D03*
X005282Y009502D03*
X005282Y009817D03*
X005282Y010132D03*
X008629Y010132D03*
X008629Y009817D03*
X008629Y009502D03*
X008629Y009187D03*
X008629Y008872D03*
X008629Y008557D03*
X008629Y008242D03*
X008629Y007927D03*
D15*
X010932Y008188D03*
X011680Y008188D03*
X011306Y009054D03*
X014132Y008338D03*
X014880Y008338D03*
X014506Y009204D03*
X017982Y008138D03*
X018730Y008138D03*
X018356Y009004D03*
X021032Y008138D03*
X021780Y008138D03*
X021406Y009004D03*
X019830Y011588D03*
X019082Y011588D03*
X019456Y012454D03*
X016930Y011538D03*
X016182Y011538D03*
X016556Y012404D03*
X012930Y011788D03*
X012182Y011788D03*
X012556Y012654D03*
X009830Y011788D03*
X009082Y011788D03*
X009456Y012654D03*
X020832Y014688D03*
X021580Y014688D03*
X021206Y015554D03*
D16*
X021240Y016571D03*
X020571Y016571D03*
X020921Y013921D03*
X021590Y013921D03*
X018890Y012471D03*
X018221Y012471D03*
X017740Y012471D03*
X017071Y012471D03*
X019071Y010821D03*
X019740Y010821D03*
X019471Y010021D03*
X020140Y010021D03*
X020121Y009021D03*
X019590Y009021D03*
X018921Y009021D03*
X020790Y009021D03*
X021071Y007321D03*
X021740Y007321D03*
X018640Y007371D03*
X017971Y007371D03*
X014840Y007621D03*
X014171Y007621D03*
X011690Y007571D03*
X011021Y007571D03*
X011821Y009221D03*
X012490Y009221D03*
X013171Y009221D03*
X013840Y009221D03*
X016171Y010671D03*
X016840Y010671D03*
X012840Y011171D03*
X012171Y011171D03*
X011940Y012671D03*
X011271Y012671D03*
X010690Y012671D03*
X010021Y012671D03*
X009790Y011171D03*
X009121Y011171D03*
X005040Y011621D03*
X004371Y011621D03*
X004390Y012371D03*
X003721Y012371D03*
D17*
X010606Y011855D03*
X010606Y011186D03*
X013556Y011286D03*
X013556Y011955D03*
X013506Y013986D03*
X014506Y013986D03*
X015506Y014036D03*
X016506Y014036D03*
X017506Y014036D03*
X018506Y014036D03*
X019506Y014036D03*
X019506Y014705D03*
X018506Y014705D03*
X017506Y014705D03*
X016506Y014705D03*
X015506Y014705D03*
X014506Y014655D03*
X013506Y014655D03*
X012506Y014705D03*
X011506Y014705D03*
X011506Y014036D03*
X012506Y014036D03*
X017756Y011355D03*
X017756Y010686D03*
X015706Y008305D03*
X015706Y007636D03*
X012406Y007536D03*
X012406Y008205D03*
X019456Y008055D03*
X019456Y007386D03*
X022506Y007286D03*
X022506Y007955D03*
X022306Y014036D03*
X022306Y014705D03*
D18*
X010206Y015621D03*
X010206Y016621D03*
D19*
X002706Y009321D03*
D20*
X004556Y009455D03*
X004556Y008786D03*
X004371Y010971D03*
X005040Y010971D03*
X003090Y012321D03*
X002421Y012321D03*
X002421Y012921D03*
X003090Y012921D03*
X009356Y009655D03*
X009356Y008986D03*
D21*
X007406Y013970D03*
X003856Y013970D03*
X003856Y016372D03*
X007406Y016372D03*
D22*
X011506Y016571D03*
X012506Y016571D03*
X013506Y016571D03*
X014506Y016571D03*
X015506Y016571D03*
X016506Y016571D03*
X017506Y016571D03*
X018506Y016571D03*
X019506Y016571D03*
X019506Y015571D03*
X018506Y015571D03*
X017506Y015571D03*
X016506Y015571D03*
X015506Y015571D03*
X014506Y015571D03*
X013506Y015571D03*
X012506Y015571D03*
X011506Y015571D03*
D23*
X008106Y014521D03*
X008106Y013971D03*
X008106Y013421D03*
X011156Y011871D03*
X009806Y010571D03*
X007956Y009871D03*
X007506Y009471D03*
X007106Y008921D03*
X006006Y008721D03*
X006706Y009821D03*
X005906Y009871D03*
X004356Y010421D03*
X005956Y011421D03*
X004556Y013421D03*
X004556Y013971D03*
X004556Y014521D03*
X002406Y013771D03*
X005606Y016571D03*
X013256Y012571D03*
X016756Y009971D03*
X018506Y009921D03*
X016306Y008321D03*
X012956Y008221D03*
X009856Y008871D03*
X007756Y008121D03*
X008756Y006971D03*
X009656Y007421D03*
X007456Y006421D03*
X004656Y007421D03*
X018106Y011871D03*
X020106Y012271D03*
X021556Y013121D03*
X022206Y015771D03*
X022256Y008871D03*
X020206Y008021D03*
M02*
