G75*
G70*
%OFA0B0*%
%FSLAX24Y24*%
%IPPOS*%
%LPD*%
%AMOC8*
5,1,8,0,0,1.08239X$1,22.5*
%
%ADD10C,0.0554*%
%ADD11C,0.0357*%
%ADD12C,0.0100*%
%ADD13C,0.0515*%
%ADD14C,0.0120*%
D10*
X005167Y002469D03*
X006167Y002469D03*
X007167Y002469D03*
X008167Y002469D03*
X007667Y003469D03*
X006667Y003469D03*
X005667Y003469D03*
X004667Y003469D03*
D11*
X008717Y004269D03*
X010617Y002419D03*
X004317Y001519D03*
D12*
X006167Y002469D02*
X006417Y002469D01*
X006867Y002019D01*
X010217Y002019D01*
X010617Y002419D01*
X007667Y003469D02*
X007667Y003519D01*
X006967Y004219D01*
X004117Y004219D01*
X002117Y002219D01*
X002117Y002169D01*
D13*
X002117Y002169D03*
X002817Y002169D03*
X003517Y002169D03*
X001417Y002169D03*
D14*
X001197Y001349D02*
X012237Y001349D01*
X012237Y004489D01*
X001197Y004489D01*
X001197Y002551D01*
X001330Y002607D01*
X001504Y002607D01*
X001665Y002540D01*
X001767Y002438D01*
X001869Y002540D01*
X002030Y002607D01*
X002179Y002607D01*
X003887Y004314D01*
X004022Y004449D01*
X006872Y004449D01*
X007062Y004449D01*
X007585Y003926D01*
X007758Y003926D01*
X007926Y003857D01*
X008055Y003728D01*
X008124Y003560D01*
X008124Y003378D01*
X008055Y003210D01*
X007926Y003082D01*
X007758Y003012D01*
X007576Y003012D01*
X007408Y003082D01*
X007279Y003210D01*
X007210Y003378D01*
X007210Y003560D01*
X007236Y003624D01*
X006872Y003989D01*
X004212Y003989D01*
X002830Y002607D01*
X002904Y002607D01*
X003065Y002540D01*
X003167Y002438D01*
X003269Y002540D01*
X003430Y002607D01*
X003604Y002607D01*
X003722Y002558D01*
X003682Y002653D01*
X003682Y002842D01*
X003755Y003017D01*
X003888Y003151D01*
X004063Y003223D01*
X004252Y003223D01*
X004279Y003212D01*
X004210Y003378D01*
X004210Y003560D01*
X004279Y003728D01*
X004408Y003857D01*
X004576Y003926D01*
X004758Y003926D01*
X004926Y003857D01*
X005055Y003728D01*
X005124Y003560D01*
X005124Y003378D01*
X005055Y003210D01*
X004926Y003082D01*
X004758Y003012D01*
X004576Y003012D01*
X004558Y003019D01*
X004561Y003017D01*
X004633Y002842D01*
X004633Y002653D01*
X004561Y002479D01*
X004427Y002345D01*
X004252Y002273D01*
X004063Y002273D01*
X003924Y002330D01*
X003954Y002256D01*
X003954Y002082D01*
X003888Y001921D01*
X003765Y001798D01*
X003604Y001732D01*
X003430Y001732D01*
X003269Y001798D01*
X003167Y001900D01*
X003065Y001798D01*
X002904Y001732D01*
X002730Y001732D01*
X002569Y001798D01*
X002467Y001900D01*
X002365Y001798D01*
X002204Y001732D01*
X002030Y001732D01*
X001869Y001798D01*
X001767Y001900D01*
X001665Y001798D01*
X001504Y001732D01*
X001330Y001732D01*
X001197Y001787D01*
X001197Y001349D01*
X001197Y001406D02*
X012237Y001406D01*
X012237Y001525D02*
X001197Y001525D01*
X001197Y001643D02*
X012237Y001643D01*
X012237Y001762D02*
X003677Y001762D01*
X003847Y001880D02*
X006680Y001880D01*
X006637Y001924D02*
X006772Y001789D01*
X010122Y001789D01*
X010312Y001789D01*
X010584Y002060D01*
X010688Y002060D01*
X010820Y002115D01*
X010921Y002216D01*
X010976Y002348D01*
X010976Y002490D01*
X010921Y002622D01*
X010820Y002723D01*
X010688Y002778D01*
X010546Y002778D01*
X010414Y002723D01*
X010313Y002622D01*
X010258Y002490D01*
X010258Y002386D01*
X010122Y002249D01*
X008571Y002249D01*
X008624Y002378D01*
X008624Y002560D01*
X008555Y002728D01*
X008426Y002857D01*
X008258Y002926D01*
X008076Y002926D01*
X007908Y002857D01*
X007779Y002728D01*
X007710Y002560D01*
X007710Y002378D01*
X007763Y002249D01*
X007571Y002249D01*
X007624Y002378D01*
X007624Y002560D01*
X007555Y002728D01*
X007426Y002857D01*
X007258Y002926D01*
X007076Y002926D01*
X006908Y002857D01*
X006779Y002728D01*
X006710Y002560D01*
X006710Y002501D01*
X006605Y002606D01*
X006555Y002728D01*
X006426Y002857D01*
X006258Y002926D01*
X006076Y002926D01*
X005908Y002857D01*
X005779Y002728D01*
X005710Y002560D01*
X005710Y002378D01*
X005779Y002210D01*
X005908Y002082D01*
X006076Y002012D01*
X006258Y002012D01*
X006426Y002082D01*
X006453Y002108D01*
X006637Y001924D01*
X006562Y001999D02*
X003920Y001999D01*
X003954Y002117D02*
X004872Y002117D01*
X004908Y002082D02*
X004779Y002210D01*
X004710Y002378D01*
X004710Y002560D01*
X004779Y002728D01*
X004908Y002857D01*
X005076Y002926D01*
X005258Y002926D01*
X005426Y002857D01*
X005555Y002728D01*
X005624Y002560D01*
X005624Y002378D01*
X005555Y002210D01*
X005426Y002082D01*
X005258Y002012D01*
X005076Y002012D01*
X004908Y002082D01*
X004769Y002236D02*
X003954Y002236D01*
X004436Y002355D02*
X004720Y002355D01*
X004710Y002473D02*
X004555Y002473D01*
X004607Y002592D02*
X004723Y002592D01*
X004772Y002710D02*
X004633Y002710D01*
X004633Y002829D02*
X004880Y002829D01*
X004589Y002947D02*
X012237Y002947D01*
X012237Y002829D02*
X008454Y002829D01*
X008562Y002710D02*
X010401Y002710D01*
X010300Y002592D02*
X008611Y002592D01*
X008624Y002473D02*
X010258Y002473D01*
X010227Y002355D02*
X008614Y002355D01*
X007720Y002355D02*
X007614Y002355D01*
X007624Y002473D02*
X007710Y002473D01*
X007723Y002592D02*
X007611Y002592D01*
X007562Y002710D02*
X007772Y002710D01*
X007880Y002829D02*
X007454Y002829D01*
X007446Y003066D02*
X006888Y003066D01*
X006926Y003082D02*
X006758Y003012D01*
X006576Y003012D01*
X006408Y003082D01*
X006279Y003210D01*
X006210Y003378D01*
X006210Y003560D01*
X006279Y003728D01*
X006408Y003857D01*
X006576Y003926D01*
X006758Y003926D01*
X006926Y003857D01*
X007055Y003728D01*
X007124Y003560D01*
X007124Y003378D01*
X007055Y003210D01*
X006926Y003082D01*
X007029Y003184D02*
X007305Y003184D01*
X007241Y003303D02*
X007093Y003303D01*
X007124Y003421D02*
X007210Y003421D01*
X007210Y003540D02*
X007124Y003540D01*
X007083Y003659D02*
X007202Y003659D01*
X007084Y003777D02*
X007006Y003777D01*
X006965Y003896D02*
X006832Y003896D01*
X006502Y003896D02*
X005832Y003896D01*
X005758Y003926D02*
X005926Y003857D01*
X006055Y003728D01*
X006124Y003560D01*
X006124Y003378D01*
X006055Y003210D01*
X005926Y003082D01*
X005758Y003012D01*
X005576Y003012D01*
X005408Y003082D01*
X005279Y003210D01*
X005210Y003378D01*
X005210Y003560D01*
X005279Y003728D01*
X005408Y003857D01*
X005576Y003926D01*
X005758Y003926D01*
X005502Y003896D02*
X004832Y003896D01*
X005006Y003777D02*
X005328Y003777D01*
X005251Y003659D02*
X005083Y003659D01*
X005124Y003540D02*
X005210Y003540D01*
X005210Y003421D02*
X005124Y003421D01*
X005093Y003303D02*
X005241Y003303D01*
X005305Y003184D02*
X005029Y003184D01*
X004888Y003066D02*
X005446Y003066D01*
X005888Y003066D02*
X006446Y003066D01*
X006305Y003184D02*
X006029Y003184D01*
X006093Y003303D02*
X006241Y003303D01*
X006210Y003421D02*
X006124Y003421D01*
X006124Y003540D02*
X006210Y003540D01*
X006251Y003659D02*
X006083Y003659D01*
X006006Y003777D02*
X006328Y003777D01*
X007260Y004251D02*
X012237Y004251D01*
X012237Y004133D02*
X007379Y004133D01*
X007497Y004014D02*
X012237Y004014D01*
X012237Y003896D02*
X007832Y003896D01*
X008006Y003777D02*
X012237Y003777D01*
X012237Y003659D02*
X008083Y003659D01*
X008124Y003540D02*
X012237Y003540D01*
X012237Y003421D02*
X008124Y003421D01*
X008093Y003303D02*
X012237Y003303D01*
X012237Y003184D02*
X008029Y003184D01*
X007888Y003066D02*
X012237Y003066D01*
X012237Y002710D02*
X010833Y002710D01*
X010934Y002592D02*
X012237Y002592D01*
X012237Y002473D02*
X010976Y002473D01*
X010976Y002355D02*
X012237Y002355D01*
X012237Y002236D02*
X010929Y002236D01*
X010823Y002117D02*
X012237Y002117D01*
X012237Y001999D02*
X010522Y001999D01*
X010404Y001880D02*
X012237Y001880D01*
X006880Y002829D02*
X006454Y002829D01*
X006562Y002710D02*
X006772Y002710D01*
X006723Y002592D02*
X006620Y002592D01*
X005880Y002829D02*
X005454Y002829D01*
X005562Y002710D02*
X005772Y002710D01*
X005723Y002592D02*
X005611Y002592D01*
X005624Y002473D02*
X005710Y002473D01*
X005720Y002355D02*
X005614Y002355D01*
X005565Y002236D02*
X005769Y002236D01*
X005872Y002117D02*
X005462Y002117D01*
X003708Y002592D02*
X003640Y002592D01*
X003394Y002592D02*
X002940Y002592D01*
X002933Y002710D02*
X003682Y002710D01*
X003682Y002829D02*
X003052Y002829D01*
X003170Y002947D02*
X003726Y002947D01*
X003803Y003066D02*
X003289Y003066D01*
X003407Y003184D02*
X003970Y003184D01*
X004241Y003303D02*
X003526Y003303D01*
X003645Y003421D02*
X004210Y003421D01*
X004210Y003540D02*
X003763Y003540D01*
X003882Y003659D02*
X004251Y003659D01*
X004328Y003777D02*
X004000Y003777D01*
X004119Y003896D02*
X004502Y003896D01*
X003824Y004251D02*
X001197Y004251D01*
X001197Y004133D02*
X003705Y004133D01*
X003587Y004014D02*
X001197Y004014D01*
X001197Y003896D02*
X003468Y003896D01*
X003350Y003777D02*
X001197Y003777D01*
X001197Y003659D02*
X003231Y003659D01*
X003113Y003540D02*
X001197Y003540D01*
X001197Y003421D02*
X002994Y003421D01*
X002876Y003303D02*
X001197Y003303D01*
X001197Y003184D02*
X002757Y003184D01*
X002638Y003066D02*
X001197Y003066D01*
X001197Y002947D02*
X002520Y002947D01*
X002401Y002829D02*
X001197Y002829D01*
X001197Y002710D02*
X002283Y002710D01*
X001994Y002592D02*
X001540Y002592D01*
X001732Y002473D02*
X001802Y002473D01*
X001294Y002592D02*
X001197Y002592D01*
X001747Y001880D02*
X001787Y001880D01*
X001957Y001762D02*
X001577Y001762D01*
X001257Y001762D02*
X001197Y001762D01*
X002277Y001762D02*
X002657Y001762D01*
X002487Y001880D02*
X002447Y001880D01*
X002977Y001762D02*
X003357Y001762D01*
X003187Y001880D02*
X003147Y001880D01*
X003132Y002473D02*
X003202Y002473D01*
X003942Y004370D02*
X001197Y004370D01*
X001197Y004488D02*
X012237Y004488D01*
X012237Y004370D02*
X007142Y004370D01*
M02*
