G75*
G70*
%OFA0B0*%
%FSLAX24Y24*%
%IPPOS*%
%LPD*%
%AMOC8*
5,1,8,0,0,1.08239X$1,22.5*
%
%ADD10C,0.0554*%
%ADD11R,0.0100X0.0315*%
%ADD12R,0.0157X0.0315*%
%ADD13R,0.0394X0.0394*%
%ADD14R,0.0400X0.0390*%
%ADD15R,0.0335X0.0354*%
%ADD16R,0.0169X0.0197*%
%ADD17C,0.0100*%
%ADD18C,0.0357*%
%ADD19C,0.0515*%
%ADD20C,0.0120*%
D10*
X005308Y002469D03*
X006308Y002469D03*
X007308Y002469D03*
X008308Y002469D03*
X007808Y003469D03*
X006808Y003469D03*
X005808Y003469D03*
X008808Y003469D03*
D11*
X002258Y002479D03*
X002058Y002479D03*
X001858Y002479D03*
X001658Y002479D03*
D12*
X001269Y001492D03*
X002647Y001492D03*
D13*
X003474Y002069D03*
X004143Y002069D03*
X004143Y002769D03*
X003474Y002769D03*
D14*
X002808Y003184D03*
X002108Y003184D03*
X001408Y003184D03*
X001408Y003854D03*
X002108Y003854D03*
X002808Y003854D03*
X010308Y003404D03*
X011058Y003404D03*
X011808Y003404D03*
X011808Y002734D03*
X011058Y002734D03*
X010308Y002734D03*
D15*
X010787Y001549D03*
X011830Y001549D03*
D16*
X011468Y001668D03*
X011149Y001668D03*
D17*
X011149Y001710D01*
X011158Y001719D01*
X011158Y001769D01*
X010908Y002019D01*
X010908Y002169D01*
X010658Y002169D01*
X010908Y002169D02*
X010908Y002569D01*
X010958Y002619D01*
X011158Y002619D01*
X011058Y002719D01*
X011058Y002734D01*
X011808Y002734D02*
X011808Y002169D01*
X012058Y002169D01*
X011808Y002169D02*
X011808Y001669D01*
X011828Y001599D01*
X011830Y001549D01*
X011468Y001668D02*
X011460Y001668D01*
X011458Y001669D01*
X011458Y002069D01*
X011358Y002169D01*
X010728Y001599D02*
X010708Y001619D01*
X010408Y001619D01*
X010158Y001869D01*
X010158Y002169D01*
X009958Y002169D01*
X010158Y002169D02*
X010158Y002569D01*
X010308Y002719D01*
X010308Y002734D01*
X010308Y003404D02*
X010308Y003619D01*
X010258Y003669D01*
X008908Y003669D01*
X008808Y003569D01*
X008808Y003469D01*
X008608Y003919D02*
X008158Y003469D01*
X007808Y003469D01*
X007158Y003469D02*
X007808Y004119D01*
X011308Y004119D01*
X011808Y003619D01*
X011808Y003404D01*
X011058Y003404D02*
X011058Y003619D01*
X010758Y003919D01*
X008608Y003919D01*
X007158Y003469D02*
X006808Y003469D01*
X006608Y002969D02*
X006108Y003469D01*
X005808Y003469D01*
X006608Y002969D02*
X006808Y002769D01*
X006808Y002219D01*
X006408Y001819D01*
X004758Y001819D01*
X004508Y002069D01*
X004143Y002069D01*
X004158Y002069D01*
X004108Y002119D01*
X004108Y002719D01*
X004143Y002754D01*
X004143Y002769D01*
X004143Y002854D01*
X004158Y002869D01*
X003808Y003219D01*
X002908Y003219D01*
X002874Y003184D01*
X002808Y003184D01*
X002124Y003184D02*
X001858Y002919D01*
X001858Y002479D01*
X001658Y002479D02*
X001658Y002919D01*
X001408Y003169D01*
X001408Y003184D01*
X002108Y003184D02*
X002124Y003184D01*
X003258Y002469D02*
X003474Y002684D01*
X003474Y002769D01*
X003258Y002469D02*
X002758Y002469D01*
X002858Y002419D01*
X002758Y002469D02*
X002258Y002469D01*
X002258Y002479D01*
X002058Y002479D02*
X002058Y002119D01*
X002158Y002019D01*
X003458Y002019D01*
X003474Y002034D01*
X003474Y002069D01*
X003508Y002034D01*
X003508Y001969D01*
X003858Y001619D01*
X007458Y001619D01*
X008308Y002469D01*
X006308Y002469D02*
X005858Y002019D01*
X005058Y002019D01*
X005058Y002069D01*
X004808Y002319D01*
X004808Y002919D01*
X003758Y003969D01*
X003008Y003969D01*
X002908Y003869D01*
X002808Y003854D01*
X002808Y003969D01*
X002158Y003969D01*
X002108Y003854D01*
X001758Y004219D02*
X001408Y003869D01*
X001408Y003854D01*
X001758Y004219D02*
X003858Y004219D01*
X005308Y002769D01*
X005308Y002469D01*
X002808Y003854D02*
X002808Y003869D01*
X010728Y001599D02*
X010787Y001549D01*
D18*
X009158Y001519D03*
X004758Y004269D03*
X002858Y002419D03*
D19*
X009958Y002169D03*
X010658Y002169D03*
X011358Y002169D03*
X012058Y002169D03*
D20*
X001508Y001492D02*
X001508Y001349D01*
X002409Y001349D01*
X002409Y001492D01*
X002647Y001492D01*
X002647Y001493D01*
X002409Y001493D01*
X002409Y001716D01*
X002482Y001789D01*
X002063Y001789D01*
X001989Y001864D01*
X001529Y001864D01*
X001424Y001969D01*
X001424Y002394D01*
X001428Y002398D01*
X001428Y002809D01*
X001238Y002809D01*
X001238Y001810D01*
X001269Y001810D01*
X001269Y001493D01*
X001269Y001493D01*
X001269Y001810D01*
X001414Y001810D01*
X001508Y001716D01*
X001508Y001493D01*
X001270Y001493D01*
X001270Y001492D01*
X001508Y001492D01*
X001508Y001525D02*
X002409Y001525D01*
X002409Y001643D02*
X001508Y001643D01*
X001462Y001762D02*
X002454Y001762D01*
X002813Y001789D02*
X003105Y001789D01*
X003202Y001692D01*
X003460Y001692D01*
X003763Y001389D01*
X003954Y001389D01*
X007554Y001389D01*
X007688Y001524D01*
X008188Y002024D01*
X008217Y002012D01*
X008399Y002012D01*
X008567Y002082D01*
X008696Y002210D01*
X008765Y002378D01*
X008765Y002560D01*
X008696Y002728D01*
X008567Y002857D01*
X008399Y002926D01*
X008217Y002926D01*
X008049Y002857D01*
X007921Y002728D01*
X007851Y002560D01*
X007851Y002378D01*
X007863Y002349D01*
X007363Y001849D01*
X006763Y001849D01*
X006904Y001989D01*
X007023Y002108D01*
X007049Y002082D01*
X007217Y002012D01*
X007399Y002012D01*
X007567Y002082D01*
X007696Y002210D01*
X007765Y002378D01*
X007765Y002560D01*
X007696Y002728D01*
X007567Y002857D01*
X007399Y002926D01*
X007217Y002926D01*
X007049Y002857D01*
X007038Y002846D01*
X007038Y002864D01*
X006891Y003012D01*
X006899Y003012D01*
X007067Y003082D01*
X007196Y003210D01*
X007208Y003239D01*
X007254Y003239D01*
X007363Y003349D01*
X007421Y003210D01*
X007549Y003082D01*
X007717Y003012D01*
X007899Y003012D01*
X008067Y003082D01*
X008196Y003210D01*
X008208Y003239D01*
X008254Y003239D01*
X008363Y003349D01*
X008421Y003210D01*
X008549Y003082D01*
X008717Y003012D01*
X008899Y003012D01*
X008917Y003019D01*
X008915Y003017D01*
X008842Y002842D01*
X008842Y002653D01*
X008915Y002479D01*
X009048Y002345D01*
X009223Y002273D01*
X009412Y002273D01*
X009552Y002330D01*
X009521Y002256D01*
X009521Y002082D01*
X009587Y001921D01*
X009710Y001798D01*
X009871Y001732D01*
X009970Y001732D01*
X010063Y001639D01*
X010313Y001389D01*
X010439Y001389D01*
X010439Y001349D01*
X002886Y001349D01*
X002886Y001492D01*
X002648Y001492D01*
X002648Y001493D01*
X002886Y001493D01*
X002886Y001716D01*
X002813Y001789D01*
X002840Y001762D02*
X003133Y001762D01*
X002886Y001643D02*
X003509Y001643D01*
X003627Y001525D02*
X002886Y001525D01*
X002886Y001406D02*
X003746Y001406D01*
X002409Y001406D02*
X001508Y001406D01*
X001269Y001525D02*
X001269Y001525D01*
X001269Y001643D02*
X001269Y001643D01*
X001269Y001762D02*
X001269Y001762D01*
X001238Y001880D02*
X001513Y001880D01*
X001424Y001999D02*
X001238Y001999D01*
X001238Y002117D02*
X001424Y002117D01*
X001424Y002236D02*
X001238Y002236D01*
X001238Y002355D02*
X001424Y002355D01*
X001428Y002473D02*
X001238Y002473D01*
X001238Y002592D02*
X001428Y002592D01*
X001428Y002710D02*
X001238Y002710D01*
X004388Y004014D02*
X007378Y004014D01*
X007260Y003896D02*
X006973Y003896D01*
X006899Y003926D02*
X006717Y003926D01*
X006549Y003857D01*
X006421Y003728D01*
X006351Y003560D01*
X006351Y003551D01*
X006211Y003692D01*
X006196Y003728D01*
X006067Y003857D01*
X005899Y003926D01*
X005717Y003926D01*
X005549Y003857D01*
X005421Y003728D01*
X005351Y003560D01*
X005351Y003378D01*
X005421Y003210D01*
X005549Y003082D01*
X005717Y003012D01*
X005899Y003012D01*
X006067Y003082D01*
X006119Y003133D01*
X006326Y002926D01*
X006217Y002926D01*
X006049Y002857D01*
X005921Y002728D01*
X005851Y002560D01*
X005851Y002378D01*
X005863Y002349D01*
X005763Y002249D01*
X005712Y002249D01*
X005765Y002378D01*
X005765Y002560D01*
X005696Y002728D01*
X005567Y002857D01*
X005531Y002872D01*
X005404Y002999D01*
X003954Y004449D01*
X003763Y004449D01*
X001663Y004449D01*
X001528Y004314D01*
X001443Y004229D01*
X001238Y004229D01*
X001238Y004489D01*
X012278Y004489D01*
X012278Y002551D01*
X012188Y002589D01*
X012188Y003004D01*
X012123Y003069D01*
X012188Y003134D01*
X012188Y003673D01*
X012083Y003779D01*
X011974Y003779D01*
X011404Y004349D01*
X011213Y004349D01*
X007713Y004349D01*
X007578Y004214D01*
X007144Y003780D01*
X007067Y003857D01*
X006899Y003926D01*
X006643Y003896D02*
X005973Y003896D01*
X006147Y003777D02*
X006470Y003777D01*
X006392Y003659D02*
X006244Y003659D01*
X005643Y003896D02*
X004507Y003896D01*
X004626Y003777D02*
X005470Y003777D01*
X005392Y003659D02*
X004744Y003659D01*
X004863Y003540D02*
X005351Y003540D01*
X005351Y003421D02*
X004981Y003421D01*
X005100Y003303D02*
X005382Y003303D01*
X005446Y003184D02*
X005218Y003184D01*
X005337Y003066D02*
X005587Y003066D01*
X005455Y002947D02*
X006305Y002947D01*
X006186Y003066D02*
X006029Y003066D01*
X006021Y002829D02*
X005595Y002829D01*
X005703Y002710D02*
X005913Y002710D01*
X005864Y002592D02*
X005752Y002592D01*
X005765Y002473D02*
X005851Y002473D01*
X005861Y002355D02*
X005756Y002355D01*
X006795Y001880D02*
X007394Y001880D01*
X007513Y001999D02*
X006913Y001999D01*
X007603Y002117D02*
X007631Y002117D01*
X007706Y002236D02*
X007750Y002236D01*
X007756Y002355D02*
X007861Y002355D01*
X007851Y002473D02*
X007765Y002473D01*
X007752Y002592D02*
X007864Y002592D01*
X007913Y002710D02*
X007703Y002710D01*
X007595Y002829D02*
X008021Y002829D01*
X008029Y003066D02*
X008587Y003066D01*
X008446Y003184D02*
X008170Y003184D01*
X008317Y003303D02*
X008382Y003303D01*
X008886Y002947D02*
X006955Y002947D01*
X007029Y003066D02*
X007587Y003066D01*
X007446Y003184D02*
X007170Y003184D01*
X007317Y003303D02*
X007382Y003303D01*
X008595Y002829D02*
X008842Y002829D01*
X008842Y002710D02*
X008703Y002710D01*
X008752Y002592D02*
X008868Y002592D01*
X008920Y002473D02*
X008765Y002473D01*
X008756Y002355D02*
X009039Y002355D01*
X008706Y002236D02*
X009521Y002236D01*
X009521Y002117D02*
X008603Y002117D01*
X008163Y001999D02*
X009555Y001999D01*
X009628Y001880D02*
X008045Y001880D01*
X007926Y001762D02*
X009798Y001762D01*
X010059Y001643D02*
X007808Y001643D01*
X007689Y001525D02*
X010177Y001525D01*
X010296Y001406D02*
X007571Y001406D01*
X012188Y002592D02*
X012278Y002592D01*
X012278Y002710D02*
X012188Y002710D01*
X012188Y002829D02*
X012278Y002829D01*
X012278Y002947D02*
X012188Y002947D01*
X012126Y003066D02*
X012278Y003066D01*
X012278Y003184D02*
X012188Y003184D01*
X012188Y003303D02*
X012278Y003303D01*
X012278Y003421D02*
X012188Y003421D01*
X012188Y003540D02*
X012278Y003540D01*
X012278Y003659D02*
X012188Y003659D01*
X012278Y003777D02*
X012084Y003777D01*
X012278Y003896D02*
X011857Y003896D01*
X011738Y004014D02*
X012278Y004014D01*
X012278Y004133D02*
X011620Y004133D01*
X011501Y004251D02*
X012278Y004251D01*
X012278Y004370D02*
X004033Y004370D01*
X004151Y004251D02*
X007615Y004251D01*
X007497Y004133D02*
X004270Y004133D01*
X001584Y004370D02*
X001238Y004370D01*
X001238Y004488D02*
X012278Y004488D01*
X001465Y004251D02*
X001238Y004251D01*
M02*
