G75*
G70*
%OFA0B0*%
%FSLAX24Y24*%
%IPPOS*%
%LPD*%
%AMOC8*
5,1,8,0,0,1.08239X$1,22.5*
%
%ADD10C,0.0100*%
D10*
X002006Y005221D02*
X002404Y005221D01*
X002006Y005221D02*
X002006Y005636D01*
X002006Y006029D02*
X002006Y006444D01*
X002006Y006421D02*
X003006Y006421D01*
X003006Y007421D01*
X002756Y007421D01*
X003006Y007171D01*
X003256Y007421D01*
X003756Y007421D01*
X004006Y007171D01*
X004006Y006671D01*
X003756Y006421D01*
X003256Y006421D01*
X003006Y006671D01*
X002756Y006421D01*
X002256Y006421D01*
X002006Y006671D01*
X002006Y007171D01*
X002256Y007421D01*
X002756Y007421D01*
X002506Y007421D02*
X002006Y007421D01*
X002006Y006421D01*
X002006Y006838D02*
X002006Y007253D01*
X002006Y007646D02*
X002006Y008061D01*
X002459Y008041D02*
X002593Y008041D01*
X002526Y008041D02*
X002526Y007707D01*
X002459Y007641D01*
X002392Y007641D01*
X002326Y007707D01*
X002786Y007641D02*
X002786Y008041D01*
X002986Y008041D01*
X003053Y007974D01*
X003053Y007841D01*
X002986Y007774D01*
X002786Y007774D01*
X003246Y007641D02*
X003513Y007908D01*
X003513Y007974D01*
X003447Y008041D01*
X003313Y008041D01*
X003246Y007974D01*
X003246Y007641D02*
X003513Y007641D01*
X004006Y007171D02*
X004256Y007421D01*
X004756Y007421D01*
X005006Y007171D01*
X005256Y007421D01*
X005756Y007421D01*
X006006Y007171D01*
X006256Y007421D01*
X006756Y007421D01*
X007006Y007171D01*
X007006Y006671D01*
X006756Y006421D01*
X006256Y006421D01*
X006006Y006671D01*
X005756Y006421D01*
X005256Y006421D01*
X005006Y006671D01*
X004756Y006421D01*
X004256Y006421D01*
X004006Y006671D01*
X003006Y006671D02*
X003006Y007171D01*
X004336Y007661D02*
X004336Y008081D01*
X004337Y008100D01*
X004341Y008118D01*
X004349Y008135D01*
X004360Y008150D01*
X004374Y008162D01*
X004390Y008172D01*
X004408Y008178D01*
X004426Y008181D01*
X005266Y008181D01*
X005284Y008180D01*
X005302Y008176D01*
X005319Y008169D01*
X005335Y008160D01*
X005348Y008147D01*
X005359Y008133D01*
X005368Y008117D01*
X005373Y008099D01*
X005376Y008081D01*
X005376Y007661D01*
X005374Y007641D01*
X005368Y007623D01*
X005359Y007605D01*
X005347Y007590D01*
X005332Y007578D01*
X005314Y007569D01*
X005296Y007563D01*
X005276Y007561D01*
X004436Y007561D01*
X004416Y007563D01*
X004398Y007569D01*
X004380Y007578D01*
X004365Y007590D01*
X004353Y007605D01*
X004344Y007623D01*
X004338Y007641D01*
X004336Y007661D01*
X005006Y007171D02*
X005006Y006671D01*
X006006Y006671D02*
X006006Y007171D01*
X006133Y007721D02*
X006199Y007721D01*
X006266Y007787D01*
X006266Y008121D01*
X006199Y008121D02*
X006333Y008121D01*
X006526Y008054D02*
X006593Y008121D01*
X006727Y008121D01*
X006793Y008054D01*
X006793Y007988D01*
X006526Y007721D01*
X006793Y007721D01*
X007256Y007421D02*
X007756Y007421D01*
X008006Y007171D01*
X008256Y007421D01*
X008756Y007421D01*
X009006Y007171D01*
X009256Y007421D01*
X009756Y007421D01*
X010006Y007171D01*
X010006Y006671D01*
X009756Y006421D01*
X009256Y006421D01*
X009006Y006671D01*
X008756Y006421D01*
X008256Y006421D01*
X008006Y006671D01*
X007756Y006421D01*
X007256Y006421D01*
X007006Y006671D01*
X008006Y006671D02*
X008006Y007171D01*
X007256Y007421D02*
X007006Y007171D01*
X006133Y007721D02*
X006066Y007787D01*
X005873Y007787D02*
X005806Y007721D01*
X005672Y007721D01*
X005606Y007787D01*
X005672Y007921D02*
X005806Y007921D01*
X005873Y007854D01*
X005873Y007787D01*
X005672Y007921D02*
X005606Y007988D01*
X005606Y008054D01*
X005672Y008121D01*
X005806Y008121D01*
X005873Y008054D01*
X004692Y008751D02*
X004425Y008751D01*
X004559Y008751D02*
X004559Y009151D01*
X004425Y009018D01*
X004232Y009084D02*
X004232Y008951D01*
X004165Y008884D01*
X003965Y008884D01*
X003965Y008751D02*
X003965Y009151D01*
X004165Y009151D01*
X004232Y009084D01*
X003771Y009151D02*
X003638Y009151D01*
X003705Y009151D02*
X003705Y008817D01*
X003638Y008751D01*
X003571Y008751D01*
X003505Y008817D01*
X004856Y009171D02*
X005856Y009171D01*
X005856Y009421D01*
X004856Y009171D02*
X004856Y010171D01*
X005256Y010171D01*
X004450Y011014D02*
X004183Y011014D01*
X004316Y011014D02*
X004316Y011415D01*
X004183Y011281D01*
X003989Y011348D02*
X003989Y011081D01*
X003923Y011014D01*
X003723Y011014D01*
X003723Y011415D01*
X003923Y011415D01*
X003989Y011348D01*
X003346Y011371D02*
X003346Y010871D01*
X003303Y011121D02*
X003066Y010963D01*
X003066Y011278D01*
X003303Y011121D01*
X003346Y011571D02*
X003346Y012071D01*
X003303Y011821D02*
X003066Y011978D01*
X003066Y011663D01*
X003303Y011821D01*
X003723Y011714D02*
X003723Y012115D01*
X003923Y012115D01*
X003989Y012048D01*
X003989Y011781D01*
X003923Y011714D01*
X003723Y011714D01*
X004183Y011714D02*
X004450Y011981D01*
X004450Y012048D01*
X004383Y012115D01*
X004250Y012115D01*
X004183Y012048D01*
X004183Y011714D02*
X004450Y011714D01*
X005220Y012347D02*
X005220Y012547D01*
X005286Y012614D01*
X005420Y012614D01*
X005486Y012547D01*
X005486Y012347D01*
X005486Y012480D02*
X005620Y012614D01*
X005620Y012807D02*
X005620Y013074D01*
X005620Y012941D02*
X005220Y012941D01*
X005353Y012807D01*
X005220Y012347D02*
X005620Y012347D01*
X006286Y012461D02*
X006286Y012881D01*
X006287Y012900D01*
X006291Y012918D01*
X006299Y012935D01*
X006310Y012950D01*
X006324Y012962D01*
X006340Y012972D01*
X006358Y012978D01*
X006376Y012981D01*
X007216Y012981D01*
X007234Y012980D01*
X007252Y012976D01*
X007269Y012969D01*
X007285Y012960D01*
X007298Y012947D01*
X007309Y012933D01*
X007318Y012917D01*
X007323Y012899D01*
X007326Y012881D01*
X007326Y012461D01*
X007324Y012441D01*
X007318Y012423D01*
X007309Y012405D01*
X007297Y012390D01*
X007282Y012378D01*
X007264Y012369D01*
X007246Y012363D01*
X007226Y012361D01*
X006386Y012361D01*
X006366Y012363D01*
X006348Y012369D01*
X006330Y012378D01*
X006315Y012390D01*
X006303Y012405D01*
X006294Y012423D01*
X006288Y012441D01*
X006286Y012461D01*
X006372Y013171D02*
X006306Y013237D01*
X006372Y013171D02*
X006506Y013171D01*
X006573Y013237D01*
X006573Y013304D01*
X006506Y013371D01*
X006372Y013371D01*
X006306Y013438D01*
X006306Y013504D01*
X006372Y013571D01*
X006506Y013571D01*
X006573Y013504D01*
X006766Y013237D02*
X006833Y013171D01*
X006899Y013171D01*
X006966Y013237D01*
X006966Y013571D01*
X006899Y013571D02*
X007033Y013571D01*
X007159Y013721D02*
X006761Y013721D01*
X006367Y013721D02*
X005968Y013721D01*
X005575Y013721D02*
X005176Y013721D01*
X004782Y013721D02*
X004384Y013721D01*
X003990Y013721D02*
X003591Y013721D01*
X003198Y013721D02*
X002799Y013721D01*
X002405Y013721D02*
X002007Y013721D01*
X002006Y013721D02*
X002006Y013306D01*
X002556Y013254D02*
X002556Y012987D01*
X002622Y012921D01*
X002756Y012921D01*
X002823Y012987D01*
X003016Y012921D02*
X003283Y012921D01*
X003149Y012921D02*
X003149Y013321D01*
X003016Y013188D01*
X002823Y013254D02*
X002756Y013321D01*
X002622Y013321D01*
X002556Y013254D01*
X002006Y012912D02*
X002006Y012497D01*
X002006Y012104D02*
X002006Y011689D01*
X002006Y011295D02*
X002006Y010880D01*
X002006Y010487D02*
X002006Y010072D01*
X002006Y009678D02*
X002006Y009263D01*
X002525Y009687D02*
X002591Y009621D01*
X002725Y009621D01*
X002791Y009687D01*
X002985Y009621D02*
X003252Y009621D01*
X003118Y009621D02*
X003118Y010021D01*
X002985Y009888D01*
X002791Y009954D02*
X002725Y010021D01*
X002591Y010021D01*
X002525Y009954D01*
X002525Y009687D01*
X003445Y009621D02*
X003712Y009621D01*
X003579Y009621D02*
X003579Y010021D01*
X003445Y009888D01*
X002006Y008870D02*
X002006Y008455D01*
X007956Y011621D02*
X007956Y012021D01*
X008156Y012021D01*
X008223Y011954D01*
X008223Y011821D01*
X008156Y011754D01*
X007956Y011754D01*
X008089Y011754D02*
X008223Y011621D01*
X008416Y011621D02*
X008683Y011888D01*
X008683Y011954D01*
X008616Y012021D01*
X008483Y012021D01*
X008416Y011954D01*
X008416Y011621D02*
X008683Y011621D01*
X010756Y012671D02*
X010756Y013071D01*
X010956Y013071D01*
X011023Y013004D01*
X011023Y012871D01*
X010956Y012804D01*
X010756Y012804D01*
X010889Y012804D02*
X011023Y012671D01*
X011216Y012737D02*
X011283Y012671D01*
X011416Y012671D01*
X011483Y012737D01*
X011483Y012871D01*
X011416Y012938D01*
X011349Y012938D01*
X011216Y012871D01*
X011216Y013071D01*
X011483Y013071D01*
X010233Y013021D02*
X010033Y013021D01*
X009966Y013088D01*
X009966Y013154D01*
X010033Y013221D01*
X010166Y013221D01*
X010233Y013154D01*
X010233Y012887D01*
X010166Y012821D01*
X010033Y012821D01*
X009966Y012887D01*
X009773Y012887D02*
X009706Y012821D01*
X009572Y012821D01*
X009506Y012887D01*
X009506Y013154D01*
X009572Y013221D01*
X009706Y013221D01*
X009773Y013154D01*
X009930Y013721D02*
X010329Y013721D01*
X010722Y013721D02*
X011121Y013721D01*
X011515Y013721D02*
X011913Y013721D01*
X012307Y013721D02*
X012705Y013721D01*
X013099Y013721D02*
X013498Y013721D01*
X013891Y013721D02*
X014290Y013721D01*
X014684Y013721D02*
X015082Y013721D01*
X015476Y013721D02*
X015875Y013721D01*
X016268Y013721D02*
X016667Y013721D01*
X017061Y013721D02*
X017459Y013721D01*
X017853Y013721D02*
X018252Y013721D01*
X018645Y013721D02*
X019044Y013721D01*
X019438Y013721D02*
X019836Y013721D01*
X020230Y013721D02*
X020629Y013721D01*
X021022Y013721D02*
X021421Y013721D01*
X021815Y013721D02*
X022213Y013721D01*
X022607Y013721D02*
X023006Y013721D01*
X023006Y013306D01*
X023006Y012912D02*
X023006Y012497D01*
X022906Y012608D02*
X022839Y012541D01*
X022906Y012608D02*
X022906Y012742D01*
X022839Y012808D01*
X022706Y012808D01*
X022639Y012742D01*
X022639Y012675D01*
X022706Y012541D01*
X022505Y012541D01*
X022505Y012808D01*
X022318Y012751D02*
X022318Y010979D01*
X023006Y010880D02*
X023006Y011295D01*
X022839Y011621D02*
X022906Y011687D01*
X022906Y011821D01*
X022839Y011888D01*
X022906Y012081D02*
X022906Y012348D01*
X022906Y012215D02*
X022505Y012215D01*
X022639Y012081D01*
X022572Y011888D02*
X022505Y011821D01*
X022505Y011687D01*
X022572Y011621D01*
X022839Y011621D01*
X023006Y011689D02*
X023006Y012104D01*
X022318Y012751D02*
X021334Y012751D01*
X020358Y012977D02*
X020091Y012977D01*
X020224Y012977D02*
X020224Y013377D01*
X020091Y013244D01*
X019897Y013377D02*
X019630Y012977D01*
X019897Y012977D02*
X019630Y013377D01*
X018449Y013454D02*
X018449Y013187D01*
X018383Y013121D01*
X018182Y013121D01*
X018182Y013521D01*
X018383Y013521D01*
X018449Y013454D01*
X017989Y013454D02*
X017922Y013521D01*
X017789Y013521D01*
X017722Y013454D01*
X017722Y013187D01*
X017789Y013121D01*
X017922Y013121D01*
X017989Y013187D01*
X017529Y013121D02*
X017262Y013121D01*
X017262Y013521D01*
X017078Y013388D02*
X017012Y013388D01*
X016878Y013254D01*
X016878Y013121D02*
X016878Y013388D01*
X016685Y013321D02*
X016685Y013121D01*
X016484Y013121D01*
X016418Y013187D01*
X016484Y013254D01*
X016685Y013254D01*
X016685Y013321D02*
X016618Y013388D01*
X016484Y013388D01*
X016224Y013321D02*
X016224Y013121D01*
X016224Y013321D02*
X016158Y013388D01*
X016024Y013388D01*
X015957Y013321D01*
X015957Y013521D02*
X015957Y013121D01*
X015764Y013121D02*
X015564Y013121D01*
X015497Y013187D01*
X015497Y013321D01*
X015564Y013388D01*
X015764Y013388D01*
X015304Y013321D02*
X015037Y013321D01*
X014843Y013321D02*
X014843Y013187D01*
X014777Y013121D01*
X014576Y013121D01*
X014576Y012987D02*
X014576Y013388D01*
X014777Y013388D01*
X014843Y013321D01*
X014383Y013388D02*
X014116Y013121D01*
X013923Y013254D02*
X013656Y013254D01*
X013656Y013187D02*
X013656Y013321D01*
X013722Y013388D01*
X013856Y013388D01*
X013923Y013321D01*
X013923Y013254D01*
X013856Y013121D02*
X013722Y013121D01*
X013656Y013187D01*
X014116Y013388D02*
X014383Y013121D01*
X015506Y012788D02*
X015639Y012521D01*
X015773Y012788D01*
X015966Y012788D02*
X016099Y012921D01*
X016099Y012521D01*
X015966Y012521D02*
X016233Y012521D01*
X016656Y012127D02*
X016722Y012127D01*
X016722Y011860D01*
X016656Y011860D02*
X016789Y011860D01*
X016856Y011927D01*
X016856Y012061D01*
X016656Y012127D02*
X016589Y012061D01*
X016589Y011927D01*
X016656Y011860D01*
X016589Y011667D02*
X016589Y011467D01*
X016656Y011400D01*
X016722Y011467D01*
X016722Y011600D01*
X016789Y011667D01*
X016856Y011600D01*
X016856Y011400D01*
X016856Y011237D02*
X016856Y011170D01*
X016789Y011170D01*
X016789Y011237D01*
X016856Y011237D01*
X016856Y010996D02*
X016856Y010863D01*
X016856Y010930D02*
X016455Y010930D01*
X016455Y010863D01*
X016656Y010670D02*
X016856Y010670D01*
X016856Y010536D02*
X016656Y010536D01*
X016589Y010603D01*
X016656Y010670D01*
X016656Y010536D02*
X016589Y010469D01*
X016589Y010403D01*
X016856Y010403D01*
X016856Y010209D02*
X016589Y010209D01*
X016856Y010209D02*
X016856Y010009D01*
X016789Y009942D01*
X016589Y009942D01*
X016656Y009749D02*
X016856Y009749D01*
X016856Y009549D01*
X016789Y009482D01*
X016722Y009549D01*
X016722Y009749D01*
X016656Y009749D02*
X016589Y009682D01*
X016589Y009549D01*
X016789Y009319D02*
X016856Y009319D01*
X016856Y009252D01*
X016789Y009252D01*
X016789Y009319D01*
X016789Y009058D02*
X016589Y009058D01*
X016789Y009058D02*
X016856Y008992D01*
X016789Y008925D01*
X016856Y008858D01*
X016789Y008791D01*
X016589Y008791D01*
X016589Y008598D02*
X016789Y008598D01*
X016856Y008531D01*
X016789Y008465D01*
X016856Y008398D01*
X016789Y008331D01*
X016589Y008331D01*
X016589Y008138D02*
X016789Y008138D01*
X016856Y008071D01*
X016789Y008004D01*
X016856Y007937D01*
X016789Y007871D01*
X016589Y007871D01*
X016756Y007421D02*
X016256Y007421D01*
X016006Y007171D01*
X016006Y006671D01*
X016256Y006421D01*
X016756Y006421D01*
X017006Y006671D01*
X017256Y006421D01*
X017756Y006421D01*
X018006Y006671D01*
X018006Y007171D01*
X017756Y007421D01*
X017256Y007421D01*
X017006Y007171D01*
X016756Y007421D01*
X017006Y007171D02*
X017006Y006671D01*
X018106Y006554D02*
X018106Y006287D01*
X018172Y006221D01*
X018306Y006221D01*
X018373Y006287D01*
X018566Y006221D02*
X018833Y006221D01*
X018699Y006221D02*
X018699Y006621D01*
X018566Y006488D01*
X018373Y006554D02*
X018306Y006621D01*
X018172Y006621D01*
X018106Y006554D01*
X019026Y006554D02*
X019093Y006621D01*
X019227Y006621D01*
X019293Y006554D01*
X019293Y006488D01*
X019227Y006421D01*
X019293Y006354D01*
X019293Y006287D01*
X019227Y006221D01*
X019093Y006221D01*
X019026Y006287D01*
X019160Y006421D02*
X019227Y006421D01*
X018617Y007594D02*
X017593Y007594D01*
X017593Y009562D01*
X017593Y010979D02*
X017593Y012751D01*
X018617Y012751D01*
X023006Y010487D02*
X023006Y010072D01*
X023006Y009678D02*
X023006Y009263D01*
X022318Y009562D02*
X022318Y007594D01*
X021334Y007594D01*
X021622Y007121D02*
X021556Y007054D01*
X021556Y006787D01*
X021622Y006721D01*
X021756Y006721D01*
X021823Y006787D01*
X022016Y006721D02*
X022283Y006721D01*
X022149Y006721D02*
X022149Y007121D01*
X022016Y006988D01*
X021823Y007054D02*
X021756Y007121D01*
X021622Y007121D01*
X022476Y006921D02*
X022743Y006921D01*
X022677Y006721D02*
X022677Y007121D01*
X022476Y006921D01*
X023006Y006838D02*
X023006Y007253D01*
X023006Y007646D02*
X023006Y008061D01*
X023006Y008455D02*
X023006Y008870D01*
X023006Y006444D02*
X023006Y006029D01*
X023006Y005636D02*
X023006Y005221D01*
X023005Y005221D02*
X022606Y005221D01*
X022212Y005221D02*
X021814Y005221D01*
X021420Y005221D02*
X021021Y005221D01*
X020628Y005221D02*
X020229Y005221D01*
X019835Y005221D02*
X019437Y005221D01*
X019043Y005221D02*
X018644Y005221D01*
X018251Y005221D02*
X017852Y005221D01*
X017458Y005221D02*
X017060Y005221D01*
X016666Y005221D02*
X016267Y005221D01*
X015874Y005221D02*
X015475Y005221D01*
X015081Y005221D02*
X014683Y005221D01*
X014289Y005221D02*
X013891Y005221D01*
X013497Y005221D02*
X013098Y005221D01*
X012704Y005221D02*
X012306Y005221D01*
X011912Y005221D02*
X011514Y005221D01*
X011120Y005221D02*
X010721Y005221D01*
X010328Y005221D02*
X009929Y005221D01*
X009535Y005221D02*
X009137Y005221D01*
X008743Y005221D02*
X008344Y005221D01*
X007951Y005221D02*
X007552Y005221D01*
X007158Y005221D02*
X006760Y005221D01*
X006366Y005221D02*
X005967Y005221D01*
X005574Y005221D02*
X005175Y005221D01*
X004781Y005221D02*
X004383Y005221D01*
X003989Y005221D02*
X003590Y005221D01*
X003197Y005221D02*
X002798Y005221D01*
X009006Y006671D02*
X009006Y007171D01*
X010006Y007171D02*
X010256Y007421D01*
X010756Y007421D01*
X011006Y007171D01*
X011256Y007421D01*
X011756Y007421D01*
X012006Y007171D01*
X012256Y007421D01*
X012756Y007421D01*
X013006Y007171D01*
X013006Y006671D01*
X012756Y006421D01*
X012256Y006421D01*
X012006Y006671D01*
X011756Y006421D01*
X011256Y006421D01*
X011006Y006671D01*
X010756Y006421D01*
X010256Y006421D01*
X010006Y006671D01*
X011006Y006671D02*
X011006Y007171D01*
X012006Y007171D02*
X012006Y006671D01*
X013006Y006671D02*
X013256Y006421D01*
X013756Y006421D01*
X014006Y006671D01*
X014256Y006421D01*
X014756Y006421D01*
X015006Y006671D01*
X015256Y006421D01*
X015756Y006421D01*
X016006Y006671D01*
X015006Y006671D02*
X015006Y007171D01*
X015256Y007421D01*
X015756Y007421D01*
X016006Y007171D01*
X015006Y007171D02*
X014756Y007421D01*
X014256Y007421D01*
X014006Y007171D01*
X014006Y006671D01*
X014006Y007171D02*
X013756Y007421D01*
X013256Y007421D01*
X013006Y007171D01*
X013472Y011871D02*
X013406Y011937D01*
X013406Y012204D01*
X013472Y012271D01*
X013606Y012271D01*
X013673Y012204D01*
X013673Y011937D01*
X013606Y011871D01*
X013472Y011871D01*
X013539Y012004D02*
X013673Y011871D01*
X013866Y011871D02*
X014133Y012138D01*
X014133Y012204D01*
X014066Y012271D01*
X013933Y012271D01*
X013866Y012204D01*
X013866Y011871D02*
X014133Y011871D01*
X009536Y013721D02*
X009138Y013721D01*
X008744Y013721D02*
X008345Y013721D01*
X007952Y013721D02*
X007553Y013721D01*
X007360Y013571D02*
X007360Y013171D01*
X007493Y013171D02*
X007226Y013171D01*
X007226Y013438D02*
X007360Y013571D01*
X003743Y013254D02*
X003743Y013188D01*
X003476Y012921D01*
X003743Y012921D01*
X003743Y013254D02*
X003677Y013321D01*
X003543Y013321D01*
X003476Y013254D01*
M02*
