G75*
G70*
%OFA0B0*%
%FSLAX24Y24*%
%IPPOS*%
%LPD*%
%AMOC8*
5,1,8,0,0,1.08239X$1,22.5*
%
%ADD10C,0.0100*%
%ADD11C,0.0060*%
%ADD12C,0.0594*%
%ADD13R,0.0660X0.0660*%
%ADD14C,0.0700*%
%ADD15R,0.0200X0.0400*%
%ADD16R,0.0400X0.0390*%
%ADD17R,0.0394X0.0433*%
%ADD18R,0.0390X0.0400*%
%ADD19R,0.0551X0.0394*%
%ADD20R,0.0433X0.0394*%
%ADD21R,0.0236X0.0236*%
%ADD22R,0.0354X0.0394*%
%ADD23R,0.0354X0.0433*%
%ADD24C,0.0650*%
%ADD25C,0.1227*%
%ADD26C,0.0120*%
%ADD27C,0.0436*%
D10*
X002006Y005221D02*
X002404Y005221D01*
X002006Y005221D02*
X002006Y005636D01*
X002006Y006029D02*
X002006Y006444D01*
X002006Y006838D02*
X002006Y007253D01*
X002006Y007646D02*
X002006Y008061D01*
X002006Y008455D02*
X002006Y008870D01*
X002006Y009263D02*
X002006Y009678D01*
X002006Y010072D02*
X002006Y010487D01*
X002006Y010880D02*
X002006Y011295D01*
X002673Y011121D02*
X002756Y011121D01*
X003456Y011821D01*
X003539Y011821D01*
X003556Y011821D01*
X002706Y011854D02*
X002673Y011821D01*
X002706Y011854D02*
X002706Y012621D01*
X002771Y012621D01*
X002756Y012636D01*
X002756Y012721D01*
X003056Y013021D01*
X004806Y013021D01*
X004809Y013024D01*
X004833Y013024D01*
X004709Y013024D01*
X004833Y012498D02*
X004756Y012421D01*
X005106Y012421D01*
X005356Y012171D01*
X005356Y010671D01*
X005356Y010621D01*
X005256Y010621D01*
X004456Y009821D01*
X004456Y008321D01*
X004006Y007871D01*
X004546Y007871D01*
X004606Y007871D02*
X004806Y007871D01*
X004856Y007871D02*
X004856Y008171D01*
X005156Y008471D01*
X005156Y007871D02*
X005156Y007371D01*
X005006Y007221D01*
X005006Y006521D01*
X004506Y006021D01*
X004506Y005721D01*
X004383Y005221D02*
X004781Y005221D01*
X005175Y005221D02*
X005574Y005221D01*
X005967Y005221D02*
X006366Y005221D01*
X006760Y005221D02*
X007158Y005221D01*
X007552Y005221D02*
X007951Y005221D01*
X008344Y005221D02*
X008743Y005221D01*
X009137Y005221D02*
X009535Y005221D01*
X009929Y005221D02*
X010328Y005221D01*
X010721Y005221D02*
X011120Y005221D01*
X011514Y005221D02*
X011912Y005221D01*
X012306Y005221D02*
X012704Y005221D01*
X013098Y005221D02*
X013497Y005221D01*
X013891Y005221D02*
X014289Y005221D01*
X014683Y005221D02*
X015081Y005221D01*
X015475Y005221D02*
X015874Y005221D01*
X016267Y005221D02*
X016666Y005221D01*
X017060Y005221D02*
X017458Y005221D01*
X017852Y005221D02*
X018251Y005221D01*
X018644Y005221D02*
X019043Y005221D01*
X019437Y005221D02*
X019835Y005221D01*
X020229Y005221D02*
X020628Y005221D01*
X021021Y005221D02*
X021420Y005221D01*
X021814Y005221D02*
X022212Y005221D01*
X022606Y005221D02*
X023005Y005221D01*
X023006Y005221D02*
X023006Y005636D01*
X023006Y006029D02*
X023006Y006444D01*
X023006Y006838D02*
X023006Y007253D01*
X023006Y007646D02*
X023006Y008061D01*
X023006Y008455D02*
X023006Y008870D01*
X023006Y009263D02*
X023006Y009678D01*
X023006Y010072D02*
X023006Y010487D01*
X023006Y010880D02*
X023006Y011295D01*
X023006Y011689D02*
X023006Y012104D01*
X023006Y012497D02*
X023006Y012912D01*
X023006Y013306D02*
X023006Y013721D01*
X022607Y013721D01*
X022213Y013721D02*
X021815Y013721D01*
X021421Y013721D02*
X021022Y013721D01*
X020629Y013721D02*
X020230Y013721D01*
X019836Y013721D02*
X019438Y013721D01*
X019044Y013721D02*
X018645Y013721D01*
X018252Y013721D02*
X017853Y013721D01*
X017459Y013721D02*
X017061Y013721D01*
X016667Y013721D02*
X016268Y013721D01*
X015875Y013721D02*
X015476Y013721D01*
X015082Y013721D02*
X014684Y013721D01*
X014290Y013721D02*
X013891Y013721D01*
X013498Y013721D02*
X013099Y013721D01*
X012705Y013721D02*
X012307Y013721D01*
X011913Y013721D02*
X011515Y013721D01*
X011121Y013721D02*
X010722Y013721D01*
X010329Y013721D02*
X009930Y013721D01*
X009536Y013721D02*
X009138Y013721D01*
X008744Y013721D02*
X008345Y013721D01*
X007952Y013721D02*
X007553Y013721D01*
X007159Y013721D02*
X006761Y013721D01*
X006367Y013721D02*
X005968Y013721D01*
X005575Y013721D02*
X005176Y013721D01*
X004782Y013721D02*
X004384Y013721D01*
X003990Y013721D02*
X003591Y013721D01*
X003198Y013721D02*
X002799Y013721D01*
X002405Y013721D02*
X002007Y013721D01*
X002006Y013721D02*
X002006Y013306D01*
X002006Y012912D02*
X002006Y012497D01*
X002006Y012104D02*
X002006Y011689D01*
X002673Y011121D02*
X002706Y011121D01*
X002706Y010386D01*
X002771Y010321D01*
X003440Y010321D02*
X003540Y010355D01*
X003906Y010721D01*
X005856Y010171D02*
X005856Y007271D01*
X005506Y006921D01*
X005506Y005721D01*
X006506Y005721D02*
X006506Y006921D01*
X006506Y007521D01*
X007356Y008371D01*
X007356Y009671D01*
X007856Y010171D02*
X007856Y007271D01*
X007506Y006921D01*
X007506Y006721D01*
X008506Y005721D01*
X008506Y006721D02*
X009506Y005721D01*
X009506Y006721D02*
X010506Y005721D01*
X011156Y006221D02*
X011806Y006221D01*
X012306Y005721D01*
X012506Y005721D01*
X012806Y006221D02*
X012156Y006221D01*
X011506Y006871D01*
X011506Y006921D01*
X011506Y007371D01*
X009856Y009021D01*
X009856Y010171D01*
X009356Y010671D01*
X008856Y010171D02*
X008856Y007571D01*
X009506Y006921D01*
X009506Y006721D01*
X010456Y006971D02*
X010506Y006921D01*
X010506Y006871D01*
X011156Y006221D01*
X010456Y006971D02*
X010456Y007921D01*
X009356Y009021D01*
X009356Y009671D01*
X008856Y010171D02*
X008356Y010671D01*
X007856Y010171D02*
X007356Y010671D01*
X006856Y010171D02*
X006856Y012571D01*
X006806Y012671D01*
X007116Y012671D02*
X007566Y013071D01*
X008156Y013071D01*
X008306Y013005D01*
X008371Y013071D01*
X009206Y013071D01*
X009206Y013005D01*
X008290Y012386D02*
X008306Y012336D01*
X008290Y012386D02*
X008156Y012421D01*
X008006Y012421D01*
X007656Y012071D01*
X008856Y011671D02*
X009356Y011671D01*
X010456Y012771D01*
X011856Y012771D01*
X012006Y012921D01*
X012406Y012921D01*
X012506Y013062D01*
X012523Y013045D01*
X012156Y012671D02*
X012006Y012521D01*
X012006Y012021D01*
X012356Y011671D01*
X012356Y010671D01*
X011856Y010171D02*
X011856Y011721D01*
X011356Y012221D01*
X011356Y012421D01*
X011390Y012371D01*
X010721Y012371D02*
X010556Y012371D01*
X009456Y011271D01*
X007856Y011271D01*
X006356Y010671D02*
X005856Y010171D01*
X006356Y009671D02*
X006856Y010171D01*
X008356Y009671D02*
X008356Y007071D01*
X008506Y006921D01*
X008506Y006721D01*
X005166Y007871D02*
X005156Y007871D01*
X004006Y007871D02*
X003506Y007371D01*
X003506Y006921D01*
X003506Y005721D01*
X003590Y005221D02*
X003989Y005221D01*
X003197Y005221D02*
X002798Y005221D01*
X010356Y009071D02*
X010356Y009671D01*
X010356Y009071D02*
X012506Y006921D01*
X012506Y006871D01*
X013156Y006221D01*
X013806Y006221D01*
X014306Y005721D01*
X014506Y005721D01*
X014806Y006221D02*
X014156Y006221D01*
X013506Y006871D01*
X013506Y006921D01*
X014506Y006921D02*
X014506Y006871D01*
X015156Y006221D01*
X015806Y006221D01*
X016306Y005721D01*
X016506Y005721D01*
X016806Y006221D02*
X017306Y005721D01*
X017506Y005721D01*
X016806Y006221D02*
X016156Y006221D01*
X015506Y006871D01*
X015506Y006921D01*
X014806Y006221D02*
X015306Y005721D01*
X015506Y005721D01*
X013506Y005721D02*
X013306Y005721D01*
X012806Y006221D01*
X018956Y007071D02*
X018956Y007321D01*
X018969Y007321D01*
X018971Y007318D01*
X018958Y007318D01*
X018956Y007321D01*
X018956Y007071D02*
X019506Y006521D01*
X019621Y006421D01*
X019506Y006521D02*
X019506Y005721D01*
X020956Y007321D02*
X021706Y006571D01*
X021690Y006421D01*
X020940Y007318D02*
X020943Y007321D01*
X020956Y007321D01*
X012356Y009671D02*
X011856Y010171D01*
X012156Y012671D02*
X013389Y012671D01*
X006496Y012671D02*
X006006Y012671D01*
X005975Y012689D01*
X004833Y012498D02*
X004833Y012355D01*
X020940Y013027D02*
X020950Y013027D01*
X020956Y013021D01*
X021056Y013121D01*
X021821Y013121D01*
D11*
X023822Y009125D02*
X023822Y008698D01*
X023929Y008591D01*
X024145Y008698D02*
X024252Y008591D01*
X024466Y008591D01*
X024572Y008698D01*
X024572Y008911D01*
X024466Y009018D01*
X024252Y009018D01*
X024145Y008911D01*
X024145Y008698D01*
X023929Y009018D02*
X023716Y009018D01*
X024790Y009018D02*
X024790Y008377D01*
X024790Y008591D02*
X025110Y008591D01*
X025217Y008698D01*
X025217Y008911D01*
X025110Y009018D01*
X024790Y009018D01*
D12*
X022506Y005721D03*
X021506Y005721D03*
X020506Y005721D03*
X019506Y005721D03*
X018506Y005721D03*
X017506Y005721D03*
X016506Y005721D03*
X015506Y005721D03*
X014506Y005721D03*
X013506Y005721D03*
X012506Y005721D03*
X011506Y005721D03*
X010506Y005721D03*
X009506Y005721D03*
X008506Y005721D03*
X007506Y005721D03*
X006506Y005721D03*
X005506Y005721D03*
X004506Y005721D03*
X003506Y005721D03*
X002506Y005721D03*
D13*
X005356Y009671D03*
D14*
X006356Y009671D03*
X007356Y009671D03*
X008356Y009671D03*
X009356Y009671D03*
X010356Y009671D03*
X011356Y009671D03*
X012356Y009671D03*
X012356Y010671D03*
X011356Y010671D03*
X010356Y010671D03*
X009356Y010671D03*
X008356Y010671D03*
X007356Y010671D03*
X006356Y010671D03*
X005356Y010671D03*
X005506Y006921D03*
X004506Y006921D03*
X003506Y006921D03*
X002506Y006921D03*
X006506Y006921D03*
X007506Y006921D03*
X008506Y006921D03*
X009506Y006921D03*
X010506Y006921D03*
X011506Y006921D03*
X012506Y006921D03*
X013506Y006921D03*
X014506Y006921D03*
X015506Y006921D03*
X016506Y006921D03*
X017506Y006921D03*
D15*
X007116Y012671D03*
X006806Y012671D03*
X006496Y012671D03*
X005166Y007871D03*
X004856Y007871D03*
X004546Y007871D03*
D16*
X008306Y012336D03*
X008306Y013005D03*
D17*
X009206Y013005D03*
X009206Y012336D03*
D18*
X010721Y012371D03*
X011390Y012371D03*
D19*
X012523Y012297D03*
X013389Y012671D03*
X012523Y013045D03*
D20*
X003440Y012621D03*
X002771Y012621D03*
X002771Y010321D03*
X003440Y010321D03*
X019621Y006421D03*
X020290Y006421D03*
X021021Y006421D03*
X021690Y006421D03*
X021821Y013121D03*
X022490Y013121D03*
D21*
X003539Y011821D03*
X002673Y011821D03*
X002673Y011121D03*
X003539Y011121D03*
D22*
X004833Y012355D03*
X004833Y013024D03*
D23*
X005975Y012689D03*
D24*
X018971Y013027D03*
X020940Y013027D03*
X020940Y007318D03*
X019956Y007318D03*
X018971Y007318D03*
D25*
X017712Y010271D03*
X022200Y010271D03*
D26*
X022140Y010318D02*
X017772Y010318D01*
X017772Y010331D02*
X018485Y010331D01*
X018485Y010425D01*
X018367Y010709D01*
X018150Y010926D01*
X017865Y011044D01*
X017771Y011044D01*
X017771Y010331D01*
X017652Y010331D01*
X017652Y011044D01*
X017558Y011044D01*
X017273Y010926D01*
X017056Y010709D01*
X016938Y010425D01*
X016938Y010331D01*
X017651Y010331D01*
X017651Y010211D01*
X016938Y010211D01*
X016938Y010117D01*
X017056Y009833D01*
X017273Y009615D01*
X017558Y009497D01*
X017652Y009497D01*
X017652Y010211D01*
X017771Y010211D01*
X017771Y009497D01*
X017865Y009497D01*
X018150Y009615D01*
X018367Y009833D01*
X018485Y010117D01*
X018485Y010211D01*
X017772Y010211D01*
X017772Y010331D01*
X017771Y010437D02*
X017652Y010437D01*
X017652Y010555D02*
X017771Y010555D01*
X017771Y010674D02*
X017652Y010674D01*
X017652Y010792D02*
X017771Y010792D01*
X017771Y010911D02*
X017652Y010911D01*
X017652Y011029D02*
X017771Y011029D01*
X017901Y011029D02*
X022010Y011029D01*
X022046Y011044D02*
X021762Y010926D01*
X021544Y010709D01*
X021426Y010425D01*
X021426Y010331D01*
X022140Y010331D01*
X022140Y011044D01*
X022046Y011044D01*
X022140Y011029D02*
X022260Y011029D01*
X022260Y011044D02*
X022260Y010331D01*
X022140Y010331D01*
X022140Y010211D01*
X022260Y010211D01*
X022260Y009497D01*
X022354Y009497D01*
X022638Y009615D01*
X022776Y009753D01*
X022776Y006125D01*
X022601Y006198D01*
X022411Y006198D01*
X022236Y006125D01*
X022101Y005991D01*
X022029Y005816D01*
X022029Y005671D01*
X021982Y005671D01*
X021982Y005816D01*
X021910Y005991D01*
X021857Y006044D01*
X021981Y006044D01*
X022087Y006149D01*
X022087Y006692D01*
X021981Y006798D01*
X021804Y006798D01*
X021427Y007175D01*
X021445Y007218D01*
X021445Y007418D01*
X021368Y007604D01*
X021226Y007746D01*
X021040Y007823D01*
X020839Y007823D01*
X020654Y007746D01*
X020512Y007604D01*
X020437Y007423D01*
X020367Y007593D01*
X020230Y007729D01*
X020052Y007803D01*
X020004Y007803D01*
X020004Y007367D01*
X019907Y007367D01*
X019907Y007803D01*
X019859Y007803D01*
X019681Y007729D01*
X019545Y007593D01*
X019474Y007423D01*
X019399Y007604D01*
X019257Y007746D01*
X019072Y007823D01*
X018871Y007823D01*
X018685Y007746D01*
X018543Y007604D01*
X018467Y007418D01*
X018467Y007218D01*
X018543Y007032D01*
X018685Y006890D01*
X018871Y006813D01*
X018888Y006813D01*
X019224Y006477D01*
X019224Y006149D01*
X019245Y006129D01*
X019236Y006125D01*
X019101Y005991D01*
X019029Y005816D01*
X019029Y005671D01*
X018982Y005671D01*
X018982Y005816D01*
X018910Y005991D01*
X018776Y006125D01*
X018601Y006198D01*
X018411Y006198D01*
X018236Y006125D01*
X018101Y005991D01*
X018029Y005816D01*
X018029Y005671D01*
X017982Y005671D01*
X017982Y005816D01*
X017910Y005991D01*
X017776Y006125D01*
X017601Y006198D01*
X017411Y006198D01*
X017236Y006125D01*
X017231Y006121D01*
X016901Y006451D01*
X016756Y006451D01*
X016806Y006471D01*
X016955Y006621D01*
X017006Y006743D01*
X017056Y006621D01*
X017205Y006471D01*
X017400Y006391D01*
X017611Y006391D01*
X017806Y006471D01*
X017955Y006621D01*
X018036Y006815D01*
X018036Y007026D01*
X017955Y007221D01*
X017806Y007370D01*
X017611Y007451D01*
X017400Y007451D01*
X017205Y007370D01*
X017056Y007221D01*
X017006Y007099D01*
X016955Y007221D01*
X016806Y007370D01*
X016611Y007451D01*
X016400Y007451D01*
X016205Y007370D01*
X016056Y007221D01*
X016006Y007099D01*
X015955Y007221D01*
X015806Y007370D01*
X015611Y007451D01*
X015400Y007451D01*
X015205Y007370D01*
X015056Y007221D01*
X015006Y007099D01*
X014955Y007221D01*
X014806Y007370D01*
X014611Y007451D01*
X014400Y007451D01*
X014205Y007370D01*
X014056Y007221D01*
X014006Y007099D01*
X013955Y007221D01*
X013806Y007370D01*
X013611Y007451D01*
X013400Y007451D01*
X013205Y007370D01*
X013056Y007221D01*
X013006Y007099D01*
X012955Y007221D01*
X012806Y007370D01*
X012611Y007451D01*
X012400Y007451D01*
X012330Y007422D01*
X010586Y009166D01*
X010586Y009192D01*
X010656Y009221D01*
X010805Y009371D01*
X010856Y009493D01*
X010906Y009371D01*
X011055Y009221D01*
X011250Y009141D01*
X011461Y009141D01*
X011656Y009221D01*
X011805Y009371D01*
X011856Y009493D01*
X011906Y009371D01*
X012055Y009221D01*
X012250Y009141D01*
X012461Y009141D01*
X012656Y009221D01*
X012805Y009371D01*
X012886Y009565D01*
X012886Y009776D01*
X012805Y009971D01*
X012656Y010120D01*
X012533Y010171D01*
X012656Y010221D01*
X012805Y010371D01*
X012886Y010565D01*
X012886Y010776D01*
X012805Y010971D01*
X012656Y011120D01*
X012586Y011149D01*
X012586Y011766D01*
X012451Y011901D01*
X012412Y011940D01*
X012484Y011940D01*
X012484Y012258D01*
X012561Y012258D01*
X012561Y011940D01*
X012864Y011940D01*
X012958Y012034D01*
X012958Y012258D01*
X012561Y012258D01*
X012561Y012335D01*
X012958Y012335D01*
X012958Y012374D01*
X013039Y012294D01*
X013739Y012294D01*
X013844Y012399D01*
X013844Y012942D01*
X013739Y013048D01*
X013039Y013048D01*
X012978Y012987D01*
X012978Y013316D01*
X012873Y013422D01*
X012172Y013422D01*
X012067Y013316D01*
X012067Y013151D01*
X011910Y013151D01*
X011776Y013016D01*
X011760Y013001D01*
X010360Y013001D01*
X010226Y012866D01*
X009562Y012203D01*
X009562Y012298D01*
X009244Y012298D01*
X009244Y012375D01*
X009562Y012375D01*
X009562Y012619D01*
X009525Y012657D01*
X009582Y012714D01*
X009582Y013296D01*
X009477Y013402D01*
X008934Y013402D01*
X008833Y013301D01*
X008660Y013301D01*
X008580Y013380D01*
X008031Y013380D01*
X007951Y013301D01*
X007470Y013301D01*
X007408Y013238D01*
X007197Y013051D01*
X006941Y013051D01*
X006631Y013051D01*
X006321Y013051D01*
X006291Y013021D01*
X006226Y013086D01*
X005723Y013086D01*
X005617Y012980D01*
X005617Y012398D01*
X005723Y012293D01*
X006226Y012293D01*
X006273Y012339D01*
X006321Y012291D01*
X006626Y012291D01*
X006626Y011133D01*
X006461Y011201D01*
X006250Y011201D01*
X006055Y011120D01*
X005906Y010971D01*
X005856Y010849D01*
X005805Y010971D01*
X005656Y011120D01*
X005586Y011149D01*
X005586Y012266D01*
X005451Y012401D01*
X005201Y012651D01*
X005165Y012651D01*
X005127Y012689D01*
X005617Y012689D01*
X005617Y012570D02*
X005281Y012570D01*
X005400Y012452D02*
X005617Y012452D01*
X005682Y012333D02*
X005518Y012333D01*
X005586Y012215D02*
X006626Y012215D01*
X006626Y012096D02*
X005586Y012096D01*
X005586Y011978D02*
X006626Y011978D01*
X006626Y011859D02*
X005586Y011859D01*
X005586Y011741D02*
X006626Y011741D01*
X006626Y011622D02*
X005586Y011622D01*
X005586Y011504D02*
X006626Y011504D01*
X006626Y011385D02*
X005586Y011385D01*
X005586Y011266D02*
X006626Y011266D01*
X006626Y011148D02*
X006589Y011148D01*
X007086Y011148D02*
X007123Y011148D01*
X007086Y011133D02*
X007250Y011201D01*
X007458Y011201D01*
X007458Y011350D01*
X007518Y011496D01*
X007630Y011608D01*
X007776Y011669D01*
X007935Y011669D01*
X008081Y011608D01*
X008189Y011501D01*
X008495Y011501D01*
X008458Y011592D01*
X008458Y011750D01*
X008518Y011896D01*
X008630Y012008D01*
X008776Y012069D01*
X008849Y012069D01*
X008849Y012298D01*
X009167Y012298D01*
X009167Y012375D01*
X008849Y012375D01*
X008849Y012619D01*
X008887Y012657D01*
X008829Y012714D01*
X008829Y012841D01*
X008686Y012841D01*
X008686Y012736D01*
X008621Y012671D01*
X008686Y012606D01*
X008686Y012067D01*
X008580Y011961D01*
X008041Y011961D01*
X007993Y011845D01*
X007881Y011733D01*
X007735Y011673D01*
X007576Y011673D01*
X007430Y011733D01*
X007318Y011845D01*
X007258Y011992D01*
X007258Y012150D01*
X007318Y012296D01*
X007430Y012408D01*
X007576Y012469D01*
X007729Y012469D01*
X007776Y012516D01*
X007776Y012516D01*
X007910Y012651D01*
X007971Y012651D01*
X007991Y012671D01*
X007926Y012736D01*
X007926Y012841D01*
X007653Y012841D01*
X007396Y012612D01*
X007396Y012396D01*
X007290Y012291D01*
X007086Y012291D01*
X007086Y011133D01*
X007086Y011266D02*
X007458Y011266D01*
X007472Y011385D02*
X007086Y011385D01*
X007086Y011504D02*
X007525Y011504D01*
X007664Y011622D02*
X007086Y011622D01*
X007086Y011741D02*
X007423Y011741D01*
X007312Y011859D02*
X007086Y011859D01*
X007086Y011978D02*
X007263Y011978D01*
X007258Y012096D02*
X007086Y012096D01*
X007086Y012215D02*
X007284Y012215D01*
X007333Y012333D02*
X007355Y012333D01*
X007396Y012452D02*
X007536Y012452D01*
X007396Y012570D02*
X007830Y012570D01*
X007973Y012689D02*
X007482Y012689D01*
X007616Y012808D02*
X007926Y012808D01*
X007324Y013163D02*
X005190Y013163D01*
X005190Y013045D02*
X005682Y013045D01*
X005617Y012926D02*
X005190Y012926D01*
X005190Y012808D02*
X005617Y012808D01*
X005190Y012753D02*
X005190Y013295D01*
X005085Y013401D01*
X004581Y013401D01*
X004476Y013295D01*
X004476Y013251D01*
X002960Y013251D01*
X002826Y013116D01*
X002707Y012998D01*
X002480Y012998D01*
X002374Y012892D01*
X002374Y012349D01*
X002476Y012248D01*
X002476Y012115D01*
X002374Y012013D01*
X002374Y011628D01*
X002480Y011523D01*
X002832Y011523D01*
X002729Y011419D01*
X002480Y011419D01*
X002374Y011313D01*
X002374Y010928D01*
X002476Y010827D01*
X002476Y010693D01*
X002374Y010592D01*
X002374Y010049D01*
X002480Y009944D01*
X003062Y009944D01*
X003106Y009988D01*
X003149Y009944D01*
X003731Y009944D01*
X003837Y010049D01*
X003837Y010323D01*
X003985Y010323D01*
X004131Y010383D01*
X004243Y010495D01*
X004304Y010642D01*
X004304Y010800D01*
X004243Y010946D01*
X004131Y011058D01*
X003985Y011119D01*
X003826Y011119D01*
X003817Y011115D01*
X003817Y011121D01*
X003817Y011305D01*
X003723Y011399D01*
X003539Y011399D01*
X003539Y011121D01*
X003817Y011121D01*
X003539Y011121D01*
X003539Y011121D01*
X003539Y011121D01*
X003539Y011399D01*
X003359Y011399D01*
X003483Y011523D01*
X003731Y011523D01*
X003837Y011628D01*
X003837Y012013D01*
X003731Y012119D01*
X003346Y012119D01*
X003241Y012013D01*
X003241Y011931D01*
X003226Y011916D01*
X002971Y011661D01*
X002971Y012013D01*
X002936Y012048D01*
X002936Y012244D01*
X003062Y012244D01*
X003120Y012302D01*
X003157Y012264D01*
X003402Y012264D01*
X003402Y012582D01*
X003479Y012582D01*
X003479Y012659D01*
X003817Y012659D01*
X003817Y012791D01*
X004476Y012791D01*
X004476Y012753D01*
X004539Y012689D01*
X004476Y012626D01*
X004476Y012083D01*
X004581Y011978D01*
X005085Y011978D01*
X005126Y012019D01*
X005126Y011149D01*
X005055Y011120D01*
X004906Y010971D01*
X004826Y010776D01*
X004826Y010565D01*
X004840Y010530D01*
X004226Y009916D01*
X004226Y009726D01*
X004226Y008416D01*
X003776Y007966D01*
X003276Y007466D01*
X003276Y007399D01*
X003205Y007370D01*
X003056Y007221D01*
X002995Y007072D01*
X002938Y007210D01*
X002795Y007353D01*
X002607Y007431D01*
X002544Y007431D01*
X002544Y006959D01*
X002467Y006959D01*
X002467Y007431D01*
X002404Y007431D01*
X002236Y007361D01*
X002236Y013491D01*
X018825Y013491D01*
X018697Y013438D01*
X018560Y013301D01*
X018487Y013123D01*
X018487Y013075D01*
X018923Y013075D01*
X018923Y012978D01*
X019020Y012978D01*
X019020Y012542D01*
X019068Y012542D01*
X019246Y012616D01*
X019382Y012752D01*
X019456Y012930D01*
X019456Y012978D01*
X019020Y012978D01*
X019020Y013075D01*
X019456Y013075D01*
X019456Y013123D01*
X019382Y013301D01*
X019246Y013438D01*
X019118Y013491D01*
X020741Y013491D01*
X020654Y013455D01*
X020512Y013313D01*
X020435Y013127D01*
X020435Y012926D01*
X019454Y012926D01*
X019405Y012808D02*
X020484Y012808D01*
X020512Y012741D02*
X020654Y012599D01*
X020839Y012522D01*
X021040Y012522D01*
X021226Y012599D01*
X021368Y012741D01*
X021424Y012878D01*
X021424Y012849D01*
X021530Y012744D01*
X022112Y012744D01*
X022170Y012802D01*
X022207Y012764D01*
X022452Y012764D01*
X022452Y013082D01*
X022529Y013082D01*
X022529Y012764D01*
X022773Y012764D01*
X022776Y012767D01*
X022776Y010789D01*
X022638Y010926D01*
X022354Y011044D01*
X022260Y011044D01*
X022389Y011029D02*
X022776Y011029D01*
X022776Y010911D02*
X022653Y010911D01*
X022772Y010792D02*
X022776Y010792D01*
X022260Y010792D02*
X022140Y010792D01*
X022140Y010674D02*
X022260Y010674D01*
X022260Y010555D02*
X022140Y010555D01*
X022140Y010437D02*
X022260Y010437D01*
X022260Y010200D02*
X022140Y010200D01*
X022140Y010211D02*
X022140Y009497D01*
X022046Y009497D01*
X021762Y009615D01*
X021544Y009833D01*
X021426Y010117D01*
X021426Y010211D01*
X022140Y010211D01*
X022140Y010081D02*
X022260Y010081D01*
X022260Y009963D02*
X022140Y009963D01*
X022140Y009844D02*
X022260Y009844D01*
X022260Y009725D02*
X022140Y009725D01*
X022140Y009607D02*
X022260Y009607D01*
X022618Y009607D02*
X022776Y009607D01*
X022776Y009725D02*
X022748Y009725D01*
X022776Y009488D02*
X012854Y009488D01*
X012886Y009607D02*
X017293Y009607D01*
X017163Y009725D02*
X012886Y009725D01*
X012858Y009844D02*
X017051Y009844D01*
X017002Y009963D02*
X012809Y009963D01*
X012695Y010081D02*
X016953Y010081D01*
X016938Y010200D02*
X012603Y010200D01*
X012753Y010318D02*
X017651Y010318D01*
X017652Y010200D02*
X017771Y010200D01*
X017771Y010081D02*
X017652Y010081D01*
X017652Y009963D02*
X017771Y009963D01*
X017771Y009844D02*
X017652Y009844D01*
X017652Y009725D02*
X017771Y009725D01*
X017771Y009607D02*
X017652Y009607D01*
X018130Y009607D02*
X021781Y009607D01*
X021651Y009725D02*
X018260Y009725D01*
X018372Y009844D02*
X021539Y009844D01*
X021490Y009963D02*
X018421Y009963D01*
X018470Y010081D02*
X021441Y010081D01*
X021426Y010200D02*
X018485Y010200D01*
X018480Y010437D02*
X021431Y010437D01*
X021481Y010555D02*
X018431Y010555D01*
X018382Y010674D02*
X021530Y010674D01*
X021628Y010792D02*
X018284Y010792D01*
X018165Y010911D02*
X021746Y010911D01*
X022140Y010911D02*
X022260Y010911D01*
X022776Y011148D02*
X012589Y011148D01*
X012586Y011266D02*
X022776Y011266D01*
X022776Y011385D02*
X012586Y011385D01*
X012586Y011504D02*
X022776Y011504D01*
X022776Y011622D02*
X012586Y011622D01*
X012586Y011741D02*
X022776Y011741D01*
X022776Y011859D02*
X012492Y011859D01*
X012484Y011978D02*
X012561Y011978D01*
X012561Y012096D02*
X012484Y012096D01*
X012484Y012215D02*
X012561Y012215D01*
X012561Y012333D02*
X012999Y012333D01*
X012958Y012215D02*
X022776Y012215D01*
X022776Y012333D02*
X013778Y012333D01*
X013844Y012452D02*
X022776Y012452D01*
X022776Y012570D02*
X021158Y012570D01*
X021316Y012689D02*
X022776Y012689D01*
X022529Y012808D02*
X022452Y012808D01*
X022452Y012926D02*
X022529Y012926D01*
X022529Y013045D02*
X022452Y013045D01*
X022452Y013159D02*
X022452Y013478D01*
X022207Y013478D01*
X022170Y013440D01*
X022119Y013491D01*
X022776Y013491D01*
X022776Y013475D01*
X022773Y013478D01*
X022529Y013478D01*
X022529Y013159D01*
X022452Y013159D01*
X022452Y013163D02*
X022529Y013163D01*
X022529Y013282D02*
X022452Y013282D01*
X022452Y013400D02*
X022529Y013400D01*
X021466Y012808D02*
X021395Y012808D01*
X020722Y012570D02*
X019137Y012570D01*
X019020Y012570D02*
X018923Y012570D01*
X018923Y012542D02*
X018923Y012978D01*
X018487Y012978D01*
X018487Y012930D01*
X018560Y012752D01*
X018697Y012616D01*
X018875Y012542D01*
X018923Y012542D01*
X018806Y012570D02*
X013844Y012570D01*
X013844Y012689D02*
X018623Y012689D01*
X018537Y012808D02*
X013844Y012808D01*
X013844Y012926D02*
X018488Y012926D01*
X018503Y013163D02*
X012978Y013163D01*
X012978Y013045D02*
X013036Y013045D01*
X012978Y013282D02*
X018552Y013282D01*
X018659Y013400D02*
X012894Y013400D01*
X012151Y013400D02*
X009479Y013400D01*
X009582Y013282D02*
X012067Y013282D01*
X012067Y013163D02*
X009582Y013163D01*
X009582Y013045D02*
X011804Y013045D01*
X010286Y012926D02*
X009582Y012926D01*
X009582Y012808D02*
X010167Y012808D01*
X010226Y012866D02*
X010226Y012866D01*
X010049Y012689D02*
X009557Y012689D01*
X009562Y012570D02*
X009930Y012570D01*
X009812Y012452D02*
X009562Y012452D01*
X009693Y012333D02*
X009244Y012333D01*
X009244Y012297D02*
X009244Y011960D01*
X009319Y011960D01*
X009260Y011901D01*
X009189Y011901D01*
X009130Y011960D01*
X009167Y011960D01*
X009167Y012297D01*
X009244Y012297D01*
X009244Y012215D02*
X009167Y012215D01*
X009167Y012333D02*
X008686Y012333D01*
X008686Y012215D02*
X008849Y012215D01*
X008849Y012096D02*
X008686Y012096D01*
X008600Y011978D02*
X008597Y011978D01*
X008503Y011859D02*
X007999Y011859D01*
X007889Y011741D02*
X008458Y011741D01*
X008458Y011622D02*
X008048Y011622D01*
X008186Y011504D02*
X008494Y011504D01*
X009167Y011978D02*
X009244Y011978D01*
X009244Y012096D02*
X009167Y012096D01*
X009562Y012215D02*
X009575Y012215D01*
X008849Y012452D02*
X008686Y012452D01*
X008686Y012570D02*
X008849Y012570D01*
X008854Y012689D02*
X008639Y012689D01*
X008686Y012808D02*
X008829Y012808D01*
X008933Y013400D02*
X005085Y013400D01*
X005190Y013282D02*
X007451Y013282D01*
X006315Y013045D02*
X006267Y013045D01*
X006267Y012333D02*
X006279Y012333D01*
X005190Y012753D02*
X005127Y012689D01*
X004539Y012689D02*
X003817Y012689D01*
X003817Y012582D02*
X003479Y012582D01*
X003479Y012264D01*
X003723Y012264D01*
X003817Y012358D01*
X003817Y012582D01*
X003817Y012570D02*
X004476Y012570D01*
X004476Y012452D02*
X003817Y012452D01*
X003793Y012333D02*
X004476Y012333D01*
X004476Y012215D02*
X002936Y012215D01*
X002936Y012096D02*
X003324Y012096D01*
X003241Y011978D02*
X002971Y011978D01*
X002971Y011859D02*
X003169Y011859D01*
X003050Y011741D02*
X002971Y011741D01*
X002813Y011504D02*
X002236Y011504D01*
X002236Y011622D02*
X002380Y011622D01*
X002374Y011741D02*
X002236Y011741D01*
X002236Y011859D02*
X002374Y011859D01*
X002374Y011978D02*
X002236Y011978D01*
X002236Y012096D02*
X002457Y012096D01*
X002476Y012215D02*
X002236Y012215D01*
X002236Y012333D02*
X002390Y012333D01*
X002374Y012452D02*
X002236Y012452D01*
X002236Y012570D02*
X002374Y012570D01*
X002374Y012689D02*
X002236Y012689D01*
X002236Y012808D02*
X002374Y012808D01*
X002408Y012926D02*
X002236Y012926D01*
X002236Y013045D02*
X002754Y013045D01*
X002873Y013163D02*
X002236Y013163D01*
X002236Y013282D02*
X004476Y013282D01*
X004581Y013400D02*
X002236Y013400D01*
X003402Y012570D02*
X003479Y012570D01*
X003479Y012452D02*
X003402Y012452D01*
X003402Y012333D02*
X003479Y012333D01*
X003754Y012096D02*
X004476Y012096D01*
X003837Y011978D02*
X005126Y011978D01*
X005126Y011859D02*
X003837Y011859D01*
X003837Y011741D02*
X005126Y011741D01*
X005126Y011622D02*
X003831Y011622D01*
X003737Y011385D02*
X005126Y011385D01*
X005126Y011266D02*
X003817Y011266D01*
X003817Y011148D02*
X005123Y011148D01*
X004965Y011029D02*
X004160Y011029D01*
X004258Y010911D02*
X004881Y010911D01*
X004832Y010792D02*
X004304Y010792D01*
X004304Y010674D02*
X004826Y010674D01*
X004830Y010555D02*
X004268Y010555D01*
X004185Y010437D02*
X004746Y010437D01*
X004628Y010318D02*
X003837Y010318D01*
X003837Y010200D02*
X004509Y010200D01*
X004391Y010081D02*
X003837Y010081D01*
X003750Y009963D02*
X004272Y009963D01*
X004226Y009844D02*
X002236Y009844D01*
X002236Y009963D02*
X002461Y009963D01*
X002374Y010081D02*
X002236Y010081D01*
X002236Y010200D02*
X002374Y010200D01*
X002374Y010318D02*
X002236Y010318D01*
X002236Y010437D02*
X002374Y010437D01*
X002374Y010555D02*
X002236Y010555D01*
X002236Y010674D02*
X002456Y010674D01*
X002476Y010792D02*
X002236Y010792D01*
X002236Y010911D02*
X002392Y010911D01*
X002374Y011029D02*
X002236Y011029D01*
X002236Y011148D02*
X002374Y011148D01*
X002374Y011266D02*
X002236Y011266D01*
X002236Y011385D02*
X002446Y011385D01*
X002971Y011011D02*
X003261Y011301D01*
X003261Y011121D01*
X003538Y011121D01*
X003538Y011121D01*
X003261Y011121D01*
X003261Y010936D01*
X003354Y010843D01*
X003525Y010843D01*
X003508Y010800D01*
X003508Y010698D01*
X003149Y010698D01*
X003106Y010654D01*
X003062Y010698D01*
X002936Y010698D01*
X002936Y010893D01*
X002971Y010928D01*
X002971Y011011D01*
X002989Y011029D02*
X003261Y011029D01*
X003261Y011148D02*
X003108Y011148D01*
X003227Y011266D02*
X003261Y011266D01*
X003539Y011266D02*
X003539Y011266D01*
X003539Y011148D02*
X003539Y011148D01*
X003286Y010911D02*
X002953Y010911D01*
X002936Y010792D02*
X003508Y010792D01*
X003125Y010674D02*
X003086Y010674D01*
X003081Y009963D02*
X003131Y009963D01*
X002236Y009725D02*
X004226Y009725D01*
X004226Y009607D02*
X002236Y009607D01*
X002236Y009488D02*
X004226Y009488D01*
X004226Y009370D02*
X002236Y009370D01*
X002236Y009251D02*
X004226Y009251D01*
X004226Y009133D02*
X002236Y009133D01*
X002236Y009014D02*
X004226Y009014D01*
X004226Y008896D02*
X002236Y008896D01*
X002236Y008777D02*
X004226Y008777D01*
X004226Y008659D02*
X002236Y008659D01*
X002236Y008540D02*
X004226Y008540D01*
X004226Y008421D02*
X002236Y008421D01*
X002236Y008303D02*
X004113Y008303D01*
X003994Y008184D02*
X002236Y008184D01*
X002236Y008066D02*
X003875Y008066D01*
X003757Y007947D02*
X002236Y007947D01*
X002236Y007829D02*
X003638Y007829D01*
X003520Y007710D02*
X002236Y007710D01*
X002236Y007592D02*
X003401Y007592D01*
X003283Y007473D02*
X002236Y007473D01*
X002467Y007355D02*
X002544Y007355D01*
X002544Y007236D02*
X002467Y007236D01*
X002467Y007117D02*
X002544Y007117D01*
X002544Y006999D02*
X002467Y006999D01*
X002467Y006882D02*
X002544Y006882D01*
X002544Y006411D01*
X002607Y006411D01*
X002795Y006488D01*
X002938Y006632D01*
X002995Y006769D01*
X003056Y006621D01*
X003205Y006471D01*
X003276Y006442D01*
X003276Y006142D01*
X003236Y006125D01*
X003101Y005991D01*
X003029Y005816D01*
X003029Y005671D01*
X002962Y005671D01*
X002962Y005682D01*
X002544Y005682D01*
X002544Y005759D01*
X002962Y005759D01*
X002962Y005812D01*
X002893Y005980D01*
X002764Y006108D01*
X002597Y006178D01*
X002544Y006178D01*
X002544Y005759D01*
X002467Y005759D01*
X002467Y006178D01*
X002415Y006178D01*
X002247Y006108D01*
X002236Y006097D01*
X002236Y006481D01*
X002404Y006411D01*
X002467Y006411D01*
X002467Y006882D01*
X002467Y006880D02*
X002544Y006880D01*
X002544Y006762D02*
X002467Y006762D01*
X002467Y006643D02*
X002544Y006643D01*
X002544Y006525D02*
X002467Y006525D01*
X002236Y006406D02*
X003276Y006406D01*
X003276Y006288D02*
X002236Y006288D01*
X002236Y006169D02*
X002394Y006169D01*
X002467Y006169D02*
X002544Y006169D01*
X002617Y006169D02*
X003276Y006169D01*
X003161Y006051D02*
X002822Y006051D01*
X002913Y005932D02*
X003077Y005932D01*
X003029Y005814D02*
X002962Y005814D01*
X003029Y005695D02*
X002544Y005695D01*
X002544Y005814D02*
X002467Y005814D01*
X002467Y005932D02*
X002544Y005932D01*
X002544Y006051D02*
X002467Y006051D01*
X002831Y006525D02*
X003152Y006525D01*
X003047Y006643D02*
X002943Y006643D01*
X002992Y006762D02*
X002998Y006762D01*
X002976Y007117D02*
X003014Y007117D01*
X003071Y007236D02*
X002912Y007236D01*
X002791Y007355D02*
X003190Y007355D01*
X004686Y008326D02*
X004686Y008416D01*
X004686Y009726D01*
X004866Y009906D01*
X004866Y009709D01*
X005317Y009709D01*
X005317Y009632D01*
X005394Y009632D01*
X005394Y009181D01*
X005626Y009181D01*
X005626Y007445D01*
X005611Y007451D01*
X005400Y007451D01*
X005386Y007445D01*
X005386Y007536D01*
X005446Y007596D01*
X005446Y008145D01*
X005419Y008172D01*
X005493Y008245D01*
X005554Y008392D01*
X005554Y008550D01*
X005493Y008696D01*
X005381Y008808D01*
X005235Y008869D01*
X005076Y008869D01*
X004930Y008808D01*
X004818Y008696D01*
X004758Y008550D01*
X004758Y008398D01*
X004686Y008326D01*
X004686Y008421D02*
X004758Y008421D01*
X004758Y008540D02*
X004686Y008540D01*
X004686Y008659D02*
X004803Y008659D01*
X004899Y008777D02*
X004686Y008777D01*
X004686Y008896D02*
X005626Y008896D01*
X005626Y009014D02*
X004686Y009014D01*
X004686Y009133D02*
X005626Y009133D01*
X005394Y009251D02*
X005317Y009251D01*
X005317Y009181D02*
X004959Y009181D01*
X004866Y009274D01*
X004866Y009632D01*
X005317Y009632D01*
X005317Y009181D01*
X005317Y009370D02*
X005394Y009370D01*
X005394Y009488D02*
X005317Y009488D01*
X005317Y009607D02*
X005394Y009607D01*
X004866Y009607D02*
X004686Y009607D01*
X004686Y009725D02*
X004866Y009725D01*
X004866Y009844D02*
X004804Y009844D01*
X004866Y009488D02*
X004686Y009488D01*
X004686Y009370D02*
X004866Y009370D01*
X004889Y009251D02*
X004686Y009251D01*
X005412Y008777D02*
X005626Y008777D01*
X005626Y008659D02*
X005509Y008659D01*
X005554Y008540D02*
X005626Y008540D01*
X005626Y008421D02*
X005554Y008421D01*
X005517Y008303D02*
X005626Y008303D01*
X005626Y008184D02*
X005432Y008184D01*
X005446Y008066D02*
X005626Y008066D01*
X005626Y007947D02*
X005446Y007947D01*
X005446Y007829D02*
X005626Y007829D01*
X005626Y007710D02*
X005446Y007710D01*
X005441Y007592D02*
X005626Y007592D01*
X005626Y007473D02*
X005386Y007473D01*
X010619Y009133D02*
X022776Y009133D01*
X022776Y009251D02*
X012686Y009251D01*
X012804Y009370D02*
X022776Y009370D01*
X022776Y009014D02*
X010737Y009014D01*
X010856Y008896D02*
X022776Y008896D01*
X022776Y008777D02*
X010975Y008777D01*
X011093Y008659D02*
X022776Y008659D01*
X022776Y008540D02*
X011212Y008540D01*
X011330Y008421D02*
X022776Y008421D01*
X022776Y008303D02*
X011449Y008303D01*
X011567Y008184D02*
X022776Y008184D01*
X022776Y008066D02*
X011686Y008066D01*
X011804Y007947D02*
X022776Y007947D01*
X022776Y007829D02*
X011923Y007829D01*
X012041Y007710D02*
X018650Y007710D01*
X018538Y007592D02*
X012160Y007592D01*
X012279Y007473D02*
X018489Y007473D01*
X018467Y007355D02*
X017821Y007355D01*
X017940Y007236D02*
X018467Y007236D01*
X018508Y007117D02*
X017998Y007117D01*
X018036Y006999D02*
X018577Y006999D01*
X018709Y006880D02*
X018036Y006880D01*
X018013Y006762D02*
X018939Y006762D01*
X019058Y006643D02*
X017964Y006643D01*
X017859Y006525D02*
X019176Y006525D01*
X019224Y006406D02*
X017648Y006406D01*
X017363Y006406D02*
X016945Y006406D01*
X016859Y006525D02*
X017152Y006525D01*
X017047Y006643D02*
X016964Y006643D01*
X017064Y006288D02*
X019224Y006288D01*
X019224Y006169D02*
X018669Y006169D01*
X018850Y006051D02*
X019161Y006051D01*
X019077Y005932D02*
X018934Y005932D01*
X018982Y005814D02*
X019029Y005814D01*
X019029Y005695D02*
X018982Y005695D01*
X018342Y006169D02*
X017669Y006169D01*
X017850Y006051D02*
X018161Y006051D01*
X018077Y005932D02*
X017934Y005932D01*
X017982Y005814D02*
X018029Y005814D01*
X018029Y005695D02*
X017982Y005695D01*
X017342Y006169D02*
X017183Y006169D01*
X017014Y007117D02*
X016998Y007117D01*
X016940Y007236D02*
X017071Y007236D01*
X017190Y007355D02*
X016821Y007355D01*
X016190Y007355D02*
X015821Y007355D01*
X015940Y007236D02*
X016071Y007236D01*
X016014Y007117D02*
X015998Y007117D01*
X015190Y007355D02*
X014821Y007355D01*
X014940Y007236D02*
X015071Y007236D01*
X015014Y007117D02*
X014998Y007117D01*
X014190Y007355D02*
X013821Y007355D01*
X013940Y007236D02*
X014071Y007236D01*
X014014Y007117D02*
X013998Y007117D01*
X013190Y007355D02*
X012821Y007355D01*
X012940Y007236D02*
X013071Y007236D01*
X013014Y007117D02*
X012998Y007117D01*
X012026Y009251D02*
X011686Y009251D01*
X011804Y009370D02*
X011907Y009370D01*
X011858Y009488D02*
X011854Y009488D01*
X011026Y009251D02*
X010686Y009251D01*
X010804Y009370D02*
X010907Y009370D01*
X010858Y009488D02*
X010854Y009488D01*
X012832Y010437D02*
X016943Y010437D01*
X016992Y010555D02*
X012881Y010555D01*
X012886Y010674D02*
X017041Y010674D01*
X017139Y010792D02*
X012879Y010792D01*
X012830Y010911D02*
X017258Y010911D01*
X017522Y011029D02*
X012747Y011029D01*
X012902Y011978D02*
X022776Y011978D01*
X022776Y012096D02*
X012958Y012096D01*
X013742Y013045D02*
X018923Y013045D01*
X019020Y013045D02*
X020435Y013045D01*
X020435Y012926D02*
X020512Y012741D01*
X020564Y012689D02*
X019319Y012689D01*
X019020Y012689D02*
X018923Y012689D01*
X018923Y012808D02*
X019020Y012808D01*
X019020Y012926D02*
X018923Y012926D01*
X019440Y013163D02*
X020450Y013163D01*
X020499Y013282D02*
X019390Y013282D01*
X019283Y013400D02*
X020600Y013400D01*
X020618Y007710D02*
X020249Y007710D01*
X020367Y007592D02*
X020507Y007592D01*
X020458Y007473D02*
X020416Y007473D01*
X020437Y007213D02*
X020512Y007032D01*
X020654Y006890D01*
X020839Y006813D01*
X021040Y006813D01*
X021109Y006842D01*
X021174Y006778D01*
X021059Y006778D01*
X021059Y006459D01*
X020983Y006459D01*
X020983Y006778D01*
X020738Y006778D01*
X020656Y006695D01*
X020573Y006778D01*
X020329Y006778D01*
X020329Y006459D01*
X020667Y006459D01*
X020982Y006459D01*
X020982Y006382D01*
X020667Y006382D01*
X020329Y006382D01*
X020329Y006459D01*
X020252Y006459D01*
X020252Y006778D01*
X020007Y006778D01*
X019970Y006740D01*
X019912Y006798D01*
X019554Y006798D01*
X019359Y006992D01*
X019399Y007032D01*
X019474Y007213D01*
X019545Y007043D01*
X019681Y006907D01*
X019859Y006833D01*
X019907Y006833D01*
X019907Y007269D01*
X020004Y007269D01*
X020004Y006833D01*
X020052Y006833D01*
X020230Y006907D01*
X020367Y007043D01*
X020437Y007213D01*
X020397Y007117D02*
X020477Y007117D01*
X020545Y006999D02*
X020322Y006999D01*
X020166Y006880D02*
X020677Y006880D01*
X020722Y006762D02*
X020589Y006762D01*
X020329Y006762D02*
X020252Y006762D01*
X020252Y006643D02*
X020329Y006643D01*
X020329Y006525D02*
X020252Y006525D01*
X020329Y006406D02*
X020982Y006406D01*
X020983Y006382D02*
X021059Y006382D01*
X021059Y006064D01*
X021175Y006064D01*
X021101Y005991D01*
X021029Y005816D01*
X021029Y005671D01*
X020982Y005671D01*
X020982Y005816D01*
X020910Y005991D01*
X020837Y006064D01*
X020983Y006064D01*
X020983Y006382D01*
X020983Y006288D02*
X021059Y006288D01*
X021059Y006169D02*
X020983Y006169D01*
X020850Y006051D02*
X021161Y006051D01*
X021077Y005932D02*
X020934Y005932D01*
X020982Y005814D02*
X021029Y005814D01*
X021029Y005695D02*
X020982Y005695D01*
X021934Y005932D02*
X022077Y005932D01*
X022029Y005814D02*
X021982Y005814D01*
X021982Y005695D02*
X022029Y005695D01*
X021988Y006051D02*
X022161Y006051D01*
X022087Y006169D02*
X022342Y006169D01*
X022087Y006288D02*
X022776Y006288D01*
X022776Y006406D02*
X022087Y006406D01*
X022087Y006525D02*
X022776Y006525D01*
X022776Y006643D02*
X022087Y006643D01*
X022017Y006762D02*
X022776Y006762D01*
X022776Y006880D02*
X021721Y006880D01*
X021603Y006999D02*
X022776Y006999D01*
X022776Y007117D02*
X021484Y007117D01*
X021445Y007236D02*
X022776Y007236D01*
X022776Y007355D02*
X021445Y007355D01*
X021422Y007473D02*
X022776Y007473D01*
X022776Y007592D02*
X021373Y007592D01*
X021262Y007710D02*
X022776Y007710D01*
X021059Y006762D02*
X020983Y006762D01*
X020983Y006643D02*
X021059Y006643D01*
X021059Y006525D02*
X020983Y006525D01*
X019992Y006762D02*
X019948Y006762D01*
X019907Y006880D02*
X020004Y006880D01*
X020004Y006999D02*
X019907Y006999D01*
X019907Y007117D02*
X020004Y007117D01*
X020004Y007236D02*
X019907Y007236D01*
X019907Y007473D02*
X020004Y007473D01*
X020004Y007592D02*
X019907Y007592D01*
X019907Y007710D02*
X020004Y007710D01*
X019662Y007710D02*
X019293Y007710D01*
X019404Y007592D02*
X019544Y007592D01*
X019495Y007473D02*
X019454Y007473D01*
X019435Y007117D02*
X019514Y007117D01*
X019589Y006999D02*
X019366Y006999D01*
X019471Y006880D02*
X019745Y006880D01*
X022669Y006169D02*
X022776Y006169D01*
X006123Y011148D02*
X005589Y011148D01*
X005747Y011029D02*
X005965Y011029D01*
X005881Y010911D02*
X005830Y010911D01*
X005126Y011504D02*
X003464Y011504D01*
X003539Y011385D02*
X003539Y011385D01*
D27*
X003906Y010721D03*
X007656Y012071D03*
X008856Y011671D03*
X007856Y011271D03*
X005156Y008471D03*
M02*
