G75*
G70*
%OFA0B0*%
%FSLAX24Y24*%
%IPPOS*%
%LPD*%
%AMOC8*
5,1,8,0,0,1.08239X$1,22.5*
%
%ADD10C,0.0060*%
%ADD11C,0.0674*%
%ADD12R,0.0740X0.0740*%
%ADD13C,0.0780*%
%ADD14R,0.0280X0.0480*%
%ADD15R,0.0480X0.0470*%
%ADD16R,0.0474X0.0513*%
%ADD17R,0.0470X0.0480*%
%ADD18R,0.0631X0.0474*%
%ADD19R,0.0513X0.0474*%
%ADD20R,0.0316X0.0316*%
%ADD21R,0.0434X0.0474*%
%ADD22R,0.0434X0.0513*%
%ADD23C,0.0730*%
%ADD24C,0.1307*%
%ADD25R,0.0100X0.0200*%
%ADD26C,0.0516*%
D10*
X025762Y008678D02*
X025869Y008571D01*
X025762Y008678D02*
X025762Y009105D01*
X025656Y008998D02*
X025869Y008998D01*
X026085Y008891D02*
X026085Y008678D01*
X026192Y008571D01*
X026406Y008571D01*
X026512Y008678D01*
X026512Y008891D01*
X026406Y008998D01*
X026192Y008998D01*
X026085Y008891D01*
X026730Y008998D02*
X027050Y008998D01*
X027157Y008891D01*
X027157Y008678D01*
X027050Y008571D01*
X026730Y008571D01*
X026730Y008357D02*
X026730Y008998D01*
D11*
X002506Y005721D03*
X003506Y005721D03*
X004506Y005721D03*
X005506Y005721D03*
X006506Y005721D03*
X007506Y005721D03*
X008506Y005721D03*
X009506Y005721D03*
X010506Y005721D03*
X011506Y005721D03*
X012506Y005721D03*
X013506Y005721D03*
X014506Y005721D03*
X015506Y005721D03*
X016506Y005721D03*
X017506Y005721D03*
X018506Y005721D03*
X019506Y005721D03*
X020506Y005721D03*
X021506Y005721D03*
X022506Y005721D03*
D12*
X005356Y009671D03*
D13*
X006356Y009671D03*
X007356Y009671D03*
X008356Y009671D03*
X009356Y009671D03*
X010356Y009671D03*
X011356Y009671D03*
X012356Y009671D03*
X012356Y010671D03*
X011356Y010671D03*
X010356Y010671D03*
X009356Y010671D03*
X008356Y010671D03*
X007356Y010671D03*
X006356Y010671D03*
X005356Y010671D03*
X005506Y006921D03*
X004506Y006921D03*
X003506Y006921D03*
X002506Y006921D03*
X006506Y006921D03*
X007506Y006921D03*
X008506Y006921D03*
X009506Y006921D03*
X010506Y006921D03*
X011506Y006921D03*
X012506Y006921D03*
X013506Y006921D03*
X014506Y006921D03*
X015506Y006921D03*
X016506Y006921D03*
X017506Y006921D03*
D14*
X007116Y012671D03*
X006806Y012671D03*
X006496Y012671D03*
X005166Y007871D03*
X004856Y007871D03*
X004546Y007871D03*
D15*
X008306Y012336D03*
X008306Y013005D03*
D16*
X009206Y013005D03*
X009206Y012336D03*
D17*
X010721Y012371D03*
X011390Y012371D03*
D18*
X012523Y012297D03*
X013389Y012671D03*
X012523Y013045D03*
D19*
X003440Y012621D03*
X002771Y012621D03*
X002771Y010321D03*
X003440Y010321D03*
X019621Y006421D03*
X020290Y006421D03*
X021021Y006421D03*
X021690Y006421D03*
X021821Y013121D03*
X022490Y013121D03*
D20*
X003539Y011821D03*
X002673Y011821D03*
X002673Y011121D03*
X003539Y011121D03*
D21*
X004833Y012355D03*
X004833Y013024D03*
D22*
X005975Y012689D03*
D23*
X018971Y013027D03*
X020940Y013027D03*
X020940Y007318D03*
X019956Y007318D03*
X018971Y007318D03*
D24*
X017712Y010271D03*
X022200Y010271D03*
D25*
X004706Y007871D03*
D26*
X005156Y008471D03*
X003906Y010721D03*
X007656Y012071D03*
X008856Y011671D03*
X007856Y011271D03*
M02*
