%
T01C0.015700
X007020Y008940
X006150Y008940
X005070Y012030
X004620Y012000
X004170Y012000
X003720Y012000
X003270Y012000
X002820Y012000
X002280Y012000
X002310Y008600
X015957Y008940
X015087Y008940
X014007Y012030
X013557Y012000
X013107Y012000
X012657Y012000
X012207Y012000
X011757Y012000
X011217Y012000
X011247Y008600
X024894Y008940
X024024Y008940
X022944Y012030
X022494Y012000
X022044Y012000
X021594Y012000
X021144Y012000
X020694Y012000
X020154Y012000
X020184Y008600
X033831Y008940
X032961Y008940
X031881Y012030
X031431Y012000
X030981Y012000
X030531Y012000
X030081Y012000
X029631Y012000
X029091Y012000
X029121Y008600
T02C0.023600
X002970Y009370
X002970Y010370
X003970Y010370
X003970Y009370
X004970Y009370
X004970Y010370
X011907Y009370
X011907Y010370
X012907Y010370
X012907Y009370
X013907Y009370
X013907Y010370
X020844Y009370
X020844Y010370
X021844Y010370
X021844Y009370
X022844Y009370
X022844Y010370
X029781Y009370
X029781Y010370
X030781Y010370
X030781Y009370
X031781Y009370
X031781Y010370
T03C0.033700
X005000Y007650
X005000Y006650
X005000Y005650
X005000Y004650
X005000Y003650
X005000Y002650
X005000Y001650
X006000Y001650
X006000Y002650
X006000Y003650
X006000Y004650
X006000Y005650
X006000Y006650
X006000Y007650
X007000Y007650
X007000Y006650
X007000Y005650
X007000Y004650
X007000Y003650
X007000Y002650
X007000Y001650
X004000Y004650
X004000Y005650
X004000Y006650
X004000Y007650
X003000Y007650
X003000Y006650
X003000Y005650
X003000Y004650
X002000Y004650
X002000Y005650
X002000Y006650
X002000Y007650
X005210Y020610
X005710Y021610
X006210Y020610
X006710Y021610
X013937Y007650
X013937Y006650
X013937Y005650
X013937Y004650
X013937Y003650
X013937Y002650
X013937Y001650
X014937Y001650
X014937Y002650
X014937Y003650
X014937Y004650
X014937Y005650
X014937Y006650
X014937Y007650
X015937Y007650
X015937Y006650
X015937Y005650
X015937Y004650
X015937Y003650
X015937Y002650
X015937Y001650
X012937Y004650
X012937Y005650
X012937Y006650
X012937Y007650
X011937Y007650
X011937Y006650
X011937Y005650
X011937Y004650
X010937Y004650
X010937Y005650
X010937Y006650
X010937Y007650
X014147Y020610
X014647Y021610
X015147Y020610
X015647Y021610
X022874Y007650
X022874Y006650
X022874Y005650
X022874Y004650
X022874Y003650
X022874Y002650
X022874Y001650
X023874Y001650
X023874Y002650
X023874Y003650
X023874Y004650
X023874Y005650
X023874Y006650
X023874Y007650
X024874Y007650
X024874Y006650
X024874Y005650
X024874Y004650
X024874Y003650
X024874Y002650
X024874Y001650
X021874Y004650
X021874Y005650
X021874Y006650
X021874Y007650
X020874Y007650
X020874Y006650
X020874Y005650
X020874Y004650
X019874Y004650
X019874Y005650
X019874Y006650
X019874Y007650
X023084Y020610
X023584Y021610
X024084Y020610
X024584Y021610
X031811Y007650
X031811Y006650
X031811Y005650
X031811Y004650
X031811Y003650
X031811Y002650
X031811Y001650
X032811Y001650
X032811Y002650
X032811Y003650
X032811Y004650
X032811Y005650
X032811Y006650
X032811Y007650
X033811Y007650
X033811Y006650
X033811Y005650
X033811Y004650
X033811Y003650
X033811Y002650
X033811Y001650
X030811Y004650
X030811Y005650
X030811Y006650
X030811Y007650
X029811Y007650
X029811Y006650
X029811Y005650
X029811Y004650
X028811Y004650
X028811Y005650
X028811Y006650
X028811Y007650
X032021Y020610
X032521Y021610
X033021Y020610
X033521Y021610
X006380Y024657
X005980Y025797
X005480Y026797
X005880Y027827
X005380Y028827
X004880Y027827
X004480Y026797
X004980Y025797
X005380Y024657
X005880Y023657
X004880Y023657
X006380Y028827
X005880Y031107
X005380Y032107
X004880Y031107
X006380Y032107
X002680Y029107
X002680Y028107
X001680Y028607
X001680Y029607
X013267Y024657
X012867Y025797
X012367Y026797
X012767Y027827
X012267Y028827
X011767Y027827
X011367Y026797
X011867Y025797
X012267Y024657
X012767Y023657
X011767Y023657
X013267Y028827
X012767Y031107
X012267Y032107
X011767Y031107
X013267Y032107
X009567Y029107
X009567Y028107
X008567Y028607
X008567Y029607
X033209Y023648
X032209Y023648
X029738Y023655
X028738Y023655
X026227Y023645
X025227Y023645
X022779Y023662
X021779Y023662
X019350Y023671
X018350Y023671
X018850Y024671
X019850Y024671
X022279Y024662
X023279Y024662
X025727Y024645
X026727Y024645
X029238Y024655
X030238Y024655
X032709Y024648
X033709Y024648
X036337Y024658
X037337Y024658
X036837Y023658
X035837Y023658
X033209Y026797
X032209Y026797
X029738Y026804
X028738Y026804
X026227Y026794
X025227Y026794
X022779Y026811
X021779Y026811
X019350Y026820
X018350Y026820
X018850Y027820
X019850Y027820
X022279Y027811
X023279Y027811
X025727Y027794
X026727Y027794
X029238Y027804
X030238Y027804
X032709Y027797
X033709Y027797
X036337Y027807
X037337Y027807
X036837Y026807
X035837Y026807
X033209Y029946
X032209Y029946
X029738Y029953
X028738Y029953
X026227Y029943
X025227Y029943
X022779Y029960
X021779Y029960
X019350Y029969
X018350Y029969
X018850Y030969
X019850Y030969
X022279Y030960
X023279Y030960
X025727Y030943
X026727Y030943
X029238Y030953
X030238Y030953
X032709Y030946
X033709Y030946
X036337Y030956
X037337Y030956
X036837Y029956
X035837Y029956
X033209Y033095
X032209Y033095
X029738Y033102
X028738Y033102
X026227Y033092
X025227Y033092
X022779Y033109
X021779Y033109
X019350Y033118
X018350Y033118
X018850Y034118
X019850Y034118
X022279Y034109
X023279Y034109
X025727Y034092
X026727Y034092
X029238Y034102
X030238Y034102
X032709Y034095
X033709Y034095
X036337Y034105
X037337Y034105
X036837Y033105
X035837Y033105
T04C0.041350
X008650Y001700
X008650Y002700
X008650Y003700
X008650Y004700
X008650Y005700
X008650Y006700
X008650Y007700
X008650Y008700
X008650Y009700
X008650Y010700
X008650Y011700
X008650Y012700
X008650Y013700
X008650Y014700
X008650Y015700
X008650Y016700
X008650Y017700
X008650Y018700
X008650Y019700
X008650Y020700
X008650Y021700
X017587Y001700
X017587Y002700
X017587Y003700
X017587Y004700
X017587Y005700
X017587Y006700
X017587Y007700
X017587Y008700
X017587Y009700
X017587Y010700
X017587Y011700
X017587Y012700
X017587Y013700
X017587Y014700
X017587Y015700
X017587Y016700
X017587Y017700
X017587Y018700
X017587Y019700
X017587Y020700
X017587Y021700
X026524Y001700
X026524Y002700
X026524Y003700
X026524Y004700
X026524Y005700
X026524Y006700
X026524Y007700
X026524Y008700
X026524Y009700
X026524Y010700
X026524Y011700
X026524Y012700
X026524Y013700
X026524Y014700
X026524Y015700
X026524Y016700
X026524Y017700
X026524Y018700
X026524Y019700
X026524Y020700
X026524Y021700
X035461Y001700
X035461Y002700
X035461Y003700
X035461Y004700
X035461Y005700
X035461Y006700
X035461Y007700
X035461Y008700
X035461Y009700
X035461Y010700
X035461Y011700
X035461Y012700
X035461Y013700
X035461Y014700
X035461Y015700
X035461Y016700
X035461Y017700
X035461Y018700
X035461Y019700
X035461Y020700
X035461Y021700
X002280Y024427
X002280Y023427
X003280Y023427
X003280Y024427
X009167Y024427
X009167Y023427
X010167Y023427
X010167Y024427
X016231Y023641
X015231Y023641
X015231Y024641
X016231Y024641
X016231Y026790
X015231Y026790
X015231Y027790
X016231Y027790
X016231Y029939
X015231Y029939
X015231Y030939
X016231Y030939
X016231Y033088
X015231Y033088
X015231Y034088
X016231Y034088
T05C0.047200
X003970Y016370
X003970Y015370
X002970Y015370
X002970Y016370
X012907Y016370
X012907Y015370
X011907Y015370
X011907Y016370
X021844Y016370
X021844Y015370
X020844Y015370
X020844Y016370
X030781Y016370
X030781Y015370
X029781Y015370
X029781Y016370
T06C0.059100
X007220Y020889
X016157Y020889
X025094Y020889
X034031Y020889
X004371Y024378
X004371Y028548
X004371Y031828
X001959Y027597
X011258Y024378
X011258Y028548
X011258Y031828
X008846Y027597
X017841Y024392
X021269Y024383
X024718Y024366
X028228Y024376
X031699Y024369
X035328Y024379
X017841Y027541
X021269Y027532
X024718Y027515
X028228Y027525
X031699Y027518
X035328Y027528
X017841Y030690
X021269Y030681
X024718Y030664
X028228Y030674
X031699Y030667
X035328Y030677
X017841Y033839
X021269Y033830
X024718Y033813
X028228Y033823
X031699Y033816
X035328Y033826
T07C0.106300
X003250Y021100
X003250Y002300
X012187Y021100
X012187Y002300
X021124Y021100
X021124Y002300
X030061Y021100
X030061Y002300
X002180Y031547
X009067Y031547
M30
