G75*
G70*
%OFA0B0*%
%FSLAX25Y25*%
%IPPOS*%
%LPD*%
%AMOC8*
5,1,8,0,0,1.08239X$1,22.5*
%
%ADD11C,0.06900*%
%ADD21C,0.07800*%
%ADD22C,0.06310*%
%ADD25C,0.05520*%
%ADD26C,0.01000*%
%ADD28C,0.05940*%
%ADD36R,0.04730X0.04340*%
%ADD37R,0.04400X0.04300*%
%ADD41C,0.07400*%
%ADD43C,0.05160*%
%ADD53R,0.04340X0.04730*%
%ADD54C,0.05130*%
%ADD56C,0.06340*%
%ADD57C,0.11430*%
%ADD59C,0.06710*%
%ADD64C,0.04730*%
%ADD65C,0.00000*%
%ADD70C,0.07300*%
%ADD71R,0.02000X0.03000*%
X0010000Y0012000D02*
G75*
%LPD*%
D65*
X0091500Y0012000D02*
X0010000Y0012000D01*
X0010000Y0222000D01*
X0091500Y0222000D01*
X0091500Y0012000D01*
X0039700Y0151340D02*
X0039400Y0151360D01*
X0039100Y0151420D01*
X0038810Y0151510D01*
X0038540Y0151640D01*
X0038290Y0151810D01*
X0038060Y0152000D01*
X0037850Y0152230D01*
X0037680Y0152480D01*
X0037540Y0152740D01*
X0037440Y0153030D01*
X0037370Y0153320D01*
X0037340Y0153620D01*
X0037350Y0153930D01*
X0037400Y0154230D01*
X0037490Y0154520D01*
X0037610Y0154790D01*
X0037760Y0155050D01*
X0037950Y0155290D01*
X0038170Y0155500D01*
X0038410Y0155680D01*
X0038680Y0155830D01*
X0038960Y0155940D01*
X0039250Y0156020D01*
X0039550Y0156060D01*
X0039850Y0156060D01*
X0040150Y0156020D01*
X0040440Y0155940D01*
X0040720Y0155830D01*
X0040990Y0155680D01*
X0041230Y0155500D01*
X0041450Y0155290D01*
X0041640Y0155050D01*
X0041790Y0154790D01*
X0041910Y0154520D01*
X0042000Y0154230D01*
X0042050Y0153930D01*
X0042060Y0153620D01*
X0042030Y0153320D01*
X0041960Y0153030D01*
X0041860Y0152740D01*
X0041720Y0152480D01*
X0041550Y0152230D01*
X0041340Y0152000D01*
X0041110Y0151810D01*
X0040860Y0151640D01*
X0040590Y0151510D01*
X0040300Y0151420D01*
X0040000Y0151360D01*
X0039700Y0151340D01*
X0039700Y0161340D02*
X0039400Y0161360D01*
X0039100Y0161420D01*
X0038810Y0161510D01*
X0038540Y0161640D01*
X0038290Y0161810D01*
X0038060Y0162000D01*
X0037850Y0162230D01*
X0037680Y0162480D01*
X0037540Y0162740D01*
X0037440Y0163030D01*
X0037370Y0163320D01*
X0037340Y0163620D01*
X0037350Y0163930D01*
X0037400Y0164230D01*
X0037490Y0164520D01*
X0037610Y0164790D01*
X0037760Y0165050D01*
X0037950Y0165290D01*
X0038170Y0165500D01*
X0038410Y0165680D01*
X0038680Y0165830D01*
X0038960Y0165940D01*
X0039250Y0166020D01*
X0039550Y0166060D01*
X0039850Y0166060D01*
X0040150Y0166020D01*
X0040440Y0165940D01*
X0040720Y0165830D01*
X0040990Y0165680D01*
X0041230Y0165500D01*
X0041450Y0165290D01*
X0041640Y0165050D01*
X0041790Y0164790D01*
X0041910Y0164520D01*
X0042000Y0164230D01*
X0042050Y0163930D01*
X0042060Y0163620D01*
X0042030Y0163320D01*
X0041960Y0163030D01*
X0041860Y0162740D01*
X0041720Y0162480D01*
X0041550Y0162230D01*
X0041340Y0162000D01*
X0041110Y0161810D01*
X0040860Y0161640D01*
X0040590Y0161510D01*
X0040300Y0161420D01*
X0040000Y0161360D01*
X0039700Y0161340D01*
X0029700Y0161340D02*
X0029400Y0161360D01*
X0029100Y0161420D01*
X0028810Y0161510D01*
X0028540Y0161640D01*
X0028290Y0161810D01*
X0028060Y0162000D01*
X0027850Y0162230D01*
X0027680Y0162480D01*
X0027540Y0162740D01*
X0027440Y0163030D01*
X0027370Y0163320D01*
X0027340Y0163620D01*
X0027350Y0163930D01*
X0027400Y0164230D01*
X0027490Y0164520D01*
X0027610Y0164790D01*
X0027760Y0165050D01*
X0027950Y0165290D01*
X0028170Y0165500D01*
X0028410Y0165680D01*
X0028680Y0165830D01*
X0028960Y0165940D01*
X0029250Y0166020D01*
X0029550Y0166060D01*
X0029850Y0166060D01*
X0030150Y0166020D01*
X0030440Y0165940D01*
X0030720Y0165830D01*
X0030990Y0165680D01*
X0031230Y0165500D01*
X0031450Y0165290D01*
X0031640Y0165050D01*
X0031790Y0164790D01*
X0031910Y0164520D01*
X0032000Y0164230D01*
X0032050Y0163930D01*
X0032060Y0163620D01*
X0032030Y0163320D01*
X0031960Y0163030D01*
X0031860Y0162740D01*
X0031720Y0162480D01*
X0031550Y0162230D01*
X0031340Y0162000D01*
X0031110Y0161810D01*
X0030860Y0161640D01*
X0030590Y0161510D01*
X0030300Y0161420D01*
X0030000Y0161360D01*
X0029700Y0161340D01*
X0029700Y0151340D02*
X0029400Y0151360D01*
X0029100Y0151420D01*
X0028810Y0151510D01*
X0028540Y0151640D01*
X0028290Y0151810D01*
X0028060Y0152000D01*
X0027850Y0152230D01*
X0027680Y0152480D01*
X0027540Y0152740D01*
X0027440Y0153030D01*
X0027370Y0153320D01*
X0027340Y0153620D01*
X0027350Y0153930D01*
X0027400Y0154230D01*
X0027490Y0154520D01*
X0027610Y0154790D01*
X0027760Y0155050D01*
X0027950Y0155290D01*
X0028170Y0155500D01*
X0028410Y0155680D01*
X0028680Y0155830D01*
X0028960Y0155940D01*
X0029250Y0156020D01*
X0029550Y0156060D01*
X0029850Y0156060D01*
X0030150Y0156020D01*
X0030440Y0155940D01*
X0030720Y0155830D01*
X0030990Y0155680D01*
X0031230Y0155500D01*
X0031450Y0155290D01*
X0031640Y0155050D01*
X0031790Y0154790D01*
X0031910Y0154520D01*
X0032000Y0154230D01*
X0032050Y0153930D01*
X0032060Y0153620D01*
X0032030Y0153320D01*
X0031960Y0153030D01*
X0031860Y0152740D01*
X0031720Y0152480D01*
X0031550Y0152230D01*
X0031340Y0152000D01*
X0031110Y0151810D01*
X0030860Y0151640D01*
X0030590Y0151510D01*
X0030300Y0151420D01*
X0030000Y0151360D01*
X0029700Y0151340D01*
X0032500Y0205690D02*
X0032040Y0205710D01*
X0031590Y0205770D01*
X0031140Y0205870D01*
X0030710Y0206000D01*
X0030280Y0206170D01*
X0029880Y0206380D01*
X0029490Y0206620D01*
X0029130Y0206900D01*
X0028790Y0207210D01*
X0028470Y0207540D01*
X0028190Y0207900D01*
X0027940Y0208280D01*
X0027720Y0208680D01*
X0027540Y0209100D01*
X0027400Y0209530D01*
X0027290Y0209980D01*
X0027220Y0210430D01*
X0027190Y0210890D01*
X0027200Y0211340D01*
X0027250Y0211800D01*
X0027340Y0212250D01*
X0027460Y0212680D01*
X0027630Y0213110D01*
X0027830Y0213520D01*
X0028060Y0213910D01*
X0028330Y0214290D01*
X0028630Y0214630D01*
X0028950Y0214950D01*
X0029310Y0215240D01*
X0029680Y0215500D01*
X0030080Y0215730D01*
X0030490Y0215920D01*
X0030920Y0216070D01*
X0031370Y0216190D01*
X0031820Y0216270D01*
X0032270Y0216310D01*
X0032730Y0216310D01*
X0033180Y0216270D01*
X0033630Y0216190D01*
X0034080Y0216070D01*
X0034510Y0215920D01*
X0034920Y0215730D01*
X0035320Y0215500D01*
X0035690Y0215240D01*
X0036050Y0214950D01*
X0036370Y0214630D01*
X0036670Y0214290D01*
X0036940Y0213910D01*
X0037170Y0213520D01*
X0037370Y0213110D01*
X0037540Y0212680D01*
X0037660Y0212250D01*
X0037750Y0211800D01*
X0037800Y0211340D01*
X0037810Y0210890D01*
X0037780Y0210430D01*
X0037710Y0209980D01*
X0037600Y0209530D01*
X0037460Y0209100D01*
X0037280Y0208680D01*
X0037060Y0208280D01*
X0036810Y0207900D01*
X0036530Y0207540D01*
X0036210Y0207210D01*
X0035870Y0206900D01*
X0035510Y0206620D01*
X0035120Y0206380D01*
X0034720Y0206170D01*
X0034290Y0206000D01*
X0033860Y0205870D01*
X0033410Y0205770D01*
X0032960Y0205710D01*
X0032500Y0205690D01*
X0072200Y0205940D02*
X0071860Y0205960D01*
X0071520Y0206020D01*
X0071190Y0206120D01*
X0070880Y0206250D01*
X0070580Y0206430D01*
X0070300Y0206630D01*
X0070050Y0206870D01*
X0069830Y0207130D01*
X0069650Y0207410D01*
X0069490Y0207720D01*
X0069370Y0208040D01*
X0069290Y0208380D01*
X0069250Y0208720D01*
X0069250Y0209060D01*
X0069290Y0209400D01*
X0069370Y0209740D01*
X0069490Y0210060D01*
X0069650Y0210360D01*
X0069830Y0210650D01*
X0070050Y0210910D01*
X0070300Y0211150D01*
X0070580Y0211350D01*
X0070880Y0211530D01*
X0071190Y0211660D01*
X0071520Y0211760D01*
X0071860Y0211820D01*
X0072200Y0211840D01*
X0072540Y0211820D01*
X0072880Y0211760D01*
X0073210Y0211660D01*
X0073520Y0211530D01*
X0073820Y0211350D01*
X0074100Y0211150D01*
X0074350Y0210910D01*
X0074570Y0210650D01*
X0074750Y0210370D01*
X0074910Y0210060D01*
X0075030Y0209740D01*
X0075110Y0209400D01*
X0075150Y0209060D01*
X0075150Y0208720D01*
X0075110Y0208380D01*
X0075030Y0208040D01*
X0074910Y0207720D01*
X0074750Y0207410D01*
X0074570Y0207130D01*
X0074350Y0206870D01*
X0074100Y0206630D01*
X0073820Y0206430D01*
X0073520Y0206250D01*
X0073210Y0206120D01*
X0072880Y0206020D01*
X0072540Y0205960D01*
X0072200Y0205940D01*
X0032500Y0017690D02*
X0032040Y0017710D01*
X0031590Y0017770D01*
X0031140Y0017870D01*
X0030710Y0018000D01*
X0030280Y0018170D01*
X0029880Y0018380D01*
X0029490Y0018620D01*
X0029130Y0018900D01*
X0028790Y0019210D01*
X0028470Y0019540D01*
X0028190Y0019900D01*
X0027940Y0020280D01*
X0027720Y0020680D01*
X0027540Y0021100D01*
X0027400Y0021530D01*
X0027290Y0021980D01*
X0027220Y0022430D01*
X0027190Y0022890D01*
X0027200Y0023340D01*
X0027250Y0023800D01*
X0027340Y0024250D01*
X0027460Y0024680D01*
X0027630Y0025110D01*
X0027830Y0025520D01*
X0028060Y0025910D01*
X0028330Y0026290D01*
X0028630Y0026630D01*
X0028950Y0026950D01*
X0029310Y0027240D01*
X0029680Y0027500D01*
X0030080Y0027730D01*
X0030490Y0027920D01*
X0030920Y0028070D01*
X0031370Y0028190D01*
X0031820Y0028270D01*
X0032270Y0028310D01*
X0032730Y0028310D01*
X0033180Y0028270D01*
X0033630Y0028190D01*
X0034080Y0028070D01*
X0034510Y0027920D01*
X0034920Y0027730D01*
X0035320Y0027500D01*
X0035690Y0027240D01*
X0036050Y0026950D01*
X0036370Y0026630D01*
X0036670Y0026290D01*
X0036940Y0025910D01*
X0037170Y0025520D01*
X0037370Y0025110D01*
X0037540Y0024680D01*
X0037660Y0024250D01*
X0037750Y0023800D01*
X0037800Y0023340D01*
X0037810Y0022890D01*
X0037780Y0022430D01*
X0037710Y0021980D01*
X0037600Y0021530D01*
X0037460Y0021100D01*
X0037280Y0020680D01*
X0037060Y0020280D01*
X0036810Y0019900D01*
X0036530Y0019540D01*
X0036210Y0019210D01*
X0035870Y0018900D01*
X0035510Y0018620D01*
X0035120Y0018380D01*
X0034720Y0018170D01*
X0034290Y0018000D01*
X0033860Y0017870D01*
X0033410Y0017770D01*
X0032960Y0017710D01*
X0032500Y0017690D01*
D57*
X0032500Y0023000D03*
X0032500Y0211000D03*
D71*
X0030000Y0071500D03*
X0030000Y0061500D03*
X0030000Y0051500D03*
X0020000Y0051500D03*
X0020000Y0061500D03*
X0020000Y0071500D03*
X0040000Y0071500D03*
X0040000Y0061500D03*
X0040000Y0051500D03*
X0050000Y0051500D03*
X0050000Y0061500D03*
X0050000Y0071500D03*
X0060000Y0071500D03*
X0060000Y0061500D03*
X0060000Y0051500D03*
X0060000Y0031500D03*
X0060000Y0021500D03*
X0070000Y0021500D03*
X0070000Y0031500D03*
X0070000Y0051500D03*
X0070000Y0061500D03*
X0070000Y0071500D03*
X0050000Y0031500D03*
X0050000Y0021500D03*
D21*
X0086500Y0017000D03*
X0086500Y0027000D03*
X0086500Y0037000D03*
X0086500Y0047000D03*
X0086500Y0057000D03*
X0086500Y0067000D03*
X0086500Y0077000D03*
X0086500Y0087000D03*
X0086500Y0097000D03*
X0086500Y0107000D03*
X0086500Y0117000D03*
X0086500Y0127000D03*
X0086500Y0137000D03*
X0086500Y0147000D03*
X0086500Y0157000D03*
X0086500Y0167000D03*
X0086500Y0177000D03*
X0086500Y0187000D03*
X0086500Y0197000D03*
X0086500Y0207000D03*
X0086500Y0217000D03*
D25*
X0039700Y0163700D03*
X0039700Y0153700D03*
X0029700Y0153700D03*
X0029700Y0163700D03*
D43*
X0029700Y0103700D03*
X0029700Y0093700D03*
X0039700Y0093700D03*
X0039700Y0103700D03*
X0049700Y0103700D03*
X0049700Y0093700D03*
D56*
X0052100Y0206100D03*
X0057100Y0216100D03*
X0062100Y0206100D03*
X0067100Y0216100D03*
D59*
X0072200Y0208890D03*
D41*
X0070000Y0076500D03*
X0070000Y0066500D03*
X0070000Y0056500D03*
X0070000Y0046500D03*
X0070000Y0036500D03*
X0070000Y0026500D03*
X0070000Y0016500D03*
X0060000Y0016500D03*
X0060000Y0026500D03*
X0060000Y0036500D03*
X0060000Y0046500D03*
X0060000Y0056500D03*
X0060000Y0066500D03*
X0060000Y0076500D03*
X0050000Y0076500D03*
X0050000Y0066500D03*
X0050000Y0056500D03*
X0050000Y0046500D03*
X0050000Y0036500D03*
X0050000Y0026500D03*
X0050000Y0016500D03*
X0040000Y0046500D03*
X0040000Y0056500D03*
X0040000Y0066500D03*
X0040000Y0076500D03*
X0030000Y0076500D03*
X0030000Y0066500D03*
X0030000Y0056500D03*
X0030000Y0046500D03*
X0020000Y0046500D03*
X0020000Y0056500D03*
X0020000Y0066500D03*
X0020000Y0076500D03*
X0099370Y0012000D02*
G75*
%LPD*%
D65*
X0180870Y0012000D02*
X0099370Y0012000D01*
X0099370Y0222000D01*
X0180870Y0222000D01*
X0180870Y0012000D01*
X0129070Y0151340D02*
X0128770Y0151360D01*
X0128470Y0151420D01*
X0128180Y0151510D01*
X0127910Y0151640D01*
X0127660Y0151810D01*
X0127430Y0152000D01*
X0127220Y0152230D01*
X0127050Y0152480D01*
X0126910Y0152740D01*
X0126810Y0153030D01*
X0126740Y0153320D01*
X0126710Y0153620D01*
X0126720Y0153930D01*
X0126770Y0154230D01*
X0126860Y0154520D01*
X0126980Y0154790D01*
X0127130Y0155050D01*
X0127320Y0155290D01*
X0127540Y0155500D01*
X0127780Y0155680D01*
X0128050Y0155830D01*
X0128330Y0155940D01*
X0128620Y0156020D01*
X0128920Y0156060D01*
X0129220Y0156060D01*
X0129520Y0156020D01*
X0129810Y0155940D01*
X0130090Y0155830D01*
X0130360Y0155680D01*
X0130600Y0155500D01*
X0130820Y0155290D01*
X0131010Y0155050D01*
X0131160Y0154790D01*
X0131280Y0154520D01*
X0131370Y0154230D01*
X0131420Y0153930D01*
X0131430Y0153620D01*
X0131400Y0153320D01*
X0131330Y0153030D01*
X0131230Y0152740D01*
X0131090Y0152480D01*
X0130920Y0152230D01*
X0130710Y0152000D01*
X0130480Y0151810D01*
X0130230Y0151640D01*
X0129960Y0151510D01*
X0129670Y0151420D01*
X0129370Y0151360D01*
X0129070Y0151340D01*
X0129070Y0161340D02*
X0128770Y0161360D01*
X0128470Y0161420D01*
X0128180Y0161510D01*
X0127910Y0161640D01*
X0127660Y0161810D01*
X0127430Y0162000D01*
X0127220Y0162230D01*
X0127050Y0162480D01*
X0126910Y0162740D01*
X0126810Y0163030D01*
X0126740Y0163320D01*
X0126710Y0163620D01*
X0126720Y0163930D01*
X0126770Y0164230D01*
X0126860Y0164520D01*
X0126980Y0164790D01*
X0127130Y0165050D01*
X0127320Y0165290D01*
X0127540Y0165500D01*
X0127780Y0165680D01*
X0128050Y0165830D01*
X0128330Y0165940D01*
X0128620Y0166020D01*
X0128920Y0166060D01*
X0129220Y0166060D01*
X0129520Y0166020D01*
X0129810Y0165940D01*
X0130090Y0165830D01*
X0130360Y0165680D01*
X0130600Y0165500D01*
X0130820Y0165290D01*
X0131010Y0165050D01*
X0131160Y0164790D01*
X0131280Y0164520D01*
X0131370Y0164230D01*
X0131420Y0163930D01*
X0131430Y0163620D01*
X0131400Y0163320D01*
X0131330Y0163030D01*
X0131230Y0162740D01*
X0131090Y0162480D01*
X0130920Y0162230D01*
X0130710Y0162000D01*
X0130480Y0161810D01*
X0130230Y0161640D01*
X0129960Y0161510D01*
X0129670Y0161420D01*
X0129370Y0161360D01*
X0129070Y0161340D01*
X0119070Y0161340D02*
X0118770Y0161360D01*
X0118470Y0161420D01*
X0118180Y0161510D01*
X0117910Y0161640D01*
X0117660Y0161810D01*
X0117430Y0162000D01*
X0117220Y0162230D01*
X0117050Y0162480D01*
X0116910Y0162740D01*
X0116810Y0163030D01*
X0116740Y0163320D01*
X0116710Y0163620D01*
X0116720Y0163930D01*
X0116770Y0164230D01*
X0116860Y0164520D01*
X0116980Y0164790D01*
X0117130Y0165050D01*
X0117320Y0165290D01*
X0117540Y0165500D01*
X0117780Y0165680D01*
X0118050Y0165830D01*
X0118330Y0165940D01*
X0118620Y0166020D01*
X0118920Y0166060D01*
X0119220Y0166060D01*
X0119520Y0166020D01*
X0119810Y0165940D01*
X0120090Y0165830D01*
X0120360Y0165680D01*
X0120600Y0165500D01*
X0120820Y0165290D01*
X0121010Y0165050D01*
X0121160Y0164790D01*
X0121280Y0164520D01*
X0121370Y0164230D01*
X0121420Y0163930D01*
X0121430Y0163620D01*
X0121400Y0163320D01*
X0121330Y0163030D01*
X0121230Y0162740D01*
X0121090Y0162480D01*
X0120920Y0162230D01*
X0120710Y0162000D01*
X0120480Y0161810D01*
X0120230Y0161640D01*
X0119960Y0161510D01*
X0119670Y0161420D01*
X0119370Y0161360D01*
X0119070Y0161340D01*
X0119070Y0151340D02*
X0118770Y0151360D01*
X0118470Y0151420D01*
X0118180Y0151510D01*
X0117910Y0151640D01*
X0117660Y0151810D01*
X0117430Y0152000D01*
X0117220Y0152230D01*
X0117050Y0152480D01*
X0116910Y0152740D01*
X0116810Y0153030D01*
X0116740Y0153320D01*
X0116710Y0153620D01*
X0116720Y0153930D01*
X0116770Y0154230D01*
X0116860Y0154520D01*
X0116980Y0154790D01*
X0117130Y0155050D01*
X0117320Y0155290D01*
X0117540Y0155500D01*
X0117780Y0155680D01*
X0118050Y0155830D01*
X0118330Y0155940D01*
X0118620Y0156020D01*
X0118920Y0156060D01*
X0119220Y0156060D01*
X0119520Y0156020D01*
X0119810Y0155940D01*
X0120090Y0155830D01*
X0120360Y0155680D01*
X0120600Y0155500D01*
X0120820Y0155290D01*
X0121010Y0155050D01*
X0121160Y0154790D01*
X0121280Y0154520D01*
X0121370Y0154230D01*
X0121420Y0153930D01*
X0121430Y0153620D01*
X0121400Y0153320D01*
X0121330Y0153030D01*
X0121230Y0152740D01*
X0121090Y0152480D01*
X0120920Y0152230D01*
X0120710Y0152000D01*
X0120480Y0151810D01*
X0120230Y0151640D01*
X0119960Y0151510D01*
X0119670Y0151420D01*
X0119370Y0151360D01*
X0119070Y0151340D01*
X0121870Y0205690D02*
X0121410Y0205710D01*
X0120960Y0205770D01*
X0120510Y0205870D01*
X0120080Y0206000D01*
X0119650Y0206170D01*
X0119250Y0206380D01*
X0118860Y0206620D01*
X0118500Y0206900D01*
X0118160Y0207210D01*
X0117840Y0207540D01*
X0117560Y0207900D01*
X0117310Y0208280D01*
X0117090Y0208680D01*
X0116910Y0209100D01*
X0116770Y0209530D01*
X0116660Y0209980D01*
X0116590Y0210430D01*
X0116560Y0210890D01*
X0116570Y0211340D01*
X0116620Y0211800D01*
X0116710Y0212250D01*
X0116830Y0212680D01*
X0117000Y0213110D01*
X0117200Y0213520D01*
X0117430Y0213910D01*
X0117700Y0214290D01*
X0118000Y0214630D01*
X0118320Y0214950D01*
X0118680Y0215240D01*
X0119050Y0215500D01*
X0119450Y0215730D01*
X0119860Y0215920D01*
X0120290Y0216070D01*
X0120740Y0216190D01*
X0121190Y0216270D01*
X0121640Y0216310D01*
X0122100Y0216310D01*
X0122550Y0216270D01*
X0123000Y0216190D01*
X0123450Y0216070D01*
X0123880Y0215920D01*
X0124290Y0215730D01*
X0124690Y0215500D01*
X0125060Y0215240D01*
X0125420Y0214950D01*
X0125740Y0214630D01*
X0126040Y0214290D01*
X0126310Y0213910D01*
X0126540Y0213520D01*
X0126740Y0213110D01*
X0126910Y0212680D01*
X0127030Y0212250D01*
X0127120Y0211800D01*
X0127170Y0211340D01*
X0127180Y0210890D01*
X0127150Y0210430D01*
X0127080Y0209980D01*
X0126970Y0209530D01*
X0126830Y0209100D01*
X0126650Y0208680D01*
X0126430Y0208280D01*
X0126180Y0207900D01*
X0125900Y0207540D01*
X0125580Y0207210D01*
X0125240Y0206900D01*
X0124880Y0206620D01*
X0124490Y0206380D01*
X0124090Y0206170D01*
X0123660Y0206000D01*
X0123230Y0205870D01*
X0122780Y0205770D01*
X0122330Y0205710D01*
X0121870Y0205690D01*
X0161570Y0205940D02*
X0161230Y0205960D01*
X0160890Y0206020D01*
X0160560Y0206120D01*
X0160250Y0206250D01*
X0159950Y0206430D01*
X0159670Y0206630D01*
X0159420Y0206870D01*
X0159200Y0207130D01*
X0159020Y0207410D01*
X0158860Y0207720D01*
X0158740Y0208040D01*
X0158660Y0208380D01*
X0158620Y0208720D01*
X0158620Y0209060D01*
X0158660Y0209400D01*
X0158740Y0209740D01*
X0158860Y0210060D01*
X0159020Y0210360D01*
X0159200Y0210650D01*
X0159420Y0210910D01*
X0159670Y0211150D01*
X0159950Y0211350D01*
X0160250Y0211530D01*
X0160560Y0211660D01*
X0160890Y0211760D01*
X0161230Y0211820D01*
X0161570Y0211840D01*
X0161910Y0211820D01*
X0162250Y0211760D01*
X0162580Y0211660D01*
X0162890Y0211530D01*
X0163190Y0211350D01*
X0163470Y0211150D01*
X0163720Y0210910D01*
X0163940Y0210650D01*
X0164120Y0210370D01*
X0164280Y0210060D01*
X0164400Y0209740D01*
X0164480Y0209400D01*
X0164520Y0209060D01*
X0164520Y0208720D01*
X0164480Y0208380D01*
X0164400Y0208040D01*
X0164280Y0207720D01*
X0164120Y0207410D01*
X0163940Y0207130D01*
X0163720Y0206870D01*
X0163470Y0206630D01*
X0163190Y0206430D01*
X0162890Y0206250D01*
X0162580Y0206120D01*
X0162250Y0206020D01*
X0161910Y0205960D01*
X0161570Y0205940D01*
X0121870Y0017690D02*
X0121410Y0017710D01*
X0120960Y0017770D01*
X0120510Y0017870D01*
X0120080Y0018000D01*
X0119650Y0018170D01*
X0119250Y0018380D01*
X0118860Y0018620D01*
X0118500Y0018900D01*
X0118160Y0019210D01*
X0117840Y0019540D01*
X0117560Y0019900D01*
X0117310Y0020280D01*
X0117090Y0020680D01*
X0116910Y0021100D01*
X0116770Y0021530D01*
X0116660Y0021980D01*
X0116590Y0022430D01*
X0116560Y0022890D01*
X0116570Y0023340D01*
X0116620Y0023800D01*
X0116710Y0024250D01*
X0116830Y0024680D01*
X0117000Y0025110D01*
X0117200Y0025520D01*
X0117430Y0025910D01*
X0117700Y0026290D01*
X0118000Y0026630D01*
X0118320Y0026950D01*
X0118680Y0027240D01*
X0119050Y0027500D01*
X0119450Y0027730D01*
X0119860Y0027920D01*
X0120290Y0028070D01*
X0120740Y0028190D01*
X0121190Y0028270D01*
X0121640Y0028310D01*
X0122100Y0028310D01*
X0122550Y0028270D01*
X0123000Y0028190D01*
X0123450Y0028070D01*
X0123880Y0027920D01*
X0124290Y0027730D01*
X0124690Y0027500D01*
X0125060Y0027240D01*
X0125420Y0026950D01*
X0125740Y0026630D01*
X0126040Y0026290D01*
X0126310Y0025910D01*
X0126540Y0025520D01*
X0126740Y0025110D01*
X0126910Y0024680D01*
X0127030Y0024250D01*
X0127120Y0023800D01*
X0127170Y0023340D01*
X0127180Y0022890D01*
X0127150Y0022430D01*
X0127080Y0021980D01*
X0126970Y0021530D01*
X0126830Y0021100D01*
X0126650Y0020680D01*
X0126430Y0020280D01*
X0126180Y0019900D01*
X0125900Y0019540D01*
X0125580Y0019210D01*
X0125240Y0018900D01*
X0124880Y0018620D01*
X0124490Y0018380D01*
X0124090Y0018170D01*
X0123660Y0018000D01*
X0123230Y0017870D01*
X0122780Y0017770D01*
X0122330Y0017710D01*
X0121870Y0017690D01*
D57*
X0121870Y0023000D03*
X0121870Y0211000D03*
D71*
X0119370Y0071500D03*
X0119370Y0061500D03*
X0119370Y0051500D03*
X0109370Y0051500D03*
X0109370Y0061500D03*
X0109370Y0071500D03*
X0129370Y0071500D03*
X0129370Y0061500D03*
X0129370Y0051500D03*
X0139370Y0051500D03*
X0139370Y0061500D03*
X0139370Y0071500D03*
X0149370Y0071500D03*
X0149370Y0061500D03*
X0149370Y0051500D03*
X0149370Y0031500D03*
X0149370Y0021500D03*
X0159370Y0021500D03*
X0159370Y0031500D03*
X0159370Y0051500D03*
X0159370Y0061500D03*
X0159370Y0071500D03*
X0139370Y0031500D03*
X0139370Y0021500D03*
D21*
X0175870Y0017000D03*
X0175870Y0027000D03*
X0175870Y0037000D03*
X0175870Y0047000D03*
X0175870Y0057000D03*
X0175870Y0067000D03*
X0175870Y0077000D03*
X0175870Y0087000D03*
X0175870Y0097000D03*
X0175870Y0107000D03*
X0175870Y0117000D03*
X0175870Y0127000D03*
X0175870Y0137000D03*
X0175870Y0147000D03*
X0175870Y0157000D03*
X0175870Y0167000D03*
X0175870Y0177000D03*
X0175870Y0187000D03*
X0175870Y0197000D03*
X0175870Y0207000D03*
X0175870Y0217000D03*
D25*
X0129070Y0163700D03*
X0129070Y0153700D03*
X0119070Y0153700D03*
X0119070Y0163700D03*
D43*
X0119070Y0103700D03*
X0119070Y0093700D03*
X0129070Y0093700D03*
X0129070Y0103700D03*
X0139070Y0103700D03*
X0139070Y0093700D03*
D56*
X0141470Y0206100D03*
X0146470Y0216100D03*
X0151470Y0206100D03*
X0156470Y0216100D03*
D59*
X0161570Y0208890D03*
D41*
X0159370Y0076500D03*
X0159370Y0066500D03*
X0159370Y0056500D03*
X0159370Y0046500D03*
X0159370Y0036500D03*
X0159370Y0026500D03*
X0159370Y0016500D03*
X0149370Y0016500D03*
X0149370Y0026500D03*
X0149370Y0036500D03*
X0149370Y0046500D03*
X0149370Y0056500D03*
X0149370Y0066500D03*
X0149370Y0076500D03*
X0139370Y0076500D03*
X0139370Y0066500D03*
X0139370Y0056500D03*
X0139370Y0046500D03*
X0139370Y0036500D03*
X0139370Y0026500D03*
X0139370Y0016500D03*
X0129370Y0046500D03*
X0129370Y0056500D03*
X0129370Y0066500D03*
X0129370Y0076500D03*
X0119370Y0076500D03*
X0119370Y0066500D03*
X0119370Y0056500D03*
X0119370Y0046500D03*
X0109370Y0046500D03*
X0109370Y0056500D03*
X0109370Y0066500D03*
X0109370Y0076500D03*
X0188740Y0012000D02*
G75*
%LPD*%
D65*
X0270240Y0012000D02*
X0188740Y0012000D01*
X0188740Y0222000D01*
X0270240Y0222000D01*
X0270240Y0012000D01*
X0218440Y0151340D02*
X0218140Y0151360D01*
X0217840Y0151420D01*
X0217550Y0151510D01*
X0217280Y0151640D01*
X0217030Y0151810D01*
X0216800Y0152000D01*
X0216590Y0152230D01*
X0216420Y0152480D01*
X0216280Y0152740D01*
X0216180Y0153030D01*
X0216110Y0153320D01*
X0216080Y0153620D01*
X0216090Y0153930D01*
X0216140Y0154230D01*
X0216230Y0154520D01*
X0216350Y0154790D01*
X0216500Y0155050D01*
X0216690Y0155290D01*
X0216910Y0155500D01*
X0217150Y0155680D01*
X0217420Y0155830D01*
X0217700Y0155940D01*
X0217990Y0156020D01*
X0218290Y0156060D01*
X0218590Y0156060D01*
X0218890Y0156020D01*
X0219180Y0155940D01*
X0219460Y0155830D01*
X0219730Y0155680D01*
X0219970Y0155500D01*
X0220190Y0155290D01*
X0220380Y0155050D01*
X0220530Y0154790D01*
X0220650Y0154520D01*
X0220740Y0154230D01*
X0220790Y0153930D01*
X0220800Y0153620D01*
X0220770Y0153320D01*
X0220700Y0153030D01*
X0220600Y0152740D01*
X0220460Y0152480D01*
X0220290Y0152230D01*
X0220080Y0152000D01*
X0219850Y0151810D01*
X0219600Y0151640D01*
X0219330Y0151510D01*
X0219040Y0151420D01*
X0218740Y0151360D01*
X0218440Y0151340D01*
X0218440Y0161340D02*
X0218140Y0161360D01*
X0217840Y0161420D01*
X0217550Y0161510D01*
X0217280Y0161640D01*
X0217030Y0161810D01*
X0216800Y0162000D01*
X0216590Y0162230D01*
X0216420Y0162480D01*
X0216280Y0162740D01*
X0216180Y0163030D01*
X0216110Y0163320D01*
X0216080Y0163620D01*
X0216090Y0163930D01*
X0216140Y0164230D01*
X0216230Y0164520D01*
X0216350Y0164790D01*
X0216500Y0165050D01*
X0216690Y0165290D01*
X0216910Y0165500D01*
X0217150Y0165680D01*
X0217420Y0165830D01*
X0217700Y0165940D01*
X0217990Y0166020D01*
X0218290Y0166060D01*
X0218590Y0166060D01*
X0218890Y0166020D01*
X0219180Y0165940D01*
X0219460Y0165830D01*
X0219730Y0165680D01*
X0219970Y0165500D01*
X0220190Y0165290D01*
X0220380Y0165050D01*
X0220530Y0164790D01*
X0220650Y0164520D01*
X0220740Y0164230D01*
X0220790Y0163930D01*
X0220800Y0163620D01*
X0220770Y0163320D01*
X0220700Y0163030D01*
X0220600Y0162740D01*
X0220460Y0162480D01*
X0220290Y0162230D01*
X0220080Y0162000D01*
X0219850Y0161810D01*
X0219600Y0161640D01*
X0219330Y0161510D01*
X0219040Y0161420D01*
X0218740Y0161360D01*
X0218440Y0161340D01*
X0208440Y0161340D02*
X0208140Y0161360D01*
X0207840Y0161420D01*
X0207550Y0161510D01*
X0207280Y0161640D01*
X0207030Y0161810D01*
X0206800Y0162000D01*
X0206590Y0162230D01*
X0206420Y0162480D01*
X0206280Y0162740D01*
X0206180Y0163030D01*
X0206110Y0163320D01*
X0206080Y0163620D01*
X0206090Y0163930D01*
X0206140Y0164230D01*
X0206230Y0164520D01*
X0206350Y0164790D01*
X0206500Y0165050D01*
X0206690Y0165290D01*
X0206910Y0165500D01*
X0207150Y0165680D01*
X0207420Y0165830D01*
X0207700Y0165940D01*
X0207990Y0166020D01*
X0208290Y0166060D01*
X0208590Y0166060D01*
X0208890Y0166020D01*
X0209180Y0165940D01*
X0209460Y0165830D01*
X0209730Y0165680D01*
X0209970Y0165500D01*
X0210190Y0165290D01*
X0210380Y0165050D01*
X0210530Y0164790D01*
X0210650Y0164520D01*
X0210740Y0164230D01*
X0210790Y0163930D01*
X0210800Y0163620D01*
X0210770Y0163320D01*
X0210700Y0163030D01*
X0210600Y0162740D01*
X0210460Y0162480D01*
X0210290Y0162230D01*
X0210080Y0162000D01*
X0209850Y0161810D01*
X0209600Y0161640D01*
X0209330Y0161510D01*
X0209040Y0161420D01*
X0208740Y0161360D01*
X0208440Y0161340D01*
X0208440Y0151340D02*
X0208140Y0151360D01*
X0207840Y0151420D01*
X0207550Y0151510D01*
X0207280Y0151640D01*
X0207030Y0151810D01*
X0206800Y0152000D01*
X0206590Y0152230D01*
X0206420Y0152480D01*
X0206280Y0152740D01*
X0206180Y0153030D01*
X0206110Y0153320D01*
X0206080Y0153620D01*
X0206090Y0153930D01*
X0206140Y0154230D01*
X0206230Y0154520D01*
X0206350Y0154790D01*
X0206500Y0155050D01*
X0206690Y0155290D01*
X0206910Y0155500D01*
X0207150Y0155680D01*
X0207420Y0155830D01*
X0207700Y0155940D01*
X0207990Y0156020D01*
X0208290Y0156060D01*
X0208590Y0156060D01*
X0208890Y0156020D01*
X0209180Y0155940D01*
X0209460Y0155830D01*
X0209730Y0155680D01*
X0209970Y0155500D01*
X0210190Y0155290D01*
X0210380Y0155050D01*
X0210530Y0154790D01*
X0210650Y0154520D01*
X0210740Y0154230D01*
X0210790Y0153930D01*
X0210800Y0153620D01*
X0210770Y0153320D01*
X0210700Y0153030D01*
X0210600Y0152740D01*
X0210460Y0152480D01*
X0210290Y0152230D01*
X0210080Y0152000D01*
X0209850Y0151810D01*
X0209600Y0151640D01*
X0209330Y0151510D01*
X0209040Y0151420D01*
X0208740Y0151360D01*
X0208440Y0151340D01*
X0211240Y0205690D02*
X0210780Y0205710D01*
X0210330Y0205770D01*
X0209880Y0205870D01*
X0209450Y0206000D01*
X0209020Y0206170D01*
X0208620Y0206380D01*
X0208230Y0206620D01*
X0207870Y0206900D01*
X0207530Y0207210D01*
X0207210Y0207540D01*
X0206930Y0207900D01*
X0206680Y0208280D01*
X0206460Y0208680D01*
X0206280Y0209100D01*
X0206140Y0209530D01*
X0206030Y0209980D01*
X0205960Y0210430D01*
X0205930Y0210890D01*
X0205940Y0211340D01*
X0205990Y0211800D01*
X0206080Y0212250D01*
X0206200Y0212680D01*
X0206370Y0213110D01*
X0206570Y0213520D01*
X0206800Y0213910D01*
X0207070Y0214290D01*
X0207370Y0214630D01*
X0207690Y0214950D01*
X0208050Y0215240D01*
X0208420Y0215500D01*
X0208820Y0215730D01*
X0209230Y0215920D01*
X0209660Y0216070D01*
X0210110Y0216190D01*
X0210560Y0216270D01*
X0211010Y0216310D01*
X0211470Y0216310D01*
X0211920Y0216270D01*
X0212370Y0216190D01*
X0212820Y0216070D01*
X0213250Y0215920D01*
X0213660Y0215730D01*
X0214060Y0215500D01*
X0214430Y0215240D01*
X0214790Y0214950D01*
X0215110Y0214630D01*
X0215410Y0214290D01*
X0215680Y0213910D01*
X0215910Y0213520D01*
X0216110Y0213110D01*
X0216280Y0212680D01*
X0216400Y0212250D01*
X0216490Y0211800D01*
X0216540Y0211340D01*
X0216550Y0210890D01*
X0216520Y0210430D01*
X0216450Y0209980D01*
X0216340Y0209530D01*
X0216200Y0209100D01*
X0216020Y0208680D01*
X0215800Y0208280D01*
X0215550Y0207900D01*
X0215270Y0207540D01*
X0214950Y0207210D01*
X0214610Y0206900D01*
X0214250Y0206620D01*
X0213860Y0206380D01*
X0213460Y0206170D01*
X0213030Y0206000D01*
X0212600Y0205870D01*
X0212150Y0205770D01*
X0211700Y0205710D01*
X0211240Y0205690D01*
X0250940Y0205940D02*
X0250600Y0205960D01*
X0250260Y0206020D01*
X0249930Y0206120D01*
X0249620Y0206250D01*
X0249320Y0206430D01*
X0249040Y0206630D01*
X0248790Y0206870D01*
X0248570Y0207130D01*
X0248390Y0207410D01*
X0248230Y0207720D01*
X0248110Y0208040D01*
X0248030Y0208380D01*
X0247990Y0208720D01*
X0247990Y0209060D01*
X0248030Y0209400D01*
X0248110Y0209740D01*
X0248230Y0210060D01*
X0248390Y0210360D01*
X0248570Y0210650D01*
X0248790Y0210910D01*
X0249040Y0211150D01*
X0249320Y0211350D01*
X0249620Y0211530D01*
X0249930Y0211660D01*
X0250260Y0211760D01*
X0250600Y0211820D01*
X0250940Y0211840D01*
X0251280Y0211820D01*
X0251620Y0211760D01*
X0251950Y0211660D01*
X0252260Y0211530D01*
X0252560Y0211350D01*
X0252840Y0211150D01*
X0253090Y0210910D01*
X0253310Y0210650D01*
X0253490Y0210370D01*
X0253650Y0210060D01*
X0253770Y0209740D01*
X0253850Y0209400D01*
X0253890Y0209060D01*
X0253890Y0208720D01*
X0253850Y0208380D01*
X0253770Y0208040D01*
X0253650Y0207720D01*
X0253490Y0207410D01*
X0253310Y0207130D01*
X0253090Y0206870D01*
X0252840Y0206630D01*
X0252560Y0206430D01*
X0252260Y0206250D01*
X0251950Y0206120D01*
X0251620Y0206020D01*
X0251280Y0205960D01*
X0250940Y0205940D01*
X0211240Y0017690D02*
X0210780Y0017710D01*
X0210330Y0017770D01*
X0209880Y0017870D01*
X0209450Y0018000D01*
X0209020Y0018170D01*
X0208620Y0018380D01*
X0208230Y0018620D01*
X0207870Y0018900D01*
X0207530Y0019210D01*
X0207210Y0019540D01*
X0206930Y0019900D01*
X0206680Y0020280D01*
X0206460Y0020680D01*
X0206280Y0021100D01*
X0206140Y0021530D01*
X0206030Y0021980D01*
X0205960Y0022430D01*
X0205930Y0022890D01*
X0205940Y0023340D01*
X0205990Y0023800D01*
X0206080Y0024250D01*
X0206200Y0024680D01*
X0206370Y0025110D01*
X0206570Y0025520D01*
X0206800Y0025910D01*
X0207070Y0026290D01*
X0207370Y0026630D01*
X0207690Y0026950D01*
X0208050Y0027240D01*
X0208420Y0027500D01*
X0208820Y0027730D01*
X0209230Y0027920D01*
X0209660Y0028070D01*
X0210110Y0028190D01*
X0210560Y0028270D01*
X0211010Y0028310D01*
X0211470Y0028310D01*
X0211920Y0028270D01*
X0212370Y0028190D01*
X0212820Y0028070D01*
X0213250Y0027920D01*
X0213660Y0027730D01*
X0214060Y0027500D01*
X0214430Y0027240D01*
X0214790Y0026950D01*
X0215110Y0026630D01*
X0215410Y0026290D01*
X0215680Y0025910D01*
X0215910Y0025520D01*
X0216110Y0025110D01*
X0216280Y0024680D01*
X0216400Y0024250D01*
X0216490Y0023800D01*
X0216540Y0023340D01*
X0216550Y0022890D01*
X0216520Y0022430D01*
X0216450Y0021980D01*
X0216340Y0021530D01*
X0216200Y0021100D01*
X0216020Y0020680D01*
X0215800Y0020280D01*
X0215550Y0019900D01*
X0215270Y0019540D01*
X0214950Y0019210D01*
X0214610Y0018900D01*
X0214250Y0018620D01*
X0213860Y0018380D01*
X0213460Y0018170D01*
X0213030Y0018000D01*
X0212600Y0017870D01*
X0212150Y0017770D01*
X0211700Y0017710D01*
X0211240Y0017690D01*
D57*
X0211240Y0023000D03*
X0211240Y0211000D03*
D71*
X0208740Y0071500D03*
X0208740Y0061500D03*
X0208740Y0051500D03*
X0198740Y0051500D03*
X0198740Y0061500D03*
X0198740Y0071500D03*
X0218740Y0071500D03*
X0218740Y0061500D03*
X0218740Y0051500D03*
X0228740Y0051500D03*
X0228740Y0061500D03*
X0228740Y0071500D03*
X0238740Y0071500D03*
X0238740Y0061500D03*
X0238740Y0051500D03*
X0238740Y0031500D03*
X0238740Y0021500D03*
X0248740Y0021500D03*
X0248740Y0031500D03*
X0248740Y0051500D03*
X0248740Y0061500D03*
X0248740Y0071500D03*
X0228740Y0031500D03*
X0228740Y0021500D03*
D21*
X0265240Y0017000D03*
X0265240Y0027000D03*
X0265240Y0037000D03*
X0265240Y0047000D03*
X0265240Y0057000D03*
X0265240Y0067000D03*
X0265240Y0077000D03*
X0265240Y0087000D03*
X0265240Y0097000D03*
X0265240Y0107000D03*
X0265240Y0117000D03*
X0265240Y0127000D03*
X0265240Y0137000D03*
X0265240Y0147000D03*
X0265240Y0157000D03*
X0265240Y0167000D03*
X0265240Y0177000D03*
X0265240Y0187000D03*
X0265240Y0197000D03*
X0265240Y0207000D03*
X0265240Y0217000D03*
D25*
X0218440Y0163700D03*
X0218440Y0153700D03*
X0208440Y0153700D03*
X0208440Y0163700D03*
D43*
X0208440Y0103700D03*
X0208440Y0093700D03*
X0218440Y0093700D03*
X0218440Y0103700D03*
X0228440Y0103700D03*
X0228440Y0093700D03*
D56*
X0230840Y0206100D03*
X0235840Y0216100D03*
X0240840Y0206100D03*
X0245840Y0216100D03*
D59*
X0250940Y0208890D03*
D41*
X0248740Y0076500D03*
X0248740Y0066500D03*
X0248740Y0056500D03*
X0248740Y0046500D03*
X0248740Y0036500D03*
X0248740Y0026500D03*
X0248740Y0016500D03*
X0238740Y0016500D03*
X0238740Y0026500D03*
X0238740Y0036500D03*
X0238740Y0046500D03*
X0238740Y0056500D03*
X0238740Y0066500D03*
X0238740Y0076500D03*
X0228740Y0076500D03*
X0228740Y0066500D03*
X0228740Y0056500D03*
X0228740Y0046500D03*
X0228740Y0036500D03*
X0228740Y0026500D03*
X0228740Y0016500D03*
X0218740Y0046500D03*
X0218740Y0056500D03*
X0218740Y0066500D03*
X0218740Y0076500D03*
X0208740Y0076500D03*
X0208740Y0066500D03*
X0208740Y0056500D03*
X0208740Y0046500D03*
X0198740Y0046500D03*
X0198740Y0056500D03*
X0198740Y0066500D03*
X0198740Y0076500D03*
X0278110Y0012000D02*
G75*
%LPD*%
D65*
X0359610Y0012000D02*
X0278110Y0012000D01*
X0278110Y0222000D01*
X0359610Y0222000D01*
X0359610Y0012000D01*
X0307810Y0151340D02*
X0307510Y0151360D01*
X0307210Y0151420D01*
X0306920Y0151510D01*
X0306650Y0151640D01*
X0306400Y0151810D01*
X0306170Y0152000D01*
X0305960Y0152230D01*
X0305790Y0152480D01*
X0305650Y0152740D01*
X0305550Y0153030D01*
X0305480Y0153320D01*
X0305450Y0153620D01*
X0305460Y0153930D01*
X0305510Y0154230D01*
X0305600Y0154520D01*
X0305720Y0154790D01*
X0305870Y0155050D01*
X0306060Y0155290D01*
X0306280Y0155500D01*
X0306520Y0155680D01*
X0306790Y0155830D01*
X0307070Y0155940D01*
X0307360Y0156020D01*
X0307660Y0156060D01*
X0307960Y0156060D01*
X0308260Y0156020D01*
X0308550Y0155940D01*
X0308830Y0155830D01*
X0309100Y0155680D01*
X0309340Y0155500D01*
X0309560Y0155290D01*
X0309750Y0155050D01*
X0309900Y0154790D01*
X0310020Y0154520D01*
X0310110Y0154230D01*
X0310160Y0153930D01*
X0310170Y0153620D01*
X0310140Y0153320D01*
X0310070Y0153030D01*
X0309970Y0152740D01*
X0309830Y0152480D01*
X0309660Y0152230D01*
X0309450Y0152000D01*
X0309220Y0151810D01*
X0308970Y0151640D01*
X0308700Y0151510D01*
X0308410Y0151420D01*
X0308110Y0151360D01*
X0307810Y0151340D01*
X0307810Y0161340D02*
X0307510Y0161360D01*
X0307210Y0161420D01*
X0306920Y0161510D01*
X0306650Y0161640D01*
X0306400Y0161810D01*
X0306170Y0162000D01*
X0305960Y0162230D01*
X0305790Y0162480D01*
X0305650Y0162740D01*
X0305550Y0163030D01*
X0305480Y0163320D01*
X0305450Y0163620D01*
X0305460Y0163930D01*
X0305510Y0164230D01*
X0305600Y0164520D01*
X0305720Y0164790D01*
X0305870Y0165050D01*
X0306060Y0165290D01*
X0306280Y0165500D01*
X0306520Y0165680D01*
X0306790Y0165830D01*
X0307070Y0165940D01*
X0307360Y0166020D01*
X0307660Y0166060D01*
X0307960Y0166060D01*
X0308260Y0166020D01*
X0308550Y0165940D01*
X0308830Y0165830D01*
X0309100Y0165680D01*
X0309340Y0165500D01*
X0309560Y0165290D01*
X0309750Y0165050D01*
X0309900Y0164790D01*
X0310020Y0164520D01*
X0310110Y0164230D01*
X0310160Y0163930D01*
X0310170Y0163620D01*
X0310140Y0163320D01*
X0310070Y0163030D01*
X0309970Y0162740D01*
X0309830Y0162480D01*
X0309660Y0162230D01*
X0309450Y0162000D01*
X0309220Y0161810D01*
X0308970Y0161640D01*
X0308700Y0161510D01*
X0308410Y0161420D01*
X0308110Y0161360D01*
X0307810Y0161340D01*
X0297810Y0161340D02*
X0297510Y0161360D01*
X0297210Y0161420D01*
X0296920Y0161510D01*
X0296650Y0161640D01*
X0296400Y0161810D01*
X0296170Y0162000D01*
X0295960Y0162230D01*
X0295790Y0162480D01*
X0295650Y0162740D01*
X0295550Y0163030D01*
X0295480Y0163320D01*
X0295450Y0163620D01*
X0295460Y0163930D01*
X0295510Y0164230D01*
X0295600Y0164520D01*
X0295720Y0164790D01*
X0295870Y0165050D01*
X0296060Y0165290D01*
X0296280Y0165500D01*
X0296520Y0165680D01*
X0296790Y0165830D01*
X0297070Y0165940D01*
X0297360Y0166020D01*
X0297660Y0166060D01*
X0297960Y0166060D01*
X0298260Y0166020D01*
X0298550Y0165940D01*
X0298830Y0165830D01*
X0299100Y0165680D01*
X0299340Y0165500D01*
X0299560Y0165290D01*
X0299750Y0165050D01*
X0299900Y0164790D01*
X0300020Y0164520D01*
X0300110Y0164230D01*
X0300160Y0163930D01*
X0300170Y0163620D01*
X0300140Y0163320D01*
X0300070Y0163030D01*
X0299970Y0162740D01*
X0299830Y0162480D01*
X0299660Y0162230D01*
X0299450Y0162000D01*
X0299220Y0161810D01*
X0298970Y0161640D01*
X0298700Y0161510D01*
X0298410Y0161420D01*
X0298110Y0161360D01*
X0297810Y0161340D01*
X0297810Y0151340D02*
X0297510Y0151360D01*
X0297210Y0151420D01*
X0296920Y0151510D01*
X0296650Y0151640D01*
X0296400Y0151810D01*
X0296170Y0152000D01*
X0295960Y0152230D01*
X0295790Y0152480D01*
X0295650Y0152740D01*
X0295550Y0153030D01*
X0295480Y0153320D01*
X0295450Y0153620D01*
X0295460Y0153930D01*
X0295510Y0154230D01*
X0295600Y0154520D01*
X0295720Y0154790D01*
X0295870Y0155050D01*
X0296060Y0155290D01*
X0296280Y0155500D01*
X0296520Y0155680D01*
X0296790Y0155830D01*
X0297070Y0155940D01*
X0297360Y0156020D01*
X0297660Y0156060D01*
X0297960Y0156060D01*
X0298260Y0156020D01*
X0298550Y0155940D01*
X0298830Y0155830D01*
X0299100Y0155680D01*
X0299340Y0155500D01*
X0299560Y0155290D01*
X0299750Y0155050D01*
X0299900Y0154790D01*
X0300020Y0154520D01*
X0300110Y0154230D01*
X0300160Y0153930D01*
X0300170Y0153620D01*
X0300140Y0153320D01*
X0300070Y0153030D01*
X0299970Y0152740D01*
X0299830Y0152480D01*
X0299660Y0152230D01*
X0299450Y0152000D01*
X0299220Y0151810D01*
X0298970Y0151640D01*
X0298700Y0151510D01*
X0298410Y0151420D01*
X0298110Y0151360D01*
X0297810Y0151340D01*
X0300610Y0205690D02*
X0300150Y0205710D01*
X0299700Y0205770D01*
X0299250Y0205870D01*
X0298820Y0206000D01*
X0298390Y0206170D01*
X0297990Y0206380D01*
X0297600Y0206620D01*
X0297240Y0206900D01*
X0296900Y0207210D01*
X0296580Y0207540D01*
X0296300Y0207900D01*
X0296050Y0208280D01*
X0295830Y0208680D01*
X0295650Y0209100D01*
X0295510Y0209530D01*
X0295400Y0209980D01*
X0295330Y0210430D01*
X0295300Y0210890D01*
X0295310Y0211340D01*
X0295360Y0211800D01*
X0295450Y0212250D01*
X0295570Y0212680D01*
X0295740Y0213110D01*
X0295940Y0213520D01*
X0296170Y0213910D01*
X0296440Y0214290D01*
X0296740Y0214630D01*
X0297060Y0214950D01*
X0297420Y0215240D01*
X0297790Y0215500D01*
X0298190Y0215730D01*
X0298600Y0215920D01*
X0299030Y0216070D01*
X0299480Y0216190D01*
X0299930Y0216270D01*
X0300380Y0216310D01*
X0300840Y0216310D01*
X0301290Y0216270D01*
X0301740Y0216190D01*
X0302190Y0216070D01*
X0302620Y0215920D01*
X0303030Y0215730D01*
X0303430Y0215500D01*
X0303800Y0215240D01*
X0304160Y0214950D01*
X0304480Y0214630D01*
X0304780Y0214290D01*
X0305050Y0213910D01*
X0305280Y0213520D01*
X0305480Y0213110D01*
X0305650Y0212680D01*
X0305770Y0212250D01*
X0305860Y0211800D01*
X0305910Y0211340D01*
X0305920Y0210890D01*
X0305890Y0210430D01*
X0305820Y0209980D01*
X0305710Y0209530D01*
X0305570Y0209100D01*
X0305390Y0208680D01*
X0305170Y0208280D01*
X0304920Y0207900D01*
X0304640Y0207540D01*
X0304320Y0207210D01*
X0303980Y0206900D01*
X0303620Y0206620D01*
X0303230Y0206380D01*
X0302830Y0206170D01*
X0302400Y0206000D01*
X0301970Y0205870D01*
X0301520Y0205770D01*
X0301070Y0205710D01*
X0300610Y0205690D01*
X0340310Y0205940D02*
X0339970Y0205960D01*
X0339630Y0206020D01*
X0339300Y0206120D01*
X0338990Y0206250D01*
X0338690Y0206430D01*
X0338410Y0206630D01*
X0338160Y0206870D01*
X0337940Y0207130D01*
X0337760Y0207410D01*
X0337600Y0207720D01*
X0337480Y0208040D01*
X0337400Y0208380D01*
X0337360Y0208720D01*
X0337360Y0209060D01*
X0337400Y0209400D01*
X0337480Y0209740D01*
X0337600Y0210060D01*
X0337760Y0210360D01*
X0337940Y0210650D01*
X0338160Y0210910D01*
X0338410Y0211150D01*
X0338690Y0211350D01*
X0338990Y0211530D01*
X0339300Y0211660D01*
X0339630Y0211760D01*
X0339970Y0211820D01*
X0340310Y0211840D01*
X0340650Y0211820D01*
X0340990Y0211760D01*
X0341320Y0211660D01*
X0341630Y0211530D01*
X0341930Y0211350D01*
X0342210Y0211150D01*
X0342460Y0210910D01*
X0342680Y0210650D01*
X0342860Y0210370D01*
X0343020Y0210060D01*
X0343140Y0209740D01*
X0343220Y0209400D01*
X0343260Y0209060D01*
X0343260Y0208720D01*
X0343220Y0208380D01*
X0343140Y0208040D01*
X0343020Y0207720D01*
X0342860Y0207410D01*
X0342680Y0207130D01*
X0342460Y0206870D01*
X0342210Y0206630D01*
X0341930Y0206430D01*
X0341630Y0206250D01*
X0341320Y0206120D01*
X0340990Y0206020D01*
X0340650Y0205960D01*
X0340310Y0205940D01*
X0300610Y0017690D02*
X0300150Y0017710D01*
X0299700Y0017770D01*
X0299250Y0017870D01*
X0298820Y0018000D01*
X0298390Y0018170D01*
X0297990Y0018380D01*
X0297600Y0018620D01*
X0297240Y0018900D01*
X0296900Y0019210D01*
X0296580Y0019540D01*
X0296300Y0019900D01*
X0296050Y0020280D01*
X0295830Y0020680D01*
X0295650Y0021100D01*
X0295510Y0021530D01*
X0295400Y0021980D01*
X0295330Y0022430D01*
X0295300Y0022890D01*
X0295310Y0023340D01*
X0295360Y0023800D01*
X0295450Y0024250D01*
X0295570Y0024680D01*
X0295740Y0025110D01*
X0295940Y0025520D01*
X0296170Y0025910D01*
X0296440Y0026290D01*
X0296740Y0026630D01*
X0297060Y0026950D01*
X0297420Y0027240D01*
X0297790Y0027500D01*
X0298190Y0027730D01*
X0298600Y0027920D01*
X0299030Y0028070D01*
X0299480Y0028190D01*
X0299930Y0028270D01*
X0300380Y0028310D01*
X0300840Y0028310D01*
X0301290Y0028270D01*
X0301740Y0028190D01*
X0302190Y0028070D01*
X0302620Y0027920D01*
X0303030Y0027730D01*
X0303430Y0027500D01*
X0303800Y0027240D01*
X0304160Y0026950D01*
X0304480Y0026630D01*
X0304780Y0026290D01*
X0305050Y0025910D01*
X0305280Y0025520D01*
X0305480Y0025110D01*
X0305650Y0024680D01*
X0305770Y0024250D01*
X0305860Y0023800D01*
X0305910Y0023340D01*
X0305920Y0022890D01*
X0305890Y0022430D01*
X0305820Y0021980D01*
X0305710Y0021530D01*
X0305570Y0021100D01*
X0305390Y0020680D01*
X0305170Y0020280D01*
X0304920Y0019900D01*
X0304640Y0019540D01*
X0304320Y0019210D01*
X0303980Y0018900D01*
X0303620Y0018620D01*
X0303230Y0018380D01*
X0302830Y0018170D01*
X0302400Y0018000D01*
X0301970Y0017870D01*
X0301520Y0017770D01*
X0301070Y0017710D01*
X0300610Y0017690D01*
D57*
X0300610Y0023000D03*
X0300610Y0211000D03*
D71*
X0298110Y0071500D03*
X0298110Y0061500D03*
X0298110Y0051500D03*
X0288110Y0051500D03*
X0288110Y0061500D03*
X0288110Y0071500D03*
X0308110Y0071500D03*
X0308110Y0061500D03*
X0308110Y0051500D03*
X0318110Y0051500D03*
X0318110Y0061500D03*
X0318110Y0071500D03*
X0328110Y0071500D03*
X0328110Y0061500D03*
X0328110Y0051500D03*
X0328110Y0031500D03*
X0328110Y0021500D03*
X0338110Y0021500D03*
X0338110Y0031500D03*
X0338110Y0051500D03*
X0338110Y0061500D03*
X0338110Y0071500D03*
X0318110Y0031500D03*
X0318110Y0021500D03*
D21*
X0354610Y0017000D03*
X0354610Y0027000D03*
X0354610Y0037000D03*
X0354610Y0047000D03*
X0354610Y0057000D03*
X0354610Y0067000D03*
X0354610Y0077000D03*
X0354610Y0087000D03*
X0354610Y0097000D03*
X0354610Y0107000D03*
X0354610Y0117000D03*
X0354610Y0127000D03*
X0354610Y0137000D03*
X0354610Y0147000D03*
X0354610Y0157000D03*
X0354610Y0167000D03*
X0354610Y0177000D03*
X0354610Y0187000D03*
X0354610Y0197000D03*
X0354610Y0207000D03*
X0354610Y0217000D03*
D25*
X0307810Y0163700D03*
X0307810Y0153700D03*
X0297810Y0153700D03*
X0297810Y0163700D03*
D43*
X0297810Y0103700D03*
X0297810Y0093700D03*
X0307810Y0093700D03*
X0307810Y0103700D03*
X0317810Y0103700D03*
X0317810Y0093700D03*
D56*
X0320210Y0206100D03*
X0325210Y0216100D03*
X0330210Y0206100D03*
X0335210Y0216100D03*
D59*
X0340310Y0208890D03*
D41*
X0338110Y0076500D03*
X0338110Y0066500D03*
X0338110Y0056500D03*
X0338110Y0046500D03*
X0338110Y0036500D03*
X0338110Y0026500D03*
X0338110Y0016500D03*
X0328110Y0016500D03*
X0328110Y0026500D03*
X0328110Y0036500D03*
X0328110Y0046500D03*
X0328110Y0056500D03*
X0328110Y0066500D03*
X0328110Y0076500D03*
X0318110Y0076500D03*
X0318110Y0066500D03*
X0318110Y0056500D03*
X0318110Y0046500D03*
X0318110Y0036500D03*
X0318110Y0026500D03*
X0318110Y0016500D03*
X0308110Y0046500D03*
X0308110Y0056500D03*
X0308110Y0066500D03*
X0308110Y0076500D03*
X0298110Y0076500D03*
X0298110Y0066500D03*
X0298110Y0056500D03*
X0298110Y0046500D03*
X0288110Y0046500D03*
X0288110Y0056500D03*
X0288110Y0066500D03*
X0288110Y0076500D03*
X0010000Y0229870D02*
G75*
%LPD*%
D65*
X0071000Y0229870D02*
X0010000Y0229870D01*
X0010000Y0326470D01*
X0071000Y0326470D01*
X0071000Y0229870D01*
X0043710Y0240830D02*
X0043370Y0240850D01*
X0043030Y0240910D01*
X0042700Y0241010D01*
X0042390Y0241140D01*
X0042090Y0241320D01*
X0041810Y0241520D01*
X0041560Y0241760D01*
X0041340Y0242020D01*
X0041160Y0242300D01*
X0041000Y0242610D01*
X0040880Y0242930D01*
X0040800Y0243270D01*
X0040760Y0243610D01*
X0040760Y0243950D01*
X0040800Y0244290D01*
X0040880Y0244630D01*
X0041000Y0244950D01*
X0041160Y0245250D01*
X0041340Y0245540D01*
X0041560Y0245800D01*
X0041810Y0246040D01*
X0042090Y0246240D01*
X0042390Y0246420D01*
X0042700Y0246550D01*
X0043030Y0246650D01*
X0043370Y0246710D01*
X0043710Y0246730D01*
X0044050Y0246710D01*
X0044390Y0246650D01*
X0044720Y0246550D01*
X0045030Y0246420D01*
X0045330Y0246240D01*
X0045610Y0246040D01*
X0045860Y0245800D01*
X0046080Y0245540D01*
X0046260Y0245260D01*
X0046420Y0244950D01*
X0046540Y0244630D01*
X0046620Y0244290D01*
X0046660Y0243950D01*
X0046660Y0243610D01*
X0046620Y0243270D01*
X0046540Y0242930D01*
X0046420Y0242610D01*
X0046260Y0242300D01*
X0046080Y0242020D01*
X0045860Y0241760D01*
X0045610Y0241520D01*
X0045330Y0241320D01*
X0045030Y0241140D01*
X0044720Y0241010D01*
X0044390Y0240910D01*
X0044050Y0240850D01*
X0043710Y0240830D01*
X0032800Y0232100D02*
X0032510Y0232120D01*
X0032230Y0232180D01*
X0031950Y0232270D01*
X0031690Y0232400D01*
X0031460Y0232570D01*
X0031240Y0232760D01*
X0031050Y0232980D01*
X0030900Y0233230D01*
X0030770Y0233490D01*
X0030690Y0233770D01*
X0030640Y0234050D01*
X0030630Y0234340D01*
X0030660Y0234630D01*
X0030730Y0234910D01*
X0030830Y0235180D01*
X0030970Y0235440D01*
X0031140Y0235670D01*
X0031340Y0235880D01*
X0031570Y0236060D01*
X0031820Y0236210D01*
X0032090Y0236320D01*
X0032370Y0236400D01*
X0032660Y0236440D01*
X0032940Y0236440D01*
X0033230Y0236400D01*
X0033510Y0236320D01*
X0033780Y0236210D01*
X0034030Y0236060D01*
X0034260Y0235880D01*
X0034460Y0235670D01*
X0034630Y0235440D01*
X0034770Y0235180D01*
X0034870Y0234910D01*
X0034940Y0234630D01*
X0034970Y0234340D01*
X0034960Y0234050D01*
X0034910Y0233770D01*
X0034830Y0233490D01*
X0034700Y0233230D01*
X0034550Y0232980D01*
X0034360Y0232760D01*
X0034140Y0232570D01*
X0033910Y0232400D01*
X0033650Y0232270D01*
X0033370Y0232180D01*
X0033090Y0232120D01*
X0032800Y0232100D01*
X0022800Y0232100D02*
X0022510Y0232120D01*
X0022230Y0232180D01*
X0021950Y0232270D01*
X0021690Y0232400D01*
X0021460Y0232570D01*
X0021240Y0232760D01*
X0021050Y0232980D01*
X0020900Y0233230D01*
X0020770Y0233490D01*
X0020690Y0233770D01*
X0020640Y0234050D01*
X0020630Y0234340D01*
X0020660Y0234630D01*
X0020730Y0234910D01*
X0020830Y0235180D01*
X0020970Y0235440D01*
X0021140Y0235670D01*
X0021340Y0235880D01*
X0021570Y0236060D01*
X0021820Y0236210D01*
X0022090Y0236320D01*
X0022370Y0236400D01*
X0022660Y0236440D01*
X0022940Y0236440D01*
X0023230Y0236400D01*
X0023510Y0236320D01*
X0023780Y0236210D01*
X0024030Y0236060D01*
X0024260Y0235880D01*
X0024460Y0235670D01*
X0024630Y0235440D01*
X0024770Y0235180D01*
X0024870Y0234910D01*
X0024940Y0234630D01*
X0024970Y0234340D01*
X0024960Y0234050D01*
X0024910Y0233770D01*
X0024830Y0233490D01*
X0024700Y0233230D01*
X0024550Y0232980D01*
X0024360Y0232760D01*
X0024140Y0232570D01*
X0023910Y0232400D01*
X0023650Y0232270D01*
X0023370Y0232180D01*
X0023090Y0232120D01*
X0022800Y0232100D01*
X0019590Y0273020D02*
X0019250Y0273040D01*
X0018910Y0273100D01*
X0018580Y0273200D01*
X0018270Y0273330D01*
X0017970Y0273510D01*
X0017690Y0273710D01*
X0017440Y0273950D01*
X0017220Y0274210D01*
X0017040Y0274490D01*
X0016880Y0274800D01*
X0016760Y0275120D01*
X0016680Y0275460D01*
X0016640Y0275800D01*
X0016640Y0276140D01*
X0016680Y0276480D01*
X0016760Y0276820D01*
X0016880Y0277140D01*
X0017040Y0277440D01*
X0017220Y0277730D01*
X0017440Y0277990D01*
X0017690Y0278230D01*
X0017970Y0278430D01*
X0018270Y0278610D01*
X0018580Y0278740D01*
X0018910Y0278840D01*
X0019250Y0278900D01*
X0019590Y0278920D01*
X0019930Y0278900D01*
X0020270Y0278840D01*
X0020600Y0278740D01*
X0020910Y0278610D01*
X0021210Y0278430D01*
X0021490Y0278230D01*
X0021740Y0277990D01*
X0021960Y0277730D01*
X0022140Y0277450D01*
X0022300Y0277140D01*
X0022420Y0276820D01*
X0022500Y0276480D01*
X0022540Y0276140D01*
X0022540Y0275800D01*
X0022500Y0275460D01*
X0022420Y0275120D01*
X0022300Y0274800D01*
X0022140Y0274490D01*
X0021960Y0274210D01*
X0021740Y0273950D01*
X0021490Y0273710D01*
X0021210Y0273510D01*
X0020910Y0273330D01*
X0020600Y0273200D01*
X0020270Y0273100D01*
X0019930Y0273040D01*
X0019590Y0273020D01*
X0021800Y0310160D02*
X0021340Y0310180D01*
X0020890Y0310240D01*
X0020440Y0310340D01*
X0020010Y0310470D01*
X0019580Y0310640D01*
X0019180Y0310850D01*
X0018790Y0311090D01*
X0018430Y0311370D01*
X0018090Y0311680D01*
X0017770Y0312010D01*
X0017490Y0312370D01*
X0017240Y0312750D01*
X0017020Y0313150D01*
X0016840Y0313570D01*
X0016700Y0314000D01*
X0016590Y0314450D01*
X0016520Y0314900D01*
X0016490Y0315360D01*
X0016500Y0315810D01*
X0016550Y0316270D01*
X0016640Y0316720D01*
X0016760Y0317150D01*
X0016930Y0317580D01*
X0017130Y0317990D01*
X0017360Y0318380D01*
X0017630Y0318760D01*
X0017930Y0319100D01*
X0018250Y0319420D01*
X0018610Y0319710D01*
X0018980Y0319970D01*
X0019380Y0320200D01*
X0019790Y0320390D01*
X0020220Y0320540D01*
X0020670Y0320660D01*
X0021120Y0320740D01*
X0021570Y0320780D01*
X0022030Y0320780D01*
X0022480Y0320740D01*
X0022930Y0320660D01*
X0023380Y0320540D01*
X0023810Y0320390D01*
X0024220Y0320200D01*
X0024620Y0319970D01*
X0024990Y0319710D01*
X0025350Y0319420D01*
X0025670Y0319100D01*
X0025970Y0318760D01*
X0026240Y0318380D01*
X0026470Y0317990D01*
X0026670Y0317580D01*
X0026840Y0317150D01*
X0026960Y0316720D01*
X0027050Y0316270D01*
X0027100Y0315810D01*
X0027110Y0315360D01*
X0027080Y0314900D01*
X0027010Y0314450D01*
X0026900Y0314000D01*
X0026760Y0313570D01*
X0026580Y0313150D01*
X0026360Y0312750D01*
X0026110Y0312370D01*
X0025830Y0312010D01*
X0025510Y0311680D01*
X0025170Y0311370D01*
X0024810Y0311090D01*
X0024420Y0310850D01*
X0024020Y0310640D01*
X0023590Y0310470D01*
X0023160Y0310340D01*
X0022710Y0310240D01*
X0022260Y0310180D01*
X0021800Y0310160D01*
X0043710Y0315330D02*
X0043370Y0315350D01*
X0043030Y0315410D01*
X0042700Y0315510D01*
X0042390Y0315640D01*
X0042090Y0315820D01*
X0041810Y0316020D01*
X0041560Y0316260D01*
X0041340Y0316520D01*
X0041160Y0316800D01*
X0041000Y0317110D01*
X0040880Y0317430D01*
X0040800Y0317770D01*
X0040760Y0318110D01*
X0040760Y0318450D01*
X0040800Y0318790D01*
X0040880Y0319130D01*
X0041000Y0319450D01*
X0041160Y0319750D01*
X0041340Y0320040D01*
X0041560Y0320300D01*
X0041810Y0320540D01*
X0042090Y0320740D01*
X0042390Y0320920D01*
X0042700Y0321050D01*
X0043030Y0321150D01*
X0043370Y0321210D01*
X0043710Y0321230D01*
X0044050Y0321210D01*
X0044390Y0321150D01*
X0044720Y0321050D01*
X0045030Y0320920D01*
X0045330Y0320740D01*
X0045610Y0320540D01*
X0045860Y0320300D01*
X0046080Y0320040D01*
X0046260Y0319760D01*
X0046420Y0319450D01*
X0046540Y0319130D01*
X0046620Y0318790D01*
X0046660Y0318450D01*
X0046660Y0318110D01*
X0046620Y0317770D01*
X0046540Y0317430D01*
X0046420Y0317110D01*
X0046260Y0316800D01*
X0046080Y0316520D01*
X0045860Y0316260D01*
X0045610Y0316020D01*
X0045330Y0315820D01*
X0045030Y0315640D01*
X0044720Y0315510D01*
X0044390Y0315410D01*
X0044050Y0315350D01*
X0043710Y0315330D01*
X0043710Y0282530D02*
X0043370Y0282550D01*
X0043030Y0282610D01*
X0042700Y0282710D01*
X0042390Y0282840D01*
X0042090Y0283020D01*
X0041810Y0283220D01*
X0041560Y0283460D01*
X0041340Y0283720D01*
X0041160Y0284000D01*
X0041000Y0284310D01*
X0040880Y0284630D01*
X0040800Y0284970D01*
X0040760Y0285310D01*
X0040760Y0285650D01*
X0040800Y0285990D01*
X0040880Y0286330D01*
X0041000Y0286650D01*
X0041160Y0286950D01*
X0041340Y0287240D01*
X0041560Y0287500D01*
X0041810Y0287740D01*
X0042090Y0287940D01*
X0042390Y0288120D01*
X0042700Y0288250D01*
X0043030Y0288350D01*
X0043370Y0288410D01*
X0043710Y0288430D01*
X0044050Y0288410D01*
X0044390Y0288350D01*
X0044720Y0288250D01*
X0045030Y0288120D01*
X0045330Y0287940D01*
X0045610Y0287740D01*
X0045860Y0287500D01*
X0046080Y0287240D01*
X0046260Y0286960D01*
X0046420Y0286650D01*
X0046540Y0286330D01*
X0046620Y0285990D01*
X0046660Y0285650D01*
X0046660Y0285310D01*
X0046620Y0284970D01*
X0046540Y0284630D01*
X0046420Y0284310D01*
X0046260Y0284000D01*
X0046080Y0283720D01*
X0045860Y0283460D01*
X0045610Y0283220D01*
X0045330Y0283020D01*
X0045030Y0282840D01*
X0044720Y0282710D01*
X0044390Y0282610D01*
X0044050Y0282550D01*
X0043710Y0282530D01*
D57*
X0021800Y0315470D03*
D56*
X0016800Y0296070D03*
X0016800Y0286070D03*
X0026800Y0291070D03*
X0026800Y0281070D03*
X0044800Y0267970D03*
X0048800Y0278270D03*
X0053800Y0288270D03*
X0058800Y0278270D03*
X0054800Y0267970D03*
X0059800Y0257970D03*
X0063800Y0246570D03*
X0058800Y0236570D03*
X0053800Y0246570D03*
X0048800Y0236570D03*
X0049800Y0257970D03*
X0063800Y0288270D03*
X0058800Y0311070D03*
X0053800Y0321070D03*
X0048800Y0311070D03*
X0063800Y0321070D03*
D59*
X0043710Y0318280D03*
X0043710Y0285480D03*
X0043710Y0243780D03*
X0019590Y0275970D03*
D70*
X0022800Y0244270D03*
X0032800Y0244270D03*
D54*
X0032800Y0234270D03*
X0022800Y0234270D03*
X0078870Y0229870D02*
G75*
%LPD*%
D65*
X0139870Y0229870D02*
X0078870Y0229870D01*
X0078870Y0326470D01*
X0139870Y0326470D01*
X0139870Y0229870D01*
X0112580Y0240830D02*
X0112240Y0240850D01*
X0111900Y0240910D01*
X0111570Y0241010D01*
X0111260Y0241140D01*
X0110960Y0241320D01*
X0110680Y0241520D01*
X0110430Y0241760D01*
X0110210Y0242020D01*
X0110030Y0242300D01*
X0109870Y0242610D01*
X0109750Y0242930D01*
X0109670Y0243270D01*
X0109630Y0243610D01*
X0109630Y0243950D01*
X0109670Y0244290D01*
X0109750Y0244630D01*
X0109870Y0244950D01*
X0110030Y0245250D01*
X0110210Y0245540D01*
X0110430Y0245800D01*
X0110680Y0246040D01*
X0110960Y0246240D01*
X0111260Y0246420D01*
X0111570Y0246550D01*
X0111900Y0246650D01*
X0112240Y0246710D01*
X0112580Y0246730D01*
X0112920Y0246710D01*
X0113260Y0246650D01*
X0113590Y0246550D01*
X0113900Y0246420D01*
X0114200Y0246240D01*
X0114480Y0246040D01*
X0114730Y0245800D01*
X0114950Y0245540D01*
X0115130Y0245260D01*
X0115290Y0244950D01*
X0115410Y0244630D01*
X0115490Y0244290D01*
X0115530Y0243950D01*
X0115530Y0243610D01*
X0115490Y0243270D01*
X0115410Y0242930D01*
X0115290Y0242610D01*
X0115130Y0242300D01*
X0114950Y0242020D01*
X0114730Y0241760D01*
X0114480Y0241520D01*
X0114200Y0241320D01*
X0113900Y0241140D01*
X0113590Y0241010D01*
X0113260Y0240910D01*
X0112920Y0240850D01*
X0112580Y0240830D01*
X0101670Y0232100D02*
X0101380Y0232120D01*
X0101100Y0232180D01*
X0100820Y0232270D01*
X0100560Y0232400D01*
X0100330Y0232570D01*
X0100110Y0232760D01*
X0099920Y0232980D01*
X0099770Y0233230D01*
X0099640Y0233490D01*
X0099560Y0233770D01*
X0099510Y0234050D01*
X0099500Y0234340D01*
X0099530Y0234630D01*
X0099600Y0234910D01*
X0099700Y0235180D01*
X0099840Y0235440D01*
X0100010Y0235670D01*
X0100210Y0235880D01*
X0100440Y0236060D01*
X0100690Y0236210D01*
X0100960Y0236320D01*
X0101240Y0236400D01*
X0101530Y0236440D01*
X0101810Y0236440D01*
X0102100Y0236400D01*
X0102380Y0236320D01*
X0102650Y0236210D01*
X0102900Y0236060D01*
X0103130Y0235880D01*
X0103330Y0235670D01*
X0103500Y0235440D01*
X0103640Y0235180D01*
X0103740Y0234910D01*
X0103810Y0234630D01*
X0103840Y0234340D01*
X0103830Y0234050D01*
X0103780Y0233770D01*
X0103700Y0233490D01*
X0103570Y0233230D01*
X0103420Y0232980D01*
X0103230Y0232760D01*
X0103010Y0232570D01*
X0102780Y0232400D01*
X0102520Y0232270D01*
X0102240Y0232180D01*
X0101960Y0232120D01*
X0101670Y0232100D01*
X0091670Y0232100D02*
X0091380Y0232120D01*
X0091100Y0232180D01*
X0090820Y0232270D01*
X0090560Y0232400D01*
X0090330Y0232570D01*
X0090110Y0232760D01*
X0089920Y0232980D01*
X0089770Y0233230D01*
X0089640Y0233490D01*
X0089560Y0233770D01*
X0089510Y0234050D01*
X0089500Y0234340D01*
X0089530Y0234630D01*
X0089600Y0234910D01*
X0089700Y0235180D01*
X0089840Y0235440D01*
X0090010Y0235670D01*
X0090210Y0235880D01*
X0090440Y0236060D01*
X0090690Y0236210D01*
X0090960Y0236320D01*
X0091240Y0236400D01*
X0091530Y0236440D01*
X0091810Y0236440D01*
X0092100Y0236400D01*
X0092380Y0236320D01*
X0092650Y0236210D01*
X0092900Y0236060D01*
X0093130Y0235880D01*
X0093330Y0235670D01*
X0093500Y0235440D01*
X0093640Y0235180D01*
X0093740Y0234910D01*
X0093810Y0234630D01*
X0093840Y0234340D01*
X0093830Y0234050D01*
X0093780Y0233770D01*
X0093700Y0233490D01*
X0093570Y0233230D01*
X0093420Y0232980D01*
X0093230Y0232760D01*
X0093010Y0232570D01*
X0092780Y0232400D01*
X0092520Y0232270D01*
X0092240Y0232180D01*
X0091960Y0232120D01*
X0091670Y0232100D01*
X0088460Y0273020D02*
X0088120Y0273040D01*
X0087780Y0273100D01*
X0087450Y0273200D01*
X0087140Y0273330D01*
X0086840Y0273510D01*
X0086560Y0273710D01*
X0086310Y0273950D01*
X0086090Y0274210D01*
X0085910Y0274490D01*
X0085750Y0274800D01*
X0085630Y0275120D01*
X0085550Y0275460D01*
X0085510Y0275800D01*
X0085510Y0276140D01*
X0085550Y0276480D01*
X0085630Y0276820D01*
X0085750Y0277140D01*
X0085910Y0277440D01*
X0086090Y0277730D01*
X0086310Y0277990D01*
X0086560Y0278230D01*
X0086840Y0278430D01*
X0087140Y0278610D01*
X0087450Y0278740D01*
X0087780Y0278840D01*
X0088120Y0278900D01*
X0088460Y0278920D01*
X0088800Y0278900D01*
X0089140Y0278840D01*
X0089470Y0278740D01*
X0089780Y0278610D01*
X0090080Y0278430D01*
X0090360Y0278230D01*
X0090610Y0277990D01*
X0090830Y0277730D01*
X0091010Y0277450D01*
X0091170Y0277140D01*
X0091290Y0276820D01*
X0091370Y0276480D01*
X0091410Y0276140D01*
X0091410Y0275800D01*
X0091370Y0275460D01*
X0091290Y0275120D01*
X0091170Y0274800D01*
X0091010Y0274490D01*
X0090830Y0274210D01*
X0090610Y0273950D01*
X0090360Y0273710D01*
X0090080Y0273510D01*
X0089780Y0273330D01*
X0089470Y0273200D01*
X0089140Y0273100D01*
X0088800Y0273040D01*
X0088460Y0273020D01*
X0090670Y0310160D02*
X0090210Y0310180D01*
X0089760Y0310240D01*
X0089310Y0310340D01*
X0088880Y0310470D01*
X0088450Y0310640D01*
X0088050Y0310850D01*
X0087660Y0311090D01*
X0087300Y0311370D01*
X0086960Y0311680D01*
X0086640Y0312010D01*
X0086360Y0312370D01*
X0086110Y0312750D01*
X0085890Y0313150D01*
X0085710Y0313570D01*
X0085570Y0314000D01*
X0085460Y0314450D01*
X0085390Y0314900D01*
X0085360Y0315360D01*
X0085370Y0315810D01*
X0085420Y0316270D01*
X0085510Y0316720D01*
X0085630Y0317150D01*
X0085800Y0317580D01*
X0086000Y0317990D01*
X0086230Y0318380D01*
X0086500Y0318760D01*
X0086800Y0319100D01*
X0087120Y0319420D01*
X0087480Y0319710D01*
X0087850Y0319970D01*
X0088250Y0320200D01*
X0088660Y0320390D01*
X0089090Y0320540D01*
X0089540Y0320660D01*
X0089990Y0320740D01*
X0090440Y0320780D01*
X0090900Y0320780D01*
X0091350Y0320740D01*
X0091800Y0320660D01*
X0092250Y0320540D01*
X0092680Y0320390D01*
X0093090Y0320200D01*
X0093490Y0319970D01*
X0093860Y0319710D01*
X0094220Y0319420D01*
X0094540Y0319100D01*
X0094840Y0318760D01*
X0095110Y0318380D01*
X0095340Y0317990D01*
X0095540Y0317580D01*
X0095710Y0317150D01*
X0095830Y0316720D01*
X0095920Y0316270D01*
X0095970Y0315810D01*
X0095980Y0315360D01*
X0095950Y0314900D01*
X0095880Y0314450D01*
X0095770Y0314000D01*
X0095630Y0313570D01*
X0095450Y0313150D01*
X0095230Y0312750D01*
X0094980Y0312370D01*
X0094700Y0312010D01*
X0094380Y0311680D01*
X0094040Y0311370D01*
X0093680Y0311090D01*
X0093290Y0310850D01*
X0092890Y0310640D01*
X0092460Y0310470D01*
X0092030Y0310340D01*
X0091580Y0310240D01*
X0091130Y0310180D01*
X0090670Y0310160D01*
X0112580Y0315330D02*
X0112240Y0315350D01*
X0111900Y0315410D01*
X0111570Y0315510D01*
X0111260Y0315640D01*
X0110960Y0315820D01*
X0110680Y0316020D01*
X0110430Y0316260D01*
X0110210Y0316520D01*
X0110030Y0316800D01*
X0109870Y0317110D01*
X0109750Y0317430D01*
X0109670Y0317770D01*
X0109630Y0318110D01*
X0109630Y0318450D01*
X0109670Y0318790D01*
X0109750Y0319130D01*
X0109870Y0319450D01*
X0110030Y0319750D01*
X0110210Y0320040D01*
X0110430Y0320300D01*
X0110680Y0320540D01*
X0110960Y0320740D01*
X0111260Y0320920D01*
X0111570Y0321050D01*
X0111900Y0321150D01*
X0112240Y0321210D01*
X0112580Y0321230D01*
X0112920Y0321210D01*
X0113260Y0321150D01*
X0113590Y0321050D01*
X0113900Y0320920D01*
X0114200Y0320740D01*
X0114480Y0320540D01*
X0114730Y0320300D01*
X0114950Y0320040D01*
X0115130Y0319760D01*
X0115290Y0319450D01*
X0115410Y0319130D01*
X0115490Y0318790D01*
X0115530Y0318450D01*
X0115530Y0318110D01*
X0115490Y0317770D01*
X0115410Y0317430D01*
X0115290Y0317110D01*
X0115130Y0316800D01*
X0114950Y0316520D01*
X0114730Y0316260D01*
X0114480Y0316020D01*
X0114200Y0315820D01*
X0113900Y0315640D01*
X0113590Y0315510D01*
X0113260Y0315410D01*
X0112920Y0315350D01*
X0112580Y0315330D01*
X0112580Y0282530D02*
X0112240Y0282550D01*
X0111900Y0282610D01*
X0111570Y0282710D01*
X0111260Y0282840D01*
X0110960Y0283020D01*
X0110680Y0283220D01*
X0110430Y0283460D01*
X0110210Y0283720D01*
X0110030Y0284000D01*
X0109870Y0284310D01*
X0109750Y0284630D01*
X0109670Y0284970D01*
X0109630Y0285310D01*
X0109630Y0285650D01*
X0109670Y0285990D01*
X0109750Y0286330D01*
X0109870Y0286650D01*
X0110030Y0286950D01*
X0110210Y0287240D01*
X0110430Y0287500D01*
X0110680Y0287740D01*
X0110960Y0287940D01*
X0111260Y0288120D01*
X0111570Y0288250D01*
X0111900Y0288350D01*
X0112240Y0288410D01*
X0112580Y0288430D01*
X0112920Y0288410D01*
X0113260Y0288350D01*
X0113590Y0288250D01*
X0113900Y0288120D01*
X0114200Y0287940D01*
X0114480Y0287740D01*
X0114730Y0287500D01*
X0114950Y0287240D01*
X0115130Y0286960D01*
X0115290Y0286650D01*
X0115410Y0286330D01*
X0115490Y0285990D01*
X0115530Y0285650D01*
X0115530Y0285310D01*
X0115490Y0284970D01*
X0115410Y0284630D01*
X0115290Y0284310D01*
X0115130Y0284000D01*
X0114950Y0283720D01*
X0114730Y0283460D01*
X0114480Y0283220D01*
X0114200Y0283020D01*
X0113900Y0282840D01*
X0113590Y0282710D01*
X0113260Y0282610D01*
X0112920Y0282550D01*
X0112580Y0282530D01*
D57*
X0090670Y0315470D03*
D56*
X0085670Y0296070D03*
X0085670Y0286070D03*
X0095670Y0291070D03*
X0095670Y0281070D03*
X0113670Y0267970D03*
X0117670Y0278270D03*
X0122670Y0288270D03*
X0127670Y0278270D03*
X0123670Y0267970D03*
X0128670Y0257970D03*
X0132670Y0246570D03*
X0127670Y0236570D03*
X0122670Y0246570D03*
X0117670Y0236570D03*
X0118670Y0257970D03*
X0132670Y0288270D03*
X0127670Y0311070D03*
X0122670Y0321070D03*
X0117670Y0311070D03*
X0132670Y0321070D03*
D59*
X0112580Y0318280D03*
X0112580Y0285480D03*
X0112580Y0243780D03*
X0088460Y0275970D03*
D70*
X0091670Y0244270D03*
X0101670Y0244270D03*
D54*
X0101670Y0234270D03*
X0091670Y0234270D03*
X0147740Y0229870D02*
G75*
%LPD*%
D26*
X0380340Y0229870D02*
X0380340Y0253490D01*
X0147740Y0253490D01*
X0147740Y0229870D01*
X0380340Y0229870D01*
D28*
X0368370Y0236580D03*
X0358370Y0236580D03*
X0332090Y0236480D03*
X0322090Y0236480D03*
X0297380Y0236550D03*
X0287380Y0236550D03*
X0262270Y0236450D03*
X0252270Y0236450D03*
X0227790Y0236620D03*
X0217790Y0236620D03*
X0193500Y0236710D03*
X0183500Y0236710D03*
X0188500Y0246710D03*
X0198500Y0246710D03*
X0222790Y0246620D03*
X0232790Y0246620D03*
X0257270Y0246450D03*
X0267270Y0246450D03*
X0292380Y0246550D03*
X0302380Y0246550D03*
X0327090Y0246480D03*
X0337090Y0246480D03*
X0363370Y0246580D03*
X0373370Y0246580D03*
D65*
X0353280Y0240840D02*
X0352940Y0240860D01*
X0352600Y0240920D01*
X0352270Y0241020D01*
X0351960Y0241150D01*
X0351660Y0241330D01*
X0351380Y0241530D01*
X0351130Y0241770D01*
X0350910Y0242030D01*
X0350730Y0242310D01*
X0350570Y0242620D01*
X0350450Y0242940D01*
X0350370Y0243280D01*
X0350330Y0243620D01*
X0350330Y0243960D01*
X0350370Y0244300D01*
X0350450Y0244640D01*
X0350570Y0244960D01*
X0350730Y0245260D01*
X0350910Y0245550D01*
X0351130Y0245810D01*
X0351380Y0246050D01*
X0351660Y0246250D01*
X0351960Y0246430D01*
X0352270Y0246560D01*
X0352600Y0246660D01*
X0352940Y0246720D01*
X0353280Y0246740D01*
X0353620Y0246720D01*
X0353960Y0246660D01*
X0354290Y0246560D01*
X0354600Y0246430D01*
X0354900Y0246250D01*
X0355180Y0246050D01*
X0355430Y0245810D01*
X0355650Y0245550D01*
X0355830Y0245270D01*
X0355990Y0244960D01*
X0356110Y0244640D01*
X0356190Y0244300D01*
X0356230Y0243960D01*
X0356230Y0243620D01*
X0356190Y0243280D01*
X0356110Y0242940D01*
X0355990Y0242620D01*
X0355830Y0242310D01*
X0355650Y0242030D01*
X0355430Y0241770D01*
X0355180Y0241530D01*
X0354900Y0241330D01*
X0354600Y0241150D01*
X0354290Y0241020D01*
X0353960Y0240920D01*
X0353620Y0240860D01*
X0353280Y0240840D01*
X0316990Y0240740D02*
X0316650Y0240760D01*
X0316310Y0240820D01*
X0315980Y0240920D01*
X0315670Y0241050D01*
X0315370Y0241230D01*
X0315090Y0241430D01*
X0314840Y0241670D01*
X0314620Y0241930D01*
X0314440Y0242210D01*
X0314280Y0242520D01*
X0314160Y0242840D01*
X0314080Y0243180D01*
X0314040Y0243520D01*
X0314040Y0243860D01*
X0314080Y0244200D01*
X0314160Y0244540D01*
X0314280Y0244860D01*
X0314440Y0245160D01*
X0314620Y0245450D01*
X0314840Y0245710D01*
X0315090Y0245950D01*
X0315370Y0246150D01*
X0315670Y0246330D01*
X0315980Y0246460D01*
X0316310Y0246560D01*
X0316650Y0246620D01*
X0316990Y0246640D01*
X0317330Y0246620D01*
X0317670Y0246560D01*
X0318000Y0246460D01*
X0318310Y0246330D01*
X0318610Y0246150D01*
X0318890Y0245950D01*
X0319140Y0245710D01*
X0319360Y0245450D01*
X0319540Y0245170D01*
X0319700Y0244860D01*
X0319820Y0244540D01*
X0319900Y0244200D01*
X0319940Y0243860D01*
X0319940Y0243520D01*
X0319900Y0243180D01*
X0319820Y0242840D01*
X0319700Y0242520D01*
X0319540Y0242210D01*
X0319360Y0241930D01*
X0319140Y0241670D01*
X0318890Y0241430D01*
X0318610Y0241230D01*
X0318310Y0241050D01*
X0318000Y0240920D01*
X0317670Y0240820D01*
X0317330Y0240760D01*
X0316990Y0240740D01*
X0282280Y0240810D02*
X0281940Y0240830D01*
X0281600Y0240890D01*
X0281270Y0240990D01*
X0280960Y0241120D01*
X0280660Y0241300D01*
X0280380Y0241500D01*
X0280130Y0241740D01*
X0279910Y0242000D01*
X0279730Y0242280D01*
X0279570Y0242590D01*
X0279450Y0242910D01*
X0279370Y0243250D01*
X0279330Y0243590D01*
X0279330Y0243930D01*
X0279370Y0244270D01*
X0279450Y0244610D01*
X0279570Y0244930D01*
X0279730Y0245230D01*
X0279910Y0245520D01*
X0280130Y0245780D01*
X0280380Y0246020D01*
X0280660Y0246220D01*
X0280960Y0246400D01*
X0281270Y0246530D01*
X0281600Y0246630D01*
X0281940Y0246690D01*
X0282280Y0246710D01*
X0282620Y0246690D01*
X0282960Y0246630D01*
X0283290Y0246530D01*
X0283600Y0246400D01*
X0283900Y0246220D01*
X0284180Y0246020D01*
X0284430Y0245780D01*
X0284650Y0245520D01*
X0284830Y0245240D01*
X0284990Y0244930D01*
X0285110Y0244610D01*
X0285190Y0244270D01*
X0285230Y0243930D01*
X0285230Y0243590D01*
X0285190Y0243250D01*
X0285110Y0242910D01*
X0284990Y0242590D01*
X0284830Y0242280D01*
X0284650Y0242000D01*
X0284430Y0241740D01*
X0284180Y0241500D01*
X0283900Y0241300D01*
X0283600Y0241120D01*
X0283290Y0240990D01*
X0282960Y0240890D01*
X0282620Y0240830D01*
X0282280Y0240810D01*
X0247180Y0240710D02*
X0246840Y0240730D01*
X0246500Y0240790D01*
X0246170Y0240890D01*
X0245860Y0241020D01*
X0245560Y0241200D01*
X0245280Y0241400D01*
X0245030Y0241640D01*
X0244810Y0241900D01*
X0244630Y0242180D01*
X0244470Y0242490D01*
X0244350Y0242810D01*
X0244270Y0243150D01*
X0244230Y0243490D01*
X0244230Y0243830D01*
X0244270Y0244170D01*
X0244350Y0244510D01*
X0244470Y0244830D01*
X0244630Y0245130D01*
X0244810Y0245420D01*
X0245030Y0245680D01*
X0245280Y0245920D01*
X0245560Y0246120D01*
X0245860Y0246300D01*
X0246170Y0246430D01*
X0246500Y0246530D01*
X0246840Y0246590D01*
X0247180Y0246610D01*
X0247520Y0246590D01*
X0247860Y0246530D01*
X0248190Y0246430D01*
X0248500Y0246300D01*
X0248800Y0246120D01*
X0249080Y0245920D01*
X0249330Y0245680D01*
X0249550Y0245420D01*
X0249730Y0245140D01*
X0249890Y0244830D01*
X0250010Y0244510D01*
X0250090Y0244170D01*
X0250130Y0243830D01*
X0250130Y0243490D01*
X0250090Y0243150D01*
X0250010Y0242810D01*
X0249890Y0242490D01*
X0249730Y0242180D01*
X0249550Y0241900D01*
X0249330Y0241640D01*
X0249080Y0241400D01*
X0248800Y0241200D01*
X0248500Y0241020D01*
X0248190Y0240890D01*
X0247860Y0240790D01*
X0247520Y0240730D01*
X0247180Y0240710D01*
X0212690Y0240880D02*
X0212350Y0240900D01*
X0212010Y0240960D01*
X0211680Y0241060D01*
X0211370Y0241190D01*
X0211070Y0241370D01*
X0210790Y0241570D01*
X0210540Y0241810D01*
X0210320Y0242070D01*
X0210140Y0242350D01*
X0209980Y0242660D01*
X0209860Y0242980D01*
X0209780Y0243320D01*
X0209740Y0243660D01*
X0209740Y0244000D01*
X0209780Y0244340D01*
X0209860Y0244680D01*
X0209980Y0245000D01*
X0210140Y0245300D01*
X0210320Y0245590D01*
X0210540Y0245850D01*
X0210790Y0246090D01*
X0211070Y0246290D01*
X0211370Y0246470D01*
X0211680Y0246600D01*
X0212010Y0246700D01*
X0212350Y0246760D01*
X0212690Y0246780D01*
X0213030Y0246760D01*
X0213370Y0246700D01*
X0213700Y0246600D01*
X0214010Y0246470D01*
X0214310Y0246290D01*
X0214590Y0246090D01*
X0214840Y0245850D01*
X0215060Y0245590D01*
X0215240Y0245310D01*
X0215400Y0245000D01*
X0215520Y0244680D01*
X0215600Y0244340D01*
X0215640Y0244000D01*
X0215640Y0243660D01*
X0215600Y0243320D01*
X0215520Y0242980D01*
X0215400Y0242660D01*
X0215240Y0242350D01*
X0215060Y0242070D01*
X0214840Y0241810D01*
X0214590Y0241570D01*
X0214310Y0241370D01*
X0214010Y0241190D01*
X0213700Y0241060D01*
X0213370Y0240960D01*
X0213030Y0240900D01*
X0212690Y0240880D01*
X0178410Y0240970D02*
X0178070Y0240990D01*
X0177730Y0241050D01*
X0177400Y0241150D01*
X0177090Y0241280D01*
X0176790Y0241460D01*
X0176510Y0241660D01*
X0176260Y0241900D01*
X0176040Y0242160D01*
X0175860Y0242440D01*
X0175700Y0242750D01*
X0175580Y0243070D01*
X0175500Y0243410D01*
X0175460Y0243750D01*
X0175460Y0244090D01*
X0175500Y0244430D01*
X0175580Y0244770D01*
X0175700Y0245090D01*
X0175860Y0245390D01*
X0176040Y0245680D01*
X0176260Y0245940D01*
X0176510Y0246180D01*
X0176790Y0246380D01*
X0177090Y0246560D01*
X0177400Y0246690D01*
X0177730Y0246790D01*
X0178070Y0246850D01*
X0178410Y0246870D01*
X0178750Y0246850D01*
X0179090Y0246790D01*
X0179420Y0246690D01*
X0179730Y0246560D01*
X0180030Y0246380D01*
X0180310Y0246180D01*
X0180560Y0245940D01*
X0180780Y0245680D01*
X0180960Y0245400D01*
X0181120Y0245090D01*
X0181240Y0244770D01*
X0181320Y0244430D01*
X0181360Y0244090D01*
X0181360Y0243750D01*
X0181320Y0243410D01*
X0181240Y0243070D01*
X0181120Y0242750D01*
X0180960Y0242440D01*
X0180780Y0242160D01*
X0180560Y0241900D01*
X0180310Y0241660D01*
X0180030Y0241460D01*
X0179730Y0241280D01*
X0179420Y0241150D01*
X0179090Y0241050D01*
X0178750Y0240990D01*
X0178410Y0240970D01*
X0152310Y0234240D02*
X0152020Y0234260D01*
X0151740Y0234320D01*
X0151460Y0234410D01*
X0151200Y0234540D01*
X0150970Y0234710D01*
X0150750Y0234900D01*
X0150560Y0235120D01*
X0150410Y0235370D01*
X0150280Y0235630D01*
X0150200Y0235910D01*
X0150150Y0236190D01*
X0150140Y0236480D01*
X0150170Y0236770D01*
X0150240Y0237050D01*
X0150340Y0237320D01*
X0150480Y0237580D01*
X0150650Y0237810D01*
X0150850Y0238020D01*
X0151080Y0238200D01*
X0151330Y0238350D01*
X0151600Y0238460D01*
X0151880Y0238540D01*
X0152170Y0238580D01*
X0152450Y0238580D01*
X0152740Y0238540D01*
X0153020Y0238460D01*
X0153290Y0238350D01*
X0153540Y0238200D01*
X0153770Y0238020D01*
X0153970Y0237810D01*
X0154140Y0237580D01*
X0154280Y0237320D01*
X0154380Y0237050D01*
X0154450Y0236770D01*
X0154480Y0236480D01*
X0154470Y0236190D01*
X0154420Y0235910D01*
X0154340Y0235630D01*
X0154210Y0235370D01*
X0154060Y0235120D01*
X0153870Y0234900D01*
X0153650Y0234710D01*
X0153420Y0234540D01*
X0153160Y0234410D01*
X0152880Y0234320D01*
X0152600Y0234260D01*
X0152310Y0234240D01*
X0152310Y0244240D02*
X0152020Y0244260D01*
X0151740Y0244320D01*
X0151460Y0244410D01*
X0151200Y0244540D01*
X0150970Y0244710D01*
X0150750Y0244900D01*
X0150560Y0245120D01*
X0150410Y0245370D01*
X0150280Y0245630D01*
X0150200Y0245910D01*
X0150150Y0246190D01*
X0150140Y0246480D01*
X0150170Y0246770D01*
X0150240Y0247050D01*
X0150340Y0247320D01*
X0150480Y0247580D01*
X0150650Y0247810D01*
X0150850Y0248020D01*
X0151080Y0248200D01*
X0151330Y0248350D01*
X0151600Y0248460D01*
X0151880Y0248540D01*
X0152170Y0248580D01*
X0152450Y0248580D01*
X0152740Y0248540D01*
X0153020Y0248460D01*
X0153290Y0248350D01*
X0153540Y0248200D01*
X0153770Y0248020D01*
X0153970Y0247810D01*
X0154140Y0247580D01*
X0154280Y0247320D01*
X0154380Y0247050D01*
X0154450Y0246770D01*
X0154480Y0246480D01*
X0154470Y0246190D01*
X0154420Y0245910D01*
X0154340Y0245630D01*
X0154210Y0245370D01*
X0154060Y0245120D01*
X0153870Y0244900D01*
X0153650Y0244710D01*
X0153420Y0244540D01*
X0153160Y0244410D01*
X0152880Y0244320D01*
X0152600Y0244260D01*
X0152310Y0244240D01*
D22*
X0178410Y0243920D03*
X0212690Y0243830D03*
X0247180Y0243660D03*
X0282280Y0243760D03*
X0316990Y0243690D03*
X0353280Y0243790D03*
D36*
X0346260Y0236420D03*
X0339570Y0236420D03*
X0276160Y0235370D03*
X0269460Y0235370D03*
X0206730Y0236610D03*
X0200040Y0236610D03*
D37*
X0376030Y0233840D03*
X0376030Y0240530D03*
D53*
X0170120Y0238330D03*
X0170120Y0245020D03*
D11*
X0162310Y0246410D03*
X0162310Y0236410D03*
D64*
X0152310Y0236410D03*
X0152310Y0246410D03*
X0147740Y0261360D02*
G75*
%LPD*%
D26*
X0380340Y0261360D02*
X0380340Y0284980D01*
X0147740Y0284980D01*
X0147740Y0261360D01*
X0380340Y0261360D01*
D28*
X0368370Y0268070D03*
X0358370Y0268070D03*
X0332090Y0267970D03*
X0322090Y0267970D03*
X0297380Y0268040D03*
X0287380Y0268040D03*
X0262270Y0267940D03*
X0252270Y0267940D03*
X0227790Y0268110D03*
X0217790Y0268110D03*
X0193500Y0268200D03*
X0183500Y0268200D03*
X0188500Y0278200D03*
X0198500Y0278200D03*
X0222790Y0278110D03*
X0232790Y0278110D03*
X0257270Y0277940D03*
X0267270Y0277940D03*
X0292380Y0278040D03*
X0302380Y0278040D03*
X0327090Y0277970D03*
X0337090Y0277970D03*
X0363370Y0278070D03*
X0373370Y0278070D03*
D65*
X0353280Y0272330D02*
X0352940Y0272350D01*
X0352600Y0272410D01*
X0352270Y0272510D01*
X0351960Y0272640D01*
X0351660Y0272820D01*
X0351380Y0273020D01*
X0351130Y0273260D01*
X0350910Y0273520D01*
X0350730Y0273800D01*
X0350570Y0274110D01*
X0350450Y0274430D01*
X0350370Y0274770D01*
X0350330Y0275110D01*
X0350330Y0275450D01*
X0350370Y0275790D01*
X0350450Y0276130D01*
X0350570Y0276450D01*
X0350730Y0276750D01*
X0350910Y0277040D01*
X0351130Y0277300D01*
X0351380Y0277540D01*
X0351660Y0277740D01*
X0351960Y0277920D01*
X0352270Y0278050D01*
X0352600Y0278150D01*
X0352940Y0278210D01*
X0353280Y0278230D01*
X0353620Y0278210D01*
X0353960Y0278150D01*
X0354290Y0278050D01*
X0354600Y0277920D01*
X0354900Y0277740D01*
X0355180Y0277540D01*
X0355430Y0277300D01*
X0355650Y0277040D01*
X0355830Y0276760D01*
X0355990Y0276450D01*
X0356110Y0276130D01*
X0356190Y0275790D01*
X0356230Y0275450D01*
X0356230Y0275110D01*
X0356190Y0274770D01*
X0356110Y0274430D01*
X0355990Y0274110D01*
X0355830Y0273800D01*
X0355650Y0273520D01*
X0355430Y0273260D01*
X0355180Y0273020D01*
X0354900Y0272820D01*
X0354600Y0272640D01*
X0354290Y0272510D01*
X0353960Y0272410D01*
X0353620Y0272350D01*
X0353280Y0272330D01*
X0316990Y0272230D02*
X0316650Y0272250D01*
X0316310Y0272310D01*
X0315980Y0272410D01*
X0315670Y0272540D01*
X0315370Y0272720D01*
X0315090Y0272920D01*
X0314840Y0273160D01*
X0314620Y0273420D01*
X0314440Y0273700D01*
X0314280Y0274010D01*
X0314160Y0274330D01*
X0314080Y0274670D01*
X0314040Y0275010D01*
X0314040Y0275350D01*
X0314080Y0275690D01*
X0314160Y0276030D01*
X0314280Y0276350D01*
X0314440Y0276650D01*
X0314620Y0276940D01*
X0314840Y0277200D01*
X0315090Y0277440D01*
X0315370Y0277640D01*
X0315670Y0277820D01*
X0315980Y0277950D01*
X0316310Y0278050D01*
X0316650Y0278110D01*
X0316990Y0278130D01*
X0317330Y0278110D01*
X0317670Y0278050D01*
X0318000Y0277950D01*
X0318310Y0277820D01*
X0318610Y0277640D01*
X0318890Y0277440D01*
X0319140Y0277200D01*
X0319360Y0276940D01*
X0319540Y0276660D01*
X0319700Y0276350D01*
X0319820Y0276030D01*
X0319900Y0275690D01*
X0319940Y0275350D01*
X0319940Y0275010D01*
X0319900Y0274670D01*
X0319820Y0274330D01*
X0319700Y0274010D01*
X0319540Y0273700D01*
X0319360Y0273420D01*
X0319140Y0273160D01*
X0318890Y0272920D01*
X0318610Y0272720D01*
X0318310Y0272540D01*
X0318000Y0272410D01*
X0317670Y0272310D01*
X0317330Y0272250D01*
X0316990Y0272230D01*
X0282280Y0272300D02*
X0281940Y0272320D01*
X0281600Y0272380D01*
X0281270Y0272480D01*
X0280960Y0272610D01*
X0280660Y0272790D01*
X0280380Y0272990D01*
X0280130Y0273230D01*
X0279910Y0273490D01*
X0279730Y0273770D01*
X0279570Y0274080D01*
X0279450Y0274400D01*
X0279370Y0274740D01*
X0279330Y0275080D01*
X0279330Y0275420D01*
X0279370Y0275760D01*
X0279450Y0276100D01*
X0279570Y0276420D01*
X0279730Y0276720D01*
X0279910Y0277010D01*
X0280130Y0277270D01*
X0280380Y0277510D01*
X0280660Y0277710D01*
X0280960Y0277890D01*
X0281270Y0278020D01*
X0281600Y0278120D01*
X0281940Y0278180D01*
X0282280Y0278200D01*
X0282620Y0278180D01*
X0282960Y0278120D01*
X0283290Y0278020D01*
X0283600Y0277890D01*
X0283900Y0277710D01*
X0284180Y0277510D01*
X0284430Y0277270D01*
X0284650Y0277010D01*
X0284830Y0276730D01*
X0284990Y0276420D01*
X0285110Y0276100D01*
X0285190Y0275760D01*
X0285230Y0275420D01*
X0285230Y0275080D01*
X0285190Y0274740D01*
X0285110Y0274400D01*
X0284990Y0274080D01*
X0284830Y0273770D01*
X0284650Y0273490D01*
X0284430Y0273230D01*
X0284180Y0272990D01*
X0283900Y0272790D01*
X0283600Y0272610D01*
X0283290Y0272480D01*
X0282960Y0272380D01*
X0282620Y0272320D01*
X0282280Y0272300D01*
X0247180Y0272200D02*
X0246840Y0272220D01*
X0246500Y0272280D01*
X0246170Y0272380D01*
X0245860Y0272510D01*
X0245560Y0272690D01*
X0245280Y0272890D01*
X0245030Y0273130D01*
X0244810Y0273390D01*
X0244630Y0273670D01*
X0244470Y0273980D01*
X0244350Y0274300D01*
X0244270Y0274640D01*
X0244230Y0274980D01*
X0244230Y0275320D01*
X0244270Y0275660D01*
X0244350Y0276000D01*
X0244470Y0276320D01*
X0244630Y0276620D01*
X0244810Y0276910D01*
X0245030Y0277170D01*
X0245280Y0277410D01*
X0245560Y0277610D01*
X0245860Y0277790D01*
X0246170Y0277920D01*
X0246500Y0278020D01*
X0246840Y0278080D01*
X0247180Y0278100D01*
X0247520Y0278080D01*
X0247860Y0278020D01*
X0248190Y0277920D01*
X0248500Y0277790D01*
X0248800Y0277610D01*
X0249080Y0277410D01*
X0249330Y0277170D01*
X0249550Y0276910D01*
X0249730Y0276630D01*
X0249890Y0276320D01*
X0250010Y0276000D01*
X0250090Y0275660D01*
X0250130Y0275320D01*
X0250130Y0274980D01*
X0250090Y0274640D01*
X0250010Y0274300D01*
X0249890Y0273980D01*
X0249730Y0273670D01*
X0249550Y0273390D01*
X0249330Y0273130D01*
X0249080Y0272890D01*
X0248800Y0272690D01*
X0248500Y0272510D01*
X0248190Y0272380D01*
X0247860Y0272280D01*
X0247520Y0272220D01*
X0247180Y0272200D01*
X0212690Y0272370D02*
X0212350Y0272390D01*
X0212010Y0272450D01*
X0211680Y0272550D01*
X0211370Y0272680D01*
X0211070Y0272860D01*
X0210790Y0273060D01*
X0210540Y0273300D01*
X0210320Y0273560D01*
X0210140Y0273840D01*
X0209980Y0274150D01*
X0209860Y0274470D01*
X0209780Y0274810D01*
X0209740Y0275150D01*
X0209740Y0275490D01*
X0209780Y0275830D01*
X0209860Y0276170D01*
X0209980Y0276490D01*
X0210140Y0276790D01*
X0210320Y0277080D01*
X0210540Y0277340D01*
X0210790Y0277580D01*
X0211070Y0277780D01*
X0211370Y0277960D01*
X0211680Y0278090D01*
X0212010Y0278190D01*
X0212350Y0278250D01*
X0212690Y0278270D01*
X0213030Y0278250D01*
X0213370Y0278190D01*
X0213700Y0278090D01*
X0214010Y0277960D01*
X0214310Y0277780D01*
X0214590Y0277580D01*
X0214840Y0277340D01*
X0215060Y0277080D01*
X0215240Y0276800D01*
X0215400Y0276490D01*
X0215520Y0276170D01*
X0215600Y0275830D01*
X0215640Y0275490D01*
X0215640Y0275150D01*
X0215600Y0274810D01*
X0215520Y0274470D01*
X0215400Y0274150D01*
X0215240Y0273840D01*
X0215060Y0273560D01*
X0214840Y0273300D01*
X0214590Y0273060D01*
X0214310Y0272860D01*
X0214010Y0272680D01*
X0213700Y0272550D01*
X0213370Y0272450D01*
X0213030Y0272390D01*
X0212690Y0272370D01*
X0178410Y0272460D02*
X0178070Y0272480D01*
X0177730Y0272540D01*
X0177400Y0272640D01*
X0177090Y0272770D01*
X0176790Y0272950D01*
X0176510Y0273150D01*
X0176260Y0273390D01*
X0176040Y0273650D01*
X0175860Y0273930D01*
X0175700Y0274240D01*
X0175580Y0274560D01*
X0175500Y0274900D01*
X0175460Y0275240D01*
X0175460Y0275580D01*
X0175500Y0275920D01*
X0175580Y0276260D01*
X0175700Y0276580D01*
X0175860Y0276880D01*
X0176040Y0277170D01*
X0176260Y0277430D01*
X0176510Y0277670D01*
X0176790Y0277870D01*
X0177090Y0278050D01*
X0177400Y0278180D01*
X0177730Y0278280D01*
X0178070Y0278340D01*
X0178410Y0278360D01*
X0178750Y0278340D01*
X0179090Y0278280D01*
X0179420Y0278180D01*
X0179730Y0278050D01*
X0180030Y0277870D01*
X0180310Y0277670D01*
X0180560Y0277430D01*
X0180780Y0277170D01*
X0180960Y0276890D01*
X0181120Y0276580D01*
X0181240Y0276260D01*
X0181320Y0275920D01*
X0181360Y0275580D01*
X0181360Y0275240D01*
X0181320Y0274900D01*
X0181240Y0274560D01*
X0181120Y0274240D01*
X0180960Y0273930D01*
X0180780Y0273650D01*
X0180560Y0273390D01*
X0180310Y0273150D01*
X0180030Y0272950D01*
X0179730Y0272770D01*
X0179420Y0272640D01*
X0179090Y0272540D01*
X0178750Y0272480D01*
X0178410Y0272460D01*
X0152310Y0265730D02*
X0152020Y0265750D01*
X0151740Y0265810D01*
X0151460Y0265900D01*
X0151200Y0266030D01*
X0150970Y0266200D01*
X0150750Y0266390D01*
X0150560Y0266610D01*
X0150410Y0266860D01*
X0150280Y0267120D01*
X0150200Y0267400D01*
X0150150Y0267680D01*
X0150140Y0267970D01*
X0150170Y0268260D01*
X0150240Y0268540D01*
X0150340Y0268810D01*
X0150480Y0269070D01*
X0150650Y0269300D01*
X0150850Y0269510D01*
X0151080Y0269690D01*
X0151330Y0269840D01*
X0151600Y0269950D01*
X0151880Y0270030D01*
X0152170Y0270070D01*
X0152450Y0270070D01*
X0152740Y0270030D01*
X0153020Y0269950D01*
X0153290Y0269840D01*
X0153540Y0269690D01*
X0153770Y0269510D01*
X0153970Y0269300D01*
X0154140Y0269070D01*
X0154280Y0268810D01*
X0154380Y0268540D01*
X0154450Y0268260D01*
X0154480Y0267970D01*
X0154470Y0267680D01*
X0154420Y0267400D01*
X0154340Y0267120D01*
X0154210Y0266860D01*
X0154060Y0266610D01*
X0153870Y0266390D01*
X0153650Y0266200D01*
X0153420Y0266030D01*
X0153160Y0265900D01*
X0152880Y0265810D01*
X0152600Y0265750D01*
X0152310Y0265730D01*
X0152310Y0275730D02*
X0152020Y0275750D01*
X0151740Y0275810D01*
X0151460Y0275900D01*
X0151200Y0276030D01*
X0150970Y0276200D01*
X0150750Y0276390D01*
X0150560Y0276610D01*
X0150410Y0276860D01*
X0150280Y0277120D01*
X0150200Y0277400D01*
X0150150Y0277680D01*
X0150140Y0277970D01*
X0150170Y0278260D01*
X0150240Y0278540D01*
X0150340Y0278810D01*
X0150480Y0279070D01*
X0150650Y0279300D01*
X0150850Y0279510D01*
X0151080Y0279690D01*
X0151330Y0279840D01*
X0151600Y0279950D01*
X0151880Y0280030D01*
X0152170Y0280070D01*
X0152450Y0280070D01*
X0152740Y0280030D01*
X0153020Y0279950D01*
X0153290Y0279840D01*
X0153540Y0279690D01*
X0153770Y0279510D01*
X0153970Y0279300D01*
X0154140Y0279070D01*
X0154280Y0278810D01*
X0154380Y0278540D01*
X0154450Y0278260D01*
X0154480Y0277970D01*
X0154470Y0277680D01*
X0154420Y0277400D01*
X0154340Y0277120D01*
X0154210Y0276860D01*
X0154060Y0276610D01*
X0153870Y0276390D01*
X0153650Y0276200D01*
X0153420Y0276030D01*
X0153160Y0275900D01*
X0152880Y0275810D01*
X0152600Y0275750D01*
X0152310Y0275730D01*
D22*
X0178410Y0275410D03*
X0212690Y0275320D03*
X0247180Y0275150D03*
X0282280Y0275250D03*
X0316990Y0275180D03*
X0353280Y0275280D03*
D36*
X0346260Y0267910D03*
X0339570Y0267910D03*
X0276160Y0266860D03*
X0269460Y0266860D03*
X0206730Y0268100D03*
X0200040Y0268100D03*
D37*
X0376030Y0265330D03*
X0376030Y0272020D03*
D53*
X0170120Y0269820D03*
X0170120Y0276510D03*
D11*
X0162310Y0277900D03*
X0162310Y0267900D03*
D64*
X0152310Y0267900D03*
X0152310Y0277900D03*
X0147740Y0292850D02*
G75*
%LPD*%
D26*
X0380340Y0292850D02*
X0380340Y0316470D01*
X0147740Y0316470D01*
X0147740Y0292850D01*
X0380340Y0292850D01*
D28*
X0368370Y0299560D03*
X0358370Y0299560D03*
X0332090Y0299460D03*
X0322090Y0299460D03*
X0297380Y0299530D03*
X0287380Y0299530D03*
X0262270Y0299430D03*
X0252270Y0299430D03*
X0227790Y0299600D03*
X0217790Y0299600D03*
X0193500Y0299690D03*
X0183500Y0299690D03*
X0188500Y0309690D03*
X0198500Y0309690D03*
X0222790Y0309600D03*
X0232790Y0309600D03*
X0257270Y0309430D03*
X0267270Y0309430D03*
X0292380Y0309530D03*
X0302380Y0309530D03*
X0327090Y0309460D03*
X0337090Y0309460D03*
X0363370Y0309560D03*
X0373370Y0309560D03*
D65*
X0353280Y0303820D02*
X0352940Y0303840D01*
X0352600Y0303900D01*
X0352270Y0304000D01*
X0351960Y0304130D01*
X0351660Y0304310D01*
X0351380Y0304510D01*
X0351130Y0304750D01*
X0350910Y0305010D01*
X0350730Y0305290D01*
X0350570Y0305600D01*
X0350450Y0305920D01*
X0350370Y0306260D01*
X0350330Y0306600D01*
X0350330Y0306940D01*
X0350370Y0307280D01*
X0350450Y0307620D01*
X0350570Y0307940D01*
X0350730Y0308240D01*
X0350910Y0308530D01*
X0351130Y0308790D01*
X0351380Y0309030D01*
X0351660Y0309230D01*
X0351960Y0309410D01*
X0352270Y0309540D01*
X0352600Y0309640D01*
X0352940Y0309700D01*
X0353280Y0309720D01*
X0353620Y0309700D01*
X0353960Y0309640D01*
X0354290Y0309540D01*
X0354600Y0309410D01*
X0354900Y0309230D01*
X0355180Y0309030D01*
X0355430Y0308790D01*
X0355650Y0308530D01*
X0355830Y0308250D01*
X0355990Y0307940D01*
X0356110Y0307620D01*
X0356190Y0307280D01*
X0356230Y0306940D01*
X0356230Y0306600D01*
X0356190Y0306260D01*
X0356110Y0305920D01*
X0355990Y0305600D01*
X0355830Y0305290D01*
X0355650Y0305010D01*
X0355430Y0304750D01*
X0355180Y0304510D01*
X0354900Y0304310D01*
X0354600Y0304130D01*
X0354290Y0304000D01*
X0353960Y0303900D01*
X0353620Y0303840D01*
X0353280Y0303820D01*
X0316990Y0303720D02*
X0316650Y0303740D01*
X0316310Y0303800D01*
X0315980Y0303900D01*
X0315670Y0304030D01*
X0315370Y0304210D01*
X0315090Y0304410D01*
X0314840Y0304650D01*
X0314620Y0304910D01*
X0314440Y0305190D01*
X0314280Y0305500D01*
X0314160Y0305820D01*
X0314080Y0306160D01*
X0314040Y0306500D01*
X0314040Y0306840D01*
X0314080Y0307180D01*
X0314160Y0307520D01*
X0314280Y0307840D01*
X0314440Y0308140D01*
X0314620Y0308430D01*
X0314840Y0308690D01*
X0315090Y0308930D01*
X0315370Y0309130D01*
X0315670Y0309310D01*
X0315980Y0309440D01*
X0316310Y0309540D01*
X0316650Y0309600D01*
X0316990Y0309620D01*
X0317330Y0309600D01*
X0317670Y0309540D01*
X0318000Y0309440D01*
X0318310Y0309310D01*
X0318610Y0309130D01*
X0318890Y0308930D01*
X0319140Y0308690D01*
X0319360Y0308430D01*
X0319540Y0308150D01*
X0319700Y0307840D01*
X0319820Y0307520D01*
X0319900Y0307180D01*
X0319940Y0306840D01*
X0319940Y0306500D01*
X0319900Y0306160D01*
X0319820Y0305820D01*
X0319700Y0305500D01*
X0319540Y0305190D01*
X0319360Y0304910D01*
X0319140Y0304650D01*
X0318890Y0304410D01*
X0318610Y0304210D01*
X0318310Y0304030D01*
X0318000Y0303900D01*
X0317670Y0303800D01*
X0317330Y0303740D01*
X0316990Y0303720D01*
X0282280Y0303790D02*
X0281940Y0303810D01*
X0281600Y0303870D01*
X0281270Y0303970D01*
X0280960Y0304100D01*
X0280660Y0304280D01*
X0280380Y0304480D01*
X0280130Y0304720D01*
X0279910Y0304980D01*
X0279730Y0305260D01*
X0279570Y0305570D01*
X0279450Y0305890D01*
X0279370Y0306230D01*
X0279330Y0306570D01*
X0279330Y0306910D01*
X0279370Y0307250D01*
X0279450Y0307590D01*
X0279570Y0307910D01*
X0279730Y0308210D01*
X0279910Y0308500D01*
X0280130Y0308760D01*
X0280380Y0309000D01*
X0280660Y0309200D01*
X0280960Y0309380D01*
X0281270Y0309510D01*
X0281600Y0309610D01*
X0281940Y0309670D01*
X0282280Y0309690D01*
X0282620Y0309670D01*
X0282960Y0309610D01*
X0283290Y0309510D01*
X0283600Y0309380D01*
X0283900Y0309200D01*
X0284180Y0309000D01*
X0284430Y0308760D01*
X0284650Y0308500D01*
X0284830Y0308220D01*
X0284990Y0307910D01*
X0285110Y0307590D01*
X0285190Y0307250D01*
X0285230Y0306910D01*
X0285230Y0306570D01*
X0285190Y0306230D01*
X0285110Y0305890D01*
X0284990Y0305570D01*
X0284830Y0305260D01*
X0284650Y0304980D01*
X0284430Y0304720D01*
X0284180Y0304480D01*
X0283900Y0304280D01*
X0283600Y0304100D01*
X0283290Y0303970D01*
X0282960Y0303870D01*
X0282620Y0303810D01*
X0282280Y0303790D01*
X0247180Y0303690D02*
X0246840Y0303710D01*
X0246500Y0303770D01*
X0246170Y0303870D01*
X0245860Y0304000D01*
X0245560Y0304180D01*
X0245280Y0304380D01*
X0245030Y0304620D01*
X0244810Y0304880D01*
X0244630Y0305160D01*
X0244470Y0305470D01*
X0244350Y0305790D01*
X0244270Y0306130D01*
X0244230Y0306470D01*
X0244230Y0306810D01*
X0244270Y0307150D01*
X0244350Y0307490D01*
X0244470Y0307810D01*
X0244630Y0308110D01*
X0244810Y0308400D01*
X0245030Y0308660D01*
X0245280Y0308900D01*
X0245560Y0309100D01*
X0245860Y0309280D01*
X0246170Y0309410D01*
X0246500Y0309510D01*
X0246840Y0309570D01*
X0247180Y0309590D01*
X0247520Y0309570D01*
X0247860Y0309510D01*
X0248190Y0309410D01*
X0248500Y0309280D01*
X0248800Y0309100D01*
X0249080Y0308900D01*
X0249330Y0308660D01*
X0249550Y0308400D01*
X0249730Y0308120D01*
X0249890Y0307810D01*
X0250010Y0307490D01*
X0250090Y0307150D01*
X0250130Y0306810D01*
X0250130Y0306470D01*
X0250090Y0306130D01*
X0250010Y0305790D01*
X0249890Y0305470D01*
X0249730Y0305160D01*
X0249550Y0304880D01*
X0249330Y0304620D01*
X0249080Y0304380D01*
X0248800Y0304180D01*
X0248500Y0304000D01*
X0248190Y0303870D01*
X0247860Y0303770D01*
X0247520Y0303710D01*
X0247180Y0303690D01*
X0212690Y0303860D02*
X0212350Y0303880D01*
X0212010Y0303940D01*
X0211680Y0304040D01*
X0211370Y0304170D01*
X0211070Y0304350D01*
X0210790Y0304550D01*
X0210540Y0304790D01*
X0210320Y0305050D01*
X0210140Y0305330D01*
X0209980Y0305640D01*
X0209860Y0305960D01*
X0209780Y0306300D01*
X0209740Y0306640D01*
X0209740Y0306980D01*
X0209780Y0307320D01*
X0209860Y0307660D01*
X0209980Y0307980D01*
X0210140Y0308280D01*
X0210320Y0308570D01*
X0210540Y0308830D01*
X0210790Y0309070D01*
X0211070Y0309270D01*
X0211370Y0309450D01*
X0211680Y0309580D01*
X0212010Y0309680D01*
X0212350Y0309740D01*
X0212690Y0309760D01*
X0213030Y0309740D01*
X0213370Y0309680D01*
X0213700Y0309580D01*
X0214010Y0309450D01*
X0214310Y0309270D01*
X0214590Y0309070D01*
X0214840Y0308830D01*
X0215060Y0308570D01*
X0215240Y0308290D01*
X0215400Y0307980D01*
X0215520Y0307660D01*
X0215600Y0307320D01*
X0215640Y0306980D01*
X0215640Y0306640D01*
X0215600Y0306300D01*
X0215520Y0305960D01*
X0215400Y0305640D01*
X0215240Y0305330D01*
X0215060Y0305050D01*
X0214840Y0304790D01*
X0214590Y0304550D01*
X0214310Y0304350D01*
X0214010Y0304170D01*
X0213700Y0304040D01*
X0213370Y0303940D01*
X0213030Y0303880D01*
X0212690Y0303860D01*
X0178410Y0303950D02*
X0178070Y0303970D01*
X0177730Y0304030D01*
X0177400Y0304130D01*
X0177090Y0304260D01*
X0176790Y0304440D01*
X0176510Y0304640D01*
X0176260Y0304880D01*
X0176040Y0305140D01*
X0175860Y0305420D01*
X0175700Y0305730D01*
X0175580Y0306050D01*
X0175500Y0306390D01*
X0175460Y0306730D01*
X0175460Y0307070D01*
X0175500Y0307410D01*
X0175580Y0307750D01*
X0175700Y0308070D01*
X0175860Y0308370D01*
X0176040Y0308660D01*
X0176260Y0308920D01*
X0176510Y0309160D01*
X0176790Y0309360D01*
X0177090Y0309540D01*
X0177400Y0309670D01*
X0177730Y0309770D01*
X0178070Y0309830D01*
X0178410Y0309850D01*
X0178750Y0309830D01*
X0179090Y0309770D01*
X0179420Y0309670D01*
X0179730Y0309540D01*
X0180030Y0309360D01*
X0180310Y0309160D01*
X0180560Y0308920D01*
X0180780Y0308660D01*
X0180960Y0308380D01*
X0181120Y0308070D01*
X0181240Y0307750D01*
X0181320Y0307410D01*
X0181360Y0307070D01*
X0181360Y0306730D01*
X0181320Y0306390D01*
X0181240Y0306050D01*
X0181120Y0305730D01*
X0180960Y0305420D01*
X0180780Y0305140D01*
X0180560Y0304880D01*
X0180310Y0304640D01*
X0180030Y0304440D01*
X0179730Y0304260D01*
X0179420Y0304130D01*
X0179090Y0304030D01*
X0178750Y0303970D01*
X0178410Y0303950D01*
X0152310Y0297220D02*
X0152020Y0297240D01*
X0151740Y0297300D01*
X0151460Y0297390D01*
X0151200Y0297520D01*
X0150970Y0297690D01*
X0150750Y0297880D01*
X0150560Y0298100D01*
X0150410Y0298350D01*
X0150280Y0298610D01*
X0150200Y0298890D01*
X0150150Y0299170D01*
X0150140Y0299460D01*
X0150170Y0299750D01*
X0150240Y0300030D01*
X0150340Y0300300D01*
X0150480Y0300560D01*
X0150650Y0300790D01*
X0150850Y0301000D01*
X0151080Y0301180D01*
X0151330Y0301330D01*
X0151600Y0301440D01*
X0151880Y0301520D01*
X0152170Y0301560D01*
X0152450Y0301560D01*
X0152740Y0301520D01*
X0153020Y0301440D01*
X0153290Y0301330D01*
X0153540Y0301180D01*
X0153770Y0301000D01*
X0153970Y0300790D01*
X0154140Y0300560D01*
X0154280Y0300300D01*
X0154380Y0300030D01*
X0154450Y0299750D01*
X0154480Y0299460D01*
X0154470Y0299170D01*
X0154420Y0298890D01*
X0154340Y0298610D01*
X0154210Y0298350D01*
X0154060Y0298100D01*
X0153870Y0297880D01*
X0153650Y0297690D01*
X0153420Y0297520D01*
X0153160Y0297390D01*
X0152880Y0297300D01*
X0152600Y0297240D01*
X0152310Y0297220D01*
X0152310Y0307220D02*
X0152020Y0307240D01*
X0151740Y0307300D01*
X0151460Y0307390D01*
X0151200Y0307520D01*
X0150970Y0307690D01*
X0150750Y0307880D01*
X0150560Y0308100D01*
X0150410Y0308350D01*
X0150280Y0308610D01*
X0150200Y0308890D01*
X0150150Y0309170D01*
X0150140Y0309460D01*
X0150170Y0309750D01*
X0150240Y0310030D01*
X0150340Y0310300D01*
X0150480Y0310560D01*
X0150650Y0310790D01*
X0150850Y0311000D01*
X0151080Y0311180D01*
X0151330Y0311330D01*
X0151600Y0311440D01*
X0151880Y0311520D01*
X0152170Y0311560D01*
X0152450Y0311560D01*
X0152740Y0311520D01*
X0153020Y0311440D01*
X0153290Y0311330D01*
X0153540Y0311180D01*
X0153770Y0311000D01*
X0153970Y0310790D01*
X0154140Y0310560D01*
X0154280Y0310300D01*
X0154380Y0310030D01*
X0154450Y0309750D01*
X0154480Y0309460D01*
X0154470Y0309170D01*
X0154420Y0308890D01*
X0154340Y0308610D01*
X0154210Y0308350D01*
X0154060Y0308100D01*
X0153870Y0307880D01*
X0153650Y0307690D01*
X0153420Y0307520D01*
X0153160Y0307390D01*
X0152880Y0307300D01*
X0152600Y0307240D01*
X0152310Y0307220D01*
D22*
X0178410Y0306900D03*
X0212690Y0306810D03*
X0247180Y0306640D03*
X0282280Y0306740D03*
X0316990Y0306670D03*
X0353280Y0306770D03*
D36*
X0346260Y0299400D03*
X0339570Y0299400D03*
X0276160Y0298350D03*
X0269460Y0298350D03*
X0206730Y0299590D03*
X0200040Y0299590D03*
D37*
X0376030Y0296820D03*
X0376030Y0303510D03*
D53*
X0170120Y0301310D03*
X0170120Y0308000D03*
D11*
X0162310Y0309390D03*
X0162310Y0299390D03*
D64*
X0152310Y0299390D03*
X0152310Y0309390D03*
X0147740Y0324340D02*
G75*
%LPD*%
D26*
X0380340Y0324340D02*
X0380340Y0347960D01*
X0147740Y0347960D01*
X0147740Y0324340D01*
X0380340Y0324340D01*
D28*
X0368370Y0331050D03*
X0358370Y0331050D03*
X0332090Y0330950D03*
X0322090Y0330950D03*
X0297380Y0331020D03*
X0287380Y0331020D03*
X0262270Y0330920D03*
X0252270Y0330920D03*
X0227790Y0331090D03*
X0217790Y0331090D03*
X0193500Y0331180D03*
X0183500Y0331180D03*
X0188500Y0341180D03*
X0198500Y0341180D03*
X0222790Y0341090D03*
X0232790Y0341090D03*
X0257270Y0340920D03*
X0267270Y0340920D03*
X0292380Y0341020D03*
X0302380Y0341020D03*
X0327090Y0340950D03*
X0337090Y0340950D03*
X0363370Y0341050D03*
X0373370Y0341050D03*
D65*
X0353280Y0335310D02*
X0352940Y0335330D01*
X0352600Y0335390D01*
X0352270Y0335490D01*
X0351960Y0335620D01*
X0351660Y0335800D01*
X0351380Y0336000D01*
X0351130Y0336240D01*
X0350910Y0336500D01*
X0350730Y0336780D01*
X0350570Y0337090D01*
X0350450Y0337410D01*
X0350370Y0337750D01*
X0350330Y0338090D01*
X0350330Y0338430D01*
X0350370Y0338770D01*
X0350450Y0339110D01*
X0350570Y0339430D01*
X0350730Y0339730D01*
X0350910Y0340020D01*
X0351130Y0340280D01*
X0351380Y0340520D01*
X0351660Y0340720D01*
X0351960Y0340900D01*
X0352270Y0341030D01*
X0352600Y0341130D01*
X0352940Y0341190D01*
X0353280Y0341210D01*
X0353620Y0341190D01*
X0353960Y0341130D01*
X0354290Y0341030D01*
X0354600Y0340900D01*
X0354900Y0340720D01*
X0355180Y0340520D01*
X0355430Y0340280D01*
X0355650Y0340020D01*
X0355830Y0339740D01*
X0355990Y0339430D01*
X0356110Y0339110D01*
X0356190Y0338770D01*
X0356230Y0338430D01*
X0356230Y0338090D01*
X0356190Y0337750D01*
X0356110Y0337410D01*
X0355990Y0337090D01*
X0355830Y0336780D01*
X0355650Y0336500D01*
X0355430Y0336240D01*
X0355180Y0336000D01*
X0354900Y0335800D01*
X0354600Y0335620D01*
X0354290Y0335490D01*
X0353960Y0335390D01*
X0353620Y0335330D01*
X0353280Y0335310D01*
X0316990Y0335210D02*
X0316650Y0335230D01*
X0316310Y0335290D01*
X0315980Y0335390D01*
X0315670Y0335520D01*
X0315370Y0335700D01*
X0315090Y0335900D01*
X0314840Y0336140D01*
X0314620Y0336400D01*
X0314440Y0336680D01*
X0314280Y0336990D01*
X0314160Y0337310D01*
X0314080Y0337650D01*
X0314040Y0337990D01*
X0314040Y0338330D01*
X0314080Y0338670D01*
X0314160Y0339010D01*
X0314280Y0339330D01*
X0314440Y0339630D01*
X0314620Y0339920D01*
X0314840Y0340180D01*
X0315090Y0340420D01*
X0315370Y0340620D01*
X0315670Y0340800D01*
X0315980Y0340930D01*
X0316310Y0341030D01*
X0316650Y0341090D01*
X0316990Y0341110D01*
X0317330Y0341090D01*
X0317670Y0341030D01*
X0318000Y0340930D01*
X0318310Y0340800D01*
X0318610Y0340620D01*
X0318890Y0340420D01*
X0319140Y0340180D01*
X0319360Y0339920D01*
X0319540Y0339640D01*
X0319700Y0339330D01*
X0319820Y0339010D01*
X0319900Y0338670D01*
X0319940Y0338330D01*
X0319940Y0337990D01*
X0319900Y0337650D01*
X0319820Y0337310D01*
X0319700Y0336990D01*
X0319540Y0336680D01*
X0319360Y0336400D01*
X0319140Y0336140D01*
X0318890Y0335900D01*
X0318610Y0335700D01*
X0318310Y0335520D01*
X0318000Y0335390D01*
X0317670Y0335290D01*
X0317330Y0335230D01*
X0316990Y0335210D01*
X0282280Y0335280D02*
X0281940Y0335300D01*
X0281600Y0335360D01*
X0281270Y0335460D01*
X0280960Y0335590D01*
X0280660Y0335770D01*
X0280380Y0335970D01*
X0280130Y0336210D01*
X0279910Y0336470D01*
X0279730Y0336750D01*
X0279570Y0337060D01*
X0279450Y0337380D01*
X0279370Y0337720D01*
X0279330Y0338060D01*
X0279330Y0338400D01*
X0279370Y0338740D01*
X0279450Y0339080D01*
X0279570Y0339400D01*
X0279730Y0339700D01*
X0279910Y0339990D01*
X0280130Y0340250D01*
X0280380Y0340490D01*
X0280660Y0340690D01*
X0280960Y0340870D01*
X0281270Y0341000D01*
X0281600Y0341100D01*
X0281940Y0341160D01*
X0282280Y0341180D01*
X0282620Y0341160D01*
X0282960Y0341100D01*
X0283290Y0341000D01*
X0283600Y0340870D01*
X0283900Y0340690D01*
X0284180Y0340490D01*
X0284430Y0340250D01*
X0284650Y0339990D01*
X0284830Y0339710D01*
X0284990Y0339400D01*
X0285110Y0339080D01*
X0285190Y0338740D01*
X0285230Y0338400D01*
X0285230Y0338060D01*
X0285190Y0337720D01*
X0285110Y0337380D01*
X0284990Y0337060D01*
X0284830Y0336750D01*
X0284650Y0336470D01*
X0284430Y0336210D01*
X0284180Y0335970D01*
X0283900Y0335770D01*
X0283600Y0335590D01*
X0283290Y0335460D01*
X0282960Y0335360D01*
X0282620Y0335300D01*
X0282280Y0335280D01*
X0247180Y0335180D02*
X0246840Y0335200D01*
X0246500Y0335260D01*
X0246170Y0335360D01*
X0245860Y0335490D01*
X0245560Y0335670D01*
X0245280Y0335870D01*
X0245030Y0336110D01*
X0244810Y0336370D01*
X0244630Y0336650D01*
X0244470Y0336960D01*
X0244350Y0337280D01*
X0244270Y0337620D01*
X0244230Y0337960D01*
X0244230Y0338300D01*
X0244270Y0338640D01*
X0244350Y0338980D01*
X0244470Y0339300D01*
X0244630Y0339600D01*
X0244810Y0339890D01*
X0245030Y0340150D01*
X0245280Y0340390D01*
X0245560Y0340590D01*
X0245860Y0340770D01*
X0246170Y0340900D01*
X0246500Y0341000D01*
X0246840Y0341060D01*
X0247180Y0341080D01*
X0247520Y0341060D01*
X0247860Y0341000D01*
X0248190Y0340900D01*
X0248500Y0340770D01*
X0248800Y0340590D01*
X0249080Y0340390D01*
X0249330Y0340150D01*
X0249550Y0339890D01*
X0249730Y0339610D01*
X0249890Y0339300D01*
X0250010Y0338980D01*
X0250090Y0338640D01*
X0250130Y0338300D01*
X0250130Y0337960D01*
X0250090Y0337620D01*
X0250010Y0337280D01*
X0249890Y0336960D01*
X0249730Y0336650D01*
X0249550Y0336370D01*
X0249330Y0336110D01*
X0249080Y0335870D01*
X0248800Y0335670D01*
X0248500Y0335490D01*
X0248190Y0335360D01*
X0247860Y0335260D01*
X0247520Y0335200D01*
X0247180Y0335180D01*
X0212690Y0335350D02*
X0212350Y0335370D01*
X0212010Y0335430D01*
X0211680Y0335530D01*
X0211370Y0335660D01*
X0211070Y0335840D01*
X0210790Y0336040D01*
X0210540Y0336280D01*
X0210320Y0336540D01*
X0210140Y0336820D01*
X0209980Y0337130D01*
X0209860Y0337450D01*
X0209780Y0337790D01*
X0209740Y0338130D01*
X0209740Y0338470D01*
X0209780Y0338810D01*
X0209860Y0339150D01*
X0209980Y0339470D01*
X0210140Y0339770D01*
X0210320Y0340060D01*
X0210540Y0340320D01*
X0210790Y0340560D01*
X0211070Y0340760D01*
X0211370Y0340940D01*
X0211680Y0341070D01*
X0212010Y0341170D01*
X0212350Y0341230D01*
X0212690Y0341250D01*
X0213030Y0341230D01*
X0213370Y0341170D01*
X0213700Y0341070D01*
X0214010Y0340940D01*
X0214310Y0340760D01*
X0214590Y0340560D01*
X0214840Y0340320D01*
X0215060Y0340060D01*
X0215240Y0339780D01*
X0215400Y0339470D01*
X0215520Y0339150D01*
X0215600Y0338810D01*
X0215640Y0338470D01*
X0215640Y0338130D01*
X0215600Y0337790D01*
X0215520Y0337450D01*
X0215400Y0337130D01*
X0215240Y0336820D01*
X0215060Y0336540D01*
X0214840Y0336280D01*
X0214590Y0336040D01*
X0214310Y0335840D01*
X0214010Y0335660D01*
X0213700Y0335530D01*
X0213370Y0335430D01*
X0213030Y0335370D01*
X0212690Y0335350D01*
X0178410Y0335440D02*
X0178070Y0335460D01*
X0177730Y0335520D01*
X0177400Y0335620D01*
X0177090Y0335750D01*
X0176790Y0335930D01*
X0176510Y0336130D01*
X0176260Y0336370D01*
X0176040Y0336630D01*
X0175860Y0336910D01*
X0175700Y0337220D01*
X0175580Y0337540D01*
X0175500Y0337880D01*
X0175460Y0338220D01*
X0175460Y0338560D01*
X0175500Y0338900D01*
X0175580Y0339240D01*
X0175700Y0339560D01*
X0175860Y0339860D01*
X0176040Y0340150D01*
X0176260Y0340410D01*
X0176510Y0340650D01*
X0176790Y0340850D01*
X0177090Y0341030D01*
X0177400Y0341160D01*
X0177730Y0341260D01*
X0178070Y0341320D01*
X0178410Y0341340D01*
X0178750Y0341320D01*
X0179090Y0341260D01*
X0179420Y0341160D01*
X0179730Y0341030D01*
X0180030Y0340850D01*
X0180310Y0340650D01*
X0180560Y0340410D01*
X0180780Y0340150D01*
X0180960Y0339870D01*
X0181120Y0339560D01*
X0181240Y0339240D01*
X0181320Y0338900D01*
X0181360Y0338560D01*
X0181360Y0338220D01*
X0181320Y0337880D01*
X0181240Y0337540D01*
X0181120Y0337220D01*
X0180960Y0336910D01*
X0180780Y0336630D01*
X0180560Y0336370D01*
X0180310Y0336130D01*
X0180030Y0335930D01*
X0179730Y0335750D01*
X0179420Y0335620D01*
X0179090Y0335520D01*
X0178750Y0335460D01*
X0178410Y0335440D01*
X0152310Y0328710D02*
X0152020Y0328730D01*
X0151740Y0328790D01*
X0151460Y0328880D01*
X0151200Y0329010D01*
X0150970Y0329180D01*
X0150750Y0329370D01*
X0150560Y0329590D01*
X0150410Y0329840D01*
X0150280Y0330100D01*
X0150200Y0330380D01*
X0150150Y0330660D01*
X0150140Y0330950D01*
X0150170Y0331240D01*
X0150240Y0331520D01*
X0150340Y0331790D01*
X0150480Y0332050D01*
X0150650Y0332280D01*
X0150850Y0332490D01*
X0151080Y0332670D01*
X0151330Y0332820D01*
X0151600Y0332930D01*
X0151880Y0333010D01*
X0152170Y0333050D01*
X0152450Y0333050D01*
X0152740Y0333010D01*
X0153020Y0332930D01*
X0153290Y0332820D01*
X0153540Y0332670D01*
X0153770Y0332490D01*
X0153970Y0332280D01*
X0154140Y0332050D01*
X0154280Y0331790D01*
X0154380Y0331520D01*
X0154450Y0331240D01*
X0154480Y0330950D01*
X0154470Y0330660D01*
X0154420Y0330380D01*
X0154340Y0330100D01*
X0154210Y0329840D01*
X0154060Y0329590D01*
X0153870Y0329370D01*
X0153650Y0329180D01*
X0153420Y0329010D01*
X0153160Y0328880D01*
X0152880Y0328790D01*
X0152600Y0328730D01*
X0152310Y0328710D01*
X0152310Y0338710D02*
X0152020Y0338730D01*
X0151740Y0338790D01*
X0151460Y0338880D01*
X0151200Y0339010D01*
X0150970Y0339180D01*
X0150750Y0339370D01*
X0150560Y0339590D01*
X0150410Y0339840D01*
X0150280Y0340100D01*
X0150200Y0340380D01*
X0150150Y0340660D01*
X0150140Y0340950D01*
X0150170Y0341240D01*
X0150240Y0341520D01*
X0150340Y0341790D01*
X0150480Y0342050D01*
X0150650Y0342280D01*
X0150850Y0342490D01*
X0151080Y0342670D01*
X0151330Y0342820D01*
X0151600Y0342930D01*
X0151880Y0343010D01*
X0152170Y0343050D01*
X0152450Y0343050D01*
X0152740Y0343010D01*
X0153020Y0342930D01*
X0153290Y0342820D01*
X0153540Y0342670D01*
X0153770Y0342490D01*
X0153970Y0342280D01*
X0154140Y0342050D01*
X0154280Y0341790D01*
X0154380Y0341520D01*
X0154450Y0341240D01*
X0154480Y0340950D01*
X0154470Y0340660D01*
X0154420Y0340380D01*
X0154340Y0340100D01*
X0154210Y0339840D01*
X0154060Y0339590D01*
X0153870Y0339370D01*
X0153650Y0339180D01*
X0153420Y0339010D01*
X0153160Y0338880D01*
X0152880Y0338790D01*
X0152600Y0338730D01*
X0152310Y0338710D01*
D22*
X0178410Y0338390D03*
X0212690Y0338300D03*
X0247180Y0338130D03*
X0282280Y0338230D03*
X0316990Y0338160D03*
X0353280Y0338260D03*
D36*
X0346260Y0330890D03*
X0339570Y0330890D03*
X0276160Y0329840D03*
X0269460Y0329840D03*
X0206730Y0331080D03*
X0200040Y0331080D03*
D37*
X0376030Y0328310D03*
X0376030Y0335000D03*
D53*
X0170120Y0332800D03*
X0170120Y0339490D03*
D11*
X0162310Y0340880D03*
X0162310Y0330880D03*
D64*
X0152310Y0330880D03*
X0152310Y0340880D03*
M02*
