G75*
G70*
%OFA0B0*%
%FSLAX24Y24*%
%IPPOS*%
%LPD*%
%AMOC8*
5,1,8,0,0,1.08239X$1,22.5*
%
%ADD10C,0.1143*%
%ADD11C,0.0780*%
%ADD12R,0.0316X0.0789*%
%ADD13R,0.0236X0.0592*%
%ADD14R,0.0225X0.0592*%
%ADD15R,0.0474X0.0474*%
%ADD16R,0.0470X0.0480*%
%ADD17C,0.0634*%
%ADD18C,0.0671*%
%ADD19R,0.0789X0.0631*%
%ADD20R,0.0960X0.0560*%
%ADD21R,0.0946X0.1497*%
%ADD22R,0.0710X0.0540*%
%ADD23R,0.0720X0.0060*%
%ADD24R,0.0631X0.1143*%
%ADD25R,0.0540X0.0710*%
%ADD26R,0.0060X0.0720*%
%ADD27R,0.0480X0.0470*%
%ADD28R,0.1419X0.0671*%
%ADD29R,0.0280X0.0480*%
%ADD30R,0.0100X0.0200*%
D10*
X003106Y011121D03*
X021906Y011121D03*
D11*
X002506Y005721D03*
X003506Y005721D03*
X004506Y005721D03*
X005506Y005721D03*
X006506Y005721D03*
X007506Y005721D03*
X008506Y005721D03*
X009506Y005721D03*
X010506Y005721D03*
X011506Y005721D03*
X012506Y005721D03*
X013506Y005721D03*
X014506Y005721D03*
X015506Y005721D03*
X016506Y005721D03*
X017506Y005721D03*
X018506Y005721D03*
X019506Y005721D03*
X020506Y005721D03*
X021506Y005721D03*
X022506Y005721D03*
D12*
X011156Y007410D03*
X010656Y007410D03*
X010156Y007410D03*
X009656Y007410D03*
X009656Y009331D03*
X010156Y009331D03*
X010656Y009331D03*
X011156Y009331D03*
D13*
X013804Y009353D03*
X014060Y009353D03*
X014316Y009353D03*
X014572Y009353D03*
X014828Y009353D03*
X015084Y009353D03*
X015340Y009353D03*
X015595Y009353D03*
X015851Y009353D03*
X016107Y009353D03*
X015851Y007089D03*
X015595Y007089D03*
X015340Y007089D03*
X015084Y007089D03*
X014828Y007089D03*
X014572Y007089D03*
X014316Y007089D03*
X014060Y007089D03*
X013804Y007089D03*
D14*
X016107Y007089D03*
D15*
X016621Y008071D03*
X017290Y008071D03*
X018956Y008786D03*
X018956Y009455D03*
X017906Y010636D03*
X017906Y011305D03*
X013606Y011305D03*
X013606Y010636D03*
X010890Y011321D03*
X010221Y011321D03*
X002906Y009555D03*
X002906Y008886D03*
X020421Y006671D03*
X021090Y006671D03*
D16*
X017290Y007021D03*
X016621Y007021D03*
X016621Y008771D03*
X017290Y008771D03*
X013090Y008321D03*
X012421Y008321D03*
X010690Y006671D03*
X010021Y006671D03*
D17*
X008106Y009571D03*
X007106Y010071D03*
X008106Y010571D03*
X007106Y011071D03*
D18*
X007827Y011580D03*
D19*
X014496Y011422D03*
X014496Y010418D03*
X017016Y010418D03*
X017016Y011422D03*
D20*
X019836Y009281D03*
X019836Y008371D03*
X019836Y007461D03*
D21*
X022276Y008371D03*
D22*
X018906Y008121D03*
X018906Y007521D03*
X005406Y007171D03*
X005406Y006571D03*
X003506Y006571D03*
X003506Y007171D03*
D23*
X003506Y006871D03*
X005406Y006871D03*
X018906Y007821D03*
D24*
X006057Y008121D03*
X004915Y008121D03*
D25*
X012056Y009721D03*
X012656Y009721D03*
X012656Y011271D03*
X012056Y011271D03*
D26*
X012356Y011271D03*
X012356Y009721D03*
D27*
X009006Y009855D03*
X009006Y009186D03*
D28*
X007856Y008398D03*
X007856Y006744D03*
D29*
X010346Y010121D03*
X010656Y010121D03*
X010966Y010121D03*
D30*
X010806Y010121D03*
M02*
