G75*
G70*
%OFA0B0*%
%FSLAX24Y24*%
%IPPOS*%
%LPD*%
%AMOC8*
5,1,8,0,0,1.08239X$1,22.5*
%
%ADD10C,0.1143*%
%ADD11C,0.0780*%
%ADD12C,0.0634*%
%ADD13C,0.0671*%
%ADD14R,0.0789X0.0316*%
%ADD15R,0.0960X0.0560*%
%ADD16R,0.0946X0.1497*%
%ADD17R,0.0474X0.0474*%
%ADD18R,0.0540X0.0710*%
%ADD19R,0.0060X0.0720*%
D10*
X004158Y011121D03*
X022958Y011121D03*
D11*
X003558Y005721D03*
X004558Y005721D03*
X005558Y005721D03*
X006558Y005721D03*
X007558Y005721D03*
X008558Y005721D03*
X009558Y005721D03*
X010558Y005721D03*
X011558Y005721D03*
X012558Y005721D03*
X013558Y005721D03*
X014558Y005721D03*
X015558Y005721D03*
X016558Y005721D03*
X017558Y005721D03*
X018558Y005721D03*
X019558Y005721D03*
X020558Y005721D03*
X021558Y005721D03*
X022558Y005721D03*
X023558Y005721D03*
D12*
X017958Y009571D03*
X018958Y010071D03*
X017958Y010571D03*
X018958Y011071D03*
D13*
X018237Y011580D03*
D14*
X014269Y009371D03*
X014269Y008871D03*
X014269Y008371D03*
X014269Y007871D03*
X012347Y007871D03*
X012347Y008371D03*
X012347Y008871D03*
X012347Y009371D03*
D15*
X023178Y009481D03*
X023178Y008571D03*
X023178Y007661D03*
D16*
X020738Y008571D03*
D17*
X015058Y008286D03*
X015058Y008955D03*
X011643Y007471D03*
X010973Y007471D03*
D18*
X018058Y007321D03*
X018658Y007321D03*
D19*
X018358Y007321D03*
M02*
