G75*
G70*
%OFA0B0*%
%FSLAX24Y24*%
%IPPOS*%
%LPD*%
%AMOC8*
5,1,8,0,0,1.08239X$1,22.5*
%
%ADD10C,0.0000*%
%ADD11C,0.0090*%
%ADD12C,0.0100*%
%ADD13C,0.0050*%
D10*
X002006Y005221D02*
X002006Y012271D01*
X023006Y012271D01*
X023006Y005221D01*
X002006Y005221D01*
X002575Y011121D02*
X002577Y011169D01*
X002584Y011217D01*
X002595Y011264D01*
X002610Y011310D01*
X002629Y011354D01*
X002652Y011397D01*
X002679Y011437D01*
X002710Y011475D01*
X002744Y011509D01*
X002780Y011540D01*
X002820Y011568D01*
X002862Y011592D01*
X002906Y011613D01*
X002951Y011629D01*
X002998Y011641D01*
X003046Y011649D01*
X003094Y011652D01*
X003142Y011651D01*
X003190Y011645D01*
X003238Y011635D01*
X003284Y011621D01*
X003329Y011603D01*
X003371Y011581D01*
X003412Y011555D01*
X003450Y011525D01*
X003486Y011492D01*
X003518Y011456D01*
X003547Y011417D01*
X003572Y011376D01*
X003593Y011333D01*
X003610Y011287D01*
X003623Y011241D01*
X003632Y011193D01*
X003636Y011145D01*
X003636Y011097D01*
X003632Y011049D01*
X003623Y011001D01*
X003610Y010955D01*
X003593Y010909D01*
X003572Y010866D01*
X003547Y010825D01*
X003518Y010786D01*
X003486Y010750D01*
X003450Y010717D01*
X003412Y010687D01*
X003372Y010661D01*
X003329Y010639D01*
X003284Y010621D01*
X003238Y010607D01*
X003190Y010597D01*
X003142Y010591D01*
X003094Y010590D01*
X003046Y010593D01*
X002998Y010601D01*
X002951Y010613D01*
X002906Y010629D01*
X002862Y010650D01*
X002820Y010674D01*
X002780Y010702D01*
X002744Y010733D01*
X002710Y010767D01*
X002679Y010805D01*
X002652Y010845D01*
X002629Y010888D01*
X002610Y010932D01*
X002595Y010978D01*
X002584Y011025D01*
X002577Y011073D01*
X002575Y011121D01*
X007532Y011580D02*
X007534Y011615D01*
X007540Y011649D01*
X007550Y011683D01*
X007565Y011715D01*
X007582Y011745D01*
X007604Y011773D01*
X007628Y011798D01*
X007655Y011820D01*
X007685Y011838D01*
X007716Y011853D01*
X007749Y011865D01*
X007783Y011872D01*
X007818Y011875D01*
X007853Y011874D01*
X007888Y011869D01*
X007921Y011859D01*
X007954Y011846D01*
X007984Y011829D01*
X008013Y011809D01*
X008039Y011785D01*
X008061Y011759D01*
X008081Y011730D01*
X008097Y011699D01*
X008109Y011666D01*
X008117Y011632D01*
X008121Y011597D01*
X008121Y011563D01*
X008117Y011528D01*
X008109Y011494D01*
X008097Y011461D01*
X008081Y011430D01*
X008061Y011401D01*
X008039Y011375D01*
X008013Y011351D01*
X007984Y011331D01*
X007954Y011314D01*
X007921Y011301D01*
X007888Y011291D01*
X007853Y011286D01*
X007818Y011285D01*
X007783Y011288D01*
X007749Y011295D01*
X007716Y011307D01*
X007685Y011322D01*
X007655Y011340D01*
X007628Y011362D01*
X007604Y011387D01*
X007582Y011415D01*
X007565Y011445D01*
X007550Y011477D01*
X007540Y011511D01*
X007534Y011545D01*
X007532Y011580D01*
X021375Y011121D02*
X021377Y011169D01*
X021384Y011217D01*
X021395Y011264D01*
X021410Y011310D01*
X021429Y011354D01*
X021452Y011397D01*
X021479Y011437D01*
X021510Y011475D01*
X021544Y011509D01*
X021580Y011540D01*
X021620Y011568D01*
X021662Y011592D01*
X021706Y011613D01*
X021751Y011629D01*
X021798Y011641D01*
X021846Y011649D01*
X021894Y011652D01*
X021942Y011651D01*
X021990Y011645D01*
X022038Y011635D01*
X022084Y011621D01*
X022129Y011603D01*
X022171Y011581D01*
X022212Y011555D01*
X022250Y011525D01*
X022286Y011492D01*
X022318Y011456D01*
X022347Y011417D01*
X022372Y011376D01*
X022393Y011333D01*
X022410Y011287D01*
X022423Y011241D01*
X022432Y011193D01*
X022436Y011145D01*
X022436Y011097D01*
X022432Y011049D01*
X022423Y011001D01*
X022410Y010955D01*
X022393Y010909D01*
X022372Y010866D01*
X022347Y010825D01*
X022318Y010786D01*
X022286Y010750D01*
X022250Y010717D01*
X022212Y010687D01*
X022172Y010661D01*
X022129Y010639D01*
X022084Y010621D01*
X022038Y010607D01*
X021990Y010597D01*
X021942Y010591D01*
X021894Y010590D01*
X021846Y010593D01*
X021798Y010601D01*
X021751Y010613D01*
X021706Y010629D01*
X021662Y010650D01*
X021620Y010674D01*
X021580Y010702D01*
X021544Y010733D01*
X021510Y010767D01*
X021479Y010805D01*
X021452Y010845D01*
X021429Y010888D01*
X021410Y010932D01*
X021395Y010978D01*
X021384Y011025D01*
X021377Y011073D01*
X021375Y011121D01*
D11*
X006414Y010271D02*
X006414Y010203D01*
X006140Y010203D01*
X006140Y010271D02*
X006209Y010339D01*
X006346Y010339D01*
X006414Y010271D01*
X006346Y010066D02*
X006209Y010066D01*
X006140Y010134D01*
X006140Y010271D01*
X005954Y010339D02*
X005748Y010339D01*
X005680Y010271D01*
X005748Y010203D01*
X005885Y010203D01*
X005954Y010134D01*
X005885Y010066D01*
X005680Y010066D01*
X005518Y010066D02*
X005450Y010066D01*
X005450Y010134D01*
X005518Y010134D01*
X005518Y010066D01*
X005280Y010066D02*
X005143Y010066D01*
X005211Y010066D02*
X005211Y010476D01*
X005143Y010476D01*
X004956Y010271D02*
X004888Y010339D01*
X004819Y010271D01*
X004819Y010066D01*
X004683Y010066D02*
X004683Y010339D01*
X004751Y010339D01*
X004819Y010271D01*
X004956Y010271D02*
X004956Y010066D01*
X004496Y010066D02*
X004496Y010339D01*
X004222Y010339D02*
X004222Y010134D01*
X004291Y010066D01*
X004496Y010066D01*
X004035Y010066D02*
X003830Y010066D01*
X003762Y010134D01*
X003830Y010203D01*
X004035Y010203D01*
X004035Y010271D02*
X004035Y010066D01*
X004035Y010271D02*
X003967Y010339D01*
X003830Y010339D01*
X003600Y010134D02*
X003600Y010066D01*
X003532Y010066D01*
X003532Y010134D01*
X003600Y010134D01*
X003345Y010134D02*
X003345Y010339D01*
X003071Y010339D02*
X003071Y010134D01*
X003140Y010066D01*
X003208Y010134D01*
X003277Y010066D01*
X003345Y010134D01*
X002885Y010134D02*
X002885Y010339D01*
X002611Y010339D02*
X002611Y010134D01*
X002679Y010066D01*
X002748Y010134D01*
X002816Y010066D01*
X002885Y010134D01*
X002424Y010134D02*
X002424Y010339D01*
X002151Y010339D02*
X002151Y010134D01*
X002219Y010066D01*
X002287Y010134D01*
X002356Y010066D01*
X002424Y010134D01*
X004337Y011266D02*
X004474Y011539D01*
X004661Y011539D02*
X004798Y011676D01*
X004798Y011266D01*
X004661Y011266D02*
X004935Y011266D01*
X004337Y011266D02*
X004201Y011539D01*
X004266Y011866D02*
X004060Y011866D01*
X003992Y011934D01*
X003992Y012071D01*
X004060Y012139D01*
X004266Y012139D01*
X004521Y012139D02*
X004658Y012139D01*
X004726Y012071D01*
X004726Y011866D01*
X004521Y011866D01*
X004452Y011934D01*
X004521Y012003D01*
X004726Y012003D01*
X004913Y011866D02*
X004913Y012139D01*
X005118Y012139D01*
X005186Y012071D01*
X005186Y011866D01*
X003805Y012071D02*
X003532Y012071D01*
X003345Y012071D02*
X003345Y011934D01*
X003277Y011866D01*
X003071Y011866D01*
X003071Y011729D02*
X003071Y012139D01*
X003277Y012139D01*
X003345Y012071D01*
X002885Y012139D02*
X002611Y011866D01*
X002424Y012003D02*
X002151Y012003D01*
X002151Y012071D02*
X002151Y011934D01*
X002219Y011866D01*
X002356Y011866D01*
X002424Y012003D02*
X002424Y012071D01*
X002356Y012139D01*
X002219Y012139D01*
X002151Y012071D01*
X002611Y012139D02*
X002885Y011866D01*
D12*
X010136Y010331D02*
X010136Y009911D01*
X010139Y009891D01*
X010146Y009871D01*
X010157Y009854D01*
X010170Y009838D01*
X010187Y009826D01*
X010205Y009817D01*
X010225Y009812D01*
X010246Y009811D01*
X011086Y009811D01*
X011104Y009814D01*
X011122Y009820D01*
X011138Y009830D01*
X011152Y009842D01*
X011163Y009857D01*
X011171Y009874D01*
X011175Y009892D01*
X011176Y009911D01*
X011176Y010331D01*
X011174Y010351D01*
X011168Y010369D01*
X011159Y010387D01*
X011147Y010402D01*
X011132Y010414D01*
X011114Y010423D01*
X011096Y010429D01*
X011076Y010431D01*
X010236Y010431D01*
X010216Y010429D01*
X010198Y010423D01*
X010180Y010414D01*
X010165Y010402D01*
X010153Y010387D01*
X010144Y010369D01*
X010138Y010351D01*
X010136Y010331D01*
X011706Y010021D02*
X011706Y009421D01*
X011708Y009401D01*
X011714Y009383D01*
X011723Y009365D01*
X011735Y009350D01*
X011750Y009338D01*
X011768Y009329D01*
X011786Y009323D01*
X011806Y009321D01*
X012906Y009321D01*
X012926Y009323D01*
X012944Y009329D01*
X012962Y009338D01*
X012977Y009350D01*
X012989Y009365D01*
X012998Y009383D01*
X013004Y009401D01*
X013006Y009421D01*
X013006Y010021D01*
X013004Y010041D01*
X012998Y010059D01*
X012989Y010077D01*
X012977Y010092D01*
X012962Y010104D01*
X012944Y010113D01*
X012926Y010119D01*
X012906Y010121D01*
X011806Y010121D01*
X011786Y010119D01*
X011768Y010113D01*
X011750Y010104D01*
X011735Y010092D01*
X011723Y010077D01*
X011714Y010059D01*
X011708Y010041D01*
X011706Y010021D01*
X011806Y010871D02*
X012906Y010871D01*
X012926Y010873D01*
X012944Y010879D01*
X012962Y010888D01*
X012977Y010900D01*
X012989Y010915D01*
X012998Y010933D01*
X013004Y010951D01*
X013006Y010971D01*
X013006Y011571D01*
X013004Y011591D01*
X012998Y011609D01*
X012989Y011627D01*
X012977Y011642D01*
X012962Y011654D01*
X012944Y011663D01*
X012926Y011669D01*
X012906Y011671D01*
X011806Y011671D01*
X011786Y011669D01*
X011768Y011663D01*
X011750Y011654D01*
X011735Y011642D01*
X011723Y011627D01*
X011714Y011609D01*
X011708Y011591D01*
X011706Y011571D01*
X011706Y010971D01*
X011708Y010951D01*
X011714Y010933D01*
X011723Y010915D01*
X011735Y010900D01*
X011750Y010888D01*
X011768Y010879D01*
X011786Y010873D01*
X011806Y010871D01*
X011095Y008784D02*
X011097Y008799D01*
X011103Y008813D01*
X011112Y008826D01*
X011124Y008835D01*
X011139Y008841D01*
X011154Y008843D01*
X011169Y008841D01*
X011183Y008835D01*
X011196Y008826D01*
X011205Y008814D01*
X011211Y008799D01*
X011213Y008784D01*
X011211Y008769D01*
X011205Y008755D01*
X011196Y008742D01*
X011184Y008733D01*
X011169Y008727D01*
X011154Y008725D01*
X011139Y008727D01*
X011125Y008733D01*
X011112Y008742D01*
X011103Y008754D01*
X011097Y008769D01*
X011095Y008784D01*
X016048Y008929D02*
X016050Y008944D01*
X016056Y008958D01*
X016065Y008971D01*
X016077Y008980D01*
X016092Y008986D01*
X016107Y008988D01*
X016122Y008986D01*
X016136Y008980D01*
X016149Y008971D01*
X016158Y008959D01*
X016164Y008944D01*
X016166Y008929D01*
X016164Y008914D01*
X016158Y008900D01*
X016149Y008887D01*
X016137Y008878D01*
X016122Y008872D01*
X016107Y008870D01*
X016092Y008872D01*
X016078Y008878D01*
X016065Y008887D01*
X016056Y008899D01*
X016050Y008914D01*
X016048Y008929D01*
X018506Y008371D02*
X018506Y007271D01*
X018508Y007251D01*
X018514Y007233D01*
X018523Y007215D01*
X018535Y007200D01*
X018550Y007188D01*
X018568Y007179D01*
X018586Y007173D01*
X018606Y007171D01*
X019206Y007171D01*
X019226Y007173D01*
X019244Y007179D01*
X019262Y007188D01*
X019277Y007200D01*
X019289Y007215D01*
X019298Y007233D01*
X019304Y007251D01*
X019306Y007271D01*
X019306Y008371D01*
X019304Y008391D01*
X019298Y008409D01*
X019289Y008427D01*
X019277Y008442D01*
X019262Y008454D01*
X019244Y008463D01*
X019226Y008469D01*
X019206Y008471D01*
X018606Y008471D01*
X018586Y008469D01*
X018568Y008463D01*
X018550Y008454D01*
X018535Y008442D01*
X018523Y008427D01*
X018514Y008409D01*
X018508Y008391D01*
X018506Y008371D01*
X020356Y007081D02*
X020356Y009661D01*
X021756Y009661D01*
X021756Y007081D01*
X020356Y007081D01*
X005806Y007421D02*
X005806Y006321D01*
X005804Y006301D01*
X005798Y006283D01*
X005789Y006265D01*
X005777Y006250D01*
X005762Y006238D01*
X005744Y006229D01*
X005726Y006223D01*
X005706Y006221D01*
X005106Y006221D01*
X005086Y006223D01*
X005068Y006229D01*
X005050Y006238D01*
X005035Y006250D01*
X005023Y006265D01*
X005014Y006283D01*
X005008Y006301D01*
X005006Y006321D01*
X005006Y007421D01*
X005008Y007441D01*
X005014Y007459D01*
X005023Y007477D01*
X005035Y007492D01*
X005050Y007504D01*
X005068Y007513D01*
X005086Y007519D01*
X005106Y007521D01*
X005706Y007521D01*
X005726Y007519D01*
X005744Y007513D01*
X005762Y007504D01*
X005777Y007492D01*
X005789Y007477D01*
X005798Y007459D01*
X005804Y007441D01*
X005806Y007421D01*
X003906Y007421D02*
X003906Y006321D01*
X003904Y006301D01*
X003898Y006283D01*
X003889Y006265D01*
X003877Y006250D01*
X003862Y006238D01*
X003844Y006229D01*
X003826Y006223D01*
X003806Y006221D01*
X003206Y006221D01*
X003186Y006223D01*
X003168Y006229D01*
X003150Y006238D01*
X003135Y006250D01*
X003123Y006265D01*
X003114Y006283D01*
X003108Y006301D01*
X003106Y006321D01*
X003106Y007421D01*
X003108Y007441D01*
X003114Y007459D01*
X003123Y007477D01*
X003135Y007492D01*
X003150Y007504D01*
X003168Y007513D01*
X003186Y007519D01*
X003206Y007521D01*
X003806Y007521D01*
X003826Y007519D01*
X003844Y007513D01*
X003862Y007504D01*
X003877Y007492D01*
X003889Y007477D01*
X003898Y007459D01*
X003904Y007441D01*
X003906Y007421D01*
D13*
X003000Y006954D02*
X003000Y006913D01*
X002958Y006871D01*
X003000Y006829D01*
X003000Y006787D01*
X002958Y006746D01*
X002875Y006746D01*
X002833Y006787D01*
X002916Y006871D02*
X002958Y006871D01*
X003000Y006954D02*
X002958Y006996D01*
X002875Y006996D01*
X002833Y006954D01*
X002724Y006996D02*
X002640Y006996D01*
X002682Y006996D02*
X002682Y006787D01*
X002640Y006746D01*
X002599Y006746D01*
X002557Y006787D01*
X002447Y006787D02*
X002406Y006746D01*
X002322Y006746D01*
X002281Y006787D01*
X002322Y006871D02*
X002406Y006871D01*
X002447Y006829D01*
X002447Y006787D01*
X002322Y006871D02*
X002281Y006913D01*
X002281Y006954D01*
X002322Y006996D01*
X002406Y006996D01*
X002447Y006954D01*
X002720Y008346D02*
X002803Y008346D01*
X002845Y008387D01*
X002954Y008387D02*
X002954Y008471D01*
X003080Y008471D01*
X003121Y008429D01*
X003121Y008387D01*
X003080Y008346D01*
X002996Y008346D01*
X002954Y008387D01*
X002954Y008471D02*
X003038Y008554D01*
X003121Y008596D01*
X002845Y008554D02*
X002803Y008596D01*
X002720Y008596D01*
X002678Y008554D01*
X002678Y008387D01*
X002720Y008346D01*
X005246Y008581D02*
X005726Y008581D01*
X005682Y008746D02*
X005599Y008746D01*
X005557Y008787D01*
X005557Y008871D02*
X005640Y008913D01*
X005682Y008913D01*
X005724Y008871D01*
X005724Y008787D01*
X005682Y008746D01*
X005557Y008871D02*
X005557Y008996D01*
X005724Y008996D01*
X005447Y008954D02*
X005406Y008996D01*
X005322Y008996D01*
X005281Y008954D01*
X005281Y008787D01*
X005322Y008746D01*
X005406Y008746D01*
X005447Y008787D01*
X006661Y008959D02*
X006661Y011683D01*
X007106Y011683D01*
X007106Y011371D01*
X007113Y011371D02*
X008106Y011371D01*
X008106Y011683D01*
X008551Y011683D01*
X008551Y008959D01*
X006661Y008959D01*
X007285Y008023D02*
X007285Y007109D01*
X006700Y007004D02*
X006658Y007046D01*
X006575Y007046D01*
X006533Y007004D01*
X006424Y007046D02*
X006340Y007046D01*
X006382Y007046D02*
X006382Y006837D01*
X006340Y006796D01*
X006299Y006796D01*
X006257Y006837D01*
X006147Y006837D02*
X006106Y006796D01*
X006022Y006796D01*
X005981Y006837D01*
X006022Y006921D02*
X005981Y006963D01*
X005981Y007004D01*
X006022Y007046D01*
X006106Y007046D01*
X006147Y007004D01*
X006106Y006921D02*
X006147Y006879D01*
X006147Y006837D01*
X006106Y006921D02*
X006022Y006921D01*
X006533Y006796D02*
X006700Y006963D01*
X006700Y007004D01*
X006700Y006796D02*
X006533Y006796D01*
X005726Y007661D02*
X005246Y007661D01*
X008427Y008033D02*
X008427Y007109D01*
X008581Y007446D02*
X008747Y007446D01*
X008857Y007446D02*
X009024Y007446D01*
X008940Y007446D02*
X008940Y007696D01*
X008857Y007613D01*
X008581Y007696D02*
X008581Y007446D01*
X008794Y008096D02*
X008877Y008096D01*
X008836Y008096D02*
X008836Y008346D01*
X008877Y008346D02*
X008794Y008346D01*
X008978Y008304D02*
X008978Y008137D01*
X009020Y008096D01*
X009103Y008096D01*
X009145Y008137D01*
X009254Y008096D02*
X009421Y008263D01*
X009421Y008304D01*
X009379Y008346D01*
X009296Y008346D01*
X009254Y008304D01*
X009145Y008304D02*
X009103Y008346D01*
X009020Y008346D01*
X008978Y008304D01*
X009254Y008096D02*
X009421Y008096D01*
X010031Y006396D02*
X010156Y006396D01*
X010197Y006354D01*
X010197Y006271D01*
X010156Y006229D01*
X010031Y006229D01*
X010114Y006229D02*
X010197Y006146D01*
X010307Y006187D02*
X010349Y006146D01*
X010432Y006146D01*
X010474Y006187D01*
X010474Y006271D01*
X010432Y006313D01*
X010390Y006313D01*
X010307Y006271D01*
X010307Y006396D01*
X010474Y006396D01*
X010583Y006354D02*
X010625Y006396D01*
X010708Y006396D01*
X010750Y006354D01*
X010750Y006313D01*
X010583Y006146D01*
X010750Y006146D01*
X010031Y006146D02*
X010031Y006396D01*
X012528Y007796D02*
X012528Y008046D01*
X012653Y008046D01*
X012695Y008004D01*
X012695Y007921D01*
X012653Y007879D01*
X012528Y007879D01*
X012612Y007879D02*
X012695Y007796D01*
X012804Y007796D02*
X012971Y007963D01*
X012971Y008004D01*
X012930Y008046D01*
X012846Y008046D01*
X012804Y008004D01*
X012804Y007796D02*
X012971Y007796D01*
X014444Y006746D02*
X014527Y006746D01*
X014486Y006746D02*
X014486Y006496D01*
X014527Y006496D02*
X014444Y006496D01*
X014628Y006537D02*
X014670Y006496D01*
X014753Y006496D01*
X014795Y006537D01*
X014904Y006496D02*
X015071Y006496D01*
X014988Y006496D02*
X014988Y006746D01*
X014904Y006663D01*
X014795Y006704D02*
X014753Y006746D01*
X014670Y006746D01*
X014628Y006704D01*
X014628Y006537D01*
X016728Y006496D02*
X016728Y006746D01*
X016853Y006746D01*
X016895Y006704D01*
X016895Y006621D01*
X016853Y006579D01*
X016728Y006579D01*
X016812Y006579D02*
X016895Y006496D01*
X017004Y006496D02*
X017171Y006496D01*
X017088Y006496D02*
X017088Y006746D01*
X017004Y006663D01*
X017046Y007546D02*
X017130Y007546D01*
X017171Y007587D01*
X017171Y007754D01*
X017130Y007796D01*
X017046Y007796D01*
X017004Y007754D01*
X017004Y007713D01*
X017046Y007671D01*
X017171Y007671D01*
X017046Y007546D02*
X017004Y007587D01*
X016895Y007587D02*
X016853Y007546D01*
X016770Y007546D01*
X016728Y007587D01*
X016728Y007754D01*
X016770Y007796D01*
X016853Y007796D01*
X016895Y007754D01*
X018552Y006954D02*
X018552Y006913D01*
X018594Y006871D01*
X018677Y006871D01*
X018719Y006829D01*
X018719Y006787D01*
X018677Y006746D01*
X018594Y006746D01*
X018552Y006787D01*
X018552Y006954D02*
X018594Y006996D01*
X018677Y006996D01*
X018719Y006954D01*
X018912Y006996D02*
X018995Y006996D01*
X018953Y006996D02*
X018953Y006787D01*
X018912Y006746D01*
X018870Y006746D01*
X018828Y006787D01*
X019104Y006746D02*
X019271Y006746D01*
X019188Y006746D02*
X019188Y006996D01*
X019104Y006913D01*
X020528Y006354D02*
X020528Y006187D01*
X020570Y006146D01*
X020653Y006146D01*
X020695Y006187D01*
X020804Y006187D02*
X020846Y006146D01*
X020930Y006146D01*
X020971Y006187D01*
X020971Y006229D01*
X020930Y006271D01*
X020888Y006271D01*
X020930Y006271D02*
X020971Y006313D01*
X020971Y006354D01*
X020930Y006396D01*
X020846Y006396D01*
X020804Y006354D01*
X020695Y006354D02*
X020653Y006396D01*
X020570Y006396D01*
X020528Y006354D01*
X017174Y009087D02*
X017132Y009046D01*
X017049Y009046D01*
X017007Y009087D01*
X016897Y009046D02*
X016814Y009129D01*
X016856Y009129D02*
X016731Y009129D01*
X016731Y009046D02*
X016731Y009296D01*
X016856Y009296D01*
X016897Y009254D01*
X016897Y009171D01*
X016856Y009129D01*
X017007Y009254D02*
X017049Y009296D01*
X017132Y009296D01*
X017174Y009254D01*
X017174Y009213D01*
X017132Y009171D01*
X017174Y009129D01*
X017174Y009087D01*
X017132Y009171D02*
X017090Y009171D01*
X017343Y009859D02*
X017301Y009900D01*
X017301Y010067D01*
X017343Y010109D01*
X017426Y010109D01*
X017468Y010067D01*
X017468Y009900D01*
X017426Y009859D01*
X017343Y009859D01*
X017385Y009942D02*
X017468Y009859D01*
X017577Y009859D02*
X017744Y010026D01*
X017744Y010067D01*
X017702Y010109D01*
X017619Y010109D01*
X017577Y010067D01*
X017577Y009859D02*
X017744Y009859D01*
X018731Y009787D02*
X018772Y009746D01*
X018856Y009746D01*
X018897Y009787D01*
X019007Y009871D02*
X019174Y009871D01*
X019132Y009746D02*
X019132Y009996D01*
X019007Y009871D01*
X018897Y009954D02*
X018856Y009996D01*
X018772Y009996D01*
X018731Y009954D01*
X018731Y009787D01*
X020731Y009866D02*
X020814Y009866D01*
X020772Y009866D02*
X020772Y010116D01*
X020731Y010116D02*
X020814Y010116D01*
X020915Y010074D02*
X020915Y009907D01*
X020956Y009866D01*
X021040Y009866D01*
X021082Y009907D01*
X021191Y009907D02*
X021233Y009866D01*
X021316Y009866D01*
X021358Y009907D01*
X021358Y009949D01*
X021316Y009991D01*
X021274Y009991D01*
X021316Y009991D02*
X021358Y010033D01*
X021358Y010074D01*
X021316Y010116D01*
X021233Y010116D01*
X021191Y010074D01*
X021082Y010074D02*
X021040Y010116D01*
X020956Y010116D01*
X020915Y010074D01*
X018124Y011596D02*
X017957Y011596D01*
X018040Y011596D02*
X018040Y011846D01*
X017957Y011763D01*
X017847Y011804D02*
X017806Y011846D01*
X017722Y011846D01*
X017681Y011804D01*
X017681Y011637D01*
X017722Y011596D01*
X017806Y011596D01*
X017847Y011637D01*
X013821Y010354D02*
X013780Y010396D01*
X013696Y010396D01*
X013654Y010354D01*
X013545Y010354D02*
X013503Y010396D01*
X013420Y010396D01*
X013378Y010354D01*
X013378Y010187D01*
X013420Y010146D01*
X013503Y010146D01*
X013545Y010187D01*
X013654Y010146D02*
X013821Y010313D01*
X013821Y010354D01*
X013821Y010146D02*
X013654Y010146D01*
X012700Y010421D02*
X012533Y010421D01*
X012658Y010546D01*
X012658Y010296D01*
X012382Y010337D02*
X012382Y010546D01*
X012340Y010546D02*
X012424Y010546D01*
X012382Y010337D02*
X012340Y010296D01*
X012299Y010296D01*
X012257Y010337D01*
X012147Y010337D02*
X012106Y010296D01*
X012022Y010296D01*
X011981Y010337D01*
X012022Y010421D02*
X011981Y010463D01*
X011981Y010504D01*
X012022Y010546D01*
X012106Y010546D01*
X012147Y010504D01*
X012106Y010421D02*
X012147Y010379D01*
X012147Y010337D01*
X012106Y010421D02*
X012022Y010421D01*
X011050Y010804D02*
X011050Y010846D01*
X010883Y010846D01*
X010774Y010846D02*
X010690Y010846D01*
X010732Y010846D02*
X010732Y010637D01*
X010690Y010596D01*
X010649Y010596D01*
X010607Y010637D01*
X010497Y010637D02*
X010456Y010596D01*
X010372Y010596D01*
X010331Y010637D01*
X010372Y010721D02*
X010456Y010721D01*
X010497Y010679D01*
X010497Y010637D01*
X010372Y010721D02*
X010331Y010763D01*
X010331Y010804D01*
X010372Y010846D01*
X010456Y010846D01*
X010497Y010804D01*
X010883Y010637D02*
X010883Y010596D01*
X010883Y010637D02*
X011050Y010804D01*
X010858Y011596D02*
X010775Y011596D01*
X010733Y011637D01*
X010900Y011804D01*
X010900Y011637D01*
X010858Y011596D01*
X010733Y011637D02*
X010733Y011804D01*
X010775Y011846D01*
X010858Y011846D01*
X010900Y011804D01*
X010540Y011846D02*
X010457Y011763D01*
X010347Y011804D02*
X010306Y011846D01*
X010222Y011846D01*
X010181Y011804D01*
X010181Y011637D01*
X010222Y011596D01*
X010306Y011596D01*
X010347Y011637D01*
X010457Y011596D02*
X010624Y011596D01*
X010540Y011596D02*
X010540Y011846D01*
X011981Y011887D02*
X012022Y011846D01*
X012106Y011846D01*
X012147Y011887D01*
X012147Y011929D01*
X012106Y011971D01*
X012022Y011971D01*
X011981Y012013D01*
X011981Y012054D01*
X012022Y012096D01*
X012106Y012096D01*
X012147Y012054D01*
X012340Y012096D02*
X012424Y012096D01*
X012382Y012096D02*
X012382Y011887D01*
X012340Y011846D01*
X012299Y011846D01*
X012257Y011887D01*
X012533Y011887D02*
X012575Y011846D01*
X012658Y011846D01*
X012700Y011887D01*
X012700Y011971D01*
X012658Y012013D01*
X012616Y012013D01*
X012533Y011971D01*
X012533Y012096D01*
X012700Y012096D01*
X009182Y010396D02*
X009057Y010271D01*
X009224Y010271D01*
X009182Y010146D02*
X009182Y010396D01*
X008947Y010354D02*
X008947Y010271D01*
X008906Y010229D01*
X008781Y010229D01*
X008864Y010229D02*
X008947Y010146D01*
X008781Y010146D02*
X008781Y010396D01*
X008906Y010396D01*
X008947Y010354D01*
X007121Y011846D02*
X006954Y011846D01*
X007038Y011846D02*
X007038Y012096D01*
X006954Y012013D01*
X006845Y012096D02*
X006678Y011846D01*
X006845Y011846D02*
X006678Y012096D01*
M02*
