G75*
G70*
%OFA0B0*%
%FSLAX24Y24*%
%IPPOS*%
%LPD*%
%AMOC8*
5,1,8,0,0,1.08239X$1,22.5*
%
%ADD10C,0.0100*%
%ADD11C,0.0060*%
%ADD12C,0.0594*%
%ADD13O,0.0554X0.1109*%
%ADD14C,0.0000*%
%ADD15C,0.0554*%
%ADD16C,0.0120*%
%ADD17C,0.0436*%
D10*
X007654Y002227D02*
X007654Y002663D01*
X007654Y003057D02*
X007654Y003492D01*
X007654Y003886D02*
X007654Y004322D01*
X007654Y004716D02*
X007654Y005151D01*
X007654Y005545D02*
X007654Y005981D01*
X007654Y006374D02*
X007654Y006810D01*
X007654Y007204D02*
X007654Y007639D01*
X007654Y008033D02*
X007654Y008469D01*
X007654Y008862D02*
X007654Y009298D01*
X007654Y009692D02*
X007654Y010127D01*
X008052Y010127D01*
X008446Y010127D02*
X008845Y010127D01*
X009238Y010127D02*
X009637Y010127D01*
X010031Y010127D02*
X010429Y010127D01*
X010823Y010127D02*
X011222Y010127D01*
X011615Y010127D02*
X012014Y010127D01*
X012408Y010127D02*
X012806Y010127D01*
X013200Y010127D02*
X013599Y010127D01*
X013992Y010127D02*
X014391Y010127D01*
X014785Y010127D02*
X015183Y010127D01*
X015577Y010127D02*
X015976Y010127D01*
X016369Y010127D02*
X016768Y010127D01*
X017162Y010127D02*
X017560Y010127D01*
X017954Y010127D02*
X018353Y010127D01*
X018746Y010127D02*
X019145Y010127D01*
X019539Y010127D02*
X019937Y010127D01*
X020331Y010127D02*
X020730Y010127D01*
X021123Y010127D02*
X021522Y010127D01*
X021916Y010127D02*
X022314Y010127D01*
X022708Y010127D02*
X023107Y010127D01*
X023500Y010127D02*
X023899Y010127D01*
X024293Y010127D02*
X024691Y010127D01*
X025085Y010127D02*
X025484Y010127D01*
X025877Y010127D02*
X026276Y010127D01*
X026670Y010127D02*
X027068Y010127D01*
X027462Y010127D02*
X027861Y010127D01*
X028254Y010127D02*
X028653Y010127D01*
X028654Y010127D02*
X028654Y009692D01*
X028654Y009298D02*
X028654Y008862D01*
X028654Y008469D02*
X028654Y008033D01*
X028654Y007639D02*
X028654Y007204D01*
X028654Y006810D02*
X028654Y006374D01*
X028654Y005981D02*
X028654Y005545D01*
X028654Y005151D02*
X028654Y004716D01*
X028654Y004322D02*
X028654Y003886D01*
X028654Y003492D02*
X028654Y003057D01*
X028654Y002663D02*
X028654Y002227D01*
X028255Y002227D01*
X027861Y002227D02*
X027463Y002227D01*
X027069Y002227D02*
X026671Y002227D01*
X026277Y002227D02*
X025878Y002227D01*
X025485Y002227D02*
X025086Y002227D01*
X024692Y002227D02*
X024294Y002227D01*
X023900Y002227D02*
X023501Y002227D01*
X023108Y002227D02*
X022709Y002227D01*
X022315Y002227D02*
X021917Y002227D01*
X021523Y002227D02*
X021124Y002227D01*
X020731Y002227D02*
X020332Y002227D01*
X019938Y002227D02*
X019540Y002227D01*
X019146Y002227D02*
X018747Y002227D01*
X018354Y002227D02*
X017955Y002227D01*
X017561Y002227D02*
X017163Y002227D01*
X016769Y002227D02*
X016370Y002227D01*
X015977Y002227D02*
X015578Y002227D01*
X015184Y002227D02*
X014786Y002227D01*
X014392Y002227D02*
X013993Y002227D01*
X013600Y002227D02*
X013201Y002227D01*
X012807Y002227D02*
X012409Y002227D01*
X012015Y002227D02*
X011616Y002227D01*
X011223Y002227D02*
X010824Y002227D01*
X010430Y002227D02*
X010032Y002227D01*
X009638Y002227D02*
X009239Y002227D01*
X008846Y002227D02*
X008447Y002227D01*
X008053Y002227D02*
X007655Y002227D01*
D11*
X007254Y006307D02*
X007254Y006628D01*
X007147Y006734D01*
X007040Y006628D01*
X007040Y006307D01*
X006827Y006307D02*
X006827Y006734D01*
X006934Y006734D01*
X007040Y006628D01*
X006609Y006628D02*
X006502Y006734D01*
X006289Y006734D01*
X006182Y006628D01*
X006182Y006414D01*
X006289Y006307D01*
X006502Y006307D01*
X006609Y006414D01*
X006609Y006628D01*
X005966Y006734D02*
X005753Y006734D01*
X005859Y006841D02*
X005859Y006414D01*
X005966Y006307D01*
X005536Y006307D02*
X005430Y006414D01*
X005430Y006841D01*
X005536Y006734D02*
X005323Y006734D01*
X005105Y006628D02*
X004999Y006734D01*
X004785Y006734D01*
X004678Y006628D01*
X004678Y006414D01*
X004785Y006307D01*
X004999Y006307D01*
X005105Y006414D01*
X005105Y006628D01*
X004461Y006628D02*
X004461Y006414D01*
X004354Y006307D01*
X004034Y006307D01*
X004034Y006948D01*
X004034Y006734D02*
X004354Y006734D01*
X004461Y006628D01*
D12*
X008154Y002727D03*
X009154Y002727D03*
X010154Y002727D03*
X011154Y002727D03*
X012154Y002727D03*
X013154Y002727D03*
X014154Y002727D03*
X015154Y002727D03*
X016154Y002727D03*
X017154Y002727D03*
X018154Y002727D03*
X019154Y002727D03*
X020154Y002727D03*
X021154Y002727D03*
X022154Y002727D03*
X023154Y002727D03*
X024154Y002727D03*
X025154Y002727D03*
X026154Y002727D03*
X027154Y002727D03*
X028154Y002727D03*
D13*
X017154Y004127D03*
X016154Y004127D03*
X015154Y004127D03*
X014154Y004127D03*
X013154Y004127D03*
X012154Y004127D03*
X011154Y004127D03*
X010154Y004127D03*
X009154Y004127D03*
X009154Y007127D03*
X010154Y007127D03*
X011154Y007127D03*
X012154Y007127D03*
X013154Y007127D03*
X014154Y007127D03*
X015154Y007127D03*
X016154Y007127D03*
X017154Y007127D03*
D14*
X026854Y008327D02*
X026857Y008386D01*
X026865Y008445D01*
X026878Y008502D01*
X026897Y008559D01*
X026920Y008613D01*
X026949Y008665D01*
X026982Y008714D01*
X027019Y008760D01*
X027060Y008802D01*
X027105Y008840D01*
X027154Y008875D01*
X027205Y008904D01*
X027259Y008929D01*
X027314Y008949D01*
X027372Y008963D01*
X027430Y008973D01*
X027489Y008977D01*
X027548Y008975D01*
X027607Y008969D01*
X027665Y008957D01*
X027722Y008939D01*
X027776Y008917D01*
X027829Y008890D01*
X027879Y008858D01*
X027926Y008822D01*
X027969Y008781D01*
X028008Y008737D01*
X028043Y008690D01*
X028074Y008639D01*
X028100Y008586D01*
X028121Y008531D01*
X028137Y008474D01*
X028148Y008416D01*
X028153Y008357D01*
X028153Y008297D01*
X028148Y008238D01*
X028137Y008180D01*
X028121Y008123D01*
X028100Y008068D01*
X028074Y008015D01*
X028043Y007964D01*
X028008Y007917D01*
X027969Y007873D01*
X027926Y007832D01*
X027879Y007796D01*
X027829Y007764D01*
X027776Y007737D01*
X027722Y007715D01*
X027665Y007697D01*
X027607Y007685D01*
X027548Y007679D01*
X027489Y007677D01*
X027430Y007681D01*
X027372Y007691D01*
X027314Y007705D01*
X027259Y007725D01*
X027205Y007750D01*
X027154Y007779D01*
X027105Y007814D01*
X027060Y007852D01*
X027019Y007894D01*
X026982Y007940D01*
X026949Y007989D01*
X026920Y008041D01*
X026897Y008095D01*
X026878Y008152D01*
X026865Y008209D01*
X026857Y008268D01*
X026854Y008327D01*
X026854Y004327D02*
X026857Y004386D01*
X026865Y004445D01*
X026878Y004502D01*
X026897Y004559D01*
X026920Y004613D01*
X026949Y004665D01*
X026982Y004714D01*
X027019Y004760D01*
X027060Y004802D01*
X027105Y004840D01*
X027154Y004875D01*
X027205Y004904D01*
X027259Y004929D01*
X027314Y004949D01*
X027372Y004963D01*
X027430Y004973D01*
X027489Y004977D01*
X027548Y004975D01*
X027607Y004969D01*
X027665Y004957D01*
X027722Y004939D01*
X027776Y004917D01*
X027829Y004890D01*
X027879Y004858D01*
X027926Y004822D01*
X027969Y004781D01*
X028008Y004737D01*
X028043Y004690D01*
X028074Y004639D01*
X028100Y004586D01*
X028121Y004531D01*
X028137Y004474D01*
X028148Y004416D01*
X028153Y004357D01*
X028153Y004297D01*
X028148Y004238D01*
X028137Y004180D01*
X028121Y004123D01*
X028100Y004068D01*
X028074Y004015D01*
X028043Y003964D01*
X028008Y003917D01*
X027969Y003873D01*
X027926Y003832D01*
X027879Y003796D01*
X027829Y003764D01*
X027776Y003737D01*
X027722Y003715D01*
X027665Y003697D01*
X027607Y003685D01*
X027548Y003679D01*
X027489Y003677D01*
X027430Y003681D01*
X027372Y003691D01*
X027314Y003705D01*
X027259Y003725D01*
X027205Y003750D01*
X027154Y003779D01*
X027105Y003814D01*
X027060Y003852D01*
X027019Y003894D01*
X026982Y003940D01*
X026949Y003989D01*
X026920Y004041D01*
X026897Y004095D01*
X026878Y004152D01*
X026865Y004209D01*
X026857Y004268D01*
X026854Y004327D01*
D15*
X024004Y005577D03*
X025004Y006077D03*
X024004Y006577D03*
X025004Y007077D03*
D16*
X025461Y007088D02*
X028424Y007088D01*
X028424Y007206D02*
X025445Y007206D01*
X025461Y007168D02*
X025391Y007336D01*
X025263Y007465D01*
X025095Y007535D01*
X024913Y007535D01*
X024745Y007465D01*
X024616Y007336D01*
X024547Y007168D01*
X024547Y006986D01*
X024616Y006818D01*
X024745Y006690D01*
X024913Y006620D01*
X025095Y006620D01*
X025263Y006690D01*
X025391Y006818D01*
X025461Y006986D01*
X025461Y007168D01*
X025396Y007325D02*
X028424Y007325D01*
X028424Y007443D02*
X025284Y007443D01*
X024723Y007443D02*
X017611Y007443D01*
X017611Y007325D02*
X024611Y007325D01*
X024562Y007206D02*
X017611Y007206D01*
X017611Y007088D02*
X024547Y007088D01*
X024554Y006969D02*
X024253Y006969D01*
X024263Y006965D02*
X024391Y006836D01*
X024461Y006668D01*
X024461Y006486D01*
X024391Y006318D01*
X024263Y006190D01*
X024095Y006120D01*
X023913Y006120D01*
X023745Y006190D01*
X023616Y006318D01*
X023547Y006486D01*
X023547Y006668D01*
X023616Y006836D01*
X023745Y006965D01*
X023913Y007035D01*
X024095Y007035D01*
X024263Y006965D01*
X024377Y006851D02*
X024603Y006851D01*
X024703Y006732D02*
X024435Y006732D01*
X024461Y006614D02*
X028424Y006614D01*
X028424Y006495D02*
X025190Y006495D01*
X025263Y006465D02*
X025391Y006336D01*
X025461Y006168D01*
X025461Y005986D01*
X025391Y005818D01*
X025263Y005690D01*
X025095Y005620D01*
X024913Y005620D01*
X024745Y005690D01*
X024616Y005818D01*
X024547Y005986D01*
X024547Y006168D01*
X024616Y006336D01*
X024745Y006465D01*
X024913Y006535D01*
X025095Y006535D01*
X025263Y006465D01*
X025351Y006376D02*
X028424Y006376D01*
X028424Y006258D02*
X025424Y006258D01*
X025461Y006139D02*
X028424Y006139D01*
X028424Y006021D02*
X025461Y006021D01*
X025426Y005902D02*
X028424Y005902D01*
X028424Y005784D02*
X025357Y005784D01*
X025203Y005665D02*
X028424Y005665D01*
X028424Y005547D02*
X024461Y005547D01*
X024461Y005486D02*
X024391Y005318D01*
X024263Y005190D01*
X024095Y005120D01*
X023913Y005120D01*
X023745Y005190D01*
X023616Y005318D01*
X023547Y005486D01*
X023547Y005668D01*
X023616Y005836D01*
X023745Y005965D01*
X023913Y006035D01*
X024095Y006035D01*
X024263Y005965D01*
X024391Y005836D01*
X024461Y005668D01*
X024461Y005486D01*
X024437Y005428D02*
X028424Y005428D01*
X028424Y005310D02*
X024382Y005310D01*
X024264Y005191D02*
X028424Y005191D01*
X028424Y005072D02*
X027873Y005072D01*
X027974Y005031D02*
X028207Y004797D01*
X028333Y004492D01*
X028333Y004162D01*
X028207Y003857D01*
X027974Y003624D01*
X027669Y003498D01*
X027339Y003498D01*
X027034Y003624D01*
X026801Y003857D01*
X026674Y004162D01*
X026674Y004492D01*
X026801Y004797D01*
X027034Y005031D01*
X027339Y005157D01*
X027669Y005157D01*
X027974Y005031D01*
X028051Y004954D02*
X028424Y004954D01*
X028424Y004835D02*
X028169Y004835D01*
X028240Y004717D02*
X028424Y004717D01*
X028424Y004598D02*
X028290Y004598D01*
X028333Y004480D02*
X028424Y004480D01*
X028424Y004361D02*
X028333Y004361D01*
X028333Y004243D02*
X028424Y004243D01*
X028424Y004124D02*
X028318Y004124D01*
X028269Y004006D02*
X028424Y004006D01*
X028424Y003887D02*
X028219Y003887D01*
X028118Y003768D02*
X028424Y003768D01*
X028424Y003650D02*
X028000Y003650D01*
X027750Y003531D02*
X028424Y003531D01*
X028424Y003413D02*
X017363Y003413D01*
X017343Y003393D02*
X016964Y003393D01*
X016697Y003661D01*
X016697Y004594D01*
X016697Y004595D01*
X016554Y004737D01*
X016467Y004737D01*
X016611Y004594D01*
X016611Y003661D01*
X016343Y003393D01*
X015964Y003393D01*
X015697Y003661D01*
X015697Y004594D01*
X015840Y004737D01*
X015467Y004737D01*
X015611Y004594D01*
X015611Y003661D01*
X015343Y003393D01*
X014964Y003393D01*
X014697Y003661D01*
X014697Y004594D01*
X014840Y004737D01*
X014753Y004737D01*
X014610Y004595D01*
X014611Y004594D01*
X014611Y003661D01*
X014343Y003393D01*
X013964Y003393D01*
X013697Y003661D01*
X013697Y004594D01*
X013964Y004862D01*
X014199Y004862D01*
X014554Y005217D01*
X014753Y005217D01*
X016753Y005217D01*
X016894Y005077D01*
X017109Y004862D01*
X017343Y004862D01*
X017611Y004594D01*
X017611Y003661D01*
X017343Y003393D01*
X017249Y003204D02*
X017424Y003132D01*
X017558Y002997D01*
X017631Y002822D01*
X017631Y002677D01*
X017677Y002677D01*
X017677Y002822D01*
X017750Y002997D01*
X017884Y003132D01*
X018059Y003204D01*
X018249Y003204D01*
X018424Y003132D01*
X018558Y002997D01*
X018631Y002822D01*
X018631Y002677D01*
X018677Y002677D01*
X018677Y002822D01*
X018750Y002997D01*
X018884Y003132D01*
X019059Y003204D01*
X019249Y003204D01*
X019424Y003132D01*
X019558Y002997D01*
X019631Y002822D01*
X019631Y002677D01*
X019677Y002677D01*
X019677Y002822D01*
X019750Y002997D01*
X019884Y003132D01*
X020059Y003204D01*
X020249Y003204D01*
X020424Y003132D01*
X020558Y002997D01*
X020631Y002822D01*
X020631Y002677D01*
X020677Y002677D01*
X020677Y002822D01*
X020750Y002997D01*
X020884Y003132D01*
X021059Y003204D01*
X021249Y003204D01*
X021424Y003132D01*
X021558Y002997D01*
X021631Y002822D01*
X021631Y002677D01*
X021677Y002677D01*
X021677Y002822D01*
X021750Y002997D01*
X021884Y003132D01*
X022059Y003204D01*
X022249Y003204D01*
X022424Y003132D01*
X022558Y002997D01*
X022631Y002822D01*
X022631Y002677D01*
X022677Y002677D01*
X022677Y002822D01*
X022750Y002997D01*
X022884Y003132D01*
X023059Y003204D01*
X023249Y003204D01*
X023424Y003132D01*
X023558Y002997D01*
X023631Y002822D01*
X023631Y002677D01*
X023677Y002677D01*
X023677Y002822D01*
X023750Y002997D01*
X023884Y003132D01*
X024059Y003204D01*
X024249Y003204D01*
X024424Y003132D01*
X024558Y002997D01*
X024631Y002822D01*
X024631Y002677D01*
X024677Y002677D01*
X024677Y002822D01*
X024750Y002997D01*
X024884Y003132D01*
X025059Y003204D01*
X025249Y003204D01*
X025424Y003132D01*
X025558Y002997D01*
X025631Y002822D01*
X025631Y002677D01*
X025677Y002677D01*
X025677Y002822D01*
X025750Y002997D01*
X025884Y003132D01*
X026059Y003204D01*
X026249Y003204D01*
X026424Y003132D01*
X026558Y002997D01*
X026631Y002822D01*
X026631Y002677D01*
X026677Y002677D01*
X026677Y002822D01*
X026750Y002997D01*
X026884Y003132D01*
X027059Y003204D01*
X027249Y003204D01*
X027424Y003132D01*
X027558Y002997D01*
X027631Y002822D01*
X027631Y002677D01*
X027697Y002677D01*
X027697Y002689D01*
X028115Y002689D01*
X028115Y002766D01*
X027697Y002766D01*
X027697Y002818D01*
X027767Y002986D01*
X027895Y003115D01*
X028063Y003184D01*
X028115Y003184D01*
X028115Y002766D01*
X028192Y002766D01*
X028192Y003184D01*
X028245Y003184D01*
X028413Y003115D01*
X028424Y003103D01*
X028424Y009897D01*
X007884Y009897D01*
X007884Y003132D01*
X008059Y003204D01*
X008249Y003204D01*
X008424Y003132D01*
X008558Y002997D01*
X008631Y002822D01*
X008631Y002677D01*
X008677Y002677D01*
X008677Y002822D01*
X008750Y002997D01*
X008884Y003132D01*
X009059Y003204D01*
X009249Y003204D01*
X009424Y003132D01*
X009558Y002997D01*
X009631Y002822D01*
X009631Y002677D01*
X009677Y002677D01*
X009677Y002822D01*
X009750Y002997D01*
X009884Y003132D01*
X010059Y003204D01*
X010249Y003204D01*
X010424Y003132D01*
X010558Y002997D01*
X010631Y002822D01*
X010631Y002677D01*
X010677Y002677D01*
X010677Y002822D01*
X010750Y002997D01*
X010884Y003132D01*
X011059Y003204D01*
X011249Y003204D01*
X011424Y003132D01*
X011558Y002997D01*
X011631Y002822D01*
X011631Y002677D01*
X011677Y002677D01*
X011677Y002822D01*
X011750Y002997D01*
X011884Y003132D01*
X012059Y003204D01*
X012249Y003204D01*
X012424Y003132D01*
X012558Y002997D01*
X012631Y002822D01*
X012631Y002677D01*
X012677Y002677D01*
X012677Y002822D01*
X012750Y002997D01*
X012884Y003132D01*
X013059Y003204D01*
X013249Y003204D01*
X013424Y003132D01*
X013558Y002997D01*
X013631Y002822D01*
X013631Y002677D01*
X013677Y002677D01*
X013677Y002822D01*
X013750Y002997D01*
X013884Y003132D01*
X014059Y003204D01*
X014249Y003204D01*
X014424Y003132D01*
X014558Y002997D01*
X014631Y002822D01*
X014631Y002677D01*
X014677Y002677D01*
X014677Y002822D01*
X014750Y002997D01*
X014884Y003132D01*
X015059Y003204D01*
X015249Y003204D01*
X015424Y003132D01*
X015558Y002997D01*
X015631Y002822D01*
X015631Y002677D01*
X015677Y002677D01*
X015677Y002822D01*
X015750Y002997D01*
X015884Y003132D01*
X016059Y003204D01*
X016249Y003204D01*
X016424Y003132D01*
X016558Y002997D01*
X016631Y002822D01*
X016631Y002677D01*
X016677Y002677D01*
X016677Y002822D01*
X016750Y002997D01*
X016884Y003132D01*
X017059Y003204D01*
X017249Y003204D01*
X017317Y003176D02*
X017990Y003176D01*
X017809Y003057D02*
X017498Y003057D01*
X017582Y002939D02*
X017725Y002939D01*
X017677Y002820D02*
X017631Y002820D01*
X017631Y002702D02*
X017677Y002702D01*
X018498Y003057D02*
X018809Y003057D01*
X018725Y002939D02*
X018582Y002939D01*
X018631Y002820D02*
X018677Y002820D01*
X018677Y002702D02*
X018631Y002702D01*
X019498Y003057D02*
X019809Y003057D01*
X019725Y002939D02*
X019582Y002939D01*
X019631Y002820D02*
X019677Y002820D01*
X019677Y002702D02*
X019631Y002702D01*
X020498Y003057D02*
X020809Y003057D01*
X020725Y002939D02*
X020582Y002939D01*
X020631Y002820D02*
X020677Y002820D01*
X020677Y002702D02*
X020631Y002702D01*
X021498Y003057D02*
X021809Y003057D01*
X021725Y002939D02*
X021582Y002939D01*
X021631Y002820D02*
X021677Y002820D01*
X021677Y002702D02*
X021631Y002702D01*
X022498Y003057D02*
X022809Y003057D01*
X022725Y002939D02*
X022582Y002939D01*
X022631Y002820D02*
X022677Y002820D01*
X022677Y002702D02*
X022631Y002702D01*
X023498Y003057D02*
X023809Y003057D01*
X023725Y002939D02*
X023582Y002939D01*
X023631Y002820D02*
X023677Y002820D01*
X023677Y002702D02*
X023631Y002702D01*
X024498Y003057D02*
X024809Y003057D01*
X024725Y002939D02*
X024582Y002939D01*
X024631Y002820D02*
X024677Y002820D01*
X024677Y002702D02*
X024631Y002702D01*
X025498Y003057D02*
X025809Y003057D01*
X025725Y002939D02*
X025582Y002939D01*
X025631Y002820D02*
X025677Y002820D01*
X025677Y002702D02*
X025631Y002702D01*
X026498Y003057D02*
X026809Y003057D01*
X026725Y002939D02*
X026582Y002939D01*
X026631Y002820D02*
X026677Y002820D01*
X026677Y002702D02*
X026631Y002702D01*
X027498Y003057D02*
X027838Y003057D01*
X027747Y002939D02*
X027582Y002939D01*
X027631Y002820D02*
X027698Y002820D01*
X027631Y002702D02*
X028115Y002702D01*
X028115Y002820D02*
X028192Y002820D01*
X028192Y002939D02*
X028115Y002939D01*
X028115Y003057D02*
X028192Y003057D01*
X028192Y003176D02*
X028115Y003176D01*
X028042Y003176D02*
X027317Y003176D01*
X026990Y003176D02*
X026317Y003176D01*
X025990Y003176D02*
X025317Y003176D01*
X024990Y003176D02*
X024317Y003176D01*
X023990Y003176D02*
X023317Y003176D01*
X022990Y003176D02*
X022317Y003176D01*
X021990Y003176D02*
X021317Y003176D01*
X020990Y003176D02*
X020317Y003176D01*
X019990Y003176D02*
X019317Y003176D01*
X018990Y003176D02*
X018317Y003176D01*
X017481Y003531D02*
X027258Y003531D01*
X027008Y003650D02*
X017600Y003650D01*
X017611Y003768D02*
X026890Y003768D01*
X026788Y003887D02*
X017611Y003887D01*
X017611Y004006D02*
X026739Y004006D01*
X026690Y004124D02*
X017611Y004124D01*
X017611Y004243D02*
X026674Y004243D01*
X026674Y004361D02*
X017611Y004361D01*
X017611Y004480D02*
X026674Y004480D01*
X026718Y004598D02*
X017607Y004598D01*
X017488Y004717D02*
X026767Y004717D01*
X026839Y004835D02*
X017370Y004835D01*
X017017Y004954D02*
X026957Y004954D01*
X027135Y005072D02*
X016898Y005072D01*
X016780Y005191D02*
X023744Y005191D01*
X023625Y005310D02*
X007884Y005310D01*
X007884Y005428D02*
X023571Y005428D01*
X023547Y005547D02*
X007884Y005547D01*
X007884Y005665D02*
X023547Y005665D01*
X023594Y005784D02*
X007884Y005784D01*
X007884Y005902D02*
X023682Y005902D01*
X023880Y006021D02*
X007884Y006021D01*
X007884Y006139D02*
X023867Y006139D01*
X023677Y006258D02*
X007884Y006258D01*
X007884Y006376D02*
X023592Y006376D01*
X023547Y006495D02*
X017445Y006495D01*
X017343Y006393D02*
X016964Y006393D01*
X016697Y006661D01*
X016697Y007594D01*
X016964Y007862D01*
X017343Y007862D01*
X017611Y007594D01*
X017611Y006661D01*
X017343Y006393D01*
X017564Y006614D02*
X023547Y006614D01*
X023573Y006732D02*
X017611Y006732D01*
X017611Y006851D02*
X023631Y006851D01*
X023755Y006969D02*
X017611Y006969D01*
X016697Y006969D02*
X016611Y006969D01*
X016611Y006851D02*
X016697Y006851D01*
X016697Y006732D02*
X016611Y006732D01*
X016611Y006661D02*
X016343Y006393D01*
X015964Y006393D01*
X015697Y006661D01*
X015697Y007594D01*
X015964Y007862D01*
X016343Y007862D01*
X016611Y007594D01*
X016611Y006661D01*
X016564Y006614D02*
X016744Y006614D01*
X016863Y006495D02*
X016445Y006495D01*
X015863Y006495D02*
X015445Y006495D01*
X015343Y006393D02*
X014964Y006393D01*
X014697Y006661D01*
X014697Y007594D01*
X014964Y007862D01*
X015343Y007862D01*
X015611Y007594D01*
X015611Y006661D01*
X015343Y006393D01*
X014863Y006495D02*
X014445Y006495D01*
X014343Y006393D02*
X013964Y006393D01*
X013697Y006661D01*
X013697Y007594D01*
X013964Y007862D01*
X014343Y007862D01*
X014611Y007594D01*
X014611Y006661D01*
X014343Y006393D01*
X013863Y006495D02*
X013445Y006495D01*
X013343Y006393D02*
X012964Y006393D01*
X012697Y006661D01*
X012697Y007594D01*
X012964Y007862D01*
X013343Y007862D01*
X013611Y007594D01*
X013611Y006661D01*
X013343Y006393D01*
X013564Y006614D02*
X013744Y006614D01*
X013697Y006732D02*
X013611Y006732D01*
X013611Y006851D02*
X013697Y006851D01*
X013697Y006969D02*
X013611Y006969D01*
X013611Y007088D02*
X013697Y007088D01*
X013697Y007206D02*
X013611Y007206D01*
X013611Y007325D02*
X013697Y007325D01*
X013697Y007443D02*
X013611Y007443D01*
X013611Y007562D02*
X013697Y007562D01*
X013783Y007680D02*
X013524Y007680D01*
X013406Y007799D02*
X013902Y007799D01*
X014406Y007799D02*
X014902Y007799D01*
X014783Y007680D02*
X014524Y007680D01*
X014611Y007562D02*
X014697Y007562D01*
X014697Y007443D02*
X014611Y007443D01*
X014611Y007325D02*
X014697Y007325D01*
X014697Y007206D02*
X014611Y007206D01*
X014611Y007088D02*
X014697Y007088D01*
X014697Y006969D02*
X014611Y006969D01*
X014611Y006851D02*
X014697Y006851D01*
X014697Y006732D02*
X014611Y006732D01*
X014564Y006614D02*
X014744Y006614D01*
X015564Y006614D02*
X015744Y006614D01*
X015697Y006732D02*
X015611Y006732D01*
X015611Y006851D02*
X015697Y006851D01*
X015697Y006969D02*
X015611Y006969D01*
X015611Y007088D02*
X015697Y007088D01*
X015697Y007206D02*
X015611Y007206D01*
X015611Y007325D02*
X015697Y007325D01*
X015697Y007443D02*
X015611Y007443D01*
X015611Y007562D02*
X015697Y007562D01*
X015783Y007680D02*
X015524Y007680D01*
X015406Y007799D02*
X015902Y007799D01*
X016406Y007799D02*
X016902Y007799D01*
X016783Y007680D02*
X016524Y007680D01*
X016611Y007562D02*
X016697Y007562D01*
X016697Y007443D02*
X016611Y007443D01*
X016611Y007325D02*
X016697Y007325D01*
X016697Y007206D02*
X016611Y007206D01*
X016611Y007088D02*
X016697Y007088D01*
X017611Y007562D02*
X027184Y007562D01*
X027034Y007624D02*
X027339Y007498D01*
X027669Y007498D01*
X027974Y007624D01*
X028207Y007857D01*
X028333Y008162D01*
X028333Y008492D01*
X028207Y008797D01*
X027974Y009031D01*
X027669Y009157D01*
X027339Y009157D01*
X027034Y009031D01*
X026801Y008797D01*
X026674Y008492D01*
X026674Y008162D01*
X026801Y007857D01*
X027034Y007624D01*
X026978Y007680D02*
X017524Y007680D01*
X017406Y007799D02*
X026859Y007799D01*
X026776Y007917D02*
X007884Y007917D01*
X007884Y007799D02*
X008902Y007799D01*
X008964Y007862D02*
X008697Y007594D01*
X008697Y006661D01*
X008964Y006393D01*
X009343Y006393D01*
X009611Y006661D01*
X009611Y007594D01*
X009343Y007862D01*
X008964Y007862D01*
X009406Y007799D02*
X009902Y007799D01*
X009964Y007862D02*
X010343Y007862D01*
X010611Y007594D01*
X010611Y006661D01*
X010343Y006393D01*
X009964Y006393D01*
X009697Y006661D01*
X009697Y007594D01*
X009964Y007862D01*
X010406Y007799D02*
X010902Y007799D01*
X010964Y007862D02*
X011343Y007862D01*
X011611Y007594D01*
X011611Y006661D01*
X011343Y006393D01*
X010964Y006393D01*
X010697Y006661D01*
X010697Y007594D01*
X010964Y007862D01*
X010783Y007680D02*
X010524Y007680D01*
X010611Y007562D02*
X010697Y007562D01*
X010697Y007443D02*
X010611Y007443D01*
X010611Y007325D02*
X010697Y007325D01*
X010697Y007206D02*
X010611Y007206D01*
X010611Y007088D02*
X010697Y007088D01*
X010697Y006969D02*
X010611Y006969D01*
X010611Y006851D02*
X010697Y006851D01*
X010697Y006732D02*
X010611Y006732D01*
X010564Y006614D02*
X010744Y006614D01*
X010863Y006495D02*
X010445Y006495D01*
X009863Y006495D02*
X009445Y006495D01*
X009564Y006614D02*
X009744Y006614D01*
X009697Y006732D02*
X009611Y006732D01*
X009611Y006851D02*
X009697Y006851D01*
X009697Y006969D02*
X009611Y006969D01*
X009611Y007088D02*
X009697Y007088D01*
X009697Y007206D02*
X009611Y007206D01*
X009611Y007325D02*
X009697Y007325D01*
X009697Y007443D02*
X009611Y007443D01*
X009611Y007562D02*
X009697Y007562D01*
X009783Y007680D02*
X009524Y007680D01*
X008783Y007680D02*
X007884Y007680D01*
X007884Y007562D02*
X008697Y007562D01*
X008697Y007443D02*
X007884Y007443D01*
X007884Y007325D02*
X008697Y007325D01*
X008697Y007206D02*
X007884Y007206D01*
X007884Y007088D02*
X008697Y007088D01*
X008697Y006969D02*
X007884Y006969D01*
X007884Y006851D02*
X008697Y006851D01*
X008697Y006732D02*
X007884Y006732D01*
X007884Y006614D02*
X008744Y006614D01*
X008863Y006495D02*
X007884Y006495D01*
X007884Y005191D02*
X014528Y005191D01*
X014410Y005072D02*
X007884Y005072D01*
X007884Y004954D02*
X014291Y004954D01*
X014654Y004977D02*
X014154Y004477D01*
X014154Y004127D01*
X013697Y004124D02*
X013611Y004124D01*
X013611Y004006D02*
X013697Y004006D01*
X013697Y003887D02*
X013611Y003887D01*
X013611Y003768D02*
X013697Y003768D01*
X013708Y003650D02*
X013600Y003650D01*
X013611Y003661D02*
X013343Y003393D01*
X012964Y003393D01*
X012697Y003661D01*
X012697Y004594D01*
X012964Y004862D01*
X013343Y004862D01*
X013611Y004594D01*
X013611Y003661D01*
X013481Y003531D02*
X013826Y003531D01*
X013945Y003413D02*
X013363Y003413D01*
X012945Y003413D02*
X012363Y003413D01*
X012343Y003393D02*
X011964Y003393D01*
X011697Y003661D01*
X011697Y004594D01*
X011964Y004862D01*
X012343Y004862D01*
X012611Y004594D01*
X012611Y003661D01*
X012343Y003393D01*
X012481Y003531D02*
X012826Y003531D01*
X012708Y003650D02*
X012600Y003650D01*
X012611Y003768D02*
X012697Y003768D01*
X012697Y003887D02*
X012611Y003887D01*
X012611Y004006D02*
X012697Y004006D01*
X012697Y004124D02*
X012611Y004124D01*
X012611Y004243D02*
X012697Y004243D01*
X012697Y004361D02*
X012611Y004361D01*
X012611Y004480D02*
X012697Y004480D01*
X012701Y004598D02*
X012607Y004598D01*
X012488Y004717D02*
X012820Y004717D01*
X012938Y004835D02*
X012370Y004835D01*
X011938Y004835D02*
X011370Y004835D01*
X011343Y004862D02*
X011611Y004594D01*
X011611Y003661D01*
X011343Y003393D01*
X010964Y003393D01*
X010697Y003661D01*
X010697Y004594D01*
X010964Y004862D01*
X011343Y004862D01*
X010938Y004835D02*
X010370Y004835D01*
X010343Y004862D02*
X010611Y004594D01*
X010611Y003661D01*
X010343Y003393D01*
X009964Y003393D01*
X009697Y003661D01*
X009697Y004594D01*
X009964Y004862D01*
X010343Y004862D01*
X009938Y004835D02*
X009341Y004835D01*
X009335Y004842D02*
X009591Y004586D01*
X009591Y004156D01*
X009183Y004156D01*
X009183Y004099D01*
X009591Y004099D01*
X009591Y003669D01*
X009335Y003413D01*
X009182Y003413D01*
X009182Y004099D01*
X009125Y004099D01*
X009125Y004156D01*
X008717Y004156D01*
X008717Y004586D01*
X008973Y004842D01*
X009125Y004842D01*
X009125Y004156D01*
X009182Y004156D01*
X009182Y004842D01*
X009335Y004842D01*
X009182Y004835D02*
X009125Y004835D01*
X009125Y004717D02*
X009182Y004717D01*
X009182Y004598D02*
X009125Y004598D01*
X009125Y004480D02*
X009182Y004480D01*
X009182Y004361D02*
X009125Y004361D01*
X009125Y004243D02*
X009182Y004243D01*
X009183Y004124D02*
X009697Y004124D01*
X009697Y004006D02*
X009591Y004006D01*
X009591Y003887D02*
X009697Y003887D01*
X009697Y003768D02*
X009591Y003768D01*
X009572Y003650D02*
X009708Y003650D01*
X009826Y003531D02*
X009453Y003531D01*
X009182Y003531D02*
X009125Y003531D01*
X009125Y003650D02*
X009182Y003650D01*
X009182Y003768D02*
X009125Y003768D01*
X009125Y003887D02*
X009182Y003887D01*
X009182Y004006D02*
X009125Y004006D01*
X009125Y004099D02*
X009125Y003413D01*
X008973Y003413D01*
X008717Y003669D01*
X008717Y004099D01*
X009125Y004099D01*
X009125Y004124D02*
X007884Y004124D01*
X007884Y004006D02*
X008717Y004006D01*
X008717Y003887D02*
X007884Y003887D01*
X007884Y003768D02*
X008717Y003768D01*
X008736Y003650D02*
X007884Y003650D01*
X007884Y003531D02*
X008854Y003531D01*
X007884Y003413D02*
X009945Y003413D01*
X010363Y003413D02*
X010945Y003413D01*
X011363Y003413D02*
X011945Y003413D01*
X011826Y003531D02*
X011481Y003531D01*
X011600Y003650D02*
X011708Y003650D01*
X011697Y003768D02*
X011611Y003768D01*
X011611Y003887D02*
X011697Y003887D01*
X011697Y004006D02*
X011611Y004006D01*
X011611Y004124D02*
X011697Y004124D01*
X011697Y004243D02*
X011611Y004243D01*
X011611Y004361D02*
X011697Y004361D01*
X011697Y004480D02*
X011611Y004480D01*
X011607Y004598D02*
X011701Y004598D01*
X011820Y004717D02*
X011488Y004717D01*
X010820Y004717D02*
X010488Y004717D01*
X010607Y004598D02*
X010701Y004598D01*
X010697Y004480D02*
X010611Y004480D01*
X010611Y004361D02*
X010697Y004361D01*
X010697Y004243D02*
X010611Y004243D01*
X010611Y004124D02*
X010697Y004124D01*
X010697Y004006D02*
X010611Y004006D01*
X010611Y003887D02*
X010697Y003887D01*
X010697Y003768D02*
X010611Y003768D01*
X010600Y003650D02*
X010708Y003650D01*
X010826Y003531D02*
X010481Y003531D01*
X010317Y003176D02*
X010990Y003176D01*
X010809Y003057D02*
X010498Y003057D01*
X010582Y002939D02*
X010725Y002939D01*
X010677Y002820D02*
X010631Y002820D01*
X010631Y002702D02*
X010677Y002702D01*
X011498Y003057D02*
X011809Y003057D01*
X011725Y002939D02*
X011582Y002939D01*
X011631Y002820D02*
X011677Y002820D01*
X011677Y002702D02*
X011631Y002702D01*
X012498Y003057D02*
X012809Y003057D01*
X012725Y002939D02*
X012582Y002939D01*
X012631Y002820D02*
X012677Y002820D01*
X012677Y002702D02*
X012631Y002702D01*
X013498Y003057D02*
X013809Y003057D01*
X013725Y002939D02*
X013582Y002939D01*
X013631Y002820D02*
X013677Y002820D01*
X013677Y002702D02*
X013631Y002702D01*
X014498Y003057D02*
X014809Y003057D01*
X014725Y002939D02*
X014582Y002939D01*
X014631Y002820D02*
X014677Y002820D01*
X014677Y002702D02*
X014631Y002702D01*
X015498Y003057D02*
X015809Y003057D01*
X015725Y002939D02*
X015582Y002939D01*
X015631Y002820D02*
X015677Y002820D01*
X015677Y002702D02*
X015631Y002702D01*
X016498Y003057D02*
X016809Y003057D01*
X016725Y002939D02*
X016582Y002939D01*
X016631Y002820D02*
X016677Y002820D01*
X016677Y002702D02*
X016631Y002702D01*
X016317Y003176D02*
X016990Y003176D01*
X016945Y003413D02*
X016363Y003413D01*
X016481Y003531D02*
X016826Y003531D01*
X016708Y003650D02*
X016600Y003650D01*
X016611Y003768D02*
X016697Y003768D01*
X016697Y003887D02*
X016611Y003887D01*
X016611Y004006D02*
X016697Y004006D01*
X016697Y004124D02*
X016611Y004124D01*
X016611Y004243D02*
X016697Y004243D01*
X016697Y004361D02*
X016611Y004361D01*
X016611Y004480D02*
X016697Y004480D01*
X016694Y004598D02*
X016607Y004598D01*
X016575Y004717D02*
X016488Y004717D01*
X016654Y004977D02*
X017154Y004477D01*
X017154Y004127D01*
X015697Y004124D02*
X015611Y004124D01*
X015611Y004006D02*
X015697Y004006D01*
X015697Y003887D02*
X015611Y003887D01*
X015611Y003768D02*
X015697Y003768D01*
X015708Y003650D02*
X015600Y003650D01*
X015481Y003531D02*
X015826Y003531D01*
X015945Y003413D02*
X015363Y003413D01*
X014945Y003413D02*
X014363Y003413D01*
X014481Y003531D02*
X014826Y003531D01*
X014708Y003650D02*
X014600Y003650D01*
X014611Y003768D02*
X014697Y003768D01*
X014697Y003887D02*
X014611Y003887D01*
X014611Y004006D02*
X014697Y004006D01*
X014697Y004124D02*
X014611Y004124D01*
X014611Y004243D02*
X014697Y004243D01*
X014697Y004361D02*
X014611Y004361D01*
X014611Y004480D02*
X014697Y004480D01*
X014701Y004598D02*
X014614Y004598D01*
X014733Y004717D02*
X014820Y004717D01*
X015488Y004717D02*
X015820Y004717D01*
X015701Y004598D02*
X015607Y004598D01*
X015611Y004480D02*
X015697Y004480D01*
X015697Y004361D02*
X015611Y004361D01*
X015611Y004243D02*
X015697Y004243D01*
X013938Y004835D02*
X013370Y004835D01*
X013488Y004717D02*
X013820Y004717D01*
X013701Y004598D02*
X013607Y004598D01*
X013611Y004480D02*
X013697Y004480D01*
X013697Y004361D02*
X013611Y004361D01*
X013611Y004243D02*
X013697Y004243D01*
X014654Y004977D02*
X016654Y004977D01*
X012863Y006495D02*
X012445Y006495D01*
X012343Y006393D02*
X011964Y006393D01*
X011697Y006661D01*
X011697Y007594D01*
X011964Y007862D01*
X012343Y007862D01*
X012611Y007594D01*
X012611Y006661D01*
X012343Y006393D01*
X012564Y006614D02*
X012744Y006614D01*
X012697Y006732D02*
X012611Y006732D01*
X012611Y006851D02*
X012697Y006851D01*
X012697Y006969D02*
X012611Y006969D01*
X012611Y007088D02*
X012697Y007088D01*
X012697Y007206D02*
X012611Y007206D01*
X012611Y007325D02*
X012697Y007325D01*
X012697Y007443D02*
X012611Y007443D01*
X012611Y007562D02*
X012697Y007562D01*
X012783Y007680D02*
X012524Y007680D01*
X012406Y007799D02*
X012902Y007799D01*
X011902Y007799D02*
X011406Y007799D01*
X011524Y007680D02*
X011783Y007680D01*
X011697Y007562D02*
X011611Y007562D01*
X011611Y007443D02*
X011697Y007443D01*
X011697Y007325D02*
X011611Y007325D01*
X011611Y007206D02*
X011697Y007206D01*
X011697Y007088D02*
X011611Y007088D01*
X011611Y006969D02*
X011697Y006969D01*
X011697Y006851D02*
X011611Y006851D01*
X011611Y006732D02*
X011697Y006732D01*
X011744Y006614D02*
X011564Y006614D01*
X011445Y006495D02*
X011863Y006495D01*
X007884Y008036D02*
X026727Y008036D01*
X026678Y008155D02*
X007884Y008155D01*
X007884Y008273D02*
X026674Y008273D01*
X026674Y008392D02*
X007884Y008392D01*
X007884Y008510D02*
X026682Y008510D01*
X026731Y008629D02*
X007884Y008629D01*
X007884Y008747D02*
X026780Y008747D01*
X026869Y008866D02*
X007884Y008866D01*
X007884Y008984D02*
X026988Y008984D01*
X027208Y009103D02*
X007884Y009103D01*
X007884Y009221D02*
X028424Y009221D01*
X028424Y009103D02*
X027799Y009103D01*
X028020Y008984D02*
X028424Y008984D01*
X028424Y008866D02*
X028139Y008866D01*
X028228Y008747D02*
X028424Y008747D01*
X028424Y008629D02*
X028277Y008629D01*
X028326Y008510D02*
X028424Y008510D01*
X028424Y008392D02*
X028333Y008392D01*
X028333Y008273D02*
X028424Y008273D01*
X028424Y008155D02*
X028330Y008155D01*
X028281Y008036D02*
X028424Y008036D01*
X028424Y007917D02*
X028232Y007917D01*
X028149Y007799D02*
X028424Y007799D01*
X028424Y007680D02*
X028030Y007680D01*
X027824Y007562D02*
X028424Y007562D01*
X028424Y006969D02*
X025454Y006969D01*
X025405Y006851D02*
X028424Y006851D01*
X028424Y006732D02*
X025305Y006732D01*
X024817Y006495D02*
X024461Y006495D01*
X024415Y006376D02*
X024656Y006376D01*
X024584Y006258D02*
X024331Y006258D01*
X024141Y006139D02*
X024547Y006139D01*
X024547Y006021D02*
X024128Y006021D01*
X024325Y005902D02*
X024582Y005902D01*
X024651Y005784D02*
X024413Y005784D01*
X024461Y005665D02*
X024804Y005665D01*
X028424Y003294D02*
X007884Y003294D01*
X007884Y003176D02*
X007990Y003176D01*
X008317Y003176D02*
X008990Y003176D01*
X008809Y003057D02*
X008498Y003057D01*
X008582Y002939D02*
X008725Y002939D01*
X008677Y002820D02*
X008631Y002820D01*
X008631Y002702D02*
X008677Y002702D01*
X009498Y003057D02*
X009809Y003057D01*
X009725Y002939D02*
X009582Y002939D01*
X009631Y002820D02*
X009677Y002820D01*
X009677Y002702D02*
X009631Y002702D01*
X009317Y003176D02*
X009990Y003176D01*
X011317Y003176D02*
X011990Y003176D01*
X012317Y003176D02*
X012990Y003176D01*
X013317Y003176D02*
X013990Y003176D01*
X014317Y003176D02*
X014990Y003176D01*
X015317Y003176D02*
X015990Y003176D01*
X009820Y004717D02*
X009460Y004717D01*
X009578Y004598D02*
X009701Y004598D01*
X009697Y004480D02*
X009591Y004480D01*
X009591Y004361D02*
X009697Y004361D01*
X009697Y004243D02*
X009591Y004243D01*
X008717Y004243D02*
X007884Y004243D01*
X007884Y004361D02*
X008717Y004361D01*
X008717Y004480D02*
X007884Y004480D01*
X007884Y004598D02*
X008729Y004598D01*
X008848Y004717D02*
X007884Y004717D01*
X007884Y004835D02*
X008966Y004835D01*
X007884Y009340D02*
X028424Y009340D01*
X028424Y009459D02*
X007884Y009459D01*
X007884Y009577D02*
X028424Y009577D01*
X028424Y009696D02*
X007884Y009696D01*
X007884Y009814D02*
X028424Y009814D01*
X028424Y003176D02*
X028265Y003176D01*
D17*
X018704Y008927D03*
M02*
