G75*
G70*
%OFA0B0*%
%FSLAX24Y24*%
%IPPOS*%
%LPD*%
%AMOC8*
5,1,8,0,0,1.08239X$1,22.5*
%
%ADD10C,0.0060*%
%ADD11C,0.0674*%
%ADD12R,0.2049X0.0671*%
%ADD13O,0.0634X0.1189*%
%ADD14R,0.0474X0.0474*%
%ADD15R,0.0631X0.1064*%
%ADD16R,0.0592X0.0671*%
%ADD17R,0.0671X0.0592*%
%ADD18C,0.1379*%
%ADD19C,0.0634*%
%ADD20C,0.0516*%
D10*
X025517Y005854D02*
X025730Y005854D01*
X025623Y005961D02*
X025623Y005534D01*
X025730Y005427D01*
X025946Y005534D02*
X026053Y005427D01*
X026266Y005427D01*
X026373Y005534D01*
X026373Y005748D01*
X026266Y005854D01*
X026053Y005854D01*
X025946Y005748D01*
X025946Y005534D01*
X026591Y005427D02*
X026911Y005427D01*
X027018Y005534D01*
X027018Y005748D01*
X026911Y005854D01*
X026591Y005854D01*
X026591Y005214D01*
D11*
X002617Y002727D03*
X003617Y002727D03*
X004617Y002727D03*
X005617Y002727D03*
X006617Y002727D03*
X007617Y002727D03*
X008617Y002727D03*
X009617Y002727D03*
X010617Y002727D03*
X011617Y002727D03*
X012617Y002727D03*
X013617Y002727D03*
X014617Y002727D03*
X015617Y002727D03*
X016617Y002727D03*
X017617Y002727D03*
X018617Y002727D03*
X019617Y002727D03*
X020617Y002727D03*
X021617Y002727D03*
X022617Y002727D03*
D12*
X021040Y008827D03*
X017693Y008827D03*
D13*
X017617Y007127D03*
X018617Y007127D03*
X019617Y007127D03*
X020617Y007127D03*
X021617Y007127D03*
X016617Y007127D03*
X015617Y007127D03*
X014617Y007127D03*
X013617Y007127D03*
X013617Y004127D03*
X014617Y004127D03*
X015617Y004127D03*
X016617Y004127D03*
X017617Y004127D03*
X018617Y004127D03*
X019617Y004127D03*
X020617Y004127D03*
X021617Y004127D03*
D14*
X022367Y007393D03*
X022367Y008062D03*
X016117Y008243D03*
X016117Y008912D03*
X012717Y008912D03*
X012717Y008243D03*
D15*
X010567Y009227D03*
X009567Y009227D03*
X008567Y009227D03*
X008567Y004477D03*
X009567Y004477D03*
X010567Y004477D03*
D16*
X007301Y009427D03*
X006632Y009427D03*
X005151Y009427D03*
X004482Y009427D03*
D17*
X012567Y006162D03*
X012567Y005493D03*
X012567Y004612D03*
X011817Y004612D03*
X011817Y003943D03*
X012567Y003943D03*
X013967Y008243D03*
X015167Y008243D03*
X015167Y008912D03*
X013967Y008912D03*
D18*
X003267Y008327D03*
X003267Y004327D03*
D19*
X006767Y005577D03*
X005767Y006077D03*
X006767Y006577D03*
X005767Y007077D03*
D20*
X012067Y008927D03*
M02*
