G75*
G70*
%OFA0B0*%
%FSLAX24Y24*%
%IPPOS*%
%LPD*%
%AMOC8*
5,1,8,0,0,1.08239X$1,22.5*
%
%ADD10C,0.0060*%
%ADD11C,0.0674*%
%ADD12O,0.0634X0.1189*%
%ADD13C,0.1379*%
%ADD14C,0.0634*%
%ADD15C,0.0516*%
D10*
X000374Y006307D02*
X000694Y006307D01*
X000801Y006414D01*
X000801Y006628D01*
X000694Y006734D01*
X000374Y006734D01*
X000374Y006948D02*
X000374Y006307D01*
X001018Y006414D02*
X001125Y006307D01*
X001339Y006307D01*
X001445Y006414D01*
X001445Y006628D01*
X001339Y006734D01*
X001125Y006734D01*
X001018Y006628D01*
X001018Y006414D01*
X001770Y006414D02*
X001876Y006307D01*
X001770Y006414D02*
X001770Y006841D01*
X001876Y006734D02*
X001663Y006734D01*
X002093Y006734D02*
X002306Y006734D01*
X002199Y006841D02*
X002199Y006414D01*
X002306Y006307D01*
X002522Y006414D02*
X002629Y006307D01*
X002842Y006307D01*
X002949Y006414D01*
X002949Y006628D01*
X002842Y006734D01*
X002629Y006734D01*
X002522Y006628D01*
X002522Y006414D01*
X003167Y006307D02*
X003167Y006734D01*
X003274Y006734D01*
X003380Y006628D01*
X003487Y006734D01*
X003594Y006628D01*
X003594Y006307D01*
X003380Y006307D02*
X003380Y006628D01*
D11*
X008154Y002727D03*
X009154Y002727D03*
X010154Y002727D03*
X011154Y002727D03*
X012154Y002727D03*
X013154Y002727D03*
X014154Y002727D03*
X015154Y002727D03*
X016154Y002727D03*
X017154Y002727D03*
X018154Y002727D03*
X019154Y002727D03*
X020154Y002727D03*
X021154Y002727D03*
X022154Y002727D03*
X023154Y002727D03*
X024154Y002727D03*
X025154Y002727D03*
X026154Y002727D03*
X027154Y002727D03*
X028154Y002727D03*
D12*
X017154Y004127D03*
X016154Y004127D03*
X015154Y004127D03*
X014154Y004127D03*
X013154Y004127D03*
X012154Y004127D03*
X011154Y004127D03*
X010154Y004127D03*
X009154Y004127D03*
X009154Y007127D03*
X010154Y007127D03*
X011154Y007127D03*
X012154Y007127D03*
X013154Y007127D03*
X014154Y007127D03*
X015154Y007127D03*
X016154Y007127D03*
X017154Y007127D03*
D13*
X027504Y008327D03*
X027504Y004327D03*
D14*
X024004Y005577D03*
X025004Y006077D03*
X024004Y006577D03*
X025004Y007077D03*
D15*
X018704Y008927D03*
M02*
