%
M48
M72
T01C0.0236
T02C0.0354
T03C0.0394
T04C0.1299
%
T01
X12067Y8927
T02
X13617Y7127
X14617Y7127
X15617Y7127
X16617Y7127
X17617Y7127
X18617Y7127
X19617Y7127
X20617Y7127
X21617Y7127
X21617Y4127
X20617Y4127
X19617Y4127
X18617Y4127
X17617Y4127
X16617Y4127
X15617Y4127
X14617Y4127
X13617Y4127
X6767Y5577
X5767Y6077
X6767Y6577
X5767Y7077
T03
X2617Y2727
X3617Y2727
X4617Y2727
X5617Y2727
X6617Y2727
X7617Y2727
X8617Y2727
X9617Y2727
X10617Y2727
X11617Y2727
X12617Y2727
X13617Y2727
X14617Y2727
X15617Y2727
X16617Y2727
X17617Y2727
X18617Y2727
X19617Y2727
X20617Y2727
X21617Y2727
X22617Y2727
T04
X3267Y4327
X3267Y8327
M30
