%
M48
M72
T01C0.0118
T02C0.0236
T03C0.0354
T04C0.0394
T05C0.0400
T06C0.0591
T07C0.0906
T08C0.1102
T09C0.1181
%
T01
X3879Y1500
X4229Y2800
X6129Y2700
X7629Y2850
X7979Y3150
X7929Y3650
X7529Y3850
X7529Y4300
X9079Y4700
X10029Y5650
X10229Y5250
X10779Y5550
X11279Y5500
X10879Y6350
X10479Y6550
X9829Y6100
X9079Y5950
X8929Y6600
X8579Y7100
X8579Y7550
X8579Y8000
X9929Y8300
X10929Y8200
X11779Y8050
X14079Y9350
X14979Y6600
X14879Y3200
X12629Y1350
X10679Y2300
X10279Y1950
X10479Y1400
X8829Y1400
X9029Y3150
X9579Y3600
X6679Y6650
X6679Y7100
X6029Y7100
X6029Y6650
X6029Y7900
X6029Y8350
X6729Y8350
X6729Y7900
X4429Y6300
X3879Y6300
X4029Y5050
X5379Y4450
X5879Y5100
X3979Y9350
X4729Y12450
X4079Y13850
X9379Y10600
X10029Y13750
X13529Y13850
X17079Y13250
X18829Y12700
X19779Y11850
X19779Y11450
X19779Y11050
X20179Y10600
X20579Y10600
X20979Y10600
X19729Y8250
X19929Y6450
X22329Y8150
X22579Y13500
X20779Y2500
X19279Y2550
X22479Y1800
T02
X17879Y1350
X17329Y1350
X16779Y1350
X16229Y1350
X15329Y1350
X14329Y1350
X13779Y1350
X13229Y1350
X13659Y4010
X13659Y5010
X13659Y6010
X12659Y6010
X12659Y5010
X12659Y4010
X14279Y7800
X14829Y7800
X15379Y7800
X15929Y7800
X12829Y7850
T03
X14479Y11500
X15479Y11500
X15979Y12500
X14979Y12500
T04
X16829Y9500
X17829Y9500
X18829Y9500
X8357Y13800
X7373Y13800
X6585Y13800
X5601Y13800
T05
X14669Y14100
X15749Y14100
X16829Y14100
X17909Y14100
X18989Y14100
X18449Y15100
X17369Y15100
X16289Y15100
X15209Y15100
T06
X16488Y11779
T07
X9577Y14863
X4420Y14863
T08
X11908Y14600
X21750Y14600
T09
X21579Y17400
X5079Y17400
M30
