%
M48
M72
T01C0.0118
T02C0.0236
T03C0.0354
T04C0.0394
T05C0.0400
T06C0.0591
T07C0.0906
T08C0.1102
T09C0.1181
%
T01
X3888Y1507
X4238Y2807
X6138Y2707
X7638Y2857
X7988Y3157
X7938Y3657
X7538Y3857
X7538Y4307
X9088Y4707
X10038Y5657
X10238Y5257
X10788Y5557
X11288Y5507
X10888Y6357
X10488Y6557
X9838Y6107
X9088Y5957
X8938Y6607
X8588Y7107
X8588Y7557
X8588Y8007
X10188Y8057
X10938Y8207
X11788Y8057
X14088Y9357
X14988Y6607
X14888Y3207
X12638Y1357
X10688Y2307
X10288Y1957
X10488Y1407
X8838Y1407
X9038Y3157
X9588Y3607
X6688Y6657
X6688Y7107
X6038Y7107
X6038Y6657
X6038Y7907
X6038Y8357
X6738Y8357
X6738Y7907
X4438Y6307
X3888Y6307
X4038Y5057
X5388Y4457
X5888Y5107
X3988Y9357
X4738Y12457
X4088Y13857
X9388Y10607
X10038Y13757
X13538Y13857
X17088Y13257
X18838Y12707
X19788Y11857
X19788Y11457
X19788Y11057
X20188Y10607
X20588Y10607
X20988Y10607
X19738Y8257
X19938Y6457
X22338Y8157
X22588Y13507
X20788Y2507
X19288Y2557
X22488Y1807
T02
X17888Y1357
X17338Y1357
X16788Y1357
X16238Y1357
X15338Y1357
X14338Y1357
X13788Y1357
X13238Y1357
X13668Y4017
X12668Y4017
X12668Y5017
X12668Y6017
X13668Y6017
X13668Y5017
X14288Y7807
X14838Y7807
X15388Y7807
X15938Y7807
X12838Y7857
T03
X14488Y11507
X15488Y11507
X14988Y12507
X15988Y12507
T04
X16838Y9507
X17838Y9507
X18838Y9507
X8366Y13807
X7382Y13807
X6594Y13807
X5610Y13807
T05
X14678Y14107
X15758Y14107
X16838Y14107
X17918Y14107
X18998Y14107
X18458Y15107
X17378Y15107
X16298Y15107
X15218Y15107
T06
X16497Y11786
T07
X9586Y14870
X4429Y14870
T08
X11917Y14607
X21759Y14607
T09
X21588Y17407
X5088Y17407
M30
