G75*
G70*
%OFA0B0*%
%FSLAX24Y24*%
%IPPOS*%
%LPD*%
%AMOC8*
5,1,8,0,0,1.08239X$1,22.5*
%
%ADD10C,0.0000*%
%ADD11C,0.0100*%
D10*
X003588Y000907D02*
X003588Y018907D01*
X023088Y018907D01*
X023088Y000907D01*
X003588Y000907D01*
X016202Y011786D02*
X016204Y011820D01*
X016210Y011854D01*
X016220Y011887D01*
X016233Y011918D01*
X016251Y011948D01*
X016271Y011976D01*
X016295Y012001D01*
X016321Y012023D01*
X016349Y012041D01*
X016380Y012057D01*
X016412Y012069D01*
X016446Y012077D01*
X016480Y012081D01*
X016514Y012081D01*
X016548Y012077D01*
X016582Y012069D01*
X016614Y012057D01*
X016644Y012041D01*
X016673Y012023D01*
X016699Y012001D01*
X016723Y011976D01*
X016743Y011948D01*
X016761Y011918D01*
X016774Y011887D01*
X016784Y011854D01*
X016790Y011820D01*
X016792Y011786D01*
X016790Y011752D01*
X016784Y011718D01*
X016774Y011685D01*
X016761Y011654D01*
X016743Y011624D01*
X016723Y011596D01*
X016699Y011571D01*
X016673Y011549D01*
X016645Y011531D01*
X016614Y011515D01*
X016582Y011503D01*
X016548Y011495D01*
X016514Y011491D01*
X016480Y011491D01*
X016446Y011495D01*
X016412Y011503D01*
X016380Y011515D01*
X016349Y011531D01*
X016321Y011549D01*
X016295Y011571D01*
X016271Y011596D01*
X016251Y011624D01*
X016233Y011654D01*
X016220Y011685D01*
X016210Y011718D01*
X016204Y011752D01*
X016202Y011786D01*
X011366Y014607D02*
X011368Y014654D01*
X011374Y014700D01*
X011384Y014746D01*
X011397Y014791D01*
X011415Y014834D01*
X011436Y014876D01*
X011460Y014916D01*
X011488Y014953D01*
X011519Y014988D01*
X011553Y015021D01*
X011589Y015050D01*
X011628Y015076D01*
X011669Y015099D01*
X011712Y015118D01*
X011756Y015134D01*
X011801Y015146D01*
X011847Y015154D01*
X011894Y015158D01*
X011940Y015158D01*
X011987Y015154D01*
X012033Y015146D01*
X012078Y015134D01*
X012122Y015118D01*
X012165Y015099D01*
X012206Y015076D01*
X012245Y015050D01*
X012281Y015021D01*
X012315Y014988D01*
X012346Y014953D01*
X012374Y014916D01*
X012398Y014876D01*
X012419Y014834D01*
X012437Y014791D01*
X012450Y014746D01*
X012460Y014700D01*
X012466Y014654D01*
X012468Y014607D01*
X012466Y014560D01*
X012460Y014514D01*
X012450Y014468D01*
X012437Y014423D01*
X012419Y014380D01*
X012398Y014338D01*
X012374Y014298D01*
X012346Y014261D01*
X012315Y014226D01*
X012281Y014193D01*
X012245Y014164D01*
X012206Y014138D01*
X012165Y014115D01*
X012122Y014096D01*
X012078Y014080D01*
X012033Y014068D01*
X011987Y014060D01*
X011940Y014056D01*
X011894Y014056D01*
X011847Y014060D01*
X011801Y014068D01*
X011756Y014080D01*
X011712Y014096D01*
X011669Y014115D01*
X011628Y014138D01*
X011589Y014164D01*
X011553Y014193D01*
X011519Y014226D01*
X011488Y014261D01*
X011460Y014298D01*
X011436Y014338D01*
X011415Y014380D01*
X011397Y014423D01*
X011384Y014468D01*
X011374Y014514D01*
X011368Y014560D01*
X011366Y014607D01*
X009133Y014870D02*
X009135Y014912D01*
X009141Y014954D01*
X009151Y014996D01*
X009164Y015036D01*
X009182Y015075D01*
X009203Y015112D01*
X009227Y015146D01*
X009255Y015179D01*
X009285Y015209D01*
X009318Y015235D01*
X009353Y015259D01*
X009391Y015279D01*
X009430Y015295D01*
X009470Y015308D01*
X009512Y015317D01*
X009554Y015322D01*
X009597Y015323D01*
X009639Y015320D01*
X009681Y015313D01*
X009722Y015302D01*
X009762Y015287D01*
X009800Y015269D01*
X009837Y015247D01*
X009871Y015222D01*
X009903Y015194D01*
X009931Y015163D01*
X009957Y015129D01*
X009980Y015093D01*
X009999Y015056D01*
X010015Y015016D01*
X010027Y014975D01*
X010035Y014934D01*
X010039Y014891D01*
X010039Y014849D01*
X010035Y014806D01*
X010027Y014765D01*
X010015Y014724D01*
X009999Y014684D01*
X009980Y014647D01*
X009957Y014611D01*
X009931Y014577D01*
X009903Y014546D01*
X009871Y014518D01*
X009837Y014493D01*
X009800Y014471D01*
X009762Y014453D01*
X009722Y014438D01*
X009681Y014427D01*
X009639Y014420D01*
X009597Y014417D01*
X009554Y014418D01*
X009512Y014423D01*
X009470Y014432D01*
X009430Y014445D01*
X009391Y014461D01*
X009353Y014481D01*
X009318Y014505D01*
X009285Y014531D01*
X009255Y014561D01*
X009227Y014594D01*
X009203Y014628D01*
X009182Y014665D01*
X009164Y014704D01*
X009151Y014744D01*
X009141Y014786D01*
X009135Y014828D01*
X009133Y014870D01*
X004497Y017407D02*
X004499Y017455D01*
X004505Y017503D01*
X004515Y017550D01*
X004528Y017596D01*
X004546Y017641D01*
X004566Y017685D01*
X004591Y017727D01*
X004619Y017766D01*
X004649Y017803D01*
X004683Y017837D01*
X004720Y017869D01*
X004758Y017898D01*
X004799Y017923D01*
X004842Y017945D01*
X004887Y017963D01*
X004933Y017977D01*
X004980Y017988D01*
X005028Y017995D01*
X005076Y017998D01*
X005124Y017997D01*
X005172Y017992D01*
X005220Y017983D01*
X005266Y017971D01*
X005311Y017954D01*
X005355Y017934D01*
X005397Y017911D01*
X005437Y017884D01*
X005475Y017854D01*
X005510Y017821D01*
X005542Y017785D01*
X005572Y017747D01*
X005598Y017706D01*
X005620Y017663D01*
X005640Y017619D01*
X005655Y017574D01*
X005667Y017527D01*
X005675Y017479D01*
X005679Y017431D01*
X005679Y017383D01*
X005675Y017335D01*
X005667Y017287D01*
X005655Y017240D01*
X005640Y017195D01*
X005620Y017151D01*
X005598Y017108D01*
X005572Y017067D01*
X005542Y017029D01*
X005510Y016993D01*
X005475Y016960D01*
X005437Y016930D01*
X005397Y016903D01*
X005355Y016880D01*
X005311Y016860D01*
X005266Y016843D01*
X005220Y016831D01*
X005172Y016822D01*
X005124Y016817D01*
X005076Y016816D01*
X005028Y016819D01*
X004980Y016826D01*
X004933Y016837D01*
X004887Y016851D01*
X004842Y016869D01*
X004799Y016891D01*
X004758Y016916D01*
X004720Y016945D01*
X004683Y016977D01*
X004649Y017011D01*
X004619Y017048D01*
X004591Y017087D01*
X004566Y017129D01*
X004546Y017173D01*
X004528Y017218D01*
X004515Y017264D01*
X004505Y017311D01*
X004499Y017359D01*
X004497Y017407D01*
X003976Y014870D02*
X003978Y014912D01*
X003984Y014954D01*
X003994Y014996D01*
X004007Y015036D01*
X004025Y015075D01*
X004046Y015112D01*
X004070Y015146D01*
X004098Y015179D01*
X004128Y015209D01*
X004161Y015235D01*
X004196Y015259D01*
X004234Y015279D01*
X004273Y015295D01*
X004313Y015308D01*
X004355Y015317D01*
X004397Y015322D01*
X004440Y015323D01*
X004482Y015320D01*
X004524Y015313D01*
X004565Y015302D01*
X004605Y015287D01*
X004643Y015269D01*
X004680Y015247D01*
X004714Y015222D01*
X004746Y015194D01*
X004774Y015163D01*
X004800Y015129D01*
X004823Y015093D01*
X004842Y015056D01*
X004858Y015016D01*
X004870Y014975D01*
X004878Y014934D01*
X004882Y014891D01*
X004882Y014849D01*
X004878Y014806D01*
X004870Y014765D01*
X004858Y014724D01*
X004842Y014684D01*
X004823Y014647D01*
X004800Y014611D01*
X004774Y014577D01*
X004746Y014546D01*
X004714Y014518D01*
X004680Y014493D01*
X004643Y014471D01*
X004605Y014453D01*
X004565Y014438D01*
X004524Y014427D01*
X004482Y014420D01*
X004440Y014417D01*
X004397Y014418D01*
X004355Y014423D01*
X004313Y014432D01*
X004273Y014445D01*
X004234Y014461D01*
X004196Y014481D01*
X004161Y014505D01*
X004128Y014531D01*
X004098Y014561D01*
X004070Y014594D01*
X004046Y014628D01*
X004025Y014665D01*
X004007Y014704D01*
X003994Y014744D01*
X003984Y014786D01*
X003978Y014828D01*
X003976Y014870D01*
X021208Y014607D02*
X021210Y014654D01*
X021216Y014700D01*
X021226Y014746D01*
X021239Y014791D01*
X021257Y014834D01*
X021278Y014876D01*
X021302Y014916D01*
X021330Y014953D01*
X021361Y014988D01*
X021395Y015021D01*
X021431Y015050D01*
X021470Y015076D01*
X021511Y015099D01*
X021554Y015118D01*
X021598Y015134D01*
X021643Y015146D01*
X021689Y015154D01*
X021736Y015158D01*
X021782Y015158D01*
X021829Y015154D01*
X021875Y015146D01*
X021920Y015134D01*
X021964Y015118D01*
X022007Y015099D01*
X022048Y015076D01*
X022087Y015050D01*
X022123Y015021D01*
X022157Y014988D01*
X022188Y014953D01*
X022216Y014916D01*
X022240Y014876D01*
X022261Y014834D01*
X022279Y014791D01*
X022292Y014746D01*
X022302Y014700D01*
X022308Y014654D01*
X022310Y014607D01*
X022308Y014560D01*
X022302Y014514D01*
X022292Y014468D01*
X022279Y014423D01*
X022261Y014380D01*
X022240Y014338D01*
X022216Y014298D01*
X022188Y014261D01*
X022157Y014226D01*
X022123Y014193D01*
X022087Y014164D01*
X022048Y014138D01*
X022007Y014115D01*
X021964Y014096D01*
X021920Y014080D01*
X021875Y014068D01*
X021829Y014060D01*
X021782Y014056D01*
X021736Y014056D01*
X021689Y014060D01*
X021643Y014068D01*
X021598Y014080D01*
X021554Y014096D01*
X021511Y014115D01*
X021470Y014138D01*
X021431Y014164D01*
X021395Y014193D01*
X021361Y014226D01*
X021330Y014261D01*
X021302Y014298D01*
X021278Y014338D01*
X021257Y014380D01*
X021239Y014423D01*
X021226Y014468D01*
X021216Y014514D01*
X021210Y014560D01*
X021208Y014607D01*
X020997Y017407D02*
X020999Y017455D01*
X021005Y017503D01*
X021015Y017550D01*
X021028Y017596D01*
X021046Y017641D01*
X021066Y017685D01*
X021091Y017727D01*
X021119Y017766D01*
X021149Y017803D01*
X021183Y017837D01*
X021220Y017869D01*
X021258Y017898D01*
X021299Y017923D01*
X021342Y017945D01*
X021387Y017963D01*
X021433Y017977D01*
X021480Y017988D01*
X021528Y017995D01*
X021576Y017998D01*
X021624Y017997D01*
X021672Y017992D01*
X021720Y017983D01*
X021766Y017971D01*
X021811Y017954D01*
X021855Y017934D01*
X021897Y017911D01*
X021937Y017884D01*
X021975Y017854D01*
X022010Y017821D01*
X022042Y017785D01*
X022072Y017747D01*
X022098Y017706D01*
X022120Y017663D01*
X022140Y017619D01*
X022155Y017574D01*
X022167Y017527D01*
X022175Y017479D01*
X022179Y017431D01*
X022179Y017383D01*
X022175Y017335D01*
X022167Y017287D01*
X022155Y017240D01*
X022140Y017195D01*
X022120Y017151D01*
X022098Y017108D01*
X022072Y017067D01*
X022042Y017029D01*
X022010Y016993D01*
X021975Y016960D01*
X021937Y016930D01*
X021897Y016903D01*
X021855Y016880D01*
X021811Y016860D01*
X021766Y016843D01*
X021720Y016831D01*
X021672Y016822D01*
X021624Y016817D01*
X021576Y016816D01*
X021528Y016819D01*
X021480Y016826D01*
X021433Y016837D01*
X021387Y016851D01*
X021342Y016869D01*
X021299Y016891D01*
X021258Y016916D01*
X021220Y016945D01*
X021183Y016977D01*
X021149Y017011D01*
X021119Y017048D01*
X021091Y017087D01*
X021066Y017129D01*
X021046Y017173D01*
X021028Y017218D01*
X021015Y017264D01*
X021005Y017311D01*
X020999Y017359D01*
X020997Y017407D01*
D11*
X020349Y014507D02*
X020415Y014441D01*
X020415Y014374D01*
X020349Y014307D01*
X020415Y014241D01*
X020415Y014174D01*
X020349Y014107D01*
X020215Y014107D01*
X020148Y014174D01*
X020282Y014307D02*
X020349Y014307D01*
X020349Y014507D02*
X020215Y014507D01*
X020148Y014441D01*
X019955Y014507D02*
X019688Y014107D01*
X019955Y014107D02*
X019688Y014507D01*
X020376Y013180D02*
X020576Y013180D01*
X020643Y013113D01*
X020643Y012846D01*
X020576Y012780D01*
X020376Y012780D01*
X020376Y013180D01*
X020837Y013113D02*
X020903Y013180D01*
X021037Y013180D01*
X021103Y013113D01*
X021103Y013046D01*
X020837Y012780D01*
X021103Y012780D01*
X021229Y010826D02*
X021429Y010826D01*
X021496Y010759D01*
X021496Y010492D01*
X021429Y010425D01*
X021229Y010425D01*
X021229Y010826D01*
X021689Y010692D02*
X021823Y010826D01*
X021823Y010425D01*
X021956Y010425D02*
X021689Y010425D01*
X021232Y009957D02*
X021232Y009557D01*
X021365Y009557D02*
X021098Y009557D01*
X020905Y009557D02*
X020638Y009557D01*
X020638Y009957D01*
X021098Y009824D02*
X021232Y009957D01*
X021199Y009007D02*
X020998Y008807D01*
X021265Y008807D01*
X021199Y008607D02*
X021199Y009007D01*
X020805Y008941D02*
X020738Y009007D01*
X020605Y009007D01*
X020538Y008941D01*
X020538Y008674D01*
X020605Y008607D01*
X020738Y008607D01*
X020805Y008674D01*
X021638Y008007D02*
X021838Y008007D01*
X021905Y007941D01*
X021905Y007807D01*
X021838Y007741D01*
X021638Y007741D01*
X021771Y007741D02*
X021905Y007607D01*
X022098Y007674D02*
X022165Y007607D01*
X022299Y007607D01*
X022365Y007674D01*
X022365Y007807D01*
X022299Y007874D01*
X022232Y007874D01*
X022098Y007807D01*
X022098Y008007D01*
X022365Y008007D01*
X021638Y008007D02*
X021638Y007607D01*
X018422Y008377D02*
X018155Y008377D01*
X018422Y008644D01*
X018422Y008711D01*
X018355Y008777D01*
X018222Y008777D01*
X018155Y008711D01*
X017962Y008711D02*
X017895Y008777D01*
X017762Y008777D01*
X017695Y008711D01*
X017695Y008444D01*
X017762Y008377D01*
X017895Y008377D01*
X017962Y008444D01*
X017521Y008377D02*
X017388Y008377D01*
X017455Y008377D02*
X017455Y008777D01*
X017521Y008777D02*
X017388Y008777D01*
X015715Y009224D02*
X015649Y009157D01*
X015515Y009157D01*
X015448Y009224D01*
X015582Y009357D02*
X015649Y009357D01*
X015715Y009291D01*
X015715Y009224D01*
X015649Y009357D02*
X015715Y009424D01*
X015715Y009491D01*
X015649Y009557D01*
X015515Y009557D01*
X015448Y009491D01*
X015255Y009491D02*
X015255Y009224D01*
X015188Y009157D01*
X014988Y009157D01*
X014988Y009557D01*
X015188Y009557D01*
X015255Y009491D01*
X012015Y010424D02*
X011949Y010357D01*
X011815Y010357D01*
X011748Y010424D01*
X011882Y010557D02*
X011949Y010557D01*
X012015Y010491D01*
X012015Y010424D01*
X011949Y010557D02*
X012015Y010624D01*
X012015Y010691D01*
X011949Y010757D01*
X011815Y010757D01*
X011748Y010691D01*
X011288Y010757D02*
X011288Y010357D01*
X011555Y010357D01*
X010065Y010924D02*
X009999Y010857D01*
X009865Y010857D01*
X009798Y010924D01*
X009932Y011057D02*
X009999Y011057D01*
X010065Y010991D01*
X010065Y010924D01*
X009999Y011057D02*
X010065Y011124D01*
X010065Y011191D01*
X009999Y011257D01*
X009865Y011257D01*
X009798Y011191D01*
X009605Y011191D02*
X009605Y011057D01*
X009538Y010991D01*
X009338Y010991D01*
X009471Y010991D02*
X009605Y010857D01*
X009338Y010857D02*
X009338Y011257D01*
X009538Y011257D01*
X009605Y011191D01*
X009605Y011607D02*
X009338Y011607D01*
X009338Y012007D01*
X009405Y012357D02*
X009338Y012424D01*
X009338Y012691D01*
X009405Y012757D01*
X009538Y012757D01*
X009605Y012691D01*
X009798Y012757D02*
X010065Y012757D01*
X010065Y012691D01*
X009798Y012424D01*
X009798Y012357D01*
X009605Y012424D02*
X009538Y012357D01*
X009405Y012357D01*
X009798Y011941D02*
X009865Y012007D01*
X009999Y012007D01*
X010065Y011941D01*
X010065Y011874D01*
X009798Y011607D01*
X010065Y011607D01*
X011288Y012957D02*
X011288Y013357D01*
X011488Y013357D01*
X011555Y013291D01*
X011555Y013157D01*
X011488Y013091D01*
X011288Y013091D01*
X011421Y013091D02*
X011555Y012957D01*
X011748Y013024D02*
X011815Y012957D01*
X011949Y012957D01*
X012015Y013024D01*
X012015Y013157D01*
X011949Y013224D01*
X011882Y013224D01*
X011748Y013157D01*
X011748Y013357D01*
X012015Y013357D01*
X012209Y013291D02*
X012275Y013357D01*
X012409Y013357D01*
X012476Y013291D01*
X012476Y013224D01*
X012209Y012957D01*
X012476Y012957D01*
X013888Y013057D02*
X014155Y013457D01*
X014348Y013391D02*
X014415Y013457D01*
X014549Y013457D01*
X014615Y013391D01*
X014615Y013324D01*
X014348Y013057D01*
X014615Y013057D01*
X014155Y013057D02*
X013888Y013457D01*
X010440Y014076D02*
X010174Y014076D01*
X010374Y014276D01*
X010374Y013876D01*
X009980Y013876D02*
X009713Y014276D01*
X009980Y014276D02*
X009713Y013876D01*
X007515Y013257D02*
X007382Y013191D01*
X007248Y013057D01*
X007449Y013057D01*
X007515Y012991D01*
X007515Y012924D01*
X007449Y012857D01*
X007315Y012857D01*
X007248Y012924D01*
X007248Y013057D01*
X007055Y012924D02*
X006988Y012857D01*
X006855Y012857D01*
X006788Y012924D01*
X006788Y013191D01*
X006855Y013257D01*
X006988Y013257D01*
X007055Y013191D01*
X007038Y011407D02*
X006838Y011407D01*
X006838Y011007D01*
X006838Y011141D02*
X007038Y011141D01*
X007105Y011207D01*
X007105Y011341D01*
X007038Y011407D01*
X006971Y011141D02*
X007105Y011007D01*
X007298Y011007D02*
X007565Y011007D01*
X007432Y011007D02*
X007432Y011407D01*
X007298Y011274D01*
X006859Y009957D02*
X006926Y009891D01*
X006659Y009624D01*
X006725Y009557D01*
X006859Y009557D01*
X006926Y009624D01*
X006926Y009891D01*
X006859Y009957D02*
X006725Y009957D01*
X006659Y009891D01*
X006659Y009624D01*
X006465Y009557D02*
X006198Y009557D01*
X006332Y009557D02*
X006332Y009957D01*
X006198Y009824D01*
X006005Y009891D02*
X005938Y009957D01*
X005805Y009957D01*
X005738Y009891D01*
X005738Y009624D01*
X005805Y009557D01*
X005938Y009557D01*
X006005Y009624D01*
X007088Y008677D02*
X007221Y008677D01*
X007155Y008677D02*
X007155Y008277D01*
X007221Y008277D02*
X007088Y008277D01*
X007395Y008344D02*
X007462Y008277D01*
X007595Y008277D01*
X007662Y008344D01*
X007855Y008277D02*
X008122Y008277D01*
X007989Y008277D02*
X007989Y008677D01*
X007855Y008544D01*
X007662Y008611D02*
X007595Y008677D01*
X007462Y008677D01*
X007395Y008611D01*
X007395Y008344D01*
X008005Y009057D02*
X007938Y009124D01*
X007938Y009391D01*
X008005Y009457D01*
X008138Y009457D01*
X008205Y009391D01*
X008205Y009124D01*
X008138Y009057D01*
X008005Y009057D01*
X008071Y009191D02*
X008205Y009057D01*
X008398Y009057D02*
X008665Y009057D01*
X008532Y009057D02*
X008532Y009457D01*
X008398Y009324D01*
X010138Y007457D02*
X010338Y007457D01*
X010405Y007391D01*
X010405Y007257D01*
X010338Y007191D01*
X010138Y007191D01*
X010271Y007191D02*
X010405Y007057D01*
X010598Y007124D02*
X010598Y007257D01*
X010799Y007257D01*
X010865Y007191D01*
X010865Y007124D01*
X010799Y007057D01*
X010665Y007057D01*
X010598Y007124D01*
X010598Y007257D02*
X010732Y007391D01*
X010865Y007457D01*
X010138Y007457D02*
X010138Y007057D01*
X009159Y006707D02*
X009159Y006307D01*
X009226Y006507D02*
X008959Y006507D01*
X009159Y006707D01*
X008632Y006707D02*
X008632Y006307D01*
X008765Y006307D02*
X008498Y006307D01*
X008305Y006374D02*
X008238Y006307D01*
X008105Y006307D01*
X008038Y006374D01*
X008038Y006641D01*
X008105Y006707D01*
X008238Y006707D01*
X008305Y006641D01*
X008498Y006574D02*
X008632Y006707D01*
X009857Y005676D02*
X009990Y005676D01*
X009924Y005676D02*
X009924Y005276D01*
X009990Y005276D02*
X009857Y005276D01*
X010164Y005342D02*
X010164Y005609D01*
X010231Y005676D01*
X010364Y005676D01*
X010431Y005609D01*
X010624Y005609D02*
X010691Y005676D01*
X010824Y005676D01*
X010891Y005609D01*
X010891Y005542D01*
X010824Y005476D01*
X010891Y005409D01*
X010891Y005342D01*
X010824Y005276D01*
X010691Y005276D01*
X010624Y005342D01*
X010758Y005476D02*
X010824Y005476D01*
X010431Y005342D02*
X010364Y005276D01*
X010231Y005276D01*
X010164Y005342D01*
X011188Y004857D02*
X011188Y004457D01*
X011188Y004591D02*
X011388Y004591D01*
X011455Y004657D01*
X011455Y004791D01*
X011388Y004857D01*
X011188Y004857D01*
X011321Y004591D02*
X011455Y004457D01*
X011648Y004657D02*
X011915Y004657D01*
X011849Y004457D02*
X011849Y004857D01*
X011648Y004657D01*
X011782Y003707D02*
X011782Y003307D01*
X011915Y003307D02*
X011648Y003307D01*
X011455Y003374D02*
X011388Y003307D01*
X011255Y003307D01*
X011188Y003374D01*
X011188Y003641D01*
X011255Y003707D01*
X011388Y003707D01*
X011455Y003641D01*
X011648Y003574D02*
X011782Y003707D01*
X011392Y001607D02*
X011392Y001207D01*
X011259Y001207D02*
X011526Y001207D01*
X011259Y001474D02*
X011392Y001607D01*
X010932Y001607D02*
X010932Y001207D01*
X011065Y001207D02*
X010798Y001207D01*
X010605Y001274D02*
X010538Y001207D01*
X010405Y001207D01*
X010338Y001274D01*
X010338Y001541D01*
X010405Y001607D01*
X010538Y001607D01*
X010605Y001541D01*
X010798Y001474D02*
X010932Y001607D01*
X007976Y001707D02*
X007842Y001641D01*
X007709Y001507D01*
X007909Y001507D01*
X007976Y001441D01*
X007976Y001374D01*
X007909Y001307D01*
X007775Y001307D01*
X007709Y001374D01*
X007709Y001507D01*
X007515Y001307D02*
X007248Y001307D01*
X007382Y001307D02*
X007382Y001707D01*
X007248Y001574D01*
X007055Y001641D02*
X006988Y001707D01*
X006855Y001707D01*
X006788Y001641D01*
X006788Y001374D01*
X006855Y001307D01*
X006988Y001307D01*
X007055Y001374D01*
X006526Y001307D02*
X006259Y001307D01*
X006526Y001574D01*
X006526Y001641D01*
X006459Y001707D01*
X006325Y001707D01*
X006259Y001641D01*
X005932Y001707D02*
X005932Y001307D01*
X006065Y001307D02*
X005798Y001307D01*
X005605Y001374D02*
X005538Y001307D01*
X005405Y001307D01*
X005338Y001374D01*
X005338Y001641D01*
X005405Y001707D01*
X005538Y001707D01*
X005605Y001641D01*
X005798Y001574D02*
X005932Y001707D01*
X005046Y002704D02*
X004779Y002704D01*
X005046Y002971D01*
X005046Y003038D01*
X004979Y003104D01*
X004845Y003104D01*
X004779Y003038D01*
X004585Y003038D02*
X004585Y002771D01*
X004519Y002704D01*
X004385Y002704D01*
X004318Y002771D01*
X004318Y003038D01*
X004385Y003104D01*
X004519Y003104D01*
X004585Y003038D01*
X004452Y002837D02*
X004585Y002704D01*
X005405Y004107D02*
X005538Y004107D01*
X005605Y004174D01*
X005798Y004107D02*
X006065Y004107D01*
X005932Y004107D02*
X005932Y004507D01*
X005798Y004374D01*
X005605Y004441D02*
X005538Y004507D01*
X005405Y004507D01*
X005338Y004441D01*
X005338Y004174D01*
X005405Y004107D01*
X005348Y004707D02*
X005615Y004707D01*
X005482Y004707D02*
X005482Y005107D01*
X005348Y004974D01*
X005155Y005041D02*
X005088Y005107D01*
X004955Y005107D01*
X004888Y005041D01*
X004888Y004774D01*
X004955Y004707D01*
X005088Y004707D01*
X005155Y004774D01*
X004615Y004974D02*
X004615Y005041D01*
X004549Y005107D01*
X004482Y005107D01*
X004549Y005107D02*
X004615Y005174D01*
X004615Y005241D01*
X004549Y005307D01*
X004415Y005307D01*
X004348Y005241D01*
X004155Y005241D02*
X004088Y005307D01*
X003955Y005307D01*
X003888Y005241D01*
X003888Y004974D01*
X003955Y004907D01*
X004088Y004907D01*
X004155Y004974D01*
X004348Y004974D02*
X004415Y004907D01*
X004549Y004907D01*
X004615Y004974D01*
X005809Y005041D02*
X005875Y005107D01*
X006009Y005107D01*
X006076Y005041D01*
X006076Y004974D01*
X006009Y004907D01*
X006076Y004841D01*
X006076Y004774D01*
X006009Y004707D01*
X005875Y004707D01*
X005809Y004774D01*
X005942Y004907D02*
X006009Y004907D01*
X006259Y004507D02*
X006259Y004307D01*
X006392Y004374D01*
X006459Y004374D01*
X006526Y004307D01*
X006526Y004174D01*
X006459Y004107D01*
X006325Y004107D01*
X006259Y004174D01*
X006259Y004507D02*
X006526Y004507D01*
X004515Y006174D02*
X004515Y006441D01*
X004449Y006507D01*
X004315Y006507D01*
X004248Y006441D01*
X004248Y006374D01*
X004315Y006307D01*
X004515Y006307D01*
X004515Y006174D02*
X004449Y006107D01*
X004315Y006107D01*
X004248Y006174D01*
X004055Y006174D02*
X003988Y006107D01*
X003855Y006107D01*
X003788Y006174D01*
X003788Y006441D01*
X003855Y006507D01*
X003988Y006507D01*
X004055Y006441D01*
X005688Y007274D02*
X005755Y007207D01*
X005888Y007207D01*
X005955Y007274D01*
X006148Y007274D02*
X006148Y007341D01*
X006215Y007407D01*
X006349Y007407D01*
X006415Y007341D01*
X006415Y007274D01*
X006349Y007207D01*
X006215Y007207D01*
X006148Y007274D01*
X006215Y007407D02*
X006148Y007474D01*
X006148Y007541D01*
X006215Y007607D01*
X006349Y007607D01*
X006415Y007541D01*
X006415Y007474D01*
X006349Y007407D01*
X005955Y007541D02*
X005888Y007607D01*
X005755Y007607D01*
X005688Y007541D01*
X005688Y007274D01*
X004565Y009157D02*
X004298Y009157D01*
X004565Y009424D01*
X004565Y009491D01*
X004499Y009557D01*
X004365Y009557D01*
X004298Y009491D01*
X004105Y009491D02*
X004038Y009557D01*
X003905Y009557D01*
X003838Y009491D01*
X003838Y009224D01*
X003905Y009157D01*
X004038Y009157D01*
X004105Y009224D01*
X004138Y011607D02*
X004138Y012007D01*
X004338Y012007D01*
X004405Y011941D01*
X004405Y011807D01*
X004338Y011741D01*
X004138Y011741D01*
X004271Y011741D02*
X004405Y011607D01*
X004598Y011607D02*
X004865Y011874D01*
X004865Y011941D01*
X004799Y012007D01*
X004665Y012007D01*
X004598Y011941D01*
X004598Y011607D02*
X004865Y011607D01*
X004799Y012357D02*
X004665Y012357D01*
X004598Y012424D01*
X004598Y012557D02*
X004732Y012624D01*
X004799Y012624D01*
X004865Y012557D01*
X004865Y012424D01*
X004799Y012357D01*
X004598Y012557D02*
X004598Y012757D01*
X004865Y012757D01*
X004405Y012691D02*
X004338Y012757D01*
X004205Y012757D01*
X004138Y012691D01*
X004138Y012424D01*
X004205Y012357D01*
X004338Y012357D01*
X004405Y012424D01*
M02*
