G75*
G70*
%OFA0B0*%
%FSLAX24Y24*%
%IPPOS*%
%LPD*%
%AMOC8*
5,1,8,0,0,1.08239X$1,22.5*
%
%ADD10C,0.0000*%
%ADD11C,0.0436*%
%ADD12C,0.0554*%
%ADD13OC8,0.0600*%
%ADD14C,0.0594*%
%ADD15C,0.0594*%
%ADD16C,0.0120*%
%ADD17C,0.0318*%
%ADD18C,0.0160*%
%ADD19C,0.0100*%
D10*
X003588Y000907D02*
X003588Y018907D01*
X023088Y018907D01*
X023088Y000907D01*
X003588Y000907D01*
X016202Y011786D02*
X016204Y011820D01*
X016210Y011854D01*
X016220Y011887D01*
X016233Y011918D01*
X016251Y011948D01*
X016271Y011976D01*
X016295Y012001D01*
X016321Y012023D01*
X016349Y012041D01*
X016380Y012057D01*
X016412Y012069D01*
X016446Y012077D01*
X016480Y012081D01*
X016514Y012081D01*
X016548Y012077D01*
X016582Y012069D01*
X016614Y012057D01*
X016644Y012041D01*
X016673Y012023D01*
X016699Y012001D01*
X016723Y011976D01*
X016743Y011948D01*
X016761Y011918D01*
X016774Y011887D01*
X016784Y011854D01*
X016790Y011820D01*
X016792Y011786D01*
X016790Y011752D01*
X016784Y011718D01*
X016774Y011685D01*
X016761Y011654D01*
X016743Y011624D01*
X016723Y011596D01*
X016699Y011571D01*
X016673Y011549D01*
X016645Y011531D01*
X016614Y011515D01*
X016582Y011503D01*
X016548Y011495D01*
X016514Y011491D01*
X016480Y011491D01*
X016446Y011495D01*
X016412Y011503D01*
X016380Y011515D01*
X016349Y011531D01*
X016321Y011549D01*
X016295Y011571D01*
X016271Y011596D01*
X016251Y011624D01*
X016233Y011654D01*
X016220Y011685D01*
X016210Y011718D01*
X016204Y011752D01*
X016202Y011786D01*
X011366Y014607D02*
X011368Y014654D01*
X011374Y014700D01*
X011384Y014746D01*
X011397Y014791D01*
X011415Y014834D01*
X011436Y014876D01*
X011460Y014916D01*
X011488Y014953D01*
X011519Y014988D01*
X011553Y015021D01*
X011589Y015050D01*
X011628Y015076D01*
X011669Y015099D01*
X011712Y015118D01*
X011756Y015134D01*
X011801Y015146D01*
X011847Y015154D01*
X011894Y015158D01*
X011940Y015158D01*
X011987Y015154D01*
X012033Y015146D01*
X012078Y015134D01*
X012122Y015118D01*
X012165Y015099D01*
X012206Y015076D01*
X012245Y015050D01*
X012281Y015021D01*
X012315Y014988D01*
X012346Y014953D01*
X012374Y014916D01*
X012398Y014876D01*
X012419Y014834D01*
X012437Y014791D01*
X012450Y014746D01*
X012460Y014700D01*
X012466Y014654D01*
X012468Y014607D01*
X012466Y014560D01*
X012460Y014514D01*
X012450Y014468D01*
X012437Y014423D01*
X012419Y014380D01*
X012398Y014338D01*
X012374Y014298D01*
X012346Y014261D01*
X012315Y014226D01*
X012281Y014193D01*
X012245Y014164D01*
X012206Y014138D01*
X012165Y014115D01*
X012122Y014096D01*
X012078Y014080D01*
X012033Y014068D01*
X011987Y014060D01*
X011940Y014056D01*
X011894Y014056D01*
X011847Y014060D01*
X011801Y014068D01*
X011756Y014080D01*
X011712Y014096D01*
X011669Y014115D01*
X011628Y014138D01*
X011589Y014164D01*
X011553Y014193D01*
X011519Y014226D01*
X011488Y014261D01*
X011460Y014298D01*
X011436Y014338D01*
X011415Y014380D01*
X011397Y014423D01*
X011384Y014468D01*
X011374Y014514D01*
X011368Y014560D01*
X011366Y014607D01*
X009133Y014870D02*
X009135Y014912D01*
X009141Y014954D01*
X009151Y014996D01*
X009164Y015036D01*
X009182Y015075D01*
X009203Y015112D01*
X009227Y015146D01*
X009255Y015179D01*
X009285Y015209D01*
X009318Y015235D01*
X009353Y015259D01*
X009391Y015279D01*
X009430Y015295D01*
X009470Y015308D01*
X009512Y015317D01*
X009554Y015322D01*
X009597Y015323D01*
X009639Y015320D01*
X009681Y015313D01*
X009722Y015302D01*
X009762Y015287D01*
X009800Y015269D01*
X009837Y015247D01*
X009871Y015222D01*
X009903Y015194D01*
X009931Y015163D01*
X009957Y015129D01*
X009980Y015093D01*
X009999Y015056D01*
X010015Y015016D01*
X010027Y014975D01*
X010035Y014934D01*
X010039Y014891D01*
X010039Y014849D01*
X010035Y014806D01*
X010027Y014765D01*
X010015Y014724D01*
X009999Y014684D01*
X009980Y014647D01*
X009957Y014611D01*
X009931Y014577D01*
X009903Y014546D01*
X009871Y014518D01*
X009837Y014493D01*
X009800Y014471D01*
X009762Y014453D01*
X009722Y014438D01*
X009681Y014427D01*
X009639Y014420D01*
X009597Y014417D01*
X009554Y014418D01*
X009512Y014423D01*
X009470Y014432D01*
X009430Y014445D01*
X009391Y014461D01*
X009353Y014481D01*
X009318Y014505D01*
X009285Y014531D01*
X009255Y014561D01*
X009227Y014594D01*
X009203Y014628D01*
X009182Y014665D01*
X009164Y014704D01*
X009151Y014744D01*
X009141Y014786D01*
X009135Y014828D01*
X009133Y014870D01*
X004497Y017407D02*
X004499Y017455D01*
X004505Y017503D01*
X004515Y017550D01*
X004528Y017596D01*
X004546Y017641D01*
X004566Y017685D01*
X004591Y017727D01*
X004619Y017766D01*
X004649Y017803D01*
X004683Y017837D01*
X004720Y017869D01*
X004758Y017898D01*
X004799Y017923D01*
X004842Y017945D01*
X004887Y017963D01*
X004933Y017977D01*
X004980Y017988D01*
X005028Y017995D01*
X005076Y017998D01*
X005124Y017997D01*
X005172Y017992D01*
X005220Y017983D01*
X005266Y017971D01*
X005311Y017954D01*
X005355Y017934D01*
X005397Y017911D01*
X005437Y017884D01*
X005475Y017854D01*
X005510Y017821D01*
X005542Y017785D01*
X005572Y017747D01*
X005598Y017706D01*
X005620Y017663D01*
X005640Y017619D01*
X005655Y017574D01*
X005667Y017527D01*
X005675Y017479D01*
X005679Y017431D01*
X005679Y017383D01*
X005675Y017335D01*
X005667Y017287D01*
X005655Y017240D01*
X005640Y017195D01*
X005620Y017151D01*
X005598Y017108D01*
X005572Y017067D01*
X005542Y017029D01*
X005510Y016993D01*
X005475Y016960D01*
X005437Y016930D01*
X005397Y016903D01*
X005355Y016880D01*
X005311Y016860D01*
X005266Y016843D01*
X005220Y016831D01*
X005172Y016822D01*
X005124Y016817D01*
X005076Y016816D01*
X005028Y016819D01*
X004980Y016826D01*
X004933Y016837D01*
X004887Y016851D01*
X004842Y016869D01*
X004799Y016891D01*
X004758Y016916D01*
X004720Y016945D01*
X004683Y016977D01*
X004649Y017011D01*
X004619Y017048D01*
X004591Y017087D01*
X004566Y017129D01*
X004546Y017173D01*
X004528Y017218D01*
X004515Y017264D01*
X004505Y017311D01*
X004499Y017359D01*
X004497Y017407D01*
X003976Y014870D02*
X003978Y014912D01*
X003984Y014954D01*
X003994Y014996D01*
X004007Y015036D01*
X004025Y015075D01*
X004046Y015112D01*
X004070Y015146D01*
X004098Y015179D01*
X004128Y015209D01*
X004161Y015235D01*
X004196Y015259D01*
X004234Y015279D01*
X004273Y015295D01*
X004313Y015308D01*
X004355Y015317D01*
X004397Y015322D01*
X004440Y015323D01*
X004482Y015320D01*
X004524Y015313D01*
X004565Y015302D01*
X004605Y015287D01*
X004643Y015269D01*
X004680Y015247D01*
X004714Y015222D01*
X004746Y015194D01*
X004774Y015163D01*
X004800Y015129D01*
X004823Y015093D01*
X004842Y015056D01*
X004858Y015016D01*
X004870Y014975D01*
X004878Y014934D01*
X004882Y014891D01*
X004882Y014849D01*
X004878Y014806D01*
X004870Y014765D01*
X004858Y014724D01*
X004842Y014684D01*
X004823Y014647D01*
X004800Y014611D01*
X004774Y014577D01*
X004746Y014546D01*
X004714Y014518D01*
X004680Y014493D01*
X004643Y014471D01*
X004605Y014453D01*
X004565Y014438D01*
X004524Y014427D01*
X004482Y014420D01*
X004440Y014417D01*
X004397Y014418D01*
X004355Y014423D01*
X004313Y014432D01*
X004273Y014445D01*
X004234Y014461D01*
X004196Y014481D01*
X004161Y014505D01*
X004128Y014531D01*
X004098Y014561D01*
X004070Y014594D01*
X004046Y014628D01*
X004025Y014665D01*
X004007Y014704D01*
X003994Y014744D01*
X003984Y014786D01*
X003978Y014828D01*
X003976Y014870D01*
X021208Y014607D02*
X021210Y014654D01*
X021216Y014700D01*
X021226Y014746D01*
X021239Y014791D01*
X021257Y014834D01*
X021278Y014876D01*
X021302Y014916D01*
X021330Y014953D01*
X021361Y014988D01*
X021395Y015021D01*
X021431Y015050D01*
X021470Y015076D01*
X021511Y015099D01*
X021554Y015118D01*
X021598Y015134D01*
X021643Y015146D01*
X021689Y015154D01*
X021736Y015158D01*
X021782Y015158D01*
X021829Y015154D01*
X021875Y015146D01*
X021920Y015134D01*
X021964Y015118D01*
X022007Y015099D01*
X022048Y015076D01*
X022087Y015050D01*
X022123Y015021D01*
X022157Y014988D01*
X022188Y014953D01*
X022216Y014916D01*
X022240Y014876D01*
X022261Y014834D01*
X022279Y014791D01*
X022292Y014746D01*
X022302Y014700D01*
X022308Y014654D01*
X022310Y014607D01*
X022308Y014560D01*
X022302Y014514D01*
X022292Y014468D01*
X022279Y014423D01*
X022261Y014380D01*
X022240Y014338D01*
X022216Y014298D01*
X022188Y014261D01*
X022157Y014226D01*
X022123Y014193D01*
X022087Y014164D01*
X022048Y014138D01*
X022007Y014115D01*
X021964Y014096D01*
X021920Y014080D01*
X021875Y014068D01*
X021829Y014060D01*
X021782Y014056D01*
X021736Y014056D01*
X021689Y014060D01*
X021643Y014068D01*
X021598Y014080D01*
X021554Y014096D01*
X021511Y014115D01*
X021470Y014138D01*
X021431Y014164D01*
X021395Y014193D01*
X021361Y014226D01*
X021330Y014261D01*
X021302Y014298D01*
X021278Y014338D01*
X021257Y014380D01*
X021239Y014423D01*
X021226Y014468D01*
X021216Y014514D01*
X021210Y014560D01*
X021208Y014607D01*
X020997Y017407D02*
X020999Y017455D01*
X021005Y017503D01*
X021015Y017550D01*
X021028Y017596D01*
X021046Y017641D01*
X021066Y017685D01*
X021091Y017727D01*
X021119Y017766D01*
X021149Y017803D01*
X021183Y017837D01*
X021220Y017869D01*
X021258Y017898D01*
X021299Y017923D01*
X021342Y017945D01*
X021387Y017963D01*
X021433Y017977D01*
X021480Y017988D01*
X021528Y017995D01*
X021576Y017998D01*
X021624Y017997D01*
X021672Y017992D01*
X021720Y017983D01*
X021766Y017971D01*
X021811Y017954D01*
X021855Y017934D01*
X021897Y017911D01*
X021937Y017884D01*
X021975Y017854D01*
X022010Y017821D01*
X022042Y017785D01*
X022072Y017747D01*
X022098Y017706D01*
X022120Y017663D01*
X022140Y017619D01*
X022155Y017574D01*
X022167Y017527D01*
X022175Y017479D01*
X022179Y017431D01*
X022179Y017383D01*
X022175Y017335D01*
X022167Y017287D01*
X022155Y017240D01*
X022140Y017195D01*
X022120Y017151D01*
X022098Y017108D01*
X022072Y017067D01*
X022042Y017029D01*
X022010Y016993D01*
X021975Y016960D01*
X021937Y016930D01*
X021897Y016903D01*
X021855Y016880D01*
X021811Y016860D01*
X021766Y016843D01*
X021720Y016831D01*
X021672Y016822D01*
X021624Y016817D01*
X021576Y016816D01*
X021528Y016819D01*
X021480Y016826D01*
X021433Y016837D01*
X021387Y016851D01*
X021342Y016869D01*
X021299Y016891D01*
X021258Y016916D01*
X021220Y016945D01*
X021183Y016977D01*
X021149Y017011D01*
X021119Y017048D01*
X021091Y017087D01*
X021066Y017129D01*
X021046Y017173D01*
X021028Y017218D01*
X021015Y017264D01*
X021005Y017311D01*
X020999Y017359D01*
X020997Y017407D01*
D11*
X012838Y007857D03*
X014288Y007807D03*
X014838Y007807D03*
X015388Y007807D03*
X015938Y007807D03*
X013668Y006017D03*
X013668Y005017D03*
X013668Y004017D03*
X012668Y004017D03*
X012668Y005017D03*
X012668Y006017D03*
X013238Y001357D03*
X013788Y001357D03*
X014338Y001357D03*
X015338Y001357D03*
X016238Y001357D03*
X016788Y001357D03*
X017338Y001357D03*
X017888Y001357D03*
D12*
X015488Y011507D03*
X014488Y011507D03*
X014988Y012507D03*
X015988Y012507D03*
D13*
X015758Y014107D03*
X014678Y014107D03*
X015218Y015107D03*
X016298Y015107D03*
X017378Y015107D03*
X018458Y015107D03*
X017918Y014107D03*
X016838Y014107D03*
X018998Y014107D03*
D14*
X018838Y009804D02*
X018838Y009210D01*
X017838Y009210D02*
X017838Y009804D01*
X016838Y009804D02*
X016838Y009210D01*
D15*
X008366Y013807D03*
X007382Y013807D03*
X006594Y013807D03*
X005610Y013807D03*
D16*
X005571Y013828D02*
X003768Y013828D01*
X003768Y013710D02*
X005163Y013710D01*
X005164Y013700D02*
X005187Y013632D01*
X005219Y013568D01*
X005262Y013509D01*
X005312Y013459D01*
X005371Y013416D01*
X005435Y013384D01*
X005503Y013361D01*
X005572Y013351D01*
X005572Y013768D01*
X005649Y013768D01*
X005649Y013769D02*
X005649Y013846D01*
X006066Y013846D01*
X006056Y013914D01*
X006033Y013982D01*
X006001Y014046D01*
X005959Y014105D01*
X005908Y014156D01*
X005849Y014198D01*
X005785Y014230D01*
X005717Y014253D01*
X005649Y014263D01*
X005649Y013846D01*
X005572Y013846D01*
X005572Y014263D01*
X005503Y014253D01*
X005435Y014230D01*
X005371Y014198D01*
X005312Y014156D01*
X005262Y014105D01*
X005219Y014046D01*
X005187Y013982D01*
X005164Y013914D01*
X005154Y013846D01*
X005571Y013846D01*
X005571Y013769D01*
X005154Y013769D01*
X005164Y013700D01*
X005207Y013591D02*
X003768Y013591D01*
X003768Y013473D02*
X005298Y013473D01*
X005572Y013473D02*
X005649Y013473D01*
X005649Y013591D02*
X005572Y013591D01*
X005572Y013710D02*
X005649Y013710D01*
X005649Y013768D02*
X005649Y013351D01*
X005717Y013361D01*
X005785Y013384D01*
X005849Y013416D01*
X005908Y013459D01*
X005959Y013509D01*
X006001Y013568D01*
X006033Y013632D01*
X006056Y013700D01*
X006066Y013769D01*
X005649Y013769D01*
X005649Y013828D02*
X006117Y013828D01*
X006117Y013902D02*
X006117Y013712D01*
X006190Y013537D01*
X006324Y013403D01*
X006499Y013330D01*
X006689Y013330D01*
X006864Y013403D01*
X006988Y013526D01*
X007112Y013403D01*
X007287Y013330D01*
X007477Y013330D01*
X007652Y013403D01*
X007786Y013537D01*
X007859Y013712D01*
X007859Y013902D01*
X007786Y014077D01*
X007652Y014211D01*
X007477Y014284D01*
X007287Y014284D01*
X007112Y014211D01*
X006988Y014088D01*
X006864Y014211D01*
X006689Y014284D01*
X006499Y014284D01*
X006324Y014211D01*
X006190Y014077D01*
X006117Y013902D01*
X006136Y013947D02*
X006045Y013947D01*
X005987Y014065D02*
X006185Y014065D01*
X006297Y014184D02*
X005869Y014184D01*
X005649Y014184D02*
X005572Y014184D01*
X005572Y014065D02*
X005649Y014065D01*
X005649Y013947D02*
X005572Y013947D01*
X005352Y014184D02*
X003768Y014184D01*
X003768Y014302D02*
X004146Y014302D01*
X004071Y014334D02*
X004303Y014237D01*
X004555Y014237D01*
X004787Y014334D01*
X004965Y014512D01*
X005062Y014744D01*
X005062Y014996D01*
X004965Y015228D01*
X004787Y015406D01*
X004555Y015503D01*
X004303Y015503D01*
X004071Y015406D01*
X003893Y015228D01*
X003796Y014996D01*
X003796Y014744D01*
X003893Y014512D01*
X004071Y014334D01*
X003983Y014421D02*
X003768Y014421D01*
X003768Y014540D02*
X003881Y014540D01*
X003832Y014658D02*
X003768Y014658D01*
X003768Y014777D02*
X003796Y014777D01*
X003796Y014895D02*
X003768Y014895D01*
X003768Y015014D02*
X003804Y015014D01*
X003768Y015132D02*
X003853Y015132D01*
X003915Y015251D02*
X003768Y015251D01*
X003768Y015369D02*
X004033Y015369D01*
X004267Y015488D02*
X003768Y015488D01*
X003768Y015606D02*
X022908Y015606D01*
X022908Y015488D02*
X018756Y015488D01*
X018657Y015587D02*
X018938Y015306D01*
X018938Y014908D01*
X018657Y014627D01*
X018259Y014627D01*
X017978Y014908D01*
X017978Y015306D01*
X018259Y015587D01*
X018657Y015587D01*
X018874Y015369D02*
X022908Y015369D01*
X022908Y015251D02*
X022116Y015251D01*
X022173Y015227D02*
X021905Y015338D01*
X021614Y015338D01*
X021345Y015227D01*
X021139Y015021D01*
X021028Y014753D01*
X021028Y014462D01*
X021139Y014193D01*
X021345Y013987D01*
X021614Y013876D01*
X021905Y013876D01*
X022173Y013987D01*
X022379Y014193D01*
X022490Y014462D01*
X022490Y014753D01*
X022379Y015021D01*
X022173Y015227D01*
X022268Y015132D02*
X022908Y015132D01*
X022908Y015014D02*
X022382Y015014D01*
X022431Y014895D02*
X022908Y014895D01*
X022908Y014777D02*
X022480Y014777D01*
X022490Y014658D02*
X022908Y014658D01*
X022908Y014540D02*
X022490Y014540D01*
X022474Y014421D02*
X022908Y014421D01*
X022908Y014302D02*
X022424Y014302D01*
X022370Y014184D02*
X022908Y014184D01*
X022908Y014065D02*
X022252Y014065D01*
X022076Y013947D02*
X022908Y013947D01*
X022908Y013828D02*
X019398Y013828D01*
X019478Y013908D02*
X019197Y013627D01*
X018799Y013627D01*
X018518Y013908D01*
X018518Y014306D01*
X018799Y014587D01*
X019197Y014587D01*
X019478Y014306D01*
X019478Y013908D01*
X019478Y013947D02*
X021442Y013947D01*
X021267Y014065D02*
X019478Y014065D01*
X019478Y014184D02*
X021148Y014184D01*
X021094Y014302D02*
X019478Y014302D01*
X019363Y014421D02*
X021045Y014421D01*
X021028Y014540D02*
X019244Y014540D01*
X018925Y014895D02*
X021087Y014895D01*
X021038Y014777D02*
X018806Y014777D01*
X018688Y014658D02*
X021028Y014658D01*
X021136Y015014D02*
X018938Y015014D01*
X018938Y015132D02*
X021250Y015132D01*
X021403Y015251D02*
X018938Y015251D01*
X018228Y014658D02*
X017608Y014658D01*
X017577Y014627D02*
X017858Y014908D01*
X017858Y015306D01*
X017577Y015587D01*
X017179Y015587D01*
X016898Y015306D01*
X016898Y014908D01*
X017179Y014627D01*
X017577Y014627D01*
X017672Y014540D02*
X017056Y014540D01*
X017029Y014567D02*
X016878Y014567D01*
X016878Y014147D01*
X017298Y014147D01*
X017298Y014298D01*
X017029Y014567D01*
X017148Y014658D02*
X016528Y014658D01*
X016497Y014627D02*
X016778Y014908D01*
X016778Y015306D01*
X016497Y015587D01*
X016099Y015587D01*
X015818Y015306D01*
X015818Y014908D01*
X016099Y014627D01*
X016497Y014627D01*
X016620Y014540D02*
X016004Y014540D01*
X015957Y014587D02*
X015559Y014587D01*
X015278Y014306D01*
X015278Y013908D01*
X015559Y013627D01*
X015957Y013627D01*
X016238Y013908D01*
X016238Y014306D01*
X015957Y014587D01*
X016068Y014658D02*
X015448Y014658D01*
X015417Y014627D02*
X015698Y014908D01*
X015698Y015306D01*
X015417Y015587D01*
X015019Y015587D01*
X014738Y015306D01*
X014738Y014908D01*
X015019Y014627D01*
X015417Y014627D01*
X015512Y014540D02*
X014924Y014540D01*
X014877Y014587D02*
X014479Y014587D01*
X014198Y014306D01*
X014198Y013908D01*
X014479Y013627D01*
X014877Y013627D01*
X015158Y013908D01*
X015158Y014306D01*
X014877Y014587D01*
X014988Y014658D02*
X012648Y014658D01*
X012648Y014753D02*
X012537Y015021D01*
X012331Y015227D01*
X012062Y015338D01*
X011771Y015338D01*
X011503Y015227D01*
X011297Y015021D01*
X011186Y014753D01*
X011186Y014462D01*
X011297Y014193D01*
X011503Y013987D01*
X011771Y013876D01*
X012062Y013876D01*
X012331Y013987D01*
X012537Y014193D01*
X012648Y014462D01*
X012648Y014753D01*
X012638Y014777D02*
X014870Y014777D01*
X014751Y014895D02*
X012589Y014895D01*
X012540Y015014D02*
X014738Y015014D01*
X014738Y015132D02*
X012426Y015132D01*
X012273Y015251D02*
X014738Y015251D01*
X014802Y015369D02*
X009982Y015369D01*
X009945Y015406D02*
X009712Y015503D01*
X009461Y015503D01*
X009228Y015406D01*
X009050Y015228D01*
X008954Y014996D01*
X008954Y014744D01*
X009050Y014512D01*
X009228Y014334D01*
X009461Y014237D01*
X009712Y014237D01*
X009945Y014334D01*
X010123Y014512D01*
X010219Y014744D01*
X010219Y014996D01*
X010123Y015228D01*
X009945Y015406D01*
X009748Y015488D02*
X014920Y015488D01*
X015516Y015488D02*
X016000Y015488D01*
X015882Y015369D02*
X015634Y015369D01*
X015698Y015251D02*
X015818Y015251D01*
X015818Y015132D02*
X015698Y015132D01*
X015698Y015014D02*
X015818Y015014D01*
X015831Y014895D02*
X015685Y014895D01*
X015566Y014777D02*
X015950Y014777D01*
X016123Y014421D02*
X016501Y014421D01*
X016383Y014302D02*
X016238Y014302D01*
X016238Y014184D02*
X016378Y014184D01*
X016378Y014147D02*
X016378Y014298D01*
X016647Y014567D01*
X016798Y014567D01*
X016798Y014147D01*
X016798Y014067D01*
X016878Y014067D01*
X016878Y013647D01*
X017029Y013647D01*
X017298Y013917D01*
X017298Y014067D01*
X016878Y014067D01*
X016878Y014147D01*
X016798Y014147D01*
X016378Y014147D01*
X016378Y014067D02*
X016378Y013917D01*
X016647Y013647D01*
X016798Y013647D01*
X016798Y014067D01*
X016378Y014067D01*
X016378Y014065D02*
X016238Y014065D01*
X016238Y013947D02*
X016378Y013947D01*
X016466Y013828D02*
X016158Y013828D01*
X016039Y013710D02*
X016585Y013710D01*
X016798Y013710D02*
X016878Y013710D01*
X016878Y013828D02*
X016798Y013828D01*
X016798Y013947D02*
X016878Y013947D01*
X016878Y014065D02*
X016798Y014065D01*
X016798Y014184D02*
X016878Y014184D01*
X016878Y014302D02*
X016798Y014302D01*
X016798Y014421D02*
X016878Y014421D01*
X016878Y014540D02*
X016798Y014540D01*
X016646Y014777D02*
X017030Y014777D01*
X016911Y014895D02*
X016765Y014895D01*
X016778Y015014D02*
X016898Y015014D01*
X016898Y015132D02*
X016778Y015132D01*
X016778Y015251D02*
X016898Y015251D01*
X016962Y015369D02*
X016714Y015369D01*
X016596Y015488D02*
X017080Y015488D01*
X017676Y015488D02*
X018160Y015488D01*
X018042Y015369D02*
X017794Y015369D01*
X017858Y015251D02*
X017978Y015251D01*
X017978Y015132D02*
X017858Y015132D01*
X017858Y015014D02*
X017978Y015014D01*
X017991Y014895D02*
X017845Y014895D01*
X017726Y014777D02*
X018110Y014777D01*
X018117Y014587D02*
X017719Y014587D01*
X017438Y014306D01*
X017438Y013908D01*
X017719Y013627D01*
X018117Y013627D01*
X018398Y013908D01*
X018398Y014306D01*
X018117Y014587D01*
X018164Y014540D02*
X018752Y014540D01*
X018633Y014421D02*
X018283Y014421D01*
X018398Y014302D02*
X018518Y014302D01*
X018518Y014184D02*
X018398Y014184D01*
X018398Y014065D02*
X018518Y014065D01*
X018518Y013947D02*
X018398Y013947D01*
X018318Y013828D02*
X018598Y013828D01*
X018717Y013710D02*
X018199Y013710D01*
X017637Y013710D02*
X017091Y013710D01*
X017210Y013828D02*
X017518Y013828D01*
X017438Y013947D02*
X017298Y013947D01*
X017298Y014065D02*
X017438Y014065D01*
X017438Y014184D02*
X017298Y014184D01*
X017293Y014302D02*
X017438Y014302D01*
X017553Y014421D02*
X017175Y014421D01*
X015393Y014421D02*
X015043Y014421D01*
X015158Y014302D02*
X015278Y014302D01*
X015278Y014184D02*
X015158Y014184D01*
X015158Y014065D02*
X015278Y014065D01*
X015278Y013947D02*
X015158Y013947D01*
X015078Y013828D02*
X015358Y013828D01*
X015477Y013710D02*
X014959Y013710D01*
X014397Y013710D02*
X008842Y013710D01*
X008843Y013712D02*
X008770Y013537D01*
X008636Y013403D01*
X008461Y013330D01*
X008271Y013330D01*
X008096Y013403D01*
X007962Y013537D01*
X007889Y013712D01*
X007889Y013902D01*
X007962Y014077D01*
X008096Y014211D01*
X008271Y014284D01*
X008461Y014284D01*
X008636Y014211D01*
X008770Y014077D01*
X008843Y013902D01*
X008843Y013712D01*
X008843Y013828D02*
X014278Y013828D01*
X014198Y013947D02*
X012234Y013947D01*
X012409Y014065D02*
X014198Y014065D01*
X014198Y014184D02*
X012528Y014184D01*
X012582Y014302D02*
X014198Y014302D01*
X014313Y014421D02*
X012631Y014421D01*
X012648Y014540D02*
X014432Y014540D01*
X014897Y012964D02*
X014729Y012895D01*
X014600Y012766D01*
X014531Y012598D01*
X014531Y012416D01*
X014600Y012248D01*
X014729Y012120D01*
X014897Y012050D01*
X015079Y012050D01*
X015247Y012120D01*
X015376Y012248D01*
X015445Y012416D01*
X015445Y012598D01*
X015376Y012766D01*
X015247Y012895D01*
X015079Y012964D01*
X014897Y012964D01*
X014714Y012880D02*
X003768Y012880D01*
X003768Y012999D02*
X022908Y012999D01*
X022908Y013117D02*
X003768Y013117D01*
X003768Y013236D02*
X022908Y013236D01*
X022908Y013354D02*
X008519Y013354D01*
X008706Y013473D02*
X022908Y013473D01*
X022908Y013591D02*
X008793Y013591D01*
X008824Y013947D02*
X011600Y013947D01*
X011424Y014065D02*
X008775Y014065D01*
X008663Y014184D02*
X011306Y014184D01*
X011251Y014302D02*
X009870Y014302D01*
X010032Y014421D02*
X011202Y014421D01*
X011186Y014540D02*
X010134Y014540D01*
X010184Y014658D02*
X011186Y014658D01*
X011196Y014777D02*
X010219Y014777D01*
X010219Y014895D02*
X011245Y014895D01*
X011294Y015014D02*
X010212Y015014D01*
X010163Y015132D02*
X011408Y015132D01*
X011560Y015251D02*
X010100Y015251D01*
X009425Y015488D02*
X004591Y015488D01*
X004824Y015369D02*
X009191Y015369D01*
X009072Y015251D02*
X004943Y015251D01*
X005005Y015132D02*
X009010Y015132D01*
X008961Y015014D02*
X005054Y015014D01*
X005062Y014895D02*
X008954Y014895D01*
X008954Y014777D02*
X005062Y014777D01*
X005026Y014658D02*
X008989Y014658D01*
X009038Y014540D02*
X004977Y014540D01*
X004875Y014421D02*
X009141Y014421D01*
X009303Y014302D02*
X004712Y014302D01*
X005233Y014065D02*
X003768Y014065D01*
X003768Y013947D02*
X005175Y013947D01*
X005549Y013354D02*
X003768Y013354D01*
X003768Y012761D02*
X014599Y012761D01*
X014549Y012643D02*
X003768Y012643D01*
X003768Y012524D02*
X014531Y012524D01*
X014535Y012406D02*
X003768Y012406D01*
X003768Y012287D02*
X014584Y012287D01*
X014680Y012169D02*
X003768Y012169D01*
X003768Y012050D02*
X014896Y012050D01*
X015080Y012050D02*
X016092Y012050D01*
X016094Y012055D02*
X016022Y011880D01*
X016022Y011691D01*
X016094Y011517D01*
X016228Y011383D01*
X016403Y011311D01*
X016592Y011311D01*
X016767Y011383D01*
X016900Y011517D01*
X016973Y011691D01*
X016973Y011880D01*
X016900Y012055D01*
X016767Y012189D01*
X016592Y012261D01*
X016403Y012261D01*
X016327Y012229D01*
X016362Y012278D01*
X016393Y012339D01*
X016414Y012405D01*
X016425Y012473D01*
X016425Y012478D01*
X016017Y012478D01*
X016017Y012536D01*
X016425Y012536D01*
X016425Y012541D01*
X016414Y012609D01*
X016393Y012675D01*
X016362Y012736D01*
X016321Y012792D01*
X016273Y012841D01*
X016217Y012881D01*
X016156Y012912D01*
X016090Y012933D01*
X016022Y012944D01*
X016017Y012944D01*
X016017Y012536D01*
X015959Y012536D01*
X015959Y012478D01*
X016017Y012478D01*
X016017Y012070D01*
X016022Y012070D01*
X016090Y012081D01*
X016134Y012095D01*
X016094Y012055D01*
X016043Y011932D02*
X015658Y011932D01*
X015579Y011964D02*
X015747Y011895D01*
X015876Y011766D01*
X015945Y011598D01*
X015945Y011416D01*
X015876Y011248D01*
X015747Y011120D01*
X015579Y011050D01*
X015397Y011050D01*
X015229Y011120D01*
X015100Y011248D01*
X015031Y011416D01*
X015031Y011598D01*
X015100Y011766D01*
X015229Y011895D01*
X015397Y011964D01*
X015579Y011964D01*
X015710Y012169D02*
X015296Y012169D01*
X015392Y012287D02*
X015609Y012287D01*
X015614Y012278D02*
X015655Y012222D01*
X015703Y012174D01*
X015759Y012133D01*
X015820Y012102D01*
X015886Y012081D01*
X015954Y012070D01*
X015959Y012070D01*
X015959Y012478D01*
X015551Y012478D01*
X015551Y012473D01*
X015562Y012405D01*
X015583Y012339D01*
X015614Y012278D01*
X015561Y012406D02*
X015441Y012406D01*
X015445Y012524D02*
X015959Y012524D01*
X015959Y012536D02*
X015551Y012536D01*
X015551Y012541D01*
X015562Y012609D01*
X015583Y012675D01*
X015614Y012736D01*
X015655Y012792D01*
X015703Y012841D01*
X015759Y012881D01*
X015820Y012912D01*
X015886Y012933D01*
X015954Y012944D01*
X015959Y012944D01*
X015959Y012536D01*
X016017Y012524D02*
X022908Y012524D01*
X022908Y012406D02*
X016415Y012406D01*
X016367Y012287D02*
X022908Y012287D01*
X022908Y012169D02*
X016787Y012169D01*
X016902Y012050D02*
X022908Y012050D01*
X022908Y011932D02*
X016951Y011932D01*
X016973Y011813D02*
X022908Y011813D01*
X022908Y011695D02*
X016973Y011695D01*
X016925Y011576D02*
X022908Y011576D01*
X022908Y011457D02*
X016841Y011457D01*
X016660Y011339D02*
X022908Y011339D01*
X022908Y011220D02*
X015848Y011220D01*
X015913Y011339D02*
X016334Y011339D01*
X016154Y011457D02*
X015945Y011457D01*
X015945Y011576D02*
X016070Y011576D01*
X016022Y011695D02*
X015905Y011695D01*
X015829Y011813D02*
X016022Y011813D01*
X016017Y012169D02*
X015959Y012169D01*
X015959Y012287D02*
X016017Y012287D01*
X016017Y012406D02*
X015959Y012406D01*
X015959Y012643D02*
X016017Y012643D01*
X016017Y012761D02*
X015959Y012761D01*
X015959Y012880D02*
X016017Y012880D01*
X016219Y012880D02*
X022908Y012880D01*
X022908Y012761D02*
X016344Y012761D01*
X016404Y012643D02*
X022908Y012643D01*
X022908Y013710D02*
X019279Y013710D01*
X016335Y010627D02*
X016240Y010667D01*
X010836Y010667D01*
X009727Y010667D01*
X009727Y010675D01*
X009675Y010799D01*
X009580Y010894D01*
X009455Y010946D01*
X009321Y010946D01*
X009196Y010894D01*
X009101Y010799D01*
X009087Y010767D01*
X005636Y010767D01*
X005541Y010727D01*
X005468Y010654D01*
X004291Y009477D01*
X004218Y009404D01*
X004178Y009309D01*
X004178Y006527D01*
X004151Y006499D01*
X004099Y006375D01*
X004099Y006240D01*
X004151Y006115D01*
X004246Y006020D01*
X004371Y005968D01*
X004505Y005968D01*
X004558Y005990D01*
X004558Y005612D01*
X004693Y005477D01*
X004883Y005477D01*
X009283Y005477D01*
X009418Y005612D01*
X009418Y005802D01*
X009418Y006202D01*
X009499Y006121D01*
X009499Y006040D01*
X009551Y005915D01*
X009646Y005820D01*
X009725Y005787D01*
X009699Y005725D01*
X009699Y005643D01*
X009102Y005046D01*
X009021Y005046D01*
X008896Y004994D01*
X008801Y004899D01*
X008749Y004775D01*
X008749Y004640D01*
X008771Y004587D01*
X007943Y004587D01*
X007808Y004452D01*
X007552Y004196D01*
X007471Y004196D01*
X007346Y004144D01*
X007251Y004049D01*
X007199Y003925D01*
X007199Y003790D01*
X007251Y003665D01*
X007346Y003570D01*
X007471Y003518D01*
X007605Y003518D01*
X007625Y003526D01*
X007651Y003465D01*
X007734Y003382D01*
X007701Y003349D01*
X007649Y003225D01*
X007649Y003196D01*
X007571Y003196D01*
X007446Y003144D01*
X007351Y003049D01*
X007299Y002925D01*
X007299Y002790D01*
X007351Y002665D01*
X007446Y002570D01*
X007571Y002518D01*
X007705Y002518D01*
X007830Y002570D01*
X007838Y002577D01*
X009343Y002577D01*
X009949Y001971D01*
X009949Y001890D01*
X010001Y001765D01*
X010096Y001670D01*
X010221Y001618D01*
X010355Y001618D01*
X010480Y001670D01*
X010575Y001765D01*
X010627Y001890D01*
X010627Y001968D01*
X010755Y001968D01*
X010880Y002020D01*
X010975Y002115D01*
X011027Y002240D01*
X011027Y002375D01*
X010975Y002499D01*
X010880Y002594D01*
X010755Y002646D01*
X010621Y002646D01*
X010588Y002633D01*
X009833Y003387D01*
X009643Y003387D01*
X009288Y003387D01*
X009230Y003444D01*
X009105Y003496D01*
X008971Y003496D01*
X008846Y003444D01*
X008751Y003349D01*
X008699Y003225D01*
X008699Y003090D01*
X008721Y003037D01*
X008305Y003037D01*
X008327Y003090D01*
X008327Y003171D01*
X008883Y003727D01*
X009643Y003727D01*
X009833Y003727D01*
X011274Y005168D01*
X011355Y005168D01*
X011480Y005220D01*
X011575Y005315D01*
X011627Y005440D01*
X011627Y005575D01*
X011575Y005699D01*
X011480Y005794D01*
X011355Y005846D01*
X011274Y005846D01*
X011118Y006002D01*
X011118Y006108D01*
X011175Y006165D01*
X011227Y006290D01*
X011227Y006425D01*
X011175Y006549D01*
X011080Y006644D01*
X010955Y006696D01*
X010821Y006696D01*
X010696Y006644D01*
X010601Y006549D01*
X010549Y006425D01*
X010549Y006290D01*
X010601Y006165D01*
X010658Y006108D01*
X010658Y006002D01*
X010658Y005870D01*
X010596Y005844D01*
X010501Y005749D01*
X010449Y005625D01*
X010449Y005526D01*
X010430Y005544D01*
X010369Y005570D01*
X010377Y005590D01*
X010377Y005725D01*
X010325Y005849D01*
X010230Y005944D01*
X010151Y005977D01*
X010177Y006040D01*
X010177Y006175D01*
X010125Y006299D01*
X010030Y006394D01*
X009905Y006446D01*
X009824Y006446D01*
X009433Y006837D01*
X009418Y006837D01*
X009418Y008662D01*
X009418Y008852D01*
X009283Y008987D01*
X004698Y008987D01*
X004698Y009149D01*
X005796Y010247D01*
X009236Y010247D01*
X009340Y010247D01*
X009368Y010259D01*
X009441Y010187D01*
X009536Y010147D01*
X009640Y010147D01*
X010708Y010147D01*
X010708Y008457D01*
X010651Y008399D01*
X010599Y008275D01*
X010599Y008140D01*
X010651Y008015D01*
X010746Y007920D01*
X010871Y007868D01*
X011005Y007868D01*
X011130Y007920D01*
X011225Y008015D01*
X011277Y008140D01*
X011277Y008275D01*
X011225Y008399D01*
X011168Y008457D01*
X011168Y010147D01*
X016080Y010147D01*
X016361Y009866D01*
X016361Y009115D01*
X016434Y008940D01*
X016568Y008806D01*
X016743Y008733D01*
X016933Y008733D01*
X017108Y008806D01*
X017242Y008940D01*
X017315Y009115D01*
X017315Y009899D01*
X017242Y010074D01*
X017108Y010208D01*
X016933Y010281D01*
X016743Y010281D01*
X016700Y010263D01*
X016408Y010554D01*
X016335Y010627D01*
X016335Y010628D02*
X022908Y010628D01*
X022908Y010746D02*
X009697Y010746D01*
X009610Y010865D02*
X022908Y010865D01*
X022908Y010983D02*
X003768Y010983D01*
X003768Y010865D02*
X009166Y010865D01*
X009521Y010153D02*
X005702Y010153D01*
X005584Y010035D02*
X010708Y010035D01*
X010708Y009916D02*
X005465Y009916D01*
X005346Y009798D02*
X010708Y009798D01*
X010708Y009679D02*
X005228Y009679D01*
X005109Y009561D02*
X010708Y009561D01*
X010708Y009442D02*
X004991Y009442D01*
X004872Y009324D02*
X010708Y009324D01*
X010708Y009205D02*
X004754Y009205D01*
X004698Y009087D02*
X010708Y009087D01*
X010708Y008968D02*
X009302Y008968D01*
X009418Y008849D02*
X010708Y008849D01*
X010708Y008731D02*
X009418Y008731D01*
X009418Y008612D02*
X010708Y008612D01*
X010708Y008494D02*
X009418Y008494D01*
X009418Y008375D02*
X010641Y008375D01*
X010599Y008257D02*
X009418Y008257D01*
X009418Y008138D02*
X010600Y008138D01*
X010649Y008020D02*
X009418Y008020D01*
X009418Y007901D02*
X010791Y007901D01*
X011085Y007901D02*
X012440Y007901D01*
X012440Y007936D02*
X012440Y007778D01*
X012501Y007632D01*
X012613Y007520D01*
X012759Y007459D01*
X012917Y007459D01*
X013064Y007520D01*
X013176Y007632D01*
X013236Y007778D01*
X013236Y007936D01*
X013176Y008083D01*
X013064Y008195D01*
X012917Y008255D01*
X012759Y008255D01*
X012613Y008195D01*
X012501Y008083D01*
X012440Y007936D01*
X012474Y008020D02*
X011227Y008020D01*
X011276Y008138D02*
X012556Y008138D01*
X012440Y007783D02*
X009418Y007783D01*
X009418Y007664D02*
X012487Y007664D01*
X012587Y007546D02*
X009418Y007546D01*
X009418Y007427D02*
X014165Y007427D01*
X014209Y007409D02*
X014367Y007409D01*
X014514Y007470D01*
X014563Y007519D01*
X014613Y007470D01*
X014759Y007409D01*
X014917Y007409D01*
X015064Y007470D01*
X015113Y007519D01*
X015163Y007470D01*
X015309Y007409D01*
X015467Y007409D01*
X015614Y007470D01*
X015663Y007519D01*
X015713Y007470D01*
X015859Y007409D01*
X016017Y007409D01*
X016164Y007470D01*
X016276Y007582D01*
X016336Y007728D01*
X016336Y007886D01*
X016276Y008033D01*
X016164Y008145D01*
X016017Y008205D01*
X015859Y008205D01*
X015713Y008145D01*
X015663Y008095D01*
X015614Y008145D01*
X015467Y008205D01*
X015309Y008205D01*
X015163Y008145D01*
X015113Y008095D01*
X015064Y008145D01*
X014917Y008205D01*
X014759Y008205D01*
X014613Y008145D01*
X014563Y008095D01*
X014514Y008145D01*
X014367Y008205D01*
X014209Y008205D01*
X014063Y008145D01*
X013951Y008033D01*
X013890Y007886D01*
X013890Y007728D01*
X013951Y007582D01*
X014063Y007470D01*
X014209Y007409D01*
X014411Y007427D02*
X014715Y007427D01*
X014961Y007427D02*
X015265Y007427D01*
X015511Y007427D02*
X015815Y007427D01*
X016061Y007427D02*
X022908Y007427D01*
X022908Y007546D02*
X016239Y007546D01*
X016310Y007664D02*
X022908Y007664D01*
X022908Y007783D02*
X016336Y007783D01*
X016330Y007901D02*
X022908Y007901D01*
X022908Y008020D02*
X016281Y008020D01*
X016170Y008138D02*
X022908Y008138D01*
X022908Y008257D02*
X011277Y008257D01*
X011235Y008375D02*
X022908Y008375D01*
X022908Y008494D02*
X011168Y008494D01*
X011168Y008612D02*
X022908Y008612D01*
X022908Y008731D02*
X011168Y008731D01*
X011168Y008849D02*
X016524Y008849D01*
X016422Y008968D02*
X011168Y008968D01*
X011168Y009087D02*
X016373Y009087D01*
X016361Y009205D02*
X011168Y009205D01*
X011168Y009324D02*
X016361Y009324D01*
X016361Y009442D02*
X011168Y009442D01*
X011168Y009561D02*
X016361Y009561D01*
X016361Y009679D02*
X011168Y009679D01*
X011168Y009798D02*
X016361Y009798D01*
X016311Y009916D02*
X011168Y009916D01*
X011168Y010035D02*
X016192Y010035D01*
X016572Y010391D02*
X022908Y010391D01*
X022908Y010509D02*
X016454Y010509D01*
X016691Y010272D02*
X016722Y010272D01*
X016954Y010272D02*
X018722Y010272D01*
X018743Y010281D02*
X018568Y010208D01*
X018434Y010074D01*
X018361Y009899D01*
X018361Y009115D01*
X018434Y008940D01*
X018568Y008806D01*
X018743Y008733D01*
X018933Y008733D01*
X019108Y008806D01*
X019242Y008940D01*
X019315Y009115D01*
X019315Y009899D01*
X019242Y010074D01*
X019108Y010208D01*
X018933Y010281D01*
X018743Y010281D01*
X018954Y010272D02*
X022908Y010272D01*
X022908Y010153D02*
X019163Y010153D01*
X019258Y010035D02*
X022908Y010035D01*
X022908Y009916D02*
X019308Y009916D01*
X019315Y009798D02*
X022908Y009798D01*
X022908Y009679D02*
X019315Y009679D01*
X019315Y009561D02*
X022908Y009561D01*
X022908Y009442D02*
X019315Y009442D01*
X019315Y009324D02*
X022908Y009324D01*
X022908Y009205D02*
X019315Y009205D01*
X019303Y009087D02*
X022908Y009087D01*
X022908Y008968D02*
X019254Y008968D01*
X019152Y008849D02*
X022908Y008849D01*
X022908Y007308D02*
X009418Y007308D01*
X009418Y007190D02*
X022908Y007190D01*
X022908Y007071D02*
X009418Y007071D01*
X009418Y006953D02*
X022908Y006953D01*
X022908Y006834D02*
X009436Y006834D01*
X009555Y006716D02*
X022908Y006716D01*
X022908Y006597D02*
X011127Y006597D01*
X011205Y006479D02*
X022908Y006479D01*
X022908Y006360D02*
X013880Y006360D01*
X013894Y006355D02*
X013747Y006415D01*
X013589Y006415D01*
X013443Y006355D01*
X013331Y006243D01*
X013270Y006096D01*
X013270Y005938D01*
X013331Y005792D01*
X013443Y005680D01*
X013589Y005619D01*
X013747Y005619D01*
X013894Y005680D01*
X014006Y005792D01*
X014066Y005938D01*
X014066Y006096D01*
X014006Y006243D01*
X013894Y006355D01*
X014006Y006242D02*
X022908Y006242D01*
X022908Y006123D02*
X014055Y006123D01*
X014066Y006004D02*
X022908Y006004D01*
X022908Y005886D02*
X014045Y005886D01*
X013981Y005767D02*
X022908Y005767D01*
X022908Y005649D02*
X013819Y005649D01*
X013747Y005415D02*
X013589Y005415D01*
X013443Y005355D01*
X013331Y005243D01*
X013270Y005096D01*
X013270Y004938D01*
X013331Y004792D01*
X013443Y004680D01*
X013589Y004619D01*
X013747Y004619D01*
X013894Y004680D01*
X014006Y004792D01*
X014066Y004938D01*
X014066Y005096D01*
X014006Y005243D01*
X013894Y005355D01*
X013747Y005415D01*
X013756Y005412D02*
X022908Y005412D01*
X022908Y005530D02*
X011627Y005530D01*
X011615Y005412D02*
X012581Y005412D01*
X012589Y005415D02*
X012443Y005355D01*
X012331Y005243D01*
X012270Y005096D01*
X012270Y004938D01*
X012331Y004792D01*
X012443Y004680D01*
X012589Y004619D01*
X012747Y004619D01*
X012894Y004680D01*
X013006Y004792D01*
X013066Y004938D01*
X013066Y005096D01*
X013006Y005243D01*
X012894Y005355D01*
X012747Y005415D01*
X012589Y005415D01*
X012756Y005412D02*
X013581Y005412D01*
X013381Y005293D02*
X012955Y005293D01*
X013034Y005175D02*
X013302Y005175D01*
X013270Y005056D02*
X013066Y005056D01*
X013066Y004938D02*
X013270Y004938D01*
X013319Y004819D02*
X013017Y004819D01*
X012914Y004700D02*
X013422Y004700D01*
X013589Y004415D02*
X013443Y004355D01*
X013331Y004243D01*
X013270Y004096D01*
X013270Y003938D01*
X013331Y003792D01*
X013443Y003680D01*
X013589Y003619D01*
X013747Y003619D01*
X013894Y003680D01*
X014006Y003792D01*
X014066Y003938D01*
X014066Y004096D01*
X014006Y004243D01*
X013894Y004355D01*
X013747Y004415D01*
X013589Y004415D01*
X013433Y004345D02*
X012903Y004345D01*
X012894Y004355D02*
X012747Y004415D01*
X012589Y004415D01*
X012443Y004355D01*
X012331Y004243D01*
X012270Y004096D01*
X012270Y003938D01*
X012331Y003792D01*
X012443Y003680D01*
X012589Y003619D01*
X012747Y003619D01*
X012894Y003680D01*
X013006Y003792D01*
X013066Y003938D01*
X013066Y004096D01*
X013006Y004243D01*
X012894Y004355D01*
X013012Y004226D02*
X013324Y004226D01*
X013275Y004108D02*
X013061Y004108D01*
X013066Y003989D02*
X013270Y003989D01*
X013298Y003871D02*
X013038Y003871D01*
X012966Y003752D02*
X013370Y003752D01*
X013554Y003634D02*
X012782Y003634D01*
X012554Y003634D02*
X008790Y003634D01*
X008671Y003515D02*
X022908Y003515D01*
X022908Y003396D02*
X009278Y003396D01*
X008798Y003396D02*
X008553Y003396D01*
X008434Y003278D02*
X008721Y003278D01*
X008699Y003159D02*
X008327Y003159D01*
X008307Y003041D02*
X008719Y003041D01*
X009353Y002567D02*
X007823Y002567D01*
X007453Y002567D02*
X003768Y002567D01*
X003768Y002685D02*
X007342Y002685D01*
X007299Y002804D02*
X003768Y002804D01*
X003768Y002922D02*
X007299Y002922D01*
X007347Y003041D02*
X003768Y003041D01*
X003768Y003159D02*
X007482Y003159D01*
X007671Y003278D02*
X003768Y003278D01*
X003768Y003396D02*
X007719Y003396D01*
X007630Y003515D02*
X003768Y003515D01*
X003768Y003634D02*
X007282Y003634D01*
X007214Y003752D02*
X003768Y003752D01*
X003768Y003871D02*
X007199Y003871D01*
X007226Y003989D02*
X003768Y003989D01*
X003768Y004108D02*
X007309Y004108D01*
X007582Y004226D02*
X003768Y004226D01*
X003768Y004345D02*
X007701Y004345D01*
X007819Y004463D02*
X003768Y004463D01*
X003768Y004582D02*
X007938Y004582D01*
X008749Y004700D02*
X003768Y004700D01*
X003768Y004819D02*
X008767Y004819D01*
X008839Y004938D02*
X003768Y004938D01*
X003768Y005056D02*
X009112Y005056D01*
X009230Y005175D02*
X003768Y005175D01*
X003768Y005293D02*
X009349Y005293D01*
X009467Y005412D02*
X003768Y005412D01*
X003768Y005530D02*
X004640Y005530D01*
X004558Y005649D02*
X003768Y005649D01*
X003768Y005767D02*
X004558Y005767D01*
X004558Y005886D02*
X003768Y005886D01*
X003768Y006004D02*
X004283Y006004D01*
X004147Y006123D02*
X003768Y006123D01*
X003768Y006242D02*
X004099Y006242D01*
X004099Y006360D02*
X003768Y006360D01*
X003768Y006479D02*
X004142Y006479D01*
X004178Y006597D02*
X003768Y006597D01*
X003768Y006716D02*
X004178Y006716D01*
X004178Y006834D02*
X003768Y006834D01*
X003768Y006953D02*
X004178Y006953D01*
X004178Y007071D02*
X003768Y007071D01*
X003768Y007190D02*
X004178Y007190D01*
X004178Y007308D02*
X003768Y007308D01*
X003768Y007427D02*
X004178Y007427D01*
X004178Y007546D02*
X003768Y007546D01*
X003768Y007664D02*
X004178Y007664D01*
X004178Y007783D02*
X003768Y007783D01*
X003768Y007901D02*
X004178Y007901D01*
X004178Y008020D02*
X003768Y008020D01*
X003768Y008138D02*
X004178Y008138D01*
X004178Y008257D02*
X003768Y008257D01*
X003768Y008375D02*
X004178Y008375D01*
X004178Y008494D02*
X003768Y008494D01*
X003768Y008612D02*
X004178Y008612D01*
X004178Y008731D02*
X003768Y008731D01*
X003768Y008849D02*
X004178Y008849D01*
X004178Y008968D02*
X003768Y008968D01*
X003768Y009087D02*
X004178Y009087D01*
X004178Y009205D02*
X003768Y009205D01*
X003768Y009324D02*
X004184Y009324D01*
X004255Y009442D02*
X003768Y009442D01*
X003768Y009561D02*
X004374Y009561D01*
X004291Y009477D02*
X004291Y009477D01*
X004493Y009679D02*
X003768Y009679D01*
X003768Y009798D02*
X004611Y009798D01*
X004730Y009916D02*
X003768Y009916D01*
X003768Y010035D02*
X004848Y010035D01*
X004967Y010153D02*
X003768Y010153D01*
X003768Y010272D02*
X005085Y010272D01*
X005204Y010391D02*
X003768Y010391D01*
X003768Y010509D02*
X005322Y010509D01*
X005441Y010628D02*
X003768Y010628D01*
X003768Y010746D02*
X005586Y010746D01*
X005468Y010654D02*
X005468Y010654D01*
X003768Y011102D02*
X014272Y011102D01*
X014229Y011120D02*
X014100Y011248D01*
X014031Y011416D01*
X014031Y011598D01*
X014100Y011766D01*
X014229Y011895D01*
X014397Y011964D01*
X014579Y011964D01*
X014747Y011895D01*
X014876Y011766D01*
X014945Y011598D01*
X014945Y011416D01*
X014876Y011248D01*
X014747Y011120D01*
X014579Y011050D01*
X014397Y011050D01*
X014229Y011120D01*
X014128Y011220D02*
X003768Y011220D01*
X003768Y011339D02*
X014063Y011339D01*
X014031Y011457D02*
X003768Y011457D01*
X003768Y011576D02*
X014031Y011576D01*
X014071Y011695D02*
X003768Y011695D01*
X003768Y011813D02*
X014148Y011813D01*
X014318Y011932D02*
X003768Y011932D01*
X005572Y013354D02*
X005649Y013354D01*
X005671Y013354D02*
X006442Y013354D01*
X006254Y013473D02*
X005922Y013473D01*
X006013Y013591D02*
X006168Y013591D01*
X006118Y013710D02*
X006057Y013710D01*
X006747Y013354D02*
X007229Y013354D01*
X007042Y013473D02*
X006934Y013473D01*
X007534Y013354D02*
X008213Y013354D01*
X008026Y013473D02*
X007722Y013473D01*
X007808Y013591D02*
X007939Y013591D01*
X007890Y013710D02*
X007858Y013710D01*
X007859Y013828D02*
X007889Y013828D01*
X007908Y013947D02*
X007840Y013947D01*
X007791Y014065D02*
X007957Y014065D01*
X008069Y014184D02*
X007679Y014184D01*
X007084Y014184D02*
X006892Y014184D01*
X003768Y015725D02*
X022908Y015725D01*
X022908Y015844D02*
X003768Y015844D01*
X003768Y015907D02*
X022908Y015907D01*
X022908Y001087D01*
X018181Y001087D01*
X018226Y001132D01*
X018286Y001278D01*
X018286Y001436D01*
X018226Y001583D01*
X018114Y001695D01*
X017967Y001755D01*
X017809Y001755D01*
X017663Y001695D01*
X017613Y001645D01*
X017564Y001695D01*
X017417Y001755D01*
X017259Y001755D01*
X017113Y001695D01*
X017063Y001645D01*
X017014Y001695D01*
X016867Y001755D01*
X016709Y001755D01*
X016563Y001695D01*
X016513Y001645D01*
X016464Y001695D01*
X016317Y001755D01*
X016159Y001755D01*
X016013Y001695D01*
X015901Y001583D01*
X015840Y001436D01*
X015840Y001278D01*
X015901Y001132D01*
X015945Y001087D01*
X015631Y001087D01*
X015676Y001132D01*
X015736Y001278D01*
X015736Y001436D01*
X015676Y001583D01*
X015564Y001695D01*
X015417Y001755D01*
X015259Y001755D01*
X015113Y001695D01*
X015001Y001583D01*
X014940Y001436D01*
X014940Y001278D01*
X015001Y001132D01*
X015045Y001087D01*
X014631Y001087D01*
X014676Y001132D01*
X014736Y001278D01*
X014736Y001436D01*
X014676Y001583D01*
X014564Y001695D01*
X014417Y001755D01*
X014259Y001755D01*
X014113Y001695D01*
X014063Y001645D01*
X014014Y001695D01*
X013867Y001755D01*
X013709Y001755D01*
X013563Y001695D01*
X013513Y001645D01*
X013464Y001695D01*
X013317Y001755D01*
X013159Y001755D01*
X013013Y001695D01*
X012901Y001583D01*
X012840Y001436D01*
X012840Y001278D01*
X012901Y001132D01*
X012945Y001087D01*
X003768Y001087D01*
X003768Y015907D01*
X013120Y008138D02*
X014056Y008138D01*
X013945Y008020D02*
X013202Y008020D01*
X013236Y007901D02*
X013896Y007901D01*
X013890Y007783D02*
X013236Y007783D01*
X013189Y007664D02*
X013916Y007664D01*
X013987Y007546D02*
X013089Y007546D01*
X012747Y006415D02*
X012589Y006415D01*
X012443Y006355D01*
X012331Y006243D01*
X012270Y006096D01*
X012270Y005938D01*
X012331Y005792D01*
X012443Y005680D01*
X012589Y005619D01*
X012747Y005619D01*
X012894Y005680D01*
X013006Y005792D01*
X013066Y005938D01*
X013066Y006096D01*
X013006Y006243D01*
X012894Y006355D01*
X012747Y006415D01*
X012880Y006360D02*
X013456Y006360D01*
X013330Y006242D02*
X013006Y006242D01*
X013055Y006123D02*
X013281Y006123D01*
X013270Y006004D02*
X013066Y006004D01*
X013045Y005886D02*
X013291Y005886D01*
X013355Y005767D02*
X012981Y005767D01*
X012819Y005649D02*
X013517Y005649D01*
X013955Y005293D02*
X022908Y005293D01*
X022908Y005175D02*
X014034Y005175D01*
X014066Y005056D02*
X022908Y005056D01*
X022908Y004938D02*
X014066Y004938D01*
X014017Y004819D02*
X022908Y004819D01*
X022908Y004700D02*
X013914Y004700D01*
X013903Y004345D02*
X022908Y004345D01*
X022908Y004463D02*
X010570Y004463D01*
X010688Y004582D02*
X022908Y004582D01*
X022908Y004226D02*
X014012Y004226D01*
X014061Y004108D02*
X022908Y004108D01*
X022908Y003989D02*
X014066Y003989D01*
X014038Y003871D02*
X022908Y003871D01*
X022908Y003752D02*
X013966Y003752D01*
X013782Y003634D02*
X022908Y003634D01*
X022908Y003278D02*
X009942Y003278D01*
X010061Y003159D02*
X022908Y003159D01*
X022908Y003041D02*
X010179Y003041D01*
X010298Y002922D02*
X022908Y002922D01*
X022908Y002804D02*
X010417Y002804D01*
X010535Y002685D02*
X022908Y002685D01*
X022908Y002567D02*
X010908Y002567D01*
X010997Y002448D02*
X022908Y002448D01*
X022908Y002330D02*
X011027Y002330D01*
X011015Y002211D02*
X022908Y002211D01*
X022908Y002093D02*
X010953Y002093D01*
X010770Y001974D02*
X022908Y001974D01*
X022908Y001855D02*
X010613Y001855D01*
X010547Y001737D02*
X013115Y001737D01*
X012936Y001618D02*
X010356Y001618D01*
X010220Y001618D02*
X003768Y001618D01*
X003768Y001500D02*
X012866Y001500D01*
X012840Y001381D02*
X003768Y001381D01*
X003768Y001263D02*
X012846Y001263D01*
X012895Y001144D02*
X003768Y001144D01*
X003768Y001737D02*
X010029Y001737D01*
X009963Y001855D02*
X003768Y001855D01*
X003768Y001974D02*
X009946Y001974D01*
X009827Y002093D02*
X003768Y002093D01*
X003768Y002211D02*
X009709Y002211D01*
X009590Y002330D02*
X003768Y002330D01*
X003768Y002448D02*
X009472Y002448D01*
X009858Y003752D02*
X012370Y003752D01*
X012298Y003871D02*
X009977Y003871D01*
X010095Y003989D02*
X012270Y003989D01*
X012275Y004108D02*
X010214Y004108D01*
X010332Y004226D02*
X012324Y004226D01*
X012433Y004345D02*
X010451Y004345D01*
X010807Y004700D02*
X012422Y004700D01*
X012319Y004819D02*
X010925Y004819D01*
X011044Y004938D02*
X012270Y004938D01*
X012270Y005056D02*
X011162Y005056D01*
X011371Y005175D02*
X012302Y005175D01*
X012381Y005293D02*
X011554Y005293D01*
X011596Y005649D02*
X012517Y005649D01*
X012355Y005767D02*
X011507Y005767D01*
X011234Y005886D02*
X012291Y005886D01*
X012270Y006004D02*
X011118Y006004D01*
X011133Y006123D02*
X012281Y006123D01*
X012330Y006242D02*
X011207Y006242D01*
X011227Y006360D02*
X012456Y006360D01*
X010649Y006597D02*
X009673Y006597D01*
X009792Y006479D02*
X010571Y006479D01*
X010549Y006360D02*
X010064Y006360D01*
X010149Y006242D02*
X010569Y006242D01*
X010643Y006123D02*
X010177Y006123D01*
X010162Y006004D02*
X010658Y006004D01*
X010658Y005886D02*
X010289Y005886D01*
X010359Y005767D02*
X010519Y005767D01*
X010459Y005649D02*
X010377Y005649D01*
X010444Y005530D02*
X010449Y005530D01*
X009699Y005649D02*
X009418Y005649D01*
X009418Y005767D02*
X009717Y005767D01*
X009580Y005886D02*
X009418Y005886D01*
X009418Y006004D02*
X009514Y006004D01*
X009497Y006123D02*
X009418Y006123D01*
X009336Y005530D02*
X009586Y005530D01*
X013361Y001737D02*
X013665Y001737D01*
X013911Y001737D02*
X014215Y001737D01*
X014461Y001737D02*
X015215Y001737D01*
X015036Y001618D02*
X014640Y001618D01*
X014710Y001500D02*
X014966Y001500D01*
X014940Y001381D02*
X014736Y001381D01*
X014730Y001263D02*
X014946Y001263D01*
X014995Y001144D02*
X014681Y001144D01*
X015461Y001737D02*
X016115Y001737D01*
X015936Y001618D02*
X015640Y001618D01*
X015710Y001500D02*
X015866Y001500D01*
X015840Y001381D02*
X015736Y001381D01*
X015730Y001263D02*
X015846Y001263D01*
X015895Y001144D02*
X015681Y001144D01*
X016361Y001737D02*
X016665Y001737D01*
X016911Y001737D02*
X017215Y001737D01*
X017461Y001737D02*
X017765Y001737D01*
X018011Y001737D02*
X022908Y001737D01*
X022908Y001618D02*
X018190Y001618D01*
X018260Y001500D02*
X022908Y001500D01*
X022908Y001381D02*
X018286Y001381D01*
X018280Y001263D02*
X022908Y001263D01*
X022908Y001144D02*
X018231Y001144D01*
X015706Y008138D02*
X015620Y008138D01*
X015156Y008138D02*
X015070Y008138D01*
X014606Y008138D02*
X014520Y008138D01*
X017152Y008849D02*
X017557Y008849D01*
X017540Y008862D02*
X017599Y008819D01*
X017663Y008787D01*
X017731Y008765D01*
X017800Y008754D01*
X017800Y009468D01*
X017876Y009468D01*
X017876Y008754D01*
X017945Y008765D01*
X018013Y008787D01*
X018077Y008819D01*
X018136Y008862D01*
X018186Y008913D01*
X018229Y008971D01*
X018261Y009035D01*
X018284Y009103D01*
X018295Y009174D01*
X018295Y009469D01*
X017877Y009469D01*
X017877Y009546D01*
X018295Y009546D01*
X018295Y009840D01*
X018284Y009911D01*
X018261Y009979D01*
X018229Y010043D01*
X018186Y010102D01*
X018136Y010152D01*
X018077Y010195D01*
X018013Y010227D01*
X017945Y010249D01*
X017876Y010260D01*
X017876Y009546D01*
X017800Y009546D01*
X017800Y010260D01*
X017731Y010249D01*
X017663Y010227D01*
X017599Y010195D01*
X017540Y010152D01*
X017490Y010102D01*
X017447Y010043D01*
X017415Y009979D01*
X017392Y009911D01*
X017381Y009840D01*
X017381Y009546D01*
X017799Y009546D01*
X017799Y009469D01*
X017381Y009469D01*
X017381Y009174D01*
X017392Y009103D01*
X017415Y009035D01*
X017447Y008971D01*
X017490Y008913D01*
X017540Y008862D01*
X017449Y008968D02*
X017254Y008968D01*
X017303Y009087D02*
X017398Y009087D01*
X017381Y009205D02*
X017315Y009205D01*
X017315Y009324D02*
X017381Y009324D01*
X017381Y009442D02*
X017315Y009442D01*
X017315Y009561D02*
X017381Y009561D01*
X017381Y009679D02*
X017315Y009679D01*
X017315Y009798D02*
X017381Y009798D01*
X017394Y009916D02*
X017308Y009916D01*
X017258Y010035D02*
X017443Y010035D01*
X017542Y010153D02*
X017163Y010153D01*
X017800Y010153D02*
X017876Y010153D01*
X017876Y010035D02*
X017800Y010035D01*
X017800Y009916D02*
X017876Y009916D01*
X017876Y009798D02*
X017800Y009798D01*
X017800Y009679D02*
X017876Y009679D01*
X017876Y009561D02*
X017800Y009561D01*
X017800Y009442D02*
X017876Y009442D01*
X017876Y009324D02*
X017800Y009324D01*
X017800Y009205D02*
X017876Y009205D01*
X017876Y009087D02*
X017800Y009087D01*
X017800Y008968D02*
X017876Y008968D01*
X017876Y008849D02*
X017800Y008849D01*
X018119Y008849D02*
X018524Y008849D01*
X018422Y008968D02*
X018227Y008968D01*
X018278Y009087D02*
X018373Y009087D01*
X018361Y009205D02*
X018295Y009205D01*
X018295Y009324D02*
X018361Y009324D01*
X018361Y009442D02*
X018295Y009442D01*
X018295Y009561D02*
X018361Y009561D01*
X018361Y009679D02*
X018295Y009679D01*
X018295Y009798D02*
X018361Y009798D01*
X018369Y009916D02*
X018282Y009916D01*
X018233Y010035D02*
X018418Y010035D01*
X018513Y010153D02*
X018134Y010153D01*
X015704Y011102D02*
X022908Y011102D01*
X015758Y012880D02*
X015262Y012880D01*
X015377Y012761D02*
X015632Y012761D01*
X015572Y012643D02*
X015427Y012643D01*
X015318Y011932D02*
X014658Y011932D01*
X014829Y011813D02*
X015148Y011813D01*
X015071Y011695D02*
X014905Y011695D01*
X014945Y011576D02*
X015031Y011576D01*
X015031Y011457D02*
X014945Y011457D01*
X014913Y011339D02*
X015063Y011339D01*
X015128Y011220D02*
X014848Y011220D01*
X014704Y011102D02*
X015272Y011102D01*
D17*
X014088Y009357D03*
X011788Y008057D03*
X010938Y008207D03*
X010188Y008057D03*
X010488Y006557D03*
X010888Y006357D03*
X010788Y005557D03*
X010238Y005257D03*
X010038Y005657D03*
X009838Y006107D03*
X009088Y005957D03*
X008938Y006607D03*
X008588Y007107D03*
X008588Y007557D03*
X008588Y008007D03*
X006738Y007907D03*
X006738Y008357D03*
X006038Y008357D03*
X006038Y007907D03*
X006038Y007107D03*
X006038Y006657D03*
X006688Y006657D03*
X006688Y007107D03*
X005888Y005107D03*
X005388Y004457D03*
X004038Y005057D03*
X003888Y006307D03*
X004438Y006307D03*
X007538Y004307D03*
X007538Y003857D03*
X007938Y003657D03*
X007988Y003157D03*
X007638Y002857D03*
X009038Y003157D03*
X009588Y003607D03*
X009088Y004707D03*
X011288Y005507D03*
X010688Y002307D03*
X010288Y001957D03*
X010488Y001407D03*
X008838Y001407D03*
X006138Y002707D03*
X004238Y002807D03*
X003888Y001507D03*
X003988Y009357D03*
X004738Y012457D03*
X004088Y013857D03*
X009388Y010607D03*
X010038Y013757D03*
X013538Y013857D03*
X017088Y013257D03*
X018838Y012707D03*
X019788Y011857D03*
X019788Y011457D03*
X019788Y011057D03*
X020188Y010607D03*
X020588Y010607D03*
X020988Y010607D03*
X019738Y008257D03*
X019938Y006457D03*
X022338Y008157D03*
X022588Y013507D03*
X014988Y006607D03*
X014888Y003207D03*
X012638Y001357D03*
X019288Y002557D03*
X020788Y002507D03*
X022488Y001807D03*
D18*
X016838Y009507D02*
X016838Y009757D01*
X016188Y010407D01*
X010888Y010407D01*
X009588Y010407D01*
X009388Y010607D01*
X009288Y010507D01*
X005688Y010507D01*
X004438Y009257D01*
X004438Y006307D01*
X007588Y004557D02*
X007588Y004357D01*
X007538Y004307D01*
X007588Y004557D02*
X008038Y005007D01*
X008638Y005007D01*
X009088Y005457D01*
X009088Y005957D01*
D19*
X008804Y005834D02*
X004788Y005834D01*
X004788Y005736D02*
X008858Y005736D01*
X008858Y005750D02*
X008858Y005707D01*
X004788Y005707D01*
X004788Y008757D01*
X009188Y008757D01*
X009188Y006807D01*
X009175Y006807D01*
X009113Y006869D01*
X008999Y006916D01*
X008877Y006916D01*
X008763Y006869D01*
X008676Y006782D01*
X008629Y006669D01*
X008629Y006546D01*
X008676Y006432D01*
X008763Y006345D01*
X008877Y006298D01*
X008999Y006298D01*
X009113Y006345D01*
X009175Y006407D01*
X009188Y006407D01*
X009188Y006250D01*
X009149Y006266D01*
X009027Y006266D01*
X008913Y006219D01*
X008826Y006132D01*
X008779Y006019D01*
X008779Y005896D01*
X008826Y005782D01*
X008858Y005750D01*
X008779Y005933D02*
X004788Y005933D01*
X004788Y006031D02*
X008784Y006031D01*
X008825Y006130D02*
X004788Y006130D01*
X004788Y006228D02*
X008936Y006228D01*
X008807Y006327D02*
X004788Y006327D01*
X004788Y006426D02*
X008683Y006426D01*
X008638Y006524D02*
X004788Y006524D01*
X004788Y006623D02*
X008629Y006623D01*
X008651Y006721D02*
X004788Y006721D01*
X004788Y006820D02*
X008714Y006820D01*
X008938Y006607D02*
X009338Y006607D01*
X009838Y006107D01*
X010038Y005657D02*
X009088Y004707D01*
X009338Y004357D02*
X010238Y005257D01*
X010788Y005307D02*
X010788Y005557D01*
X010788Y005307D02*
X009638Y004157D01*
X008188Y004157D01*
X007938Y003907D01*
X007938Y003657D01*
X007538Y003857D02*
X008038Y004357D01*
X009338Y004357D01*
X009738Y003957D02*
X008788Y003957D01*
X007988Y003157D01*
X007688Y002857D02*
X007738Y002807D01*
X009438Y002807D01*
X010288Y001957D01*
X010588Y002307D02*
X010688Y002307D01*
X010588Y002307D02*
X009738Y003157D01*
X009038Y003157D01*
X009738Y003957D02*
X011288Y005507D01*
X010888Y005907D01*
X010888Y006357D01*
X009188Y006327D02*
X009069Y006327D01*
X009162Y006820D02*
X009188Y006820D01*
X009188Y006918D02*
X004788Y006918D01*
X004788Y007017D02*
X009188Y007017D01*
X009188Y007115D02*
X004788Y007115D01*
X004788Y007214D02*
X009188Y007214D01*
X009188Y007312D02*
X004788Y007312D01*
X004788Y007411D02*
X009188Y007411D01*
X009188Y007509D02*
X004788Y007509D01*
X004788Y007608D02*
X009188Y007608D01*
X009188Y007707D02*
X004788Y007707D01*
X004788Y007805D02*
X009188Y007805D01*
X009188Y007904D02*
X004788Y007904D01*
X004788Y008002D02*
X009188Y008002D01*
X009188Y008101D02*
X004788Y008101D01*
X004788Y008199D02*
X009188Y008199D01*
X009188Y008298D02*
X004788Y008298D01*
X004788Y008396D02*
X009188Y008396D01*
X009188Y008495D02*
X004788Y008495D01*
X004788Y008593D02*
X009188Y008593D01*
X009188Y008692D02*
X004788Y008692D01*
X010938Y008207D02*
X010938Y010357D01*
X010888Y010407D01*
X007688Y002857D02*
X007638Y002857D01*
M02*
