G75*
G70*
%OFA0B0*%
%FSLAX24Y24*%
%IPPOS*%
%LPD*%
%AMOC8*
5,1,8,0,0,1.08239X$1,22.5*
%
%ADD10C,0.0100*%
%ADD11C,0.0000*%
%ADD12C,0.0060*%
%ADD13C,0.0594*%
%ADD14R,0.0660X0.0660*%
%ADD15C,0.0700*%
%ADD16OC8,0.0520*%
%ADD17OC8,0.0436*%
%ADD18C,0.0160*%
%ADD19C,0.0436*%
D10*
X007755Y005221D02*
X007755Y005676D01*
X007755Y006070D02*
X007755Y006526D01*
X007975Y006502D02*
X011725Y006502D01*
X011823Y006600D02*
X007975Y006600D01*
X007975Y006699D02*
X018072Y006699D01*
X018014Y006641D02*
X019035Y007662D01*
X019035Y008499D01*
X018960Y008530D01*
X018814Y008676D01*
X018755Y008819D01*
X018695Y008676D01*
X018549Y008530D01*
X018358Y008451D01*
X018151Y008451D01*
X017960Y008530D01*
X017814Y008676D01*
X017755Y008819D01*
X017695Y008676D01*
X017549Y008530D01*
X017358Y008451D01*
X017205Y008451D01*
X017205Y007979D01*
X017385Y007799D01*
X017385Y007443D01*
X017133Y007191D01*
X016777Y007191D01*
X016525Y007443D01*
X016525Y007799D01*
X016705Y007979D01*
X016705Y008567D01*
X016705Y008774D01*
X016753Y008823D01*
X016735Y008867D01*
X014075Y008867D01*
X014075Y008965D02*
X016735Y008965D01*
X016735Y008867D02*
X016735Y009074D01*
X016814Y009265D01*
X016960Y009412D01*
X017103Y009471D01*
X016960Y009530D01*
X016814Y009676D01*
X016735Y009867D01*
X016735Y010074D01*
X016814Y010265D01*
X016960Y010412D01*
X017151Y010491D01*
X017358Y010491D01*
X017433Y010460D01*
X017664Y010691D01*
X017846Y010691D01*
X020596Y010691D01*
X020725Y010562D01*
X020917Y010369D01*
X020960Y010412D01*
X021151Y010491D01*
X021358Y010491D01*
X021549Y010412D01*
X021695Y010265D01*
X021755Y010122D01*
X021814Y010265D01*
X021960Y010412D01*
X022151Y010491D01*
X022358Y010491D01*
X022549Y010412D01*
X022695Y010265D01*
X022755Y010122D01*
X022814Y010265D01*
X022960Y010412D01*
X023151Y010491D01*
X023358Y010491D01*
X023549Y010412D01*
X023695Y010265D01*
X023755Y010122D01*
X023814Y010265D01*
X023960Y010412D01*
X024151Y010491D01*
X024358Y010491D01*
X024549Y010412D01*
X024695Y010265D01*
X024755Y010122D01*
X024814Y010265D01*
X024960Y010412D01*
X025151Y010491D01*
X025358Y010491D01*
X025549Y010412D01*
X025695Y010265D01*
X025775Y010074D01*
X025775Y009867D01*
X025695Y009676D01*
X025549Y009530D01*
X025406Y009471D01*
X025549Y009412D01*
X025695Y009265D01*
X025755Y009122D01*
X025814Y009265D01*
X025960Y009412D01*
X026151Y009491D01*
X026358Y009491D01*
X026549Y009412D01*
X026695Y009265D01*
X026775Y009074D01*
X026775Y008867D01*
X026695Y008676D01*
X026549Y008530D01*
X026358Y008451D01*
X026151Y008451D01*
X025960Y008530D01*
X025814Y008676D01*
X025755Y008819D01*
X025695Y008676D01*
X025549Y008530D01*
X025358Y008451D01*
X025151Y008451D01*
X024960Y008530D01*
X024814Y008676D01*
X024755Y008819D01*
X024695Y008676D01*
X024549Y008530D01*
X024358Y008451D01*
X024151Y008451D01*
X023960Y008530D01*
X023814Y008676D01*
X023755Y008819D01*
X023695Y008676D01*
X023549Y008530D01*
X023358Y008451D01*
X023151Y008451D01*
X022960Y008530D01*
X022814Y008676D01*
X022755Y008819D01*
X022695Y008676D01*
X022549Y008530D01*
X022358Y008451D01*
X022151Y008451D01*
X021960Y008530D01*
X021814Y008676D01*
X021755Y008819D01*
X021695Y008676D01*
X021549Y008530D01*
X021358Y008451D01*
X021336Y008451D01*
X021996Y007791D01*
X025776Y007791D01*
X025885Y007900D01*
X026027Y007959D01*
X026182Y007959D01*
X026324Y007900D01*
X026434Y007791D01*
X026493Y007648D01*
X026493Y007494D01*
X026434Y007351D01*
X026324Y007242D01*
X026182Y007183D01*
X026027Y007183D01*
X025885Y007242D01*
X025776Y007351D01*
X021996Y007351D01*
X021814Y007351D01*
X020664Y008501D01*
X020592Y008573D01*
X020549Y008530D01*
X020358Y008451D01*
X020151Y008451D01*
X019975Y008524D01*
X019975Y007580D01*
X019846Y007451D01*
X018525Y006130D01*
X018514Y006119D01*
X018519Y006117D01*
X018650Y005985D01*
X018721Y005814D01*
X018721Y005671D01*
X018788Y005671D01*
X018788Y005814D01*
X018859Y005985D01*
X018990Y006117D01*
X019162Y006188D01*
X019348Y006188D01*
X019519Y006117D01*
X019650Y005985D01*
X019721Y005814D01*
X019721Y005671D01*
X019788Y005671D01*
X019788Y005814D01*
X019859Y005985D01*
X019990Y006117D01*
X020162Y006188D01*
X020348Y006188D01*
X020519Y006117D01*
X020650Y005985D01*
X020721Y005814D01*
X020721Y005671D01*
X020788Y005671D01*
X020788Y005814D01*
X020859Y005985D01*
X020990Y006117D01*
X021162Y006188D01*
X021348Y006188D01*
X021519Y006117D01*
X021650Y005985D01*
X021721Y005814D01*
X021721Y005671D01*
X021788Y005671D01*
X021788Y005814D01*
X021859Y005985D01*
X021990Y006117D01*
X022162Y006188D01*
X022348Y006188D01*
X022519Y006117D01*
X022650Y005985D01*
X022721Y005814D01*
X022721Y005671D01*
X022788Y005671D01*
X022788Y005814D01*
X022859Y005985D01*
X022990Y006117D01*
X023162Y006188D01*
X023348Y006188D01*
X023519Y006117D01*
X023650Y005985D01*
X023721Y005814D01*
X023721Y005671D01*
X023788Y005671D01*
X023788Y005814D01*
X023859Y005985D01*
X023990Y006117D01*
X024162Y006188D01*
X024348Y006188D01*
X024519Y006117D01*
X024650Y005985D01*
X024721Y005814D01*
X024721Y005671D01*
X024788Y005671D01*
X024788Y005814D01*
X024859Y005985D01*
X024990Y006117D01*
X025162Y006188D01*
X025348Y006188D01*
X025519Y006117D01*
X025650Y005985D01*
X025721Y005814D01*
X025721Y005671D01*
X025788Y005671D01*
X025788Y005814D01*
X025859Y005985D01*
X025990Y006117D01*
X026162Y006188D01*
X026348Y006188D01*
X026519Y006117D01*
X026650Y005985D01*
X026721Y005814D01*
X026721Y005671D01*
X026788Y005671D01*
X026788Y005814D01*
X026859Y005985D01*
X026990Y006117D01*
X027162Y006188D01*
X027348Y006188D01*
X027519Y006117D01*
X027650Y005985D01*
X027721Y005814D01*
X027721Y005671D01*
X027808Y005671D01*
X027808Y005672D01*
X028206Y005672D01*
X028206Y005769D01*
X027808Y005769D01*
X027808Y005810D01*
X027876Y005974D01*
X028001Y006100D01*
X028166Y006168D01*
X028206Y006168D01*
X028206Y005769D01*
X028303Y005769D01*
X028303Y006168D01*
X028344Y006168D01*
X028508Y006100D01*
X028535Y006073D01*
X028535Y009971D01*
X027455Y009971D01*
X027306Y009982D01*
X027161Y010017D01*
X027023Y010074D01*
X026896Y010152D01*
X026783Y010249D01*
X026735Y010306D01*
X026735Y010019D01*
X026303Y010019D01*
X026303Y009922D01*
X026206Y009922D01*
X026206Y009491D01*
X025862Y009491D01*
X025775Y009579D01*
X025775Y009922D01*
X026206Y009922D01*
X026206Y010019D01*
X025775Y010019D01*
X025775Y010363D01*
X025862Y010451D01*
X026206Y010451D01*
X026206Y010019D01*
X026303Y010019D01*
X026303Y010451D01*
X026632Y010451D01*
X026608Y010489D01*
X026551Y010627D01*
X026516Y010772D01*
X026505Y010921D01*
X026505Y011321D01*
X026516Y011462D01*
X026549Y011599D01*
X026603Y011729D01*
X026676Y011850D01*
X026768Y011957D01*
X026876Y012049D01*
X026996Y012123D01*
X027126Y012177D01*
X027264Y012210D01*
X027405Y012221D01*
X028535Y012221D01*
X028535Y012251D01*
X007975Y012251D01*
X007975Y012221D01*
X009055Y012221D01*
X009200Y012213D01*
X009342Y012183D01*
X009477Y012131D01*
X009603Y012059D01*
X009716Y011968D01*
X009813Y011860D01*
X009892Y011738D01*
X009952Y011605D01*
X009989Y011465D01*
X010005Y011321D01*
X010005Y010921D01*
X009993Y010772D01*
X009958Y010627D01*
X009901Y010489D01*
X009823Y010362D01*
X009726Y010249D01*
X009613Y010152D01*
X009486Y010074D01*
X009348Y010017D01*
X009203Y009982D01*
X009055Y009971D01*
X007975Y009971D01*
X007975Y006101D01*
X007990Y006117D01*
X008162Y006188D01*
X008348Y006188D01*
X008519Y006117D01*
X008650Y005985D01*
X008721Y005814D01*
X008721Y005671D01*
X008788Y005671D01*
X008788Y005814D01*
X008859Y005985D01*
X008990Y006117D01*
X009162Y006188D01*
X009348Y006188D01*
X009519Y006117D01*
X009650Y005985D01*
X009721Y005814D01*
X009721Y005671D01*
X009788Y005671D01*
X009788Y005814D01*
X009859Y005985D01*
X009990Y006117D01*
X010162Y006188D01*
X010348Y006188D01*
X010519Y006117D01*
X010650Y005985D01*
X010721Y005814D01*
X010721Y005671D01*
X010788Y005671D01*
X010788Y005814D01*
X010859Y005985D01*
X010990Y006117D01*
X011162Y006188D01*
X011348Y006188D01*
X011392Y006169D01*
X011864Y006641D01*
X012046Y006641D01*
X018014Y006641D01*
X018105Y006421D02*
X011955Y006421D01*
X011255Y005721D01*
X010828Y005911D02*
X010681Y005911D01*
X010721Y005812D02*
X010788Y005812D01*
X010788Y005714D02*
X010721Y005714D01*
X010626Y006009D02*
X010883Y006009D01*
X010981Y006108D02*
X010528Y006108D01*
X009981Y006108D02*
X009528Y006108D01*
X009626Y006009D02*
X009883Y006009D01*
X009828Y005911D02*
X009681Y005911D01*
X009721Y005812D02*
X009788Y005812D01*
X009788Y005714D02*
X009721Y005714D01*
X008981Y006108D02*
X008528Y006108D01*
X008626Y006009D02*
X008883Y006009D01*
X008828Y005911D02*
X008681Y005911D01*
X008721Y005812D02*
X008788Y005812D01*
X008788Y005714D02*
X008721Y005714D01*
X007981Y006108D02*
X007975Y006108D01*
X007975Y006206D02*
X011429Y006206D01*
X011528Y006305D02*
X007975Y006305D01*
X007975Y006403D02*
X011626Y006403D01*
X012255Y005721D02*
X012755Y006221D01*
X018305Y006221D01*
X019755Y007671D01*
X019755Y009371D01*
X019255Y009871D01*
X019255Y009971D01*
X020505Y010471D02*
X017755Y010471D01*
X017255Y009971D01*
X017255Y009921D01*
X016835Y009655D02*
X014075Y009655D01*
X014075Y009742D02*
X014075Y007450D01*
X014193Y007331D01*
X014193Y007010D01*
X013965Y006783D01*
X013644Y006783D01*
X013417Y007010D01*
X013417Y007331D01*
X013635Y007550D01*
X013635Y009742D01*
X013467Y009910D01*
X013467Y010231D01*
X013694Y010459D01*
X014015Y010459D01*
X014243Y010231D01*
X014243Y009910D01*
X014075Y009742D01*
X014086Y009754D02*
X016782Y009754D01*
X016741Y009852D02*
X014185Y009852D01*
X014243Y009951D02*
X016735Y009951D01*
X016735Y010049D02*
X014243Y010049D01*
X014243Y010148D02*
X016765Y010148D01*
X016806Y010246D02*
X014228Y010246D01*
X014129Y010345D02*
X016894Y010345D01*
X017037Y010444D02*
X014031Y010444D01*
X013679Y010444D02*
X009873Y010444D01*
X009923Y010542D02*
X017515Y010542D01*
X017613Y010641D02*
X009961Y010641D01*
X009985Y010739D02*
X026524Y010739D01*
X026511Y010838D02*
X009998Y010838D01*
X010005Y010936D02*
X026505Y010936D01*
X026505Y011035D02*
X010005Y011035D01*
X010005Y011133D02*
X026505Y011133D01*
X026505Y011232D02*
X010005Y011232D01*
X010004Y011330D02*
X026505Y011330D01*
X026513Y011429D02*
X009993Y011429D01*
X009973Y011528D02*
X026531Y011528D01*
X026560Y011626D02*
X009942Y011626D01*
X009898Y011725D02*
X026601Y011725D01*
X026660Y011823D02*
X009837Y011823D01*
X009757Y011922D02*
X026738Y011922D01*
X026842Y012020D02*
X009651Y012020D01*
X009499Y012119D02*
X026990Y012119D01*
X027361Y012217D02*
X009121Y012217D01*
X008946Y012471D02*
X008547Y012471D01*
X008153Y012471D02*
X007755Y012471D01*
X007755Y012015D01*
X007755Y011621D02*
X007755Y011166D01*
X007755Y010772D02*
X007755Y010317D01*
X007755Y009923D02*
X007755Y009467D01*
X007975Y009458D02*
X013635Y009458D01*
X013635Y009360D02*
X007975Y009360D01*
X007975Y009261D02*
X013635Y009261D01*
X013635Y009163D02*
X007975Y009163D01*
X007975Y009064D02*
X013635Y009064D01*
X013635Y008965D02*
X007975Y008965D01*
X007975Y008867D02*
X013635Y008867D01*
X013635Y008768D02*
X007975Y008768D01*
X007975Y008670D02*
X013635Y008670D01*
X013635Y008571D02*
X007975Y008571D01*
X007975Y008473D02*
X013635Y008473D01*
X013635Y008374D02*
X007975Y008374D01*
X007975Y008276D02*
X013635Y008276D01*
X013635Y008177D02*
X007975Y008177D01*
X007975Y008079D02*
X013635Y008079D01*
X013635Y007980D02*
X011203Y007980D01*
X011133Y008051D02*
X011385Y007799D01*
X011385Y007443D01*
X011133Y007191D01*
X010777Y007191D01*
X010525Y007443D01*
X010525Y007799D01*
X010777Y008051D01*
X011133Y008051D01*
X011302Y007881D02*
X013635Y007881D01*
X013635Y007783D02*
X011385Y007783D01*
X011385Y007684D02*
X013635Y007684D01*
X013635Y007586D02*
X011385Y007586D01*
X011385Y007487D02*
X013572Y007487D01*
X013474Y007389D02*
X011331Y007389D01*
X011232Y007290D02*
X013417Y007290D01*
X013417Y007192D02*
X011134Y007192D01*
X010776Y007192D02*
X007975Y007192D01*
X007975Y007290D02*
X010677Y007290D01*
X010579Y007389D02*
X007975Y007389D01*
X007975Y007487D02*
X010525Y007487D01*
X010525Y007586D02*
X007975Y007586D01*
X007975Y007684D02*
X010525Y007684D01*
X010525Y007783D02*
X007975Y007783D01*
X007975Y007881D02*
X010607Y007881D01*
X010706Y007980D02*
X007975Y007980D01*
X007755Y007769D02*
X007755Y008224D01*
X007755Y008618D02*
X007755Y009074D01*
X007975Y009557D02*
X013635Y009557D01*
X013635Y009655D02*
X007975Y009655D01*
X007975Y009754D02*
X013623Y009754D01*
X013524Y009852D02*
X007975Y009852D01*
X007975Y009951D02*
X013467Y009951D01*
X013467Y010049D02*
X009426Y010049D01*
X009606Y010148D02*
X013467Y010148D01*
X013482Y010246D02*
X009723Y010246D01*
X009808Y010345D02*
X013580Y010345D01*
X013855Y010071D02*
X013855Y007221D01*
X013805Y007171D01*
X013417Y007093D02*
X007975Y007093D01*
X007975Y006995D02*
X013432Y006995D01*
X013531Y006896D02*
X007975Y006896D01*
X007975Y006797D02*
X013629Y006797D01*
X013980Y006797D02*
X018170Y006797D01*
X018269Y006896D02*
X014079Y006896D01*
X014177Y006995D02*
X018367Y006995D01*
X018466Y007093D02*
X014193Y007093D01*
X014193Y007192D02*
X016776Y007192D01*
X016677Y007290D02*
X014193Y007290D01*
X014135Y007389D02*
X016579Y007389D01*
X016525Y007487D02*
X014075Y007487D01*
X014075Y007586D02*
X016525Y007586D01*
X016525Y007684D02*
X014075Y007684D01*
X014075Y007783D02*
X016525Y007783D01*
X016607Y007881D02*
X014075Y007881D01*
X014075Y007980D02*
X016705Y007980D01*
X016705Y008079D02*
X014075Y008079D01*
X014075Y008177D02*
X016705Y008177D01*
X016705Y008276D02*
X014075Y008276D01*
X014075Y008374D02*
X016705Y008374D01*
X016705Y008473D02*
X014075Y008473D01*
X014075Y008571D02*
X016705Y008571D01*
X016705Y008670D02*
X014075Y008670D01*
X014075Y008768D02*
X016705Y008768D01*
X016735Y009064D02*
X014075Y009064D01*
X014075Y009163D02*
X016771Y009163D01*
X016812Y009261D02*
X014075Y009261D01*
X014075Y009360D02*
X016908Y009360D01*
X017072Y009458D02*
X014075Y009458D01*
X014075Y009557D02*
X016933Y009557D01*
X017734Y008768D02*
X017776Y008768D01*
X017820Y008670D02*
X017689Y008670D01*
X017590Y008571D02*
X017919Y008571D01*
X018098Y008473D02*
X017411Y008473D01*
X017205Y008374D02*
X019035Y008374D01*
X019035Y008276D02*
X017205Y008276D01*
X017205Y008177D02*
X019035Y008177D01*
X019035Y008079D02*
X017205Y008079D01*
X017205Y007980D02*
X019035Y007980D01*
X019035Y007881D02*
X017302Y007881D01*
X017385Y007783D02*
X019035Y007783D01*
X019035Y007684D02*
X017385Y007684D01*
X017385Y007586D02*
X018959Y007586D01*
X018860Y007487D02*
X017385Y007487D01*
X017331Y007389D02*
X018761Y007389D01*
X018663Y007290D02*
X017232Y007290D01*
X017134Y007192D02*
X018564Y007192D01*
X019192Y006797D02*
X028535Y006797D01*
X028535Y006699D02*
X019094Y006699D01*
X018995Y006600D02*
X028535Y006600D01*
X028535Y006502D02*
X018897Y006502D01*
X018798Y006403D02*
X028535Y006403D01*
X028535Y006305D02*
X018700Y006305D01*
X018601Y006206D02*
X028535Y006206D01*
X028535Y006108D02*
X028488Y006108D01*
X028303Y006108D02*
X028206Y006108D01*
X028206Y006009D02*
X028303Y006009D01*
X028303Y005911D02*
X028206Y005911D01*
X028206Y005812D02*
X028303Y005812D01*
X028206Y005714D02*
X027721Y005714D01*
X027721Y005812D02*
X027809Y005812D01*
X027850Y005911D02*
X027681Y005911D01*
X027626Y006009D02*
X027911Y006009D01*
X028021Y006108D02*
X027528Y006108D01*
X026981Y006108D02*
X026528Y006108D01*
X026626Y006009D02*
X026883Y006009D01*
X026828Y005911D02*
X026681Y005911D01*
X026721Y005812D02*
X026788Y005812D01*
X026788Y005714D02*
X026721Y005714D01*
X025883Y006009D02*
X025626Y006009D01*
X025681Y005911D02*
X025828Y005911D01*
X025788Y005812D02*
X025721Y005812D01*
X025721Y005714D02*
X025788Y005714D01*
X025981Y006108D02*
X025528Y006108D01*
X024981Y006108D02*
X024528Y006108D01*
X024626Y006009D02*
X024883Y006009D01*
X024828Y005911D02*
X024681Y005911D01*
X024721Y005812D02*
X024788Y005812D01*
X024788Y005714D02*
X024721Y005714D01*
X023981Y006108D02*
X023528Y006108D01*
X023626Y006009D02*
X023883Y006009D01*
X023828Y005911D02*
X023681Y005911D01*
X023721Y005812D02*
X023788Y005812D01*
X023788Y005714D02*
X023721Y005714D01*
X022981Y006108D02*
X022528Y006108D01*
X022626Y006009D02*
X022883Y006009D01*
X022828Y005911D02*
X022681Y005911D01*
X022721Y005812D02*
X022788Y005812D01*
X022788Y005714D02*
X022721Y005714D01*
X021883Y006009D02*
X021626Y006009D01*
X021681Y005911D02*
X021828Y005911D01*
X021788Y005812D02*
X021721Y005812D01*
X021721Y005714D02*
X021788Y005714D01*
X021981Y006108D02*
X021528Y006108D01*
X020981Y006108D02*
X020528Y006108D01*
X020626Y006009D02*
X020883Y006009D01*
X020828Y005911D02*
X020681Y005911D01*
X020721Y005812D02*
X020788Y005812D01*
X020788Y005714D02*
X020721Y005714D01*
X019981Y006108D02*
X019528Y006108D01*
X019626Y006009D02*
X019883Y006009D01*
X019828Y005911D02*
X019681Y005911D01*
X019721Y005812D02*
X019788Y005812D01*
X019788Y005714D02*
X019721Y005714D01*
X018981Y006108D02*
X018528Y006108D01*
X018626Y006009D02*
X018883Y006009D01*
X018828Y005911D02*
X018681Y005911D01*
X018721Y005812D02*
X018788Y005812D01*
X018788Y005714D02*
X018721Y005714D01*
X018848Y005221D02*
X019247Y005221D01*
X019640Y005221D02*
X020039Y005221D01*
X020433Y005221D02*
X020831Y005221D01*
X021225Y005221D02*
X021624Y005221D01*
X022017Y005221D02*
X022416Y005221D01*
X022810Y005221D02*
X023208Y005221D01*
X023602Y005221D02*
X024001Y005221D01*
X024394Y005221D02*
X024793Y005221D01*
X025187Y005221D02*
X025585Y005221D01*
X025979Y005221D02*
X026378Y005221D01*
X026771Y005221D02*
X027170Y005221D01*
X027564Y005221D02*
X027962Y005221D01*
X028356Y005221D02*
X028755Y005221D01*
X028755Y005676D01*
X028755Y006070D02*
X028755Y006526D01*
X028755Y006919D02*
X028755Y007375D01*
X028535Y007389D02*
X026449Y007389D01*
X026490Y007487D02*
X028535Y007487D01*
X028535Y007586D02*
X026493Y007586D01*
X026478Y007684D02*
X028535Y007684D01*
X028535Y007783D02*
X026437Y007783D01*
X026343Y007881D02*
X028535Y007881D01*
X028535Y007980D02*
X021806Y007980D01*
X021708Y008079D02*
X028535Y008079D01*
X028535Y008177D02*
X021609Y008177D01*
X021511Y008276D02*
X028535Y008276D01*
X028535Y008374D02*
X021412Y008374D01*
X021411Y008473D02*
X022098Y008473D01*
X021919Y008571D02*
X021590Y008571D01*
X021689Y008670D02*
X021820Y008670D01*
X021776Y008768D02*
X021734Y008768D01*
X022411Y008473D02*
X023098Y008473D01*
X022919Y008571D02*
X022590Y008571D01*
X022689Y008670D02*
X022820Y008670D01*
X022776Y008768D02*
X022734Y008768D01*
X023411Y008473D02*
X024098Y008473D01*
X023919Y008571D02*
X023590Y008571D01*
X023689Y008670D02*
X023820Y008670D01*
X023776Y008768D02*
X023734Y008768D01*
X024411Y008473D02*
X025098Y008473D01*
X024919Y008571D02*
X024590Y008571D01*
X024689Y008670D02*
X024820Y008670D01*
X024776Y008768D02*
X024734Y008768D01*
X025411Y008473D02*
X026098Y008473D01*
X025919Y008571D02*
X025590Y008571D01*
X025689Y008670D02*
X025820Y008670D01*
X025776Y008768D02*
X025734Y008768D01*
X026411Y008473D02*
X028535Y008473D01*
X028535Y008571D02*
X026590Y008571D01*
X026689Y008670D02*
X028535Y008670D01*
X028535Y008768D02*
X026734Y008768D01*
X026774Y008867D02*
X028535Y008867D01*
X028535Y008965D02*
X026775Y008965D01*
X026775Y009064D02*
X028535Y009064D01*
X028535Y009163D02*
X026738Y009163D01*
X026697Y009261D02*
X028535Y009261D01*
X028535Y009360D02*
X026601Y009360D01*
X026647Y009491D02*
X026735Y009579D01*
X026735Y009922D01*
X026303Y009922D01*
X026303Y009491D01*
X026647Y009491D01*
X026713Y009557D02*
X028535Y009557D01*
X028535Y009655D02*
X026735Y009655D01*
X026735Y009754D02*
X028535Y009754D01*
X028535Y009852D02*
X026735Y009852D01*
X026735Y010049D02*
X027084Y010049D01*
X026903Y010148D02*
X026735Y010148D01*
X026735Y010246D02*
X026786Y010246D01*
X026303Y010246D02*
X026206Y010246D01*
X026206Y010148D02*
X026303Y010148D01*
X026303Y010049D02*
X026206Y010049D01*
X026206Y009951D02*
X025775Y009951D01*
X025775Y010049D02*
X025775Y010049D01*
X025775Y010148D02*
X025744Y010148D01*
X025775Y010246D02*
X025703Y010246D01*
X025775Y010345D02*
X025616Y010345D01*
X025472Y010444D02*
X025855Y010444D01*
X026206Y010444D02*
X026303Y010444D01*
X026303Y010345D02*
X026206Y010345D01*
X026586Y010542D02*
X020744Y010542D01*
X020646Y010641D02*
X026548Y010641D01*
X026303Y009951D02*
X028535Y009951D01*
X028755Y009923D02*
X028755Y009467D01*
X028535Y009458D02*
X026437Y009458D01*
X026303Y009557D02*
X026206Y009557D01*
X026206Y009655D02*
X026303Y009655D01*
X026303Y009754D02*
X026206Y009754D01*
X026206Y009852D02*
X026303Y009852D01*
X025775Y009852D02*
X025768Y009852D01*
X025775Y009754D02*
X025728Y009754D01*
X025775Y009655D02*
X025674Y009655D01*
X025576Y009557D02*
X025797Y009557D01*
X025908Y009360D02*
X025601Y009360D01*
X025697Y009261D02*
X025812Y009261D01*
X025771Y009163D02*
X025738Y009163D01*
X025437Y009458D02*
X026072Y009458D01*
X024765Y010148D02*
X024744Y010148D01*
X024703Y010246D02*
X024806Y010246D01*
X024894Y010345D02*
X024616Y010345D01*
X024472Y010444D02*
X025037Y010444D01*
X024037Y010444D02*
X023472Y010444D01*
X023616Y010345D02*
X023894Y010345D01*
X023806Y010246D02*
X023703Y010246D01*
X023744Y010148D02*
X023765Y010148D01*
X023037Y010444D02*
X022472Y010444D01*
X022616Y010345D02*
X022894Y010345D01*
X022806Y010246D02*
X022703Y010246D01*
X022744Y010148D02*
X022765Y010148D01*
X022037Y010444D02*
X021472Y010444D01*
X021616Y010345D02*
X021894Y010345D01*
X021806Y010246D02*
X021703Y010246D01*
X021744Y010148D02*
X021765Y010148D01*
X021037Y010444D02*
X020843Y010444D01*
X020755Y010221D02*
X020505Y010471D01*
X020755Y010221D02*
X020755Y008721D01*
X021905Y007571D01*
X026105Y007571D01*
X026373Y007290D02*
X028535Y007290D01*
X028535Y007192D02*
X026204Y007192D01*
X026006Y007192D02*
X019587Y007192D01*
X019685Y007290D02*
X025836Y007290D01*
X025866Y007881D02*
X021905Y007881D01*
X021578Y007586D02*
X019975Y007586D01*
X019975Y007684D02*
X021480Y007684D01*
X021381Y007783D02*
X019975Y007783D01*
X019975Y007881D02*
X021283Y007881D01*
X021184Y007980D02*
X019975Y007980D01*
X019975Y008079D02*
X021086Y008079D01*
X020987Y008177D02*
X019975Y008177D01*
X019975Y008276D02*
X020889Y008276D01*
X020790Y008374D02*
X019975Y008374D01*
X019975Y008473D02*
X020098Y008473D01*
X020411Y008473D02*
X020692Y008473D01*
X020593Y008571D02*
X020590Y008571D01*
X019255Y008971D02*
X019255Y007571D01*
X018105Y006421D01*
X019291Y006896D02*
X028535Y006896D01*
X028535Y006995D02*
X019390Y006995D01*
X019488Y007093D02*
X028535Y007093D01*
X028755Y007769D02*
X028755Y008224D01*
X028755Y008618D02*
X028755Y009074D01*
X028755Y010317D02*
X028755Y010772D01*
X028755Y011166D02*
X028755Y011621D01*
X028755Y012015D02*
X028755Y012471D01*
X028754Y012471D02*
X028355Y012471D01*
X027961Y012471D02*
X027563Y012471D01*
X027169Y012471D02*
X026770Y012471D01*
X026377Y012471D02*
X025978Y012471D01*
X025584Y012471D02*
X025186Y012471D01*
X024792Y012471D02*
X024393Y012471D01*
X024000Y012471D02*
X023601Y012471D01*
X023207Y012471D02*
X022809Y012471D01*
X022415Y012471D02*
X022016Y012471D01*
X021623Y012471D02*
X021224Y012471D01*
X020830Y012471D02*
X020432Y012471D01*
X020038Y012471D02*
X019639Y012471D01*
X019246Y012471D02*
X018847Y012471D01*
X018453Y012471D02*
X018055Y012471D01*
X017661Y012471D02*
X017262Y012471D01*
X016869Y012471D02*
X016470Y012471D01*
X016076Y012471D02*
X015678Y012471D01*
X015284Y012471D02*
X014886Y012471D01*
X014492Y012471D02*
X014093Y012471D01*
X013699Y012471D02*
X013301Y012471D01*
X012907Y012471D02*
X012509Y012471D01*
X012115Y012471D02*
X011716Y012471D01*
X011323Y012471D02*
X010924Y012471D01*
X010530Y012471D02*
X010132Y012471D01*
X009738Y012471D02*
X009339Y012471D01*
X018411Y008473D02*
X019035Y008473D01*
X018919Y008571D02*
X018590Y008571D01*
X018689Y008670D02*
X018820Y008670D01*
X018776Y008768D02*
X018734Y008768D01*
X019882Y007487D02*
X021677Y007487D01*
X021776Y007389D02*
X019784Y007389D01*
X018454Y005221D02*
X018056Y005221D01*
X017662Y005221D02*
X017263Y005221D01*
X016870Y005221D02*
X016471Y005221D01*
X016077Y005221D02*
X015679Y005221D01*
X015285Y005221D02*
X014886Y005221D01*
X014493Y005221D02*
X014094Y005221D01*
X013700Y005221D02*
X013302Y005221D01*
X012908Y005221D02*
X012510Y005221D01*
X012116Y005221D02*
X011717Y005221D01*
X011324Y005221D02*
X010925Y005221D01*
X010531Y005221D02*
X010133Y005221D01*
X009739Y005221D02*
X009340Y005221D01*
X008947Y005221D02*
X008548Y005221D01*
X008154Y005221D02*
X007756Y005221D01*
X007755Y006919D02*
X007755Y007375D01*
X013355Y007821D02*
X013455Y007871D01*
D11*
X008324Y011121D02*
X008326Y011169D01*
X008333Y011217D01*
X008344Y011264D01*
X008359Y011310D01*
X008378Y011354D01*
X008401Y011397D01*
X008428Y011437D01*
X008459Y011475D01*
X008493Y011509D01*
X008529Y011540D01*
X008569Y011568D01*
X008611Y011592D01*
X008655Y011613D01*
X008700Y011629D01*
X008747Y011641D01*
X008795Y011649D01*
X008843Y011652D01*
X008891Y011651D01*
X008939Y011645D01*
X008987Y011635D01*
X009033Y011621D01*
X009078Y011603D01*
X009120Y011581D01*
X009161Y011555D01*
X009199Y011525D01*
X009235Y011492D01*
X009267Y011456D01*
X009296Y011417D01*
X009321Y011376D01*
X009342Y011333D01*
X009359Y011287D01*
X009372Y011241D01*
X009381Y011193D01*
X009385Y011145D01*
X009385Y011097D01*
X009381Y011049D01*
X009372Y011001D01*
X009359Y010955D01*
X009342Y010909D01*
X009321Y010866D01*
X009296Y010825D01*
X009267Y010786D01*
X009235Y010750D01*
X009199Y010717D01*
X009161Y010687D01*
X009121Y010661D01*
X009078Y010639D01*
X009033Y010621D01*
X008987Y010607D01*
X008939Y010597D01*
X008891Y010591D01*
X008843Y010590D01*
X008795Y010593D01*
X008747Y010601D01*
X008700Y010613D01*
X008655Y010629D01*
X008611Y010650D01*
X008569Y010674D01*
X008529Y010702D01*
X008493Y010733D01*
X008459Y010767D01*
X008428Y010805D01*
X008401Y010845D01*
X008378Y010888D01*
X008359Y010932D01*
X008344Y010978D01*
X008333Y011025D01*
X008326Y011073D01*
X008324Y011121D01*
X027124Y011121D02*
X027126Y011169D01*
X027133Y011217D01*
X027144Y011264D01*
X027159Y011310D01*
X027178Y011354D01*
X027201Y011397D01*
X027228Y011437D01*
X027259Y011475D01*
X027293Y011509D01*
X027329Y011540D01*
X027369Y011568D01*
X027411Y011592D01*
X027455Y011613D01*
X027500Y011629D01*
X027547Y011641D01*
X027595Y011649D01*
X027643Y011652D01*
X027691Y011651D01*
X027739Y011645D01*
X027787Y011635D01*
X027833Y011621D01*
X027878Y011603D01*
X027920Y011581D01*
X027961Y011555D01*
X027999Y011525D01*
X028035Y011492D01*
X028067Y011456D01*
X028096Y011417D01*
X028121Y011376D01*
X028142Y011333D01*
X028159Y011287D01*
X028172Y011241D01*
X028181Y011193D01*
X028185Y011145D01*
X028185Y011097D01*
X028181Y011049D01*
X028172Y011001D01*
X028159Y010955D01*
X028142Y010909D01*
X028121Y010866D01*
X028096Y010825D01*
X028067Y010786D01*
X028035Y010750D01*
X027999Y010717D01*
X027961Y010687D01*
X027921Y010661D01*
X027878Y010639D01*
X027833Y010621D01*
X027787Y010607D01*
X027739Y010597D01*
X027691Y010591D01*
X027643Y010590D01*
X027595Y010593D01*
X027547Y010601D01*
X027500Y010613D01*
X027455Y010629D01*
X027411Y010650D01*
X027369Y010674D01*
X027329Y010702D01*
X027293Y010733D01*
X027259Y010767D01*
X027228Y010805D01*
X027201Y010845D01*
X027178Y010888D01*
X027159Y010932D01*
X027144Y010978D01*
X027133Y011025D01*
X027126Y011073D01*
X027124Y011121D01*
D12*
X007255Y009421D02*
X007255Y009101D01*
X007041Y009101D02*
X007041Y009421D01*
X007148Y009528D01*
X007255Y009421D01*
X007041Y009421D02*
X006934Y009528D01*
X006828Y009528D01*
X006828Y009101D01*
X006610Y009208D02*
X006610Y009421D01*
X006503Y009528D01*
X006290Y009528D01*
X006183Y009421D01*
X006183Y009208D01*
X006290Y009101D01*
X006503Y009101D01*
X006610Y009208D01*
X005967Y009101D02*
X005860Y009208D01*
X005860Y009635D01*
X005753Y009528D02*
X005967Y009528D01*
X005537Y009528D02*
X005324Y009528D01*
X005430Y009635D02*
X005430Y009208D01*
X005537Y009101D01*
X005106Y009208D02*
X005106Y009421D01*
X004999Y009528D01*
X004786Y009528D01*
X004679Y009421D01*
X004679Y009208D01*
X004786Y009101D01*
X004999Y009101D01*
X005106Y009208D01*
X004462Y009208D02*
X004355Y009101D01*
X004035Y009101D01*
X004035Y009741D01*
X004035Y009528D02*
X004355Y009528D01*
X004462Y009421D01*
X004462Y009208D01*
D13*
X008255Y005721D03*
X009255Y005721D03*
X010255Y005721D03*
X011255Y005721D03*
X012255Y005721D03*
X013255Y005721D03*
X014255Y005721D03*
X015255Y005721D03*
X016255Y005721D03*
X017255Y005721D03*
X018255Y005721D03*
X019255Y005721D03*
X020255Y005721D03*
X021255Y005721D03*
X022255Y005721D03*
X023255Y005721D03*
X024255Y005721D03*
X025255Y005721D03*
X026255Y005721D03*
X027255Y005721D03*
X028255Y005721D03*
D14*
X026255Y009971D03*
D15*
X025255Y009971D03*
X024255Y009971D03*
X023255Y009971D03*
X022255Y009971D03*
X021255Y009971D03*
X020255Y009971D03*
X019255Y009971D03*
X018255Y009971D03*
X017255Y009971D03*
X017255Y008971D03*
X018255Y008971D03*
X019255Y008971D03*
X020255Y008971D03*
X021255Y008971D03*
X022255Y008971D03*
X023255Y008971D03*
X024255Y008971D03*
X025255Y008971D03*
X026255Y008971D03*
D16*
X016955Y007621D03*
X010955Y007621D03*
D17*
X013355Y007821D03*
X013805Y007171D03*
X013855Y010071D03*
X015305Y011271D03*
D18*
X017255Y008971D02*
X016955Y008671D01*
X016955Y007621D01*
D19*
X026105Y007571D03*
M02*
