G75*
G70*
%OFA0B0*%
%FSLAX24Y24*%
%IPPOS*%
%LPD*%
%AMOC8*
5,1,8,0,0,1.08239X$1,22.5*
%
%ADD10C,0.0000*%
%ADD11C,0.0090*%
%ADD12C,0.0100*%
%ADD13C,0.0050*%
%ADD14R,0.0200X0.0050*%
%ADD15C,0.0283*%
D10*
X002117Y002227D02*
X002117Y009577D01*
X023117Y009577D01*
X023117Y002227D01*
X002117Y002227D01*
X002617Y004327D02*
X002620Y004386D01*
X002628Y004445D01*
X002641Y004502D01*
X002660Y004559D01*
X002683Y004613D01*
X002712Y004665D01*
X002745Y004714D01*
X002782Y004760D01*
X002823Y004802D01*
X002868Y004840D01*
X002917Y004875D01*
X002968Y004904D01*
X003022Y004929D01*
X003077Y004949D01*
X003135Y004963D01*
X003193Y004973D01*
X003252Y004977D01*
X003311Y004975D01*
X003370Y004969D01*
X003428Y004957D01*
X003485Y004939D01*
X003539Y004917D01*
X003592Y004890D01*
X003642Y004858D01*
X003689Y004822D01*
X003732Y004781D01*
X003771Y004737D01*
X003806Y004690D01*
X003837Y004639D01*
X003863Y004586D01*
X003884Y004531D01*
X003900Y004474D01*
X003911Y004416D01*
X003916Y004357D01*
X003916Y004297D01*
X003911Y004238D01*
X003900Y004180D01*
X003884Y004123D01*
X003863Y004068D01*
X003837Y004015D01*
X003806Y003964D01*
X003771Y003917D01*
X003732Y003873D01*
X003689Y003832D01*
X003642Y003796D01*
X003592Y003764D01*
X003539Y003737D01*
X003485Y003715D01*
X003428Y003697D01*
X003370Y003685D01*
X003311Y003679D01*
X003252Y003677D01*
X003193Y003681D01*
X003135Y003691D01*
X003077Y003705D01*
X003022Y003725D01*
X002968Y003750D01*
X002917Y003779D01*
X002868Y003814D01*
X002823Y003852D01*
X002782Y003894D01*
X002745Y003940D01*
X002712Y003989D01*
X002683Y004041D01*
X002660Y004095D01*
X002641Y004152D01*
X002628Y004209D01*
X002620Y004268D01*
X002617Y004327D01*
X002617Y008327D02*
X002620Y008386D01*
X002628Y008445D01*
X002641Y008502D01*
X002660Y008559D01*
X002683Y008613D01*
X002712Y008665D01*
X002745Y008714D01*
X002782Y008760D01*
X002823Y008802D01*
X002868Y008840D01*
X002917Y008875D01*
X002968Y008904D01*
X003022Y008929D01*
X003077Y008949D01*
X003135Y008963D01*
X003193Y008973D01*
X003252Y008977D01*
X003311Y008975D01*
X003370Y008969D01*
X003428Y008957D01*
X003485Y008939D01*
X003539Y008917D01*
X003592Y008890D01*
X003642Y008858D01*
X003689Y008822D01*
X003732Y008781D01*
X003771Y008737D01*
X003806Y008690D01*
X003837Y008639D01*
X003863Y008586D01*
X003884Y008531D01*
X003900Y008474D01*
X003911Y008416D01*
X003916Y008357D01*
X003916Y008297D01*
X003911Y008238D01*
X003900Y008180D01*
X003884Y008123D01*
X003863Y008068D01*
X003837Y008015D01*
X003806Y007964D01*
X003771Y007917D01*
X003732Y007873D01*
X003689Y007832D01*
X003642Y007796D01*
X003592Y007764D01*
X003539Y007737D01*
X003485Y007715D01*
X003428Y007697D01*
X003370Y007685D01*
X003311Y007679D01*
X003252Y007677D01*
X003193Y007681D01*
X003135Y007691D01*
X003077Y007705D01*
X003022Y007725D01*
X002968Y007750D01*
X002917Y007779D01*
X002868Y007814D01*
X002823Y007852D01*
X002782Y007894D01*
X002745Y007940D01*
X002712Y007989D01*
X002683Y008041D01*
X002660Y008095D01*
X002641Y008152D01*
X002628Y008209D01*
X002620Y008268D01*
X002617Y008327D01*
D11*
X005354Y003533D02*
X005422Y003533D01*
X005422Y003122D01*
X005354Y003122D02*
X005491Y003122D01*
X005661Y003122D02*
X005661Y003191D01*
X005729Y003191D01*
X005729Y003122D01*
X005661Y003122D01*
X005891Y003122D02*
X006096Y003122D01*
X006164Y003191D01*
X006096Y003259D01*
X005959Y003259D01*
X005891Y003328D01*
X005959Y003396D01*
X006164Y003396D01*
X006351Y003328D02*
X006420Y003396D01*
X006556Y003396D01*
X006625Y003328D01*
X006625Y003259D01*
X006351Y003259D01*
X006351Y003191D02*
X006351Y003328D01*
X006351Y003191D02*
X006420Y003122D01*
X006556Y003122D01*
X007512Y003122D02*
X007717Y003122D01*
X007785Y003191D01*
X007785Y003464D01*
X007717Y003533D01*
X007512Y003533D01*
X007512Y003122D01*
X008109Y003122D02*
X008109Y003533D01*
X008245Y003533D02*
X007972Y003533D01*
X008432Y003533D02*
X008569Y003396D01*
X008706Y003533D01*
X008706Y003122D01*
X008893Y003122D02*
X008893Y003533D01*
X009166Y003533D01*
X009462Y003396D02*
X009598Y003122D01*
X009735Y003396D01*
X009922Y003396D02*
X010059Y003533D01*
X010059Y003122D01*
X010195Y003122D02*
X009922Y003122D01*
X009029Y003328D02*
X008893Y003328D01*
X008432Y003122D02*
X008432Y003533D01*
X005167Y003328D02*
X005167Y003122D01*
X005030Y003122D02*
X005030Y003328D01*
X005099Y003396D01*
X005167Y003328D01*
X005030Y003328D02*
X004962Y003396D01*
X004893Y003396D01*
X004893Y003122D01*
X004707Y003122D02*
X004707Y003396D01*
X004433Y003396D02*
X004433Y003191D01*
X004501Y003122D01*
X004707Y003122D01*
X004246Y003122D02*
X004041Y003122D01*
X003973Y003191D01*
X004041Y003259D01*
X004246Y003259D01*
X004246Y003328D02*
X004246Y003122D01*
X004246Y003328D02*
X004178Y003396D01*
X004041Y003396D01*
X003811Y003191D02*
X003811Y003122D01*
X003743Y003122D01*
X003743Y003191D01*
X003811Y003191D01*
X003556Y003191D02*
X003487Y003122D01*
X003419Y003191D01*
X003351Y003122D01*
X003282Y003191D01*
X003282Y003396D01*
X003095Y003396D02*
X003095Y003191D01*
X003027Y003122D01*
X002959Y003191D01*
X002890Y003122D01*
X002822Y003191D01*
X002822Y003396D01*
X002635Y003396D02*
X002635Y003191D01*
X002567Y003122D01*
X002498Y003191D01*
X002430Y003122D01*
X002362Y003191D01*
X002362Y003396D01*
X003556Y003396D02*
X003556Y003191D01*
D12*
X002163Y003718D02*
X007270Y003718D01*
X007270Y008936D01*
X002163Y008936D01*
X010567Y008927D02*
X010567Y009327D01*
X015617Y009327D01*
X015617Y008927D01*
X014667Y008234D02*
X014667Y007967D01*
X014266Y007967D01*
X014400Y007773D02*
X014667Y007773D01*
X014466Y007773D02*
X014466Y007507D01*
X014400Y007507D02*
X014266Y007640D01*
X014400Y007773D01*
X014400Y007507D02*
X014667Y007507D01*
X014266Y007313D02*
X014266Y007046D01*
X014266Y007180D02*
X014667Y007180D01*
X014667Y006853D02*
X014667Y006586D01*
X014266Y006586D01*
X014266Y006853D01*
X014466Y006719D02*
X014466Y006586D01*
X015617Y006127D02*
X015617Y005727D01*
X010567Y005727D01*
X010567Y006127D01*
X011566Y006375D02*
X011566Y006576D01*
X011633Y006642D01*
X011766Y006642D01*
X011833Y006576D01*
X011833Y006375D01*
X011967Y006375D02*
X011566Y006375D01*
X011633Y006836D02*
X011566Y006903D01*
X011566Y007036D01*
X011633Y007103D01*
X011700Y007103D01*
X011766Y007036D01*
X011833Y007103D01*
X011900Y007103D01*
X011967Y007036D01*
X011967Y006903D01*
X011900Y006836D01*
X011766Y006969D02*
X011766Y007036D01*
X011700Y007296D02*
X011566Y007430D01*
X011967Y007430D01*
X011967Y007563D02*
X011967Y007296D01*
X011900Y007757D02*
X011833Y007757D01*
X011766Y007823D01*
X011766Y007957D01*
X011833Y008023D01*
X011900Y008023D01*
X011967Y007957D01*
X011967Y007823D01*
X011900Y007757D01*
X011766Y007823D02*
X011700Y007757D01*
X011633Y007757D01*
X011566Y007823D01*
X011566Y007957D01*
X011633Y008023D01*
X011700Y008023D01*
X011766Y007957D01*
X011700Y008217D02*
X011633Y008217D01*
X011566Y008284D01*
X011566Y008417D01*
X011633Y008484D01*
X011700Y008484D01*
X011766Y008417D01*
X011766Y008284D01*
X011700Y008217D01*
X011766Y008284D02*
X011833Y008217D01*
X011900Y008217D01*
X011967Y008284D01*
X011967Y008417D01*
X011900Y008484D01*
X011833Y008484D01*
X011766Y008417D01*
X017617Y007077D02*
X022167Y007077D01*
X022167Y004077D01*
X017617Y004077D01*
X017617Y007077D01*
X016080Y005462D02*
X016080Y004871D01*
X016080Y005462D02*
X011553Y005462D01*
X011553Y004871D01*
X011553Y004084D02*
X011553Y003493D01*
X016080Y003493D01*
X016080Y004084D01*
D13*
X016683Y005302D02*
X016767Y005302D01*
X016808Y005344D01*
X016918Y005302D02*
X017085Y005302D01*
X017001Y005302D02*
X017001Y005553D01*
X016918Y005469D01*
X016808Y005511D02*
X016767Y005553D01*
X016683Y005553D01*
X016642Y005511D01*
X016642Y005344D01*
X016683Y005302D01*
X017194Y005302D02*
X017361Y005302D01*
X017277Y005302D02*
X017277Y005553D01*
X017194Y005469D01*
X022342Y006852D02*
X022425Y006852D01*
X022383Y006852D02*
X022383Y007103D01*
X022342Y007103D02*
X022425Y007103D01*
X022526Y007061D02*
X022526Y006894D01*
X022567Y006852D01*
X022651Y006852D01*
X022692Y006894D01*
X022802Y006894D02*
X022844Y006852D01*
X022927Y006852D01*
X022969Y006894D01*
X022969Y006977D01*
X022927Y007019D01*
X022885Y007019D01*
X022802Y006977D01*
X022802Y007103D01*
X022969Y007103D01*
X022692Y007061D02*
X022651Y007103D01*
X022567Y007103D01*
X022526Y007061D01*
X020993Y008952D02*
X020909Y008952D01*
X020868Y008994D01*
X020868Y009077D02*
X020951Y009119D01*
X020993Y009119D01*
X021035Y009077D01*
X021035Y008994D01*
X020993Y008952D01*
X020868Y009077D02*
X020868Y009203D01*
X021035Y009203D01*
X020758Y009161D02*
X020758Y009077D01*
X020717Y009036D01*
X020592Y009036D01*
X020675Y009036D02*
X020758Y008952D01*
X020592Y008952D02*
X020592Y009203D01*
X020717Y009203D01*
X020758Y009161D01*
X019435Y009119D02*
X019435Y009161D01*
X019393Y009203D01*
X019309Y009203D01*
X019268Y009161D01*
X019158Y009161D02*
X019158Y009077D01*
X019117Y009036D01*
X018992Y009036D01*
X019075Y009036D02*
X019158Y008952D01*
X019268Y008952D02*
X019435Y009119D01*
X019435Y008952D02*
X019268Y008952D01*
X018992Y008952D02*
X018992Y009203D01*
X019117Y009203D01*
X019158Y009161D01*
X018111Y009077D02*
X017944Y009077D01*
X018069Y009203D01*
X018069Y008952D01*
X017835Y008952D02*
X017668Y008952D01*
X017751Y008952D02*
X017751Y009203D01*
X017668Y009119D01*
X017558Y009161D02*
X017517Y009203D01*
X017433Y009203D01*
X017392Y009161D01*
X017392Y008994D01*
X017433Y008952D01*
X017517Y008952D01*
X017558Y008994D01*
X016561Y009052D02*
X016394Y009052D01*
X016477Y009052D02*
X016477Y009303D01*
X016394Y009219D01*
X016285Y009177D02*
X016243Y009136D01*
X016118Y009136D01*
X016201Y009136D02*
X016285Y009052D01*
X016285Y009177D02*
X016285Y009261D01*
X016243Y009303D01*
X016118Y009303D01*
X016118Y009052D01*
X015925Y009052D02*
X015925Y009303D01*
X015842Y009303D02*
X016008Y009303D01*
X009311Y006611D02*
X009269Y006653D01*
X009186Y006653D01*
X009144Y006611D01*
X009311Y006611D02*
X009311Y006569D01*
X009144Y006402D01*
X009311Y006402D01*
X009035Y006402D02*
X008868Y006402D01*
X008951Y006402D02*
X008951Y006653D01*
X008868Y006569D01*
X008758Y006611D02*
X008717Y006653D01*
X008633Y006653D01*
X008592Y006611D01*
X008592Y006444D01*
X008633Y006402D01*
X008717Y006402D01*
X008758Y006444D01*
X008694Y005453D02*
X008694Y005327D01*
X008777Y005369D01*
X008819Y005369D01*
X008861Y005327D01*
X008861Y005244D01*
X008819Y005202D01*
X008736Y005202D01*
X008694Y005244D01*
X008585Y005202D02*
X008418Y005202D01*
X008501Y005202D02*
X008501Y005453D01*
X008418Y005369D01*
X008308Y005411D02*
X008267Y005453D01*
X008183Y005453D01*
X008142Y005411D01*
X008142Y005244D01*
X008183Y005202D01*
X008267Y005202D01*
X008308Y005244D01*
X008694Y005453D02*
X008861Y005453D01*
X009242Y005453D02*
X009242Y005202D01*
X009242Y005286D02*
X009367Y005286D01*
X009408Y005327D01*
X009408Y005411D01*
X009367Y005453D01*
X009242Y005453D01*
X009325Y005286D02*
X009408Y005202D01*
X009518Y005244D02*
X009518Y005327D01*
X009643Y005327D01*
X009685Y005286D01*
X009685Y005244D01*
X009643Y005202D01*
X009559Y005202D01*
X009518Y005244D01*
X009518Y005327D02*
X009601Y005411D01*
X009685Y005453D01*
X010431Y004053D02*
X010389Y004011D01*
X010389Y003844D01*
X010431Y003802D01*
X010514Y003802D01*
X010556Y003844D01*
X010665Y003844D02*
X010707Y003802D01*
X010790Y003802D01*
X010832Y003844D01*
X010832Y004011D01*
X010790Y004053D01*
X010707Y004053D01*
X010665Y004011D01*
X010665Y003969D01*
X010707Y003927D01*
X010832Y003927D01*
X010556Y004011D02*
X010514Y004053D01*
X010431Y004053D01*
X010939Y003561D02*
X010981Y003603D01*
X011064Y003603D01*
X011106Y003561D01*
X011106Y003394D01*
X011064Y003352D01*
X010981Y003352D01*
X010939Y003394D01*
X010939Y003561D01*
X011215Y003561D02*
X011257Y003603D01*
X011340Y003603D01*
X011382Y003561D01*
X011382Y003519D01*
X011215Y003352D01*
X011382Y003352D01*
X011106Y003352D02*
X011022Y003436D01*
X009035Y007902D02*
X008868Y007902D01*
X008951Y007902D02*
X008951Y008153D01*
X008868Y008069D01*
X008758Y008027D02*
X008717Y007986D01*
X008592Y007986D01*
X008675Y007986D02*
X008758Y007902D01*
X008592Y007902D02*
X008592Y008153D01*
X008717Y008153D01*
X008758Y008111D01*
X008758Y008027D01*
X002785Y009102D02*
X002618Y009102D01*
X002785Y009269D01*
X002785Y009311D01*
X002743Y009353D01*
X002659Y009353D01*
X002618Y009311D01*
X002508Y009353D02*
X002342Y009102D01*
X002508Y009102D02*
X002342Y009353D01*
X022542Y004761D02*
X022542Y004594D01*
X022583Y004552D01*
X022667Y004552D01*
X022708Y004594D01*
X022818Y004552D02*
X022985Y004552D01*
X022901Y004552D02*
X022901Y004803D01*
X022818Y004719D01*
X022708Y004761D02*
X022667Y004803D01*
X022583Y004803D01*
X022542Y004761D01*
D14*
X021867Y004082D03*
X021367Y004082D03*
X020867Y004082D03*
X020367Y004082D03*
X019867Y004082D03*
X019367Y004082D03*
X018867Y004082D03*
X018367Y004082D03*
X017867Y004082D03*
X017867Y007072D03*
X018367Y007072D03*
X018867Y007072D03*
X019367Y007072D03*
X019867Y007072D03*
X020367Y007072D03*
X020867Y007072D03*
X021367Y007072D03*
X021867Y007072D03*
D15*
X021867Y006727D03*
M02*
