%
M48
M72
T01C0.0157
T02C0.0354
T03C0.0394
T04C0.1299
%
T01
X10017Y3677
X11217Y5177
X9917Y5527
X9067Y5877
X15517Y5127
X18317Y4377
X19417Y4377
X20317Y4577
X20717Y5327
X21367Y5477
X21867Y5777
X22717Y5077
X17217Y7327
T02
X6767Y6577
X5767Y6077
X6767Y5577
X5767Y7077
T03
X2617Y2727
X3617Y2727
X4617Y2727
X5617Y2727
X6617Y2727
X7617Y2727
X8617Y2727
X9617Y2727
X10617Y2727
X11617Y2727
X12617Y2727
X13617Y2727
X14617Y2727
X15617Y2727
X16617Y2727
X17617Y2727
X18617Y2727
X19617Y2727
X20617Y2727
X21617Y2727
X22617Y2727
T04
X3267Y4327
X3267Y8327
M30
