G75*
G70*
%OFA0B0*%
%FSLAX25Y25*%
%IPPOS*%
%LPD*%
%AMOC8*
5,1,8,0,0,1.08239X$1,22.5*
%
%ADD10C,0.00000*%
%ADD11C,0.07000*%
%ADD12R,0.03937X0.04724*%
%ADD13C,0.04362*%
%ADD14R,0.04000X0.03900*%
%ADD15C,0.05543*%
%ADD16C,0.01200*%
%ADD17C,0.06600*%
%ADD18C,0.00600*%
%ADD19C,0.03575*%
%ADD20C,0.00800*%
D10*
X0003024Y0022576D02*
X0003024Y0104076D01*
X0213024Y0104076D01*
X0213024Y0022576D01*
X0003024Y0022576D01*
X0142362Y0074376D02*
X0142365Y0074492D01*
X0142373Y0074608D01*
X0142388Y0074723D01*
X0142407Y0074837D01*
X0142433Y0074950D01*
X0142464Y0075062D01*
X0142500Y0075172D01*
X0142542Y0075280D01*
X0142589Y0075386D01*
X0142641Y0075489D01*
X0142698Y0075590D01*
X0142760Y0075688D01*
X0142827Y0075783D01*
X0142898Y0075874D01*
X0142974Y0075962D01*
X0143054Y0076046D01*
X0143138Y0076126D01*
X0143226Y0076202D01*
X0143317Y0076273D01*
X0143412Y0076340D01*
X0143510Y0076402D01*
X0143611Y0076459D01*
X0143714Y0076511D01*
X0143820Y0076558D01*
X0143928Y0076600D01*
X0144038Y0076636D01*
X0144150Y0076667D01*
X0144263Y0076693D01*
X0144377Y0076712D01*
X0144492Y0076727D01*
X0144608Y0076735D01*
X0144724Y0076738D01*
X0144840Y0076735D01*
X0144956Y0076727D01*
X0145071Y0076712D01*
X0145185Y0076693D01*
X0145298Y0076667D01*
X0145410Y0076636D01*
X0145520Y0076600D01*
X0145628Y0076558D01*
X0145734Y0076511D01*
X0145837Y0076459D01*
X0145938Y0076402D01*
X0146036Y0076340D01*
X0146131Y0076273D01*
X0146222Y0076202D01*
X0146310Y0076126D01*
X0146394Y0076046D01*
X0146474Y0075962D01*
X0146550Y0075874D01*
X0146621Y0075783D01*
X0146688Y0075688D01*
X0146750Y0075590D01*
X0146807Y0075489D01*
X0146859Y0075386D01*
X0146906Y0075280D01*
X0146948Y0075172D01*
X0146984Y0075062D01*
X0147015Y0074950D01*
X0147041Y0074837D01*
X0147060Y0074723D01*
X0147075Y0074608D01*
X0147083Y0074492D01*
X0147086Y0074376D01*
X0147083Y0074260D01*
X0147075Y0074144D01*
X0147060Y0074029D01*
X0147041Y0073915D01*
X0147015Y0073802D01*
X0146984Y0073690D01*
X0146948Y0073580D01*
X0146906Y0073472D01*
X0146859Y0073366D01*
X0146807Y0073263D01*
X0146750Y0073162D01*
X0146688Y0073064D01*
X0146621Y0072969D01*
X0146550Y0072878D01*
X0146474Y0072790D01*
X0146394Y0072706D01*
X0146310Y0072626D01*
X0146222Y0072550D01*
X0146131Y0072479D01*
X0146036Y0072412D01*
X0145938Y0072350D01*
X0145837Y0072293D01*
X0145734Y0072241D01*
X0145628Y0072194D01*
X0145520Y0072152D01*
X0145410Y0072116D01*
X0145298Y0072085D01*
X0145185Y0072059D01*
X0145071Y0072040D01*
X0144956Y0072025D01*
X0144840Y0072017D01*
X0144724Y0072014D01*
X0144608Y0072017D01*
X0144492Y0072025D01*
X0144377Y0072040D01*
X0144263Y0072059D01*
X0144150Y0072085D01*
X0144038Y0072116D01*
X0143928Y0072152D01*
X0143820Y0072194D01*
X0143714Y0072241D01*
X0143611Y0072293D01*
X0143510Y0072350D01*
X0143412Y0072412D01*
X0143317Y0072479D01*
X0143226Y0072550D01*
X0143138Y0072626D01*
X0143054Y0072706D01*
X0142974Y0072790D01*
X0142898Y0072878D01*
X0142827Y0072969D01*
X0142760Y0073064D01*
X0142698Y0073162D01*
X0142641Y0073263D01*
X0142589Y0073366D01*
X0142542Y0073472D01*
X0142500Y0073580D01*
X0142464Y0073690D01*
X0142433Y0073802D01*
X0142407Y0073915D01*
X0142388Y0074029D01*
X0142373Y0074144D01*
X0142365Y0074260D01*
X0142362Y0074376D01*
X0152362Y0074376D02*
X0152365Y0074492D01*
X0152373Y0074608D01*
X0152388Y0074723D01*
X0152407Y0074837D01*
X0152433Y0074950D01*
X0152464Y0075062D01*
X0152500Y0075172D01*
X0152542Y0075280D01*
X0152589Y0075386D01*
X0152641Y0075489D01*
X0152698Y0075590D01*
X0152760Y0075688D01*
X0152827Y0075783D01*
X0152898Y0075874D01*
X0152974Y0075962D01*
X0153054Y0076046D01*
X0153138Y0076126D01*
X0153226Y0076202D01*
X0153317Y0076273D01*
X0153412Y0076340D01*
X0153510Y0076402D01*
X0153611Y0076459D01*
X0153714Y0076511D01*
X0153820Y0076558D01*
X0153928Y0076600D01*
X0154038Y0076636D01*
X0154150Y0076667D01*
X0154263Y0076693D01*
X0154377Y0076712D01*
X0154492Y0076727D01*
X0154608Y0076735D01*
X0154724Y0076738D01*
X0154840Y0076735D01*
X0154956Y0076727D01*
X0155071Y0076712D01*
X0155185Y0076693D01*
X0155298Y0076667D01*
X0155410Y0076636D01*
X0155520Y0076600D01*
X0155628Y0076558D01*
X0155734Y0076511D01*
X0155837Y0076459D01*
X0155938Y0076402D01*
X0156036Y0076340D01*
X0156131Y0076273D01*
X0156222Y0076202D01*
X0156310Y0076126D01*
X0156394Y0076046D01*
X0156474Y0075962D01*
X0156550Y0075874D01*
X0156621Y0075783D01*
X0156688Y0075688D01*
X0156750Y0075590D01*
X0156807Y0075489D01*
X0156859Y0075386D01*
X0156906Y0075280D01*
X0156948Y0075172D01*
X0156984Y0075062D01*
X0157015Y0074950D01*
X0157041Y0074837D01*
X0157060Y0074723D01*
X0157075Y0074608D01*
X0157083Y0074492D01*
X0157086Y0074376D01*
X0157083Y0074260D01*
X0157075Y0074144D01*
X0157060Y0074029D01*
X0157041Y0073915D01*
X0157015Y0073802D01*
X0156984Y0073690D01*
X0156948Y0073580D01*
X0156906Y0073472D01*
X0156859Y0073366D01*
X0156807Y0073263D01*
X0156750Y0073162D01*
X0156688Y0073064D01*
X0156621Y0072969D01*
X0156550Y0072878D01*
X0156474Y0072790D01*
X0156394Y0072706D01*
X0156310Y0072626D01*
X0156222Y0072550D01*
X0156131Y0072479D01*
X0156036Y0072412D01*
X0155938Y0072350D01*
X0155837Y0072293D01*
X0155734Y0072241D01*
X0155628Y0072194D01*
X0155520Y0072152D01*
X0155410Y0072116D01*
X0155298Y0072085D01*
X0155185Y0072059D01*
X0155071Y0072040D01*
X0154956Y0072025D01*
X0154840Y0072017D01*
X0154724Y0072014D01*
X0154608Y0072017D01*
X0154492Y0072025D01*
X0154377Y0072040D01*
X0154263Y0072059D01*
X0154150Y0072085D01*
X0154038Y0072116D01*
X0153928Y0072152D01*
X0153820Y0072194D01*
X0153714Y0072241D01*
X0153611Y0072293D01*
X0153510Y0072350D01*
X0153412Y0072412D01*
X0153317Y0072479D01*
X0153226Y0072550D01*
X0153138Y0072626D01*
X0153054Y0072706D01*
X0152974Y0072790D01*
X0152898Y0072878D01*
X0152827Y0072969D01*
X0152760Y0073064D01*
X0152698Y0073162D01*
X0152641Y0073263D01*
X0152589Y0073366D01*
X0152542Y0073472D01*
X0152500Y0073580D01*
X0152464Y0073690D01*
X0152433Y0073802D01*
X0152407Y0073915D01*
X0152388Y0074029D01*
X0152373Y0074144D01*
X0152365Y0074260D01*
X0152362Y0074376D01*
X0152362Y0084376D02*
X0152365Y0084492D01*
X0152373Y0084608D01*
X0152388Y0084723D01*
X0152407Y0084837D01*
X0152433Y0084950D01*
X0152464Y0085062D01*
X0152500Y0085172D01*
X0152542Y0085280D01*
X0152589Y0085386D01*
X0152641Y0085489D01*
X0152698Y0085590D01*
X0152760Y0085688D01*
X0152827Y0085783D01*
X0152898Y0085874D01*
X0152974Y0085962D01*
X0153054Y0086046D01*
X0153138Y0086126D01*
X0153226Y0086202D01*
X0153317Y0086273D01*
X0153412Y0086340D01*
X0153510Y0086402D01*
X0153611Y0086459D01*
X0153714Y0086511D01*
X0153820Y0086558D01*
X0153928Y0086600D01*
X0154038Y0086636D01*
X0154150Y0086667D01*
X0154263Y0086693D01*
X0154377Y0086712D01*
X0154492Y0086727D01*
X0154608Y0086735D01*
X0154724Y0086738D01*
X0154840Y0086735D01*
X0154956Y0086727D01*
X0155071Y0086712D01*
X0155185Y0086693D01*
X0155298Y0086667D01*
X0155410Y0086636D01*
X0155520Y0086600D01*
X0155628Y0086558D01*
X0155734Y0086511D01*
X0155837Y0086459D01*
X0155938Y0086402D01*
X0156036Y0086340D01*
X0156131Y0086273D01*
X0156222Y0086202D01*
X0156310Y0086126D01*
X0156394Y0086046D01*
X0156474Y0085962D01*
X0156550Y0085874D01*
X0156621Y0085783D01*
X0156688Y0085688D01*
X0156750Y0085590D01*
X0156807Y0085489D01*
X0156859Y0085386D01*
X0156906Y0085280D01*
X0156948Y0085172D01*
X0156984Y0085062D01*
X0157015Y0084950D01*
X0157041Y0084837D01*
X0157060Y0084723D01*
X0157075Y0084608D01*
X0157083Y0084492D01*
X0157086Y0084376D01*
X0157083Y0084260D01*
X0157075Y0084144D01*
X0157060Y0084029D01*
X0157041Y0083915D01*
X0157015Y0083802D01*
X0156984Y0083690D01*
X0156948Y0083580D01*
X0156906Y0083472D01*
X0156859Y0083366D01*
X0156807Y0083263D01*
X0156750Y0083162D01*
X0156688Y0083064D01*
X0156621Y0082969D01*
X0156550Y0082878D01*
X0156474Y0082790D01*
X0156394Y0082706D01*
X0156310Y0082626D01*
X0156222Y0082550D01*
X0156131Y0082479D01*
X0156036Y0082412D01*
X0155938Y0082350D01*
X0155837Y0082293D01*
X0155734Y0082241D01*
X0155628Y0082194D01*
X0155520Y0082152D01*
X0155410Y0082116D01*
X0155298Y0082085D01*
X0155185Y0082059D01*
X0155071Y0082040D01*
X0154956Y0082025D01*
X0154840Y0082017D01*
X0154724Y0082014D01*
X0154608Y0082017D01*
X0154492Y0082025D01*
X0154377Y0082040D01*
X0154263Y0082059D01*
X0154150Y0082085D01*
X0154038Y0082116D01*
X0153928Y0082152D01*
X0153820Y0082194D01*
X0153714Y0082241D01*
X0153611Y0082293D01*
X0153510Y0082350D01*
X0153412Y0082412D01*
X0153317Y0082479D01*
X0153226Y0082550D01*
X0153138Y0082626D01*
X0153054Y0082706D01*
X0152974Y0082790D01*
X0152898Y0082878D01*
X0152827Y0082969D01*
X0152760Y0083064D01*
X0152698Y0083162D01*
X0152641Y0083263D01*
X0152589Y0083366D01*
X0152542Y0083472D01*
X0152500Y0083580D01*
X0152464Y0083690D01*
X0152433Y0083802D01*
X0152407Y0083915D01*
X0152388Y0084029D01*
X0152373Y0084144D01*
X0152365Y0084260D01*
X0152362Y0084376D01*
X0142362Y0084376D02*
X0142365Y0084492D01*
X0142373Y0084608D01*
X0142388Y0084723D01*
X0142407Y0084837D01*
X0142433Y0084950D01*
X0142464Y0085062D01*
X0142500Y0085172D01*
X0142542Y0085280D01*
X0142589Y0085386D01*
X0142641Y0085489D01*
X0142698Y0085590D01*
X0142760Y0085688D01*
X0142827Y0085783D01*
X0142898Y0085874D01*
X0142974Y0085962D01*
X0143054Y0086046D01*
X0143138Y0086126D01*
X0143226Y0086202D01*
X0143317Y0086273D01*
X0143412Y0086340D01*
X0143510Y0086402D01*
X0143611Y0086459D01*
X0143714Y0086511D01*
X0143820Y0086558D01*
X0143928Y0086600D01*
X0144038Y0086636D01*
X0144150Y0086667D01*
X0144263Y0086693D01*
X0144377Y0086712D01*
X0144492Y0086727D01*
X0144608Y0086735D01*
X0144724Y0086738D01*
X0144840Y0086735D01*
X0144956Y0086727D01*
X0145071Y0086712D01*
X0145185Y0086693D01*
X0145298Y0086667D01*
X0145410Y0086636D01*
X0145520Y0086600D01*
X0145628Y0086558D01*
X0145734Y0086511D01*
X0145837Y0086459D01*
X0145938Y0086402D01*
X0146036Y0086340D01*
X0146131Y0086273D01*
X0146222Y0086202D01*
X0146310Y0086126D01*
X0146394Y0086046D01*
X0146474Y0085962D01*
X0146550Y0085874D01*
X0146621Y0085783D01*
X0146688Y0085688D01*
X0146750Y0085590D01*
X0146807Y0085489D01*
X0146859Y0085386D01*
X0146906Y0085280D01*
X0146948Y0085172D01*
X0146984Y0085062D01*
X0147015Y0084950D01*
X0147041Y0084837D01*
X0147060Y0084723D01*
X0147075Y0084608D01*
X0147083Y0084492D01*
X0147086Y0084376D01*
X0147083Y0084260D01*
X0147075Y0084144D01*
X0147060Y0084029D01*
X0147041Y0083915D01*
X0147015Y0083802D01*
X0146984Y0083690D01*
X0146948Y0083580D01*
X0146906Y0083472D01*
X0146859Y0083366D01*
X0146807Y0083263D01*
X0146750Y0083162D01*
X0146688Y0083064D01*
X0146621Y0082969D01*
X0146550Y0082878D01*
X0146474Y0082790D01*
X0146394Y0082706D01*
X0146310Y0082626D01*
X0146222Y0082550D01*
X0146131Y0082479D01*
X0146036Y0082412D01*
X0145938Y0082350D01*
X0145837Y0082293D01*
X0145734Y0082241D01*
X0145628Y0082194D01*
X0145520Y0082152D01*
X0145410Y0082116D01*
X0145298Y0082085D01*
X0145185Y0082059D01*
X0145071Y0082040D01*
X0144956Y0082025D01*
X0144840Y0082017D01*
X0144724Y0082014D01*
X0144608Y0082017D01*
X0144492Y0082025D01*
X0144377Y0082040D01*
X0144263Y0082059D01*
X0144150Y0082085D01*
X0144038Y0082116D01*
X0143928Y0082152D01*
X0143820Y0082194D01*
X0143714Y0082241D01*
X0143611Y0082293D01*
X0143510Y0082350D01*
X0143412Y0082412D01*
X0143317Y0082479D01*
X0143226Y0082550D01*
X0143138Y0082626D01*
X0143054Y0082706D01*
X0142974Y0082790D01*
X0142898Y0082878D01*
X0142827Y0082969D01*
X0142760Y0083064D01*
X0142698Y0083162D01*
X0142641Y0083263D01*
X0142589Y0083366D01*
X0142542Y0083472D01*
X0142500Y0083580D01*
X0142464Y0083690D01*
X0142433Y0083802D01*
X0142407Y0083915D01*
X0142388Y0084029D01*
X0142373Y0084144D01*
X0142365Y0084260D01*
X0142362Y0084376D01*
X0196709Y0081576D02*
X0196715Y0081837D01*
X0196735Y0082097D01*
X0196767Y0082356D01*
X0196811Y0082613D01*
X0196868Y0082867D01*
X0196938Y0083119D01*
X0197020Y0083367D01*
X0197114Y0083610D01*
X0197219Y0083848D01*
X0197337Y0084081D01*
X0197465Y0084308D01*
X0197605Y0084529D01*
X0197755Y0084742D01*
X0197915Y0084948D01*
X0198086Y0085145D01*
X0198266Y0085334D01*
X0198455Y0085514D01*
X0198652Y0085685D01*
X0198858Y0085845D01*
X0199071Y0085995D01*
X0199292Y0086135D01*
X0199519Y0086263D01*
X0199752Y0086381D01*
X0199990Y0086486D01*
X0200233Y0086580D01*
X0200481Y0086662D01*
X0200733Y0086732D01*
X0200987Y0086789D01*
X0201244Y0086833D01*
X0201503Y0086865D01*
X0201763Y0086885D01*
X0202024Y0086891D01*
X0202285Y0086885D01*
X0202545Y0086865D01*
X0202804Y0086833D01*
X0203061Y0086789D01*
X0203315Y0086732D01*
X0203567Y0086662D01*
X0203815Y0086580D01*
X0204058Y0086486D01*
X0204296Y0086381D01*
X0204529Y0086263D01*
X0204756Y0086135D01*
X0204977Y0085995D01*
X0205190Y0085845D01*
X0205396Y0085685D01*
X0205593Y0085514D01*
X0205782Y0085334D01*
X0205962Y0085145D01*
X0206133Y0084948D01*
X0206293Y0084742D01*
X0206443Y0084529D01*
X0206583Y0084308D01*
X0206711Y0084081D01*
X0206829Y0083848D01*
X0206934Y0083610D01*
X0207028Y0083367D01*
X0207110Y0083119D01*
X0207180Y0082867D01*
X0207237Y0082613D01*
X0207281Y0082356D01*
X0207313Y0082097D01*
X0207333Y0081837D01*
X0207339Y0081576D01*
X0207333Y0081315D01*
X0207313Y0081055D01*
X0207281Y0080796D01*
X0207237Y0080539D01*
X0207180Y0080285D01*
X0207110Y0080033D01*
X0207028Y0079785D01*
X0206934Y0079542D01*
X0206829Y0079304D01*
X0206711Y0079071D01*
X0206583Y0078844D01*
X0206443Y0078623D01*
X0206293Y0078410D01*
X0206133Y0078204D01*
X0205962Y0078007D01*
X0205782Y0077818D01*
X0205593Y0077638D01*
X0205396Y0077467D01*
X0205190Y0077307D01*
X0204977Y0077157D01*
X0204756Y0077017D01*
X0204529Y0076889D01*
X0204296Y0076771D01*
X0204058Y0076666D01*
X0203815Y0076572D01*
X0203567Y0076490D01*
X0203315Y0076420D01*
X0203061Y0076363D01*
X0202804Y0076319D01*
X0202545Y0076287D01*
X0202285Y0076267D01*
X0202024Y0076261D01*
X0201763Y0076267D01*
X0201503Y0076287D01*
X0201244Y0076319D01*
X0200987Y0076363D01*
X0200733Y0076420D01*
X0200481Y0076490D01*
X0200233Y0076572D01*
X0199990Y0076666D01*
X0199752Y0076771D01*
X0199519Y0076889D01*
X0199292Y0077017D01*
X0199071Y0077157D01*
X0198858Y0077307D01*
X0198652Y0077467D01*
X0198455Y0077638D01*
X0198266Y0077818D01*
X0198086Y0078007D01*
X0197915Y0078204D01*
X0197755Y0078410D01*
X0197605Y0078623D01*
X0197465Y0078844D01*
X0197337Y0079071D01*
X0197219Y0079304D01*
X0197114Y0079542D01*
X0197020Y0079785D01*
X0196938Y0080033D01*
X0196868Y0080285D01*
X0196811Y0080539D01*
X0196767Y0080796D01*
X0196735Y0081055D01*
X0196715Y0081315D01*
X0196709Y0081576D01*
X0196958Y0041883D02*
X0196962Y0042028D01*
X0196972Y0042172D01*
X0196990Y0042316D01*
X0197015Y0042459D01*
X0197046Y0042601D01*
X0197085Y0042740D01*
X0197131Y0042878D01*
X0197183Y0043013D01*
X0197242Y0043146D01*
X0197307Y0043275D01*
X0197378Y0043401D01*
X0197456Y0043524D01*
X0197539Y0043642D01*
X0197628Y0043756D01*
X0197723Y0043866D01*
X0197823Y0043971D01*
X0197928Y0044071D01*
X0198038Y0044166D01*
X0198152Y0044255D01*
X0198270Y0044338D01*
X0198393Y0044416D01*
X0198519Y0044487D01*
X0198648Y0044552D01*
X0198781Y0044611D01*
X0198916Y0044663D01*
X0199054Y0044709D01*
X0199193Y0044748D01*
X0199335Y0044779D01*
X0199478Y0044804D01*
X0199622Y0044822D01*
X0199766Y0044832D01*
X0199911Y0044836D01*
X0200056Y0044832D01*
X0200200Y0044822D01*
X0200344Y0044804D01*
X0200487Y0044779D01*
X0200629Y0044748D01*
X0200768Y0044709D01*
X0200906Y0044663D01*
X0201041Y0044611D01*
X0201174Y0044552D01*
X0201303Y0044487D01*
X0201429Y0044416D01*
X0201552Y0044338D01*
X0201670Y0044255D01*
X0201784Y0044166D01*
X0201894Y0044071D01*
X0201999Y0043971D01*
X0202099Y0043866D01*
X0202194Y0043756D01*
X0202283Y0043642D01*
X0202366Y0043524D01*
X0202444Y0043401D01*
X0202515Y0043275D01*
X0202580Y0043146D01*
X0202639Y0043013D01*
X0202691Y0042878D01*
X0202737Y0042740D01*
X0202776Y0042601D01*
X0202807Y0042459D01*
X0202832Y0042316D01*
X0202850Y0042172D01*
X0202860Y0042028D01*
X0202864Y0041883D01*
X0202860Y0041738D01*
X0202850Y0041594D01*
X0202832Y0041450D01*
X0202807Y0041307D01*
X0202776Y0041165D01*
X0202737Y0041026D01*
X0202691Y0040888D01*
X0202639Y0040753D01*
X0202580Y0040620D01*
X0202515Y0040491D01*
X0202444Y0040365D01*
X0202366Y0040242D01*
X0202283Y0040124D01*
X0202194Y0040010D01*
X0202099Y0039900D01*
X0201999Y0039795D01*
X0201894Y0039695D01*
X0201784Y0039600D01*
X0201670Y0039511D01*
X0201552Y0039428D01*
X0201429Y0039350D01*
X0201303Y0039279D01*
X0201174Y0039214D01*
X0201041Y0039155D01*
X0200906Y0039103D01*
X0200768Y0039057D01*
X0200629Y0039018D01*
X0200487Y0038987D01*
X0200344Y0038962D01*
X0200200Y0038944D01*
X0200056Y0038934D01*
X0199911Y0038930D01*
X0199766Y0038934D01*
X0199622Y0038944D01*
X0199478Y0038962D01*
X0199335Y0038987D01*
X0199193Y0039018D01*
X0199054Y0039057D01*
X0198916Y0039103D01*
X0198781Y0039155D01*
X0198648Y0039214D01*
X0198519Y0039279D01*
X0198393Y0039350D01*
X0198270Y0039428D01*
X0198152Y0039511D01*
X0198038Y0039600D01*
X0197928Y0039695D01*
X0197823Y0039795D01*
X0197723Y0039900D01*
X0197628Y0040010D01*
X0197539Y0040124D01*
X0197456Y0040242D01*
X0197378Y0040365D01*
X0197307Y0040491D01*
X0197242Y0040620D01*
X0197183Y0040753D01*
X0197131Y0040888D01*
X0197085Y0041026D01*
X0197046Y0041165D01*
X0197015Y0041307D01*
X0196990Y0041450D01*
X0196972Y0041594D01*
X0196962Y0041738D01*
X0196958Y0041883D01*
X0008709Y0081576D02*
X0008715Y0081837D01*
X0008735Y0082097D01*
X0008767Y0082356D01*
X0008811Y0082613D01*
X0008868Y0082867D01*
X0008938Y0083119D01*
X0009020Y0083367D01*
X0009114Y0083610D01*
X0009219Y0083848D01*
X0009337Y0084081D01*
X0009465Y0084308D01*
X0009605Y0084529D01*
X0009755Y0084742D01*
X0009915Y0084948D01*
X0010086Y0085145D01*
X0010266Y0085334D01*
X0010455Y0085514D01*
X0010652Y0085685D01*
X0010858Y0085845D01*
X0011071Y0085995D01*
X0011292Y0086135D01*
X0011519Y0086263D01*
X0011752Y0086381D01*
X0011990Y0086486D01*
X0012233Y0086580D01*
X0012481Y0086662D01*
X0012733Y0086732D01*
X0012987Y0086789D01*
X0013244Y0086833D01*
X0013503Y0086865D01*
X0013763Y0086885D01*
X0014024Y0086891D01*
X0014285Y0086885D01*
X0014545Y0086865D01*
X0014804Y0086833D01*
X0015061Y0086789D01*
X0015315Y0086732D01*
X0015567Y0086662D01*
X0015815Y0086580D01*
X0016058Y0086486D01*
X0016296Y0086381D01*
X0016529Y0086263D01*
X0016756Y0086135D01*
X0016977Y0085995D01*
X0017190Y0085845D01*
X0017396Y0085685D01*
X0017593Y0085514D01*
X0017782Y0085334D01*
X0017962Y0085145D01*
X0018133Y0084948D01*
X0018293Y0084742D01*
X0018443Y0084529D01*
X0018583Y0084308D01*
X0018711Y0084081D01*
X0018829Y0083848D01*
X0018934Y0083610D01*
X0019028Y0083367D01*
X0019110Y0083119D01*
X0019180Y0082867D01*
X0019237Y0082613D01*
X0019281Y0082356D01*
X0019313Y0082097D01*
X0019333Y0081837D01*
X0019339Y0081576D01*
X0019333Y0081315D01*
X0019313Y0081055D01*
X0019281Y0080796D01*
X0019237Y0080539D01*
X0019180Y0080285D01*
X0019110Y0080033D01*
X0019028Y0079785D01*
X0018934Y0079542D01*
X0018829Y0079304D01*
X0018711Y0079071D01*
X0018583Y0078844D01*
X0018443Y0078623D01*
X0018293Y0078410D01*
X0018133Y0078204D01*
X0017962Y0078007D01*
X0017782Y0077818D01*
X0017593Y0077638D01*
X0017396Y0077467D01*
X0017190Y0077307D01*
X0016977Y0077157D01*
X0016756Y0077017D01*
X0016529Y0076889D01*
X0016296Y0076771D01*
X0016058Y0076666D01*
X0015815Y0076572D01*
X0015567Y0076490D01*
X0015315Y0076420D01*
X0015061Y0076363D01*
X0014804Y0076319D01*
X0014545Y0076287D01*
X0014285Y0076267D01*
X0014024Y0076261D01*
X0013763Y0076267D01*
X0013503Y0076287D01*
X0013244Y0076319D01*
X0012987Y0076363D01*
X0012733Y0076420D01*
X0012481Y0076490D01*
X0012233Y0076572D01*
X0011990Y0076666D01*
X0011752Y0076771D01*
X0011519Y0076889D01*
X0011292Y0077017D01*
X0011071Y0077157D01*
X0010858Y0077307D01*
X0010652Y0077467D01*
X0010455Y0077638D01*
X0010266Y0077818D01*
X0010086Y0078007D01*
X0009915Y0078204D01*
X0009755Y0078410D01*
X0009605Y0078623D01*
X0009465Y0078844D01*
X0009337Y0079071D01*
X0009219Y0079304D01*
X0009114Y0079542D01*
X0009020Y0079785D01*
X0008938Y0080033D01*
X0008868Y0080285D01*
X0008811Y0080539D01*
X0008767Y0080796D01*
X0008735Y0081055D01*
X0008715Y0081315D01*
X0008709Y0081576D01*
D11*
X0008024Y0027576D03*
X0018024Y0027576D03*
X0028024Y0027576D03*
X0038024Y0027576D03*
X0048024Y0027576D03*
X0058024Y0027576D03*
X0068024Y0027576D03*
X0078024Y0027576D03*
X0088024Y0027576D03*
X0098024Y0027576D03*
X0108024Y0027576D03*
X0118024Y0027576D03*
X0128024Y0027576D03*
X0138024Y0027576D03*
X0148024Y0027576D03*
X0158024Y0027576D03*
X0168024Y0027576D03*
X0178024Y0027576D03*
X0188024Y0027576D03*
X0198024Y0027576D03*
X0208024Y0027576D03*
D12*
X0166224Y0043602D03*
X0156224Y0043602D03*
X0146224Y0043602D03*
X0136224Y0043602D03*
X0131224Y0043602D03*
X0126224Y0043602D03*
X0121224Y0043602D03*
X0116224Y0043602D03*
X0111224Y0043602D03*
X0106224Y0043602D03*
X0101224Y0043602D03*
X0096224Y0043602D03*
X0091224Y0043602D03*
X0091224Y0096602D03*
X0086224Y0096602D03*
X0081224Y0096602D03*
X0096224Y0096602D03*
X0101224Y0096602D03*
X0106224Y0096602D03*
X0111224Y0096602D03*
X0116224Y0096602D03*
X0151224Y0096602D03*
X0156224Y0096602D03*
D13*
X0094724Y0084376D03*
X0084724Y0084376D03*
X0084724Y0074376D03*
X0094724Y0074376D03*
X0094724Y0064376D03*
X0084724Y0064376D03*
D14*
X0188324Y0062230D03*
X0188324Y0068923D03*
D15*
X0197124Y0061976D03*
X0207124Y0056976D03*
X0197124Y0051976D03*
X0207124Y0046976D03*
D16*
X0207409Y0046688D02*
X0207409Y0042605D01*
X0207468Y0042605D01*
X0208147Y0042712D01*
X0208802Y0042925D01*
X0209415Y0043237D01*
X0209971Y0043642D01*
X0210458Y0044128D01*
X0210862Y0044685D01*
X0211175Y0045298D01*
X0211224Y0045449D01*
X0211224Y0031554D01*
X0210696Y0031938D01*
X0209981Y0032302D01*
X0209218Y0032550D01*
X0208425Y0032676D01*
X0208408Y0032676D01*
X0208408Y0027963D01*
X0207639Y0027963D01*
X0207639Y0032676D01*
X0207622Y0032676D01*
X0206829Y0032550D01*
X0206066Y0032302D01*
X0205350Y0031938D01*
X0204701Y0031466D01*
X0204133Y0030898D01*
X0203662Y0030249D01*
X0203297Y0029534D01*
X0203144Y0029063D01*
X0202517Y0030578D01*
X0201026Y0032069D01*
X0199078Y0032876D01*
X0196969Y0032876D01*
X0196438Y0032656D01*
X0188883Y0040211D01*
X0188001Y0040576D01*
X0187046Y0040576D01*
X0169656Y0040576D01*
X0169683Y0040622D01*
X0169792Y0041028D01*
X0169792Y0043217D01*
X0166610Y0043217D01*
X0166610Y0043986D01*
X0169792Y0043986D01*
X0169792Y0046174D01*
X0169683Y0046581D01*
X0169472Y0046946D01*
X0169174Y0047244D01*
X0168809Y0047454D01*
X0168403Y0047563D01*
X0166608Y0047563D01*
X0166608Y0043988D01*
X0165839Y0043988D01*
X0165839Y0047563D01*
X0164044Y0047563D01*
X0163637Y0047454D01*
X0163272Y0047244D01*
X0162975Y0046946D01*
X0162764Y0046581D01*
X0162655Y0046174D01*
X0162655Y0043986D01*
X0165837Y0043986D01*
X0165837Y0043217D01*
X0162655Y0043217D01*
X0162655Y0041028D01*
X0162764Y0040622D01*
X0162791Y0040576D01*
X0162118Y0040576D01*
X0159992Y0042702D01*
X0159992Y0046709D01*
X0158937Y0047763D01*
X0153509Y0047763D01*
X0153120Y0047374D01*
X0151558Y0048936D01*
X0150883Y0049611D01*
X0150001Y0049976D01*
X0145518Y0049976D01*
X0139058Y0056436D01*
X0138383Y0057111D01*
X0137501Y0057476D01*
X0087518Y0057476D01*
X0084598Y0060395D01*
X0085515Y0060395D01*
X0086978Y0061001D01*
X0088098Y0062121D01*
X0088704Y0063584D01*
X0088704Y0065168D01*
X0088098Y0066631D01*
X0086978Y0067751D01*
X0085515Y0068357D01*
X0083931Y0068357D01*
X0082469Y0067751D01*
X0081348Y0066631D01*
X0080743Y0065168D01*
X0080743Y0064251D01*
X0078423Y0066570D01*
X0078423Y0075099D01*
X0078423Y0076054D01*
X0078058Y0076936D01*
X0072420Y0082573D01*
X0072623Y0083061D01*
X0072623Y0085091D01*
X0071847Y0086965D01*
X0070412Y0088400D01*
X0068538Y0089176D01*
X0066509Y0089176D01*
X0064635Y0088400D01*
X0063200Y0086965D01*
X0062998Y0086476D01*
X0062049Y0086476D01*
X0061847Y0086965D01*
X0060412Y0088400D01*
X0058778Y0089076D01*
X0060412Y0089753D01*
X0061847Y0091187D01*
X0062049Y0091676D01*
X0068001Y0091676D01*
X0068883Y0092042D01*
X0069558Y0092717D01*
X0069923Y0093599D01*
X0069923Y0094554D01*
X0069558Y0095436D01*
X0068883Y0096111D01*
X0068001Y0096476D01*
X0062049Y0096476D01*
X0061847Y0096965D01*
X0060412Y0098400D01*
X0058538Y0099176D01*
X0056509Y0099176D01*
X0054635Y0098400D01*
X0053200Y0096965D01*
X0052998Y0096476D01*
X0052049Y0096476D01*
X0051847Y0096965D01*
X0050412Y0098400D01*
X0048538Y0099176D01*
X0046509Y0099176D01*
X0044635Y0098400D01*
X0043200Y0096965D01*
X0042998Y0096476D01*
X0042049Y0096476D01*
X0041847Y0096965D01*
X0040412Y0098400D01*
X0038538Y0099176D01*
X0036509Y0099176D01*
X0034635Y0098400D01*
X0033200Y0096965D01*
X0032424Y0095091D01*
X0032424Y0093061D01*
X0033200Y0091187D01*
X0034635Y0089753D01*
X0036268Y0089076D01*
X0034635Y0088400D01*
X0033200Y0086965D01*
X0032424Y0085091D01*
X0032424Y0083061D01*
X0033200Y0081187D01*
X0034635Y0079753D01*
X0036268Y0079076D01*
X0034635Y0078400D01*
X0033200Y0076965D01*
X0032424Y0075091D01*
X0032424Y0073061D01*
X0033200Y0071187D01*
X0034635Y0069753D01*
X0036268Y0069076D01*
X0034635Y0068400D01*
X0033200Y0066965D01*
X0032523Y0065331D01*
X0031847Y0066965D01*
X0030412Y0068400D01*
X0028538Y0069176D01*
X0026509Y0069176D01*
X0024635Y0068400D01*
X0023200Y0066965D01*
X0022998Y0066476D01*
X0022049Y0066476D01*
X0021847Y0066965D01*
X0020412Y0068400D01*
X0018538Y0069176D01*
X0016509Y0069176D01*
X0014635Y0068400D01*
X0013200Y0066965D01*
X0012998Y0066476D01*
X0012049Y0066476D01*
X0011847Y0066965D01*
X0010412Y0068400D01*
X0008538Y0069176D01*
X0006509Y0069176D01*
X0004823Y0068478D01*
X0004823Y0070076D01*
X0016024Y0070076D01*
X0017376Y0070173D01*
X0018700Y0070461D01*
X0019970Y0070935D01*
X0021160Y0071585D01*
X0022245Y0072397D01*
X0023203Y0073355D01*
X0024015Y0074440D01*
X0024665Y0075630D01*
X0025139Y0076900D01*
X0025427Y0078224D01*
X0025524Y0079576D01*
X0025524Y0083576D01*
X0025413Y0084984D01*
X0025083Y0086357D01*
X0024543Y0087662D01*
X0023805Y0088867D01*
X0022887Y0089940D01*
X0021814Y0090857D01*
X0020609Y0091595D01*
X0019305Y0092136D01*
X0017931Y0092466D01*
X0016524Y0092576D01*
X0004823Y0092576D01*
X0004823Y0102276D01*
X0211224Y0102276D01*
X0211224Y0092576D01*
X0200024Y0092576D01*
X0198574Y0092502D01*
X0197153Y0092201D01*
X0195797Y0091682D01*
X0194539Y0090957D01*
X0193409Y0090044D01*
X0192437Y0088966D01*
X0191645Y0087749D01*
X0191054Y0086423D01*
X0190676Y0085020D01*
X0190524Y0083576D01*
X0190524Y0079576D01*
X0190620Y0078224D01*
X0190908Y0076900D01*
X0191382Y0075630D01*
X0192032Y0074440D01*
X0192844Y0073355D01*
X0193802Y0072397D01*
X0194887Y0071585D01*
X0196077Y0070935D01*
X0197347Y0070461D01*
X0198672Y0070173D01*
X0200024Y0070076D01*
X0211224Y0070076D01*
X0211224Y0059022D01*
X0210999Y0059566D01*
X0209713Y0060852D01*
X0209109Y0061102D01*
X0200135Y0070076D01*
X0198312Y0070076D01*
X0192123Y0070076D01*
X0192123Y0071618D01*
X0191069Y0072672D01*
X0188538Y0072672D01*
X0163286Y0097924D01*
X0162689Y0098567D01*
X0162642Y0098568D01*
X0162609Y0098601D01*
X0161741Y0098601D01*
X0159992Y0098665D01*
X0159992Y0099709D01*
X0158937Y0100763D01*
X0153509Y0100763D01*
X0148509Y0100763D01*
X0147455Y0099709D01*
X0147455Y0093494D01*
X0148509Y0092439D01*
X0150249Y0092439D01*
X0150824Y0091865D01*
X0152112Y0090576D01*
X0162012Y0090576D01*
X0182924Y0069665D01*
X0182924Y0066387D01*
X0182924Y0064565D01*
X0184524Y0062965D01*
X0184524Y0059534D01*
X0185578Y0058480D01*
X0191069Y0058480D01*
X0192123Y0059534D01*
X0192123Y0060030D01*
X0192982Y0060030D01*
X0193248Y0059387D01*
X0194534Y0058101D01*
X0196214Y0057405D01*
X0198033Y0057405D01*
X0199713Y0058101D01*
X0200999Y0059387D01*
X0201695Y0061067D01*
X0201695Y0062294D01*
X0203836Y0060153D01*
X0203248Y0059566D01*
X0202552Y0057886D01*
X0202552Y0056067D01*
X0203248Y0054387D01*
X0204534Y0053101D01*
X0206214Y0052405D01*
X0208033Y0052405D01*
X0209713Y0053101D01*
X0210999Y0054387D01*
X0211224Y0054930D01*
X0211224Y0048503D01*
X0211175Y0048654D01*
X0210862Y0049267D01*
X0210458Y0049824D01*
X0209971Y0050311D01*
X0209415Y0050715D01*
X0208802Y0051028D01*
X0208147Y0051240D01*
X0207468Y0051348D01*
X0207409Y0051348D01*
X0207409Y0047265D01*
X0206837Y0047265D01*
X0206837Y0051348D01*
X0206779Y0051348D01*
X0206100Y0051240D01*
X0205445Y0051028D01*
X0204832Y0050715D01*
X0204276Y0050311D01*
X0203789Y0049824D01*
X0203385Y0049267D01*
X0203072Y0048654D01*
X0202859Y0048000D01*
X0202752Y0047320D01*
X0202752Y0047262D01*
X0206835Y0047262D01*
X0206835Y0046690D01*
X0202752Y0046690D01*
X0202752Y0046632D01*
X0202859Y0045952D01*
X0203003Y0045511D01*
X0202603Y0045911D01*
X0200856Y0046635D01*
X0198965Y0046635D01*
X0197219Y0045911D01*
X0195882Y0044575D01*
X0195158Y0042828D01*
X0195158Y0040937D01*
X0195882Y0039190D01*
X0197219Y0037854D01*
X0198965Y0037130D01*
X0200856Y0037130D01*
X0202603Y0037854D01*
X0203940Y0039190D01*
X0204663Y0040937D01*
X0204663Y0042828D01*
X0204348Y0043590D01*
X0204832Y0043237D01*
X0205445Y0042925D01*
X0206100Y0042712D01*
X0206779Y0042605D01*
X0206837Y0042605D01*
X0206837Y0046688D01*
X0207409Y0046688D01*
X0207409Y0046545D02*
X0206837Y0046545D01*
X0206837Y0045346D02*
X0207409Y0045346D01*
X0207409Y0044148D02*
X0206837Y0044148D01*
X0206837Y0042950D02*
X0207409Y0042950D01*
X0208850Y0042950D02*
X0211224Y0042950D01*
X0211224Y0044148D02*
X0210472Y0044148D01*
X0211190Y0045346D02*
X0211224Y0045346D01*
X0207409Y0047743D02*
X0206837Y0047743D01*
X0202819Y0047743D02*
X0198850Y0047743D01*
X0198033Y0047405D02*
X0199713Y0048101D01*
X0200999Y0049387D01*
X0201695Y0051067D01*
X0201695Y0052886D01*
X0200999Y0054566D01*
X0199713Y0055852D01*
X0198033Y0056548D01*
X0196214Y0056548D01*
X0194534Y0055852D01*
X0193248Y0054566D01*
X0192552Y0052886D01*
X0192552Y0051067D01*
X0193248Y0049387D01*
X0194534Y0048101D01*
X0196214Y0047405D01*
X0198033Y0047405D01*
X0198748Y0046545D02*
X0169693Y0046545D01*
X0169792Y0045346D02*
X0196654Y0045346D01*
X0195705Y0044148D02*
X0169792Y0044148D01*
X0169792Y0042950D02*
X0195209Y0042950D01*
X0195158Y0041751D02*
X0169792Y0041751D01*
X0166608Y0044148D02*
X0165839Y0044148D01*
X0165839Y0045346D02*
X0166608Y0045346D01*
X0166608Y0046545D02*
X0165839Y0046545D01*
X0162755Y0046545D02*
X0159992Y0046545D01*
X0159992Y0045346D02*
X0162655Y0045346D01*
X0162655Y0044148D02*
X0159992Y0044148D01*
X0159992Y0042950D02*
X0162655Y0042950D01*
X0162655Y0041751D02*
X0160943Y0041751D01*
X0161124Y0038176D02*
X0156224Y0043076D01*
X0156224Y0043602D01*
X0153698Y0043402D01*
X0149524Y0047576D01*
X0144524Y0047576D01*
X0137024Y0055076D01*
X0086524Y0055076D01*
X0076024Y0065576D01*
X0076024Y0075576D01*
X0067524Y0084076D01*
X0057524Y0084076D01*
X0047524Y0084076D01*
X0037524Y0084076D01*
X0032839Y0086093D02*
X0025147Y0086093D01*
X0025420Y0084894D02*
X0032424Y0084894D01*
X0032424Y0083696D02*
X0025515Y0083696D01*
X0025524Y0082498D02*
X0032657Y0082498D01*
X0033154Y0081299D02*
X0025524Y0081299D01*
X0025524Y0080101D02*
X0034287Y0080101D01*
X0035848Y0078902D02*
X0025475Y0078902D01*
X0025313Y0077704D02*
X0033939Y0077704D01*
X0033010Y0076506D02*
X0024992Y0076506D01*
X0024489Y0075307D02*
X0032513Y0075307D01*
X0032424Y0074109D02*
X0023767Y0074109D01*
X0022758Y0072910D02*
X0032486Y0072910D01*
X0032983Y0071712D02*
X0021330Y0071712D01*
X0018840Y0070513D02*
X0033874Y0070513D01*
X0035692Y0069315D02*
X0004823Y0069315D01*
X0010695Y0068117D02*
X0014352Y0068117D01*
X0013181Y0066918D02*
X0011867Y0066918D01*
X0007524Y0064076D02*
X0017524Y0064076D01*
X0027524Y0064076D01*
X0032363Y0065720D02*
X0032684Y0065720D01*
X0033181Y0066918D02*
X0031867Y0066918D01*
X0030695Y0068117D02*
X0034352Y0068117D01*
X0024352Y0068117D02*
X0020695Y0068117D01*
X0021867Y0066918D02*
X0023181Y0066918D01*
X0037524Y0064076D02*
X0047524Y0064076D01*
X0057524Y0064076D01*
X0067524Y0064076D01*
X0073524Y0064576D02*
X0073524Y0068076D01*
X0067524Y0074076D01*
X0057524Y0074076D01*
X0047524Y0074076D01*
X0037524Y0074076D01*
X0072496Y0082498D02*
X0081193Y0082498D01*
X0081348Y0082121D02*
X0082469Y0081001D01*
X0083931Y0080395D01*
X0085515Y0080395D01*
X0086978Y0081001D01*
X0088098Y0082121D01*
X0088704Y0083584D01*
X0088704Y0085168D01*
X0088098Y0086631D01*
X0086978Y0087751D01*
X0085515Y0088357D01*
X0083931Y0088357D01*
X0082469Y0087751D01*
X0081348Y0086631D01*
X0080743Y0085168D01*
X0080743Y0083584D01*
X0081348Y0082121D01*
X0082170Y0081299D02*
X0073694Y0081299D01*
X0074893Y0080101D02*
X0099324Y0080101D01*
X0099324Y0081299D02*
X0097276Y0081299D01*
X0096978Y0081001D02*
X0098098Y0082121D01*
X0098704Y0083584D01*
X0098704Y0084426D01*
X0099324Y0083806D01*
X0099324Y0076246D01*
X0099324Y0074506D01*
X0105924Y0067906D01*
X0105924Y0067546D01*
X0105924Y0065806D01*
X0107736Y0063994D01*
X0107736Y0062663D01*
X0108282Y0061344D01*
X0109291Y0060335D01*
X0110610Y0059789D01*
X0112037Y0059789D01*
X0113356Y0060335D01*
X0114365Y0061344D01*
X0114911Y0062663D01*
X0114911Y0064090D01*
X0114365Y0065408D01*
X0113996Y0065776D01*
X0114065Y0065844D01*
X0114611Y0067163D01*
X0114611Y0068590D01*
X0114065Y0069908D01*
X0113846Y0070126D01*
X0114065Y0070344D01*
X0114611Y0071663D01*
X0114611Y0073090D01*
X0114065Y0074408D01*
X0113846Y0074626D01*
X0114065Y0074844D01*
X0114611Y0076163D01*
X0114611Y0077590D01*
X0114065Y0078908D01*
X0113846Y0079126D01*
X0114065Y0079344D01*
X0114611Y0080663D01*
X0114611Y0082090D01*
X0114065Y0083408D01*
X0113846Y0083626D01*
X0114065Y0083844D01*
X0114611Y0085163D01*
X0114611Y0086590D01*
X0114065Y0087908D01*
X0113396Y0088576D01*
X0114065Y0089244D01*
X0114611Y0090563D01*
X0114611Y0091990D01*
X0114424Y0092439D01*
X0118937Y0092439D01*
X0119992Y0093494D01*
X0119992Y0099709D01*
X0118937Y0100763D01*
X0116806Y0100763D01*
X0116723Y0100846D01*
X0115493Y0102076D01*
X0078893Y0102076D01*
X0077154Y0102076D01*
X0074724Y0099646D01*
X0074724Y0097906D01*
X0074724Y0093750D01*
X0073982Y0093008D01*
X0073436Y0091690D01*
X0073436Y0090263D01*
X0073982Y0088944D01*
X0074991Y0087935D01*
X0076310Y0087389D01*
X0077737Y0087389D01*
X0079056Y0087935D01*
X0080065Y0088944D01*
X0080611Y0090263D01*
X0080611Y0091420D01*
X0082224Y0089806D01*
X0083454Y0088576D01*
X0094554Y0088576D01*
X0094773Y0088357D01*
X0093931Y0088357D01*
X0092469Y0087751D01*
X0091348Y0086631D01*
X0090743Y0085168D01*
X0090743Y0083584D01*
X0091348Y0082121D01*
X0092469Y0081001D01*
X0093931Y0080395D01*
X0095515Y0080395D01*
X0096978Y0081001D01*
X0098254Y0082498D02*
X0099324Y0082498D01*
X0099324Y0083696D02*
X0098704Y0083696D01*
X0092170Y0081299D02*
X0087276Y0081299D01*
X0088254Y0082498D02*
X0091193Y0082498D01*
X0090743Y0083696D02*
X0088704Y0083696D01*
X0088704Y0084894D02*
X0090743Y0084894D01*
X0091126Y0086093D02*
X0088322Y0086093D01*
X0087438Y0087291D02*
X0092009Y0087291D01*
X0094640Y0088490D02*
X0079610Y0088490D01*
X0080372Y0089688D02*
X0082342Y0089688D01*
X0081143Y0090887D02*
X0080611Y0090887D01*
X0074437Y0088490D02*
X0070195Y0088490D01*
X0071520Y0087291D02*
X0082009Y0087291D01*
X0081126Y0086093D02*
X0072208Y0086093D01*
X0072623Y0084894D02*
X0080743Y0084894D01*
X0080743Y0083696D02*
X0072623Y0083696D01*
X0076091Y0078902D02*
X0099324Y0078902D01*
X0099324Y0077704D02*
X0097026Y0077704D01*
X0096978Y0077751D02*
X0095515Y0078357D01*
X0093931Y0078357D01*
X0092469Y0077751D01*
X0091348Y0076631D01*
X0090743Y0075168D01*
X0090743Y0073584D01*
X0091348Y0072121D01*
X0092469Y0071001D01*
X0093931Y0070395D01*
X0095515Y0070395D01*
X0096978Y0071001D01*
X0098098Y0072121D01*
X0098704Y0073584D01*
X0098704Y0075168D01*
X0098098Y0076631D01*
X0096978Y0077751D01*
X0098151Y0076506D02*
X0099324Y0076506D01*
X0099324Y0075307D02*
X0098647Y0075307D01*
X0098704Y0074109D02*
X0099721Y0074109D01*
X0100920Y0072910D02*
X0098425Y0072910D01*
X0097689Y0071712D02*
X0102118Y0071712D01*
X0103317Y0070513D02*
X0095800Y0070513D01*
X0093646Y0070513D02*
X0085800Y0070513D01*
X0085515Y0070395D02*
X0086978Y0071001D01*
X0088098Y0072121D01*
X0088704Y0073584D01*
X0088704Y0075168D01*
X0088098Y0076631D01*
X0086978Y0077751D01*
X0085515Y0078357D01*
X0083931Y0078357D01*
X0082469Y0077751D01*
X0081348Y0076631D01*
X0080743Y0075168D01*
X0080743Y0073584D01*
X0081348Y0072121D01*
X0082469Y0071001D01*
X0083931Y0070395D01*
X0085515Y0070395D01*
X0083646Y0070513D02*
X0078423Y0070513D01*
X0078423Y0069315D02*
X0104515Y0069315D01*
X0105713Y0068117D02*
X0096096Y0068117D01*
X0095515Y0068357D02*
X0093931Y0068357D01*
X0092469Y0067751D01*
X0091348Y0066631D01*
X0090743Y0065168D01*
X0090743Y0063584D01*
X0091348Y0062121D01*
X0092469Y0061001D01*
X0093931Y0060395D01*
X0095515Y0060395D01*
X0096978Y0061001D01*
X0098098Y0062121D01*
X0098704Y0063584D01*
X0098704Y0065168D01*
X0098098Y0066631D01*
X0096978Y0067751D01*
X0095515Y0068357D01*
X0093351Y0068117D02*
X0086096Y0068117D01*
X0087811Y0066918D02*
X0091635Y0066918D01*
X0090971Y0065720D02*
X0088476Y0065720D01*
X0088704Y0064521D02*
X0090743Y0064521D01*
X0090850Y0063323D02*
X0088596Y0063323D01*
X0088100Y0062124D02*
X0091347Y0062124D01*
X0092650Y0060926D02*
X0086796Y0060926D01*
X0085266Y0059728D02*
X0184524Y0059728D01*
X0184524Y0060926D02*
X0113946Y0060926D01*
X0114687Y0062124D02*
X0184524Y0062124D01*
X0184166Y0063323D02*
X0114911Y0063323D01*
X0114732Y0064521D02*
X0182967Y0064521D01*
X0182924Y0065720D02*
X0114053Y0065720D01*
X0114509Y0066918D02*
X0182924Y0066918D01*
X0182924Y0068117D02*
X0114611Y0068117D01*
X0114311Y0069315D02*
X0182924Y0069315D01*
X0182075Y0070513D02*
X0156274Y0070513D01*
X0155552Y0070214D02*
X0157081Y0070848D01*
X0158252Y0072019D01*
X0158885Y0073548D01*
X0158885Y0075204D01*
X0158252Y0076734D01*
X0157081Y0077905D01*
X0155552Y0078538D01*
X0153895Y0078538D01*
X0152366Y0077905D01*
X0151195Y0076734D01*
X0150561Y0075204D01*
X0150561Y0073548D01*
X0151195Y0072019D01*
X0152366Y0070848D01*
X0153895Y0070214D01*
X0155552Y0070214D01*
X0153172Y0070513D02*
X0146274Y0070513D01*
X0145552Y0070214D02*
X0147081Y0070848D01*
X0148252Y0072019D01*
X0148885Y0073548D01*
X0148885Y0075204D01*
X0148252Y0076734D01*
X0147081Y0077905D01*
X0145552Y0078538D01*
X0143895Y0078538D01*
X0142366Y0077905D01*
X0141195Y0076734D01*
X0140561Y0075204D01*
X0140561Y0073548D01*
X0141195Y0072019D01*
X0142366Y0070848D01*
X0143895Y0070214D01*
X0145552Y0070214D01*
X0143172Y0070513D02*
X0114135Y0070513D01*
X0114611Y0071712D02*
X0141502Y0071712D01*
X0140825Y0072910D02*
X0114611Y0072910D01*
X0114189Y0074109D02*
X0140561Y0074109D01*
X0140604Y0075307D02*
X0114256Y0075307D01*
X0114611Y0076506D02*
X0141100Y0076506D01*
X0142165Y0077704D02*
X0114563Y0077704D01*
X0114067Y0078902D02*
X0173686Y0078902D01*
X0172488Y0080101D02*
X0114378Y0080101D01*
X0114611Y0081299D02*
X0141914Y0081299D01*
X0142366Y0080848D02*
X0143895Y0080214D01*
X0145552Y0080214D01*
X0147081Y0080848D01*
X0148252Y0082019D01*
X0148885Y0083548D01*
X0148885Y0085204D01*
X0148252Y0086734D01*
X0147081Y0087905D01*
X0145552Y0088538D01*
X0143895Y0088538D01*
X0142366Y0087905D01*
X0141195Y0086734D01*
X0140561Y0085204D01*
X0140561Y0083548D01*
X0141195Y0082019D01*
X0142366Y0080848D01*
X0140996Y0082498D02*
X0114442Y0082498D01*
X0113916Y0083696D02*
X0140561Y0083696D01*
X0140561Y0084894D02*
X0114499Y0084894D01*
X0114611Y0086093D02*
X0140930Y0086093D01*
X0141752Y0087291D02*
X0114320Y0087291D01*
X0113483Y0088490D02*
X0143779Y0088490D01*
X0145669Y0088490D02*
X0153779Y0088490D01*
X0153895Y0088538D02*
X0152366Y0087905D01*
X0151195Y0086734D01*
X0150561Y0085204D01*
X0150561Y0083548D01*
X0151195Y0082019D01*
X0152366Y0080848D01*
X0153895Y0080214D01*
X0155552Y0080214D01*
X0157081Y0080848D01*
X0158252Y0082019D01*
X0158885Y0083548D01*
X0158885Y0085204D01*
X0158252Y0086734D01*
X0157081Y0087905D01*
X0155552Y0088538D01*
X0153895Y0088538D01*
X0155669Y0088490D02*
X0164099Y0088490D01*
X0162900Y0089688D02*
X0114248Y0089688D01*
X0114611Y0090887D02*
X0151802Y0090887D01*
X0150604Y0092085D02*
X0114571Y0092085D01*
X0119781Y0093283D02*
X0147665Y0093283D01*
X0147455Y0094482D02*
X0119992Y0094482D01*
X0119992Y0095680D02*
X0147455Y0095680D01*
X0147455Y0096879D02*
X0119992Y0096879D01*
X0119992Y0098077D02*
X0147455Y0098077D01*
X0147455Y0099276D02*
X0119992Y0099276D01*
X0119227Y0100474D02*
X0148220Y0100474D01*
X0159227Y0100474D02*
X0211224Y0100474D01*
X0211224Y0099276D02*
X0159992Y0099276D01*
X0163144Y0098077D02*
X0211224Y0098077D01*
X0211224Y0096879D02*
X0164332Y0096879D01*
X0165530Y0095680D02*
X0211224Y0095680D01*
X0211224Y0094482D02*
X0166729Y0094482D01*
X0167927Y0093283D02*
X0211224Y0093283D01*
X0196850Y0092085D02*
X0169126Y0092085D01*
X0170324Y0090887D02*
X0194452Y0090887D01*
X0193089Y0089688D02*
X0171522Y0089688D01*
X0172721Y0088490D02*
X0192128Y0088490D01*
X0191441Y0087291D02*
X0173919Y0087291D01*
X0175118Y0086093D02*
X0190965Y0086093D01*
X0190663Y0084894D02*
X0176316Y0084894D01*
X0177515Y0083696D02*
X0190537Y0083696D01*
X0190524Y0082498D02*
X0178713Y0082498D01*
X0179911Y0081299D02*
X0190524Y0081299D01*
X0190524Y0080101D02*
X0181110Y0080101D01*
X0182308Y0078902D02*
X0190572Y0078902D01*
X0190733Y0077704D02*
X0183507Y0077704D01*
X0184705Y0076506D02*
X0191055Y0076506D01*
X0191558Y0075307D02*
X0185904Y0075307D01*
X0187102Y0074109D02*
X0192280Y0074109D01*
X0193289Y0072910D02*
X0188300Y0072910D01*
X0192030Y0071712D02*
X0194717Y0071712D01*
X0197207Y0070513D02*
X0192123Y0070513D01*
X0200896Y0069315D02*
X0211224Y0069315D01*
X0211224Y0068117D02*
X0202094Y0068117D01*
X0203293Y0066918D02*
X0211224Y0066918D01*
X0211224Y0065720D02*
X0204491Y0065720D01*
X0205689Y0064521D02*
X0211224Y0064521D01*
X0211224Y0063323D02*
X0206888Y0063323D01*
X0208086Y0062124D02*
X0211224Y0062124D01*
X0211224Y0060926D02*
X0209533Y0060926D01*
X0210837Y0059728D02*
X0211224Y0059728D01*
X0203410Y0059728D02*
X0201140Y0059728D01*
X0201637Y0060926D02*
X0203063Y0060926D01*
X0201865Y0062124D02*
X0201695Y0062124D01*
X0202819Y0058529D02*
X0200141Y0058529D01*
X0202552Y0057331D02*
X0137852Y0057331D01*
X0139361Y0056132D02*
X0195211Y0056132D01*
X0193616Y0054934D02*
X0140560Y0054934D01*
X0141758Y0053735D02*
X0192904Y0053735D01*
X0192552Y0052537D02*
X0142957Y0052537D01*
X0144155Y0051339D02*
X0192552Y0051339D01*
X0192935Y0050140D02*
X0145354Y0050140D01*
X0151552Y0048942D02*
X0193693Y0048942D01*
X0195396Y0047743D02*
X0158957Y0047743D01*
X0153490Y0047743D02*
X0152750Y0047743D01*
X0148698Y0043402D02*
X0146224Y0043602D01*
X0145198Y0043402D01*
X0136024Y0052576D01*
X0085524Y0052576D01*
X0073524Y0064576D01*
X0079274Y0065720D02*
X0080971Y0065720D01*
X0080743Y0064521D02*
X0080472Y0064521D01*
X0081635Y0066918D02*
X0078423Y0066918D01*
X0078423Y0068117D02*
X0083351Y0068117D01*
X0081758Y0071712D02*
X0078423Y0071712D01*
X0078423Y0072910D02*
X0081022Y0072910D01*
X0080743Y0074109D02*
X0078423Y0074109D01*
X0078423Y0075307D02*
X0080800Y0075307D01*
X0081296Y0076506D02*
X0078236Y0076506D01*
X0077290Y0077704D02*
X0082421Y0077704D01*
X0087026Y0077704D02*
X0092421Y0077704D01*
X0091296Y0076506D02*
X0088151Y0076506D01*
X0088647Y0075307D02*
X0090800Y0075307D01*
X0090743Y0074109D02*
X0088704Y0074109D01*
X0088425Y0072910D02*
X0091022Y0072910D01*
X0091758Y0071712D02*
X0087689Y0071712D01*
X0097811Y0066918D02*
X0105924Y0066918D01*
X0106010Y0065720D02*
X0098476Y0065720D01*
X0098704Y0064521D02*
X0107209Y0064521D01*
X0107736Y0063323D02*
X0098596Y0063323D01*
X0098100Y0062124D02*
X0107959Y0062124D01*
X0108700Y0060926D02*
X0096796Y0060926D01*
X0086465Y0058529D02*
X0185529Y0058529D01*
X0191118Y0058529D02*
X0194106Y0058529D01*
X0193107Y0059728D02*
X0192123Y0059728D01*
X0199036Y0056132D02*
X0202552Y0056132D01*
X0203021Y0054934D02*
X0200631Y0054934D01*
X0201343Y0053735D02*
X0203899Y0053735D01*
X0205894Y0052537D02*
X0201695Y0052537D01*
X0201695Y0051339D02*
X0206722Y0051339D01*
X0206837Y0051339D02*
X0207409Y0051339D01*
X0207525Y0051339D02*
X0211224Y0051339D01*
X0211224Y0052537D02*
X0208352Y0052537D01*
X0210348Y0053735D02*
X0211224Y0053735D01*
X0211224Y0050140D02*
X0210142Y0050140D01*
X0211028Y0048942D02*
X0211224Y0048942D01*
X0207409Y0048942D02*
X0206837Y0048942D01*
X0206837Y0050140D02*
X0207409Y0050140D01*
X0204105Y0050140D02*
X0201311Y0050140D01*
X0200554Y0048942D02*
X0203219Y0048942D01*
X0202765Y0046545D02*
X0201074Y0046545D01*
X0204613Y0042950D02*
X0205396Y0042950D01*
X0204663Y0041751D02*
X0211224Y0041751D01*
X0211224Y0040553D02*
X0204504Y0040553D01*
X0204007Y0039354D02*
X0211224Y0039354D01*
X0211224Y0038156D02*
X0202906Y0038156D01*
X0196916Y0038156D02*
X0190938Y0038156D01*
X0192136Y0036957D02*
X0211224Y0036957D01*
X0211224Y0035759D02*
X0193335Y0035759D01*
X0194533Y0034561D02*
X0211224Y0034561D01*
X0211224Y0033362D02*
X0195731Y0033362D01*
X0200798Y0032164D02*
X0205794Y0032164D01*
X0207639Y0032164D02*
X0208408Y0032164D01*
X0208408Y0030965D02*
X0207639Y0030965D01*
X0207639Y0029767D02*
X0208408Y0029767D01*
X0204200Y0030965D02*
X0202130Y0030965D01*
X0202853Y0029767D02*
X0203416Y0029767D01*
X0207639Y0028569D02*
X0208408Y0028569D01*
X0198324Y0027376D02*
X0198124Y0027576D01*
X0187524Y0038176D01*
X0161124Y0038176D01*
X0156624Y0035476D02*
X0180024Y0035476D01*
X0187924Y0027576D01*
X0188024Y0027576D01*
X0198024Y0027576D02*
X0198124Y0027576D01*
X0210253Y0032164D02*
X0211224Y0032164D01*
X0195814Y0039354D02*
X0189739Y0039354D01*
X0188057Y0040553D02*
X0195317Y0040553D01*
X0156624Y0035476D02*
X0148698Y0043402D01*
X0067524Y0044076D02*
X0057524Y0044076D01*
X0047524Y0044076D01*
X0037524Y0044076D01*
X0027524Y0044076D02*
X0017524Y0044076D01*
X0007524Y0044076D01*
X0007524Y0054076D02*
X0017524Y0054076D01*
X0027524Y0054076D01*
X0037524Y0054076D02*
X0047524Y0054076D01*
X0057524Y0054076D01*
X0067524Y0054076D01*
X0147945Y0071712D02*
X0151502Y0071712D01*
X0150825Y0072910D02*
X0148621Y0072910D01*
X0148885Y0074109D02*
X0150561Y0074109D01*
X0150604Y0075307D02*
X0148843Y0075307D01*
X0148347Y0076506D02*
X0151100Y0076506D01*
X0152165Y0077704D02*
X0147282Y0077704D01*
X0147533Y0081299D02*
X0151914Y0081299D01*
X0150996Y0082498D02*
X0148450Y0082498D01*
X0148885Y0083696D02*
X0150561Y0083696D01*
X0150561Y0084894D02*
X0148885Y0084894D01*
X0148518Y0086093D02*
X0150930Y0086093D01*
X0151752Y0087291D02*
X0147694Y0087291D01*
X0157694Y0087291D02*
X0165297Y0087291D01*
X0166496Y0086093D02*
X0158518Y0086093D01*
X0158885Y0084894D02*
X0167694Y0084894D01*
X0168893Y0083696D02*
X0158885Y0083696D01*
X0158450Y0082498D02*
X0170091Y0082498D01*
X0171289Y0081299D02*
X0157533Y0081299D01*
X0157282Y0077704D02*
X0174885Y0077704D01*
X0176083Y0076506D02*
X0158347Y0076506D01*
X0158843Y0075307D02*
X0177281Y0075307D01*
X0178480Y0074109D02*
X0158885Y0074109D01*
X0158621Y0072910D02*
X0179678Y0072910D01*
X0180877Y0071712D02*
X0157945Y0071712D01*
X0073674Y0089688D02*
X0060256Y0089688D01*
X0060195Y0088490D02*
X0064852Y0088490D01*
X0063526Y0087291D02*
X0061520Y0087291D01*
X0061546Y0090887D02*
X0073436Y0090887D01*
X0073600Y0092085D02*
X0068926Y0092085D01*
X0069793Y0093283D02*
X0074257Y0093283D01*
X0074724Y0094482D02*
X0069923Y0094482D01*
X0069313Y0095680D02*
X0074724Y0095680D01*
X0074724Y0096879D02*
X0061883Y0096879D01*
X0060735Y0098077D02*
X0074724Y0098077D01*
X0074724Y0099276D02*
X0004823Y0099276D01*
X0004823Y0100474D02*
X0075552Y0100474D01*
X0076750Y0101672D02*
X0004823Y0101672D01*
X0004823Y0098077D02*
X0034312Y0098077D01*
X0033165Y0096879D02*
X0004823Y0096879D01*
X0004823Y0095680D02*
X0032668Y0095680D01*
X0032424Y0094482D02*
X0004823Y0094482D01*
X0004823Y0093283D02*
X0032424Y0093283D01*
X0032828Y0092085D02*
X0019428Y0092085D01*
X0021767Y0090887D02*
X0033501Y0090887D01*
X0034791Y0089688D02*
X0023103Y0089688D01*
X0024036Y0088490D02*
X0034852Y0088490D01*
X0033526Y0087291D02*
X0024696Y0087291D01*
X0037524Y0094076D02*
X0047524Y0094076D01*
X0057524Y0094076D01*
X0067524Y0094076D01*
X0054312Y0098077D02*
X0050735Y0098077D01*
X0051883Y0096879D02*
X0053165Y0096879D01*
X0044312Y0098077D02*
X0040735Y0098077D01*
X0041883Y0096879D02*
X0043165Y0096879D01*
X0115897Y0101672D02*
X0211224Y0101672D01*
D17*
X0067524Y0094076D03*
X0057524Y0094076D03*
X0047524Y0094076D03*
X0037524Y0094076D03*
X0037524Y0084076D03*
X0047524Y0084076D03*
X0057524Y0084076D03*
X0067524Y0084076D03*
X0067524Y0074076D03*
X0057524Y0074076D03*
X0047524Y0074076D03*
X0037524Y0074076D03*
X0037524Y0064076D03*
X0047524Y0064076D03*
X0057524Y0064076D03*
X0067524Y0064076D03*
X0067524Y0054076D03*
X0057524Y0054076D03*
X0047524Y0054076D03*
X0037524Y0054076D03*
X0027524Y0054076D03*
X0017524Y0054076D03*
X0007524Y0054076D03*
X0007524Y0044076D03*
X0017524Y0044076D03*
X0027524Y0044076D03*
X0037524Y0044076D03*
X0047524Y0044076D03*
X0057524Y0044076D03*
X0067524Y0044076D03*
X0027524Y0064076D03*
X0017524Y0064076D03*
X0007524Y0064076D03*
D18*
X0067524Y0064076D02*
X0080424Y0051176D01*
X0080424Y0052576D01*
X0080424Y0051376D01*
X0081324Y0050476D01*
X0135324Y0050476D01*
X0139824Y0045976D01*
X0139824Y0037576D01*
X0141324Y0036076D01*
X0153324Y0036076D01*
X0155724Y0033676D01*
X0163824Y0033676D01*
X0165024Y0032476D01*
X0173124Y0032476D01*
X0178024Y0027576D01*
X0168024Y0027676D02*
X0168024Y0027576D01*
X0168024Y0027676D02*
X0163224Y0032476D01*
X0155124Y0032476D01*
X0152724Y0034876D01*
X0136224Y0034876D01*
X0131124Y0039976D01*
X0123524Y0039976D01*
X0121224Y0042276D01*
X0121224Y0043602D01*
X0116224Y0043602D02*
X0115724Y0042476D01*
X0119424Y0038776D01*
X0130524Y0038776D01*
X0135624Y0033676D01*
X0152124Y0033676D01*
X0158124Y0027676D01*
X0158024Y0027576D01*
X0148224Y0027376D02*
X0148024Y0027576D01*
X0143124Y0032476D01*
X0135024Y0032476D01*
X0129924Y0037576D01*
X0118824Y0037576D01*
X0116424Y0039976D01*
X0113124Y0039976D01*
X0110724Y0042376D01*
X0111224Y0043602D01*
X0106224Y0043602D02*
X0106024Y0042276D01*
X0109524Y0038776D01*
X0115824Y0038776D01*
X0118224Y0036376D01*
X0129324Y0036376D01*
X0138024Y0027676D01*
X0138024Y0027576D01*
X0128124Y0027376D02*
X0128024Y0027476D01*
X0120324Y0035176D01*
X0117624Y0035176D01*
X0115224Y0037576D01*
X0105624Y0037576D01*
X0100724Y0042476D01*
X0101224Y0043602D01*
X0098124Y0039976D02*
X0095724Y0042376D01*
X0096224Y0043602D01*
X0091224Y0043602D02*
X0091049Y0043402D01*
X0090924Y0043276D01*
X0081024Y0043276D01*
X0080424Y0043876D01*
X0078624Y0046876D02*
X0077024Y0045276D01*
X0077024Y0036276D01*
X0073224Y0032476D01*
X0035124Y0032476D01*
X0030224Y0027576D01*
X0028024Y0027576D01*
X0022824Y0032476D02*
X0018024Y0027676D01*
X0018024Y0027576D01*
X0014424Y0033676D02*
X0008124Y0027376D01*
X0008024Y0027476D01*
X0008024Y0027576D01*
X0022824Y0032476D02*
X0033324Y0032476D01*
X0034524Y0033676D01*
X0072324Y0033676D01*
X0075624Y0036976D01*
X0075624Y0045676D01*
X0078024Y0048076D01*
X0128524Y0048076D01*
X0131724Y0044876D01*
X0131224Y0043602D01*
X0135724Y0044976D02*
X0131424Y0049276D01*
X0077424Y0049276D01*
X0074124Y0045976D01*
X0074124Y0037576D01*
X0071424Y0034876D01*
X0033924Y0034876D01*
X0032724Y0033676D01*
X0014424Y0033676D01*
X0078624Y0046876D02*
X0124624Y0046876D01*
X0126724Y0044776D01*
X0126224Y0043602D01*
X0135724Y0044976D02*
X0136224Y0043602D01*
X0118024Y0027576D02*
X0109224Y0036376D01*
X0105024Y0036376D01*
X0101424Y0039976D01*
X0098124Y0039976D01*
X0128024Y0027576D02*
X0128024Y0027476D01*
X0111324Y0063376D02*
X0108024Y0066676D01*
X0108024Y0068776D01*
X0101424Y0075376D01*
X0101424Y0084676D01*
X0095424Y0090676D01*
X0084324Y0090676D01*
X0082524Y0092476D01*
X0082524Y0094576D01*
X0081224Y0095876D01*
X0081224Y0096602D01*
X0078024Y0099976D02*
X0076824Y0098776D01*
X0076824Y0091076D01*
X0077024Y0091076D01*
X0077024Y0090976D01*
X0087024Y0093976D02*
X0089124Y0091876D01*
X0096024Y0091876D01*
X0102624Y0085276D01*
X0102624Y0075976D01*
X0110724Y0067876D01*
X0111024Y0067876D01*
X0111024Y0072376D02*
X0108324Y0072376D01*
X0103824Y0076876D01*
X0103824Y0085876D01*
X0096624Y0093076D01*
X0093324Y0093076D01*
X0092424Y0093976D01*
X0092424Y0094576D01*
X0091224Y0095776D01*
X0091224Y0096602D01*
X0086224Y0096602D02*
X0086224Y0095376D01*
X0087024Y0094576D01*
X0087024Y0093976D01*
X0096224Y0095276D02*
X0096224Y0096602D01*
X0096224Y0095276D02*
X0105024Y0086476D01*
X0105024Y0077476D01*
X0105624Y0076876D01*
X0111024Y0076876D01*
X0111024Y0081376D02*
X0107424Y0081376D01*
X0106224Y0082576D01*
X0106224Y0087076D01*
X0099924Y0093376D01*
X0099924Y0095102D01*
X0101224Y0096602D01*
X0104724Y0094576D02*
X0106224Y0096076D01*
X0106224Y0096602D01*
X0104724Y0094576D02*
X0104724Y0090376D01*
X0109224Y0085876D01*
X0111024Y0085876D01*
X0111024Y0091276D02*
X0111224Y0091476D01*
X0111224Y0096602D01*
X0114624Y0099976D02*
X0116224Y0098376D01*
X0116224Y0096602D01*
X0114624Y0099976D02*
X0078024Y0099976D01*
D19*
X0077024Y0090976D03*
X0111024Y0091276D03*
X0111024Y0085876D03*
X0111024Y0081376D03*
X0111024Y0076876D03*
X0111024Y0072376D03*
X0111024Y0067876D03*
X0111324Y0063376D03*
X0080424Y0052576D03*
X0080424Y0043876D03*
D20*
X0162924Y0092776D02*
X0185124Y0070576D01*
X0185124Y0065476D01*
X0188370Y0062230D01*
X0188324Y0062230D01*
X0196470Y0062230D01*
X0196824Y0061876D01*
X0196924Y0061976D01*
X0197124Y0061976D01*
X0188424Y0062176D02*
X0188370Y0062230D01*
X0189324Y0067876D02*
X0199224Y0067876D01*
X0207024Y0060076D01*
X0207024Y0057376D01*
X0207324Y0057076D01*
X0207224Y0056976D01*
X0207124Y0056976D01*
X0189324Y0067876D02*
X0188324Y0068876D01*
X0188324Y0068923D01*
X0188324Y0068976D01*
X0188724Y0069376D01*
X0161698Y0096402D01*
X0156224Y0096602D01*
X0153024Y0092776D02*
X0151224Y0094576D01*
X0151224Y0096602D01*
X0153024Y0092776D02*
X0162924Y0092776D01*
M02*
