G75*
G70*
%OFA0B0*%
%FSLAX24Y24*%
%IPPOS*%
%LPD*%
%AMOC8*
5,1,8,0,0,1.08239X$1,22.5*
%
%ADD10C,0.0000*%
%ADD11C,0.0700*%
%ADD12C,0.0436*%
%ADD13C,0.0554*%
%ADD14C,0.0120*%
%ADD15C,0.0660*%
%ADD16C,0.0357*%
%ADD17C,0.0060*%
D10*
X000302Y002258D02*
X000302Y010408D01*
X021302Y010408D01*
X021302Y002258D01*
X000302Y002258D01*
X014236Y007438D02*
X014238Y007468D01*
X014244Y007498D01*
X014253Y007527D01*
X014266Y007554D01*
X014283Y007579D01*
X014302Y007602D01*
X014325Y007623D01*
X014350Y007640D01*
X014376Y007654D01*
X014405Y007664D01*
X014434Y007671D01*
X014464Y007674D01*
X014495Y007673D01*
X014525Y007668D01*
X014554Y007659D01*
X014581Y007647D01*
X014607Y007632D01*
X014631Y007613D01*
X014652Y007591D01*
X014670Y007567D01*
X014685Y007540D01*
X014696Y007512D01*
X014704Y007483D01*
X014708Y007453D01*
X014708Y007423D01*
X014704Y007393D01*
X014696Y007364D01*
X014685Y007336D01*
X014670Y007309D01*
X014652Y007285D01*
X014631Y007263D01*
X014607Y007244D01*
X014581Y007229D01*
X014554Y007217D01*
X014525Y007208D01*
X014495Y007203D01*
X014464Y007202D01*
X014434Y007205D01*
X014405Y007212D01*
X014376Y007222D01*
X014350Y007236D01*
X014325Y007253D01*
X014302Y007274D01*
X014283Y007297D01*
X014266Y007322D01*
X014253Y007349D01*
X014244Y007378D01*
X014238Y007408D01*
X014236Y007438D01*
X015236Y007438D02*
X015238Y007468D01*
X015244Y007498D01*
X015253Y007527D01*
X015266Y007554D01*
X015283Y007579D01*
X015302Y007602D01*
X015325Y007623D01*
X015350Y007640D01*
X015376Y007654D01*
X015405Y007664D01*
X015434Y007671D01*
X015464Y007674D01*
X015495Y007673D01*
X015525Y007668D01*
X015554Y007659D01*
X015581Y007647D01*
X015607Y007632D01*
X015631Y007613D01*
X015652Y007591D01*
X015670Y007567D01*
X015685Y007540D01*
X015696Y007512D01*
X015704Y007483D01*
X015708Y007453D01*
X015708Y007423D01*
X015704Y007393D01*
X015696Y007364D01*
X015685Y007336D01*
X015670Y007309D01*
X015652Y007285D01*
X015631Y007263D01*
X015607Y007244D01*
X015581Y007229D01*
X015554Y007217D01*
X015525Y007208D01*
X015495Y007203D01*
X015464Y007202D01*
X015434Y007205D01*
X015405Y007212D01*
X015376Y007222D01*
X015350Y007236D01*
X015325Y007253D01*
X015302Y007274D01*
X015283Y007297D01*
X015266Y007322D01*
X015253Y007349D01*
X015244Y007378D01*
X015238Y007408D01*
X015236Y007438D01*
X015236Y008438D02*
X015238Y008468D01*
X015244Y008498D01*
X015253Y008527D01*
X015266Y008554D01*
X015283Y008579D01*
X015302Y008602D01*
X015325Y008623D01*
X015350Y008640D01*
X015376Y008654D01*
X015405Y008664D01*
X015434Y008671D01*
X015464Y008674D01*
X015495Y008673D01*
X015525Y008668D01*
X015554Y008659D01*
X015581Y008647D01*
X015607Y008632D01*
X015631Y008613D01*
X015652Y008591D01*
X015670Y008567D01*
X015685Y008540D01*
X015696Y008512D01*
X015704Y008483D01*
X015708Y008453D01*
X015708Y008423D01*
X015704Y008393D01*
X015696Y008364D01*
X015685Y008336D01*
X015670Y008309D01*
X015652Y008285D01*
X015631Y008263D01*
X015607Y008244D01*
X015581Y008229D01*
X015554Y008217D01*
X015525Y008208D01*
X015495Y008203D01*
X015464Y008202D01*
X015434Y008205D01*
X015405Y008212D01*
X015376Y008222D01*
X015350Y008236D01*
X015325Y008253D01*
X015302Y008274D01*
X015283Y008297D01*
X015266Y008322D01*
X015253Y008349D01*
X015244Y008378D01*
X015238Y008408D01*
X015236Y008438D01*
X014236Y008438D02*
X014238Y008468D01*
X014244Y008498D01*
X014253Y008527D01*
X014266Y008554D01*
X014283Y008579D01*
X014302Y008602D01*
X014325Y008623D01*
X014350Y008640D01*
X014376Y008654D01*
X014405Y008664D01*
X014434Y008671D01*
X014464Y008674D01*
X014495Y008673D01*
X014525Y008668D01*
X014554Y008659D01*
X014581Y008647D01*
X014607Y008632D01*
X014631Y008613D01*
X014652Y008591D01*
X014670Y008567D01*
X014685Y008540D01*
X014696Y008512D01*
X014704Y008483D01*
X014708Y008453D01*
X014708Y008423D01*
X014704Y008393D01*
X014696Y008364D01*
X014685Y008336D01*
X014670Y008309D01*
X014652Y008285D01*
X014631Y008263D01*
X014607Y008244D01*
X014581Y008229D01*
X014554Y008217D01*
X014525Y008208D01*
X014495Y008203D01*
X014464Y008202D01*
X014434Y008205D01*
X014405Y008212D01*
X014376Y008222D01*
X014350Y008236D01*
X014325Y008253D01*
X014302Y008274D01*
X014283Y008297D01*
X014266Y008322D01*
X014253Y008349D01*
X014244Y008378D01*
X014238Y008408D01*
X014236Y008438D01*
X019671Y008158D02*
X019673Y008204D01*
X019679Y008249D01*
X019689Y008294D01*
X019702Y008337D01*
X019719Y008380D01*
X019740Y008420D01*
X019764Y008459D01*
X019792Y008495D01*
X019823Y008529D01*
X019856Y008561D01*
X019892Y008589D01*
X019930Y008614D01*
X019970Y008636D01*
X020012Y008654D01*
X020055Y008668D01*
X020100Y008679D01*
X020145Y008686D01*
X020191Y008689D01*
X020236Y008688D01*
X020282Y008683D01*
X020327Y008674D01*
X020370Y008662D01*
X020413Y008645D01*
X020454Y008625D01*
X020493Y008602D01*
X020531Y008575D01*
X020565Y008545D01*
X020597Y008513D01*
X020626Y008477D01*
X020652Y008440D01*
X020675Y008400D01*
X020694Y008359D01*
X020709Y008316D01*
X020721Y008271D01*
X020729Y008226D01*
X020733Y008181D01*
X020733Y008135D01*
X020729Y008090D01*
X020721Y008045D01*
X020709Y008000D01*
X020694Y007957D01*
X020675Y007916D01*
X020652Y007876D01*
X020626Y007839D01*
X020597Y007803D01*
X020565Y007771D01*
X020531Y007741D01*
X020493Y007714D01*
X020454Y007691D01*
X020413Y007671D01*
X020370Y007654D01*
X020327Y007642D01*
X020282Y007633D01*
X020236Y007628D01*
X020191Y007627D01*
X020145Y007630D01*
X020100Y007637D01*
X020055Y007648D01*
X020012Y007662D01*
X019970Y007680D01*
X019930Y007702D01*
X019892Y007727D01*
X019856Y007755D01*
X019823Y007787D01*
X019792Y007821D01*
X019764Y007857D01*
X019740Y007896D01*
X019719Y007936D01*
X019702Y007979D01*
X019689Y008022D01*
X019679Y008067D01*
X019673Y008112D01*
X019671Y008158D01*
X019696Y004188D02*
X019698Y004222D01*
X019704Y004256D01*
X019714Y004289D01*
X019727Y004320D01*
X019745Y004350D01*
X019765Y004378D01*
X019789Y004403D01*
X019815Y004425D01*
X019843Y004443D01*
X019874Y004459D01*
X019906Y004471D01*
X019940Y004479D01*
X019974Y004483D01*
X020008Y004483D01*
X020042Y004479D01*
X020076Y004471D01*
X020108Y004459D01*
X020138Y004443D01*
X020167Y004425D01*
X020193Y004403D01*
X020217Y004378D01*
X020237Y004350D01*
X020255Y004320D01*
X020268Y004289D01*
X020278Y004256D01*
X020284Y004222D01*
X020286Y004188D01*
X020284Y004154D01*
X020278Y004120D01*
X020268Y004087D01*
X020255Y004056D01*
X020237Y004026D01*
X020217Y003998D01*
X020193Y003973D01*
X020167Y003951D01*
X020139Y003933D01*
X020108Y003917D01*
X020076Y003905D01*
X020042Y003897D01*
X020008Y003893D01*
X019974Y003893D01*
X019940Y003897D01*
X019906Y003905D01*
X019874Y003917D01*
X019843Y003933D01*
X019815Y003951D01*
X019789Y003973D01*
X019765Y003998D01*
X019745Y004026D01*
X019727Y004056D01*
X019714Y004087D01*
X019704Y004120D01*
X019698Y004154D01*
X019696Y004188D01*
X000871Y008158D02*
X000873Y008204D01*
X000879Y008249D01*
X000889Y008294D01*
X000902Y008337D01*
X000919Y008380D01*
X000940Y008420D01*
X000964Y008459D01*
X000992Y008495D01*
X001023Y008529D01*
X001056Y008561D01*
X001092Y008589D01*
X001130Y008614D01*
X001170Y008636D01*
X001212Y008654D01*
X001255Y008668D01*
X001300Y008679D01*
X001345Y008686D01*
X001391Y008689D01*
X001436Y008688D01*
X001482Y008683D01*
X001527Y008674D01*
X001570Y008662D01*
X001613Y008645D01*
X001654Y008625D01*
X001693Y008602D01*
X001731Y008575D01*
X001765Y008545D01*
X001797Y008513D01*
X001826Y008477D01*
X001852Y008440D01*
X001875Y008400D01*
X001894Y008359D01*
X001909Y008316D01*
X001921Y008271D01*
X001929Y008226D01*
X001933Y008181D01*
X001933Y008135D01*
X001929Y008090D01*
X001921Y008045D01*
X001909Y008000D01*
X001894Y007957D01*
X001875Y007916D01*
X001852Y007876D01*
X001826Y007839D01*
X001797Y007803D01*
X001765Y007771D01*
X001731Y007741D01*
X001693Y007714D01*
X001654Y007691D01*
X001613Y007671D01*
X001570Y007654D01*
X001527Y007642D01*
X001482Y007633D01*
X001436Y007628D01*
X001391Y007627D01*
X001345Y007630D01*
X001300Y007637D01*
X001255Y007648D01*
X001212Y007662D01*
X001170Y007680D01*
X001130Y007702D01*
X001092Y007727D01*
X001056Y007755D01*
X001023Y007787D01*
X000992Y007821D01*
X000964Y007857D01*
X000940Y007896D01*
X000919Y007936D01*
X000902Y007979D01*
X000889Y008022D01*
X000879Y008067D01*
X000873Y008112D01*
X000871Y008158D01*
D11*
X000802Y002758D03*
X001802Y002758D03*
X002802Y002758D03*
X003802Y002758D03*
X004802Y002758D03*
X005802Y002758D03*
X006802Y002758D03*
X007802Y002758D03*
X008802Y002758D03*
X009802Y002758D03*
X010802Y002758D03*
X011802Y002758D03*
X012802Y002758D03*
X013802Y002758D03*
X014802Y002758D03*
X015802Y002758D03*
X016802Y002758D03*
X017802Y002758D03*
X018802Y002758D03*
X019802Y002758D03*
X020802Y002758D03*
D12*
X009472Y006438D03*
X008472Y006438D03*
X008472Y007438D03*
X009472Y007438D03*
X009472Y008438D03*
X008472Y008438D03*
D13*
X019712Y006198D03*
X020712Y005698D03*
X019712Y005198D03*
X020712Y004698D03*
D14*
X020684Y004726D02*
X020684Y004669D01*
X020741Y004669D01*
X020741Y004260D01*
X020747Y004260D01*
X020815Y004271D01*
X020880Y004292D01*
X020941Y004324D01*
X020997Y004364D01*
X021046Y004413D01*
X021086Y004469D01*
X021117Y004530D01*
X021122Y004545D01*
X021122Y003155D01*
X021070Y003194D01*
X020998Y003230D01*
X020922Y003255D01*
X020842Y003268D01*
X020841Y003268D01*
X020841Y002796D01*
X020764Y002796D01*
X020764Y003268D01*
X020762Y003268D01*
X020683Y003255D01*
X020607Y003230D01*
X020535Y003194D01*
X020470Y003147D01*
X020413Y003090D01*
X020366Y003025D01*
X020330Y002953D01*
X020314Y002906D01*
X020252Y003058D01*
X020103Y003207D01*
X019908Y003288D01*
X019697Y003288D01*
X019502Y003207D01*
X019353Y003058D01*
X019302Y002935D01*
X019252Y003058D01*
X019103Y003207D01*
X019042Y003232D01*
X019042Y004188D01*
X019602Y004748D01*
X019621Y004740D01*
X019803Y004740D01*
X019971Y004810D01*
X020100Y004939D01*
X020169Y005107D01*
X020169Y005289D01*
X020100Y005457D01*
X019971Y005585D01*
X019803Y005655D01*
X019621Y005655D01*
X019453Y005585D01*
X019325Y005457D01*
X019255Y005289D01*
X019255Y005107D01*
X019263Y005088D01*
X018599Y004424D01*
X018562Y004335D01*
X018562Y004240D01*
X018562Y003232D01*
X018502Y003207D01*
X018353Y003058D01*
X018302Y002935D01*
X018252Y003058D01*
X018103Y003207D01*
X017908Y003288D01*
X017697Y003288D01*
X017502Y003207D01*
X017353Y003058D01*
X017302Y002935D01*
X017252Y003058D01*
X017103Y003207D01*
X016908Y003288D01*
X016697Y003288D01*
X016502Y003207D01*
X016353Y003058D01*
X016302Y002935D01*
X016252Y003058D01*
X016103Y003207D01*
X015908Y003288D01*
X015697Y003288D01*
X015502Y003207D01*
X015353Y003058D01*
X015302Y002935D01*
X015252Y003058D01*
X015103Y003207D01*
X014908Y003288D01*
X014697Y003288D01*
X014502Y003207D01*
X014353Y003058D01*
X014302Y002935D01*
X014252Y003058D01*
X014103Y003207D01*
X013908Y003288D01*
X013697Y003288D01*
X013502Y003207D01*
X013353Y003058D01*
X013302Y002935D01*
X013252Y003058D01*
X013103Y003207D01*
X012908Y003288D01*
X012697Y003288D01*
X012502Y003207D01*
X012353Y003058D01*
X012302Y002935D01*
X012252Y003058D01*
X012103Y003207D01*
X011908Y003288D01*
X011697Y003288D01*
X011502Y003207D01*
X011353Y003058D01*
X011302Y002935D01*
X011252Y003058D01*
X011103Y003207D01*
X010908Y003288D01*
X010839Y003288D01*
X011342Y003791D01*
X011342Y003965D01*
X011342Y006040D01*
X011436Y006134D01*
X011491Y006266D01*
X011491Y006409D01*
X011436Y006541D01*
X011400Y006578D01*
X011406Y006584D01*
X011461Y006716D01*
X011461Y006859D01*
X011406Y006991D01*
X011385Y007013D01*
X011406Y007034D01*
X011461Y007166D01*
X011461Y007309D01*
X011406Y007441D01*
X011385Y007463D01*
X011406Y007484D01*
X011461Y007616D01*
X011461Y007759D01*
X011406Y007891D01*
X011385Y007913D01*
X011406Y007934D01*
X011461Y008066D01*
X014281Y008066D01*
X014237Y008085D02*
X014390Y008021D01*
X014555Y008021D01*
X014708Y008085D01*
X014825Y008202D01*
X014889Y008355D01*
X014889Y008520D01*
X014825Y008673D01*
X014708Y008790D01*
X014555Y008854D01*
X014390Y008854D01*
X014237Y008790D01*
X014119Y008673D01*
X014056Y008520D01*
X014056Y008355D01*
X014119Y008202D01*
X014237Y008085D01*
X014137Y008185D02*
X011461Y008185D01*
X011461Y008209D02*
X011406Y008341D01*
X011385Y008363D01*
X011406Y008384D01*
X011461Y008516D01*
X011461Y008659D01*
X014114Y008659D01*
X014064Y008540D02*
X011461Y008540D01*
X011461Y008659D02*
X011406Y008791D01*
X011340Y008858D01*
X011406Y008924D01*
X011461Y009056D01*
X011461Y009199D01*
X011406Y009331D01*
X011306Y009432D01*
X011174Y009486D01*
X011031Y009486D01*
X010899Y009432D01*
X010798Y009331D01*
X010744Y009199D01*
X010744Y009056D01*
X010776Y008978D01*
X010115Y008318D01*
X009992Y008195D01*
X009992Y006005D01*
X009992Y005831D01*
X010202Y005621D01*
X010202Y004355D01*
X009785Y003938D01*
X009089Y003938D01*
X008915Y003938D01*
X008765Y003788D01*
X008099Y003788D01*
X007949Y003788D01*
X007952Y003791D01*
X007952Y003965D01*
X007952Y004037D01*
X007971Y004029D01*
X008114Y004029D01*
X008246Y004084D01*
X008346Y004184D01*
X008401Y004316D01*
X008401Y004459D01*
X008346Y004591D01*
X008252Y004685D01*
X008252Y004960D01*
X008346Y005054D01*
X008401Y005186D01*
X008401Y005329D01*
X008346Y005461D01*
X008246Y005562D01*
X008114Y005616D01*
X007971Y005616D01*
X007952Y005609D01*
X007952Y008840D01*
X008006Y008894D01*
X008061Y009026D01*
X008061Y009169D01*
X008006Y009301D01*
X007906Y009402D01*
X007774Y009456D01*
X007631Y009456D01*
X007499Y009402D01*
X007398Y009301D01*
X007344Y009169D01*
X007344Y009026D01*
X007398Y008894D01*
X007499Y008794D01*
X007532Y008780D01*
X007532Y005618D01*
X007217Y005618D01*
X007185Y005696D01*
X007185Y005695D02*
X007532Y005695D01*
X007532Y005814D02*
X007067Y005814D01*
X007041Y005840D02*
X006878Y005908D01*
X007041Y005975D01*
X007185Y006119D01*
X007262Y006306D01*
X007262Y006509D01*
X007185Y006696D01*
X007041Y006840D01*
X006878Y006908D01*
X007041Y006975D01*
X007185Y007119D01*
X007262Y007306D01*
X007262Y007509D01*
X007185Y007696D01*
X007041Y007840D01*
X006878Y007908D01*
X007041Y007975D01*
X007185Y008119D01*
X007262Y008306D01*
X007262Y008509D01*
X007185Y008696D01*
X007041Y008840D01*
X006854Y008918D01*
X006651Y008918D01*
X006463Y008840D01*
X006320Y008696D01*
X006300Y008648D01*
X006205Y008648D01*
X006185Y008696D01*
X006041Y008840D01*
X005878Y008908D01*
X006041Y008975D01*
X006185Y009119D01*
X006205Y009168D01*
X006800Y009168D01*
X006888Y009204D01*
X006956Y009272D01*
X006992Y009360D01*
X006992Y009455D01*
X006956Y009544D01*
X006888Y009611D01*
X006800Y009648D01*
X006205Y009648D01*
X006185Y009696D01*
X006041Y009840D01*
X005854Y009918D01*
X005651Y009918D01*
X005463Y009840D01*
X005320Y009696D01*
X005300Y009648D01*
X005205Y009648D01*
X005185Y009696D01*
X005041Y009840D01*
X004854Y009918D01*
X004651Y009918D01*
X004463Y009840D01*
X004320Y009696D01*
X004300Y009648D01*
X004205Y009648D01*
X004185Y009696D01*
X004041Y009840D01*
X003854Y009918D01*
X003651Y009918D01*
X003463Y009840D01*
X003320Y009696D01*
X003242Y009509D01*
X003242Y009306D01*
X003320Y009119D01*
X003463Y008975D01*
X003627Y008908D01*
X003463Y008840D01*
X003320Y008696D01*
X003242Y008509D01*
X003242Y008306D01*
X003320Y008119D01*
X003463Y007975D01*
X003627Y007908D01*
X003463Y007840D01*
X003320Y007696D01*
X003242Y007509D01*
X003242Y007306D01*
X003320Y007119D01*
X003463Y006975D01*
X003627Y006908D01*
X003463Y006840D01*
X003320Y006696D01*
X003252Y006533D01*
X003185Y006696D01*
X003041Y006840D01*
X002854Y006918D01*
X002651Y006918D01*
X002463Y006840D01*
X002320Y006696D01*
X002300Y006648D01*
X002205Y006648D01*
X002185Y006696D01*
X002041Y006840D01*
X001854Y006918D01*
X001651Y006918D01*
X001463Y006840D01*
X001320Y006696D01*
X001300Y006648D01*
X001205Y006648D01*
X001185Y006696D01*
X001041Y006840D01*
X000854Y006918D01*
X000651Y006918D01*
X000482Y006848D01*
X000482Y007008D01*
X001602Y007008D01*
X001738Y007017D01*
X001870Y007046D01*
X001997Y007094D01*
X002116Y007158D01*
X002224Y007240D01*
X002320Y007336D01*
X002402Y007444D01*
X002466Y007563D01*
X002514Y007690D01*
X002543Y007822D01*
X002552Y007958D01*
X002552Y008358D01*
X002541Y008498D01*
X002508Y008636D01*
X002454Y008766D01*
X002380Y008887D01*
X002289Y008994D01*
X002181Y009086D01*
X002061Y009160D01*
X001930Y009214D01*
X001793Y009247D01*
X001652Y009258D01*
X000482Y009258D01*
X000482Y010228D01*
X021122Y010228D01*
X021122Y009258D01*
X020002Y009258D01*
X019857Y009250D01*
X019715Y009220D01*
X019580Y009168D01*
X019454Y009096D01*
X019341Y009004D01*
X019244Y008897D01*
X019164Y008775D01*
X019105Y008642D01*
X019068Y008502D01*
X019052Y008358D01*
X019052Y007958D01*
X019062Y007822D01*
X019091Y007690D01*
X019138Y007563D01*
X019203Y007444D01*
X019284Y007336D01*
X019380Y007240D01*
X019489Y007158D01*
X019608Y007094D01*
X019735Y007046D01*
X019867Y007017D01*
X020002Y007008D01*
X021122Y007008D01*
X021122Y005902D01*
X021100Y005957D01*
X020971Y006085D01*
X020803Y006155D01*
X020621Y006155D01*
X020453Y006085D01*
X020325Y005957D01*
X020255Y005789D01*
X020255Y005607D01*
X020325Y005439D01*
X020453Y005310D01*
X020621Y005240D01*
X020803Y005240D01*
X020971Y005310D01*
X021100Y005439D01*
X021122Y005493D01*
X021122Y004850D01*
X021117Y004865D01*
X021086Y004927D01*
X021046Y004982D01*
X020997Y005031D01*
X020941Y005071D01*
X020880Y005103D01*
X020815Y005124D01*
X020747Y005135D01*
X020741Y005135D01*
X020741Y004726D01*
X020684Y004726D01*
X020275Y004726D01*
X020275Y004732D01*
X020286Y004800D01*
X020307Y004865D01*
X020338Y004927D01*
X020379Y004982D01*
X020428Y005031D01*
X020483Y005071D01*
X020545Y005103D01*
X020610Y005124D01*
X020678Y005135D01*
X020684Y005135D01*
X020684Y004726D01*
X020684Y004747D02*
X020741Y004747D01*
X020684Y004669D02*
X020275Y004669D01*
X020275Y004663D01*
X020286Y004595D01*
X020300Y004551D01*
X020260Y004591D01*
X020086Y004664D01*
X019897Y004664D01*
X019722Y004591D01*
X019588Y004457D01*
X019516Y004283D01*
X019516Y004094D01*
X019588Y003919D01*
X019722Y003785D01*
X019897Y003713D01*
X020086Y003713D01*
X020260Y003785D01*
X020394Y003919D01*
X020466Y004094D01*
X020466Y004283D01*
X020435Y004359D01*
X020483Y004324D01*
X020545Y004292D01*
X020610Y004271D01*
X020678Y004260D01*
X020684Y004260D01*
X020684Y004669D01*
X020684Y004629D02*
X020741Y004629D01*
X020741Y004510D02*
X020684Y004510D01*
X020684Y004391D02*
X020741Y004391D01*
X020741Y004273D02*
X020684Y004273D01*
X020605Y004273D02*
X020466Y004273D01*
X020466Y004154D02*
X021122Y004154D01*
X021122Y004036D02*
X020442Y004036D01*
X020392Y003917D02*
X021122Y003917D01*
X021122Y003799D02*
X020274Y003799D01*
X019709Y003799D02*
X019042Y003799D01*
X019042Y003917D02*
X019590Y003917D01*
X019540Y004036D02*
X019042Y004036D01*
X019042Y004154D02*
X019516Y004154D01*
X019516Y004273D02*
X019127Y004273D01*
X019246Y004391D02*
X019561Y004391D01*
X019641Y004510D02*
X019364Y004510D01*
X019483Y004629D02*
X019812Y004629D01*
X019819Y004747D02*
X020278Y004747D01*
X020281Y004629D02*
X020170Y004629D01*
X020307Y004866D02*
X020027Y004866D01*
X020119Y004984D02*
X020381Y004984D01*
X020684Y004984D02*
X020741Y004984D01*
X020741Y004866D02*
X020684Y004866D01*
X021044Y004984D02*
X021122Y004984D01*
X021117Y004866D02*
X021122Y004866D01*
X021122Y005103D02*
X020880Y005103D01*
X020741Y005103D02*
X020684Y005103D01*
X020544Y005103D02*
X020168Y005103D01*
X020169Y005221D02*
X021122Y005221D01*
X021122Y005340D02*
X021001Y005340D01*
X021108Y005458D02*
X021122Y005458D01*
X020424Y005340D02*
X020148Y005340D01*
X020098Y005458D02*
X020317Y005458D01*
X020268Y005577D02*
X019980Y005577D01*
X020255Y005695D02*
X011342Y005695D01*
X011342Y005577D02*
X019445Y005577D01*
X019327Y005458D02*
X011342Y005458D01*
X011342Y005340D02*
X019276Y005340D01*
X019255Y005221D02*
X011342Y005221D01*
X011342Y005103D02*
X019257Y005103D01*
X019712Y005198D02*
X018802Y004288D01*
X018802Y002758D01*
X018316Y002969D02*
X018288Y002969D01*
X018222Y003087D02*
X018383Y003087D01*
X018501Y003206D02*
X018104Y003206D01*
X018562Y003325D02*
X010876Y003325D01*
X010995Y003443D02*
X018562Y003443D01*
X018562Y003562D02*
X011113Y003562D01*
X011232Y003680D02*
X018562Y003680D01*
X018562Y003799D02*
X011342Y003799D01*
X011342Y003917D02*
X018562Y003917D01*
X018562Y004036D02*
X011342Y004036D01*
X011342Y004154D02*
X018562Y004154D01*
X018562Y004273D02*
X011342Y004273D01*
X011342Y004391D02*
X018586Y004391D01*
X018685Y004510D02*
X011342Y004510D01*
X011342Y004629D02*
X018804Y004629D01*
X018922Y004747D02*
X011342Y004747D01*
X011342Y004866D02*
X019041Y004866D01*
X019159Y004984D02*
X011342Y004984D01*
X010202Y004984D02*
X008276Y004984D01*
X008252Y004866D02*
X010202Y004866D01*
X010202Y004747D02*
X008252Y004747D01*
X008309Y004629D02*
X010202Y004629D01*
X010202Y004510D02*
X008380Y004510D01*
X008401Y004391D02*
X010202Y004391D01*
X010121Y004273D02*
X008383Y004273D01*
X008316Y004154D02*
X010002Y004154D01*
X009884Y004036D02*
X008130Y004036D01*
X007954Y004036D02*
X007952Y004036D01*
X007952Y003917D02*
X008895Y003917D01*
X008776Y003799D02*
X007952Y003799D01*
X006752Y004408D02*
X005752Y004408D01*
X004752Y004408D01*
X003752Y004408D01*
X002752Y004408D02*
X001752Y004408D01*
X000752Y004408D01*
X000752Y005408D02*
X001752Y005408D01*
X002752Y005408D01*
X003752Y005408D02*
X004752Y005408D01*
X005752Y005408D01*
X006752Y005408D01*
X007041Y005840D02*
X007185Y005696D01*
X006938Y005932D02*
X007532Y005932D01*
X007532Y006051D02*
X007117Y006051D01*
X007206Y006170D02*
X007532Y006170D01*
X007532Y006288D02*
X007255Y006288D01*
X007262Y006407D02*
X007532Y006407D01*
X007532Y006525D02*
X007256Y006525D01*
X007207Y006644D02*
X007532Y006644D01*
X007532Y006762D02*
X007119Y006762D01*
X006943Y006881D02*
X007532Y006881D01*
X007532Y006999D02*
X007065Y006999D01*
X007184Y007118D02*
X007532Y007118D01*
X007532Y007236D02*
X007233Y007236D01*
X007262Y007355D02*
X007532Y007355D01*
X007532Y007474D02*
X007262Y007474D01*
X007228Y007592D02*
X007532Y007592D01*
X007532Y007711D02*
X007171Y007711D01*
X007052Y007829D02*
X007532Y007829D01*
X007532Y007948D02*
X006975Y007948D01*
X007132Y008066D02*
X007532Y008066D01*
X007532Y008185D02*
X007212Y008185D01*
X007261Y008303D02*
X007532Y008303D01*
X007532Y008422D02*
X007262Y008422D01*
X007249Y008540D02*
X007532Y008540D01*
X007532Y008659D02*
X007200Y008659D01*
X007104Y008778D02*
X007532Y008778D01*
X007398Y008896D02*
X006906Y008896D01*
X006599Y008896D02*
X005906Y008896D01*
X006081Y009015D02*
X007348Y009015D01*
X007344Y009133D02*
X006191Y009133D01*
X005752Y009408D02*
X006752Y009408D01*
X006979Y009489D02*
X021122Y009489D01*
X021122Y009607D02*
X006892Y009607D01*
X006992Y009370D02*
X007468Y009370D01*
X007378Y009252D02*
X006936Y009252D01*
X006155Y009726D02*
X021122Y009726D01*
X021122Y009844D02*
X006031Y009844D01*
X005474Y009844D02*
X005031Y009844D01*
X005155Y009726D02*
X005349Y009726D01*
X005752Y009408D02*
X004752Y009408D01*
X003752Y009408D01*
X003283Y009607D02*
X000482Y009607D01*
X000482Y009489D02*
X003242Y009489D01*
X003242Y009370D02*
X000482Y009370D01*
X000482Y009726D02*
X003349Y009726D01*
X003474Y009844D02*
X000482Y009844D01*
X000482Y009963D02*
X021122Y009963D01*
X021122Y010081D02*
X000482Y010081D01*
X000482Y010200D02*
X021122Y010200D01*
X021122Y009370D02*
X011367Y009370D01*
X011439Y009252D02*
X019887Y009252D01*
X019519Y009133D02*
X011461Y009133D01*
X011444Y009015D02*
X019354Y009015D01*
X019243Y008896D02*
X011378Y008896D01*
X011412Y008778D02*
X014224Y008778D01*
X014721Y008778D02*
X015224Y008778D01*
X015237Y008790D02*
X015119Y008673D01*
X015056Y008520D01*
X015056Y008355D01*
X015119Y008202D01*
X015237Y008085D01*
X015390Y008021D01*
X015555Y008021D01*
X015708Y008085D01*
X015825Y008202D01*
X015889Y008355D01*
X015889Y008520D01*
X015825Y008673D01*
X015708Y008790D01*
X015555Y008854D01*
X015390Y008854D01*
X015237Y008790D01*
X015114Y008659D02*
X014831Y008659D01*
X014880Y008540D02*
X015064Y008540D01*
X015056Y008422D02*
X014889Y008422D01*
X014867Y008303D02*
X015077Y008303D01*
X015137Y008185D02*
X014808Y008185D01*
X014663Y008066D02*
X015281Y008066D01*
X015663Y008066D02*
X019052Y008066D01*
X019052Y008185D02*
X015808Y008185D01*
X015867Y008303D02*
X019052Y008303D01*
X019059Y008422D02*
X015889Y008422D01*
X015880Y008540D02*
X019078Y008540D01*
X019113Y008659D02*
X015831Y008659D01*
X015721Y008778D02*
X019166Y008778D01*
X019053Y007948D02*
X011412Y007948D01*
X011432Y007829D02*
X014330Y007829D01*
X014390Y007854D02*
X014237Y007790D01*
X014119Y007673D01*
X014056Y007520D01*
X014056Y007355D01*
X011442Y007355D01*
X011461Y007236D02*
X014105Y007236D01*
X014119Y007202D02*
X014237Y007085D01*
X014390Y007021D01*
X014555Y007021D01*
X014708Y007085D01*
X014825Y007202D01*
X014889Y007355D01*
X015056Y007355D01*
X015119Y007202D01*
X015237Y007085D01*
X015390Y007021D01*
X015555Y007021D01*
X015708Y007085D01*
X015825Y007202D01*
X015889Y007355D01*
X019270Y007355D01*
X019187Y007474D02*
X015889Y007474D01*
X015889Y007520D02*
X015825Y007673D01*
X015708Y007790D01*
X015555Y007854D01*
X015390Y007854D01*
X015237Y007790D01*
X015119Y007673D01*
X015056Y007520D01*
X015056Y007355D01*
X015056Y007474D02*
X014889Y007474D01*
X014889Y007520D02*
X014825Y007673D01*
X014708Y007790D01*
X014555Y007854D01*
X014390Y007854D01*
X014615Y007829D02*
X015330Y007829D01*
X015157Y007711D02*
X014788Y007711D01*
X014859Y007592D02*
X015086Y007592D01*
X014889Y007520D02*
X014889Y007355D01*
X014840Y007236D02*
X015105Y007236D01*
X015203Y007118D02*
X014741Y007118D01*
X014203Y007118D02*
X011441Y007118D01*
X011398Y006999D02*
X021122Y006999D01*
X021122Y006881D02*
X011452Y006881D01*
X011461Y006762D02*
X021122Y006762D01*
X021122Y006644D02*
X019830Y006644D01*
X019803Y006655D02*
X019621Y006655D01*
X019453Y006585D01*
X019325Y006457D01*
X019255Y006289D01*
X019255Y006107D01*
X019325Y005939D01*
X019453Y005810D01*
X019621Y005740D01*
X019803Y005740D01*
X019971Y005810D01*
X020100Y005939D01*
X020169Y006107D01*
X020169Y006289D01*
X020100Y006457D01*
X019971Y006585D01*
X019803Y006655D01*
X019595Y006644D02*
X011431Y006644D01*
X011443Y006525D02*
X019393Y006525D01*
X019304Y006407D02*
X011491Y006407D01*
X011491Y006288D02*
X019255Y006288D01*
X019255Y006170D02*
X011451Y006170D01*
X011353Y006051D02*
X019278Y006051D01*
X019331Y005932D02*
X011342Y005932D01*
X011342Y005814D02*
X019450Y005814D01*
X019975Y005814D02*
X020266Y005814D01*
X020315Y005932D02*
X020094Y005932D01*
X020146Y006051D02*
X020419Y006051D01*
X020169Y006170D02*
X021122Y006170D01*
X021122Y006288D02*
X020169Y006288D01*
X020121Y006407D02*
X021122Y006407D01*
X021122Y006525D02*
X020031Y006525D01*
X021005Y006051D02*
X021122Y006051D01*
X021110Y005932D02*
X021122Y005932D01*
X019606Y004747D02*
X019601Y004747D01*
X020820Y004273D02*
X021122Y004273D01*
X021122Y004391D02*
X021024Y004391D01*
X021107Y004510D02*
X021122Y004510D01*
X021122Y003680D02*
X019042Y003680D01*
X019042Y003562D02*
X021122Y003562D01*
X021122Y003443D02*
X019042Y003443D01*
X019042Y003325D02*
X021122Y003325D01*
X021122Y003206D02*
X021046Y003206D01*
X020841Y003206D02*
X020764Y003206D01*
X020764Y003087D02*
X020841Y003087D01*
X020559Y003206D02*
X020104Y003206D01*
X020222Y003087D02*
X020412Y003087D01*
X020338Y002969D02*
X020289Y002969D01*
X020764Y002969D02*
X020841Y002969D01*
X020841Y002850D02*
X020764Y002850D01*
X019501Y003206D02*
X019104Y003206D01*
X019222Y003087D02*
X019383Y003087D01*
X019316Y002969D02*
X019289Y002969D01*
X017501Y003206D02*
X017104Y003206D01*
X017222Y003087D02*
X017383Y003087D01*
X017316Y002969D02*
X017288Y002969D01*
X016501Y003206D02*
X016104Y003206D01*
X016222Y003087D02*
X016383Y003087D01*
X016316Y002969D02*
X016288Y002969D01*
X015501Y003206D02*
X015104Y003206D01*
X015222Y003087D02*
X015383Y003087D01*
X015316Y002969D02*
X015288Y002969D01*
X014501Y003206D02*
X014104Y003206D01*
X014222Y003087D02*
X014383Y003087D01*
X014316Y002969D02*
X014288Y002969D01*
X013501Y003206D02*
X013104Y003206D01*
X013222Y003087D02*
X013383Y003087D01*
X013316Y002969D02*
X013288Y002969D01*
X012501Y003206D02*
X012104Y003206D01*
X012222Y003087D02*
X012383Y003087D01*
X012316Y002969D02*
X012288Y002969D01*
X011501Y003206D02*
X011104Y003206D01*
X011222Y003087D02*
X011383Y003087D01*
X011316Y002969D02*
X011288Y002969D01*
X010202Y005103D02*
X008366Y005103D01*
X008401Y005221D02*
X010202Y005221D01*
X010202Y005340D02*
X008397Y005340D01*
X008348Y005458D02*
X010202Y005458D01*
X010202Y005577D02*
X008209Y005577D01*
X007952Y005695D02*
X010128Y005695D01*
X010009Y005814D02*
X007952Y005814D01*
X007952Y005932D02*
X009992Y005932D01*
X009698Y006100D02*
X009552Y006040D01*
X009393Y006040D01*
X009247Y006100D01*
X009135Y006212D01*
X009074Y006358D01*
X009074Y006517D01*
X009135Y006663D01*
X009247Y006775D01*
X009393Y006836D01*
X009552Y006836D01*
X009698Y006775D01*
X009810Y006663D01*
X009870Y006517D01*
X009870Y006358D01*
X009810Y006212D01*
X009698Y006100D01*
X009767Y006170D02*
X009992Y006170D01*
X009992Y006288D02*
X009841Y006288D01*
X009870Y006407D02*
X009992Y006407D01*
X009992Y006525D02*
X009867Y006525D01*
X009818Y006644D02*
X009992Y006644D01*
X009992Y006762D02*
X009711Y006762D01*
X009992Y006881D02*
X007952Y006881D01*
X007952Y006999D02*
X009992Y006999D01*
X009810Y007212D02*
X009698Y007100D01*
X009552Y007040D01*
X009393Y007040D01*
X009247Y007100D01*
X009135Y007212D01*
X009074Y007358D01*
X009074Y007517D01*
X009135Y007663D01*
X009247Y007775D01*
X009393Y007836D01*
X009552Y007836D01*
X009698Y007775D01*
X009810Y007663D01*
X009870Y007517D01*
X009870Y007358D01*
X009810Y007212D01*
X009820Y007236D02*
X009992Y007236D01*
X009992Y007118D02*
X009716Y007118D01*
X009229Y007118D02*
X008716Y007118D01*
X008698Y007100D02*
X008810Y007212D01*
X008870Y007358D01*
X008870Y007517D01*
X008810Y007663D01*
X008698Y007775D01*
X008552Y007836D01*
X008393Y007836D01*
X008247Y007775D01*
X008135Y007663D01*
X008074Y007517D01*
X008074Y007358D01*
X008135Y007212D01*
X008247Y007100D01*
X008393Y007040D01*
X008552Y007040D01*
X008698Y007100D01*
X008229Y007118D02*
X007952Y007118D01*
X007952Y007236D02*
X008125Y007236D01*
X008076Y007355D02*
X007952Y007355D01*
X007952Y007474D02*
X008074Y007474D01*
X008105Y007592D02*
X007952Y007592D01*
X007952Y007711D02*
X008182Y007711D01*
X008377Y007829D02*
X007952Y007829D01*
X007952Y007948D02*
X009992Y007948D01*
X009992Y007829D02*
X009567Y007829D01*
X009377Y007829D02*
X008567Y007829D01*
X008762Y007711D02*
X009182Y007711D01*
X009105Y007592D02*
X008839Y007592D01*
X008870Y007474D02*
X009074Y007474D01*
X009076Y007355D02*
X008869Y007355D01*
X008820Y007236D02*
X009125Y007236D01*
X009869Y007355D02*
X009992Y007355D01*
X009992Y007474D02*
X009870Y007474D01*
X009839Y007592D02*
X009992Y007592D01*
X009992Y007711D02*
X009762Y007711D01*
X009552Y008040D02*
X009393Y008040D01*
X009247Y008100D01*
X009135Y008212D01*
X009074Y008358D01*
X009074Y008517D01*
X009135Y008663D01*
X009247Y008775D01*
X009393Y008836D01*
X009552Y008836D01*
X009698Y008775D01*
X009810Y008663D01*
X009870Y008517D01*
X009870Y008358D01*
X009810Y008212D01*
X009698Y008100D01*
X009552Y008040D01*
X009616Y008066D02*
X009992Y008066D01*
X009992Y008185D02*
X009783Y008185D01*
X009848Y008303D02*
X010101Y008303D01*
X010220Y008422D02*
X009870Y008422D01*
X009861Y008540D02*
X010338Y008540D01*
X010457Y008659D02*
X009812Y008659D01*
X009692Y008778D02*
X010575Y008778D01*
X010694Y008896D02*
X008007Y008896D01*
X008056Y009015D02*
X010761Y009015D01*
X010744Y009133D02*
X008061Y009133D01*
X008027Y009252D02*
X010765Y009252D01*
X010838Y009370D02*
X007937Y009370D01*
X008247Y008775D02*
X008393Y008836D01*
X008552Y008836D01*
X008698Y008775D01*
X008810Y008663D01*
X008870Y008517D01*
X008870Y008358D01*
X008810Y008212D01*
X008698Y008100D01*
X008552Y008040D01*
X008393Y008040D01*
X008247Y008100D01*
X008135Y008212D01*
X008074Y008358D01*
X008074Y008517D01*
X008135Y008663D01*
X008247Y008775D01*
X008253Y008778D02*
X007952Y008778D01*
X007952Y008659D02*
X008133Y008659D01*
X008084Y008540D02*
X007952Y008540D01*
X007952Y008422D02*
X008074Y008422D01*
X008097Y008303D02*
X007952Y008303D01*
X007952Y008185D02*
X008162Y008185D01*
X008329Y008066D02*
X007952Y008066D01*
X008616Y008066D02*
X009329Y008066D01*
X009162Y008185D02*
X008783Y008185D01*
X008848Y008303D02*
X009097Y008303D01*
X009074Y008422D02*
X008870Y008422D01*
X008861Y008540D02*
X009084Y008540D01*
X009133Y008659D02*
X008812Y008659D01*
X008692Y008778D02*
X009253Y008778D01*
X011422Y008422D02*
X014056Y008422D01*
X014077Y008303D02*
X011422Y008303D01*
X011461Y008209D02*
X011461Y008066D01*
X011461Y007711D02*
X014157Y007711D01*
X014086Y007592D02*
X011451Y007592D01*
X011396Y007474D02*
X014056Y007474D01*
X014056Y007355D02*
X014119Y007202D01*
X015741Y007118D02*
X019563Y007118D01*
X019385Y007236D02*
X015840Y007236D01*
X015889Y007355D02*
X015889Y007520D01*
X015859Y007592D02*
X019127Y007592D01*
X019086Y007711D02*
X015788Y007711D01*
X015615Y007829D02*
X019062Y007829D01*
X009992Y006051D02*
X009579Y006051D01*
X009365Y006051D02*
X008579Y006051D01*
X008552Y006040D02*
X008698Y006100D01*
X008810Y006212D01*
X008870Y006358D01*
X008870Y006517D01*
X008810Y006663D01*
X008698Y006775D01*
X008552Y006836D01*
X008393Y006836D01*
X008247Y006775D01*
X008135Y006663D01*
X008074Y006517D01*
X008074Y006358D01*
X008135Y006212D01*
X008247Y006100D01*
X008393Y006040D01*
X008552Y006040D01*
X008365Y006051D02*
X007952Y006051D01*
X007952Y006170D02*
X008177Y006170D01*
X008103Y006288D02*
X007952Y006288D01*
X007952Y006407D02*
X008074Y006407D01*
X008078Y006525D02*
X007952Y006525D01*
X007952Y006644D02*
X008127Y006644D01*
X008234Y006762D02*
X007952Y006762D01*
X008711Y006762D02*
X009234Y006762D01*
X009127Y006644D02*
X008818Y006644D01*
X008867Y006525D02*
X009078Y006525D01*
X009074Y006407D02*
X008870Y006407D01*
X008841Y006288D02*
X009103Y006288D01*
X009177Y006170D02*
X008767Y006170D01*
X006752Y006408D02*
X005752Y006408D01*
X004752Y006408D01*
X003752Y006408D01*
X003298Y006644D02*
X003207Y006644D01*
X003119Y006762D02*
X003386Y006762D01*
X003562Y006881D02*
X002943Y006881D01*
X002562Y006881D02*
X001943Y006881D01*
X002119Y006762D02*
X002386Y006762D01*
X001562Y006881D02*
X000943Y006881D01*
X001119Y006762D02*
X001386Y006762D01*
X001752Y006408D02*
X000752Y006408D01*
X001752Y006408D02*
X002752Y006408D01*
X003439Y006999D02*
X000482Y006999D01*
X000482Y006881D02*
X000562Y006881D01*
X002042Y007118D02*
X003321Y007118D01*
X003271Y007236D02*
X002220Y007236D01*
X002335Y007355D02*
X003242Y007355D01*
X003242Y007474D02*
X002418Y007474D01*
X002477Y007592D02*
X003277Y007592D01*
X003334Y007711D02*
X002518Y007711D01*
X002543Y007829D02*
X003453Y007829D01*
X003530Y007948D02*
X002552Y007948D01*
X002552Y008066D02*
X003372Y008066D01*
X003293Y008185D02*
X002552Y008185D01*
X002552Y008303D02*
X003244Y008303D01*
X003242Y008422D02*
X002547Y008422D01*
X002531Y008540D02*
X003255Y008540D01*
X003304Y008659D02*
X002499Y008659D01*
X002447Y008778D02*
X003401Y008778D01*
X003599Y008896D02*
X002372Y008896D01*
X002265Y009015D02*
X003424Y009015D01*
X003314Y009133D02*
X002104Y009133D01*
X001728Y009252D02*
X003265Y009252D01*
X004155Y009726D02*
X004349Y009726D01*
X004474Y009844D02*
X004031Y009844D01*
X006104Y008778D02*
X006401Y008778D01*
X006304Y008659D02*
X006200Y008659D01*
X005752Y008408D02*
X006752Y008408D01*
X005752Y008408D02*
X004752Y008408D01*
X003752Y008408D01*
X003752Y007408D02*
X004752Y007408D01*
X005752Y007408D01*
X006752Y007408D01*
D15*
X006752Y007408D03*
X005752Y007408D03*
X004752Y007408D03*
X003752Y007408D03*
X003752Y006408D03*
X002752Y006408D03*
X001752Y006408D03*
X000752Y006408D03*
X000752Y005408D03*
X001752Y005408D03*
X002752Y005408D03*
X003752Y005408D03*
X004752Y005408D03*
X005752Y005408D03*
X006752Y005408D03*
X006752Y004408D03*
X005752Y004408D03*
X004752Y004408D03*
X003752Y004408D03*
X002752Y004408D03*
X001752Y004408D03*
X000752Y004408D03*
X004752Y006408D03*
X005752Y006408D03*
X006752Y006408D03*
X006752Y008408D03*
X005752Y008408D03*
X004752Y008408D03*
X003752Y008408D03*
X003752Y009408D03*
X004752Y009408D03*
X005752Y009408D03*
X006752Y009408D03*
D16*
X007702Y009098D03*
X011102Y009128D03*
X011102Y008588D03*
X011102Y008138D03*
X011102Y007688D03*
X011102Y007238D03*
X011102Y006788D03*
X011132Y006338D03*
X008042Y005258D03*
X008042Y004388D03*
D17*
X008042Y005258D01*
X007742Y005408D02*
X006752Y005408D01*
X007742Y005408D02*
X007742Y009038D01*
X007682Y009098D01*
X007702Y009098D01*
X010202Y008108D02*
X010202Y005918D01*
X010412Y005708D01*
X010412Y004268D01*
X009872Y003728D01*
X009002Y003728D01*
X008852Y003578D01*
X008012Y003578D01*
X007892Y003458D01*
X007142Y003458D01*
X007022Y003338D01*
X006182Y003338D01*
X006062Y003218D01*
X005252Y003218D01*
X004802Y002768D01*
X004802Y002758D01*
X004652Y003578D02*
X003802Y002758D01*
X003512Y003248D02*
X003032Y002768D01*
X002822Y002768D01*
X002812Y002758D01*
X002802Y002758D01*
X003512Y003248D02*
X004112Y003248D01*
X004562Y003698D01*
X006452Y003698D01*
X006752Y003998D01*
X006752Y004408D01*
X007442Y003578D02*
X007742Y003878D01*
X007742Y005408D01*
X010322Y005978D02*
X010532Y005768D01*
X010532Y004208D01*
X009932Y003608D01*
X009062Y003608D01*
X008912Y003458D01*
X008072Y003458D01*
X007952Y003338D01*
X007202Y003338D01*
X007082Y003218D01*
X006242Y003218D01*
X005792Y002768D01*
X005802Y002758D01*
X006802Y002758D02*
X007262Y003218D01*
X008012Y003218D01*
X008132Y003338D01*
X008972Y003338D01*
X009122Y003488D01*
X009992Y003488D01*
X010652Y004148D01*
X010652Y005828D01*
X010442Y006038D01*
X010442Y007478D01*
X011102Y008138D01*
X011102Y008558D02*
X010322Y007778D01*
X010322Y005978D01*
X010562Y006098D02*
X010772Y005888D01*
X010772Y004088D01*
X010052Y003368D01*
X009182Y003368D01*
X009032Y003218D01*
X008222Y003218D01*
X007772Y002768D01*
X007782Y002758D01*
X007802Y002758D01*
X008792Y002798D02*
X009242Y003248D01*
X010112Y003248D01*
X010892Y004028D01*
X010892Y005948D01*
X010682Y006158D01*
X010682Y006818D01*
X011102Y007238D01*
X011102Y007658D02*
X010562Y007118D01*
X010562Y006098D01*
X010802Y006218D02*
X011012Y006008D01*
X011012Y003938D01*
X009812Y002738D01*
X009802Y002748D01*
X009802Y002758D01*
X010592Y002948D02*
X010802Y002768D01*
X010802Y002758D01*
X010592Y002948D02*
X010592Y003338D01*
X011132Y003878D01*
X011132Y006338D01*
X010802Y006218D02*
X010802Y006488D01*
X011102Y006788D01*
X011102Y007658D02*
X011102Y007688D01*
X010202Y008108D02*
X011102Y009008D01*
X011102Y009128D01*
X011102Y008588D02*
X011102Y008558D01*
X007442Y003578D02*
X004652Y003578D01*
X008792Y002798D02*
X008802Y002788D01*
X008802Y002758D01*
M02*
