G75*
G70*
%OFA0B0*%
%FSLAX24Y24*%
%IPPOS*%
%LPD*%
%AMOC8*
5,1,8,0,0,1.08239X$1,22.5*
%
%ADD10C,0.0000*%
%ADD11R,0.0394X0.0472*%
%ADD12R,0.0591X0.0512*%
%ADD13R,0.0394X0.0394*%
D10*
X000403Y000907D02*
X000403Y015307D01*
X020003Y015307D01*
X020003Y000907D01*
X000403Y000907D01*
X000911Y001907D02*
X000913Y001951D01*
X000919Y001995D01*
X000929Y002038D01*
X000942Y002080D01*
X000960Y002120D01*
X000981Y002159D01*
X001005Y002196D01*
X001032Y002231D01*
X001063Y002263D01*
X001096Y002292D01*
X001132Y002318D01*
X001170Y002340D01*
X001210Y002359D01*
X001251Y002375D01*
X001294Y002387D01*
X001337Y002395D01*
X001381Y002399D01*
X001425Y002399D01*
X001469Y002395D01*
X001512Y002387D01*
X001555Y002375D01*
X001596Y002359D01*
X001636Y002340D01*
X001674Y002318D01*
X001710Y002292D01*
X001743Y002263D01*
X001774Y002231D01*
X001801Y002196D01*
X001825Y002159D01*
X001846Y002120D01*
X001864Y002080D01*
X001877Y002038D01*
X001887Y001995D01*
X001893Y001951D01*
X001895Y001907D01*
X001893Y001863D01*
X001887Y001819D01*
X001877Y001776D01*
X001864Y001734D01*
X001846Y001694D01*
X001825Y001655D01*
X001801Y001618D01*
X001774Y001583D01*
X001743Y001551D01*
X001710Y001522D01*
X001674Y001496D01*
X001636Y001474D01*
X001596Y001455D01*
X001555Y001439D01*
X001512Y001427D01*
X001469Y001419D01*
X001425Y001415D01*
X001381Y001415D01*
X001337Y001419D01*
X001294Y001427D01*
X001251Y001439D01*
X001210Y001455D01*
X001170Y001474D01*
X001132Y001496D01*
X001096Y001522D01*
X001063Y001551D01*
X001032Y001583D01*
X001005Y001618D01*
X000981Y001655D01*
X000960Y001694D01*
X000942Y001734D01*
X000929Y001776D01*
X000919Y001819D01*
X000913Y001863D01*
X000911Y001907D01*
X000887Y005348D02*
X000889Y005382D01*
X000895Y005416D01*
X000905Y005449D01*
X000918Y005480D01*
X000936Y005510D01*
X000956Y005538D01*
X000980Y005563D01*
X001006Y005585D01*
X001034Y005603D01*
X001065Y005619D01*
X001097Y005631D01*
X001131Y005639D01*
X001165Y005643D01*
X001199Y005643D01*
X001233Y005639D01*
X001267Y005631D01*
X001299Y005619D01*
X001329Y005603D01*
X001358Y005585D01*
X001384Y005563D01*
X001408Y005538D01*
X001428Y005510D01*
X001446Y005480D01*
X001459Y005449D01*
X001469Y005416D01*
X001475Y005382D01*
X001477Y005348D01*
X001475Y005314D01*
X001469Y005280D01*
X001459Y005247D01*
X001446Y005216D01*
X001428Y005186D01*
X001408Y005158D01*
X001384Y005133D01*
X001358Y005111D01*
X001330Y005093D01*
X001299Y005077D01*
X001267Y005065D01*
X001233Y005057D01*
X001199Y005053D01*
X001165Y005053D01*
X001131Y005057D01*
X001097Y005065D01*
X001065Y005077D01*
X001034Y005093D01*
X001006Y005111D01*
X000980Y005133D01*
X000956Y005158D01*
X000936Y005186D01*
X000918Y005216D01*
X000905Y005247D01*
X000895Y005280D01*
X000889Y005314D01*
X000887Y005348D01*
X004011Y006807D02*
X004013Y006851D01*
X004019Y006895D01*
X004029Y006938D01*
X004042Y006980D01*
X004060Y007020D01*
X004081Y007059D01*
X004105Y007096D01*
X004132Y007131D01*
X004163Y007163D01*
X004196Y007192D01*
X004232Y007218D01*
X004270Y007240D01*
X004310Y007259D01*
X004351Y007275D01*
X004394Y007287D01*
X004437Y007295D01*
X004481Y007299D01*
X004525Y007299D01*
X004569Y007295D01*
X004612Y007287D01*
X004655Y007275D01*
X004696Y007259D01*
X004736Y007240D01*
X004774Y007218D01*
X004810Y007192D01*
X004843Y007163D01*
X004874Y007131D01*
X004901Y007096D01*
X004925Y007059D01*
X004946Y007020D01*
X004964Y006980D01*
X004977Y006938D01*
X004987Y006895D01*
X004993Y006851D01*
X004995Y006807D01*
X004993Y006763D01*
X004987Y006719D01*
X004977Y006676D01*
X004964Y006634D01*
X004946Y006594D01*
X004925Y006555D01*
X004901Y006518D01*
X004874Y006483D01*
X004843Y006451D01*
X004810Y006422D01*
X004774Y006396D01*
X004736Y006374D01*
X004696Y006355D01*
X004655Y006339D01*
X004612Y006327D01*
X004569Y006319D01*
X004525Y006315D01*
X004481Y006315D01*
X004437Y006319D01*
X004394Y006327D01*
X004351Y006339D01*
X004310Y006355D01*
X004270Y006374D01*
X004232Y006396D01*
X004196Y006422D01*
X004163Y006451D01*
X004132Y006483D01*
X004105Y006518D01*
X004081Y006555D01*
X004060Y006594D01*
X004042Y006634D01*
X004029Y006676D01*
X004019Y006719D01*
X004013Y006763D01*
X004011Y006807D01*
X001461Y009207D02*
X001463Y009251D01*
X001469Y009295D01*
X001479Y009338D01*
X001492Y009380D01*
X001510Y009420D01*
X001531Y009459D01*
X001555Y009496D01*
X001582Y009531D01*
X001613Y009563D01*
X001646Y009592D01*
X001682Y009618D01*
X001720Y009640D01*
X001760Y009659D01*
X001801Y009675D01*
X001844Y009687D01*
X001887Y009695D01*
X001931Y009699D01*
X001975Y009699D01*
X002019Y009695D01*
X002062Y009687D01*
X002105Y009675D01*
X002146Y009659D01*
X002186Y009640D01*
X002224Y009618D01*
X002260Y009592D01*
X002293Y009563D01*
X002324Y009531D01*
X002351Y009496D01*
X002375Y009459D01*
X002396Y009420D01*
X002414Y009380D01*
X002427Y009338D01*
X002437Y009295D01*
X002443Y009251D01*
X002445Y009207D01*
X002443Y009163D01*
X002437Y009119D01*
X002427Y009076D01*
X002414Y009034D01*
X002396Y008994D01*
X002375Y008955D01*
X002351Y008918D01*
X002324Y008883D01*
X002293Y008851D01*
X002260Y008822D01*
X002224Y008796D01*
X002186Y008774D01*
X002146Y008755D01*
X002105Y008739D01*
X002062Y008727D01*
X002019Y008719D01*
X001975Y008715D01*
X001931Y008715D01*
X001887Y008719D01*
X001844Y008727D01*
X001801Y008739D01*
X001760Y008755D01*
X001720Y008774D01*
X001682Y008796D01*
X001646Y008822D01*
X001613Y008851D01*
X001582Y008883D01*
X001555Y008918D01*
X001531Y008955D01*
X001510Y008994D01*
X001492Y009034D01*
X001479Y009076D01*
X001469Y009119D01*
X001463Y009163D01*
X001461Y009207D01*
X001437Y012648D02*
X001439Y012682D01*
X001445Y012716D01*
X001455Y012749D01*
X001468Y012780D01*
X001486Y012810D01*
X001506Y012838D01*
X001530Y012863D01*
X001556Y012885D01*
X001584Y012903D01*
X001615Y012919D01*
X001647Y012931D01*
X001681Y012939D01*
X001715Y012943D01*
X001749Y012943D01*
X001783Y012939D01*
X001817Y012931D01*
X001849Y012919D01*
X001879Y012903D01*
X001908Y012885D01*
X001934Y012863D01*
X001958Y012838D01*
X001978Y012810D01*
X001996Y012780D01*
X002009Y012749D01*
X002019Y012716D01*
X002025Y012682D01*
X002027Y012648D01*
X002025Y012614D01*
X002019Y012580D01*
X002009Y012547D01*
X001996Y012516D01*
X001978Y012486D01*
X001958Y012458D01*
X001934Y012433D01*
X001908Y012411D01*
X001880Y012393D01*
X001849Y012377D01*
X001817Y012365D01*
X001783Y012357D01*
X001749Y012353D01*
X001715Y012353D01*
X001681Y012357D01*
X001647Y012365D01*
X001615Y012377D01*
X001584Y012393D01*
X001556Y012411D01*
X001530Y012433D01*
X001506Y012458D01*
X001486Y012486D01*
X001468Y012516D01*
X001455Y012547D01*
X001445Y012580D01*
X001439Y012614D01*
X001437Y012648D01*
X004561Y014107D02*
X004563Y014151D01*
X004569Y014195D01*
X004579Y014238D01*
X004592Y014280D01*
X004610Y014320D01*
X004631Y014359D01*
X004655Y014396D01*
X004682Y014431D01*
X004713Y014463D01*
X004746Y014492D01*
X004782Y014518D01*
X004820Y014540D01*
X004860Y014559D01*
X004901Y014575D01*
X004944Y014587D01*
X004987Y014595D01*
X005031Y014599D01*
X005075Y014599D01*
X005119Y014595D01*
X005162Y014587D01*
X005205Y014575D01*
X005246Y014559D01*
X005286Y014540D01*
X005324Y014518D01*
X005360Y014492D01*
X005393Y014463D01*
X005424Y014431D01*
X005451Y014396D01*
X005475Y014359D01*
X005496Y014320D01*
X005514Y014280D01*
X005527Y014238D01*
X005537Y014195D01*
X005543Y014151D01*
X005545Y014107D01*
X005543Y014063D01*
X005537Y014019D01*
X005527Y013976D01*
X005514Y013934D01*
X005496Y013894D01*
X005475Y013855D01*
X005451Y013818D01*
X005424Y013783D01*
X005393Y013751D01*
X005360Y013722D01*
X005324Y013696D01*
X005286Y013674D01*
X005246Y013655D01*
X005205Y013639D01*
X005162Y013627D01*
X005119Y013619D01*
X005075Y013615D01*
X005031Y013615D01*
X004987Y013619D01*
X004944Y013627D01*
X004901Y013639D01*
X004860Y013655D01*
X004820Y013674D01*
X004782Y013696D01*
X004746Y013722D01*
X004713Y013751D01*
X004682Y013783D01*
X004655Y013818D01*
X004631Y013855D01*
X004610Y013894D01*
X004592Y013934D01*
X004579Y013976D01*
X004569Y014019D01*
X004563Y014063D01*
X004561Y014107D01*
X008087Y012648D02*
X008089Y012682D01*
X008095Y012716D01*
X008105Y012749D01*
X008118Y012780D01*
X008136Y012810D01*
X008156Y012838D01*
X008180Y012863D01*
X008206Y012885D01*
X008234Y012903D01*
X008265Y012919D01*
X008297Y012931D01*
X008331Y012939D01*
X008365Y012943D01*
X008399Y012943D01*
X008433Y012939D01*
X008467Y012931D01*
X008499Y012919D01*
X008529Y012903D01*
X008558Y012885D01*
X008584Y012863D01*
X008608Y012838D01*
X008628Y012810D01*
X008646Y012780D01*
X008659Y012749D01*
X008669Y012716D01*
X008675Y012682D01*
X008677Y012648D01*
X008675Y012614D01*
X008669Y012580D01*
X008659Y012547D01*
X008646Y012516D01*
X008628Y012486D01*
X008608Y012458D01*
X008584Y012433D01*
X008558Y012411D01*
X008530Y012393D01*
X008499Y012377D01*
X008467Y012365D01*
X008433Y012357D01*
X008399Y012353D01*
X008365Y012353D01*
X008331Y012357D01*
X008297Y012365D01*
X008265Y012377D01*
X008234Y012393D01*
X008206Y012411D01*
X008180Y012433D01*
X008156Y012458D01*
X008136Y012486D01*
X008118Y012516D01*
X008105Y012547D01*
X008095Y012580D01*
X008089Y012614D01*
X008087Y012648D01*
X011211Y014107D02*
X011213Y014151D01*
X011219Y014195D01*
X011229Y014238D01*
X011242Y014280D01*
X011260Y014320D01*
X011281Y014359D01*
X011305Y014396D01*
X011332Y014431D01*
X011363Y014463D01*
X011396Y014492D01*
X011432Y014518D01*
X011470Y014540D01*
X011510Y014559D01*
X011551Y014575D01*
X011594Y014587D01*
X011637Y014595D01*
X011681Y014599D01*
X011725Y014599D01*
X011769Y014595D01*
X011812Y014587D01*
X011855Y014575D01*
X011896Y014559D01*
X011936Y014540D01*
X011974Y014518D01*
X012010Y014492D01*
X012043Y014463D01*
X012074Y014431D01*
X012101Y014396D01*
X012125Y014359D01*
X012146Y014320D01*
X012164Y014280D01*
X012177Y014238D01*
X012187Y014195D01*
X012193Y014151D01*
X012195Y014107D01*
X012193Y014063D01*
X012187Y014019D01*
X012177Y013976D01*
X012164Y013934D01*
X012146Y013894D01*
X012125Y013855D01*
X012101Y013818D01*
X012074Y013783D01*
X012043Y013751D01*
X012010Y013722D01*
X011974Y013696D01*
X011936Y013674D01*
X011896Y013655D01*
X011855Y013639D01*
X011812Y013627D01*
X011769Y013619D01*
X011725Y013615D01*
X011681Y013615D01*
X011637Y013619D01*
X011594Y013627D01*
X011551Y013639D01*
X011510Y013655D01*
X011470Y013674D01*
X011432Y013696D01*
X011396Y013722D01*
X011363Y013751D01*
X011332Y013783D01*
X011305Y013818D01*
X011281Y013855D01*
X011260Y013894D01*
X011242Y013934D01*
X011229Y013976D01*
X011219Y014019D01*
X011213Y014063D01*
X011211Y014107D01*
X015037Y012648D02*
X015039Y012682D01*
X015045Y012716D01*
X015055Y012749D01*
X015068Y012780D01*
X015086Y012810D01*
X015106Y012838D01*
X015130Y012863D01*
X015156Y012885D01*
X015184Y012903D01*
X015215Y012919D01*
X015247Y012931D01*
X015281Y012939D01*
X015315Y012943D01*
X015349Y012943D01*
X015383Y012939D01*
X015417Y012931D01*
X015449Y012919D01*
X015479Y012903D01*
X015508Y012885D01*
X015534Y012863D01*
X015558Y012838D01*
X015578Y012810D01*
X015596Y012780D01*
X015609Y012749D01*
X015619Y012716D01*
X015625Y012682D01*
X015627Y012648D01*
X015625Y012614D01*
X015619Y012580D01*
X015609Y012547D01*
X015596Y012516D01*
X015578Y012486D01*
X015558Y012458D01*
X015534Y012433D01*
X015508Y012411D01*
X015480Y012393D01*
X015449Y012377D01*
X015417Y012365D01*
X015383Y012357D01*
X015349Y012353D01*
X015315Y012353D01*
X015281Y012357D01*
X015247Y012365D01*
X015215Y012377D01*
X015184Y012393D01*
X015156Y012411D01*
X015130Y012433D01*
X015106Y012458D01*
X015086Y012486D01*
X015068Y012516D01*
X015055Y012547D01*
X015045Y012580D01*
X015039Y012614D01*
X015037Y012648D01*
X018161Y014107D02*
X018163Y014151D01*
X018169Y014195D01*
X018179Y014238D01*
X018192Y014280D01*
X018210Y014320D01*
X018231Y014359D01*
X018255Y014396D01*
X018282Y014431D01*
X018313Y014463D01*
X018346Y014492D01*
X018382Y014518D01*
X018420Y014540D01*
X018460Y014559D01*
X018501Y014575D01*
X018544Y014587D01*
X018587Y014595D01*
X018631Y014599D01*
X018675Y014599D01*
X018719Y014595D01*
X018762Y014587D01*
X018805Y014575D01*
X018846Y014559D01*
X018886Y014540D01*
X018924Y014518D01*
X018960Y014492D01*
X018993Y014463D01*
X019024Y014431D01*
X019051Y014396D01*
X019075Y014359D01*
X019096Y014320D01*
X019114Y014280D01*
X019127Y014238D01*
X019137Y014195D01*
X019143Y014151D01*
X019145Y014107D01*
X019143Y014063D01*
X019137Y014019D01*
X019127Y013976D01*
X019114Y013934D01*
X019096Y013894D01*
X019075Y013855D01*
X019051Y013818D01*
X019024Y013783D01*
X018993Y013751D01*
X018960Y013722D01*
X018924Y013696D01*
X018886Y013674D01*
X018846Y013655D01*
X018805Y013639D01*
X018762Y013627D01*
X018719Y013619D01*
X018675Y013615D01*
X018631Y013615D01*
X018587Y013619D01*
X018544Y013627D01*
X018501Y013639D01*
X018460Y013655D01*
X018420Y013674D01*
X018382Y013696D01*
X018346Y013722D01*
X018313Y013751D01*
X018282Y013783D01*
X018255Y013818D01*
X018231Y013855D01*
X018210Y013894D01*
X018192Y013934D01*
X018179Y013976D01*
X018169Y014019D01*
X018163Y014063D01*
X018161Y014107D01*
X015061Y009207D02*
X015063Y009251D01*
X015069Y009295D01*
X015079Y009338D01*
X015092Y009380D01*
X015110Y009420D01*
X015131Y009459D01*
X015155Y009496D01*
X015182Y009531D01*
X015213Y009563D01*
X015246Y009592D01*
X015282Y009618D01*
X015320Y009640D01*
X015360Y009659D01*
X015401Y009675D01*
X015444Y009687D01*
X015487Y009695D01*
X015531Y009699D01*
X015575Y009699D01*
X015619Y009695D01*
X015662Y009687D01*
X015705Y009675D01*
X015746Y009659D01*
X015786Y009640D01*
X015824Y009618D01*
X015860Y009592D01*
X015893Y009563D01*
X015924Y009531D01*
X015951Y009496D01*
X015975Y009459D01*
X015996Y009420D01*
X016014Y009380D01*
X016027Y009338D01*
X016037Y009295D01*
X016043Y009251D01*
X016045Y009207D01*
X016043Y009163D01*
X016037Y009119D01*
X016027Y009076D01*
X016014Y009034D01*
X015996Y008994D01*
X015975Y008955D01*
X015951Y008918D01*
X015924Y008883D01*
X015893Y008851D01*
X015860Y008822D01*
X015824Y008796D01*
X015786Y008774D01*
X015746Y008755D01*
X015705Y008739D01*
X015662Y008727D01*
X015619Y008719D01*
X015575Y008715D01*
X015531Y008715D01*
X015487Y008719D01*
X015444Y008727D01*
X015401Y008739D01*
X015360Y008755D01*
X015320Y008774D01*
X015282Y008796D01*
X015246Y008822D01*
X015213Y008851D01*
X015182Y008883D01*
X015155Y008918D01*
X015131Y008955D01*
X015110Y008994D01*
X015092Y009034D01*
X015079Y009076D01*
X015069Y009119D01*
X015063Y009163D01*
X015061Y009207D01*
X018729Y007266D02*
X018731Y007300D01*
X018737Y007334D01*
X018747Y007367D01*
X018760Y007398D01*
X018778Y007428D01*
X018798Y007456D01*
X018822Y007481D01*
X018848Y007503D01*
X018876Y007521D01*
X018907Y007537D01*
X018939Y007549D01*
X018973Y007557D01*
X019007Y007561D01*
X019041Y007561D01*
X019075Y007557D01*
X019109Y007549D01*
X019141Y007537D01*
X019171Y007521D01*
X019200Y007503D01*
X019226Y007481D01*
X019250Y007456D01*
X019270Y007428D01*
X019288Y007398D01*
X019301Y007367D01*
X019311Y007334D01*
X019317Y007300D01*
X019319Y007266D01*
X019317Y007232D01*
X019311Y007198D01*
X019301Y007165D01*
X019288Y007134D01*
X019270Y007104D01*
X019250Y007076D01*
X019226Y007051D01*
X019200Y007029D01*
X019172Y007011D01*
X019141Y006995D01*
X019109Y006983D01*
X019075Y006975D01*
X019041Y006971D01*
X019007Y006971D01*
X018973Y006975D01*
X018939Y006983D01*
X018907Y006995D01*
X018876Y007011D01*
X018848Y007029D01*
X018822Y007051D01*
X018798Y007076D01*
X018778Y007104D01*
X018760Y007134D01*
X018747Y007165D01*
X018737Y007198D01*
X018731Y007232D01*
X018729Y007266D01*
X018729Y003666D02*
X018731Y003700D01*
X018737Y003734D01*
X018747Y003767D01*
X018760Y003798D01*
X018778Y003828D01*
X018798Y003856D01*
X018822Y003881D01*
X018848Y003903D01*
X018876Y003921D01*
X018907Y003937D01*
X018939Y003949D01*
X018973Y003957D01*
X019007Y003961D01*
X019041Y003961D01*
X019075Y003957D01*
X019109Y003949D01*
X019141Y003937D01*
X019171Y003921D01*
X019200Y003903D01*
X019226Y003881D01*
X019250Y003856D01*
X019270Y003828D01*
X019288Y003798D01*
X019301Y003767D01*
X019311Y003734D01*
X019317Y003700D01*
X019319Y003666D01*
X019317Y003632D01*
X019311Y003598D01*
X019301Y003565D01*
X019288Y003534D01*
X019270Y003504D01*
X019250Y003476D01*
X019226Y003451D01*
X019200Y003429D01*
X019172Y003411D01*
X019141Y003395D01*
X019109Y003383D01*
X019075Y003375D01*
X019041Y003371D01*
X019007Y003371D01*
X018973Y003375D01*
X018939Y003383D01*
X018907Y003395D01*
X018876Y003411D01*
X018848Y003429D01*
X018822Y003451D01*
X018798Y003476D01*
X018778Y003504D01*
X018760Y003534D01*
X018747Y003565D01*
X018737Y003598D01*
X018731Y003632D01*
X018729Y003666D01*
X008111Y009207D02*
X008113Y009251D01*
X008119Y009295D01*
X008129Y009338D01*
X008142Y009380D01*
X008160Y009420D01*
X008181Y009459D01*
X008205Y009496D01*
X008232Y009531D01*
X008263Y009563D01*
X008296Y009592D01*
X008332Y009618D01*
X008370Y009640D01*
X008410Y009659D01*
X008451Y009675D01*
X008494Y009687D01*
X008537Y009695D01*
X008581Y009699D01*
X008625Y009699D01*
X008669Y009695D01*
X008712Y009687D01*
X008755Y009675D01*
X008796Y009659D01*
X008836Y009640D01*
X008874Y009618D01*
X008910Y009592D01*
X008943Y009563D01*
X008974Y009531D01*
X009001Y009496D01*
X009025Y009459D01*
X009046Y009420D01*
X009064Y009380D01*
X009077Y009338D01*
X009087Y009295D01*
X009093Y009251D01*
X009095Y009207D01*
X009093Y009163D01*
X009087Y009119D01*
X009077Y009076D01*
X009064Y009034D01*
X009046Y008994D01*
X009025Y008955D01*
X009001Y008918D01*
X008974Y008883D01*
X008943Y008851D01*
X008910Y008822D01*
X008874Y008796D01*
X008836Y008774D01*
X008796Y008755D01*
X008755Y008739D01*
X008712Y008727D01*
X008669Y008719D01*
X008625Y008715D01*
X008581Y008715D01*
X008537Y008719D01*
X008494Y008727D01*
X008451Y008739D01*
X008410Y008755D01*
X008370Y008774D01*
X008332Y008796D01*
X008296Y008822D01*
X008263Y008851D01*
X008232Y008883D01*
X008205Y008918D01*
X008181Y008955D01*
X008160Y008994D01*
X008142Y009034D01*
X008129Y009076D01*
X008119Y009119D01*
X008113Y009163D01*
X008111Y009207D01*
D11*
X007883Y006990D03*
X007383Y006990D03*
X006883Y006990D03*
X008383Y006990D03*
X008883Y006990D03*
X009383Y006990D03*
X009883Y006990D03*
X010383Y006990D03*
X013883Y006990D03*
X014383Y006990D03*
X014383Y001690D03*
X013383Y001690D03*
X012383Y001690D03*
X011883Y001690D03*
X011383Y001690D03*
X010883Y001690D03*
X010383Y001690D03*
X009883Y001690D03*
X009383Y001690D03*
X008883Y001690D03*
X008383Y001690D03*
X007883Y001690D03*
X015383Y001690D03*
D12*
X003003Y006072D03*
X003003Y006742D03*
X003553Y013372D03*
X003553Y014042D03*
X010203Y014042D03*
X010203Y013372D03*
X017153Y013372D03*
X017153Y014042D03*
D13*
X015253Y011142D03*
X015253Y010472D03*
X008303Y010472D03*
X008303Y011142D03*
X001653Y011142D03*
X001653Y010472D03*
X001103Y003842D03*
X001103Y003172D03*
M02*
