%
M48
M72
T01C0.0157
T02C0.0236
T03C0.0315
T04C0.0354
T05C0.0591
T06C0.0984
%
T01
X6403Y1857
X8853Y5307
X10803Y6307
X14053Y6007
X14853Y5957
X15303Y6107
X15953Y6257
X17503Y7107
X17153Y4757
X14653Y4157
X12053Y2307
X15903Y1807
X4103Y5557
X5003Y12757
X11753Y12757
X18753Y12757
T02
X8233Y5767
X7233Y5767
X7233Y4767
X8233Y4767
X8233Y3767
X7233Y3767
T03
X4403Y3707
X3403Y2707
X2403Y3707
X3403Y4707
X3953Y10007
X2953Y11007
X3953Y12007
X4953Y11007
X9603Y11007
X10603Y10007
X11603Y11007
X10603Y12007
X16553Y11007
X17553Y10007
X18553Y11007
X17553Y12007
T04
X16053Y13157
X15053Y13657
X16053Y14157
X15053Y14657
X9103Y14157
X8103Y13657
X9103Y13157
X8103Y14657
X2453Y14157
X1453Y13657
X2453Y13157
X1453Y14657
X903Y7357
X1903Y6857
X903Y6357
X1903Y5857
X18303Y5757
X19303Y5257
X19303Y6257
X18303Y6757
X18303Y3157
X19303Y2657
X18303Y2157
X19303Y1657
T05
X19024Y3666
X19024Y7266
X15332Y12648
X8382Y12648
X1732Y12648
X1182Y5348
T06
X1403Y1907
X4503Y6807
X1953Y9207
X5053Y14107
X8603Y9207
X11703Y14107
X15553Y9207
X18653Y14107
M30
