G75*
G70*
%OFA0B0*%
%FSLAX25Y25*%
%IPPOS*%
%LPD*%
%AMOC8*
5,1,8,0,0,1.08239X$1,22.5*
%
%ADD10C,0.00000*%
%ADD11R,0.03937X0.04724*%
%ADD12C,0.04362*%
%ADD13C,0.05543*%
%ADD14C,0.05150*%
%ADD15R,0.05906X0.05118*%
%ADD16R,0.03937X0.03937*%
%ADD17C,0.01200*%
%ADD18C,0.01600*%
%ADD19C,0.01000*%
%ADD20C,0.03575*%
D10*
X0004031Y0009071D02*
X0004031Y0153071D01*
X0200031Y0153071D01*
X0200031Y0009071D01*
X0004031Y0009071D01*
X0009110Y0019071D02*
X0009116Y0019312D01*
X0009134Y0019553D01*
X0009163Y0019793D01*
X0009205Y0020031D01*
X0009257Y0020267D01*
X0009322Y0020499D01*
X0009398Y0020729D01*
X0009485Y0020954D01*
X0009582Y0021175D01*
X0009691Y0021391D01*
X0009810Y0021601D01*
X0009939Y0021805D01*
X0010078Y0022002D01*
X0010227Y0022193D01*
X0010385Y0022376D01*
X0010551Y0022551D01*
X0010726Y0022717D01*
X0010909Y0022875D01*
X0011100Y0023024D01*
X0011297Y0023163D01*
X0011501Y0023292D01*
X0011711Y0023411D01*
X0011927Y0023520D01*
X0012148Y0023617D01*
X0012373Y0023704D01*
X0012603Y0023780D01*
X0012835Y0023845D01*
X0013071Y0023897D01*
X0013309Y0023939D01*
X0013549Y0023968D01*
X0013790Y0023986D01*
X0014031Y0023992D01*
X0014272Y0023986D01*
X0014513Y0023968D01*
X0014753Y0023939D01*
X0014991Y0023897D01*
X0015227Y0023845D01*
X0015459Y0023780D01*
X0015689Y0023704D01*
X0015914Y0023617D01*
X0016135Y0023520D01*
X0016351Y0023411D01*
X0016561Y0023292D01*
X0016765Y0023163D01*
X0016962Y0023024D01*
X0017153Y0022875D01*
X0017336Y0022717D01*
X0017511Y0022551D01*
X0017677Y0022376D01*
X0017835Y0022193D01*
X0017984Y0022002D01*
X0018123Y0021805D01*
X0018252Y0021601D01*
X0018371Y0021391D01*
X0018480Y0021175D01*
X0018577Y0020954D01*
X0018664Y0020729D01*
X0018740Y0020499D01*
X0018805Y0020267D01*
X0018857Y0020031D01*
X0018899Y0019793D01*
X0018928Y0019553D01*
X0018946Y0019312D01*
X0018952Y0019071D01*
X0018946Y0018830D01*
X0018928Y0018589D01*
X0018899Y0018349D01*
X0018857Y0018111D01*
X0018805Y0017875D01*
X0018740Y0017643D01*
X0018664Y0017413D01*
X0018577Y0017188D01*
X0018480Y0016967D01*
X0018371Y0016751D01*
X0018252Y0016541D01*
X0018123Y0016337D01*
X0017984Y0016140D01*
X0017835Y0015949D01*
X0017677Y0015766D01*
X0017511Y0015591D01*
X0017336Y0015425D01*
X0017153Y0015267D01*
X0016962Y0015118D01*
X0016765Y0014979D01*
X0016561Y0014850D01*
X0016351Y0014731D01*
X0016135Y0014622D01*
X0015914Y0014525D01*
X0015689Y0014438D01*
X0015459Y0014362D01*
X0015227Y0014297D01*
X0014991Y0014245D01*
X0014753Y0014203D01*
X0014513Y0014174D01*
X0014272Y0014156D01*
X0014031Y0014150D01*
X0013790Y0014156D01*
X0013549Y0014174D01*
X0013309Y0014203D01*
X0013071Y0014245D01*
X0012835Y0014297D01*
X0012603Y0014362D01*
X0012373Y0014438D01*
X0012148Y0014525D01*
X0011927Y0014622D01*
X0011711Y0014731D01*
X0011501Y0014850D01*
X0011297Y0014979D01*
X0011100Y0015118D01*
X0010909Y0015267D01*
X0010726Y0015425D01*
X0010551Y0015591D01*
X0010385Y0015766D01*
X0010227Y0015949D01*
X0010078Y0016140D01*
X0009939Y0016337D01*
X0009810Y0016541D01*
X0009691Y0016751D01*
X0009582Y0016967D01*
X0009485Y0017188D01*
X0009398Y0017413D01*
X0009322Y0017643D01*
X0009257Y0017875D01*
X0009205Y0018111D01*
X0009163Y0018349D01*
X0009134Y0018589D01*
X0009116Y0018830D01*
X0009110Y0019071D01*
X0008866Y0053477D02*
X0008870Y0053622D01*
X0008880Y0053766D01*
X0008898Y0053910D01*
X0008923Y0054053D01*
X0008954Y0054195D01*
X0008993Y0054334D01*
X0009039Y0054472D01*
X0009091Y0054607D01*
X0009150Y0054740D01*
X0009215Y0054869D01*
X0009286Y0054995D01*
X0009364Y0055118D01*
X0009447Y0055236D01*
X0009536Y0055350D01*
X0009631Y0055460D01*
X0009731Y0055565D01*
X0009836Y0055665D01*
X0009946Y0055760D01*
X0010060Y0055849D01*
X0010178Y0055932D01*
X0010301Y0056010D01*
X0010427Y0056081D01*
X0010556Y0056146D01*
X0010689Y0056205D01*
X0010824Y0056257D01*
X0010962Y0056303D01*
X0011101Y0056342D01*
X0011243Y0056373D01*
X0011386Y0056398D01*
X0011530Y0056416D01*
X0011674Y0056426D01*
X0011819Y0056430D01*
X0011964Y0056426D01*
X0012108Y0056416D01*
X0012252Y0056398D01*
X0012395Y0056373D01*
X0012537Y0056342D01*
X0012676Y0056303D01*
X0012814Y0056257D01*
X0012949Y0056205D01*
X0013082Y0056146D01*
X0013211Y0056081D01*
X0013337Y0056010D01*
X0013460Y0055932D01*
X0013578Y0055849D01*
X0013692Y0055760D01*
X0013802Y0055665D01*
X0013907Y0055565D01*
X0014007Y0055460D01*
X0014102Y0055350D01*
X0014191Y0055236D01*
X0014274Y0055118D01*
X0014352Y0054995D01*
X0014423Y0054869D01*
X0014488Y0054740D01*
X0014547Y0054607D01*
X0014599Y0054472D01*
X0014645Y0054334D01*
X0014684Y0054195D01*
X0014715Y0054053D01*
X0014740Y0053910D01*
X0014758Y0053766D01*
X0014768Y0053622D01*
X0014772Y0053477D01*
X0014768Y0053332D01*
X0014758Y0053188D01*
X0014740Y0053044D01*
X0014715Y0052901D01*
X0014684Y0052759D01*
X0014645Y0052620D01*
X0014599Y0052482D01*
X0014547Y0052347D01*
X0014488Y0052214D01*
X0014423Y0052085D01*
X0014352Y0051959D01*
X0014274Y0051836D01*
X0014191Y0051718D01*
X0014102Y0051604D01*
X0014007Y0051494D01*
X0013907Y0051389D01*
X0013802Y0051289D01*
X0013692Y0051194D01*
X0013578Y0051105D01*
X0013460Y0051022D01*
X0013337Y0050944D01*
X0013211Y0050873D01*
X0013082Y0050808D01*
X0012949Y0050749D01*
X0012814Y0050697D01*
X0012676Y0050651D01*
X0012537Y0050612D01*
X0012395Y0050581D01*
X0012252Y0050556D01*
X0012108Y0050538D01*
X0011964Y0050528D01*
X0011819Y0050524D01*
X0011674Y0050528D01*
X0011530Y0050538D01*
X0011386Y0050556D01*
X0011243Y0050581D01*
X0011101Y0050612D01*
X0010962Y0050651D01*
X0010824Y0050697D01*
X0010689Y0050749D01*
X0010556Y0050808D01*
X0010427Y0050873D01*
X0010301Y0050944D01*
X0010178Y0051022D01*
X0010060Y0051105D01*
X0009946Y0051194D01*
X0009836Y0051289D01*
X0009731Y0051389D01*
X0009631Y0051494D01*
X0009536Y0051604D01*
X0009447Y0051718D01*
X0009364Y0051836D01*
X0009286Y0051959D01*
X0009215Y0052085D01*
X0009150Y0052214D01*
X0009091Y0052347D01*
X0009039Y0052482D01*
X0008993Y0052620D01*
X0008954Y0052759D01*
X0008923Y0052901D01*
X0008898Y0053044D01*
X0008880Y0053188D01*
X0008870Y0053332D01*
X0008866Y0053477D01*
X0040110Y0068071D02*
X0040116Y0068312D01*
X0040134Y0068553D01*
X0040163Y0068793D01*
X0040205Y0069031D01*
X0040257Y0069267D01*
X0040322Y0069499D01*
X0040398Y0069729D01*
X0040485Y0069954D01*
X0040582Y0070175D01*
X0040691Y0070391D01*
X0040810Y0070601D01*
X0040939Y0070805D01*
X0041078Y0071002D01*
X0041227Y0071193D01*
X0041385Y0071376D01*
X0041551Y0071551D01*
X0041726Y0071717D01*
X0041909Y0071875D01*
X0042100Y0072024D01*
X0042297Y0072163D01*
X0042501Y0072292D01*
X0042711Y0072411D01*
X0042927Y0072520D01*
X0043148Y0072617D01*
X0043373Y0072704D01*
X0043603Y0072780D01*
X0043835Y0072845D01*
X0044071Y0072897D01*
X0044309Y0072939D01*
X0044549Y0072968D01*
X0044790Y0072986D01*
X0045031Y0072992D01*
X0045272Y0072986D01*
X0045513Y0072968D01*
X0045753Y0072939D01*
X0045991Y0072897D01*
X0046227Y0072845D01*
X0046459Y0072780D01*
X0046689Y0072704D01*
X0046914Y0072617D01*
X0047135Y0072520D01*
X0047351Y0072411D01*
X0047561Y0072292D01*
X0047765Y0072163D01*
X0047962Y0072024D01*
X0048153Y0071875D01*
X0048336Y0071717D01*
X0048511Y0071551D01*
X0048677Y0071376D01*
X0048835Y0071193D01*
X0048984Y0071002D01*
X0049123Y0070805D01*
X0049252Y0070601D01*
X0049371Y0070391D01*
X0049480Y0070175D01*
X0049577Y0069954D01*
X0049664Y0069729D01*
X0049740Y0069499D01*
X0049805Y0069267D01*
X0049857Y0069031D01*
X0049899Y0068793D01*
X0049928Y0068553D01*
X0049946Y0068312D01*
X0049952Y0068071D01*
X0049946Y0067830D01*
X0049928Y0067589D01*
X0049899Y0067349D01*
X0049857Y0067111D01*
X0049805Y0066875D01*
X0049740Y0066643D01*
X0049664Y0066413D01*
X0049577Y0066188D01*
X0049480Y0065967D01*
X0049371Y0065751D01*
X0049252Y0065541D01*
X0049123Y0065337D01*
X0048984Y0065140D01*
X0048835Y0064949D01*
X0048677Y0064766D01*
X0048511Y0064591D01*
X0048336Y0064425D01*
X0048153Y0064267D01*
X0047962Y0064118D01*
X0047765Y0063979D01*
X0047561Y0063850D01*
X0047351Y0063731D01*
X0047135Y0063622D01*
X0046914Y0063525D01*
X0046689Y0063438D01*
X0046459Y0063362D01*
X0046227Y0063297D01*
X0045991Y0063245D01*
X0045753Y0063203D01*
X0045513Y0063174D01*
X0045272Y0063156D01*
X0045031Y0063150D01*
X0044790Y0063156D01*
X0044549Y0063174D01*
X0044309Y0063203D01*
X0044071Y0063245D01*
X0043835Y0063297D01*
X0043603Y0063362D01*
X0043373Y0063438D01*
X0043148Y0063525D01*
X0042927Y0063622D01*
X0042711Y0063731D01*
X0042501Y0063850D01*
X0042297Y0063979D01*
X0042100Y0064118D01*
X0041909Y0064267D01*
X0041726Y0064425D01*
X0041551Y0064591D01*
X0041385Y0064766D01*
X0041227Y0064949D01*
X0041078Y0065140D01*
X0040939Y0065337D01*
X0040810Y0065541D01*
X0040691Y0065751D01*
X0040582Y0065967D01*
X0040485Y0066188D01*
X0040398Y0066413D01*
X0040322Y0066643D01*
X0040257Y0066875D01*
X0040205Y0067111D01*
X0040163Y0067349D01*
X0040134Y0067589D01*
X0040116Y0067830D01*
X0040110Y0068071D01*
X0014610Y0092071D02*
X0014616Y0092312D01*
X0014634Y0092553D01*
X0014663Y0092793D01*
X0014705Y0093031D01*
X0014757Y0093267D01*
X0014822Y0093499D01*
X0014898Y0093729D01*
X0014985Y0093954D01*
X0015082Y0094175D01*
X0015191Y0094391D01*
X0015310Y0094601D01*
X0015439Y0094805D01*
X0015578Y0095002D01*
X0015727Y0095193D01*
X0015885Y0095376D01*
X0016051Y0095551D01*
X0016226Y0095717D01*
X0016409Y0095875D01*
X0016600Y0096024D01*
X0016797Y0096163D01*
X0017001Y0096292D01*
X0017211Y0096411D01*
X0017427Y0096520D01*
X0017648Y0096617D01*
X0017873Y0096704D01*
X0018103Y0096780D01*
X0018335Y0096845D01*
X0018571Y0096897D01*
X0018809Y0096939D01*
X0019049Y0096968D01*
X0019290Y0096986D01*
X0019531Y0096992D01*
X0019772Y0096986D01*
X0020013Y0096968D01*
X0020253Y0096939D01*
X0020491Y0096897D01*
X0020727Y0096845D01*
X0020959Y0096780D01*
X0021189Y0096704D01*
X0021414Y0096617D01*
X0021635Y0096520D01*
X0021851Y0096411D01*
X0022061Y0096292D01*
X0022265Y0096163D01*
X0022462Y0096024D01*
X0022653Y0095875D01*
X0022836Y0095717D01*
X0023011Y0095551D01*
X0023177Y0095376D01*
X0023335Y0095193D01*
X0023484Y0095002D01*
X0023623Y0094805D01*
X0023752Y0094601D01*
X0023871Y0094391D01*
X0023980Y0094175D01*
X0024077Y0093954D01*
X0024164Y0093729D01*
X0024240Y0093499D01*
X0024305Y0093267D01*
X0024357Y0093031D01*
X0024399Y0092793D01*
X0024428Y0092553D01*
X0024446Y0092312D01*
X0024452Y0092071D01*
X0024446Y0091830D01*
X0024428Y0091589D01*
X0024399Y0091349D01*
X0024357Y0091111D01*
X0024305Y0090875D01*
X0024240Y0090643D01*
X0024164Y0090413D01*
X0024077Y0090188D01*
X0023980Y0089967D01*
X0023871Y0089751D01*
X0023752Y0089541D01*
X0023623Y0089337D01*
X0023484Y0089140D01*
X0023335Y0088949D01*
X0023177Y0088766D01*
X0023011Y0088591D01*
X0022836Y0088425D01*
X0022653Y0088267D01*
X0022462Y0088118D01*
X0022265Y0087979D01*
X0022061Y0087850D01*
X0021851Y0087731D01*
X0021635Y0087622D01*
X0021414Y0087525D01*
X0021189Y0087438D01*
X0020959Y0087362D01*
X0020727Y0087297D01*
X0020491Y0087245D01*
X0020253Y0087203D01*
X0020013Y0087174D01*
X0019772Y0087156D01*
X0019531Y0087150D01*
X0019290Y0087156D01*
X0019049Y0087174D01*
X0018809Y0087203D01*
X0018571Y0087245D01*
X0018335Y0087297D01*
X0018103Y0087362D01*
X0017873Y0087438D01*
X0017648Y0087525D01*
X0017427Y0087622D01*
X0017211Y0087731D01*
X0017001Y0087850D01*
X0016797Y0087979D01*
X0016600Y0088118D01*
X0016409Y0088267D01*
X0016226Y0088425D01*
X0016051Y0088591D01*
X0015885Y0088766D01*
X0015727Y0088949D01*
X0015578Y0089140D01*
X0015439Y0089337D01*
X0015310Y0089541D01*
X0015191Y0089751D01*
X0015082Y0089967D01*
X0014985Y0090188D01*
X0014898Y0090413D01*
X0014822Y0090643D01*
X0014757Y0090875D01*
X0014705Y0091111D01*
X0014663Y0091349D01*
X0014634Y0091589D01*
X0014616Y0091830D01*
X0014610Y0092071D01*
X0014366Y0126477D02*
X0014370Y0126622D01*
X0014380Y0126766D01*
X0014398Y0126910D01*
X0014423Y0127053D01*
X0014454Y0127195D01*
X0014493Y0127334D01*
X0014539Y0127472D01*
X0014591Y0127607D01*
X0014650Y0127740D01*
X0014715Y0127869D01*
X0014786Y0127995D01*
X0014864Y0128118D01*
X0014947Y0128236D01*
X0015036Y0128350D01*
X0015131Y0128460D01*
X0015231Y0128565D01*
X0015336Y0128665D01*
X0015446Y0128760D01*
X0015560Y0128849D01*
X0015678Y0128932D01*
X0015801Y0129010D01*
X0015927Y0129081D01*
X0016056Y0129146D01*
X0016189Y0129205D01*
X0016324Y0129257D01*
X0016462Y0129303D01*
X0016601Y0129342D01*
X0016743Y0129373D01*
X0016886Y0129398D01*
X0017030Y0129416D01*
X0017174Y0129426D01*
X0017319Y0129430D01*
X0017464Y0129426D01*
X0017608Y0129416D01*
X0017752Y0129398D01*
X0017895Y0129373D01*
X0018037Y0129342D01*
X0018176Y0129303D01*
X0018314Y0129257D01*
X0018449Y0129205D01*
X0018582Y0129146D01*
X0018711Y0129081D01*
X0018837Y0129010D01*
X0018960Y0128932D01*
X0019078Y0128849D01*
X0019192Y0128760D01*
X0019302Y0128665D01*
X0019407Y0128565D01*
X0019507Y0128460D01*
X0019602Y0128350D01*
X0019691Y0128236D01*
X0019774Y0128118D01*
X0019852Y0127995D01*
X0019923Y0127869D01*
X0019988Y0127740D01*
X0020047Y0127607D01*
X0020099Y0127472D01*
X0020145Y0127334D01*
X0020184Y0127195D01*
X0020215Y0127053D01*
X0020240Y0126910D01*
X0020258Y0126766D01*
X0020268Y0126622D01*
X0020272Y0126477D01*
X0020268Y0126332D01*
X0020258Y0126188D01*
X0020240Y0126044D01*
X0020215Y0125901D01*
X0020184Y0125759D01*
X0020145Y0125620D01*
X0020099Y0125482D01*
X0020047Y0125347D01*
X0019988Y0125214D01*
X0019923Y0125085D01*
X0019852Y0124959D01*
X0019774Y0124836D01*
X0019691Y0124718D01*
X0019602Y0124604D01*
X0019507Y0124494D01*
X0019407Y0124389D01*
X0019302Y0124289D01*
X0019192Y0124194D01*
X0019078Y0124105D01*
X0018960Y0124022D01*
X0018837Y0123944D01*
X0018711Y0123873D01*
X0018582Y0123808D01*
X0018449Y0123749D01*
X0018314Y0123697D01*
X0018176Y0123651D01*
X0018037Y0123612D01*
X0017895Y0123581D01*
X0017752Y0123556D01*
X0017608Y0123538D01*
X0017464Y0123528D01*
X0017319Y0123524D01*
X0017174Y0123528D01*
X0017030Y0123538D01*
X0016886Y0123556D01*
X0016743Y0123581D01*
X0016601Y0123612D01*
X0016462Y0123651D01*
X0016324Y0123697D01*
X0016189Y0123749D01*
X0016056Y0123808D01*
X0015927Y0123873D01*
X0015801Y0123944D01*
X0015678Y0124022D01*
X0015560Y0124105D01*
X0015446Y0124194D01*
X0015336Y0124289D01*
X0015231Y0124389D01*
X0015131Y0124494D01*
X0015036Y0124604D01*
X0014947Y0124718D01*
X0014864Y0124836D01*
X0014786Y0124959D01*
X0014715Y0125085D01*
X0014650Y0125214D01*
X0014591Y0125347D01*
X0014539Y0125482D01*
X0014493Y0125620D01*
X0014454Y0125759D01*
X0014423Y0125901D01*
X0014398Y0126044D01*
X0014380Y0126188D01*
X0014370Y0126332D01*
X0014366Y0126477D01*
X0045610Y0141071D02*
X0045616Y0141312D01*
X0045634Y0141553D01*
X0045663Y0141793D01*
X0045705Y0142031D01*
X0045757Y0142267D01*
X0045822Y0142499D01*
X0045898Y0142729D01*
X0045985Y0142954D01*
X0046082Y0143175D01*
X0046191Y0143391D01*
X0046310Y0143601D01*
X0046439Y0143805D01*
X0046578Y0144002D01*
X0046727Y0144193D01*
X0046885Y0144376D01*
X0047051Y0144551D01*
X0047226Y0144717D01*
X0047409Y0144875D01*
X0047600Y0145024D01*
X0047797Y0145163D01*
X0048001Y0145292D01*
X0048211Y0145411D01*
X0048427Y0145520D01*
X0048648Y0145617D01*
X0048873Y0145704D01*
X0049103Y0145780D01*
X0049335Y0145845D01*
X0049571Y0145897D01*
X0049809Y0145939D01*
X0050049Y0145968D01*
X0050290Y0145986D01*
X0050531Y0145992D01*
X0050772Y0145986D01*
X0051013Y0145968D01*
X0051253Y0145939D01*
X0051491Y0145897D01*
X0051727Y0145845D01*
X0051959Y0145780D01*
X0052189Y0145704D01*
X0052414Y0145617D01*
X0052635Y0145520D01*
X0052851Y0145411D01*
X0053061Y0145292D01*
X0053265Y0145163D01*
X0053462Y0145024D01*
X0053653Y0144875D01*
X0053836Y0144717D01*
X0054011Y0144551D01*
X0054177Y0144376D01*
X0054335Y0144193D01*
X0054484Y0144002D01*
X0054623Y0143805D01*
X0054752Y0143601D01*
X0054871Y0143391D01*
X0054980Y0143175D01*
X0055077Y0142954D01*
X0055164Y0142729D01*
X0055240Y0142499D01*
X0055305Y0142267D01*
X0055357Y0142031D01*
X0055399Y0141793D01*
X0055428Y0141553D01*
X0055446Y0141312D01*
X0055452Y0141071D01*
X0055446Y0140830D01*
X0055428Y0140589D01*
X0055399Y0140349D01*
X0055357Y0140111D01*
X0055305Y0139875D01*
X0055240Y0139643D01*
X0055164Y0139413D01*
X0055077Y0139188D01*
X0054980Y0138967D01*
X0054871Y0138751D01*
X0054752Y0138541D01*
X0054623Y0138337D01*
X0054484Y0138140D01*
X0054335Y0137949D01*
X0054177Y0137766D01*
X0054011Y0137591D01*
X0053836Y0137425D01*
X0053653Y0137267D01*
X0053462Y0137118D01*
X0053265Y0136979D01*
X0053061Y0136850D01*
X0052851Y0136731D01*
X0052635Y0136622D01*
X0052414Y0136525D01*
X0052189Y0136438D01*
X0051959Y0136362D01*
X0051727Y0136297D01*
X0051491Y0136245D01*
X0051253Y0136203D01*
X0051013Y0136174D01*
X0050772Y0136156D01*
X0050531Y0136150D01*
X0050290Y0136156D01*
X0050049Y0136174D01*
X0049809Y0136203D01*
X0049571Y0136245D01*
X0049335Y0136297D01*
X0049103Y0136362D01*
X0048873Y0136438D01*
X0048648Y0136525D01*
X0048427Y0136622D01*
X0048211Y0136731D01*
X0048001Y0136850D01*
X0047797Y0136979D01*
X0047600Y0137118D01*
X0047409Y0137267D01*
X0047226Y0137425D01*
X0047051Y0137591D01*
X0046885Y0137766D01*
X0046727Y0137949D01*
X0046578Y0138140D01*
X0046439Y0138337D01*
X0046310Y0138541D01*
X0046191Y0138751D01*
X0046082Y0138967D01*
X0045985Y0139188D01*
X0045898Y0139413D01*
X0045822Y0139643D01*
X0045757Y0139875D01*
X0045705Y0140111D01*
X0045663Y0140349D01*
X0045634Y0140589D01*
X0045616Y0140830D01*
X0045610Y0141071D01*
X0080866Y0126477D02*
X0080870Y0126622D01*
X0080880Y0126766D01*
X0080898Y0126910D01*
X0080923Y0127053D01*
X0080954Y0127195D01*
X0080993Y0127334D01*
X0081039Y0127472D01*
X0081091Y0127607D01*
X0081150Y0127740D01*
X0081215Y0127869D01*
X0081286Y0127995D01*
X0081364Y0128118D01*
X0081447Y0128236D01*
X0081536Y0128350D01*
X0081631Y0128460D01*
X0081731Y0128565D01*
X0081836Y0128665D01*
X0081946Y0128760D01*
X0082060Y0128849D01*
X0082178Y0128932D01*
X0082301Y0129010D01*
X0082427Y0129081D01*
X0082556Y0129146D01*
X0082689Y0129205D01*
X0082824Y0129257D01*
X0082962Y0129303D01*
X0083101Y0129342D01*
X0083243Y0129373D01*
X0083386Y0129398D01*
X0083530Y0129416D01*
X0083674Y0129426D01*
X0083819Y0129430D01*
X0083964Y0129426D01*
X0084108Y0129416D01*
X0084252Y0129398D01*
X0084395Y0129373D01*
X0084537Y0129342D01*
X0084676Y0129303D01*
X0084814Y0129257D01*
X0084949Y0129205D01*
X0085082Y0129146D01*
X0085211Y0129081D01*
X0085337Y0129010D01*
X0085460Y0128932D01*
X0085578Y0128849D01*
X0085692Y0128760D01*
X0085802Y0128665D01*
X0085907Y0128565D01*
X0086007Y0128460D01*
X0086102Y0128350D01*
X0086191Y0128236D01*
X0086274Y0128118D01*
X0086352Y0127995D01*
X0086423Y0127869D01*
X0086488Y0127740D01*
X0086547Y0127607D01*
X0086599Y0127472D01*
X0086645Y0127334D01*
X0086684Y0127195D01*
X0086715Y0127053D01*
X0086740Y0126910D01*
X0086758Y0126766D01*
X0086768Y0126622D01*
X0086772Y0126477D01*
X0086768Y0126332D01*
X0086758Y0126188D01*
X0086740Y0126044D01*
X0086715Y0125901D01*
X0086684Y0125759D01*
X0086645Y0125620D01*
X0086599Y0125482D01*
X0086547Y0125347D01*
X0086488Y0125214D01*
X0086423Y0125085D01*
X0086352Y0124959D01*
X0086274Y0124836D01*
X0086191Y0124718D01*
X0086102Y0124604D01*
X0086007Y0124494D01*
X0085907Y0124389D01*
X0085802Y0124289D01*
X0085692Y0124194D01*
X0085578Y0124105D01*
X0085460Y0124022D01*
X0085337Y0123944D01*
X0085211Y0123873D01*
X0085082Y0123808D01*
X0084949Y0123749D01*
X0084814Y0123697D01*
X0084676Y0123651D01*
X0084537Y0123612D01*
X0084395Y0123581D01*
X0084252Y0123556D01*
X0084108Y0123538D01*
X0083964Y0123528D01*
X0083819Y0123524D01*
X0083674Y0123528D01*
X0083530Y0123538D01*
X0083386Y0123556D01*
X0083243Y0123581D01*
X0083101Y0123612D01*
X0082962Y0123651D01*
X0082824Y0123697D01*
X0082689Y0123749D01*
X0082556Y0123808D01*
X0082427Y0123873D01*
X0082301Y0123944D01*
X0082178Y0124022D01*
X0082060Y0124105D01*
X0081946Y0124194D01*
X0081836Y0124289D01*
X0081731Y0124389D01*
X0081631Y0124494D01*
X0081536Y0124604D01*
X0081447Y0124718D01*
X0081364Y0124836D01*
X0081286Y0124959D01*
X0081215Y0125085D01*
X0081150Y0125214D01*
X0081091Y0125347D01*
X0081039Y0125482D01*
X0080993Y0125620D01*
X0080954Y0125759D01*
X0080923Y0125901D01*
X0080898Y0126044D01*
X0080880Y0126188D01*
X0080870Y0126332D01*
X0080866Y0126477D01*
X0112110Y0141071D02*
X0112116Y0141312D01*
X0112134Y0141553D01*
X0112163Y0141793D01*
X0112205Y0142031D01*
X0112257Y0142267D01*
X0112322Y0142499D01*
X0112398Y0142729D01*
X0112485Y0142954D01*
X0112582Y0143175D01*
X0112691Y0143391D01*
X0112810Y0143601D01*
X0112939Y0143805D01*
X0113078Y0144002D01*
X0113227Y0144193D01*
X0113385Y0144376D01*
X0113551Y0144551D01*
X0113726Y0144717D01*
X0113909Y0144875D01*
X0114100Y0145024D01*
X0114297Y0145163D01*
X0114501Y0145292D01*
X0114711Y0145411D01*
X0114927Y0145520D01*
X0115148Y0145617D01*
X0115373Y0145704D01*
X0115603Y0145780D01*
X0115835Y0145845D01*
X0116071Y0145897D01*
X0116309Y0145939D01*
X0116549Y0145968D01*
X0116790Y0145986D01*
X0117031Y0145992D01*
X0117272Y0145986D01*
X0117513Y0145968D01*
X0117753Y0145939D01*
X0117991Y0145897D01*
X0118227Y0145845D01*
X0118459Y0145780D01*
X0118689Y0145704D01*
X0118914Y0145617D01*
X0119135Y0145520D01*
X0119351Y0145411D01*
X0119561Y0145292D01*
X0119765Y0145163D01*
X0119962Y0145024D01*
X0120153Y0144875D01*
X0120336Y0144717D01*
X0120511Y0144551D01*
X0120677Y0144376D01*
X0120835Y0144193D01*
X0120984Y0144002D01*
X0121123Y0143805D01*
X0121252Y0143601D01*
X0121371Y0143391D01*
X0121480Y0143175D01*
X0121577Y0142954D01*
X0121664Y0142729D01*
X0121740Y0142499D01*
X0121805Y0142267D01*
X0121857Y0142031D01*
X0121899Y0141793D01*
X0121928Y0141553D01*
X0121946Y0141312D01*
X0121952Y0141071D01*
X0121946Y0140830D01*
X0121928Y0140589D01*
X0121899Y0140349D01*
X0121857Y0140111D01*
X0121805Y0139875D01*
X0121740Y0139643D01*
X0121664Y0139413D01*
X0121577Y0139188D01*
X0121480Y0138967D01*
X0121371Y0138751D01*
X0121252Y0138541D01*
X0121123Y0138337D01*
X0120984Y0138140D01*
X0120835Y0137949D01*
X0120677Y0137766D01*
X0120511Y0137591D01*
X0120336Y0137425D01*
X0120153Y0137267D01*
X0119962Y0137118D01*
X0119765Y0136979D01*
X0119561Y0136850D01*
X0119351Y0136731D01*
X0119135Y0136622D01*
X0118914Y0136525D01*
X0118689Y0136438D01*
X0118459Y0136362D01*
X0118227Y0136297D01*
X0117991Y0136245D01*
X0117753Y0136203D01*
X0117513Y0136174D01*
X0117272Y0136156D01*
X0117031Y0136150D01*
X0116790Y0136156D01*
X0116549Y0136174D01*
X0116309Y0136203D01*
X0116071Y0136245D01*
X0115835Y0136297D01*
X0115603Y0136362D01*
X0115373Y0136438D01*
X0115148Y0136525D01*
X0114927Y0136622D01*
X0114711Y0136731D01*
X0114501Y0136850D01*
X0114297Y0136979D01*
X0114100Y0137118D01*
X0113909Y0137267D01*
X0113726Y0137425D01*
X0113551Y0137591D01*
X0113385Y0137766D01*
X0113227Y0137949D01*
X0113078Y0138140D01*
X0112939Y0138337D01*
X0112810Y0138541D01*
X0112691Y0138751D01*
X0112582Y0138967D01*
X0112485Y0139188D01*
X0112398Y0139413D01*
X0112322Y0139643D01*
X0112257Y0139875D01*
X0112205Y0140111D01*
X0112163Y0140349D01*
X0112134Y0140589D01*
X0112116Y0140830D01*
X0112110Y0141071D01*
X0150366Y0126477D02*
X0150370Y0126622D01*
X0150380Y0126766D01*
X0150398Y0126910D01*
X0150423Y0127053D01*
X0150454Y0127195D01*
X0150493Y0127334D01*
X0150539Y0127472D01*
X0150591Y0127607D01*
X0150650Y0127740D01*
X0150715Y0127869D01*
X0150786Y0127995D01*
X0150864Y0128118D01*
X0150947Y0128236D01*
X0151036Y0128350D01*
X0151131Y0128460D01*
X0151231Y0128565D01*
X0151336Y0128665D01*
X0151446Y0128760D01*
X0151560Y0128849D01*
X0151678Y0128932D01*
X0151801Y0129010D01*
X0151927Y0129081D01*
X0152056Y0129146D01*
X0152189Y0129205D01*
X0152324Y0129257D01*
X0152462Y0129303D01*
X0152601Y0129342D01*
X0152743Y0129373D01*
X0152886Y0129398D01*
X0153030Y0129416D01*
X0153174Y0129426D01*
X0153319Y0129430D01*
X0153464Y0129426D01*
X0153608Y0129416D01*
X0153752Y0129398D01*
X0153895Y0129373D01*
X0154037Y0129342D01*
X0154176Y0129303D01*
X0154314Y0129257D01*
X0154449Y0129205D01*
X0154582Y0129146D01*
X0154711Y0129081D01*
X0154837Y0129010D01*
X0154960Y0128932D01*
X0155078Y0128849D01*
X0155192Y0128760D01*
X0155302Y0128665D01*
X0155407Y0128565D01*
X0155507Y0128460D01*
X0155602Y0128350D01*
X0155691Y0128236D01*
X0155774Y0128118D01*
X0155852Y0127995D01*
X0155923Y0127869D01*
X0155988Y0127740D01*
X0156047Y0127607D01*
X0156099Y0127472D01*
X0156145Y0127334D01*
X0156184Y0127195D01*
X0156215Y0127053D01*
X0156240Y0126910D01*
X0156258Y0126766D01*
X0156268Y0126622D01*
X0156272Y0126477D01*
X0156268Y0126332D01*
X0156258Y0126188D01*
X0156240Y0126044D01*
X0156215Y0125901D01*
X0156184Y0125759D01*
X0156145Y0125620D01*
X0156099Y0125482D01*
X0156047Y0125347D01*
X0155988Y0125214D01*
X0155923Y0125085D01*
X0155852Y0124959D01*
X0155774Y0124836D01*
X0155691Y0124718D01*
X0155602Y0124604D01*
X0155507Y0124494D01*
X0155407Y0124389D01*
X0155302Y0124289D01*
X0155192Y0124194D01*
X0155078Y0124105D01*
X0154960Y0124022D01*
X0154837Y0123944D01*
X0154711Y0123873D01*
X0154582Y0123808D01*
X0154449Y0123749D01*
X0154314Y0123697D01*
X0154176Y0123651D01*
X0154037Y0123612D01*
X0153895Y0123581D01*
X0153752Y0123556D01*
X0153608Y0123538D01*
X0153464Y0123528D01*
X0153319Y0123524D01*
X0153174Y0123528D01*
X0153030Y0123538D01*
X0152886Y0123556D01*
X0152743Y0123581D01*
X0152601Y0123612D01*
X0152462Y0123651D01*
X0152324Y0123697D01*
X0152189Y0123749D01*
X0152056Y0123808D01*
X0151927Y0123873D01*
X0151801Y0123944D01*
X0151678Y0124022D01*
X0151560Y0124105D01*
X0151446Y0124194D01*
X0151336Y0124289D01*
X0151231Y0124389D01*
X0151131Y0124494D01*
X0151036Y0124604D01*
X0150947Y0124718D01*
X0150864Y0124836D01*
X0150786Y0124959D01*
X0150715Y0125085D01*
X0150650Y0125214D01*
X0150591Y0125347D01*
X0150539Y0125482D01*
X0150493Y0125620D01*
X0150454Y0125759D01*
X0150423Y0125901D01*
X0150398Y0126044D01*
X0150380Y0126188D01*
X0150370Y0126332D01*
X0150366Y0126477D01*
X0181610Y0141071D02*
X0181616Y0141312D01*
X0181634Y0141553D01*
X0181663Y0141793D01*
X0181705Y0142031D01*
X0181757Y0142267D01*
X0181822Y0142499D01*
X0181898Y0142729D01*
X0181985Y0142954D01*
X0182082Y0143175D01*
X0182191Y0143391D01*
X0182310Y0143601D01*
X0182439Y0143805D01*
X0182578Y0144002D01*
X0182727Y0144193D01*
X0182885Y0144376D01*
X0183051Y0144551D01*
X0183226Y0144717D01*
X0183409Y0144875D01*
X0183600Y0145024D01*
X0183797Y0145163D01*
X0184001Y0145292D01*
X0184211Y0145411D01*
X0184427Y0145520D01*
X0184648Y0145617D01*
X0184873Y0145704D01*
X0185103Y0145780D01*
X0185335Y0145845D01*
X0185571Y0145897D01*
X0185809Y0145939D01*
X0186049Y0145968D01*
X0186290Y0145986D01*
X0186531Y0145992D01*
X0186772Y0145986D01*
X0187013Y0145968D01*
X0187253Y0145939D01*
X0187491Y0145897D01*
X0187727Y0145845D01*
X0187959Y0145780D01*
X0188189Y0145704D01*
X0188414Y0145617D01*
X0188635Y0145520D01*
X0188851Y0145411D01*
X0189061Y0145292D01*
X0189265Y0145163D01*
X0189462Y0145024D01*
X0189653Y0144875D01*
X0189836Y0144717D01*
X0190011Y0144551D01*
X0190177Y0144376D01*
X0190335Y0144193D01*
X0190484Y0144002D01*
X0190623Y0143805D01*
X0190752Y0143601D01*
X0190871Y0143391D01*
X0190980Y0143175D01*
X0191077Y0142954D01*
X0191164Y0142729D01*
X0191240Y0142499D01*
X0191305Y0142267D01*
X0191357Y0142031D01*
X0191399Y0141793D01*
X0191428Y0141553D01*
X0191446Y0141312D01*
X0191452Y0141071D01*
X0191446Y0140830D01*
X0191428Y0140589D01*
X0191399Y0140349D01*
X0191357Y0140111D01*
X0191305Y0139875D01*
X0191240Y0139643D01*
X0191164Y0139413D01*
X0191077Y0139188D01*
X0190980Y0138967D01*
X0190871Y0138751D01*
X0190752Y0138541D01*
X0190623Y0138337D01*
X0190484Y0138140D01*
X0190335Y0137949D01*
X0190177Y0137766D01*
X0190011Y0137591D01*
X0189836Y0137425D01*
X0189653Y0137267D01*
X0189462Y0137118D01*
X0189265Y0136979D01*
X0189061Y0136850D01*
X0188851Y0136731D01*
X0188635Y0136622D01*
X0188414Y0136525D01*
X0188189Y0136438D01*
X0187959Y0136362D01*
X0187727Y0136297D01*
X0187491Y0136245D01*
X0187253Y0136203D01*
X0187013Y0136174D01*
X0186772Y0136156D01*
X0186531Y0136150D01*
X0186290Y0136156D01*
X0186049Y0136174D01*
X0185809Y0136203D01*
X0185571Y0136245D01*
X0185335Y0136297D01*
X0185103Y0136362D01*
X0184873Y0136438D01*
X0184648Y0136525D01*
X0184427Y0136622D01*
X0184211Y0136731D01*
X0184001Y0136850D01*
X0183797Y0136979D01*
X0183600Y0137118D01*
X0183409Y0137267D01*
X0183226Y0137425D01*
X0183051Y0137591D01*
X0182885Y0137766D01*
X0182727Y0137949D01*
X0182578Y0138140D01*
X0182439Y0138337D01*
X0182310Y0138541D01*
X0182191Y0138751D01*
X0182082Y0138967D01*
X0181985Y0139188D01*
X0181898Y0139413D01*
X0181822Y0139643D01*
X0181757Y0139875D01*
X0181705Y0140111D01*
X0181663Y0140349D01*
X0181634Y0140589D01*
X0181616Y0140830D01*
X0181610Y0141071D01*
X0150610Y0092071D02*
X0150616Y0092312D01*
X0150634Y0092553D01*
X0150663Y0092793D01*
X0150705Y0093031D01*
X0150757Y0093267D01*
X0150822Y0093499D01*
X0150898Y0093729D01*
X0150985Y0093954D01*
X0151082Y0094175D01*
X0151191Y0094391D01*
X0151310Y0094601D01*
X0151439Y0094805D01*
X0151578Y0095002D01*
X0151727Y0095193D01*
X0151885Y0095376D01*
X0152051Y0095551D01*
X0152226Y0095717D01*
X0152409Y0095875D01*
X0152600Y0096024D01*
X0152797Y0096163D01*
X0153001Y0096292D01*
X0153211Y0096411D01*
X0153427Y0096520D01*
X0153648Y0096617D01*
X0153873Y0096704D01*
X0154103Y0096780D01*
X0154335Y0096845D01*
X0154571Y0096897D01*
X0154809Y0096939D01*
X0155049Y0096968D01*
X0155290Y0096986D01*
X0155531Y0096992D01*
X0155772Y0096986D01*
X0156013Y0096968D01*
X0156253Y0096939D01*
X0156491Y0096897D01*
X0156727Y0096845D01*
X0156959Y0096780D01*
X0157189Y0096704D01*
X0157414Y0096617D01*
X0157635Y0096520D01*
X0157851Y0096411D01*
X0158061Y0096292D01*
X0158265Y0096163D01*
X0158462Y0096024D01*
X0158653Y0095875D01*
X0158836Y0095717D01*
X0159011Y0095551D01*
X0159177Y0095376D01*
X0159335Y0095193D01*
X0159484Y0095002D01*
X0159623Y0094805D01*
X0159752Y0094601D01*
X0159871Y0094391D01*
X0159980Y0094175D01*
X0160077Y0093954D01*
X0160164Y0093729D01*
X0160240Y0093499D01*
X0160305Y0093267D01*
X0160357Y0093031D01*
X0160399Y0092793D01*
X0160428Y0092553D01*
X0160446Y0092312D01*
X0160452Y0092071D01*
X0160446Y0091830D01*
X0160428Y0091589D01*
X0160399Y0091349D01*
X0160357Y0091111D01*
X0160305Y0090875D01*
X0160240Y0090643D01*
X0160164Y0090413D01*
X0160077Y0090188D01*
X0159980Y0089967D01*
X0159871Y0089751D01*
X0159752Y0089541D01*
X0159623Y0089337D01*
X0159484Y0089140D01*
X0159335Y0088949D01*
X0159177Y0088766D01*
X0159011Y0088591D01*
X0158836Y0088425D01*
X0158653Y0088267D01*
X0158462Y0088118D01*
X0158265Y0087979D01*
X0158061Y0087850D01*
X0157851Y0087731D01*
X0157635Y0087622D01*
X0157414Y0087525D01*
X0157189Y0087438D01*
X0156959Y0087362D01*
X0156727Y0087297D01*
X0156491Y0087245D01*
X0156253Y0087203D01*
X0156013Y0087174D01*
X0155772Y0087156D01*
X0155531Y0087150D01*
X0155290Y0087156D01*
X0155049Y0087174D01*
X0154809Y0087203D01*
X0154571Y0087245D01*
X0154335Y0087297D01*
X0154103Y0087362D01*
X0153873Y0087438D01*
X0153648Y0087525D01*
X0153427Y0087622D01*
X0153211Y0087731D01*
X0153001Y0087850D01*
X0152797Y0087979D01*
X0152600Y0088118D01*
X0152409Y0088267D01*
X0152226Y0088425D01*
X0152051Y0088591D01*
X0151885Y0088766D01*
X0151727Y0088949D01*
X0151578Y0089140D01*
X0151439Y0089337D01*
X0151310Y0089541D01*
X0151191Y0089751D01*
X0151082Y0089967D01*
X0150985Y0090188D01*
X0150898Y0090413D01*
X0150822Y0090643D01*
X0150757Y0090875D01*
X0150705Y0091111D01*
X0150663Y0091349D01*
X0150634Y0091589D01*
X0150616Y0091830D01*
X0150610Y0092071D01*
X0187291Y0072665D02*
X0187295Y0072810D01*
X0187305Y0072954D01*
X0187323Y0073098D01*
X0187348Y0073241D01*
X0187379Y0073383D01*
X0187418Y0073522D01*
X0187464Y0073660D01*
X0187516Y0073795D01*
X0187575Y0073928D01*
X0187640Y0074057D01*
X0187711Y0074183D01*
X0187789Y0074306D01*
X0187872Y0074424D01*
X0187961Y0074538D01*
X0188056Y0074648D01*
X0188156Y0074753D01*
X0188261Y0074853D01*
X0188371Y0074948D01*
X0188485Y0075037D01*
X0188603Y0075120D01*
X0188726Y0075198D01*
X0188852Y0075269D01*
X0188981Y0075334D01*
X0189114Y0075393D01*
X0189249Y0075445D01*
X0189387Y0075491D01*
X0189526Y0075530D01*
X0189668Y0075561D01*
X0189811Y0075586D01*
X0189955Y0075604D01*
X0190099Y0075614D01*
X0190244Y0075618D01*
X0190389Y0075614D01*
X0190533Y0075604D01*
X0190677Y0075586D01*
X0190820Y0075561D01*
X0190962Y0075530D01*
X0191101Y0075491D01*
X0191239Y0075445D01*
X0191374Y0075393D01*
X0191507Y0075334D01*
X0191636Y0075269D01*
X0191762Y0075198D01*
X0191885Y0075120D01*
X0192003Y0075037D01*
X0192117Y0074948D01*
X0192227Y0074853D01*
X0192332Y0074753D01*
X0192432Y0074648D01*
X0192527Y0074538D01*
X0192616Y0074424D01*
X0192699Y0074306D01*
X0192777Y0074183D01*
X0192848Y0074057D01*
X0192913Y0073928D01*
X0192972Y0073795D01*
X0193024Y0073660D01*
X0193070Y0073522D01*
X0193109Y0073383D01*
X0193140Y0073241D01*
X0193165Y0073098D01*
X0193183Y0072954D01*
X0193193Y0072810D01*
X0193197Y0072665D01*
X0193193Y0072520D01*
X0193183Y0072376D01*
X0193165Y0072232D01*
X0193140Y0072089D01*
X0193109Y0071947D01*
X0193070Y0071808D01*
X0193024Y0071670D01*
X0192972Y0071535D01*
X0192913Y0071402D01*
X0192848Y0071273D01*
X0192777Y0071147D01*
X0192699Y0071024D01*
X0192616Y0070906D01*
X0192527Y0070792D01*
X0192432Y0070682D01*
X0192332Y0070577D01*
X0192227Y0070477D01*
X0192117Y0070382D01*
X0192003Y0070293D01*
X0191885Y0070210D01*
X0191762Y0070132D01*
X0191636Y0070061D01*
X0191507Y0069996D01*
X0191374Y0069937D01*
X0191239Y0069885D01*
X0191101Y0069839D01*
X0190962Y0069800D01*
X0190820Y0069769D01*
X0190677Y0069744D01*
X0190533Y0069726D01*
X0190389Y0069716D01*
X0190244Y0069712D01*
X0190099Y0069716D01*
X0189955Y0069726D01*
X0189811Y0069744D01*
X0189668Y0069769D01*
X0189526Y0069800D01*
X0189387Y0069839D01*
X0189249Y0069885D01*
X0189114Y0069937D01*
X0188981Y0069996D01*
X0188852Y0070061D01*
X0188726Y0070132D01*
X0188603Y0070210D01*
X0188485Y0070293D01*
X0188371Y0070382D01*
X0188261Y0070477D01*
X0188156Y0070577D01*
X0188056Y0070682D01*
X0187961Y0070792D01*
X0187872Y0070906D01*
X0187789Y0071024D01*
X0187711Y0071147D01*
X0187640Y0071273D01*
X0187575Y0071402D01*
X0187516Y0071535D01*
X0187464Y0071670D01*
X0187418Y0071808D01*
X0187379Y0071947D01*
X0187348Y0072089D01*
X0187323Y0072232D01*
X0187305Y0072376D01*
X0187295Y0072520D01*
X0187291Y0072665D01*
X0187291Y0036665D02*
X0187295Y0036810D01*
X0187305Y0036954D01*
X0187323Y0037098D01*
X0187348Y0037241D01*
X0187379Y0037383D01*
X0187418Y0037522D01*
X0187464Y0037660D01*
X0187516Y0037795D01*
X0187575Y0037928D01*
X0187640Y0038057D01*
X0187711Y0038183D01*
X0187789Y0038306D01*
X0187872Y0038424D01*
X0187961Y0038538D01*
X0188056Y0038648D01*
X0188156Y0038753D01*
X0188261Y0038853D01*
X0188371Y0038948D01*
X0188485Y0039037D01*
X0188603Y0039120D01*
X0188726Y0039198D01*
X0188852Y0039269D01*
X0188981Y0039334D01*
X0189114Y0039393D01*
X0189249Y0039445D01*
X0189387Y0039491D01*
X0189526Y0039530D01*
X0189668Y0039561D01*
X0189811Y0039586D01*
X0189955Y0039604D01*
X0190099Y0039614D01*
X0190244Y0039618D01*
X0190389Y0039614D01*
X0190533Y0039604D01*
X0190677Y0039586D01*
X0190820Y0039561D01*
X0190962Y0039530D01*
X0191101Y0039491D01*
X0191239Y0039445D01*
X0191374Y0039393D01*
X0191507Y0039334D01*
X0191636Y0039269D01*
X0191762Y0039198D01*
X0191885Y0039120D01*
X0192003Y0039037D01*
X0192117Y0038948D01*
X0192227Y0038853D01*
X0192332Y0038753D01*
X0192432Y0038648D01*
X0192527Y0038538D01*
X0192616Y0038424D01*
X0192699Y0038306D01*
X0192777Y0038183D01*
X0192848Y0038057D01*
X0192913Y0037928D01*
X0192972Y0037795D01*
X0193024Y0037660D01*
X0193070Y0037522D01*
X0193109Y0037383D01*
X0193140Y0037241D01*
X0193165Y0037098D01*
X0193183Y0036954D01*
X0193193Y0036810D01*
X0193197Y0036665D01*
X0193193Y0036520D01*
X0193183Y0036376D01*
X0193165Y0036232D01*
X0193140Y0036089D01*
X0193109Y0035947D01*
X0193070Y0035808D01*
X0193024Y0035670D01*
X0192972Y0035535D01*
X0192913Y0035402D01*
X0192848Y0035273D01*
X0192777Y0035147D01*
X0192699Y0035024D01*
X0192616Y0034906D01*
X0192527Y0034792D01*
X0192432Y0034682D01*
X0192332Y0034577D01*
X0192227Y0034477D01*
X0192117Y0034382D01*
X0192003Y0034293D01*
X0191885Y0034210D01*
X0191762Y0034132D01*
X0191636Y0034061D01*
X0191507Y0033996D01*
X0191374Y0033937D01*
X0191239Y0033885D01*
X0191101Y0033839D01*
X0190962Y0033800D01*
X0190820Y0033769D01*
X0190677Y0033744D01*
X0190533Y0033726D01*
X0190389Y0033716D01*
X0190244Y0033712D01*
X0190099Y0033716D01*
X0189955Y0033726D01*
X0189811Y0033744D01*
X0189668Y0033769D01*
X0189526Y0033800D01*
X0189387Y0033839D01*
X0189249Y0033885D01*
X0189114Y0033937D01*
X0188981Y0033996D01*
X0188852Y0034061D01*
X0188726Y0034132D01*
X0188603Y0034210D01*
X0188485Y0034293D01*
X0188371Y0034382D01*
X0188261Y0034477D01*
X0188156Y0034577D01*
X0188056Y0034682D01*
X0187961Y0034792D01*
X0187872Y0034906D01*
X0187789Y0035024D01*
X0187711Y0035147D01*
X0187640Y0035273D01*
X0187575Y0035402D01*
X0187516Y0035535D01*
X0187464Y0035670D01*
X0187418Y0035808D01*
X0187379Y0035947D01*
X0187348Y0036089D01*
X0187323Y0036232D01*
X0187305Y0036376D01*
X0187295Y0036520D01*
X0187291Y0036665D01*
X0081110Y0092071D02*
X0081116Y0092312D01*
X0081134Y0092553D01*
X0081163Y0092793D01*
X0081205Y0093031D01*
X0081257Y0093267D01*
X0081322Y0093499D01*
X0081398Y0093729D01*
X0081485Y0093954D01*
X0081582Y0094175D01*
X0081691Y0094391D01*
X0081810Y0094601D01*
X0081939Y0094805D01*
X0082078Y0095002D01*
X0082227Y0095193D01*
X0082385Y0095376D01*
X0082551Y0095551D01*
X0082726Y0095717D01*
X0082909Y0095875D01*
X0083100Y0096024D01*
X0083297Y0096163D01*
X0083501Y0096292D01*
X0083711Y0096411D01*
X0083927Y0096520D01*
X0084148Y0096617D01*
X0084373Y0096704D01*
X0084603Y0096780D01*
X0084835Y0096845D01*
X0085071Y0096897D01*
X0085309Y0096939D01*
X0085549Y0096968D01*
X0085790Y0096986D01*
X0086031Y0096992D01*
X0086272Y0096986D01*
X0086513Y0096968D01*
X0086753Y0096939D01*
X0086991Y0096897D01*
X0087227Y0096845D01*
X0087459Y0096780D01*
X0087689Y0096704D01*
X0087914Y0096617D01*
X0088135Y0096520D01*
X0088351Y0096411D01*
X0088561Y0096292D01*
X0088765Y0096163D01*
X0088962Y0096024D01*
X0089153Y0095875D01*
X0089336Y0095717D01*
X0089511Y0095551D01*
X0089677Y0095376D01*
X0089835Y0095193D01*
X0089984Y0095002D01*
X0090123Y0094805D01*
X0090252Y0094601D01*
X0090371Y0094391D01*
X0090480Y0094175D01*
X0090577Y0093954D01*
X0090664Y0093729D01*
X0090740Y0093499D01*
X0090805Y0093267D01*
X0090857Y0093031D01*
X0090899Y0092793D01*
X0090928Y0092553D01*
X0090946Y0092312D01*
X0090952Y0092071D01*
X0090946Y0091830D01*
X0090928Y0091589D01*
X0090899Y0091349D01*
X0090857Y0091111D01*
X0090805Y0090875D01*
X0090740Y0090643D01*
X0090664Y0090413D01*
X0090577Y0090188D01*
X0090480Y0089967D01*
X0090371Y0089751D01*
X0090252Y0089541D01*
X0090123Y0089337D01*
X0089984Y0089140D01*
X0089835Y0088949D01*
X0089677Y0088766D01*
X0089511Y0088591D01*
X0089336Y0088425D01*
X0089153Y0088267D01*
X0088962Y0088118D01*
X0088765Y0087979D01*
X0088561Y0087850D01*
X0088351Y0087731D01*
X0088135Y0087622D01*
X0087914Y0087525D01*
X0087689Y0087438D01*
X0087459Y0087362D01*
X0087227Y0087297D01*
X0086991Y0087245D01*
X0086753Y0087203D01*
X0086513Y0087174D01*
X0086272Y0087156D01*
X0086031Y0087150D01*
X0085790Y0087156D01*
X0085549Y0087174D01*
X0085309Y0087203D01*
X0085071Y0087245D01*
X0084835Y0087297D01*
X0084603Y0087362D01*
X0084373Y0087438D01*
X0084148Y0087525D01*
X0083927Y0087622D01*
X0083711Y0087731D01*
X0083501Y0087850D01*
X0083297Y0087979D01*
X0083100Y0088118D01*
X0082909Y0088267D01*
X0082726Y0088425D01*
X0082551Y0088591D01*
X0082385Y0088766D01*
X0082227Y0088949D01*
X0082078Y0089140D01*
X0081939Y0089337D01*
X0081810Y0089541D01*
X0081691Y0089751D01*
X0081582Y0089967D01*
X0081485Y0090188D01*
X0081398Y0090413D01*
X0081322Y0090643D01*
X0081257Y0090875D01*
X0081205Y0091111D01*
X0081163Y0091349D01*
X0081134Y0091589D01*
X0081116Y0091830D01*
X0081110Y0092071D01*
D11*
X0078831Y0069896D03*
X0073831Y0069896D03*
X0068831Y0069896D03*
X0083831Y0069896D03*
X0088831Y0069896D03*
X0093831Y0069896D03*
X0098831Y0069896D03*
X0103831Y0069896D03*
X0138831Y0069896D03*
X0143831Y0069896D03*
X0143831Y0016896D03*
X0133831Y0016896D03*
X0123831Y0016896D03*
X0118831Y0016896D03*
X0113831Y0016896D03*
X0108831Y0016896D03*
X0103831Y0016896D03*
X0098831Y0016896D03*
X0093831Y0016896D03*
X0088831Y0016896D03*
X0083831Y0016896D03*
X0078831Y0016896D03*
X0153831Y0016896D03*
D12*
X0082331Y0037671D03*
X0072331Y0037671D03*
X0072331Y0047671D03*
X0082331Y0047671D03*
X0082331Y0057671D03*
X0072331Y0057671D03*
D13*
X0019031Y0058571D03*
X0009031Y0063571D03*
X0019031Y0068571D03*
X0009031Y0073571D03*
X0024531Y0131571D03*
X0014531Y0136571D03*
X0024531Y0141571D03*
X0014531Y0146571D03*
X0081031Y0146571D03*
X0091031Y0141571D03*
X0081031Y0136571D03*
X0091031Y0131571D03*
X0150531Y0136571D03*
X0160531Y0131571D03*
X0160531Y0141571D03*
X0150531Y0146571D03*
X0183031Y0067571D03*
X0193031Y0062571D03*
X0183031Y0057571D03*
X0193031Y0052571D03*
X0183031Y0031571D03*
X0193031Y0026571D03*
X0183031Y0021571D03*
X0193031Y0016571D03*
D14*
X0175531Y0100071D03*
X0165531Y0110071D03*
X0175531Y0120071D03*
X0185531Y0110071D03*
X0116031Y0110071D03*
X0106031Y0100071D03*
X0096031Y0110071D03*
X0106031Y0120071D03*
X0049531Y0110071D03*
X0039531Y0100071D03*
X0029531Y0110071D03*
X0039531Y0120071D03*
X0034031Y0047071D03*
X0024031Y0037071D03*
X0034031Y0027071D03*
X0044031Y0037071D03*
D15*
X0030031Y0060724D03*
X0030031Y0067417D03*
X0035531Y0133724D03*
X0035531Y0140417D03*
X0102031Y0140417D03*
X0102031Y0133724D03*
X0171531Y0133724D03*
X0171531Y0140417D03*
D16*
X0152531Y0111417D03*
X0152531Y0104724D03*
X0083031Y0104724D03*
X0083031Y0111417D03*
X0016531Y0111417D03*
X0016531Y0104724D03*
X0011031Y0038417D03*
X0011031Y0031724D03*
D17*
X0010644Y0031841D02*
X0005831Y0031841D01*
X0005831Y0030643D02*
X0007463Y0030643D01*
X0007463Y0031339D02*
X0007463Y0029545D01*
X0007572Y0029138D01*
X0007783Y0028773D01*
X0008080Y0028476D01*
X0008445Y0028265D01*
X0008852Y0028156D01*
X0010646Y0028156D01*
X0010646Y0031337D01*
X0011416Y0031337D01*
X0011416Y0028156D01*
X0013211Y0028156D01*
X0013617Y0028265D01*
X0013982Y0028476D01*
X0014280Y0028773D01*
X0014491Y0029138D01*
X0014600Y0029545D01*
X0014600Y0031339D01*
X0011418Y0031339D01*
X0011418Y0032109D01*
X0014600Y0032109D01*
X0014600Y0033904D01*
X0014491Y0034310D01*
X0014280Y0034675D01*
X0014026Y0034930D01*
X0014067Y0034971D01*
X0020166Y0034971D01*
X0020323Y0034593D01*
X0021553Y0033362D01*
X0023161Y0032696D01*
X0024902Y0032696D01*
X0026509Y0033362D01*
X0027618Y0034471D01*
X0030454Y0034471D01*
X0033683Y0031242D01*
X0033054Y0031143D01*
X0032429Y0030939D01*
X0031843Y0030641D01*
X0031312Y0030255D01*
X0030847Y0029790D01*
X0030461Y0029259D01*
X0030163Y0028673D01*
X0029959Y0028048D01*
X0029857Y0027399D01*
X0029857Y0027258D01*
X0033841Y0027258D01*
X0033841Y0026883D01*
X0029857Y0026883D01*
X0029857Y0026742D01*
X0029959Y0026093D01*
X0030163Y0025468D01*
X0030461Y0024883D01*
X0030847Y0024351D01*
X0031312Y0023886D01*
X0031843Y0023500D01*
X0032429Y0023202D01*
X0033054Y0022999D01*
X0033703Y0022896D01*
X0033843Y0022896D01*
X0033843Y0026881D01*
X0034219Y0026881D01*
X0034219Y0022896D01*
X0034360Y0022896D01*
X0035009Y0022999D01*
X0035634Y0023202D01*
X0036219Y0023500D01*
X0036751Y0023886D01*
X0037216Y0024351D01*
X0037602Y0024883D01*
X0037900Y0025468D01*
X0038103Y0026093D01*
X0038206Y0026742D01*
X0038206Y0026883D01*
X0034221Y0026883D01*
X0034221Y0027258D01*
X0038206Y0027258D01*
X0038206Y0027399D01*
X0038194Y0027471D01*
X0053731Y0027471D01*
X0053731Y0010870D01*
X0005831Y0010870D01*
X0005831Y0060306D01*
X0006442Y0059695D01*
X0008122Y0058999D01*
X0009941Y0058999D01*
X0011621Y0059695D01*
X0012907Y0060981D01*
X0013603Y0062661D01*
X0013603Y0064480D01*
X0012907Y0066160D01*
X0011621Y0067446D01*
X0009941Y0068142D01*
X0008122Y0068142D01*
X0006442Y0067446D01*
X0005831Y0066835D01*
X0005831Y0070589D01*
X0006183Y0070236D01*
X0006740Y0069832D01*
X0007353Y0069519D01*
X0008007Y0069307D01*
X0008687Y0069199D01*
X0008745Y0069199D01*
X0008745Y0073282D01*
X0009317Y0073282D01*
X0009317Y0069199D01*
X0009376Y0069199D01*
X0010055Y0069307D01*
X0010709Y0069519D01*
X0011322Y0069832D01*
X0011879Y0070236D01*
X0012366Y0070723D01*
X0012770Y0071280D01*
X0013083Y0071893D01*
X0013295Y0072547D01*
X0013403Y0073226D01*
X0013402Y0073284D01*
X0009320Y0073284D01*
X0009320Y0073857D01*
X0013403Y0073857D01*
X0013403Y0073915D01*
X0013295Y0074594D01*
X0013083Y0075249D01*
X0012816Y0075771D01*
X0053731Y0075771D01*
X0053731Y0046670D01*
X0045108Y0046670D01*
X0042504Y0049275D01*
X0041548Y0049670D01*
X0040514Y0049670D01*
X0037618Y0049670D01*
X0036509Y0050779D01*
X0034902Y0051445D01*
X0033161Y0051445D01*
X0031553Y0050779D01*
X0030323Y0049549D01*
X0029657Y0047941D01*
X0029657Y0046200D01*
X0030323Y0044593D01*
X0031553Y0043362D01*
X0033161Y0042696D01*
X0034902Y0042696D01*
X0036509Y0043362D01*
X0037618Y0044471D01*
X0039954Y0044471D01*
X0041827Y0042598D01*
X0042559Y0041867D01*
X0043514Y0041471D01*
X0053731Y0041471D01*
X0053731Y0039670D01*
X0047618Y0039670D01*
X0046509Y0040779D01*
X0044902Y0041445D01*
X0043161Y0041445D01*
X0041553Y0040779D01*
X0040323Y0039549D01*
X0039657Y0037941D01*
X0039657Y0036200D01*
X0040323Y0034593D01*
X0041553Y0033362D01*
X0043161Y0032696D01*
X0044902Y0032696D01*
X0046509Y0033362D01*
X0047618Y0034471D01*
X0053731Y0034471D01*
X0053731Y0032670D01*
X0039608Y0032670D01*
X0033004Y0039275D01*
X0032048Y0039670D01*
X0031014Y0039670D01*
X0027618Y0039670D01*
X0026509Y0040779D01*
X0024902Y0041445D01*
X0023161Y0041445D01*
X0021553Y0040779D01*
X0020944Y0040170D01*
X0014800Y0040170D01*
X0014800Y0041131D01*
X0014284Y0041647D01*
X0020504Y0047867D01*
X0021235Y0048598D01*
X0021631Y0049554D01*
X0021631Y0054706D01*
X0022907Y0055981D01*
X0023524Y0057471D01*
X0025279Y0057471D01*
X0025279Y0057420D01*
X0026333Y0056365D01*
X0033730Y0056365D01*
X0034784Y0057420D01*
X0034784Y0064029D01*
X0034495Y0064317D01*
X0034584Y0064647D01*
X0034584Y0066818D01*
X0030633Y0066818D01*
X0030633Y0068016D01*
X0034584Y0068016D01*
X0034584Y0070187D01*
X0034475Y0070594D01*
X0034264Y0070959D01*
X0033967Y0071256D01*
X0033602Y0071467D01*
X0033195Y0071576D01*
X0030630Y0071576D01*
X0030630Y0068019D01*
X0029432Y0068019D01*
X0029432Y0071576D01*
X0026868Y0071576D01*
X0026461Y0071467D01*
X0026096Y0071256D01*
X0025798Y0070959D01*
X0025588Y0070594D01*
X0025479Y0070187D01*
X0025479Y0068016D01*
X0029430Y0068016D01*
X0029430Y0066818D01*
X0025479Y0066818D01*
X0025479Y0064647D01*
X0025567Y0064317D01*
X0025279Y0064029D01*
X0025279Y0062670D01*
X0021079Y0062670D01*
X0019941Y0063142D01*
X0018122Y0063142D01*
X0016442Y0062446D01*
X0015156Y0061160D01*
X0014460Y0059480D01*
X0014460Y0057661D01*
X0014534Y0057483D01*
X0014511Y0057506D01*
X0012764Y0058230D01*
X0010873Y0058230D01*
X0009126Y0057506D01*
X0007790Y0056169D01*
X0007066Y0054422D01*
X0007066Y0052531D01*
X0007790Y0050785D01*
X0009126Y0049448D01*
X0010873Y0048724D01*
X0012764Y0048724D01*
X0014511Y0049448D01*
X0015848Y0050785D01*
X0016431Y0052194D01*
X0016431Y0051148D01*
X0008827Y0043543D01*
X0008431Y0042588D01*
X0008431Y0042185D01*
X0008317Y0042185D01*
X0007263Y0041131D01*
X0007263Y0035703D01*
X0008037Y0034930D01*
X0007783Y0034675D01*
X0007572Y0034310D01*
X0007463Y0033904D01*
X0007463Y0032109D01*
X0010644Y0032109D01*
X0010644Y0031339D01*
X0007463Y0031339D01*
X0007463Y0033039D02*
X0005831Y0033039D01*
X0005831Y0034238D02*
X0007553Y0034238D01*
X0007530Y0035436D02*
X0005831Y0035436D01*
X0005831Y0036635D02*
X0007263Y0036635D01*
X0007263Y0037833D02*
X0005831Y0037833D01*
X0005831Y0039031D02*
X0007263Y0039031D01*
X0007263Y0040230D02*
X0005831Y0040230D01*
X0005831Y0041428D02*
X0007560Y0041428D01*
X0008448Y0042627D02*
X0005831Y0042627D01*
X0005831Y0043825D02*
X0009109Y0043825D01*
X0010307Y0045024D02*
X0005831Y0045024D01*
X0005831Y0046222D02*
X0011506Y0046222D01*
X0012704Y0047420D02*
X0005831Y0047420D01*
X0005831Y0048619D02*
X0013903Y0048619D01*
X0014880Y0049817D02*
X0015101Y0049817D01*
X0015943Y0051016D02*
X0016300Y0051016D01*
X0020057Y0047420D02*
X0029657Y0047420D01*
X0029657Y0046222D02*
X0018859Y0046222D01*
X0017661Y0045024D02*
X0030144Y0045024D01*
X0031090Y0043825D02*
X0016462Y0043825D01*
X0015264Y0042627D02*
X0041798Y0042627D01*
X0040600Y0043825D02*
X0036972Y0043825D01*
X0041004Y0040230D02*
X0027059Y0040230D01*
X0024943Y0041428D02*
X0043120Y0041428D01*
X0044943Y0041428D02*
X0053731Y0041428D01*
X0053731Y0040230D02*
X0047059Y0040230D01*
X0047385Y0034238D02*
X0053731Y0034238D01*
X0053731Y0033039D02*
X0045730Y0033039D01*
X0042332Y0033039D02*
X0039239Y0033039D01*
X0038041Y0034238D02*
X0040678Y0034238D01*
X0039973Y0035436D02*
X0036843Y0035436D01*
X0035644Y0036635D02*
X0039657Y0036635D01*
X0039657Y0037833D02*
X0034446Y0037833D01*
X0033247Y0039031D02*
X0040109Y0039031D01*
X0031886Y0033039D02*
X0025730Y0033039D01*
X0027385Y0034238D02*
X0030687Y0034238D01*
X0033084Y0031841D02*
X0011418Y0031841D01*
X0011416Y0030643D02*
X0010646Y0030643D01*
X0010646Y0029444D02*
X0011416Y0029444D01*
X0011416Y0028246D02*
X0010646Y0028246D01*
X0008517Y0028246D02*
X0005831Y0028246D01*
X0005831Y0029444D02*
X0007490Y0029444D01*
X0005831Y0027047D02*
X0033841Y0027047D01*
X0034221Y0027047D02*
X0053731Y0027047D01*
X0053731Y0025849D02*
X0038024Y0025849D01*
X0037433Y0024650D02*
X0053731Y0024650D01*
X0053731Y0023452D02*
X0036124Y0023452D01*
X0034219Y0023452D02*
X0033843Y0023452D01*
X0033843Y0024650D02*
X0034219Y0024650D01*
X0034219Y0025849D02*
X0033843Y0025849D01*
X0031938Y0023452D02*
X0019155Y0023452D01*
X0019729Y0022878D02*
X0017839Y0024769D01*
X0015369Y0025792D01*
X0012694Y0025792D01*
X0010224Y0024769D01*
X0008333Y0022878D01*
X0007310Y0020408D01*
X0007310Y0017733D01*
X0008333Y0015263D01*
X0010224Y0013373D01*
X0012694Y0012350D01*
X0015369Y0012350D01*
X0017839Y0013373D01*
X0019729Y0015263D01*
X0020752Y0017733D01*
X0020752Y0020408D01*
X0019729Y0022878D01*
X0019988Y0022254D02*
X0053731Y0022254D01*
X0053731Y0021055D02*
X0020484Y0021055D01*
X0020752Y0019857D02*
X0053731Y0019857D01*
X0053731Y0018658D02*
X0020752Y0018658D01*
X0020639Y0017460D02*
X0053731Y0017460D01*
X0053731Y0016261D02*
X0020143Y0016261D01*
X0019529Y0015063D02*
X0053731Y0015063D01*
X0053731Y0013865D02*
X0018330Y0013865D01*
X0016132Y0012666D02*
X0053731Y0012666D01*
X0053731Y0011468D02*
X0005831Y0011468D01*
X0005831Y0012666D02*
X0011930Y0012666D01*
X0009732Y0013865D02*
X0005831Y0013865D01*
X0005831Y0015063D02*
X0008534Y0015063D01*
X0007920Y0016261D02*
X0005831Y0016261D01*
X0005831Y0017460D02*
X0007423Y0017460D01*
X0007310Y0018658D02*
X0005831Y0018658D01*
X0005831Y0019857D02*
X0007310Y0019857D01*
X0007579Y0021055D02*
X0005831Y0021055D01*
X0005831Y0022254D02*
X0008075Y0022254D01*
X0008907Y0023452D02*
X0005831Y0023452D01*
X0005831Y0024650D02*
X0010106Y0024650D01*
X0005831Y0025849D02*
X0030039Y0025849D01*
X0030630Y0024650D02*
X0017957Y0024650D01*
X0013545Y0028246D02*
X0030024Y0028246D01*
X0030596Y0029444D02*
X0014572Y0029444D01*
X0014600Y0030643D02*
X0031846Y0030643D01*
X0022332Y0033039D02*
X0014600Y0033039D01*
X0014510Y0034238D02*
X0020678Y0034238D01*
X0021004Y0040230D02*
X0014800Y0040230D01*
X0014502Y0041428D02*
X0023120Y0041428D01*
X0021244Y0048619D02*
X0029938Y0048619D01*
X0030591Y0049817D02*
X0021631Y0049817D01*
X0021631Y0051016D02*
X0032124Y0051016D01*
X0035939Y0051016D02*
X0053731Y0051016D01*
X0053731Y0052214D02*
X0021631Y0052214D01*
X0021631Y0053413D02*
X0053731Y0053413D01*
X0053731Y0054611D02*
X0021631Y0054611D01*
X0022735Y0055809D02*
X0053731Y0055809D01*
X0053731Y0057008D02*
X0034372Y0057008D01*
X0034784Y0058206D02*
X0053731Y0058206D01*
X0053731Y0059405D02*
X0034784Y0059405D01*
X0034784Y0060603D02*
X0053731Y0060603D01*
X0053731Y0061802D02*
X0047459Y0061802D01*
X0046369Y0061350D02*
X0048839Y0062373D01*
X0050729Y0064263D01*
X0051752Y0066733D01*
X0051752Y0069408D01*
X0050729Y0071878D01*
X0048839Y0073769D01*
X0046369Y0074792D01*
X0043694Y0074792D01*
X0041224Y0073769D01*
X0039333Y0071878D01*
X0038310Y0069408D01*
X0038310Y0066733D01*
X0039333Y0064263D01*
X0041224Y0062373D01*
X0043694Y0061350D01*
X0046369Y0061350D01*
X0049466Y0063000D02*
X0053731Y0063000D01*
X0053731Y0064198D02*
X0050664Y0064198D01*
X0051198Y0065397D02*
X0053731Y0065397D01*
X0053731Y0066595D02*
X0051695Y0066595D01*
X0051752Y0067794D02*
X0053731Y0067794D01*
X0053731Y0068992D02*
X0051752Y0068992D01*
X0051428Y0070191D02*
X0053731Y0070191D01*
X0053731Y0071389D02*
X0050932Y0071389D01*
X0050020Y0072587D02*
X0053731Y0072587D01*
X0053731Y0073786D02*
X0048797Y0073786D01*
X0053731Y0074984D02*
X0013169Y0074984D01*
X0013302Y0072587D02*
X0016783Y0072587D01*
X0016442Y0072446D02*
X0015156Y0071160D01*
X0014460Y0069480D01*
X0014460Y0067661D01*
X0015156Y0065981D01*
X0016442Y0064695D01*
X0018122Y0063999D01*
X0019941Y0063999D01*
X0021621Y0064695D01*
X0022907Y0065981D01*
X0023603Y0067661D01*
X0023603Y0069480D01*
X0022907Y0071160D01*
X0021621Y0072446D01*
X0019941Y0073142D01*
X0018122Y0073142D01*
X0016442Y0072446D01*
X0015385Y0071389D02*
X0012826Y0071389D01*
X0011816Y0070191D02*
X0014754Y0070191D01*
X0014460Y0068992D02*
X0005831Y0068992D01*
X0005831Y0067794D02*
X0007281Y0067794D01*
X0006246Y0070191D02*
X0005831Y0070191D01*
X0008745Y0070191D02*
X0009317Y0070191D01*
X0009317Y0071389D02*
X0008745Y0071389D01*
X0008745Y0072587D02*
X0009317Y0072587D01*
X0009320Y0073786D02*
X0041266Y0073786D01*
X0040043Y0072587D02*
X0021280Y0072587D01*
X0022678Y0071389D02*
X0026326Y0071389D01*
X0025480Y0070191D02*
X0023309Y0070191D01*
X0023603Y0068992D02*
X0025479Y0068992D01*
X0023603Y0067794D02*
X0029430Y0067794D01*
X0029432Y0068992D02*
X0030630Y0068992D01*
X0030630Y0070191D02*
X0029432Y0070191D01*
X0029432Y0071389D02*
X0030630Y0071389D01*
X0033737Y0071389D02*
X0039131Y0071389D01*
X0038635Y0070191D02*
X0034583Y0070191D01*
X0034584Y0068992D02*
X0038310Y0068992D01*
X0038310Y0067794D02*
X0030633Y0067794D01*
X0034584Y0066595D02*
X0038367Y0066595D01*
X0038864Y0065397D02*
X0034584Y0065397D01*
X0034614Y0064198D02*
X0039398Y0064198D01*
X0040597Y0063000D02*
X0034784Y0063000D01*
X0034784Y0061802D02*
X0042603Y0061802D01*
X0037471Y0049817D02*
X0053731Y0049817D01*
X0053731Y0048619D02*
X0043160Y0048619D01*
X0044358Y0047420D02*
X0053731Y0047420D01*
X0065470Y0037833D02*
X0068350Y0037833D01*
X0068350Y0038463D02*
X0068350Y0036879D01*
X0068956Y0035416D01*
X0070076Y0034296D01*
X0071539Y0033690D01*
X0073123Y0033690D01*
X0074586Y0034296D01*
X0075706Y0035416D01*
X0076312Y0036879D01*
X0076312Y0038463D01*
X0075706Y0039926D01*
X0074586Y0041046D01*
X0073123Y0041652D01*
X0071539Y0041652D01*
X0070076Y0041046D01*
X0068956Y0039926D01*
X0068350Y0038463D01*
X0068586Y0039031D02*
X0066669Y0039031D01*
X0067867Y0040230D02*
X0069261Y0040230D01*
X0068504Y0040867D02*
X0069235Y0041598D01*
X0069631Y0042554D01*
X0069631Y0044741D01*
X0070076Y0044296D01*
X0071539Y0043690D01*
X0073123Y0043690D01*
X0074586Y0044296D01*
X0075706Y0045416D01*
X0076312Y0046879D01*
X0076312Y0048463D01*
X0075706Y0049926D01*
X0074586Y0051046D01*
X0073123Y0051652D01*
X0071539Y0051652D01*
X0070076Y0051046D01*
X0069631Y0050600D01*
X0069631Y0054741D01*
X0070076Y0054296D01*
X0071539Y0053690D01*
X0073123Y0053690D01*
X0074586Y0054296D01*
X0075706Y0055416D01*
X0076312Y0056879D01*
X0076312Y0058463D01*
X0075706Y0059926D01*
X0074586Y0061046D01*
X0073123Y0061652D01*
X0071539Y0061652D01*
X0070076Y0061046D01*
X0069631Y0060600D01*
X0069631Y0060994D01*
X0071108Y0062471D01*
X0086514Y0062471D01*
X0087548Y0062471D01*
X0088504Y0062867D01*
X0088531Y0062894D01*
X0101059Y0050367D01*
X0102014Y0049971D01*
X0103048Y0049971D01*
X0165533Y0049971D01*
X0165059Y0049775D01*
X0141781Y0026497D01*
X0136004Y0032275D01*
X0135048Y0032670D01*
X0134014Y0032670D01*
X0062331Y0032670D01*
X0062331Y0034795D01*
X0062504Y0034867D01*
X0068504Y0040867D01*
X0069066Y0041428D02*
X0071000Y0041428D01*
X0069631Y0042627D02*
X0157911Y0042627D01*
X0159109Y0043825D02*
X0083450Y0043825D01*
X0083123Y0043690D02*
X0084586Y0044296D01*
X0085706Y0045416D01*
X0086312Y0046879D01*
X0086312Y0048463D01*
X0085706Y0049926D01*
X0084586Y0051046D01*
X0083123Y0051652D01*
X0081539Y0051652D01*
X0080076Y0051046D01*
X0078956Y0049926D01*
X0078350Y0048463D01*
X0078350Y0046879D01*
X0078956Y0045416D01*
X0080076Y0044296D01*
X0081539Y0043690D01*
X0083123Y0043690D01*
X0081212Y0043825D02*
X0073450Y0043825D01*
X0075314Y0045024D02*
X0079348Y0045024D01*
X0078622Y0046222D02*
X0076040Y0046222D01*
X0076312Y0047420D02*
X0078350Y0047420D01*
X0078415Y0048619D02*
X0076248Y0048619D01*
X0075751Y0049817D02*
X0078912Y0049817D01*
X0080046Y0051016D02*
X0074616Y0051016D01*
X0070047Y0051016D02*
X0069631Y0051016D01*
X0069631Y0052214D02*
X0099211Y0052214D01*
X0098013Y0053413D02*
X0069631Y0053413D01*
X0069631Y0054611D02*
X0069761Y0054611D01*
X0074902Y0054611D02*
X0079761Y0054611D01*
X0080076Y0054296D02*
X0081539Y0053690D01*
X0083123Y0053690D01*
X0084586Y0054296D01*
X0085706Y0055416D01*
X0086312Y0056879D01*
X0086312Y0058463D01*
X0085706Y0059926D01*
X0084586Y0061046D01*
X0083123Y0061652D01*
X0081539Y0061652D01*
X0080076Y0061046D01*
X0078956Y0059926D01*
X0078350Y0058463D01*
X0078350Y0056879D01*
X0078956Y0055416D01*
X0080076Y0054296D01*
X0078793Y0055809D02*
X0075869Y0055809D01*
X0076312Y0057008D02*
X0078350Y0057008D01*
X0078350Y0058206D02*
X0076312Y0058206D01*
X0075922Y0059405D02*
X0078741Y0059405D01*
X0079634Y0060603D02*
X0075029Y0060603D01*
X0070439Y0061802D02*
X0089624Y0061802D01*
X0090822Y0060603D02*
X0085029Y0060603D01*
X0085922Y0059405D02*
X0092020Y0059405D01*
X0093219Y0058206D02*
X0086312Y0058206D01*
X0086312Y0057008D02*
X0094417Y0057008D01*
X0095616Y0055809D02*
X0085869Y0055809D01*
X0084902Y0054611D02*
X0096814Y0054611D01*
X0100409Y0051016D02*
X0084616Y0051016D01*
X0085751Y0049817D02*
X0165162Y0049817D01*
X0163903Y0048619D02*
X0086248Y0048619D01*
X0086312Y0047420D02*
X0162704Y0047420D01*
X0161506Y0046222D02*
X0086040Y0046222D01*
X0085314Y0045024D02*
X0160307Y0045024D01*
X0156712Y0041428D02*
X0083663Y0041428D01*
X0083123Y0041652D02*
X0084586Y0041046D01*
X0085706Y0039926D01*
X0086312Y0038463D01*
X0086312Y0036879D01*
X0085706Y0035416D01*
X0084586Y0034296D01*
X0083123Y0033690D01*
X0081539Y0033690D01*
X0080076Y0034296D01*
X0078956Y0035416D01*
X0078350Y0036879D01*
X0078350Y0038463D01*
X0078956Y0039926D01*
X0080076Y0041046D01*
X0081539Y0041652D01*
X0083123Y0041652D01*
X0081000Y0041428D02*
X0073663Y0041428D01*
X0075402Y0040230D02*
X0079261Y0040230D01*
X0078586Y0039031D02*
X0076077Y0039031D01*
X0076312Y0037833D02*
X0078350Y0037833D01*
X0078451Y0036635D02*
X0076211Y0036635D01*
X0075715Y0035436D02*
X0078948Y0035436D01*
X0080216Y0034238D02*
X0074446Y0034238D01*
X0070216Y0034238D02*
X0062331Y0034238D01*
X0062331Y0033039D02*
X0148323Y0033039D01*
X0147125Y0031841D02*
X0136438Y0031841D01*
X0137636Y0030643D02*
X0145926Y0030643D01*
X0144728Y0029444D02*
X0138835Y0029444D01*
X0140033Y0028246D02*
X0143530Y0028246D01*
X0142331Y0027047D02*
X0141231Y0027047D01*
X0137473Y0023452D02*
X0062331Y0023452D01*
X0062331Y0024650D02*
X0136275Y0024650D01*
X0135076Y0025849D02*
X0062331Y0025849D01*
X0062331Y0027047D02*
X0133878Y0027047D01*
X0133454Y0027471D02*
X0139577Y0021348D01*
X0140309Y0020617D01*
X0140493Y0020433D01*
X0140063Y0020004D01*
X0140063Y0014870D01*
X0138484Y0014870D01*
X0137600Y0015755D01*
X0137600Y0020004D01*
X0136545Y0021058D01*
X0131117Y0021058D01*
X0130063Y0020004D01*
X0130063Y0013788D01*
X0131117Y0012734D01*
X0134116Y0012734D01*
X0135231Y0011618D01*
X0135980Y0010870D01*
X0062331Y0010870D01*
X0062331Y0027471D01*
X0133454Y0027471D01*
X0138672Y0022254D02*
X0062331Y0022254D01*
X0062331Y0021055D02*
X0076115Y0021055D01*
X0076117Y0021058D02*
X0081117Y0021058D01*
X0086117Y0021058D01*
X0091117Y0021058D01*
X0096117Y0021058D01*
X0101117Y0021058D01*
X0106117Y0021058D01*
X0111117Y0021058D01*
X0116117Y0021058D01*
X0121545Y0021058D01*
X0126545Y0021058D01*
X0127600Y0020004D01*
X0127600Y0013788D01*
X0126545Y0012734D01*
X0121545Y0012734D01*
X0116117Y0012734D01*
X0111117Y0012734D01*
X0106117Y0012734D01*
X0101117Y0012734D01*
X0096117Y0012734D01*
X0091117Y0012734D01*
X0086117Y0012734D01*
X0081117Y0012734D01*
X0076117Y0012734D01*
X0075063Y0013788D01*
X0075063Y0020004D01*
X0076117Y0021058D01*
X0075063Y0019857D02*
X0062331Y0019857D01*
X0062331Y0018658D02*
X0075063Y0018658D01*
X0075063Y0017460D02*
X0062331Y0017460D01*
X0062331Y0016261D02*
X0075063Y0016261D01*
X0075063Y0015063D02*
X0062331Y0015063D01*
X0062331Y0013865D02*
X0075063Y0013865D01*
X0062331Y0012666D02*
X0134183Y0012666D01*
X0135382Y0011468D02*
X0062331Y0011468D01*
X0063074Y0035436D02*
X0068948Y0035436D01*
X0068451Y0036635D02*
X0064272Y0036635D01*
X0069631Y0043825D02*
X0071212Y0043825D01*
X0084446Y0034238D02*
X0149522Y0034238D01*
X0150720Y0035436D02*
X0085715Y0035436D01*
X0086211Y0036635D02*
X0151919Y0036635D01*
X0153117Y0037833D02*
X0086312Y0037833D01*
X0086077Y0039031D02*
X0154315Y0039031D01*
X0155514Y0040230D02*
X0085402Y0040230D01*
X0105572Y0058206D02*
X0145214Y0058206D01*
X0145229Y0058170D02*
X0105608Y0058170D01*
X0098044Y0065734D01*
X0101117Y0065734D01*
X0106545Y0065734D01*
X0107600Y0066788D01*
X0107600Y0073004D01*
X0106545Y0074058D01*
X0101117Y0074058D01*
X0096131Y0074058D01*
X0096131Y0074088D01*
X0095735Y0075043D01*
X0095007Y0075771D01*
X0186630Y0075771D01*
X0186215Y0075357D01*
X0185491Y0073610D01*
X0185491Y0071719D01*
X0185601Y0071454D01*
X0183941Y0072142D01*
X0182122Y0072142D01*
X0180442Y0071446D01*
X0179156Y0070160D01*
X0178460Y0068480D01*
X0178460Y0066661D01*
X0179156Y0064981D01*
X0180442Y0063695D01*
X0182122Y0062999D01*
X0183941Y0062999D01*
X0185621Y0063695D01*
X0186907Y0064981D01*
X0187603Y0066661D01*
X0187603Y0068480D01*
X0187529Y0068659D01*
X0187552Y0068635D01*
X0189298Y0067912D01*
X0191189Y0067912D01*
X0192936Y0068635D01*
X0194273Y0069972D01*
X0194996Y0071719D01*
X0194996Y0073610D01*
X0194273Y0075357D01*
X0193858Y0075771D01*
X0198231Y0075771D01*
X0198231Y0010870D01*
X0149583Y0010870D01*
X0150280Y0011567D01*
X0151004Y0011867D01*
X0151735Y0012598D01*
X0151874Y0012934D01*
X0153446Y0012934D01*
X0153446Y0016509D01*
X0154216Y0016509D01*
X0154216Y0012934D01*
X0156011Y0012934D01*
X0156417Y0013043D01*
X0156782Y0013254D01*
X0157080Y0013551D01*
X0157291Y0013916D01*
X0157400Y0014323D01*
X0157400Y0016511D01*
X0154218Y0016511D01*
X0154218Y0017280D01*
X0157400Y0017280D01*
X0157400Y0019469D01*
X0157291Y0019876D01*
X0157080Y0020241D01*
X0156782Y0020538D01*
X0156417Y0020749D01*
X0156011Y0020858D01*
X0154216Y0020858D01*
X0154216Y0017283D01*
X0153446Y0017283D01*
X0153446Y0020309D01*
X0157108Y0023971D01*
X0179078Y0023971D01*
X0178460Y0022480D01*
X0178460Y0020661D01*
X0179156Y0018981D01*
X0180442Y0017695D01*
X0182122Y0016999D01*
X0183941Y0016999D01*
X0185621Y0017695D01*
X0186907Y0018981D01*
X0187603Y0020661D01*
X0187603Y0022480D01*
X0186985Y0023971D01*
X0189167Y0023971D01*
X0190442Y0022695D01*
X0192122Y0021999D01*
X0193941Y0021999D01*
X0195621Y0022695D01*
X0196907Y0023981D01*
X0197603Y0025661D01*
X0197603Y0027480D01*
X0196907Y0029160D01*
X0195621Y0030446D01*
X0193941Y0031142D01*
X0192122Y0031142D01*
X0190442Y0030446D01*
X0189167Y0029170D01*
X0186691Y0029170D01*
X0186770Y0029280D01*
X0187083Y0029893D01*
X0187295Y0030547D01*
X0187403Y0031226D01*
X0187403Y0031284D01*
X0183320Y0031284D01*
X0183320Y0031857D01*
X0187403Y0031857D01*
X0187403Y0031915D01*
X0187295Y0032594D01*
X0187152Y0033035D01*
X0187552Y0032635D01*
X0189298Y0031912D01*
X0191189Y0031912D01*
X0192936Y0032635D01*
X0194273Y0033972D01*
X0194996Y0035719D01*
X0194996Y0037610D01*
X0194273Y0039357D01*
X0192936Y0040693D01*
X0191189Y0041417D01*
X0189298Y0041417D01*
X0187552Y0040693D01*
X0186215Y0039357D01*
X0185491Y0037610D01*
X0185491Y0035719D01*
X0185807Y0034957D01*
X0185322Y0035309D01*
X0184709Y0035622D01*
X0184055Y0035835D01*
X0183376Y0035942D01*
X0183317Y0035942D01*
X0183317Y0031859D01*
X0182745Y0031859D01*
X0182745Y0035942D01*
X0182687Y0035942D01*
X0182007Y0035835D01*
X0181353Y0035622D01*
X0180740Y0035309D01*
X0180183Y0034905D01*
X0179697Y0034419D01*
X0179293Y0033862D01*
X0178980Y0033249D01*
X0178767Y0032594D01*
X0178660Y0031915D01*
X0178660Y0031857D01*
X0182743Y0031857D01*
X0182743Y0031284D01*
X0178660Y0031284D01*
X0178660Y0031226D01*
X0178767Y0030547D01*
X0178980Y0029893D01*
X0179293Y0029280D01*
X0179372Y0029170D01*
X0155514Y0029170D01*
X0154559Y0028775D01*
X0153827Y0028043D01*
X0147327Y0021543D01*
X0146956Y0020647D01*
X0146631Y0020972D01*
X0146631Y0021088D01*
X0146235Y0022043D01*
X0145504Y0022775D01*
X0145458Y0022820D01*
X0167608Y0044971D01*
X0169058Y0044971D01*
X0169499Y0044530D01*
X0170818Y0043983D01*
X0172245Y0043983D01*
X0173563Y0044530D01*
X0174572Y0045539D01*
X0175119Y0046857D01*
X0175119Y0048284D01*
X0174572Y0049603D01*
X0174204Y0049971D01*
X0186548Y0049971D01*
X0187504Y0050367D01*
X0188235Y0051098D01*
X0188756Y0051619D01*
X0188767Y0051547D01*
X0188980Y0050893D01*
X0189293Y0050280D01*
X0189697Y0049723D01*
X0190183Y0049236D01*
X0190740Y0048832D01*
X0191353Y0048519D01*
X0192007Y0048307D01*
X0192687Y0048199D01*
X0192745Y0048199D01*
X0192745Y0052282D01*
X0193317Y0052282D01*
X0193317Y0048199D01*
X0193376Y0048199D01*
X0194055Y0048307D01*
X0194709Y0048519D01*
X0195322Y0048832D01*
X0195879Y0049236D01*
X0196366Y0049723D01*
X0196770Y0050280D01*
X0197083Y0050893D01*
X0197295Y0051547D01*
X0197403Y0052226D01*
X0197403Y0052284D01*
X0193320Y0052284D01*
X0193320Y0052857D01*
X0197403Y0052857D01*
X0197403Y0052915D01*
X0197295Y0053594D01*
X0197083Y0054249D01*
X0196770Y0054862D01*
X0196366Y0055419D01*
X0195879Y0055905D01*
X0195322Y0056309D01*
X0194709Y0056622D01*
X0194055Y0056835D01*
X0193983Y0056846D01*
X0195235Y0058098D01*
X0195454Y0058626D01*
X0195621Y0058695D01*
X0196907Y0059981D01*
X0197603Y0061661D01*
X0197603Y0063480D01*
X0196907Y0065160D01*
X0195621Y0066446D01*
X0193941Y0067142D01*
X0192122Y0067142D01*
X0190442Y0066446D01*
X0189156Y0065160D01*
X0188460Y0063480D01*
X0188460Y0061661D01*
X0189156Y0059981D01*
X0189461Y0059676D01*
X0187603Y0057819D01*
X0187603Y0058480D01*
X0186907Y0060160D01*
X0185621Y0061446D01*
X0183941Y0062142D01*
X0182122Y0062142D01*
X0180442Y0061446D01*
X0179156Y0060160D01*
X0178460Y0058480D01*
X0178460Y0058176D01*
X0178454Y0058170D01*
X0155204Y0058170D01*
X0156072Y0059039D01*
X0156619Y0060357D01*
X0156619Y0061784D01*
X0156072Y0063103D01*
X0155063Y0064112D01*
X0153745Y0064658D01*
X0153121Y0064658D01*
X0147600Y0070179D01*
X0147600Y0073004D01*
X0146545Y0074058D01*
X0141117Y0074058D01*
X0136117Y0074058D01*
X0135063Y0073004D01*
X0135063Y0066788D01*
X0136117Y0065734D01*
X0136447Y0065734D01*
X0136627Y0065298D01*
X0137359Y0064567D01*
X0139059Y0062867D01*
X0140014Y0062471D01*
X0141048Y0062471D01*
X0141954Y0062471D01*
X0144944Y0059481D01*
X0144944Y0058857D01*
X0145229Y0058170D01*
X0144944Y0059405D02*
X0104374Y0059405D01*
X0103176Y0060603D02*
X0143822Y0060603D01*
X0142624Y0061802D02*
X0101977Y0061802D01*
X0100779Y0063000D02*
X0138925Y0063000D01*
X0137727Y0064198D02*
X0099580Y0064198D01*
X0098382Y0065397D02*
X0136586Y0065397D01*
X0135256Y0066595D02*
X0107407Y0066595D01*
X0107600Y0067794D02*
X0135063Y0067794D01*
X0135063Y0068992D02*
X0107600Y0068992D01*
X0107600Y0070191D02*
X0135063Y0070191D01*
X0135063Y0071389D02*
X0107600Y0071389D01*
X0107600Y0072587D02*
X0135063Y0072587D01*
X0135845Y0073786D02*
X0106817Y0073786D01*
X0095760Y0074984D02*
X0186061Y0074984D01*
X0185565Y0073786D02*
X0146817Y0073786D01*
X0147600Y0072587D02*
X0185491Y0072587D01*
X0187603Y0067794D02*
X0198231Y0067794D01*
X0198231Y0068992D02*
X0193293Y0068992D01*
X0194363Y0070191D02*
X0198231Y0070191D01*
X0198231Y0071389D02*
X0194859Y0071389D01*
X0194996Y0072587D02*
X0198231Y0072587D01*
X0198231Y0073786D02*
X0194924Y0073786D01*
X0194427Y0074984D02*
X0198231Y0074984D01*
X0198231Y0066595D02*
X0195261Y0066595D01*
X0196670Y0065397D02*
X0198231Y0065397D01*
X0198231Y0064198D02*
X0197306Y0064198D01*
X0197603Y0063000D02*
X0198231Y0063000D01*
X0198231Y0061802D02*
X0197603Y0061802D01*
X0197164Y0060603D02*
X0198231Y0060603D01*
X0198231Y0059405D02*
X0196330Y0059405D01*
X0195280Y0058206D02*
X0198231Y0058206D01*
X0198231Y0057008D02*
X0194145Y0057008D01*
X0195975Y0055809D02*
X0198231Y0055809D01*
X0198231Y0054611D02*
X0196898Y0054611D01*
X0197324Y0053413D02*
X0198231Y0053413D01*
X0198231Y0052214D02*
X0197401Y0052214D01*
X0197122Y0051016D02*
X0198231Y0051016D01*
X0198231Y0049817D02*
X0196434Y0049817D01*
X0194905Y0048619D02*
X0198231Y0048619D01*
X0198231Y0047420D02*
X0175119Y0047420D01*
X0174980Y0048619D02*
X0191157Y0048619D01*
X0192745Y0048619D02*
X0193317Y0048619D01*
X0193317Y0049817D02*
X0192745Y0049817D01*
X0192745Y0051016D02*
X0193317Y0051016D01*
X0193317Y0052214D02*
X0192745Y0052214D01*
X0189628Y0049817D02*
X0174358Y0049817D01*
X0174855Y0046222D02*
X0198231Y0046222D01*
X0198231Y0045024D02*
X0174057Y0045024D01*
X0166463Y0043825D02*
X0198231Y0043825D01*
X0198231Y0042627D02*
X0165264Y0042627D01*
X0164066Y0041428D02*
X0198231Y0041428D01*
X0198231Y0040230D02*
X0193400Y0040230D01*
X0194408Y0039031D02*
X0198231Y0039031D01*
X0198231Y0037833D02*
X0194904Y0037833D01*
X0194996Y0036635D02*
X0198231Y0036635D01*
X0198231Y0035436D02*
X0194879Y0035436D01*
X0194383Y0034238D02*
X0198231Y0034238D01*
X0198231Y0033039D02*
X0193340Y0033039D01*
X0195147Y0030643D02*
X0198231Y0030643D01*
X0198231Y0031841D02*
X0183320Y0031841D01*
X0182743Y0031841D02*
X0154478Y0031841D01*
X0153280Y0030643D02*
X0178752Y0030643D01*
X0179208Y0029444D02*
X0152081Y0029444D01*
X0150883Y0028246D02*
X0154030Y0028246D01*
X0152831Y0027047D02*
X0149685Y0027047D01*
X0148486Y0025849D02*
X0151633Y0025849D01*
X0150434Y0024650D02*
X0147288Y0024650D01*
X0146089Y0023452D02*
X0149236Y0023452D01*
X0148037Y0022254D02*
X0146025Y0022254D01*
X0146631Y0021055D02*
X0147125Y0021055D01*
X0153446Y0019857D02*
X0154216Y0019857D01*
X0154193Y0021055D02*
X0178460Y0021055D01*
X0178460Y0022254D02*
X0155391Y0022254D01*
X0156589Y0023452D02*
X0178863Y0023452D01*
X0178793Y0019857D02*
X0157296Y0019857D01*
X0157400Y0018658D02*
X0179479Y0018658D01*
X0181010Y0017460D02*
X0157400Y0017460D01*
X0157400Y0016261D02*
X0188460Y0016261D01*
X0188460Y0015661D02*
X0189156Y0013981D01*
X0190442Y0012695D01*
X0192122Y0011999D01*
X0193941Y0011999D01*
X0195621Y0012695D01*
X0196907Y0013981D01*
X0197603Y0015661D01*
X0197603Y0017480D01*
X0196907Y0019160D01*
X0195621Y0020446D01*
X0193941Y0021142D01*
X0192122Y0021142D01*
X0190442Y0020446D01*
X0189156Y0019160D01*
X0188460Y0017480D01*
X0188460Y0015661D01*
X0188707Y0015063D02*
X0157400Y0015063D01*
X0157261Y0013865D02*
X0189272Y0013865D01*
X0190512Y0012666D02*
X0151763Y0012666D01*
X0150180Y0011468D02*
X0198231Y0011468D01*
X0198231Y0012666D02*
X0195550Y0012666D01*
X0196790Y0013865D02*
X0198231Y0013865D01*
X0198231Y0015063D02*
X0197355Y0015063D01*
X0197603Y0016261D02*
X0198231Y0016261D01*
X0198231Y0017460D02*
X0197603Y0017460D01*
X0197115Y0018658D02*
X0198231Y0018658D01*
X0198231Y0019857D02*
X0196210Y0019857D01*
X0198231Y0021055D02*
X0194151Y0021055D01*
X0194555Y0022254D02*
X0198231Y0022254D01*
X0198231Y0023452D02*
X0196378Y0023452D01*
X0197184Y0024650D02*
X0198231Y0024650D01*
X0198231Y0025849D02*
X0197603Y0025849D01*
X0197603Y0027047D02*
X0198231Y0027047D01*
X0198231Y0028246D02*
X0197286Y0028246D01*
X0196623Y0029444D02*
X0198231Y0029444D01*
X0190916Y0030643D02*
X0187310Y0030643D01*
X0186854Y0029444D02*
X0189440Y0029444D01*
X0189685Y0023452D02*
X0187200Y0023452D01*
X0187603Y0022254D02*
X0191507Y0022254D01*
X0191912Y0021055D02*
X0187603Y0021055D01*
X0187269Y0019857D02*
X0189852Y0019857D01*
X0188948Y0018658D02*
X0186584Y0018658D01*
X0185052Y0017460D02*
X0188460Y0017460D01*
X0183317Y0033039D02*
X0182745Y0033039D01*
X0182745Y0034238D02*
X0183317Y0034238D01*
X0183317Y0035436D02*
X0182745Y0035436D01*
X0180989Y0035436D02*
X0158074Y0035436D01*
X0156875Y0034238D02*
X0179566Y0034238D01*
X0178912Y0033039D02*
X0155677Y0033039D01*
X0159272Y0036635D02*
X0185491Y0036635D01*
X0185584Y0037833D02*
X0160470Y0037833D01*
X0161669Y0039031D02*
X0186080Y0039031D01*
X0187088Y0040230D02*
X0162867Y0040230D01*
X0185074Y0035436D02*
X0185608Y0035436D01*
X0188153Y0051016D02*
X0188940Y0051016D01*
X0187991Y0058206D02*
X0187603Y0058206D01*
X0187220Y0059405D02*
X0189189Y0059405D01*
X0188898Y0060603D02*
X0186464Y0060603D01*
X0184763Y0061802D02*
X0188460Y0061802D01*
X0188460Y0063000D02*
X0183943Y0063000D01*
X0182120Y0063000D02*
X0156115Y0063000D01*
X0156611Y0061802D02*
X0181300Y0061802D01*
X0179599Y0060603D02*
X0156619Y0060603D01*
X0156224Y0059405D02*
X0178843Y0059405D01*
X0178460Y0058206D02*
X0155240Y0058206D01*
X0154854Y0064198D02*
X0179939Y0064198D01*
X0178983Y0065397D02*
X0152382Y0065397D01*
X0151183Y0066595D02*
X0178487Y0066595D01*
X0178460Y0067794D02*
X0149985Y0067794D01*
X0148787Y0068992D02*
X0178672Y0068992D01*
X0179186Y0070191D02*
X0147600Y0070191D01*
X0147600Y0071389D02*
X0180385Y0071389D01*
X0187575Y0066595D02*
X0190802Y0066595D01*
X0189393Y0065397D02*
X0187079Y0065397D01*
X0186124Y0064198D02*
X0188757Y0064198D01*
X0198231Y0084370D02*
X0140831Y0084370D01*
X0140831Y0151271D01*
X0198231Y0151271D01*
X0198231Y0084370D01*
X0198231Y0084572D02*
X0140831Y0084572D01*
X0140831Y0085770D02*
X0153179Y0085770D01*
X0154194Y0085350D02*
X0156869Y0085350D01*
X0159339Y0086373D01*
X0161229Y0088263D01*
X0162252Y0090733D01*
X0162252Y0093408D01*
X0161229Y0095878D01*
X0159339Y0097769D01*
X0156869Y0098792D01*
X0154194Y0098792D01*
X0151724Y0097769D01*
X0149833Y0095878D01*
X0148810Y0093408D01*
X0148810Y0090733D01*
X0149833Y0088263D01*
X0151724Y0086373D01*
X0154194Y0085350D01*
X0151128Y0086969D02*
X0140831Y0086969D01*
X0140831Y0088167D02*
X0149930Y0088167D01*
X0149377Y0089365D02*
X0140831Y0089365D01*
X0140831Y0090564D02*
X0148880Y0090564D01*
X0148810Y0091762D02*
X0140831Y0091762D01*
X0140831Y0092961D02*
X0148810Y0092961D01*
X0149122Y0094159D02*
X0140831Y0094159D01*
X0140831Y0095357D02*
X0149618Y0095357D01*
X0150511Y0096556D02*
X0140831Y0096556D01*
X0140831Y0097754D02*
X0151710Y0097754D01*
X0152146Y0101156D02*
X0150352Y0101156D01*
X0149945Y0101265D01*
X0149580Y0101476D01*
X0149283Y0101773D01*
X0149072Y0102138D01*
X0148963Y0102545D01*
X0148963Y0104339D01*
X0152144Y0104339D01*
X0152144Y0105109D01*
X0148963Y0105109D01*
X0148963Y0106904D01*
X0149072Y0107310D01*
X0149283Y0107675D01*
X0149537Y0107930D01*
X0148763Y0108703D01*
X0148763Y0114131D01*
X0149817Y0115185D01*
X0149931Y0115185D01*
X0149931Y0116088D01*
X0150327Y0117043D01*
X0151059Y0117775D01*
X0155535Y0122251D01*
X0154264Y0121724D01*
X0152373Y0121724D01*
X0150626Y0122448D01*
X0149290Y0123785D01*
X0148566Y0125531D01*
X0148566Y0127422D01*
X0149290Y0129169D01*
X0150626Y0130506D01*
X0152373Y0131230D01*
X0154264Y0131230D01*
X0156011Y0130506D01*
X0156034Y0130483D01*
X0155960Y0130661D01*
X0155960Y0132480D01*
X0156656Y0134160D01*
X0157942Y0135446D01*
X0159622Y0136142D01*
X0161441Y0136142D01*
X0162579Y0135670D01*
X0166779Y0135670D01*
X0166779Y0137029D01*
X0167067Y0137317D01*
X0166979Y0137647D01*
X0166979Y0139818D01*
X0170930Y0139818D01*
X0170930Y0141016D01*
X0166979Y0141016D01*
X0166979Y0143187D01*
X0167088Y0143594D01*
X0167298Y0143959D01*
X0167596Y0144256D01*
X0167961Y0144467D01*
X0168368Y0144576D01*
X0170932Y0144576D01*
X0170932Y0141019D01*
X0172130Y0141019D01*
X0172130Y0144576D01*
X0174695Y0144576D01*
X0175102Y0144467D01*
X0175467Y0144256D01*
X0175764Y0143959D01*
X0175975Y0143594D01*
X0176084Y0143187D01*
X0176084Y0141016D01*
X0172133Y0141016D01*
X0172133Y0139818D01*
X0176084Y0139818D01*
X0176084Y0137647D01*
X0175995Y0137317D01*
X0176284Y0137029D01*
X0176284Y0130420D01*
X0175230Y0129365D01*
X0167833Y0129365D01*
X0166779Y0130420D01*
X0166779Y0130471D01*
X0165024Y0130471D01*
X0164407Y0128981D01*
X0163131Y0127706D01*
X0163131Y0124088D01*
X0163131Y0123054D01*
X0162735Y0122098D01*
X0155534Y0114896D01*
X0156300Y0114131D01*
X0156300Y0113670D01*
X0162945Y0113670D01*
X0163053Y0113779D01*
X0164661Y0114445D01*
X0166402Y0114445D01*
X0168009Y0113779D01*
X0169240Y0112549D01*
X0169906Y0110941D01*
X0169906Y0109200D01*
X0169240Y0107593D01*
X0168009Y0106362D01*
X0166402Y0105696D01*
X0164661Y0105696D01*
X0163053Y0106362D01*
X0161823Y0107593D01*
X0161459Y0108471D01*
X0156067Y0108471D01*
X0155526Y0107930D01*
X0155780Y0107675D01*
X0155991Y0107310D01*
X0156100Y0106904D01*
X0156100Y0105109D01*
X0152918Y0105109D01*
X0152918Y0104339D01*
X0156100Y0104339D01*
X0156100Y0102545D01*
X0155991Y0102138D01*
X0155780Y0101773D01*
X0155482Y0101476D01*
X0155117Y0101265D01*
X0154711Y0101156D01*
X0152916Y0101156D01*
X0152916Y0104337D01*
X0152146Y0104337D01*
X0152146Y0101156D01*
X0152146Y0101350D02*
X0152916Y0101350D01*
X0152916Y0102548D02*
X0152146Y0102548D01*
X0152146Y0103746D02*
X0152916Y0103746D01*
X0152918Y0104945D02*
X0198231Y0104945D01*
X0198231Y0103746D02*
X0177513Y0103746D01*
X0177719Y0103641D02*
X0177134Y0103939D01*
X0176509Y0104143D01*
X0175860Y0104245D01*
X0175719Y0104245D01*
X0175719Y0100261D01*
X0175343Y0100261D01*
X0175343Y0104245D01*
X0175203Y0104245D01*
X0174554Y0104143D01*
X0173929Y0103939D01*
X0173343Y0103641D01*
X0172812Y0103255D01*
X0172347Y0102790D01*
X0171961Y0102259D01*
X0171663Y0101673D01*
X0171459Y0101048D01*
X0171357Y0100399D01*
X0171357Y0100258D01*
X0175341Y0100258D01*
X0175341Y0099883D01*
X0171357Y0099883D01*
X0171357Y0099742D01*
X0171459Y0099093D01*
X0171663Y0098468D01*
X0171961Y0097883D01*
X0172347Y0097351D01*
X0172812Y0096886D01*
X0173343Y0096500D01*
X0173929Y0096202D01*
X0174554Y0095999D01*
X0175203Y0095896D01*
X0175343Y0095896D01*
X0175343Y0099881D01*
X0175719Y0099881D01*
X0175719Y0095896D01*
X0175860Y0095896D01*
X0176509Y0095999D01*
X0177134Y0096202D01*
X0177719Y0096500D01*
X0178251Y0096886D01*
X0178716Y0097351D01*
X0179102Y0097883D01*
X0179400Y0098468D01*
X0179603Y0099093D01*
X0179706Y0099742D01*
X0179706Y0099883D01*
X0175721Y0099883D01*
X0175721Y0100258D01*
X0179706Y0100258D01*
X0179706Y0100399D01*
X0179603Y0101048D01*
X0179400Y0101673D01*
X0179102Y0102259D01*
X0178716Y0102790D01*
X0178251Y0103255D01*
X0177719Y0103641D01*
X0178892Y0102548D02*
X0198231Y0102548D01*
X0198231Y0101350D02*
X0179506Y0101350D01*
X0179557Y0098953D02*
X0198231Y0098953D01*
X0198231Y0100151D02*
X0175721Y0100151D01*
X0175341Y0100151D02*
X0140831Y0100151D01*
X0140831Y0098953D02*
X0171505Y0098953D01*
X0172054Y0097754D02*
X0159353Y0097754D01*
X0160551Y0096556D02*
X0173267Y0096556D01*
X0175343Y0096556D02*
X0175719Y0096556D01*
X0175719Y0097754D02*
X0175343Y0097754D01*
X0175343Y0098953D02*
X0175719Y0098953D01*
X0177796Y0096556D02*
X0198231Y0096556D01*
X0198231Y0095357D02*
X0161445Y0095357D01*
X0161941Y0094159D02*
X0198231Y0094159D01*
X0198231Y0092961D02*
X0162252Y0092961D01*
X0162252Y0091762D02*
X0198231Y0091762D01*
X0198231Y0090564D02*
X0162182Y0090564D01*
X0161685Y0089365D02*
X0198231Y0089365D01*
X0198231Y0088167D02*
X0161133Y0088167D01*
X0159934Y0086969D02*
X0198231Y0086969D01*
X0198231Y0085770D02*
X0157883Y0085770D01*
X0155264Y0101350D02*
X0171557Y0101350D01*
X0172171Y0102548D02*
X0156100Y0102548D01*
X0156100Y0103746D02*
X0173550Y0103746D01*
X0175343Y0103746D02*
X0175719Y0103746D01*
X0175719Y0102548D02*
X0175343Y0102548D01*
X0175343Y0101350D02*
X0175719Y0101350D01*
X0179008Y0097754D02*
X0198231Y0097754D01*
X0198231Y0106143D02*
X0187481Y0106143D01*
X0188009Y0106362D02*
X0189240Y0107593D01*
X0189906Y0109200D01*
X0189906Y0110941D01*
X0189240Y0112549D01*
X0188009Y0113779D01*
X0186402Y0114445D01*
X0184661Y0114445D01*
X0183053Y0113779D01*
X0181823Y0112549D01*
X0181157Y0110941D01*
X0181157Y0109200D01*
X0181823Y0107593D01*
X0183053Y0106362D01*
X0184661Y0105696D01*
X0186402Y0105696D01*
X0188009Y0106362D01*
X0188989Y0107342D02*
X0198231Y0107342D01*
X0198231Y0108540D02*
X0189632Y0108540D01*
X0189906Y0109739D02*
X0198231Y0109739D01*
X0198231Y0110937D02*
X0189906Y0110937D01*
X0189411Y0112135D02*
X0198231Y0112135D01*
X0198231Y0113334D02*
X0188455Y0113334D01*
X0182608Y0113334D02*
X0168455Y0113334D01*
X0169411Y0112135D02*
X0181652Y0112135D01*
X0181157Y0110937D02*
X0169906Y0110937D01*
X0169906Y0109739D02*
X0181157Y0109739D01*
X0181430Y0108540D02*
X0169632Y0108540D01*
X0168989Y0107342D02*
X0182074Y0107342D01*
X0183581Y0106143D02*
X0167481Y0106143D01*
X0163581Y0106143D02*
X0156100Y0106143D01*
X0155972Y0107342D02*
X0162074Y0107342D01*
X0155898Y0114532D02*
X0198231Y0114532D01*
X0198231Y0115731D02*
X0176485Y0115731D01*
X0176402Y0115696D02*
X0178009Y0116362D01*
X0179240Y0117593D01*
X0179906Y0119200D01*
X0179906Y0120941D01*
X0179240Y0122549D01*
X0178009Y0123779D01*
X0176402Y0124445D01*
X0174661Y0124445D01*
X0173053Y0123779D01*
X0171823Y0122549D01*
X0171157Y0120941D01*
X0171157Y0119200D01*
X0171823Y0117593D01*
X0173053Y0116362D01*
X0174661Y0115696D01*
X0176402Y0115696D01*
X0174577Y0115731D02*
X0156368Y0115731D01*
X0157567Y0116929D02*
X0172486Y0116929D01*
X0171601Y0118128D02*
X0158765Y0118128D01*
X0159963Y0119326D02*
X0171157Y0119326D01*
X0171157Y0120524D02*
X0161162Y0120524D01*
X0162360Y0121723D02*
X0171481Y0121723D01*
X0172195Y0122921D02*
X0163076Y0122921D01*
X0163131Y0124120D02*
X0173875Y0124120D01*
X0177188Y0124120D02*
X0198231Y0124120D01*
X0198231Y0125318D02*
X0163131Y0125318D01*
X0163131Y0126517D02*
X0198231Y0126517D01*
X0198231Y0127715D02*
X0163140Y0127715D01*
X0164339Y0128913D02*
X0198231Y0128913D01*
X0198231Y0130112D02*
X0175976Y0130112D01*
X0176284Y0131310D02*
X0198231Y0131310D01*
X0198231Y0132509D02*
X0176284Y0132509D01*
X0176284Y0133707D02*
X0198231Y0133707D01*
X0198231Y0134906D02*
X0189210Y0134906D01*
X0190339Y0135373D02*
X0192229Y0137263D01*
X0193252Y0139733D01*
X0193252Y0142408D01*
X0192229Y0144878D01*
X0190339Y0146769D01*
X0187869Y0147792D01*
X0185194Y0147792D01*
X0182724Y0146769D01*
X0180833Y0144878D01*
X0179810Y0142408D01*
X0179810Y0139733D01*
X0180833Y0137263D01*
X0182724Y0135373D01*
X0185194Y0134350D01*
X0187869Y0134350D01*
X0190339Y0135373D01*
X0191070Y0136104D02*
X0198231Y0136104D01*
X0198231Y0137302D02*
X0192245Y0137302D01*
X0192741Y0138501D02*
X0198231Y0138501D01*
X0198231Y0139699D02*
X0193238Y0139699D01*
X0193252Y0140898D02*
X0198231Y0140898D01*
X0198231Y0142096D02*
X0193252Y0142096D01*
X0192885Y0143294D02*
X0198231Y0143294D01*
X0198231Y0144493D02*
X0192389Y0144493D01*
X0191416Y0145691D02*
X0198231Y0145691D01*
X0198231Y0146890D02*
X0190046Y0146890D01*
X0183017Y0146890D02*
X0154903Y0146890D01*
X0154903Y0146915D02*
X0154795Y0147594D01*
X0154583Y0148249D01*
X0154270Y0148862D01*
X0153866Y0149419D01*
X0153379Y0149905D01*
X0152822Y0150309D01*
X0152209Y0150622D01*
X0151555Y0150835D01*
X0150876Y0150942D01*
X0150817Y0150942D01*
X0150817Y0146859D01*
X0150245Y0146859D01*
X0150245Y0150942D01*
X0150187Y0150942D01*
X0149507Y0150835D01*
X0148853Y0150622D01*
X0148240Y0150309D01*
X0147683Y0149905D01*
X0147197Y0149419D01*
X0146793Y0148862D01*
X0146480Y0148249D01*
X0146267Y0147594D01*
X0146160Y0146915D01*
X0146160Y0146857D01*
X0150243Y0146857D01*
X0150243Y0146284D01*
X0146160Y0146284D01*
X0146160Y0146226D01*
X0146267Y0145547D01*
X0146480Y0144893D01*
X0146793Y0144280D01*
X0147197Y0143723D01*
X0147683Y0143236D01*
X0148240Y0142832D01*
X0148853Y0142519D01*
X0149507Y0142307D01*
X0150187Y0142199D01*
X0150245Y0142199D01*
X0150245Y0146282D01*
X0150817Y0146282D01*
X0150817Y0142199D01*
X0150876Y0142199D01*
X0151555Y0142307D01*
X0152209Y0142519D01*
X0152822Y0142832D01*
X0153379Y0143236D01*
X0153866Y0143723D01*
X0154270Y0144280D01*
X0154583Y0144893D01*
X0154795Y0145547D01*
X0154903Y0146226D01*
X0154903Y0146284D01*
X0150820Y0146284D01*
X0150820Y0146857D01*
X0154903Y0146857D01*
X0154903Y0146915D01*
X0154635Y0148088D02*
X0198231Y0148088D01*
X0198231Y0149287D02*
X0153962Y0149287D01*
X0152478Y0150485D02*
X0198231Y0150485D01*
X0181647Y0145691D02*
X0162529Y0145691D01*
X0163121Y0145446D02*
X0161441Y0146142D01*
X0159622Y0146142D01*
X0157942Y0145446D01*
X0156656Y0144160D01*
X0155960Y0142480D01*
X0155960Y0140661D01*
X0156656Y0138981D01*
X0157942Y0137695D01*
X0159622Y0136999D01*
X0161441Y0136999D01*
X0163121Y0137695D01*
X0164407Y0138981D01*
X0165103Y0140661D01*
X0165103Y0142480D01*
X0164407Y0144160D01*
X0163121Y0145446D01*
X0164074Y0144493D02*
X0168058Y0144493D01*
X0167008Y0143294D02*
X0164766Y0143294D01*
X0165103Y0142096D02*
X0166979Y0142096D01*
X0165103Y0140898D02*
X0170930Y0140898D01*
X0170932Y0142096D02*
X0172130Y0142096D01*
X0172133Y0140898D02*
X0179810Y0140898D01*
X0179810Y0142096D02*
X0176084Y0142096D01*
X0176055Y0143294D02*
X0180178Y0143294D01*
X0180674Y0144493D02*
X0175005Y0144493D01*
X0172130Y0144493D02*
X0170932Y0144493D01*
X0170932Y0143294D02*
X0172130Y0143294D01*
X0176084Y0139699D02*
X0179824Y0139699D01*
X0180321Y0138501D02*
X0176084Y0138501D01*
X0176010Y0137302D02*
X0180817Y0137302D01*
X0181993Y0136104D02*
X0176284Y0136104D01*
X0176284Y0134906D02*
X0183852Y0134906D01*
X0178867Y0122921D02*
X0198231Y0122921D01*
X0198231Y0121723D02*
X0179582Y0121723D01*
X0179906Y0120524D02*
X0198231Y0120524D01*
X0198231Y0119326D02*
X0179906Y0119326D01*
X0179461Y0118128D02*
X0198231Y0118128D01*
X0198231Y0116929D02*
X0178576Y0116929D01*
X0167087Y0130112D02*
X0164875Y0130112D01*
X0166779Y0136104D02*
X0161533Y0136104D01*
X0162172Y0137302D02*
X0167052Y0137302D01*
X0166979Y0138501D02*
X0163926Y0138501D01*
X0164704Y0139699D02*
X0166979Y0139699D01*
X0159530Y0136104D02*
X0155103Y0136104D01*
X0155103Y0135661D02*
X0154407Y0133981D01*
X0153121Y0132695D01*
X0151441Y0131999D01*
X0149622Y0131999D01*
X0147942Y0132695D01*
X0146656Y0133981D01*
X0145960Y0135661D01*
X0145960Y0137480D01*
X0146656Y0139160D01*
X0147942Y0140446D01*
X0149622Y0141142D01*
X0151441Y0141142D01*
X0153121Y0140446D01*
X0154407Y0139160D01*
X0155103Y0137480D01*
X0155103Y0135661D01*
X0154789Y0134906D02*
X0157401Y0134906D01*
X0156469Y0133707D02*
X0154133Y0133707D01*
X0152670Y0132509D02*
X0155972Y0132509D01*
X0155960Y0131310D02*
X0140831Y0131310D01*
X0140831Y0130112D02*
X0150232Y0130112D01*
X0149184Y0128913D02*
X0140831Y0128913D01*
X0140831Y0127715D02*
X0148687Y0127715D01*
X0148566Y0126517D02*
X0140831Y0126517D01*
X0140831Y0125318D02*
X0148654Y0125318D01*
X0149151Y0124120D02*
X0140831Y0124120D01*
X0140831Y0122921D02*
X0150153Y0122921D01*
X0153808Y0120524D02*
X0140831Y0120524D01*
X0140831Y0119326D02*
X0152610Y0119326D01*
X0151411Y0118128D02*
X0140831Y0118128D01*
X0140831Y0116929D02*
X0150280Y0116929D01*
X0149931Y0115731D02*
X0140831Y0115731D01*
X0140831Y0114532D02*
X0149164Y0114532D01*
X0148763Y0113334D02*
X0140831Y0113334D01*
X0140831Y0112135D02*
X0148763Y0112135D01*
X0148763Y0110937D02*
X0140831Y0110937D01*
X0140831Y0109739D02*
X0148763Y0109739D01*
X0148926Y0108540D02*
X0140831Y0108540D01*
X0140831Y0107342D02*
X0149091Y0107342D01*
X0148963Y0106143D02*
X0140831Y0106143D01*
X0140831Y0104945D02*
X0152144Y0104945D01*
X0148963Y0103746D02*
X0140831Y0103746D01*
X0140831Y0102548D02*
X0148963Y0102548D01*
X0149798Y0101350D02*
X0140831Y0101350D01*
X0132231Y0101350D02*
X0110006Y0101350D01*
X0110103Y0101048D02*
X0109900Y0101673D01*
X0109602Y0102259D01*
X0109216Y0102790D01*
X0108751Y0103255D01*
X0108219Y0103641D01*
X0107634Y0103939D01*
X0107009Y0104143D01*
X0106360Y0104245D01*
X0106219Y0104245D01*
X0106219Y0100261D01*
X0105843Y0100261D01*
X0105843Y0104245D01*
X0105703Y0104245D01*
X0105054Y0104143D01*
X0104429Y0103939D01*
X0103843Y0103641D01*
X0103312Y0103255D01*
X0102847Y0102790D01*
X0102461Y0102259D01*
X0102163Y0101673D01*
X0101959Y0101048D01*
X0101857Y0100399D01*
X0101857Y0100258D01*
X0105841Y0100258D01*
X0105841Y0099883D01*
X0101857Y0099883D01*
X0101857Y0099742D01*
X0101959Y0099093D01*
X0102163Y0098468D01*
X0102461Y0097883D01*
X0102847Y0097351D01*
X0103312Y0096886D01*
X0103843Y0096500D01*
X0104429Y0096202D01*
X0105054Y0095999D01*
X0105703Y0095896D01*
X0105843Y0095896D01*
X0105843Y0099881D01*
X0106219Y0099881D01*
X0106219Y0095896D01*
X0106360Y0095896D01*
X0107009Y0095999D01*
X0107634Y0096202D01*
X0108219Y0096500D01*
X0108751Y0096886D01*
X0109216Y0097351D01*
X0109602Y0097883D01*
X0109900Y0098468D01*
X0110103Y0099093D01*
X0110206Y0099742D01*
X0110206Y0099883D01*
X0106221Y0099883D01*
X0106221Y0100258D01*
X0110206Y0100258D01*
X0110206Y0100399D01*
X0110103Y0101048D01*
X0109392Y0102548D02*
X0132231Y0102548D01*
X0132231Y0103746D02*
X0108013Y0103746D01*
X0106219Y0103746D02*
X0105843Y0103746D01*
X0105843Y0102548D02*
X0106219Y0102548D01*
X0106219Y0101350D02*
X0105843Y0101350D01*
X0105841Y0100151D02*
X0070331Y0100151D01*
X0070331Y0098953D02*
X0102005Y0098953D01*
X0102554Y0097754D02*
X0089853Y0097754D01*
X0089839Y0097769D02*
X0087369Y0098792D01*
X0084694Y0098792D01*
X0082224Y0097769D01*
X0080333Y0095878D01*
X0079310Y0093408D01*
X0079310Y0090733D01*
X0080333Y0088263D01*
X0082224Y0086373D01*
X0084694Y0085350D01*
X0087369Y0085350D01*
X0089839Y0086373D01*
X0091729Y0088263D01*
X0092752Y0090733D01*
X0092752Y0093408D01*
X0091729Y0095878D01*
X0089839Y0097769D01*
X0091051Y0096556D02*
X0103767Y0096556D01*
X0105843Y0096556D02*
X0106219Y0096556D01*
X0106219Y0097754D02*
X0105843Y0097754D01*
X0105843Y0098953D02*
X0106219Y0098953D01*
X0106221Y0100151D02*
X0132231Y0100151D01*
X0132231Y0098953D02*
X0110057Y0098953D01*
X0109508Y0097754D02*
X0132231Y0097754D01*
X0132231Y0096556D02*
X0108296Y0096556D01*
X0102057Y0101350D02*
X0085764Y0101350D01*
X0085617Y0101265D02*
X0085982Y0101476D01*
X0086280Y0101773D01*
X0086491Y0102138D01*
X0086600Y0102545D01*
X0086600Y0104339D01*
X0083418Y0104339D01*
X0083418Y0105109D01*
X0086600Y0105109D01*
X0086600Y0106904D01*
X0086491Y0107310D01*
X0086280Y0107675D01*
X0086026Y0107930D01*
X0086067Y0107971D01*
X0092166Y0107971D01*
X0092323Y0107593D01*
X0093553Y0106362D01*
X0095161Y0105696D01*
X0096902Y0105696D01*
X0098509Y0106362D01*
X0099740Y0107593D01*
X0100406Y0109200D01*
X0100406Y0110941D01*
X0099740Y0112549D01*
X0098509Y0113779D01*
X0096902Y0114445D01*
X0095161Y0114445D01*
X0093553Y0113779D01*
X0092944Y0113170D01*
X0086800Y0113170D01*
X0086800Y0114131D01*
X0086034Y0114896D01*
X0093235Y0122098D01*
X0093631Y0123054D01*
X0093631Y0124088D01*
X0093631Y0127706D01*
X0094907Y0128981D01*
X0095524Y0130471D01*
X0097279Y0130471D01*
X0097279Y0130420D01*
X0098333Y0129365D01*
X0105730Y0129365D01*
X0106784Y0130420D01*
X0106784Y0137029D01*
X0106495Y0137317D01*
X0106584Y0137647D01*
X0106584Y0139818D01*
X0102633Y0139818D01*
X0102633Y0141016D01*
X0106584Y0141016D01*
X0106584Y0143187D01*
X0106475Y0143594D01*
X0106264Y0143959D01*
X0105967Y0144256D01*
X0105602Y0144467D01*
X0105195Y0144576D01*
X0102630Y0144576D01*
X0102630Y0141019D01*
X0101432Y0141019D01*
X0101432Y0144576D01*
X0098868Y0144576D01*
X0098461Y0144467D01*
X0098096Y0144256D01*
X0097798Y0143959D01*
X0097588Y0143594D01*
X0097479Y0143187D01*
X0097479Y0141016D01*
X0101430Y0141016D01*
X0101430Y0139818D01*
X0097479Y0139818D01*
X0097479Y0137647D01*
X0097567Y0137317D01*
X0097279Y0137029D01*
X0097279Y0135670D01*
X0093079Y0135670D01*
X0091941Y0136142D01*
X0090122Y0136142D01*
X0088442Y0135446D01*
X0087156Y0134160D01*
X0086460Y0132480D01*
X0086460Y0130661D01*
X0086534Y0130483D01*
X0086511Y0130506D01*
X0084764Y0131230D01*
X0082873Y0131230D01*
X0081126Y0130506D01*
X0079790Y0129169D01*
X0079066Y0127422D01*
X0079066Y0125531D01*
X0079790Y0123785D01*
X0081126Y0122448D01*
X0082873Y0121724D01*
X0084764Y0121724D01*
X0086035Y0122251D01*
X0081559Y0117775D01*
X0080827Y0117043D01*
X0080431Y0116088D01*
X0080431Y0115185D01*
X0080317Y0115185D01*
X0079263Y0114131D01*
X0079263Y0108703D01*
X0080037Y0107930D01*
X0079783Y0107675D01*
X0079572Y0107310D01*
X0079463Y0106904D01*
X0079463Y0105109D01*
X0082644Y0105109D01*
X0082644Y0104339D01*
X0079463Y0104339D01*
X0079463Y0102545D01*
X0079572Y0102138D01*
X0079783Y0101773D01*
X0080080Y0101476D01*
X0080445Y0101265D01*
X0080852Y0101156D01*
X0082646Y0101156D01*
X0082646Y0104337D01*
X0083416Y0104337D01*
X0083416Y0101156D01*
X0085211Y0101156D01*
X0085617Y0101265D01*
X0086600Y0102548D02*
X0102671Y0102548D01*
X0104050Y0103746D02*
X0086600Y0103746D01*
X0083416Y0103746D02*
X0082646Y0103746D01*
X0082646Y0102548D02*
X0083416Y0102548D01*
X0083416Y0101350D02*
X0082646Y0101350D01*
X0080298Y0101350D02*
X0070331Y0101350D01*
X0070331Y0102548D02*
X0079463Y0102548D01*
X0079463Y0103746D02*
X0070331Y0103746D01*
X0070331Y0104945D02*
X0082644Y0104945D01*
X0083418Y0104945D02*
X0132231Y0104945D01*
X0132231Y0106143D02*
X0117981Y0106143D01*
X0118509Y0106362D02*
X0119740Y0107593D01*
X0120406Y0109200D01*
X0120406Y0110941D01*
X0119740Y0112549D01*
X0118509Y0113779D01*
X0116902Y0114445D01*
X0115161Y0114445D01*
X0113553Y0113779D01*
X0112323Y0112549D01*
X0111657Y0110941D01*
X0111657Y0109200D01*
X0112323Y0107593D01*
X0113553Y0106362D01*
X0115161Y0105696D01*
X0116902Y0105696D01*
X0118509Y0106362D01*
X0119489Y0107342D02*
X0132231Y0107342D01*
X0132231Y0108540D02*
X0120132Y0108540D01*
X0120406Y0109739D02*
X0132231Y0109739D01*
X0132231Y0110937D02*
X0120406Y0110937D01*
X0119911Y0112135D02*
X0132231Y0112135D01*
X0132231Y0113334D02*
X0118955Y0113334D01*
X0113108Y0113334D02*
X0098955Y0113334D01*
X0099911Y0112135D02*
X0112152Y0112135D01*
X0111657Y0110937D02*
X0100406Y0110937D01*
X0100406Y0109739D02*
X0111657Y0109739D01*
X0111930Y0108540D02*
X0100132Y0108540D01*
X0099489Y0107342D02*
X0112574Y0107342D01*
X0114081Y0106143D02*
X0097981Y0106143D01*
X0094081Y0106143D02*
X0086600Y0106143D01*
X0086472Y0107342D02*
X0092574Y0107342D01*
X0093108Y0113334D02*
X0086800Y0113334D01*
X0086398Y0114532D02*
X0132231Y0114532D01*
X0132231Y0115731D02*
X0106985Y0115731D01*
X0106902Y0115696D02*
X0108509Y0116362D01*
X0109740Y0117593D01*
X0110406Y0119200D01*
X0110406Y0120941D01*
X0109740Y0122549D01*
X0108509Y0123779D01*
X0106902Y0124445D01*
X0105161Y0124445D01*
X0103553Y0123779D01*
X0102323Y0122549D01*
X0101657Y0120941D01*
X0101657Y0119200D01*
X0102323Y0117593D01*
X0103553Y0116362D01*
X0105161Y0115696D01*
X0106902Y0115696D01*
X0105077Y0115731D02*
X0086868Y0115731D01*
X0088067Y0116929D02*
X0102986Y0116929D01*
X0102101Y0118128D02*
X0089265Y0118128D01*
X0090463Y0119326D02*
X0101657Y0119326D01*
X0101657Y0120524D02*
X0091662Y0120524D01*
X0092860Y0121723D02*
X0101981Y0121723D01*
X0102695Y0122921D02*
X0093576Y0122921D01*
X0093631Y0124120D02*
X0104375Y0124120D01*
X0107688Y0124120D02*
X0132231Y0124120D01*
X0132231Y0125318D02*
X0093631Y0125318D01*
X0093631Y0126517D02*
X0132231Y0126517D01*
X0132231Y0127715D02*
X0093640Y0127715D01*
X0094839Y0128913D02*
X0132231Y0128913D01*
X0132231Y0130112D02*
X0106476Y0130112D01*
X0106784Y0131310D02*
X0132231Y0131310D01*
X0132231Y0132509D02*
X0106784Y0132509D01*
X0106784Y0133707D02*
X0132231Y0133707D01*
X0132231Y0134906D02*
X0119710Y0134906D01*
X0120839Y0135373D02*
X0118369Y0134350D01*
X0115694Y0134350D01*
X0113224Y0135373D01*
X0111333Y0137263D01*
X0110310Y0139733D01*
X0110310Y0142408D01*
X0111333Y0144878D01*
X0113224Y0146769D01*
X0115694Y0147792D01*
X0118369Y0147792D01*
X0120839Y0146769D01*
X0122729Y0144878D01*
X0123752Y0142408D01*
X0123752Y0139733D01*
X0122729Y0137263D01*
X0120839Y0135373D01*
X0121570Y0136104D02*
X0132231Y0136104D01*
X0132231Y0137302D02*
X0122745Y0137302D01*
X0123241Y0138501D02*
X0132231Y0138501D01*
X0132231Y0139699D02*
X0123738Y0139699D01*
X0123752Y0140898D02*
X0132231Y0140898D01*
X0132231Y0142096D02*
X0123752Y0142096D01*
X0123385Y0143294D02*
X0132231Y0143294D01*
X0132231Y0144493D02*
X0122889Y0144493D01*
X0121916Y0145691D02*
X0132231Y0145691D01*
X0132231Y0146890D02*
X0120546Y0146890D01*
X0113517Y0146890D02*
X0085403Y0146890D01*
X0085403Y0146915D02*
X0085295Y0147594D01*
X0085083Y0148249D01*
X0084770Y0148862D01*
X0084366Y0149419D01*
X0083879Y0149905D01*
X0083322Y0150309D01*
X0082709Y0150622D01*
X0082055Y0150835D01*
X0081376Y0150942D01*
X0081317Y0150942D01*
X0081317Y0146859D01*
X0080745Y0146859D01*
X0080745Y0150942D01*
X0080687Y0150942D01*
X0080007Y0150835D01*
X0079353Y0150622D01*
X0078740Y0150309D01*
X0078183Y0149905D01*
X0077697Y0149419D01*
X0077293Y0148862D01*
X0076980Y0148249D01*
X0076767Y0147594D01*
X0076660Y0146915D01*
X0076660Y0146857D01*
X0080743Y0146857D01*
X0080743Y0146284D01*
X0076660Y0146284D01*
X0076660Y0146226D01*
X0076767Y0145547D01*
X0076980Y0144893D01*
X0077293Y0144280D01*
X0077697Y0143723D01*
X0078183Y0143236D01*
X0078740Y0142832D01*
X0079353Y0142519D01*
X0080007Y0142307D01*
X0080687Y0142199D01*
X0080745Y0142199D01*
X0080745Y0146282D01*
X0081317Y0146282D01*
X0081317Y0142199D01*
X0081376Y0142199D01*
X0082055Y0142307D01*
X0082709Y0142519D01*
X0083322Y0142832D01*
X0083879Y0143236D01*
X0084366Y0143723D01*
X0084770Y0144280D01*
X0085083Y0144893D01*
X0085295Y0145547D01*
X0085403Y0146226D01*
X0085403Y0146284D01*
X0081320Y0146284D01*
X0081320Y0146857D01*
X0085403Y0146857D01*
X0085403Y0146915D01*
X0085135Y0148088D02*
X0132231Y0148088D01*
X0132231Y0149287D02*
X0084462Y0149287D01*
X0082978Y0150485D02*
X0132231Y0150485D01*
X0132231Y0151271D02*
X0132231Y0084370D01*
X0070331Y0084370D01*
X0070331Y0151271D01*
X0132231Y0151271D01*
X0140831Y0150485D02*
X0148585Y0150485D01*
X0150245Y0150485D02*
X0150817Y0150485D01*
X0150817Y0149287D02*
X0150245Y0149287D01*
X0150245Y0148088D02*
X0150817Y0148088D01*
X0150817Y0146890D02*
X0150245Y0146890D01*
X0150245Y0145691D02*
X0150817Y0145691D01*
X0150817Y0144493D02*
X0150245Y0144493D01*
X0150245Y0143294D02*
X0150817Y0143294D01*
X0153437Y0143294D02*
X0156297Y0143294D01*
X0155960Y0142096D02*
X0140831Y0142096D01*
X0140831Y0140898D02*
X0149032Y0140898D01*
X0147195Y0139699D02*
X0140831Y0139699D01*
X0140831Y0138501D02*
X0146383Y0138501D01*
X0145960Y0137302D02*
X0140831Y0137302D01*
X0140831Y0136104D02*
X0145960Y0136104D01*
X0146273Y0134906D02*
X0140831Y0134906D01*
X0140831Y0133707D02*
X0146930Y0133707D01*
X0148392Y0132509D02*
X0140831Y0132509D01*
X0152031Y0140898D02*
X0155960Y0140898D01*
X0156358Y0139699D02*
X0153868Y0139699D01*
X0154680Y0138501D02*
X0157136Y0138501D01*
X0158890Y0137302D02*
X0155103Y0137302D01*
X0147625Y0143294D02*
X0140831Y0143294D01*
X0140831Y0144493D02*
X0146683Y0144493D01*
X0146244Y0145691D02*
X0140831Y0145691D01*
X0140831Y0146890D02*
X0146160Y0146890D01*
X0146428Y0148088D02*
X0140831Y0148088D01*
X0140831Y0149287D02*
X0147101Y0149287D01*
X0154379Y0144493D02*
X0156989Y0144493D01*
X0158534Y0145691D02*
X0154818Y0145691D01*
X0132231Y0122921D02*
X0109367Y0122921D01*
X0110082Y0121723D02*
X0132231Y0121723D01*
X0132231Y0120524D02*
X0110406Y0120524D01*
X0110406Y0119326D02*
X0132231Y0119326D01*
X0132231Y0118128D02*
X0109961Y0118128D01*
X0109076Y0116929D02*
X0132231Y0116929D01*
X0140831Y0121723D02*
X0155007Y0121723D01*
X0132231Y0095357D02*
X0091945Y0095357D01*
X0092441Y0094159D02*
X0132231Y0094159D01*
X0132231Y0092961D02*
X0092752Y0092961D01*
X0092752Y0091762D02*
X0132231Y0091762D01*
X0132231Y0090564D02*
X0092682Y0090564D01*
X0092185Y0089365D02*
X0132231Y0089365D01*
X0132231Y0088167D02*
X0091633Y0088167D01*
X0090434Y0086969D02*
X0132231Y0086969D01*
X0132231Y0085770D02*
X0088383Y0085770D01*
X0083679Y0085770D02*
X0070331Y0085770D01*
X0070331Y0084572D02*
X0132231Y0084572D01*
X0085507Y0121723D02*
X0070331Y0121723D01*
X0070331Y0120524D02*
X0084309Y0120524D01*
X0083110Y0119326D02*
X0070331Y0119326D01*
X0070331Y0118128D02*
X0081912Y0118128D01*
X0080780Y0116929D02*
X0070331Y0116929D01*
X0070331Y0115731D02*
X0080431Y0115731D01*
X0079664Y0114532D02*
X0070331Y0114532D01*
X0070331Y0113334D02*
X0079263Y0113334D01*
X0079263Y0112135D02*
X0070331Y0112135D01*
X0070331Y0110937D02*
X0079263Y0110937D01*
X0079263Y0109739D02*
X0070331Y0109739D01*
X0070331Y0108540D02*
X0079426Y0108540D01*
X0079591Y0107342D02*
X0070331Y0107342D01*
X0070331Y0106143D02*
X0079463Y0106143D01*
X0082210Y0097754D02*
X0070331Y0097754D01*
X0070331Y0096556D02*
X0081011Y0096556D01*
X0080118Y0095357D02*
X0070331Y0095357D01*
X0070331Y0094159D02*
X0079622Y0094159D01*
X0079310Y0092961D02*
X0070331Y0092961D01*
X0070331Y0091762D02*
X0079310Y0091762D01*
X0079380Y0090564D02*
X0070331Y0090564D01*
X0070331Y0089365D02*
X0079877Y0089365D01*
X0080430Y0088167D02*
X0070331Y0088167D01*
X0070331Y0086969D02*
X0081628Y0086969D01*
X0061731Y0086969D02*
X0023934Y0086969D01*
X0023339Y0086373D02*
X0020869Y0085350D01*
X0018194Y0085350D01*
X0015724Y0086373D01*
X0013833Y0088263D01*
X0012810Y0090733D01*
X0012810Y0093408D01*
X0013833Y0095878D01*
X0015724Y0097769D01*
X0018194Y0098792D01*
X0020869Y0098792D01*
X0023339Y0097769D01*
X0025229Y0095878D01*
X0026252Y0093408D01*
X0026252Y0090733D01*
X0025229Y0088263D01*
X0023339Y0086373D01*
X0021883Y0085770D02*
X0061731Y0085770D01*
X0061731Y0084572D02*
X0005831Y0084572D01*
X0005831Y0084370D02*
X0005831Y0151271D01*
X0061731Y0151271D01*
X0061731Y0084370D01*
X0005831Y0084370D01*
X0005831Y0085770D02*
X0017179Y0085770D01*
X0015128Y0086969D02*
X0005831Y0086969D01*
X0005831Y0088167D02*
X0013930Y0088167D01*
X0013377Y0089365D02*
X0005831Y0089365D01*
X0005831Y0090564D02*
X0012880Y0090564D01*
X0012810Y0091762D02*
X0005831Y0091762D01*
X0005831Y0092961D02*
X0012810Y0092961D01*
X0013122Y0094159D02*
X0005831Y0094159D01*
X0005831Y0095357D02*
X0013618Y0095357D01*
X0014511Y0096556D02*
X0005831Y0096556D01*
X0005831Y0097754D02*
X0015710Y0097754D01*
X0016146Y0101156D02*
X0016146Y0104337D01*
X0016916Y0104337D01*
X0016916Y0101156D01*
X0018711Y0101156D01*
X0019117Y0101265D01*
X0019482Y0101476D01*
X0019780Y0101773D01*
X0019991Y0102138D01*
X0020100Y0102545D01*
X0020100Y0104339D01*
X0016918Y0104339D01*
X0016918Y0105109D01*
X0020100Y0105109D01*
X0020100Y0106904D01*
X0019991Y0107310D01*
X0019780Y0107675D01*
X0019526Y0107930D01*
X0020067Y0108471D01*
X0025459Y0108471D01*
X0025823Y0107593D01*
X0027053Y0106362D01*
X0028661Y0105696D01*
X0030402Y0105696D01*
X0032009Y0106362D01*
X0033240Y0107593D01*
X0033906Y0109200D01*
X0033906Y0110941D01*
X0033240Y0112549D01*
X0032009Y0113779D01*
X0030402Y0114445D01*
X0028661Y0114445D01*
X0027053Y0113779D01*
X0026944Y0113670D01*
X0020300Y0113670D01*
X0020300Y0114131D01*
X0019534Y0114897D01*
X0026735Y0122098D01*
X0027131Y0123054D01*
X0027131Y0124088D01*
X0027131Y0127706D01*
X0028407Y0128981D01*
X0029024Y0130471D01*
X0030779Y0130471D01*
X0030779Y0130420D01*
X0031833Y0129365D01*
X0039230Y0129365D01*
X0040284Y0130420D01*
X0040284Y0137029D01*
X0039995Y0137317D01*
X0040084Y0137647D01*
X0040084Y0139818D01*
X0036133Y0139818D01*
X0036133Y0141016D01*
X0040084Y0141016D01*
X0040084Y0143187D01*
X0039975Y0143594D01*
X0039764Y0143959D01*
X0039467Y0144256D01*
X0039102Y0144467D01*
X0038695Y0144576D01*
X0036130Y0144576D01*
X0036130Y0141019D01*
X0034932Y0141019D01*
X0034932Y0144576D01*
X0032368Y0144576D01*
X0031961Y0144467D01*
X0031596Y0144256D01*
X0031298Y0143959D01*
X0031088Y0143594D01*
X0030979Y0143187D01*
X0030979Y0141016D01*
X0034930Y0141016D01*
X0034930Y0139818D01*
X0030979Y0139818D01*
X0030979Y0137647D01*
X0031067Y0137317D01*
X0030779Y0137029D01*
X0030779Y0135670D01*
X0026580Y0135670D01*
X0025441Y0136142D01*
X0023622Y0136142D01*
X0021942Y0135446D01*
X0020656Y0134160D01*
X0019960Y0132480D01*
X0019960Y0130661D01*
X0020034Y0130483D01*
X0020011Y0130506D01*
X0018264Y0131230D01*
X0016373Y0131230D01*
X0014626Y0130506D01*
X0013290Y0129169D01*
X0012566Y0127422D01*
X0012566Y0125531D01*
X0013290Y0123785D01*
X0014626Y0122448D01*
X0016373Y0121724D01*
X0018264Y0121724D01*
X0019535Y0122251D01*
X0015059Y0117775D01*
X0014327Y0117043D01*
X0013931Y0116088D01*
X0013931Y0115185D01*
X0013817Y0115185D01*
X0012763Y0114131D01*
X0012763Y0108703D01*
X0013537Y0107930D01*
X0013283Y0107675D01*
X0013072Y0107310D01*
X0012963Y0106904D01*
X0012963Y0105109D01*
X0016144Y0105109D01*
X0016144Y0104339D01*
X0012963Y0104339D01*
X0012963Y0102545D01*
X0013072Y0102138D01*
X0013283Y0101773D01*
X0013580Y0101476D01*
X0013945Y0101265D01*
X0014352Y0101156D01*
X0016146Y0101156D01*
X0016146Y0101350D02*
X0016916Y0101350D01*
X0016916Y0102548D02*
X0016146Y0102548D01*
X0016146Y0103746D02*
X0016916Y0103746D01*
X0016918Y0104945D02*
X0061731Y0104945D01*
X0061731Y0103746D02*
X0041513Y0103746D01*
X0041719Y0103641D02*
X0041134Y0103939D01*
X0040509Y0104143D01*
X0039860Y0104245D01*
X0039719Y0104245D01*
X0039719Y0100261D01*
X0039343Y0100261D01*
X0039343Y0104245D01*
X0039203Y0104245D01*
X0038554Y0104143D01*
X0037929Y0103939D01*
X0037343Y0103641D01*
X0036812Y0103255D01*
X0036347Y0102790D01*
X0035961Y0102259D01*
X0035663Y0101673D01*
X0035459Y0101048D01*
X0035357Y0100399D01*
X0035357Y0100258D01*
X0039341Y0100258D01*
X0039341Y0099883D01*
X0035357Y0099883D01*
X0035357Y0099742D01*
X0035459Y0099093D01*
X0035663Y0098468D01*
X0035961Y0097883D01*
X0036347Y0097351D01*
X0036812Y0096886D01*
X0037343Y0096500D01*
X0037929Y0096202D01*
X0038554Y0095999D01*
X0039203Y0095896D01*
X0039343Y0095896D01*
X0039343Y0099881D01*
X0039719Y0099881D01*
X0039719Y0095896D01*
X0039860Y0095896D01*
X0040509Y0095999D01*
X0041134Y0096202D01*
X0041719Y0096500D01*
X0042251Y0096886D01*
X0042716Y0097351D01*
X0043102Y0097883D01*
X0043400Y0098468D01*
X0043603Y0099093D01*
X0043706Y0099742D01*
X0043706Y0099883D01*
X0039721Y0099883D01*
X0039721Y0100258D01*
X0043706Y0100258D01*
X0043706Y0100399D01*
X0043603Y0101048D01*
X0043400Y0101673D01*
X0043102Y0102259D01*
X0042716Y0102790D01*
X0042251Y0103255D01*
X0041719Y0103641D01*
X0042892Y0102548D02*
X0061731Y0102548D01*
X0061731Y0101350D02*
X0043506Y0101350D01*
X0043557Y0098953D02*
X0061731Y0098953D01*
X0061731Y0100151D02*
X0039721Y0100151D01*
X0039341Y0100151D02*
X0005831Y0100151D01*
X0005831Y0098953D02*
X0035505Y0098953D01*
X0036054Y0097754D02*
X0023353Y0097754D01*
X0024551Y0096556D02*
X0037267Y0096556D01*
X0039343Y0096556D02*
X0039719Y0096556D01*
X0039719Y0097754D02*
X0039343Y0097754D01*
X0039343Y0098953D02*
X0039719Y0098953D01*
X0041796Y0096556D02*
X0061731Y0096556D01*
X0061731Y0095357D02*
X0025445Y0095357D01*
X0025941Y0094159D02*
X0061731Y0094159D01*
X0061731Y0092961D02*
X0026252Y0092961D01*
X0026252Y0091762D02*
X0061731Y0091762D01*
X0061731Y0090564D02*
X0026182Y0090564D01*
X0025685Y0089365D02*
X0061731Y0089365D01*
X0061731Y0088167D02*
X0025133Y0088167D01*
X0019264Y0101350D02*
X0035557Y0101350D01*
X0036171Y0102548D02*
X0020100Y0102548D01*
X0020100Y0103746D02*
X0037550Y0103746D01*
X0039343Y0103746D02*
X0039719Y0103746D01*
X0039719Y0102548D02*
X0039343Y0102548D01*
X0039343Y0101350D02*
X0039719Y0101350D01*
X0043008Y0097754D02*
X0061731Y0097754D01*
X0061731Y0106143D02*
X0051481Y0106143D01*
X0052009Y0106362D02*
X0053240Y0107593D01*
X0053906Y0109200D01*
X0053906Y0110941D01*
X0053240Y0112549D01*
X0052009Y0113779D01*
X0050402Y0114445D01*
X0048661Y0114445D01*
X0047053Y0113779D01*
X0045823Y0112549D01*
X0045157Y0110941D01*
X0045157Y0109200D01*
X0045823Y0107593D01*
X0047053Y0106362D01*
X0048661Y0105696D01*
X0050402Y0105696D01*
X0052009Y0106362D01*
X0052989Y0107342D02*
X0061731Y0107342D01*
X0061731Y0108540D02*
X0053632Y0108540D01*
X0053906Y0109739D02*
X0061731Y0109739D01*
X0061731Y0110937D02*
X0053906Y0110937D01*
X0053411Y0112135D02*
X0061731Y0112135D01*
X0061731Y0113334D02*
X0052455Y0113334D01*
X0046608Y0113334D02*
X0032455Y0113334D01*
X0033411Y0112135D02*
X0045652Y0112135D01*
X0045157Y0110937D02*
X0033906Y0110937D01*
X0033906Y0109739D02*
X0045157Y0109739D01*
X0045430Y0108540D02*
X0033632Y0108540D01*
X0032989Y0107342D02*
X0046074Y0107342D01*
X0047581Y0106143D02*
X0031481Y0106143D01*
X0027581Y0106143D02*
X0020100Y0106143D01*
X0019972Y0107342D02*
X0026074Y0107342D01*
X0019898Y0114532D02*
X0061731Y0114532D01*
X0061731Y0115731D02*
X0040485Y0115731D01*
X0040402Y0115696D02*
X0042009Y0116362D01*
X0043240Y0117593D01*
X0043906Y0119200D01*
X0043906Y0120941D01*
X0043240Y0122549D01*
X0042009Y0123779D01*
X0040402Y0124445D01*
X0038661Y0124445D01*
X0037053Y0123779D01*
X0035823Y0122549D01*
X0035157Y0120941D01*
X0035157Y0119200D01*
X0035823Y0117593D01*
X0037053Y0116362D01*
X0038661Y0115696D01*
X0040402Y0115696D01*
X0038577Y0115731D02*
X0020368Y0115731D01*
X0021566Y0116929D02*
X0036486Y0116929D01*
X0035601Y0118128D02*
X0022765Y0118128D01*
X0023963Y0119326D02*
X0035157Y0119326D01*
X0035157Y0120524D02*
X0025161Y0120524D01*
X0026360Y0121723D02*
X0035481Y0121723D01*
X0036195Y0122921D02*
X0027076Y0122921D01*
X0027131Y0124120D02*
X0037875Y0124120D01*
X0041188Y0124120D02*
X0061731Y0124120D01*
X0061731Y0125318D02*
X0027131Y0125318D01*
X0027131Y0126517D02*
X0061731Y0126517D01*
X0061731Y0127715D02*
X0027141Y0127715D01*
X0028339Y0128913D02*
X0061731Y0128913D01*
X0061731Y0130112D02*
X0039976Y0130112D01*
X0040284Y0131310D02*
X0061731Y0131310D01*
X0061731Y0132509D02*
X0040284Y0132509D01*
X0040284Y0133707D02*
X0061731Y0133707D01*
X0061731Y0134906D02*
X0053210Y0134906D01*
X0054339Y0135373D02*
X0056229Y0137263D01*
X0057252Y0139733D01*
X0057252Y0142408D01*
X0056229Y0144878D01*
X0054339Y0146769D01*
X0051869Y0147792D01*
X0049194Y0147792D01*
X0046724Y0146769D01*
X0044833Y0144878D01*
X0043810Y0142408D01*
X0043810Y0139733D01*
X0044833Y0137263D01*
X0046724Y0135373D01*
X0049194Y0134350D01*
X0051869Y0134350D01*
X0054339Y0135373D01*
X0055070Y0136104D02*
X0061731Y0136104D01*
X0061731Y0137302D02*
X0056245Y0137302D01*
X0056741Y0138501D02*
X0061731Y0138501D01*
X0061731Y0139699D02*
X0057238Y0139699D01*
X0057252Y0140898D02*
X0061731Y0140898D01*
X0061731Y0142096D02*
X0057252Y0142096D01*
X0056885Y0143294D02*
X0061731Y0143294D01*
X0061731Y0144493D02*
X0056389Y0144493D01*
X0055416Y0145691D02*
X0061731Y0145691D01*
X0061731Y0146890D02*
X0054046Y0146890D01*
X0047017Y0146890D02*
X0018903Y0146890D01*
X0018903Y0146915D02*
X0018795Y0147594D01*
X0018583Y0148249D01*
X0018270Y0148862D01*
X0017866Y0149419D01*
X0017379Y0149905D01*
X0016822Y0150309D01*
X0016209Y0150622D01*
X0015555Y0150835D01*
X0014876Y0150942D01*
X0014817Y0150942D01*
X0014817Y0146859D01*
X0014245Y0146859D01*
X0014245Y0150942D01*
X0014187Y0150942D01*
X0013507Y0150835D01*
X0012853Y0150622D01*
X0012240Y0150309D01*
X0011683Y0149905D01*
X0011197Y0149419D01*
X0010793Y0148862D01*
X0010480Y0148249D01*
X0010267Y0147594D01*
X0010160Y0146915D01*
X0010160Y0146857D01*
X0014243Y0146857D01*
X0014243Y0146284D01*
X0010160Y0146284D01*
X0010160Y0146226D01*
X0010267Y0145547D01*
X0010480Y0144893D01*
X0010793Y0144280D01*
X0011197Y0143723D01*
X0011683Y0143236D01*
X0012240Y0142832D01*
X0012853Y0142519D01*
X0013507Y0142307D01*
X0014187Y0142199D01*
X0014245Y0142199D01*
X0014245Y0146282D01*
X0014817Y0146282D01*
X0014817Y0142199D01*
X0014876Y0142199D01*
X0015555Y0142307D01*
X0016209Y0142519D01*
X0016822Y0142832D01*
X0017379Y0143236D01*
X0017866Y0143723D01*
X0018270Y0144280D01*
X0018583Y0144893D01*
X0018795Y0145547D01*
X0018903Y0146226D01*
X0018902Y0146284D01*
X0014820Y0146284D01*
X0014820Y0146857D01*
X0018903Y0146857D01*
X0018903Y0146915D01*
X0018635Y0148088D02*
X0061731Y0148088D01*
X0061731Y0149287D02*
X0017962Y0149287D01*
X0016478Y0150485D02*
X0061731Y0150485D01*
X0070331Y0150485D02*
X0079085Y0150485D01*
X0080745Y0150485D02*
X0081317Y0150485D01*
X0081317Y0149287D02*
X0080745Y0149287D01*
X0080745Y0148088D02*
X0081317Y0148088D01*
X0081317Y0146890D02*
X0080745Y0146890D01*
X0080745Y0145691D02*
X0081317Y0145691D01*
X0081317Y0144493D02*
X0080745Y0144493D01*
X0080745Y0143294D02*
X0081317Y0143294D01*
X0081941Y0141142D02*
X0080122Y0141142D01*
X0078442Y0140446D01*
X0077156Y0139160D01*
X0076460Y0137480D01*
X0076460Y0135661D01*
X0077156Y0133981D01*
X0078442Y0132695D01*
X0080122Y0131999D01*
X0081941Y0131999D01*
X0083621Y0132695D01*
X0084907Y0133981D01*
X0085603Y0135661D01*
X0085603Y0137480D01*
X0084907Y0139160D01*
X0083621Y0140446D01*
X0081941Y0141142D01*
X0082531Y0140898D02*
X0086460Y0140898D01*
X0086460Y0140661D02*
X0087156Y0138981D01*
X0088442Y0137695D01*
X0090122Y0136999D01*
X0091941Y0136999D01*
X0093621Y0137695D01*
X0094907Y0138981D01*
X0095603Y0140661D01*
X0095603Y0142480D01*
X0094907Y0144160D01*
X0093621Y0145446D01*
X0091941Y0146142D01*
X0090122Y0146142D01*
X0088442Y0145446D01*
X0087156Y0144160D01*
X0086460Y0142480D01*
X0086460Y0140661D01*
X0086858Y0139699D02*
X0084368Y0139699D01*
X0085180Y0138501D02*
X0087636Y0138501D01*
X0089390Y0137302D02*
X0085603Y0137302D01*
X0085603Y0136104D02*
X0090030Y0136104D01*
X0092033Y0136104D02*
X0097279Y0136104D01*
X0097552Y0137302D02*
X0092672Y0137302D01*
X0094426Y0138501D02*
X0097479Y0138501D01*
X0097479Y0139699D02*
X0095204Y0139699D01*
X0095603Y0140898D02*
X0101430Y0140898D01*
X0101432Y0142096D02*
X0102630Y0142096D01*
X0102630Y0143294D02*
X0101432Y0143294D01*
X0101432Y0144493D02*
X0102630Y0144493D01*
X0105505Y0144493D02*
X0111174Y0144493D01*
X0110678Y0143294D02*
X0106555Y0143294D01*
X0106584Y0142096D02*
X0110310Y0142096D01*
X0110310Y0140898D02*
X0102633Y0140898D01*
X0106584Y0139699D02*
X0110324Y0139699D01*
X0110821Y0138501D02*
X0106584Y0138501D01*
X0106510Y0137302D02*
X0111317Y0137302D01*
X0112493Y0136104D02*
X0106784Y0136104D01*
X0106784Y0134906D02*
X0114352Y0134906D01*
X0112147Y0145691D02*
X0093029Y0145691D01*
X0094574Y0144493D02*
X0098558Y0144493D01*
X0097508Y0143294D02*
X0095266Y0143294D01*
X0095603Y0142096D02*
X0097479Y0142096D01*
X0089034Y0145691D02*
X0085318Y0145691D01*
X0084879Y0144493D02*
X0087489Y0144493D01*
X0086797Y0143294D02*
X0083937Y0143294D01*
X0086460Y0142096D02*
X0070331Y0142096D01*
X0070331Y0140898D02*
X0079532Y0140898D01*
X0077695Y0139699D02*
X0070331Y0139699D01*
X0070331Y0138501D02*
X0076883Y0138501D01*
X0076460Y0137302D02*
X0070331Y0137302D01*
X0070331Y0136104D02*
X0076460Y0136104D01*
X0076773Y0134906D02*
X0070331Y0134906D01*
X0070331Y0133707D02*
X0077430Y0133707D01*
X0078892Y0132509D02*
X0070331Y0132509D01*
X0070331Y0131310D02*
X0086460Y0131310D01*
X0086472Y0132509D02*
X0083170Y0132509D01*
X0084633Y0133707D02*
X0086969Y0133707D01*
X0087901Y0134906D02*
X0085289Y0134906D01*
X0080732Y0130112D02*
X0070331Y0130112D01*
X0070331Y0128913D02*
X0079684Y0128913D01*
X0079187Y0127715D02*
X0070331Y0127715D01*
X0070331Y0126517D02*
X0079066Y0126517D01*
X0079154Y0125318D02*
X0070331Y0125318D01*
X0070331Y0124120D02*
X0079651Y0124120D01*
X0080653Y0122921D02*
X0070331Y0122921D01*
X0061731Y0122921D02*
X0042867Y0122921D01*
X0043582Y0121723D02*
X0061731Y0121723D01*
X0061731Y0120524D02*
X0043906Y0120524D01*
X0043906Y0119326D02*
X0061731Y0119326D01*
X0061731Y0118128D02*
X0043461Y0118128D01*
X0042576Y0116929D02*
X0061731Y0116929D01*
X0047852Y0134906D02*
X0040284Y0134906D01*
X0040284Y0136104D02*
X0045993Y0136104D01*
X0044817Y0137302D02*
X0040010Y0137302D01*
X0040084Y0138501D02*
X0044321Y0138501D01*
X0043824Y0139699D02*
X0040084Y0139699D01*
X0040084Y0142096D02*
X0043810Y0142096D01*
X0043810Y0140898D02*
X0036133Y0140898D01*
X0036130Y0142096D02*
X0034932Y0142096D01*
X0034930Y0140898D02*
X0029103Y0140898D01*
X0029103Y0140661D02*
X0028407Y0138981D01*
X0027121Y0137695D01*
X0025441Y0136999D01*
X0023622Y0136999D01*
X0021942Y0137695D01*
X0020656Y0138981D01*
X0019960Y0140661D01*
X0019960Y0142480D01*
X0020656Y0144160D01*
X0021942Y0145446D01*
X0023622Y0146142D01*
X0025441Y0146142D01*
X0027121Y0145446D01*
X0028407Y0144160D01*
X0029103Y0142480D01*
X0029103Y0140661D01*
X0028704Y0139699D02*
X0030979Y0139699D01*
X0030979Y0138501D02*
X0027926Y0138501D01*
X0026172Y0137302D02*
X0031052Y0137302D01*
X0030779Y0136104D02*
X0025533Y0136104D01*
X0023530Y0136104D02*
X0019103Y0136104D01*
X0019103Y0135661D02*
X0018407Y0133981D01*
X0017121Y0132695D01*
X0015441Y0131999D01*
X0013622Y0131999D01*
X0011942Y0132695D01*
X0010656Y0133981D01*
X0009960Y0135661D01*
X0009960Y0137480D01*
X0010656Y0139160D01*
X0011942Y0140446D01*
X0013622Y0141142D01*
X0015441Y0141142D01*
X0017121Y0140446D01*
X0018407Y0139160D01*
X0019103Y0137480D01*
X0019103Y0135661D01*
X0018789Y0134906D02*
X0021401Y0134906D01*
X0020469Y0133707D02*
X0018133Y0133707D01*
X0016670Y0132509D02*
X0019972Y0132509D01*
X0019960Y0131310D02*
X0005831Y0131310D01*
X0005831Y0130112D02*
X0014232Y0130112D01*
X0013184Y0128913D02*
X0005831Y0128913D01*
X0005831Y0127715D02*
X0012687Y0127715D01*
X0012566Y0126517D02*
X0005831Y0126517D01*
X0005831Y0125318D02*
X0012654Y0125318D01*
X0013151Y0124120D02*
X0005831Y0124120D01*
X0005831Y0122921D02*
X0014153Y0122921D01*
X0017809Y0120524D02*
X0005831Y0120524D01*
X0005831Y0119326D02*
X0016610Y0119326D01*
X0015412Y0118128D02*
X0005831Y0118128D01*
X0005831Y0116929D02*
X0014280Y0116929D01*
X0013931Y0115731D02*
X0005831Y0115731D01*
X0005831Y0114532D02*
X0013164Y0114532D01*
X0012763Y0113334D02*
X0005831Y0113334D01*
X0005831Y0112135D02*
X0012763Y0112135D01*
X0012763Y0110937D02*
X0005831Y0110937D01*
X0005831Y0109739D02*
X0012763Y0109739D01*
X0012926Y0108540D02*
X0005831Y0108540D01*
X0005831Y0107342D02*
X0013091Y0107342D01*
X0012963Y0106143D02*
X0005831Y0106143D01*
X0005831Y0104945D02*
X0016144Y0104945D01*
X0012963Y0103746D02*
X0005831Y0103746D01*
X0005831Y0102548D02*
X0012963Y0102548D01*
X0013798Y0101350D02*
X0005831Y0101350D01*
X0005831Y0121723D02*
X0019007Y0121723D01*
X0028875Y0130112D02*
X0031087Y0130112D01*
X0022890Y0137302D02*
X0019103Y0137302D01*
X0018680Y0138501D02*
X0021136Y0138501D01*
X0020358Y0139699D02*
X0017868Y0139699D01*
X0016031Y0140898D02*
X0019960Y0140898D01*
X0019960Y0142096D02*
X0005831Y0142096D01*
X0005831Y0140898D02*
X0013032Y0140898D01*
X0011195Y0139699D02*
X0005831Y0139699D01*
X0005831Y0138501D02*
X0010383Y0138501D01*
X0009960Y0137302D02*
X0005831Y0137302D01*
X0005831Y0136104D02*
X0009960Y0136104D01*
X0010273Y0134906D02*
X0005831Y0134906D01*
X0005831Y0133707D02*
X0010930Y0133707D01*
X0012392Y0132509D02*
X0005831Y0132509D01*
X0005831Y0143294D02*
X0011625Y0143294D01*
X0010683Y0144493D02*
X0005831Y0144493D01*
X0005831Y0145691D02*
X0010244Y0145691D01*
X0010160Y0146890D02*
X0005831Y0146890D01*
X0005831Y0148088D02*
X0010428Y0148088D01*
X0011101Y0149287D02*
X0005831Y0149287D01*
X0005831Y0150485D02*
X0012585Y0150485D01*
X0014245Y0150485D02*
X0014817Y0150485D01*
X0014817Y0149287D02*
X0014245Y0149287D01*
X0014245Y0148088D02*
X0014817Y0148088D01*
X0014817Y0146890D02*
X0014245Y0146890D01*
X0014245Y0145691D02*
X0014817Y0145691D01*
X0014817Y0144493D02*
X0014245Y0144493D01*
X0014245Y0143294D02*
X0014817Y0143294D01*
X0017437Y0143294D02*
X0020297Y0143294D01*
X0020989Y0144493D02*
X0018379Y0144493D01*
X0018818Y0145691D02*
X0022534Y0145691D01*
X0026529Y0145691D02*
X0045647Y0145691D01*
X0044674Y0144493D02*
X0039005Y0144493D01*
X0040055Y0143294D02*
X0044178Y0143294D01*
X0036130Y0143294D02*
X0034932Y0143294D01*
X0034932Y0144493D02*
X0036130Y0144493D01*
X0032058Y0144493D02*
X0028074Y0144493D01*
X0028766Y0143294D02*
X0031008Y0143294D01*
X0030979Y0142096D02*
X0029103Y0142096D01*
X0070331Y0143294D02*
X0078125Y0143294D01*
X0077183Y0144493D02*
X0070331Y0144493D01*
X0070331Y0145691D02*
X0076744Y0145691D01*
X0076660Y0146890D02*
X0070331Y0146890D01*
X0070331Y0148088D02*
X0076928Y0148088D01*
X0077601Y0149287D02*
X0070331Y0149287D01*
X0095375Y0130112D02*
X0097587Y0130112D01*
X0025479Y0066595D02*
X0023161Y0066595D01*
X0022322Y0065397D02*
X0025479Y0065397D01*
X0025449Y0064198D02*
X0020422Y0064198D01*
X0020284Y0063000D02*
X0025279Y0063000D01*
X0025691Y0057008D02*
X0023332Y0057008D01*
X0017779Y0063000D02*
X0013603Y0063000D01*
X0013603Y0064198D02*
X0017641Y0064198D01*
X0015740Y0065397D02*
X0013223Y0065397D01*
X0012472Y0066595D02*
X0014901Y0066595D01*
X0014460Y0067794D02*
X0010782Y0067794D01*
X0013246Y0061802D02*
X0015797Y0061802D01*
X0014925Y0060603D02*
X0012529Y0060603D01*
X0010919Y0059405D02*
X0014460Y0059405D01*
X0014460Y0058206D02*
X0012820Y0058206D01*
X0010817Y0058206D02*
X0005831Y0058206D01*
X0005831Y0057008D02*
X0008628Y0057008D01*
X0007641Y0055809D02*
X0005831Y0055809D01*
X0005831Y0054611D02*
X0007144Y0054611D01*
X0007066Y0053413D02*
X0005831Y0053413D01*
X0005831Y0052214D02*
X0007197Y0052214D01*
X0007694Y0051016D02*
X0005831Y0051016D01*
X0005831Y0049817D02*
X0008757Y0049817D01*
X0007143Y0059405D02*
X0005831Y0059405D01*
X0069631Y0060603D02*
X0069634Y0060603D01*
X0126548Y0021055D02*
X0131115Y0021055D01*
X0130063Y0019857D02*
X0127600Y0019857D01*
X0127600Y0018658D02*
X0130063Y0018658D01*
X0130063Y0017460D02*
X0127600Y0017460D01*
X0127600Y0016261D02*
X0130063Y0016261D01*
X0130063Y0015063D02*
X0127600Y0015063D01*
X0127600Y0013865D02*
X0130063Y0013865D01*
X0137600Y0016261D02*
X0140063Y0016261D01*
X0140063Y0015063D02*
X0138291Y0015063D01*
X0137600Y0017460D02*
X0140063Y0017460D01*
X0140063Y0018658D02*
X0137600Y0018658D01*
X0137600Y0019857D02*
X0140063Y0019857D01*
X0140309Y0020617D02*
X0140309Y0020617D01*
X0139870Y0021055D02*
X0136548Y0021055D01*
X0139577Y0021348D02*
X0139577Y0021348D01*
X0153446Y0018658D02*
X0154216Y0018658D01*
X0154216Y0017460D02*
X0153446Y0017460D01*
X0153446Y0016261D02*
X0154216Y0016261D01*
X0154216Y0015063D02*
X0153446Y0015063D01*
X0153446Y0013865D02*
X0154216Y0013865D01*
D18*
X0153031Y0013571D02*
X0153031Y0016096D01*
X0153831Y0016896D01*
X0149531Y0014071D02*
X0149531Y0020071D01*
X0156031Y0026571D01*
X0193031Y0026571D01*
X0171531Y0047571D02*
X0166531Y0047571D01*
X0141781Y0022821D01*
X0144031Y0020571D01*
X0144031Y0017096D01*
X0143831Y0016896D01*
X0141781Y0022821D02*
X0134531Y0030071D01*
X0038531Y0030071D01*
X0031531Y0037071D01*
X0024031Y0037071D01*
X0023531Y0037571D01*
X0011531Y0037571D01*
X0010685Y0038417D01*
X0011031Y0038417D01*
X0011031Y0042071D01*
X0019031Y0050071D01*
X0019031Y0058571D01*
X0019031Y0060071D01*
X0030031Y0060071D01*
X0030031Y0060724D01*
X0034031Y0047071D02*
X0041031Y0047071D01*
X0044031Y0044071D01*
X0063031Y0044071D01*
X0064031Y0045071D01*
X0064031Y0073071D01*
X0065531Y0074571D01*
X0092531Y0074571D01*
X0093531Y0073571D01*
X0093531Y0070196D01*
X0093831Y0069896D01*
X0093531Y0069596D01*
X0093531Y0066571D01*
X0104531Y0055571D01*
X0179531Y0055571D01*
X0181531Y0057571D01*
X0183031Y0057571D01*
X0186031Y0052571D02*
X0102531Y0052571D01*
X0088531Y0066571D01*
X0088531Y0069596D01*
X0088831Y0069896D01*
X0088531Y0066571D02*
X0087031Y0065071D01*
X0070031Y0065071D01*
X0067031Y0062071D01*
X0067031Y0043071D01*
X0061031Y0037071D01*
X0044031Y0037071D01*
X0043531Y0037571D01*
X0037031Y0027071D02*
X0034031Y0027071D01*
X0029031Y0032071D01*
X0011031Y0032071D01*
X0010685Y0031724D01*
X0011031Y0031724D01*
X0037031Y0027071D02*
X0041031Y0023071D01*
X0072031Y0023071D01*
X0076031Y0027071D01*
X0122531Y0027071D01*
X0128531Y0021071D01*
X0128531Y0013071D01*
X0186031Y0052571D02*
X0193031Y0059571D01*
X0193031Y0062571D01*
X0153031Y0061071D02*
X0144206Y0069896D01*
X0143831Y0069896D01*
X0138831Y0069896D02*
X0138831Y0066771D01*
X0140531Y0065071D01*
X0143031Y0065071D01*
X0148531Y0059571D01*
X0175531Y0100071D02*
X0172031Y0103571D01*
X0153031Y0103571D01*
X0151878Y0104724D01*
X0152531Y0104724D01*
X0152531Y0111071D02*
X0152185Y0111417D01*
X0152531Y0111417D01*
X0152531Y0115571D01*
X0160531Y0123571D01*
X0160531Y0131571D01*
X0161031Y0131571D01*
X0162531Y0133071D01*
X0170878Y0133071D01*
X0171531Y0133724D01*
X0164531Y0111071D02*
X0152531Y0111071D01*
X0164531Y0111071D02*
X0165531Y0110071D01*
X0106031Y0100071D02*
X0102531Y0103571D01*
X0083531Y0103571D01*
X0082531Y0104571D01*
X0083031Y0104724D01*
X0082878Y0110571D02*
X0095531Y0110571D01*
X0096031Y0110071D01*
X0083031Y0111417D02*
X0083031Y0115571D01*
X0091031Y0123571D01*
X0091031Y0131571D01*
X0092531Y0133071D01*
X0101378Y0133071D01*
X0102031Y0133724D01*
X0083031Y0111417D02*
X0082878Y0110571D01*
X0039531Y0100071D02*
X0035531Y0104071D01*
X0016531Y0104071D01*
X0016531Y0104724D01*
X0016531Y0111071D02*
X0029531Y0111071D01*
X0029531Y0110071D01*
X0016531Y0111071D02*
X0016531Y0111417D01*
X0016531Y0115571D01*
X0024531Y0123571D01*
X0024531Y0131571D01*
X0024531Y0132071D01*
X0025531Y0133071D01*
X0034878Y0133071D01*
X0035531Y0133724D01*
D19*
X0133831Y0016896D02*
X0133831Y0015271D01*
X0134031Y0015071D01*
X0135031Y0015071D01*
X0137531Y0012571D01*
X0148031Y0012571D01*
X0149531Y0014071D01*
X0150031Y0010571D02*
X0153031Y0013571D01*
X0150031Y0010571D02*
X0131031Y0010571D01*
X0128531Y0013071D01*
D20*
X0120531Y0023071D03*
X0146531Y0041571D03*
X0148531Y0059571D03*
X0153031Y0061071D03*
X0159531Y0062571D03*
X0175031Y0071071D03*
X0171531Y0047571D03*
X0140531Y0060071D03*
X0108031Y0063071D03*
X0088531Y0053071D03*
X0064031Y0018571D03*
X0041031Y0055571D03*
X0050031Y0127571D03*
X0117531Y0127571D03*
X0187531Y0127571D03*
X0159031Y0018071D03*
M02*
