G75*
G70*
%OFA0B0*%
%FSLAX24Y24*%
%IPPOS*%
%LPD*%
%AMOC8*
5,1,8,0,0,1.08239X$1,22.5*
%
%ADD10C,0.0554*%
%ADD11C,0.0650*%
%ADD12C,0.0120*%
%ADD13C,0.0160*%
%ADD14C,0.0240*%
D10*
X014868Y006051D03*
X015868Y006551D03*
X014868Y007051D03*
X015868Y007551D03*
X018148Y007051D03*
X019148Y007551D03*
X020178Y007951D03*
X021178Y007451D03*
X020178Y006951D03*
X019148Y006551D03*
X018148Y006051D03*
X021178Y006451D03*
X022318Y006051D03*
X023318Y006551D03*
X022318Y007051D03*
X023318Y007551D03*
X018868Y009751D03*
X017868Y009751D03*
X018368Y010751D03*
X017368Y010751D03*
D11*
X022548Y010151D03*
X022548Y009151D03*
D12*
X023808Y005511D02*
X014508Y005511D01*
X014508Y005764D01*
X014609Y005663D01*
X014777Y005594D01*
X014959Y005594D01*
X015127Y005663D01*
X015255Y005792D01*
X015325Y005960D01*
X015325Y006142D01*
X015255Y006310D01*
X015127Y006438D01*
X014959Y006508D01*
X014777Y006508D01*
X014609Y006438D01*
X014508Y006337D01*
X014508Y006764D01*
X014609Y006663D01*
X014777Y006594D01*
X014959Y006594D01*
X015127Y006663D01*
X015255Y006792D01*
X015325Y006960D01*
X015325Y007142D01*
X015255Y007310D01*
X015127Y007438D01*
X014959Y007508D01*
X014777Y007508D01*
X014609Y007438D01*
X014508Y007337D01*
X014508Y009101D01*
X015628Y009101D01*
X015777Y009112D01*
X015921Y009147D01*
X016059Y009204D01*
X016186Y009282D01*
X016300Y009379D01*
X016396Y009492D01*
X016474Y009619D01*
X016531Y009757D01*
X016566Y009902D01*
X016578Y010051D01*
X016578Y010451D01*
X016567Y010600D01*
X016533Y010746D01*
X016476Y010885D01*
X016398Y011013D01*
X016302Y011128D01*
X016188Y011225D01*
X016147Y011251D01*
X023808Y011251D01*
X023808Y010451D01*
X023773Y010487D01*
X023627Y010547D01*
X023469Y010547D01*
X023323Y010487D01*
X023212Y010375D01*
X023151Y010230D01*
X023151Y010072D01*
X023212Y009926D01*
X023323Y009815D01*
X023469Y009754D01*
X023627Y009754D01*
X023773Y009815D01*
X023808Y009850D01*
X023808Y009451D01*
X023773Y009487D01*
X023627Y009547D01*
X023469Y009547D01*
X023323Y009487D01*
X023212Y009375D01*
X023151Y009230D01*
X023151Y009072D01*
X023212Y008926D01*
X023323Y008815D01*
X023469Y008754D01*
X023627Y008754D01*
X023773Y008815D01*
X023808Y008850D01*
X023808Y005511D01*
X023808Y005576D02*
X014508Y005576D01*
X014508Y005695D02*
X014577Y005695D01*
X015159Y005695D02*
X017857Y005695D01*
X017889Y005663D02*
X017771Y005781D01*
X017056Y005781D01*
X017046Y005771D01*
X016830Y005771D01*
X016678Y005923D01*
X016678Y006138D01*
X016678Y010428D01*
X016830Y010581D01*
X016911Y010661D01*
X016911Y010842D01*
X016980Y011010D01*
X017109Y011138D01*
X017277Y011208D01*
X017459Y011208D01*
X017627Y011138D01*
X017755Y011010D01*
X017825Y010842D01*
X017825Y010660D01*
X017755Y010492D01*
X017627Y010363D01*
X017459Y010294D01*
X017278Y010294D01*
X017198Y010213D01*
X017198Y006301D01*
X017440Y006301D01*
X017298Y006443D01*
X017298Y006658D01*
X017298Y009548D01*
X017411Y009661D01*
X017411Y009842D01*
X017480Y010010D01*
X017609Y010138D01*
X017777Y010208D01*
X017959Y010208D01*
X018127Y010138D01*
X018255Y010010D01*
X018325Y009842D01*
X018325Y009660D01*
X018255Y009492D01*
X018127Y009363D01*
X017959Y009294D01*
X017818Y009294D01*
X017818Y007367D01*
X017889Y007438D01*
X018057Y007508D01*
X018239Y007508D01*
X018407Y007438D01*
X018535Y007310D01*
X018605Y007142D01*
X018605Y006960D01*
X018543Y006811D01*
X018761Y006811D01*
X018889Y006938D01*
X019057Y007008D01*
X019239Y007008D01*
X019407Y006938D01*
X019535Y006810D01*
X019605Y006642D01*
X019605Y006460D01*
X019535Y006292D01*
X019407Y006163D01*
X019239Y006094D01*
X019057Y006094D01*
X018889Y006163D01*
X018761Y006291D01*
X018543Y006291D01*
X018605Y006142D01*
X018605Y005960D01*
X018535Y005792D01*
X018407Y005663D01*
X018239Y005594D01*
X018057Y005594D01*
X017889Y005663D01*
X018439Y005695D02*
X022027Y005695D01*
X022059Y005663D02*
X021930Y005792D01*
X021861Y005960D01*
X021861Y006142D01*
X021930Y006310D01*
X022059Y006438D01*
X022227Y006508D01*
X022409Y006508D01*
X022577Y006438D01*
X022705Y006310D01*
X022775Y006142D01*
X022775Y005960D01*
X022705Y005792D01*
X022577Y005663D01*
X022409Y005594D01*
X022227Y005594D01*
X022059Y005663D01*
X021921Y005814D02*
X018544Y005814D01*
X018594Y005932D02*
X021872Y005932D01*
X021861Y006051D02*
X021406Y006051D01*
X021437Y006063D02*
X021269Y005994D01*
X021087Y005994D01*
X020919Y006063D01*
X020790Y006192D01*
X020721Y006360D01*
X020721Y006542D01*
X020790Y006710D01*
X020919Y006838D01*
X021087Y006908D01*
X021269Y006908D01*
X021437Y006838D01*
X021565Y006710D01*
X021635Y006542D01*
X021635Y006360D01*
X021565Y006192D01*
X021437Y006063D01*
X021543Y006169D02*
X021872Y006169D01*
X021921Y006288D02*
X021605Y006288D01*
X021635Y006406D02*
X022027Y006406D01*
X022059Y006663D02*
X022227Y006594D01*
X022409Y006594D01*
X022577Y006663D01*
X022705Y006792D01*
X022775Y006960D01*
X022775Y007142D01*
X022705Y007310D01*
X022577Y007438D01*
X022409Y007508D01*
X022285Y007508D01*
X022218Y007575D01*
X022218Y007767D01*
X022327Y007657D01*
X022502Y007585D01*
X022691Y007585D01*
X022866Y007657D01*
X022905Y007697D01*
X022881Y007638D01*
X022881Y007579D01*
X023289Y007579D01*
X023289Y007522D01*
X022881Y007522D01*
X022881Y007464D01*
X022947Y007303D01*
X023070Y007180D01*
X023231Y007114D01*
X023289Y007114D01*
X023289Y007522D01*
X023347Y007522D01*
X023755Y007522D01*
X023755Y007464D01*
X023689Y007303D01*
X023566Y007180D01*
X023405Y007114D01*
X023347Y007114D01*
X023347Y007522D01*
X023347Y007579D01*
X023755Y007579D01*
X023755Y007638D01*
X023689Y007798D01*
X023566Y007921D01*
X023405Y007988D01*
X023347Y007988D01*
X023347Y007580D01*
X023289Y007580D01*
X023289Y007988D01*
X023231Y007988D01*
X023070Y007921D01*
X023042Y007893D01*
X023072Y007966D01*
X023072Y008155D01*
X023000Y008329D01*
X022866Y008463D01*
X022691Y008535D01*
X022502Y008535D01*
X022327Y008463D01*
X022218Y008353D01*
X022218Y008397D01*
X022467Y008646D01*
X022648Y008646D01*
X022834Y008723D01*
X022976Y008865D01*
X023053Y009050D01*
X023053Y009251D01*
X022976Y009437D01*
X022834Y009579D01*
X022648Y009656D01*
X022448Y009656D01*
X022262Y009579D01*
X022120Y009437D01*
X022043Y009251D01*
X022043Y009070D01*
X021794Y008821D01*
X021618Y008645D01*
X021618Y007583D01*
X021565Y007710D01*
X021618Y007710D01*
X021565Y007710D02*
X021437Y007838D01*
X021269Y007908D01*
X021087Y007908D01*
X020919Y007838D01*
X020790Y007710D01*
X020721Y007542D01*
X020721Y007360D01*
X020790Y007192D01*
X020919Y007063D01*
X021087Y006994D01*
X021269Y006994D01*
X021437Y007063D01*
X021565Y007192D01*
X021620Y007324D01*
X021861Y007084D01*
X021861Y006960D01*
X021930Y006792D01*
X022059Y006663D01*
X022107Y006643D02*
X021593Y006643D01*
X021635Y006525D02*
X022861Y006525D01*
X022861Y006460D02*
X022861Y006642D01*
X022930Y006810D01*
X023059Y006938D01*
X023227Y007008D01*
X023409Y007008D01*
X023577Y006938D01*
X023705Y006810D01*
X023775Y006642D01*
X023775Y006460D01*
X023705Y006292D01*
X023577Y006163D01*
X023409Y006094D01*
X023227Y006094D01*
X023059Y006163D01*
X022930Y006292D01*
X022861Y006460D01*
X022883Y006406D02*
X022609Y006406D01*
X022715Y006288D02*
X022935Y006288D01*
X023053Y006169D02*
X022764Y006169D01*
X022775Y006051D02*
X023808Y006051D01*
X023808Y006169D02*
X023583Y006169D01*
X023701Y006288D02*
X023808Y006288D01*
X023808Y006406D02*
X023753Y006406D01*
X023775Y006525D02*
X023808Y006525D01*
X023808Y006643D02*
X023774Y006643D01*
X023808Y006762D02*
X023725Y006762D01*
X023808Y006880D02*
X023635Y006880D01*
X023808Y006999D02*
X023431Y006999D01*
X023414Y007117D02*
X023808Y007117D01*
X023808Y007236D02*
X023621Y007236D01*
X023710Y007355D02*
X023808Y007355D01*
X023808Y007473D02*
X023755Y007473D01*
X023755Y007592D02*
X023808Y007592D01*
X023808Y007710D02*
X023725Y007710D01*
X023658Y007829D02*
X023808Y007829D01*
X023808Y007947D02*
X023503Y007947D01*
X023347Y007947D02*
X023289Y007947D01*
X023289Y007829D02*
X023347Y007829D01*
X023347Y007710D02*
X023289Y007710D01*
X023289Y007592D02*
X023347Y007592D01*
X023347Y007473D02*
X023289Y007473D01*
X023289Y007355D02*
X023347Y007355D01*
X023347Y007236D02*
X023289Y007236D01*
X023289Y007117D02*
X023347Y007117D01*
X023222Y007117D02*
X022775Y007117D01*
X022775Y006999D02*
X023205Y006999D01*
X023001Y006880D02*
X022742Y006880D01*
X022676Y006762D02*
X022911Y006762D01*
X022861Y006643D02*
X022529Y006643D01*
X021960Y006762D02*
X021513Y006762D01*
X021335Y006880D02*
X021894Y006880D01*
X021861Y006999D02*
X021282Y006999D01*
X021074Y006999D02*
X020635Y006999D01*
X020635Y007042D02*
X020635Y006860D01*
X020565Y006692D01*
X020437Y006563D01*
X020269Y006494D01*
X020087Y006494D01*
X019919Y006563D01*
X019790Y006692D01*
X019721Y006860D01*
X019721Y007042D01*
X019790Y007210D01*
X019919Y007338D01*
X020087Y007408D01*
X020269Y007408D01*
X020437Y007338D01*
X020565Y007210D01*
X020635Y007042D01*
X020604Y007117D02*
X020865Y007117D01*
X020772Y007236D02*
X020539Y007236D01*
X020398Y007355D02*
X020723Y007355D01*
X020721Y007473D02*
X019585Y007473D01*
X019585Y007464D02*
X019519Y007303D01*
X019396Y007180D01*
X019235Y007114D01*
X019177Y007114D01*
X019177Y007522D01*
X019585Y007522D01*
X019585Y007464D01*
X019585Y007579D02*
X019177Y007579D01*
X019177Y007522D01*
X019119Y007522D01*
X019119Y007579D01*
X018711Y007579D01*
X018711Y007638D01*
X018735Y007696D01*
X018696Y007657D01*
X018521Y007585D01*
X018332Y007585D01*
X018157Y007657D01*
X018024Y007791D01*
X017951Y007966D01*
X017951Y008155D01*
X018024Y008329D01*
X018157Y008463D01*
X018332Y008535D01*
X018521Y008535D01*
X018696Y008463D01*
X018830Y008329D01*
X018902Y008155D01*
X018902Y007966D01*
X018872Y007893D01*
X018900Y007921D01*
X019061Y007988D01*
X019119Y007988D01*
X019119Y007580D01*
X019177Y007580D01*
X019177Y007988D01*
X019235Y007988D01*
X019396Y007921D01*
X019519Y007798D01*
X019585Y007638D01*
X019585Y007579D01*
X019585Y007592D02*
X019919Y007592D01*
X019930Y007580D02*
X019807Y007703D01*
X019741Y007864D01*
X019741Y007922D01*
X020149Y007922D01*
X020149Y007979D01*
X019741Y007979D01*
X019741Y008038D01*
X019807Y008198D01*
X019930Y008321D01*
X020091Y008388D01*
X020149Y008388D01*
X020149Y007980D01*
X020207Y007980D01*
X020207Y008388D01*
X020265Y008388D01*
X020426Y008321D01*
X020549Y008198D01*
X020615Y008038D01*
X020615Y007979D01*
X020207Y007979D01*
X020207Y007922D01*
X020615Y007922D01*
X020615Y007864D01*
X020549Y007703D01*
X020426Y007580D01*
X020265Y007514D01*
X020207Y007514D01*
X020207Y007922D01*
X020149Y007922D01*
X020149Y007514D01*
X020091Y007514D01*
X019930Y007580D01*
X019804Y007710D02*
X019555Y007710D01*
X019488Y007829D02*
X019755Y007829D01*
X020149Y007947D02*
X019333Y007947D01*
X019177Y007947D02*
X019119Y007947D01*
X019119Y007829D02*
X019177Y007829D01*
X019177Y007710D02*
X019119Y007710D01*
X019119Y007592D02*
X019177Y007592D01*
X019119Y007522D02*
X018711Y007522D01*
X018711Y007464D01*
X018777Y007303D01*
X018900Y007180D01*
X019061Y007114D01*
X019119Y007114D01*
X019119Y007522D01*
X019119Y007473D02*
X019177Y007473D01*
X019177Y007355D02*
X019119Y007355D01*
X019119Y007236D02*
X019177Y007236D01*
X019177Y007117D02*
X019119Y007117D01*
X019052Y007117D02*
X018605Y007117D01*
X018605Y006999D02*
X019035Y006999D01*
X019261Y006999D02*
X019721Y006999D01*
X019721Y006880D02*
X019465Y006880D01*
X019555Y006762D02*
X019761Y006762D01*
X019839Y006643D02*
X019604Y006643D01*
X019605Y006525D02*
X020012Y006525D01*
X019583Y006406D02*
X020721Y006406D01*
X020721Y006525D02*
X020344Y006525D01*
X020517Y006643D02*
X020763Y006643D01*
X020843Y006762D02*
X020595Y006762D01*
X020635Y006880D02*
X021021Y006880D01*
X021491Y007117D02*
X021827Y007117D01*
X021709Y007236D02*
X021584Y007236D01*
X021618Y007592D02*
X021614Y007592D01*
X021618Y007829D02*
X021446Y007829D01*
X021618Y007947D02*
X020207Y007947D01*
X020207Y007829D02*
X020149Y007829D01*
X020149Y007710D02*
X020207Y007710D01*
X020207Y007592D02*
X020149Y007592D01*
X020437Y007592D02*
X020741Y007592D01*
X020791Y007710D02*
X020551Y007710D01*
X020601Y007829D02*
X020909Y007829D01*
X020603Y008066D02*
X021618Y008066D01*
X021618Y008184D02*
X020554Y008184D01*
X020444Y008303D02*
X021618Y008303D01*
X021618Y008421D02*
X018737Y008421D01*
X018841Y008303D02*
X019912Y008303D01*
X019801Y008184D02*
X018890Y008184D01*
X018902Y008066D02*
X019752Y008066D01*
X020149Y008066D02*
X020207Y008066D01*
X020207Y008184D02*
X020149Y008184D01*
X020149Y008303D02*
X020207Y008303D01*
X018963Y007947D02*
X018894Y007947D01*
X018711Y007592D02*
X018538Y007592D01*
X018711Y007473D02*
X018323Y007473D01*
X018316Y007592D02*
X017818Y007592D01*
X017818Y007710D02*
X018104Y007710D01*
X018008Y007829D02*
X017818Y007829D01*
X017818Y007947D02*
X017959Y007947D01*
X017951Y008066D02*
X017818Y008066D01*
X017818Y008184D02*
X017964Y008184D01*
X018013Y008303D02*
X017818Y008303D01*
X017818Y008421D02*
X018116Y008421D01*
X017818Y008540D02*
X021618Y008540D01*
X021631Y008659D02*
X017818Y008659D01*
X017818Y008777D02*
X021750Y008777D01*
X021869Y008896D02*
X017818Y008896D01*
X017818Y009014D02*
X021987Y009014D01*
X022043Y009133D02*
X017818Y009133D01*
X017818Y009251D02*
X022043Y009251D01*
X022092Y009370D02*
X019091Y009370D01*
X019116Y009380D02*
X018955Y009314D01*
X018897Y009314D01*
X018897Y009722D01*
X019305Y009722D01*
X019305Y009664D01*
X019239Y009503D01*
X019116Y009380D01*
X019224Y009488D02*
X022172Y009488D01*
X022330Y009607D02*
X019282Y009607D01*
X019305Y009779D02*
X018897Y009779D01*
X018897Y009722D01*
X018839Y009722D01*
X018839Y009779D01*
X018431Y009779D01*
X018431Y009838D01*
X018497Y009998D01*
X018620Y010121D01*
X018781Y010188D01*
X018839Y010188D01*
X018839Y009780D01*
X018897Y009780D01*
X018897Y010188D01*
X018955Y010188D01*
X019014Y010164D01*
X018974Y010203D01*
X018902Y010377D01*
X018902Y010567D01*
X018974Y010741D01*
X019108Y010875D01*
X019283Y010947D01*
X019472Y010947D01*
X019647Y010875D01*
X019780Y010741D01*
X019853Y010567D01*
X019853Y010377D01*
X019780Y010203D01*
X019647Y010069D01*
X019472Y009997D01*
X019283Y009997D01*
X019210Y010027D01*
X019239Y009998D01*
X019305Y009838D01*
X019305Y009779D01*
X019302Y009844D02*
X022169Y009844D01*
X022137Y009876D02*
X022063Y010054D01*
X022063Y010102D01*
X022499Y010102D01*
X022499Y010199D01*
X022063Y010199D01*
X022063Y010247D01*
X022137Y010425D01*
X022273Y010562D01*
X022451Y010636D01*
X022500Y010636D01*
X022500Y010199D01*
X022596Y010199D01*
X022596Y010636D01*
X022644Y010636D01*
X022823Y010562D01*
X022959Y010425D01*
X023033Y010247D01*
X023033Y010199D01*
X022596Y010199D01*
X022596Y010102D01*
X022500Y010102D01*
X022500Y009666D01*
X022451Y009666D01*
X022273Y009740D01*
X022137Y009876D01*
X022101Y009963D02*
X019253Y009963D01*
X019658Y010081D02*
X022063Y010081D01*
X022063Y010200D02*
X019777Y010200D01*
X019828Y010318D02*
X022093Y010318D01*
X022148Y010437D02*
X019853Y010437D01*
X019853Y010555D02*
X022267Y010555D01*
X022500Y010555D02*
X022596Y010555D01*
X022596Y010437D02*
X022500Y010437D01*
X022500Y010318D02*
X022596Y010318D01*
X022596Y010200D02*
X022500Y010200D01*
X022500Y010081D02*
X022596Y010081D01*
X022596Y010102D02*
X022596Y009666D01*
X022644Y009666D01*
X022823Y009740D01*
X022959Y009876D01*
X023033Y010054D01*
X023033Y010102D01*
X022596Y010102D01*
X022596Y009963D02*
X022500Y009963D01*
X022500Y009844D02*
X022596Y009844D01*
X022596Y009725D02*
X022500Y009725D01*
X022308Y009725D02*
X018897Y009725D01*
X018839Y009722D02*
X018839Y009314D01*
X018781Y009314D01*
X018620Y009380D01*
X018497Y009503D01*
X018431Y009664D01*
X018431Y009722D01*
X018839Y009722D01*
X018839Y009725D02*
X018325Y009725D01*
X018324Y009844D02*
X018433Y009844D01*
X018482Y009963D02*
X018275Y009963D01*
X018184Y010081D02*
X018580Y010081D01*
X018459Y010294D02*
X018277Y010294D01*
X018109Y010363D01*
X017980Y010492D01*
X017911Y010660D01*
X017911Y010842D01*
X017980Y011010D01*
X018109Y011138D01*
X018277Y011208D01*
X018459Y011208D01*
X018627Y011138D01*
X018755Y011010D01*
X018825Y010842D01*
X018825Y010660D01*
X018755Y010492D01*
X018627Y010363D01*
X018459Y010294D01*
X018518Y010318D02*
X018927Y010318D01*
X018902Y010437D02*
X018700Y010437D01*
X018782Y010555D02*
X018902Y010555D01*
X018946Y010674D02*
X018825Y010674D01*
X018825Y010792D02*
X019025Y010792D01*
X019195Y010911D02*
X018796Y010911D01*
X018736Y011029D02*
X023808Y011029D01*
X023808Y010911D02*
X019560Y010911D01*
X019729Y010792D02*
X023808Y010792D01*
X023808Y010674D02*
X019808Y010674D01*
X018978Y010200D02*
X017979Y010200D01*
X017757Y010200D02*
X017198Y010200D01*
X017198Y010081D02*
X017552Y010081D01*
X017461Y009963D02*
X017198Y009963D01*
X017198Y009844D02*
X017412Y009844D01*
X017411Y009725D02*
X017198Y009725D01*
X017198Y009607D02*
X017356Y009607D01*
X017298Y009488D02*
X017198Y009488D01*
X017198Y009370D02*
X017298Y009370D01*
X017298Y009251D02*
X017198Y009251D01*
X017198Y009133D02*
X017298Y009133D01*
X017298Y009014D02*
X017198Y009014D01*
X017198Y008896D02*
X017298Y008896D01*
X017298Y008777D02*
X017198Y008777D01*
X017198Y008659D02*
X017298Y008659D01*
X017298Y008540D02*
X017198Y008540D01*
X017198Y008421D02*
X017298Y008421D01*
X017298Y008303D02*
X017198Y008303D01*
X017198Y008184D02*
X017298Y008184D01*
X017298Y008066D02*
X017198Y008066D01*
X017198Y007947D02*
X017298Y007947D01*
X017298Y007829D02*
X017198Y007829D01*
X017198Y007710D02*
X017298Y007710D01*
X017298Y007592D02*
X017198Y007592D01*
X017198Y007473D02*
X017298Y007473D01*
X017298Y007355D02*
X017198Y007355D01*
X017198Y007236D02*
X017298Y007236D01*
X017298Y007117D02*
X017198Y007117D01*
X017198Y006999D02*
X017298Y006999D01*
X017298Y006880D02*
X017198Y006880D01*
X017198Y006762D02*
X017298Y006762D01*
X017298Y006643D02*
X017198Y006643D01*
X017198Y006525D02*
X017298Y006525D01*
X017335Y006406D02*
X017198Y006406D01*
X016678Y006406D02*
X016303Y006406D01*
X016325Y006460D02*
X016255Y006292D01*
X016127Y006163D01*
X015959Y006094D01*
X015777Y006094D01*
X015609Y006163D01*
X015480Y006292D01*
X015411Y006460D01*
X015411Y006642D01*
X015480Y006810D01*
X015609Y006938D01*
X015777Y007008D01*
X015959Y007008D01*
X016127Y006938D01*
X016255Y006810D01*
X016325Y006642D01*
X016325Y006460D01*
X016325Y006525D02*
X016678Y006525D01*
X016678Y006643D02*
X016324Y006643D01*
X016275Y006762D02*
X016678Y006762D01*
X016678Y006880D02*
X016185Y006880D01*
X015981Y006999D02*
X016678Y006999D01*
X016678Y007117D02*
X015964Y007117D01*
X015955Y007114D02*
X015897Y007114D01*
X015897Y007522D01*
X016305Y007522D01*
X016305Y007464D01*
X016239Y007303D01*
X016116Y007180D01*
X015955Y007114D01*
X015897Y007117D02*
X015839Y007117D01*
X015839Y007114D02*
X015781Y007114D01*
X015620Y007180D01*
X015497Y007303D01*
X015431Y007464D01*
X015431Y007522D01*
X015839Y007522D01*
X015839Y007579D01*
X015431Y007579D01*
X015431Y007638D01*
X015455Y007696D01*
X015416Y007657D01*
X015241Y007585D01*
X015052Y007585D01*
X014877Y007657D01*
X014744Y007791D01*
X014671Y007966D01*
X014671Y008155D01*
X014744Y008329D01*
X014877Y008463D01*
X015052Y008535D01*
X015241Y008535D01*
X015416Y008463D01*
X015550Y008329D01*
X015622Y008155D01*
X015622Y007966D01*
X015592Y007893D01*
X015620Y007921D01*
X015781Y007988D01*
X015839Y007988D01*
X015839Y007580D01*
X015897Y007580D01*
X015897Y007988D01*
X015955Y007988D01*
X016116Y007921D01*
X016239Y007798D01*
X016305Y007638D01*
X016305Y007579D01*
X015897Y007579D01*
X015897Y007522D01*
X015839Y007522D01*
X015839Y007114D01*
X015772Y007117D02*
X015325Y007117D01*
X015325Y006999D02*
X015755Y006999D01*
X015551Y006880D02*
X015292Y006880D01*
X015226Y006762D02*
X015461Y006762D01*
X015411Y006643D02*
X015079Y006643D01*
X014657Y006643D02*
X014508Y006643D01*
X014508Y006525D02*
X015411Y006525D01*
X015433Y006406D02*
X015159Y006406D01*
X015265Y006288D02*
X015485Y006288D01*
X015603Y006169D02*
X015314Y006169D01*
X015325Y006051D02*
X016678Y006051D01*
X016678Y006169D02*
X016133Y006169D01*
X016251Y006288D02*
X016678Y006288D01*
X016678Y005932D02*
X015314Y005932D01*
X015264Y005814D02*
X016788Y005814D01*
X018545Y006288D02*
X018765Y006288D01*
X018883Y006169D02*
X018594Y006169D01*
X018605Y006051D02*
X020949Y006051D01*
X020813Y006169D02*
X019413Y006169D01*
X019531Y006288D02*
X020751Y006288D01*
X019752Y007117D02*
X019244Y007117D01*
X019451Y007236D02*
X019817Y007236D01*
X019958Y007355D02*
X019540Y007355D01*
X018844Y007236D02*
X018566Y007236D01*
X018491Y007355D02*
X018756Y007355D01*
X018831Y006880D02*
X018572Y006880D01*
X017973Y007473D02*
X017818Y007473D01*
X016678Y007473D02*
X016305Y007473D01*
X016305Y007592D02*
X016678Y007592D01*
X016678Y007710D02*
X016275Y007710D01*
X016208Y007829D02*
X016678Y007829D01*
X016678Y007947D02*
X016053Y007947D01*
X015897Y007947D02*
X015839Y007947D01*
X015839Y007829D02*
X015897Y007829D01*
X015897Y007710D02*
X015839Y007710D01*
X015839Y007592D02*
X015897Y007592D01*
X015897Y007473D02*
X015839Y007473D01*
X015839Y007355D02*
X015897Y007355D01*
X015897Y007236D02*
X015839Y007236D01*
X015564Y007236D02*
X015286Y007236D01*
X015211Y007355D02*
X015476Y007355D01*
X015431Y007473D02*
X015043Y007473D01*
X015036Y007592D02*
X014508Y007592D01*
X014508Y007710D02*
X014824Y007710D01*
X014728Y007829D02*
X014508Y007829D01*
X014508Y007947D02*
X014679Y007947D01*
X014671Y008066D02*
X014508Y008066D01*
X014508Y008184D02*
X014684Y008184D01*
X014733Y008303D02*
X014508Y008303D01*
X014508Y008421D02*
X014836Y008421D01*
X014508Y008540D02*
X016678Y008540D01*
X016678Y008421D02*
X015457Y008421D01*
X015561Y008303D02*
X016678Y008303D01*
X016678Y008184D02*
X015610Y008184D01*
X015622Y008066D02*
X016678Y008066D01*
X015683Y007947D02*
X015614Y007947D01*
X015431Y007592D02*
X015258Y007592D01*
X014693Y007473D02*
X014508Y007473D01*
X014508Y007355D02*
X014525Y007355D01*
X014510Y006762D02*
X014508Y006762D01*
X014508Y006406D02*
X014577Y006406D01*
X016171Y007236D02*
X016678Y007236D01*
X016678Y007355D02*
X016260Y007355D01*
X016678Y008659D02*
X014508Y008659D01*
X014508Y008777D02*
X016678Y008777D01*
X016678Y008896D02*
X014508Y008896D01*
X014508Y009014D02*
X016678Y009014D01*
X016678Y009133D02*
X015861Y009133D01*
X016136Y009251D02*
X016678Y009251D01*
X016678Y009370D02*
X016289Y009370D01*
X016393Y009488D02*
X016678Y009488D01*
X016678Y009607D02*
X016467Y009607D01*
X016518Y009725D02*
X016678Y009725D01*
X016678Y009844D02*
X016552Y009844D01*
X016571Y009963D02*
X016678Y009963D01*
X016678Y010081D02*
X016578Y010081D01*
X016578Y010200D02*
X016678Y010200D01*
X016678Y010318D02*
X016578Y010318D01*
X016578Y010437D02*
X016686Y010437D01*
X016570Y010555D02*
X016805Y010555D01*
X016911Y010674D02*
X016550Y010674D01*
X016514Y010792D02*
X016911Y010792D01*
X016939Y010911D02*
X016460Y010911D01*
X016385Y011029D02*
X017000Y011029D01*
X017132Y011148D02*
X016278Y011148D01*
X017604Y011148D02*
X018132Y011148D01*
X018000Y011029D02*
X017736Y011029D01*
X017796Y010911D02*
X017939Y010911D01*
X017911Y010792D02*
X017825Y010792D01*
X017825Y010674D02*
X017911Y010674D01*
X017954Y010555D02*
X017782Y010555D01*
X017700Y010437D02*
X018036Y010437D01*
X018218Y010318D02*
X017518Y010318D01*
X018839Y010081D02*
X018897Y010081D01*
X018897Y009963D02*
X018839Y009963D01*
X018839Y009844D02*
X018897Y009844D01*
X018897Y009607D02*
X018839Y009607D01*
X018839Y009488D02*
X018897Y009488D01*
X018897Y009370D02*
X018839Y009370D01*
X018645Y009370D02*
X018133Y009370D01*
X018252Y009488D02*
X018512Y009488D01*
X018454Y009607D02*
X018303Y009607D01*
X018604Y011148D02*
X023808Y011148D01*
X023808Y010555D02*
X022829Y010555D01*
X022948Y010437D02*
X023273Y010437D01*
X023188Y010318D02*
X023003Y010318D01*
X023033Y010200D02*
X023151Y010200D01*
X023151Y010081D02*
X023033Y010081D01*
X022995Y009963D02*
X023197Y009963D01*
X023294Y009844D02*
X022927Y009844D01*
X022788Y009725D02*
X023808Y009725D01*
X023808Y009607D02*
X022766Y009607D01*
X022924Y009488D02*
X023327Y009488D01*
X023209Y009370D02*
X023004Y009370D01*
X023053Y009251D02*
X023160Y009251D01*
X023151Y009133D02*
X023053Y009133D01*
X023038Y009014D02*
X023175Y009014D01*
X023242Y008896D02*
X022989Y008896D01*
X022888Y008777D02*
X023414Y008777D01*
X023682Y008777D02*
X023808Y008777D01*
X023808Y008659D02*
X022679Y008659D01*
X022361Y008540D02*
X023808Y008540D01*
X023808Y008421D02*
X022907Y008421D01*
X023011Y008303D02*
X023808Y008303D01*
X023808Y008184D02*
X023060Y008184D01*
X023072Y008066D02*
X023808Y008066D01*
X023133Y007947D02*
X023064Y007947D01*
X022275Y007710D02*
X022218Y007710D01*
X022218Y007592D02*
X022486Y007592D01*
X022493Y007473D02*
X022881Y007473D01*
X022881Y007592D02*
X022708Y007592D01*
X022661Y007355D02*
X022926Y007355D01*
X023014Y007236D02*
X022736Y007236D01*
X022286Y008421D02*
X022243Y008421D01*
X023769Y009488D02*
X023808Y009488D01*
X023808Y009844D02*
X023802Y009844D01*
X023808Y005932D02*
X022764Y005932D01*
X022714Y005814D02*
X023808Y005814D01*
X023808Y005695D02*
X022609Y005695D01*
D13*
X019148Y006551D02*
X017558Y006551D01*
X017558Y009441D01*
X017868Y009751D01*
X016938Y010321D02*
X016938Y006031D01*
X016948Y006041D01*
X018158Y006041D01*
X018148Y006051D01*
X016938Y010321D02*
X017368Y010751D01*
D14*
X021918Y008521D02*
X021918Y007451D01*
X022318Y007051D01*
X021918Y008521D02*
X022548Y009151D01*
M02*
