G75*
G70*
%OFA0B0*%
%FSLAX24Y24*%
%IPPOS*%
%LPD*%
%AMOC8*
5,1,8,0,0,1.08239X$1,22.5*
%
%ADD10R,0.0400X0.0390*%
%ADD11C,0.0554*%
%ADD12C,0.0650*%
%ADD13C,0.0120*%
%ADD14C,0.0160*%
%ADD15C,0.0240*%
D10*
X010457Y005886D03*
X010457Y006555D03*
D11*
X011597Y006551D03*
X012597Y007051D03*
X011597Y007551D03*
X009317Y007051D03*
X008317Y007551D03*
X007287Y007951D03*
X006287Y007451D03*
X007287Y006951D03*
X008317Y006551D03*
X009317Y006051D03*
X006287Y006451D03*
X005147Y006051D03*
X004147Y006551D03*
X005147Y007051D03*
X004147Y007551D03*
X008597Y009751D03*
X009597Y009751D03*
X010097Y010751D03*
X009097Y010751D03*
X012597Y006051D03*
D12*
X004917Y009151D03*
X004917Y010151D03*
D13*
X003657Y008850D02*
X003657Y005511D01*
X012957Y005511D01*
X012957Y005764D01*
X012856Y005663D01*
X012688Y005594D01*
X012506Y005594D01*
X012338Y005663D01*
X012210Y005791D01*
X010837Y005791D01*
X010837Y005617D01*
X010731Y005511D01*
X010182Y005511D01*
X010077Y005617D01*
X010077Y005791D01*
X009703Y005791D01*
X009576Y005663D01*
X009408Y005594D01*
X009226Y005594D01*
X009058Y005663D01*
X008930Y005791D01*
X006384Y005791D01*
X006169Y005791D01*
X005533Y005791D01*
X005406Y005663D01*
X005238Y005594D01*
X005056Y005594D01*
X004888Y005663D01*
X004759Y005792D01*
X004689Y005960D01*
X004689Y006142D01*
X004751Y006291D01*
X004533Y006291D01*
X004406Y006163D01*
X004238Y006094D01*
X004056Y006094D01*
X003888Y006163D01*
X003759Y006292D01*
X003689Y006460D01*
X003689Y006642D01*
X003759Y006810D01*
X003888Y006938D01*
X004056Y007008D01*
X004238Y007008D01*
X004406Y006938D01*
X004533Y006811D01*
X004751Y006811D01*
X004689Y006960D01*
X004689Y007142D01*
X004759Y007310D01*
X004888Y007438D01*
X005056Y007508D01*
X005180Y007508D01*
X005247Y007575D01*
X005247Y007575D01*
X005422Y007751D01*
X005940Y007751D01*
X006028Y007838D01*
X006196Y007908D01*
X006378Y007908D01*
X006546Y007838D01*
X006633Y007751D01*
X006896Y007751D01*
X006849Y007864D01*
X006849Y007922D01*
X007258Y007922D01*
X007258Y007979D01*
X006849Y007979D01*
X006849Y008038D01*
X006916Y008198D01*
X007039Y008321D01*
X007200Y008388D01*
X007258Y008388D01*
X007258Y007980D01*
X007315Y007980D01*
X007315Y008388D01*
X007374Y008388D01*
X007534Y008321D01*
X007657Y008198D01*
X007724Y008038D01*
X007724Y007979D01*
X007315Y007979D01*
X007315Y007922D01*
X007724Y007922D01*
X007724Y007864D01*
X007677Y007751D01*
X007741Y007751D01*
X007879Y007612D01*
X007879Y007638D01*
X007946Y007798D01*
X008069Y007921D01*
X008230Y007988D01*
X008288Y007988D01*
X008288Y007580D01*
X008345Y007580D01*
X008345Y007988D01*
X008404Y007988D01*
X008564Y007921D01*
X008593Y007893D01*
X008563Y007966D01*
X008563Y008155D01*
X008635Y008329D01*
X008769Y008463D01*
X008943Y008535D01*
X009132Y008535D01*
X009307Y008463D01*
X009441Y008329D01*
X009513Y008155D01*
X009513Y007966D01*
X009441Y007791D01*
X009307Y007657D01*
X009132Y007585D01*
X008943Y007585D01*
X008769Y007657D01*
X008729Y007696D01*
X008754Y007638D01*
X008754Y007579D01*
X008345Y007579D01*
X008345Y007522D01*
X008754Y007522D01*
X008754Y007464D01*
X008707Y007351D01*
X008970Y007351D01*
X009058Y007438D01*
X009226Y007508D01*
X009408Y007508D01*
X009576Y007438D01*
X009663Y007351D01*
X011206Y007351D01*
X011159Y007464D01*
X011159Y007522D01*
X011568Y007522D01*
X011568Y007579D01*
X011159Y007579D01*
X011159Y007638D01*
X011226Y007798D01*
X011349Y007921D01*
X011510Y007988D01*
X011568Y007988D01*
X011568Y007580D01*
X011625Y007580D01*
X011625Y007988D01*
X011684Y007988D01*
X011844Y007921D01*
X011873Y007893D01*
X011843Y007966D01*
X011843Y008155D01*
X011915Y008329D01*
X012049Y008463D01*
X012223Y008535D01*
X012412Y008535D01*
X012587Y008463D01*
X012721Y008329D01*
X012793Y008155D01*
X012793Y007966D01*
X012721Y007791D01*
X012587Y007657D01*
X012412Y007585D01*
X012223Y007585D01*
X012049Y007657D01*
X012009Y007696D01*
X012034Y007638D01*
X012034Y007579D01*
X011625Y007579D01*
X011625Y007522D01*
X012034Y007522D01*
X012034Y007464D01*
X011987Y007351D01*
X012250Y007351D01*
X012338Y007438D01*
X012506Y007508D01*
X012688Y007508D01*
X012856Y007438D01*
X012957Y007337D01*
X012957Y009101D01*
X011837Y009101D01*
X011688Y009112D01*
X011543Y009147D01*
X011405Y009204D01*
X011278Y009282D01*
X011165Y009379D01*
X011068Y009492D01*
X010990Y009619D01*
X010933Y009757D01*
X010898Y009902D01*
X010887Y010051D01*
X010887Y010451D01*
X010898Y010600D01*
X010932Y010746D01*
X010988Y010885D01*
X011066Y011013D01*
X011163Y011128D01*
X011276Y011225D01*
X011317Y011251D01*
X009021Y011251D01*
X009064Y011208D01*
X009188Y011208D01*
X009356Y011138D01*
X009484Y011010D01*
X009554Y010842D01*
X009554Y010660D01*
X009484Y010492D01*
X009356Y010363D01*
X009188Y010294D01*
X009006Y010294D01*
X008838Y010363D01*
X008709Y010492D01*
X008639Y010660D01*
X008639Y010731D01*
X008494Y010731D01*
X008562Y010567D01*
X008562Y010377D01*
X008490Y010203D01*
X008451Y010164D01*
X008510Y010188D01*
X008568Y010188D01*
X008568Y009780D01*
X008625Y009780D01*
X008625Y010188D01*
X008684Y010188D01*
X008844Y010121D01*
X008967Y009998D01*
X009034Y009838D01*
X009034Y009779D01*
X008625Y009779D01*
X008625Y009722D01*
X008625Y009314D01*
X008684Y009314D01*
X008844Y009380D01*
X008967Y009503D01*
X009034Y009664D01*
X009034Y009722D01*
X008625Y009722D01*
X008568Y009722D01*
X008568Y009314D01*
X008510Y009314D01*
X008349Y009380D01*
X008226Y009503D01*
X008159Y009664D01*
X008159Y009722D01*
X008568Y009722D01*
X008568Y009779D01*
X008159Y009779D01*
X008159Y009838D01*
X008226Y009998D01*
X008255Y010027D01*
X008182Y009997D01*
X007993Y009997D01*
X007818Y010069D01*
X007684Y010203D01*
X007612Y010377D01*
X007612Y010567D01*
X007680Y010731D01*
X007121Y010731D01*
X005417Y009027D01*
X005408Y009018D01*
X005345Y008865D01*
X005203Y008723D01*
X005017Y008646D01*
X004816Y008646D01*
X004631Y008723D01*
X004489Y008865D01*
X004412Y009050D01*
X004412Y009251D01*
X004489Y009437D01*
X004631Y009579D01*
X004816Y009656D01*
X005017Y009656D01*
X005144Y009603D01*
X006792Y011251D01*
X003657Y011251D01*
X003657Y010451D01*
X003692Y010487D01*
X003838Y010547D01*
X003995Y010547D01*
X004141Y010487D01*
X004253Y010375D01*
X004313Y010230D01*
X004313Y010072D01*
X004253Y009926D01*
X004141Y009815D01*
X003995Y009754D01*
X003838Y009754D01*
X003692Y009815D01*
X003657Y009850D01*
X003657Y009451D01*
X003692Y009487D01*
X003838Y009547D01*
X003995Y009547D01*
X004141Y009487D01*
X004253Y009375D01*
X004313Y009230D01*
X004313Y009072D01*
X004253Y008926D01*
X004141Y008815D01*
X003995Y008754D01*
X003838Y008754D01*
X003692Y008815D01*
X003657Y008850D01*
X003657Y008777D02*
X003783Y008777D01*
X003657Y008659D02*
X004786Y008659D01*
X004773Y008535D02*
X004599Y008463D01*
X004465Y008329D01*
X004393Y008155D01*
X004393Y007966D01*
X004423Y007893D01*
X004394Y007921D01*
X004234Y007988D01*
X004175Y007988D01*
X004175Y007580D01*
X004118Y007580D01*
X004118Y007988D01*
X004060Y007988D01*
X003899Y007921D01*
X003776Y007798D01*
X003709Y007638D01*
X003709Y007579D01*
X004118Y007579D01*
X004118Y007522D01*
X004175Y007522D01*
X004175Y007114D01*
X004234Y007114D01*
X004394Y007180D01*
X004517Y007303D01*
X004584Y007464D01*
X004584Y007522D01*
X004175Y007522D01*
X004175Y007579D01*
X004584Y007579D01*
X004584Y007638D01*
X004559Y007697D01*
X004599Y007657D01*
X004773Y007585D01*
X004962Y007585D01*
X005137Y007657D01*
X005271Y007791D01*
X005343Y007966D01*
X005343Y008155D01*
X005271Y008329D01*
X005137Y008463D01*
X004962Y008535D01*
X004773Y008535D01*
X004557Y008421D02*
X003657Y008421D01*
X003657Y008303D02*
X004454Y008303D01*
X004405Y008184D02*
X003657Y008184D01*
X003657Y008066D02*
X004393Y008066D01*
X004400Y007947D02*
X004332Y007947D01*
X004175Y007947D02*
X004118Y007947D01*
X004118Y007829D02*
X004175Y007829D01*
X004175Y007710D02*
X004118Y007710D01*
X004118Y007592D02*
X004175Y007592D01*
X004118Y007522D02*
X003709Y007522D01*
X003709Y007464D01*
X003776Y007303D01*
X003899Y007180D01*
X004060Y007114D01*
X004118Y007114D01*
X004118Y007522D01*
X004118Y007473D02*
X004175Y007473D01*
X004175Y007355D02*
X004118Y007355D01*
X004118Y007236D02*
X004175Y007236D01*
X004175Y007117D02*
X004118Y007117D01*
X004050Y007117D02*
X003657Y007117D01*
X003657Y006999D02*
X004034Y006999D01*
X004259Y006999D02*
X004689Y006999D01*
X004689Y007117D02*
X004243Y007117D01*
X004450Y007236D02*
X004729Y007236D01*
X004804Y007355D02*
X004538Y007355D01*
X004584Y007473D02*
X004972Y007473D01*
X004979Y007592D02*
X005263Y007592D01*
X005190Y007710D02*
X005382Y007710D01*
X005286Y007829D02*
X006018Y007829D01*
X006555Y007829D02*
X006864Y007829D01*
X006861Y008066D02*
X005343Y008066D01*
X005336Y007947D02*
X007258Y007947D01*
X007315Y007947D02*
X008132Y007947D01*
X008288Y007947D02*
X008345Y007947D01*
X008345Y007829D02*
X008288Y007829D01*
X008288Y007710D02*
X008345Y007710D01*
X008345Y007592D02*
X008288Y007592D01*
X008754Y007592D02*
X008927Y007592D01*
X008754Y007473D02*
X009142Y007473D01*
X009149Y007592D02*
X011159Y007592D01*
X011159Y007473D02*
X009492Y007473D01*
X009659Y007355D02*
X011205Y007355D01*
X011568Y007592D02*
X011625Y007592D01*
X011625Y007710D02*
X011568Y007710D01*
X011568Y007829D02*
X011625Y007829D01*
X011625Y007947D02*
X011568Y007947D01*
X011412Y007947D02*
X009506Y007947D01*
X009513Y008066D02*
X011843Y008066D01*
X011850Y007947D02*
X011782Y007947D01*
X011855Y008184D02*
X009501Y008184D01*
X009452Y008303D02*
X011904Y008303D01*
X012007Y008421D02*
X009349Y008421D01*
X008727Y008421D02*
X005179Y008421D01*
X005282Y008303D02*
X007021Y008303D01*
X006910Y008184D02*
X005331Y008184D01*
X005047Y008659D02*
X012957Y008659D01*
X012957Y008777D02*
X005257Y008777D01*
X005357Y008896D02*
X012957Y008896D01*
X012957Y009014D02*
X005406Y009014D01*
X005523Y009133D02*
X011604Y009133D01*
X011329Y009251D02*
X005641Y009251D01*
X005760Y009370D02*
X008374Y009370D01*
X008241Y009488D02*
X005878Y009488D01*
X005997Y009607D02*
X008183Y009607D01*
X008162Y009844D02*
X006234Y009844D01*
X006353Y009963D02*
X008211Y009963D01*
X007806Y010081D02*
X006471Y010081D01*
X006590Y010200D02*
X007688Y010200D01*
X007637Y010318D02*
X006708Y010318D01*
X006827Y010437D02*
X007612Y010437D01*
X007612Y010555D02*
X006945Y010555D01*
X007064Y010674D02*
X007656Y010674D01*
X008487Y010200D02*
X009486Y010200D01*
X009506Y010208D02*
X009338Y010138D01*
X009209Y010010D01*
X009139Y009842D01*
X009139Y009660D01*
X009209Y009492D01*
X009338Y009363D01*
X009506Y009294D01*
X009688Y009294D01*
X009856Y009363D01*
X009984Y009492D01*
X010054Y009660D01*
X010054Y009842D01*
X009984Y010010D01*
X009856Y010138D01*
X009688Y010208D01*
X009506Y010208D01*
X009708Y010200D02*
X010887Y010200D01*
X010887Y010318D02*
X010247Y010318D01*
X010188Y010294D02*
X010356Y010363D01*
X010484Y010492D01*
X010554Y010660D01*
X010554Y010842D01*
X010484Y011010D01*
X010356Y011138D01*
X010188Y011208D01*
X010006Y011208D01*
X009838Y011138D01*
X009709Y011010D01*
X009639Y010842D01*
X009639Y010660D01*
X009709Y010492D01*
X009838Y010363D01*
X010006Y010294D01*
X010188Y010294D01*
X009946Y010318D02*
X009247Y010318D01*
X009429Y010437D02*
X009764Y010437D01*
X009683Y010555D02*
X009510Y010555D01*
X009554Y010674D02*
X009639Y010674D01*
X009639Y010792D02*
X009554Y010792D01*
X009525Y010911D02*
X009668Y010911D01*
X009729Y011029D02*
X009464Y011029D01*
X009332Y011148D02*
X009861Y011148D01*
X010332Y011148D02*
X011186Y011148D01*
X011080Y011029D02*
X010464Y011029D01*
X010525Y010911D02*
X011004Y010911D01*
X010951Y010792D02*
X010554Y010792D01*
X010554Y010674D02*
X010915Y010674D01*
X010894Y010555D02*
X010510Y010555D01*
X010429Y010437D02*
X010887Y010437D01*
X010887Y010081D02*
X009913Y010081D01*
X010004Y009963D02*
X010894Y009963D01*
X010912Y009844D02*
X010053Y009844D01*
X010054Y009725D02*
X010946Y009725D01*
X010998Y009607D02*
X010032Y009607D01*
X009981Y009488D02*
X011071Y009488D01*
X011176Y009370D02*
X009862Y009370D01*
X009331Y009370D02*
X008819Y009370D01*
X008952Y009488D02*
X009213Y009488D01*
X009161Y009607D02*
X009010Y009607D01*
X009139Y009725D02*
X008625Y009725D01*
X008568Y009725D02*
X006115Y009725D01*
X005504Y009963D02*
X005363Y009963D01*
X005328Y009876D02*
X005401Y010054D01*
X005401Y010102D01*
X004965Y010102D01*
X004965Y009666D01*
X005013Y009666D01*
X005191Y009740D01*
X005328Y009876D01*
X005295Y009844D02*
X005386Y009844D01*
X005267Y009725D02*
X005156Y009725D01*
X005149Y009607D02*
X005134Y009607D01*
X004965Y009725D02*
X004868Y009725D01*
X004868Y009666D02*
X004868Y010102D01*
X004965Y010102D01*
X004965Y010199D01*
X005401Y010199D01*
X005401Y010247D01*
X005328Y010425D01*
X005191Y010562D01*
X005013Y010636D01*
X004965Y010636D01*
X004965Y010199D01*
X004868Y010199D01*
X004868Y010102D01*
X004432Y010102D01*
X004432Y010054D01*
X004506Y009876D01*
X004642Y009740D01*
X004820Y009666D01*
X004868Y009666D01*
X004868Y009844D02*
X004965Y009844D01*
X004965Y009963D02*
X004868Y009963D01*
X004868Y010081D02*
X004965Y010081D01*
X004965Y010200D02*
X004868Y010200D01*
X004868Y010199D02*
X004868Y010636D01*
X004820Y010636D01*
X004642Y010562D01*
X004506Y010425D01*
X004432Y010247D01*
X004432Y010199D01*
X004868Y010199D01*
X004868Y010318D02*
X004965Y010318D01*
X004965Y010437D02*
X004868Y010437D01*
X004868Y010555D02*
X004965Y010555D01*
X005198Y010555D02*
X006097Y010555D01*
X005978Y010437D02*
X005316Y010437D01*
X005372Y010318D02*
X005860Y010318D01*
X005741Y010200D02*
X005401Y010200D01*
X005401Y010081D02*
X005623Y010081D01*
X004677Y009725D02*
X003657Y009725D01*
X003657Y009607D02*
X004699Y009607D01*
X004540Y009488D02*
X004138Y009488D01*
X004255Y009370D02*
X004461Y009370D01*
X004412Y009251D02*
X004304Y009251D01*
X004313Y009133D02*
X004412Y009133D01*
X004427Y009014D02*
X004289Y009014D01*
X004222Y008896D02*
X004476Y008896D01*
X004576Y008777D02*
X004051Y008777D01*
X003657Y008540D02*
X012957Y008540D01*
X012957Y008421D02*
X012629Y008421D01*
X012732Y008303D02*
X012957Y008303D01*
X012957Y008184D02*
X012781Y008184D01*
X012793Y008066D02*
X012957Y008066D01*
X012957Y007947D02*
X012786Y007947D01*
X012736Y007829D02*
X012957Y007829D01*
X012957Y007710D02*
X012640Y007710D01*
X012429Y007592D02*
X012957Y007592D01*
X012957Y007473D02*
X012772Y007473D01*
X012939Y007355D02*
X012957Y007355D01*
X012422Y007473D02*
X012034Y007473D01*
X012034Y007592D02*
X012207Y007592D01*
X012254Y007355D02*
X011988Y007355D01*
X011189Y007710D02*
X009360Y007710D01*
X009456Y007829D02*
X011256Y007829D01*
X008974Y007355D02*
X008708Y007355D01*
X007909Y007710D02*
X007781Y007710D01*
X007709Y007829D02*
X007976Y007829D01*
X008502Y007947D02*
X008570Y007947D01*
X008563Y008066D02*
X007712Y008066D01*
X007663Y008184D02*
X008575Y008184D01*
X008624Y008303D02*
X007553Y008303D01*
X007315Y008303D02*
X007258Y008303D01*
X007258Y008184D02*
X007315Y008184D01*
X007315Y008066D02*
X007258Y008066D01*
X008568Y009370D02*
X008625Y009370D01*
X008625Y009488D02*
X008568Y009488D01*
X008568Y009607D02*
X008625Y009607D01*
X008625Y009844D02*
X008568Y009844D01*
X008568Y009963D02*
X008625Y009963D01*
X008625Y010081D02*
X008568Y010081D01*
X008885Y010081D02*
X009280Y010081D01*
X009190Y009963D02*
X008982Y009963D01*
X009031Y009844D02*
X009140Y009844D01*
X008946Y010318D02*
X008538Y010318D01*
X008562Y010437D02*
X008764Y010437D01*
X008683Y010555D02*
X008562Y010555D01*
X008518Y010674D02*
X008639Y010674D01*
X006690Y011148D02*
X003657Y011148D01*
X003657Y011029D02*
X006571Y011029D01*
X006453Y010911D02*
X003657Y010911D01*
X003657Y010792D02*
X006334Y010792D01*
X006215Y010674D02*
X003657Y010674D01*
X003657Y010555D02*
X004635Y010555D01*
X004517Y010437D02*
X004191Y010437D01*
X004276Y010318D02*
X004461Y010318D01*
X004432Y010200D02*
X004313Y010200D01*
X004313Y010081D02*
X004432Y010081D01*
X004470Y009963D02*
X004268Y009963D01*
X004171Y009844D02*
X004538Y009844D01*
X003663Y009844D02*
X003657Y009844D01*
X003657Y009488D02*
X003695Y009488D01*
X003657Y007947D02*
X003962Y007947D01*
X003806Y007829D02*
X003657Y007829D01*
X003657Y007710D02*
X003739Y007710D01*
X003709Y007592D02*
X003657Y007592D01*
X003657Y007473D02*
X003709Y007473D01*
X003755Y007355D02*
X003657Y007355D01*
X003657Y007236D02*
X003843Y007236D01*
X003830Y006880D02*
X003657Y006880D01*
X003657Y006762D02*
X003739Y006762D01*
X003690Y006643D02*
X003657Y006643D01*
X003657Y006525D02*
X003689Y006525D01*
X003712Y006406D02*
X003657Y006406D01*
X003657Y006288D02*
X003763Y006288D01*
X003657Y006169D02*
X003882Y006169D01*
X003657Y006051D02*
X004689Y006051D01*
X004701Y006169D02*
X004411Y006169D01*
X004530Y006288D02*
X004750Y006288D01*
X004701Y005932D02*
X003657Y005932D01*
X003657Y005814D02*
X004750Y005814D01*
X004856Y005695D02*
X003657Y005695D01*
X003657Y005576D02*
X010117Y005576D01*
X010077Y005695D02*
X009607Y005695D01*
X009026Y005695D02*
X005437Y005695D01*
X004722Y006880D02*
X004463Y006880D01*
X004584Y007592D02*
X004757Y007592D01*
X010796Y005576D02*
X012957Y005576D01*
X012957Y005695D02*
X012887Y005695D01*
X012306Y005695D02*
X010837Y005695D01*
D14*
X010457Y005886D02*
X010527Y006051D01*
X012597Y006051D01*
X011597Y006551D02*
X010527Y006551D01*
X010457Y006555D01*
X010527Y006551D02*
X010527Y006541D01*
X010527Y006551D02*
X008317Y006551D01*
X007717Y006551D01*
X007307Y006961D01*
X007297Y006951D01*
X007287Y006951D01*
X007287Y006961D01*
X005967Y006961D01*
X005567Y006551D01*
X004147Y006551D01*
X005147Y006051D02*
X006277Y006051D01*
X006277Y006441D01*
X006287Y006451D01*
X006277Y006051D02*
X009317Y006051D01*
X010527Y006051D01*
X008317Y006551D02*
X008297Y006551D01*
X007297Y006961D02*
X007287Y006961D01*
X007927Y007951D02*
X008327Y007551D01*
X008317Y007551D01*
X011597Y007551D01*
X011617Y007551D01*
X007927Y007951D02*
X007287Y007951D01*
X005527Y007951D01*
X005127Y007551D01*
X004147Y007551D01*
X004147Y008341D01*
X004397Y008591D01*
X004397Y009631D01*
X004917Y010151D01*
X007927Y009081D02*
X007927Y007951D01*
X007927Y009081D02*
X008597Y009751D01*
D15*
X009097Y010751D02*
X008817Y011031D01*
X006997Y011031D01*
X005117Y009151D01*
X004917Y009151D01*
X005547Y007451D02*
X006287Y007451D01*
X007617Y007451D01*
X008017Y007051D01*
X009317Y007051D01*
X012597Y007051D01*
X005547Y007451D02*
X005147Y007051D01*
M02*
