G75*
G70*
%OFA0B0*%
%FSLAX24Y24*%
%IPPOS*%
%LPD*%
%AMOC8*
5,1,8,0,0,1.08239X$1,22.5*
%
%ADD10C,0.0000*%
%ADD11C,0.0090*%
%ADD12C,0.0100*%
%ADD13C,0.0050*%
D10*
X003477Y005331D02*
X003477Y011431D01*
X013137Y011431D01*
X013137Y005331D01*
X003477Y005331D01*
X004573Y008060D02*
X004575Y008095D01*
X004581Y008129D01*
X004591Y008163D01*
X004606Y008195D01*
X004623Y008225D01*
X004645Y008253D01*
X004669Y008278D01*
X004696Y008300D01*
X004726Y008318D01*
X004757Y008333D01*
X004790Y008345D01*
X004824Y008352D01*
X004859Y008355D01*
X004894Y008354D01*
X004929Y008349D01*
X004962Y008339D01*
X004995Y008326D01*
X005025Y008309D01*
X005054Y008289D01*
X005080Y008265D01*
X005102Y008239D01*
X005122Y008210D01*
X005138Y008179D01*
X005150Y008146D01*
X005158Y008112D01*
X005162Y008077D01*
X005162Y008043D01*
X005158Y008008D01*
X005150Y007974D01*
X005138Y007941D01*
X005122Y007910D01*
X005102Y007881D01*
X005080Y007855D01*
X005054Y007831D01*
X005025Y007811D01*
X004995Y007794D01*
X004962Y007781D01*
X004929Y007771D01*
X004894Y007766D01*
X004859Y007765D01*
X004824Y007768D01*
X004790Y007775D01*
X004757Y007787D01*
X004726Y007802D01*
X004696Y007820D01*
X004669Y007842D01*
X004645Y007867D01*
X004623Y007895D01*
X004606Y007925D01*
X004591Y007957D01*
X004581Y007991D01*
X004575Y008025D01*
X004573Y008060D01*
X003700Y009151D02*
X003702Y009181D01*
X003708Y009210D01*
X003718Y009237D01*
X003732Y009264D01*
X003749Y009288D01*
X003769Y009310D01*
X003792Y009328D01*
X003817Y009344D01*
X003844Y009355D01*
X003873Y009363D01*
X003902Y009367D01*
X003932Y009367D01*
X003961Y009363D01*
X003990Y009355D01*
X004017Y009344D01*
X004042Y009328D01*
X004065Y009310D01*
X004085Y009288D01*
X004102Y009264D01*
X004116Y009237D01*
X004126Y009210D01*
X004132Y009181D01*
X004134Y009151D01*
X004132Y009121D01*
X004126Y009092D01*
X004116Y009065D01*
X004102Y009038D01*
X004085Y009014D01*
X004065Y008992D01*
X004042Y008974D01*
X004017Y008958D01*
X003990Y008947D01*
X003961Y008939D01*
X003932Y008935D01*
X003902Y008935D01*
X003873Y008939D01*
X003844Y008947D01*
X003817Y008958D01*
X003792Y008974D01*
X003769Y008992D01*
X003749Y009014D01*
X003732Y009038D01*
X003718Y009065D01*
X003708Y009092D01*
X003702Y009121D01*
X003700Y009151D01*
X003700Y010151D02*
X003702Y010181D01*
X003708Y010210D01*
X003718Y010237D01*
X003732Y010264D01*
X003749Y010288D01*
X003769Y010310D01*
X003792Y010328D01*
X003817Y010344D01*
X003844Y010355D01*
X003873Y010363D01*
X003902Y010367D01*
X003932Y010367D01*
X003961Y010363D01*
X003990Y010355D01*
X004017Y010344D01*
X004042Y010328D01*
X004065Y010310D01*
X004085Y010288D01*
X004102Y010264D01*
X004116Y010237D01*
X004126Y010210D01*
X004132Y010181D01*
X004134Y010151D01*
X004132Y010121D01*
X004126Y010092D01*
X004116Y010065D01*
X004102Y010038D01*
X004085Y010014D01*
X004065Y009992D01*
X004042Y009974D01*
X004017Y009958D01*
X003990Y009947D01*
X003961Y009939D01*
X003932Y009935D01*
X003902Y009935D01*
X003873Y009939D01*
X003844Y009947D01*
X003817Y009958D01*
X003792Y009974D01*
X003769Y009992D01*
X003749Y010014D01*
X003732Y010038D01*
X003718Y010065D01*
X003708Y010092D01*
X003702Y010121D01*
X003700Y010151D01*
X007792Y010472D02*
X007794Y010507D01*
X007800Y010541D01*
X007810Y010575D01*
X007825Y010607D01*
X007842Y010637D01*
X007864Y010665D01*
X007888Y010690D01*
X007915Y010712D01*
X007945Y010730D01*
X007976Y010745D01*
X008009Y010757D01*
X008043Y010764D01*
X008078Y010767D01*
X008113Y010766D01*
X008148Y010761D01*
X008181Y010751D01*
X008214Y010738D01*
X008244Y010721D01*
X008273Y010701D01*
X008299Y010677D01*
X008321Y010651D01*
X008341Y010622D01*
X008357Y010591D01*
X008369Y010558D01*
X008377Y010524D01*
X008381Y010489D01*
X008381Y010455D01*
X008377Y010420D01*
X008369Y010386D01*
X008357Y010353D01*
X008341Y010322D01*
X008321Y010293D01*
X008299Y010267D01*
X008273Y010243D01*
X008244Y010223D01*
X008214Y010206D01*
X008181Y010193D01*
X008148Y010183D01*
X008113Y010178D01*
X008078Y010177D01*
X008043Y010180D01*
X008009Y010187D01*
X007976Y010199D01*
X007945Y010214D01*
X007915Y010232D01*
X007888Y010254D01*
X007864Y010279D01*
X007842Y010307D01*
X007825Y010337D01*
X007810Y010369D01*
X007800Y010403D01*
X007794Y010437D01*
X007792Y010472D01*
X011506Y010251D02*
X011508Y010299D01*
X011515Y010347D01*
X011526Y010394D01*
X011541Y010440D01*
X011560Y010484D01*
X011583Y010527D01*
X011610Y010567D01*
X011641Y010605D01*
X011675Y010639D01*
X011711Y010670D01*
X011751Y010698D01*
X011793Y010722D01*
X011837Y010743D01*
X011882Y010759D01*
X011929Y010771D01*
X011977Y010779D01*
X012025Y010782D01*
X012073Y010781D01*
X012121Y010775D01*
X012169Y010765D01*
X012215Y010751D01*
X012260Y010733D01*
X012302Y010711D01*
X012343Y010685D01*
X012381Y010655D01*
X012417Y010622D01*
X012449Y010586D01*
X012478Y010547D01*
X012503Y010506D01*
X012524Y010463D01*
X012541Y010417D01*
X012554Y010371D01*
X012563Y010323D01*
X012567Y010275D01*
X012567Y010227D01*
X012563Y010179D01*
X012554Y010131D01*
X012541Y010085D01*
X012524Y010039D01*
X012503Y009996D01*
X012478Y009955D01*
X012449Y009916D01*
X012417Y009880D01*
X012381Y009847D01*
X012343Y009817D01*
X012303Y009791D01*
X012260Y009769D01*
X012215Y009751D01*
X012169Y009737D01*
X012121Y009727D01*
X012073Y009721D01*
X012025Y009720D01*
X011977Y009723D01*
X011929Y009731D01*
X011882Y009743D01*
X011837Y009759D01*
X011793Y009780D01*
X011751Y009804D01*
X011711Y009832D01*
X011675Y009863D01*
X011641Y009897D01*
X011610Y009935D01*
X011583Y009975D01*
X011560Y010018D01*
X011541Y010062D01*
X011526Y010108D01*
X011515Y010155D01*
X011508Y010203D01*
X011506Y010251D01*
X012023Y008060D02*
X012025Y008095D01*
X012031Y008129D01*
X012041Y008163D01*
X012056Y008195D01*
X012073Y008225D01*
X012095Y008253D01*
X012119Y008278D01*
X012146Y008300D01*
X012176Y008318D01*
X012207Y008333D01*
X012240Y008345D01*
X012274Y008352D01*
X012309Y008355D01*
X012344Y008354D01*
X012379Y008349D01*
X012412Y008339D01*
X012445Y008326D01*
X012475Y008309D01*
X012504Y008289D01*
X012530Y008265D01*
X012552Y008239D01*
X012572Y008210D01*
X012588Y008179D01*
X012600Y008146D01*
X012608Y008112D01*
X012612Y008077D01*
X012612Y008043D01*
X012608Y008008D01*
X012600Y007974D01*
X012588Y007941D01*
X012572Y007910D01*
X012552Y007881D01*
X012530Y007855D01*
X012504Y007831D01*
X012475Y007811D01*
X012445Y007794D01*
X012412Y007781D01*
X012379Y007771D01*
X012344Y007766D01*
X012309Y007765D01*
X012274Y007768D01*
X012240Y007775D01*
X012207Y007787D01*
X012176Y007802D01*
X012146Y007820D01*
X012119Y007842D01*
X012095Y007867D01*
X012073Y007895D01*
X012056Y007925D01*
X012041Y007957D01*
X012031Y007991D01*
X012025Y008025D01*
X012023Y008060D01*
X008743Y008060D02*
X008745Y008095D01*
X008751Y008129D01*
X008761Y008163D01*
X008776Y008195D01*
X008793Y008225D01*
X008815Y008253D01*
X008839Y008278D01*
X008866Y008300D01*
X008896Y008318D01*
X008927Y008333D01*
X008960Y008345D01*
X008994Y008352D01*
X009029Y008355D01*
X009064Y008354D01*
X009099Y008349D01*
X009132Y008339D01*
X009165Y008326D01*
X009195Y008309D01*
X009224Y008289D01*
X009250Y008265D01*
X009272Y008239D01*
X009292Y008210D01*
X009308Y008179D01*
X009320Y008146D01*
X009328Y008112D01*
X009332Y008077D01*
X009332Y008043D01*
X009328Y008008D01*
X009320Y007974D01*
X009308Y007941D01*
X009292Y007910D01*
X009272Y007881D01*
X009250Y007855D01*
X009224Y007831D01*
X009195Y007811D01*
X009165Y007794D01*
X009132Y007781D01*
X009099Y007771D01*
X009064Y007766D01*
X009029Y007765D01*
X008994Y007768D01*
X008960Y007775D01*
X008927Y007787D01*
X008896Y007802D01*
X008866Y007820D01*
X008839Y007842D01*
X008815Y007867D01*
X008793Y007895D01*
X008776Y007925D01*
X008761Y007957D01*
X008751Y007991D01*
X008745Y008025D01*
X008743Y008060D01*
D11*
X009419Y008629D02*
X009488Y008629D01*
X009556Y008697D01*
X009556Y009039D01*
X009283Y009039D02*
X009283Y008834D01*
X009351Y008766D01*
X009556Y008766D01*
X009096Y008766D02*
X009096Y008971D01*
X009027Y009039D01*
X008891Y009039D01*
X008891Y008903D02*
X009096Y008903D01*
X009096Y008766D02*
X008891Y008766D01*
X008822Y008834D01*
X008891Y008903D01*
X008636Y008834D02*
X008636Y009039D01*
X008362Y009039D02*
X008362Y008834D01*
X008430Y008766D01*
X008499Y008834D01*
X008567Y008766D01*
X008636Y008834D01*
X008175Y008971D02*
X007902Y008971D01*
X008107Y009176D01*
X008107Y008766D01*
X010002Y009039D02*
X010138Y008766D01*
X010275Y009039D01*
X010462Y009039D02*
X010599Y009176D01*
X010599Y008766D01*
X010462Y008766D02*
X010736Y008766D01*
X006737Y010984D02*
X006669Y010916D01*
X006532Y010916D01*
X006464Y010984D01*
X006464Y011258D01*
X006532Y011326D01*
X006669Y011326D01*
X006737Y011258D01*
X006277Y011258D02*
X006277Y010984D01*
X006209Y010916D01*
X006003Y010916D01*
X006003Y011326D01*
X006209Y011326D01*
X006277Y011258D01*
X005817Y011326D02*
X005817Y011053D01*
X005680Y010916D01*
X005543Y011053D01*
X005543Y011326D01*
X005288Y011326D02*
X005083Y011121D01*
X005356Y011121D01*
X005288Y010916D02*
X005288Y011326D01*
X004896Y011258D02*
X004896Y011189D01*
X004622Y010916D01*
X004896Y010916D01*
X004436Y011121D02*
X004162Y011121D01*
X003975Y011121D02*
X003770Y011121D01*
X003702Y011189D01*
X003702Y011258D01*
X003770Y011326D01*
X003907Y011326D01*
X003975Y011258D01*
X003975Y010984D01*
X003907Y010916D01*
X003770Y010916D01*
X003702Y010984D01*
X004622Y011258D02*
X004691Y011326D01*
X004827Y011326D01*
X004896Y011258D01*
D12*
X003696Y010745D02*
X006137Y010745D01*
X006137Y008556D01*
X003696Y008556D01*
X003696Y010745D01*
X006407Y010171D02*
X006674Y010171D01*
X006540Y009304D02*
X006540Y009037D01*
X006407Y009171D02*
X006674Y009171D01*
D13*
X007984Y009306D02*
X010709Y009306D01*
X010709Y011196D01*
X007984Y011196D01*
X007984Y010751D01*
X008297Y010751D01*
X008297Y009759D01*
X008297Y009751D02*
X007984Y009751D01*
X007984Y009306D01*
X010082Y009446D02*
X010248Y009696D01*
X010358Y009696D02*
X010358Y009571D01*
X010441Y009613D01*
X010483Y009613D01*
X010525Y009571D01*
X010525Y009487D01*
X010483Y009446D01*
X010400Y009446D01*
X010358Y009487D01*
X010248Y009446D02*
X010082Y009696D01*
X010358Y009696D02*
X010525Y009696D01*
X011152Y008163D02*
X011152Y005439D01*
X013041Y005439D01*
X013041Y008163D01*
X012597Y008163D01*
X012597Y007851D01*
X011604Y007851D01*
X011597Y007851D02*
X011597Y008163D01*
X011152Y008163D01*
X009761Y008163D02*
X009761Y005439D01*
X007872Y005439D01*
X007872Y008163D01*
X008317Y008163D01*
X008317Y007851D01*
X008324Y007851D02*
X009317Y007851D01*
X009317Y008163D01*
X009761Y008163D01*
X010082Y007096D02*
X010207Y007096D01*
X010248Y007054D01*
X010248Y006971D01*
X010207Y006929D01*
X010082Y006929D01*
X010165Y006929D02*
X010248Y006846D01*
X010358Y006887D02*
X010400Y006846D01*
X010483Y006846D01*
X010525Y006887D01*
X010525Y006971D01*
X010483Y007013D01*
X010441Y007013D01*
X010358Y006971D01*
X010358Y007096D01*
X010525Y007096D01*
X010634Y007054D02*
X010676Y007096D01*
X010759Y007096D01*
X010801Y007054D01*
X010801Y007013D01*
X010634Y006846D01*
X010801Y006846D01*
X010082Y006846D02*
X010082Y007096D01*
X011332Y005846D02*
X011498Y005596D01*
X011608Y005596D02*
X011775Y005763D01*
X011775Y005804D01*
X011733Y005846D01*
X011650Y005846D01*
X011608Y005804D01*
X011498Y005846D02*
X011332Y005596D01*
X011608Y005596D02*
X011775Y005596D01*
X008475Y005721D02*
X008308Y005721D01*
X008433Y005846D01*
X008433Y005596D01*
X008198Y005596D02*
X008032Y005846D01*
X008198Y005846D02*
X008032Y005596D01*
X005591Y005439D02*
X005591Y008163D01*
X005147Y008163D01*
X005147Y007851D01*
X004154Y007851D01*
X004147Y007851D02*
X004147Y008163D01*
X003702Y008163D01*
X003702Y005439D01*
X005591Y005439D01*
X004325Y005596D02*
X004158Y005596D01*
X004241Y005596D02*
X004241Y005846D01*
X004158Y005763D01*
X004048Y005846D02*
X003882Y005596D01*
X004048Y005596D02*
X003882Y005846D01*
X003882Y009446D02*
X004048Y009696D01*
X004158Y009696D02*
X004325Y009696D01*
X004325Y009654D01*
X004158Y009487D01*
X004158Y009446D01*
X004048Y009446D02*
X003882Y009696D01*
M02*
