%
M48
M72
T01C0.0118
T02C0.0236
T03C0.0354
%
T01
X8002Y9458
X7402Y10258
X7202Y10058
X6852Y9908
X7802Y10908
X7502Y11008
X7502Y11408
X7702Y11608
X8102Y11758
X7302Y12458
X7052Y12308
X6652Y12308
X6452Y12508
X6252Y12308
X6052Y12508
X5852Y12308
X5652Y12508
X5252Y12108
X4977Y11758
X4952Y12558
X4952Y13258
X3902Y13408
X3902Y12758
X3952Y11958
X3252Y11758
X3052Y12458
X3002Y13408
X2402Y11558
X4452Y10908
X4752Y10408
X7502Y13008
X7852Y13858
X7502Y14158
X9502Y11808
X10252Y11408
X10152Y10258
X11402Y10458
X11952Y10308
X10702Y13608
X8902Y10708
X8252Y10558
T02
X6602Y10858
X6602Y11358
X6102Y11358
X6102Y10858
T03
X3052Y9241
X3552Y9241
X4052Y9241
X4552Y9241
X5052Y9241
X5552Y9241
X6052Y9241
X6552Y9241
X7052Y9241
X7552Y9241
X9052Y9241
X10052Y9241
X11052Y9241
X10052Y14725
X9552Y14725
X6052Y14725
X5552Y14725
X5052Y14725
X4552Y14725
X4052Y14725
X3552Y14725
X3052Y14725
X2552Y14725
M30
