%
M48
M72
T01C0.0118
T02C0.0236
T03C0.0315
%
T01
X8552Y9458
X8252Y10558
X7802Y10908
X7502Y11008
X7502Y11408
X7702Y11608
X8102Y11758
X7302Y12458
X7052Y12308
X6652Y12308
X6452Y12508
X6252Y12308
X6052Y12508
X5852Y12308
X5652Y12508
X5252Y12108
X4977Y11758
X4452Y10908
X4752Y10408
X3502Y11708
X3952Y11958
X4002Y12558
X3602Y12808
X4052Y13408
X4952Y13258
X5252Y12908
X4952Y12558
X3202Y13758
X2452Y10558
X6752Y9808
X7052Y9908
X7302Y10208
X8902Y10708
X9502Y11808
X10252Y11408
X10152Y10258
X11402Y10458
X11952Y10308
X12252Y10308
X10702Y13608
X10402Y13608
X8252Y14308
X7752Y13758
X7502Y14158
X7502Y13008
T02
X6602Y11358
X6602Y10858
X6102Y10858
X6102Y11358
T03
X3552Y9241
X4052Y9241
X4552Y9241
X5052Y9241
X5552Y9241
X6052Y9241
X6552Y9241
X7052Y9241
X7552Y9241
X8052Y9241
X9052Y9241
X10052Y9241
X11052Y9241
X10052Y14725
X9552Y14725
X6052Y14725
X5552Y14725
X5052Y14725
X4552Y14725
X4052Y14725
X3552Y14725
X3052Y14725
X2552Y14725
M30
