G75*
G70*
%OFA0B0*%
%FSLAX24Y24*%
%IPPOS*%
%LPD*%
%AMOC8*
5,1,8,0,0,1.08239X$1,22.5*
%
%ADD10C,0.0000*%
%ADD11C,0.0050*%
%ADD12C,0.0070*%
%ADD13C,0.0100*%
D10*
X001752Y009008D02*
X001752Y009208D01*
X012602Y009208D01*
X012602Y014758D01*
X001752Y014758D01*
X001752Y009208D01*
X001752Y009008D02*
X012602Y009008D01*
X012602Y009208D01*
X012602Y014758D02*
X012602Y014958D01*
X001752Y014958D01*
X001752Y014758D01*
D11*
X005177Y013325D02*
X005177Y013092D01*
X005236Y013033D01*
X005352Y013033D01*
X005411Y013092D01*
X005411Y012984D02*
X005411Y012633D01*
X005546Y012692D02*
X005604Y012633D01*
X005721Y012633D01*
X005779Y012692D01*
X005779Y012808D01*
X005721Y012867D01*
X005604Y012867D01*
X005546Y012808D01*
X005546Y012692D01*
X005294Y012867D02*
X005411Y012984D01*
X005294Y012867D02*
X005177Y012984D01*
X005177Y012633D01*
X005604Y013033D02*
X005546Y013092D01*
X005546Y013208D01*
X005604Y013267D01*
X005721Y013267D01*
X005779Y013208D01*
X005779Y013092D01*
X005721Y013033D01*
X005604Y013033D01*
X005914Y013033D02*
X005914Y013267D01*
X005914Y013150D02*
X006031Y013267D01*
X006089Y013267D01*
X006221Y013208D02*
X006279Y013267D01*
X006396Y013267D01*
X006454Y013208D01*
X006454Y013150D01*
X006221Y013150D01*
X006221Y013092D02*
X006221Y013208D01*
X006221Y013092D02*
X006279Y013033D01*
X006396Y013033D01*
X006147Y012984D02*
X006147Y012633D01*
X005972Y012633D01*
X005914Y012692D01*
X005914Y012808D01*
X005972Y012867D01*
X006147Y012867D01*
X005411Y013325D02*
X005352Y013384D01*
X005236Y013384D01*
X005177Y013325D01*
X005545Y012033D02*
X005427Y011915D01*
X005427Y010301D02*
X005545Y010183D01*
X005592Y009817D02*
X005475Y009817D01*
X005592Y009817D02*
X005650Y009758D01*
X005650Y009583D01*
X005475Y009583D01*
X005416Y009642D01*
X005475Y009700D01*
X005650Y009700D01*
X005785Y009642D02*
X005785Y009817D01*
X005785Y009642D02*
X005843Y009583D01*
X006018Y009583D01*
X006018Y009817D01*
X006153Y009817D02*
X006211Y009817D01*
X006270Y009758D01*
X006328Y009817D01*
X006387Y009758D01*
X006387Y009583D01*
X006270Y009583D02*
X006270Y009758D01*
X006153Y009817D02*
X006153Y009583D01*
X006521Y009583D02*
X006638Y009583D01*
X006580Y009583D02*
X006580Y009934D01*
X006521Y009934D01*
X006767Y009642D02*
X006767Y009583D01*
X006825Y009583D01*
X006825Y009642D01*
X006767Y009642D01*
X006951Y009583D02*
X007126Y009583D01*
X007184Y009642D01*
X007126Y009700D01*
X007009Y009700D01*
X006951Y009758D01*
X007009Y009817D01*
X007184Y009817D01*
X007319Y009758D02*
X007378Y009817D01*
X007494Y009817D01*
X007553Y009758D01*
X007553Y009700D01*
X007319Y009700D01*
X007319Y009642D02*
X007319Y009758D01*
X007319Y009642D02*
X007378Y009583D01*
X007494Y009583D01*
X007159Y010183D02*
X007278Y010301D01*
X007278Y011915D02*
X007159Y012033D01*
X005291Y009642D02*
X005291Y009583D01*
X005232Y009583D01*
X005232Y009642D01*
X005291Y009642D01*
X005097Y009642D02*
X005039Y009583D01*
X004981Y009642D01*
X004922Y009583D01*
X004864Y009642D01*
X004864Y009817D01*
X004729Y009817D02*
X004729Y009642D01*
X004671Y009583D01*
X004612Y009642D01*
X004554Y009583D01*
X004496Y009642D01*
X004496Y009817D01*
X004361Y009817D02*
X004361Y009642D01*
X004302Y009583D01*
X004244Y009642D01*
X004186Y009583D01*
X004127Y009642D01*
X004127Y009817D01*
X005097Y009817D02*
X005097Y009642D01*
X002479Y009333D02*
X002246Y009333D01*
X002362Y009333D02*
X002362Y009684D01*
X002246Y009567D01*
X002111Y009567D02*
X001994Y009333D01*
X001877Y009567D01*
X009682Y009598D02*
X010162Y009598D01*
X010162Y010518D02*
X009682Y010518D01*
X011231Y011946D02*
X011231Y012870D01*
X012373Y012870D02*
X012373Y011956D01*
X012412Y010578D02*
X012412Y010098D01*
X011492Y010098D02*
X011492Y010578D01*
D12*
X000772Y002578D02*
X000667Y002683D01*
X000772Y002578D02*
X000983Y002578D01*
X001088Y002683D01*
X001088Y002788D01*
X000983Y002894D01*
X000772Y002894D01*
X000667Y002999D01*
X000667Y003104D01*
X000772Y003209D01*
X000983Y003209D01*
X001088Y003104D01*
X001312Y002999D02*
X001417Y002999D01*
X001417Y002578D01*
X001312Y002578D02*
X001522Y002578D01*
X001742Y002578D02*
X001952Y002578D01*
X001847Y002578D02*
X001847Y003209D01*
X001742Y003209D01*
X001417Y003209D02*
X001417Y003314D01*
X002171Y002894D02*
X002171Y002683D01*
X002276Y002578D01*
X002592Y002578D01*
X002816Y002578D02*
X003131Y002578D01*
X003236Y002683D01*
X003131Y002788D01*
X002921Y002788D01*
X002816Y002894D01*
X002921Y002999D01*
X003236Y002999D01*
X003460Y002894D02*
X003460Y002683D01*
X003565Y002578D01*
X003881Y002578D01*
X004105Y002578D02*
X004105Y002999D01*
X004315Y002999D02*
X004105Y002788D01*
X003881Y002999D02*
X003565Y002999D01*
X003460Y002894D01*
X004315Y002999D02*
X004420Y002999D01*
X004642Y002894D02*
X004747Y002999D01*
X004957Y002999D01*
X005062Y002894D01*
X005062Y002788D01*
X004642Y002788D01*
X004642Y002683D02*
X004642Y002894D01*
X004642Y002683D02*
X004747Y002578D01*
X004957Y002578D01*
X005286Y002683D02*
X005392Y002578D01*
X005602Y002578D01*
X005707Y002788D02*
X005286Y002788D01*
X005286Y002683D02*
X005286Y002894D01*
X005392Y002999D01*
X005602Y002999D01*
X005707Y002894D01*
X005707Y002788D01*
X005931Y002578D02*
X005931Y002999D01*
X006246Y002999D01*
X006351Y002894D01*
X006351Y002578D01*
X006576Y002368D02*
X006786Y002578D01*
X006681Y002578D01*
X006681Y002683D01*
X006786Y002683D01*
X006786Y002578D01*
X007650Y002999D02*
X007860Y002999D01*
X007755Y003104D02*
X007755Y002683D01*
X007860Y002578D01*
X008079Y002683D02*
X008184Y002578D01*
X008395Y002578D01*
X008500Y002683D01*
X008500Y002894D01*
X008395Y002999D01*
X008184Y002999D01*
X008079Y002894D01*
X008079Y002683D01*
X008724Y002578D02*
X009039Y002578D01*
X009144Y002683D01*
X009144Y002894D01*
X009039Y002999D01*
X008724Y002999D01*
X008724Y002368D01*
X010013Y002578D02*
X010328Y002578D01*
X010433Y002683D01*
X010328Y002788D01*
X010118Y002788D01*
X010013Y002894D01*
X010118Y002999D01*
X010433Y002999D01*
X010658Y002999D02*
X010763Y002999D01*
X010763Y002578D01*
X010658Y002578D02*
X010868Y002578D01*
X011087Y002683D02*
X011087Y002894D01*
X011192Y002999D01*
X011508Y002999D01*
X011508Y003209D02*
X011508Y002578D01*
X011192Y002578D01*
X011087Y002683D01*
X010763Y003209D02*
X010763Y003314D01*
X011732Y002894D02*
X011732Y002683D01*
X011837Y002578D01*
X012047Y002578D01*
X012152Y002788D02*
X011732Y002788D01*
X011732Y002894D02*
X011837Y002999D01*
X012047Y002999D01*
X012152Y002894D01*
X012152Y002788D01*
X002592Y002999D02*
X002276Y002999D01*
X002171Y002894D01*
D13*
X003004Y010651D02*
X003004Y010966D01*
X002965Y010808D02*
X002846Y010808D01*
X003201Y010966D02*
X003201Y010651D01*
X003240Y010808D02*
X003358Y010808D01*
X005683Y011719D02*
X005685Y011734D01*
X005691Y011748D01*
X005700Y011761D01*
X005712Y011770D01*
X005727Y011776D01*
X005742Y011778D01*
X005757Y011776D01*
X005771Y011770D01*
X005784Y011761D01*
X005793Y011749D01*
X005799Y011734D01*
X005801Y011719D01*
X005799Y011704D01*
X005793Y011690D01*
X005784Y011677D01*
X005772Y011668D01*
X005757Y011662D01*
X005742Y011660D01*
X005727Y011662D01*
X005713Y011668D01*
X005700Y011677D01*
X005691Y011689D01*
X005685Y011704D01*
X005683Y011719D01*
X007430Y014456D02*
X007432Y014471D01*
X007438Y014485D01*
X007447Y014498D01*
X007459Y014507D01*
X007474Y014513D01*
X007489Y014515D01*
X007504Y014513D01*
X007518Y014507D01*
X007531Y014498D01*
X007540Y014486D01*
X007546Y014471D01*
X007548Y014456D01*
X007546Y014441D01*
X007540Y014427D01*
X007531Y014414D01*
X007519Y014405D01*
X007504Y014399D01*
X007489Y014397D01*
X007474Y014399D01*
X007460Y014405D01*
X007447Y014414D01*
X007438Y014426D01*
X007432Y014441D01*
X007430Y014456D01*
X009230Y012406D02*
X009232Y012421D01*
X009238Y012435D01*
X009247Y012448D01*
X009259Y012457D01*
X009274Y012463D01*
X009289Y012465D01*
X009304Y012463D01*
X009318Y012457D01*
X009331Y012448D01*
X009340Y012436D01*
X009346Y012421D01*
X009348Y012406D01*
X009346Y012391D01*
X009340Y012377D01*
X009331Y012364D01*
X009319Y012355D01*
X009304Y012349D01*
X009289Y012347D01*
X009274Y012349D01*
X009260Y012355D01*
X009247Y012364D01*
X009238Y012376D01*
X009232Y012391D01*
X009230Y012406D01*
X002634Y014111D02*
X002636Y014126D01*
X002642Y014140D01*
X002651Y014153D01*
X002663Y014162D01*
X002678Y014168D01*
X002693Y014170D01*
X002708Y014168D01*
X002722Y014162D01*
X002735Y014153D01*
X002744Y014141D01*
X002750Y014126D01*
X002752Y014111D01*
X002750Y014096D01*
X002744Y014082D01*
X002735Y014069D01*
X002723Y014060D01*
X002708Y014054D01*
X002693Y014052D01*
X002678Y014054D01*
X002664Y014060D01*
X002651Y014069D01*
X002642Y014081D01*
X002636Y014096D01*
X002634Y014111D01*
M02*
