G75*
G70*
%OFA0B0*%
%FSLAX24Y24*%
%IPPOS*%
%LPD*%
%AMOC8*
5,1,8,0,0,1.08239X$1,22.5*
%
%ADD10C,0.0000*%
%ADD11C,0.0050*%
%ADD12C,0.0070*%
%ADD13C,0.0100*%
D10*
X001752Y009008D02*
X001752Y009208D01*
X012602Y009208D01*
X012602Y009008D01*
X001752Y009008D01*
X001752Y009208D02*
X001752Y014758D01*
X012602Y014758D01*
X012602Y014958D01*
X001752Y014958D01*
X001752Y014758D01*
X012602Y014758D02*
X012602Y009208D01*
D11*
X012412Y010098D02*
X012412Y010578D01*
X011492Y010578D02*
X011492Y010098D01*
X010162Y009648D02*
X009682Y009648D01*
X009682Y010568D02*
X010162Y010568D01*
X011342Y012088D02*
X011342Y012568D01*
X012262Y012568D02*
X012262Y012088D01*
X007278Y011915D02*
X007159Y012033D01*
X007278Y010301D02*
X007159Y010183D01*
X005545Y010183D02*
X005427Y010301D01*
X005427Y011915D02*
X005545Y012033D01*
X003150Y011473D02*
X003150Y010922D01*
X003111Y010922D01*
X002874Y010922D02*
X002638Y010922D01*
X002402Y010922D02*
X002166Y010922D01*
X002152Y010784D02*
X002036Y010784D01*
X001977Y010725D01*
X001977Y010492D01*
X002036Y010433D01*
X002152Y010433D01*
X002211Y010492D01*
X002346Y010492D02*
X002346Y010608D01*
X002404Y010667D01*
X002521Y010667D01*
X002579Y010608D01*
X002579Y010492D01*
X002521Y010433D01*
X002404Y010433D01*
X002346Y010492D01*
X002211Y010334D02*
X002211Y009983D01*
X002346Y010042D02*
X002346Y010158D01*
X002404Y010217D01*
X002521Y010217D01*
X002579Y010158D01*
X002579Y010042D01*
X002521Y009983D01*
X002404Y009983D01*
X002346Y010042D01*
X002462Y009884D02*
X002462Y009533D01*
X002346Y009533D02*
X002579Y009533D01*
X002346Y009767D02*
X002462Y009884D01*
X002211Y009767D02*
X002094Y009533D01*
X001977Y009767D01*
X001977Y009983D02*
X001977Y010334D01*
X002094Y010217D01*
X002211Y010334D01*
X002211Y010725D02*
X002152Y010784D01*
X001930Y010922D02*
X001890Y010922D01*
X001890Y011473D01*
X001930Y011473D01*
X002166Y011473D02*
X002402Y011473D01*
X002638Y011473D02*
X002874Y011473D01*
X003111Y011473D02*
X003150Y011473D01*
X003196Y010667D02*
X003079Y010667D01*
X003021Y010608D01*
X003021Y010492D01*
X003079Y010433D01*
X003196Y010433D01*
X003254Y010550D02*
X003021Y010550D01*
X002889Y010667D02*
X002831Y010667D01*
X002714Y010550D01*
X002714Y010433D02*
X002714Y010667D01*
X002947Y010334D02*
X002947Y009983D01*
X002772Y009983D01*
X002714Y010042D01*
X002714Y010158D01*
X002772Y010217D01*
X002947Y010217D01*
X003254Y010550D02*
X003254Y010608D01*
X003196Y010667D01*
D12*
X000667Y002683D02*
X000772Y002578D01*
X000983Y002578D01*
X001088Y002683D01*
X001088Y002788D01*
X000983Y002894D01*
X000772Y002894D01*
X000667Y002999D01*
X000667Y003104D01*
X000772Y003209D01*
X000983Y003209D01*
X001088Y003104D01*
X001312Y002999D02*
X001417Y002999D01*
X001417Y002578D01*
X001312Y002578D02*
X001522Y002578D01*
X001742Y002578D02*
X001952Y002578D01*
X001847Y002578D02*
X001847Y003209D01*
X001742Y003209D01*
X001417Y003209D02*
X001417Y003314D01*
X002171Y002894D02*
X002171Y002683D01*
X002276Y002578D01*
X002592Y002578D01*
X002816Y002578D02*
X003131Y002578D01*
X003236Y002683D01*
X003131Y002788D01*
X002921Y002788D01*
X002816Y002894D01*
X002921Y002999D01*
X003236Y002999D01*
X003460Y002894D02*
X003460Y002683D01*
X003565Y002578D01*
X003881Y002578D01*
X004105Y002578D02*
X004105Y002999D01*
X004315Y002999D02*
X004105Y002788D01*
X003881Y002999D02*
X003565Y002999D01*
X003460Y002894D01*
X004315Y002999D02*
X004420Y002999D01*
X004642Y002894D02*
X004747Y002999D01*
X004957Y002999D01*
X005062Y002894D01*
X005062Y002788D01*
X004642Y002788D01*
X004642Y002683D02*
X004642Y002894D01*
X004642Y002683D02*
X004747Y002578D01*
X004957Y002578D01*
X005286Y002683D02*
X005392Y002578D01*
X005602Y002578D01*
X005707Y002788D02*
X005286Y002788D01*
X005286Y002683D02*
X005286Y002894D01*
X005392Y002999D01*
X005602Y002999D01*
X005707Y002894D01*
X005707Y002788D01*
X005931Y002578D02*
X005931Y002999D01*
X006246Y002999D01*
X006351Y002894D01*
X006351Y002578D01*
X006576Y002368D02*
X006786Y002578D01*
X006681Y002578D01*
X006681Y002683D01*
X006786Y002683D01*
X006786Y002578D01*
X007650Y002999D02*
X007860Y002999D01*
X007755Y003104D02*
X007755Y002683D01*
X007860Y002578D01*
X008079Y002683D02*
X008184Y002578D01*
X008395Y002578D01*
X008500Y002683D01*
X008500Y002894D01*
X008395Y002999D01*
X008184Y002999D01*
X008079Y002894D01*
X008079Y002683D01*
X008724Y002578D02*
X009039Y002578D01*
X009144Y002683D01*
X009144Y002894D01*
X009039Y002999D01*
X008724Y002999D01*
X008724Y002368D01*
X010013Y002578D02*
X010328Y002578D01*
X010433Y002683D01*
X010328Y002788D01*
X010118Y002788D01*
X010013Y002894D01*
X010118Y002999D01*
X010433Y002999D01*
X010658Y002999D02*
X010763Y002999D01*
X010763Y002578D01*
X010658Y002578D02*
X010868Y002578D01*
X011087Y002683D02*
X011087Y002894D01*
X011192Y002999D01*
X011508Y002999D01*
X011508Y003209D02*
X011508Y002578D01*
X011192Y002578D01*
X011087Y002683D01*
X010763Y003209D02*
X010763Y003314D01*
X011732Y002894D02*
X011732Y002683D01*
X011837Y002578D01*
X012047Y002578D01*
X012152Y002788D02*
X011732Y002788D01*
X011732Y002894D02*
X011837Y002999D01*
X012047Y002999D01*
X012152Y002894D01*
X012152Y002788D01*
X007142Y009543D02*
X006999Y009543D01*
X006927Y009615D01*
X006927Y009758D01*
X006999Y009830D01*
X007142Y009830D01*
X007214Y009758D01*
X007214Y009687D01*
X006927Y009687D01*
X006754Y009615D02*
X006682Y009687D01*
X006538Y009687D01*
X006467Y009758D01*
X006538Y009830D01*
X006754Y009830D01*
X006754Y009615D02*
X006682Y009543D01*
X006467Y009543D01*
X006308Y009543D02*
X006237Y009543D01*
X006237Y009615D01*
X006308Y009615D01*
X006308Y009543D01*
X006073Y009543D02*
X005930Y009543D01*
X006001Y009543D02*
X006001Y009974D01*
X005930Y009974D01*
X005756Y009758D02*
X005756Y009543D01*
X005613Y009543D02*
X005613Y009758D01*
X005684Y009830D01*
X005756Y009758D01*
X005613Y009758D02*
X005541Y009830D01*
X005469Y009830D01*
X005469Y009543D01*
X005296Y009543D02*
X005296Y009830D01*
X005296Y009543D02*
X005081Y009543D01*
X005009Y009615D01*
X005009Y009830D01*
X004835Y009758D02*
X004835Y009543D01*
X004620Y009543D01*
X004549Y009615D01*
X004620Y009687D01*
X004835Y009687D01*
X004835Y009758D02*
X004764Y009830D01*
X004620Y009830D01*
X004390Y009615D02*
X004390Y009543D01*
X004318Y009543D01*
X004318Y009615D01*
X004390Y009615D01*
X004145Y009615D02*
X004145Y009830D01*
X004145Y009615D02*
X004073Y009543D01*
X004001Y009615D01*
X003930Y009543D01*
X003858Y009615D01*
X003858Y009830D01*
X003685Y009830D02*
X003685Y009615D01*
X003613Y009543D01*
X003541Y009615D01*
X003469Y009543D01*
X003398Y009615D01*
X003398Y009830D01*
X003224Y009830D02*
X003224Y009615D01*
X003153Y009543D01*
X003081Y009615D01*
X003009Y009543D01*
X002937Y009615D01*
X002937Y009830D01*
X002592Y002999D02*
X002276Y002999D01*
X002171Y002894D01*
D13*
X005683Y011719D02*
X005685Y011734D01*
X005690Y011747D01*
X005699Y011759D01*
X005710Y011769D01*
X005724Y011775D01*
X005738Y011778D01*
X005753Y011777D01*
X005767Y011772D01*
X005780Y011764D01*
X005790Y011754D01*
X005797Y011741D01*
X005801Y011726D01*
X005801Y011712D01*
X005797Y011697D01*
X005790Y011684D01*
X005780Y011674D01*
X005767Y011666D01*
X005753Y011661D01*
X005738Y011660D01*
X005724Y011663D01*
X005710Y011669D01*
X005699Y011679D01*
X005690Y011691D01*
X005685Y011704D01*
X005683Y011719D01*
X007430Y014456D02*
X007432Y014471D01*
X007437Y014484D01*
X007446Y014496D01*
X007457Y014506D01*
X007471Y014512D01*
X007485Y014515D01*
X007500Y014514D01*
X007514Y014509D01*
X007527Y014501D01*
X007537Y014491D01*
X007544Y014478D01*
X007548Y014463D01*
X007548Y014449D01*
X007544Y014434D01*
X007537Y014421D01*
X007527Y014411D01*
X007514Y014403D01*
X007500Y014398D01*
X007485Y014397D01*
X007471Y014400D01*
X007457Y014406D01*
X007446Y014416D01*
X007437Y014428D01*
X007432Y014441D01*
X007430Y014456D01*
X009230Y012406D02*
X009232Y012421D01*
X009237Y012434D01*
X009246Y012446D01*
X009257Y012456D01*
X009271Y012462D01*
X009285Y012465D01*
X009300Y012464D01*
X009314Y012459D01*
X009327Y012451D01*
X009337Y012441D01*
X009344Y012428D01*
X009348Y012413D01*
X009348Y012399D01*
X009344Y012384D01*
X009337Y012371D01*
X009327Y012361D01*
X009314Y012353D01*
X009300Y012348D01*
X009285Y012347D01*
X009271Y012350D01*
X009257Y012356D01*
X009246Y012366D01*
X009237Y012378D01*
X009232Y012391D01*
X009230Y012406D01*
X002634Y014111D02*
X002636Y014126D01*
X002641Y014139D01*
X002650Y014151D01*
X002661Y014161D01*
X002675Y014167D01*
X002689Y014170D01*
X002704Y014169D01*
X002718Y014164D01*
X002731Y014156D01*
X002741Y014146D01*
X002748Y014133D01*
X002752Y014118D01*
X002752Y014104D01*
X002748Y014089D01*
X002741Y014076D01*
X002731Y014066D01*
X002718Y014058D01*
X002704Y014053D01*
X002689Y014052D01*
X002675Y014055D01*
X002661Y014061D01*
X002650Y014071D01*
X002641Y014083D01*
X002636Y014096D01*
X002634Y014111D01*
M02*
