%
M48
M72
T01C0.0354
T02C0.0433
T03C0.0591
T04C0.1063
%
T01
X5147Y6051
X4147Y6551
X5147Y7051
X4147Y7551
X6287Y7451
X7287Y7951
X8317Y7551
X9317Y7051
X8317Y6551
X7287Y6951
X6287Y6451
X9317Y6051
X11597Y6551
X12597Y7051
X11597Y7551
X12597Y6051
X9597Y9751
X8597Y9751
X9097Y10751
X10097Y10751
T02
X4917Y10301
X3917Y10301
X3917Y9301
X4917Y9301
T03
X4868Y8060
X9038Y8060
X12318Y8060
X8087Y10472
T04
X12037Y10251
M30
