G75*
G70*
%OFA0B0*%
%FSLAX24Y24*%
%IPPOS*%
%LPD*%
%AMOC8*
5,1,8,0,0,1.08239X$1,22.5*
%
%ADD10C,0.0100*%
%ADD11C,0.0000*%
%ADD12C,0.0050*%
D10*
X003477Y005331D02*
X003921Y005331D01*
X003707Y005421D02*
X003707Y008181D01*
X004147Y008181D01*
X004147Y007881D01*
X005167Y007881D01*
X005167Y008181D01*
X005607Y008181D01*
X005607Y005421D01*
X003707Y005421D01*
X003477Y005331D02*
X003477Y005749D01*
X003917Y005641D02*
X004184Y006041D01*
X004377Y005908D02*
X004510Y006041D01*
X004510Y005641D01*
X004377Y005641D02*
X004644Y005641D01*
X004184Y005641D02*
X003917Y006041D01*
X003477Y006143D02*
X003477Y006561D01*
X003477Y006954D02*
X003477Y007372D01*
X003477Y007766D02*
X003477Y008184D01*
X003477Y008578D02*
X003477Y008996D01*
X003696Y008706D02*
X006137Y008706D01*
X006137Y010895D01*
X003696Y010895D01*
X003696Y008706D01*
X003477Y009389D02*
X003477Y009807D01*
X003477Y010201D02*
X003477Y010619D01*
X003477Y011013D02*
X003477Y011431D01*
X003921Y011431D01*
X004315Y011431D02*
X004759Y011431D01*
X005152Y011431D02*
X005596Y011431D01*
X005990Y011431D02*
X006434Y011431D01*
X006828Y011431D02*
X007272Y011431D01*
X007666Y011431D02*
X008110Y011431D01*
X008504Y011431D02*
X008948Y011431D01*
X009341Y011431D02*
X009785Y011431D01*
X010179Y011431D02*
X010623Y011431D01*
X010747Y011201D02*
X007987Y011201D01*
X007987Y010761D01*
X008287Y010761D01*
X008287Y009741D01*
X007987Y009741D01*
X007987Y009301D01*
X010747Y009301D01*
X010747Y011201D01*
X010877Y011161D02*
X011144Y010761D01*
X011337Y010827D02*
X011404Y010761D01*
X011537Y010761D01*
X011604Y010827D01*
X011604Y010961D01*
X011537Y011028D01*
X011470Y011028D01*
X011337Y010961D01*
X011337Y011161D01*
X011604Y011161D01*
X011461Y011431D02*
X011017Y011431D01*
X011144Y011161D02*
X010877Y010761D01*
X011855Y011431D02*
X012299Y011431D01*
X012693Y011431D02*
X013137Y011431D01*
X013137Y011013D01*
X013137Y010619D02*
X013137Y010201D01*
X013137Y009807D02*
X013137Y009389D01*
X013137Y008996D02*
X013137Y008578D01*
X013137Y008184D02*
X013137Y007766D01*
X012607Y007881D02*
X011587Y007881D01*
X011587Y008181D01*
X011147Y008181D01*
X011147Y005421D01*
X013047Y005421D01*
X013047Y008181D01*
X012607Y008181D01*
X012607Y007881D01*
X013137Y007372D02*
X013137Y006954D01*
X013137Y006560D02*
X013137Y006142D01*
X013137Y005749D02*
X013137Y005331D01*
X013136Y005331D02*
X012692Y005331D01*
X012299Y005331D02*
X011855Y005331D01*
X011827Y005641D02*
X012094Y005908D01*
X012094Y005974D01*
X012027Y006041D01*
X011894Y006041D01*
X011827Y005974D01*
X011634Y006041D02*
X011367Y005641D01*
X011634Y005641D02*
X011367Y006041D01*
X011827Y005641D02*
X012094Y005641D01*
X011461Y005331D02*
X011017Y005331D01*
X010623Y005331D02*
X010179Y005331D01*
X009785Y005331D02*
X009341Y005331D01*
X009767Y005441D02*
X009767Y008201D01*
X009327Y008201D01*
X009327Y007901D01*
X008307Y007901D01*
X008307Y008201D01*
X007867Y008201D01*
X007867Y005441D01*
X009767Y005441D01*
X008947Y005331D02*
X008503Y005331D01*
X008110Y005331D02*
X007666Y005331D01*
X007272Y005331D02*
X006828Y005331D01*
X006434Y005331D02*
X005990Y005331D01*
X005596Y005331D02*
X005152Y005331D01*
X004759Y005331D02*
X004314Y005331D01*
X008097Y005641D02*
X008364Y006041D01*
X008097Y006041D02*
X008364Y005641D01*
X008757Y005641D02*
X008757Y006041D01*
X008557Y005841D01*
X008824Y005841D01*
X010276Y006931D02*
X010276Y007131D01*
X010343Y007198D01*
X010476Y007198D01*
X010543Y007131D01*
X010543Y006931D01*
X010543Y007064D02*
X010677Y007198D01*
X010610Y007391D02*
X010677Y007458D01*
X010677Y007591D01*
X010610Y007658D01*
X010476Y007658D01*
X010410Y007591D01*
X010410Y007525D01*
X010476Y007391D01*
X010276Y007391D01*
X010276Y007658D01*
X010343Y007851D02*
X010276Y007918D01*
X010276Y008052D01*
X010343Y008118D01*
X010410Y008118D01*
X010677Y007851D01*
X010677Y008118D01*
X009555Y008704D02*
X009488Y008637D01*
X009421Y008637D01*
X009354Y008771D02*
X009288Y008837D01*
X009288Y009038D01*
X009094Y008971D02*
X009094Y008771D01*
X008894Y008771D01*
X008827Y008837D01*
X008894Y008904D01*
X009094Y008904D01*
X009094Y008971D02*
X009027Y009038D01*
X008894Y009038D01*
X008634Y009038D02*
X008634Y008837D01*
X008567Y008771D01*
X008500Y008837D01*
X008434Y008771D01*
X008367Y008837D01*
X008367Y009038D01*
X008174Y008971D02*
X007907Y008971D01*
X008107Y009171D01*
X008107Y008771D01*
X009354Y008771D02*
X009555Y008771D01*
X009555Y008704D02*
X009555Y009038D01*
X010007Y009038D02*
X010140Y008771D01*
X010274Y009038D01*
X010467Y009038D02*
X010600Y009171D01*
X010600Y008771D01*
X010467Y008771D02*
X010734Y008771D01*
X010677Y006931D02*
X010276Y006931D01*
X006847Y010461D02*
X006847Y010527D01*
X007114Y010794D01*
X007114Y010861D01*
X006847Y010861D01*
X006654Y010861D02*
X006387Y010461D01*
X006654Y010461D02*
X006387Y010861D01*
D11*
X007792Y010472D02*
X007794Y010507D01*
X007800Y010541D01*
X007810Y010575D01*
X007825Y010607D01*
X007842Y010637D01*
X007864Y010665D01*
X007888Y010690D01*
X007915Y010712D01*
X007945Y010730D01*
X007976Y010745D01*
X008009Y010757D01*
X008043Y010764D01*
X008078Y010767D01*
X008113Y010766D01*
X008148Y010761D01*
X008181Y010751D01*
X008214Y010738D01*
X008244Y010721D01*
X008273Y010701D01*
X008299Y010677D01*
X008321Y010651D01*
X008341Y010622D01*
X008357Y010591D01*
X008369Y010558D01*
X008377Y010524D01*
X008381Y010489D01*
X008381Y010455D01*
X008377Y010420D01*
X008369Y010386D01*
X008357Y010353D01*
X008341Y010322D01*
X008321Y010293D01*
X008299Y010267D01*
X008273Y010243D01*
X008244Y010223D01*
X008214Y010206D01*
X008181Y010193D01*
X008148Y010183D01*
X008113Y010178D01*
X008078Y010177D01*
X008043Y010180D01*
X008009Y010187D01*
X007976Y010199D01*
X007945Y010214D01*
X007915Y010232D01*
X007888Y010254D01*
X007864Y010279D01*
X007842Y010307D01*
X007825Y010337D01*
X007810Y010369D01*
X007800Y010403D01*
X007794Y010437D01*
X007792Y010472D01*
X003700Y010301D02*
X003702Y010331D01*
X003708Y010360D01*
X003718Y010387D01*
X003732Y010414D01*
X003749Y010438D01*
X003769Y010460D01*
X003792Y010478D01*
X003817Y010494D01*
X003844Y010505D01*
X003873Y010513D01*
X003902Y010517D01*
X003932Y010517D01*
X003961Y010513D01*
X003990Y010505D01*
X004017Y010494D01*
X004042Y010478D01*
X004065Y010460D01*
X004085Y010438D01*
X004102Y010414D01*
X004116Y010387D01*
X004126Y010360D01*
X004132Y010331D01*
X004134Y010301D01*
X004132Y010271D01*
X004126Y010242D01*
X004116Y010215D01*
X004102Y010188D01*
X004085Y010164D01*
X004065Y010142D01*
X004042Y010124D01*
X004017Y010108D01*
X003990Y010097D01*
X003961Y010089D01*
X003932Y010085D01*
X003902Y010085D01*
X003873Y010089D01*
X003844Y010097D01*
X003817Y010108D01*
X003792Y010124D01*
X003769Y010142D01*
X003749Y010164D01*
X003732Y010188D01*
X003718Y010215D01*
X003708Y010242D01*
X003702Y010271D01*
X003700Y010301D01*
X003700Y009301D02*
X003702Y009331D01*
X003708Y009360D01*
X003718Y009387D01*
X003732Y009414D01*
X003749Y009438D01*
X003769Y009460D01*
X003792Y009478D01*
X003817Y009494D01*
X003844Y009505D01*
X003873Y009513D01*
X003902Y009517D01*
X003932Y009517D01*
X003961Y009513D01*
X003990Y009505D01*
X004017Y009494D01*
X004042Y009478D01*
X004065Y009460D01*
X004085Y009438D01*
X004102Y009414D01*
X004116Y009387D01*
X004126Y009360D01*
X004132Y009331D01*
X004134Y009301D01*
X004132Y009271D01*
X004126Y009242D01*
X004116Y009215D01*
X004102Y009188D01*
X004085Y009164D01*
X004065Y009142D01*
X004042Y009124D01*
X004017Y009108D01*
X003990Y009097D01*
X003961Y009089D01*
X003932Y009085D01*
X003902Y009085D01*
X003873Y009089D01*
X003844Y009097D01*
X003817Y009108D01*
X003792Y009124D01*
X003769Y009142D01*
X003749Y009164D01*
X003732Y009188D01*
X003718Y009215D01*
X003708Y009242D01*
X003702Y009271D01*
X003700Y009301D01*
X004573Y008060D02*
X004575Y008095D01*
X004581Y008129D01*
X004591Y008163D01*
X004606Y008195D01*
X004623Y008225D01*
X004645Y008253D01*
X004669Y008278D01*
X004696Y008300D01*
X004726Y008318D01*
X004757Y008333D01*
X004790Y008345D01*
X004824Y008352D01*
X004859Y008355D01*
X004894Y008354D01*
X004929Y008349D01*
X004962Y008339D01*
X004995Y008326D01*
X005025Y008309D01*
X005054Y008289D01*
X005080Y008265D01*
X005102Y008239D01*
X005122Y008210D01*
X005138Y008179D01*
X005150Y008146D01*
X005158Y008112D01*
X005162Y008077D01*
X005162Y008043D01*
X005158Y008008D01*
X005150Y007974D01*
X005138Y007941D01*
X005122Y007910D01*
X005102Y007881D01*
X005080Y007855D01*
X005054Y007831D01*
X005025Y007811D01*
X004995Y007794D01*
X004962Y007781D01*
X004929Y007771D01*
X004894Y007766D01*
X004859Y007765D01*
X004824Y007768D01*
X004790Y007775D01*
X004757Y007787D01*
X004726Y007802D01*
X004696Y007820D01*
X004669Y007842D01*
X004645Y007867D01*
X004623Y007895D01*
X004606Y007925D01*
X004591Y007957D01*
X004581Y007991D01*
X004575Y008025D01*
X004573Y008060D01*
X008743Y008060D02*
X008745Y008095D01*
X008751Y008129D01*
X008761Y008163D01*
X008776Y008195D01*
X008793Y008225D01*
X008815Y008253D01*
X008839Y008278D01*
X008866Y008300D01*
X008896Y008318D01*
X008927Y008333D01*
X008960Y008345D01*
X008994Y008352D01*
X009029Y008355D01*
X009064Y008354D01*
X009099Y008349D01*
X009132Y008339D01*
X009165Y008326D01*
X009195Y008309D01*
X009224Y008289D01*
X009250Y008265D01*
X009272Y008239D01*
X009292Y008210D01*
X009308Y008179D01*
X009320Y008146D01*
X009328Y008112D01*
X009332Y008077D01*
X009332Y008043D01*
X009328Y008008D01*
X009320Y007974D01*
X009308Y007941D01*
X009292Y007910D01*
X009272Y007881D01*
X009250Y007855D01*
X009224Y007831D01*
X009195Y007811D01*
X009165Y007794D01*
X009132Y007781D01*
X009099Y007771D01*
X009064Y007766D01*
X009029Y007765D01*
X008994Y007768D01*
X008960Y007775D01*
X008927Y007787D01*
X008896Y007802D01*
X008866Y007820D01*
X008839Y007842D01*
X008815Y007867D01*
X008793Y007895D01*
X008776Y007925D01*
X008761Y007957D01*
X008751Y007991D01*
X008745Y008025D01*
X008743Y008060D01*
X012023Y008060D02*
X012025Y008095D01*
X012031Y008129D01*
X012041Y008163D01*
X012056Y008195D01*
X012073Y008225D01*
X012095Y008253D01*
X012119Y008278D01*
X012146Y008300D01*
X012176Y008318D01*
X012207Y008333D01*
X012240Y008345D01*
X012274Y008352D01*
X012309Y008355D01*
X012344Y008354D01*
X012379Y008349D01*
X012412Y008339D01*
X012445Y008326D01*
X012475Y008309D01*
X012504Y008289D01*
X012530Y008265D01*
X012552Y008239D01*
X012572Y008210D01*
X012588Y008179D01*
X012600Y008146D01*
X012608Y008112D01*
X012612Y008077D01*
X012612Y008043D01*
X012608Y008008D01*
X012600Y007974D01*
X012588Y007941D01*
X012572Y007910D01*
X012552Y007881D01*
X012530Y007855D01*
X012504Y007831D01*
X012475Y007811D01*
X012445Y007794D01*
X012412Y007781D01*
X012379Y007771D01*
X012344Y007766D01*
X012309Y007765D01*
X012274Y007768D01*
X012240Y007775D01*
X012207Y007787D01*
X012176Y007802D01*
X012146Y007820D01*
X012119Y007842D01*
X012095Y007867D01*
X012073Y007895D01*
X012056Y007925D01*
X012041Y007957D01*
X012031Y007991D01*
X012025Y008025D01*
X012023Y008060D01*
X011506Y010251D02*
X011508Y010299D01*
X011515Y010347D01*
X011526Y010394D01*
X011541Y010440D01*
X011560Y010484D01*
X011583Y010527D01*
X011610Y010567D01*
X011641Y010605D01*
X011675Y010639D01*
X011711Y010670D01*
X011751Y010698D01*
X011793Y010722D01*
X011837Y010743D01*
X011882Y010759D01*
X011929Y010771D01*
X011977Y010779D01*
X012025Y010782D01*
X012073Y010781D01*
X012121Y010775D01*
X012169Y010765D01*
X012215Y010751D01*
X012260Y010733D01*
X012302Y010711D01*
X012343Y010685D01*
X012381Y010655D01*
X012417Y010622D01*
X012449Y010586D01*
X012478Y010547D01*
X012503Y010506D01*
X012524Y010463D01*
X012541Y010417D01*
X012554Y010371D01*
X012563Y010323D01*
X012567Y010275D01*
X012567Y010227D01*
X012563Y010179D01*
X012554Y010131D01*
X012541Y010085D01*
X012524Y010039D01*
X012503Y009996D01*
X012478Y009955D01*
X012449Y009916D01*
X012417Y009880D01*
X012381Y009847D01*
X012343Y009817D01*
X012303Y009791D01*
X012260Y009769D01*
X012215Y009751D01*
X012169Y009737D01*
X012121Y009727D01*
X012073Y009721D01*
X012025Y009720D01*
X011977Y009723D01*
X011929Y009731D01*
X011882Y009743D01*
X011837Y009759D01*
X011793Y009780D01*
X011751Y009804D01*
X011711Y009832D01*
X011675Y009863D01*
X011641Y009897D01*
X011610Y009935D01*
X011583Y009975D01*
X011560Y010018D01*
X011541Y010062D01*
X011526Y010108D01*
X011515Y010155D01*
X011508Y010203D01*
X011506Y010251D01*
D12*
X010709Y009306D02*
X010709Y011196D01*
X007984Y011196D01*
X007984Y010751D01*
X008297Y010751D01*
X008297Y009759D01*
X008297Y009751D02*
X007984Y009751D01*
X007984Y009306D01*
X010709Y009306D01*
X011152Y008163D02*
X011152Y005439D01*
X013041Y005439D01*
X013041Y008163D01*
X012597Y008163D01*
X012597Y007851D01*
X011604Y007851D01*
X011597Y007851D02*
X011597Y008163D01*
X011152Y008163D01*
X009761Y008163D02*
X009761Y005439D01*
X007872Y005439D01*
X007872Y008163D01*
X008317Y008163D01*
X008317Y007851D01*
X008324Y007851D02*
X009317Y007851D01*
X009317Y008163D01*
X009761Y008163D01*
X005591Y008163D02*
X005591Y005439D01*
X003702Y005439D01*
X003702Y008163D01*
X004147Y008163D01*
X004147Y007851D01*
X004154Y007851D02*
X005147Y007851D01*
X005147Y008163D01*
X005591Y008163D01*
M02*
