G75*
G70*
%OFA0B0*%
%FSLAX24Y24*%
%IPPOS*%
%LPD*%
%AMOC8*
5,1,8,0,0,1.08239X$1,22.5*
%
%ADD10C,0.0100*%
%ADD11C,0.0000*%
%ADD12C,0.0160*%
%ADD13R,0.2047X0.0384*%
%ADD14C,0.0050*%
D10*
X002006Y002006D02*
X002006Y002406D01*
X002006Y002799D02*
X002006Y003199D01*
X002006Y003593D02*
X002006Y003993D01*
X002006Y004387D02*
X002006Y004787D01*
X002006Y005181D02*
X002006Y005581D01*
X002006Y005974D02*
X002006Y006374D01*
X002006Y006768D02*
X002006Y007168D01*
X002006Y007562D02*
X002006Y007962D01*
X002006Y008356D02*
X002006Y008756D01*
X002007Y008756D02*
X002405Y008756D01*
X002799Y008756D02*
X003198Y008756D01*
X003591Y008756D02*
X003990Y008756D01*
X004384Y008756D02*
X004782Y008756D01*
X005176Y008756D02*
X005575Y008756D01*
X005968Y008756D02*
X006367Y008756D01*
X006761Y008756D02*
X007159Y008756D01*
X007553Y008756D02*
X007952Y008756D01*
X008345Y008756D02*
X008744Y008756D01*
X009138Y008756D02*
X009536Y008756D01*
X009930Y008756D02*
X010329Y008756D01*
X010722Y008756D02*
X011121Y008756D01*
X011515Y008756D02*
X011913Y008756D01*
X012307Y008756D02*
X012705Y008756D01*
X013099Y008756D02*
X013498Y008756D01*
X013891Y008756D02*
X014290Y008756D01*
X014684Y008756D02*
X015082Y008756D01*
X015476Y008756D02*
X015875Y008756D01*
X016268Y008756D02*
X016667Y008756D01*
X017061Y008756D02*
X017459Y008756D01*
X017853Y008756D02*
X018252Y008756D01*
X018645Y008756D02*
X019044Y008756D01*
X019438Y008756D02*
X019836Y008756D01*
X020230Y008756D02*
X020629Y008756D01*
X021022Y008756D02*
X021421Y008756D01*
X021815Y008756D02*
X022213Y008756D01*
X022607Y008756D02*
X023006Y008756D01*
X023006Y008356D01*
X023006Y007962D02*
X023006Y007562D01*
X023006Y007168D02*
X023006Y006768D01*
X022945Y007012D02*
X020150Y007012D01*
X020150Y006343D01*
X019683Y006289D02*
X019616Y006356D01*
X019483Y006356D01*
X019416Y006289D01*
X019223Y006289D02*
X019223Y006156D01*
X019156Y006089D01*
X018956Y006089D01*
X019089Y006089D02*
X019223Y005956D01*
X019416Y005956D02*
X019683Y006223D01*
X019683Y006289D01*
X019223Y006289D02*
X019156Y006356D01*
X018956Y006356D01*
X018956Y005956D01*
X019416Y005956D02*
X019683Y005956D01*
X018149Y005556D02*
X018016Y005423D01*
X018149Y005556D02*
X018149Y005156D01*
X018016Y005156D02*
X018283Y005156D01*
X017823Y005222D02*
X017756Y005156D01*
X017622Y005156D01*
X017556Y005222D01*
X017556Y005489D01*
X017622Y005556D01*
X017756Y005556D01*
X017823Y005489D01*
X017756Y004756D02*
X017622Y004756D01*
X017556Y004689D01*
X017556Y004422D01*
X017622Y004356D01*
X017756Y004356D01*
X017823Y004422D01*
X018216Y004356D02*
X018216Y004756D01*
X018016Y004556D01*
X018283Y004556D01*
X017823Y004689D02*
X017756Y004756D01*
X019206Y004656D02*
X019473Y004256D01*
X019666Y004256D02*
X019933Y004256D01*
X019799Y004256D02*
X019799Y004656D01*
X019666Y004523D01*
X019473Y004656D02*
X019206Y004256D01*
X018820Y004106D02*
X018820Y003706D01*
X018687Y003706D02*
X018954Y003706D01*
X018427Y003772D02*
X018360Y003706D01*
X018293Y003706D01*
X018226Y003772D01*
X018033Y003772D02*
X017966Y003706D01*
X017833Y003706D01*
X017766Y003772D01*
X017833Y003906D02*
X017966Y003906D01*
X018033Y003839D01*
X018033Y003772D01*
X017833Y003906D02*
X017766Y003973D01*
X017766Y004039D01*
X017833Y004106D01*
X017966Y004106D01*
X018033Y004039D01*
X018360Y004106D02*
X018493Y004106D01*
X018427Y004106D02*
X018427Y003772D01*
X018687Y003973D02*
X018820Y004106D01*
X017573Y004106D02*
X017306Y003706D01*
X017083Y003706D02*
X016816Y003706D01*
X016949Y003706D02*
X016949Y004106D01*
X016816Y003973D01*
X016356Y004106D02*
X016356Y003706D01*
X016623Y003706D01*
X015179Y003698D02*
X015179Y007714D01*
X014204Y007912D02*
X013938Y007912D01*
X014071Y007912D02*
X014071Y008312D01*
X013938Y008178D01*
X013744Y008245D02*
X013677Y008312D01*
X013544Y008312D01*
X013477Y008245D01*
X013477Y007978D01*
X013544Y007912D01*
X013677Y007912D01*
X013744Y007978D01*
X013304Y007912D02*
X013170Y007912D01*
X013237Y007912D02*
X013237Y008312D01*
X013170Y008312D02*
X013304Y008312D01*
X013132Y007714D02*
X013132Y003698D01*
X015179Y003698D01*
X020150Y004099D02*
X020150Y004768D01*
X020150Y004099D02*
X022945Y004099D01*
X023006Y003993D02*
X023006Y003593D01*
X023006Y003199D02*
X023006Y002799D01*
X023006Y002406D02*
X023006Y002006D01*
X023005Y002006D02*
X022606Y002006D01*
X022212Y002006D02*
X021814Y002006D01*
X021420Y002006D02*
X021021Y002006D01*
X020628Y002006D02*
X020229Y002006D01*
X019835Y002006D02*
X019437Y002006D01*
X019043Y002006D02*
X018644Y002006D01*
X018251Y002006D02*
X017852Y002006D01*
X017458Y002006D02*
X017060Y002006D01*
X016666Y002006D02*
X016267Y002006D01*
X015874Y002006D02*
X015475Y002006D01*
X015081Y002006D02*
X014683Y002006D01*
X014289Y002006D02*
X013891Y002006D01*
X013497Y002006D02*
X013098Y002006D01*
X012704Y002006D02*
X012306Y002006D01*
X011912Y002006D02*
X011514Y002006D01*
X011120Y002006D02*
X010721Y002006D01*
X010328Y002006D02*
X009929Y002006D01*
X009535Y002006D02*
X009137Y002006D01*
X008743Y002006D02*
X008344Y002006D01*
X007951Y002006D02*
X007552Y002006D01*
X007158Y002006D02*
X006760Y002006D01*
X006366Y002006D02*
X005967Y002006D01*
X005574Y002006D02*
X005175Y002006D01*
X004781Y002006D02*
X004383Y002006D01*
X003989Y002006D02*
X003590Y002006D01*
X003197Y002006D02*
X002798Y002006D01*
X002404Y002006D02*
X002006Y002006D01*
X004856Y004422D02*
X004922Y004356D01*
X004989Y004422D01*
X005056Y004356D01*
X005123Y004422D01*
X005123Y004623D01*
X005316Y004623D02*
X005316Y004422D01*
X005383Y004356D01*
X005449Y004422D01*
X005516Y004356D01*
X005583Y004422D01*
X005583Y004623D01*
X005776Y004623D02*
X005776Y004422D01*
X005843Y004356D01*
X005910Y004422D01*
X005977Y004356D01*
X006043Y004422D01*
X006043Y004623D01*
X005776Y004872D02*
X005776Y005273D01*
X005977Y005273D01*
X006043Y005206D01*
X006043Y005072D01*
X005977Y005006D01*
X005776Y005006D01*
X005583Y005006D02*
X005316Y005273D01*
X005123Y005206D02*
X005123Y005139D01*
X004856Y005139D01*
X004856Y005072D02*
X004856Y005206D01*
X004922Y005273D01*
X005056Y005273D01*
X005123Y005206D01*
X005316Y005006D02*
X005583Y005273D01*
X004922Y005006D02*
X004856Y005072D01*
X004922Y005006D02*
X005056Y005006D01*
X004856Y004623D02*
X004856Y004422D01*
X006237Y004422D02*
X006303Y004422D01*
X006303Y004356D01*
X006237Y004356D01*
X006237Y004422D01*
X006467Y004422D02*
X006534Y004489D01*
X006734Y004489D01*
X006734Y004556D02*
X006734Y004356D01*
X006534Y004356D01*
X006467Y004422D01*
X006667Y004623D02*
X006734Y004556D01*
X006667Y004623D02*
X006534Y004623D01*
X006927Y004623D02*
X006927Y004422D01*
X006994Y004356D01*
X007194Y004356D01*
X007194Y004623D01*
X007388Y004623D02*
X007454Y004623D01*
X007521Y004556D01*
X007588Y004623D01*
X007654Y004556D01*
X007654Y004356D01*
X007521Y004356D02*
X007521Y004556D01*
X007388Y004623D02*
X007388Y004356D01*
X007848Y004356D02*
X007981Y004356D01*
X007915Y004356D02*
X007915Y004756D01*
X007848Y004756D01*
X007818Y005006D02*
X007618Y005006D01*
X007618Y005406D01*
X007618Y005273D02*
X007818Y005273D01*
X007885Y005206D01*
X007885Y005072D01*
X007818Y005006D01*
X007424Y005072D02*
X007358Y005139D01*
X007224Y005139D01*
X007157Y005206D01*
X007224Y005273D01*
X007424Y005273D01*
X006964Y005273D02*
X006964Y005006D01*
X006764Y005006D01*
X006697Y005072D01*
X006697Y005273D01*
X006504Y005206D02*
X006237Y005206D01*
X007157Y005006D02*
X007358Y005006D01*
X007424Y005072D01*
X008385Y004556D02*
X008452Y004623D01*
X008652Y004623D01*
X008845Y004556D02*
X008912Y004623D01*
X009046Y004623D01*
X009112Y004556D01*
X009112Y004489D01*
X008845Y004489D01*
X008845Y004422D02*
X008845Y004556D01*
X008652Y004422D02*
X008585Y004489D01*
X008452Y004489D01*
X008385Y004556D01*
X008385Y004356D02*
X008585Y004356D01*
X008652Y004422D01*
X008845Y004422D02*
X008912Y004356D01*
X009046Y004356D01*
X008222Y004356D02*
X008155Y004356D01*
X008155Y004422D01*
X008222Y004422D01*
X008222Y004356D01*
X008672Y005006D02*
X008805Y005273D01*
X008999Y005273D02*
X009132Y005406D01*
X009132Y005006D01*
X008999Y005006D02*
X009266Y005006D01*
X008672Y005006D02*
X008539Y005273D01*
X010185Y006472D02*
X010252Y006406D01*
X010385Y006406D01*
X010452Y006472D01*
X010645Y006472D02*
X010712Y006406D01*
X010845Y006406D01*
X010912Y006472D01*
X010912Y006539D01*
X010845Y006606D01*
X010779Y006606D01*
X010845Y006606D02*
X010912Y006673D01*
X010912Y006739D01*
X010845Y006806D01*
X010712Y006806D01*
X010645Y006739D01*
X010452Y006739D02*
X010385Y006806D01*
X010252Y006806D01*
X010185Y006739D01*
X010185Y006472D01*
X010252Y007206D02*
X010185Y007272D01*
X010185Y007539D01*
X010252Y007606D01*
X010385Y007606D01*
X010452Y007539D01*
X010645Y007539D02*
X010712Y007606D01*
X010845Y007606D01*
X010912Y007539D01*
X010912Y007473D01*
X010645Y007206D01*
X010912Y007206D01*
X010452Y007272D02*
X010385Y007206D01*
X010252Y007206D01*
X016256Y007306D02*
X016256Y007906D01*
X016258Y007926D01*
X016264Y007944D01*
X016273Y007962D01*
X016285Y007977D01*
X016300Y007989D01*
X016318Y007998D01*
X016336Y008004D01*
X016356Y008006D01*
X017456Y008006D01*
X017476Y008004D01*
X017494Y007998D01*
X017512Y007989D01*
X017527Y007977D01*
X017539Y007962D01*
X017548Y007944D01*
X017554Y007926D01*
X017556Y007906D01*
X017556Y007306D01*
X017554Y007286D01*
X017548Y007268D01*
X017539Y007250D01*
X017527Y007235D01*
X017512Y007223D01*
X017494Y007214D01*
X017476Y007208D01*
X017456Y007206D01*
X016356Y007206D01*
X016336Y007208D01*
X016318Y007214D01*
X016300Y007223D01*
X016285Y007235D01*
X016273Y007250D01*
X016264Y007268D01*
X016258Y007286D01*
X016256Y007306D01*
X017756Y007572D02*
X017822Y007506D01*
X017956Y007506D01*
X018023Y007572D01*
X018023Y007639D01*
X017956Y007706D01*
X017822Y007706D01*
X017756Y007773D01*
X017756Y007839D01*
X017822Y007906D01*
X017956Y007906D01*
X018023Y007839D01*
X018349Y007906D02*
X018483Y007906D01*
X018416Y007906D02*
X018416Y007572D01*
X018349Y007506D01*
X018283Y007506D01*
X018216Y007572D01*
X018676Y007506D02*
X018943Y007773D01*
X018943Y007839D01*
X018877Y007906D01*
X018743Y007906D01*
X018676Y007839D01*
X018676Y007506D02*
X018943Y007506D01*
X018956Y007006D02*
X019156Y007006D01*
X019223Y006939D01*
X019223Y006806D01*
X019156Y006739D01*
X018956Y006739D01*
X019089Y006739D02*
X019223Y006606D01*
X019416Y006606D02*
X019683Y006606D01*
X019549Y006606D02*
X019549Y007006D01*
X019416Y006873D01*
X018956Y007006D02*
X018956Y006606D01*
X023006Y006374D02*
X023006Y005974D01*
X023006Y005581D02*
X023006Y005181D01*
X023006Y004787D02*
X023006Y004387D01*
D11*
X021193Y004690D02*
X021195Y004717D01*
X021201Y004743D01*
X021211Y004769D01*
X021225Y004792D01*
X021242Y004813D01*
X021263Y004831D01*
X021285Y004845D01*
X021310Y004857D01*
X021336Y004864D01*
X021363Y004867D01*
X021390Y004866D01*
X021417Y004861D01*
X021442Y004852D01*
X021466Y004839D01*
X021488Y004822D01*
X021507Y004803D01*
X021522Y004780D01*
X021534Y004756D01*
X021542Y004730D01*
X021546Y004704D01*
X021546Y004676D01*
X021542Y004650D01*
X021534Y004624D01*
X021522Y004600D01*
X021507Y004577D01*
X021488Y004558D01*
X021466Y004541D01*
X021442Y004528D01*
X021417Y004519D01*
X021390Y004514D01*
X021363Y004513D01*
X021336Y004516D01*
X021310Y004523D01*
X021285Y004535D01*
X021263Y004549D01*
X021242Y004567D01*
X021225Y004588D01*
X021211Y004611D01*
X021201Y004637D01*
X021195Y004663D01*
X021193Y004690D01*
X021193Y006422D02*
X021195Y006449D01*
X021201Y006475D01*
X021211Y006501D01*
X021225Y006524D01*
X021242Y006545D01*
X021263Y006563D01*
X021285Y006577D01*
X021310Y006589D01*
X021336Y006596D01*
X021363Y006599D01*
X021390Y006598D01*
X021417Y006593D01*
X021442Y006584D01*
X021466Y006571D01*
X021488Y006554D01*
X021507Y006535D01*
X021522Y006512D01*
X021534Y006488D01*
X021542Y006462D01*
X021546Y006436D01*
X021546Y006408D01*
X021542Y006382D01*
X021534Y006356D01*
X021522Y006332D01*
X021507Y006309D01*
X021488Y006290D01*
X021466Y006273D01*
X021442Y006260D01*
X021417Y006251D01*
X021390Y006246D01*
X021363Y006245D01*
X021336Y006248D01*
X021310Y006255D01*
X021285Y006267D01*
X021263Y006281D01*
X021242Y006299D01*
X021225Y006320D01*
X021211Y006343D01*
X021201Y006369D01*
X021195Y006395D01*
X021193Y006422D01*
X002575Y007906D02*
X002577Y007954D01*
X002584Y008002D01*
X002595Y008049D01*
X002610Y008095D01*
X002629Y008139D01*
X002652Y008182D01*
X002679Y008222D01*
X002710Y008260D01*
X002744Y008294D01*
X002780Y008325D01*
X002820Y008353D01*
X002862Y008377D01*
X002906Y008398D01*
X002951Y008414D01*
X002998Y008426D01*
X003046Y008434D01*
X003094Y008437D01*
X003142Y008436D01*
X003190Y008430D01*
X003238Y008420D01*
X003284Y008406D01*
X003329Y008388D01*
X003371Y008366D01*
X003412Y008340D01*
X003450Y008310D01*
X003486Y008277D01*
X003518Y008241D01*
X003547Y008202D01*
X003572Y008161D01*
X003593Y008118D01*
X003610Y008072D01*
X003623Y008026D01*
X003632Y007978D01*
X003636Y007930D01*
X003636Y007882D01*
X003632Y007834D01*
X003623Y007786D01*
X003610Y007740D01*
X003593Y007694D01*
X003572Y007651D01*
X003547Y007610D01*
X003518Y007571D01*
X003486Y007535D01*
X003450Y007502D01*
X003412Y007472D01*
X003372Y007446D01*
X003329Y007424D01*
X003284Y007406D01*
X003238Y007392D01*
X003190Y007382D01*
X003142Y007376D01*
X003094Y007375D01*
X003046Y007378D01*
X002998Y007386D01*
X002951Y007398D01*
X002906Y007414D01*
X002862Y007435D01*
X002820Y007459D01*
X002780Y007487D01*
X002744Y007518D01*
X002710Y007552D01*
X002679Y007590D01*
X002652Y007630D01*
X002629Y007673D01*
X002610Y007717D01*
X002595Y007763D01*
X002584Y007810D01*
X002577Y007858D01*
X002575Y007906D01*
D12*
X016856Y006906D02*
X016856Y006606D01*
X016856Y006256D02*
X016856Y005956D01*
D13*
X014156Y007561D03*
D14*
X016806Y006916D02*
X016806Y006596D01*
X016806Y006266D02*
X016806Y005946D01*
M02*
