%
M48
M72
T01C0.0236
T02C0.0354
T03C0.0394
T04C0.1063
%
T01
X11456Y5806
X14656Y6406
X18556Y5456
T02
X21370Y4690
X21370Y6422
T03
X2506Y2506
X3506Y2506
X4506Y2506
X5506Y2506
X6506Y2506
X7506Y2506
X8506Y2506
X9506Y2506
X10506Y2506
X11506Y2506
X12506Y2506
X13506Y2506
X14506Y2506
X15506Y2506
X16506Y2506
X17506Y2506
X18506Y2506
X19506Y2506
X20506Y2506
X21506Y2506
X22506Y2506
T04
X3106Y7906
M30
