G75*
G70*
%OFA0B0*%
%FSLAX24Y24*%
%IPPOS*%
%LPD*%
%AMOC8*
5,1,8,0,0,1.08239X$1,22.5*
%
%ADD10C,0.0100*%
%ADD11C,0.0000*%
%ADD12C,0.0060*%
%ADD13C,0.0594*%
%ADD14R,0.0591X0.0118*%
%ADD15R,0.0433X0.0394*%
%ADD16R,0.0886X0.0197*%
%ADD17R,0.1575X0.0807*%
%ADD18R,0.1378X0.0807*%
%ADD19R,0.0390X0.0400*%
%ADD20R,0.0460X0.0630*%
%ADD21C,0.0120*%
%ADD22C,0.0436*%
%ADD23C,0.0160*%
D10*
X002006Y002006D02*
X002006Y002406D01*
X002006Y002799D02*
X002006Y003199D01*
X002006Y003593D02*
X002006Y003993D01*
X002006Y004387D02*
X002006Y004787D01*
X002006Y005181D02*
X002006Y005581D01*
X002006Y005974D02*
X002006Y006374D01*
X002006Y006768D02*
X002006Y007168D01*
X002006Y007562D02*
X002006Y007962D01*
X002006Y008356D02*
X002006Y008756D01*
X002007Y008756D02*
X002405Y008756D01*
X002799Y008756D02*
X003198Y008756D01*
X003591Y008756D02*
X003990Y008756D01*
X004384Y008756D02*
X004782Y008756D01*
X005176Y008756D02*
X005575Y008756D01*
X005968Y008756D02*
X006367Y008756D01*
X006761Y008756D02*
X007159Y008756D01*
X007553Y008756D02*
X007952Y008756D01*
X008345Y008756D02*
X008744Y008756D01*
X009138Y008756D02*
X009536Y008756D01*
X009930Y008756D02*
X010329Y008756D01*
X010722Y008756D02*
X011121Y008756D01*
X011515Y008756D02*
X011913Y008756D01*
X012307Y008756D02*
X012705Y008756D01*
X013099Y008756D02*
X013498Y008756D01*
X013891Y008756D02*
X014290Y008756D01*
X014684Y008756D02*
X015082Y008756D01*
X015476Y008756D02*
X015875Y008756D01*
X016268Y008756D02*
X016667Y008756D01*
X017061Y008756D02*
X017459Y008756D01*
X017853Y008756D02*
X018252Y008756D01*
X018645Y008756D02*
X019044Y008756D01*
X019438Y008756D02*
X019836Y008756D01*
X020230Y008756D02*
X020629Y008756D01*
X021022Y008756D02*
X021421Y008756D01*
X021815Y008756D02*
X022213Y008756D01*
X022607Y008756D02*
X023006Y008756D01*
X023006Y008356D01*
X023006Y007962D02*
X023006Y007562D01*
X023006Y007168D02*
X023006Y006768D01*
X023006Y006374D02*
X023006Y005974D01*
X023006Y005581D02*
X023006Y005181D01*
X023006Y004787D02*
X023006Y004387D01*
X023006Y003993D02*
X023006Y003593D01*
X023006Y003199D02*
X023006Y002799D01*
X023006Y002406D02*
X023006Y002006D01*
X023005Y002006D02*
X022606Y002006D01*
X022212Y002006D02*
X021814Y002006D01*
X021420Y002006D02*
X021021Y002006D01*
X020628Y002006D02*
X020229Y002006D01*
X019835Y002006D02*
X019437Y002006D01*
X019043Y002006D02*
X018644Y002006D01*
X018251Y002006D02*
X017852Y002006D01*
X017458Y002006D02*
X017060Y002006D01*
X016666Y002006D02*
X016267Y002006D01*
X015874Y002006D02*
X015475Y002006D01*
X015081Y002006D02*
X014683Y002006D01*
X014289Y002006D02*
X013891Y002006D01*
X013497Y002006D02*
X013098Y002006D01*
X012704Y002006D02*
X012306Y002006D01*
X011912Y002006D02*
X011514Y002006D01*
X011120Y002006D02*
X010721Y002006D01*
X010328Y002006D02*
X009929Y002006D01*
X009535Y002006D02*
X009137Y002006D01*
X008743Y002006D02*
X008344Y002006D01*
X007951Y002006D02*
X007552Y002006D01*
X007158Y002006D02*
X006760Y002006D01*
X006366Y002006D02*
X005967Y002006D01*
X005574Y002006D02*
X005175Y002006D01*
X004781Y002006D02*
X004383Y002006D01*
X003989Y002006D02*
X003590Y002006D01*
X003197Y002006D02*
X002798Y002006D01*
X002404Y002006D02*
X002006Y002006D01*
X015556Y005306D02*
X015572Y005322D01*
X015583Y005322D01*
X015590Y005322D01*
X015606Y005306D01*
X016571Y005306D01*
X012756Y006606D02*
X012706Y006606D01*
X012729Y006601D02*
X012751Y006601D01*
X012756Y006606D01*
X012006Y007406D02*
X011940Y007406D01*
X011981Y007431D02*
X012006Y007406D01*
D11*
X002575Y007906D02*
X002577Y007954D01*
X002584Y008002D01*
X002595Y008049D01*
X002610Y008095D01*
X002629Y008139D01*
X002652Y008182D01*
X002679Y008222D01*
X002710Y008260D01*
X002744Y008294D01*
X002780Y008325D01*
X002820Y008353D01*
X002862Y008377D01*
X002906Y008398D01*
X002951Y008414D01*
X002998Y008426D01*
X003046Y008434D01*
X003094Y008437D01*
X003142Y008436D01*
X003190Y008430D01*
X003238Y008420D01*
X003284Y008406D01*
X003329Y008388D01*
X003371Y008366D01*
X003412Y008340D01*
X003450Y008310D01*
X003486Y008277D01*
X003518Y008241D01*
X003547Y008202D01*
X003572Y008161D01*
X003593Y008118D01*
X003610Y008072D01*
X003623Y008026D01*
X003632Y007978D01*
X003636Y007930D01*
X003636Y007882D01*
X003632Y007834D01*
X003623Y007786D01*
X003610Y007740D01*
X003593Y007694D01*
X003572Y007651D01*
X003547Y007610D01*
X003518Y007571D01*
X003486Y007535D01*
X003450Y007502D01*
X003412Y007472D01*
X003372Y007446D01*
X003329Y007424D01*
X003284Y007406D01*
X003238Y007392D01*
X003190Y007382D01*
X003142Y007376D01*
X003094Y007375D01*
X003046Y007378D01*
X002998Y007386D01*
X002951Y007398D01*
X002906Y007414D01*
X002862Y007435D01*
X002820Y007459D01*
X002780Y007487D01*
X002744Y007518D01*
X002710Y007552D01*
X002679Y007590D01*
X002652Y007630D01*
X002629Y007673D01*
X002610Y007717D01*
X002595Y007763D01*
X002584Y007810D01*
X002577Y007858D01*
X002575Y007906D01*
X021193Y006422D02*
X021195Y006449D01*
X021201Y006475D01*
X021211Y006501D01*
X021225Y006524D01*
X021242Y006545D01*
X021263Y006563D01*
X021285Y006577D01*
X021310Y006589D01*
X021336Y006596D01*
X021363Y006599D01*
X021390Y006598D01*
X021417Y006593D01*
X021442Y006584D01*
X021466Y006571D01*
X021488Y006554D01*
X021507Y006535D01*
X021522Y006512D01*
X021534Y006488D01*
X021542Y006462D01*
X021546Y006436D01*
X021546Y006408D01*
X021542Y006382D01*
X021534Y006356D01*
X021522Y006332D01*
X021507Y006309D01*
X021488Y006290D01*
X021466Y006273D01*
X021442Y006260D01*
X021417Y006251D01*
X021390Y006246D01*
X021363Y006245D01*
X021336Y006248D01*
X021310Y006255D01*
X021285Y006267D01*
X021263Y006281D01*
X021242Y006299D01*
X021225Y006320D01*
X021211Y006343D01*
X021201Y006369D01*
X021195Y006395D01*
X021193Y006422D01*
X021193Y004690D02*
X021195Y004717D01*
X021201Y004743D01*
X021211Y004769D01*
X021225Y004792D01*
X021242Y004813D01*
X021263Y004831D01*
X021285Y004845D01*
X021310Y004857D01*
X021336Y004864D01*
X021363Y004867D01*
X021390Y004866D01*
X021417Y004861D01*
X021442Y004852D01*
X021466Y004839D01*
X021488Y004822D01*
X021507Y004803D01*
X021522Y004780D01*
X021534Y004756D01*
X021542Y004730D01*
X021546Y004704D01*
X021546Y004676D01*
X021542Y004650D01*
X021534Y004624D01*
X021522Y004600D01*
X021507Y004577D01*
X021488Y004558D01*
X021466Y004541D01*
X021442Y004528D01*
X021417Y004519D01*
X021390Y004514D01*
X021363Y004513D01*
X021336Y004516D01*
X021310Y004523D01*
X021285Y004535D01*
X021263Y004549D01*
X021242Y004567D01*
X021225Y004588D01*
X021211Y004611D01*
X021201Y004637D01*
X021195Y004663D01*
X021193Y004690D01*
D12*
X023866Y005253D02*
X024079Y005253D01*
X023972Y005359D02*
X023972Y004932D01*
X024079Y004826D01*
X024295Y004932D02*
X024402Y004826D01*
X024616Y004826D01*
X024722Y004932D01*
X024722Y005146D01*
X024616Y005253D01*
X024402Y005253D01*
X024295Y005146D01*
X024295Y004932D01*
X024940Y004826D02*
X025260Y004826D01*
X025367Y004932D01*
X025367Y005146D01*
X025260Y005253D01*
X024940Y005253D01*
X024940Y004612D01*
D13*
X022506Y002506D03*
X021506Y002506D03*
X020506Y002506D03*
X019506Y002506D03*
X018506Y002506D03*
X017506Y002506D03*
X016506Y002506D03*
X015506Y002506D03*
X014506Y002506D03*
X013506Y002506D03*
X012506Y002506D03*
X011506Y002506D03*
X010506Y002506D03*
X009506Y002506D03*
X008506Y002506D03*
X007506Y002506D03*
X006506Y002506D03*
X005506Y002506D03*
X004506Y002506D03*
X003506Y002506D03*
X002506Y002506D03*
D14*
X012729Y004042D03*
X012729Y004298D03*
X012729Y004554D03*
X012729Y004810D03*
X012729Y005066D03*
X012729Y005322D03*
X012729Y005578D03*
X012729Y005834D03*
X012729Y006090D03*
X012729Y006345D03*
X012729Y006601D03*
X012729Y006857D03*
X012729Y007113D03*
X012729Y007369D03*
X015583Y007369D03*
X015583Y007113D03*
X015583Y006857D03*
X015583Y006601D03*
X015583Y006345D03*
X015583Y006090D03*
X015583Y005834D03*
X015583Y005578D03*
X015583Y005322D03*
X015583Y005066D03*
X015583Y004810D03*
X015583Y004554D03*
X015583Y004298D03*
X015583Y004042D03*
D15*
X016571Y004506D03*
X017240Y004506D03*
X017240Y005306D03*
X016571Y005306D03*
X011940Y006606D03*
X011271Y006606D03*
X011271Y007406D03*
X011940Y007406D03*
D16*
X020425Y006186D03*
X020425Y005871D03*
X020425Y005556D03*
X020425Y005241D03*
X020425Y004926D03*
D17*
X022118Y003627D03*
X022118Y007485D03*
D18*
X020425Y007485D03*
X020425Y003627D03*
D19*
X017240Y003406D03*
X016571Y003406D03*
X016571Y006106D03*
X017240Y006106D03*
X017971Y006106D03*
X018640Y006106D03*
X018640Y006756D03*
X017971Y006756D03*
X017240Y006756D03*
X016571Y006756D03*
D20*
X016606Y007606D03*
X017206Y007606D03*
D21*
X017206Y008256D01*
X017556Y008256D01*
X018606Y007206D01*
X018606Y006756D01*
X018640Y006756D01*
X018706Y006756D01*
X018706Y006106D01*
X018640Y006106D01*
X019015Y006155D02*
X019822Y006155D01*
X019822Y006185D02*
X019822Y006064D01*
X019802Y006044D01*
X019802Y005796D01*
X019406Y005796D01*
X019266Y005655D01*
X017906Y004296D01*
X017617Y004296D01*
X017617Y004467D01*
X017279Y004467D01*
X017279Y004544D01*
X017617Y004544D01*
X017617Y004769D01*
X017523Y004862D01*
X017279Y004862D01*
X017279Y004544D01*
X017202Y004544D01*
X017202Y004862D01*
X016957Y004862D01*
X016920Y004825D01*
X016862Y004882D01*
X016280Y004882D01*
X016193Y004796D01*
X016038Y004796D01*
X016038Y004810D01*
X016038Y004912D01*
X016058Y004932D01*
X016058Y005076D01*
X016174Y005076D01*
X016174Y005034D01*
X016280Y004929D01*
X016862Y004929D01*
X016920Y004987D01*
X016957Y004949D01*
X017202Y004949D01*
X017202Y005267D01*
X017279Y005267D01*
X017279Y005344D01*
X017617Y005344D01*
X017617Y005569D01*
X017523Y005662D01*
X017279Y005662D01*
X017279Y005344D01*
X017202Y005344D01*
X017202Y005662D01*
X016957Y005662D01*
X016920Y005625D01*
X016862Y005682D01*
X016280Y005682D01*
X016174Y005577D01*
X016174Y005536D01*
X016038Y005536D01*
X016038Y005577D01*
X015583Y005577D01*
X015583Y005578D01*
X016038Y005578D01*
X016038Y005616D01*
X016155Y005616D01*
X016283Y005744D01*
X016301Y005726D01*
X016841Y005726D01*
X016906Y005791D01*
X016971Y005726D01*
X017510Y005726D01*
X017606Y005821D01*
X017701Y005726D01*
X018241Y005726D01*
X018306Y005791D01*
X018371Y005726D01*
X018910Y005726D01*
X019015Y005831D01*
X019015Y006380D01*
X018965Y006431D01*
X019015Y006481D01*
X019015Y007030D01*
X018910Y007136D01*
X018846Y007136D01*
X018846Y007305D01*
X018705Y007446D01*
X017655Y008496D01*
X017456Y008496D01*
X017305Y008496D01*
X017106Y008496D01*
X006856Y008496D01*
X006716Y008355D01*
X003266Y004905D01*
X003266Y004706D01*
X003266Y002922D01*
X003236Y002910D01*
X003101Y002776D01*
X003029Y002601D01*
X003029Y002456D01*
X002962Y002456D01*
X002962Y002467D01*
X002544Y002467D01*
X002544Y002544D01*
X002467Y002544D01*
X002467Y002962D01*
X002415Y002962D01*
X002247Y002893D01*
X002236Y002882D01*
X002236Y006856D01*
X004156Y006856D01*
X004156Y008526D01*
X022776Y008526D01*
X022776Y008068D01*
X021256Y008068D01*
X021223Y008035D01*
X021189Y008068D01*
X019662Y008068D01*
X019556Y007963D01*
X019556Y007007D01*
X019662Y006901D01*
X021189Y006901D01*
X021223Y006935D01*
X021256Y006901D01*
X022264Y006901D01*
X022253Y006890D01*
X022253Y004300D01*
X022343Y004210D01*
X021256Y004210D01*
X021223Y004176D01*
X021189Y004210D01*
X019662Y004210D01*
X019556Y004105D01*
X019556Y003148D01*
X019662Y003043D01*
X021189Y003043D01*
X021223Y003077D01*
X021256Y003043D01*
X022776Y003043D01*
X022776Y002910D01*
X022601Y002982D01*
X022411Y002982D01*
X022236Y002910D01*
X022101Y002776D01*
X022029Y002601D01*
X022029Y002456D01*
X021982Y002456D01*
X021982Y002601D01*
X021910Y002776D01*
X021776Y002910D01*
X021601Y002982D01*
X021411Y002982D01*
X021236Y002910D01*
X021101Y002776D01*
X021029Y002601D01*
X021029Y002456D01*
X020982Y002456D01*
X020982Y002601D01*
X020910Y002776D01*
X020776Y002910D01*
X020601Y002982D01*
X020411Y002982D01*
X020236Y002910D01*
X020101Y002776D01*
X020029Y002601D01*
X020029Y002456D01*
X019982Y002456D01*
X019982Y002601D01*
X019910Y002776D01*
X019776Y002910D01*
X019601Y002982D01*
X019411Y002982D01*
X019236Y002910D01*
X019101Y002776D01*
X019029Y002601D01*
X019029Y002456D01*
X018982Y002456D01*
X018982Y002601D01*
X018910Y002776D01*
X018776Y002910D01*
X018601Y002982D01*
X018411Y002982D01*
X018236Y002910D01*
X018101Y002776D01*
X018029Y002601D01*
X018029Y002456D01*
X017982Y002456D01*
X017982Y002601D01*
X017910Y002776D01*
X017776Y002910D01*
X017601Y002982D01*
X017411Y002982D01*
X017236Y002910D01*
X017101Y002776D01*
X017029Y002601D01*
X017029Y002456D01*
X016982Y002456D01*
X016982Y002601D01*
X016910Y002776D01*
X016776Y002910D01*
X016601Y002982D01*
X016411Y002982D01*
X016236Y002910D01*
X016101Y002776D01*
X016029Y002601D01*
X016029Y002456D01*
X015982Y002456D01*
X015982Y002601D01*
X015910Y002776D01*
X015776Y002910D01*
X015601Y002982D01*
X015411Y002982D01*
X015239Y002911D01*
X014955Y003196D01*
X016196Y003196D01*
X016196Y003131D01*
X016301Y003026D01*
X016841Y003026D01*
X016906Y003091D01*
X016971Y003026D01*
X017510Y003026D01*
X017615Y003131D01*
X017615Y003146D01*
X018413Y003146D01*
X018566Y003298D01*
X019913Y004646D01*
X020513Y004646D01*
X020515Y004647D01*
X020943Y004647D01*
X021013Y004718D01*
X021013Y004618D01*
X021067Y004487D01*
X021168Y004387D01*
X021299Y004332D01*
X021441Y004332D01*
X021573Y004387D01*
X021673Y004487D01*
X021727Y004618D01*
X021727Y004761D01*
X021673Y004892D01*
X021573Y004992D01*
X021441Y005047D01*
X021299Y005047D01*
X021168Y004992D01*
X021067Y004892D01*
X021048Y004845D01*
X021048Y005099D01*
X021048Y005414D01*
X021048Y005698D01*
X021048Y006044D01*
X021028Y006064D01*
X021028Y006185D01*
X020426Y006185D01*
X020426Y006186D01*
X021028Y006186D01*
X021028Y006314D01*
X021067Y006219D01*
X021168Y006119D01*
X021299Y006065D01*
X021441Y006065D01*
X021573Y006119D01*
X021673Y006219D01*
X021727Y006351D01*
X021727Y006493D01*
X021673Y006624D01*
X021573Y006725D01*
X021441Y006779D01*
X021299Y006779D01*
X021168Y006725D01*
X021067Y006624D01*
X021013Y006493D01*
X021013Y006365D01*
X020935Y006444D01*
X020426Y006444D01*
X020426Y006186D01*
X020425Y006186D01*
X020425Y006444D01*
X019916Y006444D01*
X019822Y006350D01*
X019822Y006186D01*
X020425Y006186D01*
X020425Y006185D01*
X019822Y006185D01*
X019822Y006273D02*
X019015Y006273D01*
X019004Y006392D02*
X019864Y006392D01*
X020425Y006392D02*
X020426Y006392D01*
X020425Y006273D02*
X020426Y006273D01*
X020987Y006392D02*
X021013Y006392D01*
X021028Y006273D02*
X021045Y006273D01*
X021028Y006155D02*
X021132Y006155D01*
X021048Y006036D02*
X022253Y006036D01*
X022253Y005918D02*
X021048Y005918D01*
X021048Y005799D02*
X022253Y005799D01*
X022253Y005681D02*
X021048Y005681D01*
X021048Y005562D02*
X022253Y005562D01*
X022253Y005443D02*
X021048Y005443D01*
X021048Y005325D02*
X022253Y005325D01*
X022253Y005206D02*
X021048Y005206D01*
X021048Y005088D02*
X022253Y005088D01*
X022253Y004969D02*
X021596Y004969D01*
X021690Y004851D02*
X022253Y004851D01*
X022253Y004732D02*
X021727Y004732D01*
X021725Y004614D02*
X022253Y004614D01*
X022253Y004495D02*
X021676Y004495D01*
X021548Y004377D02*
X022253Y004377D01*
X022295Y004258D02*
X019526Y004258D01*
X019591Y004139D02*
X019407Y004139D01*
X019289Y004021D02*
X019556Y004021D01*
X019556Y003902D02*
X019170Y003902D01*
X019051Y003784D02*
X019556Y003784D01*
X019556Y003665D02*
X018933Y003665D01*
X018814Y003547D02*
X019556Y003547D01*
X019556Y003428D02*
X018696Y003428D01*
X018577Y003310D02*
X019556Y003310D01*
X019556Y003191D02*
X018459Y003191D01*
X018342Y002954D02*
X017669Y002954D01*
X017557Y003073D02*
X019632Y003073D01*
X019669Y002954D02*
X020342Y002954D01*
X020669Y002954D02*
X021342Y002954D01*
X021227Y003073D02*
X021218Y003073D01*
X021669Y002954D02*
X022342Y002954D01*
X022669Y002954D02*
X022776Y002954D01*
X022161Y002835D02*
X021850Y002835D01*
X021934Y002717D02*
X022077Y002717D01*
X022029Y002598D02*
X021982Y002598D01*
X021982Y002480D02*
X022029Y002480D01*
X021161Y002835D02*
X020850Y002835D01*
X020934Y002717D02*
X021077Y002717D01*
X021029Y002598D02*
X020982Y002598D01*
X020982Y002480D02*
X021029Y002480D01*
X020161Y002835D02*
X019850Y002835D01*
X019934Y002717D02*
X020077Y002717D01*
X020029Y002598D02*
X019982Y002598D01*
X019982Y002480D02*
X020029Y002480D01*
X019161Y002835D02*
X018850Y002835D01*
X018934Y002717D02*
X019077Y002717D01*
X019029Y002598D02*
X018982Y002598D01*
X018982Y002480D02*
X019029Y002480D01*
X018161Y002835D02*
X017850Y002835D01*
X017934Y002717D02*
X018077Y002717D01*
X018029Y002598D02*
X017982Y002598D01*
X017982Y002480D02*
X018029Y002480D01*
X017161Y002835D02*
X016850Y002835D01*
X016934Y002717D02*
X017077Y002717D01*
X017029Y002598D02*
X016982Y002598D01*
X016982Y002480D02*
X017029Y002480D01*
X016161Y002835D02*
X015850Y002835D01*
X015934Y002717D02*
X016077Y002717D01*
X016029Y002598D02*
X015982Y002598D01*
X015982Y002480D02*
X016029Y002480D01*
X015506Y002506D02*
X015306Y002506D01*
X014756Y003056D01*
X014406Y003056D01*
X013756Y003706D01*
X013756Y006706D01*
X013092Y007369D01*
X012729Y007369D01*
X012156Y007606D02*
X011981Y007431D01*
X011956Y007406D01*
X011956Y006656D01*
X012006Y006656D01*
X012006Y006606D01*
X012706Y006606D01*
X012706Y006601D01*
X011956Y006606D02*
X011956Y006656D01*
X011956Y006606D02*
X011940Y006606D01*
X011309Y006644D02*
X011233Y006644D01*
X011233Y006962D01*
X010988Y006962D01*
X010894Y006869D01*
X010894Y006644D01*
X011232Y006644D01*
X011232Y006567D01*
X010894Y006567D01*
X010894Y006343D01*
X010988Y006249D01*
X011233Y006249D01*
X011233Y006567D01*
X011309Y006567D01*
X011309Y006249D01*
X011554Y006249D01*
X011591Y006287D01*
X011649Y006229D01*
X012231Y006229D01*
X012253Y006251D01*
X012253Y006223D01*
X012253Y005956D01*
X012273Y005936D01*
X012273Y005834D01*
X012728Y005834D01*
X012728Y005833D01*
X012273Y005833D01*
X012273Y005731D01*
X012253Y005711D01*
X012253Y005455D01*
X012253Y005199D01*
X012253Y004944D01*
X012253Y004688D01*
X012253Y004432D01*
X012253Y004176D01*
X012253Y003909D01*
X012359Y003803D01*
X013098Y003803D01*
X013204Y003909D01*
X013204Y004176D01*
X013204Y004432D01*
X013204Y004688D01*
X013204Y004944D01*
X013204Y005199D01*
X013204Y005455D01*
X013204Y005711D01*
X013184Y005731D01*
X013184Y005833D01*
X012729Y005833D01*
X012729Y005834D01*
X013184Y005834D01*
X013184Y005936D01*
X013204Y005956D01*
X013204Y005968D01*
X013216Y005956D01*
X013216Y003655D01*
X013216Y003456D01*
X013752Y002920D01*
X013601Y002982D01*
X013411Y002982D01*
X013236Y002910D01*
X013101Y002776D01*
X013029Y002601D01*
X013029Y002456D01*
X012982Y002456D01*
X012982Y002601D01*
X012910Y002776D01*
X012776Y002910D01*
X012601Y002982D01*
X012411Y002982D01*
X012236Y002910D01*
X012101Y002776D01*
X012029Y002601D01*
X012029Y002456D01*
X011982Y002456D01*
X011982Y002601D01*
X011910Y002776D01*
X011776Y002910D01*
X011601Y002982D01*
X011411Y002982D01*
X011236Y002910D01*
X011101Y002776D01*
X011029Y002601D01*
X011029Y002456D01*
X010982Y002456D01*
X010982Y002601D01*
X010910Y002776D01*
X010776Y002910D01*
X010601Y002982D01*
X010411Y002982D01*
X010236Y002910D01*
X010101Y002776D01*
X010029Y002601D01*
X010029Y002456D01*
X009982Y002456D01*
X009982Y002601D01*
X009910Y002776D01*
X009776Y002910D01*
X009601Y002982D01*
X009411Y002982D01*
X009236Y002910D01*
X009101Y002776D01*
X009029Y002601D01*
X009029Y002456D01*
X008982Y002456D01*
X008982Y002601D01*
X008910Y002776D01*
X008776Y002910D01*
X008601Y002982D01*
X008411Y002982D01*
X008236Y002910D01*
X008101Y002776D01*
X008029Y002601D01*
X008029Y002456D01*
X007982Y002456D01*
X007982Y002601D01*
X007910Y002776D01*
X007776Y002910D01*
X007601Y002982D01*
X007411Y002982D01*
X007236Y002910D01*
X007101Y002776D01*
X007029Y002601D01*
X007029Y002456D01*
X006982Y002456D01*
X006982Y002601D01*
X006910Y002776D01*
X006776Y002910D01*
X006601Y002982D01*
X006411Y002982D01*
X006236Y002910D01*
X006101Y002776D01*
X006029Y002601D01*
X006029Y002456D01*
X005982Y002456D01*
X005982Y002601D01*
X005910Y002776D01*
X005776Y002910D01*
X005601Y002982D01*
X005411Y002982D01*
X005236Y002910D01*
X005101Y002776D01*
X005029Y002601D01*
X005029Y002456D01*
X004982Y002456D01*
X004982Y002601D01*
X004910Y002776D01*
X004776Y002910D01*
X004601Y002982D01*
X004411Y002982D01*
X004236Y002910D01*
X004101Y002776D01*
X004029Y002601D01*
X004029Y002456D01*
X003982Y002456D01*
X003982Y002601D01*
X003910Y002776D01*
X003776Y002910D01*
X003746Y002922D01*
X003746Y004706D01*
X007055Y008016D01*
X014076Y008016D01*
X013656Y007595D01*
X013546Y007705D01*
X013405Y007846D01*
X012255Y007846D01*
X012056Y007846D01*
X011993Y007782D01*
X011649Y007782D01*
X011592Y007725D01*
X011554Y007762D01*
X011309Y007762D01*
X011309Y007444D01*
X011233Y007444D01*
X011233Y007762D01*
X010988Y007762D01*
X010894Y007669D01*
X010894Y007444D01*
X011232Y007444D01*
X011232Y007367D01*
X010894Y007367D01*
X010894Y007143D01*
X010988Y007049D01*
X011233Y007049D01*
X011233Y007367D01*
X011309Y007367D01*
X011309Y007049D01*
X011554Y007049D01*
X011592Y007087D01*
X011649Y007029D01*
X011716Y007029D01*
X011716Y006982D01*
X011649Y006982D01*
X011591Y006925D01*
X011554Y006962D01*
X011309Y006962D01*
X011309Y006644D01*
X011232Y006629D02*
X005668Y006629D01*
X005550Y006510D02*
X010894Y006510D01*
X011233Y006510D02*
X011309Y006510D01*
X011309Y006392D02*
X011233Y006392D01*
X011233Y006273D02*
X011309Y006273D01*
X011578Y006273D02*
X011605Y006273D01*
X010964Y006273D02*
X005313Y006273D01*
X005431Y006392D02*
X010894Y006392D01*
X010894Y006747D02*
X005787Y006747D01*
X005905Y006866D02*
X010894Y006866D01*
X011233Y006866D02*
X011309Y006866D01*
X011309Y006747D02*
X011233Y006747D01*
X011716Y006984D02*
X006024Y006984D01*
X006142Y007103D02*
X010934Y007103D01*
X010894Y007222D02*
X006261Y007222D01*
X006379Y007340D02*
X010894Y007340D01*
X010894Y007459D02*
X006498Y007459D01*
X006617Y007577D02*
X010894Y007577D01*
X010921Y007696D02*
X006735Y007696D01*
X006854Y007814D02*
X012025Y007814D01*
X012156Y007606D02*
X013306Y007606D01*
X013656Y007256D01*
X014356Y007956D01*
X016606Y007956D01*
X016606Y007606D01*
X016196Y007577D02*
X015984Y007577D01*
X015953Y007608D02*
X015213Y007608D01*
X015108Y007503D01*
X015108Y007235D01*
X015108Y006980D01*
X015128Y006960D01*
X015128Y006857D01*
X015128Y006732D01*
X015130Y006729D01*
X015128Y006727D01*
X015128Y006601D01*
X015128Y006499D01*
X015108Y006479D01*
X015108Y006212D01*
X015108Y005956D01*
X015108Y005700D01*
X015128Y005680D01*
X015128Y005578D01*
X015582Y005578D01*
X015582Y005577D01*
X015128Y005577D01*
X015128Y005546D01*
X014305Y005546D01*
X014296Y005555D01*
X014296Y006756D01*
X014296Y006955D01*
X013995Y007256D01*
X014455Y007716D01*
X016196Y007716D01*
X016196Y007216D01*
X016289Y007123D01*
X016196Y007030D01*
X016196Y006735D01*
X016106Y006646D01*
X016038Y006577D01*
X016038Y006601D01*
X015583Y006601D01*
X015583Y006601D01*
X016038Y006601D01*
X016038Y006727D01*
X016035Y006729D01*
X016038Y006732D01*
X016038Y006857D01*
X015583Y006857D01*
X015583Y006638D01*
X015583Y006602D01*
X015583Y006602D01*
X015583Y006638D01*
X015583Y006857D01*
X015583Y006857D01*
X015583Y006857D01*
X016038Y006857D01*
X016038Y006960D01*
X016058Y006980D01*
X016058Y007235D01*
X016058Y007503D01*
X015953Y007608D01*
X016196Y007696D02*
X014435Y007696D01*
X014317Y007577D02*
X015182Y007577D01*
X015108Y007459D02*
X014198Y007459D01*
X014079Y007340D02*
X015108Y007340D01*
X015108Y007222D02*
X014029Y007222D01*
X014148Y007103D02*
X015108Y007103D01*
X015108Y006984D02*
X014266Y006984D01*
X014296Y006866D02*
X015128Y006866D01*
X015128Y006857D02*
X015582Y006857D01*
X015128Y006857D01*
X015128Y006747D02*
X014296Y006747D01*
X014296Y006629D02*
X015128Y006629D01*
X015128Y006601D02*
X015582Y006601D01*
X015128Y006601D01*
X015128Y006510D02*
X014296Y006510D01*
X014296Y006392D02*
X015108Y006392D01*
X015108Y006273D02*
X014296Y006273D01*
X014296Y006155D02*
X015108Y006155D01*
X015108Y006036D02*
X014296Y006036D01*
X014296Y005918D02*
X015108Y005918D01*
X015108Y005799D02*
X014296Y005799D01*
X014296Y005681D02*
X015127Y005681D01*
X015128Y005562D02*
X014296Y005562D01*
X014056Y005456D02*
X014056Y006856D01*
X013656Y007256D01*
X013555Y007696D02*
X013756Y007696D01*
X013875Y007814D02*
X013436Y007814D01*
X013994Y007933D02*
X006972Y007933D01*
X006412Y008051D02*
X004156Y008051D01*
X004156Y007933D02*
X006293Y007933D01*
X006175Y007814D02*
X004156Y007814D01*
X004156Y007696D02*
X006056Y007696D01*
X005938Y007577D02*
X004156Y007577D01*
X004156Y007459D02*
X005819Y007459D01*
X005701Y007340D02*
X004156Y007340D01*
X004156Y007222D02*
X005582Y007222D01*
X005464Y007103D02*
X004156Y007103D01*
X004156Y006984D02*
X005345Y006984D01*
X005227Y006866D02*
X004156Y006866D01*
X004871Y006510D02*
X002236Y006510D01*
X002236Y006629D02*
X004989Y006629D01*
X005108Y006747D02*
X002236Y006747D01*
X002236Y006392D02*
X004752Y006392D01*
X004634Y006273D02*
X002236Y006273D01*
X002236Y006155D02*
X004515Y006155D01*
X004397Y006036D02*
X002236Y006036D01*
X002236Y005918D02*
X004278Y005918D01*
X004160Y005799D02*
X002236Y005799D01*
X002236Y005681D02*
X004041Y005681D01*
X003923Y005562D02*
X002236Y005562D01*
X002236Y005443D02*
X003804Y005443D01*
X003686Y005325D02*
X002236Y005325D01*
X002236Y005206D02*
X003567Y005206D01*
X003448Y005088D02*
X002236Y005088D01*
X002236Y004969D02*
X003330Y004969D01*
X003266Y004851D02*
X002236Y004851D01*
X002236Y004732D02*
X003266Y004732D01*
X003506Y004806D02*
X006956Y008256D01*
X017206Y008256D01*
X017744Y008407D02*
X022776Y008407D01*
X022776Y008288D02*
X017862Y008288D01*
X017981Y008170D02*
X022776Y008170D01*
X022776Y008526D02*
X004156Y008526D01*
X004156Y008407D02*
X006768Y008407D01*
X006649Y008288D02*
X004156Y008288D01*
X004156Y008170D02*
X006531Y008170D01*
X011233Y007696D02*
X011309Y007696D01*
X011309Y007577D02*
X011233Y007577D01*
X011233Y007459D02*
X011309Y007459D01*
X011309Y007340D02*
X011233Y007340D01*
X011233Y007222D02*
X011309Y007222D01*
X011309Y007103D02*
X011233Y007103D01*
X012729Y006345D02*
X012756Y006345D01*
X012756Y006356D01*
X013156Y006356D01*
X013456Y006056D01*
X013456Y003556D01*
X014506Y002506D01*
X013161Y002835D02*
X012850Y002835D01*
X012934Y002717D02*
X013077Y002717D01*
X013029Y002598D02*
X012982Y002598D01*
X012982Y002480D02*
X013029Y002480D01*
X012161Y002835D02*
X011850Y002835D01*
X011934Y002717D02*
X012077Y002717D01*
X012029Y002598D02*
X011982Y002598D01*
X011982Y002480D02*
X012029Y002480D01*
X011161Y002835D02*
X010850Y002835D01*
X010934Y002717D02*
X011077Y002717D01*
X011029Y002598D02*
X010982Y002598D01*
X010982Y002480D02*
X011029Y002480D01*
X010161Y002835D02*
X009850Y002835D01*
X009934Y002717D02*
X010077Y002717D01*
X010029Y002598D02*
X009982Y002598D01*
X009982Y002480D02*
X010029Y002480D01*
X009161Y002835D02*
X008850Y002835D01*
X008934Y002717D02*
X009077Y002717D01*
X009029Y002598D02*
X008982Y002598D01*
X008982Y002480D02*
X009029Y002480D01*
X008161Y002835D02*
X007850Y002835D01*
X007934Y002717D02*
X008077Y002717D01*
X008029Y002598D02*
X007982Y002598D01*
X007982Y002480D02*
X008029Y002480D01*
X007161Y002835D02*
X006850Y002835D01*
X006934Y002717D02*
X007077Y002717D01*
X007029Y002598D02*
X006982Y002598D01*
X006982Y002480D02*
X007029Y002480D01*
X006161Y002835D02*
X005850Y002835D01*
X005934Y002717D02*
X006077Y002717D01*
X006029Y002598D02*
X005982Y002598D01*
X005982Y002480D02*
X006029Y002480D01*
X005161Y002835D02*
X004850Y002835D01*
X004934Y002717D02*
X005077Y002717D01*
X005029Y002598D02*
X004982Y002598D01*
X004982Y002480D02*
X005029Y002480D01*
X004161Y002835D02*
X003850Y002835D01*
X003934Y002717D02*
X004077Y002717D01*
X004029Y002598D02*
X003982Y002598D01*
X003982Y002480D02*
X004029Y002480D01*
X003506Y002506D02*
X003506Y004806D01*
X003772Y004732D02*
X012253Y004732D01*
X012253Y004851D02*
X003890Y004851D01*
X004009Y004969D02*
X012253Y004969D01*
X012253Y005088D02*
X004127Y005088D01*
X004246Y005206D02*
X012253Y005206D01*
X012253Y005325D02*
X004364Y005325D01*
X004483Y005443D02*
X012253Y005443D01*
X012253Y005562D02*
X004601Y005562D01*
X004720Y005681D02*
X012253Y005681D01*
X012273Y005799D02*
X004838Y005799D01*
X004957Y005918D02*
X012273Y005918D01*
X012253Y006036D02*
X005076Y006036D01*
X005194Y006155D02*
X012253Y006155D01*
X013184Y005918D02*
X013216Y005918D01*
X013216Y005799D02*
X013184Y005799D01*
X013204Y005681D02*
X013216Y005681D01*
X013204Y005562D02*
X013216Y005562D01*
X013204Y005443D02*
X013216Y005443D01*
X013204Y005325D02*
X013216Y005325D01*
X013204Y005206D02*
X013216Y005206D01*
X013204Y005088D02*
X013216Y005088D01*
X013204Y004969D02*
X013216Y004969D01*
X013204Y004851D02*
X013216Y004851D01*
X013204Y004732D02*
X013216Y004732D01*
X013204Y004614D02*
X013216Y004614D01*
X013204Y004495D02*
X013216Y004495D01*
X013204Y004377D02*
X013216Y004377D01*
X013204Y004258D02*
X013216Y004258D01*
X013204Y004139D02*
X013216Y004139D01*
X013204Y004021D02*
X013216Y004021D01*
X013216Y003902D02*
X013197Y003902D01*
X013216Y003784D02*
X003746Y003784D01*
X003746Y003902D02*
X012260Y003902D01*
X012253Y004021D02*
X003746Y004021D01*
X003746Y004139D02*
X012253Y004139D01*
X012253Y004258D02*
X003746Y004258D01*
X003746Y004377D02*
X012253Y004377D01*
X012253Y004495D02*
X003746Y004495D01*
X003746Y004614D02*
X012253Y004614D01*
X014056Y005456D02*
X014206Y005306D01*
X015556Y005306D01*
X015108Y005066D02*
X015108Y004932D01*
X015128Y004912D01*
X015128Y004810D01*
X015582Y004810D01*
X015582Y004810D01*
X015128Y004810D01*
X015128Y004708D01*
X015108Y004688D01*
X015108Y004546D01*
X015056Y004546D01*
X014956Y004446D01*
X014816Y004305D01*
X014816Y004055D01*
X014816Y003856D01*
X014956Y003716D01*
X014613Y003716D01*
X014416Y003913D01*
X014416Y005066D01*
X015108Y005066D01*
X015108Y004969D02*
X014416Y004969D01*
X014416Y004851D02*
X015128Y004851D01*
X015128Y004732D02*
X014416Y004732D01*
X014416Y004614D02*
X015108Y004614D01*
X015006Y004495D02*
X014416Y004495D01*
X014416Y004377D02*
X014887Y004377D01*
X014816Y004258D02*
X014416Y004258D01*
X014416Y004139D02*
X014816Y004139D01*
X015056Y004206D02*
X015156Y004306D01*
X015556Y004306D01*
X015563Y004298D01*
X015583Y004298D01*
X015606Y004056D02*
X018006Y004056D01*
X019506Y005556D01*
X020425Y005556D01*
X020456Y005556D01*
X019802Y005799D02*
X018983Y005799D01*
X019291Y005681D02*
X016864Y005681D01*
X017202Y005562D02*
X017279Y005562D01*
X017279Y005443D02*
X017202Y005443D01*
X017279Y005325D02*
X018936Y005325D01*
X019054Y005443D02*
X017617Y005443D01*
X017617Y005562D02*
X019173Y005562D01*
X019015Y005918D02*
X019802Y005918D01*
X019802Y006036D02*
X019015Y006036D01*
X017971Y006106D02*
X017956Y006106D01*
X017956Y006156D01*
X017256Y006156D01*
X017256Y006106D01*
X017240Y006106D01*
X016571Y006106D02*
X016306Y006106D01*
X016056Y005856D01*
X015561Y005856D01*
X015583Y005834D01*
X015561Y005856D02*
X015556Y005856D01*
X015583Y006090D02*
X015599Y006106D01*
X015956Y006106D01*
X016206Y006356D01*
X016206Y006406D01*
X016456Y006656D01*
X016471Y006656D01*
X016571Y006756D01*
X016196Y006747D02*
X016038Y006747D01*
X016038Y006629D02*
X016090Y006629D01*
X015583Y006629D02*
X015583Y006629D01*
X015582Y006601D02*
X015582Y006601D01*
X015583Y006747D02*
X015583Y006747D01*
X015582Y006857D02*
X015582Y006857D01*
X016038Y006866D02*
X016196Y006866D01*
X016196Y006984D02*
X016058Y006984D01*
X016058Y007103D02*
X016269Y007103D01*
X016196Y007222D02*
X016058Y007222D01*
X016058Y007340D02*
X016196Y007340D01*
X016196Y007459D02*
X016058Y007459D01*
X017256Y006806D02*
X017956Y006806D01*
X017956Y006756D01*
X017971Y006756D01*
X017256Y006756D02*
X017240Y006756D01*
X017256Y006756D02*
X017256Y006806D01*
X018846Y007222D02*
X019556Y007222D01*
X019556Y007340D02*
X018811Y007340D01*
X018692Y007459D02*
X019556Y007459D01*
X019556Y007577D02*
X018573Y007577D01*
X018455Y007696D02*
X019556Y007696D01*
X019556Y007814D02*
X018336Y007814D01*
X018218Y007933D02*
X019556Y007933D01*
X019645Y008051D02*
X018099Y008051D01*
X018942Y007103D02*
X019556Y007103D01*
X019579Y006984D02*
X019015Y006984D01*
X019015Y006866D02*
X022253Y006866D01*
X022253Y006747D02*
X021517Y006747D01*
X021668Y006629D02*
X022253Y006629D01*
X022253Y006510D02*
X021720Y006510D01*
X021727Y006392D02*
X022253Y006392D01*
X022253Y006273D02*
X021695Y006273D01*
X021608Y006155D02*
X022253Y006155D01*
X021020Y006510D02*
X019015Y006510D01*
X019015Y006629D02*
X021072Y006629D01*
X021223Y006747D02*
X019015Y006747D01*
X017628Y005799D02*
X017583Y005799D01*
X016278Y005681D02*
X016220Y005681D01*
X016174Y005562D02*
X016038Y005562D01*
X017202Y005206D02*
X017279Y005206D01*
X017279Y005267D02*
X017279Y004949D01*
X017523Y004949D01*
X017617Y005043D01*
X017617Y005267D01*
X017279Y005267D01*
X017617Y005206D02*
X018817Y005206D01*
X018698Y005088D02*
X017617Y005088D01*
X017544Y004969D02*
X018580Y004969D01*
X018461Y004851D02*
X017535Y004851D01*
X017617Y004732D02*
X018343Y004732D01*
X018224Y004614D02*
X017617Y004614D01*
X017279Y004614D02*
X017202Y004614D01*
X017279Y004495D02*
X018106Y004495D01*
X017987Y004377D02*
X017617Y004377D01*
X016571Y004506D02*
X016556Y004406D01*
X016556Y004456D01*
X016456Y004556D01*
X015584Y004556D01*
X015583Y004554D01*
X015583Y004810D02*
X015583Y004810D01*
X016038Y004810D01*
X015583Y004810D01*
X016038Y004851D02*
X016248Y004851D01*
X016239Y004969D02*
X016058Y004969D01*
X016894Y004851D02*
X016946Y004851D01*
X016937Y004969D02*
X016902Y004969D01*
X017202Y004969D02*
X017279Y004969D01*
X017279Y004851D02*
X017202Y004851D01*
X017202Y004732D02*
X017279Y004732D01*
X017279Y005088D02*
X017202Y005088D01*
X018206Y003806D02*
X019606Y005206D01*
X020406Y005206D01*
X020425Y005225D01*
X020425Y005241D01*
X021048Y004969D02*
X021145Y004969D01*
X021050Y004851D02*
X021048Y004851D01*
X021015Y004614D02*
X019881Y004614D01*
X019763Y004495D02*
X021064Y004495D01*
X021193Y004377D02*
X019644Y004377D01*
X018206Y003806D02*
X015206Y003806D01*
X015056Y003956D01*
X015056Y004206D01*
X014816Y004021D02*
X014416Y004021D01*
X014427Y003902D02*
X014816Y003902D01*
X014888Y003784D02*
X014545Y003784D01*
X015583Y004042D02*
X015592Y004042D01*
X015606Y004056D01*
X013362Y003310D02*
X003746Y003310D01*
X003746Y003428D02*
X013244Y003428D01*
X013216Y003547D02*
X003746Y003547D01*
X003746Y003665D02*
X013216Y003665D01*
X013481Y003191D02*
X003746Y003191D01*
X003746Y003073D02*
X013599Y003073D01*
X013669Y002954D02*
X013718Y002954D01*
X013342Y002954D02*
X012669Y002954D01*
X012342Y002954D02*
X011669Y002954D01*
X011342Y002954D02*
X010669Y002954D01*
X010342Y002954D02*
X009669Y002954D01*
X009342Y002954D02*
X008669Y002954D01*
X008342Y002954D02*
X007669Y002954D01*
X007342Y002954D02*
X006669Y002954D01*
X006342Y002954D02*
X005669Y002954D01*
X005342Y002954D02*
X004669Y002954D01*
X004342Y002954D02*
X003746Y002954D01*
X003266Y002954D02*
X002617Y002954D01*
X002597Y002962D02*
X002544Y002962D01*
X002544Y002544D01*
X002962Y002544D01*
X002962Y002597D01*
X002893Y002764D01*
X002764Y002893D01*
X002597Y002962D01*
X002544Y002954D02*
X002467Y002954D01*
X002394Y002954D02*
X002236Y002954D01*
X002236Y003073D02*
X003266Y003073D01*
X003266Y003191D02*
X002236Y003191D01*
X002236Y003310D02*
X003266Y003310D01*
X003266Y003428D02*
X002236Y003428D01*
X002236Y003547D02*
X003266Y003547D01*
X003266Y003665D02*
X002236Y003665D01*
X002236Y003784D02*
X003266Y003784D01*
X003266Y003902D02*
X002236Y003902D01*
X002236Y004021D02*
X003266Y004021D01*
X003266Y004139D02*
X002236Y004139D01*
X002236Y004258D02*
X003266Y004258D01*
X003266Y004377D02*
X002236Y004377D01*
X002236Y004495D02*
X003266Y004495D01*
X003266Y004614D02*
X002236Y004614D01*
X002467Y002835D02*
X002544Y002835D01*
X002544Y002717D02*
X002467Y002717D01*
X002467Y002598D02*
X002544Y002598D01*
X002544Y002480D02*
X003029Y002480D01*
X003029Y002598D02*
X002962Y002598D01*
X002913Y002717D02*
X003077Y002717D01*
X003161Y002835D02*
X002822Y002835D01*
X014156Y005306D02*
X014206Y005306D01*
X014960Y003191D02*
X016196Y003191D01*
X016255Y003073D02*
X015078Y003073D01*
X015197Y002954D02*
X015342Y002954D01*
X015669Y002954D02*
X016342Y002954D01*
X016669Y002954D02*
X017342Y002954D01*
X016924Y003073D02*
X016887Y003073D01*
X018669Y002954D02*
X019342Y002954D01*
X021206Y008051D02*
X021239Y008051D01*
D22*
X014656Y006406D03*
X011456Y005806D03*
X018556Y005456D03*
D23*
X019806Y004906D02*
X020406Y004906D01*
X020425Y004925D01*
X020425Y004926D01*
X019806Y004906D02*
X018306Y003406D01*
X017240Y003406D01*
X016606Y003356D02*
X016556Y003456D01*
X014506Y003456D01*
X014156Y003806D01*
X014156Y005306D01*
X016571Y003406D02*
X016606Y003356D01*
M02*
