G75*
G70*
%OFA0B0*%
%FSLAX24Y24*%
%IPPOS*%
%LPD*%
%AMOC8*
5,1,8,0,0,1.08239X$1,22.5*
%
%ADD10C,0.0100*%
%ADD11C,0.0000*%
%ADD12C,0.0060*%
%ADD13C,0.0594*%
%ADD14C,0.0120*%
%ADD15C,0.0436*%
D10*
X008057Y002006D02*
X008057Y002406D01*
X008057Y002799D02*
X008057Y003199D01*
X008057Y003593D02*
X008057Y003993D01*
X008057Y004387D02*
X008057Y004787D01*
X008057Y005181D02*
X008057Y005581D01*
X008057Y005974D02*
X008057Y006374D01*
X008057Y006768D02*
X008057Y007168D01*
X008057Y007562D02*
X008057Y007962D01*
X008057Y008356D02*
X008057Y008756D01*
X008456Y008756D01*
X008849Y008756D02*
X009248Y008756D01*
X009642Y008756D02*
X010040Y008756D01*
X010434Y008756D02*
X010833Y008756D01*
X011226Y008756D02*
X011625Y008756D01*
X012019Y008756D02*
X012417Y008756D01*
X012811Y008756D02*
X013210Y008756D01*
X013603Y008756D02*
X014002Y008756D01*
X014396Y008756D02*
X014794Y008756D01*
X015188Y008756D02*
X015586Y008756D01*
X015980Y008756D02*
X016379Y008756D01*
X016773Y008756D02*
X017171Y008756D01*
X017565Y008756D02*
X017963Y008756D01*
X018357Y008756D02*
X018756Y008756D01*
X019149Y008756D02*
X019548Y008756D01*
X019942Y008756D02*
X020340Y008756D01*
X020734Y008756D02*
X021133Y008756D01*
X021526Y008756D02*
X021925Y008756D01*
X022319Y008756D02*
X022717Y008756D01*
X023111Y008756D02*
X023510Y008756D01*
X023903Y008756D02*
X024302Y008756D01*
X024696Y008756D02*
X025094Y008756D01*
X025488Y008756D02*
X025887Y008756D01*
X026280Y008756D02*
X026679Y008756D01*
X027073Y008756D02*
X027471Y008756D01*
X027865Y008756D02*
X028264Y008756D01*
X028657Y008756D02*
X029056Y008756D01*
X029057Y008756D02*
X029057Y008356D01*
X029057Y007962D02*
X029057Y007562D01*
X029057Y007168D02*
X029057Y006768D01*
X029057Y006374D02*
X029057Y005974D01*
X029057Y005581D02*
X029057Y005181D01*
X029057Y004787D02*
X029057Y004387D01*
X029057Y003993D02*
X029057Y003593D01*
X029057Y003199D02*
X029057Y002799D01*
X029057Y002406D02*
X029057Y002006D01*
X028658Y002006D01*
X028265Y002006D02*
X027866Y002006D01*
X027472Y002006D02*
X027074Y002006D01*
X026680Y002006D02*
X026281Y002006D01*
X025888Y002006D02*
X025489Y002006D01*
X025095Y002006D02*
X024697Y002006D01*
X024303Y002006D02*
X023904Y002006D01*
X023511Y002006D02*
X023112Y002006D01*
X022718Y002006D02*
X022320Y002006D01*
X021926Y002006D02*
X021527Y002006D01*
X021134Y002006D02*
X020735Y002006D01*
X020341Y002006D02*
X019943Y002006D01*
X019549Y002006D02*
X019150Y002006D01*
X018757Y002006D02*
X018358Y002006D01*
X017964Y002006D02*
X017566Y002006D01*
X017172Y002006D02*
X016774Y002006D01*
X016380Y002006D02*
X015981Y002006D01*
X015587Y002006D02*
X015189Y002006D01*
X014795Y002006D02*
X014397Y002006D01*
X014003Y002006D02*
X013604Y002006D01*
X013211Y002006D02*
X012812Y002006D01*
X012418Y002006D02*
X012020Y002006D01*
X011626Y002006D02*
X011227Y002006D01*
X010834Y002006D02*
X010435Y002006D01*
X010041Y002006D02*
X009643Y002006D01*
X009249Y002006D02*
X008850Y002006D01*
X008457Y002006D02*
X008058Y002006D01*
D11*
X009515Y004690D02*
X009517Y004717D01*
X009523Y004743D01*
X009533Y004769D01*
X009547Y004792D01*
X009564Y004813D01*
X009585Y004831D01*
X009607Y004845D01*
X009632Y004857D01*
X009658Y004864D01*
X009685Y004867D01*
X009712Y004866D01*
X009739Y004861D01*
X009764Y004852D01*
X009788Y004839D01*
X009810Y004822D01*
X009829Y004803D01*
X009844Y004780D01*
X009856Y004756D01*
X009864Y004730D01*
X009868Y004704D01*
X009868Y004676D01*
X009864Y004650D01*
X009856Y004624D01*
X009844Y004600D01*
X009829Y004577D01*
X009810Y004558D01*
X009788Y004541D01*
X009764Y004528D01*
X009739Y004519D01*
X009712Y004514D01*
X009685Y004513D01*
X009658Y004516D01*
X009632Y004523D01*
X009607Y004535D01*
X009585Y004549D01*
X009564Y004567D01*
X009547Y004588D01*
X009533Y004611D01*
X009523Y004637D01*
X009517Y004663D01*
X009515Y004690D01*
X009515Y006422D02*
X009517Y006449D01*
X009523Y006475D01*
X009533Y006501D01*
X009547Y006524D01*
X009564Y006545D01*
X009585Y006563D01*
X009607Y006577D01*
X009632Y006589D01*
X009658Y006596D01*
X009685Y006599D01*
X009712Y006598D01*
X009739Y006593D01*
X009764Y006584D01*
X009788Y006571D01*
X009810Y006554D01*
X009829Y006535D01*
X009844Y006512D01*
X009856Y006488D01*
X009864Y006462D01*
X009868Y006436D01*
X009868Y006408D01*
X009864Y006382D01*
X009856Y006356D01*
X009844Y006332D01*
X009829Y006309D01*
X009810Y006290D01*
X009788Y006273D01*
X009764Y006260D01*
X009739Y006251D01*
X009712Y006246D01*
X009685Y006245D01*
X009658Y006248D01*
X009632Y006255D01*
X009607Y006267D01*
X009585Y006281D01*
X009564Y006299D01*
X009547Y006320D01*
X009533Y006343D01*
X009523Y006369D01*
X009517Y006395D01*
X009515Y006422D01*
X027426Y007906D02*
X027428Y007954D01*
X027435Y008002D01*
X027446Y008049D01*
X027461Y008095D01*
X027480Y008139D01*
X027503Y008182D01*
X027530Y008222D01*
X027561Y008260D01*
X027595Y008294D01*
X027631Y008325D01*
X027671Y008353D01*
X027713Y008377D01*
X027757Y008398D01*
X027802Y008414D01*
X027849Y008426D01*
X027897Y008434D01*
X027945Y008437D01*
X027993Y008436D01*
X028041Y008430D01*
X028089Y008420D01*
X028135Y008406D01*
X028180Y008388D01*
X028222Y008366D01*
X028263Y008340D01*
X028301Y008310D01*
X028337Y008277D01*
X028369Y008241D01*
X028398Y008202D01*
X028423Y008161D01*
X028444Y008118D01*
X028461Y008072D01*
X028474Y008026D01*
X028483Y007978D01*
X028487Y007930D01*
X028487Y007882D01*
X028483Y007834D01*
X028474Y007786D01*
X028461Y007740D01*
X028444Y007694D01*
X028423Y007651D01*
X028398Y007610D01*
X028369Y007571D01*
X028337Y007535D01*
X028301Y007502D01*
X028263Y007472D01*
X028223Y007446D01*
X028180Y007424D01*
X028135Y007406D01*
X028089Y007392D01*
X028041Y007382D01*
X027993Y007376D01*
X027945Y007375D01*
X027897Y007378D01*
X027849Y007386D01*
X027802Y007398D01*
X027757Y007414D01*
X027713Y007435D01*
X027671Y007459D01*
X027631Y007487D01*
X027595Y007518D01*
X027561Y007552D01*
X027530Y007590D01*
X027503Y007630D01*
X027480Y007673D01*
X027461Y007717D01*
X027446Y007763D01*
X027435Y007810D01*
X027428Y007858D01*
X027426Y007906D01*
D12*
X007257Y006006D02*
X007257Y005686D01*
X007043Y005686D02*
X007043Y006006D01*
X007150Y006113D01*
X007257Y006006D01*
X007043Y006006D02*
X006937Y006113D01*
X006830Y006113D01*
X006830Y005686D01*
X006612Y005792D02*
X006612Y006006D01*
X006506Y006113D01*
X006292Y006113D01*
X006185Y006006D01*
X006185Y005792D01*
X006292Y005686D01*
X006506Y005686D01*
X006612Y005792D01*
X005969Y005686D02*
X005862Y005792D01*
X005862Y006219D01*
X005756Y006113D02*
X005969Y006113D01*
X005540Y006113D02*
X005326Y006113D01*
X005433Y006219D02*
X005433Y005792D01*
X005540Y005686D01*
X005109Y005792D02*
X005109Y006006D01*
X005002Y006113D01*
X004788Y006113D01*
X004681Y006006D01*
X004681Y005792D01*
X004788Y005686D01*
X005002Y005686D01*
X005109Y005792D01*
X004464Y005792D02*
X004357Y005686D01*
X004037Y005686D01*
X004037Y006326D01*
X004037Y006113D02*
X004357Y006113D01*
X004464Y006006D01*
X004464Y005792D01*
D13*
X008557Y002506D03*
X009557Y002506D03*
X010557Y002506D03*
X011557Y002506D03*
X012557Y002506D03*
X013557Y002506D03*
X014557Y002506D03*
X015557Y002506D03*
X016557Y002506D03*
X017557Y002506D03*
X018557Y002506D03*
X019557Y002506D03*
X020557Y002506D03*
X021557Y002506D03*
X022557Y002506D03*
X023557Y002506D03*
X024557Y002506D03*
X025557Y002506D03*
X026557Y002506D03*
X027557Y002506D03*
X028557Y002506D03*
D14*
X028518Y002480D02*
X028034Y002480D01*
X028034Y002456D02*
X028100Y002456D01*
X028100Y002467D01*
X028518Y002467D01*
X028518Y002544D01*
X028100Y002544D01*
X028100Y002597D01*
X028170Y002764D01*
X028298Y002893D01*
X028466Y002962D01*
X028519Y002962D01*
X028519Y002544D01*
X028595Y002544D01*
X028595Y002962D01*
X028648Y002962D01*
X028816Y002893D01*
X028827Y002882D01*
X028827Y006856D01*
X026907Y006856D01*
X026907Y008526D01*
X008287Y008526D01*
X008287Y002910D01*
X008462Y002982D01*
X008652Y002982D01*
X008827Y002910D01*
X008961Y002776D01*
X009034Y002601D01*
X009034Y002456D01*
X009080Y002456D01*
X009080Y002601D01*
X009153Y002776D01*
X009287Y002910D01*
X009462Y002982D01*
X009652Y002982D01*
X009827Y002910D01*
X009961Y002776D01*
X010034Y002601D01*
X010034Y002456D01*
X010080Y002456D01*
X010080Y002601D01*
X010153Y002776D01*
X010287Y002910D01*
X010462Y002982D01*
X010652Y002982D01*
X010827Y002910D01*
X010961Y002776D01*
X011034Y002601D01*
X011034Y002456D01*
X011080Y002456D01*
X011080Y002601D01*
X011153Y002776D01*
X011287Y002910D01*
X011462Y002982D01*
X011652Y002982D01*
X011827Y002910D01*
X011961Y002776D01*
X012034Y002601D01*
X012034Y002456D01*
X012080Y002456D01*
X012080Y002601D01*
X012153Y002776D01*
X012287Y002910D01*
X012462Y002982D01*
X012652Y002982D01*
X012827Y002910D01*
X012961Y002776D01*
X013034Y002601D01*
X013034Y002456D01*
X013080Y002456D01*
X013080Y002601D01*
X013153Y002776D01*
X013287Y002910D01*
X013462Y002982D01*
X013652Y002982D01*
X013827Y002910D01*
X013961Y002776D01*
X014034Y002601D01*
X014034Y002456D01*
X014080Y002456D01*
X014080Y002601D01*
X014153Y002776D01*
X014287Y002910D01*
X014462Y002982D01*
X014652Y002982D01*
X014827Y002910D01*
X014961Y002776D01*
X015034Y002601D01*
X015034Y002456D01*
X015080Y002456D01*
X015080Y002601D01*
X015153Y002776D01*
X015287Y002910D01*
X015462Y002982D01*
X015652Y002982D01*
X015827Y002910D01*
X015961Y002776D01*
X016034Y002601D01*
X016034Y002456D01*
X016080Y002456D01*
X016080Y002601D01*
X016153Y002776D01*
X016287Y002910D01*
X016462Y002982D01*
X016652Y002982D01*
X016827Y002910D01*
X016961Y002776D01*
X017034Y002601D01*
X017034Y002456D01*
X017080Y002456D01*
X017080Y002601D01*
X017153Y002776D01*
X017287Y002910D01*
X017462Y002982D01*
X017652Y002982D01*
X017827Y002910D01*
X017961Y002776D01*
X018034Y002601D01*
X018034Y002456D01*
X018080Y002456D01*
X018080Y002601D01*
X018153Y002776D01*
X018287Y002910D01*
X018462Y002982D01*
X018652Y002982D01*
X018827Y002910D01*
X018961Y002776D01*
X019034Y002601D01*
X019034Y002456D01*
X019080Y002456D01*
X019080Y002601D01*
X019153Y002776D01*
X019287Y002910D01*
X019462Y002982D01*
X019652Y002982D01*
X019827Y002910D01*
X019961Y002776D01*
X020034Y002601D01*
X020034Y002456D01*
X020080Y002456D01*
X020080Y002601D01*
X020153Y002776D01*
X020287Y002910D01*
X020462Y002982D01*
X020652Y002982D01*
X020827Y002910D01*
X020961Y002776D01*
X021034Y002601D01*
X021034Y002456D01*
X021080Y002456D01*
X021080Y002601D01*
X021153Y002776D01*
X021287Y002910D01*
X021462Y002982D01*
X021652Y002982D01*
X021827Y002910D01*
X021961Y002776D01*
X022034Y002601D01*
X022034Y002456D01*
X022080Y002456D01*
X022080Y002601D01*
X022153Y002776D01*
X022287Y002910D01*
X022462Y002982D01*
X022652Y002982D01*
X022827Y002910D01*
X022961Y002776D01*
X023034Y002601D01*
X023034Y002456D01*
X023080Y002456D01*
X023080Y002601D01*
X023153Y002776D01*
X023287Y002910D01*
X023462Y002982D01*
X023652Y002982D01*
X023827Y002910D01*
X023961Y002776D01*
X024034Y002601D01*
X024034Y002456D01*
X024080Y002456D01*
X024080Y002601D01*
X024153Y002776D01*
X024287Y002910D01*
X024462Y002982D01*
X024652Y002982D01*
X024827Y002910D01*
X024961Y002776D01*
X025034Y002601D01*
X025034Y002456D01*
X025080Y002456D01*
X025080Y002601D01*
X025153Y002776D01*
X025287Y002910D01*
X025462Y002982D01*
X025652Y002982D01*
X025827Y002910D01*
X025961Y002776D01*
X026034Y002601D01*
X026034Y002456D01*
X026080Y002456D01*
X026080Y002601D01*
X026153Y002776D01*
X026287Y002910D01*
X026462Y002982D01*
X026652Y002982D01*
X026827Y002910D01*
X026961Y002776D01*
X027034Y002601D01*
X027034Y002456D01*
X027080Y002456D01*
X027080Y002601D01*
X027153Y002776D01*
X027287Y002910D01*
X027462Y002982D01*
X027652Y002982D01*
X027827Y002910D01*
X027961Y002776D01*
X028034Y002601D01*
X028034Y002456D01*
X028034Y002598D02*
X028101Y002598D01*
X028150Y002717D02*
X027986Y002717D01*
X027901Y002835D02*
X028241Y002835D01*
X028519Y002835D02*
X028595Y002835D01*
X028595Y002717D02*
X028519Y002717D01*
X028519Y002598D02*
X028595Y002598D01*
X028595Y002954D02*
X028519Y002954D01*
X028446Y002954D02*
X027721Y002954D01*
X027393Y002954D02*
X026721Y002954D01*
X026901Y002835D02*
X027212Y002835D01*
X027128Y002717D02*
X026986Y002717D01*
X027034Y002598D02*
X027080Y002598D01*
X027080Y002480D02*
X027034Y002480D01*
X026212Y002835D02*
X025901Y002835D01*
X025986Y002717D02*
X026128Y002717D01*
X026080Y002598D02*
X026034Y002598D01*
X026034Y002480D02*
X026080Y002480D01*
X025212Y002835D02*
X024901Y002835D01*
X024986Y002717D02*
X025128Y002717D01*
X025080Y002598D02*
X025034Y002598D01*
X025034Y002480D02*
X025080Y002480D01*
X024212Y002835D02*
X023901Y002835D01*
X023986Y002717D02*
X024128Y002717D01*
X024080Y002598D02*
X024034Y002598D01*
X024034Y002480D02*
X024080Y002480D01*
X023212Y002835D02*
X022901Y002835D01*
X022986Y002717D02*
X023128Y002717D01*
X023080Y002598D02*
X023034Y002598D01*
X023034Y002480D02*
X023080Y002480D01*
X022212Y002835D02*
X021901Y002835D01*
X021986Y002717D02*
X022128Y002717D01*
X022080Y002598D02*
X022034Y002598D01*
X022034Y002480D02*
X022080Y002480D01*
X021212Y002835D02*
X020901Y002835D01*
X020986Y002717D02*
X021128Y002717D01*
X021080Y002598D02*
X021034Y002598D01*
X021034Y002480D02*
X021080Y002480D01*
X020212Y002835D02*
X019901Y002835D01*
X019986Y002717D02*
X020128Y002717D01*
X020080Y002598D02*
X020034Y002598D01*
X020034Y002480D02*
X020080Y002480D01*
X019212Y002835D02*
X018901Y002835D01*
X018986Y002717D02*
X019128Y002717D01*
X019080Y002598D02*
X019034Y002598D01*
X019034Y002480D02*
X019080Y002480D01*
X018212Y002835D02*
X017901Y002835D01*
X017986Y002717D02*
X018128Y002717D01*
X018080Y002598D02*
X018034Y002598D01*
X018034Y002480D02*
X018080Y002480D01*
X017212Y002835D02*
X016901Y002835D01*
X016986Y002717D02*
X017128Y002717D01*
X017080Y002598D02*
X017034Y002598D01*
X017034Y002480D02*
X017080Y002480D01*
X016212Y002835D02*
X015901Y002835D01*
X015986Y002717D02*
X016128Y002717D01*
X016080Y002598D02*
X016034Y002598D01*
X016034Y002480D02*
X016080Y002480D01*
X015212Y002835D02*
X014901Y002835D01*
X014986Y002717D02*
X015128Y002717D01*
X015080Y002598D02*
X015034Y002598D01*
X015034Y002480D02*
X015080Y002480D01*
X014212Y002835D02*
X013901Y002835D01*
X013986Y002717D02*
X014128Y002717D01*
X014080Y002598D02*
X014034Y002598D01*
X014034Y002480D02*
X014080Y002480D01*
X013212Y002835D02*
X012901Y002835D01*
X012986Y002717D02*
X013128Y002717D01*
X013080Y002598D02*
X013034Y002598D01*
X013034Y002480D02*
X013080Y002480D01*
X012212Y002835D02*
X011901Y002835D01*
X011986Y002717D02*
X012128Y002717D01*
X012080Y002598D02*
X012034Y002598D01*
X012034Y002480D02*
X012080Y002480D01*
X011212Y002835D02*
X010901Y002835D01*
X010986Y002717D02*
X011128Y002717D01*
X011080Y002598D02*
X011034Y002598D01*
X011034Y002480D02*
X011080Y002480D01*
X010212Y002835D02*
X009901Y002835D01*
X009986Y002717D02*
X010128Y002717D01*
X010080Y002598D02*
X010034Y002598D01*
X010034Y002480D02*
X010080Y002480D01*
X009212Y002835D02*
X008901Y002835D01*
X008986Y002717D02*
X009128Y002717D01*
X009080Y002598D02*
X009034Y002598D01*
X009034Y002480D02*
X009080Y002480D01*
X009393Y002954D02*
X008721Y002954D01*
X008393Y002954D02*
X008287Y002954D01*
X008287Y003073D02*
X028827Y003073D01*
X028827Y003191D02*
X008287Y003191D01*
X008287Y003310D02*
X028827Y003310D01*
X028827Y003428D02*
X008287Y003428D01*
X008287Y003547D02*
X028827Y003547D01*
X028827Y003665D02*
X008287Y003665D01*
X008287Y003784D02*
X028827Y003784D01*
X028827Y003902D02*
X008287Y003902D01*
X008287Y004021D02*
X028827Y004021D01*
X028827Y004139D02*
X008287Y004139D01*
X008287Y004258D02*
X028827Y004258D01*
X028827Y004377D02*
X009870Y004377D01*
X009895Y004387D02*
X009763Y004332D01*
X009621Y004332D01*
X009490Y004387D01*
X009390Y004487D01*
X009335Y004618D01*
X009335Y004761D01*
X009390Y004892D01*
X009490Y004992D01*
X009621Y005047D01*
X009763Y005047D01*
X009895Y004992D01*
X009995Y004892D01*
X010050Y004761D01*
X010050Y004618D01*
X009995Y004487D01*
X009895Y004387D01*
X009998Y004495D02*
X028827Y004495D01*
X028827Y004614D02*
X010048Y004614D01*
X010050Y004732D02*
X028827Y004732D01*
X028827Y004851D02*
X010012Y004851D01*
X009918Y004969D02*
X028827Y004969D01*
X028827Y005088D02*
X008287Y005088D01*
X008287Y005206D02*
X028827Y005206D01*
X028827Y005325D02*
X008287Y005325D01*
X008287Y005443D02*
X028827Y005443D01*
X028827Y005562D02*
X008287Y005562D01*
X008287Y005681D02*
X028827Y005681D01*
X028827Y005799D02*
X008287Y005799D01*
X008287Y005918D02*
X028827Y005918D01*
X028827Y006036D02*
X008287Y006036D01*
X008287Y006155D02*
X009454Y006155D01*
X009490Y006119D02*
X009390Y006219D01*
X009335Y006351D01*
X009335Y006493D01*
X009390Y006624D01*
X009490Y006725D01*
X009621Y006779D01*
X009763Y006779D01*
X009895Y006725D01*
X009995Y006624D01*
X010050Y006493D01*
X010050Y006351D01*
X009995Y006219D01*
X009895Y006119D01*
X009763Y006065D01*
X009621Y006065D01*
X009490Y006119D01*
X009367Y006273D02*
X008287Y006273D01*
X008287Y006392D02*
X009335Y006392D01*
X009342Y006510D02*
X008287Y006510D01*
X008287Y006629D02*
X009394Y006629D01*
X009545Y006747D02*
X008287Y006747D01*
X008287Y006866D02*
X026907Y006866D01*
X026907Y006984D02*
X008287Y006984D01*
X008287Y007103D02*
X026907Y007103D01*
X026907Y007222D02*
X008287Y007222D01*
X008287Y007340D02*
X026907Y007340D01*
X026907Y007459D02*
X008287Y007459D01*
X008287Y007577D02*
X026907Y007577D01*
X026907Y007696D02*
X008287Y007696D01*
X008287Y007814D02*
X026907Y007814D01*
X026907Y007933D02*
X008287Y007933D01*
X008287Y008051D02*
X026907Y008051D01*
X026907Y008170D02*
X008287Y008170D01*
X008287Y008288D02*
X026907Y008288D01*
X026907Y008407D02*
X008287Y008407D01*
X008287Y008526D02*
X026907Y008526D01*
X028827Y006747D02*
X009840Y006747D01*
X009990Y006629D02*
X028827Y006629D01*
X028827Y006510D02*
X010042Y006510D01*
X010050Y006392D02*
X028827Y006392D01*
X028827Y006273D02*
X010017Y006273D01*
X009930Y006155D02*
X028827Y006155D01*
X028827Y002954D02*
X028668Y002954D01*
X026393Y002954D02*
X025721Y002954D01*
X025393Y002954D02*
X024721Y002954D01*
X024393Y002954D02*
X023721Y002954D01*
X023393Y002954D02*
X022721Y002954D01*
X022393Y002954D02*
X021721Y002954D01*
X021393Y002954D02*
X020721Y002954D01*
X020393Y002954D02*
X019721Y002954D01*
X019393Y002954D02*
X018721Y002954D01*
X018393Y002954D02*
X017721Y002954D01*
X017393Y002954D02*
X016721Y002954D01*
X016393Y002954D02*
X015721Y002954D01*
X015393Y002954D02*
X014721Y002954D01*
X014393Y002954D02*
X013721Y002954D01*
X013393Y002954D02*
X012721Y002954D01*
X012393Y002954D02*
X011721Y002954D01*
X011393Y002954D02*
X010721Y002954D01*
X010393Y002954D02*
X009721Y002954D01*
X009515Y004377D02*
X008287Y004377D01*
X008287Y004495D02*
X009386Y004495D01*
X009337Y004614D02*
X008287Y004614D01*
X008287Y004732D02*
X009335Y004732D01*
X009373Y004851D02*
X008287Y004851D01*
X008287Y004969D02*
X009467Y004969D01*
D15*
X012507Y005456D03*
X016407Y006406D03*
X019607Y005806D03*
M02*
