G75*
G70*
%OFA0B0*%
%FSLAX24Y24*%
%IPPOS*%
%LPD*%
%AMOC8*
5,1,8,0,0,1.08239X$1,22.5*
%
%ADD10C,0.0100*%
%ADD11C,0.0140*%
%ADD12C,0.0571*%
%ADD13R,0.0571X0.0571*%
%ADD14R,0.0512X0.0472*%
%ADD15C,0.0712*%
%ADD16C,0.0160*%
%ADD17R,0.0712X0.0712*%
%ADD18C,0.0840*%
%ADD19R,0.0630X0.0472*%
%ADD20C,0.0780*%
%ADD21C,0.0000*%
%ADD22C,0.0520*%
%ADD23R,0.0792X0.0792*%
%ADD24C,0.0475*%
D10*
X010935Y001910D02*
X010935Y023602D01*
X023868Y023602D01*
X023868Y001910D01*
X010935Y001910D01*
X024092Y001871D02*
X024092Y011763D01*
X037025Y011763D01*
X037025Y001871D01*
X024092Y001871D01*
X024092Y013721D02*
X024092Y023613D01*
X037025Y023613D01*
X037025Y013721D01*
X024092Y013721D01*
X024092Y024086D02*
X024092Y038428D01*
X037025Y038428D01*
X037025Y024086D01*
X024092Y024086D01*
X023875Y024086D02*
X023875Y038428D01*
X010942Y038428D01*
X010942Y024086D01*
X023875Y024086D01*
X023875Y038886D02*
X023875Y053228D01*
X010942Y053228D01*
X010942Y038886D01*
X023875Y038886D01*
X024092Y038886D02*
X024092Y053228D01*
X037025Y053228D01*
X037025Y038886D01*
X024092Y038886D01*
X024094Y053632D02*
X024094Y064724D01*
X037027Y064724D01*
X037027Y053632D01*
X024094Y053632D01*
X023877Y053632D02*
X023877Y064724D01*
X010944Y064724D01*
X010944Y053632D01*
X023877Y053632D01*
X037232Y064694D02*
X037232Y001894D01*
X037244Y001873D02*
X050177Y001873D01*
X050182Y001894D02*
X050182Y064694D01*
X050175Y064724D02*
X037242Y064724D01*
D11*
X007231Y053274D02*
X006858Y052901D01*
X006951Y052994D02*
X007231Y052714D01*
X006858Y052714D02*
X006858Y053274D01*
X006587Y053181D02*
X006493Y053274D01*
X006306Y053274D01*
X006213Y053181D01*
X006213Y053088D01*
X006306Y052994D01*
X006493Y052994D01*
X006587Y052901D01*
X006587Y052807D01*
X006493Y052714D01*
X006306Y052714D01*
X006213Y052807D01*
X005942Y052714D02*
X005942Y053088D01*
X005755Y053274D01*
X005569Y053088D01*
X005569Y052714D01*
X005298Y052714D02*
X005298Y053274D01*
X005111Y053088D01*
X004924Y053274D01*
X004924Y052714D01*
X005569Y052994D02*
X005942Y052994D01*
X004009Y053274D02*
X004009Y052714D01*
X003635Y052714D02*
X003635Y053274D01*
X003822Y053088D01*
X004009Y053274D01*
X003364Y053181D02*
X003364Y052807D01*
X003271Y052714D01*
X003084Y052714D01*
X002990Y052807D01*
X002990Y053181D01*
X003084Y053274D01*
X003271Y053274D01*
X003364Y053181D01*
X002720Y053274D02*
X002346Y053274D01*
X002533Y053274D02*
X002533Y052714D01*
X001888Y052714D02*
X001888Y053274D01*
X001701Y053274D02*
X002075Y053274D01*
X001431Y053181D02*
X001431Y052807D01*
X001337Y052714D01*
X001150Y052714D01*
X001057Y052807D01*
X001057Y053181D01*
X001150Y053274D01*
X001337Y053274D01*
X001431Y053181D01*
X000786Y053181D02*
X000786Y053088D01*
X000693Y052994D01*
X000412Y052994D01*
X000412Y052714D02*
X000412Y053274D01*
X000693Y053274D01*
X000786Y053181D01*
X000693Y052994D02*
X000786Y052901D01*
X000786Y052807D01*
X000693Y052714D01*
X000412Y052714D01*
D12*
X012704Y048050D03*
X013204Y048550D03*
X013704Y048050D03*
X014204Y048550D03*
X014704Y048050D03*
X020358Y046516D03*
X023358Y046516D03*
X025854Y048050D03*
X026354Y048550D03*
X026854Y048050D03*
X027354Y048550D03*
X027854Y048050D03*
X033508Y046516D03*
X036508Y046516D03*
X039006Y047096D03*
X039506Y047596D03*
X040006Y047096D03*
X040506Y047596D03*
X041006Y047096D03*
X040504Y035250D03*
X041004Y034750D03*
X040004Y034750D03*
X039504Y035250D03*
X039004Y034750D03*
X036508Y031716D03*
X033508Y031716D03*
X027854Y033250D03*
X027354Y033750D03*
X026854Y033250D03*
X026354Y033750D03*
X025854Y033250D03*
X023358Y031716D03*
X020358Y031716D03*
X014704Y033250D03*
X014204Y033750D03*
X013704Y033250D03*
X013204Y033750D03*
X012704Y033250D03*
X013196Y018074D03*
X012696Y017574D03*
X013696Y017574D03*
X014196Y018074D03*
X014696Y017574D03*
X025854Y018435D03*
X026354Y018935D03*
X026854Y018435D03*
X027354Y018935D03*
X027854Y018435D03*
X027354Y007085D03*
X027854Y006585D03*
X026854Y006585D03*
X026354Y007085D03*
X025854Y006585D03*
X046658Y033216D03*
X049658Y033216D03*
X041004Y059546D03*
X040504Y060046D03*
X040004Y059546D03*
X039504Y060046D03*
X039004Y059546D03*
X027856Y059546D03*
X027356Y060046D03*
X026856Y059546D03*
X026356Y060046D03*
X025856Y059546D03*
X014706Y059546D03*
X014206Y060046D03*
X013706Y059546D03*
X013206Y060046D03*
X012706Y059546D03*
D13*
X015206Y060046D03*
X015204Y048550D03*
X015204Y033750D03*
X015196Y018074D03*
X028354Y018935D03*
X028354Y007085D03*
X028354Y033750D03*
X028354Y048550D03*
X028356Y060046D03*
X041504Y060046D03*
X041506Y047596D03*
X041504Y035250D03*
D14*
X035945Y032640D03*
X035276Y032640D03*
X035276Y047440D03*
X035945Y047440D03*
X035628Y058936D03*
X036297Y058936D03*
X048776Y058936D03*
X049445Y058936D03*
X049447Y046486D03*
X048778Y046486D03*
X049095Y034140D03*
X048426Y034140D03*
X036295Y017825D03*
X035626Y017825D03*
X035626Y005975D03*
X036295Y005975D03*
X048778Y002542D03*
X049447Y002542D03*
X049447Y010142D03*
X048778Y010142D03*
X023138Y017814D03*
X022469Y017814D03*
X022795Y032640D03*
X022126Y032640D03*
X022126Y047440D03*
X022795Y047440D03*
X022478Y058936D03*
X023147Y058936D03*
D15*
X020660Y057412D03*
X019660Y057412D03*
X019660Y056412D03*
X018660Y056412D03*
X018660Y057412D03*
X018660Y054412D03*
X017660Y054412D03*
X016660Y054412D03*
X015660Y054412D03*
X014660Y054412D03*
X013660Y054412D03*
X012660Y054412D03*
X011660Y054412D03*
X019660Y054412D03*
X020660Y054412D03*
X021660Y054412D03*
X022660Y054412D03*
X024810Y054412D03*
X025810Y054412D03*
X026810Y054412D03*
X027810Y054412D03*
X028810Y054412D03*
X029810Y054412D03*
X030810Y054412D03*
X031810Y054412D03*
X032810Y054412D03*
X033810Y054412D03*
X034810Y054412D03*
X035810Y054412D03*
X037958Y054412D03*
X038958Y054412D03*
X039958Y054412D03*
X040958Y054412D03*
X041958Y054412D03*
X042958Y054412D03*
X043958Y054412D03*
X044958Y054412D03*
X045958Y054412D03*
X046958Y054412D03*
X047958Y054412D03*
X048958Y054412D03*
X046958Y057412D03*
X045958Y057412D03*
X045958Y056412D03*
X044958Y056412D03*
X044958Y057412D03*
X044960Y044962D03*
X044960Y043962D03*
X045960Y043962D03*
X045960Y044962D03*
X046960Y044962D03*
X046960Y041962D03*
X047960Y041962D03*
X048960Y041962D03*
X045960Y041962D03*
X044960Y041962D03*
X043960Y041962D03*
X042960Y041962D03*
X041960Y041962D03*
X040960Y041962D03*
X039960Y041962D03*
X038960Y041962D03*
X037960Y041962D03*
X036508Y042516D03*
X036508Y039516D03*
X033508Y040516D03*
X036508Y027716D03*
X036508Y024716D03*
X033508Y025716D03*
X039958Y017768D03*
X040958Y017768D03*
X040958Y018768D03*
X041958Y018768D03*
X041958Y017768D03*
X046658Y027216D03*
X049658Y026216D03*
X049658Y029216D03*
X032810Y056412D03*
X032810Y057412D03*
X031810Y057412D03*
X031810Y056412D03*
X033810Y057412D03*
X023358Y042516D03*
X023358Y039516D03*
X020358Y040516D03*
X023358Y027716D03*
X023358Y024716D03*
X020358Y025716D03*
X020811Y016340D03*
X020811Y015340D03*
X020811Y014340D03*
X021811Y014340D03*
X021811Y015340D03*
X021951Y011590D03*
X022951Y011590D03*
X022951Y010590D03*
X021951Y010590D03*
X021951Y009590D03*
X022951Y009590D03*
X022951Y008590D03*
X021951Y008590D03*
X021951Y007590D03*
X022951Y007590D03*
X022951Y006590D03*
X021951Y006590D03*
X021951Y005590D03*
X022951Y005590D03*
X022951Y004590D03*
X021951Y004590D03*
X021951Y003590D03*
X022951Y003590D03*
X022951Y002590D03*
X021951Y002590D03*
X020951Y002590D03*
X019951Y002590D03*
X018951Y002590D03*
X017951Y002590D03*
X016951Y002590D03*
X015951Y002590D03*
X014951Y002590D03*
X013951Y002590D03*
X012951Y002590D03*
X011951Y002590D03*
X011951Y003590D03*
X011951Y004590D03*
X011951Y005590D03*
X011951Y006590D03*
X011951Y007590D03*
X011951Y008590D03*
X011951Y009590D03*
X011951Y010590D03*
X011951Y011590D03*
X012951Y011590D03*
X012951Y010590D03*
X012951Y009590D03*
X012951Y008590D03*
X012951Y007590D03*
X012951Y006590D03*
X012951Y005590D03*
X012951Y004590D03*
X012951Y003590D03*
X013951Y003590D03*
X013951Y004590D03*
X013951Y005590D03*
X013951Y006590D03*
X013951Y007590D03*
X013951Y008590D03*
X013951Y009590D03*
X013951Y010590D03*
X013951Y011590D03*
X014951Y011590D03*
X014951Y010590D03*
X014951Y009590D03*
X014951Y008590D03*
X014951Y007590D03*
X014951Y006590D03*
X014951Y005590D03*
X014951Y004590D03*
X014951Y003590D03*
X015951Y003590D03*
X015951Y004590D03*
X015951Y005590D03*
X015951Y006590D03*
X015951Y007590D03*
X015951Y008590D03*
X015951Y009590D03*
X015951Y010590D03*
X015951Y011590D03*
X016951Y011590D03*
X016951Y010590D03*
X016951Y009590D03*
X016951Y008590D03*
X016951Y007590D03*
X016951Y006590D03*
X016951Y005590D03*
X016951Y004590D03*
X016951Y003590D03*
X017951Y003590D03*
X017951Y004590D03*
X017951Y005590D03*
X017951Y006590D03*
X017951Y007590D03*
X017951Y008590D03*
X017951Y009590D03*
X017951Y010590D03*
X017951Y011590D03*
X018951Y011590D03*
X018951Y010590D03*
X018951Y009590D03*
X018951Y008590D03*
X018951Y007590D03*
X018951Y006590D03*
X018951Y005590D03*
X018951Y004590D03*
X018951Y003590D03*
X019951Y003590D03*
X019951Y004590D03*
X019951Y005590D03*
X019951Y006590D03*
X019951Y007590D03*
X019951Y008590D03*
X019951Y009590D03*
X019951Y010590D03*
X019951Y011590D03*
X020951Y011590D03*
X020951Y010590D03*
X020951Y009590D03*
X020951Y008590D03*
X020951Y007590D03*
X020951Y006590D03*
X020951Y005590D03*
X020951Y004590D03*
X020951Y003590D03*
D16*
X020951Y003340D02*
X020951Y002840D01*
X020951Y003840D02*
X020951Y004340D01*
X020951Y004840D02*
X020951Y005340D01*
X020951Y005840D02*
X020951Y006340D01*
X020951Y006840D02*
X020951Y007340D01*
X020951Y007840D02*
X020951Y008340D01*
X020951Y008840D02*
X020951Y009340D01*
X020951Y009840D02*
X020951Y010340D01*
X020951Y010840D02*
X020951Y011340D01*
X020951Y011840D02*
X020951Y012340D01*
X019951Y012340D02*
X019951Y011840D01*
X019951Y011340D02*
X019951Y010840D01*
X019951Y010340D02*
X019951Y009840D01*
X019951Y009340D02*
X019951Y008840D01*
X019951Y008340D02*
X019951Y007840D01*
X019951Y007340D02*
X019951Y006840D01*
X019951Y006340D02*
X019951Y005840D01*
X019951Y005340D02*
X019951Y004840D01*
X019951Y004340D02*
X019951Y003840D01*
X019951Y003340D02*
X019951Y002840D01*
X018951Y002840D02*
X018951Y003340D01*
X018951Y003840D02*
X018951Y004340D01*
X018951Y004840D02*
X018951Y005340D01*
X018951Y005840D02*
X018951Y006340D01*
X018951Y006840D02*
X018951Y007340D01*
X018951Y007840D02*
X018951Y008340D01*
X018951Y008840D02*
X018951Y009340D01*
X018951Y009840D02*
X018951Y010340D01*
X018951Y010840D02*
X018951Y011340D01*
X018951Y011840D02*
X018951Y012340D01*
X017951Y012340D02*
X017951Y011840D01*
X017951Y011340D02*
X017951Y010840D01*
X017951Y010340D02*
X017951Y009840D01*
X017951Y009340D02*
X017951Y008840D01*
X017951Y008340D02*
X017951Y007840D01*
X017951Y007340D02*
X017951Y006840D01*
X017951Y006340D02*
X017951Y005840D01*
X017951Y005340D02*
X017951Y004840D01*
X017951Y004340D02*
X017951Y003840D01*
X017951Y003340D02*
X017951Y002840D01*
X016951Y002840D02*
X016951Y003340D01*
X016951Y003840D02*
X016951Y004340D01*
X016951Y004840D02*
X016951Y005340D01*
X016951Y005840D02*
X016951Y006340D01*
X016951Y006840D02*
X016951Y007340D01*
X016951Y007840D02*
X016951Y008340D01*
X016951Y008840D02*
X016951Y009340D01*
X016951Y009840D02*
X016951Y010340D01*
X016951Y010840D02*
X016951Y011340D01*
X016951Y011840D02*
X016951Y012340D01*
X015951Y012340D02*
X015951Y011840D01*
X015951Y011340D02*
X015951Y010840D01*
X015951Y010340D02*
X015951Y009840D01*
X015951Y009340D02*
X015951Y008840D01*
X015951Y008340D02*
X015951Y007840D01*
X015951Y007340D02*
X015951Y006840D01*
X015951Y006340D02*
X015951Y005840D01*
X015951Y005340D02*
X015951Y004840D01*
X015951Y004340D02*
X015951Y003840D01*
X015951Y003340D02*
X015951Y002840D01*
X014951Y002840D02*
X014951Y003340D01*
X014951Y003840D02*
X014951Y004340D01*
X014951Y004840D02*
X014951Y005340D01*
X014951Y005840D02*
X014951Y006340D01*
X014951Y006840D02*
X014951Y007340D01*
X014951Y007840D02*
X014951Y008340D01*
X014951Y008840D02*
X014951Y009340D01*
X014951Y009840D02*
X014951Y010340D01*
X014951Y010840D02*
X014951Y011340D01*
X014951Y011840D02*
X014951Y012340D01*
X013951Y012340D02*
X013951Y011840D01*
X013951Y011340D02*
X013951Y010840D01*
X013951Y010340D02*
X013951Y009840D01*
X013951Y009340D02*
X013951Y008840D01*
X013951Y008340D02*
X013951Y007840D01*
X013951Y007340D02*
X013951Y006840D01*
X013951Y006340D02*
X013951Y005840D01*
X013951Y005340D02*
X013951Y004840D01*
X013951Y004340D02*
X013951Y003840D01*
X013951Y003340D02*
X013951Y002840D01*
X012951Y002840D02*
X012951Y003340D01*
X012951Y003840D02*
X012951Y004340D01*
X012951Y004840D02*
X012951Y005340D01*
X012951Y005840D02*
X012951Y006340D01*
X012951Y006840D02*
X012951Y007340D01*
X012951Y007840D02*
X012951Y008340D01*
X012951Y008840D02*
X012951Y009340D01*
X012951Y009840D02*
X012951Y010340D01*
X012951Y010840D02*
X012951Y011340D01*
X012951Y011840D02*
X012951Y012340D01*
X011951Y012340D02*
X011951Y011840D01*
X011951Y011340D02*
X011951Y010840D01*
X011951Y010340D02*
X011951Y009840D01*
X011951Y009340D02*
X011951Y008840D01*
X011951Y008340D02*
X011951Y007840D01*
X011951Y007340D02*
X011951Y006840D01*
X011951Y006340D02*
X011951Y005840D01*
X011951Y005340D02*
X011951Y004840D01*
X011951Y004340D02*
X011951Y003840D01*
X011951Y003340D02*
X011951Y002840D01*
X021951Y002840D02*
X021951Y003340D01*
X021951Y003840D02*
X021951Y004340D01*
X021951Y004840D02*
X021951Y005340D01*
X021951Y005840D02*
X021951Y006340D01*
X021951Y006840D02*
X021951Y007340D01*
X021951Y007840D02*
X021951Y008340D01*
X021951Y008840D02*
X021951Y009340D01*
X021951Y009840D02*
X021951Y010340D01*
X021951Y010840D02*
X021951Y011340D01*
X021951Y011840D02*
X021951Y012340D01*
X022951Y012340D02*
X022951Y011840D01*
X022951Y011340D02*
X022951Y010840D01*
X022951Y010340D02*
X022951Y009840D01*
X022951Y009340D02*
X022951Y008840D01*
X022951Y008340D02*
X022951Y007840D01*
X022951Y007340D02*
X022951Y006840D01*
X022951Y006340D02*
X022951Y005840D01*
X022951Y005340D02*
X022951Y004840D01*
X022951Y004340D02*
X022951Y003840D01*
X022951Y003340D02*
X022951Y002840D01*
X037960Y042212D02*
X037960Y042712D01*
X038960Y042712D02*
X038960Y042212D01*
X039960Y042212D02*
X039960Y042712D01*
X040960Y042712D02*
X040960Y042212D01*
X041960Y042212D02*
X041960Y042712D01*
X042960Y042712D02*
X042960Y042212D01*
X043960Y042212D02*
X043960Y042712D01*
X044960Y042712D02*
X044960Y042212D01*
X045960Y042212D02*
X045960Y042712D01*
X046960Y042712D02*
X046960Y042212D01*
X047960Y042212D02*
X047960Y042712D01*
X048960Y042712D02*
X048960Y042212D01*
X048958Y054662D02*
X048958Y055162D01*
X047958Y055162D02*
X047958Y054662D01*
X046958Y054662D02*
X046958Y055162D01*
X045958Y055162D02*
X045958Y054662D01*
X044958Y054662D02*
X044958Y055162D01*
X043958Y055162D02*
X043958Y054662D01*
X042958Y054662D02*
X042958Y055162D01*
X041958Y055162D02*
X041958Y054662D01*
X040958Y054662D02*
X040958Y055162D01*
X039958Y055162D02*
X039958Y054662D01*
X038958Y054662D02*
X038958Y055162D01*
X037958Y055162D02*
X037958Y054662D01*
X035810Y054662D02*
X035810Y055162D01*
X034810Y055162D02*
X034810Y054662D01*
X033810Y054662D02*
X033810Y055162D01*
X032810Y055162D02*
X032810Y054662D01*
X031810Y054662D02*
X031810Y055162D01*
X030810Y055162D02*
X030810Y054662D01*
X029810Y054662D02*
X029810Y055162D01*
X028810Y055162D02*
X028810Y054662D01*
X027810Y054662D02*
X027810Y055162D01*
X026810Y055162D02*
X026810Y054662D01*
X025810Y054662D02*
X025810Y055162D01*
X024810Y055162D02*
X024810Y054662D01*
X022660Y054662D02*
X022660Y055162D01*
X021660Y055162D02*
X021660Y054662D01*
X020660Y054662D02*
X020660Y055162D01*
X019660Y055162D02*
X019660Y054662D01*
X018660Y054662D02*
X018660Y055162D01*
X017660Y055162D02*
X017660Y054662D01*
X016660Y054662D02*
X016660Y055162D01*
X015660Y055162D02*
X015660Y054662D01*
X014660Y054662D02*
X014660Y055162D01*
X013660Y055162D02*
X013660Y054662D01*
X012660Y054662D02*
X012660Y055162D01*
X011660Y055162D02*
X011660Y054662D01*
D17*
X020660Y056412D03*
X033810Y056412D03*
X046958Y056412D03*
X046960Y043962D03*
X039958Y018768D03*
X021811Y016340D03*
D18*
X030508Y016651D03*
X031508Y016651D03*
X032758Y016651D03*
X033758Y016651D03*
X033758Y014351D03*
X032758Y014351D03*
X031508Y014351D03*
X030508Y014351D03*
X030508Y004801D03*
X031508Y004801D03*
X032758Y004801D03*
X033758Y004801D03*
X033758Y002501D03*
X032758Y002501D03*
X031508Y002501D03*
X030508Y002501D03*
X038410Y002518D03*
X038410Y003518D03*
X039410Y003518D03*
X039410Y002518D03*
X040410Y002518D03*
X040410Y003518D03*
X041410Y002518D03*
X041410Y010118D03*
X040410Y010118D03*
X039410Y010118D03*
X038410Y010118D03*
X038410Y011118D03*
X039410Y011118D03*
X040410Y011118D03*
X038208Y017768D03*
X038208Y018768D03*
X038208Y022768D03*
X038208Y023768D03*
X044208Y023768D03*
X044208Y022768D03*
X044208Y018768D03*
X044208Y017768D03*
D19*
X034375Y030892D03*
X034375Y031640D03*
X035241Y031266D03*
X034375Y045692D03*
X034375Y046440D03*
X035241Y046066D03*
X047525Y033140D03*
X047525Y032392D03*
X048391Y032766D03*
X022091Y031266D03*
X021225Y030892D03*
X021225Y031640D03*
X021225Y045692D03*
X021225Y046440D03*
X022091Y046066D03*
D20*
X024708Y040316D03*
X025708Y040316D03*
X026708Y040316D03*
X028008Y040316D03*
X029008Y040316D03*
X030308Y040316D03*
X031308Y040316D03*
X032308Y040316D03*
X037858Y027016D03*
X038858Y027016D03*
X039858Y027016D03*
X041158Y027016D03*
X042158Y027016D03*
X043458Y027016D03*
X044458Y027016D03*
X045458Y027016D03*
X032308Y025516D03*
X031308Y025516D03*
X030308Y025516D03*
X029008Y025516D03*
X028008Y025516D03*
X026708Y025516D03*
X025708Y025516D03*
X024708Y025516D03*
X019158Y025516D03*
X018158Y025516D03*
X017158Y025516D03*
X015858Y025516D03*
X014858Y025516D03*
X013558Y025516D03*
X012558Y025516D03*
X011558Y025516D03*
X011558Y040316D03*
X012558Y040316D03*
X013558Y040316D03*
X014858Y040316D03*
X015858Y040316D03*
X017158Y040316D03*
X018158Y040316D03*
X019158Y040316D03*
D21*
X018941Y039316D02*
X018943Y039346D01*
X018949Y039375D01*
X018959Y039402D01*
X018973Y039429D01*
X018990Y039453D01*
X019010Y039475D01*
X019033Y039493D01*
X019058Y039509D01*
X019085Y039520D01*
X019114Y039528D01*
X019143Y039532D01*
X019173Y039532D01*
X019202Y039528D01*
X019231Y039520D01*
X019258Y039509D01*
X019283Y039493D01*
X019306Y039475D01*
X019326Y039453D01*
X019343Y039429D01*
X019357Y039402D01*
X019367Y039375D01*
X019373Y039346D01*
X019375Y039316D01*
X019373Y039286D01*
X019367Y039257D01*
X019357Y039230D01*
X019343Y039203D01*
X019326Y039179D01*
X019306Y039157D01*
X019283Y039139D01*
X019258Y039123D01*
X019231Y039112D01*
X019202Y039104D01*
X019173Y039100D01*
X019143Y039100D01*
X019114Y039104D01*
X019085Y039112D01*
X019058Y039123D01*
X019033Y039139D01*
X019010Y039157D01*
X018990Y039179D01*
X018973Y039203D01*
X018959Y039230D01*
X018949Y039257D01*
X018943Y039286D01*
X018941Y039316D01*
X017941Y039316D02*
X017943Y039346D01*
X017949Y039375D01*
X017959Y039402D01*
X017973Y039429D01*
X017990Y039453D01*
X018010Y039475D01*
X018033Y039493D01*
X018058Y039509D01*
X018085Y039520D01*
X018114Y039528D01*
X018143Y039532D01*
X018173Y039532D01*
X018202Y039528D01*
X018231Y039520D01*
X018258Y039509D01*
X018283Y039493D01*
X018306Y039475D01*
X018326Y039453D01*
X018343Y039429D01*
X018357Y039402D01*
X018367Y039375D01*
X018373Y039346D01*
X018375Y039316D01*
X018373Y039286D01*
X018367Y039257D01*
X018357Y039230D01*
X018343Y039203D01*
X018326Y039179D01*
X018306Y039157D01*
X018283Y039139D01*
X018258Y039123D01*
X018231Y039112D01*
X018202Y039104D01*
X018173Y039100D01*
X018143Y039100D01*
X018114Y039104D01*
X018085Y039112D01*
X018058Y039123D01*
X018033Y039139D01*
X018010Y039157D01*
X017990Y039179D01*
X017973Y039203D01*
X017959Y039230D01*
X017949Y039257D01*
X017943Y039286D01*
X017941Y039316D01*
X016941Y039316D02*
X016943Y039346D01*
X016949Y039375D01*
X016959Y039402D01*
X016973Y039429D01*
X016990Y039453D01*
X017010Y039475D01*
X017033Y039493D01*
X017058Y039509D01*
X017085Y039520D01*
X017114Y039528D01*
X017143Y039532D01*
X017173Y039532D01*
X017202Y039528D01*
X017231Y039520D01*
X017258Y039509D01*
X017283Y039493D01*
X017306Y039475D01*
X017326Y039453D01*
X017343Y039429D01*
X017357Y039402D01*
X017367Y039375D01*
X017373Y039346D01*
X017375Y039316D01*
X017373Y039286D01*
X017367Y039257D01*
X017357Y039230D01*
X017343Y039203D01*
X017326Y039179D01*
X017306Y039157D01*
X017283Y039139D01*
X017258Y039123D01*
X017231Y039112D01*
X017202Y039104D01*
X017173Y039100D01*
X017143Y039100D01*
X017114Y039104D01*
X017085Y039112D01*
X017058Y039123D01*
X017033Y039139D01*
X017010Y039157D01*
X016990Y039179D01*
X016973Y039203D01*
X016959Y039230D01*
X016949Y039257D01*
X016943Y039286D01*
X016941Y039316D01*
X015641Y039316D02*
X015643Y039346D01*
X015649Y039375D01*
X015659Y039402D01*
X015673Y039429D01*
X015690Y039453D01*
X015710Y039475D01*
X015733Y039493D01*
X015758Y039509D01*
X015785Y039520D01*
X015814Y039528D01*
X015843Y039532D01*
X015873Y039532D01*
X015902Y039528D01*
X015931Y039520D01*
X015958Y039509D01*
X015983Y039493D01*
X016006Y039475D01*
X016026Y039453D01*
X016043Y039429D01*
X016057Y039402D01*
X016067Y039375D01*
X016073Y039346D01*
X016075Y039316D01*
X016073Y039286D01*
X016067Y039257D01*
X016057Y039230D01*
X016043Y039203D01*
X016026Y039179D01*
X016006Y039157D01*
X015983Y039139D01*
X015958Y039123D01*
X015931Y039112D01*
X015902Y039104D01*
X015873Y039100D01*
X015843Y039100D01*
X015814Y039104D01*
X015785Y039112D01*
X015758Y039123D01*
X015733Y039139D01*
X015710Y039157D01*
X015690Y039179D01*
X015673Y039203D01*
X015659Y039230D01*
X015649Y039257D01*
X015643Y039286D01*
X015641Y039316D01*
X014641Y039316D02*
X014643Y039346D01*
X014649Y039375D01*
X014659Y039402D01*
X014673Y039429D01*
X014690Y039453D01*
X014710Y039475D01*
X014733Y039493D01*
X014758Y039509D01*
X014785Y039520D01*
X014814Y039528D01*
X014843Y039532D01*
X014873Y039532D01*
X014902Y039528D01*
X014931Y039520D01*
X014958Y039509D01*
X014983Y039493D01*
X015006Y039475D01*
X015026Y039453D01*
X015043Y039429D01*
X015057Y039402D01*
X015067Y039375D01*
X015073Y039346D01*
X015075Y039316D01*
X015073Y039286D01*
X015067Y039257D01*
X015057Y039230D01*
X015043Y039203D01*
X015026Y039179D01*
X015006Y039157D01*
X014983Y039139D01*
X014958Y039123D01*
X014931Y039112D01*
X014902Y039104D01*
X014873Y039100D01*
X014843Y039100D01*
X014814Y039104D01*
X014785Y039112D01*
X014758Y039123D01*
X014733Y039139D01*
X014710Y039157D01*
X014690Y039179D01*
X014673Y039203D01*
X014659Y039230D01*
X014649Y039257D01*
X014643Y039286D01*
X014641Y039316D01*
X013341Y039316D02*
X013343Y039346D01*
X013349Y039375D01*
X013359Y039402D01*
X013373Y039429D01*
X013390Y039453D01*
X013410Y039475D01*
X013433Y039493D01*
X013458Y039509D01*
X013485Y039520D01*
X013514Y039528D01*
X013543Y039532D01*
X013573Y039532D01*
X013602Y039528D01*
X013631Y039520D01*
X013658Y039509D01*
X013683Y039493D01*
X013706Y039475D01*
X013726Y039453D01*
X013743Y039429D01*
X013757Y039402D01*
X013767Y039375D01*
X013773Y039346D01*
X013775Y039316D01*
X013773Y039286D01*
X013767Y039257D01*
X013757Y039230D01*
X013743Y039203D01*
X013726Y039179D01*
X013706Y039157D01*
X013683Y039139D01*
X013658Y039123D01*
X013631Y039112D01*
X013602Y039104D01*
X013573Y039100D01*
X013543Y039100D01*
X013514Y039104D01*
X013485Y039112D01*
X013458Y039123D01*
X013433Y039139D01*
X013410Y039157D01*
X013390Y039179D01*
X013373Y039203D01*
X013359Y039230D01*
X013349Y039257D01*
X013343Y039286D01*
X013341Y039316D01*
X012341Y039316D02*
X012343Y039346D01*
X012349Y039375D01*
X012359Y039402D01*
X012373Y039429D01*
X012390Y039453D01*
X012410Y039475D01*
X012433Y039493D01*
X012458Y039509D01*
X012485Y039520D01*
X012514Y039528D01*
X012543Y039532D01*
X012573Y039532D01*
X012602Y039528D01*
X012631Y039520D01*
X012658Y039509D01*
X012683Y039493D01*
X012706Y039475D01*
X012726Y039453D01*
X012743Y039429D01*
X012757Y039402D01*
X012767Y039375D01*
X012773Y039346D01*
X012775Y039316D01*
X012773Y039286D01*
X012767Y039257D01*
X012757Y039230D01*
X012743Y039203D01*
X012726Y039179D01*
X012706Y039157D01*
X012683Y039139D01*
X012658Y039123D01*
X012631Y039112D01*
X012602Y039104D01*
X012573Y039100D01*
X012543Y039100D01*
X012514Y039104D01*
X012485Y039112D01*
X012458Y039123D01*
X012433Y039139D01*
X012410Y039157D01*
X012390Y039179D01*
X012373Y039203D01*
X012359Y039230D01*
X012349Y039257D01*
X012343Y039286D01*
X012341Y039316D01*
X011341Y039316D02*
X011343Y039346D01*
X011349Y039375D01*
X011359Y039402D01*
X011373Y039429D01*
X011390Y039453D01*
X011410Y039475D01*
X011433Y039493D01*
X011458Y039509D01*
X011485Y039520D01*
X011514Y039528D01*
X011543Y039532D01*
X011573Y039532D01*
X011602Y039528D01*
X011631Y039520D01*
X011658Y039509D01*
X011683Y039493D01*
X011706Y039475D01*
X011726Y039453D01*
X011743Y039429D01*
X011757Y039402D01*
X011767Y039375D01*
X011773Y039346D01*
X011775Y039316D01*
X011773Y039286D01*
X011767Y039257D01*
X011757Y039230D01*
X011743Y039203D01*
X011726Y039179D01*
X011706Y039157D01*
X011683Y039139D01*
X011658Y039123D01*
X011631Y039112D01*
X011602Y039104D01*
X011573Y039100D01*
X011543Y039100D01*
X011514Y039104D01*
X011485Y039112D01*
X011458Y039123D01*
X011433Y039139D01*
X011410Y039157D01*
X011390Y039179D01*
X011373Y039203D01*
X011359Y039230D01*
X011349Y039257D01*
X011343Y039286D01*
X011341Y039316D01*
X011341Y024516D02*
X011343Y024546D01*
X011349Y024575D01*
X011359Y024602D01*
X011373Y024629D01*
X011390Y024653D01*
X011410Y024675D01*
X011433Y024693D01*
X011458Y024709D01*
X011485Y024720D01*
X011514Y024728D01*
X011543Y024732D01*
X011573Y024732D01*
X011602Y024728D01*
X011631Y024720D01*
X011658Y024709D01*
X011683Y024693D01*
X011706Y024675D01*
X011726Y024653D01*
X011743Y024629D01*
X011757Y024602D01*
X011767Y024575D01*
X011773Y024546D01*
X011775Y024516D01*
X011773Y024486D01*
X011767Y024457D01*
X011757Y024430D01*
X011743Y024403D01*
X011726Y024379D01*
X011706Y024357D01*
X011683Y024339D01*
X011658Y024323D01*
X011631Y024312D01*
X011602Y024304D01*
X011573Y024300D01*
X011543Y024300D01*
X011514Y024304D01*
X011485Y024312D01*
X011458Y024323D01*
X011433Y024339D01*
X011410Y024357D01*
X011390Y024379D01*
X011373Y024403D01*
X011359Y024430D01*
X011349Y024457D01*
X011343Y024486D01*
X011341Y024516D01*
X012341Y024516D02*
X012343Y024546D01*
X012349Y024575D01*
X012359Y024602D01*
X012373Y024629D01*
X012390Y024653D01*
X012410Y024675D01*
X012433Y024693D01*
X012458Y024709D01*
X012485Y024720D01*
X012514Y024728D01*
X012543Y024732D01*
X012573Y024732D01*
X012602Y024728D01*
X012631Y024720D01*
X012658Y024709D01*
X012683Y024693D01*
X012706Y024675D01*
X012726Y024653D01*
X012743Y024629D01*
X012757Y024602D01*
X012767Y024575D01*
X012773Y024546D01*
X012775Y024516D01*
X012773Y024486D01*
X012767Y024457D01*
X012757Y024430D01*
X012743Y024403D01*
X012726Y024379D01*
X012706Y024357D01*
X012683Y024339D01*
X012658Y024323D01*
X012631Y024312D01*
X012602Y024304D01*
X012573Y024300D01*
X012543Y024300D01*
X012514Y024304D01*
X012485Y024312D01*
X012458Y024323D01*
X012433Y024339D01*
X012410Y024357D01*
X012390Y024379D01*
X012373Y024403D01*
X012359Y024430D01*
X012349Y024457D01*
X012343Y024486D01*
X012341Y024516D01*
X013341Y024516D02*
X013343Y024546D01*
X013349Y024575D01*
X013359Y024602D01*
X013373Y024629D01*
X013390Y024653D01*
X013410Y024675D01*
X013433Y024693D01*
X013458Y024709D01*
X013485Y024720D01*
X013514Y024728D01*
X013543Y024732D01*
X013573Y024732D01*
X013602Y024728D01*
X013631Y024720D01*
X013658Y024709D01*
X013683Y024693D01*
X013706Y024675D01*
X013726Y024653D01*
X013743Y024629D01*
X013757Y024602D01*
X013767Y024575D01*
X013773Y024546D01*
X013775Y024516D01*
X013773Y024486D01*
X013767Y024457D01*
X013757Y024430D01*
X013743Y024403D01*
X013726Y024379D01*
X013706Y024357D01*
X013683Y024339D01*
X013658Y024323D01*
X013631Y024312D01*
X013602Y024304D01*
X013573Y024300D01*
X013543Y024300D01*
X013514Y024304D01*
X013485Y024312D01*
X013458Y024323D01*
X013433Y024339D01*
X013410Y024357D01*
X013390Y024379D01*
X013373Y024403D01*
X013359Y024430D01*
X013349Y024457D01*
X013343Y024486D01*
X013341Y024516D01*
X014641Y024516D02*
X014643Y024546D01*
X014649Y024575D01*
X014659Y024602D01*
X014673Y024629D01*
X014690Y024653D01*
X014710Y024675D01*
X014733Y024693D01*
X014758Y024709D01*
X014785Y024720D01*
X014814Y024728D01*
X014843Y024732D01*
X014873Y024732D01*
X014902Y024728D01*
X014931Y024720D01*
X014958Y024709D01*
X014983Y024693D01*
X015006Y024675D01*
X015026Y024653D01*
X015043Y024629D01*
X015057Y024602D01*
X015067Y024575D01*
X015073Y024546D01*
X015075Y024516D01*
X015073Y024486D01*
X015067Y024457D01*
X015057Y024430D01*
X015043Y024403D01*
X015026Y024379D01*
X015006Y024357D01*
X014983Y024339D01*
X014958Y024323D01*
X014931Y024312D01*
X014902Y024304D01*
X014873Y024300D01*
X014843Y024300D01*
X014814Y024304D01*
X014785Y024312D01*
X014758Y024323D01*
X014733Y024339D01*
X014710Y024357D01*
X014690Y024379D01*
X014673Y024403D01*
X014659Y024430D01*
X014649Y024457D01*
X014643Y024486D01*
X014641Y024516D01*
X015641Y024516D02*
X015643Y024546D01*
X015649Y024575D01*
X015659Y024602D01*
X015673Y024629D01*
X015690Y024653D01*
X015710Y024675D01*
X015733Y024693D01*
X015758Y024709D01*
X015785Y024720D01*
X015814Y024728D01*
X015843Y024732D01*
X015873Y024732D01*
X015902Y024728D01*
X015931Y024720D01*
X015958Y024709D01*
X015983Y024693D01*
X016006Y024675D01*
X016026Y024653D01*
X016043Y024629D01*
X016057Y024602D01*
X016067Y024575D01*
X016073Y024546D01*
X016075Y024516D01*
X016073Y024486D01*
X016067Y024457D01*
X016057Y024430D01*
X016043Y024403D01*
X016026Y024379D01*
X016006Y024357D01*
X015983Y024339D01*
X015958Y024323D01*
X015931Y024312D01*
X015902Y024304D01*
X015873Y024300D01*
X015843Y024300D01*
X015814Y024304D01*
X015785Y024312D01*
X015758Y024323D01*
X015733Y024339D01*
X015710Y024357D01*
X015690Y024379D01*
X015673Y024403D01*
X015659Y024430D01*
X015649Y024457D01*
X015643Y024486D01*
X015641Y024516D01*
X016941Y024516D02*
X016943Y024546D01*
X016949Y024575D01*
X016959Y024602D01*
X016973Y024629D01*
X016990Y024653D01*
X017010Y024675D01*
X017033Y024693D01*
X017058Y024709D01*
X017085Y024720D01*
X017114Y024728D01*
X017143Y024732D01*
X017173Y024732D01*
X017202Y024728D01*
X017231Y024720D01*
X017258Y024709D01*
X017283Y024693D01*
X017306Y024675D01*
X017326Y024653D01*
X017343Y024629D01*
X017357Y024602D01*
X017367Y024575D01*
X017373Y024546D01*
X017375Y024516D01*
X017373Y024486D01*
X017367Y024457D01*
X017357Y024430D01*
X017343Y024403D01*
X017326Y024379D01*
X017306Y024357D01*
X017283Y024339D01*
X017258Y024323D01*
X017231Y024312D01*
X017202Y024304D01*
X017173Y024300D01*
X017143Y024300D01*
X017114Y024304D01*
X017085Y024312D01*
X017058Y024323D01*
X017033Y024339D01*
X017010Y024357D01*
X016990Y024379D01*
X016973Y024403D01*
X016959Y024430D01*
X016949Y024457D01*
X016943Y024486D01*
X016941Y024516D01*
X017941Y024516D02*
X017943Y024546D01*
X017949Y024575D01*
X017959Y024602D01*
X017973Y024629D01*
X017990Y024653D01*
X018010Y024675D01*
X018033Y024693D01*
X018058Y024709D01*
X018085Y024720D01*
X018114Y024728D01*
X018143Y024732D01*
X018173Y024732D01*
X018202Y024728D01*
X018231Y024720D01*
X018258Y024709D01*
X018283Y024693D01*
X018306Y024675D01*
X018326Y024653D01*
X018343Y024629D01*
X018357Y024602D01*
X018367Y024575D01*
X018373Y024546D01*
X018375Y024516D01*
X018373Y024486D01*
X018367Y024457D01*
X018357Y024430D01*
X018343Y024403D01*
X018326Y024379D01*
X018306Y024357D01*
X018283Y024339D01*
X018258Y024323D01*
X018231Y024312D01*
X018202Y024304D01*
X018173Y024300D01*
X018143Y024300D01*
X018114Y024304D01*
X018085Y024312D01*
X018058Y024323D01*
X018033Y024339D01*
X018010Y024357D01*
X017990Y024379D01*
X017973Y024403D01*
X017959Y024430D01*
X017949Y024457D01*
X017943Y024486D01*
X017941Y024516D01*
X018941Y024516D02*
X018943Y024546D01*
X018949Y024575D01*
X018959Y024602D01*
X018973Y024629D01*
X018990Y024653D01*
X019010Y024675D01*
X019033Y024693D01*
X019058Y024709D01*
X019085Y024720D01*
X019114Y024728D01*
X019143Y024732D01*
X019173Y024732D01*
X019202Y024728D01*
X019231Y024720D01*
X019258Y024709D01*
X019283Y024693D01*
X019306Y024675D01*
X019326Y024653D01*
X019343Y024629D01*
X019357Y024602D01*
X019367Y024575D01*
X019373Y024546D01*
X019375Y024516D01*
X019373Y024486D01*
X019367Y024457D01*
X019357Y024430D01*
X019343Y024403D01*
X019326Y024379D01*
X019306Y024357D01*
X019283Y024339D01*
X019258Y024323D01*
X019231Y024312D01*
X019202Y024304D01*
X019173Y024300D01*
X019143Y024300D01*
X019114Y024304D01*
X019085Y024312D01*
X019058Y024323D01*
X019033Y024339D01*
X019010Y024357D01*
X018990Y024379D01*
X018973Y024403D01*
X018959Y024430D01*
X018949Y024457D01*
X018943Y024486D01*
X018941Y024516D01*
X024491Y024516D02*
X024493Y024546D01*
X024499Y024575D01*
X024509Y024602D01*
X024523Y024629D01*
X024540Y024653D01*
X024560Y024675D01*
X024583Y024693D01*
X024608Y024709D01*
X024635Y024720D01*
X024664Y024728D01*
X024693Y024732D01*
X024723Y024732D01*
X024752Y024728D01*
X024781Y024720D01*
X024808Y024709D01*
X024833Y024693D01*
X024856Y024675D01*
X024876Y024653D01*
X024893Y024629D01*
X024907Y024602D01*
X024917Y024575D01*
X024923Y024546D01*
X024925Y024516D01*
X024923Y024486D01*
X024917Y024457D01*
X024907Y024430D01*
X024893Y024403D01*
X024876Y024379D01*
X024856Y024357D01*
X024833Y024339D01*
X024808Y024323D01*
X024781Y024312D01*
X024752Y024304D01*
X024723Y024300D01*
X024693Y024300D01*
X024664Y024304D01*
X024635Y024312D01*
X024608Y024323D01*
X024583Y024339D01*
X024560Y024357D01*
X024540Y024379D01*
X024523Y024403D01*
X024509Y024430D01*
X024499Y024457D01*
X024493Y024486D01*
X024491Y024516D01*
X025491Y024516D02*
X025493Y024546D01*
X025499Y024575D01*
X025509Y024602D01*
X025523Y024629D01*
X025540Y024653D01*
X025560Y024675D01*
X025583Y024693D01*
X025608Y024709D01*
X025635Y024720D01*
X025664Y024728D01*
X025693Y024732D01*
X025723Y024732D01*
X025752Y024728D01*
X025781Y024720D01*
X025808Y024709D01*
X025833Y024693D01*
X025856Y024675D01*
X025876Y024653D01*
X025893Y024629D01*
X025907Y024602D01*
X025917Y024575D01*
X025923Y024546D01*
X025925Y024516D01*
X025923Y024486D01*
X025917Y024457D01*
X025907Y024430D01*
X025893Y024403D01*
X025876Y024379D01*
X025856Y024357D01*
X025833Y024339D01*
X025808Y024323D01*
X025781Y024312D01*
X025752Y024304D01*
X025723Y024300D01*
X025693Y024300D01*
X025664Y024304D01*
X025635Y024312D01*
X025608Y024323D01*
X025583Y024339D01*
X025560Y024357D01*
X025540Y024379D01*
X025523Y024403D01*
X025509Y024430D01*
X025499Y024457D01*
X025493Y024486D01*
X025491Y024516D01*
X026491Y024516D02*
X026493Y024546D01*
X026499Y024575D01*
X026509Y024602D01*
X026523Y024629D01*
X026540Y024653D01*
X026560Y024675D01*
X026583Y024693D01*
X026608Y024709D01*
X026635Y024720D01*
X026664Y024728D01*
X026693Y024732D01*
X026723Y024732D01*
X026752Y024728D01*
X026781Y024720D01*
X026808Y024709D01*
X026833Y024693D01*
X026856Y024675D01*
X026876Y024653D01*
X026893Y024629D01*
X026907Y024602D01*
X026917Y024575D01*
X026923Y024546D01*
X026925Y024516D01*
X026923Y024486D01*
X026917Y024457D01*
X026907Y024430D01*
X026893Y024403D01*
X026876Y024379D01*
X026856Y024357D01*
X026833Y024339D01*
X026808Y024323D01*
X026781Y024312D01*
X026752Y024304D01*
X026723Y024300D01*
X026693Y024300D01*
X026664Y024304D01*
X026635Y024312D01*
X026608Y024323D01*
X026583Y024339D01*
X026560Y024357D01*
X026540Y024379D01*
X026523Y024403D01*
X026509Y024430D01*
X026499Y024457D01*
X026493Y024486D01*
X026491Y024516D01*
X027791Y024516D02*
X027793Y024546D01*
X027799Y024575D01*
X027809Y024602D01*
X027823Y024629D01*
X027840Y024653D01*
X027860Y024675D01*
X027883Y024693D01*
X027908Y024709D01*
X027935Y024720D01*
X027964Y024728D01*
X027993Y024732D01*
X028023Y024732D01*
X028052Y024728D01*
X028081Y024720D01*
X028108Y024709D01*
X028133Y024693D01*
X028156Y024675D01*
X028176Y024653D01*
X028193Y024629D01*
X028207Y024602D01*
X028217Y024575D01*
X028223Y024546D01*
X028225Y024516D01*
X028223Y024486D01*
X028217Y024457D01*
X028207Y024430D01*
X028193Y024403D01*
X028176Y024379D01*
X028156Y024357D01*
X028133Y024339D01*
X028108Y024323D01*
X028081Y024312D01*
X028052Y024304D01*
X028023Y024300D01*
X027993Y024300D01*
X027964Y024304D01*
X027935Y024312D01*
X027908Y024323D01*
X027883Y024339D01*
X027860Y024357D01*
X027840Y024379D01*
X027823Y024403D01*
X027809Y024430D01*
X027799Y024457D01*
X027793Y024486D01*
X027791Y024516D01*
X028791Y024516D02*
X028793Y024546D01*
X028799Y024575D01*
X028809Y024602D01*
X028823Y024629D01*
X028840Y024653D01*
X028860Y024675D01*
X028883Y024693D01*
X028908Y024709D01*
X028935Y024720D01*
X028964Y024728D01*
X028993Y024732D01*
X029023Y024732D01*
X029052Y024728D01*
X029081Y024720D01*
X029108Y024709D01*
X029133Y024693D01*
X029156Y024675D01*
X029176Y024653D01*
X029193Y024629D01*
X029207Y024602D01*
X029217Y024575D01*
X029223Y024546D01*
X029225Y024516D01*
X029223Y024486D01*
X029217Y024457D01*
X029207Y024430D01*
X029193Y024403D01*
X029176Y024379D01*
X029156Y024357D01*
X029133Y024339D01*
X029108Y024323D01*
X029081Y024312D01*
X029052Y024304D01*
X029023Y024300D01*
X028993Y024300D01*
X028964Y024304D01*
X028935Y024312D01*
X028908Y024323D01*
X028883Y024339D01*
X028860Y024357D01*
X028840Y024379D01*
X028823Y024403D01*
X028809Y024430D01*
X028799Y024457D01*
X028793Y024486D01*
X028791Y024516D01*
X030091Y024516D02*
X030093Y024546D01*
X030099Y024575D01*
X030109Y024602D01*
X030123Y024629D01*
X030140Y024653D01*
X030160Y024675D01*
X030183Y024693D01*
X030208Y024709D01*
X030235Y024720D01*
X030264Y024728D01*
X030293Y024732D01*
X030323Y024732D01*
X030352Y024728D01*
X030381Y024720D01*
X030408Y024709D01*
X030433Y024693D01*
X030456Y024675D01*
X030476Y024653D01*
X030493Y024629D01*
X030507Y024602D01*
X030517Y024575D01*
X030523Y024546D01*
X030525Y024516D01*
X030523Y024486D01*
X030517Y024457D01*
X030507Y024430D01*
X030493Y024403D01*
X030476Y024379D01*
X030456Y024357D01*
X030433Y024339D01*
X030408Y024323D01*
X030381Y024312D01*
X030352Y024304D01*
X030323Y024300D01*
X030293Y024300D01*
X030264Y024304D01*
X030235Y024312D01*
X030208Y024323D01*
X030183Y024339D01*
X030160Y024357D01*
X030140Y024379D01*
X030123Y024403D01*
X030109Y024430D01*
X030099Y024457D01*
X030093Y024486D01*
X030091Y024516D01*
X031091Y024516D02*
X031093Y024546D01*
X031099Y024575D01*
X031109Y024602D01*
X031123Y024629D01*
X031140Y024653D01*
X031160Y024675D01*
X031183Y024693D01*
X031208Y024709D01*
X031235Y024720D01*
X031264Y024728D01*
X031293Y024732D01*
X031323Y024732D01*
X031352Y024728D01*
X031381Y024720D01*
X031408Y024709D01*
X031433Y024693D01*
X031456Y024675D01*
X031476Y024653D01*
X031493Y024629D01*
X031507Y024602D01*
X031517Y024575D01*
X031523Y024546D01*
X031525Y024516D01*
X031523Y024486D01*
X031517Y024457D01*
X031507Y024430D01*
X031493Y024403D01*
X031476Y024379D01*
X031456Y024357D01*
X031433Y024339D01*
X031408Y024323D01*
X031381Y024312D01*
X031352Y024304D01*
X031323Y024300D01*
X031293Y024300D01*
X031264Y024304D01*
X031235Y024312D01*
X031208Y024323D01*
X031183Y024339D01*
X031160Y024357D01*
X031140Y024379D01*
X031123Y024403D01*
X031109Y024430D01*
X031099Y024457D01*
X031093Y024486D01*
X031091Y024516D01*
X032091Y024516D02*
X032093Y024546D01*
X032099Y024575D01*
X032109Y024602D01*
X032123Y024629D01*
X032140Y024653D01*
X032160Y024675D01*
X032183Y024693D01*
X032208Y024709D01*
X032235Y024720D01*
X032264Y024728D01*
X032293Y024732D01*
X032323Y024732D01*
X032352Y024728D01*
X032381Y024720D01*
X032408Y024709D01*
X032433Y024693D01*
X032456Y024675D01*
X032476Y024653D01*
X032493Y024629D01*
X032507Y024602D01*
X032517Y024575D01*
X032523Y024546D01*
X032525Y024516D01*
X032523Y024486D01*
X032517Y024457D01*
X032507Y024430D01*
X032493Y024403D01*
X032476Y024379D01*
X032456Y024357D01*
X032433Y024339D01*
X032408Y024323D01*
X032381Y024312D01*
X032352Y024304D01*
X032323Y024300D01*
X032293Y024300D01*
X032264Y024304D01*
X032235Y024312D01*
X032208Y024323D01*
X032183Y024339D01*
X032160Y024357D01*
X032140Y024379D01*
X032123Y024403D01*
X032109Y024430D01*
X032099Y024457D01*
X032093Y024486D01*
X032091Y024516D01*
X037641Y026016D02*
X037643Y026046D01*
X037649Y026075D01*
X037659Y026102D01*
X037673Y026129D01*
X037690Y026153D01*
X037710Y026175D01*
X037733Y026193D01*
X037758Y026209D01*
X037785Y026220D01*
X037814Y026228D01*
X037843Y026232D01*
X037873Y026232D01*
X037902Y026228D01*
X037931Y026220D01*
X037958Y026209D01*
X037983Y026193D01*
X038006Y026175D01*
X038026Y026153D01*
X038043Y026129D01*
X038057Y026102D01*
X038067Y026075D01*
X038073Y026046D01*
X038075Y026016D01*
X038073Y025986D01*
X038067Y025957D01*
X038057Y025930D01*
X038043Y025903D01*
X038026Y025879D01*
X038006Y025857D01*
X037983Y025839D01*
X037958Y025823D01*
X037931Y025812D01*
X037902Y025804D01*
X037873Y025800D01*
X037843Y025800D01*
X037814Y025804D01*
X037785Y025812D01*
X037758Y025823D01*
X037733Y025839D01*
X037710Y025857D01*
X037690Y025879D01*
X037673Y025903D01*
X037659Y025930D01*
X037649Y025957D01*
X037643Y025986D01*
X037641Y026016D01*
X038641Y026016D02*
X038643Y026046D01*
X038649Y026075D01*
X038659Y026102D01*
X038673Y026129D01*
X038690Y026153D01*
X038710Y026175D01*
X038733Y026193D01*
X038758Y026209D01*
X038785Y026220D01*
X038814Y026228D01*
X038843Y026232D01*
X038873Y026232D01*
X038902Y026228D01*
X038931Y026220D01*
X038958Y026209D01*
X038983Y026193D01*
X039006Y026175D01*
X039026Y026153D01*
X039043Y026129D01*
X039057Y026102D01*
X039067Y026075D01*
X039073Y026046D01*
X039075Y026016D01*
X039073Y025986D01*
X039067Y025957D01*
X039057Y025930D01*
X039043Y025903D01*
X039026Y025879D01*
X039006Y025857D01*
X038983Y025839D01*
X038958Y025823D01*
X038931Y025812D01*
X038902Y025804D01*
X038873Y025800D01*
X038843Y025800D01*
X038814Y025804D01*
X038785Y025812D01*
X038758Y025823D01*
X038733Y025839D01*
X038710Y025857D01*
X038690Y025879D01*
X038673Y025903D01*
X038659Y025930D01*
X038649Y025957D01*
X038643Y025986D01*
X038641Y026016D01*
X039641Y026016D02*
X039643Y026046D01*
X039649Y026075D01*
X039659Y026102D01*
X039673Y026129D01*
X039690Y026153D01*
X039710Y026175D01*
X039733Y026193D01*
X039758Y026209D01*
X039785Y026220D01*
X039814Y026228D01*
X039843Y026232D01*
X039873Y026232D01*
X039902Y026228D01*
X039931Y026220D01*
X039958Y026209D01*
X039983Y026193D01*
X040006Y026175D01*
X040026Y026153D01*
X040043Y026129D01*
X040057Y026102D01*
X040067Y026075D01*
X040073Y026046D01*
X040075Y026016D01*
X040073Y025986D01*
X040067Y025957D01*
X040057Y025930D01*
X040043Y025903D01*
X040026Y025879D01*
X040006Y025857D01*
X039983Y025839D01*
X039958Y025823D01*
X039931Y025812D01*
X039902Y025804D01*
X039873Y025800D01*
X039843Y025800D01*
X039814Y025804D01*
X039785Y025812D01*
X039758Y025823D01*
X039733Y025839D01*
X039710Y025857D01*
X039690Y025879D01*
X039673Y025903D01*
X039659Y025930D01*
X039649Y025957D01*
X039643Y025986D01*
X039641Y026016D01*
X040941Y026016D02*
X040943Y026046D01*
X040949Y026075D01*
X040959Y026102D01*
X040973Y026129D01*
X040990Y026153D01*
X041010Y026175D01*
X041033Y026193D01*
X041058Y026209D01*
X041085Y026220D01*
X041114Y026228D01*
X041143Y026232D01*
X041173Y026232D01*
X041202Y026228D01*
X041231Y026220D01*
X041258Y026209D01*
X041283Y026193D01*
X041306Y026175D01*
X041326Y026153D01*
X041343Y026129D01*
X041357Y026102D01*
X041367Y026075D01*
X041373Y026046D01*
X041375Y026016D01*
X041373Y025986D01*
X041367Y025957D01*
X041357Y025930D01*
X041343Y025903D01*
X041326Y025879D01*
X041306Y025857D01*
X041283Y025839D01*
X041258Y025823D01*
X041231Y025812D01*
X041202Y025804D01*
X041173Y025800D01*
X041143Y025800D01*
X041114Y025804D01*
X041085Y025812D01*
X041058Y025823D01*
X041033Y025839D01*
X041010Y025857D01*
X040990Y025879D01*
X040973Y025903D01*
X040959Y025930D01*
X040949Y025957D01*
X040943Y025986D01*
X040941Y026016D01*
X041941Y026016D02*
X041943Y026046D01*
X041949Y026075D01*
X041959Y026102D01*
X041973Y026129D01*
X041990Y026153D01*
X042010Y026175D01*
X042033Y026193D01*
X042058Y026209D01*
X042085Y026220D01*
X042114Y026228D01*
X042143Y026232D01*
X042173Y026232D01*
X042202Y026228D01*
X042231Y026220D01*
X042258Y026209D01*
X042283Y026193D01*
X042306Y026175D01*
X042326Y026153D01*
X042343Y026129D01*
X042357Y026102D01*
X042367Y026075D01*
X042373Y026046D01*
X042375Y026016D01*
X042373Y025986D01*
X042367Y025957D01*
X042357Y025930D01*
X042343Y025903D01*
X042326Y025879D01*
X042306Y025857D01*
X042283Y025839D01*
X042258Y025823D01*
X042231Y025812D01*
X042202Y025804D01*
X042173Y025800D01*
X042143Y025800D01*
X042114Y025804D01*
X042085Y025812D01*
X042058Y025823D01*
X042033Y025839D01*
X042010Y025857D01*
X041990Y025879D01*
X041973Y025903D01*
X041959Y025930D01*
X041949Y025957D01*
X041943Y025986D01*
X041941Y026016D01*
X043241Y026016D02*
X043243Y026046D01*
X043249Y026075D01*
X043259Y026102D01*
X043273Y026129D01*
X043290Y026153D01*
X043310Y026175D01*
X043333Y026193D01*
X043358Y026209D01*
X043385Y026220D01*
X043414Y026228D01*
X043443Y026232D01*
X043473Y026232D01*
X043502Y026228D01*
X043531Y026220D01*
X043558Y026209D01*
X043583Y026193D01*
X043606Y026175D01*
X043626Y026153D01*
X043643Y026129D01*
X043657Y026102D01*
X043667Y026075D01*
X043673Y026046D01*
X043675Y026016D01*
X043673Y025986D01*
X043667Y025957D01*
X043657Y025930D01*
X043643Y025903D01*
X043626Y025879D01*
X043606Y025857D01*
X043583Y025839D01*
X043558Y025823D01*
X043531Y025812D01*
X043502Y025804D01*
X043473Y025800D01*
X043443Y025800D01*
X043414Y025804D01*
X043385Y025812D01*
X043358Y025823D01*
X043333Y025839D01*
X043310Y025857D01*
X043290Y025879D01*
X043273Y025903D01*
X043259Y025930D01*
X043249Y025957D01*
X043243Y025986D01*
X043241Y026016D01*
X044241Y026016D02*
X044243Y026046D01*
X044249Y026075D01*
X044259Y026102D01*
X044273Y026129D01*
X044290Y026153D01*
X044310Y026175D01*
X044333Y026193D01*
X044358Y026209D01*
X044385Y026220D01*
X044414Y026228D01*
X044443Y026232D01*
X044473Y026232D01*
X044502Y026228D01*
X044531Y026220D01*
X044558Y026209D01*
X044583Y026193D01*
X044606Y026175D01*
X044626Y026153D01*
X044643Y026129D01*
X044657Y026102D01*
X044667Y026075D01*
X044673Y026046D01*
X044675Y026016D01*
X044673Y025986D01*
X044667Y025957D01*
X044657Y025930D01*
X044643Y025903D01*
X044626Y025879D01*
X044606Y025857D01*
X044583Y025839D01*
X044558Y025823D01*
X044531Y025812D01*
X044502Y025804D01*
X044473Y025800D01*
X044443Y025800D01*
X044414Y025804D01*
X044385Y025812D01*
X044358Y025823D01*
X044333Y025839D01*
X044310Y025857D01*
X044290Y025879D01*
X044273Y025903D01*
X044259Y025930D01*
X044249Y025957D01*
X044243Y025986D01*
X044241Y026016D01*
X045241Y026016D02*
X045243Y026046D01*
X045249Y026075D01*
X045259Y026102D01*
X045273Y026129D01*
X045290Y026153D01*
X045310Y026175D01*
X045333Y026193D01*
X045358Y026209D01*
X045385Y026220D01*
X045414Y026228D01*
X045443Y026232D01*
X045473Y026232D01*
X045502Y026228D01*
X045531Y026220D01*
X045558Y026209D01*
X045583Y026193D01*
X045606Y026175D01*
X045626Y026153D01*
X045643Y026129D01*
X045657Y026102D01*
X045667Y026075D01*
X045673Y026046D01*
X045675Y026016D01*
X045673Y025986D01*
X045667Y025957D01*
X045657Y025930D01*
X045643Y025903D01*
X045626Y025879D01*
X045606Y025857D01*
X045583Y025839D01*
X045558Y025823D01*
X045531Y025812D01*
X045502Y025804D01*
X045473Y025800D01*
X045443Y025800D01*
X045414Y025804D01*
X045385Y025812D01*
X045358Y025823D01*
X045333Y025839D01*
X045310Y025857D01*
X045290Y025879D01*
X045273Y025903D01*
X045259Y025930D01*
X045249Y025957D01*
X045243Y025986D01*
X045241Y026016D01*
X032091Y039316D02*
X032093Y039346D01*
X032099Y039375D01*
X032109Y039402D01*
X032123Y039429D01*
X032140Y039453D01*
X032160Y039475D01*
X032183Y039493D01*
X032208Y039509D01*
X032235Y039520D01*
X032264Y039528D01*
X032293Y039532D01*
X032323Y039532D01*
X032352Y039528D01*
X032381Y039520D01*
X032408Y039509D01*
X032433Y039493D01*
X032456Y039475D01*
X032476Y039453D01*
X032493Y039429D01*
X032507Y039402D01*
X032517Y039375D01*
X032523Y039346D01*
X032525Y039316D01*
X032523Y039286D01*
X032517Y039257D01*
X032507Y039230D01*
X032493Y039203D01*
X032476Y039179D01*
X032456Y039157D01*
X032433Y039139D01*
X032408Y039123D01*
X032381Y039112D01*
X032352Y039104D01*
X032323Y039100D01*
X032293Y039100D01*
X032264Y039104D01*
X032235Y039112D01*
X032208Y039123D01*
X032183Y039139D01*
X032160Y039157D01*
X032140Y039179D01*
X032123Y039203D01*
X032109Y039230D01*
X032099Y039257D01*
X032093Y039286D01*
X032091Y039316D01*
X031091Y039316D02*
X031093Y039346D01*
X031099Y039375D01*
X031109Y039402D01*
X031123Y039429D01*
X031140Y039453D01*
X031160Y039475D01*
X031183Y039493D01*
X031208Y039509D01*
X031235Y039520D01*
X031264Y039528D01*
X031293Y039532D01*
X031323Y039532D01*
X031352Y039528D01*
X031381Y039520D01*
X031408Y039509D01*
X031433Y039493D01*
X031456Y039475D01*
X031476Y039453D01*
X031493Y039429D01*
X031507Y039402D01*
X031517Y039375D01*
X031523Y039346D01*
X031525Y039316D01*
X031523Y039286D01*
X031517Y039257D01*
X031507Y039230D01*
X031493Y039203D01*
X031476Y039179D01*
X031456Y039157D01*
X031433Y039139D01*
X031408Y039123D01*
X031381Y039112D01*
X031352Y039104D01*
X031323Y039100D01*
X031293Y039100D01*
X031264Y039104D01*
X031235Y039112D01*
X031208Y039123D01*
X031183Y039139D01*
X031160Y039157D01*
X031140Y039179D01*
X031123Y039203D01*
X031109Y039230D01*
X031099Y039257D01*
X031093Y039286D01*
X031091Y039316D01*
X030091Y039316D02*
X030093Y039346D01*
X030099Y039375D01*
X030109Y039402D01*
X030123Y039429D01*
X030140Y039453D01*
X030160Y039475D01*
X030183Y039493D01*
X030208Y039509D01*
X030235Y039520D01*
X030264Y039528D01*
X030293Y039532D01*
X030323Y039532D01*
X030352Y039528D01*
X030381Y039520D01*
X030408Y039509D01*
X030433Y039493D01*
X030456Y039475D01*
X030476Y039453D01*
X030493Y039429D01*
X030507Y039402D01*
X030517Y039375D01*
X030523Y039346D01*
X030525Y039316D01*
X030523Y039286D01*
X030517Y039257D01*
X030507Y039230D01*
X030493Y039203D01*
X030476Y039179D01*
X030456Y039157D01*
X030433Y039139D01*
X030408Y039123D01*
X030381Y039112D01*
X030352Y039104D01*
X030323Y039100D01*
X030293Y039100D01*
X030264Y039104D01*
X030235Y039112D01*
X030208Y039123D01*
X030183Y039139D01*
X030160Y039157D01*
X030140Y039179D01*
X030123Y039203D01*
X030109Y039230D01*
X030099Y039257D01*
X030093Y039286D01*
X030091Y039316D01*
X028791Y039316D02*
X028793Y039346D01*
X028799Y039375D01*
X028809Y039402D01*
X028823Y039429D01*
X028840Y039453D01*
X028860Y039475D01*
X028883Y039493D01*
X028908Y039509D01*
X028935Y039520D01*
X028964Y039528D01*
X028993Y039532D01*
X029023Y039532D01*
X029052Y039528D01*
X029081Y039520D01*
X029108Y039509D01*
X029133Y039493D01*
X029156Y039475D01*
X029176Y039453D01*
X029193Y039429D01*
X029207Y039402D01*
X029217Y039375D01*
X029223Y039346D01*
X029225Y039316D01*
X029223Y039286D01*
X029217Y039257D01*
X029207Y039230D01*
X029193Y039203D01*
X029176Y039179D01*
X029156Y039157D01*
X029133Y039139D01*
X029108Y039123D01*
X029081Y039112D01*
X029052Y039104D01*
X029023Y039100D01*
X028993Y039100D01*
X028964Y039104D01*
X028935Y039112D01*
X028908Y039123D01*
X028883Y039139D01*
X028860Y039157D01*
X028840Y039179D01*
X028823Y039203D01*
X028809Y039230D01*
X028799Y039257D01*
X028793Y039286D01*
X028791Y039316D01*
X027791Y039316D02*
X027793Y039346D01*
X027799Y039375D01*
X027809Y039402D01*
X027823Y039429D01*
X027840Y039453D01*
X027860Y039475D01*
X027883Y039493D01*
X027908Y039509D01*
X027935Y039520D01*
X027964Y039528D01*
X027993Y039532D01*
X028023Y039532D01*
X028052Y039528D01*
X028081Y039520D01*
X028108Y039509D01*
X028133Y039493D01*
X028156Y039475D01*
X028176Y039453D01*
X028193Y039429D01*
X028207Y039402D01*
X028217Y039375D01*
X028223Y039346D01*
X028225Y039316D01*
X028223Y039286D01*
X028217Y039257D01*
X028207Y039230D01*
X028193Y039203D01*
X028176Y039179D01*
X028156Y039157D01*
X028133Y039139D01*
X028108Y039123D01*
X028081Y039112D01*
X028052Y039104D01*
X028023Y039100D01*
X027993Y039100D01*
X027964Y039104D01*
X027935Y039112D01*
X027908Y039123D01*
X027883Y039139D01*
X027860Y039157D01*
X027840Y039179D01*
X027823Y039203D01*
X027809Y039230D01*
X027799Y039257D01*
X027793Y039286D01*
X027791Y039316D01*
X026491Y039316D02*
X026493Y039346D01*
X026499Y039375D01*
X026509Y039402D01*
X026523Y039429D01*
X026540Y039453D01*
X026560Y039475D01*
X026583Y039493D01*
X026608Y039509D01*
X026635Y039520D01*
X026664Y039528D01*
X026693Y039532D01*
X026723Y039532D01*
X026752Y039528D01*
X026781Y039520D01*
X026808Y039509D01*
X026833Y039493D01*
X026856Y039475D01*
X026876Y039453D01*
X026893Y039429D01*
X026907Y039402D01*
X026917Y039375D01*
X026923Y039346D01*
X026925Y039316D01*
X026923Y039286D01*
X026917Y039257D01*
X026907Y039230D01*
X026893Y039203D01*
X026876Y039179D01*
X026856Y039157D01*
X026833Y039139D01*
X026808Y039123D01*
X026781Y039112D01*
X026752Y039104D01*
X026723Y039100D01*
X026693Y039100D01*
X026664Y039104D01*
X026635Y039112D01*
X026608Y039123D01*
X026583Y039139D01*
X026560Y039157D01*
X026540Y039179D01*
X026523Y039203D01*
X026509Y039230D01*
X026499Y039257D01*
X026493Y039286D01*
X026491Y039316D01*
X025491Y039316D02*
X025493Y039346D01*
X025499Y039375D01*
X025509Y039402D01*
X025523Y039429D01*
X025540Y039453D01*
X025560Y039475D01*
X025583Y039493D01*
X025608Y039509D01*
X025635Y039520D01*
X025664Y039528D01*
X025693Y039532D01*
X025723Y039532D01*
X025752Y039528D01*
X025781Y039520D01*
X025808Y039509D01*
X025833Y039493D01*
X025856Y039475D01*
X025876Y039453D01*
X025893Y039429D01*
X025907Y039402D01*
X025917Y039375D01*
X025923Y039346D01*
X025925Y039316D01*
X025923Y039286D01*
X025917Y039257D01*
X025907Y039230D01*
X025893Y039203D01*
X025876Y039179D01*
X025856Y039157D01*
X025833Y039139D01*
X025808Y039123D01*
X025781Y039112D01*
X025752Y039104D01*
X025723Y039100D01*
X025693Y039100D01*
X025664Y039104D01*
X025635Y039112D01*
X025608Y039123D01*
X025583Y039139D01*
X025560Y039157D01*
X025540Y039179D01*
X025523Y039203D01*
X025509Y039230D01*
X025499Y039257D01*
X025493Y039286D01*
X025491Y039316D01*
X024491Y039316D02*
X024493Y039346D01*
X024499Y039375D01*
X024509Y039402D01*
X024523Y039429D01*
X024540Y039453D01*
X024560Y039475D01*
X024583Y039493D01*
X024608Y039509D01*
X024635Y039520D01*
X024664Y039528D01*
X024693Y039532D01*
X024723Y039532D01*
X024752Y039528D01*
X024781Y039520D01*
X024808Y039509D01*
X024833Y039493D01*
X024856Y039475D01*
X024876Y039453D01*
X024893Y039429D01*
X024907Y039402D01*
X024917Y039375D01*
X024923Y039346D01*
X024925Y039316D01*
X024923Y039286D01*
X024917Y039257D01*
X024907Y039230D01*
X024893Y039203D01*
X024876Y039179D01*
X024856Y039157D01*
X024833Y039139D01*
X024808Y039123D01*
X024781Y039112D01*
X024752Y039104D01*
X024723Y039100D01*
X024693Y039100D01*
X024664Y039104D01*
X024635Y039112D01*
X024608Y039123D01*
X024583Y039139D01*
X024560Y039157D01*
X024540Y039179D01*
X024523Y039203D01*
X024509Y039230D01*
X024499Y039257D01*
X024493Y039286D01*
X024491Y039316D01*
D22*
X024708Y039316D03*
X025708Y039316D03*
X026708Y039316D03*
X028008Y039316D03*
X029008Y039316D03*
X030308Y039316D03*
X031308Y039316D03*
X032308Y039316D03*
X037858Y026016D03*
X038858Y026016D03*
X039858Y026016D03*
X041158Y026016D03*
X042158Y026016D03*
X043458Y026016D03*
X044458Y026016D03*
X045458Y026016D03*
X032308Y024516D03*
X031308Y024516D03*
X030308Y024516D03*
X029008Y024516D03*
X028008Y024516D03*
X026708Y024516D03*
X025708Y024516D03*
X024708Y024516D03*
X019158Y024516D03*
X018158Y024516D03*
X017158Y024516D03*
X015858Y024516D03*
X014858Y024516D03*
X013558Y024516D03*
X012558Y024516D03*
X011558Y024516D03*
X011558Y039316D03*
X012558Y039316D03*
X013558Y039316D03*
X014858Y039316D03*
X015858Y039316D03*
X017158Y039316D03*
X018158Y039316D03*
X019158Y039316D03*
D23*
X041410Y011118D03*
X041410Y003518D03*
D24*
X040550Y005258D03*
X039220Y006028D03*
X038870Y006408D03*
X037990Y006718D03*
X036438Y006471D03*
X035558Y006481D03*
X036358Y005201D03*
X035258Y003001D03*
X030718Y008651D03*
X032388Y010149D03*
X028748Y011231D03*
X028378Y010181D03*
X028588Y009681D03*
X027398Y008691D03*
X026068Y009461D03*
X025718Y009841D03*
X024888Y010451D03*
X024738Y014671D03*
X026178Y015581D03*
X026808Y015201D03*
X027608Y016301D03*
X028128Y016851D03*
X026808Y016801D03*
X027398Y020541D03*
X028588Y021531D03*
X028378Y022031D03*
X028748Y023081D03*
X030718Y020501D03*
X032388Y021999D03*
X035558Y018331D03*
X036438Y018321D03*
X036358Y017051D03*
X035258Y014851D03*
X037990Y014318D03*
X038870Y014008D03*
X039220Y013628D03*
X040550Y012858D03*
X041740Y013848D03*
X041530Y014348D03*
X042150Y015398D03*
X043870Y012818D03*
X045540Y014316D03*
X048710Y010648D03*
X049590Y010638D03*
X045540Y006716D03*
X043870Y005218D03*
X041740Y006248D03*
X041530Y006748D03*
X042150Y007798D03*
X048710Y003048D03*
X049590Y003038D03*
X039928Y019578D03*
X040958Y020568D03*
X041188Y022228D03*
X038038Y030986D03*
X039378Y031896D03*
X039458Y033116D03*
X040608Y033116D03*
X041370Y033211D03*
X040548Y036856D03*
X039218Y037626D03*
X038868Y038006D03*
X038088Y038616D03*
X041528Y038346D03*
X041738Y037846D03*
X042048Y039346D03*
X043868Y036816D03*
X045638Y038314D03*
X047458Y034966D03*
X048658Y034646D03*
X049588Y034636D03*
X045808Y033266D03*
X044658Y031416D03*
X036438Y033136D03*
X035508Y033146D03*
X034308Y033466D03*
X032658Y031766D03*
X031508Y029916D03*
X028220Y031711D03*
X027458Y031616D03*
X026308Y031616D03*
X026228Y030396D03*
X024888Y029486D03*
X023288Y033136D03*
X022358Y033146D03*
X021158Y033466D03*
X019508Y031766D03*
X018358Y029916D03*
X015070Y031711D03*
X014308Y031616D03*
X013158Y031616D03*
X013078Y030396D03*
X011738Y029486D03*
X014248Y035356D03*
X015438Y036346D03*
X015228Y036846D03*
X015748Y037846D03*
X017568Y035316D03*
X019338Y036814D03*
X024938Y037116D03*
X025718Y036506D03*
X026068Y036126D03*
X027398Y035356D03*
X028588Y036346D03*
X028378Y036846D03*
X028898Y037846D03*
X030718Y035316D03*
X032488Y036814D03*
X031508Y044716D03*
X032658Y046566D03*
X034308Y048266D03*
X035508Y047946D03*
X036438Y047936D03*
X038040Y050812D03*
X038870Y050352D03*
X039220Y049972D03*
X040550Y049202D03*
X041530Y050642D03*
X041740Y050092D03*
X041900Y051742D03*
X043870Y049162D03*
X045590Y050660D03*
X048710Y046992D03*
X049590Y046982D03*
X041410Y045492D03*
X040600Y045542D03*
X040100Y045342D03*
X039640Y045642D03*
X039260Y045302D03*
X039380Y044242D03*
X038090Y043382D03*
X041210Y043762D03*
X032488Y051614D03*
X030718Y050116D03*
X028588Y051146D03*
X028378Y051646D03*
X028898Y052646D03*
X027398Y050156D03*
X026068Y050926D03*
X025718Y051306D03*
X024938Y051916D03*
X024940Y055832D03*
X026230Y056692D03*
X026110Y057752D03*
X026490Y058092D03*
X026950Y057792D03*
X027450Y057992D03*
X028260Y057942D03*
X028060Y056212D03*
X027400Y061652D03*
X028590Y062542D03*
X028380Y063092D03*
X028750Y064192D03*
X030720Y061612D03*
X032440Y063110D03*
X035560Y059442D03*
X036440Y059432D03*
X038088Y055832D03*
X039378Y056692D03*
X039258Y057752D03*
X039638Y058092D03*
X040098Y057792D03*
X040598Y057992D03*
X041408Y057942D03*
X041208Y056212D03*
X040548Y061652D03*
X039218Y062422D03*
X038868Y062802D03*
X038038Y063262D03*
X041528Y063092D03*
X041738Y062542D03*
X041898Y064192D03*
X043868Y061612D03*
X045588Y063110D03*
X048708Y059442D03*
X049588Y059432D03*
X028220Y046511D03*
X027458Y046416D03*
X026308Y046416D03*
X026228Y045196D03*
X024888Y044286D03*
X023288Y047936D03*
X022358Y047946D03*
X021158Y048266D03*
X019508Y046566D03*
X018358Y044716D03*
X015070Y046511D03*
X014308Y046416D03*
X013158Y046416D03*
X013078Y045196D03*
X011738Y044286D03*
X014248Y050156D03*
X015438Y051146D03*
X015228Y051646D03*
X015748Y052646D03*
X017568Y050116D03*
X019338Y051614D03*
X014910Y056212D03*
X015110Y057942D03*
X014300Y057992D03*
X013800Y057792D03*
X013340Y058092D03*
X012960Y057752D03*
X013080Y056692D03*
X011790Y055832D03*
X011788Y051916D03*
X012568Y051306D03*
X012918Y050926D03*
X014250Y061652D03*
X015440Y062542D03*
X015230Y063092D03*
X015600Y064192D03*
X017570Y061612D03*
X019290Y063110D03*
X022410Y059442D03*
X023290Y059432D03*
X026070Y062422D03*
X025720Y062802D03*
X024890Y063262D03*
X012920Y062422D03*
X012570Y062802D03*
X011740Y063262D03*
X011788Y037116D03*
X012568Y036506D03*
X012918Y036126D03*
X015691Y023070D03*
X015071Y021170D03*
X015381Y020670D03*
X014241Y019680D03*
X012911Y020450D03*
X012561Y020830D03*
X011731Y020490D03*
X015881Y016560D03*
X016471Y016490D03*
X015881Y015380D03*
X015281Y015380D03*
X014801Y015140D03*
X014261Y015140D03*
X015181Y014120D03*
X012891Y013010D03*
X012221Y014310D03*
X017561Y020490D03*
X019281Y021988D03*
X022401Y018320D03*
X023281Y018310D03*
X026068Y021311D03*
X025718Y021691D03*
X024888Y022301D03*
X026808Y004951D03*
X027608Y004451D03*
X028128Y005001D03*
X026808Y003351D03*
X026178Y003731D03*
X024738Y002821D03*
M02*
